G04 #@! TF.GenerationSoftware,KiCad,Pcbnew,(5.0.2)-1*
G04 #@! TF.CreationDate,2019-09-25T20:11:12-04:00*
G04 #@! TF.ProjectId,FrontPanel,46726f6e-7450-4616-9e65-6c2e6b696361,X1*
G04 #@! TF.SameCoordinates,Original*
G04 #@! TF.FileFunction,Legend,Bot*
G04 #@! TF.FilePolarity,Positive*
%FSLAX46Y46*%
G04 Gerber Fmt 4.6, Leading zero omitted, Abs format (unit mm)*
G04 Created by KiCad (PCBNEW (5.0.2)-1) date 9/25/2019 8:11:12 PM*
%MOMM*%
%LPD*%
G01*
G04 APERTURE LIST*
%ADD10C,0.317500*%
%ADD11C,0.508000*%
%ADD12C,0.381000*%
%ADD13C,0.300000*%
%ADD14C,0.396875*%
%ADD15C,0.266700*%
%ADD16C,0.120000*%
%ADD17C,0.650000*%
%ADD18C,0.150000*%
%ADD19C,0.304800*%
G04 APERTURE END LIST*
D10*
X101080660Y-77568273D02*
X101080660Y-76298273D01*
X100536375Y-76419226D02*
X100475898Y-76358750D01*
X100354946Y-76298273D01*
X100052565Y-76298273D01*
X99931613Y-76358750D01*
X99871136Y-76419226D01*
X99810660Y-76540178D01*
X99810660Y-76661130D01*
X99871136Y-76842559D01*
X100596851Y-77568273D01*
X99810660Y-77568273D01*
X98540660Y-77447321D02*
X98601136Y-77507797D01*
X98782565Y-77568273D01*
X98903517Y-77568273D01*
X99084946Y-77507797D01*
X99205898Y-77386845D01*
X99266375Y-77265892D01*
X99326851Y-77023988D01*
X99326851Y-76842559D01*
X99266375Y-76600654D01*
X99205898Y-76479702D01*
X99084946Y-76358750D01*
X98903517Y-76298273D01*
X98782565Y-76298273D01*
X98601136Y-76358750D01*
X98540660Y-76419226D01*
X97996375Y-76721607D02*
X97028755Y-77084464D01*
X97996375Y-77447321D01*
X104225422Y-78520773D02*
X103499708Y-78520773D01*
X103862565Y-79790773D02*
X103862565Y-78520773D01*
X103076375Y-79125535D02*
X102653041Y-79125535D01*
X102471613Y-79790773D02*
X103076375Y-79790773D01*
X103076375Y-78520773D01*
X102471613Y-78520773D01*
X101201613Y-79790773D02*
X101624946Y-79186011D01*
X101927327Y-79790773D02*
X101927327Y-78520773D01*
X101443517Y-78520773D01*
X101322565Y-78581250D01*
X101262089Y-78641726D01*
X101201613Y-78762678D01*
X101201613Y-78944107D01*
X101262089Y-79065059D01*
X101322565Y-79125535D01*
X101443517Y-79186011D01*
X101927327Y-79186011D01*
X100657327Y-79790773D02*
X100657327Y-78520773D01*
X100233994Y-79427916D01*
X99810660Y-78520773D01*
X99810660Y-79790773D01*
X99266375Y-79730297D02*
X99084946Y-79790773D01*
X98782565Y-79790773D01*
X98661613Y-79730297D01*
X98601136Y-79669821D01*
X98540660Y-79548869D01*
X98540660Y-79427916D01*
X98601136Y-79306964D01*
X98661613Y-79246488D01*
X98782565Y-79186011D01*
X99024470Y-79125535D01*
X99145422Y-79065059D01*
X99205898Y-79004583D01*
X99266375Y-78883630D01*
X99266375Y-78762678D01*
X99205898Y-78641726D01*
X99145422Y-78581250D01*
X99024470Y-78520773D01*
X98722089Y-78520773D01*
X98540660Y-78581250D01*
X97996375Y-78944107D02*
X97028755Y-79306964D01*
X97996375Y-79669821D01*
D11*
X91882685Y-100753333D02*
X90673161Y-100753333D01*
X92124590Y-101479047D02*
X91277923Y-98939047D01*
X90431257Y-101479047D01*
X89705542Y-99180952D02*
X89584590Y-99060000D01*
X89342685Y-98939047D01*
X88737923Y-98939047D01*
X88496019Y-99060000D01*
X88375066Y-99180952D01*
X88254114Y-99422857D01*
X88254114Y-99664761D01*
X88375066Y-100027619D01*
X89826495Y-101479047D01*
X88254114Y-101479047D01*
D12*
X82560885Y-103528585D02*
X82742314Y-103437871D01*
X82833028Y-103256442D01*
X82833028Y-101623585D01*
X81018742Y-103528585D02*
X81018742Y-102530728D01*
X81109457Y-102349300D01*
X81290885Y-102258585D01*
X81653742Y-102258585D01*
X81835171Y-102349300D01*
X81018742Y-103437871D02*
X81200171Y-103528585D01*
X81653742Y-103528585D01*
X81835171Y-103437871D01*
X81925885Y-103256442D01*
X81925885Y-103075014D01*
X81835171Y-102893585D01*
X81653742Y-102802871D01*
X81200171Y-102802871D01*
X81018742Y-102712157D01*
X80111600Y-102258585D02*
X80111600Y-103528585D01*
X80111600Y-102440014D02*
X80020885Y-102349300D01*
X79839457Y-102258585D01*
X79567314Y-102258585D01*
X79385885Y-102349300D01*
X79295171Y-102530728D01*
X79295171Y-103528585D01*
X77571600Y-103528585D02*
X77571600Y-101623585D01*
X77571600Y-103437871D02*
X77753028Y-103528585D01*
X78115885Y-103528585D01*
X78297314Y-103437871D01*
X78388028Y-103347157D01*
X78478742Y-103165728D01*
X78478742Y-102621442D01*
X78388028Y-102440014D01*
X78297314Y-102349300D01*
X78115885Y-102258585D01*
X77753028Y-102258585D01*
X77571600Y-102349300D01*
X76664457Y-102802871D02*
X75213028Y-102802871D01*
X74305885Y-103528585D02*
X74305885Y-101623585D01*
X74305885Y-102349300D02*
X74124457Y-102258585D01*
X73761600Y-102258585D01*
X73580171Y-102349300D01*
X73489457Y-102440014D01*
X73398742Y-102621442D01*
X73398742Y-103165728D01*
X73489457Y-103347157D01*
X73580171Y-103437871D01*
X73761600Y-103528585D01*
X74124457Y-103528585D01*
X74305885Y-103437871D01*
X72310171Y-103528585D02*
X72491600Y-103437871D01*
X72582314Y-103347157D01*
X72673028Y-103165728D01*
X72673028Y-102621442D01*
X72582314Y-102440014D01*
X72491600Y-102349300D01*
X72310171Y-102258585D01*
X72038028Y-102258585D01*
X71856600Y-102349300D01*
X71765885Y-102440014D01*
X71675171Y-102621442D01*
X71675171Y-103165728D01*
X71765885Y-103347157D01*
X71856600Y-103437871D01*
X72038028Y-103528585D01*
X72310171Y-103528585D01*
X70042314Y-103528585D02*
X70042314Y-102530728D01*
X70133028Y-102349300D01*
X70314457Y-102258585D01*
X70677314Y-102258585D01*
X70858742Y-102349300D01*
X70042314Y-103437871D02*
X70223742Y-103528585D01*
X70677314Y-103528585D01*
X70858742Y-103437871D01*
X70949457Y-103256442D01*
X70949457Y-103075014D01*
X70858742Y-102893585D01*
X70677314Y-102802871D01*
X70223742Y-102802871D01*
X70042314Y-102712157D01*
X69135171Y-103528585D02*
X69135171Y-102258585D01*
X69135171Y-102621442D02*
X69044457Y-102440014D01*
X68953742Y-102349300D01*
X68772314Y-102258585D01*
X68590885Y-102258585D01*
X67139457Y-103528585D02*
X67139457Y-101623585D01*
X67139457Y-103437871D02*
X67320885Y-103528585D01*
X67683742Y-103528585D01*
X67865171Y-103437871D01*
X67955885Y-103347157D01*
X68046600Y-103165728D01*
X68046600Y-102621442D01*
X67955885Y-102440014D01*
X67865171Y-102349300D01*
X67683742Y-102258585D01*
X67320885Y-102258585D01*
X67139457Y-102349300D01*
X66323028Y-103437871D02*
X66141600Y-103528585D01*
X65778742Y-103528585D01*
X65597314Y-103437871D01*
X65506600Y-103256442D01*
X65506600Y-103165728D01*
X65597314Y-102984300D01*
X65778742Y-102893585D01*
X66050885Y-102893585D01*
X66232314Y-102802871D01*
X66323028Y-102621442D01*
X66323028Y-102530728D01*
X66232314Y-102349300D01*
X66050885Y-102258585D01*
X65778742Y-102258585D01*
X65597314Y-102349300D01*
X64690171Y-103347157D02*
X64599457Y-103437871D01*
X64690171Y-103528585D01*
X64780885Y-103437871D01*
X64690171Y-103347157D01*
X64690171Y-103528585D01*
X62966600Y-103437871D02*
X63148028Y-103528585D01*
X63510885Y-103528585D01*
X63692314Y-103437871D01*
X63783028Y-103347157D01*
X63873742Y-103165728D01*
X63873742Y-102621442D01*
X63783028Y-102440014D01*
X63692314Y-102349300D01*
X63510885Y-102258585D01*
X63148028Y-102258585D01*
X62966600Y-102349300D01*
X61878028Y-103528585D02*
X62059457Y-103437871D01*
X62150171Y-103347157D01*
X62240885Y-103165728D01*
X62240885Y-102621442D01*
X62150171Y-102440014D01*
X62059457Y-102349300D01*
X61878028Y-102258585D01*
X61605885Y-102258585D01*
X61424457Y-102349300D01*
X61333742Y-102440014D01*
X61243028Y-102621442D01*
X61243028Y-103165728D01*
X61333742Y-103347157D01*
X61424457Y-103437871D01*
X61605885Y-103528585D01*
X61878028Y-103528585D01*
X60426600Y-103528585D02*
X60426600Y-102258585D01*
X60426600Y-102440014D02*
X60335885Y-102349300D01*
X60154457Y-102258585D01*
X59882314Y-102258585D01*
X59700885Y-102349300D01*
X59610171Y-102530728D01*
X59610171Y-103528585D01*
X59610171Y-102530728D02*
X59519457Y-102349300D01*
X59338028Y-102258585D01*
X59065885Y-102258585D01*
X58884457Y-102349300D01*
X58793742Y-102530728D01*
X58793742Y-103528585D01*
X56525885Y-101532871D02*
X58158742Y-103982157D01*
X55255885Y-102530728D02*
X55890885Y-102530728D01*
X55890885Y-103528585D02*
X55890885Y-101623585D01*
X54983742Y-101623585D01*
X54258028Y-103528585D02*
X54258028Y-102258585D01*
X54258028Y-102621442D02*
X54167314Y-102440014D01*
X54076600Y-102349300D01*
X53895171Y-102258585D01*
X53713742Y-102258585D01*
X52806600Y-103528585D02*
X52988028Y-103437871D01*
X53078742Y-103347157D01*
X53169457Y-103165728D01*
X53169457Y-102621442D01*
X53078742Y-102440014D01*
X52988028Y-102349300D01*
X52806600Y-102258585D01*
X52534457Y-102258585D01*
X52353028Y-102349300D01*
X52262314Y-102440014D01*
X52171600Y-102621442D01*
X52171600Y-103165728D01*
X52262314Y-103347157D01*
X52353028Y-103437871D01*
X52534457Y-103528585D01*
X52806600Y-103528585D01*
X51355171Y-102258585D02*
X51355171Y-103528585D01*
X51355171Y-102440014D02*
X51264457Y-102349300D01*
X51083028Y-102258585D01*
X50810885Y-102258585D01*
X50629457Y-102349300D01*
X50538742Y-102530728D01*
X50538742Y-103528585D01*
X49903742Y-102258585D02*
X49178028Y-102258585D01*
X49631600Y-101623585D02*
X49631600Y-103256442D01*
X49540885Y-103437871D01*
X49359457Y-103528585D01*
X49178028Y-103528585D01*
X48543028Y-103528585D02*
X48543028Y-101623585D01*
X47817314Y-101623585D01*
X47635885Y-101714300D01*
X47545171Y-101805014D01*
X47454457Y-101986442D01*
X47454457Y-102258585D01*
X47545171Y-102440014D01*
X47635885Y-102530728D01*
X47817314Y-102621442D01*
X48543028Y-102621442D01*
X45821600Y-103528585D02*
X45821600Y-102530728D01*
X45912314Y-102349300D01*
X46093742Y-102258585D01*
X46456600Y-102258585D01*
X46638028Y-102349300D01*
X45821600Y-103437871D02*
X46003028Y-103528585D01*
X46456600Y-103528585D01*
X46638028Y-103437871D01*
X46728742Y-103256442D01*
X46728742Y-103075014D01*
X46638028Y-102893585D01*
X46456600Y-102802871D01*
X46003028Y-102802871D01*
X45821600Y-102712157D01*
X44914457Y-102258585D02*
X44914457Y-103528585D01*
X44914457Y-102440014D02*
X44823742Y-102349300D01*
X44642314Y-102258585D01*
X44370171Y-102258585D01*
X44188742Y-102349300D01*
X44098028Y-102530728D01*
X44098028Y-103528585D01*
X42465171Y-103437871D02*
X42646600Y-103528585D01*
X43009457Y-103528585D01*
X43190885Y-103437871D01*
X43281600Y-103256442D01*
X43281600Y-102530728D01*
X43190885Y-102349300D01*
X43009457Y-102258585D01*
X42646600Y-102258585D01*
X42465171Y-102349300D01*
X42374457Y-102530728D01*
X42374457Y-102712157D01*
X43281600Y-102893585D01*
X41285885Y-103528585D02*
X41467314Y-103437871D01*
X41558028Y-103256442D01*
X41558028Y-101623585D01*
X40560171Y-102802871D02*
X39108742Y-102802871D01*
X37838742Y-101623585D02*
X37657314Y-101623585D01*
X37475885Y-101714300D01*
X37385171Y-101805014D01*
X37294457Y-101986442D01*
X37203742Y-102349300D01*
X37203742Y-102802871D01*
X37294457Y-103165728D01*
X37385171Y-103347157D01*
X37475885Y-103437871D01*
X37657314Y-103528585D01*
X37838742Y-103528585D01*
X38020171Y-103437871D01*
X38110885Y-103347157D01*
X38201600Y-103165728D01*
X38292314Y-102802871D01*
X38292314Y-102349300D01*
X38201600Y-101986442D01*
X38110885Y-101805014D01*
X38020171Y-101714300D01*
X37838742Y-101623585D01*
X35389457Y-103528585D02*
X36478028Y-103528585D01*
X35933742Y-103528585D02*
X35933742Y-101623585D01*
X36115171Y-101895728D01*
X36296600Y-102077157D01*
X36478028Y-102167871D01*
X12295414Y-63230578D02*
X14200414Y-63230578D01*
X14200414Y-62504864D01*
X14109700Y-62323435D01*
X14018985Y-62232721D01*
X13837557Y-62142007D01*
X13565414Y-62142007D01*
X13383985Y-62232721D01*
X13293271Y-62323435D01*
X13202557Y-62504864D01*
X13202557Y-63230578D01*
X14200414Y-61507007D02*
X12295414Y-61053435D01*
X13656128Y-60690578D01*
X12295414Y-60327721D01*
X14200414Y-59874150D01*
X13293271Y-58513435D02*
X13202557Y-58241292D01*
X13111842Y-58150578D01*
X12930414Y-58059864D01*
X12658271Y-58059864D01*
X12476842Y-58150578D01*
X12386128Y-58241292D01*
X12295414Y-58422721D01*
X12295414Y-59148435D01*
X14200414Y-59148435D01*
X14200414Y-58513435D01*
X14109700Y-58332007D01*
X14018985Y-58241292D01*
X13837557Y-58150578D01*
X13656128Y-58150578D01*
X13474700Y-58241292D01*
X13383985Y-58332007D01*
X13293271Y-58513435D01*
X13293271Y-59148435D01*
X12295414Y-54703435D02*
X13202557Y-55338435D01*
X12295414Y-55792007D02*
X14200414Y-55792007D01*
X14200414Y-55066292D01*
X14109700Y-54884864D01*
X14018985Y-54794150D01*
X13837557Y-54703435D01*
X13565414Y-54703435D01*
X13383985Y-54794150D01*
X13293271Y-54884864D01*
X13202557Y-55066292D01*
X13202557Y-55792007D01*
X12386128Y-53161292D02*
X12295414Y-53342721D01*
X12295414Y-53705578D01*
X12386128Y-53887007D01*
X12567557Y-53977721D01*
X13293271Y-53977721D01*
X13474700Y-53887007D01*
X13565414Y-53705578D01*
X13565414Y-53342721D01*
X13474700Y-53161292D01*
X13293271Y-53070578D01*
X13111842Y-53070578D01*
X12930414Y-53977721D01*
X13565414Y-52435578D02*
X12295414Y-51982007D01*
X13565414Y-51528435D01*
X12295414Y-48353435D02*
X12295414Y-49442007D01*
X12295414Y-48897721D02*
X14200414Y-48897721D01*
X13928271Y-49079150D01*
X13746842Y-49260578D01*
X13656128Y-49442007D01*
D13*
X102024571Y-37258571D02*
X102024571Y-36401428D01*
X102024571Y-36830000D02*
X100524571Y-36830000D01*
X100738857Y-36687142D01*
X100881714Y-36544285D01*
X100953142Y-36401428D01*
D14*
X89440354Y-38810897D02*
X87852854Y-38810897D01*
X88004045Y-39491254D02*
X87928450Y-39566850D01*
X87852854Y-39718040D01*
X87852854Y-40096016D01*
X87928450Y-40247207D01*
X88004045Y-40322802D01*
X88155235Y-40398397D01*
X88306426Y-40398397D01*
X88533211Y-40322802D01*
X89440354Y-39415659D01*
X89440354Y-40398397D01*
X89289164Y-41985897D02*
X89364759Y-41910302D01*
X89440354Y-41683516D01*
X89440354Y-41532326D01*
X89364759Y-41305540D01*
X89213569Y-41154350D01*
X89062378Y-41078754D01*
X88759997Y-41003159D01*
X88533211Y-41003159D01*
X88230830Y-41078754D01*
X88079640Y-41154350D01*
X87928450Y-41305540D01*
X87852854Y-41532326D01*
X87852854Y-41683516D01*
X87928450Y-41910302D01*
X88004045Y-41985897D01*
D15*
X89767410Y-42642155D02*
X89767410Y-43150155D01*
X91900828Y-42896155D02*
X90376828Y-42896155D01*
X89767410Y-43150155D02*
X89767410Y-44267755D01*
X91900828Y-43404155D02*
X90376828Y-43404155D01*
X91900828Y-44013755D01*
X90376828Y-44013755D01*
X89767410Y-44267755D02*
X89767410Y-45080555D01*
X90376828Y-44369355D02*
X90376828Y-44978955D01*
X91900828Y-44674155D02*
X90376828Y-44674155D01*
X94380957Y-42845355D02*
X94453528Y-42997755D01*
X94453528Y-43251755D01*
X94380957Y-43353355D01*
X94308385Y-43404155D01*
X94163242Y-43454955D01*
X94018100Y-43454955D01*
X93872957Y-43404155D01*
X93800385Y-43353355D01*
X93727814Y-43251755D01*
X93655242Y-43048555D01*
X93582671Y-42946955D01*
X93510100Y-42896155D01*
X93364957Y-42845355D01*
X93219814Y-42845355D01*
X93074671Y-42896155D01*
X93002100Y-42946955D01*
X92929528Y-43048555D01*
X92929528Y-43302555D01*
X93002100Y-43454955D01*
X94308385Y-44521755D02*
X94380957Y-44470955D01*
X94453528Y-44318555D01*
X94453528Y-44216955D01*
X94380957Y-44064555D01*
X94235814Y-43962955D01*
X94090671Y-43912155D01*
X93800385Y-43861355D01*
X93582671Y-43861355D01*
X93292385Y-43912155D01*
X93147242Y-43962955D01*
X93002100Y-44064555D01*
X92929528Y-44216955D01*
X92929528Y-44318555D01*
X93002100Y-44470955D01*
X93074671Y-44521755D01*
X94453528Y-45486955D02*
X94453528Y-44978955D01*
X92929528Y-44978955D01*
X96933657Y-42845355D02*
X97006228Y-42997755D01*
X97006228Y-43251755D01*
X96933657Y-43353355D01*
X96861085Y-43404155D01*
X96715942Y-43454955D01*
X96570800Y-43454955D01*
X96425657Y-43404155D01*
X96353085Y-43353355D01*
X96280514Y-43251755D01*
X96207942Y-43048555D01*
X96135371Y-42946955D01*
X96062800Y-42896155D01*
X95917657Y-42845355D01*
X95772514Y-42845355D01*
X95627371Y-42896155D01*
X95554800Y-42946955D01*
X95482228Y-43048555D01*
X95482228Y-43302555D01*
X95554800Y-43454955D01*
X97006228Y-43912155D02*
X95482228Y-43912155D01*
X95482228Y-44166155D01*
X95554800Y-44318555D01*
X95699942Y-44420155D01*
X95845085Y-44470955D01*
X96135371Y-44521755D01*
X96353085Y-44521755D01*
X96643371Y-44470955D01*
X96788514Y-44420155D01*
X96933657Y-44318555D01*
X97006228Y-44166155D01*
X97006228Y-43912155D01*
X96570800Y-44928155D02*
X96570800Y-45436155D01*
X97006228Y-44826555D02*
X95482228Y-45182155D01*
X97006228Y-45537755D01*
X98978357Y-42896155D02*
X98978357Y-43708955D01*
X99558928Y-43302555D02*
X98397785Y-43302555D01*
X98034928Y-44064555D02*
X99558928Y-44420155D01*
X98034928Y-44775755D01*
X100660200Y-43454955D02*
X100587628Y-43353355D01*
X100587628Y-43200955D01*
X100660200Y-43048555D01*
X100805342Y-42946955D01*
X100950485Y-42896155D01*
X101240771Y-42845355D01*
X101458485Y-42845355D01*
X101748771Y-42896155D01*
X101893914Y-42946955D01*
X102039057Y-43048555D01*
X102111628Y-43200955D01*
X102111628Y-43302555D01*
X102039057Y-43454955D01*
X101966485Y-43505755D01*
X101458485Y-43505755D01*
X101458485Y-43302555D01*
X102111628Y-43962955D02*
X100587628Y-43962955D01*
X102111628Y-44572555D01*
X100587628Y-44572555D01*
X102111628Y-45080555D02*
X100587628Y-45080555D01*
X100587628Y-45334555D01*
X100660200Y-45486955D01*
X100805342Y-45588555D01*
X100950485Y-45639355D01*
X101240771Y-45690155D01*
X101458485Y-45690155D01*
X101748771Y-45639355D01*
X101893914Y-45588555D01*
X102039057Y-45486955D01*
X102111628Y-45334555D01*
X102111628Y-45080555D01*
D16*
G04 #@! TO.C,J1*
X88903500Y-91380000D02*
X91563500Y-91380000D01*
X88903500Y-93980000D02*
X88903500Y-91380000D01*
X91563500Y-93980000D02*
X91563500Y-91380000D01*
X88903500Y-93980000D02*
X91563500Y-93980000D01*
X88903500Y-95250000D02*
X88903500Y-96580000D01*
X88903500Y-96580000D02*
X90233500Y-96580000D01*
G04 #@! TO.C,R1*
X89161252Y-80085000D02*
X88638748Y-80085000D01*
X89161252Y-78665000D02*
X88638748Y-78665000D01*
G04 #@! TO.C,R2*
X89161252Y-76125000D02*
X88638748Y-76125000D01*
X89161252Y-77545000D02*
X88638748Y-77545000D01*
G04 #@! TO.C,R5*
X27185252Y-77164000D02*
X26662748Y-77164000D01*
X27185252Y-75744000D02*
X26662748Y-75744000D01*
G04 #@! TO.C,R8*
X34805252Y-75744000D02*
X34282748Y-75744000D01*
X34805252Y-77164000D02*
X34282748Y-77164000D01*
G04 #@! TO.C,R9*
X42425252Y-77164000D02*
X41902748Y-77164000D01*
X42425252Y-75744000D02*
X41902748Y-75744000D01*
G04 #@! TO.C,R10*
X50045252Y-75744000D02*
X49522748Y-75744000D01*
X50045252Y-77164000D02*
X49522748Y-77164000D01*
G04 #@! TO.C,R11*
X59951252Y-75744000D02*
X59428748Y-75744000D01*
X59951252Y-77164000D02*
X59428748Y-77164000D01*
G04 #@! TO.C,R12*
X67571252Y-75744000D02*
X67048748Y-75744000D01*
X67571252Y-77164000D02*
X67048748Y-77164000D01*
G04 #@! TO.C,R13*
X75191252Y-77164000D02*
X74668748Y-77164000D01*
X75191252Y-75744000D02*
X74668748Y-75744000D01*
G04 #@! TO.C,R14*
X82811252Y-77164000D02*
X82288748Y-77164000D01*
X82811252Y-75744000D02*
X82288748Y-75744000D01*
G04 #@! TO.C,R15*
X27185252Y-58114000D02*
X26662748Y-58114000D01*
X27185252Y-56694000D02*
X26662748Y-56694000D01*
G04 #@! TO.C,R16*
X34805252Y-58114000D02*
X34282748Y-58114000D01*
X34805252Y-56694000D02*
X34282748Y-56694000D01*
G04 #@! TO.C,R17*
X42425252Y-56694000D02*
X41902748Y-56694000D01*
X42425252Y-58114000D02*
X41902748Y-58114000D01*
G04 #@! TO.C,R18*
X50045252Y-56694000D02*
X49522748Y-56694000D01*
X50045252Y-58114000D02*
X49522748Y-58114000D01*
G04 #@! TO.C,R19*
X60205252Y-58114000D02*
X59682748Y-58114000D01*
X60205252Y-56694000D02*
X59682748Y-56694000D01*
G04 #@! TO.C,R20*
X67825252Y-58114000D02*
X67302748Y-58114000D01*
X67825252Y-56694000D02*
X67302748Y-56694000D01*
G04 #@! TO.C,R21*
X75445252Y-56694000D02*
X74922748Y-56694000D01*
X75445252Y-58114000D02*
X74922748Y-58114000D01*
G04 #@! TO.C,R22*
X83065252Y-56694000D02*
X82542748Y-56694000D01*
X83065252Y-58114000D02*
X82542748Y-58114000D01*
G04 #@! TO.C,R23*
X27194252Y-39064000D02*
X26671748Y-39064000D01*
X27194252Y-37644000D02*
X26671748Y-37644000D01*
G04 #@! TO.C,R24*
X34805252Y-37644000D02*
X34282748Y-37644000D01*
X34805252Y-39064000D02*
X34282748Y-39064000D01*
G04 #@! TO.C,R25*
X42425252Y-39064000D02*
X41902748Y-39064000D01*
X42425252Y-37644000D02*
X41902748Y-37644000D01*
G04 #@! TO.C,R26*
X50045252Y-37644000D02*
X49522748Y-37644000D01*
X50045252Y-39064000D02*
X49522748Y-39064000D01*
G04 #@! TO.C,R27*
X60205252Y-39064000D02*
X59682748Y-39064000D01*
X60205252Y-37644000D02*
X59682748Y-37644000D01*
G04 #@! TO.C,R28*
X67825252Y-39064000D02*
X67302748Y-39064000D01*
X67825252Y-37644000D02*
X67302748Y-37644000D01*
G04 #@! TO.C,R29*
X75445252Y-37644000D02*
X74922748Y-37644000D01*
X75445252Y-39064000D02*
X74922748Y-39064000D01*
G04 #@! TO.C,R30*
X83065252Y-37644000D02*
X82542748Y-37644000D01*
X83065252Y-39064000D02*
X82542748Y-39064000D01*
G04 #@! TO.C,R31*
X27185252Y-16054000D02*
X26662748Y-16054000D01*
X27185252Y-17474000D02*
X26662748Y-17474000D01*
G04 #@! TO.C,R32*
X34805252Y-17474000D02*
X34282748Y-17474000D01*
X34805252Y-16054000D02*
X34282748Y-16054000D01*
G04 #@! TO.C,R33*
X42425252Y-17474000D02*
X41902748Y-17474000D01*
X42425252Y-16054000D02*
X41902748Y-16054000D01*
G04 #@! TO.C,R34*
X50045252Y-16054000D02*
X49522748Y-16054000D01*
X50045252Y-17474000D02*
X49522748Y-17474000D01*
G04 #@! TO.C,R35*
X60205252Y-17474000D02*
X59682748Y-17474000D01*
X60205252Y-16054000D02*
X59682748Y-16054000D01*
G04 #@! TO.C,R36*
X67825252Y-16054000D02*
X67302748Y-16054000D01*
X67825252Y-17474000D02*
X67302748Y-17474000D01*
G04 #@! TO.C,R37*
X75445252Y-17474000D02*
X74922748Y-17474000D01*
X75445252Y-16054000D02*
X74922748Y-16054000D01*
G04 #@! TO.C,R38*
X83065252Y-16054000D02*
X82542748Y-16054000D01*
X83065252Y-17474000D02*
X82542748Y-17474000D01*
G04 #@! TO.C,J3*
X92396000Y-40192000D02*
X92396000Y-37532000D01*
X100076000Y-40192000D02*
X92396000Y-40192000D01*
X100076000Y-37532000D02*
X92396000Y-37532000D01*
X100076000Y-40192000D02*
X100076000Y-37532000D01*
X101346000Y-40192000D02*
X102676000Y-40192000D01*
X102676000Y-40192000D02*
X102676000Y-38862000D01*
G04 #@! TO.C,J6*
X91126000Y-75378000D02*
X96326000Y-75378000D01*
X91126000Y-77978000D02*
X91126000Y-75378000D01*
X96326000Y-80578000D02*
X96326000Y-75378000D01*
X91126000Y-77978000D02*
X93726000Y-77978000D01*
X93726000Y-77978000D02*
X93726000Y-80578000D01*
X93726000Y-80578000D02*
X96326000Y-80578000D01*
X91126000Y-79248000D02*
X91126000Y-80578000D01*
X91126000Y-80578000D02*
X92456000Y-80578000D01*
D17*
G04 #@! TO.C,TEST*
X13824200Y-84791800D02*
X17824200Y-84791800D01*
X17824200Y-84791800D02*
X17824200Y-88791800D01*
X17824200Y-88791800D02*
X13824200Y-88791800D01*
X13824200Y-88791800D02*
X13824200Y-84791800D01*
X13824200Y-84791800D02*
X13824200Y-85291800D01*
X13824200Y-85291800D02*
X17824200Y-85291800D01*
X17824200Y-85291800D02*
X17824200Y-85791800D01*
X17824200Y-85791800D02*
X13824200Y-85791800D01*
X13824200Y-85791800D02*
X13824200Y-86291800D01*
X13824200Y-86291800D02*
X17824200Y-86291800D01*
X17824200Y-86291800D02*
X17824200Y-86791800D01*
X17824200Y-86791800D02*
X13824200Y-86791800D01*
X13824200Y-86791800D02*
X13824200Y-87291800D01*
X13824200Y-87291800D02*
X17324200Y-87291800D01*
X17324200Y-87291800D02*
X17824200Y-87291800D01*
X17824200Y-87291800D02*
X17824200Y-87791800D01*
X17824200Y-87791800D02*
X13824200Y-87791800D01*
X13824200Y-87791800D02*
X13824200Y-88291800D01*
X13824200Y-88291800D02*
X17824200Y-88291800D01*
D16*
G04 #@! TO.C,J2*
X89856000Y-42732000D02*
X89856000Y-40072000D01*
X100076000Y-42732000D02*
X89856000Y-42732000D01*
X100076000Y-40072000D02*
X89856000Y-40072000D01*
X100076000Y-42732000D02*
X100076000Y-40072000D01*
X101346000Y-42732000D02*
X102676000Y-42732000D01*
X102676000Y-42732000D02*
X102676000Y-41402000D01*
G04 #@! TO.C,J1*
D18*
X90566833Y-97032380D02*
X90566833Y-97746666D01*
X90614452Y-97889523D01*
X90709690Y-97984761D01*
X90852547Y-98032380D01*
X90947785Y-98032380D01*
X89566833Y-98032380D02*
X90138261Y-98032380D01*
X89852547Y-98032380D02*
X89852547Y-97032380D01*
X89947785Y-97175238D01*
X90043023Y-97270476D01*
X90138261Y-97318095D01*
G04 #@! TO.C,R1*
X85501666Y-79827380D02*
X85835000Y-79351190D01*
X86073095Y-79827380D02*
X86073095Y-78827380D01*
X85692142Y-78827380D01*
X85596904Y-78875000D01*
X85549285Y-78922619D01*
X85501666Y-79017857D01*
X85501666Y-79160714D01*
X85549285Y-79255952D01*
X85596904Y-79303571D01*
X85692142Y-79351190D01*
X86073095Y-79351190D01*
X84549285Y-79827380D02*
X85120714Y-79827380D01*
X84835000Y-79827380D02*
X84835000Y-78827380D01*
X84930238Y-78970238D01*
X85025476Y-79065476D01*
X85120714Y-79113095D01*
G04 #@! TO.C,R2*
X85256666Y-77287380D02*
X85590000Y-76811190D01*
X85828095Y-77287380D02*
X85828095Y-76287380D01*
X85447142Y-76287380D01*
X85351904Y-76335000D01*
X85304285Y-76382619D01*
X85256666Y-76477857D01*
X85256666Y-76620714D01*
X85304285Y-76715952D01*
X85351904Y-76763571D01*
X85447142Y-76811190D01*
X85828095Y-76811190D01*
X84875714Y-76382619D02*
X84828095Y-76335000D01*
X84732857Y-76287380D01*
X84494761Y-76287380D01*
X84399523Y-76335000D01*
X84351904Y-76382619D01*
X84304285Y-76477857D01*
X84304285Y-76573095D01*
X84351904Y-76715952D01*
X84923333Y-77287380D01*
X84304285Y-77287380D01*
G04 #@! TO.C,R5*
X27471666Y-75256380D02*
X27805000Y-74780190D01*
X28043095Y-75256380D02*
X28043095Y-74256380D01*
X27662142Y-74256380D01*
X27566904Y-74304000D01*
X27519285Y-74351619D01*
X27471666Y-74446857D01*
X27471666Y-74589714D01*
X27519285Y-74684952D01*
X27566904Y-74732571D01*
X27662142Y-74780190D01*
X28043095Y-74780190D01*
X26566904Y-74256380D02*
X27043095Y-74256380D01*
X27090714Y-74732571D01*
X27043095Y-74684952D01*
X26947857Y-74637333D01*
X26709761Y-74637333D01*
X26614523Y-74684952D01*
X26566904Y-74732571D01*
X26519285Y-74827809D01*
X26519285Y-75065904D01*
X26566904Y-75161142D01*
X26614523Y-75208761D01*
X26709761Y-75256380D01*
X26947857Y-75256380D01*
X27043095Y-75208761D01*
X27090714Y-75161142D01*
G04 #@! TO.C,R8*
X35091666Y-75256380D02*
X35425000Y-74780190D01*
X35663095Y-75256380D02*
X35663095Y-74256380D01*
X35282142Y-74256380D01*
X35186904Y-74304000D01*
X35139285Y-74351619D01*
X35091666Y-74446857D01*
X35091666Y-74589714D01*
X35139285Y-74684952D01*
X35186904Y-74732571D01*
X35282142Y-74780190D01*
X35663095Y-74780190D01*
X34520238Y-74684952D02*
X34615476Y-74637333D01*
X34663095Y-74589714D01*
X34710714Y-74494476D01*
X34710714Y-74446857D01*
X34663095Y-74351619D01*
X34615476Y-74304000D01*
X34520238Y-74256380D01*
X34329761Y-74256380D01*
X34234523Y-74304000D01*
X34186904Y-74351619D01*
X34139285Y-74446857D01*
X34139285Y-74494476D01*
X34186904Y-74589714D01*
X34234523Y-74637333D01*
X34329761Y-74684952D01*
X34520238Y-74684952D01*
X34615476Y-74732571D01*
X34663095Y-74780190D01*
X34710714Y-74875428D01*
X34710714Y-75065904D01*
X34663095Y-75161142D01*
X34615476Y-75208761D01*
X34520238Y-75256380D01*
X34329761Y-75256380D01*
X34234523Y-75208761D01*
X34186904Y-75161142D01*
X34139285Y-75065904D01*
X34139285Y-74875428D01*
X34186904Y-74780190D01*
X34234523Y-74732571D01*
X34329761Y-74684952D01*
G04 #@! TO.C,R9*
X42711666Y-75256380D02*
X43045000Y-74780190D01*
X43283095Y-75256380D02*
X43283095Y-74256380D01*
X42902142Y-74256380D01*
X42806904Y-74304000D01*
X42759285Y-74351619D01*
X42711666Y-74446857D01*
X42711666Y-74589714D01*
X42759285Y-74684952D01*
X42806904Y-74732571D01*
X42902142Y-74780190D01*
X43283095Y-74780190D01*
X42235476Y-75256380D02*
X42045000Y-75256380D01*
X41949761Y-75208761D01*
X41902142Y-75161142D01*
X41806904Y-75018285D01*
X41759285Y-74827809D01*
X41759285Y-74446857D01*
X41806904Y-74351619D01*
X41854523Y-74304000D01*
X41949761Y-74256380D01*
X42140238Y-74256380D01*
X42235476Y-74304000D01*
X42283095Y-74351619D01*
X42330714Y-74446857D01*
X42330714Y-74684952D01*
X42283095Y-74780190D01*
X42235476Y-74827809D01*
X42140238Y-74875428D01*
X41949761Y-74875428D01*
X41854523Y-74827809D01*
X41806904Y-74780190D01*
X41759285Y-74684952D01*
G04 #@! TO.C,R10*
X51442857Y-75382380D02*
X51776190Y-74906190D01*
X52014285Y-75382380D02*
X52014285Y-74382380D01*
X51633333Y-74382380D01*
X51538095Y-74430000D01*
X51490476Y-74477619D01*
X51442857Y-74572857D01*
X51442857Y-74715714D01*
X51490476Y-74810952D01*
X51538095Y-74858571D01*
X51633333Y-74906190D01*
X52014285Y-74906190D01*
X50490476Y-75382380D02*
X51061904Y-75382380D01*
X50776190Y-75382380D02*
X50776190Y-74382380D01*
X50871428Y-74525238D01*
X50966666Y-74620476D01*
X51061904Y-74668095D01*
X49871428Y-74382380D02*
X49776190Y-74382380D01*
X49680952Y-74430000D01*
X49633333Y-74477619D01*
X49585714Y-74572857D01*
X49538095Y-74763333D01*
X49538095Y-75001428D01*
X49585714Y-75191904D01*
X49633333Y-75287142D01*
X49680952Y-75334761D01*
X49776190Y-75382380D01*
X49871428Y-75382380D01*
X49966666Y-75334761D01*
X50014285Y-75287142D01*
X50061904Y-75191904D01*
X50109523Y-75001428D01*
X50109523Y-74763333D01*
X50061904Y-74572857D01*
X50014285Y-74477619D01*
X49966666Y-74430000D01*
X49871428Y-74382380D01*
G04 #@! TO.C,R11*
X61348857Y-75256380D02*
X61682190Y-74780190D01*
X61920285Y-75256380D02*
X61920285Y-74256380D01*
X61539333Y-74256380D01*
X61444095Y-74304000D01*
X61396476Y-74351619D01*
X61348857Y-74446857D01*
X61348857Y-74589714D01*
X61396476Y-74684952D01*
X61444095Y-74732571D01*
X61539333Y-74780190D01*
X61920285Y-74780190D01*
X60396476Y-75256380D02*
X60967904Y-75256380D01*
X60682190Y-75256380D02*
X60682190Y-74256380D01*
X60777428Y-74399238D01*
X60872666Y-74494476D01*
X60967904Y-74542095D01*
X59444095Y-75256380D02*
X60015523Y-75256380D01*
X59729809Y-75256380D02*
X59729809Y-74256380D01*
X59825047Y-74399238D01*
X59920285Y-74494476D01*
X60015523Y-74542095D01*
G04 #@! TO.C,R12*
X68968857Y-75256380D02*
X69302190Y-74780190D01*
X69540285Y-75256380D02*
X69540285Y-74256380D01*
X69159333Y-74256380D01*
X69064095Y-74304000D01*
X69016476Y-74351619D01*
X68968857Y-74446857D01*
X68968857Y-74589714D01*
X69016476Y-74684952D01*
X69064095Y-74732571D01*
X69159333Y-74780190D01*
X69540285Y-74780190D01*
X68016476Y-75256380D02*
X68587904Y-75256380D01*
X68302190Y-75256380D02*
X68302190Y-74256380D01*
X68397428Y-74399238D01*
X68492666Y-74494476D01*
X68587904Y-74542095D01*
X67635523Y-74351619D02*
X67587904Y-74304000D01*
X67492666Y-74256380D01*
X67254571Y-74256380D01*
X67159333Y-74304000D01*
X67111714Y-74351619D01*
X67064095Y-74446857D01*
X67064095Y-74542095D01*
X67111714Y-74684952D01*
X67683142Y-75256380D01*
X67064095Y-75256380D01*
G04 #@! TO.C,R13*
X76588857Y-75256380D02*
X76922190Y-74780190D01*
X77160285Y-75256380D02*
X77160285Y-74256380D01*
X76779333Y-74256380D01*
X76684095Y-74304000D01*
X76636476Y-74351619D01*
X76588857Y-74446857D01*
X76588857Y-74589714D01*
X76636476Y-74684952D01*
X76684095Y-74732571D01*
X76779333Y-74780190D01*
X77160285Y-74780190D01*
X75636476Y-75256380D02*
X76207904Y-75256380D01*
X75922190Y-75256380D02*
X75922190Y-74256380D01*
X76017428Y-74399238D01*
X76112666Y-74494476D01*
X76207904Y-74542095D01*
X75303142Y-74256380D02*
X74684095Y-74256380D01*
X75017428Y-74637333D01*
X74874571Y-74637333D01*
X74779333Y-74684952D01*
X74731714Y-74732571D01*
X74684095Y-74827809D01*
X74684095Y-75065904D01*
X74731714Y-75161142D01*
X74779333Y-75208761D01*
X74874571Y-75256380D01*
X75160285Y-75256380D01*
X75255523Y-75208761D01*
X75303142Y-75161142D01*
G04 #@! TO.C,R14*
X84843857Y-75382380D02*
X85177190Y-74906190D01*
X85415285Y-75382380D02*
X85415285Y-74382380D01*
X85034333Y-74382380D01*
X84939095Y-74430000D01*
X84891476Y-74477619D01*
X84843857Y-74572857D01*
X84843857Y-74715714D01*
X84891476Y-74810952D01*
X84939095Y-74858571D01*
X85034333Y-74906190D01*
X85415285Y-74906190D01*
X83891476Y-75382380D02*
X84462904Y-75382380D01*
X84177190Y-75382380D02*
X84177190Y-74382380D01*
X84272428Y-74525238D01*
X84367666Y-74620476D01*
X84462904Y-74668095D01*
X83034333Y-74715714D02*
X83034333Y-75382380D01*
X83272428Y-74334761D02*
X83510523Y-75049047D01*
X82891476Y-75049047D01*
G04 #@! TO.C,R15*
X28582857Y-56332380D02*
X28916190Y-55856190D01*
X29154285Y-56332380D02*
X29154285Y-55332380D01*
X28773333Y-55332380D01*
X28678095Y-55380000D01*
X28630476Y-55427619D01*
X28582857Y-55522857D01*
X28582857Y-55665714D01*
X28630476Y-55760952D01*
X28678095Y-55808571D01*
X28773333Y-55856190D01*
X29154285Y-55856190D01*
X27630476Y-56332380D02*
X28201904Y-56332380D01*
X27916190Y-56332380D02*
X27916190Y-55332380D01*
X28011428Y-55475238D01*
X28106666Y-55570476D01*
X28201904Y-55618095D01*
X26725714Y-55332380D02*
X27201904Y-55332380D01*
X27249523Y-55808571D01*
X27201904Y-55760952D01*
X27106666Y-55713333D01*
X26868571Y-55713333D01*
X26773333Y-55760952D01*
X26725714Y-55808571D01*
X26678095Y-55903809D01*
X26678095Y-56141904D01*
X26725714Y-56237142D01*
X26773333Y-56284761D01*
X26868571Y-56332380D01*
X27106666Y-56332380D01*
X27201904Y-56284761D01*
X27249523Y-56237142D01*
G04 #@! TO.C,R16*
X36202857Y-56332380D02*
X36536190Y-55856190D01*
X36774285Y-56332380D02*
X36774285Y-55332380D01*
X36393333Y-55332380D01*
X36298095Y-55380000D01*
X36250476Y-55427619D01*
X36202857Y-55522857D01*
X36202857Y-55665714D01*
X36250476Y-55760952D01*
X36298095Y-55808571D01*
X36393333Y-55856190D01*
X36774285Y-55856190D01*
X35250476Y-56332380D02*
X35821904Y-56332380D01*
X35536190Y-56332380D02*
X35536190Y-55332380D01*
X35631428Y-55475238D01*
X35726666Y-55570476D01*
X35821904Y-55618095D01*
X34393333Y-55332380D02*
X34583809Y-55332380D01*
X34679047Y-55380000D01*
X34726666Y-55427619D01*
X34821904Y-55570476D01*
X34869523Y-55760952D01*
X34869523Y-56141904D01*
X34821904Y-56237142D01*
X34774285Y-56284761D01*
X34679047Y-56332380D01*
X34488571Y-56332380D01*
X34393333Y-56284761D01*
X34345714Y-56237142D01*
X34298095Y-56141904D01*
X34298095Y-55903809D01*
X34345714Y-55808571D01*
X34393333Y-55760952D01*
X34488571Y-55713333D01*
X34679047Y-55713333D01*
X34774285Y-55760952D01*
X34821904Y-55808571D01*
X34869523Y-55903809D01*
G04 #@! TO.C,R17*
X43822857Y-56332380D02*
X44156190Y-55856190D01*
X44394285Y-56332380D02*
X44394285Y-55332380D01*
X44013333Y-55332380D01*
X43918095Y-55380000D01*
X43870476Y-55427619D01*
X43822857Y-55522857D01*
X43822857Y-55665714D01*
X43870476Y-55760952D01*
X43918095Y-55808571D01*
X44013333Y-55856190D01*
X44394285Y-55856190D01*
X42870476Y-56332380D02*
X43441904Y-56332380D01*
X43156190Y-56332380D02*
X43156190Y-55332380D01*
X43251428Y-55475238D01*
X43346666Y-55570476D01*
X43441904Y-55618095D01*
X42537142Y-55332380D02*
X41870476Y-55332380D01*
X42299047Y-56332380D01*
G04 #@! TO.C,R18*
X51442857Y-56206380D02*
X51776190Y-55730190D01*
X52014285Y-56206380D02*
X52014285Y-55206380D01*
X51633333Y-55206380D01*
X51538095Y-55254000D01*
X51490476Y-55301619D01*
X51442857Y-55396857D01*
X51442857Y-55539714D01*
X51490476Y-55634952D01*
X51538095Y-55682571D01*
X51633333Y-55730190D01*
X52014285Y-55730190D01*
X50490476Y-56206380D02*
X51061904Y-56206380D01*
X50776190Y-56206380D02*
X50776190Y-55206380D01*
X50871428Y-55349238D01*
X50966666Y-55444476D01*
X51061904Y-55492095D01*
X49919047Y-55634952D02*
X50014285Y-55587333D01*
X50061904Y-55539714D01*
X50109523Y-55444476D01*
X50109523Y-55396857D01*
X50061904Y-55301619D01*
X50014285Y-55254000D01*
X49919047Y-55206380D01*
X49728571Y-55206380D01*
X49633333Y-55254000D01*
X49585714Y-55301619D01*
X49538095Y-55396857D01*
X49538095Y-55444476D01*
X49585714Y-55539714D01*
X49633333Y-55587333D01*
X49728571Y-55634952D01*
X49919047Y-55634952D01*
X50014285Y-55682571D01*
X50061904Y-55730190D01*
X50109523Y-55825428D01*
X50109523Y-56015904D01*
X50061904Y-56111142D01*
X50014285Y-56158761D01*
X49919047Y-56206380D01*
X49728571Y-56206380D01*
X49633333Y-56158761D01*
X49585714Y-56111142D01*
X49538095Y-56015904D01*
X49538095Y-55825428D01*
X49585714Y-55730190D01*
X49633333Y-55682571D01*
X49728571Y-55634952D01*
G04 #@! TO.C,R19*
X61602857Y-56332380D02*
X61936190Y-55856190D01*
X62174285Y-56332380D02*
X62174285Y-55332380D01*
X61793333Y-55332380D01*
X61698095Y-55380000D01*
X61650476Y-55427619D01*
X61602857Y-55522857D01*
X61602857Y-55665714D01*
X61650476Y-55760952D01*
X61698095Y-55808571D01*
X61793333Y-55856190D01*
X62174285Y-55856190D01*
X60650476Y-56332380D02*
X61221904Y-56332380D01*
X60936190Y-56332380D02*
X60936190Y-55332380D01*
X61031428Y-55475238D01*
X61126666Y-55570476D01*
X61221904Y-55618095D01*
X60174285Y-56332380D02*
X59983809Y-56332380D01*
X59888571Y-56284761D01*
X59840952Y-56237142D01*
X59745714Y-56094285D01*
X59698095Y-55903809D01*
X59698095Y-55522857D01*
X59745714Y-55427619D01*
X59793333Y-55380000D01*
X59888571Y-55332380D01*
X60079047Y-55332380D01*
X60174285Y-55380000D01*
X60221904Y-55427619D01*
X60269523Y-55522857D01*
X60269523Y-55760952D01*
X60221904Y-55856190D01*
X60174285Y-55903809D01*
X60079047Y-55951428D01*
X59888571Y-55951428D01*
X59793333Y-55903809D01*
X59745714Y-55856190D01*
X59698095Y-55760952D01*
G04 #@! TO.C,R20*
X69222857Y-56332380D02*
X69556190Y-55856190D01*
X69794285Y-56332380D02*
X69794285Y-55332380D01*
X69413333Y-55332380D01*
X69318095Y-55380000D01*
X69270476Y-55427619D01*
X69222857Y-55522857D01*
X69222857Y-55665714D01*
X69270476Y-55760952D01*
X69318095Y-55808571D01*
X69413333Y-55856190D01*
X69794285Y-55856190D01*
X68841904Y-55427619D02*
X68794285Y-55380000D01*
X68699047Y-55332380D01*
X68460952Y-55332380D01*
X68365714Y-55380000D01*
X68318095Y-55427619D01*
X68270476Y-55522857D01*
X68270476Y-55618095D01*
X68318095Y-55760952D01*
X68889523Y-56332380D01*
X68270476Y-56332380D01*
X67651428Y-55332380D02*
X67556190Y-55332380D01*
X67460952Y-55380000D01*
X67413333Y-55427619D01*
X67365714Y-55522857D01*
X67318095Y-55713333D01*
X67318095Y-55951428D01*
X67365714Y-56141904D01*
X67413333Y-56237142D01*
X67460952Y-56284761D01*
X67556190Y-56332380D01*
X67651428Y-56332380D01*
X67746666Y-56284761D01*
X67794285Y-56237142D01*
X67841904Y-56141904D01*
X67889523Y-55951428D01*
X67889523Y-55713333D01*
X67841904Y-55522857D01*
X67794285Y-55427619D01*
X67746666Y-55380000D01*
X67651428Y-55332380D01*
G04 #@! TO.C,R21*
X75572857Y-56206380D02*
X75906190Y-55730190D01*
X76144285Y-56206380D02*
X76144285Y-55206380D01*
X75763333Y-55206380D01*
X75668095Y-55254000D01*
X75620476Y-55301619D01*
X75572857Y-55396857D01*
X75572857Y-55539714D01*
X75620476Y-55634952D01*
X75668095Y-55682571D01*
X75763333Y-55730190D01*
X76144285Y-55730190D01*
X75191904Y-55301619D02*
X75144285Y-55254000D01*
X75049047Y-55206380D01*
X74810952Y-55206380D01*
X74715714Y-55254000D01*
X74668095Y-55301619D01*
X74620476Y-55396857D01*
X74620476Y-55492095D01*
X74668095Y-55634952D01*
X75239523Y-56206380D01*
X74620476Y-56206380D01*
X73668095Y-56206380D02*
X74239523Y-56206380D01*
X73953809Y-56206380D02*
X73953809Y-55206380D01*
X74049047Y-55349238D01*
X74144285Y-55444476D01*
X74239523Y-55492095D01*
G04 #@! TO.C,R22*
X83446857Y-56206380D02*
X83780190Y-55730190D01*
X84018285Y-56206380D02*
X84018285Y-55206380D01*
X83637333Y-55206380D01*
X83542095Y-55254000D01*
X83494476Y-55301619D01*
X83446857Y-55396857D01*
X83446857Y-55539714D01*
X83494476Y-55634952D01*
X83542095Y-55682571D01*
X83637333Y-55730190D01*
X84018285Y-55730190D01*
X83065904Y-55301619D02*
X83018285Y-55254000D01*
X82923047Y-55206380D01*
X82684952Y-55206380D01*
X82589714Y-55254000D01*
X82542095Y-55301619D01*
X82494476Y-55396857D01*
X82494476Y-55492095D01*
X82542095Y-55634952D01*
X83113523Y-56206380D01*
X82494476Y-56206380D01*
X82113523Y-55301619D02*
X82065904Y-55254000D01*
X81970666Y-55206380D01*
X81732571Y-55206380D01*
X81637333Y-55254000D01*
X81589714Y-55301619D01*
X81542095Y-55396857D01*
X81542095Y-55492095D01*
X81589714Y-55634952D01*
X82161142Y-56206380D01*
X81542095Y-56206380D01*
G04 #@! TO.C,R23*
X28582857Y-37282380D02*
X28916190Y-36806190D01*
X29154285Y-37282380D02*
X29154285Y-36282380D01*
X28773333Y-36282380D01*
X28678095Y-36330000D01*
X28630476Y-36377619D01*
X28582857Y-36472857D01*
X28582857Y-36615714D01*
X28630476Y-36710952D01*
X28678095Y-36758571D01*
X28773333Y-36806190D01*
X29154285Y-36806190D01*
X28201904Y-36377619D02*
X28154285Y-36330000D01*
X28059047Y-36282380D01*
X27820952Y-36282380D01*
X27725714Y-36330000D01*
X27678095Y-36377619D01*
X27630476Y-36472857D01*
X27630476Y-36568095D01*
X27678095Y-36710952D01*
X28249523Y-37282380D01*
X27630476Y-37282380D01*
X27297142Y-36282380D02*
X26678095Y-36282380D01*
X27011428Y-36663333D01*
X26868571Y-36663333D01*
X26773333Y-36710952D01*
X26725714Y-36758571D01*
X26678095Y-36853809D01*
X26678095Y-37091904D01*
X26725714Y-37187142D01*
X26773333Y-37234761D01*
X26868571Y-37282380D01*
X27154285Y-37282380D01*
X27249523Y-37234761D01*
X27297142Y-37187142D01*
G04 #@! TO.C,R24*
X36202857Y-37282380D02*
X36536190Y-36806190D01*
X36774285Y-37282380D02*
X36774285Y-36282380D01*
X36393333Y-36282380D01*
X36298095Y-36330000D01*
X36250476Y-36377619D01*
X36202857Y-36472857D01*
X36202857Y-36615714D01*
X36250476Y-36710952D01*
X36298095Y-36758571D01*
X36393333Y-36806190D01*
X36774285Y-36806190D01*
X35821904Y-36377619D02*
X35774285Y-36330000D01*
X35679047Y-36282380D01*
X35440952Y-36282380D01*
X35345714Y-36330000D01*
X35298095Y-36377619D01*
X35250476Y-36472857D01*
X35250476Y-36568095D01*
X35298095Y-36710952D01*
X35869523Y-37282380D01*
X35250476Y-37282380D01*
X34393333Y-36615714D02*
X34393333Y-37282380D01*
X34631428Y-36234761D02*
X34869523Y-36949047D01*
X34250476Y-36949047D01*
G04 #@! TO.C,R25*
X43822857Y-37156380D02*
X44156190Y-36680190D01*
X44394285Y-37156380D02*
X44394285Y-36156380D01*
X44013333Y-36156380D01*
X43918095Y-36204000D01*
X43870476Y-36251619D01*
X43822857Y-36346857D01*
X43822857Y-36489714D01*
X43870476Y-36584952D01*
X43918095Y-36632571D01*
X44013333Y-36680190D01*
X44394285Y-36680190D01*
X43441904Y-36251619D02*
X43394285Y-36204000D01*
X43299047Y-36156380D01*
X43060952Y-36156380D01*
X42965714Y-36204000D01*
X42918095Y-36251619D01*
X42870476Y-36346857D01*
X42870476Y-36442095D01*
X42918095Y-36584952D01*
X43489523Y-37156380D01*
X42870476Y-37156380D01*
X41965714Y-36156380D02*
X42441904Y-36156380D01*
X42489523Y-36632571D01*
X42441904Y-36584952D01*
X42346666Y-36537333D01*
X42108571Y-36537333D01*
X42013333Y-36584952D01*
X41965714Y-36632571D01*
X41918095Y-36727809D01*
X41918095Y-36965904D01*
X41965714Y-37061142D01*
X42013333Y-37108761D01*
X42108571Y-37156380D01*
X42346666Y-37156380D01*
X42441904Y-37108761D01*
X42489523Y-37061142D01*
G04 #@! TO.C,R26*
X51442857Y-37156380D02*
X51776190Y-36680190D01*
X52014285Y-37156380D02*
X52014285Y-36156380D01*
X51633333Y-36156380D01*
X51538095Y-36204000D01*
X51490476Y-36251619D01*
X51442857Y-36346857D01*
X51442857Y-36489714D01*
X51490476Y-36584952D01*
X51538095Y-36632571D01*
X51633333Y-36680190D01*
X52014285Y-36680190D01*
X51061904Y-36251619D02*
X51014285Y-36204000D01*
X50919047Y-36156380D01*
X50680952Y-36156380D01*
X50585714Y-36204000D01*
X50538095Y-36251619D01*
X50490476Y-36346857D01*
X50490476Y-36442095D01*
X50538095Y-36584952D01*
X51109523Y-37156380D01*
X50490476Y-37156380D01*
X49633333Y-36156380D02*
X49823809Y-36156380D01*
X49919047Y-36204000D01*
X49966666Y-36251619D01*
X50061904Y-36394476D01*
X50109523Y-36584952D01*
X50109523Y-36965904D01*
X50061904Y-37061142D01*
X50014285Y-37108761D01*
X49919047Y-37156380D01*
X49728571Y-37156380D01*
X49633333Y-37108761D01*
X49585714Y-37061142D01*
X49538095Y-36965904D01*
X49538095Y-36727809D01*
X49585714Y-36632571D01*
X49633333Y-36584952D01*
X49728571Y-36537333D01*
X49919047Y-36537333D01*
X50014285Y-36584952D01*
X50061904Y-36632571D01*
X50109523Y-36727809D01*
G04 #@! TO.C,R27*
X61602857Y-37282380D02*
X61936190Y-36806190D01*
X62174285Y-37282380D02*
X62174285Y-36282380D01*
X61793333Y-36282380D01*
X61698095Y-36330000D01*
X61650476Y-36377619D01*
X61602857Y-36472857D01*
X61602857Y-36615714D01*
X61650476Y-36710952D01*
X61698095Y-36758571D01*
X61793333Y-36806190D01*
X62174285Y-36806190D01*
X61221904Y-36377619D02*
X61174285Y-36330000D01*
X61079047Y-36282380D01*
X60840952Y-36282380D01*
X60745714Y-36330000D01*
X60698095Y-36377619D01*
X60650476Y-36472857D01*
X60650476Y-36568095D01*
X60698095Y-36710952D01*
X61269523Y-37282380D01*
X60650476Y-37282380D01*
X60317142Y-36282380D02*
X59650476Y-36282380D01*
X60079047Y-37282380D01*
G04 #@! TO.C,R28*
X68206857Y-37156380D02*
X68540190Y-36680190D01*
X68778285Y-37156380D02*
X68778285Y-36156380D01*
X68397333Y-36156380D01*
X68302095Y-36204000D01*
X68254476Y-36251619D01*
X68206857Y-36346857D01*
X68206857Y-36489714D01*
X68254476Y-36584952D01*
X68302095Y-36632571D01*
X68397333Y-36680190D01*
X68778285Y-36680190D01*
X67825904Y-36251619D02*
X67778285Y-36204000D01*
X67683047Y-36156380D01*
X67444952Y-36156380D01*
X67349714Y-36204000D01*
X67302095Y-36251619D01*
X67254476Y-36346857D01*
X67254476Y-36442095D01*
X67302095Y-36584952D01*
X67873523Y-37156380D01*
X67254476Y-37156380D01*
X66683047Y-36584952D02*
X66778285Y-36537333D01*
X66825904Y-36489714D01*
X66873523Y-36394476D01*
X66873523Y-36346857D01*
X66825904Y-36251619D01*
X66778285Y-36204000D01*
X66683047Y-36156380D01*
X66492571Y-36156380D01*
X66397333Y-36204000D01*
X66349714Y-36251619D01*
X66302095Y-36346857D01*
X66302095Y-36394476D01*
X66349714Y-36489714D01*
X66397333Y-36537333D01*
X66492571Y-36584952D01*
X66683047Y-36584952D01*
X66778285Y-36632571D01*
X66825904Y-36680190D01*
X66873523Y-36775428D01*
X66873523Y-36965904D01*
X66825904Y-37061142D01*
X66778285Y-37108761D01*
X66683047Y-37156380D01*
X66492571Y-37156380D01*
X66397333Y-37108761D01*
X66349714Y-37061142D01*
X66302095Y-36965904D01*
X66302095Y-36775428D01*
X66349714Y-36680190D01*
X66397333Y-36632571D01*
X66492571Y-36584952D01*
G04 #@! TO.C,R29*
X75826857Y-37282380D02*
X76160190Y-36806190D01*
X76398285Y-37282380D02*
X76398285Y-36282380D01*
X76017333Y-36282380D01*
X75922095Y-36330000D01*
X75874476Y-36377619D01*
X75826857Y-36472857D01*
X75826857Y-36615714D01*
X75874476Y-36710952D01*
X75922095Y-36758571D01*
X76017333Y-36806190D01*
X76398285Y-36806190D01*
X75445904Y-36377619D02*
X75398285Y-36330000D01*
X75303047Y-36282380D01*
X75064952Y-36282380D01*
X74969714Y-36330000D01*
X74922095Y-36377619D01*
X74874476Y-36472857D01*
X74874476Y-36568095D01*
X74922095Y-36710952D01*
X75493523Y-37282380D01*
X74874476Y-37282380D01*
X74398285Y-37282380D02*
X74207809Y-37282380D01*
X74112571Y-37234761D01*
X74064952Y-37187142D01*
X73969714Y-37044285D01*
X73922095Y-36853809D01*
X73922095Y-36472857D01*
X73969714Y-36377619D01*
X74017333Y-36330000D01*
X74112571Y-36282380D01*
X74303047Y-36282380D01*
X74398285Y-36330000D01*
X74445904Y-36377619D01*
X74493523Y-36472857D01*
X74493523Y-36710952D01*
X74445904Y-36806190D01*
X74398285Y-36853809D01*
X74303047Y-36901428D01*
X74112571Y-36901428D01*
X74017333Y-36853809D01*
X73969714Y-36806190D01*
X73922095Y-36710952D01*
G04 #@! TO.C,R30*
X83446857Y-37282380D02*
X83780190Y-36806190D01*
X84018285Y-37282380D02*
X84018285Y-36282380D01*
X83637333Y-36282380D01*
X83542095Y-36330000D01*
X83494476Y-36377619D01*
X83446857Y-36472857D01*
X83446857Y-36615714D01*
X83494476Y-36710952D01*
X83542095Y-36758571D01*
X83637333Y-36806190D01*
X84018285Y-36806190D01*
X83113523Y-36282380D02*
X82494476Y-36282380D01*
X82827809Y-36663333D01*
X82684952Y-36663333D01*
X82589714Y-36710952D01*
X82542095Y-36758571D01*
X82494476Y-36853809D01*
X82494476Y-37091904D01*
X82542095Y-37187142D01*
X82589714Y-37234761D01*
X82684952Y-37282380D01*
X82970666Y-37282380D01*
X83065904Y-37234761D01*
X83113523Y-37187142D01*
X81875428Y-36282380D02*
X81780190Y-36282380D01*
X81684952Y-36330000D01*
X81637333Y-36377619D01*
X81589714Y-36472857D01*
X81542095Y-36663333D01*
X81542095Y-36901428D01*
X81589714Y-37091904D01*
X81637333Y-37187142D01*
X81684952Y-37234761D01*
X81780190Y-37282380D01*
X81875428Y-37282380D01*
X81970666Y-37234761D01*
X82018285Y-37187142D01*
X82065904Y-37091904D01*
X82113523Y-36901428D01*
X82113523Y-36663333D01*
X82065904Y-36472857D01*
X82018285Y-36377619D01*
X81970666Y-36330000D01*
X81875428Y-36282380D01*
G04 #@! TO.C,R31*
X27566857Y-15566380D02*
X27900190Y-15090190D01*
X28138285Y-15566380D02*
X28138285Y-14566380D01*
X27757333Y-14566380D01*
X27662095Y-14614000D01*
X27614476Y-14661619D01*
X27566857Y-14756857D01*
X27566857Y-14899714D01*
X27614476Y-14994952D01*
X27662095Y-15042571D01*
X27757333Y-15090190D01*
X28138285Y-15090190D01*
X27233523Y-14566380D02*
X26614476Y-14566380D01*
X26947809Y-14947333D01*
X26804952Y-14947333D01*
X26709714Y-14994952D01*
X26662095Y-15042571D01*
X26614476Y-15137809D01*
X26614476Y-15375904D01*
X26662095Y-15471142D01*
X26709714Y-15518761D01*
X26804952Y-15566380D01*
X27090666Y-15566380D01*
X27185904Y-15518761D01*
X27233523Y-15471142D01*
X25662095Y-15566380D02*
X26233523Y-15566380D01*
X25947809Y-15566380D02*
X25947809Y-14566380D01*
X26043047Y-14709238D01*
X26138285Y-14804476D01*
X26233523Y-14852095D01*
G04 #@! TO.C,R32*
X36202857Y-15566380D02*
X36536190Y-15090190D01*
X36774285Y-15566380D02*
X36774285Y-14566380D01*
X36393333Y-14566380D01*
X36298095Y-14614000D01*
X36250476Y-14661619D01*
X36202857Y-14756857D01*
X36202857Y-14899714D01*
X36250476Y-14994952D01*
X36298095Y-15042571D01*
X36393333Y-15090190D01*
X36774285Y-15090190D01*
X35869523Y-14566380D02*
X35250476Y-14566380D01*
X35583809Y-14947333D01*
X35440952Y-14947333D01*
X35345714Y-14994952D01*
X35298095Y-15042571D01*
X35250476Y-15137809D01*
X35250476Y-15375904D01*
X35298095Y-15471142D01*
X35345714Y-15518761D01*
X35440952Y-15566380D01*
X35726666Y-15566380D01*
X35821904Y-15518761D01*
X35869523Y-15471142D01*
X34869523Y-14661619D02*
X34821904Y-14614000D01*
X34726666Y-14566380D01*
X34488571Y-14566380D01*
X34393333Y-14614000D01*
X34345714Y-14661619D01*
X34298095Y-14756857D01*
X34298095Y-14852095D01*
X34345714Y-14994952D01*
X34917142Y-15566380D01*
X34298095Y-15566380D01*
G04 #@! TO.C,R33*
X43822857Y-15566380D02*
X44156190Y-15090190D01*
X44394285Y-15566380D02*
X44394285Y-14566380D01*
X44013333Y-14566380D01*
X43918095Y-14614000D01*
X43870476Y-14661619D01*
X43822857Y-14756857D01*
X43822857Y-14899714D01*
X43870476Y-14994952D01*
X43918095Y-15042571D01*
X44013333Y-15090190D01*
X44394285Y-15090190D01*
X43489523Y-14566380D02*
X42870476Y-14566380D01*
X43203809Y-14947333D01*
X43060952Y-14947333D01*
X42965714Y-14994952D01*
X42918095Y-15042571D01*
X42870476Y-15137809D01*
X42870476Y-15375904D01*
X42918095Y-15471142D01*
X42965714Y-15518761D01*
X43060952Y-15566380D01*
X43346666Y-15566380D01*
X43441904Y-15518761D01*
X43489523Y-15471142D01*
X42537142Y-14566380D02*
X41918095Y-14566380D01*
X42251428Y-14947333D01*
X42108571Y-14947333D01*
X42013333Y-14994952D01*
X41965714Y-15042571D01*
X41918095Y-15137809D01*
X41918095Y-15375904D01*
X41965714Y-15471142D01*
X42013333Y-15518761D01*
X42108571Y-15566380D01*
X42394285Y-15566380D01*
X42489523Y-15518761D01*
X42537142Y-15471142D01*
G04 #@! TO.C,R34*
X51442857Y-15566380D02*
X51776190Y-15090190D01*
X52014285Y-15566380D02*
X52014285Y-14566380D01*
X51633333Y-14566380D01*
X51538095Y-14614000D01*
X51490476Y-14661619D01*
X51442857Y-14756857D01*
X51442857Y-14899714D01*
X51490476Y-14994952D01*
X51538095Y-15042571D01*
X51633333Y-15090190D01*
X52014285Y-15090190D01*
X51109523Y-14566380D02*
X50490476Y-14566380D01*
X50823809Y-14947333D01*
X50680952Y-14947333D01*
X50585714Y-14994952D01*
X50538095Y-15042571D01*
X50490476Y-15137809D01*
X50490476Y-15375904D01*
X50538095Y-15471142D01*
X50585714Y-15518761D01*
X50680952Y-15566380D01*
X50966666Y-15566380D01*
X51061904Y-15518761D01*
X51109523Y-15471142D01*
X49633333Y-14899714D02*
X49633333Y-15566380D01*
X49871428Y-14518761D02*
X50109523Y-15233047D01*
X49490476Y-15233047D01*
G04 #@! TO.C,R35*
X60586857Y-15566380D02*
X60920190Y-15090190D01*
X61158285Y-15566380D02*
X61158285Y-14566380D01*
X60777333Y-14566380D01*
X60682095Y-14614000D01*
X60634476Y-14661619D01*
X60586857Y-14756857D01*
X60586857Y-14899714D01*
X60634476Y-14994952D01*
X60682095Y-15042571D01*
X60777333Y-15090190D01*
X61158285Y-15090190D01*
X60253523Y-14566380D02*
X59634476Y-14566380D01*
X59967809Y-14947333D01*
X59824952Y-14947333D01*
X59729714Y-14994952D01*
X59682095Y-15042571D01*
X59634476Y-15137809D01*
X59634476Y-15375904D01*
X59682095Y-15471142D01*
X59729714Y-15518761D01*
X59824952Y-15566380D01*
X60110666Y-15566380D01*
X60205904Y-15518761D01*
X60253523Y-15471142D01*
X58729714Y-14566380D02*
X59205904Y-14566380D01*
X59253523Y-15042571D01*
X59205904Y-14994952D01*
X59110666Y-14947333D01*
X58872571Y-14947333D01*
X58777333Y-14994952D01*
X58729714Y-15042571D01*
X58682095Y-15137809D01*
X58682095Y-15375904D01*
X58729714Y-15471142D01*
X58777333Y-15518761D01*
X58872571Y-15566380D01*
X59110666Y-15566380D01*
X59205904Y-15518761D01*
X59253523Y-15471142D01*
G04 #@! TO.C,R36*
X68206857Y-15566380D02*
X68540190Y-15090190D01*
X68778285Y-15566380D02*
X68778285Y-14566380D01*
X68397333Y-14566380D01*
X68302095Y-14614000D01*
X68254476Y-14661619D01*
X68206857Y-14756857D01*
X68206857Y-14899714D01*
X68254476Y-14994952D01*
X68302095Y-15042571D01*
X68397333Y-15090190D01*
X68778285Y-15090190D01*
X67873523Y-14566380D02*
X67254476Y-14566380D01*
X67587809Y-14947333D01*
X67444952Y-14947333D01*
X67349714Y-14994952D01*
X67302095Y-15042571D01*
X67254476Y-15137809D01*
X67254476Y-15375904D01*
X67302095Y-15471142D01*
X67349714Y-15518761D01*
X67444952Y-15566380D01*
X67730666Y-15566380D01*
X67825904Y-15518761D01*
X67873523Y-15471142D01*
X66397333Y-14566380D02*
X66587809Y-14566380D01*
X66683047Y-14614000D01*
X66730666Y-14661619D01*
X66825904Y-14804476D01*
X66873523Y-14994952D01*
X66873523Y-15375904D01*
X66825904Y-15471142D01*
X66778285Y-15518761D01*
X66683047Y-15566380D01*
X66492571Y-15566380D01*
X66397333Y-15518761D01*
X66349714Y-15471142D01*
X66302095Y-15375904D01*
X66302095Y-15137809D01*
X66349714Y-15042571D01*
X66397333Y-14994952D01*
X66492571Y-14947333D01*
X66683047Y-14947333D01*
X66778285Y-14994952D01*
X66825904Y-15042571D01*
X66873523Y-15137809D01*
G04 #@! TO.C,R37*
X75826857Y-15566380D02*
X76160190Y-15090190D01*
X76398285Y-15566380D02*
X76398285Y-14566380D01*
X76017333Y-14566380D01*
X75922095Y-14614000D01*
X75874476Y-14661619D01*
X75826857Y-14756857D01*
X75826857Y-14899714D01*
X75874476Y-14994952D01*
X75922095Y-15042571D01*
X76017333Y-15090190D01*
X76398285Y-15090190D01*
X75493523Y-14566380D02*
X74874476Y-14566380D01*
X75207809Y-14947333D01*
X75064952Y-14947333D01*
X74969714Y-14994952D01*
X74922095Y-15042571D01*
X74874476Y-15137809D01*
X74874476Y-15375904D01*
X74922095Y-15471142D01*
X74969714Y-15518761D01*
X75064952Y-15566380D01*
X75350666Y-15566380D01*
X75445904Y-15518761D01*
X75493523Y-15471142D01*
X74541142Y-14566380D02*
X73874476Y-14566380D01*
X74303047Y-15566380D01*
G04 #@! TO.C,R38*
X83446857Y-15566380D02*
X83780190Y-15090190D01*
X84018285Y-15566380D02*
X84018285Y-14566380D01*
X83637333Y-14566380D01*
X83542095Y-14614000D01*
X83494476Y-14661619D01*
X83446857Y-14756857D01*
X83446857Y-14899714D01*
X83494476Y-14994952D01*
X83542095Y-15042571D01*
X83637333Y-15090190D01*
X84018285Y-15090190D01*
X83113523Y-14566380D02*
X82494476Y-14566380D01*
X82827809Y-14947333D01*
X82684952Y-14947333D01*
X82589714Y-14994952D01*
X82542095Y-15042571D01*
X82494476Y-15137809D01*
X82494476Y-15375904D01*
X82542095Y-15471142D01*
X82589714Y-15518761D01*
X82684952Y-15566380D01*
X82970666Y-15566380D01*
X83065904Y-15518761D01*
X83113523Y-15471142D01*
X81923047Y-14994952D02*
X82018285Y-14947333D01*
X82065904Y-14899714D01*
X82113523Y-14804476D01*
X82113523Y-14756857D01*
X82065904Y-14661619D01*
X82018285Y-14614000D01*
X81923047Y-14566380D01*
X81732571Y-14566380D01*
X81637333Y-14614000D01*
X81589714Y-14661619D01*
X81542095Y-14756857D01*
X81542095Y-14804476D01*
X81589714Y-14899714D01*
X81637333Y-14947333D01*
X81732571Y-14994952D01*
X81923047Y-14994952D01*
X82018285Y-15042571D01*
X82065904Y-15090190D01*
X82113523Y-15185428D01*
X82113523Y-15375904D01*
X82065904Y-15471142D01*
X82018285Y-15518761D01*
X81923047Y-15566380D01*
X81732571Y-15566380D01*
X81637333Y-15518761D01*
X81589714Y-15471142D01*
X81542095Y-15375904D01*
X81542095Y-15185428D01*
X81589714Y-15090190D01*
X81637333Y-15042571D01*
X81732571Y-14994952D01*
G04 #@! TO.C,J3*
X103128380Y-38528666D02*
X103842666Y-38528666D01*
X103985523Y-38481047D01*
X104080761Y-38385809D01*
X104128380Y-38242952D01*
X104128380Y-38147714D01*
X103128380Y-38909619D02*
X103128380Y-39528666D01*
X103509333Y-39195333D01*
X103509333Y-39338190D01*
X103556952Y-39433428D01*
X103604571Y-39481047D01*
X103699809Y-39528666D01*
X103937904Y-39528666D01*
X104033142Y-39481047D01*
X104080761Y-39433428D01*
X104128380Y-39338190D01*
X104128380Y-39052476D01*
X104080761Y-38957238D01*
X104033142Y-38909619D01*
G04 #@! TO.C,J6*
X94059333Y-81030380D02*
X94059333Y-81744666D01*
X94106952Y-81887523D01*
X94202190Y-81982761D01*
X94345047Y-82030380D01*
X94440285Y-82030380D01*
X93154571Y-81030380D02*
X93345047Y-81030380D01*
X93440285Y-81078000D01*
X93487904Y-81125619D01*
X93583142Y-81268476D01*
X93630761Y-81458952D01*
X93630761Y-81839904D01*
X93583142Y-81935142D01*
X93535523Y-81982761D01*
X93440285Y-82030380D01*
X93249809Y-82030380D01*
X93154571Y-81982761D01*
X93106952Y-81935142D01*
X93059333Y-81839904D01*
X93059333Y-81601809D01*
X93106952Y-81506571D01*
X93154571Y-81458952D01*
X93249809Y-81411333D01*
X93440285Y-81411333D01*
X93535523Y-81458952D01*
X93583142Y-81506571D01*
X93630761Y-81601809D01*
G04 #@! TO.C,TEST*
D19*
X18255342Y-82457228D02*
X17384485Y-82457228D01*
X17819914Y-83981228D02*
X17819914Y-82457228D01*
X16876485Y-83182942D02*
X16368485Y-83182942D01*
X16150771Y-83981228D02*
X16876485Y-83981228D01*
X16876485Y-82457228D01*
X16150771Y-82457228D01*
X15570200Y-83908657D02*
X15352485Y-83981228D01*
X14989628Y-83981228D01*
X14844485Y-83908657D01*
X14771914Y-83836085D01*
X14699342Y-83690942D01*
X14699342Y-83545800D01*
X14771914Y-83400657D01*
X14844485Y-83328085D01*
X14989628Y-83255514D01*
X15279914Y-83182942D01*
X15425057Y-83110371D01*
X15497628Y-83037800D01*
X15570200Y-82892657D01*
X15570200Y-82747514D01*
X15497628Y-82602371D01*
X15425057Y-82529800D01*
X15279914Y-82457228D01*
X14917057Y-82457228D01*
X14699342Y-82529800D01*
X14263914Y-82457228D02*
X13393057Y-82457228D01*
X13828485Y-83981228D02*
X13828485Y-82457228D01*
G04 #@! TO.C,J2*
D18*
X103128380Y-41068666D02*
X103842666Y-41068666D01*
X103985523Y-41021047D01*
X104080761Y-40925809D01*
X104128380Y-40782952D01*
X104128380Y-40687714D01*
X103223619Y-41497238D02*
X103176000Y-41544857D01*
X103128380Y-41640095D01*
X103128380Y-41878190D01*
X103176000Y-41973428D01*
X103223619Y-42021047D01*
X103318857Y-42068666D01*
X103414095Y-42068666D01*
X103556952Y-42021047D01*
X104128380Y-41449619D01*
X104128380Y-42068666D01*
G04 #@! TD*
M02*
