G04 #@! TF.GenerationSoftware,KiCad,Pcbnew,(5.0.2)-1*
G04 #@! TF.CreationDate,2019-09-26T13:37:58-04:00*
G04 #@! TF.ProjectId,JoyPad,4a6f7950-6164-42e6-9b69-6361645f7063,X1*
G04 #@! TF.SameCoordinates,Original*
G04 #@! TF.FileFunction,Legend,Top*
G04 #@! TF.FilePolarity,Positive*
%FSLAX46Y46*%
G04 Gerber Fmt 4.6, Leading zero omitted, Abs format (unit mm)*
G04 Created by KiCad (PCBNEW (5.0.2)-1) date 9/26/2019 1:37:58 PM*
%MOMM*%
%LPD*%
G01*
G04 APERTURE LIST*
%ADD10C,0.381000*%
%ADD11C,0.120000*%
%ADD12C,0.150000*%
G04 APERTURE END LIST*
D10*
X5837464Y-11384642D02*
X5928178Y-11203214D01*
X6109607Y-11112499D01*
X7742464Y-11112499D01*
X5837464Y-12926785D02*
X6835321Y-12926785D01*
X7016750Y-12836071D01*
X7107464Y-12654642D01*
X7107464Y-12291785D01*
X7016750Y-12110357D01*
X5928178Y-12926785D02*
X5837464Y-12745357D01*
X5837464Y-12291785D01*
X5928178Y-12110357D01*
X6109607Y-12019642D01*
X6291035Y-12019642D01*
X6472464Y-12110357D01*
X6563178Y-12291785D01*
X6563178Y-12745357D01*
X6653892Y-12926785D01*
X7107464Y-13833928D02*
X5837464Y-13833928D01*
X6926035Y-13833928D02*
X7016750Y-13924642D01*
X7107464Y-14106071D01*
X7107464Y-14378214D01*
X7016750Y-14559642D01*
X6835321Y-14650357D01*
X5837464Y-14650357D01*
X5837464Y-16373928D02*
X7742464Y-16373928D01*
X5928178Y-16373928D02*
X5837464Y-16192499D01*
X5837464Y-15829642D01*
X5928178Y-15648214D01*
X6018892Y-15557499D01*
X6200321Y-15466785D01*
X6744607Y-15466785D01*
X6926035Y-15557499D01*
X7016750Y-15648214D01*
X7107464Y-15829642D01*
X7107464Y-16192499D01*
X7016750Y-16373928D01*
X6563178Y-17281071D02*
X6563178Y-18732499D01*
X5837464Y-19639642D02*
X7742464Y-19639642D01*
X7016750Y-19639642D02*
X7107464Y-19821071D01*
X7107464Y-20183928D01*
X7016750Y-20365357D01*
X6926035Y-20456071D01*
X6744607Y-20546785D01*
X6200321Y-20546785D01*
X6018892Y-20456071D01*
X5928178Y-20365357D01*
X5837464Y-20183928D01*
X5837464Y-19821071D01*
X5928178Y-19639642D01*
X5837464Y-21635357D02*
X5928178Y-21453928D01*
X6018892Y-21363214D01*
X6200321Y-21272500D01*
X6744607Y-21272500D01*
X6926035Y-21363214D01*
X7016750Y-21453928D01*
X7107464Y-21635357D01*
X7107464Y-21907500D01*
X7016750Y-22088928D01*
X6926035Y-22179642D01*
X6744607Y-22270357D01*
X6200321Y-22270357D01*
X6018892Y-22179642D01*
X5928178Y-22088928D01*
X5837464Y-21907500D01*
X5837464Y-21635357D01*
X5837464Y-23903214D02*
X6835321Y-23903214D01*
X7016750Y-23812500D01*
X7107464Y-23631071D01*
X7107464Y-23268214D01*
X7016750Y-23086785D01*
X5928178Y-23903214D02*
X5837464Y-23721785D01*
X5837464Y-23268214D01*
X5928178Y-23086785D01*
X6109607Y-22996071D01*
X6291035Y-22996071D01*
X6472464Y-23086785D01*
X6563178Y-23268214D01*
X6563178Y-23721785D01*
X6653892Y-23903214D01*
X5837464Y-24810357D02*
X7107464Y-24810357D01*
X6744607Y-24810357D02*
X6926035Y-24901071D01*
X7016750Y-24991785D01*
X7107464Y-25173214D01*
X7107464Y-25354642D01*
X5837464Y-26806071D02*
X7742464Y-26806071D01*
X5928178Y-26806071D02*
X5837464Y-26624642D01*
X5837464Y-26261785D01*
X5928178Y-26080357D01*
X6018892Y-25989642D01*
X6200321Y-25898928D01*
X6744607Y-25898928D01*
X6926035Y-25989642D01*
X7016750Y-26080357D01*
X7107464Y-26261785D01*
X7107464Y-26624642D01*
X7016750Y-26806071D01*
X5928178Y-27622500D02*
X5837464Y-27803928D01*
X5837464Y-28166785D01*
X5928178Y-28348214D01*
X6109607Y-28438928D01*
X6200321Y-28438928D01*
X6381749Y-28348214D01*
X6472464Y-28166785D01*
X6472464Y-27894642D01*
X6563178Y-27713214D01*
X6744607Y-27622500D01*
X6835321Y-27622500D01*
X7016749Y-27713214D01*
X7107464Y-27894642D01*
X7107464Y-28166785D01*
X7016749Y-28348214D01*
X6018892Y-29255357D02*
X5928178Y-29346071D01*
X5837464Y-29255357D01*
X5928178Y-29164642D01*
X6018892Y-29255357D01*
X5837464Y-29255357D01*
X5928178Y-30978928D02*
X5837464Y-30797500D01*
X5837464Y-30434642D01*
X5928178Y-30253214D01*
X6018892Y-30162500D01*
X6200321Y-30071785D01*
X6744607Y-30071785D01*
X6926035Y-30162500D01*
X7016749Y-30253214D01*
X7107464Y-30434642D01*
X7107464Y-30797500D01*
X7016749Y-30978928D01*
X5837464Y-32067500D02*
X5928178Y-31886071D01*
X6018892Y-31795357D01*
X6200321Y-31704642D01*
X6744607Y-31704642D01*
X6926035Y-31795357D01*
X7016749Y-31886071D01*
X7107464Y-32067500D01*
X7107464Y-32339642D01*
X7016749Y-32521071D01*
X6926035Y-32611785D01*
X6744607Y-32702500D01*
X6200321Y-32702500D01*
X6018892Y-32611785D01*
X5928178Y-32521071D01*
X5837464Y-32339642D01*
X5837464Y-32067500D01*
X5837464Y-33518928D02*
X7107464Y-33518928D01*
X6926035Y-33518928D02*
X7016749Y-33609642D01*
X7107464Y-33791071D01*
X7107464Y-34063214D01*
X7016749Y-34244642D01*
X6835321Y-34335357D01*
X5837464Y-34335357D01*
X6835321Y-34335357D02*
X7016749Y-34426071D01*
X7107464Y-34607500D01*
X7107464Y-34879642D01*
X7016749Y-35061071D01*
X6835321Y-35151785D01*
X5837464Y-35151785D01*
X7833178Y-37419642D02*
X5383892Y-35786785D01*
X2598964Y-16419285D02*
X4503964Y-16419285D01*
X2598964Y-17507857D02*
X3687535Y-16691428D01*
X4503964Y-17507857D02*
X3415392Y-16419285D01*
X2689678Y-19050000D02*
X2598964Y-18868571D01*
X2598964Y-18505714D01*
X2689678Y-18324285D01*
X2871107Y-18233571D01*
X3596821Y-18233571D01*
X3778250Y-18324285D01*
X3868964Y-18505714D01*
X3868964Y-18868571D01*
X3778250Y-19050000D01*
X3596821Y-19140714D01*
X3415392Y-19140714D01*
X3233964Y-18233571D01*
X3868964Y-19775714D02*
X2598964Y-20229285D01*
X3868964Y-20682857D02*
X2598964Y-20229285D01*
X2145392Y-20047857D01*
X2054678Y-19957142D01*
X1963964Y-19775714D01*
X2598964Y-21408571D02*
X4503964Y-21408571D01*
X4503964Y-22134285D01*
X4413250Y-22315714D01*
X4322535Y-22406428D01*
X4141107Y-22497142D01*
X3868964Y-22497142D01*
X3687535Y-22406428D01*
X3596821Y-22315714D01*
X3506107Y-22134285D01*
X3506107Y-21408571D01*
X2598964Y-24130000D02*
X3596821Y-24130000D01*
X3778250Y-24039285D01*
X3868964Y-23857857D01*
X3868964Y-23495000D01*
X3778250Y-23313571D01*
X2689678Y-24130000D02*
X2598964Y-23948571D01*
X2598964Y-23495000D01*
X2689678Y-23313571D01*
X2871107Y-23222857D01*
X3052535Y-23222857D01*
X3233964Y-23313571D01*
X3324678Y-23495000D01*
X3324678Y-23948571D01*
X3415392Y-24130000D01*
X2598964Y-25853571D02*
X4503964Y-25853571D01*
X2689678Y-25853571D02*
X2598964Y-25672142D01*
X2598964Y-25309285D01*
X2689678Y-25127857D01*
X2780392Y-25037142D01*
X2961821Y-24946428D01*
X3506107Y-24946428D01*
X3687535Y-25037142D01*
X3778250Y-25127857D01*
X3868964Y-25309285D01*
X3868964Y-25672142D01*
X3778249Y-25853571D01*
X3324678Y-26760714D02*
X3324678Y-28212142D01*
X4503964Y-29482142D02*
X4503964Y-29663571D01*
X4413249Y-29845000D01*
X4322535Y-29935714D01*
X4141107Y-30026428D01*
X3778249Y-30117142D01*
X3324678Y-30117142D01*
X2961821Y-30026428D01*
X2780392Y-29935714D01*
X2689678Y-29845000D01*
X2598964Y-29663571D01*
X2598964Y-29482142D01*
X2689678Y-29300714D01*
X2780392Y-29210000D01*
X2961821Y-29119285D01*
X3324678Y-29028571D01*
X3778249Y-29028571D01*
X4141107Y-29119285D01*
X4322535Y-29210000D01*
X4413249Y-29300714D01*
X4503964Y-29482142D01*
X2598964Y-31931428D02*
X2598964Y-30842857D01*
X2598964Y-31387142D02*
X4503964Y-31387142D01*
X4231821Y-31205714D01*
X4050392Y-31024285D01*
X3959678Y-30842857D01*
D11*
G04 #@! TO.C,R1*
X21284000Y-31757252D02*
X21284000Y-31234748D01*
X19864000Y-31757252D02*
X19864000Y-31234748D01*
G04 #@! TO.C,R2*
X28754000Y-31766252D02*
X28754000Y-31243748D01*
X30174000Y-31766252D02*
X30174000Y-31243748D01*
G04 #@! TO.C,R5*
X30428000Y-21597252D02*
X30428000Y-21074748D01*
X29008000Y-21597252D02*
X29008000Y-21074748D01*
G04 #@! TO.C,R6*
X39318000Y-22613252D02*
X39318000Y-22090748D01*
X37898000Y-22613252D02*
X37898000Y-22090748D01*
G04 #@! TO.C,R7*
X29770000Y-14485252D02*
X29770000Y-13962748D01*
X31190000Y-14485252D02*
X31190000Y-13962748D01*
G04 #@! TO.C,R8*
X19864000Y-14485252D02*
X19864000Y-13962748D01*
X21284000Y-14485252D02*
X21284000Y-13962748D01*
G04 #@! TO.C,SW1*
X19470000Y-34560000D02*
X19470000Y-30060000D01*
X15470000Y-35810000D02*
X16970000Y-35810000D01*
X12970000Y-30060000D02*
X12970000Y-34560000D01*
X16970000Y-28810000D02*
X15470000Y-28810000D01*
G04 #@! TO.C,SW2*
X25860000Y-28810000D02*
X24360000Y-28810000D01*
X21860000Y-30060000D02*
X21860000Y-34560000D01*
X24360000Y-35810000D02*
X25860000Y-35810000D01*
X28360000Y-34560000D02*
X28360000Y-30060000D01*
G04 #@! TO.C,SW3*
X37250000Y-34560000D02*
X37250000Y-30060000D01*
X33250000Y-35810000D02*
X34750000Y-35810000D01*
X30750000Y-30060000D02*
X30750000Y-34560000D01*
X34750000Y-28810000D02*
X33250000Y-28810000D01*
G04 #@! TO.C,SW4*
X25860000Y-38970000D02*
X24360000Y-38970000D01*
X21860000Y-40220000D02*
X21860000Y-44720000D01*
X24360000Y-45970000D02*
X25860000Y-45970000D01*
X28360000Y-44720000D02*
X28360000Y-40220000D01*
G04 #@! TO.C,SW5*
X28360000Y-24400000D02*
X28360000Y-19900000D01*
X24360000Y-25650000D02*
X25860000Y-25650000D01*
X21860000Y-19900000D02*
X21860000Y-24400000D01*
X25860000Y-18650000D02*
X24360000Y-18650000D01*
G04 #@! TO.C,SW6*
X42212000Y-25546000D02*
X43712000Y-25546000D01*
X46212000Y-24296000D02*
X46212000Y-19796000D01*
X43712000Y-18546000D02*
X42212000Y-18546000D01*
X39712000Y-19796000D02*
X39712000Y-24296000D01*
G04 #@! TO.C,SW7*
X30822000Y-11668000D02*
X30822000Y-16168000D01*
X34822000Y-10418000D02*
X33322000Y-10418000D01*
X37322000Y-16168000D02*
X37322000Y-11668000D01*
X33322000Y-17418000D02*
X34822000Y-17418000D01*
G04 #@! TO.C,SW8*
X16970000Y-10522000D02*
X15470000Y-10522000D01*
X12970000Y-11772000D02*
X12970000Y-16272000D01*
X15470000Y-17522000D02*
X16970000Y-17522000D01*
X19470000Y-16272000D02*
X19470000Y-11772000D01*
G04 #@! TO.C,R3*
X39064000Y-31757252D02*
X39064000Y-31234748D01*
X37644000Y-31757252D02*
X37644000Y-31234748D01*
G04 #@! TO.C,R4*
X28754000Y-43187252D02*
X28754000Y-42664748D01*
X30174000Y-43187252D02*
X30174000Y-42664748D01*
D12*
G04 #@! TO.C,BD-49X49*
X4000000Y0D02*
G75*
G03X0Y-4000000I0J-4000000D01*
G01*
X49000000Y-4000000D02*
G75*
G03X45000000Y0I-4000000J0D01*
G01*
X45000000Y-49000000D02*
G75*
G03X49000000Y-45000000I0J4000000D01*
G01*
X0Y-45000000D02*
G75*
G03X4000000Y-49000000I4000000J0D01*
G01*
X49000000Y-45000000D02*
X49000000Y-4000000D01*
X45000000Y0D02*
X4000000Y0D01*
X0Y-4000000D02*
X0Y-45000000D01*
X4000000Y-49000000D02*
X45000000Y-49000000D01*
G04 #@! TO.C,R1*
X20407333Y-29408380D02*
X20074000Y-28932190D01*
X19835904Y-29408380D02*
X19835904Y-28408380D01*
X20216857Y-28408380D01*
X20312095Y-28456000D01*
X20359714Y-28503619D01*
X20407333Y-28598857D01*
X20407333Y-28741714D01*
X20359714Y-28836952D01*
X20312095Y-28884571D01*
X20216857Y-28932190D01*
X19835904Y-28932190D01*
X21359714Y-29408380D02*
X20788285Y-29408380D01*
X21074000Y-29408380D02*
X21074000Y-28408380D01*
X20978761Y-28551238D01*
X20883523Y-28646476D01*
X20788285Y-28694095D01*
G04 #@! TO.C,R2*
X29916380Y-27861666D02*
X29440190Y-28195000D01*
X29916380Y-28433095D02*
X28916380Y-28433095D01*
X28916380Y-28052142D01*
X28964000Y-27956904D01*
X29011619Y-27909285D01*
X29106857Y-27861666D01*
X29249714Y-27861666D01*
X29344952Y-27909285D01*
X29392571Y-27956904D01*
X29440190Y-28052142D01*
X29440190Y-28433095D01*
X29011619Y-27480714D02*
X28964000Y-27433095D01*
X28916380Y-27337857D01*
X28916380Y-27099761D01*
X28964000Y-27004523D01*
X29011619Y-26956904D01*
X29106857Y-26909285D01*
X29202095Y-26909285D01*
X29344952Y-26956904D01*
X29916380Y-27528333D01*
X29916380Y-26909285D01*
G04 #@! TO.C,R5*
X28520380Y-21883666D02*
X28044190Y-22217000D01*
X28520380Y-22455095D02*
X27520380Y-22455095D01*
X27520380Y-22074142D01*
X27568000Y-21978904D01*
X27615619Y-21931285D01*
X27710857Y-21883666D01*
X27853714Y-21883666D01*
X27948952Y-21931285D01*
X27996571Y-21978904D01*
X28044190Y-22074142D01*
X28044190Y-22455095D01*
X27520380Y-20978904D02*
X27520380Y-21455095D01*
X27996571Y-21502714D01*
X27948952Y-21455095D01*
X27901333Y-21359857D01*
X27901333Y-21121761D01*
X27948952Y-21026523D01*
X27996571Y-20978904D01*
X28091809Y-20931285D01*
X28329904Y-20931285D01*
X28425142Y-20978904D01*
X28472761Y-21026523D01*
X28520380Y-21121761D01*
X28520380Y-21359857D01*
X28472761Y-21455095D01*
X28425142Y-21502714D01*
G04 #@! TO.C,R6*
X38466733Y-20264380D02*
X38133400Y-19788190D01*
X37895304Y-20264380D02*
X37895304Y-19264380D01*
X38276257Y-19264380D01*
X38371495Y-19312000D01*
X38419114Y-19359619D01*
X38466733Y-19454857D01*
X38466733Y-19597714D01*
X38419114Y-19692952D01*
X38371495Y-19740571D01*
X38276257Y-19788190D01*
X37895304Y-19788190D01*
X39323876Y-19264380D02*
X39133400Y-19264380D01*
X39038161Y-19312000D01*
X38990542Y-19359619D01*
X38895304Y-19502476D01*
X38847685Y-19692952D01*
X38847685Y-20073904D01*
X38895304Y-20169142D01*
X38942923Y-20216761D01*
X39038161Y-20264380D01*
X39228638Y-20264380D01*
X39323876Y-20216761D01*
X39371495Y-20169142D01*
X39419114Y-20073904D01*
X39419114Y-19835809D01*
X39371495Y-19740571D01*
X39323876Y-19692952D01*
X39228638Y-19645333D01*
X39038161Y-19645333D01*
X38942923Y-19692952D01*
X38895304Y-19740571D01*
X38847685Y-19835809D01*
G04 #@! TO.C,R7*
X30932380Y-11622066D02*
X30456190Y-11955400D01*
X30932380Y-12193495D02*
X29932380Y-12193495D01*
X29932380Y-11812542D01*
X29980000Y-11717304D01*
X30027619Y-11669685D01*
X30122857Y-11622066D01*
X30265714Y-11622066D01*
X30360952Y-11669685D01*
X30408571Y-11717304D01*
X30456190Y-11812542D01*
X30456190Y-12193495D01*
X29932380Y-11288733D02*
X29932380Y-10622066D01*
X30932380Y-11050638D01*
G04 #@! TO.C,R8*
X20407333Y-12390380D02*
X20074000Y-11914190D01*
X19835904Y-12390380D02*
X19835904Y-11390380D01*
X20216857Y-11390380D01*
X20312095Y-11438000D01*
X20359714Y-11485619D01*
X20407333Y-11580857D01*
X20407333Y-11723714D01*
X20359714Y-11818952D01*
X20312095Y-11866571D01*
X20216857Y-11914190D01*
X19835904Y-11914190D01*
X20978761Y-11818952D02*
X20883523Y-11771333D01*
X20835904Y-11723714D01*
X20788285Y-11628476D01*
X20788285Y-11580857D01*
X20835904Y-11485619D01*
X20883523Y-11438000D01*
X20978761Y-11390380D01*
X21169238Y-11390380D01*
X21264476Y-11438000D01*
X21312095Y-11485619D01*
X21359714Y-11580857D01*
X21359714Y-11628476D01*
X21312095Y-11723714D01*
X21264476Y-11771333D01*
X21169238Y-11818952D01*
X20978761Y-11818952D01*
X20883523Y-11866571D01*
X20835904Y-11914190D01*
X20788285Y-12009428D01*
X20788285Y-12199904D01*
X20835904Y-12295142D01*
X20883523Y-12342761D01*
X20978761Y-12390380D01*
X21169238Y-12390380D01*
X21264476Y-12342761D01*
X21312095Y-12295142D01*
X21359714Y-12199904D01*
X21359714Y-12009428D01*
X21312095Y-11914190D01*
X21264476Y-11866571D01*
X21169238Y-11818952D01*
G04 #@! TO.C,SW1*
X14922666Y-37488761D02*
X15065523Y-37536380D01*
X15303619Y-37536380D01*
X15398857Y-37488761D01*
X15446476Y-37441142D01*
X15494095Y-37345904D01*
X15494095Y-37250666D01*
X15446476Y-37155428D01*
X15398857Y-37107809D01*
X15303619Y-37060190D01*
X15113142Y-37012571D01*
X15017904Y-36964952D01*
X14970285Y-36917333D01*
X14922666Y-36822095D01*
X14922666Y-36726857D01*
X14970285Y-36631619D01*
X15017904Y-36584000D01*
X15113142Y-36536380D01*
X15351238Y-36536380D01*
X15494095Y-36584000D01*
X15827428Y-36536380D02*
X16065523Y-37536380D01*
X16256000Y-36822095D01*
X16446476Y-37536380D01*
X16684571Y-36536380D01*
X17589333Y-37536380D02*
X17017904Y-37536380D01*
X17303619Y-37536380D02*
X17303619Y-36536380D01*
X17208380Y-36679238D01*
X17113142Y-36774476D01*
X17017904Y-36822095D01*
G04 #@! TO.C,SW2*
X23812666Y-37488761D02*
X23955523Y-37536380D01*
X24193619Y-37536380D01*
X24288857Y-37488761D01*
X24336476Y-37441142D01*
X24384095Y-37345904D01*
X24384095Y-37250666D01*
X24336476Y-37155428D01*
X24288857Y-37107809D01*
X24193619Y-37060190D01*
X24003142Y-37012571D01*
X23907904Y-36964952D01*
X23860285Y-36917333D01*
X23812666Y-36822095D01*
X23812666Y-36726857D01*
X23860285Y-36631619D01*
X23907904Y-36584000D01*
X24003142Y-36536380D01*
X24241238Y-36536380D01*
X24384095Y-36584000D01*
X24717428Y-36536380D02*
X24955523Y-37536380D01*
X25146000Y-36822095D01*
X25336476Y-37536380D01*
X25574571Y-36536380D01*
X25907904Y-36631619D02*
X25955523Y-36584000D01*
X26050761Y-36536380D01*
X26288857Y-36536380D01*
X26384095Y-36584000D01*
X26431714Y-36631619D01*
X26479333Y-36726857D01*
X26479333Y-36822095D01*
X26431714Y-36964952D01*
X25860285Y-37536380D01*
X26479333Y-37536380D01*
G04 #@! TO.C,SW3*
X32448666Y-37488761D02*
X32591523Y-37536380D01*
X32829619Y-37536380D01*
X32924857Y-37488761D01*
X32972476Y-37441142D01*
X33020095Y-37345904D01*
X33020095Y-37250666D01*
X32972476Y-37155428D01*
X32924857Y-37107809D01*
X32829619Y-37060190D01*
X32639142Y-37012571D01*
X32543904Y-36964952D01*
X32496285Y-36917333D01*
X32448666Y-36822095D01*
X32448666Y-36726857D01*
X32496285Y-36631619D01*
X32543904Y-36584000D01*
X32639142Y-36536380D01*
X32877238Y-36536380D01*
X33020095Y-36584000D01*
X33353428Y-36536380D02*
X33591523Y-37536380D01*
X33782000Y-36822095D01*
X33972476Y-37536380D01*
X34210571Y-36536380D01*
X34496285Y-36536380D02*
X35115333Y-36536380D01*
X34782000Y-36917333D01*
X34924857Y-36917333D01*
X35020095Y-36964952D01*
X35067714Y-37012571D01*
X35115333Y-37107809D01*
X35115333Y-37345904D01*
X35067714Y-37441142D01*
X35020095Y-37488761D01*
X34924857Y-37536380D01*
X34639142Y-37536380D01*
X34543904Y-37488761D01*
X34496285Y-37441142D01*
G04 #@! TO.C,SW4*
X23812666Y-47394761D02*
X23955523Y-47442380D01*
X24193619Y-47442380D01*
X24288857Y-47394761D01*
X24336476Y-47347142D01*
X24384095Y-47251904D01*
X24384095Y-47156666D01*
X24336476Y-47061428D01*
X24288857Y-47013809D01*
X24193619Y-46966190D01*
X24003142Y-46918571D01*
X23907904Y-46870952D01*
X23860285Y-46823333D01*
X23812666Y-46728095D01*
X23812666Y-46632857D01*
X23860285Y-46537619D01*
X23907904Y-46490000D01*
X24003142Y-46442380D01*
X24241238Y-46442380D01*
X24384095Y-46490000D01*
X24717428Y-46442380D02*
X24955523Y-47442380D01*
X25146000Y-46728095D01*
X25336476Y-47442380D01*
X25574571Y-46442380D01*
X26384095Y-46775714D02*
X26384095Y-47442380D01*
X26146000Y-46394761D02*
X25907904Y-47109047D01*
X26526952Y-47109047D01*
G04 #@! TO.C,SW5*
X23431666Y-27709761D02*
X23574523Y-27757380D01*
X23812619Y-27757380D01*
X23907857Y-27709761D01*
X23955476Y-27662142D01*
X24003095Y-27566904D01*
X24003095Y-27471666D01*
X23955476Y-27376428D01*
X23907857Y-27328809D01*
X23812619Y-27281190D01*
X23622142Y-27233571D01*
X23526904Y-27185952D01*
X23479285Y-27138333D01*
X23431666Y-27043095D01*
X23431666Y-26947857D01*
X23479285Y-26852619D01*
X23526904Y-26805000D01*
X23622142Y-26757380D01*
X23860238Y-26757380D01*
X24003095Y-26805000D01*
X24336428Y-26757380D02*
X24574523Y-27757380D01*
X24765000Y-27043095D01*
X24955476Y-27757380D01*
X25193571Y-26757380D01*
X26050714Y-26757380D02*
X25574523Y-26757380D01*
X25526904Y-27233571D01*
X25574523Y-27185952D01*
X25669761Y-27138333D01*
X25907857Y-27138333D01*
X26003095Y-27185952D01*
X26050714Y-27233571D01*
X26098333Y-27328809D01*
X26098333Y-27566904D01*
X26050714Y-27662142D01*
X26003095Y-27709761D01*
X25907857Y-27757380D01*
X25669761Y-27757380D01*
X25574523Y-27709761D01*
X25526904Y-27662142D01*
G04 #@! TO.C,SW6*
X41719666Y-27074761D02*
X41862523Y-27122380D01*
X42100619Y-27122380D01*
X42195857Y-27074761D01*
X42243476Y-27027142D01*
X42291095Y-26931904D01*
X42291095Y-26836666D01*
X42243476Y-26741428D01*
X42195857Y-26693809D01*
X42100619Y-26646190D01*
X41910142Y-26598571D01*
X41814904Y-26550952D01*
X41767285Y-26503333D01*
X41719666Y-26408095D01*
X41719666Y-26312857D01*
X41767285Y-26217619D01*
X41814904Y-26170000D01*
X41910142Y-26122380D01*
X42148238Y-26122380D01*
X42291095Y-26170000D01*
X42624428Y-26122380D02*
X42862523Y-27122380D01*
X43053000Y-26408095D01*
X43243476Y-27122380D01*
X43481571Y-26122380D01*
X44291095Y-26122380D02*
X44100619Y-26122380D01*
X44005380Y-26170000D01*
X43957761Y-26217619D01*
X43862523Y-26360476D01*
X43814904Y-26550952D01*
X43814904Y-26931904D01*
X43862523Y-27027142D01*
X43910142Y-27074761D01*
X44005380Y-27122380D01*
X44195857Y-27122380D01*
X44291095Y-27074761D01*
X44338714Y-27027142D01*
X44386333Y-26931904D01*
X44386333Y-26693809D01*
X44338714Y-26598571D01*
X44291095Y-26550952D01*
X44195857Y-26503333D01*
X44005380Y-26503333D01*
X43910142Y-26550952D01*
X43862523Y-26598571D01*
X43814904Y-26693809D01*
G04 #@! TO.C,SW7*
X32702666Y-19200761D02*
X32845523Y-19248380D01*
X33083619Y-19248380D01*
X33178857Y-19200761D01*
X33226476Y-19153142D01*
X33274095Y-19057904D01*
X33274095Y-18962666D01*
X33226476Y-18867428D01*
X33178857Y-18819809D01*
X33083619Y-18772190D01*
X32893142Y-18724571D01*
X32797904Y-18676952D01*
X32750285Y-18629333D01*
X32702666Y-18534095D01*
X32702666Y-18438857D01*
X32750285Y-18343619D01*
X32797904Y-18296000D01*
X32893142Y-18248380D01*
X33131238Y-18248380D01*
X33274095Y-18296000D01*
X33607428Y-18248380D02*
X33845523Y-19248380D01*
X34036000Y-18534095D01*
X34226476Y-19248380D01*
X34464571Y-18248380D01*
X34750285Y-18248380D02*
X35416952Y-18248380D01*
X34988380Y-19248380D01*
G04 #@! TO.C,SW8*
X14922666Y-19200761D02*
X15065523Y-19248380D01*
X15303619Y-19248380D01*
X15398857Y-19200761D01*
X15446476Y-19153142D01*
X15494095Y-19057904D01*
X15494095Y-18962666D01*
X15446476Y-18867428D01*
X15398857Y-18819809D01*
X15303619Y-18772190D01*
X15113142Y-18724571D01*
X15017904Y-18676952D01*
X14970285Y-18629333D01*
X14922666Y-18534095D01*
X14922666Y-18438857D01*
X14970285Y-18343619D01*
X15017904Y-18296000D01*
X15113142Y-18248380D01*
X15351238Y-18248380D01*
X15494095Y-18296000D01*
X15827428Y-18248380D02*
X16065523Y-19248380D01*
X16256000Y-18534095D01*
X16446476Y-19248380D01*
X16684571Y-18248380D01*
X17208380Y-18676952D02*
X17113142Y-18629333D01*
X17065523Y-18581714D01*
X17017904Y-18486476D01*
X17017904Y-18438857D01*
X17065523Y-18343619D01*
X17113142Y-18296000D01*
X17208380Y-18248380D01*
X17398857Y-18248380D01*
X17494095Y-18296000D01*
X17541714Y-18343619D01*
X17589333Y-18438857D01*
X17589333Y-18486476D01*
X17541714Y-18581714D01*
X17494095Y-18629333D01*
X17398857Y-18676952D01*
X17208380Y-18676952D01*
X17113142Y-18724571D01*
X17065523Y-18772190D01*
X17017904Y-18867428D01*
X17017904Y-19057904D01*
X17065523Y-19153142D01*
X17113142Y-19200761D01*
X17208380Y-19248380D01*
X17398857Y-19248380D01*
X17494095Y-19200761D01*
X17541714Y-19153142D01*
X17589333Y-19057904D01*
X17589333Y-18867428D01*
X17541714Y-18772190D01*
X17494095Y-18724571D01*
X17398857Y-18676952D01*
G04 #@! TO.C,R3*
X38187333Y-29408380D02*
X37854000Y-28932190D01*
X37615904Y-29408380D02*
X37615904Y-28408380D01*
X37996857Y-28408380D01*
X38092095Y-28456000D01*
X38139714Y-28503619D01*
X38187333Y-28598857D01*
X38187333Y-28741714D01*
X38139714Y-28836952D01*
X38092095Y-28884571D01*
X37996857Y-28932190D01*
X37615904Y-28932190D01*
X38520666Y-28408380D02*
X39139714Y-28408380D01*
X38806380Y-28789333D01*
X38949238Y-28789333D01*
X39044476Y-28836952D01*
X39092095Y-28884571D01*
X39139714Y-28979809D01*
X39139714Y-29217904D01*
X39092095Y-29313142D01*
X39044476Y-29360761D01*
X38949238Y-29408380D01*
X38663523Y-29408380D01*
X38568285Y-29360761D01*
X38520666Y-29313142D01*
G04 #@! TO.C,R4*
X29297333Y-40838380D02*
X28964000Y-40362190D01*
X28725904Y-40838380D02*
X28725904Y-39838380D01*
X29106857Y-39838380D01*
X29202095Y-39886000D01*
X29249714Y-39933619D01*
X29297333Y-40028857D01*
X29297333Y-40171714D01*
X29249714Y-40266952D01*
X29202095Y-40314571D01*
X29106857Y-40362190D01*
X28725904Y-40362190D01*
X30154476Y-40171714D02*
X30154476Y-40838380D01*
X29916380Y-39790761D02*
X29678285Y-40505047D01*
X30297333Y-40505047D01*
G04 #@! TD*
M02*
