G04 #@! TF.GenerationSoftware,KiCad,Pcbnew,(5.0.2)-1*
G04 #@! TF.CreationDate,2019-09-26T13:37:58-04:00*
G04 #@! TF.ProjectId,JoyPad,4a6f7950-6164-42e6-9b69-6361645f7063,X1*
G04 #@! TF.SameCoordinates,Original*
G04 #@! TF.FileFunction,Copper,L1,Top*
G04 #@! TF.FilePolarity,Positive*
%FSLAX46Y46*%
G04 Gerber Fmt 4.6, Leading zero omitted, Abs format (unit mm)*
G04 Created by KiCad (PCBNEW (5.0.2)-1) date 9/26/2019 1:37:58 PM*
%MOMM*%
%LPD*%
G01*
G04 APERTURE LIST*
G04 #@! TA.AperFunction,Conductor*
%ADD10C,0.150000*%
G04 #@! TD*
G04 #@! TA.AperFunction,SMDPad,CuDef*
%ADD11C,1.150000*%
G04 #@! TD*
G04 #@! TA.AperFunction,ComponentPad*
%ADD12C,2.000000*%
G04 #@! TD*
G04 #@! TA.AperFunction,ComponentPad*
%ADD13R,1.700000X1.700000*%
G04 #@! TD*
G04 #@! TA.AperFunction,ComponentPad*
%ADD14O,1.700000X1.700000*%
G04 #@! TD*
G04 #@! TA.AperFunction,ComponentPad*
%ADD15C,6.350000*%
G04 #@! TD*
G04 #@! TA.AperFunction,ViaPad*
%ADD16C,0.889000*%
G04 #@! TD*
G04 #@! TA.AperFunction,Conductor*
%ADD17C,0.254000*%
G04 #@! TD*
G04 #@! TA.AperFunction,Conductor*
%ADD18C,0.152400*%
G04 #@! TD*
G04 #@! TA.AperFunction,Conductor*
%ADD19C,0.203200*%
G04 #@! TD*
G04 APERTURE END LIST*
D10*
G04 #@! TO.N,/S1D7*
G04 #@! TO.C,R1*
G36*
X21048505Y-29897204D02*
X21072773Y-29900804D01*
X21096572Y-29906765D01*
X21119671Y-29915030D01*
X21141850Y-29925520D01*
X21162893Y-29938132D01*
X21182599Y-29952747D01*
X21200777Y-29969223D01*
X21217253Y-29987401D01*
X21231868Y-30007107D01*
X21244480Y-30028150D01*
X21254970Y-30050329D01*
X21263235Y-30073428D01*
X21269196Y-30097227D01*
X21272796Y-30121495D01*
X21274000Y-30145999D01*
X21274000Y-30796001D01*
X21272796Y-30820505D01*
X21269196Y-30844773D01*
X21263235Y-30868572D01*
X21254970Y-30891671D01*
X21244480Y-30913850D01*
X21231868Y-30934893D01*
X21217253Y-30954599D01*
X21200777Y-30972777D01*
X21182599Y-30989253D01*
X21162893Y-31003868D01*
X21141850Y-31016480D01*
X21119671Y-31026970D01*
X21096572Y-31035235D01*
X21072773Y-31041196D01*
X21048505Y-31044796D01*
X21024001Y-31046000D01*
X20123999Y-31046000D01*
X20099495Y-31044796D01*
X20075227Y-31041196D01*
X20051428Y-31035235D01*
X20028329Y-31026970D01*
X20006150Y-31016480D01*
X19985107Y-31003868D01*
X19965401Y-30989253D01*
X19947223Y-30972777D01*
X19930747Y-30954599D01*
X19916132Y-30934893D01*
X19903520Y-30913850D01*
X19893030Y-30891671D01*
X19884765Y-30868572D01*
X19878804Y-30844773D01*
X19875204Y-30820505D01*
X19874000Y-30796001D01*
X19874000Y-30145999D01*
X19875204Y-30121495D01*
X19878804Y-30097227D01*
X19884765Y-30073428D01*
X19893030Y-30050329D01*
X19903520Y-30028150D01*
X19916132Y-30007107D01*
X19930747Y-29987401D01*
X19947223Y-29969223D01*
X19965401Y-29952747D01*
X19985107Y-29938132D01*
X20006150Y-29925520D01*
X20028329Y-29915030D01*
X20051428Y-29906765D01*
X20075227Y-29900804D01*
X20099495Y-29897204D01*
X20123999Y-29896000D01*
X21024001Y-29896000D01*
X21048505Y-29897204D01*
X21048505Y-29897204D01*
G37*
D11*
G04 #@! TD*
G04 #@! TO.P,R1,2*
G04 #@! TO.N,/S1D7*
X20574000Y-30471000D03*
D10*
G04 #@! TO.N,VCC*
G04 #@! TO.C,R1*
G36*
X21048505Y-31947204D02*
X21072773Y-31950804D01*
X21096572Y-31956765D01*
X21119671Y-31965030D01*
X21141850Y-31975520D01*
X21162893Y-31988132D01*
X21182599Y-32002747D01*
X21200777Y-32019223D01*
X21217253Y-32037401D01*
X21231868Y-32057107D01*
X21244480Y-32078150D01*
X21254970Y-32100329D01*
X21263235Y-32123428D01*
X21269196Y-32147227D01*
X21272796Y-32171495D01*
X21274000Y-32195999D01*
X21274000Y-32846001D01*
X21272796Y-32870505D01*
X21269196Y-32894773D01*
X21263235Y-32918572D01*
X21254970Y-32941671D01*
X21244480Y-32963850D01*
X21231868Y-32984893D01*
X21217253Y-33004599D01*
X21200777Y-33022777D01*
X21182599Y-33039253D01*
X21162893Y-33053868D01*
X21141850Y-33066480D01*
X21119671Y-33076970D01*
X21096572Y-33085235D01*
X21072773Y-33091196D01*
X21048505Y-33094796D01*
X21024001Y-33096000D01*
X20123999Y-33096000D01*
X20099495Y-33094796D01*
X20075227Y-33091196D01*
X20051428Y-33085235D01*
X20028329Y-33076970D01*
X20006150Y-33066480D01*
X19985107Y-33053868D01*
X19965401Y-33039253D01*
X19947223Y-33022777D01*
X19930747Y-33004599D01*
X19916132Y-32984893D01*
X19903520Y-32963850D01*
X19893030Y-32941671D01*
X19884765Y-32918572D01*
X19878804Y-32894773D01*
X19875204Y-32870505D01*
X19874000Y-32846001D01*
X19874000Y-32195999D01*
X19875204Y-32171495D01*
X19878804Y-32147227D01*
X19884765Y-32123428D01*
X19893030Y-32100329D01*
X19903520Y-32078150D01*
X19916132Y-32057107D01*
X19930747Y-32037401D01*
X19947223Y-32019223D01*
X19965401Y-32002747D01*
X19985107Y-31988132D01*
X20006150Y-31975520D01*
X20028329Y-31965030D01*
X20051428Y-31956765D01*
X20075227Y-31950804D01*
X20099495Y-31947204D01*
X20123999Y-31946000D01*
X21024001Y-31946000D01*
X21048505Y-31947204D01*
X21048505Y-31947204D01*
G37*
D11*
G04 #@! TD*
G04 #@! TO.P,R1,1*
G04 #@! TO.N,VCC*
X20574000Y-32521000D03*
D10*
G04 #@! TO.N,VCC*
G04 #@! TO.C,R2*
G36*
X29938505Y-31956204D02*
X29962773Y-31959804D01*
X29986572Y-31965765D01*
X30009671Y-31974030D01*
X30031850Y-31984520D01*
X30052893Y-31997132D01*
X30072599Y-32011747D01*
X30090777Y-32028223D01*
X30107253Y-32046401D01*
X30121868Y-32066107D01*
X30134480Y-32087150D01*
X30144970Y-32109329D01*
X30153235Y-32132428D01*
X30159196Y-32156227D01*
X30162796Y-32180495D01*
X30164000Y-32204999D01*
X30164000Y-32855001D01*
X30162796Y-32879505D01*
X30159196Y-32903773D01*
X30153235Y-32927572D01*
X30144970Y-32950671D01*
X30134480Y-32972850D01*
X30121868Y-32993893D01*
X30107253Y-33013599D01*
X30090777Y-33031777D01*
X30072599Y-33048253D01*
X30052893Y-33062868D01*
X30031850Y-33075480D01*
X30009671Y-33085970D01*
X29986572Y-33094235D01*
X29962773Y-33100196D01*
X29938505Y-33103796D01*
X29914001Y-33105000D01*
X29013999Y-33105000D01*
X28989495Y-33103796D01*
X28965227Y-33100196D01*
X28941428Y-33094235D01*
X28918329Y-33085970D01*
X28896150Y-33075480D01*
X28875107Y-33062868D01*
X28855401Y-33048253D01*
X28837223Y-33031777D01*
X28820747Y-33013599D01*
X28806132Y-32993893D01*
X28793520Y-32972850D01*
X28783030Y-32950671D01*
X28774765Y-32927572D01*
X28768804Y-32903773D01*
X28765204Y-32879505D01*
X28764000Y-32855001D01*
X28764000Y-32204999D01*
X28765204Y-32180495D01*
X28768804Y-32156227D01*
X28774765Y-32132428D01*
X28783030Y-32109329D01*
X28793520Y-32087150D01*
X28806132Y-32066107D01*
X28820747Y-32046401D01*
X28837223Y-32028223D01*
X28855401Y-32011747D01*
X28875107Y-31997132D01*
X28896150Y-31984520D01*
X28918329Y-31974030D01*
X28941428Y-31965765D01*
X28965227Y-31959804D01*
X28989495Y-31956204D01*
X29013999Y-31955000D01*
X29914001Y-31955000D01*
X29938505Y-31956204D01*
X29938505Y-31956204D01*
G37*
D11*
G04 #@! TD*
G04 #@! TO.P,R2,1*
G04 #@! TO.N,VCC*
X29464000Y-32530000D03*
D10*
G04 #@! TO.N,/S1D6*
G04 #@! TO.C,R2*
G36*
X29938505Y-29906204D02*
X29962773Y-29909804D01*
X29986572Y-29915765D01*
X30009671Y-29924030D01*
X30031850Y-29934520D01*
X30052893Y-29947132D01*
X30072599Y-29961747D01*
X30090777Y-29978223D01*
X30107253Y-29996401D01*
X30121868Y-30016107D01*
X30134480Y-30037150D01*
X30144970Y-30059329D01*
X30153235Y-30082428D01*
X30159196Y-30106227D01*
X30162796Y-30130495D01*
X30164000Y-30154999D01*
X30164000Y-30805001D01*
X30162796Y-30829505D01*
X30159196Y-30853773D01*
X30153235Y-30877572D01*
X30144970Y-30900671D01*
X30134480Y-30922850D01*
X30121868Y-30943893D01*
X30107253Y-30963599D01*
X30090777Y-30981777D01*
X30072599Y-30998253D01*
X30052893Y-31012868D01*
X30031850Y-31025480D01*
X30009671Y-31035970D01*
X29986572Y-31044235D01*
X29962773Y-31050196D01*
X29938505Y-31053796D01*
X29914001Y-31055000D01*
X29013999Y-31055000D01*
X28989495Y-31053796D01*
X28965227Y-31050196D01*
X28941428Y-31044235D01*
X28918329Y-31035970D01*
X28896150Y-31025480D01*
X28875107Y-31012868D01*
X28855401Y-30998253D01*
X28837223Y-30981777D01*
X28820747Y-30963599D01*
X28806132Y-30943893D01*
X28793520Y-30922850D01*
X28783030Y-30900671D01*
X28774765Y-30877572D01*
X28768804Y-30853773D01*
X28765204Y-30829505D01*
X28764000Y-30805001D01*
X28764000Y-30154999D01*
X28765204Y-30130495D01*
X28768804Y-30106227D01*
X28774765Y-30082428D01*
X28783030Y-30059329D01*
X28793520Y-30037150D01*
X28806132Y-30016107D01*
X28820747Y-29996401D01*
X28837223Y-29978223D01*
X28855401Y-29961747D01*
X28875107Y-29947132D01*
X28896150Y-29934520D01*
X28918329Y-29924030D01*
X28941428Y-29915765D01*
X28965227Y-29909804D01*
X28989495Y-29906204D01*
X29013999Y-29905000D01*
X29914001Y-29905000D01*
X29938505Y-29906204D01*
X29938505Y-29906204D01*
G37*
D11*
G04 #@! TD*
G04 #@! TO.P,R2,2*
G04 #@! TO.N,/S1D6*
X29464000Y-30480000D03*
D10*
G04 #@! TO.N,/S1D3*
G04 #@! TO.C,R5*
G36*
X30192505Y-19737204D02*
X30216773Y-19740804D01*
X30240572Y-19746765D01*
X30263671Y-19755030D01*
X30285850Y-19765520D01*
X30306893Y-19778132D01*
X30326599Y-19792747D01*
X30344777Y-19809223D01*
X30361253Y-19827401D01*
X30375868Y-19847107D01*
X30388480Y-19868150D01*
X30398970Y-19890329D01*
X30407235Y-19913428D01*
X30413196Y-19937227D01*
X30416796Y-19961495D01*
X30418000Y-19985999D01*
X30418000Y-20636001D01*
X30416796Y-20660505D01*
X30413196Y-20684773D01*
X30407235Y-20708572D01*
X30398970Y-20731671D01*
X30388480Y-20753850D01*
X30375868Y-20774893D01*
X30361253Y-20794599D01*
X30344777Y-20812777D01*
X30326599Y-20829253D01*
X30306893Y-20843868D01*
X30285850Y-20856480D01*
X30263671Y-20866970D01*
X30240572Y-20875235D01*
X30216773Y-20881196D01*
X30192505Y-20884796D01*
X30168001Y-20886000D01*
X29267999Y-20886000D01*
X29243495Y-20884796D01*
X29219227Y-20881196D01*
X29195428Y-20875235D01*
X29172329Y-20866970D01*
X29150150Y-20856480D01*
X29129107Y-20843868D01*
X29109401Y-20829253D01*
X29091223Y-20812777D01*
X29074747Y-20794599D01*
X29060132Y-20774893D01*
X29047520Y-20753850D01*
X29037030Y-20731671D01*
X29028765Y-20708572D01*
X29022804Y-20684773D01*
X29019204Y-20660505D01*
X29018000Y-20636001D01*
X29018000Y-19985999D01*
X29019204Y-19961495D01*
X29022804Y-19937227D01*
X29028765Y-19913428D01*
X29037030Y-19890329D01*
X29047520Y-19868150D01*
X29060132Y-19847107D01*
X29074747Y-19827401D01*
X29091223Y-19809223D01*
X29109401Y-19792747D01*
X29129107Y-19778132D01*
X29150150Y-19765520D01*
X29172329Y-19755030D01*
X29195428Y-19746765D01*
X29219227Y-19740804D01*
X29243495Y-19737204D01*
X29267999Y-19736000D01*
X30168001Y-19736000D01*
X30192505Y-19737204D01*
X30192505Y-19737204D01*
G37*
D11*
G04 #@! TD*
G04 #@! TO.P,R5,2*
G04 #@! TO.N,/S1D3*
X29718000Y-20311000D03*
D10*
G04 #@! TO.N,VCC*
G04 #@! TO.C,R5*
G36*
X30192505Y-21787204D02*
X30216773Y-21790804D01*
X30240572Y-21796765D01*
X30263671Y-21805030D01*
X30285850Y-21815520D01*
X30306893Y-21828132D01*
X30326599Y-21842747D01*
X30344777Y-21859223D01*
X30361253Y-21877401D01*
X30375868Y-21897107D01*
X30388480Y-21918150D01*
X30398970Y-21940329D01*
X30407235Y-21963428D01*
X30413196Y-21987227D01*
X30416796Y-22011495D01*
X30418000Y-22035999D01*
X30418000Y-22686001D01*
X30416796Y-22710505D01*
X30413196Y-22734773D01*
X30407235Y-22758572D01*
X30398970Y-22781671D01*
X30388480Y-22803850D01*
X30375868Y-22824893D01*
X30361253Y-22844599D01*
X30344777Y-22862777D01*
X30326599Y-22879253D01*
X30306893Y-22893868D01*
X30285850Y-22906480D01*
X30263671Y-22916970D01*
X30240572Y-22925235D01*
X30216773Y-22931196D01*
X30192505Y-22934796D01*
X30168001Y-22936000D01*
X29267999Y-22936000D01*
X29243495Y-22934796D01*
X29219227Y-22931196D01*
X29195428Y-22925235D01*
X29172329Y-22916970D01*
X29150150Y-22906480D01*
X29129107Y-22893868D01*
X29109401Y-22879253D01*
X29091223Y-22862777D01*
X29074747Y-22844599D01*
X29060132Y-22824893D01*
X29047520Y-22803850D01*
X29037030Y-22781671D01*
X29028765Y-22758572D01*
X29022804Y-22734773D01*
X29019204Y-22710505D01*
X29018000Y-22686001D01*
X29018000Y-22035999D01*
X29019204Y-22011495D01*
X29022804Y-21987227D01*
X29028765Y-21963428D01*
X29037030Y-21940329D01*
X29047520Y-21918150D01*
X29060132Y-21897107D01*
X29074747Y-21877401D01*
X29091223Y-21859223D01*
X29109401Y-21842747D01*
X29129107Y-21828132D01*
X29150150Y-21815520D01*
X29172329Y-21805030D01*
X29195428Y-21796765D01*
X29219227Y-21790804D01*
X29243495Y-21787204D01*
X29267999Y-21786000D01*
X30168001Y-21786000D01*
X30192505Y-21787204D01*
X30192505Y-21787204D01*
G37*
D11*
G04 #@! TD*
G04 #@! TO.P,R5,1*
G04 #@! TO.N,VCC*
X29718000Y-22361000D03*
D10*
G04 #@! TO.N,/S1D2*
G04 #@! TO.C,R6*
G36*
X39082505Y-20753204D02*
X39106773Y-20756804D01*
X39130572Y-20762765D01*
X39153671Y-20771030D01*
X39175850Y-20781520D01*
X39196893Y-20794132D01*
X39216599Y-20808747D01*
X39234777Y-20825223D01*
X39251253Y-20843401D01*
X39265868Y-20863107D01*
X39278480Y-20884150D01*
X39288970Y-20906329D01*
X39297235Y-20929428D01*
X39303196Y-20953227D01*
X39306796Y-20977495D01*
X39308000Y-21001999D01*
X39308000Y-21652001D01*
X39306796Y-21676505D01*
X39303196Y-21700773D01*
X39297235Y-21724572D01*
X39288970Y-21747671D01*
X39278480Y-21769850D01*
X39265868Y-21790893D01*
X39251253Y-21810599D01*
X39234777Y-21828777D01*
X39216599Y-21845253D01*
X39196893Y-21859868D01*
X39175850Y-21872480D01*
X39153671Y-21882970D01*
X39130572Y-21891235D01*
X39106773Y-21897196D01*
X39082505Y-21900796D01*
X39058001Y-21902000D01*
X38157999Y-21902000D01*
X38133495Y-21900796D01*
X38109227Y-21897196D01*
X38085428Y-21891235D01*
X38062329Y-21882970D01*
X38040150Y-21872480D01*
X38019107Y-21859868D01*
X37999401Y-21845253D01*
X37981223Y-21828777D01*
X37964747Y-21810599D01*
X37950132Y-21790893D01*
X37937520Y-21769850D01*
X37927030Y-21747671D01*
X37918765Y-21724572D01*
X37912804Y-21700773D01*
X37909204Y-21676505D01*
X37908000Y-21652001D01*
X37908000Y-21001999D01*
X37909204Y-20977495D01*
X37912804Y-20953227D01*
X37918765Y-20929428D01*
X37927030Y-20906329D01*
X37937520Y-20884150D01*
X37950132Y-20863107D01*
X37964747Y-20843401D01*
X37981223Y-20825223D01*
X37999401Y-20808747D01*
X38019107Y-20794132D01*
X38040150Y-20781520D01*
X38062329Y-20771030D01*
X38085428Y-20762765D01*
X38109227Y-20756804D01*
X38133495Y-20753204D01*
X38157999Y-20752000D01*
X39058001Y-20752000D01*
X39082505Y-20753204D01*
X39082505Y-20753204D01*
G37*
D11*
G04 #@! TD*
G04 #@! TO.P,R6,2*
G04 #@! TO.N,/S1D2*
X38608000Y-21327000D03*
D10*
G04 #@! TO.N,VCC*
G04 #@! TO.C,R6*
G36*
X39082505Y-22803204D02*
X39106773Y-22806804D01*
X39130572Y-22812765D01*
X39153671Y-22821030D01*
X39175850Y-22831520D01*
X39196893Y-22844132D01*
X39216599Y-22858747D01*
X39234777Y-22875223D01*
X39251253Y-22893401D01*
X39265868Y-22913107D01*
X39278480Y-22934150D01*
X39288970Y-22956329D01*
X39297235Y-22979428D01*
X39303196Y-23003227D01*
X39306796Y-23027495D01*
X39308000Y-23051999D01*
X39308000Y-23702001D01*
X39306796Y-23726505D01*
X39303196Y-23750773D01*
X39297235Y-23774572D01*
X39288970Y-23797671D01*
X39278480Y-23819850D01*
X39265868Y-23840893D01*
X39251253Y-23860599D01*
X39234777Y-23878777D01*
X39216599Y-23895253D01*
X39196893Y-23909868D01*
X39175850Y-23922480D01*
X39153671Y-23932970D01*
X39130572Y-23941235D01*
X39106773Y-23947196D01*
X39082505Y-23950796D01*
X39058001Y-23952000D01*
X38157999Y-23952000D01*
X38133495Y-23950796D01*
X38109227Y-23947196D01*
X38085428Y-23941235D01*
X38062329Y-23932970D01*
X38040150Y-23922480D01*
X38019107Y-23909868D01*
X37999401Y-23895253D01*
X37981223Y-23878777D01*
X37964747Y-23860599D01*
X37950132Y-23840893D01*
X37937520Y-23819850D01*
X37927030Y-23797671D01*
X37918765Y-23774572D01*
X37912804Y-23750773D01*
X37909204Y-23726505D01*
X37908000Y-23702001D01*
X37908000Y-23051999D01*
X37909204Y-23027495D01*
X37912804Y-23003227D01*
X37918765Y-22979428D01*
X37927030Y-22956329D01*
X37937520Y-22934150D01*
X37950132Y-22913107D01*
X37964747Y-22893401D01*
X37981223Y-22875223D01*
X37999401Y-22858747D01*
X38019107Y-22844132D01*
X38040150Y-22831520D01*
X38062329Y-22821030D01*
X38085428Y-22812765D01*
X38109227Y-22806804D01*
X38133495Y-22803204D01*
X38157999Y-22802000D01*
X39058001Y-22802000D01*
X39082505Y-22803204D01*
X39082505Y-22803204D01*
G37*
D11*
G04 #@! TD*
G04 #@! TO.P,R6,1*
G04 #@! TO.N,VCC*
X38608000Y-23377000D03*
D10*
G04 #@! TO.N,VCC*
G04 #@! TO.C,R7*
G36*
X30954505Y-14675204D02*
X30978773Y-14678804D01*
X31002572Y-14684765D01*
X31025671Y-14693030D01*
X31047850Y-14703520D01*
X31068893Y-14716132D01*
X31088599Y-14730747D01*
X31106777Y-14747223D01*
X31123253Y-14765401D01*
X31137868Y-14785107D01*
X31150480Y-14806150D01*
X31160970Y-14828329D01*
X31169235Y-14851428D01*
X31175196Y-14875227D01*
X31178796Y-14899495D01*
X31180000Y-14923999D01*
X31180000Y-15574001D01*
X31178796Y-15598505D01*
X31175196Y-15622773D01*
X31169235Y-15646572D01*
X31160970Y-15669671D01*
X31150480Y-15691850D01*
X31137868Y-15712893D01*
X31123253Y-15732599D01*
X31106777Y-15750777D01*
X31088599Y-15767253D01*
X31068893Y-15781868D01*
X31047850Y-15794480D01*
X31025671Y-15804970D01*
X31002572Y-15813235D01*
X30978773Y-15819196D01*
X30954505Y-15822796D01*
X30930001Y-15824000D01*
X30029999Y-15824000D01*
X30005495Y-15822796D01*
X29981227Y-15819196D01*
X29957428Y-15813235D01*
X29934329Y-15804970D01*
X29912150Y-15794480D01*
X29891107Y-15781868D01*
X29871401Y-15767253D01*
X29853223Y-15750777D01*
X29836747Y-15732599D01*
X29822132Y-15712893D01*
X29809520Y-15691850D01*
X29799030Y-15669671D01*
X29790765Y-15646572D01*
X29784804Y-15622773D01*
X29781204Y-15598505D01*
X29780000Y-15574001D01*
X29780000Y-14923999D01*
X29781204Y-14899495D01*
X29784804Y-14875227D01*
X29790765Y-14851428D01*
X29799030Y-14828329D01*
X29809520Y-14806150D01*
X29822132Y-14785107D01*
X29836747Y-14765401D01*
X29853223Y-14747223D01*
X29871401Y-14730747D01*
X29891107Y-14716132D01*
X29912150Y-14703520D01*
X29934329Y-14693030D01*
X29957428Y-14684765D01*
X29981227Y-14678804D01*
X30005495Y-14675204D01*
X30029999Y-14674000D01*
X30930001Y-14674000D01*
X30954505Y-14675204D01*
X30954505Y-14675204D01*
G37*
D11*
G04 #@! TD*
G04 #@! TO.P,R7,1*
G04 #@! TO.N,VCC*
X30480000Y-15249000D03*
D10*
G04 #@! TO.N,/S1D1*
G04 #@! TO.C,R7*
G36*
X30954505Y-12625204D02*
X30978773Y-12628804D01*
X31002572Y-12634765D01*
X31025671Y-12643030D01*
X31047850Y-12653520D01*
X31068893Y-12666132D01*
X31088599Y-12680747D01*
X31106777Y-12697223D01*
X31123253Y-12715401D01*
X31137868Y-12735107D01*
X31150480Y-12756150D01*
X31160970Y-12778329D01*
X31169235Y-12801428D01*
X31175196Y-12825227D01*
X31178796Y-12849495D01*
X31180000Y-12873999D01*
X31180000Y-13524001D01*
X31178796Y-13548505D01*
X31175196Y-13572773D01*
X31169235Y-13596572D01*
X31160970Y-13619671D01*
X31150480Y-13641850D01*
X31137868Y-13662893D01*
X31123253Y-13682599D01*
X31106777Y-13700777D01*
X31088599Y-13717253D01*
X31068893Y-13731868D01*
X31047850Y-13744480D01*
X31025671Y-13754970D01*
X31002572Y-13763235D01*
X30978773Y-13769196D01*
X30954505Y-13772796D01*
X30930001Y-13774000D01*
X30029999Y-13774000D01*
X30005495Y-13772796D01*
X29981227Y-13769196D01*
X29957428Y-13763235D01*
X29934329Y-13754970D01*
X29912150Y-13744480D01*
X29891107Y-13731868D01*
X29871401Y-13717253D01*
X29853223Y-13700777D01*
X29836747Y-13682599D01*
X29822132Y-13662893D01*
X29809520Y-13641850D01*
X29799030Y-13619671D01*
X29790765Y-13596572D01*
X29784804Y-13572773D01*
X29781204Y-13548505D01*
X29780000Y-13524001D01*
X29780000Y-12873999D01*
X29781204Y-12849495D01*
X29784804Y-12825227D01*
X29790765Y-12801428D01*
X29799030Y-12778329D01*
X29809520Y-12756150D01*
X29822132Y-12735107D01*
X29836747Y-12715401D01*
X29853223Y-12697223D01*
X29871401Y-12680747D01*
X29891107Y-12666132D01*
X29912150Y-12653520D01*
X29934329Y-12643030D01*
X29957428Y-12634765D01*
X29981227Y-12628804D01*
X30005495Y-12625204D01*
X30029999Y-12624000D01*
X30930001Y-12624000D01*
X30954505Y-12625204D01*
X30954505Y-12625204D01*
G37*
D11*
G04 #@! TD*
G04 #@! TO.P,R7,2*
G04 #@! TO.N,/S1D1*
X30480000Y-13199000D03*
D10*
G04 #@! TO.N,VCC*
G04 #@! TO.C,R8*
G36*
X21048505Y-14675204D02*
X21072773Y-14678804D01*
X21096572Y-14684765D01*
X21119671Y-14693030D01*
X21141850Y-14703520D01*
X21162893Y-14716132D01*
X21182599Y-14730747D01*
X21200777Y-14747223D01*
X21217253Y-14765401D01*
X21231868Y-14785107D01*
X21244480Y-14806150D01*
X21254970Y-14828329D01*
X21263235Y-14851428D01*
X21269196Y-14875227D01*
X21272796Y-14899495D01*
X21274000Y-14923999D01*
X21274000Y-15574001D01*
X21272796Y-15598505D01*
X21269196Y-15622773D01*
X21263235Y-15646572D01*
X21254970Y-15669671D01*
X21244480Y-15691850D01*
X21231868Y-15712893D01*
X21217253Y-15732599D01*
X21200777Y-15750777D01*
X21182599Y-15767253D01*
X21162893Y-15781868D01*
X21141850Y-15794480D01*
X21119671Y-15804970D01*
X21096572Y-15813235D01*
X21072773Y-15819196D01*
X21048505Y-15822796D01*
X21024001Y-15824000D01*
X20123999Y-15824000D01*
X20099495Y-15822796D01*
X20075227Y-15819196D01*
X20051428Y-15813235D01*
X20028329Y-15804970D01*
X20006150Y-15794480D01*
X19985107Y-15781868D01*
X19965401Y-15767253D01*
X19947223Y-15750777D01*
X19930747Y-15732599D01*
X19916132Y-15712893D01*
X19903520Y-15691850D01*
X19893030Y-15669671D01*
X19884765Y-15646572D01*
X19878804Y-15622773D01*
X19875204Y-15598505D01*
X19874000Y-15574001D01*
X19874000Y-14923999D01*
X19875204Y-14899495D01*
X19878804Y-14875227D01*
X19884765Y-14851428D01*
X19893030Y-14828329D01*
X19903520Y-14806150D01*
X19916132Y-14785107D01*
X19930747Y-14765401D01*
X19947223Y-14747223D01*
X19965401Y-14730747D01*
X19985107Y-14716132D01*
X20006150Y-14703520D01*
X20028329Y-14693030D01*
X20051428Y-14684765D01*
X20075227Y-14678804D01*
X20099495Y-14675204D01*
X20123999Y-14674000D01*
X21024001Y-14674000D01*
X21048505Y-14675204D01*
X21048505Y-14675204D01*
G37*
D11*
G04 #@! TD*
G04 #@! TO.P,R8,1*
G04 #@! TO.N,VCC*
X20574000Y-15249000D03*
D10*
G04 #@! TO.N,/S1D0*
G04 #@! TO.C,R8*
G36*
X21048505Y-12625204D02*
X21072773Y-12628804D01*
X21096572Y-12634765D01*
X21119671Y-12643030D01*
X21141850Y-12653520D01*
X21162893Y-12666132D01*
X21182599Y-12680747D01*
X21200777Y-12697223D01*
X21217253Y-12715401D01*
X21231868Y-12735107D01*
X21244480Y-12756150D01*
X21254970Y-12778329D01*
X21263235Y-12801428D01*
X21269196Y-12825227D01*
X21272796Y-12849495D01*
X21274000Y-12873999D01*
X21274000Y-13524001D01*
X21272796Y-13548505D01*
X21269196Y-13572773D01*
X21263235Y-13596572D01*
X21254970Y-13619671D01*
X21244480Y-13641850D01*
X21231868Y-13662893D01*
X21217253Y-13682599D01*
X21200777Y-13700777D01*
X21182599Y-13717253D01*
X21162893Y-13731868D01*
X21141850Y-13744480D01*
X21119671Y-13754970D01*
X21096572Y-13763235D01*
X21072773Y-13769196D01*
X21048505Y-13772796D01*
X21024001Y-13774000D01*
X20123999Y-13774000D01*
X20099495Y-13772796D01*
X20075227Y-13769196D01*
X20051428Y-13763235D01*
X20028329Y-13754970D01*
X20006150Y-13744480D01*
X19985107Y-13731868D01*
X19965401Y-13717253D01*
X19947223Y-13700777D01*
X19930747Y-13682599D01*
X19916132Y-13662893D01*
X19903520Y-13641850D01*
X19893030Y-13619671D01*
X19884765Y-13596572D01*
X19878804Y-13572773D01*
X19875204Y-13548505D01*
X19874000Y-13524001D01*
X19874000Y-12873999D01*
X19875204Y-12849495D01*
X19878804Y-12825227D01*
X19884765Y-12801428D01*
X19893030Y-12778329D01*
X19903520Y-12756150D01*
X19916132Y-12735107D01*
X19930747Y-12715401D01*
X19947223Y-12697223D01*
X19965401Y-12680747D01*
X19985107Y-12666132D01*
X20006150Y-12653520D01*
X20028329Y-12643030D01*
X20051428Y-12634765D01*
X20075227Y-12628804D01*
X20099495Y-12625204D01*
X20123999Y-12624000D01*
X21024001Y-12624000D01*
X21048505Y-12625204D01*
X21048505Y-12625204D01*
G37*
D11*
G04 #@! TD*
G04 #@! TO.P,R8,2*
G04 #@! TO.N,/S1D0*
X20574000Y-13199000D03*
D12*
G04 #@! TO.P,SW1,2*
G04 #@! TO.N,/S1D7*
X18470000Y-35560000D03*
G04 #@! TO.P,SW1,1*
G04 #@! TO.N,GND*
X13970000Y-35560000D03*
G04 #@! TO.P,SW1,2*
G04 #@! TO.N,/S1D7*
X18470000Y-29060000D03*
G04 #@! TO.P,SW1,1*
G04 #@! TO.N,GND*
X13970000Y-29060000D03*
G04 #@! TD*
G04 #@! TO.P,SW2,1*
G04 #@! TO.N,GND*
X22860000Y-29060000D03*
G04 #@! TO.P,SW2,2*
G04 #@! TO.N,/S1D6*
X27360000Y-29060000D03*
G04 #@! TO.P,SW2,1*
G04 #@! TO.N,GND*
X22860000Y-35560000D03*
G04 #@! TO.P,SW2,2*
G04 #@! TO.N,/S1D6*
X27360000Y-35560000D03*
G04 #@! TD*
G04 #@! TO.P,SW3,2*
G04 #@! TO.N,/S1D5*
X36250000Y-35560000D03*
G04 #@! TO.P,SW3,1*
G04 #@! TO.N,GND*
X31750000Y-35560000D03*
G04 #@! TO.P,SW3,2*
G04 #@! TO.N,/S1D5*
X36250000Y-29060000D03*
G04 #@! TO.P,SW3,1*
G04 #@! TO.N,GND*
X31750000Y-29060000D03*
G04 #@! TD*
G04 #@! TO.P,SW4,1*
G04 #@! TO.N,GND*
X22860000Y-39220000D03*
G04 #@! TO.P,SW4,2*
G04 #@! TO.N,/S1D4*
X27360000Y-39220000D03*
G04 #@! TO.P,SW4,1*
G04 #@! TO.N,GND*
X22860000Y-45720000D03*
G04 #@! TO.P,SW4,2*
G04 #@! TO.N,/S1D4*
X27360000Y-45720000D03*
G04 #@! TD*
G04 #@! TO.P,SW5,2*
G04 #@! TO.N,/S1D3*
X27360000Y-25400000D03*
G04 #@! TO.P,SW5,1*
G04 #@! TO.N,GND*
X22860000Y-25400000D03*
G04 #@! TO.P,SW5,2*
G04 #@! TO.N,/S1D3*
X27360000Y-18900000D03*
G04 #@! TO.P,SW5,1*
G04 #@! TO.N,GND*
X22860000Y-18900000D03*
G04 #@! TD*
G04 #@! TO.P,SW6,1*
G04 #@! TO.N,GND*
X45212000Y-25296000D03*
G04 #@! TO.P,SW6,2*
G04 #@! TO.N,/S1D2*
X40712000Y-25296000D03*
G04 #@! TO.P,SW6,1*
G04 #@! TO.N,GND*
X45212000Y-18796000D03*
G04 #@! TO.P,SW6,2*
G04 #@! TO.N,/S1D2*
X40712000Y-18796000D03*
G04 #@! TD*
G04 #@! TO.P,SW7,2*
G04 #@! TO.N,/S1D1*
X31822000Y-10668000D03*
G04 #@! TO.P,SW7,1*
G04 #@! TO.N,GND*
X36322000Y-10668000D03*
G04 #@! TO.P,SW7,2*
G04 #@! TO.N,/S1D1*
X31822000Y-17168000D03*
G04 #@! TO.P,SW7,1*
G04 #@! TO.N,GND*
X36322000Y-17168000D03*
G04 #@! TD*
G04 #@! TO.P,SW8,1*
G04 #@! TO.N,GND*
X13970000Y-10772000D03*
G04 #@! TO.P,SW8,2*
G04 #@! TO.N,/S1D0*
X18470000Y-10772000D03*
G04 #@! TO.P,SW8,1*
G04 #@! TO.N,GND*
X13970000Y-17272000D03*
G04 #@! TO.P,SW8,2*
G04 #@! TO.N,/S1D0*
X18470000Y-17272000D03*
G04 #@! TD*
D13*
G04 #@! TO.P,J1,1*
G04 #@! TO.N,VCC*
X20320000Y-7620000D03*
D14*
G04 #@! TO.P,J1,2*
X20320000Y-5080000D03*
G04 #@! TO.P,J1,3*
G04 #@! TO.N,/S1D7*
X22860000Y-7620000D03*
G04 #@! TO.P,J1,4*
G04 #@! TO.N,/S1D6*
X22860000Y-5080000D03*
G04 #@! TO.P,J1,5*
G04 #@! TO.N,/S1D5*
X25400000Y-7620000D03*
G04 #@! TO.P,J1,6*
G04 #@! TO.N,/S1D4*
X25400000Y-5080000D03*
G04 #@! TO.P,J1,7*
G04 #@! TO.N,/S1D3*
X27940000Y-7620000D03*
G04 #@! TO.P,J1,8*
G04 #@! TO.N,/S1D2*
X27940000Y-5080000D03*
G04 #@! TO.P,J1,9*
G04 #@! TO.N,/S1D1*
X30480000Y-7620000D03*
G04 #@! TO.P,J1,10*
G04 #@! TO.N,/S1D0*
X30480000Y-5080000D03*
G04 #@! TO.P,J1,11*
G04 #@! TO.N,GND*
X33020000Y-7620000D03*
G04 #@! TO.P,J1,12*
X33020000Y-5080000D03*
G04 #@! TD*
D10*
G04 #@! TO.N,/S1D5*
G04 #@! TO.C,R3*
G36*
X38828505Y-29897204D02*
X38852773Y-29900804D01*
X38876572Y-29906765D01*
X38899671Y-29915030D01*
X38921850Y-29925520D01*
X38942893Y-29938132D01*
X38962599Y-29952747D01*
X38980777Y-29969223D01*
X38997253Y-29987401D01*
X39011868Y-30007107D01*
X39024480Y-30028150D01*
X39034970Y-30050329D01*
X39043235Y-30073428D01*
X39049196Y-30097227D01*
X39052796Y-30121495D01*
X39054000Y-30145999D01*
X39054000Y-30796001D01*
X39052796Y-30820505D01*
X39049196Y-30844773D01*
X39043235Y-30868572D01*
X39034970Y-30891671D01*
X39024480Y-30913850D01*
X39011868Y-30934893D01*
X38997253Y-30954599D01*
X38980777Y-30972777D01*
X38962599Y-30989253D01*
X38942893Y-31003868D01*
X38921850Y-31016480D01*
X38899671Y-31026970D01*
X38876572Y-31035235D01*
X38852773Y-31041196D01*
X38828505Y-31044796D01*
X38804001Y-31046000D01*
X37903999Y-31046000D01*
X37879495Y-31044796D01*
X37855227Y-31041196D01*
X37831428Y-31035235D01*
X37808329Y-31026970D01*
X37786150Y-31016480D01*
X37765107Y-31003868D01*
X37745401Y-30989253D01*
X37727223Y-30972777D01*
X37710747Y-30954599D01*
X37696132Y-30934893D01*
X37683520Y-30913850D01*
X37673030Y-30891671D01*
X37664765Y-30868572D01*
X37658804Y-30844773D01*
X37655204Y-30820505D01*
X37654000Y-30796001D01*
X37654000Y-30145999D01*
X37655204Y-30121495D01*
X37658804Y-30097227D01*
X37664765Y-30073428D01*
X37673030Y-30050329D01*
X37683520Y-30028150D01*
X37696132Y-30007107D01*
X37710747Y-29987401D01*
X37727223Y-29969223D01*
X37745401Y-29952747D01*
X37765107Y-29938132D01*
X37786150Y-29925520D01*
X37808329Y-29915030D01*
X37831428Y-29906765D01*
X37855227Y-29900804D01*
X37879495Y-29897204D01*
X37903999Y-29896000D01*
X38804001Y-29896000D01*
X38828505Y-29897204D01*
X38828505Y-29897204D01*
G37*
D11*
G04 #@! TD*
G04 #@! TO.P,R3,2*
G04 #@! TO.N,/S1D5*
X38354000Y-30471000D03*
D10*
G04 #@! TO.N,VCC*
G04 #@! TO.C,R3*
G36*
X38828505Y-31947204D02*
X38852773Y-31950804D01*
X38876572Y-31956765D01*
X38899671Y-31965030D01*
X38921850Y-31975520D01*
X38942893Y-31988132D01*
X38962599Y-32002747D01*
X38980777Y-32019223D01*
X38997253Y-32037401D01*
X39011868Y-32057107D01*
X39024480Y-32078150D01*
X39034970Y-32100329D01*
X39043235Y-32123428D01*
X39049196Y-32147227D01*
X39052796Y-32171495D01*
X39054000Y-32195999D01*
X39054000Y-32846001D01*
X39052796Y-32870505D01*
X39049196Y-32894773D01*
X39043235Y-32918572D01*
X39034970Y-32941671D01*
X39024480Y-32963850D01*
X39011868Y-32984893D01*
X38997253Y-33004599D01*
X38980777Y-33022777D01*
X38962599Y-33039253D01*
X38942893Y-33053868D01*
X38921850Y-33066480D01*
X38899671Y-33076970D01*
X38876572Y-33085235D01*
X38852773Y-33091196D01*
X38828505Y-33094796D01*
X38804001Y-33096000D01*
X37903999Y-33096000D01*
X37879495Y-33094796D01*
X37855227Y-33091196D01*
X37831428Y-33085235D01*
X37808329Y-33076970D01*
X37786150Y-33066480D01*
X37765107Y-33053868D01*
X37745401Y-33039253D01*
X37727223Y-33022777D01*
X37710747Y-33004599D01*
X37696132Y-32984893D01*
X37683520Y-32963850D01*
X37673030Y-32941671D01*
X37664765Y-32918572D01*
X37658804Y-32894773D01*
X37655204Y-32870505D01*
X37654000Y-32846001D01*
X37654000Y-32195999D01*
X37655204Y-32171495D01*
X37658804Y-32147227D01*
X37664765Y-32123428D01*
X37673030Y-32100329D01*
X37683520Y-32078150D01*
X37696132Y-32057107D01*
X37710747Y-32037401D01*
X37727223Y-32019223D01*
X37745401Y-32002747D01*
X37765107Y-31988132D01*
X37786150Y-31975520D01*
X37808329Y-31965030D01*
X37831428Y-31956765D01*
X37855227Y-31950804D01*
X37879495Y-31947204D01*
X37903999Y-31946000D01*
X38804001Y-31946000D01*
X38828505Y-31947204D01*
X38828505Y-31947204D01*
G37*
D11*
G04 #@! TD*
G04 #@! TO.P,R3,1*
G04 #@! TO.N,VCC*
X38354000Y-32521000D03*
D10*
G04 #@! TO.N,VCC*
G04 #@! TO.C,R4*
G36*
X29938505Y-43377204D02*
X29962773Y-43380804D01*
X29986572Y-43386765D01*
X30009671Y-43395030D01*
X30031850Y-43405520D01*
X30052893Y-43418132D01*
X30072599Y-43432747D01*
X30090777Y-43449223D01*
X30107253Y-43467401D01*
X30121868Y-43487107D01*
X30134480Y-43508150D01*
X30144970Y-43530329D01*
X30153235Y-43553428D01*
X30159196Y-43577227D01*
X30162796Y-43601495D01*
X30164000Y-43625999D01*
X30164000Y-44276001D01*
X30162796Y-44300505D01*
X30159196Y-44324773D01*
X30153235Y-44348572D01*
X30144970Y-44371671D01*
X30134480Y-44393850D01*
X30121868Y-44414893D01*
X30107253Y-44434599D01*
X30090777Y-44452777D01*
X30072599Y-44469253D01*
X30052893Y-44483868D01*
X30031850Y-44496480D01*
X30009671Y-44506970D01*
X29986572Y-44515235D01*
X29962773Y-44521196D01*
X29938505Y-44524796D01*
X29914001Y-44526000D01*
X29013999Y-44526000D01*
X28989495Y-44524796D01*
X28965227Y-44521196D01*
X28941428Y-44515235D01*
X28918329Y-44506970D01*
X28896150Y-44496480D01*
X28875107Y-44483868D01*
X28855401Y-44469253D01*
X28837223Y-44452777D01*
X28820747Y-44434599D01*
X28806132Y-44414893D01*
X28793520Y-44393850D01*
X28783030Y-44371671D01*
X28774765Y-44348572D01*
X28768804Y-44324773D01*
X28765204Y-44300505D01*
X28764000Y-44276001D01*
X28764000Y-43625999D01*
X28765204Y-43601495D01*
X28768804Y-43577227D01*
X28774765Y-43553428D01*
X28783030Y-43530329D01*
X28793520Y-43508150D01*
X28806132Y-43487107D01*
X28820747Y-43467401D01*
X28837223Y-43449223D01*
X28855401Y-43432747D01*
X28875107Y-43418132D01*
X28896150Y-43405520D01*
X28918329Y-43395030D01*
X28941428Y-43386765D01*
X28965227Y-43380804D01*
X28989495Y-43377204D01*
X29013999Y-43376000D01*
X29914001Y-43376000D01*
X29938505Y-43377204D01*
X29938505Y-43377204D01*
G37*
D11*
G04 #@! TD*
G04 #@! TO.P,R4,1*
G04 #@! TO.N,VCC*
X29464000Y-43951000D03*
D10*
G04 #@! TO.N,/S1D4*
G04 #@! TO.C,R4*
G36*
X29938505Y-41327204D02*
X29962773Y-41330804D01*
X29986572Y-41336765D01*
X30009671Y-41345030D01*
X30031850Y-41355520D01*
X30052893Y-41368132D01*
X30072599Y-41382747D01*
X30090777Y-41399223D01*
X30107253Y-41417401D01*
X30121868Y-41437107D01*
X30134480Y-41458150D01*
X30144970Y-41480329D01*
X30153235Y-41503428D01*
X30159196Y-41527227D01*
X30162796Y-41551495D01*
X30164000Y-41575999D01*
X30164000Y-42226001D01*
X30162796Y-42250505D01*
X30159196Y-42274773D01*
X30153235Y-42298572D01*
X30144970Y-42321671D01*
X30134480Y-42343850D01*
X30121868Y-42364893D01*
X30107253Y-42384599D01*
X30090777Y-42402777D01*
X30072599Y-42419253D01*
X30052893Y-42433868D01*
X30031850Y-42446480D01*
X30009671Y-42456970D01*
X29986572Y-42465235D01*
X29962773Y-42471196D01*
X29938505Y-42474796D01*
X29914001Y-42476000D01*
X29013999Y-42476000D01*
X28989495Y-42474796D01*
X28965227Y-42471196D01*
X28941428Y-42465235D01*
X28918329Y-42456970D01*
X28896150Y-42446480D01*
X28875107Y-42433868D01*
X28855401Y-42419253D01*
X28837223Y-42402777D01*
X28820747Y-42384599D01*
X28806132Y-42364893D01*
X28793520Y-42343850D01*
X28783030Y-42321671D01*
X28774765Y-42298572D01*
X28768804Y-42274773D01*
X28765204Y-42250505D01*
X28764000Y-42226001D01*
X28764000Y-41575999D01*
X28765204Y-41551495D01*
X28768804Y-41527227D01*
X28774765Y-41503428D01*
X28783030Y-41480329D01*
X28793520Y-41458150D01*
X28806132Y-41437107D01*
X28820747Y-41417401D01*
X28837223Y-41399223D01*
X28855401Y-41382747D01*
X28875107Y-41368132D01*
X28896150Y-41355520D01*
X28918329Y-41345030D01*
X28941428Y-41336765D01*
X28965227Y-41330804D01*
X28989495Y-41327204D01*
X29013999Y-41326000D01*
X29914001Y-41326000D01*
X29938505Y-41327204D01*
X29938505Y-41327204D01*
G37*
D11*
G04 #@! TD*
G04 #@! TO.P,R4,2*
G04 #@! TO.N,/S1D4*
X29464000Y-41901000D03*
D15*
G04 #@! TO.P,BD-49X49,4*
G04 #@! TO.N,N/C*
X45000000Y-45000000D03*
G04 #@! TO.P,BD-49X49,3*
X4000000Y-45000000D03*
G04 #@! TO.P,BD-49X49,2*
X45000000Y-4000000D03*
G04 #@! TO.P,BD-49X49,1*
X4000000Y-4000000D03*
G04 #@! TD*
D16*
G04 #@! TO.N,/S1D5*
X28194000Y-15240000D03*
X25400000Y-15240000D03*
X36250000Y-23414330D03*
G04 #@! TO.N,/S1D2*
X28702000Y-9906000D03*
G04 #@! TO.N,/S1D0*
X28194000Y-12700000D03*
G04 #@! TD*
D17*
G04 #@! TO.N,/S1D7*
X18470000Y-34145787D02*
X18470000Y-29060000D01*
X18470000Y-35560000D02*
X18470000Y-34145787D01*
X19163000Y-29060000D02*
X18470000Y-29060000D01*
X20574000Y-30471000D02*
X19163000Y-29060000D01*
X18470000Y-27645787D02*
X18542000Y-27573787D01*
X18470000Y-29060000D02*
X18470000Y-27645787D01*
X18542000Y-27573787D02*
X18542000Y-20066000D01*
X22860000Y-15748000D02*
X22860000Y-15240000D01*
X18542000Y-20066000D02*
X22860000Y-15748000D01*
X22860000Y-15240000D02*
X22860000Y-7620000D01*
D18*
G04 #@! TO.N,/S1D6*
X27360000Y-30474213D02*
X27360000Y-35560000D01*
X27360000Y-29060000D02*
X27360000Y-30474213D01*
X22860000Y-5080000D02*
X23938601Y-6158601D01*
D17*
X27360000Y-29060000D02*
X27360000Y-35560000D01*
X28044000Y-29060000D02*
X27360000Y-29060000D01*
X29464000Y-30480000D02*
X28044000Y-29060000D01*
X27360000Y-28188750D02*
X24638000Y-25466750D01*
X27360000Y-29060000D02*
X27360000Y-28188750D01*
X24638000Y-25466750D02*
X24638000Y-20361399D01*
D19*
X23938601Y-9144000D02*
X23938601Y-17376000D01*
D18*
X23938601Y-6158601D02*
X23938601Y-9144000D01*
D19*
X24638000Y-18075399D02*
X23938601Y-17376000D01*
X24638000Y-20361399D02*
X24638000Y-18075399D01*
D17*
G04 #@! TO.N,/S1D5*
X25400000Y-15240000D02*
X25400000Y-7620000D01*
X36250000Y-30474213D02*
X36250000Y-35560000D01*
X36250000Y-29060000D02*
X36250000Y-30474213D01*
X36250000Y-23414330D02*
X36250000Y-29060000D01*
X36943000Y-29060000D02*
X36250000Y-29060000D01*
X38354000Y-30471000D02*
X36943000Y-29060000D01*
G04 #@! TO.N,/S1D4*
X27360000Y-44305787D02*
X27360000Y-39220000D01*
X27360000Y-45720000D02*
X27360000Y-44305787D01*
X27360000Y-39797000D02*
X27360000Y-39220000D01*
X29464000Y-41901000D02*
X27360000Y-39797000D01*
X28359999Y-37680001D02*
X29718000Y-36322000D01*
X28359999Y-38220001D02*
X28359999Y-37680001D01*
X27360000Y-39220000D02*
X28359999Y-38220001D01*
D18*
X29718000Y-35052000D02*
X29718000Y-36322000D01*
D17*
X25400000Y-25654000D02*
X25400000Y-25146000D01*
X30988000Y-33782000D02*
X30988000Y-30226000D01*
X30988000Y-30226000D02*
X28329670Y-27567670D01*
X28329670Y-27567670D02*
X27313670Y-27567670D01*
X29718000Y-35052000D02*
X30988000Y-33782000D01*
X27313670Y-27567670D02*
X25400000Y-25654000D01*
X25400000Y-25146000D02*
X25400000Y-18152333D01*
D18*
X25400000Y-5080000D02*
X24550001Y-5929999D01*
X24550001Y-5929999D02*
X24550001Y-6691999D01*
X24550001Y-6691999D02*
X24243411Y-6998589D01*
X24243411Y-6998589D02*
X24243411Y-8749411D01*
X24243411Y-8749411D02*
X24638000Y-9144000D01*
D19*
X25400000Y-18152333D02*
X24638000Y-17390333D01*
X24638000Y-17390333D02*
X24638000Y-9144000D01*
D18*
G04 #@! TO.N,/S1D3*
X28771000Y-20311000D02*
X27360000Y-18900000D01*
X29718000Y-20311000D02*
X28771000Y-20311000D01*
D17*
X27360000Y-20314213D02*
X27360000Y-25400000D01*
X27360000Y-18900000D02*
X27360000Y-20314213D01*
X27940000Y-9072000D02*
X27360000Y-9652000D01*
X27940000Y-7620000D02*
X27940000Y-9072000D01*
X27360000Y-18900000D02*
X27360000Y-9652000D01*
D18*
G04 #@! TO.N,/S1D2*
X40712000Y-23881787D02*
X40712000Y-18796000D01*
X40712000Y-25296000D02*
X40712000Y-23881787D01*
X40712000Y-19223000D02*
X40712000Y-18796000D01*
X38608000Y-21327000D02*
X40712000Y-19223000D01*
X29018601Y-9589399D02*
X28702000Y-9906000D01*
X27940000Y-5080000D02*
X29018601Y-6158601D01*
X29018601Y-6158601D02*
X29018601Y-9589399D01*
D17*
G04 #@! TO.N,/S1D1*
X30480000Y-9326000D02*
X31822000Y-10668000D01*
X30480000Y-7620000D02*
X30480000Y-9326000D01*
X30480000Y-12010000D02*
X31822000Y-10668000D01*
X30480000Y-13199000D02*
X30480000Y-12010000D01*
X31822000Y-10668000D02*
X31822000Y-17168000D01*
D18*
G04 #@! TO.N,/S1D0*
X18470000Y-15857787D02*
X18470000Y-10772000D01*
X18470000Y-17272000D02*
X18470000Y-15857787D01*
X18470000Y-11095000D02*
X18470000Y-10772000D01*
X20574000Y-13199000D02*
X18470000Y-11095000D01*
X29401399Y-11492601D02*
X28194000Y-12700000D01*
X30480000Y-5080000D02*
X29401399Y-6158601D01*
X29401399Y-6158601D02*
X29401399Y-11492601D01*
G04 #@! TD*
D17*
G04 #@! TO.N,VCC*
G36*
X45476394Y-444000D02*
X44292668Y-444000D01*
X42985688Y-985369D01*
X41985369Y-1985688D01*
X41444000Y-3292668D01*
X41444000Y-4707332D01*
X41985369Y-6014312D01*
X42985688Y-7014631D01*
X44292668Y-7556000D01*
X45707332Y-7556000D01*
X47014312Y-7014631D01*
X48014631Y-6014312D01*
X48556000Y-4707332D01*
X48556000Y-3523606D01*
X48895000Y-3862606D01*
X48895000Y-45156979D01*
X48556000Y-45474792D01*
X48556000Y-44292668D01*
X48014631Y-42985688D01*
X47014312Y-41985369D01*
X45707332Y-41444000D01*
X44292668Y-41444000D01*
X42985688Y-41985369D01*
X41985369Y-42985688D01*
X41444000Y-44292668D01*
X41444000Y-45707332D01*
X41985369Y-47014312D01*
X42985688Y-48014631D01*
X44292668Y-48556000D01*
X45269378Y-48556000D01*
X44907778Y-48895000D01*
X4376729Y-48895000D01*
X4088579Y-48556000D01*
X4707332Y-48556000D01*
X6014312Y-48014631D01*
X7014631Y-47014312D01*
X7556000Y-45707332D01*
X7556000Y-45445302D01*
X21479000Y-45445302D01*
X21479000Y-45994698D01*
X21689245Y-46502273D01*
X22077727Y-46890755D01*
X22585302Y-47101000D01*
X23134698Y-47101000D01*
X23642273Y-46890755D01*
X24030755Y-46502273D01*
X24241000Y-45994698D01*
X24241000Y-45445302D01*
X24030755Y-44937727D01*
X23642273Y-44549245D01*
X23134698Y-44339000D01*
X22585302Y-44339000D01*
X22077727Y-44549245D01*
X21689245Y-44937727D01*
X21479000Y-45445302D01*
X7556000Y-45445302D01*
X7556000Y-44292668D01*
X7014631Y-42985688D01*
X6014312Y-41985369D01*
X4707332Y-41444000D01*
X3292668Y-41444000D01*
X1985688Y-41985369D01*
X985369Y-42985688D01*
X450798Y-44276257D01*
X127000Y-43895318D01*
X127000Y-38945302D01*
X21479000Y-38945302D01*
X21479000Y-39494698D01*
X21689245Y-40002273D01*
X22077727Y-40390755D01*
X22585302Y-40601000D01*
X23134698Y-40601000D01*
X23642273Y-40390755D01*
X24030755Y-40002273D01*
X24241000Y-39494698D01*
X24241000Y-38945302D01*
X24030755Y-38437727D01*
X23642273Y-38049245D01*
X23134698Y-37839000D01*
X22585302Y-37839000D01*
X22077727Y-38049245D01*
X21689245Y-38437727D01*
X21479000Y-38945302D01*
X127000Y-38945302D01*
X127000Y-35285302D01*
X12589000Y-35285302D01*
X12589000Y-35834698D01*
X12799245Y-36342273D01*
X13187727Y-36730755D01*
X13695302Y-36941000D01*
X14244698Y-36941000D01*
X14752273Y-36730755D01*
X15140755Y-36342273D01*
X15351000Y-35834698D01*
X15351000Y-35285302D01*
X15140755Y-34777727D01*
X14752273Y-34389245D01*
X14244698Y-34179000D01*
X13695302Y-34179000D01*
X13187727Y-34389245D01*
X12799245Y-34777727D01*
X12589000Y-35285302D01*
X127000Y-35285302D01*
X127000Y-28785302D01*
X12589000Y-28785302D01*
X12589000Y-29334698D01*
X12799245Y-29842273D01*
X13187727Y-30230755D01*
X13695302Y-30441000D01*
X14244698Y-30441000D01*
X14752273Y-30230755D01*
X15140755Y-29842273D01*
X15351000Y-29334698D01*
X15351000Y-28785302D01*
X17089000Y-28785302D01*
X17089000Y-29334698D01*
X17299245Y-29842273D01*
X17687727Y-30230755D01*
X17962001Y-30344363D01*
X17962000Y-34195818D01*
X17962001Y-34195823D01*
X17962001Y-34275637D01*
X17687727Y-34389245D01*
X17299245Y-34777727D01*
X17089000Y-35285302D01*
X17089000Y-35834698D01*
X17299245Y-36342273D01*
X17687727Y-36730755D01*
X18195302Y-36941000D01*
X18744698Y-36941000D01*
X19252273Y-36730755D01*
X19640755Y-36342273D01*
X19851000Y-35834698D01*
X19851000Y-35285302D01*
X21479000Y-35285302D01*
X21479000Y-35834698D01*
X21689245Y-36342273D01*
X22077727Y-36730755D01*
X22585302Y-36941000D01*
X23134698Y-36941000D01*
X23642273Y-36730755D01*
X24030755Y-36342273D01*
X24241000Y-35834698D01*
X24241000Y-35285302D01*
X24030755Y-34777727D01*
X23642273Y-34389245D01*
X23134698Y-34179000D01*
X22585302Y-34179000D01*
X22077727Y-34389245D01*
X21689245Y-34777727D01*
X21479000Y-35285302D01*
X19851000Y-35285302D01*
X19640755Y-34777727D01*
X19252273Y-34389245D01*
X18978000Y-34275637D01*
X18978000Y-32806750D01*
X19239000Y-32806750D01*
X19239000Y-33222309D01*
X19335673Y-33455698D01*
X19514301Y-33634327D01*
X19747690Y-33731000D01*
X20288250Y-33731000D01*
X20447000Y-33572250D01*
X20447000Y-32648000D01*
X20701000Y-32648000D01*
X20701000Y-33572250D01*
X20859750Y-33731000D01*
X21400310Y-33731000D01*
X21633699Y-33634327D01*
X21812327Y-33455698D01*
X21909000Y-33222309D01*
X21909000Y-32806750D01*
X21750250Y-32648000D01*
X20701000Y-32648000D01*
X20447000Y-32648000D01*
X19397750Y-32648000D01*
X19239000Y-32806750D01*
X18978000Y-32806750D01*
X18978000Y-30344363D01*
X19252273Y-30230755D01*
X19433804Y-30049224D01*
X19493009Y-30108429D01*
X19485536Y-30145999D01*
X19485536Y-30796001D01*
X19534136Y-31040330D01*
X19672537Y-31247463D01*
X19767627Y-31311000D01*
X19747690Y-31311000D01*
X19514301Y-31407673D01*
X19335673Y-31586302D01*
X19239000Y-31819691D01*
X19239000Y-32235250D01*
X19397750Y-32394000D01*
X20447000Y-32394000D01*
X20447000Y-32374000D01*
X20701000Y-32374000D01*
X20701000Y-32394000D01*
X21750250Y-32394000D01*
X21909000Y-32235250D01*
X21909000Y-31819691D01*
X21812327Y-31586302D01*
X21633699Y-31407673D01*
X21400310Y-31311000D01*
X21380373Y-31311000D01*
X21475463Y-31247463D01*
X21613864Y-31040330D01*
X21662464Y-30796001D01*
X21662464Y-30145999D01*
X21613864Y-29901670D01*
X21475463Y-29694537D01*
X21268330Y-29556136D01*
X21024001Y-29507536D01*
X20328956Y-29507536D01*
X19851000Y-29029580D01*
X19851000Y-28785302D01*
X21479000Y-28785302D01*
X21479000Y-29334698D01*
X21689245Y-29842273D01*
X22077727Y-30230755D01*
X22585302Y-30441000D01*
X23134698Y-30441000D01*
X23642273Y-30230755D01*
X24030755Y-29842273D01*
X24241000Y-29334698D01*
X24241000Y-28785302D01*
X24030755Y-28277727D01*
X23642273Y-27889245D01*
X23134698Y-27679000D01*
X22585302Y-27679000D01*
X22077727Y-27889245D01*
X21689245Y-28277727D01*
X21479000Y-28785302D01*
X19851000Y-28785302D01*
X19640755Y-28277727D01*
X19252273Y-27889245D01*
X19009403Y-27788645D01*
X19020525Y-27771999D01*
X19050000Y-27623819D01*
X19050000Y-27623816D01*
X19059951Y-27573788D01*
X19050000Y-27523760D01*
X19050000Y-20276420D01*
X23183836Y-16142585D01*
X23226247Y-16114247D01*
X23254586Y-16071835D01*
X23254588Y-16071833D01*
X23338525Y-15946212D01*
X23349507Y-15891000D01*
X23368000Y-15798032D01*
X23368000Y-15798029D01*
X23377951Y-15748001D01*
X23368000Y-15697973D01*
X23368000Y-8761075D01*
X23481402Y-8685303D01*
X23481402Y-8968772D01*
X23456001Y-9096472D01*
X23456002Y-17328467D01*
X23446547Y-17376000D01*
X23484003Y-17564301D01*
X23575824Y-17701721D01*
X23134698Y-17519000D01*
X22585302Y-17519000D01*
X22077727Y-17729245D01*
X21689245Y-18117727D01*
X21479000Y-18625302D01*
X21479000Y-19174698D01*
X21689245Y-19682273D01*
X22077727Y-20070755D01*
X22585302Y-20281000D01*
X23134698Y-20281000D01*
X23642273Y-20070755D01*
X24030755Y-19682273D01*
X24155400Y-19381353D01*
X24155400Y-20183678D01*
X24130001Y-20311367D01*
X24130000Y-24857325D01*
X24030755Y-24617727D01*
X23642273Y-24229245D01*
X23134698Y-24019000D01*
X22585302Y-24019000D01*
X22077727Y-24229245D01*
X21689245Y-24617727D01*
X21479000Y-25125302D01*
X21479000Y-25674698D01*
X21689245Y-26182273D01*
X22077727Y-26570755D01*
X22585302Y-26781000D01*
X23134698Y-26781000D01*
X23642273Y-26570755D01*
X24030755Y-26182273D01*
X24212291Y-25744006D01*
X24271753Y-25832997D01*
X24314168Y-25861338D01*
X26459901Y-28007071D01*
X26189245Y-28277727D01*
X25979000Y-28785302D01*
X25979000Y-29334698D01*
X26189245Y-29842273D01*
X26577727Y-30230755D01*
X26852000Y-30344363D01*
X26852001Y-34275637D01*
X26577727Y-34389245D01*
X26189245Y-34777727D01*
X25979000Y-35285302D01*
X25979000Y-35834698D01*
X26189245Y-36342273D01*
X26577727Y-36730755D01*
X27085302Y-36941000D01*
X27634698Y-36941000D01*
X28142273Y-36730755D01*
X28530755Y-36342273D01*
X28741000Y-35834698D01*
X28741000Y-35285302D01*
X28530755Y-34777727D01*
X28142273Y-34389245D01*
X27868000Y-34275637D01*
X27868000Y-32815750D01*
X28129000Y-32815750D01*
X28129000Y-33231309D01*
X28225673Y-33464698D01*
X28404301Y-33643327D01*
X28637690Y-33740000D01*
X29178250Y-33740000D01*
X29337000Y-33581250D01*
X29337000Y-32657000D01*
X28287750Y-32657000D01*
X28129000Y-32815750D01*
X27868000Y-32815750D01*
X27868000Y-30344363D01*
X28142273Y-30230755D01*
X28319304Y-30053724D01*
X28383009Y-30117430D01*
X28375536Y-30154999D01*
X28375536Y-30805001D01*
X28424136Y-31049330D01*
X28562537Y-31256463D01*
X28657627Y-31320000D01*
X28637690Y-31320000D01*
X28404301Y-31416673D01*
X28225673Y-31595302D01*
X28129000Y-31828691D01*
X28129000Y-32244250D01*
X28287750Y-32403000D01*
X29337000Y-32403000D01*
X29337000Y-32383000D01*
X29591000Y-32383000D01*
X29591000Y-32403000D01*
X29611000Y-32403000D01*
X29611000Y-32657000D01*
X29591000Y-32657000D01*
X29591000Y-33581250D01*
X29749750Y-33740000D01*
X30290310Y-33740000D01*
X30326619Y-33724960D01*
X29323412Y-34728168D01*
X29239475Y-34853789D01*
X29200049Y-35052000D01*
X29239475Y-35250211D01*
X29260800Y-35282126D01*
X29260801Y-36060779D01*
X28036165Y-37285415D01*
X27993753Y-37313754D01*
X27965414Y-37356166D01*
X27965411Y-37356169D01*
X27881474Y-37481790D01*
X27842048Y-37680001D01*
X27852000Y-37730033D01*
X27852000Y-37929009D01*
X27634698Y-37839000D01*
X27085302Y-37839000D01*
X26577727Y-38049245D01*
X26189245Y-38437727D01*
X25979000Y-38945302D01*
X25979000Y-39494698D01*
X26189245Y-40002273D01*
X26577727Y-40390755D01*
X26852001Y-40504363D01*
X26852000Y-44355818D01*
X26852001Y-44355823D01*
X26852001Y-44435637D01*
X26577727Y-44549245D01*
X26189245Y-44937727D01*
X25979000Y-45445302D01*
X25979000Y-45994698D01*
X26189245Y-46502273D01*
X26577727Y-46890755D01*
X27085302Y-47101000D01*
X27634698Y-47101000D01*
X28142273Y-46890755D01*
X28530755Y-46502273D01*
X28741000Y-45994698D01*
X28741000Y-45445302D01*
X28620245Y-45153774D01*
X28637690Y-45161000D01*
X29178250Y-45161000D01*
X29337000Y-45002250D01*
X29337000Y-44078000D01*
X29591000Y-44078000D01*
X29591000Y-45002250D01*
X29749750Y-45161000D01*
X30290310Y-45161000D01*
X30523699Y-45064327D01*
X30702327Y-44885698D01*
X30799000Y-44652309D01*
X30799000Y-44236750D01*
X30640250Y-44078000D01*
X29591000Y-44078000D01*
X29337000Y-44078000D01*
X28287750Y-44078000D01*
X28129000Y-44236750D01*
X28129000Y-44543747D01*
X27868000Y-44435637D01*
X27868000Y-41023420D01*
X28383009Y-41538429D01*
X28375536Y-41575999D01*
X28375536Y-42226001D01*
X28424136Y-42470330D01*
X28562537Y-42677463D01*
X28657627Y-42741000D01*
X28637690Y-42741000D01*
X28404301Y-42837673D01*
X28225673Y-43016302D01*
X28129000Y-43249691D01*
X28129000Y-43665250D01*
X28287750Y-43824000D01*
X29337000Y-43824000D01*
X29337000Y-43804000D01*
X29591000Y-43804000D01*
X29591000Y-43824000D01*
X30640250Y-43824000D01*
X30799000Y-43665250D01*
X30799000Y-43249691D01*
X30702327Y-43016302D01*
X30523699Y-42837673D01*
X30290310Y-42741000D01*
X30270373Y-42741000D01*
X30365463Y-42677463D01*
X30503864Y-42470330D01*
X30552464Y-42226001D01*
X30552464Y-41575999D01*
X30503864Y-41331670D01*
X30365463Y-41124537D01*
X30158330Y-40986136D01*
X29914001Y-40937536D01*
X29218956Y-40937536D01*
X28407224Y-40125804D01*
X28530755Y-40002273D01*
X28741000Y-39494698D01*
X28741000Y-38945302D01*
X28627392Y-38671029D01*
X28683834Y-38614586D01*
X28726246Y-38586248D01*
X28754585Y-38543836D01*
X28754587Y-38543834D01*
X28838524Y-38418213D01*
X28838524Y-38418212D01*
X28867999Y-38270033D01*
X28867999Y-38270030D01*
X28877950Y-38220002D01*
X28867999Y-38169974D01*
X28867999Y-37890421D01*
X30112587Y-36645833D01*
X30196525Y-36520212D01*
X30235951Y-36322001D01*
X30196525Y-36123790D01*
X30175200Y-36091875D01*
X30175200Y-35313220D01*
X30486297Y-35002124D01*
X30369000Y-35285302D01*
X30369000Y-35834698D01*
X30579245Y-36342273D01*
X30967727Y-36730755D01*
X31475302Y-36941000D01*
X32024698Y-36941000D01*
X32532273Y-36730755D01*
X32920755Y-36342273D01*
X33131000Y-35834698D01*
X33131000Y-35285302D01*
X32920755Y-34777727D01*
X32532273Y-34389245D01*
X32024698Y-34179000D01*
X31475302Y-34179000D01*
X31192125Y-34296296D01*
X31311836Y-34176585D01*
X31354247Y-34148247D01*
X31382586Y-34105835D01*
X31382588Y-34105833D01*
X31466525Y-33980212D01*
X31473017Y-33947575D01*
X31496000Y-33832032D01*
X31496000Y-33832029D01*
X31505951Y-33782001D01*
X31496000Y-33731973D01*
X31496000Y-30441000D01*
X32024698Y-30441000D01*
X32532273Y-30230755D01*
X32920755Y-29842273D01*
X33131000Y-29334698D01*
X33131000Y-28785302D01*
X34869000Y-28785302D01*
X34869000Y-29334698D01*
X35079245Y-29842273D01*
X35467727Y-30230755D01*
X35742001Y-30344363D01*
X35742001Y-30424177D01*
X35742000Y-30424182D01*
X35742001Y-34275637D01*
X35467727Y-34389245D01*
X35079245Y-34777727D01*
X34869000Y-35285302D01*
X34869000Y-35834698D01*
X35079245Y-36342273D01*
X35467727Y-36730755D01*
X35975302Y-36941000D01*
X36524698Y-36941000D01*
X37032273Y-36730755D01*
X37420755Y-36342273D01*
X37631000Y-35834698D01*
X37631000Y-35285302D01*
X37420755Y-34777727D01*
X37032273Y-34389245D01*
X36758000Y-34275637D01*
X36758000Y-32806750D01*
X37019000Y-32806750D01*
X37019000Y-33222309D01*
X37115673Y-33455698D01*
X37294301Y-33634327D01*
X37527690Y-33731000D01*
X38068250Y-33731000D01*
X38227000Y-33572250D01*
X38227000Y-32648000D01*
X38481000Y-32648000D01*
X38481000Y-33572250D01*
X38639750Y-33731000D01*
X39180310Y-33731000D01*
X39413699Y-33634327D01*
X39592327Y-33455698D01*
X39689000Y-33222309D01*
X39689000Y-32806750D01*
X39530250Y-32648000D01*
X38481000Y-32648000D01*
X38227000Y-32648000D01*
X37177750Y-32648000D01*
X37019000Y-32806750D01*
X36758000Y-32806750D01*
X36758000Y-30344363D01*
X37032273Y-30230755D01*
X37213804Y-30049224D01*
X37273009Y-30108429D01*
X37265536Y-30145999D01*
X37265536Y-30796001D01*
X37314136Y-31040330D01*
X37452537Y-31247463D01*
X37547627Y-31311000D01*
X37527690Y-31311000D01*
X37294301Y-31407673D01*
X37115673Y-31586302D01*
X37019000Y-31819691D01*
X37019000Y-32235250D01*
X37177750Y-32394000D01*
X38227000Y-32394000D01*
X38227000Y-32374000D01*
X38481000Y-32374000D01*
X38481000Y-32394000D01*
X39530250Y-32394000D01*
X39689000Y-32235250D01*
X39689000Y-31819691D01*
X39592327Y-31586302D01*
X39413699Y-31407673D01*
X39180310Y-31311000D01*
X39160373Y-31311000D01*
X39255463Y-31247463D01*
X39393864Y-31040330D01*
X39442464Y-30796001D01*
X39442464Y-30145999D01*
X39393864Y-29901670D01*
X39255463Y-29694537D01*
X39048330Y-29556136D01*
X38804001Y-29507536D01*
X38108956Y-29507536D01*
X37631000Y-29029580D01*
X37631000Y-28785302D01*
X37420755Y-28277727D01*
X37032273Y-27889245D01*
X36758000Y-27775637D01*
X36758000Y-24073764D01*
X36949826Y-23881938D01*
X37040616Y-23662750D01*
X37273000Y-23662750D01*
X37273000Y-24078309D01*
X37369673Y-24311698D01*
X37548301Y-24490327D01*
X37781690Y-24587000D01*
X38322250Y-24587000D01*
X38481000Y-24428250D01*
X38481000Y-23504000D01*
X37431750Y-23504000D01*
X37273000Y-23662750D01*
X37040616Y-23662750D01*
X37075500Y-23578532D01*
X37075500Y-23250128D01*
X36949826Y-22946722D01*
X36717608Y-22714504D01*
X36623905Y-22675691D01*
X37273000Y-22675691D01*
X37273000Y-23091250D01*
X37431750Y-23250000D01*
X38481000Y-23250000D01*
X38481000Y-23230000D01*
X38735000Y-23230000D01*
X38735000Y-23250000D01*
X39784250Y-23250000D01*
X39943000Y-23091250D01*
X39943000Y-22675691D01*
X39846327Y-22442302D01*
X39667699Y-22263673D01*
X39434310Y-22167000D01*
X39414373Y-22167000D01*
X39509463Y-22103463D01*
X39647864Y-21896330D01*
X39696464Y-21652001D01*
X39696464Y-21001999D01*
X39677072Y-20904507D01*
X40254801Y-20326778D01*
X40254800Y-23926816D01*
X40254801Y-23926821D01*
X40254801Y-23990595D01*
X39929727Y-24125245D01*
X39919197Y-24135775D01*
X39943000Y-24078309D01*
X39943000Y-23662750D01*
X39784250Y-23504000D01*
X38735000Y-23504000D01*
X38735000Y-24428250D01*
X38893750Y-24587000D01*
X39434310Y-24587000D01*
X39526755Y-24548708D01*
X39331000Y-25021302D01*
X39331000Y-25570698D01*
X39541245Y-26078273D01*
X39929727Y-26466755D01*
X40437302Y-26677000D01*
X40986698Y-26677000D01*
X41494273Y-26466755D01*
X41882755Y-26078273D01*
X42093000Y-25570698D01*
X42093000Y-25021302D01*
X43831000Y-25021302D01*
X43831000Y-25570698D01*
X44041245Y-26078273D01*
X44429727Y-26466755D01*
X44937302Y-26677000D01*
X45486698Y-26677000D01*
X45994273Y-26466755D01*
X46382755Y-26078273D01*
X46593000Y-25570698D01*
X46593000Y-25021302D01*
X46382755Y-24513727D01*
X45994273Y-24125245D01*
X45486698Y-23915000D01*
X44937302Y-23915000D01*
X44429727Y-24125245D01*
X44041245Y-24513727D01*
X43831000Y-25021302D01*
X42093000Y-25021302D01*
X41882755Y-24513727D01*
X41494273Y-24125245D01*
X41169200Y-23990595D01*
X41169200Y-20101405D01*
X41494273Y-19966755D01*
X41882755Y-19578273D01*
X42093000Y-19070698D01*
X42093000Y-18521302D01*
X43831000Y-18521302D01*
X43831000Y-19070698D01*
X44041245Y-19578273D01*
X44429727Y-19966755D01*
X44937302Y-20177000D01*
X45486698Y-20177000D01*
X45994273Y-19966755D01*
X46382755Y-19578273D01*
X46593000Y-19070698D01*
X46593000Y-18521302D01*
X46382755Y-18013727D01*
X45994273Y-17625245D01*
X45486698Y-17415000D01*
X44937302Y-17415000D01*
X44429727Y-17625245D01*
X44041245Y-18013727D01*
X43831000Y-18521302D01*
X42093000Y-18521302D01*
X41882755Y-18013727D01*
X41494273Y-17625245D01*
X40986698Y-17415000D01*
X40437302Y-17415000D01*
X39929727Y-17625245D01*
X39541245Y-18013727D01*
X39331000Y-18521302D01*
X39331000Y-19070698D01*
X39541245Y-19578273D01*
X39625697Y-19662725D01*
X38924886Y-20363536D01*
X38157999Y-20363536D01*
X37913670Y-20412136D01*
X37706537Y-20550537D01*
X37568136Y-20757670D01*
X37519536Y-21001999D01*
X37519536Y-21652001D01*
X37568136Y-21896330D01*
X37706537Y-22103463D01*
X37801627Y-22167000D01*
X37781690Y-22167000D01*
X37548301Y-22263673D01*
X37369673Y-22442302D01*
X37273000Y-22675691D01*
X36623905Y-22675691D01*
X36414202Y-22588830D01*
X36085798Y-22588830D01*
X35782392Y-22714504D01*
X35550174Y-22946722D01*
X35424500Y-23250128D01*
X35424500Y-23578532D01*
X35550174Y-23881938D01*
X35742000Y-24073764D01*
X35742001Y-27775637D01*
X35467727Y-27889245D01*
X35079245Y-28277727D01*
X34869000Y-28785302D01*
X33131000Y-28785302D01*
X32920755Y-28277727D01*
X32532273Y-27889245D01*
X32024698Y-27679000D01*
X31475302Y-27679000D01*
X30967727Y-27889245D01*
X30579245Y-28277727D01*
X30369000Y-28785302D01*
X30369000Y-28888580D01*
X28724257Y-27243837D01*
X28695917Y-27201423D01*
X28527882Y-27089145D01*
X28379702Y-27059670D01*
X28379698Y-27059670D01*
X28329670Y-27049719D01*
X28279642Y-27059670D01*
X27524091Y-27059670D01*
X27245421Y-26781000D01*
X27634698Y-26781000D01*
X28142273Y-26570755D01*
X28530755Y-26182273D01*
X28741000Y-25674698D01*
X28741000Y-25125302D01*
X28530755Y-24617727D01*
X28142273Y-24229245D01*
X27868000Y-24115637D01*
X27868000Y-22646750D01*
X28383000Y-22646750D01*
X28383000Y-23062309D01*
X28479673Y-23295698D01*
X28658301Y-23474327D01*
X28891690Y-23571000D01*
X29432250Y-23571000D01*
X29591000Y-23412250D01*
X29591000Y-22488000D01*
X29845000Y-22488000D01*
X29845000Y-23412250D01*
X30003750Y-23571000D01*
X30544310Y-23571000D01*
X30777699Y-23474327D01*
X30956327Y-23295698D01*
X31053000Y-23062309D01*
X31053000Y-22646750D01*
X30894250Y-22488000D01*
X29845000Y-22488000D01*
X29591000Y-22488000D01*
X28541750Y-22488000D01*
X28383000Y-22646750D01*
X27868000Y-22646750D01*
X27868000Y-20184363D01*
X27959771Y-20146350D01*
X28415870Y-20602449D01*
X28441377Y-20640623D01*
X28479551Y-20666130D01*
X28592609Y-20741673D01*
X28652943Y-20753674D01*
X28678136Y-20880330D01*
X28816537Y-21087463D01*
X28911627Y-21151000D01*
X28891690Y-21151000D01*
X28658301Y-21247673D01*
X28479673Y-21426302D01*
X28383000Y-21659691D01*
X28383000Y-22075250D01*
X28541750Y-22234000D01*
X29591000Y-22234000D01*
X29591000Y-22214000D01*
X29845000Y-22214000D01*
X29845000Y-22234000D01*
X30894250Y-22234000D01*
X31053000Y-22075250D01*
X31053000Y-21659691D01*
X30956327Y-21426302D01*
X30777699Y-21247673D01*
X30544310Y-21151000D01*
X30524373Y-21151000D01*
X30619463Y-21087463D01*
X30757864Y-20880330D01*
X30806464Y-20636001D01*
X30806464Y-19985999D01*
X30757864Y-19741670D01*
X30619463Y-19534537D01*
X30412330Y-19396136D01*
X30168001Y-19347536D01*
X29267999Y-19347536D01*
X29023670Y-19396136D01*
X28816537Y-19534537D01*
X28746273Y-19639695D01*
X28606350Y-19499771D01*
X28741000Y-19174698D01*
X28741000Y-18625302D01*
X28530755Y-18117727D01*
X28142273Y-17729245D01*
X27868000Y-17615637D01*
X27868000Y-15998482D01*
X28029798Y-16065500D01*
X28358202Y-16065500D01*
X28661608Y-15939826D01*
X28893826Y-15707608D01*
X28965425Y-15534750D01*
X29145000Y-15534750D01*
X29145000Y-15950309D01*
X29241673Y-16183698D01*
X29420301Y-16362327D01*
X29653690Y-16459000D01*
X30194250Y-16459000D01*
X30353000Y-16300250D01*
X30353000Y-15376000D01*
X29303750Y-15376000D01*
X29145000Y-15534750D01*
X28965425Y-15534750D01*
X29019500Y-15404202D01*
X29019500Y-15075798D01*
X28893826Y-14772392D01*
X28661608Y-14540174D01*
X28358202Y-14414500D01*
X28029798Y-14414500D01*
X27868000Y-14481518D01*
X27868000Y-13458482D01*
X28029798Y-13525500D01*
X28358202Y-13525500D01*
X28661608Y-13399826D01*
X28893826Y-13167608D01*
X29019500Y-12864202D01*
X29019500Y-12535798D01*
X29015189Y-12525390D01*
X29692848Y-11847731D01*
X29731022Y-11822224D01*
X29832072Y-11670992D01*
X29837490Y-11643753D01*
X29867556Y-11492602D01*
X29858599Y-11447572D01*
X29858599Y-8685303D01*
X29972001Y-8761076D01*
X29972001Y-9275967D01*
X29962049Y-9326000D01*
X30001475Y-9524211D01*
X30085412Y-9649832D01*
X30085415Y-9649835D01*
X30113754Y-9692247D01*
X30156166Y-9720586D01*
X30554608Y-10119028D01*
X30441000Y-10393302D01*
X30441000Y-10942698D01*
X30554608Y-11216972D01*
X30156166Y-11615414D01*
X30113754Y-11643753D01*
X30085415Y-11686165D01*
X30085412Y-11686168D01*
X30001475Y-11811789D01*
X29962049Y-12010000D01*
X29972001Y-12060032D01*
X29972001Y-12247073D01*
X29785670Y-12284136D01*
X29578537Y-12422537D01*
X29440136Y-12629670D01*
X29391536Y-12873999D01*
X29391536Y-13524001D01*
X29440136Y-13768330D01*
X29578537Y-13975463D01*
X29673627Y-14039000D01*
X29653690Y-14039000D01*
X29420301Y-14135673D01*
X29241673Y-14314302D01*
X29145000Y-14547691D01*
X29145000Y-14963250D01*
X29303750Y-15122000D01*
X30353000Y-15122000D01*
X30353000Y-15102000D01*
X30607000Y-15102000D01*
X30607000Y-15122000D01*
X30627000Y-15122000D01*
X30627000Y-15376000D01*
X30607000Y-15376000D01*
X30607000Y-16300250D01*
X30671861Y-16365111D01*
X30651245Y-16385727D01*
X30441000Y-16893302D01*
X30441000Y-17442698D01*
X30651245Y-17950273D01*
X31039727Y-18338755D01*
X31547302Y-18549000D01*
X32096698Y-18549000D01*
X32604273Y-18338755D01*
X32992755Y-17950273D01*
X33203000Y-17442698D01*
X33203000Y-16893302D01*
X34941000Y-16893302D01*
X34941000Y-17442698D01*
X35151245Y-17950273D01*
X35539727Y-18338755D01*
X36047302Y-18549000D01*
X36596698Y-18549000D01*
X37104273Y-18338755D01*
X37492755Y-17950273D01*
X37703000Y-17442698D01*
X37703000Y-16893302D01*
X37492755Y-16385727D01*
X37104273Y-15997245D01*
X36596698Y-15787000D01*
X36047302Y-15787000D01*
X35539727Y-15997245D01*
X35151245Y-16385727D01*
X34941000Y-16893302D01*
X33203000Y-16893302D01*
X32992755Y-16385727D01*
X32604273Y-15997245D01*
X32330000Y-15883637D01*
X32330000Y-11952363D01*
X32604273Y-11838755D01*
X32992755Y-11450273D01*
X33203000Y-10942698D01*
X33203000Y-10393302D01*
X34941000Y-10393302D01*
X34941000Y-10942698D01*
X35151245Y-11450273D01*
X35539727Y-11838755D01*
X36047302Y-12049000D01*
X36596698Y-12049000D01*
X37104273Y-11838755D01*
X37492755Y-11450273D01*
X37703000Y-10942698D01*
X37703000Y-10393302D01*
X37492755Y-9885727D01*
X37104273Y-9497245D01*
X36596698Y-9287000D01*
X36047302Y-9287000D01*
X35539727Y-9497245D01*
X35151245Y-9885727D01*
X34941000Y-10393302D01*
X33203000Y-10393302D01*
X32992755Y-9885727D01*
X32604273Y-9497245D01*
X32096698Y-9287000D01*
X31547302Y-9287000D01*
X31273028Y-9400608D01*
X30988000Y-9115580D01*
X30988000Y-8761075D01*
X31367501Y-8507501D01*
X31639576Y-8100312D01*
X31735116Y-7620000D01*
X31764884Y-7620000D01*
X31860424Y-8100312D01*
X32132499Y-8507501D01*
X32539688Y-8779576D01*
X32898761Y-8851000D01*
X33141239Y-8851000D01*
X33500312Y-8779576D01*
X33907501Y-8507501D01*
X34179576Y-8100312D01*
X34275116Y-7620000D01*
X34179576Y-7139688D01*
X33907501Y-6732499D01*
X33500312Y-6460424D01*
X33141239Y-6389000D01*
X32898761Y-6389000D01*
X32539688Y-6460424D01*
X32132499Y-6732499D01*
X31860424Y-7139688D01*
X31764884Y-7620000D01*
X31735116Y-7620000D01*
X31639576Y-7139688D01*
X31367501Y-6732499D01*
X30960312Y-6460424D01*
X30601239Y-6389000D01*
X30358761Y-6389000D01*
X29999688Y-6460424D01*
X29858599Y-6554697D01*
X29858599Y-6347979D01*
X29980094Y-6226484D01*
X29999688Y-6239576D01*
X30358761Y-6311000D01*
X30601239Y-6311000D01*
X30960312Y-6239576D01*
X31367501Y-5967501D01*
X31639576Y-5560312D01*
X31735116Y-5080000D01*
X31764884Y-5080000D01*
X31860424Y-5560312D01*
X32132499Y-5967501D01*
X32539688Y-6239576D01*
X32898761Y-6311000D01*
X33141239Y-6311000D01*
X33500312Y-6239576D01*
X33907501Y-5967501D01*
X34179576Y-5560312D01*
X34275116Y-5080000D01*
X34179576Y-4599688D01*
X33907501Y-4192499D01*
X33500312Y-3920424D01*
X33141239Y-3849000D01*
X32898761Y-3849000D01*
X32539688Y-3920424D01*
X32132499Y-4192499D01*
X31860424Y-4599688D01*
X31764884Y-5080000D01*
X31735116Y-5080000D01*
X31639576Y-4599688D01*
X31367501Y-4192499D01*
X30960312Y-3920424D01*
X30601239Y-3849000D01*
X30358761Y-3849000D01*
X29999688Y-3920424D01*
X29592499Y-4192499D01*
X29320424Y-4599688D01*
X29224884Y-5080000D01*
X29320424Y-5560312D01*
X29333516Y-5579906D01*
X29210000Y-5703421D01*
X29086484Y-5579905D01*
X29099576Y-5560312D01*
X29195116Y-5080000D01*
X29099576Y-4599688D01*
X28827501Y-4192499D01*
X28420312Y-3920424D01*
X28061239Y-3849000D01*
X27818761Y-3849000D01*
X27459688Y-3920424D01*
X27052499Y-4192499D01*
X26780424Y-4599688D01*
X26684884Y-5080000D01*
X26780424Y-5560312D01*
X27052499Y-5967501D01*
X27459688Y-6239576D01*
X27818761Y-6311000D01*
X28061239Y-6311000D01*
X28420312Y-6239576D01*
X28439905Y-6226484D01*
X28561401Y-6347980D01*
X28561401Y-6554697D01*
X28420312Y-6460424D01*
X28061239Y-6389000D01*
X27818761Y-6389000D01*
X27459688Y-6460424D01*
X27052499Y-6732499D01*
X26780424Y-7139688D01*
X26684884Y-7620000D01*
X26780424Y-8100312D01*
X27052499Y-8507501D01*
X27432001Y-8761076D01*
X27432001Y-8861578D01*
X27036166Y-9257414D01*
X26993754Y-9285753D01*
X26965415Y-9328165D01*
X26965412Y-9328168D01*
X26881475Y-9453789D01*
X26842049Y-9652000D01*
X26852001Y-9702033D01*
X26852000Y-17615637D01*
X26577727Y-17729245D01*
X26189245Y-18117727D01*
X25979000Y-18625302D01*
X25979000Y-19174698D01*
X26189245Y-19682273D01*
X26577727Y-20070755D01*
X26852001Y-20184363D01*
X26852001Y-20264177D01*
X26852000Y-20264182D01*
X26852001Y-24115637D01*
X26577727Y-24229245D01*
X26189245Y-24617727D01*
X25979000Y-25125302D01*
X25979000Y-25514580D01*
X25908000Y-25443580D01*
X25908000Y-18102301D01*
X25878525Y-17954121D01*
X25766247Y-17786086D01*
X25615576Y-17685411D01*
X25120600Y-17190435D01*
X25120600Y-16017784D01*
X25235798Y-16065500D01*
X25564202Y-16065500D01*
X25867608Y-15939826D01*
X26099826Y-15707608D01*
X26225500Y-15404202D01*
X26225500Y-15075798D01*
X26099826Y-14772392D01*
X25908000Y-14580566D01*
X25908000Y-8761075D01*
X26287501Y-8507501D01*
X26559576Y-8100312D01*
X26655116Y-7620000D01*
X26559576Y-7139688D01*
X26287501Y-6732499D01*
X25880312Y-6460424D01*
X25521239Y-6389000D01*
X25278761Y-6389000D01*
X25007201Y-6443017D01*
X25007201Y-6256983D01*
X25278761Y-6311000D01*
X25521239Y-6311000D01*
X25880312Y-6239576D01*
X26287501Y-5967501D01*
X26559576Y-5560312D01*
X26655116Y-5080000D01*
X26559576Y-4599688D01*
X26287501Y-4192499D01*
X25880312Y-3920424D01*
X25521239Y-3849000D01*
X25278761Y-3849000D01*
X24919688Y-3920424D01*
X24512499Y-4192499D01*
X24240424Y-4599688D01*
X24144884Y-5080000D01*
X24240424Y-5560312D01*
X24252744Y-5578750D01*
X24220378Y-5600376D01*
X24158861Y-5692444D01*
X24142904Y-5716325D01*
X24006484Y-5579905D01*
X24019576Y-5560312D01*
X24115116Y-5080000D01*
X24019576Y-4599688D01*
X23747501Y-4192499D01*
X23340312Y-3920424D01*
X22981239Y-3849000D01*
X22738761Y-3849000D01*
X22379688Y-3920424D01*
X21972499Y-4192499D01*
X21702245Y-4596963D01*
X21515183Y-4198642D01*
X21086924Y-3808355D01*
X20676890Y-3638524D01*
X20447000Y-3759845D01*
X20447000Y-4953000D01*
X20467000Y-4953000D01*
X20467000Y-5207000D01*
X20447000Y-5207000D01*
X20447000Y-7493000D01*
X20467000Y-7493000D01*
X20467000Y-7747000D01*
X20447000Y-7747000D01*
X20447000Y-8946250D01*
X20605750Y-9105000D01*
X21296310Y-9105000D01*
X21529699Y-9008327D01*
X21708327Y-8829698D01*
X21805000Y-8596309D01*
X21805000Y-8256821D01*
X21972499Y-8507501D01*
X22352001Y-8761076D01*
X22352000Y-15290031D01*
X22352001Y-15290035D01*
X22352000Y-15537579D01*
X21887596Y-16001983D01*
X21909000Y-15950309D01*
X21909000Y-15534750D01*
X21750250Y-15376000D01*
X20701000Y-15376000D01*
X20701000Y-16300250D01*
X20859750Y-16459000D01*
X21400310Y-16459000D01*
X21451983Y-16437596D01*
X18218166Y-19671414D01*
X18175754Y-19699753D01*
X18147415Y-19742165D01*
X18147412Y-19742168D01*
X18063475Y-19867789D01*
X18024049Y-20066000D01*
X18034001Y-20116033D01*
X18034000Y-27383933D01*
X17991475Y-27447576D01*
X17952049Y-27645787D01*
X17962001Y-27695820D01*
X17962001Y-27775637D01*
X17687727Y-27889245D01*
X17299245Y-28277727D01*
X17089000Y-28785302D01*
X15351000Y-28785302D01*
X15140755Y-28277727D01*
X14752273Y-27889245D01*
X14244698Y-27679000D01*
X13695302Y-27679000D01*
X13187727Y-27889245D01*
X12799245Y-28277727D01*
X12589000Y-28785302D01*
X127000Y-28785302D01*
X127000Y-16997302D01*
X12589000Y-16997302D01*
X12589000Y-17546698D01*
X12799245Y-18054273D01*
X13187727Y-18442755D01*
X13695302Y-18653000D01*
X14244698Y-18653000D01*
X14752273Y-18442755D01*
X15140755Y-18054273D01*
X15351000Y-17546698D01*
X15351000Y-16997302D01*
X15140755Y-16489727D01*
X14752273Y-16101245D01*
X14244698Y-15891000D01*
X13695302Y-15891000D01*
X13187727Y-16101245D01*
X12799245Y-16489727D01*
X12589000Y-16997302D01*
X127000Y-16997302D01*
X127000Y-10497302D01*
X12589000Y-10497302D01*
X12589000Y-11046698D01*
X12799245Y-11554273D01*
X13187727Y-11942755D01*
X13695302Y-12153000D01*
X14244698Y-12153000D01*
X14752273Y-11942755D01*
X15140755Y-11554273D01*
X15351000Y-11046698D01*
X15351000Y-10497302D01*
X17089000Y-10497302D01*
X17089000Y-11046698D01*
X17299245Y-11554273D01*
X17687727Y-11942755D01*
X18012801Y-12077405D01*
X18012800Y-15902816D01*
X18012801Y-15902821D01*
X18012801Y-15966595D01*
X17687727Y-16101245D01*
X17299245Y-16489727D01*
X17089000Y-16997302D01*
X17089000Y-17546698D01*
X17299245Y-18054273D01*
X17687727Y-18442755D01*
X18195302Y-18653000D01*
X18744698Y-18653000D01*
X19252273Y-18442755D01*
X19640755Y-18054273D01*
X19851000Y-17546698D01*
X19851000Y-16997302D01*
X19640755Y-16489727D01*
X19252273Y-16101245D01*
X18927200Y-15966595D01*
X18927200Y-15534750D01*
X19239000Y-15534750D01*
X19239000Y-15950309D01*
X19335673Y-16183698D01*
X19514301Y-16362327D01*
X19747690Y-16459000D01*
X20288250Y-16459000D01*
X20447000Y-16300250D01*
X20447000Y-15376000D01*
X19397750Y-15376000D01*
X19239000Y-15534750D01*
X18927200Y-15534750D01*
X18927200Y-12198778D01*
X19504928Y-12776507D01*
X19485536Y-12873999D01*
X19485536Y-13524001D01*
X19534136Y-13768330D01*
X19672537Y-13975463D01*
X19767627Y-14039000D01*
X19747690Y-14039000D01*
X19514301Y-14135673D01*
X19335673Y-14314302D01*
X19239000Y-14547691D01*
X19239000Y-14963250D01*
X19397750Y-15122000D01*
X20447000Y-15122000D01*
X20447000Y-15102000D01*
X20701000Y-15102000D01*
X20701000Y-15122000D01*
X21750250Y-15122000D01*
X21909000Y-14963250D01*
X21909000Y-14547691D01*
X21812327Y-14314302D01*
X21633699Y-14135673D01*
X21400310Y-14039000D01*
X21380373Y-14039000D01*
X21475463Y-13975463D01*
X21613864Y-13768330D01*
X21662464Y-13524001D01*
X21662464Y-12873999D01*
X21613864Y-12629670D01*
X21475463Y-12422537D01*
X21268330Y-12284136D01*
X21024001Y-12235536D01*
X20257115Y-12235536D01*
X19608303Y-11586725D01*
X19640755Y-11554273D01*
X19851000Y-11046698D01*
X19851000Y-10497302D01*
X19640755Y-9989727D01*
X19252273Y-9601245D01*
X18744698Y-9391000D01*
X18195302Y-9391000D01*
X17687727Y-9601245D01*
X17299245Y-9989727D01*
X17089000Y-10497302D01*
X15351000Y-10497302D01*
X15140755Y-9989727D01*
X14752273Y-9601245D01*
X14244698Y-9391000D01*
X13695302Y-9391000D01*
X13187727Y-9601245D01*
X12799245Y-9989727D01*
X12589000Y-10497302D01*
X127000Y-10497302D01*
X127000Y-7905750D01*
X18835000Y-7905750D01*
X18835000Y-8596309D01*
X18931673Y-8829698D01*
X19110301Y-9008327D01*
X19343690Y-9105000D01*
X20034250Y-9105000D01*
X20193000Y-8946250D01*
X20193000Y-7747000D01*
X18993750Y-7747000D01*
X18835000Y-7905750D01*
X127000Y-7905750D01*
X127000Y-3359992D01*
X578025Y-2969104D01*
X444000Y-3292668D01*
X444000Y-4707332D01*
X985369Y-6014312D01*
X1985688Y-7014631D01*
X3292668Y-7556000D01*
X4707332Y-7556000D01*
X6014312Y-7014631D01*
X6385252Y-6643691D01*
X18835000Y-6643691D01*
X18835000Y-7334250D01*
X18993750Y-7493000D01*
X20193000Y-7493000D01*
X20193000Y-5207000D01*
X18999181Y-5207000D01*
X18878514Y-5436892D01*
X19124817Y-5961358D01*
X19324208Y-6143070D01*
X19110301Y-6231673D01*
X18931673Y-6410302D01*
X18835000Y-6643691D01*
X6385252Y-6643691D01*
X7014631Y-6014312D01*
X7549465Y-4723108D01*
X18878514Y-4723108D01*
X18999181Y-4953000D01*
X20193000Y-4953000D01*
X20193000Y-3759845D01*
X19963110Y-3638524D01*
X19553076Y-3808355D01*
X19124817Y-4198642D01*
X18878514Y-4723108D01*
X7549465Y-4723108D01*
X7556000Y-4707332D01*
X7556000Y-3292668D01*
X7014631Y-1985688D01*
X6014312Y-985369D01*
X4707332Y-444000D01*
X3491607Y-444000D01*
X3857376Y-127000D01*
X45159394Y-127000D01*
X45476394Y-444000D01*
X45476394Y-444000D01*
G37*
X45476394Y-444000D02*
X44292668Y-444000D01*
X42985688Y-985369D01*
X41985369Y-1985688D01*
X41444000Y-3292668D01*
X41444000Y-4707332D01*
X41985369Y-6014312D01*
X42985688Y-7014631D01*
X44292668Y-7556000D01*
X45707332Y-7556000D01*
X47014312Y-7014631D01*
X48014631Y-6014312D01*
X48556000Y-4707332D01*
X48556000Y-3523606D01*
X48895000Y-3862606D01*
X48895000Y-45156979D01*
X48556000Y-45474792D01*
X48556000Y-44292668D01*
X48014631Y-42985688D01*
X47014312Y-41985369D01*
X45707332Y-41444000D01*
X44292668Y-41444000D01*
X42985688Y-41985369D01*
X41985369Y-42985688D01*
X41444000Y-44292668D01*
X41444000Y-45707332D01*
X41985369Y-47014312D01*
X42985688Y-48014631D01*
X44292668Y-48556000D01*
X45269378Y-48556000D01*
X44907778Y-48895000D01*
X4376729Y-48895000D01*
X4088579Y-48556000D01*
X4707332Y-48556000D01*
X6014312Y-48014631D01*
X7014631Y-47014312D01*
X7556000Y-45707332D01*
X7556000Y-45445302D01*
X21479000Y-45445302D01*
X21479000Y-45994698D01*
X21689245Y-46502273D01*
X22077727Y-46890755D01*
X22585302Y-47101000D01*
X23134698Y-47101000D01*
X23642273Y-46890755D01*
X24030755Y-46502273D01*
X24241000Y-45994698D01*
X24241000Y-45445302D01*
X24030755Y-44937727D01*
X23642273Y-44549245D01*
X23134698Y-44339000D01*
X22585302Y-44339000D01*
X22077727Y-44549245D01*
X21689245Y-44937727D01*
X21479000Y-45445302D01*
X7556000Y-45445302D01*
X7556000Y-44292668D01*
X7014631Y-42985688D01*
X6014312Y-41985369D01*
X4707332Y-41444000D01*
X3292668Y-41444000D01*
X1985688Y-41985369D01*
X985369Y-42985688D01*
X450798Y-44276257D01*
X127000Y-43895318D01*
X127000Y-38945302D01*
X21479000Y-38945302D01*
X21479000Y-39494698D01*
X21689245Y-40002273D01*
X22077727Y-40390755D01*
X22585302Y-40601000D01*
X23134698Y-40601000D01*
X23642273Y-40390755D01*
X24030755Y-40002273D01*
X24241000Y-39494698D01*
X24241000Y-38945302D01*
X24030755Y-38437727D01*
X23642273Y-38049245D01*
X23134698Y-37839000D01*
X22585302Y-37839000D01*
X22077727Y-38049245D01*
X21689245Y-38437727D01*
X21479000Y-38945302D01*
X127000Y-38945302D01*
X127000Y-35285302D01*
X12589000Y-35285302D01*
X12589000Y-35834698D01*
X12799245Y-36342273D01*
X13187727Y-36730755D01*
X13695302Y-36941000D01*
X14244698Y-36941000D01*
X14752273Y-36730755D01*
X15140755Y-36342273D01*
X15351000Y-35834698D01*
X15351000Y-35285302D01*
X15140755Y-34777727D01*
X14752273Y-34389245D01*
X14244698Y-34179000D01*
X13695302Y-34179000D01*
X13187727Y-34389245D01*
X12799245Y-34777727D01*
X12589000Y-35285302D01*
X127000Y-35285302D01*
X127000Y-28785302D01*
X12589000Y-28785302D01*
X12589000Y-29334698D01*
X12799245Y-29842273D01*
X13187727Y-30230755D01*
X13695302Y-30441000D01*
X14244698Y-30441000D01*
X14752273Y-30230755D01*
X15140755Y-29842273D01*
X15351000Y-29334698D01*
X15351000Y-28785302D01*
X17089000Y-28785302D01*
X17089000Y-29334698D01*
X17299245Y-29842273D01*
X17687727Y-30230755D01*
X17962001Y-30344363D01*
X17962000Y-34195818D01*
X17962001Y-34195823D01*
X17962001Y-34275637D01*
X17687727Y-34389245D01*
X17299245Y-34777727D01*
X17089000Y-35285302D01*
X17089000Y-35834698D01*
X17299245Y-36342273D01*
X17687727Y-36730755D01*
X18195302Y-36941000D01*
X18744698Y-36941000D01*
X19252273Y-36730755D01*
X19640755Y-36342273D01*
X19851000Y-35834698D01*
X19851000Y-35285302D01*
X21479000Y-35285302D01*
X21479000Y-35834698D01*
X21689245Y-36342273D01*
X22077727Y-36730755D01*
X22585302Y-36941000D01*
X23134698Y-36941000D01*
X23642273Y-36730755D01*
X24030755Y-36342273D01*
X24241000Y-35834698D01*
X24241000Y-35285302D01*
X24030755Y-34777727D01*
X23642273Y-34389245D01*
X23134698Y-34179000D01*
X22585302Y-34179000D01*
X22077727Y-34389245D01*
X21689245Y-34777727D01*
X21479000Y-35285302D01*
X19851000Y-35285302D01*
X19640755Y-34777727D01*
X19252273Y-34389245D01*
X18978000Y-34275637D01*
X18978000Y-32806750D01*
X19239000Y-32806750D01*
X19239000Y-33222309D01*
X19335673Y-33455698D01*
X19514301Y-33634327D01*
X19747690Y-33731000D01*
X20288250Y-33731000D01*
X20447000Y-33572250D01*
X20447000Y-32648000D01*
X20701000Y-32648000D01*
X20701000Y-33572250D01*
X20859750Y-33731000D01*
X21400310Y-33731000D01*
X21633699Y-33634327D01*
X21812327Y-33455698D01*
X21909000Y-33222309D01*
X21909000Y-32806750D01*
X21750250Y-32648000D01*
X20701000Y-32648000D01*
X20447000Y-32648000D01*
X19397750Y-32648000D01*
X19239000Y-32806750D01*
X18978000Y-32806750D01*
X18978000Y-30344363D01*
X19252273Y-30230755D01*
X19433804Y-30049224D01*
X19493009Y-30108429D01*
X19485536Y-30145999D01*
X19485536Y-30796001D01*
X19534136Y-31040330D01*
X19672537Y-31247463D01*
X19767627Y-31311000D01*
X19747690Y-31311000D01*
X19514301Y-31407673D01*
X19335673Y-31586302D01*
X19239000Y-31819691D01*
X19239000Y-32235250D01*
X19397750Y-32394000D01*
X20447000Y-32394000D01*
X20447000Y-32374000D01*
X20701000Y-32374000D01*
X20701000Y-32394000D01*
X21750250Y-32394000D01*
X21909000Y-32235250D01*
X21909000Y-31819691D01*
X21812327Y-31586302D01*
X21633699Y-31407673D01*
X21400310Y-31311000D01*
X21380373Y-31311000D01*
X21475463Y-31247463D01*
X21613864Y-31040330D01*
X21662464Y-30796001D01*
X21662464Y-30145999D01*
X21613864Y-29901670D01*
X21475463Y-29694537D01*
X21268330Y-29556136D01*
X21024001Y-29507536D01*
X20328956Y-29507536D01*
X19851000Y-29029580D01*
X19851000Y-28785302D01*
X21479000Y-28785302D01*
X21479000Y-29334698D01*
X21689245Y-29842273D01*
X22077727Y-30230755D01*
X22585302Y-30441000D01*
X23134698Y-30441000D01*
X23642273Y-30230755D01*
X24030755Y-29842273D01*
X24241000Y-29334698D01*
X24241000Y-28785302D01*
X24030755Y-28277727D01*
X23642273Y-27889245D01*
X23134698Y-27679000D01*
X22585302Y-27679000D01*
X22077727Y-27889245D01*
X21689245Y-28277727D01*
X21479000Y-28785302D01*
X19851000Y-28785302D01*
X19640755Y-28277727D01*
X19252273Y-27889245D01*
X19009403Y-27788645D01*
X19020525Y-27771999D01*
X19050000Y-27623819D01*
X19050000Y-27623816D01*
X19059951Y-27573788D01*
X19050000Y-27523760D01*
X19050000Y-20276420D01*
X23183836Y-16142585D01*
X23226247Y-16114247D01*
X23254586Y-16071835D01*
X23254588Y-16071833D01*
X23338525Y-15946212D01*
X23349507Y-15891000D01*
X23368000Y-15798032D01*
X23368000Y-15798029D01*
X23377951Y-15748001D01*
X23368000Y-15697973D01*
X23368000Y-8761075D01*
X23481402Y-8685303D01*
X23481402Y-8968772D01*
X23456001Y-9096472D01*
X23456002Y-17328467D01*
X23446547Y-17376000D01*
X23484003Y-17564301D01*
X23575824Y-17701721D01*
X23134698Y-17519000D01*
X22585302Y-17519000D01*
X22077727Y-17729245D01*
X21689245Y-18117727D01*
X21479000Y-18625302D01*
X21479000Y-19174698D01*
X21689245Y-19682273D01*
X22077727Y-20070755D01*
X22585302Y-20281000D01*
X23134698Y-20281000D01*
X23642273Y-20070755D01*
X24030755Y-19682273D01*
X24155400Y-19381353D01*
X24155400Y-20183678D01*
X24130001Y-20311367D01*
X24130000Y-24857325D01*
X24030755Y-24617727D01*
X23642273Y-24229245D01*
X23134698Y-24019000D01*
X22585302Y-24019000D01*
X22077727Y-24229245D01*
X21689245Y-24617727D01*
X21479000Y-25125302D01*
X21479000Y-25674698D01*
X21689245Y-26182273D01*
X22077727Y-26570755D01*
X22585302Y-26781000D01*
X23134698Y-26781000D01*
X23642273Y-26570755D01*
X24030755Y-26182273D01*
X24212291Y-25744006D01*
X24271753Y-25832997D01*
X24314168Y-25861338D01*
X26459901Y-28007071D01*
X26189245Y-28277727D01*
X25979000Y-28785302D01*
X25979000Y-29334698D01*
X26189245Y-29842273D01*
X26577727Y-30230755D01*
X26852000Y-30344363D01*
X26852001Y-34275637D01*
X26577727Y-34389245D01*
X26189245Y-34777727D01*
X25979000Y-35285302D01*
X25979000Y-35834698D01*
X26189245Y-36342273D01*
X26577727Y-36730755D01*
X27085302Y-36941000D01*
X27634698Y-36941000D01*
X28142273Y-36730755D01*
X28530755Y-36342273D01*
X28741000Y-35834698D01*
X28741000Y-35285302D01*
X28530755Y-34777727D01*
X28142273Y-34389245D01*
X27868000Y-34275637D01*
X27868000Y-32815750D01*
X28129000Y-32815750D01*
X28129000Y-33231309D01*
X28225673Y-33464698D01*
X28404301Y-33643327D01*
X28637690Y-33740000D01*
X29178250Y-33740000D01*
X29337000Y-33581250D01*
X29337000Y-32657000D01*
X28287750Y-32657000D01*
X28129000Y-32815750D01*
X27868000Y-32815750D01*
X27868000Y-30344363D01*
X28142273Y-30230755D01*
X28319304Y-30053724D01*
X28383009Y-30117430D01*
X28375536Y-30154999D01*
X28375536Y-30805001D01*
X28424136Y-31049330D01*
X28562537Y-31256463D01*
X28657627Y-31320000D01*
X28637690Y-31320000D01*
X28404301Y-31416673D01*
X28225673Y-31595302D01*
X28129000Y-31828691D01*
X28129000Y-32244250D01*
X28287750Y-32403000D01*
X29337000Y-32403000D01*
X29337000Y-32383000D01*
X29591000Y-32383000D01*
X29591000Y-32403000D01*
X29611000Y-32403000D01*
X29611000Y-32657000D01*
X29591000Y-32657000D01*
X29591000Y-33581250D01*
X29749750Y-33740000D01*
X30290310Y-33740000D01*
X30326619Y-33724960D01*
X29323412Y-34728168D01*
X29239475Y-34853789D01*
X29200049Y-35052000D01*
X29239475Y-35250211D01*
X29260800Y-35282126D01*
X29260801Y-36060779D01*
X28036165Y-37285415D01*
X27993753Y-37313754D01*
X27965414Y-37356166D01*
X27965411Y-37356169D01*
X27881474Y-37481790D01*
X27842048Y-37680001D01*
X27852000Y-37730033D01*
X27852000Y-37929009D01*
X27634698Y-37839000D01*
X27085302Y-37839000D01*
X26577727Y-38049245D01*
X26189245Y-38437727D01*
X25979000Y-38945302D01*
X25979000Y-39494698D01*
X26189245Y-40002273D01*
X26577727Y-40390755D01*
X26852001Y-40504363D01*
X26852000Y-44355818D01*
X26852001Y-44355823D01*
X26852001Y-44435637D01*
X26577727Y-44549245D01*
X26189245Y-44937727D01*
X25979000Y-45445302D01*
X25979000Y-45994698D01*
X26189245Y-46502273D01*
X26577727Y-46890755D01*
X27085302Y-47101000D01*
X27634698Y-47101000D01*
X28142273Y-46890755D01*
X28530755Y-46502273D01*
X28741000Y-45994698D01*
X28741000Y-45445302D01*
X28620245Y-45153774D01*
X28637690Y-45161000D01*
X29178250Y-45161000D01*
X29337000Y-45002250D01*
X29337000Y-44078000D01*
X29591000Y-44078000D01*
X29591000Y-45002250D01*
X29749750Y-45161000D01*
X30290310Y-45161000D01*
X30523699Y-45064327D01*
X30702327Y-44885698D01*
X30799000Y-44652309D01*
X30799000Y-44236750D01*
X30640250Y-44078000D01*
X29591000Y-44078000D01*
X29337000Y-44078000D01*
X28287750Y-44078000D01*
X28129000Y-44236750D01*
X28129000Y-44543747D01*
X27868000Y-44435637D01*
X27868000Y-41023420D01*
X28383009Y-41538429D01*
X28375536Y-41575999D01*
X28375536Y-42226001D01*
X28424136Y-42470330D01*
X28562537Y-42677463D01*
X28657627Y-42741000D01*
X28637690Y-42741000D01*
X28404301Y-42837673D01*
X28225673Y-43016302D01*
X28129000Y-43249691D01*
X28129000Y-43665250D01*
X28287750Y-43824000D01*
X29337000Y-43824000D01*
X29337000Y-43804000D01*
X29591000Y-43804000D01*
X29591000Y-43824000D01*
X30640250Y-43824000D01*
X30799000Y-43665250D01*
X30799000Y-43249691D01*
X30702327Y-43016302D01*
X30523699Y-42837673D01*
X30290310Y-42741000D01*
X30270373Y-42741000D01*
X30365463Y-42677463D01*
X30503864Y-42470330D01*
X30552464Y-42226001D01*
X30552464Y-41575999D01*
X30503864Y-41331670D01*
X30365463Y-41124537D01*
X30158330Y-40986136D01*
X29914001Y-40937536D01*
X29218956Y-40937536D01*
X28407224Y-40125804D01*
X28530755Y-40002273D01*
X28741000Y-39494698D01*
X28741000Y-38945302D01*
X28627392Y-38671029D01*
X28683834Y-38614586D01*
X28726246Y-38586248D01*
X28754585Y-38543836D01*
X28754587Y-38543834D01*
X28838524Y-38418213D01*
X28838524Y-38418212D01*
X28867999Y-38270033D01*
X28867999Y-38270030D01*
X28877950Y-38220002D01*
X28867999Y-38169974D01*
X28867999Y-37890421D01*
X30112587Y-36645833D01*
X30196525Y-36520212D01*
X30235951Y-36322001D01*
X30196525Y-36123790D01*
X30175200Y-36091875D01*
X30175200Y-35313220D01*
X30486297Y-35002124D01*
X30369000Y-35285302D01*
X30369000Y-35834698D01*
X30579245Y-36342273D01*
X30967727Y-36730755D01*
X31475302Y-36941000D01*
X32024698Y-36941000D01*
X32532273Y-36730755D01*
X32920755Y-36342273D01*
X33131000Y-35834698D01*
X33131000Y-35285302D01*
X32920755Y-34777727D01*
X32532273Y-34389245D01*
X32024698Y-34179000D01*
X31475302Y-34179000D01*
X31192125Y-34296296D01*
X31311836Y-34176585D01*
X31354247Y-34148247D01*
X31382586Y-34105835D01*
X31382588Y-34105833D01*
X31466525Y-33980212D01*
X31473017Y-33947575D01*
X31496000Y-33832032D01*
X31496000Y-33832029D01*
X31505951Y-33782001D01*
X31496000Y-33731973D01*
X31496000Y-30441000D01*
X32024698Y-30441000D01*
X32532273Y-30230755D01*
X32920755Y-29842273D01*
X33131000Y-29334698D01*
X33131000Y-28785302D01*
X34869000Y-28785302D01*
X34869000Y-29334698D01*
X35079245Y-29842273D01*
X35467727Y-30230755D01*
X35742001Y-30344363D01*
X35742001Y-30424177D01*
X35742000Y-30424182D01*
X35742001Y-34275637D01*
X35467727Y-34389245D01*
X35079245Y-34777727D01*
X34869000Y-35285302D01*
X34869000Y-35834698D01*
X35079245Y-36342273D01*
X35467727Y-36730755D01*
X35975302Y-36941000D01*
X36524698Y-36941000D01*
X37032273Y-36730755D01*
X37420755Y-36342273D01*
X37631000Y-35834698D01*
X37631000Y-35285302D01*
X37420755Y-34777727D01*
X37032273Y-34389245D01*
X36758000Y-34275637D01*
X36758000Y-32806750D01*
X37019000Y-32806750D01*
X37019000Y-33222309D01*
X37115673Y-33455698D01*
X37294301Y-33634327D01*
X37527690Y-33731000D01*
X38068250Y-33731000D01*
X38227000Y-33572250D01*
X38227000Y-32648000D01*
X38481000Y-32648000D01*
X38481000Y-33572250D01*
X38639750Y-33731000D01*
X39180310Y-33731000D01*
X39413699Y-33634327D01*
X39592327Y-33455698D01*
X39689000Y-33222309D01*
X39689000Y-32806750D01*
X39530250Y-32648000D01*
X38481000Y-32648000D01*
X38227000Y-32648000D01*
X37177750Y-32648000D01*
X37019000Y-32806750D01*
X36758000Y-32806750D01*
X36758000Y-30344363D01*
X37032273Y-30230755D01*
X37213804Y-30049224D01*
X37273009Y-30108429D01*
X37265536Y-30145999D01*
X37265536Y-30796001D01*
X37314136Y-31040330D01*
X37452537Y-31247463D01*
X37547627Y-31311000D01*
X37527690Y-31311000D01*
X37294301Y-31407673D01*
X37115673Y-31586302D01*
X37019000Y-31819691D01*
X37019000Y-32235250D01*
X37177750Y-32394000D01*
X38227000Y-32394000D01*
X38227000Y-32374000D01*
X38481000Y-32374000D01*
X38481000Y-32394000D01*
X39530250Y-32394000D01*
X39689000Y-32235250D01*
X39689000Y-31819691D01*
X39592327Y-31586302D01*
X39413699Y-31407673D01*
X39180310Y-31311000D01*
X39160373Y-31311000D01*
X39255463Y-31247463D01*
X39393864Y-31040330D01*
X39442464Y-30796001D01*
X39442464Y-30145999D01*
X39393864Y-29901670D01*
X39255463Y-29694537D01*
X39048330Y-29556136D01*
X38804001Y-29507536D01*
X38108956Y-29507536D01*
X37631000Y-29029580D01*
X37631000Y-28785302D01*
X37420755Y-28277727D01*
X37032273Y-27889245D01*
X36758000Y-27775637D01*
X36758000Y-24073764D01*
X36949826Y-23881938D01*
X37040616Y-23662750D01*
X37273000Y-23662750D01*
X37273000Y-24078309D01*
X37369673Y-24311698D01*
X37548301Y-24490327D01*
X37781690Y-24587000D01*
X38322250Y-24587000D01*
X38481000Y-24428250D01*
X38481000Y-23504000D01*
X37431750Y-23504000D01*
X37273000Y-23662750D01*
X37040616Y-23662750D01*
X37075500Y-23578532D01*
X37075500Y-23250128D01*
X36949826Y-22946722D01*
X36717608Y-22714504D01*
X36623905Y-22675691D01*
X37273000Y-22675691D01*
X37273000Y-23091250D01*
X37431750Y-23250000D01*
X38481000Y-23250000D01*
X38481000Y-23230000D01*
X38735000Y-23230000D01*
X38735000Y-23250000D01*
X39784250Y-23250000D01*
X39943000Y-23091250D01*
X39943000Y-22675691D01*
X39846327Y-22442302D01*
X39667699Y-22263673D01*
X39434310Y-22167000D01*
X39414373Y-22167000D01*
X39509463Y-22103463D01*
X39647864Y-21896330D01*
X39696464Y-21652001D01*
X39696464Y-21001999D01*
X39677072Y-20904507D01*
X40254801Y-20326778D01*
X40254800Y-23926816D01*
X40254801Y-23926821D01*
X40254801Y-23990595D01*
X39929727Y-24125245D01*
X39919197Y-24135775D01*
X39943000Y-24078309D01*
X39943000Y-23662750D01*
X39784250Y-23504000D01*
X38735000Y-23504000D01*
X38735000Y-24428250D01*
X38893750Y-24587000D01*
X39434310Y-24587000D01*
X39526755Y-24548708D01*
X39331000Y-25021302D01*
X39331000Y-25570698D01*
X39541245Y-26078273D01*
X39929727Y-26466755D01*
X40437302Y-26677000D01*
X40986698Y-26677000D01*
X41494273Y-26466755D01*
X41882755Y-26078273D01*
X42093000Y-25570698D01*
X42093000Y-25021302D01*
X43831000Y-25021302D01*
X43831000Y-25570698D01*
X44041245Y-26078273D01*
X44429727Y-26466755D01*
X44937302Y-26677000D01*
X45486698Y-26677000D01*
X45994273Y-26466755D01*
X46382755Y-26078273D01*
X46593000Y-25570698D01*
X46593000Y-25021302D01*
X46382755Y-24513727D01*
X45994273Y-24125245D01*
X45486698Y-23915000D01*
X44937302Y-23915000D01*
X44429727Y-24125245D01*
X44041245Y-24513727D01*
X43831000Y-25021302D01*
X42093000Y-25021302D01*
X41882755Y-24513727D01*
X41494273Y-24125245D01*
X41169200Y-23990595D01*
X41169200Y-20101405D01*
X41494273Y-19966755D01*
X41882755Y-19578273D01*
X42093000Y-19070698D01*
X42093000Y-18521302D01*
X43831000Y-18521302D01*
X43831000Y-19070698D01*
X44041245Y-19578273D01*
X44429727Y-19966755D01*
X44937302Y-20177000D01*
X45486698Y-20177000D01*
X45994273Y-19966755D01*
X46382755Y-19578273D01*
X46593000Y-19070698D01*
X46593000Y-18521302D01*
X46382755Y-18013727D01*
X45994273Y-17625245D01*
X45486698Y-17415000D01*
X44937302Y-17415000D01*
X44429727Y-17625245D01*
X44041245Y-18013727D01*
X43831000Y-18521302D01*
X42093000Y-18521302D01*
X41882755Y-18013727D01*
X41494273Y-17625245D01*
X40986698Y-17415000D01*
X40437302Y-17415000D01*
X39929727Y-17625245D01*
X39541245Y-18013727D01*
X39331000Y-18521302D01*
X39331000Y-19070698D01*
X39541245Y-19578273D01*
X39625697Y-19662725D01*
X38924886Y-20363536D01*
X38157999Y-20363536D01*
X37913670Y-20412136D01*
X37706537Y-20550537D01*
X37568136Y-20757670D01*
X37519536Y-21001999D01*
X37519536Y-21652001D01*
X37568136Y-21896330D01*
X37706537Y-22103463D01*
X37801627Y-22167000D01*
X37781690Y-22167000D01*
X37548301Y-22263673D01*
X37369673Y-22442302D01*
X37273000Y-22675691D01*
X36623905Y-22675691D01*
X36414202Y-22588830D01*
X36085798Y-22588830D01*
X35782392Y-22714504D01*
X35550174Y-22946722D01*
X35424500Y-23250128D01*
X35424500Y-23578532D01*
X35550174Y-23881938D01*
X35742000Y-24073764D01*
X35742001Y-27775637D01*
X35467727Y-27889245D01*
X35079245Y-28277727D01*
X34869000Y-28785302D01*
X33131000Y-28785302D01*
X32920755Y-28277727D01*
X32532273Y-27889245D01*
X32024698Y-27679000D01*
X31475302Y-27679000D01*
X30967727Y-27889245D01*
X30579245Y-28277727D01*
X30369000Y-28785302D01*
X30369000Y-28888580D01*
X28724257Y-27243837D01*
X28695917Y-27201423D01*
X28527882Y-27089145D01*
X28379702Y-27059670D01*
X28379698Y-27059670D01*
X28329670Y-27049719D01*
X28279642Y-27059670D01*
X27524091Y-27059670D01*
X27245421Y-26781000D01*
X27634698Y-26781000D01*
X28142273Y-26570755D01*
X28530755Y-26182273D01*
X28741000Y-25674698D01*
X28741000Y-25125302D01*
X28530755Y-24617727D01*
X28142273Y-24229245D01*
X27868000Y-24115637D01*
X27868000Y-22646750D01*
X28383000Y-22646750D01*
X28383000Y-23062309D01*
X28479673Y-23295698D01*
X28658301Y-23474327D01*
X28891690Y-23571000D01*
X29432250Y-23571000D01*
X29591000Y-23412250D01*
X29591000Y-22488000D01*
X29845000Y-22488000D01*
X29845000Y-23412250D01*
X30003750Y-23571000D01*
X30544310Y-23571000D01*
X30777699Y-23474327D01*
X30956327Y-23295698D01*
X31053000Y-23062309D01*
X31053000Y-22646750D01*
X30894250Y-22488000D01*
X29845000Y-22488000D01*
X29591000Y-22488000D01*
X28541750Y-22488000D01*
X28383000Y-22646750D01*
X27868000Y-22646750D01*
X27868000Y-20184363D01*
X27959771Y-20146350D01*
X28415870Y-20602449D01*
X28441377Y-20640623D01*
X28479551Y-20666130D01*
X28592609Y-20741673D01*
X28652943Y-20753674D01*
X28678136Y-20880330D01*
X28816537Y-21087463D01*
X28911627Y-21151000D01*
X28891690Y-21151000D01*
X28658301Y-21247673D01*
X28479673Y-21426302D01*
X28383000Y-21659691D01*
X28383000Y-22075250D01*
X28541750Y-22234000D01*
X29591000Y-22234000D01*
X29591000Y-22214000D01*
X29845000Y-22214000D01*
X29845000Y-22234000D01*
X30894250Y-22234000D01*
X31053000Y-22075250D01*
X31053000Y-21659691D01*
X30956327Y-21426302D01*
X30777699Y-21247673D01*
X30544310Y-21151000D01*
X30524373Y-21151000D01*
X30619463Y-21087463D01*
X30757864Y-20880330D01*
X30806464Y-20636001D01*
X30806464Y-19985999D01*
X30757864Y-19741670D01*
X30619463Y-19534537D01*
X30412330Y-19396136D01*
X30168001Y-19347536D01*
X29267999Y-19347536D01*
X29023670Y-19396136D01*
X28816537Y-19534537D01*
X28746273Y-19639695D01*
X28606350Y-19499771D01*
X28741000Y-19174698D01*
X28741000Y-18625302D01*
X28530755Y-18117727D01*
X28142273Y-17729245D01*
X27868000Y-17615637D01*
X27868000Y-15998482D01*
X28029798Y-16065500D01*
X28358202Y-16065500D01*
X28661608Y-15939826D01*
X28893826Y-15707608D01*
X28965425Y-15534750D01*
X29145000Y-15534750D01*
X29145000Y-15950309D01*
X29241673Y-16183698D01*
X29420301Y-16362327D01*
X29653690Y-16459000D01*
X30194250Y-16459000D01*
X30353000Y-16300250D01*
X30353000Y-15376000D01*
X29303750Y-15376000D01*
X29145000Y-15534750D01*
X28965425Y-15534750D01*
X29019500Y-15404202D01*
X29019500Y-15075798D01*
X28893826Y-14772392D01*
X28661608Y-14540174D01*
X28358202Y-14414500D01*
X28029798Y-14414500D01*
X27868000Y-14481518D01*
X27868000Y-13458482D01*
X28029798Y-13525500D01*
X28358202Y-13525500D01*
X28661608Y-13399826D01*
X28893826Y-13167608D01*
X29019500Y-12864202D01*
X29019500Y-12535798D01*
X29015189Y-12525390D01*
X29692848Y-11847731D01*
X29731022Y-11822224D01*
X29832072Y-11670992D01*
X29837490Y-11643753D01*
X29867556Y-11492602D01*
X29858599Y-11447572D01*
X29858599Y-8685303D01*
X29972001Y-8761076D01*
X29972001Y-9275967D01*
X29962049Y-9326000D01*
X30001475Y-9524211D01*
X30085412Y-9649832D01*
X30085415Y-9649835D01*
X30113754Y-9692247D01*
X30156166Y-9720586D01*
X30554608Y-10119028D01*
X30441000Y-10393302D01*
X30441000Y-10942698D01*
X30554608Y-11216972D01*
X30156166Y-11615414D01*
X30113754Y-11643753D01*
X30085415Y-11686165D01*
X30085412Y-11686168D01*
X30001475Y-11811789D01*
X29962049Y-12010000D01*
X29972001Y-12060032D01*
X29972001Y-12247073D01*
X29785670Y-12284136D01*
X29578537Y-12422537D01*
X29440136Y-12629670D01*
X29391536Y-12873999D01*
X29391536Y-13524001D01*
X29440136Y-13768330D01*
X29578537Y-13975463D01*
X29673627Y-14039000D01*
X29653690Y-14039000D01*
X29420301Y-14135673D01*
X29241673Y-14314302D01*
X29145000Y-14547691D01*
X29145000Y-14963250D01*
X29303750Y-15122000D01*
X30353000Y-15122000D01*
X30353000Y-15102000D01*
X30607000Y-15102000D01*
X30607000Y-15122000D01*
X30627000Y-15122000D01*
X30627000Y-15376000D01*
X30607000Y-15376000D01*
X30607000Y-16300250D01*
X30671861Y-16365111D01*
X30651245Y-16385727D01*
X30441000Y-16893302D01*
X30441000Y-17442698D01*
X30651245Y-17950273D01*
X31039727Y-18338755D01*
X31547302Y-18549000D01*
X32096698Y-18549000D01*
X32604273Y-18338755D01*
X32992755Y-17950273D01*
X33203000Y-17442698D01*
X33203000Y-16893302D01*
X34941000Y-16893302D01*
X34941000Y-17442698D01*
X35151245Y-17950273D01*
X35539727Y-18338755D01*
X36047302Y-18549000D01*
X36596698Y-18549000D01*
X37104273Y-18338755D01*
X37492755Y-17950273D01*
X37703000Y-17442698D01*
X37703000Y-16893302D01*
X37492755Y-16385727D01*
X37104273Y-15997245D01*
X36596698Y-15787000D01*
X36047302Y-15787000D01*
X35539727Y-15997245D01*
X35151245Y-16385727D01*
X34941000Y-16893302D01*
X33203000Y-16893302D01*
X32992755Y-16385727D01*
X32604273Y-15997245D01*
X32330000Y-15883637D01*
X32330000Y-11952363D01*
X32604273Y-11838755D01*
X32992755Y-11450273D01*
X33203000Y-10942698D01*
X33203000Y-10393302D01*
X34941000Y-10393302D01*
X34941000Y-10942698D01*
X35151245Y-11450273D01*
X35539727Y-11838755D01*
X36047302Y-12049000D01*
X36596698Y-12049000D01*
X37104273Y-11838755D01*
X37492755Y-11450273D01*
X37703000Y-10942698D01*
X37703000Y-10393302D01*
X37492755Y-9885727D01*
X37104273Y-9497245D01*
X36596698Y-9287000D01*
X36047302Y-9287000D01*
X35539727Y-9497245D01*
X35151245Y-9885727D01*
X34941000Y-10393302D01*
X33203000Y-10393302D01*
X32992755Y-9885727D01*
X32604273Y-9497245D01*
X32096698Y-9287000D01*
X31547302Y-9287000D01*
X31273028Y-9400608D01*
X30988000Y-9115580D01*
X30988000Y-8761075D01*
X31367501Y-8507501D01*
X31639576Y-8100312D01*
X31735116Y-7620000D01*
X31764884Y-7620000D01*
X31860424Y-8100312D01*
X32132499Y-8507501D01*
X32539688Y-8779576D01*
X32898761Y-8851000D01*
X33141239Y-8851000D01*
X33500312Y-8779576D01*
X33907501Y-8507501D01*
X34179576Y-8100312D01*
X34275116Y-7620000D01*
X34179576Y-7139688D01*
X33907501Y-6732499D01*
X33500312Y-6460424D01*
X33141239Y-6389000D01*
X32898761Y-6389000D01*
X32539688Y-6460424D01*
X32132499Y-6732499D01*
X31860424Y-7139688D01*
X31764884Y-7620000D01*
X31735116Y-7620000D01*
X31639576Y-7139688D01*
X31367501Y-6732499D01*
X30960312Y-6460424D01*
X30601239Y-6389000D01*
X30358761Y-6389000D01*
X29999688Y-6460424D01*
X29858599Y-6554697D01*
X29858599Y-6347979D01*
X29980094Y-6226484D01*
X29999688Y-6239576D01*
X30358761Y-6311000D01*
X30601239Y-6311000D01*
X30960312Y-6239576D01*
X31367501Y-5967501D01*
X31639576Y-5560312D01*
X31735116Y-5080000D01*
X31764884Y-5080000D01*
X31860424Y-5560312D01*
X32132499Y-5967501D01*
X32539688Y-6239576D01*
X32898761Y-6311000D01*
X33141239Y-6311000D01*
X33500312Y-6239576D01*
X33907501Y-5967501D01*
X34179576Y-5560312D01*
X34275116Y-5080000D01*
X34179576Y-4599688D01*
X33907501Y-4192499D01*
X33500312Y-3920424D01*
X33141239Y-3849000D01*
X32898761Y-3849000D01*
X32539688Y-3920424D01*
X32132499Y-4192499D01*
X31860424Y-4599688D01*
X31764884Y-5080000D01*
X31735116Y-5080000D01*
X31639576Y-4599688D01*
X31367501Y-4192499D01*
X30960312Y-3920424D01*
X30601239Y-3849000D01*
X30358761Y-3849000D01*
X29999688Y-3920424D01*
X29592499Y-4192499D01*
X29320424Y-4599688D01*
X29224884Y-5080000D01*
X29320424Y-5560312D01*
X29333516Y-5579906D01*
X29210000Y-5703421D01*
X29086484Y-5579905D01*
X29099576Y-5560312D01*
X29195116Y-5080000D01*
X29099576Y-4599688D01*
X28827501Y-4192499D01*
X28420312Y-3920424D01*
X28061239Y-3849000D01*
X27818761Y-3849000D01*
X27459688Y-3920424D01*
X27052499Y-4192499D01*
X26780424Y-4599688D01*
X26684884Y-5080000D01*
X26780424Y-5560312D01*
X27052499Y-5967501D01*
X27459688Y-6239576D01*
X27818761Y-6311000D01*
X28061239Y-6311000D01*
X28420312Y-6239576D01*
X28439905Y-6226484D01*
X28561401Y-6347980D01*
X28561401Y-6554697D01*
X28420312Y-6460424D01*
X28061239Y-6389000D01*
X27818761Y-6389000D01*
X27459688Y-6460424D01*
X27052499Y-6732499D01*
X26780424Y-7139688D01*
X26684884Y-7620000D01*
X26780424Y-8100312D01*
X27052499Y-8507501D01*
X27432001Y-8761076D01*
X27432001Y-8861578D01*
X27036166Y-9257414D01*
X26993754Y-9285753D01*
X26965415Y-9328165D01*
X26965412Y-9328168D01*
X26881475Y-9453789D01*
X26842049Y-9652000D01*
X26852001Y-9702033D01*
X26852000Y-17615637D01*
X26577727Y-17729245D01*
X26189245Y-18117727D01*
X25979000Y-18625302D01*
X25979000Y-19174698D01*
X26189245Y-19682273D01*
X26577727Y-20070755D01*
X26852001Y-20184363D01*
X26852001Y-20264177D01*
X26852000Y-20264182D01*
X26852001Y-24115637D01*
X26577727Y-24229245D01*
X26189245Y-24617727D01*
X25979000Y-25125302D01*
X25979000Y-25514580D01*
X25908000Y-25443580D01*
X25908000Y-18102301D01*
X25878525Y-17954121D01*
X25766247Y-17786086D01*
X25615576Y-17685411D01*
X25120600Y-17190435D01*
X25120600Y-16017784D01*
X25235798Y-16065500D01*
X25564202Y-16065500D01*
X25867608Y-15939826D01*
X26099826Y-15707608D01*
X26225500Y-15404202D01*
X26225500Y-15075798D01*
X26099826Y-14772392D01*
X25908000Y-14580566D01*
X25908000Y-8761075D01*
X26287501Y-8507501D01*
X26559576Y-8100312D01*
X26655116Y-7620000D01*
X26559576Y-7139688D01*
X26287501Y-6732499D01*
X25880312Y-6460424D01*
X25521239Y-6389000D01*
X25278761Y-6389000D01*
X25007201Y-6443017D01*
X25007201Y-6256983D01*
X25278761Y-6311000D01*
X25521239Y-6311000D01*
X25880312Y-6239576D01*
X26287501Y-5967501D01*
X26559576Y-5560312D01*
X26655116Y-5080000D01*
X26559576Y-4599688D01*
X26287501Y-4192499D01*
X25880312Y-3920424D01*
X25521239Y-3849000D01*
X25278761Y-3849000D01*
X24919688Y-3920424D01*
X24512499Y-4192499D01*
X24240424Y-4599688D01*
X24144884Y-5080000D01*
X24240424Y-5560312D01*
X24252744Y-5578750D01*
X24220378Y-5600376D01*
X24158861Y-5692444D01*
X24142904Y-5716325D01*
X24006484Y-5579905D01*
X24019576Y-5560312D01*
X24115116Y-5080000D01*
X24019576Y-4599688D01*
X23747501Y-4192499D01*
X23340312Y-3920424D01*
X22981239Y-3849000D01*
X22738761Y-3849000D01*
X22379688Y-3920424D01*
X21972499Y-4192499D01*
X21702245Y-4596963D01*
X21515183Y-4198642D01*
X21086924Y-3808355D01*
X20676890Y-3638524D01*
X20447000Y-3759845D01*
X20447000Y-4953000D01*
X20467000Y-4953000D01*
X20467000Y-5207000D01*
X20447000Y-5207000D01*
X20447000Y-7493000D01*
X20467000Y-7493000D01*
X20467000Y-7747000D01*
X20447000Y-7747000D01*
X20447000Y-8946250D01*
X20605750Y-9105000D01*
X21296310Y-9105000D01*
X21529699Y-9008327D01*
X21708327Y-8829698D01*
X21805000Y-8596309D01*
X21805000Y-8256821D01*
X21972499Y-8507501D01*
X22352001Y-8761076D01*
X22352000Y-15290031D01*
X22352001Y-15290035D01*
X22352000Y-15537579D01*
X21887596Y-16001983D01*
X21909000Y-15950309D01*
X21909000Y-15534750D01*
X21750250Y-15376000D01*
X20701000Y-15376000D01*
X20701000Y-16300250D01*
X20859750Y-16459000D01*
X21400310Y-16459000D01*
X21451983Y-16437596D01*
X18218166Y-19671414D01*
X18175754Y-19699753D01*
X18147415Y-19742165D01*
X18147412Y-19742168D01*
X18063475Y-19867789D01*
X18024049Y-20066000D01*
X18034001Y-20116033D01*
X18034000Y-27383933D01*
X17991475Y-27447576D01*
X17952049Y-27645787D01*
X17962001Y-27695820D01*
X17962001Y-27775637D01*
X17687727Y-27889245D01*
X17299245Y-28277727D01*
X17089000Y-28785302D01*
X15351000Y-28785302D01*
X15140755Y-28277727D01*
X14752273Y-27889245D01*
X14244698Y-27679000D01*
X13695302Y-27679000D01*
X13187727Y-27889245D01*
X12799245Y-28277727D01*
X12589000Y-28785302D01*
X127000Y-28785302D01*
X127000Y-16997302D01*
X12589000Y-16997302D01*
X12589000Y-17546698D01*
X12799245Y-18054273D01*
X13187727Y-18442755D01*
X13695302Y-18653000D01*
X14244698Y-18653000D01*
X14752273Y-18442755D01*
X15140755Y-18054273D01*
X15351000Y-17546698D01*
X15351000Y-16997302D01*
X15140755Y-16489727D01*
X14752273Y-16101245D01*
X14244698Y-15891000D01*
X13695302Y-15891000D01*
X13187727Y-16101245D01*
X12799245Y-16489727D01*
X12589000Y-16997302D01*
X127000Y-16997302D01*
X127000Y-10497302D01*
X12589000Y-10497302D01*
X12589000Y-11046698D01*
X12799245Y-11554273D01*
X13187727Y-11942755D01*
X13695302Y-12153000D01*
X14244698Y-12153000D01*
X14752273Y-11942755D01*
X15140755Y-11554273D01*
X15351000Y-11046698D01*
X15351000Y-10497302D01*
X17089000Y-10497302D01*
X17089000Y-11046698D01*
X17299245Y-11554273D01*
X17687727Y-11942755D01*
X18012801Y-12077405D01*
X18012800Y-15902816D01*
X18012801Y-15902821D01*
X18012801Y-15966595D01*
X17687727Y-16101245D01*
X17299245Y-16489727D01*
X17089000Y-16997302D01*
X17089000Y-17546698D01*
X17299245Y-18054273D01*
X17687727Y-18442755D01*
X18195302Y-18653000D01*
X18744698Y-18653000D01*
X19252273Y-18442755D01*
X19640755Y-18054273D01*
X19851000Y-17546698D01*
X19851000Y-16997302D01*
X19640755Y-16489727D01*
X19252273Y-16101245D01*
X18927200Y-15966595D01*
X18927200Y-15534750D01*
X19239000Y-15534750D01*
X19239000Y-15950309D01*
X19335673Y-16183698D01*
X19514301Y-16362327D01*
X19747690Y-16459000D01*
X20288250Y-16459000D01*
X20447000Y-16300250D01*
X20447000Y-15376000D01*
X19397750Y-15376000D01*
X19239000Y-15534750D01*
X18927200Y-15534750D01*
X18927200Y-12198778D01*
X19504928Y-12776507D01*
X19485536Y-12873999D01*
X19485536Y-13524001D01*
X19534136Y-13768330D01*
X19672537Y-13975463D01*
X19767627Y-14039000D01*
X19747690Y-14039000D01*
X19514301Y-14135673D01*
X19335673Y-14314302D01*
X19239000Y-14547691D01*
X19239000Y-14963250D01*
X19397750Y-15122000D01*
X20447000Y-15122000D01*
X20447000Y-15102000D01*
X20701000Y-15102000D01*
X20701000Y-15122000D01*
X21750250Y-15122000D01*
X21909000Y-14963250D01*
X21909000Y-14547691D01*
X21812327Y-14314302D01*
X21633699Y-14135673D01*
X21400310Y-14039000D01*
X21380373Y-14039000D01*
X21475463Y-13975463D01*
X21613864Y-13768330D01*
X21662464Y-13524001D01*
X21662464Y-12873999D01*
X21613864Y-12629670D01*
X21475463Y-12422537D01*
X21268330Y-12284136D01*
X21024001Y-12235536D01*
X20257115Y-12235536D01*
X19608303Y-11586725D01*
X19640755Y-11554273D01*
X19851000Y-11046698D01*
X19851000Y-10497302D01*
X19640755Y-9989727D01*
X19252273Y-9601245D01*
X18744698Y-9391000D01*
X18195302Y-9391000D01*
X17687727Y-9601245D01*
X17299245Y-9989727D01*
X17089000Y-10497302D01*
X15351000Y-10497302D01*
X15140755Y-9989727D01*
X14752273Y-9601245D01*
X14244698Y-9391000D01*
X13695302Y-9391000D01*
X13187727Y-9601245D01*
X12799245Y-9989727D01*
X12589000Y-10497302D01*
X127000Y-10497302D01*
X127000Y-7905750D01*
X18835000Y-7905750D01*
X18835000Y-8596309D01*
X18931673Y-8829698D01*
X19110301Y-9008327D01*
X19343690Y-9105000D01*
X20034250Y-9105000D01*
X20193000Y-8946250D01*
X20193000Y-7747000D01*
X18993750Y-7747000D01*
X18835000Y-7905750D01*
X127000Y-7905750D01*
X127000Y-3359992D01*
X578025Y-2969104D01*
X444000Y-3292668D01*
X444000Y-4707332D01*
X985369Y-6014312D01*
X1985688Y-7014631D01*
X3292668Y-7556000D01*
X4707332Y-7556000D01*
X6014312Y-7014631D01*
X6385252Y-6643691D01*
X18835000Y-6643691D01*
X18835000Y-7334250D01*
X18993750Y-7493000D01*
X20193000Y-7493000D01*
X20193000Y-5207000D01*
X18999181Y-5207000D01*
X18878514Y-5436892D01*
X19124817Y-5961358D01*
X19324208Y-6143070D01*
X19110301Y-6231673D01*
X18931673Y-6410302D01*
X18835000Y-6643691D01*
X6385252Y-6643691D01*
X7014631Y-6014312D01*
X7549465Y-4723108D01*
X18878514Y-4723108D01*
X18999181Y-4953000D01*
X20193000Y-4953000D01*
X20193000Y-3759845D01*
X19963110Y-3638524D01*
X19553076Y-3808355D01*
X19124817Y-4198642D01*
X18878514Y-4723108D01*
X7549465Y-4723108D01*
X7556000Y-4707332D01*
X7556000Y-3292668D01*
X7014631Y-1985688D01*
X6014312Y-985369D01*
X4707332Y-444000D01*
X3491607Y-444000D01*
X3857376Y-127000D01*
X45159394Y-127000D01*
X45476394Y-444000D01*
G04 #@! TD*
M02*
