G04 #@! TF.GenerationSoftware,KiCad,Pcbnew,(5.0.2)-1*
G04 #@! TF.CreationDate,2019-09-26T13:37:58-04:00*
G04 #@! TF.ProjectId,JoyPad,4a6f7950-6164-42e6-9b69-6361645f7063,X1*
G04 #@! TF.SameCoordinates,Original*
G04 #@! TF.FileFunction,Legend,Bot*
G04 #@! TF.FilePolarity,Positive*
%FSLAX46Y46*%
G04 Gerber Fmt 4.6, Leading zero omitted, Abs format (unit mm)*
G04 Created by KiCad (PCBNEW (5.0.2)-1) date 9/26/2019 1:37:58 PM*
%MOMM*%
%LPD*%
G01*
G04 APERTURE LIST*
%ADD10C,0.381000*%
%ADD11C,0.120000*%
%ADD12C,0.650000*%
%ADD13C,0.150000*%
%ADD14C,0.304800*%
G04 APERTURE END LIST*
D10*
X17586778Y-42422535D02*
X17586778Y-40517535D01*
X16861064Y-40517535D01*
X16679635Y-40608250D01*
X16588921Y-40698964D01*
X16498207Y-40880392D01*
X16498207Y-41152535D01*
X16588921Y-41333964D01*
X16679635Y-41424678D01*
X16861064Y-41515392D01*
X17586778Y-41515392D01*
X15863207Y-40517535D02*
X15409635Y-42422535D01*
X15046778Y-41061821D01*
X14683921Y-42422535D01*
X14230350Y-40517535D01*
X12869635Y-41424678D02*
X12597492Y-41515392D01*
X12506778Y-41606107D01*
X12416064Y-41787535D01*
X12416064Y-42059678D01*
X12506778Y-42241107D01*
X12597492Y-42331821D01*
X12778921Y-42422535D01*
X13504635Y-42422535D01*
X13504635Y-40517535D01*
X12869635Y-40517535D01*
X12688207Y-40608250D01*
X12597492Y-40698964D01*
X12506778Y-40880392D01*
X12506778Y-41061821D01*
X12597492Y-41243250D01*
X12688207Y-41333964D01*
X12869635Y-41424678D01*
X13504635Y-41424678D01*
X16498207Y-45661035D02*
X17133207Y-44753892D01*
X17586778Y-45661035D02*
X17586778Y-43756035D01*
X16861064Y-43756035D01*
X16679635Y-43846750D01*
X16588921Y-43937464D01*
X16498207Y-44118892D01*
X16498207Y-44391035D01*
X16588921Y-44572464D01*
X16679635Y-44663178D01*
X16861064Y-44753892D01*
X17586778Y-44753892D01*
X14956064Y-45570321D02*
X15137492Y-45661035D01*
X15500350Y-45661035D01*
X15681778Y-45570321D01*
X15772492Y-45388892D01*
X15772492Y-44663178D01*
X15681778Y-44481750D01*
X15500350Y-44391035D01*
X15137492Y-44391035D01*
X14956064Y-44481750D01*
X14865350Y-44663178D01*
X14865350Y-44844607D01*
X15772492Y-45026035D01*
X14230350Y-44391035D02*
X13776778Y-45661035D01*
X13323207Y-44391035D01*
X10148207Y-45661035D02*
X11236778Y-45661035D01*
X10692492Y-45661035D02*
X10692492Y-43756035D01*
X10873921Y-44028178D01*
X11055350Y-44209607D01*
X11236778Y-44300321D01*
X5837464Y-36621357D02*
X5928178Y-36802785D01*
X6109607Y-36893500D01*
X7742464Y-36893500D01*
X5837464Y-35079214D02*
X6835321Y-35079214D01*
X7016749Y-35169928D01*
X7107464Y-35351357D01*
X7107464Y-35714214D01*
X7016749Y-35895642D01*
X5928178Y-35079214D02*
X5837464Y-35260642D01*
X5837464Y-35714214D01*
X5928178Y-35895642D01*
X6109607Y-35986357D01*
X6291035Y-35986357D01*
X6472464Y-35895642D01*
X6563178Y-35714214D01*
X6563178Y-35260642D01*
X6653892Y-35079214D01*
X7107464Y-34172071D02*
X5837464Y-34172071D01*
X6926035Y-34172071D02*
X7016749Y-34081357D01*
X7107464Y-33899928D01*
X7107464Y-33627785D01*
X7016749Y-33446357D01*
X6835321Y-33355642D01*
X5837464Y-33355642D01*
X5837464Y-31632071D02*
X7742464Y-31632071D01*
X5928178Y-31632071D02*
X5837464Y-31813500D01*
X5837464Y-32176357D01*
X5928178Y-32357785D01*
X6018892Y-32448500D01*
X6200321Y-32539214D01*
X6744607Y-32539214D01*
X6926035Y-32448500D01*
X7016749Y-32357785D01*
X7107464Y-32176357D01*
X7107464Y-31813500D01*
X7016749Y-31632071D01*
X6563178Y-30724928D02*
X6563178Y-29273500D01*
X5837464Y-28366357D02*
X7742464Y-28366357D01*
X7016749Y-28366357D02*
X7107464Y-28184928D01*
X7107464Y-27822071D01*
X7016749Y-27640642D01*
X6926035Y-27549928D01*
X6744607Y-27459214D01*
X6200321Y-27459214D01*
X6018892Y-27549928D01*
X5928178Y-27640642D01*
X5837464Y-27822071D01*
X5837464Y-28184928D01*
X5928178Y-28366357D01*
X5837464Y-26370642D02*
X5928178Y-26552071D01*
X6018892Y-26642785D01*
X6200321Y-26733500D01*
X6744607Y-26733500D01*
X6926035Y-26642785D01*
X7016750Y-26552071D01*
X7107464Y-26370642D01*
X7107464Y-26098500D01*
X7016750Y-25917071D01*
X6926035Y-25826357D01*
X6744607Y-25735642D01*
X6200321Y-25735642D01*
X6018892Y-25826357D01*
X5928178Y-25917071D01*
X5837464Y-26098500D01*
X5837464Y-26370642D01*
X5837464Y-24102785D02*
X6835321Y-24102785D01*
X7016750Y-24193500D01*
X7107464Y-24374928D01*
X7107464Y-24737785D01*
X7016750Y-24919214D01*
X5928178Y-24102785D02*
X5837464Y-24284214D01*
X5837464Y-24737785D01*
X5928178Y-24919214D01*
X6109607Y-25009928D01*
X6291035Y-25009928D01*
X6472464Y-24919214D01*
X6563178Y-24737785D01*
X6563178Y-24284214D01*
X6653892Y-24102785D01*
X5837464Y-23195642D02*
X7107464Y-23195642D01*
X6744607Y-23195642D02*
X6926035Y-23104928D01*
X7016750Y-23014214D01*
X7107464Y-22832785D01*
X7107464Y-22651357D01*
X5837464Y-21199928D02*
X7742464Y-21199928D01*
X5928178Y-21199928D02*
X5837464Y-21381357D01*
X5837464Y-21744214D01*
X5928178Y-21925642D01*
X6018892Y-22016357D01*
X6200321Y-22107071D01*
X6744607Y-22107071D01*
X6926035Y-22016357D01*
X7016750Y-21925642D01*
X7107464Y-21744214D01*
X7107464Y-21381357D01*
X7016750Y-21199928D01*
X5928178Y-20383500D02*
X5837464Y-20202071D01*
X5837464Y-19839214D01*
X5928178Y-19657785D01*
X6109607Y-19567071D01*
X6200321Y-19567071D01*
X6381750Y-19657785D01*
X6472464Y-19839214D01*
X6472464Y-20111357D01*
X6563178Y-20292785D01*
X6744607Y-20383500D01*
X6835321Y-20383500D01*
X7016750Y-20292785D01*
X7107464Y-20111357D01*
X7107464Y-19839214D01*
X7016750Y-19657785D01*
X6018892Y-18750642D02*
X5928178Y-18659928D01*
X5837464Y-18750642D01*
X5928178Y-18841357D01*
X6018892Y-18750642D01*
X5837464Y-18750642D01*
X5928178Y-17027071D02*
X5837464Y-17208500D01*
X5837464Y-17571357D01*
X5928178Y-17752785D01*
X6018892Y-17843500D01*
X6200321Y-17934214D01*
X6744607Y-17934214D01*
X6926035Y-17843500D01*
X7016750Y-17752785D01*
X7107464Y-17571357D01*
X7107464Y-17208500D01*
X7016750Y-17027071D01*
X5837464Y-15938500D02*
X5928178Y-16119928D01*
X6018892Y-16210642D01*
X6200321Y-16301357D01*
X6744607Y-16301357D01*
X6926035Y-16210642D01*
X7016750Y-16119928D01*
X7107464Y-15938500D01*
X7107464Y-15666357D01*
X7016750Y-15484928D01*
X6926035Y-15394214D01*
X6744607Y-15303500D01*
X6200321Y-15303500D01*
X6018892Y-15394214D01*
X5928178Y-15484928D01*
X5837464Y-15666357D01*
X5837464Y-15938500D01*
X5837464Y-14487071D02*
X7107464Y-14487071D01*
X6926035Y-14487071D02*
X7016750Y-14396357D01*
X7107464Y-14214928D01*
X7107464Y-13942785D01*
X7016750Y-13761357D01*
X6835321Y-13670642D01*
X5837464Y-13670642D01*
X6835321Y-13670642D02*
X7016750Y-13579928D01*
X7107464Y-13398500D01*
X7107464Y-13126357D01*
X7016750Y-12944928D01*
X6835321Y-12854214D01*
X5837464Y-12854214D01*
X7833178Y-10586357D02*
X5383892Y-12219214D01*
X2598964Y-31586714D02*
X4503964Y-31586714D01*
X2598964Y-30498142D02*
X3687535Y-31314571D01*
X4503964Y-30498142D02*
X3415392Y-31586714D01*
X2689678Y-28956000D02*
X2598964Y-29137428D01*
X2598964Y-29500285D01*
X2689678Y-29681714D01*
X2871107Y-29772428D01*
X3596821Y-29772428D01*
X3778249Y-29681714D01*
X3868964Y-29500285D01*
X3868964Y-29137428D01*
X3778249Y-28956000D01*
X3596821Y-28865285D01*
X3415392Y-28865285D01*
X3233964Y-29772428D01*
X3868964Y-28230285D02*
X2598964Y-27776714D01*
X3868964Y-27323142D02*
X2598964Y-27776714D01*
X2145392Y-27958142D01*
X2054678Y-28048857D01*
X1963964Y-28230285D01*
X2598964Y-26597428D02*
X4503964Y-26597428D01*
X4503964Y-25871714D01*
X4413250Y-25690285D01*
X4322535Y-25599571D01*
X4141107Y-25508857D01*
X3868964Y-25508857D01*
X3687535Y-25599571D01*
X3596821Y-25690285D01*
X3506107Y-25871714D01*
X3506107Y-26597428D01*
X2598964Y-23876000D02*
X3596821Y-23876000D01*
X3778250Y-23966714D01*
X3868964Y-24148142D01*
X3868964Y-24511000D01*
X3778250Y-24692428D01*
X2689678Y-23876000D02*
X2598964Y-24057428D01*
X2598964Y-24511000D01*
X2689678Y-24692428D01*
X2871107Y-24783142D01*
X3052535Y-24783142D01*
X3233964Y-24692428D01*
X3324678Y-24511000D01*
X3324678Y-24057428D01*
X3415392Y-23876000D01*
X2598964Y-22152428D02*
X4503964Y-22152428D01*
X2689678Y-22152428D02*
X2598964Y-22333857D01*
X2598964Y-22696714D01*
X2689678Y-22878142D01*
X2780392Y-22968857D01*
X2961821Y-23059571D01*
X3506107Y-23059571D01*
X3687535Y-22968857D01*
X3778250Y-22878142D01*
X3868964Y-22696714D01*
X3868964Y-22333857D01*
X3778250Y-22152428D01*
X3324678Y-21245285D02*
X3324678Y-19793857D01*
X4503964Y-18523857D02*
X4503964Y-18342428D01*
X4413250Y-18161000D01*
X4322535Y-18070285D01*
X4141107Y-17979571D01*
X3778250Y-17888857D01*
X3324678Y-17888857D01*
X2961821Y-17979571D01*
X2780392Y-18070285D01*
X2689678Y-18161000D01*
X2598964Y-18342428D01*
X2598964Y-18523857D01*
X2689678Y-18705285D01*
X2780392Y-18796000D01*
X2961821Y-18886714D01*
X3324678Y-18977428D01*
X3778250Y-18977428D01*
X4141107Y-18886714D01*
X4322535Y-18796000D01*
X4413250Y-18705285D01*
X4503964Y-18523857D01*
X2598964Y-16074571D02*
X2598964Y-17163142D01*
X2598964Y-16618857D02*
X4503964Y-16618857D01*
X4231821Y-16800285D01*
X4050392Y-16981714D01*
X3959678Y-17163142D01*
D11*
G04 #@! TO.C,J1*
X19110000Y5010000D02*
X19110000Y-3620000D01*
X19228095Y5010000D02*
X19228095Y-3620000D01*
X19346190Y5010000D02*
X19346190Y-3620000D01*
X19464285Y5010000D02*
X19464285Y-3620000D01*
X19582380Y5010000D02*
X19582380Y-3620000D01*
X19700475Y5010000D02*
X19700475Y-3620000D01*
X19818570Y5010000D02*
X19818570Y-3620000D01*
X19936665Y5010000D02*
X19936665Y-3620000D01*
X20054760Y5010000D02*
X20054760Y-3620000D01*
X20172855Y5010000D02*
X20172855Y-3620000D01*
X20290950Y5010000D02*
X20290950Y-3620000D01*
X20409045Y5010000D02*
X20409045Y-3620000D01*
X20527140Y5010000D02*
X20527140Y-3620000D01*
X20645235Y5010000D02*
X20645235Y-3620000D01*
X20763330Y5010000D02*
X20763330Y-3620000D01*
X20881425Y5010000D02*
X20881425Y-3620000D01*
X20999520Y5010000D02*
X20999520Y-3620000D01*
X21117615Y5010000D02*
X21117615Y-3620000D01*
X21235710Y5010000D02*
X21235710Y-3620000D01*
X21353805Y5010000D02*
X21353805Y-3620000D01*
X21471900Y5010000D02*
X21471900Y-3620000D01*
X19960000Y-3620000D02*
X19960000Y-4030000D01*
X19960000Y-6130000D02*
X19960000Y-6510000D01*
X20680000Y-3620000D02*
X20680000Y-4030000D01*
X20680000Y-6130000D02*
X20680000Y-6510000D01*
X22500000Y-3620000D02*
X22500000Y-4030000D01*
X22500000Y-6130000D02*
X22500000Y-6570000D01*
X23220000Y-3620000D02*
X23220000Y-4030000D01*
X23220000Y-6130000D02*
X23220000Y-6570000D01*
X25040000Y-3620000D02*
X25040000Y-4030000D01*
X25040000Y-6130000D02*
X25040000Y-6570000D01*
X25760000Y-3620000D02*
X25760000Y-4030000D01*
X25760000Y-6130000D02*
X25760000Y-6570000D01*
X27580000Y-3620000D02*
X27580000Y-4030000D01*
X27580000Y-6130000D02*
X27580000Y-6570000D01*
X28300000Y-3620000D02*
X28300000Y-4030000D01*
X28300000Y-6130000D02*
X28300000Y-6570000D01*
X30120000Y-3620000D02*
X30120000Y-4030000D01*
X30120000Y-6130000D02*
X30120000Y-6570000D01*
X30840000Y-3620000D02*
X30840000Y-4030000D01*
X30840000Y-6130000D02*
X30840000Y-6570000D01*
X32660000Y-3620000D02*
X32660000Y-4030000D01*
X32660000Y-6130000D02*
X32660000Y-6570000D01*
X33380000Y-3620000D02*
X33380000Y-4030000D01*
X33380000Y-6130000D02*
X33380000Y-6570000D01*
X21590000Y5010000D02*
X21590000Y-3620000D01*
X24130000Y5010000D02*
X24130000Y-3620000D01*
X26670000Y5010000D02*
X26670000Y-3620000D01*
X29210000Y5010000D02*
X29210000Y-3620000D01*
X31750000Y5010000D02*
X31750000Y-3620000D01*
X18990000Y5010000D02*
X18990000Y-3620000D01*
X18990000Y-3620000D02*
X34350000Y-3620000D01*
X34350000Y5010000D02*
X34350000Y-3620000D01*
X18990000Y5010000D02*
X34350000Y5010000D01*
X18990000Y-8730000D02*
X20320000Y-8730000D01*
X18990000Y-7620000D02*
X18990000Y-8730000D01*
D12*
G04 #@! TO.C,TEST*
X34322000Y-42450000D02*
X38322000Y-42450000D01*
X38322000Y-42450000D02*
X38322000Y-46450000D01*
X38322000Y-46450000D02*
X34322000Y-46450000D01*
X34322000Y-46450000D02*
X34322000Y-42450000D01*
X34322000Y-42450000D02*
X34322000Y-42950000D01*
X34322000Y-42950000D02*
X38322000Y-42950000D01*
X38322000Y-42950000D02*
X38322000Y-43450000D01*
X38322000Y-43450000D02*
X34322000Y-43450000D01*
X34322000Y-43450000D02*
X34322000Y-43950000D01*
X34322000Y-43950000D02*
X38322000Y-43950000D01*
X38322000Y-43950000D02*
X38322000Y-44450000D01*
X38322000Y-44450000D02*
X34322000Y-44450000D01*
X34322000Y-44450000D02*
X34322000Y-44950000D01*
X34322000Y-44950000D02*
X37822000Y-44950000D01*
X37822000Y-44950000D02*
X38322000Y-44950000D01*
X38322000Y-44950000D02*
X38322000Y-45450000D01*
X38322000Y-45450000D02*
X34322000Y-45450000D01*
X34322000Y-45450000D02*
X34322000Y-45950000D01*
X34322000Y-45950000D02*
X38322000Y-45950000D01*
G04 #@! TO.C,J1*
D13*
X17002380Y-1636666D02*
X17716666Y-1636666D01*
X17859523Y-1589047D01*
X17954761Y-1493809D01*
X18002380Y-1350952D01*
X18002380Y-1255714D01*
X18002380Y-2636666D02*
X18002380Y-2065238D01*
X18002380Y-2350952D02*
X17002380Y-2350952D01*
X17145238Y-2255714D01*
X17240476Y-2160476D01*
X17288095Y-2065238D01*
G04 #@! TO.C,TEST*
D14*
X38753142Y-40115428D02*
X37882285Y-40115428D01*
X38317714Y-41639428D02*
X38317714Y-40115428D01*
X37374285Y-40841142D02*
X36866285Y-40841142D01*
X36648571Y-41639428D02*
X37374285Y-41639428D01*
X37374285Y-40115428D01*
X36648571Y-40115428D01*
X36068000Y-41566857D02*
X35850285Y-41639428D01*
X35487428Y-41639428D01*
X35342285Y-41566857D01*
X35269714Y-41494285D01*
X35197142Y-41349142D01*
X35197142Y-41204000D01*
X35269714Y-41058857D01*
X35342285Y-40986285D01*
X35487428Y-40913714D01*
X35777714Y-40841142D01*
X35922857Y-40768571D01*
X35995428Y-40696000D01*
X36068000Y-40550857D01*
X36068000Y-40405714D01*
X35995428Y-40260571D01*
X35922857Y-40188000D01*
X35777714Y-40115428D01*
X35414857Y-40115428D01*
X35197142Y-40188000D01*
X34761714Y-40115428D02*
X33890857Y-40115428D01*
X34326285Y-41639428D02*
X34326285Y-40115428D01*
G04 #@! TD*
M02*
