M48
;DRILL file {KiCad (5.0.2)-1} date 9/26/2019 1:38:02 PM
;FORMAT={-:-/ absolute / inch / decimal}
FMAT,2
INCH,TZ
T1C0.0250
T2C0.0394
T3C0.0433
T4C0.1250
%
G90
G05
T1
X1.Y-0.6
X1.11Y-0.5
X1.11Y-0.6
X1.13Y-0.39
X1.4272Y-0.9218
T2
X0.8Y-0.2
X0.8Y-0.3
X0.9Y-0.2
X0.9Y-0.3
X1.Y-0.2
X1.Y-0.3
X1.1Y-0.2
X1.1Y-0.3
X1.2Y-0.2
X1.2Y-0.3
X1.3Y-0.2
X1.3Y-0.3
T3
X0.55Y-1.1441
X0.55Y-1.4
X0.7272Y-1.1441
X0.7272Y-1.4
X0.55Y-0.4241
X0.55Y-0.68
X0.7272Y-0.4241
X0.7272Y-0.68
X0.9Y-0.7441
X0.9Y-1.
X1.0772Y-0.7441
X1.0772Y-1.
X0.9Y-1.5441
X0.9Y-1.8
X1.0772Y-1.5441
X1.0772Y-1.8
X1.2528Y-0.42
X1.2528Y-0.6759
X1.43Y-0.42
X1.43Y-0.6759
X1.25Y-1.1441
X1.25Y-1.4
X1.4272Y-1.1441
X1.4272Y-1.4
X1.6028Y-0.74
X1.6028Y-0.9959
X1.78Y-0.74
X1.78Y-0.9959
X0.9Y-1.1441
X0.9Y-1.4
X1.0772Y-1.1441
X1.0772Y-1.4
T4
X0.1575Y-0.1575
X0.1575Y-1.7717
X1.7717Y-0.1575
X1.7717Y-1.7717
T0
M30
