G04 #@! TF.GenerationSoftware,KiCad,Pcbnew,(5.0.2)-1*
G04 #@! TF.CreationDate,2019-09-26T13:37:58-04:00*
G04 #@! TF.ProjectId,JoyPad,4a6f7950-6164-42e6-9b69-6361645f7063,X1*
G04 #@! TF.SameCoordinates,Original*
G04 #@! TF.FileFunction,Soldermask,Bot*
G04 #@! TF.FilePolarity,Negative*
%FSLAX46Y46*%
G04 Gerber Fmt 4.6, Leading zero omitted, Abs format (unit mm)*
G04 Created by KiCad (PCBNEW (5.0.2)-1) date 9/26/2019 1:37:58 PM*
%MOMM*%
%LPD*%
G01*
G04 APERTURE LIST*
%ADD10C,0.150000*%
G04 APERTURE END LIST*
D10*
G36*
X45926112Y-41947013D02*
X46503925Y-42186351D01*
X47023947Y-42533819D01*
X47466181Y-42976053D01*
X47813649Y-43496075D01*
X48052987Y-44073888D01*
X48175000Y-44687288D01*
X48175000Y-45312712D01*
X48052987Y-45926112D01*
X47813649Y-46503925D01*
X47466181Y-47023947D01*
X47023947Y-47466181D01*
X46503925Y-47813649D01*
X45926112Y-48052987D01*
X45312712Y-48175000D01*
X44687288Y-48175000D01*
X44073888Y-48052987D01*
X43496075Y-47813649D01*
X42976053Y-47466181D01*
X42533819Y-47023947D01*
X42186351Y-46503925D01*
X41947013Y-45926112D01*
X41825000Y-45312712D01*
X41825000Y-44687288D01*
X41947013Y-44073888D01*
X42186351Y-43496075D01*
X42533819Y-42976053D01*
X42976053Y-42533819D01*
X43496075Y-42186351D01*
X44073888Y-41947013D01*
X44687288Y-41825000D01*
X45312712Y-41825000D01*
X45926112Y-41947013D01*
X45926112Y-41947013D01*
G37*
G36*
X4926112Y-41947013D02*
X5503925Y-42186351D01*
X6023947Y-42533819D01*
X6466181Y-42976053D01*
X6813649Y-43496075D01*
X7052987Y-44073888D01*
X7175000Y-44687288D01*
X7175000Y-45312712D01*
X7052987Y-45926112D01*
X6813649Y-46503925D01*
X6466181Y-47023947D01*
X6023947Y-47466181D01*
X5503925Y-47813649D01*
X4926112Y-48052987D01*
X4312712Y-48175000D01*
X3687288Y-48175000D01*
X3073888Y-48052987D01*
X2496075Y-47813649D01*
X1976053Y-47466181D01*
X1533819Y-47023947D01*
X1186351Y-46503925D01*
X947013Y-45926112D01*
X825000Y-45312712D01*
X825000Y-44687288D01*
X947013Y-44073888D01*
X1186351Y-43496075D01*
X1533819Y-42976053D01*
X1976053Y-42533819D01*
X2496075Y-42186351D01*
X3073888Y-41947013D01*
X3687288Y-41825000D01*
X4312712Y-41825000D01*
X4926112Y-41947013D01*
X4926112Y-41947013D01*
G37*
G36*
X27535770Y-44735372D02*
X27651689Y-44758429D01*
X27833678Y-44833811D01*
X27997463Y-44943249D01*
X28136751Y-45082537D01*
X28246189Y-45246322D01*
X28321571Y-45428311D01*
X28360000Y-45621509D01*
X28360000Y-45818491D01*
X28321571Y-46011689D01*
X28246189Y-46193678D01*
X28136751Y-46357463D01*
X27997463Y-46496751D01*
X27833678Y-46606189D01*
X27651689Y-46681571D01*
X27535770Y-46704628D01*
X27458493Y-46720000D01*
X27261507Y-46720000D01*
X27184230Y-46704628D01*
X27068311Y-46681571D01*
X26886322Y-46606189D01*
X26722537Y-46496751D01*
X26583249Y-46357463D01*
X26473811Y-46193678D01*
X26398429Y-46011689D01*
X26360000Y-45818491D01*
X26360000Y-45621509D01*
X26398429Y-45428311D01*
X26473811Y-45246322D01*
X26583249Y-45082537D01*
X26722537Y-44943249D01*
X26886322Y-44833811D01*
X27068311Y-44758429D01*
X27184230Y-44735372D01*
X27261507Y-44720000D01*
X27458493Y-44720000D01*
X27535770Y-44735372D01*
X27535770Y-44735372D01*
G37*
G36*
X23035770Y-44735372D02*
X23151689Y-44758429D01*
X23333678Y-44833811D01*
X23497463Y-44943249D01*
X23636751Y-45082537D01*
X23746189Y-45246322D01*
X23821571Y-45428311D01*
X23860000Y-45621509D01*
X23860000Y-45818491D01*
X23821571Y-46011689D01*
X23746189Y-46193678D01*
X23636751Y-46357463D01*
X23497463Y-46496751D01*
X23333678Y-46606189D01*
X23151689Y-46681571D01*
X23035770Y-46704628D01*
X22958493Y-46720000D01*
X22761507Y-46720000D01*
X22684230Y-46704628D01*
X22568311Y-46681571D01*
X22386322Y-46606189D01*
X22222537Y-46496751D01*
X22083249Y-46357463D01*
X21973811Y-46193678D01*
X21898429Y-46011689D01*
X21860000Y-45818491D01*
X21860000Y-45621509D01*
X21898429Y-45428311D01*
X21973811Y-45246322D01*
X22083249Y-45082537D01*
X22222537Y-44943249D01*
X22386322Y-44833811D01*
X22568311Y-44758429D01*
X22684230Y-44735372D01*
X22761507Y-44720000D01*
X22958493Y-44720000D01*
X23035770Y-44735372D01*
X23035770Y-44735372D01*
G37*
G36*
X27535770Y-38235372D02*
X27651689Y-38258429D01*
X27833678Y-38333811D01*
X27997463Y-38443249D01*
X28136751Y-38582537D01*
X28246189Y-38746322D01*
X28321571Y-38928311D01*
X28360000Y-39121509D01*
X28360000Y-39318491D01*
X28321571Y-39511689D01*
X28246189Y-39693678D01*
X28136751Y-39857463D01*
X27997463Y-39996751D01*
X27833678Y-40106189D01*
X27651689Y-40181571D01*
X27535770Y-40204628D01*
X27458493Y-40220000D01*
X27261507Y-40220000D01*
X27184230Y-40204628D01*
X27068311Y-40181571D01*
X26886322Y-40106189D01*
X26722537Y-39996751D01*
X26583249Y-39857463D01*
X26473811Y-39693678D01*
X26398429Y-39511689D01*
X26360000Y-39318491D01*
X26360000Y-39121509D01*
X26398429Y-38928311D01*
X26473811Y-38746322D01*
X26583249Y-38582537D01*
X26722537Y-38443249D01*
X26886322Y-38333811D01*
X27068311Y-38258429D01*
X27184230Y-38235372D01*
X27261507Y-38220000D01*
X27458493Y-38220000D01*
X27535770Y-38235372D01*
X27535770Y-38235372D01*
G37*
G36*
X23035770Y-38235372D02*
X23151689Y-38258429D01*
X23333678Y-38333811D01*
X23497463Y-38443249D01*
X23636751Y-38582537D01*
X23746189Y-38746322D01*
X23821571Y-38928311D01*
X23860000Y-39121509D01*
X23860000Y-39318491D01*
X23821571Y-39511689D01*
X23746189Y-39693678D01*
X23636751Y-39857463D01*
X23497463Y-39996751D01*
X23333678Y-40106189D01*
X23151689Y-40181571D01*
X23035770Y-40204628D01*
X22958493Y-40220000D01*
X22761507Y-40220000D01*
X22684230Y-40204628D01*
X22568311Y-40181571D01*
X22386322Y-40106189D01*
X22222537Y-39996751D01*
X22083249Y-39857463D01*
X21973811Y-39693678D01*
X21898429Y-39511689D01*
X21860000Y-39318491D01*
X21860000Y-39121509D01*
X21898429Y-38928311D01*
X21973811Y-38746322D01*
X22083249Y-38582537D01*
X22222537Y-38443249D01*
X22386322Y-38333811D01*
X22568311Y-38258429D01*
X22684230Y-38235372D01*
X22761507Y-38220000D01*
X22958493Y-38220000D01*
X23035770Y-38235372D01*
X23035770Y-38235372D01*
G37*
G36*
X31925770Y-34575372D02*
X32041689Y-34598429D01*
X32223678Y-34673811D01*
X32387463Y-34783249D01*
X32526751Y-34922537D01*
X32636189Y-35086322D01*
X32711571Y-35268311D01*
X32750000Y-35461509D01*
X32750000Y-35658491D01*
X32711571Y-35851689D01*
X32636189Y-36033678D01*
X32526751Y-36197463D01*
X32387463Y-36336751D01*
X32223678Y-36446189D01*
X32041689Y-36521571D01*
X31925770Y-36544628D01*
X31848493Y-36560000D01*
X31651507Y-36560000D01*
X31574230Y-36544628D01*
X31458311Y-36521571D01*
X31276322Y-36446189D01*
X31112537Y-36336751D01*
X30973249Y-36197463D01*
X30863811Y-36033678D01*
X30788429Y-35851689D01*
X30750000Y-35658491D01*
X30750000Y-35461509D01*
X30788429Y-35268311D01*
X30863811Y-35086322D01*
X30973249Y-34922537D01*
X31112537Y-34783249D01*
X31276322Y-34673811D01*
X31458311Y-34598429D01*
X31574230Y-34575372D01*
X31651507Y-34560000D01*
X31848493Y-34560000D01*
X31925770Y-34575372D01*
X31925770Y-34575372D01*
G37*
G36*
X36425770Y-34575372D02*
X36541689Y-34598429D01*
X36723678Y-34673811D01*
X36887463Y-34783249D01*
X37026751Y-34922537D01*
X37136189Y-35086322D01*
X37211571Y-35268311D01*
X37250000Y-35461509D01*
X37250000Y-35658491D01*
X37211571Y-35851689D01*
X37136189Y-36033678D01*
X37026751Y-36197463D01*
X36887463Y-36336751D01*
X36723678Y-36446189D01*
X36541689Y-36521571D01*
X36425770Y-36544628D01*
X36348493Y-36560000D01*
X36151507Y-36560000D01*
X36074230Y-36544628D01*
X35958311Y-36521571D01*
X35776322Y-36446189D01*
X35612537Y-36336751D01*
X35473249Y-36197463D01*
X35363811Y-36033678D01*
X35288429Y-35851689D01*
X35250000Y-35658491D01*
X35250000Y-35461509D01*
X35288429Y-35268311D01*
X35363811Y-35086322D01*
X35473249Y-34922537D01*
X35612537Y-34783249D01*
X35776322Y-34673811D01*
X35958311Y-34598429D01*
X36074230Y-34575372D01*
X36151507Y-34560000D01*
X36348493Y-34560000D01*
X36425770Y-34575372D01*
X36425770Y-34575372D01*
G37*
G36*
X27535770Y-34575372D02*
X27651689Y-34598429D01*
X27833678Y-34673811D01*
X27997463Y-34783249D01*
X28136751Y-34922537D01*
X28246189Y-35086322D01*
X28321571Y-35268311D01*
X28360000Y-35461509D01*
X28360000Y-35658491D01*
X28321571Y-35851689D01*
X28246189Y-36033678D01*
X28136751Y-36197463D01*
X27997463Y-36336751D01*
X27833678Y-36446189D01*
X27651689Y-36521571D01*
X27535770Y-36544628D01*
X27458493Y-36560000D01*
X27261507Y-36560000D01*
X27184230Y-36544628D01*
X27068311Y-36521571D01*
X26886322Y-36446189D01*
X26722537Y-36336751D01*
X26583249Y-36197463D01*
X26473811Y-36033678D01*
X26398429Y-35851689D01*
X26360000Y-35658491D01*
X26360000Y-35461509D01*
X26398429Y-35268311D01*
X26473811Y-35086322D01*
X26583249Y-34922537D01*
X26722537Y-34783249D01*
X26886322Y-34673811D01*
X27068311Y-34598429D01*
X27184230Y-34575372D01*
X27261507Y-34560000D01*
X27458493Y-34560000D01*
X27535770Y-34575372D01*
X27535770Y-34575372D01*
G37*
G36*
X23035770Y-34575372D02*
X23151689Y-34598429D01*
X23333678Y-34673811D01*
X23497463Y-34783249D01*
X23636751Y-34922537D01*
X23746189Y-35086322D01*
X23821571Y-35268311D01*
X23860000Y-35461509D01*
X23860000Y-35658491D01*
X23821571Y-35851689D01*
X23746189Y-36033678D01*
X23636751Y-36197463D01*
X23497463Y-36336751D01*
X23333678Y-36446189D01*
X23151689Y-36521571D01*
X23035770Y-36544628D01*
X22958493Y-36560000D01*
X22761507Y-36560000D01*
X22684230Y-36544628D01*
X22568311Y-36521571D01*
X22386322Y-36446189D01*
X22222537Y-36336751D01*
X22083249Y-36197463D01*
X21973811Y-36033678D01*
X21898429Y-35851689D01*
X21860000Y-35658491D01*
X21860000Y-35461509D01*
X21898429Y-35268311D01*
X21973811Y-35086322D01*
X22083249Y-34922537D01*
X22222537Y-34783249D01*
X22386322Y-34673811D01*
X22568311Y-34598429D01*
X22684230Y-34575372D01*
X22761507Y-34560000D01*
X22958493Y-34560000D01*
X23035770Y-34575372D01*
X23035770Y-34575372D01*
G37*
G36*
X14145770Y-34575372D02*
X14261689Y-34598429D01*
X14443678Y-34673811D01*
X14607463Y-34783249D01*
X14746751Y-34922537D01*
X14856189Y-35086322D01*
X14931571Y-35268311D01*
X14970000Y-35461509D01*
X14970000Y-35658491D01*
X14931571Y-35851689D01*
X14856189Y-36033678D01*
X14746751Y-36197463D01*
X14607463Y-36336751D01*
X14443678Y-36446189D01*
X14261689Y-36521571D01*
X14145770Y-36544628D01*
X14068493Y-36560000D01*
X13871507Y-36560000D01*
X13794230Y-36544628D01*
X13678311Y-36521571D01*
X13496322Y-36446189D01*
X13332537Y-36336751D01*
X13193249Y-36197463D01*
X13083811Y-36033678D01*
X13008429Y-35851689D01*
X12970000Y-35658491D01*
X12970000Y-35461509D01*
X13008429Y-35268311D01*
X13083811Y-35086322D01*
X13193249Y-34922537D01*
X13332537Y-34783249D01*
X13496322Y-34673811D01*
X13678311Y-34598429D01*
X13794230Y-34575372D01*
X13871507Y-34560000D01*
X14068493Y-34560000D01*
X14145770Y-34575372D01*
X14145770Y-34575372D01*
G37*
G36*
X18645770Y-34575372D02*
X18761689Y-34598429D01*
X18943678Y-34673811D01*
X19107463Y-34783249D01*
X19246751Y-34922537D01*
X19356189Y-35086322D01*
X19431571Y-35268311D01*
X19470000Y-35461509D01*
X19470000Y-35658491D01*
X19431571Y-35851689D01*
X19356189Y-36033678D01*
X19246751Y-36197463D01*
X19107463Y-36336751D01*
X18943678Y-36446189D01*
X18761689Y-36521571D01*
X18645770Y-36544628D01*
X18568493Y-36560000D01*
X18371507Y-36560000D01*
X18294230Y-36544628D01*
X18178311Y-36521571D01*
X17996322Y-36446189D01*
X17832537Y-36336751D01*
X17693249Y-36197463D01*
X17583811Y-36033678D01*
X17508429Y-35851689D01*
X17470000Y-35658491D01*
X17470000Y-35461509D01*
X17508429Y-35268311D01*
X17583811Y-35086322D01*
X17693249Y-34922537D01*
X17832537Y-34783249D01*
X17996322Y-34673811D01*
X18178311Y-34598429D01*
X18294230Y-34575372D01*
X18371507Y-34560000D01*
X18568493Y-34560000D01*
X18645770Y-34575372D01*
X18645770Y-34575372D01*
G37*
G36*
X18645770Y-28075372D02*
X18761689Y-28098429D01*
X18943678Y-28173811D01*
X19107463Y-28283249D01*
X19246751Y-28422537D01*
X19356189Y-28586322D01*
X19431571Y-28768311D01*
X19470000Y-28961509D01*
X19470000Y-29158491D01*
X19431571Y-29351689D01*
X19356189Y-29533678D01*
X19246751Y-29697463D01*
X19107463Y-29836751D01*
X18943678Y-29946189D01*
X18761689Y-30021571D01*
X18645770Y-30044628D01*
X18568493Y-30060000D01*
X18371507Y-30060000D01*
X18294230Y-30044628D01*
X18178311Y-30021571D01*
X17996322Y-29946189D01*
X17832537Y-29836751D01*
X17693249Y-29697463D01*
X17583811Y-29533678D01*
X17508429Y-29351689D01*
X17470000Y-29158491D01*
X17470000Y-28961509D01*
X17508429Y-28768311D01*
X17583811Y-28586322D01*
X17693249Y-28422537D01*
X17832537Y-28283249D01*
X17996322Y-28173811D01*
X18178311Y-28098429D01*
X18294230Y-28075372D01*
X18371507Y-28060000D01*
X18568493Y-28060000D01*
X18645770Y-28075372D01*
X18645770Y-28075372D01*
G37*
G36*
X36425770Y-28075372D02*
X36541689Y-28098429D01*
X36723678Y-28173811D01*
X36887463Y-28283249D01*
X37026751Y-28422537D01*
X37136189Y-28586322D01*
X37211571Y-28768311D01*
X37250000Y-28961509D01*
X37250000Y-29158491D01*
X37211571Y-29351689D01*
X37136189Y-29533678D01*
X37026751Y-29697463D01*
X36887463Y-29836751D01*
X36723678Y-29946189D01*
X36541689Y-30021571D01*
X36425770Y-30044628D01*
X36348493Y-30060000D01*
X36151507Y-30060000D01*
X36074230Y-30044628D01*
X35958311Y-30021571D01*
X35776322Y-29946189D01*
X35612537Y-29836751D01*
X35473249Y-29697463D01*
X35363811Y-29533678D01*
X35288429Y-29351689D01*
X35250000Y-29158491D01*
X35250000Y-28961509D01*
X35288429Y-28768311D01*
X35363811Y-28586322D01*
X35473249Y-28422537D01*
X35612537Y-28283249D01*
X35776322Y-28173811D01*
X35958311Y-28098429D01*
X36074230Y-28075372D01*
X36151507Y-28060000D01*
X36348493Y-28060000D01*
X36425770Y-28075372D01*
X36425770Y-28075372D01*
G37*
G36*
X31925770Y-28075372D02*
X32041689Y-28098429D01*
X32223678Y-28173811D01*
X32387463Y-28283249D01*
X32526751Y-28422537D01*
X32636189Y-28586322D01*
X32711571Y-28768311D01*
X32750000Y-28961509D01*
X32750000Y-29158491D01*
X32711571Y-29351689D01*
X32636189Y-29533678D01*
X32526751Y-29697463D01*
X32387463Y-29836751D01*
X32223678Y-29946189D01*
X32041689Y-30021571D01*
X31925770Y-30044628D01*
X31848493Y-30060000D01*
X31651507Y-30060000D01*
X31574230Y-30044628D01*
X31458311Y-30021571D01*
X31276322Y-29946189D01*
X31112537Y-29836751D01*
X30973249Y-29697463D01*
X30863811Y-29533678D01*
X30788429Y-29351689D01*
X30750000Y-29158491D01*
X30750000Y-28961509D01*
X30788429Y-28768311D01*
X30863811Y-28586322D01*
X30973249Y-28422537D01*
X31112537Y-28283249D01*
X31276322Y-28173811D01*
X31458311Y-28098429D01*
X31574230Y-28075372D01*
X31651507Y-28060000D01*
X31848493Y-28060000D01*
X31925770Y-28075372D01*
X31925770Y-28075372D01*
G37*
G36*
X27535770Y-28075372D02*
X27651689Y-28098429D01*
X27833678Y-28173811D01*
X27997463Y-28283249D01*
X28136751Y-28422537D01*
X28246189Y-28586322D01*
X28321571Y-28768311D01*
X28360000Y-28961509D01*
X28360000Y-29158491D01*
X28321571Y-29351689D01*
X28246189Y-29533678D01*
X28136751Y-29697463D01*
X27997463Y-29836751D01*
X27833678Y-29946189D01*
X27651689Y-30021571D01*
X27535770Y-30044628D01*
X27458493Y-30060000D01*
X27261507Y-30060000D01*
X27184230Y-30044628D01*
X27068311Y-30021571D01*
X26886322Y-29946189D01*
X26722537Y-29836751D01*
X26583249Y-29697463D01*
X26473811Y-29533678D01*
X26398429Y-29351689D01*
X26360000Y-29158491D01*
X26360000Y-28961509D01*
X26398429Y-28768311D01*
X26473811Y-28586322D01*
X26583249Y-28422537D01*
X26722537Y-28283249D01*
X26886322Y-28173811D01*
X27068311Y-28098429D01*
X27184230Y-28075372D01*
X27261507Y-28060000D01*
X27458493Y-28060000D01*
X27535770Y-28075372D01*
X27535770Y-28075372D01*
G37*
G36*
X23035770Y-28075372D02*
X23151689Y-28098429D01*
X23333678Y-28173811D01*
X23497463Y-28283249D01*
X23636751Y-28422537D01*
X23746189Y-28586322D01*
X23821571Y-28768311D01*
X23860000Y-28961509D01*
X23860000Y-29158491D01*
X23821571Y-29351689D01*
X23746189Y-29533678D01*
X23636751Y-29697463D01*
X23497463Y-29836751D01*
X23333678Y-29946189D01*
X23151689Y-30021571D01*
X23035770Y-30044628D01*
X22958493Y-30060000D01*
X22761507Y-30060000D01*
X22684230Y-30044628D01*
X22568311Y-30021571D01*
X22386322Y-29946189D01*
X22222537Y-29836751D01*
X22083249Y-29697463D01*
X21973811Y-29533678D01*
X21898429Y-29351689D01*
X21860000Y-29158491D01*
X21860000Y-28961509D01*
X21898429Y-28768311D01*
X21973811Y-28586322D01*
X22083249Y-28422537D01*
X22222537Y-28283249D01*
X22386322Y-28173811D01*
X22568311Y-28098429D01*
X22684230Y-28075372D01*
X22761507Y-28060000D01*
X22958493Y-28060000D01*
X23035770Y-28075372D01*
X23035770Y-28075372D01*
G37*
G36*
X14145770Y-28075372D02*
X14261689Y-28098429D01*
X14443678Y-28173811D01*
X14607463Y-28283249D01*
X14746751Y-28422537D01*
X14856189Y-28586322D01*
X14931571Y-28768311D01*
X14970000Y-28961509D01*
X14970000Y-29158491D01*
X14931571Y-29351689D01*
X14856189Y-29533678D01*
X14746751Y-29697463D01*
X14607463Y-29836751D01*
X14443678Y-29946189D01*
X14261689Y-30021571D01*
X14145770Y-30044628D01*
X14068493Y-30060000D01*
X13871507Y-30060000D01*
X13794230Y-30044628D01*
X13678311Y-30021571D01*
X13496322Y-29946189D01*
X13332537Y-29836751D01*
X13193249Y-29697463D01*
X13083811Y-29533678D01*
X13008429Y-29351689D01*
X12970000Y-29158491D01*
X12970000Y-28961509D01*
X13008429Y-28768311D01*
X13083811Y-28586322D01*
X13193249Y-28422537D01*
X13332537Y-28283249D01*
X13496322Y-28173811D01*
X13678311Y-28098429D01*
X13794230Y-28075372D01*
X13871507Y-28060000D01*
X14068493Y-28060000D01*
X14145770Y-28075372D01*
X14145770Y-28075372D01*
G37*
G36*
X27535770Y-24415372D02*
X27651689Y-24438429D01*
X27833678Y-24513811D01*
X27997463Y-24623249D01*
X28136751Y-24762537D01*
X28246189Y-24926322D01*
X28321571Y-25108311D01*
X28360000Y-25301509D01*
X28360000Y-25498491D01*
X28321571Y-25691689D01*
X28246189Y-25873678D01*
X28136751Y-26037463D01*
X27997463Y-26176751D01*
X27833678Y-26286189D01*
X27651689Y-26361571D01*
X27535770Y-26384628D01*
X27458493Y-26400000D01*
X27261507Y-26400000D01*
X27184230Y-26384628D01*
X27068311Y-26361571D01*
X26886322Y-26286189D01*
X26722537Y-26176751D01*
X26583249Y-26037463D01*
X26473811Y-25873678D01*
X26398429Y-25691689D01*
X26360000Y-25498491D01*
X26360000Y-25301509D01*
X26398429Y-25108311D01*
X26473811Y-24926322D01*
X26583249Y-24762537D01*
X26722537Y-24623249D01*
X26886322Y-24513811D01*
X27068311Y-24438429D01*
X27184230Y-24415372D01*
X27261507Y-24400000D01*
X27458493Y-24400000D01*
X27535770Y-24415372D01*
X27535770Y-24415372D01*
G37*
G36*
X23035770Y-24415372D02*
X23151689Y-24438429D01*
X23333678Y-24513811D01*
X23497463Y-24623249D01*
X23636751Y-24762537D01*
X23746189Y-24926322D01*
X23821571Y-25108311D01*
X23860000Y-25301509D01*
X23860000Y-25498491D01*
X23821571Y-25691689D01*
X23746189Y-25873678D01*
X23636751Y-26037463D01*
X23497463Y-26176751D01*
X23333678Y-26286189D01*
X23151689Y-26361571D01*
X23035770Y-26384628D01*
X22958493Y-26400000D01*
X22761507Y-26400000D01*
X22684230Y-26384628D01*
X22568311Y-26361571D01*
X22386322Y-26286189D01*
X22222537Y-26176751D01*
X22083249Y-26037463D01*
X21973811Y-25873678D01*
X21898429Y-25691689D01*
X21860000Y-25498491D01*
X21860000Y-25301509D01*
X21898429Y-25108311D01*
X21973811Y-24926322D01*
X22083249Y-24762537D01*
X22222537Y-24623249D01*
X22386322Y-24513811D01*
X22568311Y-24438429D01*
X22684230Y-24415372D01*
X22761507Y-24400000D01*
X22958493Y-24400000D01*
X23035770Y-24415372D01*
X23035770Y-24415372D01*
G37*
G36*
X40887770Y-24311372D02*
X41003689Y-24334429D01*
X41185678Y-24409811D01*
X41349463Y-24519249D01*
X41488751Y-24658537D01*
X41598189Y-24822322D01*
X41673571Y-25004311D01*
X41712000Y-25197509D01*
X41712000Y-25394491D01*
X41673571Y-25587689D01*
X41598189Y-25769678D01*
X41488751Y-25933463D01*
X41349463Y-26072751D01*
X41185678Y-26182189D01*
X41003689Y-26257571D01*
X40887770Y-26280628D01*
X40810493Y-26296000D01*
X40613507Y-26296000D01*
X40536230Y-26280628D01*
X40420311Y-26257571D01*
X40238322Y-26182189D01*
X40074537Y-26072751D01*
X39935249Y-25933463D01*
X39825811Y-25769678D01*
X39750429Y-25587689D01*
X39712000Y-25394491D01*
X39712000Y-25197509D01*
X39750429Y-25004311D01*
X39825811Y-24822322D01*
X39935249Y-24658537D01*
X40074537Y-24519249D01*
X40238322Y-24409811D01*
X40420311Y-24334429D01*
X40536230Y-24311372D01*
X40613507Y-24296000D01*
X40810493Y-24296000D01*
X40887770Y-24311372D01*
X40887770Y-24311372D01*
G37*
G36*
X45387770Y-24311372D02*
X45503689Y-24334429D01*
X45685678Y-24409811D01*
X45849463Y-24519249D01*
X45988751Y-24658537D01*
X46098189Y-24822322D01*
X46173571Y-25004311D01*
X46212000Y-25197509D01*
X46212000Y-25394491D01*
X46173571Y-25587689D01*
X46098189Y-25769678D01*
X45988751Y-25933463D01*
X45849463Y-26072751D01*
X45685678Y-26182189D01*
X45503689Y-26257571D01*
X45387770Y-26280628D01*
X45310493Y-26296000D01*
X45113507Y-26296000D01*
X45036230Y-26280628D01*
X44920311Y-26257571D01*
X44738322Y-26182189D01*
X44574537Y-26072751D01*
X44435249Y-25933463D01*
X44325811Y-25769678D01*
X44250429Y-25587689D01*
X44212000Y-25394491D01*
X44212000Y-25197509D01*
X44250429Y-25004311D01*
X44325811Y-24822322D01*
X44435249Y-24658537D01*
X44574537Y-24519249D01*
X44738322Y-24409811D01*
X44920311Y-24334429D01*
X45036230Y-24311372D01*
X45113507Y-24296000D01*
X45310493Y-24296000D01*
X45387770Y-24311372D01*
X45387770Y-24311372D01*
G37*
G36*
X27535770Y-17915372D02*
X27651689Y-17938429D01*
X27833678Y-18013811D01*
X27997463Y-18123249D01*
X28136751Y-18262537D01*
X28246189Y-18426322D01*
X28321571Y-18608311D01*
X28360000Y-18801509D01*
X28360000Y-18998491D01*
X28321571Y-19191689D01*
X28246189Y-19373678D01*
X28136751Y-19537463D01*
X27997463Y-19676751D01*
X27833678Y-19786189D01*
X27651689Y-19861571D01*
X27535770Y-19884628D01*
X27458493Y-19900000D01*
X27261507Y-19900000D01*
X27184230Y-19884628D01*
X27068311Y-19861571D01*
X26886322Y-19786189D01*
X26722537Y-19676751D01*
X26583249Y-19537463D01*
X26473811Y-19373678D01*
X26398429Y-19191689D01*
X26360000Y-18998491D01*
X26360000Y-18801509D01*
X26398429Y-18608311D01*
X26473811Y-18426322D01*
X26583249Y-18262537D01*
X26722537Y-18123249D01*
X26886322Y-18013811D01*
X27068311Y-17938429D01*
X27184230Y-17915372D01*
X27261507Y-17900000D01*
X27458493Y-17900000D01*
X27535770Y-17915372D01*
X27535770Y-17915372D01*
G37*
G36*
X23035770Y-17915372D02*
X23151689Y-17938429D01*
X23333678Y-18013811D01*
X23497463Y-18123249D01*
X23636751Y-18262537D01*
X23746189Y-18426322D01*
X23821571Y-18608311D01*
X23860000Y-18801509D01*
X23860000Y-18998491D01*
X23821571Y-19191689D01*
X23746189Y-19373678D01*
X23636751Y-19537463D01*
X23497463Y-19676751D01*
X23333678Y-19786189D01*
X23151689Y-19861571D01*
X23035770Y-19884628D01*
X22958493Y-19900000D01*
X22761507Y-19900000D01*
X22684230Y-19884628D01*
X22568311Y-19861571D01*
X22386322Y-19786189D01*
X22222537Y-19676751D01*
X22083249Y-19537463D01*
X21973811Y-19373678D01*
X21898429Y-19191689D01*
X21860000Y-18998491D01*
X21860000Y-18801509D01*
X21898429Y-18608311D01*
X21973811Y-18426322D01*
X22083249Y-18262537D01*
X22222537Y-18123249D01*
X22386322Y-18013811D01*
X22568311Y-17938429D01*
X22684230Y-17915372D01*
X22761507Y-17900000D01*
X22958493Y-17900000D01*
X23035770Y-17915372D01*
X23035770Y-17915372D01*
G37*
G36*
X40887770Y-17811372D02*
X41003689Y-17834429D01*
X41185678Y-17909811D01*
X41349463Y-18019249D01*
X41488751Y-18158537D01*
X41598189Y-18322322D01*
X41673571Y-18504311D01*
X41712000Y-18697509D01*
X41712000Y-18894491D01*
X41673571Y-19087689D01*
X41598189Y-19269678D01*
X41488751Y-19433463D01*
X41349463Y-19572751D01*
X41185678Y-19682189D01*
X41003689Y-19757571D01*
X40887770Y-19780628D01*
X40810493Y-19796000D01*
X40613507Y-19796000D01*
X40536230Y-19780628D01*
X40420311Y-19757571D01*
X40238322Y-19682189D01*
X40074537Y-19572751D01*
X39935249Y-19433463D01*
X39825811Y-19269678D01*
X39750429Y-19087689D01*
X39712000Y-18894491D01*
X39712000Y-18697509D01*
X39750429Y-18504311D01*
X39825811Y-18322322D01*
X39935249Y-18158537D01*
X40074537Y-18019249D01*
X40238322Y-17909811D01*
X40420311Y-17834429D01*
X40536230Y-17811372D01*
X40613507Y-17796000D01*
X40810493Y-17796000D01*
X40887770Y-17811372D01*
X40887770Y-17811372D01*
G37*
G36*
X45387770Y-17811372D02*
X45503689Y-17834429D01*
X45685678Y-17909811D01*
X45849463Y-18019249D01*
X45988751Y-18158537D01*
X46098189Y-18322322D01*
X46173571Y-18504311D01*
X46212000Y-18697509D01*
X46212000Y-18894491D01*
X46173571Y-19087689D01*
X46098189Y-19269678D01*
X45988751Y-19433463D01*
X45849463Y-19572751D01*
X45685678Y-19682189D01*
X45503689Y-19757571D01*
X45387770Y-19780628D01*
X45310493Y-19796000D01*
X45113507Y-19796000D01*
X45036230Y-19780628D01*
X44920311Y-19757571D01*
X44738322Y-19682189D01*
X44574537Y-19572751D01*
X44435249Y-19433463D01*
X44325811Y-19269678D01*
X44250429Y-19087689D01*
X44212000Y-18894491D01*
X44212000Y-18697509D01*
X44250429Y-18504311D01*
X44325811Y-18322322D01*
X44435249Y-18158537D01*
X44574537Y-18019249D01*
X44738322Y-17909811D01*
X44920311Y-17834429D01*
X45036230Y-17811372D01*
X45113507Y-17796000D01*
X45310493Y-17796000D01*
X45387770Y-17811372D01*
X45387770Y-17811372D01*
G37*
G36*
X18645770Y-16287372D02*
X18761689Y-16310429D01*
X18943678Y-16385811D01*
X19107463Y-16495249D01*
X19246751Y-16634537D01*
X19356189Y-16798322D01*
X19431571Y-16980311D01*
X19470000Y-17173509D01*
X19470000Y-17370491D01*
X19431571Y-17563689D01*
X19356189Y-17745678D01*
X19246751Y-17909463D01*
X19107463Y-18048751D01*
X18943678Y-18158189D01*
X18761689Y-18233571D01*
X18645770Y-18256628D01*
X18568493Y-18272000D01*
X18371507Y-18272000D01*
X18294230Y-18256628D01*
X18178311Y-18233571D01*
X17996322Y-18158189D01*
X17832537Y-18048751D01*
X17693249Y-17909463D01*
X17583811Y-17745678D01*
X17508429Y-17563689D01*
X17470000Y-17370491D01*
X17470000Y-17173509D01*
X17508429Y-16980311D01*
X17583811Y-16798322D01*
X17693249Y-16634537D01*
X17832537Y-16495249D01*
X17996322Y-16385811D01*
X18178311Y-16310429D01*
X18294230Y-16287372D01*
X18371507Y-16272000D01*
X18568493Y-16272000D01*
X18645770Y-16287372D01*
X18645770Y-16287372D01*
G37*
G36*
X14145770Y-16287372D02*
X14261689Y-16310429D01*
X14443678Y-16385811D01*
X14607463Y-16495249D01*
X14746751Y-16634537D01*
X14856189Y-16798322D01*
X14931571Y-16980311D01*
X14970000Y-17173509D01*
X14970000Y-17370491D01*
X14931571Y-17563689D01*
X14856189Y-17745678D01*
X14746751Y-17909463D01*
X14607463Y-18048751D01*
X14443678Y-18158189D01*
X14261689Y-18233571D01*
X14145770Y-18256628D01*
X14068493Y-18272000D01*
X13871507Y-18272000D01*
X13794230Y-18256628D01*
X13678311Y-18233571D01*
X13496322Y-18158189D01*
X13332537Y-18048751D01*
X13193249Y-17909463D01*
X13083811Y-17745678D01*
X13008429Y-17563689D01*
X12970000Y-17370491D01*
X12970000Y-17173509D01*
X13008429Y-16980311D01*
X13083811Y-16798322D01*
X13193249Y-16634537D01*
X13332537Y-16495249D01*
X13496322Y-16385811D01*
X13678311Y-16310429D01*
X13794230Y-16287372D01*
X13871507Y-16272000D01*
X14068493Y-16272000D01*
X14145770Y-16287372D01*
X14145770Y-16287372D01*
G37*
G36*
X36497770Y-16183372D02*
X36613689Y-16206429D01*
X36795678Y-16281811D01*
X36959463Y-16391249D01*
X37098751Y-16530537D01*
X37208189Y-16694322D01*
X37283571Y-16876311D01*
X37322000Y-17069509D01*
X37322000Y-17266491D01*
X37283571Y-17459689D01*
X37208189Y-17641678D01*
X37098751Y-17805463D01*
X36959463Y-17944751D01*
X36795678Y-18054189D01*
X36613689Y-18129571D01*
X36497770Y-18152628D01*
X36420493Y-18168000D01*
X36223507Y-18168000D01*
X36146230Y-18152628D01*
X36030311Y-18129571D01*
X35848322Y-18054189D01*
X35684537Y-17944751D01*
X35545249Y-17805463D01*
X35435811Y-17641678D01*
X35360429Y-17459689D01*
X35322000Y-17266491D01*
X35322000Y-17069509D01*
X35360429Y-16876311D01*
X35435811Y-16694322D01*
X35545249Y-16530537D01*
X35684537Y-16391249D01*
X35848322Y-16281811D01*
X36030311Y-16206429D01*
X36146230Y-16183372D01*
X36223507Y-16168000D01*
X36420493Y-16168000D01*
X36497770Y-16183372D01*
X36497770Y-16183372D01*
G37*
G36*
X31997770Y-16183372D02*
X32113689Y-16206429D01*
X32295678Y-16281811D01*
X32459463Y-16391249D01*
X32598751Y-16530537D01*
X32708189Y-16694322D01*
X32783571Y-16876311D01*
X32822000Y-17069509D01*
X32822000Y-17266491D01*
X32783571Y-17459689D01*
X32708189Y-17641678D01*
X32598751Y-17805463D01*
X32459463Y-17944751D01*
X32295678Y-18054189D01*
X32113689Y-18129571D01*
X31997770Y-18152628D01*
X31920493Y-18168000D01*
X31723507Y-18168000D01*
X31646230Y-18152628D01*
X31530311Y-18129571D01*
X31348322Y-18054189D01*
X31184537Y-17944751D01*
X31045249Y-17805463D01*
X30935811Y-17641678D01*
X30860429Y-17459689D01*
X30822000Y-17266491D01*
X30822000Y-17069509D01*
X30860429Y-16876311D01*
X30935811Y-16694322D01*
X31045249Y-16530537D01*
X31184537Y-16391249D01*
X31348322Y-16281811D01*
X31530311Y-16206429D01*
X31646230Y-16183372D01*
X31723507Y-16168000D01*
X31920493Y-16168000D01*
X31997770Y-16183372D01*
X31997770Y-16183372D01*
G37*
G36*
X18645770Y-9787372D02*
X18761689Y-9810429D01*
X18943678Y-9885811D01*
X19107463Y-9995249D01*
X19246751Y-10134537D01*
X19356189Y-10298322D01*
X19431571Y-10480311D01*
X19470000Y-10673509D01*
X19470000Y-10870491D01*
X19431571Y-11063689D01*
X19356189Y-11245678D01*
X19246751Y-11409463D01*
X19107463Y-11548751D01*
X18943678Y-11658189D01*
X18761689Y-11733571D01*
X18645770Y-11756628D01*
X18568493Y-11772000D01*
X18371507Y-11772000D01*
X18294230Y-11756628D01*
X18178311Y-11733571D01*
X17996322Y-11658189D01*
X17832537Y-11548751D01*
X17693249Y-11409463D01*
X17583811Y-11245678D01*
X17508429Y-11063689D01*
X17470000Y-10870491D01*
X17470000Y-10673509D01*
X17508429Y-10480311D01*
X17583811Y-10298322D01*
X17693249Y-10134537D01*
X17832537Y-9995249D01*
X17996322Y-9885811D01*
X18178311Y-9810429D01*
X18294230Y-9787372D01*
X18371507Y-9772000D01*
X18568493Y-9772000D01*
X18645770Y-9787372D01*
X18645770Y-9787372D01*
G37*
G36*
X14145770Y-9787372D02*
X14261689Y-9810429D01*
X14443678Y-9885811D01*
X14607463Y-9995249D01*
X14746751Y-10134537D01*
X14856189Y-10298322D01*
X14931571Y-10480311D01*
X14970000Y-10673509D01*
X14970000Y-10870491D01*
X14931571Y-11063689D01*
X14856189Y-11245678D01*
X14746751Y-11409463D01*
X14607463Y-11548751D01*
X14443678Y-11658189D01*
X14261689Y-11733571D01*
X14145770Y-11756628D01*
X14068493Y-11772000D01*
X13871507Y-11772000D01*
X13794230Y-11756628D01*
X13678311Y-11733571D01*
X13496322Y-11658189D01*
X13332537Y-11548751D01*
X13193249Y-11409463D01*
X13083811Y-11245678D01*
X13008429Y-11063689D01*
X12970000Y-10870491D01*
X12970000Y-10673509D01*
X13008429Y-10480311D01*
X13083811Y-10298322D01*
X13193249Y-10134537D01*
X13332537Y-9995249D01*
X13496322Y-9885811D01*
X13678311Y-9810429D01*
X13794230Y-9787372D01*
X13871507Y-9772000D01*
X14068493Y-9772000D01*
X14145770Y-9787372D01*
X14145770Y-9787372D01*
G37*
G36*
X36497770Y-9683372D02*
X36613689Y-9706429D01*
X36795678Y-9781811D01*
X36959463Y-9891249D01*
X37098751Y-10030537D01*
X37208189Y-10194322D01*
X37283571Y-10376311D01*
X37322000Y-10569509D01*
X37322000Y-10766491D01*
X37283571Y-10959689D01*
X37208189Y-11141678D01*
X37098751Y-11305463D01*
X36959463Y-11444751D01*
X36795678Y-11554189D01*
X36613689Y-11629571D01*
X36497770Y-11652628D01*
X36420493Y-11668000D01*
X36223507Y-11668000D01*
X36146230Y-11652628D01*
X36030311Y-11629571D01*
X35848322Y-11554189D01*
X35684537Y-11444751D01*
X35545249Y-11305463D01*
X35435811Y-11141678D01*
X35360429Y-10959689D01*
X35322000Y-10766491D01*
X35322000Y-10569509D01*
X35360429Y-10376311D01*
X35435811Y-10194322D01*
X35545249Y-10030537D01*
X35684537Y-9891249D01*
X35848322Y-9781811D01*
X36030311Y-9706429D01*
X36146230Y-9683372D01*
X36223507Y-9668000D01*
X36420493Y-9668000D01*
X36497770Y-9683372D01*
X36497770Y-9683372D01*
G37*
G36*
X31997770Y-9683372D02*
X32113689Y-9706429D01*
X32295678Y-9781811D01*
X32459463Y-9891249D01*
X32598751Y-10030537D01*
X32708189Y-10194322D01*
X32783571Y-10376311D01*
X32822000Y-10569509D01*
X32822000Y-10766491D01*
X32783571Y-10959689D01*
X32708189Y-11141678D01*
X32598751Y-11305463D01*
X32459463Y-11444751D01*
X32295678Y-11554189D01*
X32113689Y-11629571D01*
X31997770Y-11652628D01*
X31920493Y-11668000D01*
X31723507Y-11668000D01*
X31646230Y-11652628D01*
X31530311Y-11629571D01*
X31348322Y-11554189D01*
X31184537Y-11444751D01*
X31045249Y-11305463D01*
X30935811Y-11141678D01*
X30860429Y-10959689D01*
X30822000Y-10766491D01*
X30822000Y-10569509D01*
X30860429Y-10376311D01*
X30935811Y-10194322D01*
X31045249Y-10030537D01*
X31184537Y-9891249D01*
X31348322Y-9781811D01*
X31530311Y-9706429D01*
X31646230Y-9683372D01*
X31723507Y-9668000D01*
X31920493Y-9668000D01*
X31997770Y-9683372D01*
X31997770Y-9683372D01*
G37*
G36*
X33186630Y-6782299D02*
X33346855Y-6830903D01*
X33494520Y-6909831D01*
X33623949Y-7016051D01*
X33730169Y-7145480D01*
X33809097Y-7293145D01*
X33857701Y-7453370D01*
X33874112Y-7620000D01*
X33857701Y-7786630D01*
X33809097Y-7946855D01*
X33730169Y-8094520D01*
X33623949Y-8223949D01*
X33494520Y-8330169D01*
X33346855Y-8409097D01*
X33186630Y-8457701D01*
X33061752Y-8470000D01*
X32978248Y-8470000D01*
X32853370Y-8457701D01*
X32693145Y-8409097D01*
X32545480Y-8330169D01*
X32416051Y-8223949D01*
X32309831Y-8094520D01*
X32230903Y-7946855D01*
X32182299Y-7786630D01*
X32165888Y-7620000D01*
X32182299Y-7453370D01*
X32230903Y-7293145D01*
X32309831Y-7145480D01*
X32416051Y-7016051D01*
X32545480Y-6909831D01*
X32693145Y-6830903D01*
X32853370Y-6782299D01*
X32978248Y-6770000D01*
X33061752Y-6770000D01*
X33186630Y-6782299D01*
X33186630Y-6782299D01*
G37*
G36*
X25566630Y-6782299D02*
X25726855Y-6830903D01*
X25874520Y-6909831D01*
X26003949Y-7016051D01*
X26110169Y-7145480D01*
X26189097Y-7293145D01*
X26237701Y-7453370D01*
X26254112Y-7620000D01*
X26237701Y-7786630D01*
X26189097Y-7946855D01*
X26110169Y-8094520D01*
X26003949Y-8223949D01*
X25874520Y-8330169D01*
X25726855Y-8409097D01*
X25566630Y-8457701D01*
X25441752Y-8470000D01*
X25358248Y-8470000D01*
X25233370Y-8457701D01*
X25073145Y-8409097D01*
X24925480Y-8330169D01*
X24796051Y-8223949D01*
X24689831Y-8094520D01*
X24610903Y-7946855D01*
X24562299Y-7786630D01*
X24545888Y-7620000D01*
X24562299Y-7453370D01*
X24610903Y-7293145D01*
X24689831Y-7145480D01*
X24796051Y-7016051D01*
X24925480Y-6909831D01*
X25073145Y-6830903D01*
X25233370Y-6782299D01*
X25358248Y-6770000D01*
X25441752Y-6770000D01*
X25566630Y-6782299D01*
X25566630Y-6782299D01*
G37*
G36*
X28106630Y-6782299D02*
X28266855Y-6830903D01*
X28414520Y-6909831D01*
X28543949Y-7016051D01*
X28650169Y-7145480D01*
X28729097Y-7293145D01*
X28777701Y-7453370D01*
X28794112Y-7620000D01*
X28777701Y-7786630D01*
X28729097Y-7946855D01*
X28650169Y-8094520D01*
X28543949Y-8223949D01*
X28414520Y-8330169D01*
X28266855Y-8409097D01*
X28106630Y-8457701D01*
X27981752Y-8470000D01*
X27898248Y-8470000D01*
X27773370Y-8457701D01*
X27613145Y-8409097D01*
X27465480Y-8330169D01*
X27336051Y-8223949D01*
X27229831Y-8094520D01*
X27150903Y-7946855D01*
X27102299Y-7786630D01*
X27085888Y-7620000D01*
X27102299Y-7453370D01*
X27150903Y-7293145D01*
X27229831Y-7145480D01*
X27336051Y-7016051D01*
X27465480Y-6909831D01*
X27613145Y-6830903D01*
X27773370Y-6782299D01*
X27898248Y-6770000D01*
X27981752Y-6770000D01*
X28106630Y-6782299D01*
X28106630Y-6782299D01*
G37*
G36*
X30646630Y-6782299D02*
X30806855Y-6830903D01*
X30954520Y-6909831D01*
X31083949Y-7016051D01*
X31190169Y-7145480D01*
X31269097Y-7293145D01*
X31317701Y-7453370D01*
X31334112Y-7620000D01*
X31317701Y-7786630D01*
X31269097Y-7946855D01*
X31190169Y-8094520D01*
X31083949Y-8223949D01*
X30954520Y-8330169D01*
X30806855Y-8409097D01*
X30646630Y-8457701D01*
X30521752Y-8470000D01*
X30438248Y-8470000D01*
X30313370Y-8457701D01*
X30153145Y-8409097D01*
X30005480Y-8330169D01*
X29876051Y-8223949D01*
X29769831Y-8094520D01*
X29690903Y-7946855D01*
X29642299Y-7786630D01*
X29625888Y-7620000D01*
X29642299Y-7453370D01*
X29690903Y-7293145D01*
X29769831Y-7145480D01*
X29876051Y-7016051D01*
X30005480Y-6909831D01*
X30153145Y-6830903D01*
X30313370Y-6782299D01*
X30438248Y-6770000D01*
X30521752Y-6770000D01*
X30646630Y-6782299D01*
X30646630Y-6782299D01*
G37*
G36*
X21170000Y-8470000D02*
X19470000Y-8470000D01*
X19470000Y-6770000D01*
X21170000Y-6770000D01*
X21170000Y-8470000D01*
X21170000Y-8470000D01*
G37*
G36*
X23026630Y-6782299D02*
X23186855Y-6830903D01*
X23334520Y-6909831D01*
X23463949Y-7016051D01*
X23570169Y-7145480D01*
X23649097Y-7293145D01*
X23697701Y-7453370D01*
X23714112Y-7620000D01*
X23697701Y-7786630D01*
X23649097Y-7946855D01*
X23570169Y-8094520D01*
X23463949Y-8223949D01*
X23334520Y-8330169D01*
X23186855Y-8409097D01*
X23026630Y-8457701D01*
X22901752Y-8470000D01*
X22818248Y-8470000D01*
X22693370Y-8457701D01*
X22533145Y-8409097D01*
X22385480Y-8330169D01*
X22256051Y-8223949D01*
X22149831Y-8094520D01*
X22070903Y-7946855D01*
X22022299Y-7786630D01*
X22005888Y-7620000D01*
X22022299Y-7453370D01*
X22070903Y-7293145D01*
X22149831Y-7145480D01*
X22256051Y-7016051D01*
X22385480Y-6909831D01*
X22533145Y-6830903D01*
X22693370Y-6782299D01*
X22818248Y-6770000D01*
X22901752Y-6770000D01*
X23026630Y-6782299D01*
X23026630Y-6782299D01*
G37*
G36*
X45926112Y-947013D02*
X46503925Y-1186351D01*
X47023947Y-1533819D01*
X47466181Y-1976053D01*
X47813649Y-2496075D01*
X48052987Y-3073888D01*
X48175000Y-3687288D01*
X48175000Y-4312712D01*
X48052987Y-4926112D01*
X47813649Y-5503925D01*
X47466181Y-6023947D01*
X47023947Y-6466181D01*
X46503925Y-6813649D01*
X45926112Y-7052987D01*
X45312712Y-7175000D01*
X44687288Y-7175000D01*
X44073888Y-7052987D01*
X43496075Y-6813649D01*
X42976053Y-6466181D01*
X42533819Y-6023947D01*
X42186351Y-5503925D01*
X41947013Y-4926112D01*
X41825000Y-4312712D01*
X41825000Y-3687288D01*
X41947013Y-3073888D01*
X42186351Y-2496075D01*
X42533819Y-1976053D01*
X42976053Y-1533819D01*
X43496075Y-1186351D01*
X44073888Y-947013D01*
X44687288Y-825000D01*
X45312712Y-825000D01*
X45926112Y-947013D01*
X45926112Y-947013D01*
G37*
G36*
X4926112Y-947013D02*
X5503925Y-1186351D01*
X6023947Y-1533819D01*
X6466181Y-1976053D01*
X6813649Y-2496075D01*
X7052987Y-3073888D01*
X7175000Y-3687288D01*
X7175000Y-4312712D01*
X7052987Y-4926112D01*
X6813649Y-5503925D01*
X6466181Y-6023947D01*
X6023947Y-6466181D01*
X5503925Y-6813649D01*
X4926112Y-7052987D01*
X4312712Y-7175000D01*
X3687288Y-7175000D01*
X3073888Y-7052987D01*
X2496075Y-6813649D01*
X1976053Y-6466181D01*
X1533819Y-6023947D01*
X1186351Y-5503925D01*
X947013Y-4926112D01*
X825000Y-4312712D01*
X825000Y-3687288D01*
X947013Y-3073888D01*
X1186351Y-2496075D01*
X1533819Y-1976053D01*
X1976053Y-1533819D01*
X2496075Y-1186351D01*
X3073888Y-947013D01*
X3687288Y-825000D01*
X4312712Y-825000D01*
X4926112Y-947013D01*
X4926112Y-947013D01*
G37*
G36*
X20486630Y-4242299D02*
X20646855Y-4290903D01*
X20794520Y-4369831D01*
X20923949Y-4476051D01*
X21030169Y-4605480D01*
X21109097Y-4753145D01*
X21157701Y-4913370D01*
X21174112Y-5080000D01*
X21157701Y-5246630D01*
X21109097Y-5406855D01*
X21030169Y-5554520D01*
X20923949Y-5683949D01*
X20794520Y-5790169D01*
X20646855Y-5869097D01*
X20486630Y-5917701D01*
X20361752Y-5930000D01*
X20278248Y-5930000D01*
X20153370Y-5917701D01*
X19993145Y-5869097D01*
X19845480Y-5790169D01*
X19716051Y-5683949D01*
X19609831Y-5554520D01*
X19530903Y-5406855D01*
X19482299Y-5246630D01*
X19465888Y-5080000D01*
X19482299Y-4913370D01*
X19530903Y-4753145D01*
X19609831Y-4605480D01*
X19716051Y-4476051D01*
X19845480Y-4369831D01*
X19993145Y-4290903D01*
X20153370Y-4242299D01*
X20278248Y-4230000D01*
X20361752Y-4230000D01*
X20486630Y-4242299D01*
X20486630Y-4242299D01*
G37*
G36*
X23026630Y-4242299D02*
X23186855Y-4290903D01*
X23334520Y-4369831D01*
X23463949Y-4476051D01*
X23570169Y-4605480D01*
X23649097Y-4753145D01*
X23697701Y-4913370D01*
X23714112Y-5080000D01*
X23697701Y-5246630D01*
X23649097Y-5406855D01*
X23570169Y-5554520D01*
X23463949Y-5683949D01*
X23334520Y-5790169D01*
X23186855Y-5869097D01*
X23026630Y-5917701D01*
X22901752Y-5930000D01*
X22818248Y-5930000D01*
X22693370Y-5917701D01*
X22533145Y-5869097D01*
X22385480Y-5790169D01*
X22256051Y-5683949D01*
X22149831Y-5554520D01*
X22070903Y-5406855D01*
X22022299Y-5246630D01*
X22005888Y-5080000D01*
X22022299Y-4913370D01*
X22070903Y-4753145D01*
X22149831Y-4605480D01*
X22256051Y-4476051D01*
X22385480Y-4369831D01*
X22533145Y-4290903D01*
X22693370Y-4242299D01*
X22818248Y-4230000D01*
X22901752Y-4230000D01*
X23026630Y-4242299D01*
X23026630Y-4242299D01*
G37*
G36*
X25566630Y-4242299D02*
X25726855Y-4290903D01*
X25874520Y-4369831D01*
X26003949Y-4476051D01*
X26110169Y-4605480D01*
X26189097Y-4753145D01*
X26237701Y-4913370D01*
X26254112Y-5080000D01*
X26237701Y-5246630D01*
X26189097Y-5406855D01*
X26110169Y-5554520D01*
X26003949Y-5683949D01*
X25874520Y-5790169D01*
X25726855Y-5869097D01*
X25566630Y-5917701D01*
X25441752Y-5930000D01*
X25358248Y-5930000D01*
X25233370Y-5917701D01*
X25073145Y-5869097D01*
X24925480Y-5790169D01*
X24796051Y-5683949D01*
X24689831Y-5554520D01*
X24610903Y-5406855D01*
X24562299Y-5246630D01*
X24545888Y-5080000D01*
X24562299Y-4913370D01*
X24610903Y-4753145D01*
X24689831Y-4605480D01*
X24796051Y-4476051D01*
X24925480Y-4369831D01*
X25073145Y-4290903D01*
X25233370Y-4242299D01*
X25358248Y-4230000D01*
X25441752Y-4230000D01*
X25566630Y-4242299D01*
X25566630Y-4242299D01*
G37*
G36*
X28106630Y-4242299D02*
X28266855Y-4290903D01*
X28414520Y-4369831D01*
X28543949Y-4476051D01*
X28650169Y-4605480D01*
X28729097Y-4753145D01*
X28777701Y-4913370D01*
X28794112Y-5080000D01*
X28777701Y-5246630D01*
X28729097Y-5406855D01*
X28650169Y-5554520D01*
X28543949Y-5683949D01*
X28414520Y-5790169D01*
X28266855Y-5869097D01*
X28106630Y-5917701D01*
X27981752Y-5930000D01*
X27898248Y-5930000D01*
X27773370Y-5917701D01*
X27613145Y-5869097D01*
X27465480Y-5790169D01*
X27336051Y-5683949D01*
X27229831Y-5554520D01*
X27150903Y-5406855D01*
X27102299Y-5246630D01*
X27085888Y-5080000D01*
X27102299Y-4913370D01*
X27150903Y-4753145D01*
X27229831Y-4605480D01*
X27336051Y-4476051D01*
X27465480Y-4369831D01*
X27613145Y-4290903D01*
X27773370Y-4242299D01*
X27898248Y-4230000D01*
X27981752Y-4230000D01*
X28106630Y-4242299D01*
X28106630Y-4242299D01*
G37*
G36*
X30646630Y-4242299D02*
X30806855Y-4290903D01*
X30954520Y-4369831D01*
X31083949Y-4476051D01*
X31190169Y-4605480D01*
X31269097Y-4753145D01*
X31317701Y-4913370D01*
X31334112Y-5080000D01*
X31317701Y-5246630D01*
X31269097Y-5406855D01*
X31190169Y-5554520D01*
X31083949Y-5683949D01*
X30954520Y-5790169D01*
X30806855Y-5869097D01*
X30646630Y-5917701D01*
X30521752Y-5930000D01*
X30438248Y-5930000D01*
X30313370Y-5917701D01*
X30153145Y-5869097D01*
X30005480Y-5790169D01*
X29876051Y-5683949D01*
X29769831Y-5554520D01*
X29690903Y-5406855D01*
X29642299Y-5246630D01*
X29625888Y-5080000D01*
X29642299Y-4913370D01*
X29690903Y-4753145D01*
X29769831Y-4605480D01*
X29876051Y-4476051D01*
X30005480Y-4369831D01*
X30153145Y-4290903D01*
X30313370Y-4242299D01*
X30438248Y-4230000D01*
X30521752Y-4230000D01*
X30646630Y-4242299D01*
X30646630Y-4242299D01*
G37*
G36*
X33186630Y-4242299D02*
X33346855Y-4290903D01*
X33494520Y-4369831D01*
X33623949Y-4476051D01*
X33730169Y-4605480D01*
X33809097Y-4753145D01*
X33857701Y-4913370D01*
X33874112Y-5080000D01*
X33857701Y-5246630D01*
X33809097Y-5406855D01*
X33730169Y-5554520D01*
X33623949Y-5683949D01*
X33494520Y-5790169D01*
X33346855Y-5869097D01*
X33186630Y-5917701D01*
X33061752Y-5930000D01*
X32978248Y-5930000D01*
X32853370Y-5917701D01*
X32693145Y-5869097D01*
X32545480Y-5790169D01*
X32416051Y-5683949D01*
X32309831Y-5554520D01*
X32230903Y-5406855D01*
X32182299Y-5246630D01*
X32165888Y-5080000D01*
X32182299Y-4913370D01*
X32230903Y-4753145D01*
X32309831Y-4605480D01*
X32416051Y-4476051D01*
X32545480Y-4369831D01*
X32693145Y-4290903D01*
X32853370Y-4242299D01*
X32978248Y-4230000D01*
X33061752Y-4230000D01*
X33186630Y-4242299D01*
X33186630Y-4242299D01*
G37*
M02*
