G04 #@! TF.GenerationSoftware,KiCad,Pcbnew,(5.0.2)-1*
G04 #@! TF.CreationDate,2019-10-05T09:24:11-04:00*
G04 #@! TF.ProjectId,JoyPad,4a6f7950-6164-42e6-9b69-6361645f7063,X1*
G04 #@! TF.SameCoordinates,Original*
G04 #@! TF.FileFunction,Legend,Bot*
G04 #@! TF.FilePolarity,Positive*
%FSLAX46Y46*%
G04 Gerber Fmt 4.6, Leading zero omitted, Abs format (unit mm)*
G04 Created by KiCad (PCBNEW (5.0.2)-1) date 10/5/2019 9:24:11 AM*
%MOMM*%
%LPD*%
G01*
G04 APERTURE LIST*
%ADD10C,0.381000*%
%ADD11C,0.650000*%
%ADD12C,0.120000*%
%ADD13C,0.304800*%
%ADD14C,0.150000*%
G04 APERTURE END LIST*
D10*
X17586778Y-42422535D02*
X17586778Y-40517535D01*
X16861064Y-40517535D01*
X16679635Y-40608250D01*
X16588921Y-40698964D01*
X16498207Y-40880392D01*
X16498207Y-41152535D01*
X16588921Y-41333964D01*
X16679635Y-41424678D01*
X16861064Y-41515392D01*
X17586778Y-41515392D01*
X15863207Y-40517535D02*
X15409635Y-42422535D01*
X15046778Y-41061821D01*
X14683921Y-42422535D01*
X14230350Y-40517535D01*
X12869635Y-41424678D02*
X12597492Y-41515392D01*
X12506778Y-41606107D01*
X12416064Y-41787535D01*
X12416064Y-42059678D01*
X12506778Y-42241107D01*
X12597492Y-42331821D01*
X12778921Y-42422535D01*
X13504635Y-42422535D01*
X13504635Y-40517535D01*
X12869635Y-40517535D01*
X12688207Y-40608250D01*
X12597492Y-40698964D01*
X12506778Y-40880392D01*
X12506778Y-41061821D01*
X12597492Y-41243250D01*
X12688207Y-41333964D01*
X12869635Y-41424678D01*
X13504635Y-41424678D01*
X16498207Y-45661035D02*
X17133207Y-44753892D01*
X17586778Y-45661035D02*
X17586778Y-43756035D01*
X16861064Y-43756035D01*
X16679635Y-43846750D01*
X16588921Y-43937464D01*
X16498207Y-44118892D01*
X16498207Y-44391035D01*
X16588921Y-44572464D01*
X16679635Y-44663178D01*
X16861064Y-44753892D01*
X17586778Y-44753892D01*
X14956064Y-45570321D02*
X15137492Y-45661035D01*
X15500350Y-45661035D01*
X15681778Y-45570321D01*
X15772492Y-45388892D01*
X15772492Y-44663178D01*
X15681778Y-44481750D01*
X15500350Y-44391035D01*
X15137492Y-44391035D01*
X14956064Y-44481750D01*
X14865350Y-44663178D01*
X14865350Y-44844607D01*
X15772492Y-45026035D01*
X14230350Y-44391035D02*
X13776778Y-45661035D01*
X13323207Y-44391035D01*
X10148207Y-45661035D02*
X11236778Y-45661035D01*
X10692492Y-45661035D02*
X10692492Y-43756035D01*
X10873921Y-44028178D01*
X11055350Y-44209607D01*
X11236778Y-44300321D01*
D11*
G04 #@! TO.C,TEST*
X42000000Y-31000000D02*
X46000000Y-31000000D01*
X46000000Y-31000000D02*
X46000000Y-35000000D01*
X46000000Y-35000000D02*
X42000000Y-35000000D01*
X42000000Y-35000000D02*
X42000000Y-31000000D01*
X42000000Y-31000000D02*
X42000000Y-31500000D01*
X42000000Y-31500000D02*
X46000000Y-31500000D01*
X46000000Y-31500000D02*
X46000000Y-32000000D01*
X46000000Y-32000000D02*
X42000000Y-32000000D01*
X42000000Y-32000000D02*
X42000000Y-32500000D01*
X42000000Y-32500000D02*
X46000000Y-32500000D01*
X46000000Y-32500000D02*
X46000000Y-33000000D01*
X46000000Y-33000000D02*
X42000000Y-33000000D01*
X42000000Y-33000000D02*
X42000000Y-33500000D01*
X42000000Y-33500000D02*
X45500000Y-33500000D01*
X45500000Y-33500000D02*
X46000000Y-33500000D01*
X46000000Y-33500000D02*
X46000000Y-34000000D01*
X46000000Y-34000000D02*
X42000000Y-34000000D01*
X42000000Y-34000000D02*
X42000000Y-34500000D01*
X42000000Y-34500000D02*
X46000000Y-34500000D01*
D12*
G04 #@! TO.C,J1*
X10730000Y-13330000D02*
X10730000Y-10670000D01*
X38730000Y-13330000D02*
X10730000Y-13330000D01*
X38730000Y-10670000D02*
X10730000Y-10670000D01*
X38730000Y-13330000D02*
X38730000Y-10670000D01*
X40000000Y-13330000D02*
X41330000Y-13330000D01*
X41330000Y-13330000D02*
X41330000Y-12000000D01*
G04 #@! TO.C,TEST*
D13*
X46431142Y-28665428D02*
X45560285Y-28665428D01*
X45995714Y-30189428D02*
X45995714Y-28665428D01*
X45052285Y-29391142D02*
X44544285Y-29391142D01*
X44326571Y-30189428D02*
X45052285Y-30189428D01*
X45052285Y-28665428D01*
X44326571Y-28665428D01*
X43746000Y-30116857D02*
X43528285Y-30189428D01*
X43165428Y-30189428D01*
X43020285Y-30116857D01*
X42947714Y-30044285D01*
X42875142Y-29899142D01*
X42875142Y-29754000D01*
X42947714Y-29608857D01*
X43020285Y-29536285D01*
X43165428Y-29463714D01*
X43455714Y-29391142D01*
X43600857Y-29318571D01*
X43673428Y-29246000D01*
X43746000Y-29100857D01*
X43746000Y-28955714D01*
X43673428Y-28810571D01*
X43600857Y-28738000D01*
X43455714Y-28665428D01*
X43092857Y-28665428D01*
X42875142Y-28738000D01*
X42439714Y-28665428D02*
X41568857Y-28665428D01*
X42004285Y-30189428D02*
X42004285Y-28665428D01*
G04 #@! TO.C,J1*
D14*
X41782380Y-11666666D02*
X42496666Y-11666666D01*
X42639523Y-11619047D01*
X42734761Y-11523809D01*
X42782380Y-11380952D01*
X42782380Y-11285714D01*
X42782380Y-12666666D02*
X42782380Y-12095238D01*
X42782380Y-12380952D02*
X41782380Y-12380952D01*
X41925238Y-12285714D01*
X42020476Y-12190476D01*
X42068095Y-12095238D01*
G04 #@! TD*
M02*
