G04 #@! TF.GenerationSoftware,KiCad,Pcbnew,(5.0.2)-1*
G04 #@! TF.CreationDate,2019-10-05T09:24:11-04:00*
G04 #@! TF.ProjectId,JoyPad,4a6f7950-6164-42e6-9b69-6361645f7063,X1*
G04 #@! TF.SameCoordinates,Original*
G04 #@! TF.FileFunction,Soldermask,Bot*
G04 #@! TF.FilePolarity,Negative*
%FSLAX46Y46*%
G04 Gerber Fmt 4.6, Leading zero omitted, Abs format (unit mm)*
G04 Created by KiCad (PCBNEW (5.0.2)-1) date 10/5/2019 9:24:11 AM*
%MOMM*%
%LPD*%
G01*
G04 APERTURE LIST*
%ADD10C,0.150000*%
G04 APERTURE END LIST*
D10*
G36*
X45926112Y-41947013D02*
X46503925Y-42186351D01*
X47023947Y-42533819D01*
X47466181Y-42976053D01*
X47813649Y-43496075D01*
X48052987Y-44073888D01*
X48175000Y-44687288D01*
X48175000Y-45312712D01*
X48052987Y-45926112D01*
X47813649Y-46503925D01*
X47466181Y-47023947D01*
X47023947Y-47466181D01*
X46503925Y-47813649D01*
X45926112Y-48052987D01*
X45312712Y-48175000D01*
X44687288Y-48175000D01*
X44073888Y-48052987D01*
X43496075Y-47813649D01*
X42976053Y-47466181D01*
X42533819Y-47023947D01*
X42186351Y-46503925D01*
X41947013Y-45926112D01*
X41825000Y-45312712D01*
X41825000Y-44687288D01*
X41947013Y-44073888D01*
X42186351Y-43496075D01*
X42533819Y-42976053D01*
X42976053Y-42533819D01*
X43496075Y-42186351D01*
X44073888Y-41947013D01*
X44687288Y-41825000D01*
X45312712Y-41825000D01*
X45926112Y-41947013D01*
X45926112Y-41947013D01*
G37*
G36*
X4926112Y-41947013D02*
X5503925Y-42186351D01*
X6023947Y-42533819D01*
X6466181Y-42976053D01*
X6813649Y-43496075D01*
X7052987Y-44073888D01*
X7175000Y-44687288D01*
X7175000Y-45312712D01*
X7052987Y-45926112D01*
X6813649Y-46503925D01*
X6466181Y-47023947D01*
X6023947Y-47466181D01*
X5503925Y-47813649D01*
X4926112Y-48052987D01*
X4312712Y-48175000D01*
X3687288Y-48175000D01*
X3073888Y-48052987D01*
X2496075Y-47813649D01*
X1976053Y-47466181D01*
X1533819Y-47023947D01*
X1186351Y-46503925D01*
X947013Y-45926112D01*
X825000Y-45312712D01*
X825000Y-44687288D01*
X947013Y-44073888D01*
X1186351Y-43496075D01*
X1533819Y-42976053D01*
X1976053Y-42533819D01*
X2496075Y-42186351D01*
X3073888Y-41947013D01*
X3687288Y-41825000D01*
X4312712Y-41825000D01*
X4926112Y-41947013D01*
X4926112Y-41947013D01*
G37*
G36*
X27535770Y-46015372D02*
X27651689Y-46038429D01*
X27833678Y-46113811D01*
X27997463Y-46223249D01*
X28136751Y-46362537D01*
X28246189Y-46526322D01*
X28321571Y-46708311D01*
X28360000Y-46901509D01*
X28360000Y-47098491D01*
X28321571Y-47291689D01*
X28246189Y-47473678D01*
X28136751Y-47637463D01*
X27997463Y-47776751D01*
X27833678Y-47886189D01*
X27651689Y-47961571D01*
X27535770Y-47984628D01*
X27458493Y-48000000D01*
X27261507Y-48000000D01*
X27184230Y-47984628D01*
X27068311Y-47961571D01*
X26886322Y-47886189D01*
X26722537Y-47776751D01*
X26583249Y-47637463D01*
X26473811Y-47473678D01*
X26398429Y-47291689D01*
X26360000Y-47098491D01*
X26360000Y-46901509D01*
X26398429Y-46708311D01*
X26473811Y-46526322D01*
X26583249Y-46362537D01*
X26722537Y-46223249D01*
X26886322Y-46113811D01*
X27068311Y-46038429D01*
X27184230Y-46015372D01*
X27261507Y-46000000D01*
X27458493Y-46000000D01*
X27535770Y-46015372D01*
X27535770Y-46015372D01*
G37*
G36*
X23035770Y-46015372D02*
X23151689Y-46038429D01*
X23333678Y-46113811D01*
X23497463Y-46223249D01*
X23636751Y-46362537D01*
X23746189Y-46526322D01*
X23821571Y-46708311D01*
X23860000Y-46901509D01*
X23860000Y-47098491D01*
X23821571Y-47291689D01*
X23746189Y-47473678D01*
X23636751Y-47637463D01*
X23497463Y-47776751D01*
X23333678Y-47886189D01*
X23151689Y-47961571D01*
X23035770Y-47984628D01*
X22958493Y-48000000D01*
X22761507Y-48000000D01*
X22684230Y-47984628D01*
X22568311Y-47961571D01*
X22386322Y-47886189D01*
X22222537Y-47776751D01*
X22083249Y-47637463D01*
X21973811Y-47473678D01*
X21898429Y-47291689D01*
X21860000Y-47098491D01*
X21860000Y-46901509D01*
X21898429Y-46708311D01*
X21973811Y-46526322D01*
X22083249Y-46362537D01*
X22222537Y-46223249D01*
X22386322Y-46113811D01*
X22568311Y-46038429D01*
X22684230Y-46015372D01*
X22761507Y-46000000D01*
X22958493Y-46000000D01*
X23035770Y-46015372D01*
X23035770Y-46015372D01*
G37*
G36*
X27535770Y-39515372D02*
X27651689Y-39538429D01*
X27833678Y-39613811D01*
X27997463Y-39723249D01*
X28136751Y-39862537D01*
X28246189Y-40026322D01*
X28321571Y-40208311D01*
X28360000Y-40401509D01*
X28360000Y-40598491D01*
X28321571Y-40791689D01*
X28246189Y-40973678D01*
X28136751Y-41137463D01*
X27997463Y-41276751D01*
X27833678Y-41386189D01*
X27651689Y-41461571D01*
X27535770Y-41484628D01*
X27458493Y-41500000D01*
X27261507Y-41500000D01*
X27184230Y-41484628D01*
X27068311Y-41461571D01*
X26886322Y-41386189D01*
X26722537Y-41276751D01*
X26583249Y-41137463D01*
X26473811Y-40973678D01*
X26398429Y-40791689D01*
X26360000Y-40598491D01*
X26360000Y-40401509D01*
X26398429Y-40208311D01*
X26473811Y-40026322D01*
X26583249Y-39862537D01*
X26722537Y-39723249D01*
X26886322Y-39613811D01*
X27068311Y-39538429D01*
X27184230Y-39515372D01*
X27261507Y-39500000D01*
X27458493Y-39500000D01*
X27535770Y-39515372D01*
X27535770Y-39515372D01*
G37*
G36*
X23035770Y-39515372D02*
X23151689Y-39538429D01*
X23333678Y-39613811D01*
X23497463Y-39723249D01*
X23636751Y-39862537D01*
X23746189Y-40026322D01*
X23821571Y-40208311D01*
X23860000Y-40401509D01*
X23860000Y-40598491D01*
X23821571Y-40791689D01*
X23746189Y-40973678D01*
X23636751Y-41137463D01*
X23497463Y-41276751D01*
X23333678Y-41386189D01*
X23151689Y-41461571D01*
X23035770Y-41484628D01*
X22958493Y-41500000D01*
X22761507Y-41500000D01*
X22684230Y-41484628D01*
X22568311Y-41461571D01*
X22386322Y-41386189D01*
X22222537Y-41276751D01*
X22083249Y-41137463D01*
X21973811Y-40973678D01*
X21898429Y-40791689D01*
X21860000Y-40598491D01*
X21860000Y-40401509D01*
X21898429Y-40208311D01*
X21973811Y-40026322D01*
X22083249Y-39862537D01*
X22222537Y-39723249D01*
X22386322Y-39613811D01*
X22568311Y-39538429D01*
X22684230Y-39515372D01*
X22761507Y-39500000D01*
X22958493Y-39500000D01*
X23035770Y-39515372D01*
X23035770Y-39515372D01*
G37*
G36*
X31925770Y-36575372D02*
X32041689Y-36598429D01*
X32223678Y-36673811D01*
X32387463Y-36783249D01*
X32526751Y-36922537D01*
X32636189Y-37086322D01*
X32711571Y-37268311D01*
X32750000Y-37461509D01*
X32750000Y-37658491D01*
X32711571Y-37851689D01*
X32636189Y-38033678D01*
X32526751Y-38197463D01*
X32387463Y-38336751D01*
X32223678Y-38446189D01*
X32041689Y-38521571D01*
X31925770Y-38544628D01*
X31848493Y-38560000D01*
X31651507Y-38560000D01*
X31574230Y-38544628D01*
X31458311Y-38521571D01*
X31276322Y-38446189D01*
X31112537Y-38336751D01*
X30973249Y-38197463D01*
X30863811Y-38033678D01*
X30788429Y-37851689D01*
X30750000Y-37658491D01*
X30750000Y-37461509D01*
X30788429Y-37268311D01*
X30863811Y-37086322D01*
X30973249Y-36922537D01*
X31112537Y-36783249D01*
X31276322Y-36673811D01*
X31458311Y-36598429D01*
X31574230Y-36575372D01*
X31651507Y-36560000D01*
X31848493Y-36560000D01*
X31925770Y-36575372D01*
X31925770Y-36575372D01*
G37*
G36*
X36425770Y-36575372D02*
X36541689Y-36598429D01*
X36723678Y-36673811D01*
X36887463Y-36783249D01*
X37026751Y-36922537D01*
X37136189Y-37086322D01*
X37211571Y-37268311D01*
X37250000Y-37461509D01*
X37250000Y-37658491D01*
X37211571Y-37851689D01*
X37136189Y-38033678D01*
X37026751Y-38197463D01*
X36887463Y-38336751D01*
X36723678Y-38446189D01*
X36541689Y-38521571D01*
X36425770Y-38544628D01*
X36348493Y-38560000D01*
X36151507Y-38560000D01*
X36074230Y-38544628D01*
X35958311Y-38521571D01*
X35776322Y-38446189D01*
X35612537Y-38336751D01*
X35473249Y-38197463D01*
X35363811Y-38033678D01*
X35288429Y-37851689D01*
X35250000Y-37658491D01*
X35250000Y-37461509D01*
X35288429Y-37268311D01*
X35363811Y-37086322D01*
X35473249Y-36922537D01*
X35612537Y-36783249D01*
X35776322Y-36673811D01*
X35958311Y-36598429D01*
X36074230Y-36575372D01*
X36151507Y-36560000D01*
X36348493Y-36560000D01*
X36425770Y-36575372D01*
X36425770Y-36575372D01*
G37*
G36*
X27535770Y-36575372D02*
X27651689Y-36598429D01*
X27833678Y-36673811D01*
X27997463Y-36783249D01*
X28136751Y-36922537D01*
X28246189Y-37086322D01*
X28321571Y-37268311D01*
X28360000Y-37461509D01*
X28360000Y-37658491D01*
X28321571Y-37851689D01*
X28246189Y-38033678D01*
X28136751Y-38197463D01*
X27997463Y-38336751D01*
X27833678Y-38446189D01*
X27651689Y-38521571D01*
X27535770Y-38544628D01*
X27458493Y-38560000D01*
X27261507Y-38560000D01*
X27184230Y-38544628D01*
X27068311Y-38521571D01*
X26886322Y-38446189D01*
X26722537Y-38336751D01*
X26583249Y-38197463D01*
X26473811Y-38033678D01*
X26398429Y-37851689D01*
X26360000Y-37658491D01*
X26360000Y-37461509D01*
X26398429Y-37268311D01*
X26473811Y-37086322D01*
X26583249Y-36922537D01*
X26722537Y-36783249D01*
X26886322Y-36673811D01*
X27068311Y-36598429D01*
X27184230Y-36575372D01*
X27261507Y-36560000D01*
X27458493Y-36560000D01*
X27535770Y-36575372D01*
X27535770Y-36575372D01*
G37*
G36*
X23035770Y-36575372D02*
X23151689Y-36598429D01*
X23333678Y-36673811D01*
X23497463Y-36783249D01*
X23636751Y-36922537D01*
X23746189Y-37086322D01*
X23821571Y-37268311D01*
X23860000Y-37461509D01*
X23860000Y-37658491D01*
X23821571Y-37851689D01*
X23746189Y-38033678D01*
X23636751Y-38197463D01*
X23497463Y-38336751D01*
X23333678Y-38446189D01*
X23151689Y-38521571D01*
X23035770Y-38544628D01*
X22958493Y-38560000D01*
X22761507Y-38560000D01*
X22684230Y-38544628D01*
X22568311Y-38521571D01*
X22386322Y-38446189D01*
X22222537Y-38336751D01*
X22083249Y-38197463D01*
X21973811Y-38033678D01*
X21898429Y-37851689D01*
X21860000Y-37658491D01*
X21860000Y-37461509D01*
X21898429Y-37268311D01*
X21973811Y-37086322D01*
X22083249Y-36922537D01*
X22222537Y-36783249D01*
X22386322Y-36673811D01*
X22568311Y-36598429D01*
X22684230Y-36575372D01*
X22761507Y-36560000D01*
X22958493Y-36560000D01*
X23035770Y-36575372D01*
X23035770Y-36575372D01*
G37*
G36*
X14145770Y-36575372D02*
X14261689Y-36598429D01*
X14443678Y-36673811D01*
X14607463Y-36783249D01*
X14746751Y-36922537D01*
X14856189Y-37086322D01*
X14931571Y-37268311D01*
X14970000Y-37461509D01*
X14970000Y-37658491D01*
X14931571Y-37851689D01*
X14856189Y-38033678D01*
X14746751Y-38197463D01*
X14607463Y-38336751D01*
X14443678Y-38446189D01*
X14261689Y-38521571D01*
X14145770Y-38544628D01*
X14068493Y-38560000D01*
X13871507Y-38560000D01*
X13794230Y-38544628D01*
X13678311Y-38521571D01*
X13496322Y-38446189D01*
X13332537Y-38336751D01*
X13193249Y-38197463D01*
X13083811Y-38033678D01*
X13008429Y-37851689D01*
X12970000Y-37658491D01*
X12970000Y-37461509D01*
X13008429Y-37268311D01*
X13083811Y-37086322D01*
X13193249Y-36922537D01*
X13332537Y-36783249D01*
X13496322Y-36673811D01*
X13678311Y-36598429D01*
X13794230Y-36575372D01*
X13871507Y-36560000D01*
X14068493Y-36560000D01*
X14145770Y-36575372D01*
X14145770Y-36575372D01*
G37*
G36*
X18645770Y-36575372D02*
X18761689Y-36598429D01*
X18943678Y-36673811D01*
X19107463Y-36783249D01*
X19246751Y-36922537D01*
X19356189Y-37086322D01*
X19431571Y-37268311D01*
X19470000Y-37461509D01*
X19470000Y-37658491D01*
X19431571Y-37851689D01*
X19356189Y-38033678D01*
X19246751Y-38197463D01*
X19107463Y-38336751D01*
X18943678Y-38446189D01*
X18761689Y-38521571D01*
X18645770Y-38544628D01*
X18568493Y-38560000D01*
X18371507Y-38560000D01*
X18294230Y-38544628D01*
X18178311Y-38521571D01*
X17996322Y-38446189D01*
X17832537Y-38336751D01*
X17693249Y-38197463D01*
X17583811Y-38033678D01*
X17508429Y-37851689D01*
X17470000Y-37658491D01*
X17470000Y-37461509D01*
X17508429Y-37268311D01*
X17583811Y-37086322D01*
X17693249Y-36922537D01*
X17832537Y-36783249D01*
X17996322Y-36673811D01*
X18178311Y-36598429D01*
X18294230Y-36575372D01*
X18371507Y-36560000D01*
X18568493Y-36560000D01*
X18645770Y-36575372D01*
X18645770Y-36575372D01*
G37*
G36*
X27535770Y-30075372D02*
X27651689Y-30098429D01*
X27833678Y-30173811D01*
X27997463Y-30283249D01*
X28136751Y-30422537D01*
X28246189Y-30586322D01*
X28321571Y-30768311D01*
X28360000Y-30961509D01*
X28360000Y-31158491D01*
X28321571Y-31351689D01*
X28246189Y-31533678D01*
X28136751Y-31697463D01*
X27997463Y-31836751D01*
X27833678Y-31946189D01*
X27651689Y-32021571D01*
X27535770Y-32044628D01*
X27458493Y-32060000D01*
X27261507Y-32060000D01*
X27184230Y-32044628D01*
X27068311Y-32021571D01*
X26886322Y-31946189D01*
X26722537Y-31836751D01*
X26583249Y-31697463D01*
X26473811Y-31533678D01*
X26398429Y-31351689D01*
X26360000Y-31158491D01*
X26360000Y-30961509D01*
X26398429Y-30768311D01*
X26473811Y-30586322D01*
X26583249Y-30422537D01*
X26722537Y-30283249D01*
X26886322Y-30173811D01*
X27068311Y-30098429D01*
X27184230Y-30075372D01*
X27261507Y-30060000D01*
X27458493Y-30060000D01*
X27535770Y-30075372D01*
X27535770Y-30075372D01*
G37*
G36*
X36425770Y-30075372D02*
X36541689Y-30098429D01*
X36723678Y-30173811D01*
X36887463Y-30283249D01*
X37026751Y-30422537D01*
X37136189Y-30586322D01*
X37211571Y-30768311D01*
X37250000Y-30961509D01*
X37250000Y-31158491D01*
X37211571Y-31351689D01*
X37136189Y-31533678D01*
X37026751Y-31697463D01*
X36887463Y-31836751D01*
X36723678Y-31946189D01*
X36541689Y-32021571D01*
X36425770Y-32044628D01*
X36348493Y-32060000D01*
X36151507Y-32060000D01*
X36074230Y-32044628D01*
X35958311Y-32021571D01*
X35776322Y-31946189D01*
X35612537Y-31836751D01*
X35473249Y-31697463D01*
X35363811Y-31533678D01*
X35288429Y-31351689D01*
X35250000Y-31158491D01*
X35250000Y-30961509D01*
X35288429Y-30768311D01*
X35363811Y-30586322D01*
X35473249Y-30422537D01*
X35612537Y-30283249D01*
X35776322Y-30173811D01*
X35958311Y-30098429D01*
X36074230Y-30075372D01*
X36151507Y-30060000D01*
X36348493Y-30060000D01*
X36425770Y-30075372D01*
X36425770Y-30075372D01*
G37*
G36*
X31925770Y-30075372D02*
X32041689Y-30098429D01*
X32223678Y-30173811D01*
X32387463Y-30283249D01*
X32526751Y-30422537D01*
X32636189Y-30586322D01*
X32711571Y-30768311D01*
X32750000Y-30961509D01*
X32750000Y-31158491D01*
X32711571Y-31351689D01*
X32636189Y-31533678D01*
X32526751Y-31697463D01*
X32387463Y-31836751D01*
X32223678Y-31946189D01*
X32041689Y-32021571D01*
X31925770Y-32044628D01*
X31848493Y-32060000D01*
X31651507Y-32060000D01*
X31574230Y-32044628D01*
X31458311Y-32021571D01*
X31276322Y-31946189D01*
X31112537Y-31836751D01*
X30973249Y-31697463D01*
X30863811Y-31533678D01*
X30788429Y-31351689D01*
X30750000Y-31158491D01*
X30750000Y-30961509D01*
X30788429Y-30768311D01*
X30863811Y-30586322D01*
X30973249Y-30422537D01*
X31112537Y-30283249D01*
X31276322Y-30173811D01*
X31458311Y-30098429D01*
X31574230Y-30075372D01*
X31651507Y-30060000D01*
X31848493Y-30060000D01*
X31925770Y-30075372D01*
X31925770Y-30075372D01*
G37*
G36*
X23035770Y-30075372D02*
X23151689Y-30098429D01*
X23333678Y-30173811D01*
X23497463Y-30283249D01*
X23636751Y-30422537D01*
X23746189Y-30586322D01*
X23821571Y-30768311D01*
X23860000Y-30961509D01*
X23860000Y-31158491D01*
X23821571Y-31351689D01*
X23746189Y-31533678D01*
X23636751Y-31697463D01*
X23497463Y-31836751D01*
X23333678Y-31946189D01*
X23151689Y-32021571D01*
X23035770Y-32044628D01*
X22958493Y-32060000D01*
X22761507Y-32060000D01*
X22684230Y-32044628D01*
X22568311Y-32021571D01*
X22386322Y-31946189D01*
X22222537Y-31836751D01*
X22083249Y-31697463D01*
X21973811Y-31533678D01*
X21898429Y-31351689D01*
X21860000Y-31158491D01*
X21860000Y-30961509D01*
X21898429Y-30768311D01*
X21973811Y-30586322D01*
X22083249Y-30422537D01*
X22222537Y-30283249D01*
X22386322Y-30173811D01*
X22568311Y-30098429D01*
X22684230Y-30075372D01*
X22761507Y-30060000D01*
X22958493Y-30060000D01*
X23035770Y-30075372D01*
X23035770Y-30075372D01*
G37*
G36*
X18645770Y-30075372D02*
X18761689Y-30098429D01*
X18943678Y-30173811D01*
X19107463Y-30283249D01*
X19246751Y-30422537D01*
X19356189Y-30586322D01*
X19431571Y-30768311D01*
X19470000Y-30961509D01*
X19470000Y-31158491D01*
X19431571Y-31351689D01*
X19356189Y-31533678D01*
X19246751Y-31697463D01*
X19107463Y-31836751D01*
X18943678Y-31946189D01*
X18761689Y-32021571D01*
X18645770Y-32044628D01*
X18568493Y-32060000D01*
X18371507Y-32060000D01*
X18294230Y-32044628D01*
X18178311Y-32021571D01*
X17996322Y-31946189D01*
X17832537Y-31836751D01*
X17693249Y-31697463D01*
X17583811Y-31533678D01*
X17508429Y-31351689D01*
X17470000Y-31158491D01*
X17470000Y-30961509D01*
X17508429Y-30768311D01*
X17583811Y-30586322D01*
X17693249Y-30422537D01*
X17832537Y-30283249D01*
X17996322Y-30173811D01*
X18178311Y-30098429D01*
X18294230Y-30075372D01*
X18371507Y-30060000D01*
X18568493Y-30060000D01*
X18645770Y-30075372D01*
X18645770Y-30075372D01*
G37*
G36*
X14145770Y-30075372D02*
X14261689Y-30098429D01*
X14443678Y-30173811D01*
X14607463Y-30283249D01*
X14746751Y-30422537D01*
X14856189Y-30586322D01*
X14931571Y-30768311D01*
X14970000Y-30961509D01*
X14970000Y-31158491D01*
X14931571Y-31351689D01*
X14856189Y-31533678D01*
X14746751Y-31697463D01*
X14607463Y-31836751D01*
X14443678Y-31946189D01*
X14261689Y-32021571D01*
X14145770Y-32044628D01*
X14068493Y-32060000D01*
X13871507Y-32060000D01*
X13794230Y-32044628D01*
X13678311Y-32021571D01*
X13496322Y-31946189D01*
X13332537Y-31836751D01*
X13193249Y-31697463D01*
X13083811Y-31533678D01*
X13008429Y-31351689D01*
X12970000Y-31158491D01*
X12970000Y-30961509D01*
X13008429Y-30768311D01*
X13083811Y-30586322D01*
X13193249Y-30422537D01*
X13332537Y-30283249D01*
X13496322Y-30173811D01*
X13678311Y-30098429D01*
X13794230Y-30075372D01*
X13871507Y-30060000D01*
X14068493Y-30060000D01*
X14145770Y-30075372D01*
X14145770Y-30075372D01*
G37*
G36*
X27535770Y-27415372D02*
X27651689Y-27438429D01*
X27833678Y-27513811D01*
X27997463Y-27623249D01*
X28136751Y-27762537D01*
X28246189Y-27926322D01*
X28321571Y-28108311D01*
X28360000Y-28301509D01*
X28360000Y-28498491D01*
X28321571Y-28691689D01*
X28246189Y-28873678D01*
X28136751Y-29037463D01*
X27997463Y-29176751D01*
X27833678Y-29286189D01*
X27651689Y-29361571D01*
X27535770Y-29384628D01*
X27458493Y-29400000D01*
X27261507Y-29400000D01*
X27184230Y-29384628D01*
X27068311Y-29361571D01*
X26886322Y-29286189D01*
X26722537Y-29176751D01*
X26583249Y-29037463D01*
X26473811Y-28873678D01*
X26398429Y-28691689D01*
X26360000Y-28498491D01*
X26360000Y-28301509D01*
X26398429Y-28108311D01*
X26473811Y-27926322D01*
X26583249Y-27762537D01*
X26722537Y-27623249D01*
X26886322Y-27513811D01*
X27068311Y-27438429D01*
X27184230Y-27415372D01*
X27261507Y-27400000D01*
X27458493Y-27400000D01*
X27535770Y-27415372D01*
X27535770Y-27415372D01*
G37*
G36*
X23035770Y-27415372D02*
X23151689Y-27438429D01*
X23333678Y-27513811D01*
X23497463Y-27623249D01*
X23636751Y-27762537D01*
X23746189Y-27926322D01*
X23821571Y-28108311D01*
X23860000Y-28301509D01*
X23860000Y-28498491D01*
X23821571Y-28691689D01*
X23746189Y-28873678D01*
X23636751Y-29037463D01*
X23497463Y-29176751D01*
X23333678Y-29286189D01*
X23151689Y-29361571D01*
X23035770Y-29384628D01*
X22958493Y-29400000D01*
X22761507Y-29400000D01*
X22684230Y-29384628D01*
X22568311Y-29361571D01*
X22386322Y-29286189D01*
X22222537Y-29176751D01*
X22083249Y-29037463D01*
X21973811Y-28873678D01*
X21898429Y-28691689D01*
X21860000Y-28498491D01*
X21860000Y-28301509D01*
X21898429Y-28108311D01*
X21973811Y-27926322D01*
X22083249Y-27762537D01*
X22222537Y-27623249D01*
X22386322Y-27513811D01*
X22568311Y-27438429D01*
X22684230Y-27415372D01*
X22761507Y-27400000D01*
X22958493Y-27400000D01*
X23035770Y-27415372D01*
X23035770Y-27415372D01*
G37*
G36*
X27535770Y-20915372D02*
X27651689Y-20938429D01*
X27833678Y-21013811D01*
X27997463Y-21123249D01*
X28136751Y-21262537D01*
X28246189Y-21426322D01*
X28321571Y-21608311D01*
X28328207Y-21641675D01*
X28353669Y-21769678D01*
X28360000Y-21801509D01*
X28360000Y-21998491D01*
X28321571Y-22191689D01*
X28246189Y-22373678D01*
X28136751Y-22537463D01*
X27997463Y-22676751D01*
X27833678Y-22786189D01*
X27651689Y-22861571D01*
X27535770Y-22884628D01*
X27458493Y-22900000D01*
X27261507Y-22900000D01*
X27184230Y-22884628D01*
X27068311Y-22861571D01*
X26886322Y-22786189D01*
X26722537Y-22676751D01*
X26583249Y-22537463D01*
X26473811Y-22373678D01*
X26398429Y-22191689D01*
X26360000Y-21998491D01*
X26360000Y-21801509D01*
X26366332Y-21769678D01*
X26391793Y-21641675D01*
X26398429Y-21608311D01*
X26473811Y-21426322D01*
X26583249Y-21262537D01*
X26722537Y-21123249D01*
X26886322Y-21013811D01*
X27068311Y-20938429D01*
X27184230Y-20915372D01*
X27261507Y-20900000D01*
X27458493Y-20900000D01*
X27535770Y-20915372D01*
X27535770Y-20915372D01*
G37*
G36*
X23035770Y-20915372D02*
X23151689Y-20938429D01*
X23333678Y-21013811D01*
X23497463Y-21123249D01*
X23636751Y-21262537D01*
X23746189Y-21426322D01*
X23821571Y-21608311D01*
X23828207Y-21641675D01*
X23853669Y-21769678D01*
X23860000Y-21801509D01*
X23860000Y-21998491D01*
X23821571Y-22191689D01*
X23746189Y-22373678D01*
X23636751Y-22537463D01*
X23497463Y-22676751D01*
X23333678Y-22786189D01*
X23151689Y-22861571D01*
X23035770Y-22884628D01*
X22958493Y-22900000D01*
X22761507Y-22900000D01*
X22684230Y-22884628D01*
X22568311Y-22861571D01*
X22386322Y-22786189D01*
X22222537Y-22676751D01*
X22083249Y-22537463D01*
X21973811Y-22373678D01*
X21898429Y-22191689D01*
X21860000Y-21998491D01*
X21860000Y-21801509D01*
X21866332Y-21769678D01*
X21891793Y-21641675D01*
X21898429Y-21608311D01*
X21973811Y-21426322D01*
X22083249Y-21262537D01*
X22222537Y-21123249D01*
X22386322Y-21013811D01*
X22568311Y-20938429D01*
X22684230Y-20915372D01*
X22761507Y-20900000D01*
X22958493Y-20900000D01*
X23035770Y-20915372D01*
X23035770Y-20915372D01*
G37*
G36*
X40883031Y-20310429D02*
X41003689Y-20334429D01*
X41185678Y-20409811D01*
X41349463Y-20519249D01*
X41488751Y-20658537D01*
X41598189Y-20822322D01*
X41673571Y-21004311D01*
X41696628Y-21120230D01*
X41712000Y-21197507D01*
X41712000Y-21394493D01*
X41696628Y-21471770D01*
X41673571Y-21587689D01*
X41598189Y-21769678D01*
X41488751Y-21933463D01*
X41349463Y-22072751D01*
X41185678Y-22182189D01*
X41003689Y-22257571D01*
X40887770Y-22280628D01*
X40810493Y-22296000D01*
X40613507Y-22296000D01*
X40536230Y-22280628D01*
X40420311Y-22257571D01*
X40238322Y-22182189D01*
X40074537Y-22072751D01*
X39935249Y-21933463D01*
X39825811Y-21769678D01*
X39750429Y-21587689D01*
X39727372Y-21471770D01*
X39712000Y-21394493D01*
X39712000Y-21197507D01*
X39727372Y-21120230D01*
X39750429Y-21004311D01*
X39825811Y-20822322D01*
X39935249Y-20658537D01*
X40074537Y-20519249D01*
X40238322Y-20409811D01*
X40420311Y-20334429D01*
X40540969Y-20310429D01*
X40613507Y-20296000D01*
X40810493Y-20296000D01*
X40883031Y-20310429D01*
X40883031Y-20310429D01*
G37*
G36*
X45383031Y-20310429D02*
X45503689Y-20334429D01*
X45685678Y-20409811D01*
X45849463Y-20519249D01*
X45988751Y-20658537D01*
X46098189Y-20822322D01*
X46173571Y-21004311D01*
X46196628Y-21120230D01*
X46212000Y-21197507D01*
X46212000Y-21394493D01*
X46196628Y-21471770D01*
X46173571Y-21587689D01*
X46098189Y-21769678D01*
X45988751Y-21933463D01*
X45849463Y-22072751D01*
X45685678Y-22182189D01*
X45503689Y-22257571D01*
X45387770Y-22280628D01*
X45310493Y-22296000D01*
X45113507Y-22296000D01*
X45036230Y-22280628D01*
X44920311Y-22257571D01*
X44738322Y-22182189D01*
X44574537Y-22072751D01*
X44435249Y-21933463D01*
X44325811Y-21769678D01*
X44250429Y-21587689D01*
X44227372Y-21471770D01*
X44212000Y-21394493D01*
X44212000Y-21197507D01*
X44227372Y-21120230D01*
X44250429Y-21004311D01*
X44325811Y-20822322D01*
X44435249Y-20658537D01*
X44574537Y-20519249D01*
X44738322Y-20409811D01*
X44920311Y-20334429D01*
X45040969Y-20310429D01*
X45113507Y-20296000D01*
X45310493Y-20296000D01*
X45383031Y-20310429D01*
X45383031Y-20310429D01*
G37*
G36*
X18645770Y-20287372D02*
X18761689Y-20310429D01*
X18943678Y-20385811D01*
X19107463Y-20495249D01*
X19246751Y-20634537D01*
X19356189Y-20798322D01*
X19431571Y-20980311D01*
X19470000Y-21173509D01*
X19470000Y-21370491D01*
X19431571Y-21563689D01*
X19356189Y-21745678D01*
X19246751Y-21909463D01*
X19107463Y-22048751D01*
X18943678Y-22158189D01*
X18761689Y-22233571D01*
X18645770Y-22256628D01*
X18568493Y-22272000D01*
X18371507Y-22272000D01*
X18294230Y-22256628D01*
X18178311Y-22233571D01*
X17996322Y-22158189D01*
X17832537Y-22048751D01*
X17693249Y-21909463D01*
X17583811Y-21745678D01*
X17508429Y-21563689D01*
X17470000Y-21370491D01*
X17470000Y-21173509D01*
X17508429Y-20980311D01*
X17583811Y-20798322D01*
X17693249Y-20634537D01*
X17832537Y-20495249D01*
X17996322Y-20385811D01*
X18178311Y-20310429D01*
X18294230Y-20287372D01*
X18371507Y-20272000D01*
X18568493Y-20272000D01*
X18645770Y-20287372D01*
X18645770Y-20287372D01*
G37*
G36*
X14145770Y-20287372D02*
X14261689Y-20310429D01*
X14443678Y-20385811D01*
X14607463Y-20495249D01*
X14746751Y-20634537D01*
X14856189Y-20798322D01*
X14931571Y-20980311D01*
X14970000Y-21173509D01*
X14970000Y-21370491D01*
X14931571Y-21563689D01*
X14856189Y-21745678D01*
X14746751Y-21909463D01*
X14607463Y-22048751D01*
X14443678Y-22158189D01*
X14261689Y-22233571D01*
X14145770Y-22256628D01*
X14068493Y-22272000D01*
X13871507Y-22272000D01*
X13794230Y-22256628D01*
X13678311Y-22233571D01*
X13496322Y-22158189D01*
X13332537Y-22048751D01*
X13193249Y-21909463D01*
X13083811Y-21745678D01*
X13008429Y-21563689D01*
X12970000Y-21370491D01*
X12970000Y-21173509D01*
X13008429Y-20980311D01*
X13083811Y-20798322D01*
X13193249Y-20634537D01*
X13332537Y-20495249D01*
X13496322Y-20385811D01*
X13678311Y-20310429D01*
X13794230Y-20287372D01*
X13871507Y-20272000D01*
X14068493Y-20272000D01*
X14145770Y-20287372D01*
X14145770Y-20287372D01*
G37*
G36*
X31997770Y-20183372D02*
X32113689Y-20206429D01*
X32295678Y-20281811D01*
X32459463Y-20391249D01*
X32598751Y-20530537D01*
X32708189Y-20694322D01*
X32783571Y-20876311D01*
X32788283Y-20900000D01*
X32809032Y-21004311D01*
X32822000Y-21069509D01*
X32822000Y-21266491D01*
X32783571Y-21459689D01*
X32708189Y-21641678D01*
X32598751Y-21805463D01*
X32459463Y-21944751D01*
X32295678Y-22054189D01*
X32113689Y-22129571D01*
X31997770Y-22152628D01*
X31920493Y-22168000D01*
X31723507Y-22168000D01*
X31646230Y-22152628D01*
X31530311Y-22129571D01*
X31348322Y-22054189D01*
X31184537Y-21944751D01*
X31045249Y-21805463D01*
X30935811Y-21641678D01*
X30860429Y-21459689D01*
X30822000Y-21266491D01*
X30822000Y-21069509D01*
X30834969Y-21004311D01*
X30855717Y-20900000D01*
X30860429Y-20876311D01*
X30935811Y-20694322D01*
X31045249Y-20530537D01*
X31184537Y-20391249D01*
X31348322Y-20281811D01*
X31530311Y-20206429D01*
X31646230Y-20183372D01*
X31723507Y-20168000D01*
X31920493Y-20168000D01*
X31997770Y-20183372D01*
X31997770Y-20183372D01*
G37*
G36*
X36497770Y-20183372D02*
X36613689Y-20206429D01*
X36795678Y-20281811D01*
X36959463Y-20391249D01*
X37098751Y-20530537D01*
X37208189Y-20694322D01*
X37283571Y-20876311D01*
X37288283Y-20900000D01*
X37309032Y-21004311D01*
X37322000Y-21069509D01*
X37322000Y-21266491D01*
X37283571Y-21459689D01*
X37208189Y-21641678D01*
X37098751Y-21805463D01*
X36959463Y-21944751D01*
X36795678Y-22054189D01*
X36613689Y-22129571D01*
X36497770Y-22152628D01*
X36420493Y-22168000D01*
X36223507Y-22168000D01*
X36146230Y-22152628D01*
X36030311Y-22129571D01*
X35848322Y-22054189D01*
X35684537Y-21944751D01*
X35545249Y-21805463D01*
X35435811Y-21641678D01*
X35360429Y-21459689D01*
X35322000Y-21266491D01*
X35322000Y-21069509D01*
X35334969Y-21004311D01*
X35355717Y-20900000D01*
X35360429Y-20876311D01*
X35435811Y-20694322D01*
X35545249Y-20530537D01*
X35684537Y-20391249D01*
X35848322Y-20281811D01*
X36030311Y-20206429D01*
X36146230Y-20183372D01*
X36223507Y-20168000D01*
X36420493Y-20168000D01*
X36497770Y-20183372D01*
X36497770Y-20183372D01*
G37*
G36*
X40883031Y-13810429D02*
X41003689Y-13834429D01*
X41185678Y-13909811D01*
X41349463Y-14019249D01*
X41488751Y-14158537D01*
X41598189Y-14322322D01*
X41673571Y-14504311D01*
X41696628Y-14620230D01*
X41712000Y-14697507D01*
X41712000Y-14894493D01*
X41696628Y-14971770D01*
X41673571Y-15087689D01*
X41598189Y-15269678D01*
X41488751Y-15433463D01*
X41349463Y-15572751D01*
X41185678Y-15682189D01*
X41003689Y-15757571D01*
X40887770Y-15780628D01*
X40810493Y-15796000D01*
X40613507Y-15796000D01*
X40536230Y-15780628D01*
X40420311Y-15757571D01*
X40238322Y-15682189D01*
X40074537Y-15572751D01*
X39935249Y-15433463D01*
X39825811Y-15269678D01*
X39750429Y-15087689D01*
X39727372Y-14971770D01*
X39712000Y-14894493D01*
X39712000Y-14697507D01*
X39727372Y-14620230D01*
X39750429Y-14504311D01*
X39825811Y-14322322D01*
X39935249Y-14158537D01*
X40074537Y-14019249D01*
X40238322Y-13909811D01*
X40420311Y-13834429D01*
X40540969Y-13810429D01*
X40613507Y-13796000D01*
X40810493Y-13796000D01*
X40883031Y-13810429D01*
X40883031Y-13810429D01*
G37*
G36*
X45383031Y-13810429D02*
X45503689Y-13834429D01*
X45685678Y-13909811D01*
X45849463Y-14019249D01*
X45988751Y-14158537D01*
X46098189Y-14322322D01*
X46173571Y-14504311D01*
X46196628Y-14620230D01*
X46212000Y-14697507D01*
X46212000Y-14894493D01*
X46196628Y-14971770D01*
X46173571Y-15087689D01*
X46098189Y-15269678D01*
X45988751Y-15433463D01*
X45849463Y-15572751D01*
X45685678Y-15682189D01*
X45503689Y-15757571D01*
X45387770Y-15780628D01*
X45310493Y-15796000D01*
X45113507Y-15796000D01*
X45036230Y-15780628D01*
X44920311Y-15757571D01*
X44738322Y-15682189D01*
X44574537Y-15572751D01*
X44435249Y-15433463D01*
X44325811Y-15269678D01*
X44250429Y-15087689D01*
X44227372Y-14971770D01*
X44212000Y-14894493D01*
X44212000Y-14697507D01*
X44227372Y-14620230D01*
X44250429Y-14504311D01*
X44325811Y-14322322D01*
X44435249Y-14158537D01*
X44574537Y-14019249D01*
X44738322Y-13909811D01*
X44920311Y-13834429D01*
X45040969Y-13810429D01*
X45113507Y-13796000D01*
X45310493Y-13796000D01*
X45383031Y-13810429D01*
X45383031Y-13810429D01*
G37*
G36*
X18645770Y-13787372D02*
X18761689Y-13810429D01*
X18943678Y-13885811D01*
X19107463Y-13995249D01*
X19246751Y-14134537D01*
X19356189Y-14298322D01*
X19431571Y-14480311D01*
X19470000Y-14673509D01*
X19470000Y-14870491D01*
X19431571Y-15063689D01*
X19356189Y-15245678D01*
X19246751Y-15409463D01*
X19107463Y-15548751D01*
X18943678Y-15658189D01*
X18761689Y-15733571D01*
X18645770Y-15756628D01*
X18568493Y-15772000D01*
X18371507Y-15772000D01*
X18294230Y-15756628D01*
X18178311Y-15733571D01*
X17996322Y-15658189D01*
X17832537Y-15548751D01*
X17693249Y-15409463D01*
X17583811Y-15245678D01*
X17508429Y-15063689D01*
X17470000Y-14870491D01*
X17470000Y-14673509D01*
X17508429Y-14480311D01*
X17583811Y-14298322D01*
X17693249Y-14134537D01*
X17832537Y-13995249D01*
X17996322Y-13885811D01*
X18178311Y-13810429D01*
X18294230Y-13787372D01*
X18371507Y-13772000D01*
X18568493Y-13772000D01*
X18645770Y-13787372D01*
X18645770Y-13787372D01*
G37*
G36*
X14145770Y-13787372D02*
X14261689Y-13810429D01*
X14443678Y-13885811D01*
X14607463Y-13995249D01*
X14746751Y-14134537D01*
X14856189Y-14298322D01*
X14931571Y-14480311D01*
X14970000Y-14673509D01*
X14970000Y-14870491D01*
X14931571Y-15063689D01*
X14856189Y-15245678D01*
X14746751Y-15409463D01*
X14607463Y-15548751D01*
X14443678Y-15658189D01*
X14261689Y-15733571D01*
X14145770Y-15756628D01*
X14068493Y-15772000D01*
X13871507Y-15772000D01*
X13794230Y-15756628D01*
X13678311Y-15733571D01*
X13496322Y-15658189D01*
X13332537Y-15548751D01*
X13193249Y-15409463D01*
X13083811Y-15245678D01*
X13008429Y-15063689D01*
X12970000Y-14870491D01*
X12970000Y-14673509D01*
X13008429Y-14480311D01*
X13083811Y-14298322D01*
X13193249Y-14134537D01*
X13332537Y-13995249D01*
X13496322Y-13885811D01*
X13678311Y-13810429D01*
X13794230Y-13787372D01*
X13871507Y-13772000D01*
X14068493Y-13772000D01*
X14145770Y-13787372D01*
X14145770Y-13787372D01*
G37*
G36*
X36497770Y-13683372D02*
X36613689Y-13706429D01*
X36795678Y-13781811D01*
X36959463Y-13891249D01*
X37098751Y-14030537D01*
X37208189Y-14194322D01*
X37283571Y-14376311D01*
X37304258Y-14480311D01*
X37309032Y-14504311D01*
X37322000Y-14569509D01*
X37322000Y-14766491D01*
X37283571Y-14959689D01*
X37208189Y-15141678D01*
X37098751Y-15305463D01*
X36959463Y-15444751D01*
X36795678Y-15554189D01*
X36613689Y-15629571D01*
X36497770Y-15652628D01*
X36420493Y-15668000D01*
X36223507Y-15668000D01*
X36146230Y-15652628D01*
X36030311Y-15629571D01*
X35848322Y-15554189D01*
X35684537Y-15444751D01*
X35545249Y-15305463D01*
X35435811Y-15141678D01*
X35360429Y-14959689D01*
X35322000Y-14766491D01*
X35322000Y-14569509D01*
X35334969Y-14504311D01*
X35339742Y-14480311D01*
X35360429Y-14376311D01*
X35435811Y-14194322D01*
X35545249Y-14030537D01*
X35684537Y-13891249D01*
X35848322Y-13781811D01*
X36030311Y-13706429D01*
X36146230Y-13683372D01*
X36223507Y-13668000D01*
X36420493Y-13668000D01*
X36497770Y-13683372D01*
X36497770Y-13683372D01*
G37*
G36*
X31997770Y-13683372D02*
X32113689Y-13706429D01*
X32295678Y-13781811D01*
X32459463Y-13891249D01*
X32598751Y-14030537D01*
X32708189Y-14194322D01*
X32783571Y-14376311D01*
X32804258Y-14480311D01*
X32809032Y-14504311D01*
X32822000Y-14569509D01*
X32822000Y-14766491D01*
X32783571Y-14959689D01*
X32708189Y-15141678D01*
X32598751Y-15305463D01*
X32459463Y-15444751D01*
X32295678Y-15554189D01*
X32113689Y-15629571D01*
X31997770Y-15652628D01*
X31920493Y-15668000D01*
X31723507Y-15668000D01*
X31646230Y-15652628D01*
X31530311Y-15629571D01*
X31348322Y-15554189D01*
X31184537Y-15444751D01*
X31045249Y-15305463D01*
X30935811Y-15141678D01*
X30860429Y-14959689D01*
X30822000Y-14766491D01*
X30822000Y-14569509D01*
X30834969Y-14504311D01*
X30839742Y-14480311D01*
X30860429Y-14376311D01*
X30935811Y-14194322D01*
X31045249Y-14030537D01*
X31184537Y-13891249D01*
X31348322Y-13781811D01*
X31530311Y-13706429D01*
X31646230Y-13683372D01*
X31723507Y-13668000D01*
X31920493Y-13668000D01*
X31997770Y-13683372D01*
X31997770Y-13683372D01*
G37*
G36*
X17306630Y-11162299D02*
X17466855Y-11210903D01*
X17614520Y-11289831D01*
X17743949Y-11396051D01*
X17850169Y-11525480D01*
X17929097Y-11673145D01*
X17977701Y-11833370D01*
X17994112Y-12000000D01*
X17977701Y-12166630D01*
X17929097Y-12326855D01*
X17850169Y-12474520D01*
X17743949Y-12603949D01*
X17614520Y-12710169D01*
X17466855Y-12789097D01*
X17306630Y-12837701D01*
X17181752Y-12850000D01*
X17098248Y-12850000D01*
X16973370Y-12837701D01*
X16813145Y-12789097D01*
X16665480Y-12710169D01*
X16536051Y-12603949D01*
X16429831Y-12474520D01*
X16350903Y-12326855D01*
X16302299Y-12166630D01*
X16285888Y-12000000D01*
X16302299Y-11833370D01*
X16350903Y-11673145D01*
X16429831Y-11525480D01*
X16536051Y-11396051D01*
X16665480Y-11289831D01*
X16813145Y-11210903D01*
X16973370Y-11162299D01*
X17098248Y-11150000D01*
X17181752Y-11150000D01*
X17306630Y-11162299D01*
X17306630Y-11162299D01*
G37*
G36*
X14766630Y-11162299D02*
X14926855Y-11210903D01*
X15074520Y-11289831D01*
X15203949Y-11396051D01*
X15310169Y-11525480D01*
X15389097Y-11673145D01*
X15437701Y-11833370D01*
X15454112Y-12000000D01*
X15437701Y-12166630D01*
X15389097Y-12326855D01*
X15310169Y-12474520D01*
X15203949Y-12603949D01*
X15074520Y-12710169D01*
X14926855Y-12789097D01*
X14766630Y-12837701D01*
X14641752Y-12850000D01*
X14558248Y-12850000D01*
X14433370Y-12837701D01*
X14273145Y-12789097D01*
X14125480Y-12710169D01*
X13996051Y-12603949D01*
X13889831Y-12474520D01*
X13810903Y-12326855D01*
X13762299Y-12166630D01*
X13745888Y-12000000D01*
X13762299Y-11833370D01*
X13810903Y-11673145D01*
X13889831Y-11525480D01*
X13996051Y-11396051D01*
X14125480Y-11289831D01*
X14273145Y-11210903D01*
X14433370Y-11162299D01*
X14558248Y-11150000D01*
X14641752Y-11150000D01*
X14766630Y-11162299D01*
X14766630Y-11162299D01*
G37*
G36*
X19846630Y-11162299D02*
X20006855Y-11210903D01*
X20154520Y-11289831D01*
X20283949Y-11396051D01*
X20390169Y-11525480D01*
X20469097Y-11673145D01*
X20517701Y-11833370D01*
X20534112Y-12000000D01*
X20517701Y-12166630D01*
X20469097Y-12326855D01*
X20390169Y-12474520D01*
X20283949Y-12603949D01*
X20154520Y-12710169D01*
X20006855Y-12789097D01*
X19846630Y-12837701D01*
X19721752Y-12850000D01*
X19638248Y-12850000D01*
X19513370Y-12837701D01*
X19353145Y-12789097D01*
X19205480Y-12710169D01*
X19076051Y-12603949D01*
X18969831Y-12474520D01*
X18890903Y-12326855D01*
X18842299Y-12166630D01*
X18825888Y-12000000D01*
X18842299Y-11833370D01*
X18890903Y-11673145D01*
X18969831Y-11525480D01*
X19076051Y-11396051D01*
X19205480Y-11289831D01*
X19353145Y-11210903D01*
X19513370Y-11162299D01*
X19638248Y-11150000D01*
X19721752Y-11150000D01*
X19846630Y-11162299D01*
X19846630Y-11162299D01*
G37*
G36*
X22386630Y-11162299D02*
X22546855Y-11210903D01*
X22694520Y-11289831D01*
X22823949Y-11396051D01*
X22930169Y-11525480D01*
X23009097Y-11673145D01*
X23057701Y-11833370D01*
X23074112Y-12000000D01*
X23057701Y-12166630D01*
X23009097Y-12326855D01*
X22930169Y-12474520D01*
X22823949Y-12603949D01*
X22694520Y-12710169D01*
X22546855Y-12789097D01*
X22386630Y-12837701D01*
X22261752Y-12850000D01*
X22178248Y-12850000D01*
X22053370Y-12837701D01*
X21893145Y-12789097D01*
X21745480Y-12710169D01*
X21616051Y-12603949D01*
X21509831Y-12474520D01*
X21430903Y-12326855D01*
X21382299Y-12166630D01*
X21365888Y-12000000D01*
X21382299Y-11833370D01*
X21430903Y-11673145D01*
X21509831Y-11525480D01*
X21616051Y-11396051D01*
X21745480Y-11289831D01*
X21893145Y-11210903D01*
X22053370Y-11162299D01*
X22178248Y-11150000D01*
X22261752Y-11150000D01*
X22386630Y-11162299D01*
X22386630Y-11162299D01*
G37*
G36*
X24926630Y-11162299D02*
X25086855Y-11210903D01*
X25234520Y-11289831D01*
X25363949Y-11396051D01*
X25470169Y-11525480D01*
X25549097Y-11673145D01*
X25597701Y-11833370D01*
X25614112Y-12000000D01*
X25597701Y-12166630D01*
X25549097Y-12326855D01*
X25470169Y-12474520D01*
X25363949Y-12603949D01*
X25234520Y-12710169D01*
X25086855Y-12789097D01*
X24926630Y-12837701D01*
X24801752Y-12850000D01*
X24718248Y-12850000D01*
X24593370Y-12837701D01*
X24433145Y-12789097D01*
X24285480Y-12710169D01*
X24156051Y-12603949D01*
X24049831Y-12474520D01*
X23970903Y-12326855D01*
X23922299Y-12166630D01*
X23905888Y-12000000D01*
X23922299Y-11833370D01*
X23970903Y-11673145D01*
X24049831Y-11525480D01*
X24156051Y-11396051D01*
X24285480Y-11289831D01*
X24433145Y-11210903D01*
X24593370Y-11162299D01*
X24718248Y-11150000D01*
X24801752Y-11150000D01*
X24926630Y-11162299D01*
X24926630Y-11162299D01*
G37*
G36*
X27466630Y-11162299D02*
X27626855Y-11210903D01*
X27774520Y-11289831D01*
X27903949Y-11396051D01*
X28010169Y-11525480D01*
X28089097Y-11673145D01*
X28137701Y-11833370D01*
X28154112Y-12000000D01*
X28137701Y-12166630D01*
X28089097Y-12326855D01*
X28010169Y-12474520D01*
X27903949Y-12603949D01*
X27774520Y-12710169D01*
X27626855Y-12789097D01*
X27466630Y-12837701D01*
X27341752Y-12850000D01*
X27258248Y-12850000D01*
X27133370Y-12837701D01*
X26973145Y-12789097D01*
X26825480Y-12710169D01*
X26696051Y-12603949D01*
X26589831Y-12474520D01*
X26510903Y-12326855D01*
X26462299Y-12166630D01*
X26445888Y-12000000D01*
X26462299Y-11833370D01*
X26510903Y-11673145D01*
X26589831Y-11525480D01*
X26696051Y-11396051D01*
X26825480Y-11289831D01*
X26973145Y-11210903D01*
X27133370Y-11162299D01*
X27258248Y-11150000D01*
X27341752Y-11150000D01*
X27466630Y-11162299D01*
X27466630Y-11162299D01*
G37*
G36*
X32546630Y-11162299D02*
X32706855Y-11210903D01*
X32854520Y-11289831D01*
X32983949Y-11396051D01*
X33090169Y-11525480D01*
X33169097Y-11673145D01*
X33217701Y-11833370D01*
X33234112Y-12000000D01*
X33217701Y-12166630D01*
X33169097Y-12326855D01*
X33090169Y-12474520D01*
X32983949Y-12603949D01*
X32854520Y-12710169D01*
X32706855Y-12789097D01*
X32546630Y-12837701D01*
X32421752Y-12850000D01*
X32338248Y-12850000D01*
X32213370Y-12837701D01*
X32053145Y-12789097D01*
X31905480Y-12710169D01*
X31776051Y-12603949D01*
X31669831Y-12474520D01*
X31590903Y-12326855D01*
X31542299Y-12166630D01*
X31525888Y-12000000D01*
X31542299Y-11833370D01*
X31590903Y-11673145D01*
X31669831Y-11525480D01*
X31776051Y-11396051D01*
X31905480Y-11289831D01*
X32053145Y-11210903D01*
X32213370Y-11162299D01*
X32338248Y-11150000D01*
X32421752Y-11150000D01*
X32546630Y-11162299D01*
X32546630Y-11162299D01*
G37*
G36*
X35086630Y-11162299D02*
X35246855Y-11210903D01*
X35394520Y-11289831D01*
X35523949Y-11396051D01*
X35630169Y-11525480D01*
X35709097Y-11673145D01*
X35757701Y-11833370D01*
X35774112Y-12000000D01*
X35757701Y-12166630D01*
X35709097Y-12326855D01*
X35630169Y-12474520D01*
X35523949Y-12603949D01*
X35394520Y-12710169D01*
X35246855Y-12789097D01*
X35086630Y-12837701D01*
X34961752Y-12850000D01*
X34878248Y-12850000D01*
X34753370Y-12837701D01*
X34593145Y-12789097D01*
X34445480Y-12710169D01*
X34316051Y-12603949D01*
X34209831Y-12474520D01*
X34130903Y-12326855D01*
X34082299Y-12166630D01*
X34065888Y-12000000D01*
X34082299Y-11833370D01*
X34130903Y-11673145D01*
X34209831Y-11525480D01*
X34316051Y-11396051D01*
X34445480Y-11289831D01*
X34593145Y-11210903D01*
X34753370Y-11162299D01*
X34878248Y-11150000D01*
X34961752Y-11150000D01*
X35086630Y-11162299D01*
X35086630Y-11162299D01*
G37*
G36*
X37626630Y-11162299D02*
X37786855Y-11210903D01*
X37934520Y-11289831D01*
X38063949Y-11396051D01*
X38170169Y-11525480D01*
X38249097Y-11673145D01*
X38297701Y-11833370D01*
X38314112Y-12000000D01*
X38297701Y-12166630D01*
X38249097Y-12326855D01*
X38170169Y-12474520D01*
X38063949Y-12603949D01*
X37934520Y-12710169D01*
X37786855Y-12789097D01*
X37626630Y-12837701D01*
X37501752Y-12850000D01*
X37418248Y-12850000D01*
X37293370Y-12837701D01*
X37133145Y-12789097D01*
X36985480Y-12710169D01*
X36856051Y-12603949D01*
X36749831Y-12474520D01*
X36670903Y-12326855D01*
X36622299Y-12166630D01*
X36605888Y-12000000D01*
X36622299Y-11833370D01*
X36670903Y-11673145D01*
X36749831Y-11525480D01*
X36856051Y-11396051D01*
X36985480Y-11289831D01*
X37133145Y-11210903D01*
X37293370Y-11162299D01*
X37418248Y-11150000D01*
X37501752Y-11150000D01*
X37626630Y-11162299D01*
X37626630Y-11162299D01*
G37*
G36*
X40850000Y-12850000D02*
X39150000Y-12850000D01*
X39150000Y-11150000D01*
X40850000Y-11150000D01*
X40850000Y-12850000D01*
X40850000Y-12850000D01*
G37*
G36*
X12226630Y-11162299D02*
X12386855Y-11210903D01*
X12534520Y-11289831D01*
X12663949Y-11396051D01*
X12770169Y-11525480D01*
X12849097Y-11673145D01*
X12897701Y-11833370D01*
X12914112Y-12000000D01*
X12897701Y-12166630D01*
X12849097Y-12326855D01*
X12770169Y-12474520D01*
X12663949Y-12603949D01*
X12534520Y-12710169D01*
X12386855Y-12789097D01*
X12226630Y-12837701D01*
X12101752Y-12850000D01*
X12018248Y-12850000D01*
X11893370Y-12837701D01*
X11733145Y-12789097D01*
X11585480Y-12710169D01*
X11456051Y-12603949D01*
X11349831Y-12474520D01*
X11270903Y-12326855D01*
X11222299Y-12166630D01*
X11205888Y-12000000D01*
X11222299Y-11833370D01*
X11270903Y-11673145D01*
X11349831Y-11525480D01*
X11456051Y-11396051D01*
X11585480Y-11289831D01*
X11733145Y-11210903D01*
X11893370Y-11162299D01*
X12018248Y-11150000D01*
X12101752Y-11150000D01*
X12226630Y-11162299D01*
X12226630Y-11162299D01*
G37*
G36*
X30006630Y-11162299D02*
X30166855Y-11210903D01*
X30314520Y-11289831D01*
X30443949Y-11396051D01*
X30550169Y-11525480D01*
X30629097Y-11673145D01*
X30677701Y-11833370D01*
X30694112Y-12000000D01*
X30677701Y-12166630D01*
X30629097Y-12326855D01*
X30550169Y-12474520D01*
X30443949Y-12603949D01*
X30314520Y-12710169D01*
X30166855Y-12789097D01*
X30006630Y-12837701D01*
X29881752Y-12850000D01*
X29798248Y-12850000D01*
X29673370Y-12837701D01*
X29513145Y-12789097D01*
X29365480Y-12710169D01*
X29236051Y-12603949D01*
X29129831Y-12474520D01*
X29050903Y-12326855D01*
X29002299Y-12166630D01*
X28985888Y-12000000D01*
X29002299Y-11833370D01*
X29050903Y-11673145D01*
X29129831Y-11525480D01*
X29236051Y-11396051D01*
X29365480Y-11289831D01*
X29513145Y-11210903D01*
X29673370Y-11162299D01*
X29798248Y-11150000D01*
X29881752Y-11150000D01*
X30006630Y-11162299D01*
X30006630Y-11162299D01*
G37*
G36*
X37718578Y-3415659D02*
X38082554Y-3566422D01*
X38410129Y-3785301D01*
X38688699Y-4063871D01*
X38907578Y-4391446D01*
X39058341Y-4755422D01*
X39135200Y-5141816D01*
X39135200Y-5535784D01*
X39058341Y-5922178D01*
X38907578Y-6286154D01*
X38688699Y-6613729D01*
X38410129Y-6892299D01*
X38082554Y-7111178D01*
X37718578Y-7261941D01*
X37332184Y-7338800D01*
X36938216Y-7338800D01*
X36551822Y-7261941D01*
X36187846Y-7111178D01*
X35860271Y-6892299D01*
X35581701Y-6613729D01*
X35362822Y-6286154D01*
X35212059Y-5922178D01*
X35135200Y-5535784D01*
X35135200Y-5141816D01*
X35212059Y-4755422D01*
X35362822Y-4391446D01*
X35581701Y-4063871D01*
X35860271Y-3785301D01*
X36187846Y-3566422D01*
X36551822Y-3415659D01*
X36938216Y-3338800D01*
X37332184Y-3338800D01*
X37718578Y-3415659D01*
X37718578Y-3415659D01*
G37*
G36*
X12718578Y-3415659D02*
X13082554Y-3566422D01*
X13410129Y-3785301D01*
X13688699Y-4063871D01*
X13907578Y-4391446D01*
X14058341Y-4755422D01*
X14135200Y-5141816D01*
X14135200Y-5535784D01*
X14058341Y-5922178D01*
X13907578Y-6286154D01*
X13688699Y-6613729D01*
X13410129Y-6892299D01*
X13082554Y-7111178D01*
X12718578Y-7261941D01*
X12332184Y-7338800D01*
X11938216Y-7338800D01*
X11551822Y-7261941D01*
X11187846Y-7111178D01*
X10860271Y-6892299D01*
X10581701Y-6613729D01*
X10362822Y-6286154D01*
X10212059Y-5922178D01*
X10135200Y-5535784D01*
X10135200Y-5141816D01*
X10212059Y-4755422D01*
X10362822Y-4391446D01*
X10581701Y-4063871D01*
X10860271Y-3785301D01*
X11187846Y-3566422D01*
X11551822Y-3415659D01*
X11938216Y-3338800D01*
X12332184Y-3338800D01*
X12718578Y-3415659D01*
X12718578Y-3415659D01*
G37*
G36*
X4926112Y-947013D02*
X5503925Y-1186351D01*
X6023947Y-1533819D01*
X6466181Y-1976053D01*
X6813649Y-2496075D01*
X7052987Y-3073888D01*
X7175000Y-3687288D01*
X7175000Y-4312712D01*
X7052987Y-4926112D01*
X6813649Y-5503925D01*
X6466181Y-6023947D01*
X6023947Y-6466181D01*
X5503925Y-6813649D01*
X4926112Y-7052987D01*
X4312712Y-7175000D01*
X3687288Y-7175000D01*
X3073888Y-7052987D01*
X2496075Y-6813649D01*
X1976053Y-6466181D01*
X1533819Y-6023947D01*
X1186351Y-5503925D01*
X947013Y-4926112D01*
X825000Y-4312712D01*
X825000Y-3687288D01*
X947013Y-3073888D01*
X1186351Y-2496075D01*
X1533819Y-1976053D01*
X1976053Y-1533819D01*
X2496075Y-1186351D01*
X3073888Y-947013D01*
X3687288Y-825000D01*
X4312712Y-825000D01*
X4926112Y-947013D01*
X4926112Y-947013D01*
G37*
G36*
X45926112Y-947013D02*
X46503925Y-1186351D01*
X47023947Y-1533819D01*
X47466181Y-1976053D01*
X47813649Y-2496075D01*
X48052987Y-3073888D01*
X48175000Y-3687288D01*
X48175000Y-4312712D01*
X48052987Y-4926112D01*
X47813649Y-5503925D01*
X47466181Y-6023947D01*
X47023947Y-6466181D01*
X46503925Y-6813649D01*
X45926112Y-7052987D01*
X45312712Y-7175000D01*
X44687288Y-7175000D01*
X44073888Y-7052987D01*
X43496075Y-6813649D01*
X42976053Y-6466181D01*
X42533819Y-6023947D01*
X42186351Y-5503925D01*
X41947013Y-4926112D01*
X41825000Y-4312712D01*
X41825000Y-3687288D01*
X41947013Y-3073888D01*
X42186351Y-2496075D01*
X42533819Y-1976053D01*
X42976053Y-1533819D01*
X43496075Y-1186351D01*
X44073888Y-947013D01*
X44687288Y-825000D01*
X45312712Y-825000D01*
X45926112Y-947013D01*
X45926112Y-947013D01*
G37*
G36*
X19328552Y-4869543D02*
X19474141Y-4929848D01*
X19605173Y-5017401D01*
X19716599Y-5128827D01*
X19804152Y-5259859D01*
X19864457Y-5405448D01*
X19895200Y-5560005D01*
X19895200Y-5717595D01*
X19864457Y-5872152D01*
X19804152Y-6017741D01*
X19716599Y-6148773D01*
X19605173Y-6260199D01*
X19474141Y-6347752D01*
X19328552Y-6408057D01*
X19173995Y-6438800D01*
X19016405Y-6438800D01*
X18861848Y-6408057D01*
X18716259Y-6347752D01*
X18585227Y-6260199D01*
X18473801Y-6148773D01*
X18386248Y-6017741D01*
X18325943Y-5872152D01*
X18295200Y-5717595D01*
X18295200Y-5560005D01*
X18325943Y-5405448D01*
X18386248Y-5259859D01*
X18473801Y-5128827D01*
X18585227Y-5017401D01*
X18716259Y-4929848D01*
X18861848Y-4869543D01*
X19016405Y-4838800D01*
X19173995Y-4838800D01*
X19328552Y-4869543D01*
X19328552Y-4869543D01*
G37*
G36*
X30975200Y-6438800D02*
X29375200Y-6438800D01*
X29375200Y-4838800D01*
X30975200Y-4838800D01*
X30975200Y-6438800D01*
X30975200Y-6438800D01*
G37*
G36*
X22098552Y-4869543D02*
X22244141Y-4929848D01*
X22375173Y-5017401D01*
X22486599Y-5128827D01*
X22574152Y-5259859D01*
X22634457Y-5405448D01*
X22665200Y-5560005D01*
X22665200Y-5717595D01*
X22634457Y-5872152D01*
X22574152Y-6017741D01*
X22486599Y-6148773D01*
X22375173Y-6260199D01*
X22244141Y-6347752D01*
X22098552Y-6408057D01*
X21943995Y-6438800D01*
X21786405Y-6438800D01*
X21631848Y-6408057D01*
X21486259Y-6347752D01*
X21355227Y-6260199D01*
X21243801Y-6148773D01*
X21156248Y-6017741D01*
X21095943Y-5872152D01*
X21065200Y-5717595D01*
X21065200Y-5560005D01*
X21095943Y-5405448D01*
X21156248Y-5259859D01*
X21243801Y-5128827D01*
X21355227Y-5017401D01*
X21486259Y-4929848D01*
X21631848Y-4869543D01*
X21786405Y-4838800D01*
X21943995Y-4838800D01*
X22098552Y-4869543D01*
X22098552Y-4869543D01*
G37*
G36*
X24868552Y-4869543D02*
X25014141Y-4929848D01*
X25145173Y-5017401D01*
X25256599Y-5128827D01*
X25344152Y-5259859D01*
X25404457Y-5405448D01*
X25435200Y-5560005D01*
X25435200Y-5717595D01*
X25404457Y-5872152D01*
X25344152Y-6017741D01*
X25256599Y-6148773D01*
X25145173Y-6260199D01*
X25014141Y-6347752D01*
X24868552Y-6408057D01*
X24713995Y-6438800D01*
X24556405Y-6438800D01*
X24401848Y-6408057D01*
X24256259Y-6347752D01*
X24125227Y-6260199D01*
X24013801Y-6148773D01*
X23926248Y-6017741D01*
X23865943Y-5872152D01*
X23835200Y-5717595D01*
X23835200Y-5560005D01*
X23865943Y-5405448D01*
X23926248Y-5259859D01*
X24013801Y-5128827D01*
X24125227Y-5017401D01*
X24256259Y-4929848D01*
X24401848Y-4869543D01*
X24556405Y-4838800D01*
X24713995Y-4838800D01*
X24868552Y-4869543D01*
X24868552Y-4869543D01*
G37*
G36*
X27638552Y-4869543D02*
X27784141Y-4929848D01*
X27915173Y-5017401D01*
X28026599Y-5128827D01*
X28114152Y-5259859D01*
X28174457Y-5405448D01*
X28205200Y-5560005D01*
X28205200Y-5717595D01*
X28174457Y-5872152D01*
X28114152Y-6017741D01*
X28026599Y-6148773D01*
X27915173Y-6260199D01*
X27784141Y-6347752D01*
X27638552Y-6408057D01*
X27483995Y-6438800D01*
X27326405Y-6438800D01*
X27171848Y-6408057D01*
X27026259Y-6347752D01*
X26895227Y-6260199D01*
X26783801Y-6148773D01*
X26696248Y-6017741D01*
X26635943Y-5872152D01*
X26605200Y-5717595D01*
X26605200Y-5560005D01*
X26635943Y-5405448D01*
X26696248Y-5259859D01*
X26783801Y-5128827D01*
X26895227Y-5017401D01*
X27026259Y-4929848D01*
X27171848Y-4869543D01*
X27326405Y-4838800D01*
X27483995Y-4838800D01*
X27638552Y-4869543D01*
X27638552Y-4869543D01*
G37*
G36*
X29023552Y-2029543D02*
X29169141Y-2089848D01*
X29300173Y-2177401D01*
X29411599Y-2288827D01*
X29499152Y-2419859D01*
X29559457Y-2565448D01*
X29590200Y-2720005D01*
X29590200Y-2877595D01*
X29559457Y-3032152D01*
X29499152Y-3177741D01*
X29411599Y-3308773D01*
X29300173Y-3420199D01*
X29169141Y-3507752D01*
X29023552Y-3568057D01*
X28868995Y-3598800D01*
X28711405Y-3598800D01*
X28556848Y-3568057D01*
X28411259Y-3507752D01*
X28280227Y-3420199D01*
X28168801Y-3308773D01*
X28081248Y-3177741D01*
X28020943Y-3032152D01*
X27990200Y-2877595D01*
X27990200Y-2720005D01*
X28020943Y-2565448D01*
X28081248Y-2419859D01*
X28168801Y-2288827D01*
X28280227Y-2177401D01*
X28411259Y-2089848D01*
X28556848Y-2029543D01*
X28711405Y-1998800D01*
X28868995Y-1998800D01*
X29023552Y-2029543D01*
X29023552Y-2029543D01*
G37*
G36*
X20713552Y-2029543D02*
X20859141Y-2089848D01*
X20990173Y-2177401D01*
X21101599Y-2288827D01*
X21189152Y-2419859D01*
X21249457Y-2565448D01*
X21280200Y-2720005D01*
X21280200Y-2877595D01*
X21249457Y-3032152D01*
X21189152Y-3177741D01*
X21101599Y-3308773D01*
X20990173Y-3420199D01*
X20859141Y-3507752D01*
X20713552Y-3568057D01*
X20558995Y-3598800D01*
X20401405Y-3598800D01*
X20246848Y-3568057D01*
X20101259Y-3507752D01*
X19970227Y-3420199D01*
X19858801Y-3308773D01*
X19771248Y-3177741D01*
X19710943Y-3032152D01*
X19680200Y-2877595D01*
X19680200Y-2720005D01*
X19710943Y-2565448D01*
X19771248Y-2419859D01*
X19858801Y-2288827D01*
X19970227Y-2177401D01*
X20101259Y-2089848D01*
X20246848Y-2029543D01*
X20401405Y-1998800D01*
X20558995Y-1998800D01*
X20713552Y-2029543D01*
X20713552Y-2029543D01*
G37*
G36*
X23483552Y-2029543D02*
X23629141Y-2089848D01*
X23760173Y-2177401D01*
X23871599Y-2288827D01*
X23959152Y-2419859D01*
X24019457Y-2565448D01*
X24050200Y-2720005D01*
X24050200Y-2877595D01*
X24019457Y-3032152D01*
X23959152Y-3177741D01*
X23871599Y-3308773D01*
X23760173Y-3420199D01*
X23629141Y-3507752D01*
X23483552Y-3568057D01*
X23328995Y-3598800D01*
X23171405Y-3598800D01*
X23016848Y-3568057D01*
X22871259Y-3507752D01*
X22740227Y-3420199D01*
X22628801Y-3308773D01*
X22541248Y-3177741D01*
X22480943Y-3032152D01*
X22450200Y-2877595D01*
X22450200Y-2720005D01*
X22480943Y-2565448D01*
X22541248Y-2419859D01*
X22628801Y-2288827D01*
X22740227Y-2177401D01*
X22871259Y-2089848D01*
X23016848Y-2029543D01*
X23171405Y-1998800D01*
X23328995Y-1998800D01*
X23483552Y-2029543D01*
X23483552Y-2029543D01*
G37*
G36*
X26253552Y-2029543D02*
X26399141Y-2089848D01*
X26530173Y-2177401D01*
X26641599Y-2288827D01*
X26729152Y-2419859D01*
X26789457Y-2565448D01*
X26820200Y-2720005D01*
X26820200Y-2877595D01*
X26789457Y-3032152D01*
X26729152Y-3177741D01*
X26641599Y-3308773D01*
X26530173Y-3420199D01*
X26399141Y-3507752D01*
X26253552Y-3568057D01*
X26098995Y-3598800D01*
X25941405Y-3598800D01*
X25786848Y-3568057D01*
X25641259Y-3507752D01*
X25510227Y-3420199D01*
X25398801Y-3308773D01*
X25311248Y-3177741D01*
X25250943Y-3032152D01*
X25220200Y-2877595D01*
X25220200Y-2720005D01*
X25250943Y-2565448D01*
X25311248Y-2419859D01*
X25398801Y-2288827D01*
X25510227Y-2177401D01*
X25641259Y-2089848D01*
X25786848Y-2029543D01*
X25941405Y-1998800D01*
X26098995Y-1998800D01*
X26253552Y-2029543D01*
X26253552Y-2029543D01*
G37*
M02*
