G04 #@! TF.GenerationSoftware,KiCad,Pcbnew,(5.0.2)-1*
G04 #@! TF.CreationDate,2019-10-05T09:24:11-04:00*
G04 #@! TF.ProjectId,JoyPad,4a6f7950-6164-42e6-9b69-6361645f7063,X1*
G04 #@! TF.SameCoordinates,Original*
G04 #@! TF.FileFunction,Copper,L1,Top*
G04 #@! TF.FilePolarity,Positive*
%FSLAX46Y46*%
G04 Gerber Fmt 4.6, Leading zero omitted, Abs format (unit mm)*
G04 Created by KiCad (PCBNEW (5.0.2)-1) date 10/5/2019 9:24:11 AM*
%MOMM*%
%LPD*%
G01*
G04 APERTURE LIST*
G04 #@! TA.AperFunction,Conductor*
%ADD10C,0.150000*%
G04 #@! TD*
G04 #@! TA.AperFunction,SMDPad,CuDef*
%ADD11C,1.150000*%
G04 #@! TD*
G04 #@! TA.AperFunction,ComponentPad*
%ADD12C,2.000000*%
G04 #@! TD*
G04 #@! TA.AperFunction,ComponentPad*
%ADD13R,1.600000X1.600000*%
G04 #@! TD*
G04 #@! TA.AperFunction,ComponentPad*
%ADD14C,1.600000*%
G04 #@! TD*
G04 #@! TA.AperFunction,ComponentPad*
%ADD15C,4.000000*%
G04 #@! TD*
G04 #@! TA.AperFunction,ComponentPad*
%ADD16C,6.350000*%
G04 #@! TD*
G04 #@! TA.AperFunction,ComponentPad*
%ADD17R,1.700000X1.700000*%
G04 #@! TD*
G04 #@! TA.AperFunction,ComponentPad*
%ADD18O,1.700000X1.700000*%
G04 #@! TD*
G04 #@! TA.AperFunction,ViaPad*
%ADD19C,0.889000*%
G04 #@! TD*
G04 #@! TA.AperFunction,Conductor*
%ADD20C,0.254000*%
G04 #@! TD*
G04 #@! TA.AperFunction,Conductor*
%ADD21C,0.203200*%
G04 #@! TD*
G04 APERTURE END LIST*
D10*
G04 #@! TO.N,/LT*
G04 #@! TO.C,R1*
G36*
X21048505Y-31897204D02*
X21072773Y-31900804D01*
X21096572Y-31906765D01*
X21119671Y-31915030D01*
X21141850Y-31925520D01*
X21162893Y-31938132D01*
X21182599Y-31952747D01*
X21200777Y-31969223D01*
X21217253Y-31987401D01*
X21231868Y-32007107D01*
X21244480Y-32028150D01*
X21254970Y-32050329D01*
X21263235Y-32073428D01*
X21269196Y-32097227D01*
X21272796Y-32121495D01*
X21274000Y-32145999D01*
X21274000Y-32796001D01*
X21272796Y-32820505D01*
X21269196Y-32844773D01*
X21263235Y-32868572D01*
X21254970Y-32891671D01*
X21244480Y-32913850D01*
X21231868Y-32934893D01*
X21217253Y-32954599D01*
X21200777Y-32972777D01*
X21182599Y-32989253D01*
X21162893Y-33003868D01*
X21141850Y-33016480D01*
X21119671Y-33026970D01*
X21096572Y-33035235D01*
X21072773Y-33041196D01*
X21048505Y-33044796D01*
X21024001Y-33046000D01*
X20123999Y-33046000D01*
X20099495Y-33044796D01*
X20075227Y-33041196D01*
X20051428Y-33035235D01*
X20028329Y-33026970D01*
X20006150Y-33016480D01*
X19985107Y-33003868D01*
X19965401Y-32989253D01*
X19947223Y-32972777D01*
X19930747Y-32954599D01*
X19916132Y-32934893D01*
X19903520Y-32913850D01*
X19893030Y-32891671D01*
X19884765Y-32868572D01*
X19878804Y-32844773D01*
X19875204Y-32820505D01*
X19874000Y-32796001D01*
X19874000Y-32145999D01*
X19875204Y-32121495D01*
X19878804Y-32097227D01*
X19884765Y-32073428D01*
X19893030Y-32050329D01*
X19903520Y-32028150D01*
X19916132Y-32007107D01*
X19930747Y-31987401D01*
X19947223Y-31969223D01*
X19965401Y-31952747D01*
X19985107Y-31938132D01*
X20006150Y-31925520D01*
X20028329Y-31915030D01*
X20051428Y-31906765D01*
X20075227Y-31900804D01*
X20099495Y-31897204D01*
X20123999Y-31896000D01*
X21024001Y-31896000D01*
X21048505Y-31897204D01*
X21048505Y-31897204D01*
G37*
D11*
G04 #@! TD*
G04 #@! TO.P,R1,2*
G04 #@! TO.N,/LT*
X20574000Y-32471000D03*
D10*
G04 #@! TO.N,VCC*
G04 #@! TO.C,R1*
G36*
X21048505Y-33947204D02*
X21072773Y-33950804D01*
X21096572Y-33956765D01*
X21119671Y-33965030D01*
X21141850Y-33975520D01*
X21162893Y-33988132D01*
X21182599Y-34002747D01*
X21200777Y-34019223D01*
X21217253Y-34037401D01*
X21231868Y-34057107D01*
X21244480Y-34078150D01*
X21254970Y-34100329D01*
X21263235Y-34123428D01*
X21269196Y-34147227D01*
X21272796Y-34171495D01*
X21274000Y-34195999D01*
X21274000Y-34846001D01*
X21272796Y-34870505D01*
X21269196Y-34894773D01*
X21263235Y-34918572D01*
X21254970Y-34941671D01*
X21244480Y-34963850D01*
X21231868Y-34984893D01*
X21217253Y-35004599D01*
X21200777Y-35022777D01*
X21182599Y-35039253D01*
X21162893Y-35053868D01*
X21141850Y-35066480D01*
X21119671Y-35076970D01*
X21096572Y-35085235D01*
X21072773Y-35091196D01*
X21048505Y-35094796D01*
X21024001Y-35096000D01*
X20123999Y-35096000D01*
X20099495Y-35094796D01*
X20075227Y-35091196D01*
X20051428Y-35085235D01*
X20028329Y-35076970D01*
X20006150Y-35066480D01*
X19985107Y-35053868D01*
X19965401Y-35039253D01*
X19947223Y-35022777D01*
X19930747Y-35004599D01*
X19916132Y-34984893D01*
X19903520Y-34963850D01*
X19893030Y-34941671D01*
X19884765Y-34918572D01*
X19878804Y-34894773D01*
X19875204Y-34870505D01*
X19874000Y-34846001D01*
X19874000Y-34195999D01*
X19875204Y-34171495D01*
X19878804Y-34147227D01*
X19884765Y-34123428D01*
X19893030Y-34100329D01*
X19903520Y-34078150D01*
X19916132Y-34057107D01*
X19930747Y-34037401D01*
X19947223Y-34019223D01*
X19965401Y-34002747D01*
X19985107Y-33988132D01*
X20006150Y-33975520D01*
X20028329Y-33965030D01*
X20051428Y-33956765D01*
X20075227Y-33950804D01*
X20099495Y-33947204D01*
X20123999Y-33946000D01*
X21024001Y-33946000D01*
X21048505Y-33947204D01*
X21048505Y-33947204D01*
G37*
D11*
G04 #@! TD*
G04 #@! TO.P,R1,1*
G04 #@! TO.N,VCC*
X20574000Y-34521000D03*
D10*
G04 #@! TO.N,VCC*
G04 #@! TO.C,R2*
G36*
X29938505Y-33956204D02*
X29962773Y-33959804D01*
X29986572Y-33965765D01*
X30009671Y-33974030D01*
X30031850Y-33984520D01*
X30052893Y-33997132D01*
X30072599Y-34011747D01*
X30090777Y-34028223D01*
X30107253Y-34046401D01*
X30121868Y-34066107D01*
X30134480Y-34087150D01*
X30144970Y-34109329D01*
X30153235Y-34132428D01*
X30159196Y-34156227D01*
X30162796Y-34180495D01*
X30164000Y-34204999D01*
X30164000Y-34855001D01*
X30162796Y-34879505D01*
X30159196Y-34903773D01*
X30153235Y-34927572D01*
X30144970Y-34950671D01*
X30134480Y-34972850D01*
X30121868Y-34993893D01*
X30107253Y-35013599D01*
X30090777Y-35031777D01*
X30072599Y-35048253D01*
X30052893Y-35062868D01*
X30031850Y-35075480D01*
X30009671Y-35085970D01*
X29986572Y-35094235D01*
X29962773Y-35100196D01*
X29938505Y-35103796D01*
X29914001Y-35105000D01*
X29013999Y-35105000D01*
X28989495Y-35103796D01*
X28965227Y-35100196D01*
X28941428Y-35094235D01*
X28918329Y-35085970D01*
X28896150Y-35075480D01*
X28875107Y-35062868D01*
X28855401Y-35048253D01*
X28837223Y-35031777D01*
X28820747Y-35013599D01*
X28806132Y-34993893D01*
X28793520Y-34972850D01*
X28783030Y-34950671D01*
X28774765Y-34927572D01*
X28768804Y-34903773D01*
X28765204Y-34879505D01*
X28764000Y-34855001D01*
X28764000Y-34204999D01*
X28765204Y-34180495D01*
X28768804Y-34156227D01*
X28774765Y-34132428D01*
X28783030Y-34109329D01*
X28793520Y-34087150D01*
X28806132Y-34066107D01*
X28820747Y-34046401D01*
X28837223Y-34028223D01*
X28855401Y-34011747D01*
X28875107Y-33997132D01*
X28896150Y-33984520D01*
X28918329Y-33974030D01*
X28941428Y-33965765D01*
X28965227Y-33959804D01*
X28989495Y-33956204D01*
X29013999Y-33955000D01*
X29914001Y-33955000D01*
X29938505Y-33956204D01*
X29938505Y-33956204D01*
G37*
D11*
G04 #@! TD*
G04 #@! TO.P,R2,1*
G04 #@! TO.N,VCC*
X29464000Y-34530000D03*
D10*
G04 #@! TO.N,/CF*
G04 #@! TO.C,R2*
G36*
X29938505Y-31906204D02*
X29962773Y-31909804D01*
X29986572Y-31915765D01*
X30009671Y-31924030D01*
X30031850Y-31934520D01*
X30052893Y-31947132D01*
X30072599Y-31961747D01*
X30090777Y-31978223D01*
X30107253Y-31996401D01*
X30121868Y-32016107D01*
X30134480Y-32037150D01*
X30144970Y-32059329D01*
X30153235Y-32082428D01*
X30159196Y-32106227D01*
X30162796Y-32130495D01*
X30164000Y-32154999D01*
X30164000Y-32805001D01*
X30162796Y-32829505D01*
X30159196Y-32853773D01*
X30153235Y-32877572D01*
X30144970Y-32900671D01*
X30134480Y-32922850D01*
X30121868Y-32943893D01*
X30107253Y-32963599D01*
X30090777Y-32981777D01*
X30072599Y-32998253D01*
X30052893Y-33012868D01*
X30031850Y-33025480D01*
X30009671Y-33035970D01*
X29986572Y-33044235D01*
X29962773Y-33050196D01*
X29938505Y-33053796D01*
X29914001Y-33055000D01*
X29013999Y-33055000D01*
X28989495Y-33053796D01*
X28965227Y-33050196D01*
X28941428Y-33044235D01*
X28918329Y-33035970D01*
X28896150Y-33025480D01*
X28875107Y-33012868D01*
X28855401Y-32998253D01*
X28837223Y-32981777D01*
X28820747Y-32963599D01*
X28806132Y-32943893D01*
X28793520Y-32922850D01*
X28783030Y-32900671D01*
X28774765Y-32877572D01*
X28768804Y-32853773D01*
X28765204Y-32829505D01*
X28764000Y-32805001D01*
X28764000Y-32154999D01*
X28765204Y-32130495D01*
X28768804Y-32106227D01*
X28774765Y-32082428D01*
X28783030Y-32059329D01*
X28793520Y-32037150D01*
X28806132Y-32016107D01*
X28820747Y-31996401D01*
X28837223Y-31978223D01*
X28855401Y-31961747D01*
X28875107Y-31947132D01*
X28896150Y-31934520D01*
X28918329Y-31924030D01*
X28941428Y-31915765D01*
X28965227Y-31909804D01*
X28989495Y-31906204D01*
X29013999Y-31905000D01*
X29914001Y-31905000D01*
X29938505Y-31906204D01*
X29938505Y-31906204D01*
G37*
D11*
G04 #@! TD*
G04 #@! TO.P,R2,2*
G04 #@! TO.N,/CF*
X29464000Y-32480000D03*
D10*
G04 #@! TO.N,/UP*
G04 #@! TO.C,R5*
G36*
X30192505Y-22737204D02*
X30216773Y-22740804D01*
X30240572Y-22746765D01*
X30263671Y-22755030D01*
X30285850Y-22765520D01*
X30306893Y-22778132D01*
X30326599Y-22792747D01*
X30344777Y-22809223D01*
X30361253Y-22827401D01*
X30375868Y-22847107D01*
X30388480Y-22868150D01*
X30398970Y-22890329D01*
X30407235Y-22913428D01*
X30413196Y-22937227D01*
X30416796Y-22961495D01*
X30418000Y-22985999D01*
X30418000Y-23636001D01*
X30416796Y-23660505D01*
X30413196Y-23684773D01*
X30407235Y-23708572D01*
X30398970Y-23731671D01*
X30388480Y-23753850D01*
X30375868Y-23774893D01*
X30361253Y-23794599D01*
X30344777Y-23812777D01*
X30326599Y-23829253D01*
X30306893Y-23843868D01*
X30285850Y-23856480D01*
X30263671Y-23866970D01*
X30240572Y-23875235D01*
X30216773Y-23881196D01*
X30192505Y-23884796D01*
X30168001Y-23886000D01*
X29267999Y-23886000D01*
X29243495Y-23884796D01*
X29219227Y-23881196D01*
X29195428Y-23875235D01*
X29172329Y-23866970D01*
X29150150Y-23856480D01*
X29129107Y-23843868D01*
X29109401Y-23829253D01*
X29091223Y-23812777D01*
X29074747Y-23794599D01*
X29060132Y-23774893D01*
X29047520Y-23753850D01*
X29037030Y-23731671D01*
X29028765Y-23708572D01*
X29022804Y-23684773D01*
X29019204Y-23660505D01*
X29018000Y-23636001D01*
X29018000Y-22985999D01*
X29019204Y-22961495D01*
X29022804Y-22937227D01*
X29028765Y-22913428D01*
X29037030Y-22890329D01*
X29047520Y-22868150D01*
X29060132Y-22847107D01*
X29074747Y-22827401D01*
X29091223Y-22809223D01*
X29109401Y-22792747D01*
X29129107Y-22778132D01*
X29150150Y-22765520D01*
X29172329Y-22755030D01*
X29195428Y-22746765D01*
X29219227Y-22740804D01*
X29243495Y-22737204D01*
X29267999Y-22736000D01*
X30168001Y-22736000D01*
X30192505Y-22737204D01*
X30192505Y-22737204D01*
G37*
D11*
G04 #@! TD*
G04 #@! TO.P,R5,2*
G04 #@! TO.N,/UP*
X29718000Y-23311000D03*
D10*
G04 #@! TO.N,VCC*
G04 #@! TO.C,R5*
G36*
X30192505Y-24787204D02*
X30216773Y-24790804D01*
X30240572Y-24796765D01*
X30263671Y-24805030D01*
X30285850Y-24815520D01*
X30306893Y-24828132D01*
X30326599Y-24842747D01*
X30344777Y-24859223D01*
X30361253Y-24877401D01*
X30375868Y-24897107D01*
X30388480Y-24918150D01*
X30398970Y-24940329D01*
X30407235Y-24963428D01*
X30413196Y-24987227D01*
X30416796Y-25011495D01*
X30418000Y-25035999D01*
X30418000Y-25686001D01*
X30416796Y-25710505D01*
X30413196Y-25734773D01*
X30407235Y-25758572D01*
X30398970Y-25781671D01*
X30388480Y-25803850D01*
X30375868Y-25824893D01*
X30361253Y-25844599D01*
X30344777Y-25862777D01*
X30326599Y-25879253D01*
X30306893Y-25893868D01*
X30285850Y-25906480D01*
X30263671Y-25916970D01*
X30240572Y-25925235D01*
X30216773Y-25931196D01*
X30192505Y-25934796D01*
X30168001Y-25936000D01*
X29267999Y-25936000D01*
X29243495Y-25934796D01*
X29219227Y-25931196D01*
X29195428Y-25925235D01*
X29172329Y-25916970D01*
X29150150Y-25906480D01*
X29129107Y-25893868D01*
X29109401Y-25879253D01*
X29091223Y-25862777D01*
X29074747Y-25844599D01*
X29060132Y-25824893D01*
X29047520Y-25803850D01*
X29037030Y-25781671D01*
X29028765Y-25758572D01*
X29022804Y-25734773D01*
X29019204Y-25710505D01*
X29018000Y-25686001D01*
X29018000Y-25035999D01*
X29019204Y-25011495D01*
X29022804Y-24987227D01*
X29028765Y-24963428D01*
X29037030Y-24940329D01*
X29047520Y-24918150D01*
X29060132Y-24897107D01*
X29074747Y-24877401D01*
X29091223Y-24859223D01*
X29109401Y-24842747D01*
X29129107Y-24828132D01*
X29150150Y-24815520D01*
X29172329Y-24805030D01*
X29195428Y-24796765D01*
X29219227Y-24790804D01*
X29243495Y-24787204D01*
X29267999Y-24786000D01*
X30168001Y-24786000D01*
X30192505Y-24787204D01*
X30192505Y-24787204D01*
G37*
D11*
G04 #@! TD*
G04 #@! TO.P,R5,1*
G04 #@! TO.N,VCC*
X29718000Y-25361000D03*
D10*
G04 #@! TO.N,/UR*
G04 #@! TO.C,R6*
G36*
X39082505Y-16753204D02*
X39106773Y-16756804D01*
X39130572Y-16762765D01*
X39153671Y-16771030D01*
X39175850Y-16781520D01*
X39196893Y-16794132D01*
X39216599Y-16808747D01*
X39234777Y-16825223D01*
X39251253Y-16843401D01*
X39265868Y-16863107D01*
X39278480Y-16884150D01*
X39288970Y-16906329D01*
X39297235Y-16929428D01*
X39303196Y-16953227D01*
X39306796Y-16977495D01*
X39308000Y-17001999D01*
X39308000Y-17652001D01*
X39306796Y-17676505D01*
X39303196Y-17700773D01*
X39297235Y-17724572D01*
X39288970Y-17747671D01*
X39278480Y-17769850D01*
X39265868Y-17790893D01*
X39251253Y-17810599D01*
X39234777Y-17828777D01*
X39216599Y-17845253D01*
X39196893Y-17859868D01*
X39175850Y-17872480D01*
X39153671Y-17882970D01*
X39130572Y-17891235D01*
X39106773Y-17897196D01*
X39082505Y-17900796D01*
X39058001Y-17902000D01*
X38157999Y-17902000D01*
X38133495Y-17900796D01*
X38109227Y-17897196D01*
X38085428Y-17891235D01*
X38062329Y-17882970D01*
X38040150Y-17872480D01*
X38019107Y-17859868D01*
X37999401Y-17845253D01*
X37981223Y-17828777D01*
X37964747Y-17810599D01*
X37950132Y-17790893D01*
X37937520Y-17769850D01*
X37927030Y-17747671D01*
X37918765Y-17724572D01*
X37912804Y-17700773D01*
X37909204Y-17676505D01*
X37908000Y-17652001D01*
X37908000Y-17001999D01*
X37909204Y-16977495D01*
X37912804Y-16953227D01*
X37918765Y-16929428D01*
X37927030Y-16906329D01*
X37937520Y-16884150D01*
X37950132Y-16863107D01*
X37964747Y-16843401D01*
X37981223Y-16825223D01*
X37999401Y-16808747D01*
X38019107Y-16794132D01*
X38040150Y-16781520D01*
X38062329Y-16771030D01*
X38085428Y-16762765D01*
X38109227Y-16756804D01*
X38133495Y-16753204D01*
X38157999Y-16752000D01*
X39058001Y-16752000D01*
X39082505Y-16753204D01*
X39082505Y-16753204D01*
G37*
D11*
G04 #@! TD*
G04 #@! TO.P,R6,2*
G04 #@! TO.N,/UR*
X38608000Y-17327000D03*
D10*
G04 #@! TO.N,VCC*
G04 #@! TO.C,R6*
G36*
X39082505Y-18803204D02*
X39106773Y-18806804D01*
X39130572Y-18812765D01*
X39153671Y-18821030D01*
X39175850Y-18831520D01*
X39196893Y-18844132D01*
X39216599Y-18858747D01*
X39234777Y-18875223D01*
X39251253Y-18893401D01*
X39265868Y-18913107D01*
X39278480Y-18934150D01*
X39288970Y-18956329D01*
X39297235Y-18979428D01*
X39303196Y-19003227D01*
X39306796Y-19027495D01*
X39308000Y-19051999D01*
X39308000Y-19702001D01*
X39306796Y-19726505D01*
X39303196Y-19750773D01*
X39297235Y-19774572D01*
X39288970Y-19797671D01*
X39278480Y-19819850D01*
X39265868Y-19840893D01*
X39251253Y-19860599D01*
X39234777Y-19878777D01*
X39216599Y-19895253D01*
X39196893Y-19909868D01*
X39175850Y-19922480D01*
X39153671Y-19932970D01*
X39130572Y-19941235D01*
X39106773Y-19947196D01*
X39082505Y-19950796D01*
X39058001Y-19952000D01*
X38157999Y-19952000D01*
X38133495Y-19950796D01*
X38109227Y-19947196D01*
X38085428Y-19941235D01*
X38062329Y-19932970D01*
X38040150Y-19922480D01*
X38019107Y-19909868D01*
X37999401Y-19895253D01*
X37981223Y-19878777D01*
X37964747Y-19860599D01*
X37950132Y-19840893D01*
X37937520Y-19819850D01*
X37927030Y-19797671D01*
X37918765Y-19774572D01*
X37912804Y-19750773D01*
X37909204Y-19726505D01*
X37908000Y-19702001D01*
X37908000Y-19051999D01*
X37909204Y-19027495D01*
X37912804Y-19003227D01*
X37918765Y-18979428D01*
X37927030Y-18956329D01*
X37937520Y-18934150D01*
X37950132Y-18913107D01*
X37964747Y-18893401D01*
X37981223Y-18875223D01*
X37999401Y-18858747D01*
X38019107Y-18844132D01*
X38040150Y-18831520D01*
X38062329Y-18821030D01*
X38085428Y-18812765D01*
X38109227Y-18806804D01*
X38133495Y-18803204D01*
X38157999Y-18802000D01*
X39058001Y-18802000D01*
X39082505Y-18803204D01*
X39082505Y-18803204D01*
G37*
D11*
G04 #@! TD*
G04 #@! TO.P,R6,1*
G04 #@! TO.N,VCC*
X38608000Y-19377000D03*
D10*
G04 #@! TO.N,VCC*
G04 #@! TO.C,R7*
G36*
X30954505Y-18675204D02*
X30978773Y-18678804D01*
X31002572Y-18684765D01*
X31025671Y-18693030D01*
X31047850Y-18703520D01*
X31068893Y-18716132D01*
X31088599Y-18730747D01*
X31106777Y-18747223D01*
X31123253Y-18765401D01*
X31137868Y-18785107D01*
X31150480Y-18806150D01*
X31160970Y-18828329D01*
X31169235Y-18851428D01*
X31175196Y-18875227D01*
X31178796Y-18899495D01*
X31180000Y-18923999D01*
X31180000Y-19574001D01*
X31178796Y-19598505D01*
X31175196Y-19622773D01*
X31169235Y-19646572D01*
X31160970Y-19669671D01*
X31150480Y-19691850D01*
X31137868Y-19712893D01*
X31123253Y-19732599D01*
X31106777Y-19750777D01*
X31088599Y-19767253D01*
X31068893Y-19781868D01*
X31047850Y-19794480D01*
X31025671Y-19804970D01*
X31002572Y-19813235D01*
X30978773Y-19819196D01*
X30954505Y-19822796D01*
X30930001Y-19824000D01*
X30029999Y-19824000D01*
X30005495Y-19822796D01*
X29981227Y-19819196D01*
X29957428Y-19813235D01*
X29934329Y-19804970D01*
X29912150Y-19794480D01*
X29891107Y-19781868D01*
X29871401Y-19767253D01*
X29853223Y-19750777D01*
X29836747Y-19732599D01*
X29822132Y-19712893D01*
X29809520Y-19691850D01*
X29799030Y-19669671D01*
X29790765Y-19646572D01*
X29784804Y-19622773D01*
X29781204Y-19598505D01*
X29780000Y-19574001D01*
X29780000Y-18923999D01*
X29781204Y-18899495D01*
X29784804Y-18875227D01*
X29790765Y-18851428D01*
X29799030Y-18828329D01*
X29809520Y-18806150D01*
X29822132Y-18785107D01*
X29836747Y-18765401D01*
X29853223Y-18747223D01*
X29871401Y-18730747D01*
X29891107Y-18716132D01*
X29912150Y-18703520D01*
X29934329Y-18693030D01*
X29957428Y-18684765D01*
X29981227Y-18678804D01*
X30005495Y-18675204D01*
X30029999Y-18674000D01*
X30930001Y-18674000D01*
X30954505Y-18675204D01*
X30954505Y-18675204D01*
G37*
D11*
G04 #@! TD*
G04 #@! TO.P,R7,1*
G04 #@! TO.N,VCC*
X30480000Y-19249000D03*
D10*
G04 #@! TO.N,/FR*
G04 #@! TO.C,R7*
G36*
X30954505Y-16625204D02*
X30978773Y-16628804D01*
X31002572Y-16634765D01*
X31025671Y-16643030D01*
X31047850Y-16653520D01*
X31068893Y-16666132D01*
X31088599Y-16680747D01*
X31106777Y-16697223D01*
X31123253Y-16715401D01*
X31137868Y-16735107D01*
X31150480Y-16756150D01*
X31160970Y-16778329D01*
X31169235Y-16801428D01*
X31175196Y-16825227D01*
X31178796Y-16849495D01*
X31180000Y-16873999D01*
X31180000Y-17524001D01*
X31178796Y-17548505D01*
X31175196Y-17572773D01*
X31169235Y-17596572D01*
X31160970Y-17619671D01*
X31150480Y-17641850D01*
X31137868Y-17662893D01*
X31123253Y-17682599D01*
X31106777Y-17700777D01*
X31088599Y-17717253D01*
X31068893Y-17731868D01*
X31047850Y-17744480D01*
X31025671Y-17754970D01*
X31002572Y-17763235D01*
X30978773Y-17769196D01*
X30954505Y-17772796D01*
X30930001Y-17774000D01*
X30029999Y-17774000D01*
X30005495Y-17772796D01*
X29981227Y-17769196D01*
X29957428Y-17763235D01*
X29934329Y-17754970D01*
X29912150Y-17744480D01*
X29891107Y-17731868D01*
X29871401Y-17717253D01*
X29853223Y-17700777D01*
X29836747Y-17682599D01*
X29822132Y-17662893D01*
X29809520Y-17641850D01*
X29799030Y-17619671D01*
X29790765Y-17596572D01*
X29784804Y-17572773D01*
X29781204Y-17548505D01*
X29780000Y-17524001D01*
X29780000Y-16873999D01*
X29781204Y-16849495D01*
X29784804Y-16825227D01*
X29790765Y-16801428D01*
X29799030Y-16778329D01*
X29809520Y-16756150D01*
X29822132Y-16735107D01*
X29836747Y-16715401D01*
X29853223Y-16697223D01*
X29871401Y-16680747D01*
X29891107Y-16666132D01*
X29912150Y-16653520D01*
X29934329Y-16643030D01*
X29957428Y-16634765D01*
X29981227Y-16628804D01*
X30005495Y-16625204D01*
X30029999Y-16624000D01*
X30930001Y-16624000D01*
X30954505Y-16625204D01*
X30954505Y-16625204D01*
G37*
D11*
G04 #@! TD*
G04 #@! TO.P,R7,2*
G04 #@! TO.N,/FR*
X30480000Y-17199000D03*
D10*
G04 #@! TO.N,VCC*
G04 #@! TO.C,R8*
G36*
X21048505Y-18675204D02*
X21072773Y-18678804D01*
X21096572Y-18684765D01*
X21119671Y-18693030D01*
X21141850Y-18703520D01*
X21162893Y-18716132D01*
X21182599Y-18730747D01*
X21200777Y-18747223D01*
X21217253Y-18765401D01*
X21231868Y-18785107D01*
X21244480Y-18806150D01*
X21254970Y-18828329D01*
X21263235Y-18851428D01*
X21269196Y-18875227D01*
X21272796Y-18899495D01*
X21274000Y-18923999D01*
X21274000Y-19574001D01*
X21272796Y-19598505D01*
X21269196Y-19622773D01*
X21263235Y-19646572D01*
X21254970Y-19669671D01*
X21244480Y-19691850D01*
X21231868Y-19712893D01*
X21217253Y-19732599D01*
X21200777Y-19750777D01*
X21182599Y-19767253D01*
X21162893Y-19781868D01*
X21141850Y-19794480D01*
X21119671Y-19804970D01*
X21096572Y-19813235D01*
X21072773Y-19819196D01*
X21048505Y-19822796D01*
X21024001Y-19824000D01*
X20123999Y-19824000D01*
X20099495Y-19822796D01*
X20075227Y-19819196D01*
X20051428Y-19813235D01*
X20028329Y-19804970D01*
X20006150Y-19794480D01*
X19985107Y-19781868D01*
X19965401Y-19767253D01*
X19947223Y-19750777D01*
X19930747Y-19732599D01*
X19916132Y-19712893D01*
X19903520Y-19691850D01*
X19893030Y-19669671D01*
X19884765Y-19646572D01*
X19878804Y-19622773D01*
X19875204Y-19598505D01*
X19874000Y-19574001D01*
X19874000Y-18923999D01*
X19875204Y-18899495D01*
X19878804Y-18875227D01*
X19884765Y-18851428D01*
X19893030Y-18828329D01*
X19903520Y-18806150D01*
X19916132Y-18785107D01*
X19930747Y-18765401D01*
X19947223Y-18747223D01*
X19965401Y-18730747D01*
X19985107Y-18716132D01*
X20006150Y-18703520D01*
X20028329Y-18693030D01*
X20051428Y-18684765D01*
X20075227Y-18678804D01*
X20099495Y-18675204D01*
X20123999Y-18674000D01*
X21024001Y-18674000D01*
X21048505Y-18675204D01*
X21048505Y-18675204D01*
G37*
D11*
G04 #@! TD*
G04 #@! TO.P,R8,1*
G04 #@! TO.N,VCC*
X20574000Y-19249000D03*
D10*
G04 #@! TO.N,/UL*
G04 #@! TO.C,R8*
G36*
X21048505Y-16625204D02*
X21072773Y-16628804D01*
X21096572Y-16634765D01*
X21119671Y-16643030D01*
X21141850Y-16653520D01*
X21162893Y-16666132D01*
X21182599Y-16680747D01*
X21200777Y-16697223D01*
X21217253Y-16715401D01*
X21231868Y-16735107D01*
X21244480Y-16756150D01*
X21254970Y-16778329D01*
X21263235Y-16801428D01*
X21269196Y-16825227D01*
X21272796Y-16849495D01*
X21274000Y-16873999D01*
X21274000Y-17524001D01*
X21272796Y-17548505D01*
X21269196Y-17572773D01*
X21263235Y-17596572D01*
X21254970Y-17619671D01*
X21244480Y-17641850D01*
X21231868Y-17662893D01*
X21217253Y-17682599D01*
X21200777Y-17700777D01*
X21182599Y-17717253D01*
X21162893Y-17731868D01*
X21141850Y-17744480D01*
X21119671Y-17754970D01*
X21096572Y-17763235D01*
X21072773Y-17769196D01*
X21048505Y-17772796D01*
X21024001Y-17774000D01*
X20123999Y-17774000D01*
X20099495Y-17772796D01*
X20075227Y-17769196D01*
X20051428Y-17763235D01*
X20028329Y-17754970D01*
X20006150Y-17744480D01*
X19985107Y-17731868D01*
X19965401Y-17717253D01*
X19947223Y-17700777D01*
X19930747Y-17682599D01*
X19916132Y-17662893D01*
X19903520Y-17641850D01*
X19893030Y-17619671D01*
X19884765Y-17596572D01*
X19878804Y-17572773D01*
X19875204Y-17548505D01*
X19874000Y-17524001D01*
X19874000Y-16873999D01*
X19875204Y-16849495D01*
X19878804Y-16825227D01*
X19884765Y-16801428D01*
X19893030Y-16778329D01*
X19903520Y-16756150D01*
X19916132Y-16735107D01*
X19930747Y-16715401D01*
X19947223Y-16697223D01*
X19965401Y-16680747D01*
X19985107Y-16666132D01*
X20006150Y-16653520D01*
X20028329Y-16643030D01*
X20051428Y-16634765D01*
X20075227Y-16628804D01*
X20099495Y-16625204D01*
X20123999Y-16624000D01*
X21024001Y-16624000D01*
X21048505Y-16625204D01*
X21048505Y-16625204D01*
G37*
D11*
G04 #@! TD*
G04 #@! TO.P,R8,2*
G04 #@! TO.N,/UL*
X20574000Y-17199000D03*
D12*
G04 #@! TO.P,SW1,2*
G04 #@! TO.N,/LT*
X18470000Y-37560000D03*
G04 #@! TO.P,SW1,1*
G04 #@! TO.N,GND*
X13970000Y-37560000D03*
G04 #@! TO.P,SW1,2*
G04 #@! TO.N,/LT*
X18470000Y-31060000D03*
G04 #@! TO.P,SW1,1*
G04 #@! TO.N,GND*
X13970000Y-31060000D03*
G04 #@! TD*
G04 #@! TO.P,SW2,1*
G04 #@! TO.N,GND*
X22860000Y-31060000D03*
G04 #@! TO.P,SW2,2*
G04 #@! TO.N,/CF*
X27360000Y-31060000D03*
G04 #@! TO.P,SW2,1*
G04 #@! TO.N,GND*
X22860000Y-37560000D03*
G04 #@! TO.P,SW2,2*
G04 #@! TO.N,/CF*
X27360000Y-37560000D03*
G04 #@! TD*
G04 #@! TO.P,SW3,2*
G04 #@! TO.N,/RT*
X36250000Y-37560000D03*
G04 #@! TO.P,SW3,1*
G04 #@! TO.N,GND*
X31750000Y-37560000D03*
G04 #@! TO.P,SW3,2*
G04 #@! TO.N,/RT*
X36250000Y-31060000D03*
G04 #@! TO.P,SW3,1*
G04 #@! TO.N,GND*
X31750000Y-31060000D03*
G04 #@! TD*
G04 #@! TO.P,SW4,1*
G04 #@! TO.N,GND*
X22860000Y-40500000D03*
G04 #@! TO.P,SW4,2*
G04 #@! TO.N,/DN*
X27360000Y-40500000D03*
G04 #@! TO.P,SW4,1*
G04 #@! TO.N,GND*
X22860000Y-47000000D03*
G04 #@! TO.P,SW4,2*
G04 #@! TO.N,/DN*
X27360000Y-47000000D03*
G04 #@! TD*
G04 #@! TO.P,SW5,2*
G04 #@! TO.N,/UP*
X27360000Y-28400000D03*
G04 #@! TO.P,SW5,1*
G04 #@! TO.N,GND*
X22860000Y-28400000D03*
G04 #@! TO.P,SW5,2*
G04 #@! TO.N,/UP*
X27360000Y-21900000D03*
G04 #@! TO.P,SW5,1*
G04 #@! TO.N,GND*
X22860000Y-21900000D03*
G04 #@! TD*
G04 #@! TO.P,SW6,1*
G04 #@! TO.N,GND*
X45212000Y-21296000D03*
G04 #@! TO.P,SW6,2*
G04 #@! TO.N,/UR*
X40712000Y-21296000D03*
G04 #@! TO.P,SW6,1*
G04 #@! TO.N,GND*
X45212000Y-14796000D03*
G04 #@! TO.P,SW6,2*
G04 #@! TO.N,/UR*
X40712000Y-14796000D03*
G04 #@! TD*
G04 #@! TO.P,SW7,2*
G04 #@! TO.N,/FR*
X31822000Y-14668000D03*
G04 #@! TO.P,SW7,1*
G04 #@! TO.N,GND*
X36322000Y-14668000D03*
G04 #@! TO.P,SW7,2*
G04 #@! TO.N,/FR*
X31822000Y-21168000D03*
G04 #@! TO.P,SW7,1*
G04 #@! TO.N,GND*
X36322000Y-21168000D03*
G04 #@! TD*
G04 #@! TO.P,SW8,1*
G04 #@! TO.N,GND*
X13970000Y-14772000D03*
G04 #@! TO.P,SW8,2*
G04 #@! TO.N,/UL*
X18470000Y-14772000D03*
G04 #@! TO.P,SW8,1*
G04 #@! TO.N,GND*
X13970000Y-21272000D03*
G04 #@! TO.P,SW8,2*
G04 #@! TO.N,/UL*
X18470000Y-21272000D03*
G04 #@! TD*
D10*
G04 #@! TO.N,/RT*
G04 #@! TO.C,R3*
G36*
X38828505Y-31897204D02*
X38852773Y-31900804D01*
X38876572Y-31906765D01*
X38899671Y-31915030D01*
X38921850Y-31925520D01*
X38942893Y-31938132D01*
X38962599Y-31952747D01*
X38980777Y-31969223D01*
X38997253Y-31987401D01*
X39011868Y-32007107D01*
X39024480Y-32028150D01*
X39034970Y-32050329D01*
X39043235Y-32073428D01*
X39049196Y-32097227D01*
X39052796Y-32121495D01*
X39054000Y-32145999D01*
X39054000Y-32796001D01*
X39052796Y-32820505D01*
X39049196Y-32844773D01*
X39043235Y-32868572D01*
X39034970Y-32891671D01*
X39024480Y-32913850D01*
X39011868Y-32934893D01*
X38997253Y-32954599D01*
X38980777Y-32972777D01*
X38962599Y-32989253D01*
X38942893Y-33003868D01*
X38921850Y-33016480D01*
X38899671Y-33026970D01*
X38876572Y-33035235D01*
X38852773Y-33041196D01*
X38828505Y-33044796D01*
X38804001Y-33046000D01*
X37903999Y-33046000D01*
X37879495Y-33044796D01*
X37855227Y-33041196D01*
X37831428Y-33035235D01*
X37808329Y-33026970D01*
X37786150Y-33016480D01*
X37765107Y-33003868D01*
X37745401Y-32989253D01*
X37727223Y-32972777D01*
X37710747Y-32954599D01*
X37696132Y-32934893D01*
X37683520Y-32913850D01*
X37673030Y-32891671D01*
X37664765Y-32868572D01*
X37658804Y-32844773D01*
X37655204Y-32820505D01*
X37654000Y-32796001D01*
X37654000Y-32145999D01*
X37655204Y-32121495D01*
X37658804Y-32097227D01*
X37664765Y-32073428D01*
X37673030Y-32050329D01*
X37683520Y-32028150D01*
X37696132Y-32007107D01*
X37710747Y-31987401D01*
X37727223Y-31969223D01*
X37745401Y-31952747D01*
X37765107Y-31938132D01*
X37786150Y-31925520D01*
X37808329Y-31915030D01*
X37831428Y-31906765D01*
X37855227Y-31900804D01*
X37879495Y-31897204D01*
X37903999Y-31896000D01*
X38804001Y-31896000D01*
X38828505Y-31897204D01*
X38828505Y-31897204D01*
G37*
D11*
G04 #@! TD*
G04 #@! TO.P,R3,2*
G04 #@! TO.N,/RT*
X38354000Y-32471000D03*
D10*
G04 #@! TO.N,VCC*
G04 #@! TO.C,R3*
G36*
X38828505Y-33947204D02*
X38852773Y-33950804D01*
X38876572Y-33956765D01*
X38899671Y-33965030D01*
X38921850Y-33975520D01*
X38942893Y-33988132D01*
X38962599Y-34002747D01*
X38980777Y-34019223D01*
X38997253Y-34037401D01*
X39011868Y-34057107D01*
X39024480Y-34078150D01*
X39034970Y-34100329D01*
X39043235Y-34123428D01*
X39049196Y-34147227D01*
X39052796Y-34171495D01*
X39054000Y-34195999D01*
X39054000Y-34846001D01*
X39052796Y-34870505D01*
X39049196Y-34894773D01*
X39043235Y-34918572D01*
X39034970Y-34941671D01*
X39024480Y-34963850D01*
X39011868Y-34984893D01*
X38997253Y-35004599D01*
X38980777Y-35022777D01*
X38962599Y-35039253D01*
X38942893Y-35053868D01*
X38921850Y-35066480D01*
X38899671Y-35076970D01*
X38876572Y-35085235D01*
X38852773Y-35091196D01*
X38828505Y-35094796D01*
X38804001Y-35096000D01*
X37903999Y-35096000D01*
X37879495Y-35094796D01*
X37855227Y-35091196D01*
X37831428Y-35085235D01*
X37808329Y-35076970D01*
X37786150Y-35066480D01*
X37765107Y-35053868D01*
X37745401Y-35039253D01*
X37727223Y-35022777D01*
X37710747Y-35004599D01*
X37696132Y-34984893D01*
X37683520Y-34963850D01*
X37673030Y-34941671D01*
X37664765Y-34918572D01*
X37658804Y-34894773D01*
X37655204Y-34870505D01*
X37654000Y-34846001D01*
X37654000Y-34195999D01*
X37655204Y-34171495D01*
X37658804Y-34147227D01*
X37664765Y-34123428D01*
X37673030Y-34100329D01*
X37683520Y-34078150D01*
X37696132Y-34057107D01*
X37710747Y-34037401D01*
X37727223Y-34019223D01*
X37745401Y-34002747D01*
X37765107Y-33988132D01*
X37786150Y-33975520D01*
X37808329Y-33965030D01*
X37831428Y-33956765D01*
X37855227Y-33950804D01*
X37879495Y-33947204D01*
X37903999Y-33946000D01*
X38804001Y-33946000D01*
X38828505Y-33947204D01*
X38828505Y-33947204D01*
G37*
D11*
G04 #@! TD*
G04 #@! TO.P,R3,1*
G04 #@! TO.N,VCC*
X38354000Y-34521000D03*
D10*
G04 #@! TO.N,VCC*
G04 #@! TO.C,R4*
G36*
X29938505Y-43377204D02*
X29962773Y-43380804D01*
X29986572Y-43386765D01*
X30009671Y-43395030D01*
X30031850Y-43405520D01*
X30052893Y-43418132D01*
X30072599Y-43432747D01*
X30090777Y-43449223D01*
X30107253Y-43467401D01*
X30121868Y-43487107D01*
X30134480Y-43508150D01*
X30144970Y-43530329D01*
X30153235Y-43553428D01*
X30159196Y-43577227D01*
X30162796Y-43601495D01*
X30164000Y-43625999D01*
X30164000Y-44276001D01*
X30162796Y-44300505D01*
X30159196Y-44324773D01*
X30153235Y-44348572D01*
X30144970Y-44371671D01*
X30134480Y-44393850D01*
X30121868Y-44414893D01*
X30107253Y-44434599D01*
X30090777Y-44452777D01*
X30072599Y-44469253D01*
X30052893Y-44483868D01*
X30031850Y-44496480D01*
X30009671Y-44506970D01*
X29986572Y-44515235D01*
X29962773Y-44521196D01*
X29938505Y-44524796D01*
X29914001Y-44526000D01*
X29013999Y-44526000D01*
X28989495Y-44524796D01*
X28965227Y-44521196D01*
X28941428Y-44515235D01*
X28918329Y-44506970D01*
X28896150Y-44496480D01*
X28875107Y-44483868D01*
X28855401Y-44469253D01*
X28837223Y-44452777D01*
X28820747Y-44434599D01*
X28806132Y-44414893D01*
X28793520Y-44393850D01*
X28783030Y-44371671D01*
X28774765Y-44348572D01*
X28768804Y-44324773D01*
X28765204Y-44300505D01*
X28764000Y-44276001D01*
X28764000Y-43625999D01*
X28765204Y-43601495D01*
X28768804Y-43577227D01*
X28774765Y-43553428D01*
X28783030Y-43530329D01*
X28793520Y-43508150D01*
X28806132Y-43487107D01*
X28820747Y-43467401D01*
X28837223Y-43449223D01*
X28855401Y-43432747D01*
X28875107Y-43418132D01*
X28896150Y-43405520D01*
X28918329Y-43395030D01*
X28941428Y-43386765D01*
X28965227Y-43380804D01*
X28989495Y-43377204D01*
X29013999Y-43376000D01*
X29914001Y-43376000D01*
X29938505Y-43377204D01*
X29938505Y-43377204D01*
G37*
D11*
G04 #@! TD*
G04 #@! TO.P,R4,1*
G04 #@! TO.N,VCC*
X29464000Y-43951000D03*
D10*
G04 #@! TO.N,/DN*
G04 #@! TO.C,R4*
G36*
X29938505Y-41327204D02*
X29962773Y-41330804D01*
X29986572Y-41336765D01*
X30009671Y-41345030D01*
X30031850Y-41355520D01*
X30052893Y-41368132D01*
X30072599Y-41382747D01*
X30090777Y-41399223D01*
X30107253Y-41417401D01*
X30121868Y-41437107D01*
X30134480Y-41458150D01*
X30144970Y-41480329D01*
X30153235Y-41503428D01*
X30159196Y-41527227D01*
X30162796Y-41551495D01*
X30164000Y-41575999D01*
X30164000Y-42226001D01*
X30162796Y-42250505D01*
X30159196Y-42274773D01*
X30153235Y-42298572D01*
X30144970Y-42321671D01*
X30134480Y-42343850D01*
X30121868Y-42364893D01*
X30107253Y-42384599D01*
X30090777Y-42402777D01*
X30072599Y-42419253D01*
X30052893Y-42433868D01*
X30031850Y-42446480D01*
X30009671Y-42456970D01*
X29986572Y-42465235D01*
X29962773Y-42471196D01*
X29938505Y-42474796D01*
X29914001Y-42476000D01*
X29013999Y-42476000D01*
X28989495Y-42474796D01*
X28965227Y-42471196D01*
X28941428Y-42465235D01*
X28918329Y-42456970D01*
X28896150Y-42446480D01*
X28875107Y-42433868D01*
X28855401Y-42419253D01*
X28837223Y-42402777D01*
X28820747Y-42384599D01*
X28806132Y-42364893D01*
X28793520Y-42343850D01*
X28783030Y-42321671D01*
X28774765Y-42298572D01*
X28768804Y-42274773D01*
X28765204Y-42250505D01*
X28764000Y-42226001D01*
X28764000Y-41575999D01*
X28765204Y-41551495D01*
X28768804Y-41527227D01*
X28774765Y-41503428D01*
X28783030Y-41480329D01*
X28793520Y-41458150D01*
X28806132Y-41437107D01*
X28820747Y-41417401D01*
X28837223Y-41399223D01*
X28855401Y-41382747D01*
X28875107Y-41368132D01*
X28896150Y-41355520D01*
X28918329Y-41345030D01*
X28941428Y-41336765D01*
X28965227Y-41330804D01*
X28989495Y-41327204D01*
X29013999Y-41326000D01*
X29914001Y-41326000D01*
X29938505Y-41327204D01*
X29938505Y-41327204D01*
G37*
D11*
G04 #@! TD*
G04 #@! TO.P,R4,2*
G04 #@! TO.N,/DN*
X29464000Y-41901000D03*
D13*
G04 #@! TO.P,J2,1*
G04 #@! TO.N,/UP*
X30175200Y-5638800D03*
D14*
G04 #@! TO.P,J2,2*
G04 #@! TO.N,/DN*
X27405200Y-5638800D03*
G04 #@! TO.P,J2,3*
G04 #@! TO.N,/LT*
X24635200Y-5638800D03*
G04 #@! TO.P,J2,4*
G04 #@! TO.N,/RT*
X21865200Y-5638800D03*
G04 #@! TO.P,J2,5*
G04 #@! TO.N,N/C*
X19095200Y-5638800D03*
G04 #@! TO.P,J2,6*
G04 #@! TO.N,/UR*
X28790200Y-2798800D03*
G04 #@! TO.P,J2,7*
G04 #@! TO.N,N/C*
X26020200Y-2798800D03*
G04 #@! TO.P,J2,8*
G04 #@! TO.N,GND*
X23250200Y-2798800D03*
G04 #@! TO.P,J2,9*
G04 #@! TO.N,N/C*
X20480200Y-2798800D03*
D15*
G04 #@! TO.P,J2,0*
X37135200Y-5338800D03*
X12135200Y-5338800D03*
G04 #@! TD*
D16*
G04 #@! TO.P,MTG1,1*
G04 #@! TO.N,N/C*
X4000000Y-4000000D03*
G04 #@! TD*
G04 #@! TO.P,MTG2,1*
G04 #@! TO.N,N/C*
X45000000Y-4000000D03*
G04 #@! TD*
G04 #@! TO.P,MTG3,1*
G04 #@! TO.N,N/C*
X4000000Y-45000000D03*
G04 #@! TD*
G04 #@! TO.P,MTG4,1*
G04 #@! TO.N,N/C*
X45000000Y-45000000D03*
G04 #@! TD*
D17*
G04 #@! TO.P,J1,1*
G04 #@! TO.N,VCC*
X40000000Y-12000000D03*
D18*
G04 #@! TO.P,J1,2*
X37460000Y-12000000D03*
G04 #@! TO.P,J1,3*
G04 #@! TO.N,/UP*
X34920000Y-12000000D03*
G04 #@! TO.P,J1,4*
G04 #@! TO.N,/UR*
X32380000Y-12000000D03*
G04 #@! TO.P,J1,5*
G04 #@! TO.N,/DN*
X29840000Y-12000000D03*
G04 #@! TO.P,J1,6*
G04 #@! TO.N,/CF*
X27300000Y-12000000D03*
G04 #@! TO.P,J1,7*
G04 #@! TO.N,/LT*
X24760000Y-12000000D03*
G04 #@! TO.P,J1,8*
G04 #@! TO.N,/FR*
X22220000Y-12000000D03*
G04 #@! TO.P,J1,9*
G04 #@! TO.N,/RT*
X19680000Y-12000000D03*
G04 #@! TO.P,J1,10*
G04 #@! TO.N,/UL*
X17140000Y-12000000D03*
G04 #@! TO.P,J1,11*
G04 #@! TO.N,GND*
X14600000Y-12000000D03*
G04 #@! TO.P,J1,12*
X12060000Y-12000000D03*
G04 #@! TD*
D19*
G04 #@! TO.N,/UP*
X27000000Y-26000000D03*
X34000000Y-17000000D03*
G04 #@! TO.N,/RT*
X36000000Y-27000000D03*
X18814046Y-26814046D03*
G04 #@! TD*
D20*
G04 #@! TO.N,/UP*
X34000000Y-12920000D02*
X34920000Y-12000000D01*
X34000000Y-17000000D02*
X34000000Y-12920000D01*
X28771000Y-23311000D02*
X27360000Y-21900000D01*
X29718000Y-23311000D02*
X28771000Y-23311000D01*
X27000000Y-28040000D02*
X27360000Y-28400000D01*
X27000000Y-26000000D02*
X27000000Y-28040000D01*
D21*
G04 #@! TO.N,/UR*
X31822000Y-12558000D02*
X32380000Y-12000000D01*
D20*
X40712000Y-21296000D02*
X40712000Y-14796000D01*
X40712000Y-15223000D02*
X40712000Y-14796000D01*
X38608000Y-17327000D02*
X40712000Y-15223000D01*
G04 #@! TO.N,/DN*
X29464000Y-41901000D02*
X27360000Y-39797000D01*
X29840000Y-10797919D02*
X29840000Y-12000000D01*
X28063000Y-40500000D02*
X27360000Y-40500000D01*
X29464000Y-41901000D02*
X28063000Y-40500000D01*
X27360000Y-47000000D02*
X27360000Y-40500000D01*
X29840000Y-8073600D02*
X27405200Y-5638800D01*
X29840000Y-12000000D02*
X29840000Y-8073600D01*
X28774213Y-40500000D02*
X27360000Y-40500000D01*
X30048200Y-37236400D02*
X30048200Y-39217600D01*
X30443410Y-32043610D02*
X31597600Y-33197800D01*
X30048200Y-39217600D02*
X29294613Y-39971187D01*
X29840000Y-12000000D02*
X25577800Y-16262200D01*
X31597600Y-35687000D02*
X30048200Y-37236400D01*
X25577800Y-16262200D02*
X25577800Y-24866600D01*
X31597600Y-33197800D02*
X31597600Y-35687000D01*
X25577800Y-24866600D02*
X25857200Y-25146000D01*
X25857200Y-25146000D02*
X27217374Y-25146000D01*
X29294613Y-39979600D02*
X28774213Y-40500000D01*
X29294613Y-39971187D02*
X29294613Y-39979600D01*
X27217374Y-25146000D02*
X28067000Y-25995626D01*
X28067000Y-25995626D02*
X28067000Y-26797000D01*
X28067000Y-26797000D02*
X29057600Y-27787600D01*
X29057600Y-29906990D02*
X30443410Y-31292800D01*
X29057600Y-27787600D02*
X29057600Y-29906990D01*
X30443410Y-31292800D02*
X30443410Y-32043610D01*
G04 #@! TO.N,/CF*
X28044000Y-31060000D02*
X27360000Y-31060000D01*
X29464000Y-32480000D02*
X28044000Y-31060000D01*
X27360000Y-31060000D02*
X27360000Y-30188750D01*
X25141010Y-28841010D02*
X27360000Y-31060000D01*
X27360000Y-37560000D02*
X27360000Y-31060000D01*
X27300000Y-13841010D02*
X25141010Y-16000000D01*
X27300000Y-12000000D02*
X27300000Y-13841010D01*
X25141010Y-16000000D02*
X25141010Y-28841010D01*
G04 #@! TO.N,/LT*
X19881000Y-32471000D02*
X20574000Y-32471000D01*
X18470000Y-31060000D02*
X19881000Y-32471000D01*
X18470000Y-31060000D02*
X18470000Y-37560000D01*
X24760000Y-5763600D02*
X24635200Y-5638800D01*
X24760000Y-12000000D02*
X24760000Y-5763600D01*
X23910001Y-12849999D02*
X24760000Y-12000000D01*
X23910001Y-18584199D02*
X23910001Y-12849999D01*
X21580599Y-20913601D02*
X23910001Y-18584199D01*
X18470000Y-31060000D02*
X21580599Y-27949401D01*
X21580599Y-27949401D02*
X21580599Y-20913601D01*
G04 #@! TO.N,/FR*
X31822000Y-21168000D02*
X31822000Y-14668000D01*
X30480000Y-16010000D02*
X31822000Y-14668000D01*
X30480000Y-17199000D02*
X30480000Y-16010000D01*
D21*
G04 #@! TO.N,/RT*
X17000000Y-9000000D02*
X20690000Y-9000000D01*
X19680000Y-10010000D02*
X20690000Y-9000000D01*
D20*
X16010599Y-24010599D02*
X18814046Y-26814046D01*
X16010599Y-9989401D02*
X16010599Y-24010599D01*
X17000000Y-9000000D02*
X16010599Y-9989401D01*
X36000000Y-30810000D02*
X36250000Y-31060000D01*
X36000000Y-27000000D02*
X36000000Y-30810000D01*
X36943000Y-31060000D02*
X36250000Y-31060000D01*
X38354000Y-32471000D02*
X36943000Y-31060000D01*
X36250000Y-37560000D02*
X36250000Y-31060000D01*
X19680000Y-12000000D02*
X19680000Y-10010000D01*
X20690000Y-7945370D02*
X20690000Y-9000000D01*
X21865200Y-6770170D02*
X20690000Y-7945370D01*
X21865200Y-5638800D02*
X21865200Y-6770170D01*
G04 #@! TO.N,/UL*
X17140000Y-13442000D02*
X18470000Y-14772000D01*
X17140000Y-12000000D02*
X17140000Y-13442000D01*
X18470000Y-21272000D02*
X18470000Y-14772000D01*
X18470000Y-15095000D02*
X18470000Y-14772000D01*
X20574000Y-17199000D02*
X18470000Y-15095000D01*
G04 #@! TD*
G04 #@! TO.N,VCC*
G36*
X42985688Y-985369D02*
X41985369Y-1985688D01*
X41444000Y-3292668D01*
X41444000Y-4707332D01*
X41985369Y-6014312D01*
X42985688Y-7014631D01*
X44292668Y-7556000D01*
X45707332Y-7556000D01*
X47014312Y-7014631D01*
X48014631Y-6014312D01*
X48519000Y-4796658D01*
X48519001Y-44203344D01*
X48014631Y-42985688D01*
X47014312Y-41985369D01*
X45707332Y-41444000D01*
X44292668Y-41444000D01*
X42985688Y-41985369D01*
X41985369Y-42985688D01*
X41444000Y-44292668D01*
X41444000Y-45707332D01*
X41985369Y-47014312D01*
X42985688Y-48014631D01*
X44203342Y-48519000D01*
X4796658Y-48519000D01*
X6014312Y-48014631D01*
X7014631Y-47014312D01*
X7134342Y-46725302D01*
X21479000Y-46725302D01*
X21479000Y-47274698D01*
X21689245Y-47782273D01*
X22077727Y-48170755D01*
X22585302Y-48381000D01*
X23134698Y-48381000D01*
X23642273Y-48170755D01*
X24030755Y-47782273D01*
X24241000Y-47274698D01*
X24241000Y-46725302D01*
X24030755Y-46217727D01*
X23642273Y-45829245D01*
X23134698Y-45619000D01*
X22585302Y-45619000D01*
X22077727Y-45829245D01*
X21689245Y-46217727D01*
X21479000Y-46725302D01*
X7134342Y-46725302D01*
X7556000Y-45707332D01*
X7556000Y-44292668D01*
X7014631Y-42985688D01*
X6014312Y-41985369D01*
X4707332Y-41444000D01*
X3292668Y-41444000D01*
X1985688Y-41985369D01*
X985369Y-42985688D01*
X481000Y-44203342D01*
X481000Y-40225302D01*
X21479000Y-40225302D01*
X21479000Y-40774698D01*
X21689245Y-41282273D01*
X22077727Y-41670755D01*
X22585302Y-41881000D01*
X23134698Y-41881000D01*
X23642273Y-41670755D01*
X24030755Y-41282273D01*
X24241000Y-40774698D01*
X24241000Y-40225302D01*
X24030755Y-39717727D01*
X23642273Y-39329245D01*
X23134698Y-39119000D01*
X22585302Y-39119000D01*
X22077727Y-39329245D01*
X21689245Y-39717727D01*
X21479000Y-40225302D01*
X481000Y-40225302D01*
X481000Y-37285302D01*
X12589000Y-37285302D01*
X12589000Y-37834698D01*
X12799245Y-38342273D01*
X13187727Y-38730755D01*
X13695302Y-38941000D01*
X14244698Y-38941000D01*
X14752273Y-38730755D01*
X15140755Y-38342273D01*
X15351000Y-37834698D01*
X15351000Y-37285302D01*
X15140755Y-36777727D01*
X14752273Y-36389245D01*
X14244698Y-36179000D01*
X13695302Y-36179000D01*
X13187727Y-36389245D01*
X12799245Y-36777727D01*
X12589000Y-37285302D01*
X481000Y-37285302D01*
X481000Y-30785302D01*
X12589000Y-30785302D01*
X12589000Y-31334698D01*
X12799245Y-31842273D01*
X13187727Y-32230755D01*
X13695302Y-32441000D01*
X14244698Y-32441000D01*
X14752273Y-32230755D01*
X15140755Y-31842273D01*
X15351000Y-31334698D01*
X15351000Y-30785302D01*
X17089000Y-30785302D01*
X17089000Y-31334698D01*
X17299245Y-31842273D01*
X17687727Y-32230755D01*
X17962000Y-32344363D01*
X17962001Y-36275637D01*
X17687727Y-36389245D01*
X17299245Y-36777727D01*
X17089000Y-37285302D01*
X17089000Y-37834698D01*
X17299245Y-38342273D01*
X17687727Y-38730755D01*
X18195302Y-38941000D01*
X18744698Y-38941000D01*
X19252273Y-38730755D01*
X19640755Y-38342273D01*
X19851000Y-37834698D01*
X19851000Y-37285302D01*
X21479000Y-37285302D01*
X21479000Y-37834698D01*
X21689245Y-38342273D01*
X22077727Y-38730755D01*
X22585302Y-38941000D01*
X23134698Y-38941000D01*
X23642273Y-38730755D01*
X24030755Y-38342273D01*
X24241000Y-37834698D01*
X24241000Y-37285302D01*
X24030755Y-36777727D01*
X23642273Y-36389245D01*
X23134698Y-36179000D01*
X22585302Y-36179000D01*
X22077727Y-36389245D01*
X21689245Y-36777727D01*
X21479000Y-37285302D01*
X19851000Y-37285302D01*
X19640755Y-36777727D01*
X19252273Y-36389245D01*
X18978000Y-36275637D01*
X18978000Y-34806750D01*
X19239000Y-34806750D01*
X19239000Y-35222309D01*
X19335673Y-35455698D01*
X19514301Y-35634327D01*
X19747690Y-35731000D01*
X20288250Y-35731000D01*
X20447000Y-35572250D01*
X20447000Y-34648000D01*
X20701000Y-34648000D01*
X20701000Y-35572250D01*
X20859750Y-35731000D01*
X21400310Y-35731000D01*
X21633699Y-35634327D01*
X21812327Y-35455698D01*
X21909000Y-35222309D01*
X21909000Y-34806750D01*
X21750250Y-34648000D01*
X20701000Y-34648000D01*
X20447000Y-34648000D01*
X19397750Y-34648000D01*
X19239000Y-34806750D01*
X18978000Y-34806750D01*
X18978000Y-32344363D01*
X19018972Y-32327392D01*
X19485536Y-32793956D01*
X19485536Y-32796001D01*
X19534136Y-33040330D01*
X19672537Y-33247463D01*
X19767627Y-33311000D01*
X19747690Y-33311000D01*
X19514301Y-33407673D01*
X19335673Y-33586302D01*
X19239000Y-33819691D01*
X19239000Y-34235250D01*
X19397750Y-34394000D01*
X20447000Y-34394000D01*
X20447000Y-34374000D01*
X20701000Y-34374000D01*
X20701000Y-34394000D01*
X21750250Y-34394000D01*
X21909000Y-34235250D01*
X21909000Y-33819691D01*
X21812327Y-33586302D01*
X21633699Y-33407673D01*
X21400310Y-33311000D01*
X21380373Y-33311000D01*
X21475463Y-33247463D01*
X21613864Y-33040330D01*
X21662464Y-32796001D01*
X21662464Y-32145999D01*
X21613864Y-31901670D01*
X21475463Y-31694537D01*
X21268330Y-31556136D01*
X21024001Y-31507536D01*
X20123999Y-31507536D01*
X19879670Y-31556136D01*
X19762707Y-31634287D01*
X19737392Y-31608972D01*
X19851000Y-31334698D01*
X19851000Y-30785302D01*
X19737392Y-30511028D01*
X21506744Y-28741677D01*
X21689245Y-29182273D01*
X22077727Y-29570755D01*
X22462177Y-29730000D01*
X22077727Y-29889245D01*
X21689245Y-30277727D01*
X21479000Y-30785302D01*
X21479000Y-31334698D01*
X21689245Y-31842273D01*
X22077727Y-32230755D01*
X22585302Y-32441000D01*
X23134698Y-32441000D01*
X23642273Y-32230755D01*
X24030755Y-31842273D01*
X24241000Y-31334698D01*
X24241000Y-30785302D01*
X24030755Y-30277727D01*
X23642273Y-29889245D01*
X23257823Y-29730000D01*
X23642273Y-29570755D01*
X24030755Y-29182273D01*
X24241000Y-28674698D01*
X24241000Y-28125302D01*
X24030755Y-27617727D01*
X23642273Y-27229245D01*
X23134698Y-27019000D01*
X22585302Y-27019000D01*
X22088599Y-27224742D01*
X22088599Y-23075258D01*
X22585302Y-23281000D01*
X23134698Y-23281000D01*
X23642273Y-23070755D01*
X24030755Y-22682273D01*
X24241000Y-22174698D01*
X24241000Y-21625302D01*
X24030755Y-21117727D01*
X23642273Y-20729245D01*
X23134698Y-20519000D01*
X22693620Y-20519000D01*
X24233837Y-18978784D01*
X24276248Y-18950446D01*
X24304587Y-18908034D01*
X24304589Y-18908032D01*
X24388526Y-18782411D01*
X24388526Y-18782410D01*
X24418001Y-18634231D01*
X24418001Y-18634227D01*
X24427952Y-18584199D01*
X24418001Y-18534171D01*
X24418001Y-16000000D01*
X24623059Y-16000000D01*
X24633010Y-16050028D01*
X24633011Y-28790977D01*
X24623059Y-28841010D01*
X24662485Y-29039221D01*
X24746422Y-29164842D01*
X24746425Y-29164845D01*
X24774764Y-29207257D01*
X24817176Y-29235596D01*
X26092608Y-30511029D01*
X25979000Y-30785302D01*
X25979000Y-31334698D01*
X26189245Y-31842273D01*
X26577727Y-32230755D01*
X26852001Y-32344363D01*
X26852000Y-36275637D01*
X26577727Y-36389245D01*
X26189245Y-36777727D01*
X25979000Y-37285302D01*
X25979000Y-37834698D01*
X26189245Y-38342273D01*
X26577727Y-38730755D01*
X27085302Y-38941000D01*
X27634698Y-38941000D01*
X28142273Y-38730755D01*
X28530755Y-38342273D01*
X28741000Y-37834698D01*
X28741000Y-37285302D01*
X28530755Y-36777727D01*
X28142273Y-36389245D01*
X27868000Y-36275637D01*
X27868000Y-34815750D01*
X28129000Y-34815750D01*
X28129000Y-35231309D01*
X28225673Y-35464698D01*
X28404301Y-35643327D01*
X28637690Y-35740000D01*
X29178250Y-35740000D01*
X29337000Y-35581250D01*
X29337000Y-34657000D01*
X29591000Y-34657000D01*
X29591000Y-35581250D01*
X29749750Y-35740000D01*
X30290310Y-35740000D01*
X30523699Y-35643327D01*
X30702327Y-35464698D01*
X30799000Y-35231309D01*
X30799000Y-34815750D01*
X30640250Y-34657000D01*
X29591000Y-34657000D01*
X29337000Y-34657000D01*
X28287750Y-34657000D01*
X28129000Y-34815750D01*
X27868000Y-34815750D01*
X27868000Y-32344363D01*
X28142273Y-32230755D01*
X28319304Y-32053724D01*
X28383009Y-32117430D01*
X28375536Y-32154999D01*
X28375536Y-32805001D01*
X28424136Y-33049330D01*
X28562537Y-33256463D01*
X28657627Y-33320000D01*
X28637690Y-33320000D01*
X28404301Y-33416673D01*
X28225673Y-33595302D01*
X28129000Y-33828691D01*
X28129000Y-34244250D01*
X28287750Y-34403000D01*
X29337000Y-34403000D01*
X29337000Y-34383000D01*
X29591000Y-34383000D01*
X29591000Y-34403000D01*
X30640250Y-34403000D01*
X30799000Y-34244250D01*
X30799000Y-33828691D01*
X30702327Y-33595302D01*
X30523699Y-33416673D01*
X30290310Y-33320000D01*
X30270373Y-33320000D01*
X30365463Y-33256463D01*
X30503864Y-33049330D01*
X30541500Y-32860120D01*
X31089600Y-33408221D01*
X31089601Y-35476579D01*
X29724368Y-36841812D01*
X29681953Y-36870153D01*
X29569675Y-37038189D01*
X29540200Y-37186369D01*
X29540200Y-37186372D01*
X29530249Y-37236400D01*
X29540200Y-37286428D01*
X29540201Y-39007178D01*
X28970781Y-39576599D01*
X28928366Y-39604940D01*
X28883086Y-39672706D01*
X28620764Y-39935028D01*
X28530755Y-39717727D01*
X28142273Y-39329245D01*
X27634698Y-39119000D01*
X27085302Y-39119000D01*
X26577727Y-39329245D01*
X26189245Y-39717727D01*
X25979000Y-40225302D01*
X25979000Y-40774698D01*
X26189245Y-41282273D01*
X26577727Y-41670755D01*
X26852001Y-41784363D01*
X26852000Y-45715637D01*
X26577727Y-45829245D01*
X26189245Y-46217727D01*
X25979000Y-46725302D01*
X25979000Y-47274698D01*
X26189245Y-47782273D01*
X26577727Y-48170755D01*
X27085302Y-48381000D01*
X27634698Y-48381000D01*
X28142273Y-48170755D01*
X28530755Y-47782273D01*
X28741000Y-47274698D01*
X28741000Y-46725302D01*
X28530755Y-46217727D01*
X28142273Y-45829245D01*
X27868000Y-45715637D01*
X27868000Y-44236750D01*
X28129000Y-44236750D01*
X28129000Y-44652309D01*
X28225673Y-44885698D01*
X28404301Y-45064327D01*
X28637690Y-45161000D01*
X29178250Y-45161000D01*
X29337000Y-45002250D01*
X29337000Y-44078000D01*
X29591000Y-44078000D01*
X29591000Y-45002250D01*
X29749750Y-45161000D01*
X30290310Y-45161000D01*
X30523699Y-45064327D01*
X30702327Y-44885698D01*
X30799000Y-44652309D01*
X30799000Y-44236750D01*
X30640250Y-44078000D01*
X29591000Y-44078000D01*
X29337000Y-44078000D01*
X28287750Y-44078000D01*
X28129000Y-44236750D01*
X27868000Y-44236750D01*
X27868000Y-41784363D01*
X28142273Y-41670755D01*
X28328804Y-41484224D01*
X28383009Y-41538430D01*
X28375536Y-41575999D01*
X28375536Y-42226001D01*
X28424136Y-42470330D01*
X28562537Y-42677463D01*
X28657627Y-42741000D01*
X28637690Y-42741000D01*
X28404301Y-42837673D01*
X28225673Y-43016302D01*
X28129000Y-43249691D01*
X28129000Y-43665250D01*
X28287750Y-43824000D01*
X29337000Y-43824000D01*
X29337000Y-43804000D01*
X29591000Y-43804000D01*
X29591000Y-43824000D01*
X30640250Y-43824000D01*
X30799000Y-43665250D01*
X30799000Y-43249691D01*
X30702327Y-43016302D01*
X30523699Y-42837673D01*
X30290310Y-42741000D01*
X30270373Y-42741000D01*
X30365463Y-42677463D01*
X30503864Y-42470330D01*
X30552464Y-42226001D01*
X30552464Y-41575999D01*
X30503864Y-41331670D01*
X30365463Y-41124537D01*
X30158330Y-40986136D01*
X29914001Y-40937536D01*
X29218957Y-40937536D01*
X29143347Y-40861926D01*
X29168801Y-40823832D01*
X29618448Y-40374186D01*
X29660860Y-40345847D01*
X29689198Y-40303436D01*
X29689201Y-40303433D01*
X29706144Y-40278076D01*
X30372035Y-39612186D01*
X30414447Y-39583847D01*
X30442786Y-39541435D01*
X30442788Y-39541433D01*
X30526725Y-39415812D01*
X30543944Y-39329245D01*
X30556200Y-39267632D01*
X30556200Y-39267628D01*
X30566151Y-39217600D01*
X30556200Y-39167572D01*
X30556200Y-38286638D01*
X30579245Y-38342273D01*
X30967727Y-38730755D01*
X31475302Y-38941000D01*
X32024698Y-38941000D01*
X32532273Y-38730755D01*
X32920755Y-38342273D01*
X33131000Y-37834698D01*
X33131000Y-37285302D01*
X32920755Y-36777727D01*
X32532273Y-36389245D01*
X32024698Y-36179000D01*
X31824020Y-36179000D01*
X31921432Y-36081588D01*
X31963847Y-36053247D01*
X32076125Y-35885212D01*
X32105600Y-35737032D01*
X32105600Y-35737028D01*
X32115551Y-35687001D01*
X32105600Y-35636974D01*
X32105600Y-33247827D01*
X32115551Y-33197799D01*
X32105600Y-33147769D01*
X32105600Y-33147768D01*
X32076125Y-32999588D01*
X32069018Y-32988951D01*
X31992188Y-32873967D01*
X31992186Y-32873965D01*
X31963847Y-32831553D01*
X31921436Y-32803215D01*
X31559221Y-32441000D01*
X32024698Y-32441000D01*
X32532273Y-32230755D01*
X32920755Y-31842273D01*
X33131000Y-31334698D01*
X33131000Y-30785302D01*
X34869000Y-30785302D01*
X34869000Y-31334698D01*
X35079245Y-31842273D01*
X35467727Y-32230755D01*
X35742001Y-32344363D01*
X35742000Y-36275637D01*
X35467727Y-36389245D01*
X35079245Y-36777727D01*
X34869000Y-37285302D01*
X34869000Y-37834698D01*
X35079245Y-38342273D01*
X35467727Y-38730755D01*
X35975302Y-38941000D01*
X36524698Y-38941000D01*
X37032273Y-38730755D01*
X37420755Y-38342273D01*
X37631000Y-37834698D01*
X37631000Y-37285302D01*
X37420755Y-36777727D01*
X37032273Y-36389245D01*
X36758000Y-36275637D01*
X36758000Y-34806750D01*
X37019000Y-34806750D01*
X37019000Y-35222309D01*
X37115673Y-35455698D01*
X37294301Y-35634327D01*
X37527690Y-35731000D01*
X38068250Y-35731000D01*
X38227000Y-35572250D01*
X38227000Y-34648000D01*
X38481000Y-34648000D01*
X38481000Y-35572250D01*
X38639750Y-35731000D01*
X39180310Y-35731000D01*
X39413699Y-35634327D01*
X39592327Y-35455698D01*
X39689000Y-35222309D01*
X39689000Y-34806750D01*
X39530250Y-34648000D01*
X38481000Y-34648000D01*
X38227000Y-34648000D01*
X37177750Y-34648000D01*
X37019000Y-34806750D01*
X36758000Y-34806750D01*
X36758000Y-32344363D01*
X37032273Y-32230755D01*
X37213804Y-32049224D01*
X37273009Y-32108429D01*
X37265536Y-32145999D01*
X37265536Y-32796001D01*
X37314136Y-33040330D01*
X37452537Y-33247463D01*
X37547627Y-33311000D01*
X37527690Y-33311000D01*
X37294301Y-33407673D01*
X37115673Y-33586302D01*
X37019000Y-33819691D01*
X37019000Y-34235250D01*
X37177750Y-34394000D01*
X38227000Y-34394000D01*
X38227000Y-34374000D01*
X38481000Y-34374000D01*
X38481000Y-34394000D01*
X39530250Y-34394000D01*
X39689000Y-34235250D01*
X39689000Y-33819691D01*
X39592327Y-33586302D01*
X39413699Y-33407673D01*
X39180310Y-33311000D01*
X39160373Y-33311000D01*
X39255463Y-33247463D01*
X39393864Y-33040330D01*
X39442464Y-32796001D01*
X39442464Y-32145999D01*
X39393864Y-31901670D01*
X39255463Y-31694537D01*
X39048330Y-31556136D01*
X38804001Y-31507536D01*
X38108956Y-31507536D01*
X37631000Y-31029580D01*
X37631000Y-30785302D01*
X37420755Y-30277727D01*
X37032273Y-29889245D01*
X36524698Y-29679000D01*
X36508000Y-29679000D01*
X36508000Y-27659434D01*
X36699826Y-27467608D01*
X36825500Y-27164202D01*
X36825500Y-26835798D01*
X36699826Y-26532392D01*
X36467608Y-26300174D01*
X36164202Y-26174500D01*
X35835798Y-26174500D01*
X35532392Y-26300174D01*
X35300174Y-26532392D01*
X35174500Y-26835798D01*
X35174500Y-27164202D01*
X35300174Y-27467608D01*
X35492000Y-27659434D01*
X35492001Y-29879190D01*
X35467727Y-29889245D01*
X35079245Y-30277727D01*
X34869000Y-30785302D01*
X33131000Y-30785302D01*
X32920755Y-30277727D01*
X32532273Y-29889245D01*
X32024698Y-29679000D01*
X31475302Y-29679000D01*
X30967727Y-29889245D01*
X30579245Y-30277727D01*
X30452572Y-30583541D01*
X29565600Y-29696570D01*
X29565600Y-27837628D01*
X29575551Y-27787600D01*
X29565600Y-27737572D01*
X29565600Y-27737568D01*
X29536125Y-27589388D01*
X29513023Y-27554813D01*
X29452188Y-27463767D01*
X29452186Y-27463765D01*
X29423847Y-27421353D01*
X29381435Y-27393015D01*
X28575000Y-26586580D01*
X28575000Y-26391026D01*
X28658301Y-26474327D01*
X28891690Y-26571000D01*
X29432250Y-26571000D01*
X29591000Y-26412250D01*
X29591000Y-25488000D01*
X29845000Y-25488000D01*
X29845000Y-26412250D01*
X30003750Y-26571000D01*
X30544310Y-26571000D01*
X30777699Y-26474327D01*
X30956327Y-26295698D01*
X31053000Y-26062309D01*
X31053000Y-25646750D01*
X30894250Y-25488000D01*
X29845000Y-25488000D01*
X29591000Y-25488000D01*
X28541750Y-25488000D01*
X28413539Y-25616211D01*
X28390835Y-25601041D01*
X27611962Y-24822168D01*
X27583621Y-24779753D01*
X27415586Y-24667475D01*
X27267406Y-24638000D01*
X27267402Y-24638000D01*
X27217374Y-24628049D01*
X27167346Y-24638000D01*
X26085800Y-24638000D01*
X26085800Y-22432535D01*
X26189245Y-22682273D01*
X26577727Y-23070755D01*
X27085302Y-23281000D01*
X27634698Y-23281000D01*
X27908972Y-23167392D01*
X28376412Y-23634832D01*
X28404753Y-23677247D01*
X28572788Y-23789525D01*
X28663670Y-23807603D01*
X28678136Y-23880330D01*
X28816537Y-24087463D01*
X28911627Y-24151000D01*
X28891690Y-24151000D01*
X28658301Y-24247673D01*
X28479673Y-24426302D01*
X28383000Y-24659691D01*
X28383000Y-25075250D01*
X28541750Y-25234000D01*
X29591000Y-25234000D01*
X29591000Y-25214000D01*
X29845000Y-25214000D01*
X29845000Y-25234000D01*
X30894250Y-25234000D01*
X31053000Y-25075250D01*
X31053000Y-24659691D01*
X30956327Y-24426302D01*
X30777699Y-24247673D01*
X30544310Y-24151000D01*
X30524373Y-24151000D01*
X30619463Y-24087463D01*
X30757864Y-23880330D01*
X30806464Y-23636001D01*
X30806464Y-22985999D01*
X30757864Y-22741670D01*
X30619463Y-22534537D01*
X30412330Y-22396136D01*
X30168001Y-22347536D01*
X29267999Y-22347536D01*
X29023670Y-22396136D01*
X28816537Y-22534537D01*
X28775049Y-22596629D01*
X28627392Y-22448972D01*
X28741000Y-22174698D01*
X28741000Y-21625302D01*
X28530755Y-21117727D01*
X28142273Y-20729245D01*
X27634698Y-20519000D01*
X27085302Y-20519000D01*
X26577727Y-20729245D01*
X26189245Y-21117727D01*
X26085800Y-21367465D01*
X26085800Y-19534750D01*
X29145000Y-19534750D01*
X29145000Y-19950309D01*
X29241673Y-20183698D01*
X29420301Y-20362327D01*
X29653690Y-20459000D01*
X30194250Y-20459000D01*
X30353000Y-20300250D01*
X30353000Y-19376000D01*
X29303750Y-19376000D01*
X29145000Y-19534750D01*
X26085800Y-19534750D01*
X26085800Y-18547691D01*
X29145000Y-18547691D01*
X29145000Y-18963250D01*
X29303750Y-19122000D01*
X30353000Y-19122000D01*
X30353000Y-19102000D01*
X30607000Y-19102000D01*
X30607000Y-19122000D01*
X30627000Y-19122000D01*
X30627000Y-19376000D01*
X30607000Y-19376000D01*
X30607000Y-20300250D01*
X30671861Y-20365111D01*
X30651245Y-20385727D01*
X30441000Y-20893302D01*
X30441000Y-21442698D01*
X30651245Y-21950273D01*
X31039727Y-22338755D01*
X31547302Y-22549000D01*
X32096698Y-22549000D01*
X32604273Y-22338755D01*
X32992755Y-21950273D01*
X33203000Y-21442698D01*
X33203000Y-20893302D01*
X34941000Y-20893302D01*
X34941000Y-21442698D01*
X35151245Y-21950273D01*
X35539727Y-22338755D01*
X36047302Y-22549000D01*
X36596698Y-22549000D01*
X37104273Y-22338755D01*
X37492755Y-21950273D01*
X37703000Y-21442698D01*
X37703000Y-20893302D01*
X37527441Y-20469467D01*
X37548301Y-20490327D01*
X37781690Y-20587000D01*
X38322250Y-20587000D01*
X38481000Y-20428250D01*
X38481000Y-19504000D01*
X37431750Y-19504000D01*
X37273000Y-19662750D01*
X37273000Y-20078309D01*
X37334987Y-20227959D01*
X37104273Y-19997245D01*
X36596698Y-19787000D01*
X36047302Y-19787000D01*
X35539727Y-19997245D01*
X35151245Y-20385727D01*
X34941000Y-20893302D01*
X33203000Y-20893302D01*
X32992755Y-20385727D01*
X32604273Y-19997245D01*
X32330000Y-19883637D01*
X32330000Y-18675691D01*
X37273000Y-18675691D01*
X37273000Y-19091250D01*
X37431750Y-19250000D01*
X38481000Y-19250000D01*
X38481000Y-19230000D01*
X38735000Y-19230000D01*
X38735000Y-19250000D01*
X39784250Y-19250000D01*
X39943000Y-19091250D01*
X39943000Y-18675691D01*
X39846327Y-18442302D01*
X39667699Y-18263673D01*
X39434310Y-18167000D01*
X39414373Y-18167000D01*
X39509463Y-18103463D01*
X39647864Y-17896330D01*
X39696464Y-17652001D01*
X39696464Y-17001999D01*
X39688991Y-16964429D01*
X40204001Y-16449419D01*
X40204000Y-20011637D01*
X39929727Y-20125245D01*
X39919197Y-20135775D01*
X39943000Y-20078309D01*
X39943000Y-19662750D01*
X39784250Y-19504000D01*
X38735000Y-19504000D01*
X38735000Y-20428250D01*
X38893750Y-20587000D01*
X39434310Y-20587000D01*
X39526755Y-20548708D01*
X39331000Y-21021302D01*
X39331000Y-21570698D01*
X39541245Y-22078273D01*
X39929727Y-22466755D01*
X40437302Y-22677000D01*
X40986698Y-22677000D01*
X41494273Y-22466755D01*
X41882755Y-22078273D01*
X42093000Y-21570698D01*
X42093000Y-21021302D01*
X43831000Y-21021302D01*
X43831000Y-21570698D01*
X44041245Y-22078273D01*
X44429727Y-22466755D01*
X44937302Y-22677000D01*
X45486698Y-22677000D01*
X45994273Y-22466755D01*
X46382755Y-22078273D01*
X46593000Y-21570698D01*
X46593000Y-21021302D01*
X46382755Y-20513727D01*
X45994273Y-20125245D01*
X45486698Y-19915000D01*
X44937302Y-19915000D01*
X44429727Y-20125245D01*
X44041245Y-20513727D01*
X43831000Y-21021302D01*
X42093000Y-21021302D01*
X41882755Y-20513727D01*
X41494273Y-20125245D01*
X41220000Y-20011637D01*
X41220000Y-16080363D01*
X41494273Y-15966755D01*
X41882755Y-15578273D01*
X42093000Y-15070698D01*
X42093000Y-14521302D01*
X43831000Y-14521302D01*
X43831000Y-15070698D01*
X44041245Y-15578273D01*
X44429727Y-15966755D01*
X44937302Y-16177000D01*
X45486698Y-16177000D01*
X45994273Y-15966755D01*
X46382755Y-15578273D01*
X46593000Y-15070698D01*
X46593000Y-14521302D01*
X46382755Y-14013727D01*
X45994273Y-13625245D01*
X45486698Y-13415000D01*
X44937302Y-13415000D01*
X44429727Y-13625245D01*
X44041245Y-14013727D01*
X43831000Y-14521302D01*
X42093000Y-14521302D01*
X41882755Y-14013727D01*
X41494273Y-13625245D01*
X41066001Y-13447849D01*
X41209699Y-13388327D01*
X41388327Y-13209698D01*
X41485000Y-12976309D01*
X41485000Y-12285750D01*
X41326250Y-12127000D01*
X40127000Y-12127000D01*
X40127000Y-13326250D01*
X40280641Y-13479891D01*
X39929727Y-13625245D01*
X39541245Y-14013727D01*
X39331000Y-14521302D01*
X39331000Y-15070698D01*
X39541245Y-15578273D01*
X39589776Y-15626804D01*
X38853044Y-16363536D01*
X38157999Y-16363536D01*
X37913670Y-16412136D01*
X37706537Y-16550537D01*
X37568136Y-16757670D01*
X37519536Y-17001999D01*
X37519536Y-17652001D01*
X37568136Y-17896330D01*
X37706537Y-18103463D01*
X37801627Y-18167000D01*
X37781690Y-18167000D01*
X37548301Y-18263673D01*
X37369673Y-18442302D01*
X37273000Y-18675691D01*
X32330000Y-18675691D01*
X32330000Y-16835798D01*
X33174500Y-16835798D01*
X33174500Y-17164202D01*
X33300174Y-17467608D01*
X33532392Y-17699826D01*
X33835798Y-17825500D01*
X34164202Y-17825500D01*
X34467608Y-17699826D01*
X34699826Y-17467608D01*
X34825500Y-17164202D01*
X34825500Y-16835798D01*
X34699826Y-16532392D01*
X34508000Y-16340566D01*
X34508000Y-14393302D01*
X34941000Y-14393302D01*
X34941000Y-14942698D01*
X35151245Y-15450273D01*
X35539727Y-15838755D01*
X36047302Y-16049000D01*
X36596698Y-16049000D01*
X37104273Y-15838755D01*
X37492755Y-15450273D01*
X37703000Y-14942698D01*
X37703000Y-14393302D01*
X37492755Y-13885727D01*
X37104273Y-13497245D01*
X36596698Y-13287000D01*
X36047302Y-13287000D01*
X35539727Y-13497245D01*
X35151245Y-13885727D01*
X34941000Y-14393302D01*
X34508000Y-14393302D01*
X34508000Y-13173164D01*
X34798761Y-13231000D01*
X35041239Y-13231000D01*
X35400312Y-13159576D01*
X35807501Y-12887501D01*
X36077755Y-12483037D01*
X36264817Y-12881358D01*
X36693076Y-13271645D01*
X37103110Y-13441476D01*
X37333000Y-13320155D01*
X37333000Y-12127000D01*
X37587000Y-12127000D01*
X37587000Y-13320155D01*
X37816890Y-13441476D01*
X38226924Y-13271645D01*
X38524864Y-13000122D01*
X38611673Y-13209698D01*
X38790301Y-13388327D01*
X39023690Y-13485000D01*
X39714250Y-13485000D01*
X39873000Y-13326250D01*
X39873000Y-12127000D01*
X37587000Y-12127000D01*
X37333000Y-12127000D01*
X37313000Y-12127000D01*
X37313000Y-11873000D01*
X37333000Y-11873000D01*
X37333000Y-10679845D01*
X37587000Y-10679845D01*
X37587000Y-11873000D01*
X39873000Y-11873000D01*
X39873000Y-10673750D01*
X40127000Y-10673750D01*
X40127000Y-11873000D01*
X41326250Y-11873000D01*
X41485000Y-11714250D01*
X41485000Y-11023691D01*
X41388327Y-10790302D01*
X41209699Y-10611673D01*
X40976310Y-10515000D01*
X40285750Y-10515000D01*
X40127000Y-10673750D01*
X39873000Y-10673750D01*
X39714250Y-10515000D01*
X39023690Y-10515000D01*
X38790301Y-10611673D01*
X38611673Y-10790302D01*
X38524864Y-10999878D01*
X38226924Y-10728355D01*
X37816890Y-10558524D01*
X37587000Y-10679845D01*
X37333000Y-10679845D01*
X37103110Y-10558524D01*
X36693076Y-10728355D01*
X36264817Y-11118642D01*
X36077755Y-11516963D01*
X35807501Y-11112499D01*
X35400312Y-10840424D01*
X35041239Y-10769000D01*
X34798761Y-10769000D01*
X34439688Y-10840424D01*
X34032499Y-11112499D01*
X33760424Y-11519688D01*
X33664884Y-12000000D01*
X33753928Y-12447652D01*
X33676166Y-12525414D01*
X33633754Y-12553753D01*
X33605415Y-12596165D01*
X33605412Y-12596168D01*
X33521475Y-12721789D01*
X33482049Y-12920000D01*
X33492001Y-12970033D01*
X33492000Y-16340566D01*
X33300174Y-16532392D01*
X33174500Y-16835798D01*
X32330000Y-16835798D01*
X32330000Y-15952363D01*
X32604273Y-15838755D01*
X32992755Y-15450273D01*
X33203000Y-14942698D01*
X33203000Y-14393302D01*
X32992755Y-13885727D01*
X32604273Y-13497245D01*
X32096698Y-13287000D01*
X31547302Y-13287000D01*
X31039727Y-13497245D01*
X30651245Y-13885727D01*
X30441000Y-14393302D01*
X30441000Y-14942698D01*
X30554608Y-15216972D01*
X30156166Y-15615414D01*
X30113754Y-15643753D01*
X30085415Y-15686165D01*
X30085412Y-15686168D01*
X30001475Y-15811789D01*
X29962049Y-16010000D01*
X29972001Y-16060032D01*
X29972001Y-16247073D01*
X29785670Y-16284136D01*
X29578537Y-16422537D01*
X29440136Y-16629670D01*
X29391536Y-16873999D01*
X29391536Y-17524001D01*
X29440136Y-17768330D01*
X29578537Y-17975463D01*
X29673627Y-18039000D01*
X29653690Y-18039000D01*
X29420301Y-18135673D01*
X29241673Y-18314302D01*
X29145000Y-18547691D01*
X26085800Y-18547691D01*
X26085800Y-16472620D01*
X29392348Y-13166073D01*
X29718761Y-13231000D01*
X29961239Y-13231000D01*
X30320312Y-13159576D01*
X30727501Y-12887501D01*
X30999576Y-12480312D01*
X31095116Y-12000000D01*
X31124884Y-12000000D01*
X31220424Y-12480312D01*
X31354367Y-12680772D01*
X31367402Y-12746301D01*
X31474066Y-12905934D01*
X31633699Y-13012598D01*
X31699228Y-13025633D01*
X31899688Y-13159576D01*
X32258761Y-13231000D01*
X32501239Y-13231000D01*
X32860312Y-13159576D01*
X33267501Y-12887501D01*
X33539576Y-12480312D01*
X33635116Y-12000000D01*
X33539576Y-11519688D01*
X33267501Y-11112499D01*
X32860312Y-10840424D01*
X32501239Y-10769000D01*
X32258761Y-10769000D01*
X31899688Y-10840424D01*
X31492499Y-11112499D01*
X31220424Y-11519688D01*
X31124884Y-12000000D01*
X31095116Y-12000000D01*
X30999576Y-11519688D01*
X30727501Y-11112499D01*
X30348000Y-10858925D01*
X30348000Y-8123627D01*
X30357951Y-8073599D01*
X30348000Y-8023571D01*
X30348000Y-8023568D01*
X30318525Y-7875388D01*
X30234588Y-7749767D01*
X30234586Y-7749765D01*
X30206247Y-7707353D01*
X30163835Y-7679014D01*
X29296413Y-6811592D01*
X29375200Y-6827264D01*
X30975200Y-6827264D01*
X31123859Y-6797694D01*
X31249886Y-6713486D01*
X31334094Y-6587459D01*
X31363664Y-6438800D01*
X31363664Y-4865190D01*
X34754200Y-4865190D01*
X34754200Y-5812410D01*
X35116685Y-6687528D01*
X35786472Y-7357315D01*
X36661590Y-7719800D01*
X37608810Y-7719800D01*
X38483928Y-7357315D01*
X39153715Y-6687528D01*
X39516200Y-5812410D01*
X39516200Y-4865190D01*
X39153715Y-3990072D01*
X38483928Y-3320285D01*
X37608810Y-2957800D01*
X36661590Y-2957800D01*
X35786472Y-3320285D01*
X35116685Y-3990072D01*
X34754200Y-4865190D01*
X31363664Y-4865190D01*
X31363664Y-4838800D01*
X31334094Y-4690141D01*
X31249886Y-4564114D01*
X31123859Y-4479906D01*
X30975200Y-4450336D01*
X29375200Y-4450336D01*
X29226541Y-4479906D01*
X29100514Y-4564114D01*
X29016306Y-4690141D01*
X28986736Y-4838800D01*
X28986736Y-6438800D01*
X29002408Y-6517587D01*
X28519519Y-6034698D01*
X28586200Y-5873715D01*
X28586200Y-5403885D01*
X28406403Y-4969817D01*
X28074183Y-4637597D01*
X27640115Y-4457800D01*
X27170285Y-4457800D01*
X26736217Y-4637597D01*
X26403997Y-4969817D01*
X26224200Y-5403885D01*
X26224200Y-5873715D01*
X26403997Y-6307783D01*
X26736217Y-6640003D01*
X27170285Y-6819800D01*
X27640115Y-6819800D01*
X27801098Y-6753119D01*
X29332001Y-8284022D01*
X29332000Y-10858924D01*
X28952499Y-11112499D01*
X28680424Y-11519688D01*
X28584884Y-12000000D01*
X28673927Y-12447652D01*
X27808000Y-13313579D01*
X27808000Y-13141075D01*
X28187501Y-12887501D01*
X28459576Y-12480312D01*
X28555116Y-12000000D01*
X28459576Y-11519688D01*
X28187501Y-11112499D01*
X27780312Y-10840424D01*
X27421239Y-10769000D01*
X27178761Y-10769000D01*
X26819688Y-10840424D01*
X26412499Y-11112499D01*
X26140424Y-11519688D01*
X26044884Y-12000000D01*
X26140424Y-12480312D01*
X26412499Y-12887501D01*
X26792001Y-13141076D01*
X26792001Y-13630588D01*
X24817178Y-15605412D01*
X24774763Y-15633753D01*
X24662485Y-15801789D01*
X24633010Y-15949969D01*
X24633010Y-15949972D01*
X24623059Y-16000000D01*
X24418001Y-16000000D01*
X24418001Y-13187088D01*
X24638761Y-13231000D01*
X24881239Y-13231000D01*
X25240312Y-13159576D01*
X25647501Y-12887501D01*
X25919576Y-12480312D01*
X26015116Y-12000000D01*
X25919576Y-11519688D01*
X25647501Y-11112499D01*
X25268000Y-10858925D01*
X25268000Y-6654991D01*
X25304183Y-6640003D01*
X25636403Y-6307783D01*
X25816200Y-5873715D01*
X25816200Y-5403885D01*
X25636403Y-4969817D01*
X25304183Y-4637597D01*
X24870115Y-4457800D01*
X24400285Y-4457800D01*
X23966217Y-4637597D01*
X23633997Y-4969817D01*
X23454200Y-5403885D01*
X23454200Y-5873715D01*
X23633997Y-6307783D01*
X23966217Y-6640003D01*
X24252001Y-6758379D01*
X24252000Y-10858924D01*
X23872499Y-11112499D01*
X23600424Y-11519688D01*
X23504884Y-12000000D01*
X23593928Y-12447652D01*
X23586167Y-12455413D01*
X23543755Y-12483752D01*
X23515416Y-12526164D01*
X23515413Y-12526167D01*
X23431476Y-12651788D01*
X23392050Y-12849999D01*
X23402002Y-12900032D01*
X23402001Y-18373778D01*
X21909000Y-19866780D01*
X21909000Y-19534750D01*
X21750250Y-19376000D01*
X20701000Y-19376000D01*
X20701000Y-20300250D01*
X20859750Y-20459000D01*
X21316780Y-20459000D01*
X21256765Y-20519015D01*
X21214353Y-20547354D01*
X21186014Y-20589766D01*
X21186011Y-20589769D01*
X21102074Y-20715390D01*
X21062648Y-20913601D01*
X21072600Y-20963634D01*
X21072599Y-27738980D01*
X19018972Y-29792608D01*
X18744698Y-29679000D01*
X18195302Y-29679000D01*
X17687727Y-29889245D01*
X17299245Y-30277727D01*
X17089000Y-30785302D01*
X15351000Y-30785302D01*
X15140755Y-30277727D01*
X14752273Y-29889245D01*
X14244698Y-29679000D01*
X13695302Y-29679000D01*
X13187727Y-29889245D01*
X12799245Y-30277727D01*
X12589000Y-30785302D01*
X481000Y-30785302D01*
X481000Y-20997302D01*
X12589000Y-20997302D01*
X12589000Y-21546698D01*
X12799245Y-22054273D01*
X13187727Y-22442755D01*
X13695302Y-22653000D01*
X14244698Y-22653000D01*
X14752273Y-22442755D01*
X15140755Y-22054273D01*
X15351000Y-21546698D01*
X15351000Y-20997302D01*
X15140755Y-20489727D01*
X14752273Y-20101245D01*
X14244698Y-19891000D01*
X13695302Y-19891000D01*
X13187727Y-20101245D01*
X12799245Y-20489727D01*
X12589000Y-20997302D01*
X481000Y-20997302D01*
X481000Y-14497302D01*
X12589000Y-14497302D01*
X12589000Y-15046698D01*
X12799245Y-15554273D01*
X13187727Y-15942755D01*
X13695302Y-16153000D01*
X14244698Y-16153000D01*
X14752273Y-15942755D01*
X15140755Y-15554273D01*
X15351000Y-15046698D01*
X15351000Y-14497302D01*
X15140755Y-13989727D01*
X14752273Y-13601245D01*
X14244698Y-13391000D01*
X13695302Y-13391000D01*
X13187727Y-13601245D01*
X12799245Y-13989727D01*
X12589000Y-14497302D01*
X481000Y-14497302D01*
X481000Y-12000000D01*
X10804884Y-12000000D01*
X10900424Y-12480312D01*
X11172499Y-12887501D01*
X11579688Y-13159576D01*
X11938761Y-13231000D01*
X12181239Y-13231000D01*
X12540312Y-13159576D01*
X12947501Y-12887501D01*
X13219576Y-12480312D01*
X13315116Y-12000000D01*
X13344884Y-12000000D01*
X13440424Y-12480312D01*
X13712499Y-12887501D01*
X14119688Y-13159576D01*
X14478761Y-13231000D01*
X14721239Y-13231000D01*
X15080312Y-13159576D01*
X15487501Y-12887501D01*
X15502599Y-12864905D01*
X15502600Y-23960566D01*
X15492648Y-24010599D01*
X15532074Y-24208810D01*
X15616011Y-24334431D01*
X15616014Y-24334434D01*
X15644353Y-24376846D01*
X15686765Y-24405185D01*
X17988546Y-26706967D01*
X17988546Y-26978248D01*
X18114220Y-27281654D01*
X18346438Y-27513872D01*
X18649844Y-27639546D01*
X18978248Y-27639546D01*
X19281654Y-27513872D01*
X19513872Y-27281654D01*
X19639546Y-26978248D01*
X19639546Y-26649844D01*
X19513872Y-26346438D01*
X19281654Y-26114220D01*
X18978248Y-25988546D01*
X18706967Y-25988546D01*
X16518599Y-23800179D01*
X16518599Y-13065303D01*
X16632001Y-13141076D01*
X16632001Y-13391967D01*
X16622049Y-13442000D01*
X16661475Y-13640211D01*
X16745412Y-13765832D01*
X16745415Y-13765835D01*
X16773754Y-13808247D01*
X16816166Y-13836586D01*
X17202608Y-14223028D01*
X17089000Y-14497302D01*
X17089000Y-15046698D01*
X17299245Y-15554273D01*
X17687727Y-15942755D01*
X17962001Y-16056363D01*
X17962000Y-19987637D01*
X17687727Y-20101245D01*
X17299245Y-20489727D01*
X17089000Y-20997302D01*
X17089000Y-21546698D01*
X17299245Y-22054273D01*
X17687727Y-22442755D01*
X18195302Y-22653000D01*
X18744698Y-22653000D01*
X19252273Y-22442755D01*
X19640755Y-22054273D01*
X19851000Y-21546698D01*
X19851000Y-20997302D01*
X19640755Y-20489727D01*
X19252273Y-20101245D01*
X18978000Y-19987637D01*
X18978000Y-19534750D01*
X19239000Y-19534750D01*
X19239000Y-19950309D01*
X19335673Y-20183698D01*
X19514301Y-20362327D01*
X19747690Y-20459000D01*
X20288250Y-20459000D01*
X20447000Y-20300250D01*
X20447000Y-19376000D01*
X19397750Y-19376000D01*
X19239000Y-19534750D01*
X18978000Y-19534750D01*
X18978000Y-16321420D01*
X19493009Y-16836429D01*
X19485536Y-16873999D01*
X19485536Y-17524001D01*
X19534136Y-17768330D01*
X19672537Y-17975463D01*
X19767627Y-18039000D01*
X19747690Y-18039000D01*
X19514301Y-18135673D01*
X19335673Y-18314302D01*
X19239000Y-18547691D01*
X19239000Y-18963250D01*
X19397750Y-19122000D01*
X20447000Y-19122000D01*
X20447000Y-19102000D01*
X20701000Y-19102000D01*
X20701000Y-19122000D01*
X21750250Y-19122000D01*
X21909000Y-18963250D01*
X21909000Y-18547691D01*
X21812327Y-18314302D01*
X21633699Y-18135673D01*
X21400310Y-18039000D01*
X21380373Y-18039000D01*
X21475463Y-17975463D01*
X21613864Y-17768330D01*
X21662464Y-17524001D01*
X21662464Y-16873999D01*
X21613864Y-16629670D01*
X21475463Y-16422537D01*
X21268330Y-16284136D01*
X21024001Y-16235536D01*
X20328956Y-16235536D01*
X19642787Y-15549367D01*
X19851000Y-15046698D01*
X19851000Y-14497302D01*
X19640755Y-13989727D01*
X19252273Y-13601245D01*
X18744698Y-13391000D01*
X18195302Y-13391000D01*
X17921028Y-13504608D01*
X17648000Y-13231580D01*
X17648000Y-13141075D01*
X18027501Y-12887501D01*
X18299576Y-12480312D01*
X18395116Y-12000000D01*
X18299576Y-11519688D01*
X18027501Y-11112499D01*
X17620312Y-10840424D01*
X17261239Y-10769000D01*
X17018761Y-10769000D01*
X16659688Y-10840424D01*
X16518599Y-10934697D01*
X16518599Y-10199821D01*
X17235820Y-9482600D01*
X19524902Y-9482600D01*
X19464423Y-9543079D01*
X19313754Y-9643753D01*
X19201476Y-9811788D01*
X19172001Y-9959968D01*
X19172001Y-10858924D01*
X18792499Y-11112499D01*
X18520424Y-11519688D01*
X18424884Y-12000000D01*
X18520424Y-12480312D01*
X18792499Y-12887501D01*
X19199688Y-13159576D01*
X19558761Y-13231000D01*
X19801239Y-13231000D01*
X20160312Y-13159576D01*
X20567501Y-12887501D01*
X20839576Y-12480312D01*
X20935116Y-12000000D01*
X20964884Y-12000000D01*
X21060424Y-12480312D01*
X21332499Y-12887501D01*
X21739688Y-13159576D01*
X22098761Y-13231000D01*
X22341239Y-13231000D01*
X22700312Y-13159576D01*
X23107501Y-12887501D01*
X23379576Y-12480312D01*
X23475116Y-12000000D01*
X23379576Y-11519688D01*
X23107501Y-11112499D01*
X22700312Y-10840424D01*
X22341239Y-10769000D01*
X22098761Y-10769000D01*
X21739688Y-10840424D01*
X21332499Y-11112499D01*
X21060424Y-11519688D01*
X20964884Y-12000000D01*
X20935116Y-12000000D01*
X20839576Y-11519688D01*
X20567501Y-11112499D01*
X20188000Y-10858925D01*
X20188000Y-10184498D01*
X20905579Y-9466921D01*
X21056247Y-9366247D01*
X21168525Y-9198212D01*
X21198000Y-9050032D01*
X21198000Y-8155790D01*
X22189035Y-7164756D01*
X22231447Y-7136417D01*
X22259786Y-7094005D01*
X22259788Y-7094003D01*
X22343725Y-6968382D01*
X22371795Y-6827264D01*
X22373200Y-6820202D01*
X22373200Y-6820198D01*
X22383151Y-6770170D01*
X22373200Y-6720142D01*
X22373200Y-6706684D01*
X22534183Y-6640003D01*
X22866403Y-6307783D01*
X23046200Y-5873715D01*
X23046200Y-5403885D01*
X22866403Y-4969817D01*
X22534183Y-4637597D01*
X22100115Y-4457800D01*
X21630285Y-4457800D01*
X21196217Y-4637597D01*
X20863997Y-4969817D01*
X20684200Y-5403885D01*
X20684200Y-5873715D01*
X20863997Y-6307783D01*
X21196217Y-6640003D01*
X21253301Y-6663648D01*
X20366168Y-7550782D01*
X20323753Y-7579123D01*
X20295413Y-7621537D01*
X20295412Y-7621538D01*
X20229756Y-7719800D01*
X20211475Y-7747159D01*
X20182000Y-7895339D01*
X20182000Y-7895342D01*
X20172049Y-7945370D01*
X20182000Y-7995398D01*
X20182001Y-8517400D01*
X17177724Y-8517400D01*
X16999999Y-8482049D01*
X16801788Y-8521475D01*
X16676167Y-8605413D01*
X15686767Y-9594813D01*
X15644352Y-9623154D01*
X15532074Y-9791190D01*
X15502599Y-9939370D01*
X15502599Y-9939373D01*
X15492648Y-9989401D01*
X15502599Y-10039429D01*
X15502599Y-11135095D01*
X15487501Y-11112499D01*
X15080312Y-10840424D01*
X14721239Y-10769000D01*
X14478761Y-10769000D01*
X14119688Y-10840424D01*
X13712499Y-11112499D01*
X13440424Y-11519688D01*
X13344884Y-12000000D01*
X13315116Y-12000000D01*
X13219576Y-11519688D01*
X12947501Y-11112499D01*
X12540312Y-10840424D01*
X12181239Y-10769000D01*
X11938761Y-10769000D01*
X11579688Y-10840424D01*
X11172499Y-11112499D01*
X10900424Y-11519688D01*
X10804884Y-12000000D01*
X481000Y-12000000D01*
X481000Y-4796658D01*
X985369Y-6014312D01*
X1985688Y-7014631D01*
X3292668Y-7556000D01*
X4707332Y-7556000D01*
X6014312Y-7014631D01*
X7014631Y-6014312D01*
X7490613Y-4865190D01*
X9754200Y-4865190D01*
X9754200Y-5812410D01*
X10116685Y-6687528D01*
X10786472Y-7357315D01*
X11661590Y-7719800D01*
X12608810Y-7719800D01*
X13483928Y-7357315D01*
X14153715Y-6687528D01*
X14516200Y-5812410D01*
X14516200Y-5403885D01*
X17914200Y-5403885D01*
X17914200Y-5873715D01*
X18093997Y-6307783D01*
X18426217Y-6640003D01*
X18860285Y-6819800D01*
X19330115Y-6819800D01*
X19764183Y-6640003D01*
X20096403Y-6307783D01*
X20276200Y-5873715D01*
X20276200Y-5403885D01*
X20096403Y-4969817D01*
X19764183Y-4637597D01*
X19330115Y-4457800D01*
X18860285Y-4457800D01*
X18426217Y-4637597D01*
X18093997Y-4969817D01*
X17914200Y-5403885D01*
X14516200Y-5403885D01*
X14516200Y-4865190D01*
X14153715Y-3990072D01*
X13483928Y-3320285D01*
X12608810Y-2957800D01*
X11661590Y-2957800D01*
X10786472Y-3320285D01*
X10116685Y-3990072D01*
X9754200Y-4865190D01*
X7490613Y-4865190D01*
X7556000Y-4707332D01*
X7556000Y-3292668D01*
X7254129Y-2563885D01*
X19299200Y-2563885D01*
X19299200Y-3033715D01*
X19478997Y-3467783D01*
X19811217Y-3800003D01*
X20245285Y-3979800D01*
X20715115Y-3979800D01*
X21149183Y-3800003D01*
X21481403Y-3467783D01*
X21661200Y-3033715D01*
X21661200Y-2563885D01*
X22069200Y-2563885D01*
X22069200Y-3033715D01*
X22248997Y-3467783D01*
X22581217Y-3800003D01*
X23015285Y-3979800D01*
X23485115Y-3979800D01*
X23919183Y-3800003D01*
X24251403Y-3467783D01*
X24431200Y-3033715D01*
X24431200Y-2563885D01*
X24839200Y-2563885D01*
X24839200Y-3033715D01*
X25018997Y-3467783D01*
X25351217Y-3800003D01*
X25785285Y-3979800D01*
X26255115Y-3979800D01*
X26689183Y-3800003D01*
X27021403Y-3467783D01*
X27201200Y-3033715D01*
X27201200Y-2563885D01*
X27609200Y-2563885D01*
X27609200Y-3033715D01*
X27788997Y-3467783D01*
X28121217Y-3800003D01*
X28555285Y-3979800D01*
X29025115Y-3979800D01*
X29459183Y-3800003D01*
X29791403Y-3467783D01*
X29971200Y-3033715D01*
X29971200Y-2563885D01*
X29791403Y-2129817D01*
X29459183Y-1797597D01*
X29025115Y-1617800D01*
X28555285Y-1617800D01*
X28121217Y-1797597D01*
X27788997Y-2129817D01*
X27609200Y-2563885D01*
X27201200Y-2563885D01*
X27021403Y-2129817D01*
X26689183Y-1797597D01*
X26255115Y-1617800D01*
X25785285Y-1617800D01*
X25351217Y-1797597D01*
X25018997Y-2129817D01*
X24839200Y-2563885D01*
X24431200Y-2563885D01*
X24251403Y-2129817D01*
X23919183Y-1797597D01*
X23485115Y-1617800D01*
X23015285Y-1617800D01*
X22581217Y-1797597D01*
X22248997Y-2129817D01*
X22069200Y-2563885D01*
X21661200Y-2563885D01*
X21481403Y-2129817D01*
X21149183Y-1797597D01*
X20715115Y-1617800D01*
X20245285Y-1617800D01*
X19811217Y-1797597D01*
X19478997Y-2129817D01*
X19299200Y-2563885D01*
X7254129Y-2563885D01*
X7014631Y-1985688D01*
X6014312Y-985369D01*
X4796658Y-481000D01*
X44203342Y-481000D01*
X42985688Y-985369D01*
X42985688Y-985369D01*
G37*
X42985688Y-985369D02*
X41985369Y-1985688D01*
X41444000Y-3292668D01*
X41444000Y-4707332D01*
X41985369Y-6014312D01*
X42985688Y-7014631D01*
X44292668Y-7556000D01*
X45707332Y-7556000D01*
X47014312Y-7014631D01*
X48014631Y-6014312D01*
X48519000Y-4796658D01*
X48519001Y-44203344D01*
X48014631Y-42985688D01*
X47014312Y-41985369D01*
X45707332Y-41444000D01*
X44292668Y-41444000D01*
X42985688Y-41985369D01*
X41985369Y-42985688D01*
X41444000Y-44292668D01*
X41444000Y-45707332D01*
X41985369Y-47014312D01*
X42985688Y-48014631D01*
X44203342Y-48519000D01*
X4796658Y-48519000D01*
X6014312Y-48014631D01*
X7014631Y-47014312D01*
X7134342Y-46725302D01*
X21479000Y-46725302D01*
X21479000Y-47274698D01*
X21689245Y-47782273D01*
X22077727Y-48170755D01*
X22585302Y-48381000D01*
X23134698Y-48381000D01*
X23642273Y-48170755D01*
X24030755Y-47782273D01*
X24241000Y-47274698D01*
X24241000Y-46725302D01*
X24030755Y-46217727D01*
X23642273Y-45829245D01*
X23134698Y-45619000D01*
X22585302Y-45619000D01*
X22077727Y-45829245D01*
X21689245Y-46217727D01*
X21479000Y-46725302D01*
X7134342Y-46725302D01*
X7556000Y-45707332D01*
X7556000Y-44292668D01*
X7014631Y-42985688D01*
X6014312Y-41985369D01*
X4707332Y-41444000D01*
X3292668Y-41444000D01*
X1985688Y-41985369D01*
X985369Y-42985688D01*
X481000Y-44203342D01*
X481000Y-40225302D01*
X21479000Y-40225302D01*
X21479000Y-40774698D01*
X21689245Y-41282273D01*
X22077727Y-41670755D01*
X22585302Y-41881000D01*
X23134698Y-41881000D01*
X23642273Y-41670755D01*
X24030755Y-41282273D01*
X24241000Y-40774698D01*
X24241000Y-40225302D01*
X24030755Y-39717727D01*
X23642273Y-39329245D01*
X23134698Y-39119000D01*
X22585302Y-39119000D01*
X22077727Y-39329245D01*
X21689245Y-39717727D01*
X21479000Y-40225302D01*
X481000Y-40225302D01*
X481000Y-37285302D01*
X12589000Y-37285302D01*
X12589000Y-37834698D01*
X12799245Y-38342273D01*
X13187727Y-38730755D01*
X13695302Y-38941000D01*
X14244698Y-38941000D01*
X14752273Y-38730755D01*
X15140755Y-38342273D01*
X15351000Y-37834698D01*
X15351000Y-37285302D01*
X15140755Y-36777727D01*
X14752273Y-36389245D01*
X14244698Y-36179000D01*
X13695302Y-36179000D01*
X13187727Y-36389245D01*
X12799245Y-36777727D01*
X12589000Y-37285302D01*
X481000Y-37285302D01*
X481000Y-30785302D01*
X12589000Y-30785302D01*
X12589000Y-31334698D01*
X12799245Y-31842273D01*
X13187727Y-32230755D01*
X13695302Y-32441000D01*
X14244698Y-32441000D01*
X14752273Y-32230755D01*
X15140755Y-31842273D01*
X15351000Y-31334698D01*
X15351000Y-30785302D01*
X17089000Y-30785302D01*
X17089000Y-31334698D01*
X17299245Y-31842273D01*
X17687727Y-32230755D01*
X17962000Y-32344363D01*
X17962001Y-36275637D01*
X17687727Y-36389245D01*
X17299245Y-36777727D01*
X17089000Y-37285302D01*
X17089000Y-37834698D01*
X17299245Y-38342273D01*
X17687727Y-38730755D01*
X18195302Y-38941000D01*
X18744698Y-38941000D01*
X19252273Y-38730755D01*
X19640755Y-38342273D01*
X19851000Y-37834698D01*
X19851000Y-37285302D01*
X21479000Y-37285302D01*
X21479000Y-37834698D01*
X21689245Y-38342273D01*
X22077727Y-38730755D01*
X22585302Y-38941000D01*
X23134698Y-38941000D01*
X23642273Y-38730755D01*
X24030755Y-38342273D01*
X24241000Y-37834698D01*
X24241000Y-37285302D01*
X24030755Y-36777727D01*
X23642273Y-36389245D01*
X23134698Y-36179000D01*
X22585302Y-36179000D01*
X22077727Y-36389245D01*
X21689245Y-36777727D01*
X21479000Y-37285302D01*
X19851000Y-37285302D01*
X19640755Y-36777727D01*
X19252273Y-36389245D01*
X18978000Y-36275637D01*
X18978000Y-34806750D01*
X19239000Y-34806750D01*
X19239000Y-35222309D01*
X19335673Y-35455698D01*
X19514301Y-35634327D01*
X19747690Y-35731000D01*
X20288250Y-35731000D01*
X20447000Y-35572250D01*
X20447000Y-34648000D01*
X20701000Y-34648000D01*
X20701000Y-35572250D01*
X20859750Y-35731000D01*
X21400310Y-35731000D01*
X21633699Y-35634327D01*
X21812327Y-35455698D01*
X21909000Y-35222309D01*
X21909000Y-34806750D01*
X21750250Y-34648000D01*
X20701000Y-34648000D01*
X20447000Y-34648000D01*
X19397750Y-34648000D01*
X19239000Y-34806750D01*
X18978000Y-34806750D01*
X18978000Y-32344363D01*
X19018972Y-32327392D01*
X19485536Y-32793956D01*
X19485536Y-32796001D01*
X19534136Y-33040330D01*
X19672537Y-33247463D01*
X19767627Y-33311000D01*
X19747690Y-33311000D01*
X19514301Y-33407673D01*
X19335673Y-33586302D01*
X19239000Y-33819691D01*
X19239000Y-34235250D01*
X19397750Y-34394000D01*
X20447000Y-34394000D01*
X20447000Y-34374000D01*
X20701000Y-34374000D01*
X20701000Y-34394000D01*
X21750250Y-34394000D01*
X21909000Y-34235250D01*
X21909000Y-33819691D01*
X21812327Y-33586302D01*
X21633699Y-33407673D01*
X21400310Y-33311000D01*
X21380373Y-33311000D01*
X21475463Y-33247463D01*
X21613864Y-33040330D01*
X21662464Y-32796001D01*
X21662464Y-32145999D01*
X21613864Y-31901670D01*
X21475463Y-31694537D01*
X21268330Y-31556136D01*
X21024001Y-31507536D01*
X20123999Y-31507536D01*
X19879670Y-31556136D01*
X19762707Y-31634287D01*
X19737392Y-31608972D01*
X19851000Y-31334698D01*
X19851000Y-30785302D01*
X19737392Y-30511028D01*
X21506744Y-28741677D01*
X21689245Y-29182273D01*
X22077727Y-29570755D01*
X22462177Y-29730000D01*
X22077727Y-29889245D01*
X21689245Y-30277727D01*
X21479000Y-30785302D01*
X21479000Y-31334698D01*
X21689245Y-31842273D01*
X22077727Y-32230755D01*
X22585302Y-32441000D01*
X23134698Y-32441000D01*
X23642273Y-32230755D01*
X24030755Y-31842273D01*
X24241000Y-31334698D01*
X24241000Y-30785302D01*
X24030755Y-30277727D01*
X23642273Y-29889245D01*
X23257823Y-29730000D01*
X23642273Y-29570755D01*
X24030755Y-29182273D01*
X24241000Y-28674698D01*
X24241000Y-28125302D01*
X24030755Y-27617727D01*
X23642273Y-27229245D01*
X23134698Y-27019000D01*
X22585302Y-27019000D01*
X22088599Y-27224742D01*
X22088599Y-23075258D01*
X22585302Y-23281000D01*
X23134698Y-23281000D01*
X23642273Y-23070755D01*
X24030755Y-22682273D01*
X24241000Y-22174698D01*
X24241000Y-21625302D01*
X24030755Y-21117727D01*
X23642273Y-20729245D01*
X23134698Y-20519000D01*
X22693620Y-20519000D01*
X24233837Y-18978784D01*
X24276248Y-18950446D01*
X24304587Y-18908034D01*
X24304589Y-18908032D01*
X24388526Y-18782411D01*
X24388526Y-18782410D01*
X24418001Y-18634231D01*
X24418001Y-18634227D01*
X24427952Y-18584199D01*
X24418001Y-18534171D01*
X24418001Y-16000000D01*
X24623059Y-16000000D01*
X24633010Y-16050028D01*
X24633011Y-28790977D01*
X24623059Y-28841010D01*
X24662485Y-29039221D01*
X24746422Y-29164842D01*
X24746425Y-29164845D01*
X24774764Y-29207257D01*
X24817176Y-29235596D01*
X26092608Y-30511029D01*
X25979000Y-30785302D01*
X25979000Y-31334698D01*
X26189245Y-31842273D01*
X26577727Y-32230755D01*
X26852001Y-32344363D01*
X26852000Y-36275637D01*
X26577727Y-36389245D01*
X26189245Y-36777727D01*
X25979000Y-37285302D01*
X25979000Y-37834698D01*
X26189245Y-38342273D01*
X26577727Y-38730755D01*
X27085302Y-38941000D01*
X27634698Y-38941000D01*
X28142273Y-38730755D01*
X28530755Y-38342273D01*
X28741000Y-37834698D01*
X28741000Y-37285302D01*
X28530755Y-36777727D01*
X28142273Y-36389245D01*
X27868000Y-36275637D01*
X27868000Y-34815750D01*
X28129000Y-34815750D01*
X28129000Y-35231309D01*
X28225673Y-35464698D01*
X28404301Y-35643327D01*
X28637690Y-35740000D01*
X29178250Y-35740000D01*
X29337000Y-35581250D01*
X29337000Y-34657000D01*
X29591000Y-34657000D01*
X29591000Y-35581250D01*
X29749750Y-35740000D01*
X30290310Y-35740000D01*
X30523699Y-35643327D01*
X30702327Y-35464698D01*
X30799000Y-35231309D01*
X30799000Y-34815750D01*
X30640250Y-34657000D01*
X29591000Y-34657000D01*
X29337000Y-34657000D01*
X28287750Y-34657000D01*
X28129000Y-34815750D01*
X27868000Y-34815750D01*
X27868000Y-32344363D01*
X28142273Y-32230755D01*
X28319304Y-32053724D01*
X28383009Y-32117430D01*
X28375536Y-32154999D01*
X28375536Y-32805001D01*
X28424136Y-33049330D01*
X28562537Y-33256463D01*
X28657627Y-33320000D01*
X28637690Y-33320000D01*
X28404301Y-33416673D01*
X28225673Y-33595302D01*
X28129000Y-33828691D01*
X28129000Y-34244250D01*
X28287750Y-34403000D01*
X29337000Y-34403000D01*
X29337000Y-34383000D01*
X29591000Y-34383000D01*
X29591000Y-34403000D01*
X30640250Y-34403000D01*
X30799000Y-34244250D01*
X30799000Y-33828691D01*
X30702327Y-33595302D01*
X30523699Y-33416673D01*
X30290310Y-33320000D01*
X30270373Y-33320000D01*
X30365463Y-33256463D01*
X30503864Y-33049330D01*
X30541500Y-32860120D01*
X31089600Y-33408221D01*
X31089601Y-35476579D01*
X29724368Y-36841812D01*
X29681953Y-36870153D01*
X29569675Y-37038189D01*
X29540200Y-37186369D01*
X29540200Y-37186372D01*
X29530249Y-37236400D01*
X29540200Y-37286428D01*
X29540201Y-39007178D01*
X28970781Y-39576599D01*
X28928366Y-39604940D01*
X28883086Y-39672706D01*
X28620764Y-39935028D01*
X28530755Y-39717727D01*
X28142273Y-39329245D01*
X27634698Y-39119000D01*
X27085302Y-39119000D01*
X26577727Y-39329245D01*
X26189245Y-39717727D01*
X25979000Y-40225302D01*
X25979000Y-40774698D01*
X26189245Y-41282273D01*
X26577727Y-41670755D01*
X26852001Y-41784363D01*
X26852000Y-45715637D01*
X26577727Y-45829245D01*
X26189245Y-46217727D01*
X25979000Y-46725302D01*
X25979000Y-47274698D01*
X26189245Y-47782273D01*
X26577727Y-48170755D01*
X27085302Y-48381000D01*
X27634698Y-48381000D01*
X28142273Y-48170755D01*
X28530755Y-47782273D01*
X28741000Y-47274698D01*
X28741000Y-46725302D01*
X28530755Y-46217727D01*
X28142273Y-45829245D01*
X27868000Y-45715637D01*
X27868000Y-44236750D01*
X28129000Y-44236750D01*
X28129000Y-44652309D01*
X28225673Y-44885698D01*
X28404301Y-45064327D01*
X28637690Y-45161000D01*
X29178250Y-45161000D01*
X29337000Y-45002250D01*
X29337000Y-44078000D01*
X29591000Y-44078000D01*
X29591000Y-45002250D01*
X29749750Y-45161000D01*
X30290310Y-45161000D01*
X30523699Y-45064327D01*
X30702327Y-44885698D01*
X30799000Y-44652309D01*
X30799000Y-44236750D01*
X30640250Y-44078000D01*
X29591000Y-44078000D01*
X29337000Y-44078000D01*
X28287750Y-44078000D01*
X28129000Y-44236750D01*
X27868000Y-44236750D01*
X27868000Y-41784363D01*
X28142273Y-41670755D01*
X28328804Y-41484224D01*
X28383009Y-41538430D01*
X28375536Y-41575999D01*
X28375536Y-42226001D01*
X28424136Y-42470330D01*
X28562537Y-42677463D01*
X28657627Y-42741000D01*
X28637690Y-42741000D01*
X28404301Y-42837673D01*
X28225673Y-43016302D01*
X28129000Y-43249691D01*
X28129000Y-43665250D01*
X28287750Y-43824000D01*
X29337000Y-43824000D01*
X29337000Y-43804000D01*
X29591000Y-43804000D01*
X29591000Y-43824000D01*
X30640250Y-43824000D01*
X30799000Y-43665250D01*
X30799000Y-43249691D01*
X30702327Y-43016302D01*
X30523699Y-42837673D01*
X30290310Y-42741000D01*
X30270373Y-42741000D01*
X30365463Y-42677463D01*
X30503864Y-42470330D01*
X30552464Y-42226001D01*
X30552464Y-41575999D01*
X30503864Y-41331670D01*
X30365463Y-41124537D01*
X30158330Y-40986136D01*
X29914001Y-40937536D01*
X29218957Y-40937536D01*
X29143347Y-40861926D01*
X29168801Y-40823832D01*
X29618448Y-40374186D01*
X29660860Y-40345847D01*
X29689198Y-40303436D01*
X29689201Y-40303433D01*
X29706144Y-40278076D01*
X30372035Y-39612186D01*
X30414447Y-39583847D01*
X30442786Y-39541435D01*
X30442788Y-39541433D01*
X30526725Y-39415812D01*
X30543944Y-39329245D01*
X30556200Y-39267632D01*
X30556200Y-39267628D01*
X30566151Y-39217600D01*
X30556200Y-39167572D01*
X30556200Y-38286638D01*
X30579245Y-38342273D01*
X30967727Y-38730755D01*
X31475302Y-38941000D01*
X32024698Y-38941000D01*
X32532273Y-38730755D01*
X32920755Y-38342273D01*
X33131000Y-37834698D01*
X33131000Y-37285302D01*
X32920755Y-36777727D01*
X32532273Y-36389245D01*
X32024698Y-36179000D01*
X31824020Y-36179000D01*
X31921432Y-36081588D01*
X31963847Y-36053247D01*
X32076125Y-35885212D01*
X32105600Y-35737032D01*
X32105600Y-35737028D01*
X32115551Y-35687001D01*
X32105600Y-35636974D01*
X32105600Y-33247827D01*
X32115551Y-33197799D01*
X32105600Y-33147769D01*
X32105600Y-33147768D01*
X32076125Y-32999588D01*
X32069018Y-32988951D01*
X31992188Y-32873967D01*
X31992186Y-32873965D01*
X31963847Y-32831553D01*
X31921436Y-32803215D01*
X31559221Y-32441000D01*
X32024698Y-32441000D01*
X32532273Y-32230755D01*
X32920755Y-31842273D01*
X33131000Y-31334698D01*
X33131000Y-30785302D01*
X34869000Y-30785302D01*
X34869000Y-31334698D01*
X35079245Y-31842273D01*
X35467727Y-32230755D01*
X35742001Y-32344363D01*
X35742000Y-36275637D01*
X35467727Y-36389245D01*
X35079245Y-36777727D01*
X34869000Y-37285302D01*
X34869000Y-37834698D01*
X35079245Y-38342273D01*
X35467727Y-38730755D01*
X35975302Y-38941000D01*
X36524698Y-38941000D01*
X37032273Y-38730755D01*
X37420755Y-38342273D01*
X37631000Y-37834698D01*
X37631000Y-37285302D01*
X37420755Y-36777727D01*
X37032273Y-36389245D01*
X36758000Y-36275637D01*
X36758000Y-34806750D01*
X37019000Y-34806750D01*
X37019000Y-35222309D01*
X37115673Y-35455698D01*
X37294301Y-35634327D01*
X37527690Y-35731000D01*
X38068250Y-35731000D01*
X38227000Y-35572250D01*
X38227000Y-34648000D01*
X38481000Y-34648000D01*
X38481000Y-35572250D01*
X38639750Y-35731000D01*
X39180310Y-35731000D01*
X39413699Y-35634327D01*
X39592327Y-35455698D01*
X39689000Y-35222309D01*
X39689000Y-34806750D01*
X39530250Y-34648000D01*
X38481000Y-34648000D01*
X38227000Y-34648000D01*
X37177750Y-34648000D01*
X37019000Y-34806750D01*
X36758000Y-34806750D01*
X36758000Y-32344363D01*
X37032273Y-32230755D01*
X37213804Y-32049224D01*
X37273009Y-32108429D01*
X37265536Y-32145999D01*
X37265536Y-32796001D01*
X37314136Y-33040330D01*
X37452537Y-33247463D01*
X37547627Y-33311000D01*
X37527690Y-33311000D01*
X37294301Y-33407673D01*
X37115673Y-33586302D01*
X37019000Y-33819691D01*
X37019000Y-34235250D01*
X37177750Y-34394000D01*
X38227000Y-34394000D01*
X38227000Y-34374000D01*
X38481000Y-34374000D01*
X38481000Y-34394000D01*
X39530250Y-34394000D01*
X39689000Y-34235250D01*
X39689000Y-33819691D01*
X39592327Y-33586302D01*
X39413699Y-33407673D01*
X39180310Y-33311000D01*
X39160373Y-33311000D01*
X39255463Y-33247463D01*
X39393864Y-33040330D01*
X39442464Y-32796001D01*
X39442464Y-32145999D01*
X39393864Y-31901670D01*
X39255463Y-31694537D01*
X39048330Y-31556136D01*
X38804001Y-31507536D01*
X38108956Y-31507536D01*
X37631000Y-31029580D01*
X37631000Y-30785302D01*
X37420755Y-30277727D01*
X37032273Y-29889245D01*
X36524698Y-29679000D01*
X36508000Y-29679000D01*
X36508000Y-27659434D01*
X36699826Y-27467608D01*
X36825500Y-27164202D01*
X36825500Y-26835798D01*
X36699826Y-26532392D01*
X36467608Y-26300174D01*
X36164202Y-26174500D01*
X35835798Y-26174500D01*
X35532392Y-26300174D01*
X35300174Y-26532392D01*
X35174500Y-26835798D01*
X35174500Y-27164202D01*
X35300174Y-27467608D01*
X35492000Y-27659434D01*
X35492001Y-29879190D01*
X35467727Y-29889245D01*
X35079245Y-30277727D01*
X34869000Y-30785302D01*
X33131000Y-30785302D01*
X32920755Y-30277727D01*
X32532273Y-29889245D01*
X32024698Y-29679000D01*
X31475302Y-29679000D01*
X30967727Y-29889245D01*
X30579245Y-30277727D01*
X30452572Y-30583541D01*
X29565600Y-29696570D01*
X29565600Y-27837628D01*
X29575551Y-27787600D01*
X29565600Y-27737572D01*
X29565600Y-27737568D01*
X29536125Y-27589388D01*
X29513023Y-27554813D01*
X29452188Y-27463767D01*
X29452186Y-27463765D01*
X29423847Y-27421353D01*
X29381435Y-27393015D01*
X28575000Y-26586580D01*
X28575000Y-26391026D01*
X28658301Y-26474327D01*
X28891690Y-26571000D01*
X29432250Y-26571000D01*
X29591000Y-26412250D01*
X29591000Y-25488000D01*
X29845000Y-25488000D01*
X29845000Y-26412250D01*
X30003750Y-26571000D01*
X30544310Y-26571000D01*
X30777699Y-26474327D01*
X30956327Y-26295698D01*
X31053000Y-26062309D01*
X31053000Y-25646750D01*
X30894250Y-25488000D01*
X29845000Y-25488000D01*
X29591000Y-25488000D01*
X28541750Y-25488000D01*
X28413539Y-25616211D01*
X28390835Y-25601041D01*
X27611962Y-24822168D01*
X27583621Y-24779753D01*
X27415586Y-24667475D01*
X27267406Y-24638000D01*
X27267402Y-24638000D01*
X27217374Y-24628049D01*
X27167346Y-24638000D01*
X26085800Y-24638000D01*
X26085800Y-22432535D01*
X26189245Y-22682273D01*
X26577727Y-23070755D01*
X27085302Y-23281000D01*
X27634698Y-23281000D01*
X27908972Y-23167392D01*
X28376412Y-23634832D01*
X28404753Y-23677247D01*
X28572788Y-23789525D01*
X28663670Y-23807603D01*
X28678136Y-23880330D01*
X28816537Y-24087463D01*
X28911627Y-24151000D01*
X28891690Y-24151000D01*
X28658301Y-24247673D01*
X28479673Y-24426302D01*
X28383000Y-24659691D01*
X28383000Y-25075250D01*
X28541750Y-25234000D01*
X29591000Y-25234000D01*
X29591000Y-25214000D01*
X29845000Y-25214000D01*
X29845000Y-25234000D01*
X30894250Y-25234000D01*
X31053000Y-25075250D01*
X31053000Y-24659691D01*
X30956327Y-24426302D01*
X30777699Y-24247673D01*
X30544310Y-24151000D01*
X30524373Y-24151000D01*
X30619463Y-24087463D01*
X30757864Y-23880330D01*
X30806464Y-23636001D01*
X30806464Y-22985999D01*
X30757864Y-22741670D01*
X30619463Y-22534537D01*
X30412330Y-22396136D01*
X30168001Y-22347536D01*
X29267999Y-22347536D01*
X29023670Y-22396136D01*
X28816537Y-22534537D01*
X28775049Y-22596629D01*
X28627392Y-22448972D01*
X28741000Y-22174698D01*
X28741000Y-21625302D01*
X28530755Y-21117727D01*
X28142273Y-20729245D01*
X27634698Y-20519000D01*
X27085302Y-20519000D01*
X26577727Y-20729245D01*
X26189245Y-21117727D01*
X26085800Y-21367465D01*
X26085800Y-19534750D01*
X29145000Y-19534750D01*
X29145000Y-19950309D01*
X29241673Y-20183698D01*
X29420301Y-20362327D01*
X29653690Y-20459000D01*
X30194250Y-20459000D01*
X30353000Y-20300250D01*
X30353000Y-19376000D01*
X29303750Y-19376000D01*
X29145000Y-19534750D01*
X26085800Y-19534750D01*
X26085800Y-18547691D01*
X29145000Y-18547691D01*
X29145000Y-18963250D01*
X29303750Y-19122000D01*
X30353000Y-19122000D01*
X30353000Y-19102000D01*
X30607000Y-19102000D01*
X30607000Y-19122000D01*
X30627000Y-19122000D01*
X30627000Y-19376000D01*
X30607000Y-19376000D01*
X30607000Y-20300250D01*
X30671861Y-20365111D01*
X30651245Y-20385727D01*
X30441000Y-20893302D01*
X30441000Y-21442698D01*
X30651245Y-21950273D01*
X31039727Y-22338755D01*
X31547302Y-22549000D01*
X32096698Y-22549000D01*
X32604273Y-22338755D01*
X32992755Y-21950273D01*
X33203000Y-21442698D01*
X33203000Y-20893302D01*
X34941000Y-20893302D01*
X34941000Y-21442698D01*
X35151245Y-21950273D01*
X35539727Y-22338755D01*
X36047302Y-22549000D01*
X36596698Y-22549000D01*
X37104273Y-22338755D01*
X37492755Y-21950273D01*
X37703000Y-21442698D01*
X37703000Y-20893302D01*
X37527441Y-20469467D01*
X37548301Y-20490327D01*
X37781690Y-20587000D01*
X38322250Y-20587000D01*
X38481000Y-20428250D01*
X38481000Y-19504000D01*
X37431750Y-19504000D01*
X37273000Y-19662750D01*
X37273000Y-20078309D01*
X37334987Y-20227959D01*
X37104273Y-19997245D01*
X36596698Y-19787000D01*
X36047302Y-19787000D01*
X35539727Y-19997245D01*
X35151245Y-20385727D01*
X34941000Y-20893302D01*
X33203000Y-20893302D01*
X32992755Y-20385727D01*
X32604273Y-19997245D01*
X32330000Y-19883637D01*
X32330000Y-18675691D01*
X37273000Y-18675691D01*
X37273000Y-19091250D01*
X37431750Y-19250000D01*
X38481000Y-19250000D01*
X38481000Y-19230000D01*
X38735000Y-19230000D01*
X38735000Y-19250000D01*
X39784250Y-19250000D01*
X39943000Y-19091250D01*
X39943000Y-18675691D01*
X39846327Y-18442302D01*
X39667699Y-18263673D01*
X39434310Y-18167000D01*
X39414373Y-18167000D01*
X39509463Y-18103463D01*
X39647864Y-17896330D01*
X39696464Y-17652001D01*
X39696464Y-17001999D01*
X39688991Y-16964429D01*
X40204001Y-16449419D01*
X40204000Y-20011637D01*
X39929727Y-20125245D01*
X39919197Y-20135775D01*
X39943000Y-20078309D01*
X39943000Y-19662750D01*
X39784250Y-19504000D01*
X38735000Y-19504000D01*
X38735000Y-20428250D01*
X38893750Y-20587000D01*
X39434310Y-20587000D01*
X39526755Y-20548708D01*
X39331000Y-21021302D01*
X39331000Y-21570698D01*
X39541245Y-22078273D01*
X39929727Y-22466755D01*
X40437302Y-22677000D01*
X40986698Y-22677000D01*
X41494273Y-22466755D01*
X41882755Y-22078273D01*
X42093000Y-21570698D01*
X42093000Y-21021302D01*
X43831000Y-21021302D01*
X43831000Y-21570698D01*
X44041245Y-22078273D01*
X44429727Y-22466755D01*
X44937302Y-22677000D01*
X45486698Y-22677000D01*
X45994273Y-22466755D01*
X46382755Y-22078273D01*
X46593000Y-21570698D01*
X46593000Y-21021302D01*
X46382755Y-20513727D01*
X45994273Y-20125245D01*
X45486698Y-19915000D01*
X44937302Y-19915000D01*
X44429727Y-20125245D01*
X44041245Y-20513727D01*
X43831000Y-21021302D01*
X42093000Y-21021302D01*
X41882755Y-20513727D01*
X41494273Y-20125245D01*
X41220000Y-20011637D01*
X41220000Y-16080363D01*
X41494273Y-15966755D01*
X41882755Y-15578273D01*
X42093000Y-15070698D01*
X42093000Y-14521302D01*
X43831000Y-14521302D01*
X43831000Y-15070698D01*
X44041245Y-15578273D01*
X44429727Y-15966755D01*
X44937302Y-16177000D01*
X45486698Y-16177000D01*
X45994273Y-15966755D01*
X46382755Y-15578273D01*
X46593000Y-15070698D01*
X46593000Y-14521302D01*
X46382755Y-14013727D01*
X45994273Y-13625245D01*
X45486698Y-13415000D01*
X44937302Y-13415000D01*
X44429727Y-13625245D01*
X44041245Y-14013727D01*
X43831000Y-14521302D01*
X42093000Y-14521302D01*
X41882755Y-14013727D01*
X41494273Y-13625245D01*
X41066001Y-13447849D01*
X41209699Y-13388327D01*
X41388327Y-13209698D01*
X41485000Y-12976309D01*
X41485000Y-12285750D01*
X41326250Y-12127000D01*
X40127000Y-12127000D01*
X40127000Y-13326250D01*
X40280641Y-13479891D01*
X39929727Y-13625245D01*
X39541245Y-14013727D01*
X39331000Y-14521302D01*
X39331000Y-15070698D01*
X39541245Y-15578273D01*
X39589776Y-15626804D01*
X38853044Y-16363536D01*
X38157999Y-16363536D01*
X37913670Y-16412136D01*
X37706537Y-16550537D01*
X37568136Y-16757670D01*
X37519536Y-17001999D01*
X37519536Y-17652001D01*
X37568136Y-17896330D01*
X37706537Y-18103463D01*
X37801627Y-18167000D01*
X37781690Y-18167000D01*
X37548301Y-18263673D01*
X37369673Y-18442302D01*
X37273000Y-18675691D01*
X32330000Y-18675691D01*
X32330000Y-16835798D01*
X33174500Y-16835798D01*
X33174500Y-17164202D01*
X33300174Y-17467608D01*
X33532392Y-17699826D01*
X33835798Y-17825500D01*
X34164202Y-17825500D01*
X34467608Y-17699826D01*
X34699826Y-17467608D01*
X34825500Y-17164202D01*
X34825500Y-16835798D01*
X34699826Y-16532392D01*
X34508000Y-16340566D01*
X34508000Y-14393302D01*
X34941000Y-14393302D01*
X34941000Y-14942698D01*
X35151245Y-15450273D01*
X35539727Y-15838755D01*
X36047302Y-16049000D01*
X36596698Y-16049000D01*
X37104273Y-15838755D01*
X37492755Y-15450273D01*
X37703000Y-14942698D01*
X37703000Y-14393302D01*
X37492755Y-13885727D01*
X37104273Y-13497245D01*
X36596698Y-13287000D01*
X36047302Y-13287000D01*
X35539727Y-13497245D01*
X35151245Y-13885727D01*
X34941000Y-14393302D01*
X34508000Y-14393302D01*
X34508000Y-13173164D01*
X34798761Y-13231000D01*
X35041239Y-13231000D01*
X35400312Y-13159576D01*
X35807501Y-12887501D01*
X36077755Y-12483037D01*
X36264817Y-12881358D01*
X36693076Y-13271645D01*
X37103110Y-13441476D01*
X37333000Y-13320155D01*
X37333000Y-12127000D01*
X37587000Y-12127000D01*
X37587000Y-13320155D01*
X37816890Y-13441476D01*
X38226924Y-13271645D01*
X38524864Y-13000122D01*
X38611673Y-13209698D01*
X38790301Y-13388327D01*
X39023690Y-13485000D01*
X39714250Y-13485000D01*
X39873000Y-13326250D01*
X39873000Y-12127000D01*
X37587000Y-12127000D01*
X37333000Y-12127000D01*
X37313000Y-12127000D01*
X37313000Y-11873000D01*
X37333000Y-11873000D01*
X37333000Y-10679845D01*
X37587000Y-10679845D01*
X37587000Y-11873000D01*
X39873000Y-11873000D01*
X39873000Y-10673750D01*
X40127000Y-10673750D01*
X40127000Y-11873000D01*
X41326250Y-11873000D01*
X41485000Y-11714250D01*
X41485000Y-11023691D01*
X41388327Y-10790302D01*
X41209699Y-10611673D01*
X40976310Y-10515000D01*
X40285750Y-10515000D01*
X40127000Y-10673750D01*
X39873000Y-10673750D01*
X39714250Y-10515000D01*
X39023690Y-10515000D01*
X38790301Y-10611673D01*
X38611673Y-10790302D01*
X38524864Y-10999878D01*
X38226924Y-10728355D01*
X37816890Y-10558524D01*
X37587000Y-10679845D01*
X37333000Y-10679845D01*
X37103110Y-10558524D01*
X36693076Y-10728355D01*
X36264817Y-11118642D01*
X36077755Y-11516963D01*
X35807501Y-11112499D01*
X35400312Y-10840424D01*
X35041239Y-10769000D01*
X34798761Y-10769000D01*
X34439688Y-10840424D01*
X34032499Y-11112499D01*
X33760424Y-11519688D01*
X33664884Y-12000000D01*
X33753928Y-12447652D01*
X33676166Y-12525414D01*
X33633754Y-12553753D01*
X33605415Y-12596165D01*
X33605412Y-12596168D01*
X33521475Y-12721789D01*
X33482049Y-12920000D01*
X33492001Y-12970033D01*
X33492000Y-16340566D01*
X33300174Y-16532392D01*
X33174500Y-16835798D01*
X32330000Y-16835798D01*
X32330000Y-15952363D01*
X32604273Y-15838755D01*
X32992755Y-15450273D01*
X33203000Y-14942698D01*
X33203000Y-14393302D01*
X32992755Y-13885727D01*
X32604273Y-13497245D01*
X32096698Y-13287000D01*
X31547302Y-13287000D01*
X31039727Y-13497245D01*
X30651245Y-13885727D01*
X30441000Y-14393302D01*
X30441000Y-14942698D01*
X30554608Y-15216972D01*
X30156166Y-15615414D01*
X30113754Y-15643753D01*
X30085415Y-15686165D01*
X30085412Y-15686168D01*
X30001475Y-15811789D01*
X29962049Y-16010000D01*
X29972001Y-16060032D01*
X29972001Y-16247073D01*
X29785670Y-16284136D01*
X29578537Y-16422537D01*
X29440136Y-16629670D01*
X29391536Y-16873999D01*
X29391536Y-17524001D01*
X29440136Y-17768330D01*
X29578537Y-17975463D01*
X29673627Y-18039000D01*
X29653690Y-18039000D01*
X29420301Y-18135673D01*
X29241673Y-18314302D01*
X29145000Y-18547691D01*
X26085800Y-18547691D01*
X26085800Y-16472620D01*
X29392348Y-13166073D01*
X29718761Y-13231000D01*
X29961239Y-13231000D01*
X30320312Y-13159576D01*
X30727501Y-12887501D01*
X30999576Y-12480312D01*
X31095116Y-12000000D01*
X31124884Y-12000000D01*
X31220424Y-12480312D01*
X31354367Y-12680772D01*
X31367402Y-12746301D01*
X31474066Y-12905934D01*
X31633699Y-13012598D01*
X31699228Y-13025633D01*
X31899688Y-13159576D01*
X32258761Y-13231000D01*
X32501239Y-13231000D01*
X32860312Y-13159576D01*
X33267501Y-12887501D01*
X33539576Y-12480312D01*
X33635116Y-12000000D01*
X33539576Y-11519688D01*
X33267501Y-11112499D01*
X32860312Y-10840424D01*
X32501239Y-10769000D01*
X32258761Y-10769000D01*
X31899688Y-10840424D01*
X31492499Y-11112499D01*
X31220424Y-11519688D01*
X31124884Y-12000000D01*
X31095116Y-12000000D01*
X30999576Y-11519688D01*
X30727501Y-11112499D01*
X30348000Y-10858925D01*
X30348000Y-8123627D01*
X30357951Y-8073599D01*
X30348000Y-8023571D01*
X30348000Y-8023568D01*
X30318525Y-7875388D01*
X30234588Y-7749767D01*
X30234586Y-7749765D01*
X30206247Y-7707353D01*
X30163835Y-7679014D01*
X29296413Y-6811592D01*
X29375200Y-6827264D01*
X30975200Y-6827264D01*
X31123859Y-6797694D01*
X31249886Y-6713486D01*
X31334094Y-6587459D01*
X31363664Y-6438800D01*
X31363664Y-4865190D01*
X34754200Y-4865190D01*
X34754200Y-5812410D01*
X35116685Y-6687528D01*
X35786472Y-7357315D01*
X36661590Y-7719800D01*
X37608810Y-7719800D01*
X38483928Y-7357315D01*
X39153715Y-6687528D01*
X39516200Y-5812410D01*
X39516200Y-4865190D01*
X39153715Y-3990072D01*
X38483928Y-3320285D01*
X37608810Y-2957800D01*
X36661590Y-2957800D01*
X35786472Y-3320285D01*
X35116685Y-3990072D01*
X34754200Y-4865190D01*
X31363664Y-4865190D01*
X31363664Y-4838800D01*
X31334094Y-4690141D01*
X31249886Y-4564114D01*
X31123859Y-4479906D01*
X30975200Y-4450336D01*
X29375200Y-4450336D01*
X29226541Y-4479906D01*
X29100514Y-4564114D01*
X29016306Y-4690141D01*
X28986736Y-4838800D01*
X28986736Y-6438800D01*
X29002408Y-6517587D01*
X28519519Y-6034698D01*
X28586200Y-5873715D01*
X28586200Y-5403885D01*
X28406403Y-4969817D01*
X28074183Y-4637597D01*
X27640115Y-4457800D01*
X27170285Y-4457800D01*
X26736217Y-4637597D01*
X26403997Y-4969817D01*
X26224200Y-5403885D01*
X26224200Y-5873715D01*
X26403997Y-6307783D01*
X26736217Y-6640003D01*
X27170285Y-6819800D01*
X27640115Y-6819800D01*
X27801098Y-6753119D01*
X29332001Y-8284022D01*
X29332000Y-10858924D01*
X28952499Y-11112499D01*
X28680424Y-11519688D01*
X28584884Y-12000000D01*
X28673927Y-12447652D01*
X27808000Y-13313579D01*
X27808000Y-13141075D01*
X28187501Y-12887501D01*
X28459576Y-12480312D01*
X28555116Y-12000000D01*
X28459576Y-11519688D01*
X28187501Y-11112499D01*
X27780312Y-10840424D01*
X27421239Y-10769000D01*
X27178761Y-10769000D01*
X26819688Y-10840424D01*
X26412499Y-11112499D01*
X26140424Y-11519688D01*
X26044884Y-12000000D01*
X26140424Y-12480312D01*
X26412499Y-12887501D01*
X26792001Y-13141076D01*
X26792001Y-13630588D01*
X24817178Y-15605412D01*
X24774763Y-15633753D01*
X24662485Y-15801789D01*
X24633010Y-15949969D01*
X24633010Y-15949972D01*
X24623059Y-16000000D01*
X24418001Y-16000000D01*
X24418001Y-13187088D01*
X24638761Y-13231000D01*
X24881239Y-13231000D01*
X25240312Y-13159576D01*
X25647501Y-12887501D01*
X25919576Y-12480312D01*
X26015116Y-12000000D01*
X25919576Y-11519688D01*
X25647501Y-11112499D01*
X25268000Y-10858925D01*
X25268000Y-6654991D01*
X25304183Y-6640003D01*
X25636403Y-6307783D01*
X25816200Y-5873715D01*
X25816200Y-5403885D01*
X25636403Y-4969817D01*
X25304183Y-4637597D01*
X24870115Y-4457800D01*
X24400285Y-4457800D01*
X23966217Y-4637597D01*
X23633997Y-4969817D01*
X23454200Y-5403885D01*
X23454200Y-5873715D01*
X23633997Y-6307783D01*
X23966217Y-6640003D01*
X24252001Y-6758379D01*
X24252000Y-10858924D01*
X23872499Y-11112499D01*
X23600424Y-11519688D01*
X23504884Y-12000000D01*
X23593928Y-12447652D01*
X23586167Y-12455413D01*
X23543755Y-12483752D01*
X23515416Y-12526164D01*
X23515413Y-12526167D01*
X23431476Y-12651788D01*
X23392050Y-12849999D01*
X23402002Y-12900032D01*
X23402001Y-18373778D01*
X21909000Y-19866780D01*
X21909000Y-19534750D01*
X21750250Y-19376000D01*
X20701000Y-19376000D01*
X20701000Y-20300250D01*
X20859750Y-20459000D01*
X21316780Y-20459000D01*
X21256765Y-20519015D01*
X21214353Y-20547354D01*
X21186014Y-20589766D01*
X21186011Y-20589769D01*
X21102074Y-20715390D01*
X21062648Y-20913601D01*
X21072600Y-20963634D01*
X21072599Y-27738980D01*
X19018972Y-29792608D01*
X18744698Y-29679000D01*
X18195302Y-29679000D01*
X17687727Y-29889245D01*
X17299245Y-30277727D01*
X17089000Y-30785302D01*
X15351000Y-30785302D01*
X15140755Y-30277727D01*
X14752273Y-29889245D01*
X14244698Y-29679000D01*
X13695302Y-29679000D01*
X13187727Y-29889245D01*
X12799245Y-30277727D01*
X12589000Y-30785302D01*
X481000Y-30785302D01*
X481000Y-20997302D01*
X12589000Y-20997302D01*
X12589000Y-21546698D01*
X12799245Y-22054273D01*
X13187727Y-22442755D01*
X13695302Y-22653000D01*
X14244698Y-22653000D01*
X14752273Y-22442755D01*
X15140755Y-22054273D01*
X15351000Y-21546698D01*
X15351000Y-20997302D01*
X15140755Y-20489727D01*
X14752273Y-20101245D01*
X14244698Y-19891000D01*
X13695302Y-19891000D01*
X13187727Y-20101245D01*
X12799245Y-20489727D01*
X12589000Y-20997302D01*
X481000Y-20997302D01*
X481000Y-14497302D01*
X12589000Y-14497302D01*
X12589000Y-15046698D01*
X12799245Y-15554273D01*
X13187727Y-15942755D01*
X13695302Y-16153000D01*
X14244698Y-16153000D01*
X14752273Y-15942755D01*
X15140755Y-15554273D01*
X15351000Y-15046698D01*
X15351000Y-14497302D01*
X15140755Y-13989727D01*
X14752273Y-13601245D01*
X14244698Y-13391000D01*
X13695302Y-13391000D01*
X13187727Y-13601245D01*
X12799245Y-13989727D01*
X12589000Y-14497302D01*
X481000Y-14497302D01*
X481000Y-12000000D01*
X10804884Y-12000000D01*
X10900424Y-12480312D01*
X11172499Y-12887501D01*
X11579688Y-13159576D01*
X11938761Y-13231000D01*
X12181239Y-13231000D01*
X12540312Y-13159576D01*
X12947501Y-12887501D01*
X13219576Y-12480312D01*
X13315116Y-12000000D01*
X13344884Y-12000000D01*
X13440424Y-12480312D01*
X13712499Y-12887501D01*
X14119688Y-13159576D01*
X14478761Y-13231000D01*
X14721239Y-13231000D01*
X15080312Y-13159576D01*
X15487501Y-12887501D01*
X15502599Y-12864905D01*
X15502600Y-23960566D01*
X15492648Y-24010599D01*
X15532074Y-24208810D01*
X15616011Y-24334431D01*
X15616014Y-24334434D01*
X15644353Y-24376846D01*
X15686765Y-24405185D01*
X17988546Y-26706967D01*
X17988546Y-26978248D01*
X18114220Y-27281654D01*
X18346438Y-27513872D01*
X18649844Y-27639546D01*
X18978248Y-27639546D01*
X19281654Y-27513872D01*
X19513872Y-27281654D01*
X19639546Y-26978248D01*
X19639546Y-26649844D01*
X19513872Y-26346438D01*
X19281654Y-26114220D01*
X18978248Y-25988546D01*
X18706967Y-25988546D01*
X16518599Y-23800179D01*
X16518599Y-13065303D01*
X16632001Y-13141076D01*
X16632001Y-13391967D01*
X16622049Y-13442000D01*
X16661475Y-13640211D01*
X16745412Y-13765832D01*
X16745415Y-13765835D01*
X16773754Y-13808247D01*
X16816166Y-13836586D01*
X17202608Y-14223028D01*
X17089000Y-14497302D01*
X17089000Y-15046698D01*
X17299245Y-15554273D01*
X17687727Y-15942755D01*
X17962001Y-16056363D01*
X17962000Y-19987637D01*
X17687727Y-20101245D01*
X17299245Y-20489727D01*
X17089000Y-20997302D01*
X17089000Y-21546698D01*
X17299245Y-22054273D01*
X17687727Y-22442755D01*
X18195302Y-22653000D01*
X18744698Y-22653000D01*
X19252273Y-22442755D01*
X19640755Y-22054273D01*
X19851000Y-21546698D01*
X19851000Y-20997302D01*
X19640755Y-20489727D01*
X19252273Y-20101245D01*
X18978000Y-19987637D01*
X18978000Y-19534750D01*
X19239000Y-19534750D01*
X19239000Y-19950309D01*
X19335673Y-20183698D01*
X19514301Y-20362327D01*
X19747690Y-20459000D01*
X20288250Y-20459000D01*
X20447000Y-20300250D01*
X20447000Y-19376000D01*
X19397750Y-19376000D01*
X19239000Y-19534750D01*
X18978000Y-19534750D01*
X18978000Y-16321420D01*
X19493009Y-16836429D01*
X19485536Y-16873999D01*
X19485536Y-17524001D01*
X19534136Y-17768330D01*
X19672537Y-17975463D01*
X19767627Y-18039000D01*
X19747690Y-18039000D01*
X19514301Y-18135673D01*
X19335673Y-18314302D01*
X19239000Y-18547691D01*
X19239000Y-18963250D01*
X19397750Y-19122000D01*
X20447000Y-19122000D01*
X20447000Y-19102000D01*
X20701000Y-19102000D01*
X20701000Y-19122000D01*
X21750250Y-19122000D01*
X21909000Y-18963250D01*
X21909000Y-18547691D01*
X21812327Y-18314302D01*
X21633699Y-18135673D01*
X21400310Y-18039000D01*
X21380373Y-18039000D01*
X21475463Y-17975463D01*
X21613864Y-17768330D01*
X21662464Y-17524001D01*
X21662464Y-16873999D01*
X21613864Y-16629670D01*
X21475463Y-16422537D01*
X21268330Y-16284136D01*
X21024001Y-16235536D01*
X20328956Y-16235536D01*
X19642787Y-15549367D01*
X19851000Y-15046698D01*
X19851000Y-14497302D01*
X19640755Y-13989727D01*
X19252273Y-13601245D01*
X18744698Y-13391000D01*
X18195302Y-13391000D01*
X17921028Y-13504608D01*
X17648000Y-13231580D01*
X17648000Y-13141075D01*
X18027501Y-12887501D01*
X18299576Y-12480312D01*
X18395116Y-12000000D01*
X18299576Y-11519688D01*
X18027501Y-11112499D01*
X17620312Y-10840424D01*
X17261239Y-10769000D01*
X17018761Y-10769000D01*
X16659688Y-10840424D01*
X16518599Y-10934697D01*
X16518599Y-10199821D01*
X17235820Y-9482600D01*
X19524902Y-9482600D01*
X19464423Y-9543079D01*
X19313754Y-9643753D01*
X19201476Y-9811788D01*
X19172001Y-9959968D01*
X19172001Y-10858924D01*
X18792499Y-11112499D01*
X18520424Y-11519688D01*
X18424884Y-12000000D01*
X18520424Y-12480312D01*
X18792499Y-12887501D01*
X19199688Y-13159576D01*
X19558761Y-13231000D01*
X19801239Y-13231000D01*
X20160312Y-13159576D01*
X20567501Y-12887501D01*
X20839576Y-12480312D01*
X20935116Y-12000000D01*
X20964884Y-12000000D01*
X21060424Y-12480312D01*
X21332499Y-12887501D01*
X21739688Y-13159576D01*
X22098761Y-13231000D01*
X22341239Y-13231000D01*
X22700312Y-13159576D01*
X23107501Y-12887501D01*
X23379576Y-12480312D01*
X23475116Y-12000000D01*
X23379576Y-11519688D01*
X23107501Y-11112499D01*
X22700312Y-10840424D01*
X22341239Y-10769000D01*
X22098761Y-10769000D01*
X21739688Y-10840424D01*
X21332499Y-11112499D01*
X21060424Y-11519688D01*
X20964884Y-12000000D01*
X20935116Y-12000000D01*
X20839576Y-11519688D01*
X20567501Y-11112499D01*
X20188000Y-10858925D01*
X20188000Y-10184498D01*
X20905579Y-9466921D01*
X21056247Y-9366247D01*
X21168525Y-9198212D01*
X21198000Y-9050032D01*
X21198000Y-8155790D01*
X22189035Y-7164756D01*
X22231447Y-7136417D01*
X22259786Y-7094005D01*
X22259788Y-7094003D01*
X22343725Y-6968382D01*
X22371795Y-6827264D01*
X22373200Y-6820202D01*
X22373200Y-6820198D01*
X22383151Y-6770170D01*
X22373200Y-6720142D01*
X22373200Y-6706684D01*
X22534183Y-6640003D01*
X22866403Y-6307783D01*
X23046200Y-5873715D01*
X23046200Y-5403885D01*
X22866403Y-4969817D01*
X22534183Y-4637597D01*
X22100115Y-4457800D01*
X21630285Y-4457800D01*
X21196217Y-4637597D01*
X20863997Y-4969817D01*
X20684200Y-5403885D01*
X20684200Y-5873715D01*
X20863997Y-6307783D01*
X21196217Y-6640003D01*
X21253301Y-6663648D01*
X20366168Y-7550782D01*
X20323753Y-7579123D01*
X20295413Y-7621537D01*
X20295412Y-7621538D01*
X20229756Y-7719800D01*
X20211475Y-7747159D01*
X20182000Y-7895339D01*
X20182000Y-7895342D01*
X20172049Y-7945370D01*
X20182000Y-7995398D01*
X20182001Y-8517400D01*
X17177724Y-8517400D01*
X16999999Y-8482049D01*
X16801788Y-8521475D01*
X16676167Y-8605413D01*
X15686767Y-9594813D01*
X15644352Y-9623154D01*
X15532074Y-9791190D01*
X15502599Y-9939370D01*
X15502599Y-9939373D01*
X15492648Y-9989401D01*
X15502599Y-10039429D01*
X15502599Y-11135095D01*
X15487501Y-11112499D01*
X15080312Y-10840424D01*
X14721239Y-10769000D01*
X14478761Y-10769000D01*
X14119688Y-10840424D01*
X13712499Y-11112499D01*
X13440424Y-11519688D01*
X13344884Y-12000000D01*
X13315116Y-12000000D01*
X13219576Y-11519688D01*
X12947501Y-11112499D01*
X12540312Y-10840424D01*
X12181239Y-10769000D01*
X11938761Y-10769000D01*
X11579688Y-10840424D01*
X11172499Y-11112499D01*
X10900424Y-11519688D01*
X10804884Y-12000000D01*
X481000Y-12000000D01*
X481000Y-4796658D01*
X985369Y-6014312D01*
X1985688Y-7014631D01*
X3292668Y-7556000D01*
X4707332Y-7556000D01*
X6014312Y-7014631D01*
X7014631Y-6014312D01*
X7490613Y-4865190D01*
X9754200Y-4865190D01*
X9754200Y-5812410D01*
X10116685Y-6687528D01*
X10786472Y-7357315D01*
X11661590Y-7719800D01*
X12608810Y-7719800D01*
X13483928Y-7357315D01*
X14153715Y-6687528D01*
X14516200Y-5812410D01*
X14516200Y-5403885D01*
X17914200Y-5403885D01*
X17914200Y-5873715D01*
X18093997Y-6307783D01*
X18426217Y-6640003D01*
X18860285Y-6819800D01*
X19330115Y-6819800D01*
X19764183Y-6640003D01*
X20096403Y-6307783D01*
X20276200Y-5873715D01*
X20276200Y-5403885D01*
X20096403Y-4969817D01*
X19764183Y-4637597D01*
X19330115Y-4457800D01*
X18860285Y-4457800D01*
X18426217Y-4637597D01*
X18093997Y-4969817D01*
X17914200Y-5403885D01*
X14516200Y-5403885D01*
X14516200Y-4865190D01*
X14153715Y-3990072D01*
X13483928Y-3320285D01*
X12608810Y-2957800D01*
X11661590Y-2957800D01*
X10786472Y-3320285D01*
X10116685Y-3990072D01*
X9754200Y-4865190D01*
X7490613Y-4865190D01*
X7556000Y-4707332D01*
X7556000Y-3292668D01*
X7254129Y-2563885D01*
X19299200Y-2563885D01*
X19299200Y-3033715D01*
X19478997Y-3467783D01*
X19811217Y-3800003D01*
X20245285Y-3979800D01*
X20715115Y-3979800D01*
X21149183Y-3800003D01*
X21481403Y-3467783D01*
X21661200Y-3033715D01*
X21661200Y-2563885D01*
X22069200Y-2563885D01*
X22069200Y-3033715D01*
X22248997Y-3467783D01*
X22581217Y-3800003D01*
X23015285Y-3979800D01*
X23485115Y-3979800D01*
X23919183Y-3800003D01*
X24251403Y-3467783D01*
X24431200Y-3033715D01*
X24431200Y-2563885D01*
X24839200Y-2563885D01*
X24839200Y-3033715D01*
X25018997Y-3467783D01*
X25351217Y-3800003D01*
X25785285Y-3979800D01*
X26255115Y-3979800D01*
X26689183Y-3800003D01*
X27021403Y-3467783D01*
X27201200Y-3033715D01*
X27201200Y-2563885D01*
X27609200Y-2563885D01*
X27609200Y-3033715D01*
X27788997Y-3467783D01*
X28121217Y-3800003D01*
X28555285Y-3979800D01*
X29025115Y-3979800D01*
X29459183Y-3800003D01*
X29791403Y-3467783D01*
X29971200Y-3033715D01*
X29971200Y-2563885D01*
X29791403Y-2129817D01*
X29459183Y-1797597D01*
X29025115Y-1617800D01*
X28555285Y-1617800D01*
X28121217Y-1797597D01*
X27788997Y-2129817D01*
X27609200Y-2563885D01*
X27201200Y-2563885D01*
X27021403Y-2129817D01*
X26689183Y-1797597D01*
X26255115Y-1617800D01*
X25785285Y-1617800D01*
X25351217Y-1797597D01*
X25018997Y-2129817D01*
X24839200Y-2563885D01*
X24431200Y-2563885D01*
X24251403Y-2129817D01*
X23919183Y-1797597D01*
X23485115Y-1617800D01*
X23015285Y-1617800D01*
X22581217Y-1797597D01*
X22248997Y-2129817D01*
X22069200Y-2563885D01*
X21661200Y-2563885D01*
X21481403Y-2129817D01*
X21149183Y-1797597D01*
X20715115Y-1617800D01*
X20245285Y-1617800D01*
X19811217Y-1797597D01*
X19478997Y-2129817D01*
X19299200Y-2563885D01*
X7254129Y-2563885D01*
X7014631Y-1985688D01*
X6014312Y-985369D01*
X4796658Y-481000D01*
X44203342Y-481000D01*
X42985688Y-985369D01*
G04 #@! TD*
M02*
