M48
;DRILL file {KiCad (5.0.2)-1} date 10/5/2019 9:24:13 AM
;FORMAT={-:-/ absolute / inch / decimal}
FMAT,2
INCH,TZ
T1C0.0250
T2C0.0394
T3C0.0433
T4C0.1250
T5C0.1260
%
G90
G05
T1
X0.7407Y-1.0557
X1.063Y-1.0236
X1.3386Y-0.6693
X1.4173Y-1.063
T2
X0.7518Y-0.222
X0.8063Y-0.1102
X0.8608Y-0.222
X0.9154Y-0.1102
X0.9699Y-0.222
X1.0244Y-0.1102
X1.0789Y-0.222
X1.1335Y-0.1102
X1.188Y-0.222
X0.4748Y-0.4724
X0.5748Y-0.4724
X0.6748Y-0.4724
X0.7748Y-0.4724
X0.8748Y-0.4724
X0.9748Y-0.4724
X1.0748Y-0.4724
X1.1748Y-0.4724
X1.2748Y-0.4724
X1.3748Y-0.4724
X1.4748Y-0.4724
X1.5748Y-0.4724
T3
X1.6028Y-0.5825
X1.6028Y-0.8384
X1.78Y-0.5825
X1.78Y-0.8384
X0.9Y-0.8622
X0.9Y-1.1181
X1.0772Y-0.8622
X1.0772Y-1.1181
X0.9Y-1.5945
X0.9Y-1.8504
X1.0772Y-1.5945
X1.0772Y-1.8504
X1.25Y-1.2228
X1.25Y-1.4787
X1.4272Y-1.2228
X1.4272Y-1.4787
X0.55Y-1.2228
X0.55Y-1.4787
X0.7272Y-1.2228
X0.7272Y-1.4787
X0.9Y-1.2228
X0.9Y-1.4787
X1.0772Y-1.2228
X1.0772Y-1.4787
X1.2528Y-0.5775
X1.2528Y-0.8334
X1.43Y-0.5775
X1.43Y-0.8334
X0.55Y-0.5816
X0.55Y-0.8375
X0.7272Y-0.5816
X0.7272Y-0.8375
T4
X0.1575Y-1.7717
X1.7717Y-1.7717
X1.7717Y-0.1575
X0.1575Y-0.1575
T5
X0.4778Y-0.2102
X1.462Y-0.2102
T0
M30
