G04 #@! TF.GenerationSoftware,KiCad,Pcbnew,(5.1.10-1-10_14)*
G04 #@! TF.CreationDate,2021-08-31T23:52:25+02:00*
G04 #@! TF.ProjectId,proc_board,70726f63-5f62-46f6-9172-642e6b696361,rev?*
G04 #@! TF.SameCoordinates,Original*
G04 #@! TF.FileFunction,Soldermask,Bot*
G04 #@! TF.FilePolarity,Negative*
%FSLAX46Y46*%
G04 Gerber Fmt 4.6, Leading zero omitted, Abs format (unit mm)*
G04 Created by KiCad (PCBNEW (5.1.10-1-10_14)) date 2021-08-31 23:52:25*
%MOMM*%
%LPD*%
G01*
G04 APERTURE LIST*
%ADD10O,1.600000X1.600000*%
%ADD11R,1.600000X1.600000*%
%ADD12O,1.700000X1.700000*%
%ADD13R,1.700000X1.700000*%
%ADD14C,1.600000*%
G04 APERTURE END LIST*
D10*
G04 #@! TO.C,U4*
X2413000Y56388000D03*
X35433000Y41148000D03*
X4953000Y56388000D03*
X32893000Y41148000D03*
X7493000Y56388000D03*
X30353000Y41148000D03*
X10033000Y56388000D03*
X27813000Y41148000D03*
X12573000Y56388000D03*
X25273000Y41148000D03*
X15113000Y56388000D03*
X22733000Y41148000D03*
X17653000Y56388000D03*
X20193000Y41148000D03*
X20193000Y56388000D03*
X17653000Y41148000D03*
X22733000Y56388000D03*
X15113000Y41148000D03*
X25273000Y56388000D03*
X12573000Y41148000D03*
X27813000Y56388000D03*
X10033000Y41148000D03*
X30353000Y56388000D03*
X7493000Y41148000D03*
X32893000Y56388000D03*
X4953000Y41148000D03*
X35433000Y56388000D03*
D11*
X2413000Y41148000D03*
G04 #@! TD*
D12*
G04 #@! TO.C,J2*
X78232000Y49022000D03*
X75692000Y49022000D03*
X73152000Y49022000D03*
X70612000Y49022000D03*
X68072000Y49022000D03*
X65532000Y49022000D03*
X62992000Y49022000D03*
X60452000Y49022000D03*
X57912000Y49022000D03*
X55372000Y49022000D03*
X52832000Y49022000D03*
X50292000Y49022000D03*
X47752000Y49022000D03*
D13*
X45212000Y49022000D03*
G04 #@! TD*
D14*
G04 #@! TO.C,C4*
X2366000Y33020000D03*
X7366000Y33020000D03*
G04 #@! TD*
G04 #@! TO.C,C3*
X64088000Y22352000D03*
X69088000Y22352000D03*
G04 #@! TD*
G04 #@! TO.C,C2*
X4906000Y51816000D03*
X9906000Y51816000D03*
G04 #@! TD*
G04 #@! TO.C,C1*
X45038000Y44450000D03*
X50038000Y44450000D03*
G04 #@! TD*
D10*
G04 #@! TO.C,U1*
X2286000Y30162500D03*
X25146000Y22542500D03*
X4826000Y30162500D03*
X22606000Y22542500D03*
X7366000Y30162500D03*
X20066000Y22542500D03*
X9906000Y30162500D03*
X17526000Y22542500D03*
X12446000Y30162500D03*
X14986000Y22542500D03*
X14986000Y30162500D03*
X12446000Y22542500D03*
X17526000Y30162500D03*
X9906000Y22542500D03*
X20066000Y30162500D03*
X7366000Y22542500D03*
X22606000Y30162500D03*
X4826000Y22542500D03*
X25146000Y30162500D03*
D11*
X2286000Y22542500D03*
G04 #@! TD*
D10*
G04 #@! TO.C,U3*
X45059001Y41453001D03*
X78079001Y33833001D03*
X47599001Y41453001D03*
X75539001Y33833001D03*
X50139001Y41453001D03*
X72999001Y33833001D03*
X52679001Y41453001D03*
X70459001Y33833001D03*
X55219001Y41453001D03*
X67919001Y33833001D03*
X57759001Y41453001D03*
X65379001Y33833001D03*
X60299001Y41453001D03*
X62839001Y33833001D03*
X62839001Y41453001D03*
X60299001Y33833001D03*
X65379001Y41453001D03*
X57759001Y33833001D03*
X67919001Y41453001D03*
X55219001Y33833001D03*
X70459001Y41453001D03*
X52679001Y33833001D03*
X72999001Y41453001D03*
X50139001Y33833001D03*
X75539001Y41453001D03*
X47599001Y33833001D03*
X78079001Y41453001D03*
D11*
X45059001Y33833001D03*
G04 #@! TD*
D10*
G04 #@! TO.C,U2*
X77978000Y14859000D03*
X29718000Y30099000D03*
X75438000Y14859000D03*
X32258000Y30099000D03*
X72898000Y14859000D03*
X34798000Y30099000D03*
X70358000Y14859000D03*
X37338000Y30099000D03*
X67818000Y14859000D03*
X39878000Y30099000D03*
X65278000Y14859000D03*
X42418000Y30099000D03*
X62738000Y14859000D03*
X44958000Y30099000D03*
X60198000Y14859000D03*
X47498000Y30099000D03*
X57658000Y14859000D03*
X50038000Y30099000D03*
X55118000Y14859000D03*
X52578000Y30099000D03*
X52578000Y14859000D03*
X55118000Y30099000D03*
X50038000Y14859000D03*
X57658000Y30099000D03*
X47498000Y14859000D03*
X60198000Y30099000D03*
X44958000Y14859000D03*
X62738000Y30099000D03*
X42418000Y14859000D03*
X65278000Y30099000D03*
X39878000Y14859000D03*
X67818000Y30099000D03*
X37338000Y14859000D03*
X70358000Y30099000D03*
X34798000Y14859000D03*
X72898000Y30099000D03*
X32258000Y14859000D03*
X75438000Y30099000D03*
X29718000Y14859000D03*
D11*
X77978000Y30099000D03*
G04 #@! TD*
D12*
G04 #@! TO.C,J1*
X17272000Y4064000D03*
X17272000Y6604000D03*
X19812000Y4064000D03*
X19812000Y6604000D03*
X22352000Y4064000D03*
X22352000Y6604000D03*
X24892000Y4064000D03*
X24892000Y6604000D03*
X27432000Y4064000D03*
X27432000Y6604000D03*
X29972000Y4064000D03*
X29972000Y6604000D03*
X32512000Y4064000D03*
X32512000Y6604000D03*
X35052000Y4064000D03*
X35052000Y6604000D03*
X37592000Y4064000D03*
X37592000Y6604000D03*
X40132000Y4064000D03*
X40132000Y6604000D03*
X42672000Y4064000D03*
X42672000Y6604000D03*
X45212000Y4064000D03*
X45212000Y6604000D03*
X47752000Y4064000D03*
X47752000Y6604000D03*
X50292000Y4064000D03*
X50292000Y6604000D03*
X52832000Y4064000D03*
X52832000Y6604000D03*
X55372000Y4064000D03*
X55372000Y6604000D03*
X57912000Y4064000D03*
X57912000Y6604000D03*
X60452000Y4064000D03*
X60452000Y6604000D03*
X62992000Y4064000D03*
X62992000Y6604000D03*
X65532000Y4064000D03*
X65532000Y6604000D03*
X68072000Y4064000D03*
X68072000Y6604000D03*
X70612000Y4064000D03*
X70612000Y6604000D03*
X73152000Y4064000D03*
X73152000Y6604000D03*
X75692000Y4064000D03*
X75692000Y6604000D03*
X78232000Y4064000D03*
D13*
X78232000Y6604000D03*
G04 #@! TD*
M02*
