G04 #@! TF.GenerationSoftware,KiCad,Pcbnew,(5.1.10-1-10_14)*
G04 #@! TF.CreationDate,2021-08-31T23:52:25+02:00*
G04 #@! TF.ProjectId,proc_board,70726f63-5f62-46f6-9172-642e6b696361,rev?*
G04 #@! TF.SameCoordinates,Original*
G04 #@! TF.FileFunction,Legend,Top*
G04 #@! TF.FilePolarity,Positive*
%FSLAX46Y46*%
G04 Gerber Fmt 4.6, Leading zero omitted, Abs format (unit mm)*
G04 Created by KiCad (PCBNEW (5.1.10-1-10_14)) date 2021-08-31 23:52:25*
%MOMM*%
%LPD*%
G01*
G04 APERTURE LIST*
%ADD10C,0.200000*%
%ADD11C,0.010000*%
%ADD12C,0.120000*%
%ADD13C,0.150000*%
G04 APERTURE END LIST*
D10*
X2238952Y43981619D02*
X2238952Y43267333D01*
X2191333Y43124476D01*
X2096095Y43029238D01*
X1953238Y42981619D01*
X1858000Y42981619D01*
X3191333Y42981619D02*
X2715142Y42981619D01*
X2715142Y43981619D01*
X4096095Y43076857D02*
X4048476Y43029238D01*
X3905619Y42981619D01*
X3810380Y42981619D01*
X3667523Y43029238D01*
X3572285Y43124476D01*
X3524666Y43219714D01*
X3477047Y43410190D01*
X3477047Y43553047D01*
X3524666Y43743523D01*
X3572285Y43838761D01*
X3667523Y43934000D01*
X3810380Y43981619D01*
X3905619Y43981619D01*
X4048476Y43934000D01*
X4096095Y43886380D01*
X4810380Y43981619D02*
X4810380Y43267333D01*
X4762761Y43124476D01*
X4667523Y43029238D01*
X4524666Y42981619D01*
X4429428Y42981619D01*
X5762761Y42981619D02*
X5286571Y42981619D01*
X5286571Y43981619D01*
X6667523Y43076857D02*
X6619904Y43029238D01*
X6477047Y42981619D01*
X6381809Y42981619D01*
X6238952Y43029238D01*
X6143714Y43124476D01*
X6096095Y43219714D01*
X6048476Y43410190D01*
X6048476Y43553047D01*
X6096095Y43743523D01*
X6143714Y43838761D01*
X6238952Y43934000D01*
X6381809Y43981619D01*
X6477047Y43981619D01*
X6619904Y43934000D01*
X6667523Y43886380D01*
X7381809Y43981619D02*
X7381809Y43267333D01*
X7334190Y43124476D01*
X7238952Y43029238D01*
X7096095Y42981619D01*
X7000857Y42981619D01*
X8334190Y42981619D02*
X7858000Y42981619D01*
X7858000Y43981619D01*
X9238952Y43076857D02*
X9191333Y43029238D01*
X9048476Y42981619D01*
X8953238Y42981619D01*
X8810380Y43029238D01*
X8715142Y43124476D01*
X8667523Y43219714D01*
X8619904Y43410190D01*
X8619904Y43553047D01*
X8667523Y43743523D01*
X8715142Y43838761D01*
X8810380Y43934000D01*
X8953238Y43981619D01*
X9048476Y43981619D01*
X9191333Y43934000D01*
X9238952Y43886380D01*
X9953238Y43981619D02*
X9953238Y43267333D01*
X9905619Y43124476D01*
X9810380Y43029238D01*
X9667523Y42981619D01*
X9572285Y42981619D01*
X10905619Y42981619D02*
X10429428Y42981619D01*
X10429428Y43981619D01*
X11810380Y43076857D02*
X11762761Y43029238D01*
X11619904Y42981619D01*
X11524666Y42981619D01*
X11381809Y43029238D01*
X11286571Y43124476D01*
X11238952Y43219714D01*
X11191333Y43410190D01*
X11191333Y43553047D01*
X11238952Y43743523D01*
X11286571Y43838761D01*
X11381809Y43934000D01*
X11524666Y43981619D01*
X11619904Y43981619D01*
X11762761Y43934000D01*
X11810380Y43886380D01*
X43324571Y51264428D02*
X43324571Y52764428D01*
X43895999Y52764428D01*
X44038857Y52693000D01*
X44110285Y52621571D01*
X44181714Y52478714D01*
X44181714Y52264428D01*
X44110285Y52121571D01*
X44038857Y52050142D01*
X43895999Y51978714D01*
X43324571Y51978714D01*
X45681714Y51264428D02*
X45181714Y51978714D01*
X44824571Y51264428D02*
X44824571Y52764428D01*
X45395999Y52764428D01*
X45538857Y52693000D01*
X45610285Y52621571D01*
X45681714Y52478714D01*
X45681714Y52264428D01*
X45610285Y52121571D01*
X45538857Y52050142D01*
X45395999Y51978714D01*
X44824571Y51978714D01*
X46610285Y52764428D02*
X46895999Y52764428D01*
X47038857Y52693000D01*
X47181714Y52550142D01*
X47253142Y52264428D01*
X47253142Y51764428D01*
X47181714Y51478714D01*
X47038857Y51335857D01*
X46895999Y51264428D01*
X46610285Y51264428D01*
X46467428Y51335857D01*
X46324571Y51478714D01*
X46253142Y51764428D01*
X46253142Y52264428D01*
X46324571Y52550142D01*
X46467428Y52693000D01*
X46610285Y52764428D01*
X48753142Y51407285D02*
X48681714Y51335857D01*
X48467428Y51264428D01*
X48324571Y51264428D01*
X48110285Y51335857D01*
X47967428Y51478714D01*
X47895999Y51621571D01*
X47824571Y51907285D01*
X47824571Y52121571D01*
X47895999Y52407285D01*
X47967428Y52550142D01*
X48110285Y52693000D01*
X48324571Y52764428D01*
X48467428Y52764428D01*
X48681714Y52693000D01*
X48753142Y52621571D01*
X49395999Y52050142D02*
X49895999Y52050142D01*
X50110285Y51264428D02*
X49395999Y51264428D01*
X49395999Y52764428D01*
X50110285Y52764428D01*
X50681714Y51335857D02*
X50895999Y51264428D01*
X51253142Y51264428D01*
X51396000Y51335857D01*
X51467428Y51407285D01*
X51538857Y51550142D01*
X51538857Y51693000D01*
X51467428Y51835857D01*
X51396000Y51907285D01*
X51253142Y51978714D01*
X50967428Y52050142D01*
X50824571Y52121571D01*
X50753142Y52193000D01*
X50681714Y52335857D01*
X50681714Y52478714D01*
X50753142Y52621571D01*
X50824571Y52693000D01*
X50967428Y52764428D01*
X51324571Y52764428D01*
X51538857Y52693000D01*
X52110285Y51335857D02*
X52324571Y51264428D01*
X52681714Y51264428D01*
X52824571Y51335857D01*
X52895999Y51407285D01*
X52967428Y51550142D01*
X52967428Y51693000D01*
X52895999Y51835857D01*
X52824571Y51907285D01*
X52681714Y51978714D01*
X52395999Y52050142D01*
X52253142Y52121571D01*
X52181714Y52193000D01*
X52110285Y52335857D01*
X52110285Y52478714D01*
X52181714Y52621571D01*
X52253142Y52693000D01*
X52395999Y52764428D01*
X52753142Y52764428D01*
X52967428Y52693000D01*
X53896000Y52764428D02*
X54181714Y52764428D01*
X54324571Y52693000D01*
X54467428Y52550142D01*
X54538857Y52264428D01*
X54538857Y51764428D01*
X54467428Y51478714D01*
X54324571Y51335857D01*
X54181714Y51264428D01*
X53896000Y51264428D01*
X53753142Y51335857D01*
X53610285Y51478714D01*
X53538857Y51764428D01*
X53538857Y52264428D01*
X53610285Y52550142D01*
X53753142Y52693000D01*
X53896000Y52764428D01*
X56038857Y51264428D02*
X55538857Y51978714D01*
X55181714Y51264428D02*
X55181714Y52764428D01*
X55753142Y52764428D01*
X55895999Y52693000D01*
X55967428Y52621571D01*
X56038857Y52478714D01*
X56038857Y52264428D01*
X55967428Y52121571D01*
X55895999Y52050142D01*
X55753142Y51978714D01*
X55181714Y51978714D01*
X58324571Y52050142D02*
X58538857Y51978714D01*
X58610285Y51907285D01*
X58681714Y51764428D01*
X58681714Y51550142D01*
X58610285Y51407285D01*
X58538857Y51335857D01*
X58396000Y51264428D01*
X57824571Y51264428D01*
X57824571Y52764428D01*
X58324571Y52764428D01*
X58467428Y52693000D01*
X58538857Y52621571D01*
X58610285Y52478714D01*
X58610285Y52335857D01*
X58538857Y52193000D01*
X58467428Y52121571D01*
X58324571Y52050142D01*
X57824571Y52050142D01*
X59610285Y52764428D02*
X59896000Y52764428D01*
X60038857Y52693000D01*
X60181714Y52550142D01*
X60253142Y52264428D01*
X60253142Y51764428D01*
X60181714Y51478714D01*
X60038857Y51335857D01*
X59896000Y51264428D01*
X59610285Y51264428D01*
X59467428Y51335857D01*
X59324571Y51478714D01*
X59253142Y51764428D01*
X59253142Y52264428D01*
X59324571Y52550142D01*
X59467428Y52693000D01*
X59610285Y52764428D01*
X60824571Y51693000D02*
X61538857Y51693000D01*
X60681714Y51264428D02*
X61181714Y52764428D01*
X61681714Y51264428D01*
X63038857Y51264428D02*
X62538857Y51978714D01*
X62181714Y51264428D02*
X62181714Y52764428D01*
X62753142Y52764428D01*
X62896000Y52693000D01*
X62967428Y52621571D01*
X63038857Y52478714D01*
X63038857Y52264428D01*
X62967428Y52121571D01*
X62896000Y52050142D01*
X62753142Y51978714D01*
X62181714Y51978714D01*
X63681714Y51264428D02*
X63681714Y52764428D01*
X64038857Y52764428D01*
X64253142Y52693000D01*
X64396000Y52550142D01*
X64467428Y52407285D01*
X64538857Y52121571D01*
X64538857Y51907285D01*
X64467428Y51621571D01*
X64396000Y51478714D01*
X64253142Y51335857D01*
X64038857Y51264428D01*
X63681714Y51264428D01*
X66110285Y52764428D02*
X66610285Y51264428D01*
X67110285Y52764428D01*
X68396000Y51264428D02*
X67538857Y51264428D01*
X67967428Y51264428D02*
X67967428Y52764428D01*
X67824571Y52550142D01*
X67681714Y52407285D01*
X67538857Y52335857D01*
X69038857Y51407285D02*
X69110285Y51335857D01*
X69038857Y51264428D01*
X68967428Y51335857D01*
X69038857Y51407285D01*
X69038857Y51264428D01*
X70538857Y51264428D02*
X69681714Y51264428D01*
X70110285Y51264428D02*
X70110285Y52764428D01*
X69967428Y52550142D01*
X69824571Y52407285D01*
X69681714Y52335857D01*
D11*
G04 #@! TO.C,G\u002A\u002A\u002A*
G36*
X49323625Y55823341D02*
G01*
X48877787Y55367483D01*
X48780228Y55268090D01*
X48689328Y55176169D01*
X48607520Y55094130D01*
X48537239Y55024385D01*
X48480919Y54969343D01*
X48440994Y54931414D01*
X48419899Y54913009D01*
X48417412Y54911625D01*
X48415388Y54927291D01*
X48413483Y54973449D01*
X48411706Y55048842D01*
X48410066Y55152213D01*
X48408571Y55282304D01*
X48407230Y55437859D01*
X48406052Y55617620D01*
X48405046Y55820329D01*
X48404220Y56044730D01*
X48403583Y56289565D01*
X48403144Y56553576D01*
X48402911Y56835507D01*
X48402875Y57007125D01*
X48402875Y59102625D01*
X49323625Y59102625D01*
X49323625Y55823341D01*
G37*
X49323625Y55823341D02*
X48877787Y55367483D01*
X48780228Y55268090D01*
X48689328Y55176169D01*
X48607520Y55094130D01*
X48537239Y55024385D01*
X48480919Y54969343D01*
X48440994Y54931414D01*
X48419899Y54913009D01*
X48417412Y54911625D01*
X48415388Y54927291D01*
X48413483Y54973449D01*
X48411706Y55048842D01*
X48410066Y55152213D01*
X48408571Y55282304D01*
X48407230Y55437859D01*
X48406052Y55617620D01*
X48405046Y55820329D01*
X48404220Y56044730D01*
X48403583Y56289565D01*
X48403144Y56553576D01*
X48402911Y56835507D01*
X48402875Y57007125D01*
X48402875Y59102625D01*
X49323625Y59102625D01*
X49323625Y55823341D01*
G36*
X67818000Y57745313D02*
G01*
X66460757Y56388000D01*
X67818000Y55030688D01*
X69175242Y53673375D01*
X68532340Y53673388D01*
X67889437Y53673400D01*
X66532125Y55018794D01*
X66358999Y55190499D01*
X66192202Y55356122D01*
X66033117Y55514280D01*
X65883128Y55663587D01*
X65743620Y55802660D01*
X65615975Y55930115D01*
X65501579Y56044567D01*
X65401814Y56144632D01*
X65318066Y56228926D01*
X65251717Y56296064D01*
X65204152Y56344663D01*
X65176755Y56373338D01*
X65170280Y56380911D01*
X65180760Y56393998D01*
X65212457Y56428020D01*
X65264001Y56481597D01*
X65334023Y56553352D01*
X65421153Y56641903D01*
X65524022Y56745873D01*
X65641261Y56863882D01*
X65771499Y56994552D01*
X65913368Y57136502D01*
X66065497Y57288354D01*
X66226517Y57448730D01*
X66395059Y57616248D01*
X66529999Y57750130D01*
X67894250Y59102625D01*
X69175242Y59102625D01*
X67818000Y57745313D01*
G37*
X67818000Y57745313D02*
X66460757Y56388000D01*
X67818000Y55030688D01*
X69175242Y53673375D01*
X68532340Y53673388D01*
X67889437Y53673400D01*
X66532125Y55018794D01*
X66358999Y55190499D01*
X66192202Y55356122D01*
X66033117Y55514280D01*
X65883128Y55663587D01*
X65743620Y55802660D01*
X65615975Y55930115D01*
X65501579Y56044567D01*
X65401814Y56144632D01*
X65318066Y56228926D01*
X65251717Y56296064D01*
X65204152Y56344663D01*
X65176755Y56373338D01*
X65170280Y56380911D01*
X65180760Y56393998D01*
X65212457Y56428020D01*
X65264001Y56481597D01*
X65334023Y56553352D01*
X65421153Y56641903D01*
X65524022Y56745873D01*
X65641261Y56863882D01*
X65771499Y56994552D01*
X65913368Y57136502D01*
X66065497Y57288354D01*
X66226517Y57448730D01*
X66395059Y57616248D01*
X66529999Y57750130D01*
X67894250Y59102625D01*
X69175242Y59102625D01*
X67818000Y57745313D01*
G36*
X64899318Y59093742D02*
G01*
X65035525Y59086154D01*
X65152123Y59073496D01*
X65190687Y59067127D01*
X65472769Y58998718D01*
X65746499Y58901094D01*
X66008471Y58775935D01*
X66255280Y58624922D01*
X66483522Y58449736D01*
X66537219Y58402417D01*
X66645502Y58304315D01*
X66568969Y58225927D01*
X66534090Y58191020D01*
X66480991Y58138916D01*
X66414475Y58074280D01*
X66339347Y58001776D01*
X66260411Y57926068D01*
X66242604Y57909057D01*
X65992772Y57670576D01*
X65909229Y57746201D01*
X65737222Y57881146D01*
X65545673Y57993888D01*
X65339646Y58082285D01*
X65124208Y58144198D01*
X64904423Y58177485D01*
X64885093Y58178970D01*
X64630994Y58182935D01*
X64389785Y58158112D01*
X64161779Y58104610D01*
X63947290Y58022541D01*
X63746632Y57912016D01*
X63560119Y57773145D01*
X63452570Y57673706D01*
X63291717Y57491255D01*
X63156403Y57291882D01*
X63048311Y57078472D01*
X62969122Y56853909D01*
X62964450Y56836903D01*
X62949310Y56778104D01*
X62938314Y56726432D01*
X62930811Y56674887D01*
X62926147Y56616469D01*
X62923672Y56544177D01*
X62922733Y56451009D01*
X62922634Y56388000D01*
X62923005Y56280291D01*
X62924550Y56197325D01*
X62927924Y56132104D01*
X62933777Y56077626D01*
X62942762Y56026890D01*
X62955531Y55972895D01*
X62964450Y55939098D01*
X63010860Y55795609D01*
X63072887Y55645810D01*
X63144653Y55502641D01*
X63215552Y55385958D01*
X63316639Y55254543D01*
X63439603Y55122730D01*
X63576275Y54997946D01*
X63718487Y54887619D01*
X63858070Y54799177D01*
X63865125Y54795304D01*
X64003495Y54729701D01*
X64155960Y54674154D01*
X64312915Y54631290D01*
X64464756Y54603739D01*
X64600440Y54594125D01*
X64703705Y54594125D01*
X65229622Y54245849D01*
X65344969Y54169203D01*
X65451737Y54097757D01*
X65547082Y54033450D01*
X65628160Y53978224D01*
X65692128Y53934018D01*
X65736142Y53902775D01*
X65757359Y53886433D01*
X65758863Y53884693D01*
X65746250Y53873887D01*
X65708405Y53856895D01*
X65650841Y53835455D01*
X65579071Y53811305D01*
X65498608Y53786182D01*
X65414966Y53761824D01*
X65333658Y53739968D01*
X65260196Y53722351D01*
X65214500Y53713133D01*
X65134149Y53702128D01*
X65031527Y53693032D01*
X64914383Y53686062D01*
X64790468Y53681430D01*
X64667534Y53679353D01*
X64553331Y53680046D01*
X64455611Y53683723D01*
X64385334Y53690143D01*
X64178319Y53725822D01*
X63984226Y53775012D01*
X63792984Y53840877D01*
X63594523Y53926580D01*
X63523812Y53960701D01*
X63263078Y54106419D01*
X63024227Y54275051D01*
X62807644Y54466213D01*
X62613714Y54679525D01*
X62442821Y54914604D01*
X62295349Y55171070D01*
X62286101Y55189438D01*
X62166457Y55460986D01*
X62078353Y55733367D01*
X62021581Y56007528D01*
X61995931Y56284419D01*
X61997211Y56499125D01*
X62026320Y56795436D01*
X62084709Y57079483D01*
X62172394Y57351301D01*
X62289389Y57610923D01*
X62435709Y57858380D01*
X62611368Y58093707D01*
X62789895Y58290448D01*
X63006702Y58487418D01*
X63242729Y58659792D01*
X63495716Y58806355D01*
X63763404Y58925893D01*
X64043533Y59017191D01*
X64218627Y59058311D01*
X64326673Y59074925D01*
X64457179Y59086852D01*
X64601732Y59094015D01*
X64751916Y59096337D01*
X64899318Y59093742D01*
G37*
X64899318Y59093742D02*
X65035525Y59086154D01*
X65152123Y59073496D01*
X65190687Y59067127D01*
X65472769Y58998718D01*
X65746499Y58901094D01*
X66008471Y58775935D01*
X66255280Y58624922D01*
X66483522Y58449736D01*
X66537219Y58402417D01*
X66645502Y58304315D01*
X66568969Y58225927D01*
X66534090Y58191020D01*
X66480991Y58138916D01*
X66414475Y58074280D01*
X66339347Y58001776D01*
X66260411Y57926068D01*
X66242604Y57909057D01*
X65992772Y57670576D01*
X65909229Y57746201D01*
X65737222Y57881146D01*
X65545673Y57993888D01*
X65339646Y58082285D01*
X65124208Y58144198D01*
X64904423Y58177485D01*
X64885093Y58178970D01*
X64630994Y58182935D01*
X64389785Y58158112D01*
X64161779Y58104610D01*
X63947290Y58022541D01*
X63746632Y57912016D01*
X63560119Y57773145D01*
X63452570Y57673706D01*
X63291717Y57491255D01*
X63156403Y57291882D01*
X63048311Y57078472D01*
X62969122Y56853909D01*
X62964450Y56836903D01*
X62949310Y56778104D01*
X62938314Y56726432D01*
X62930811Y56674887D01*
X62926147Y56616469D01*
X62923672Y56544177D01*
X62922733Y56451009D01*
X62922634Y56388000D01*
X62923005Y56280291D01*
X62924550Y56197325D01*
X62927924Y56132104D01*
X62933777Y56077626D01*
X62942762Y56026890D01*
X62955531Y55972895D01*
X62964450Y55939098D01*
X63010860Y55795609D01*
X63072887Y55645810D01*
X63144653Y55502641D01*
X63215552Y55385958D01*
X63316639Y55254543D01*
X63439603Y55122730D01*
X63576275Y54997946D01*
X63718487Y54887619D01*
X63858070Y54799177D01*
X63865125Y54795304D01*
X64003495Y54729701D01*
X64155960Y54674154D01*
X64312915Y54631290D01*
X64464756Y54603739D01*
X64600440Y54594125D01*
X64703705Y54594125D01*
X65229622Y54245849D01*
X65344969Y54169203D01*
X65451737Y54097757D01*
X65547082Y54033450D01*
X65628160Y53978224D01*
X65692128Y53934018D01*
X65736142Y53902775D01*
X65757359Y53886433D01*
X65758863Y53884693D01*
X65746250Y53873887D01*
X65708405Y53856895D01*
X65650841Y53835455D01*
X65579071Y53811305D01*
X65498608Y53786182D01*
X65414966Y53761824D01*
X65333658Y53739968D01*
X65260196Y53722351D01*
X65214500Y53713133D01*
X65134149Y53702128D01*
X65031527Y53693032D01*
X64914383Y53686062D01*
X64790468Y53681430D01*
X64667534Y53679353D01*
X64553331Y53680046D01*
X64455611Y53683723D01*
X64385334Y53690143D01*
X64178319Y53725822D01*
X63984226Y53775012D01*
X63792984Y53840877D01*
X63594523Y53926580D01*
X63523812Y53960701D01*
X63263078Y54106419D01*
X63024227Y54275051D01*
X62807644Y54466213D01*
X62613714Y54679525D01*
X62442821Y54914604D01*
X62295349Y55171070D01*
X62286101Y55189438D01*
X62166457Y55460986D01*
X62078353Y55733367D01*
X62021581Y56007528D01*
X61995931Y56284419D01*
X61997211Y56499125D01*
X62026320Y56795436D01*
X62084709Y57079483D01*
X62172394Y57351301D01*
X62289389Y57610923D01*
X62435709Y57858380D01*
X62611368Y58093707D01*
X62789895Y58290448D01*
X63006702Y58487418D01*
X63242729Y58659792D01*
X63495716Y58806355D01*
X63763404Y58925893D01*
X64043533Y59017191D01*
X64218627Y59058311D01*
X64326673Y59074925D01*
X64457179Y59086852D01*
X64601732Y59094015D01*
X64751916Y59096337D01*
X64899318Y59093742D01*
G36*
X56455468Y59075469D02*
G01*
X56471205Y59061255D01*
X56509229Y59027008D01*
X56568213Y58973920D01*
X56646832Y58903183D01*
X56743760Y58815990D01*
X56857671Y58713534D01*
X56987239Y58597006D01*
X57131138Y58467599D01*
X57288044Y58326505D01*
X57456628Y58174917D01*
X57635567Y58014027D01*
X57823534Y57845027D01*
X58019203Y57669109D01*
X58221249Y57487467D01*
X58261250Y57451506D01*
X60031312Y55860235D01*
X60035356Y57481430D01*
X60039399Y59102625D01*
X60944125Y59102625D01*
X60944125Y56388000D01*
X60944102Y56097003D01*
X60944035Y55814688D01*
X60943926Y55542683D01*
X60943779Y55282611D01*
X60943594Y55036098D01*
X60943375Y54804768D01*
X60943123Y54590248D01*
X60942842Y54394162D01*
X60942533Y54218135D01*
X60942200Y54063792D01*
X60941843Y53932759D01*
X60941467Y53826660D01*
X60941072Y53747121D01*
X60940662Y53695766D01*
X60940239Y53674221D01*
X60940156Y53673632D01*
X60928112Y53684086D01*
X60893719Y53714637D01*
X60838238Y53764154D01*
X60762929Y53831506D01*
X60669053Y53915561D01*
X60557871Y54015190D01*
X60430644Y54129261D01*
X60288634Y54256642D01*
X60133100Y54396204D01*
X59965304Y54546816D01*
X59786506Y54707345D01*
X59597969Y54876663D01*
X59400951Y55053636D01*
X59196716Y55237135D01*
X59070875Y55350220D01*
X58855442Y55543817D01*
X58641938Y55735666D01*
X58431996Y55924297D01*
X58227253Y56108242D01*
X58029344Y56286031D01*
X57839906Y56456195D01*
X57660572Y56617266D01*
X57492979Y56767776D01*
X57338763Y56906253D01*
X57199559Y57031231D01*
X57077003Y57141240D01*
X56972730Y57234812D01*
X56888375Y57310476D01*
X56825575Y57366765D01*
X56813035Y57377995D01*
X56420509Y57729438D01*
X56420129Y58418799D01*
X56419750Y59108159D01*
X56455468Y59075469D01*
G37*
X56455468Y59075469D02*
X56471205Y59061255D01*
X56509229Y59027008D01*
X56568213Y58973920D01*
X56646832Y58903183D01*
X56743760Y58815990D01*
X56857671Y58713534D01*
X56987239Y58597006D01*
X57131138Y58467599D01*
X57288044Y58326505D01*
X57456628Y58174917D01*
X57635567Y58014027D01*
X57823534Y57845027D01*
X58019203Y57669109D01*
X58221249Y57487467D01*
X58261250Y57451506D01*
X60031312Y55860235D01*
X60035356Y57481430D01*
X60039399Y59102625D01*
X60944125Y59102625D01*
X60944125Y56388000D01*
X60944102Y56097003D01*
X60944035Y55814688D01*
X60943926Y55542683D01*
X60943779Y55282611D01*
X60943594Y55036098D01*
X60943375Y54804768D01*
X60943123Y54590248D01*
X60942842Y54394162D01*
X60942533Y54218135D01*
X60942200Y54063792D01*
X60941843Y53932759D01*
X60941467Y53826660D01*
X60941072Y53747121D01*
X60940662Y53695766D01*
X60940239Y53674221D01*
X60940156Y53673632D01*
X60928112Y53684086D01*
X60893719Y53714637D01*
X60838238Y53764154D01*
X60762929Y53831506D01*
X60669053Y53915561D01*
X60557871Y54015190D01*
X60430644Y54129261D01*
X60288634Y54256642D01*
X60133100Y54396204D01*
X59965304Y54546816D01*
X59786506Y54707345D01*
X59597969Y54876663D01*
X59400951Y55053636D01*
X59196716Y55237135D01*
X59070875Y55350220D01*
X58855442Y55543817D01*
X58641938Y55735666D01*
X58431996Y55924297D01*
X58227253Y56108242D01*
X58029344Y56286031D01*
X57839906Y56456195D01*
X57660572Y56617266D01*
X57492979Y56767776D01*
X57338763Y56906253D01*
X57199559Y57031231D01*
X57077003Y57141240D01*
X56972730Y57234812D01*
X56888375Y57310476D01*
X56825575Y57366765D01*
X56813035Y57377995D01*
X56420509Y57729438D01*
X56420129Y58418799D01*
X56419750Y59108159D01*
X56455468Y59075469D01*
G36*
X58146321Y54136220D02*
G01*
X58201940Y54027140D01*
X58252592Y53927185D01*
X58296536Y53839839D01*
X58332031Y53768588D01*
X58357334Y53716917D01*
X58370706Y53688310D01*
X58372375Y53683783D01*
X58357128Y53681246D01*
X58313904Y53678933D01*
X58246472Y53676921D01*
X58158605Y53675288D01*
X58054074Y53674112D01*
X57936649Y53673472D01*
X57868214Y53673375D01*
X57364053Y53673375D01*
X57138000Y54125813D01*
X56911947Y54578250D01*
X57920267Y54578250D01*
X58146321Y54136220D01*
G37*
X58146321Y54136220D02*
X58201940Y54027140D01*
X58252592Y53927185D01*
X58296536Y53839839D01*
X58332031Y53768588D01*
X58357334Y53716917D01*
X58370706Y53688310D01*
X58372375Y53683783D01*
X58357128Y53681246D01*
X58313904Y53678933D01*
X58246472Y53676921D01*
X58158605Y53675288D01*
X58054074Y53674112D01*
X57936649Y53673472D01*
X57868214Y53673375D01*
X57364053Y53673375D01*
X57138000Y54125813D01*
X56911947Y54578250D01*
X57920267Y54578250D01*
X58146321Y54136220D01*
G36*
X56563731Y57308727D02*
G01*
X56675783Y57084823D01*
X56783840Y56868748D01*
X56887055Y56662205D01*
X56984581Y56466894D01*
X57075570Y56284517D01*
X57159177Y56116775D01*
X57234554Y55965369D01*
X57300855Y55832000D01*
X57357232Y55718369D01*
X57402838Y55626177D01*
X57436827Y55557126D01*
X57458353Y55512917D01*
X57466567Y55495251D01*
X57466624Y55495032D01*
X57451594Y55492141D01*
X57408562Y55489503D01*
X57341278Y55487207D01*
X57253489Y55485340D01*
X57148944Y55483990D01*
X57031391Y55483245D01*
X56959478Y55483125D01*
X56451457Y55483125D01*
X56058647Y56268938D01*
X55985281Y56415418D01*
X55916088Y56553012D01*
X55852372Y56679163D01*
X55795440Y56791312D01*
X55746596Y56886902D01*
X55707144Y56963376D01*
X55678391Y57018176D01*
X55661642Y57048744D01*
X55657824Y57054410D01*
X55649822Y57040460D01*
X55628491Y56999861D01*
X55594711Y56934354D01*
X55549365Y56845682D01*
X55493335Y56735588D01*
X55427503Y56605812D01*
X55352751Y56458098D01*
X55269960Y56294187D01*
X55180013Y56115822D01*
X55083792Y55924745D01*
X54982178Y55722698D01*
X54876053Y55511422D01*
X54801937Y55363722D01*
X53954063Y53673375D01*
X52943106Y53673375D01*
X54302410Y56391946D01*
X55661714Y59110516D01*
X56563731Y57308727D01*
G37*
X56563731Y57308727D02*
X56675783Y57084823D01*
X56783840Y56868748D01*
X56887055Y56662205D01*
X56984581Y56466894D01*
X57075570Y56284517D01*
X57159177Y56116775D01*
X57234554Y55965369D01*
X57300855Y55832000D01*
X57357232Y55718369D01*
X57402838Y55626177D01*
X57436827Y55557126D01*
X57458353Y55512917D01*
X57466567Y55495251D01*
X57466624Y55495032D01*
X57451594Y55492141D01*
X57408562Y55489503D01*
X57341278Y55487207D01*
X57253489Y55485340D01*
X57148944Y55483990D01*
X57031391Y55483245D01*
X56959478Y55483125D01*
X56451457Y55483125D01*
X56058647Y56268938D01*
X55985281Y56415418D01*
X55916088Y56553012D01*
X55852372Y56679163D01*
X55795440Y56791312D01*
X55746596Y56886902D01*
X55707144Y56963376D01*
X55678391Y57018176D01*
X55661642Y57048744D01*
X55657824Y57054410D01*
X55649822Y57040460D01*
X55628491Y56999861D01*
X55594711Y56934354D01*
X55549365Y56845682D01*
X55493335Y56735588D01*
X55427503Y56605812D01*
X55352751Y56458098D01*
X55269960Y56294187D01*
X55180013Y56115822D01*
X55083792Y55924745D01*
X54982178Y55722698D01*
X54876053Y55511422D01*
X54801937Y55363722D01*
X53954063Y53673375D01*
X52943106Y53673375D01*
X54302410Y56391946D01*
X55661714Y59110516D01*
X56563731Y57308727D01*
G36*
X52038250Y53673375D02*
G01*
X48416119Y53673375D01*
X48857966Y54125538D01*
X49299812Y54577700D01*
X52038250Y54578250D01*
X52038250Y53673375D01*
G37*
X52038250Y53673375D02*
X48416119Y53673375D01*
X48857966Y54125538D01*
X49299812Y54577700D01*
X52038250Y54578250D01*
X52038250Y53673375D01*
G36*
X44553291Y59102562D02*
G01*
X44813399Y59102525D01*
X45043908Y59102367D01*
X45246968Y59101981D01*
X45424730Y59101259D01*
X45579346Y59100093D01*
X45712965Y59098375D01*
X45827740Y59095999D01*
X45925820Y59092856D01*
X46009356Y59088840D01*
X46080500Y59083841D01*
X46141401Y59077753D01*
X46194211Y59070469D01*
X46241081Y59061880D01*
X46284162Y59051879D01*
X46325603Y59040358D01*
X46367557Y59027211D01*
X46412173Y59012328D01*
X46421716Y59009096D01*
X46629999Y58922185D01*
X46826309Y58808043D01*
X47007772Y58669668D01*
X47171511Y58510059D01*
X47314652Y58332214D01*
X47434320Y58139132D01*
X47527637Y57933811D01*
X47567354Y57814466D01*
X47618202Y57585642D01*
X47640357Y57352746D01*
X47634171Y57120007D01*
X47599995Y56891651D01*
X47538183Y56671907D01*
X47456095Y56478761D01*
X47340638Y56283222D01*
X47199567Y56101794D01*
X47036646Y55937771D01*
X46855636Y55794447D01*
X46660302Y55675116D01*
X46454406Y55583071D01*
X46418035Y55570173D01*
X46367847Y55553436D01*
X46320695Y55538990D01*
X46273890Y55526668D01*
X46224744Y55516300D01*
X46170569Y55507719D01*
X46108677Y55500757D01*
X46036378Y55495245D01*
X45950985Y55491014D01*
X45849810Y55487897D01*
X45730163Y55485725D01*
X45589357Y55484331D01*
X45424703Y55483545D01*
X45233513Y55483199D01*
X45027358Y55483125D01*
X44021375Y55483125D01*
X44021375Y53673375D01*
X43116500Y53673375D01*
X43116500Y56387038D01*
X45997812Y56395938D01*
X46102145Y56431422D01*
X46250280Y56497991D01*
X46387578Y56591673D01*
X46508810Y56708332D01*
X46594388Y56821026D01*
X46668764Y56963771D01*
X46714522Y57116644D01*
X46731458Y57275604D01*
X46719368Y57436607D01*
X46678045Y57595611D01*
X46638466Y57689750D01*
X46588925Y57770971D01*
X46519011Y57858190D01*
X46436575Y57943541D01*
X46349469Y58019158D01*
X46265545Y58077171D01*
X46235937Y58093054D01*
X46197489Y58111672D01*
X46163006Y58127661D01*
X46129830Y58141238D01*
X46095303Y58152618D01*
X46056768Y58162016D01*
X46011567Y58169648D01*
X45957043Y58175730D01*
X45890538Y58180478D01*
X45809394Y58184106D01*
X45710953Y58186831D01*
X45592559Y58188869D01*
X45451552Y58190434D01*
X45285277Y58191742D01*
X45091074Y58193010D01*
X44996521Y58193608D01*
X44011105Y58199874D01*
X43559938Y58651250D01*
X43108772Y59102625D01*
X44553291Y59102562D01*
G37*
X44553291Y59102562D02*
X44813399Y59102525D01*
X45043908Y59102367D01*
X45246968Y59101981D01*
X45424730Y59101259D01*
X45579346Y59100093D01*
X45712965Y59098375D01*
X45827740Y59095999D01*
X45925820Y59092856D01*
X46009356Y59088840D01*
X46080500Y59083841D01*
X46141401Y59077753D01*
X46194211Y59070469D01*
X46241081Y59061880D01*
X46284162Y59051879D01*
X46325603Y59040358D01*
X46367557Y59027211D01*
X46412173Y59012328D01*
X46421716Y59009096D01*
X46629999Y58922185D01*
X46826309Y58808043D01*
X47007772Y58669668D01*
X47171511Y58510059D01*
X47314652Y58332214D01*
X47434320Y58139132D01*
X47527637Y57933811D01*
X47567354Y57814466D01*
X47618202Y57585642D01*
X47640357Y57352746D01*
X47634171Y57120007D01*
X47599995Y56891651D01*
X47538183Y56671907D01*
X47456095Y56478761D01*
X47340638Y56283222D01*
X47199567Y56101794D01*
X47036646Y55937771D01*
X46855636Y55794447D01*
X46660302Y55675116D01*
X46454406Y55583071D01*
X46418035Y55570173D01*
X46367847Y55553436D01*
X46320695Y55538990D01*
X46273890Y55526668D01*
X46224744Y55516300D01*
X46170569Y55507719D01*
X46108677Y55500757D01*
X46036378Y55495245D01*
X45950985Y55491014D01*
X45849810Y55487897D01*
X45730163Y55485725D01*
X45589357Y55484331D01*
X45424703Y55483545D01*
X45233513Y55483199D01*
X45027358Y55483125D01*
X44021375Y55483125D01*
X44021375Y53673375D01*
X43116500Y53673375D01*
X43116500Y56387038D01*
X45997812Y56395938D01*
X46102145Y56431422D01*
X46250280Y56497991D01*
X46387578Y56591673D01*
X46508810Y56708332D01*
X46594388Y56821026D01*
X46668764Y56963771D01*
X46714522Y57116644D01*
X46731458Y57275604D01*
X46719368Y57436607D01*
X46678045Y57595611D01*
X46638466Y57689750D01*
X46588925Y57770971D01*
X46519011Y57858190D01*
X46436575Y57943541D01*
X46349469Y58019158D01*
X46265545Y58077171D01*
X46235937Y58093054D01*
X46197489Y58111672D01*
X46163006Y58127661D01*
X46129830Y58141238D01*
X46095303Y58152618D01*
X46056768Y58162016D01*
X46011567Y58169648D01*
X45957043Y58175730D01*
X45890538Y58180478D01*
X45809394Y58184106D01*
X45710953Y58186831D01*
X45592559Y58188869D01*
X45451552Y58190434D01*
X45285277Y58191742D01*
X45091074Y58193010D01*
X44996521Y58193608D01*
X44011105Y58199874D01*
X43559938Y58651250D01*
X43108772Y59102625D01*
X44553291Y59102562D01*
D12*
G04 #@! TO.C,U4*
X1023000Y57718000D02*
X1023000Y39818000D01*
X36823000Y57718000D02*
X1023000Y57718000D01*
X36823000Y39818000D02*
X36823000Y57718000D01*
X1023000Y39818000D02*
X36823000Y39818000D01*
X1083000Y55228000D02*
X1083000Y49768000D01*
X36763000Y55228000D02*
X1083000Y55228000D01*
X36763000Y42308000D02*
X36763000Y55228000D01*
X1083000Y42308000D02*
X36763000Y42308000D01*
X1083000Y47768000D02*
X1083000Y42308000D01*
X1083000Y49768000D02*
G75*
G02*
X1083000Y47768000I0J-1000000D01*
G01*
G04 #@! TO.C,J2*
X43882000Y49022000D02*
X43882000Y50352000D01*
X43882000Y50352000D02*
X45212000Y50352000D01*
X46482000Y50352000D02*
X79562000Y50352000D01*
X79562000Y47692000D02*
X79562000Y50352000D01*
X46482000Y47692000D02*
X79562000Y47692000D01*
X46482000Y47692000D02*
X46482000Y50352000D01*
G04 #@! TO.C,C4*
X2596000Y34075000D02*
X2596000Y34090000D01*
X2596000Y31950000D02*
X2596000Y31965000D01*
X7136000Y34075000D02*
X7136000Y34090000D01*
X7136000Y31950000D02*
X7136000Y31965000D01*
X7136000Y34090000D02*
X2596000Y34090000D01*
X7136000Y31950000D02*
X2596000Y31950000D01*
G04 #@! TO.C,C3*
X64318000Y23407000D02*
X64318000Y23422000D01*
X64318000Y21282000D02*
X64318000Y21297000D01*
X68858000Y23407000D02*
X68858000Y23422000D01*
X68858000Y21282000D02*
X68858000Y21297000D01*
X68858000Y23422000D02*
X64318000Y23422000D01*
X68858000Y21282000D02*
X64318000Y21282000D01*
G04 #@! TO.C,C2*
X5136000Y52871000D02*
X5136000Y52886000D01*
X5136000Y50746000D02*
X5136000Y50761000D01*
X9676000Y52871000D02*
X9676000Y52886000D01*
X9676000Y50746000D02*
X9676000Y50761000D01*
X9676000Y52886000D02*
X5136000Y52886000D01*
X9676000Y50746000D02*
X5136000Y50746000D01*
G04 #@! TO.C,C1*
X45268000Y45505000D02*
X45268000Y45520000D01*
X45268000Y43380000D02*
X45268000Y43395000D01*
X49808000Y45505000D02*
X49808000Y45520000D01*
X49808000Y43380000D02*
X49808000Y43395000D01*
X49808000Y45520000D02*
X45268000Y45520000D01*
X49808000Y43380000D02*
X45268000Y43380000D01*
G04 #@! TO.C,U1*
X896000Y31492500D02*
X896000Y21212500D01*
X26536000Y31492500D02*
X896000Y31492500D01*
X26536000Y21212500D02*
X26536000Y31492500D01*
X896000Y21212500D02*
X26536000Y21212500D01*
X956000Y29002500D02*
X956000Y27352500D01*
X26476000Y29002500D02*
X956000Y29002500D01*
X26476000Y23702500D02*
X26476000Y29002500D01*
X956000Y23702500D02*
X26476000Y23702500D01*
X956000Y25352500D02*
X956000Y23702500D01*
X956000Y27352500D02*
G75*
G02*
X956000Y25352500I0J-1000000D01*
G01*
G04 #@! TO.C,U3*
X43729001Y36643001D02*
X43729001Y34993001D01*
X43729001Y34993001D02*
X79409001Y34993001D01*
X79409001Y34993001D02*
X79409001Y40293001D01*
X79409001Y40293001D02*
X43729001Y40293001D01*
X43729001Y40293001D02*
X43729001Y38643001D01*
X43669001Y32503001D02*
X79469001Y32503001D01*
X79469001Y32503001D02*
X79469001Y42783001D01*
X79469001Y42783001D02*
X43669001Y42783001D01*
X43669001Y42783001D02*
X43669001Y32503001D01*
X43729001Y38643001D02*
G75*
G02*
X43729001Y36643001I0J-1000000D01*
G01*
G04 #@! TO.C,U2*
X79308000Y23479000D02*
X79308000Y28939000D01*
X79308000Y28939000D02*
X28388000Y28939000D01*
X28388000Y28939000D02*
X28388000Y16019000D01*
X28388000Y16019000D02*
X79308000Y16019000D01*
X79308000Y16019000D02*
X79308000Y21479000D01*
X79368000Y31429000D02*
X28328000Y31429000D01*
X28328000Y31429000D02*
X28328000Y13529000D01*
X28328000Y13529000D02*
X79368000Y13529000D01*
X79368000Y13529000D02*
X79368000Y31429000D01*
X79308000Y21479000D02*
G75*
G02*
X79308000Y23479000I0J1000000D01*
G01*
G04 #@! TO.C,J1*
X79562000Y2624000D02*
X15942000Y2624000D01*
X15942000Y2624000D02*
X15942000Y-36000D01*
X15942000Y-36000D02*
X79562000Y-36000D01*
X79562000Y-36000D02*
X79562000Y2624000D01*
X78612000Y-36000D02*
X78612000Y-6036000D01*
X78612000Y-6036000D02*
X77852000Y-6036000D01*
X77852000Y-6036000D02*
X77852000Y-36000D01*
X78552000Y-36000D02*
X78552000Y-6036000D01*
X78432000Y-36000D02*
X78432000Y-6036000D01*
X78312000Y-36000D02*
X78312000Y-6036000D01*
X78192000Y-36000D02*
X78192000Y-6036000D01*
X78072000Y-36000D02*
X78072000Y-6036000D01*
X77952000Y-36000D02*
X77952000Y-6036000D01*
X78612000Y3021071D02*
X78612000Y2624000D01*
X77852000Y3021071D02*
X77852000Y2624000D01*
X78612000Y5494000D02*
X78612000Y5106929D01*
X77852000Y5494000D02*
X77852000Y5106929D01*
X76962000Y2624000D02*
X76962000Y-36000D01*
X76072000Y-36000D02*
X76072000Y-6036000D01*
X76072000Y-6036000D02*
X75312000Y-6036000D01*
X75312000Y-6036000D02*
X75312000Y-36000D01*
X76072000Y3021071D02*
X76072000Y2624000D01*
X75312000Y3021071D02*
X75312000Y2624000D01*
X76072000Y5561071D02*
X76072000Y5106929D01*
X75312000Y5561071D02*
X75312000Y5106929D01*
X74422000Y2624000D02*
X74422000Y-36000D01*
X73532000Y-36000D02*
X73532000Y-6036000D01*
X73532000Y-6036000D02*
X72772000Y-6036000D01*
X72772000Y-6036000D02*
X72772000Y-36000D01*
X73532000Y3021071D02*
X73532000Y2624000D01*
X72772000Y3021071D02*
X72772000Y2624000D01*
X73532000Y5561071D02*
X73532000Y5106929D01*
X72772000Y5561071D02*
X72772000Y5106929D01*
X71882000Y2624000D02*
X71882000Y-36000D01*
X70992000Y-36000D02*
X70992000Y-6036000D01*
X70992000Y-6036000D02*
X70232000Y-6036000D01*
X70232000Y-6036000D02*
X70232000Y-36000D01*
X70992000Y3021071D02*
X70992000Y2624000D01*
X70232000Y3021071D02*
X70232000Y2624000D01*
X70992000Y5561071D02*
X70992000Y5106929D01*
X70232000Y5561071D02*
X70232000Y5106929D01*
X69342000Y2624000D02*
X69342000Y-36000D01*
X68452000Y-36000D02*
X68452000Y-6036000D01*
X68452000Y-6036000D02*
X67692000Y-6036000D01*
X67692000Y-6036000D02*
X67692000Y-36000D01*
X68452000Y3021071D02*
X68452000Y2624000D01*
X67692000Y3021071D02*
X67692000Y2624000D01*
X68452000Y5561071D02*
X68452000Y5106929D01*
X67692000Y5561071D02*
X67692000Y5106929D01*
X66802000Y2624000D02*
X66802000Y-36000D01*
X65912000Y-36000D02*
X65912000Y-6036000D01*
X65912000Y-6036000D02*
X65152000Y-6036000D01*
X65152000Y-6036000D02*
X65152000Y-36000D01*
X65912000Y3021071D02*
X65912000Y2624000D01*
X65152000Y3021071D02*
X65152000Y2624000D01*
X65912000Y5561071D02*
X65912000Y5106929D01*
X65152000Y5561071D02*
X65152000Y5106929D01*
X64262000Y2624000D02*
X64262000Y-36000D01*
X63372000Y-36000D02*
X63372000Y-6036000D01*
X63372000Y-6036000D02*
X62612000Y-6036000D01*
X62612000Y-6036000D02*
X62612000Y-36000D01*
X63372000Y3021071D02*
X63372000Y2624000D01*
X62612000Y3021071D02*
X62612000Y2624000D01*
X63372000Y5561071D02*
X63372000Y5106929D01*
X62612000Y5561071D02*
X62612000Y5106929D01*
X61722000Y2624000D02*
X61722000Y-36000D01*
X60832000Y-36000D02*
X60832000Y-6036000D01*
X60832000Y-6036000D02*
X60072000Y-6036000D01*
X60072000Y-6036000D02*
X60072000Y-36000D01*
X60832000Y3021071D02*
X60832000Y2624000D01*
X60072000Y3021071D02*
X60072000Y2624000D01*
X60832000Y5561071D02*
X60832000Y5106929D01*
X60072000Y5561071D02*
X60072000Y5106929D01*
X59182000Y2624000D02*
X59182000Y-36000D01*
X58292000Y-36000D02*
X58292000Y-6036000D01*
X58292000Y-6036000D02*
X57532000Y-6036000D01*
X57532000Y-6036000D02*
X57532000Y-36000D01*
X58292000Y3021071D02*
X58292000Y2624000D01*
X57532000Y3021071D02*
X57532000Y2624000D01*
X58292000Y5561071D02*
X58292000Y5106929D01*
X57532000Y5561071D02*
X57532000Y5106929D01*
X56642000Y2624000D02*
X56642000Y-36000D01*
X55752000Y-36000D02*
X55752000Y-6036000D01*
X55752000Y-6036000D02*
X54992000Y-6036000D01*
X54992000Y-6036000D02*
X54992000Y-36000D01*
X55752000Y3021071D02*
X55752000Y2624000D01*
X54992000Y3021071D02*
X54992000Y2624000D01*
X55752000Y5561071D02*
X55752000Y5106929D01*
X54992000Y5561071D02*
X54992000Y5106929D01*
X54102000Y2624000D02*
X54102000Y-36000D01*
X53212000Y-36000D02*
X53212000Y-6036000D01*
X53212000Y-6036000D02*
X52452000Y-6036000D01*
X52452000Y-6036000D02*
X52452000Y-36000D01*
X53212000Y3021071D02*
X53212000Y2624000D01*
X52452000Y3021071D02*
X52452000Y2624000D01*
X53212000Y5561071D02*
X53212000Y5106929D01*
X52452000Y5561071D02*
X52452000Y5106929D01*
X51562000Y2624000D02*
X51562000Y-36000D01*
X50672000Y-36000D02*
X50672000Y-6036000D01*
X50672000Y-6036000D02*
X49912000Y-6036000D01*
X49912000Y-6036000D02*
X49912000Y-36000D01*
X50672000Y3021071D02*
X50672000Y2624000D01*
X49912000Y3021071D02*
X49912000Y2624000D01*
X50672000Y5561071D02*
X50672000Y5106929D01*
X49912000Y5561071D02*
X49912000Y5106929D01*
X49022000Y2624000D02*
X49022000Y-36000D01*
X48132000Y-36000D02*
X48132000Y-6036000D01*
X48132000Y-6036000D02*
X47372000Y-6036000D01*
X47372000Y-6036000D02*
X47372000Y-36000D01*
X48132000Y3021071D02*
X48132000Y2624000D01*
X47372000Y3021071D02*
X47372000Y2624000D01*
X48132000Y5561071D02*
X48132000Y5106929D01*
X47372000Y5561071D02*
X47372000Y5106929D01*
X46482000Y2624000D02*
X46482000Y-36000D01*
X45592000Y-36000D02*
X45592000Y-6036000D01*
X45592000Y-6036000D02*
X44832000Y-6036000D01*
X44832000Y-6036000D02*
X44832000Y-36000D01*
X45592000Y3021071D02*
X45592000Y2624000D01*
X44832000Y3021071D02*
X44832000Y2624000D01*
X45592000Y5561071D02*
X45592000Y5106929D01*
X44832000Y5561071D02*
X44832000Y5106929D01*
X43942000Y2624000D02*
X43942000Y-36000D01*
X43052000Y-36000D02*
X43052000Y-6036000D01*
X43052000Y-6036000D02*
X42292000Y-6036000D01*
X42292000Y-6036000D02*
X42292000Y-36000D01*
X43052000Y3021071D02*
X43052000Y2624000D01*
X42292000Y3021071D02*
X42292000Y2624000D01*
X43052000Y5561071D02*
X43052000Y5106929D01*
X42292000Y5561071D02*
X42292000Y5106929D01*
X41402000Y2624000D02*
X41402000Y-36000D01*
X40512000Y-36000D02*
X40512000Y-6036000D01*
X40512000Y-6036000D02*
X39752000Y-6036000D01*
X39752000Y-6036000D02*
X39752000Y-36000D01*
X40512000Y3021071D02*
X40512000Y2624000D01*
X39752000Y3021071D02*
X39752000Y2624000D01*
X40512000Y5561071D02*
X40512000Y5106929D01*
X39752000Y5561071D02*
X39752000Y5106929D01*
X38862000Y2624000D02*
X38862000Y-36000D01*
X37972000Y-36000D02*
X37972000Y-6036000D01*
X37972000Y-6036000D02*
X37212000Y-6036000D01*
X37212000Y-6036000D02*
X37212000Y-36000D01*
X37972000Y3021071D02*
X37972000Y2624000D01*
X37212000Y3021071D02*
X37212000Y2624000D01*
X37972000Y5561071D02*
X37972000Y5106929D01*
X37212000Y5561071D02*
X37212000Y5106929D01*
X36322000Y2624000D02*
X36322000Y-36000D01*
X35432000Y-36000D02*
X35432000Y-6036000D01*
X35432000Y-6036000D02*
X34672000Y-6036000D01*
X34672000Y-6036000D02*
X34672000Y-36000D01*
X35432000Y3021071D02*
X35432000Y2624000D01*
X34672000Y3021071D02*
X34672000Y2624000D01*
X35432000Y5561071D02*
X35432000Y5106929D01*
X34672000Y5561071D02*
X34672000Y5106929D01*
X33782000Y2624000D02*
X33782000Y-36000D01*
X32892000Y-36000D02*
X32892000Y-6036000D01*
X32892000Y-6036000D02*
X32132000Y-6036000D01*
X32132000Y-6036000D02*
X32132000Y-36000D01*
X32892000Y3021071D02*
X32892000Y2624000D01*
X32132000Y3021071D02*
X32132000Y2624000D01*
X32892000Y5561071D02*
X32892000Y5106929D01*
X32132000Y5561071D02*
X32132000Y5106929D01*
X31242000Y2624000D02*
X31242000Y-36000D01*
X30352000Y-36000D02*
X30352000Y-6036000D01*
X30352000Y-6036000D02*
X29592000Y-6036000D01*
X29592000Y-6036000D02*
X29592000Y-36000D01*
X30352000Y3021071D02*
X30352000Y2624000D01*
X29592000Y3021071D02*
X29592000Y2624000D01*
X30352000Y5561071D02*
X30352000Y5106929D01*
X29592000Y5561071D02*
X29592000Y5106929D01*
X28702000Y2624000D02*
X28702000Y-36000D01*
X27812000Y-36000D02*
X27812000Y-6036000D01*
X27812000Y-6036000D02*
X27052000Y-6036000D01*
X27052000Y-6036000D02*
X27052000Y-36000D01*
X27812000Y3021071D02*
X27812000Y2624000D01*
X27052000Y3021071D02*
X27052000Y2624000D01*
X27812000Y5561071D02*
X27812000Y5106929D01*
X27052000Y5561071D02*
X27052000Y5106929D01*
X26162000Y2624000D02*
X26162000Y-36000D01*
X25272000Y-36000D02*
X25272000Y-6036000D01*
X25272000Y-6036000D02*
X24512000Y-6036000D01*
X24512000Y-6036000D02*
X24512000Y-36000D01*
X25272000Y3021071D02*
X25272000Y2624000D01*
X24512000Y3021071D02*
X24512000Y2624000D01*
X25272000Y5561071D02*
X25272000Y5106929D01*
X24512000Y5561071D02*
X24512000Y5106929D01*
X23622000Y2624000D02*
X23622000Y-36000D01*
X22732000Y-36000D02*
X22732000Y-6036000D01*
X22732000Y-6036000D02*
X21972000Y-6036000D01*
X21972000Y-6036000D02*
X21972000Y-36000D01*
X22732000Y3021071D02*
X22732000Y2624000D01*
X21972000Y3021071D02*
X21972000Y2624000D01*
X22732000Y5561071D02*
X22732000Y5106929D01*
X21972000Y5561071D02*
X21972000Y5106929D01*
X21082000Y2624000D02*
X21082000Y-36000D01*
X20192000Y-36000D02*
X20192000Y-6036000D01*
X20192000Y-6036000D02*
X19432000Y-6036000D01*
X19432000Y-6036000D02*
X19432000Y-36000D01*
X20192000Y3021071D02*
X20192000Y2624000D01*
X19432000Y3021071D02*
X19432000Y2624000D01*
X20192000Y5561071D02*
X20192000Y5106929D01*
X19432000Y5561071D02*
X19432000Y5106929D01*
X18542000Y2624000D02*
X18542000Y-36000D01*
X17652000Y-36000D02*
X17652000Y-6036000D01*
X17652000Y-6036000D02*
X16892000Y-6036000D01*
X16892000Y-6036000D02*
X16892000Y-36000D01*
X17652000Y3021071D02*
X17652000Y2624000D01*
X16892000Y3021071D02*
X16892000Y2624000D01*
X17652000Y5561071D02*
X17652000Y5106929D01*
X16892000Y5561071D02*
X16892000Y5106929D01*
X78232000Y7874000D02*
X79502000Y7874000D01*
X79502000Y7874000D02*
X79502000Y6604000D01*
G04 #@! TO.C,U4*
D13*
X-464619Y48006095D02*
X344904Y48006095D01*
X440142Y48053714D01*
X487761Y48101333D01*
X535380Y48196571D01*
X535380Y48387047D01*
X487761Y48482285D01*
X440142Y48529904D01*
X344904Y48577523D01*
X-464619Y48577523D01*
X-131285Y49482285D02*
X535380Y49482285D01*
X-512238Y49244190D02*
X202047Y49006095D01*
X202047Y49625142D01*
G04 #@! TO.C,J2*
X41894380Y48688666D02*
X42608666Y48688666D01*
X42751523Y48641047D01*
X42846761Y48545809D01*
X42894380Y48402952D01*
X42894380Y48307714D01*
X41989619Y49117238D02*
X41942000Y49164857D01*
X41894380Y49260095D01*
X41894380Y49498190D01*
X41942000Y49593428D01*
X41989619Y49641047D01*
X42084857Y49688666D01*
X42180095Y49688666D01*
X42322952Y49641047D01*
X42894380Y49069619D01*
X42894380Y49688666D01*
G04 #@! TO.C,C4*
X4699333Y32662857D02*
X4651714Y32615238D01*
X4508857Y32567619D01*
X4413619Y32567619D01*
X4270761Y32615238D01*
X4175523Y32710476D01*
X4127904Y32805714D01*
X4080285Y32996190D01*
X4080285Y33139047D01*
X4127904Y33329523D01*
X4175523Y33424761D01*
X4270761Y33520000D01*
X4413619Y33567619D01*
X4508857Y33567619D01*
X4651714Y33520000D01*
X4699333Y33472380D01*
X5556476Y33234285D02*
X5556476Y32567619D01*
X5318380Y33615238D02*
X5080285Y32900952D01*
X5699333Y32900952D01*
G04 #@! TO.C,C3*
X66421333Y21994857D02*
X66373714Y21947238D01*
X66230857Y21899619D01*
X66135619Y21899619D01*
X65992761Y21947238D01*
X65897523Y22042476D01*
X65849904Y22137714D01*
X65802285Y22328190D01*
X65802285Y22471047D01*
X65849904Y22661523D01*
X65897523Y22756761D01*
X65992761Y22852000D01*
X66135619Y22899619D01*
X66230857Y22899619D01*
X66373714Y22852000D01*
X66421333Y22804380D01*
X66754666Y22899619D02*
X67373714Y22899619D01*
X67040380Y22518666D01*
X67183238Y22518666D01*
X67278476Y22471047D01*
X67326095Y22423428D01*
X67373714Y22328190D01*
X67373714Y22090095D01*
X67326095Y21994857D01*
X67278476Y21947238D01*
X67183238Y21899619D01*
X66897523Y21899619D01*
X66802285Y21947238D01*
X66754666Y21994857D01*
G04 #@! TO.C,C2*
X7199333Y51458857D02*
X7151714Y51411238D01*
X7008857Y51363619D01*
X6913619Y51363619D01*
X6770761Y51411238D01*
X6675523Y51506476D01*
X6627904Y51601714D01*
X6580285Y51792190D01*
X6580285Y51935047D01*
X6627904Y52125523D01*
X6675523Y52220761D01*
X6770761Y52316000D01*
X6913619Y52363619D01*
X7008857Y52363619D01*
X7151714Y52316000D01*
X7199333Y52268380D01*
X7580285Y52268380D02*
X7627904Y52316000D01*
X7723142Y52363619D01*
X7961238Y52363619D01*
X8056476Y52316000D01*
X8104095Y52268380D01*
X8151714Y52173142D01*
X8151714Y52077904D01*
X8104095Y51935047D01*
X7532666Y51363619D01*
X8151714Y51363619D01*
G04 #@! TO.C,C1*
X47371333Y44092857D02*
X47323714Y44045238D01*
X47180857Y43997619D01*
X47085619Y43997619D01*
X46942761Y44045238D01*
X46847523Y44140476D01*
X46799904Y44235714D01*
X46752285Y44426190D01*
X46752285Y44569047D01*
X46799904Y44759523D01*
X46847523Y44854761D01*
X46942761Y44950000D01*
X47085619Y44997619D01*
X47180857Y44997619D01*
X47323714Y44950000D01*
X47371333Y44902380D01*
X48323714Y43997619D02*
X47752285Y43997619D01*
X48038000Y43997619D02*
X48038000Y44997619D01*
X47942761Y44854761D01*
X47847523Y44759523D01*
X47752285Y44711904D01*
G04 #@! TO.C,U1*
X-591619Y25590595D02*
X217904Y25590595D01*
X313142Y25638214D01*
X360761Y25685833D01*
X408380Y25781071D01*
X408380Y25971547D01*
X360761Y26066785D01*
X313142Y26114404D01*
X217904Y26162023D01*
X-591619Y26162023D01*
X408380Y27162023D02*
X408380Y26590595D01*
X408380Y26876309D02*
X-591619Y26876309D01*
X-448761Y26781071D01*
X-353523Y26685833D01*
X-305904Y26590595D01*
G04 #@! TO.C,U3*
X42181381Y36881096D02*
X42990905Y36881096D01*
X43086143Y36928715D01*
X43133762Y36976334D01*
X43181381Y37071572D01*
X43181381Y37262048D01*
X43133762Y37357286D01*
X43086143Y37404905D01*
X42990905Y37452524D01*
X42181381Y37452524D01*
X42181381Y37833477D02*
X42181381Y38452524D01*
X42562334Y38119191D01*
X42562334Y38262048D01*
X42609953Y38357286D01*
X42657572Y38404905D01*
X42752810Y38452524D01*
X42990905Y38452524D01*
X43086143Y38404905D01*
X43133762Y38357286D01*
X43181381Y38262048D01*
X43181381Y37976334D01*
X43133762Y37881096D01*
X43086143Y37833477D01*
G04 #@! TO.C,U2*
X79760380Y21717095D02*
X80569904Y21717095D01*
X80665142Y21764714D01*
X80712761Y21812333D01*
X80760380Y21907571D01*
X80760380Y22098047D01*
X80712761Y22193285D01*
X80665142Y22240904D01*
X80569904Y22288523D01*
X79760380Y22288523D01*
X79855619Y22717095D02*
X79808000Y22764714D01*
X79760380Y22859952D01*
X79760380Y23098047D01*
X79808000Y23193285D01*
X79855619Y23240904D01*
X79950857Y23288523D01*
X80046095Y23288523D01*
X80188952Y23240904D01*
X80760380Y22669476D01*
X80760380Y23288523D01*
G04 #@! TO.C,J1*
X80605380Y2968666D02*
X81319666Y2968666D01*
X81462523Y2921047D01*
X81557761Y2825809D01*
X81605380Y2682952D01*
X81605380Y2587714D01*
X81605380Y3968666D02*
X81605380Y3397238D01*
X81605380Y3682952D02*
X80605380Y3682952D01*
X80748238Y3587714D01*
X80843476Y3492476D01*
X80891095Y3397238D01*
G04 #@! TD*
M02*
