M48
; DRILL file {KiCad (5.1.10-1-10_14)} date Tuesday, August 31, 2021 at 11:52:28 PM
; FORMAT={-:-/ absolute / inch / decimal}
; #@! TF.CreationDate,2021-08-31T23:52:28+02:00
; #@! TF.GenerationSoftware,Kicad,Pcbnew,(5.1.10-1-10_14)
FMAT,2
INCH
T1C0.0118
T2C0.0315
T3C0.0394
%
G90
G05
T1
X0.5025Y1.385
X0.5337Y1.377
X0.57Y1.675
X0.575Y1.3725
X0.6624Y1.6968
X0.6675Y0.355
X0.71Y0.3575
X0.74Y1.7
X0.7475Y0.3675
X0.76Y1.895
X0.785Y0.3675
X0.82Y0.37
X0.8561Y0.3686
X0.898Y0.3668
X0.935Y0.6577
X0.935Y0.4025
X0.9457Y1.0475
X0.95Y0.5925
X0.955Y0.682
X0.9782Y0.7073
X1.0075Y0.7275
X1.0676Y0.3429
X1.0875Y0.68
X1.1025Y0.35
X1.1071Y1.0821
X1.1071Y1.0478
X1.1127Y0.5429
X1.1199Y0.5955
X1.1225Y0.7025
X1.1229Y1.131
X1.145Y0.6775
X1.1554Y1.0292
X1.1987Y0.3762
X1.2076Y0.9726
X1.225Y1.21
X1.2296Y1.1473
X1.2425Y0.37
X1.29Y1.27
X1.3239Y1.08
X1.39Y0.3525
X1.4201Y0.37
X1.435Y1.06
X1.445Y1.34
X1.4625Y0.405
X1.48Y1.255
X1.5025Y0.3875
X1.5501Y1.4099
X1.59Y1.405
X1.5927Y1.2526
X1.5983Y0.9866
X1.625Y1.395
X1.6289Y1.267
X1.6605Y1.1271
X1.6907Y1.2893
X1.71Y0.335
X1.7374Y0.9384
X1.74Y1.135
X1.7629Y1.0045
X1.8101Y1.0445
X1.82Y1.15
X1.8695Y1.0946
X1.9875Y0.32
X2.055Y0.325
X2.075Y1.445
X2.1042Y0.3331
X2.13Y1.3877
X2.1785Y0.3523
X2.2785Y0.37
X2.3425Y1.5575
X2.3898Y0.3878
X2.435Y1.425
X2.465Y1.55
X2.4836Y0.384
X2.52Y1.22
X2.5953Y0.384
X2.5981Y1.1171
X2.6Y1.26
X2.6222Y1.3861
X2.665Y1.385
X2.7126Y1.1278
X2.75Y1.275
X2.845Y1.26
X2.9475Y1.24
T2
X0.09Y1.1875
X0.09Y0.8875
X0.0931Y1.3
X0.095Y2.22
X0.095Y1.62
X0.19Y1.1875
X0.19Y0.8875
X0.1931Y2.04
X0.195Y2.22
X0.195Y1.62
X0.29Y1.3
X0.29Y1.1875
X0.29Y0.8875
X0.295Y2.22
X0.295Y1.62
X0.39Y2.04
X0.39Y1.1875
X0.39Y0.8875
X0.395Y2.22
X0.395Y1.62
X0.49Y1.1875
X0.49Y0.8875
X0.495Y2.22
X0.495Y1.62
X0.59Y1.1875
X0.59Y0.8875
X0.595Y2.22
X0.595Y1.62
X0.69Y1.1875
X0.69Y0.8875
X0.695Y2.22
X0.695Y1.62
X0.79Y1.1875
X0.79Y0.8875
X0.795Y2.22
X0.795Y1.62
X0.89Y1.1875
X0.89Y0.8875
X0.895Y2.22
X0.895Y1.62
X0.99Y1.1875
X0.99Y0.8875
X0.995Y2.22
X0.995Y1.62
X1.095Y2.22
X1.095Y1.62
X1.17Y1.185
X1.17Y0.585
X1.195Y2.22
X1.195Y1.62
X1.27Y1.185
X1.27Y0.585
X1.295Y2.22
X1.295Y1.62
X1.37Y1.185
X1.37Y0.585
X1.395Y2.22
X1.395Y1.62
X1.47Y1.185
X1.47Y0.585
X1.57Y1.185
X1.57Y0.585
X1.67Y1.185
X1.67Y0.585
X1.77Y1.185
X1.77Y0.585
X1.7731Y1.75
X1.774Y1.632
X1.774Y1.332
X1.87Y1.185
X1.87Y0.585
X1.874Y1.632
X1.874Y1.332
X1.97Y1.75
X1.97Y1.185
X1.97Y0.585
X1.974Y1.632
X1.974Y1.332
X2.07Y1.185
X2.07Y0.585
X2.074Y1.632
X2.074Y1.332
X2.17Y1.185
X2.17Y0.585
X2.174Y1.632
X2.174Y1.332
X2.27Y1.185
X2.27Y0.585
X2.274Y1.632
X2.274Y1.332
X2.37Y1.185
X2.37Y0.585
X2.374Y1.632
X2.374Y1.332
X2.47Y1.185
X2.47Y0.585
X2.474Y1.632
X2.474Y1.332
X2.5231Y0.88
X2.57Y1.185
X2.57Y0.585
X2.574Y1.632
X2.574Y1.332
X2.67Y1.185
X2.67Y0.585
X2.674Y1.632
X2.674Y1.332
X2.72Y0.88
X2.77Y1.185
X2.77Y0.585
X2.774Y1.632
X2.774Y1.332
X2.87Y1.185
X2.87Y0.585
X2.874Y1.632
X2.874Y1.332
X2.97Y1.185
X2.97Y0.585
X2.974Y1.632
X2.974Y1.332
X3.07Y1.185
X3.07Y0.585
X3.074Y1.632
X3.074Y1.332
T3
X0.68Y0.26
X0.68Y0.16
X0.78Y0.26
X0.78Y0.16
X0.88Y0.26
X0.88Y0.16
X0.98Y0.26
X0.98Y0.16
X1.08Y0.26
X1.08Y0.16
X1.18Y0.26
X1.18Y0.16
X1.28Y0.26
X1.28Y0.16
X1.38Y0.26
X1.38Y0.16
X1.48Y0.26
X1.48Y0.16
X1.58Y0.26
X1.58Y0.16
X1.68Y0.26
X1.68Y0.16
X1.78Y1.93
X1.78Y0.26
X1.78Y0.16
X1.88Y1.93
X1.88Y0.26
X1.88Y0.16
X1.98Y1.93
X1.98Y0.26
X1.98Y0.16
X2.08Y1.93
X2.08Y0.26
X2.08Y0.16
X2.18Y1.93
X2.18Y0.26
X2.18Y0.16
X2.28Y1.93
X2.28Y0.26
X2.28Y0.16
X2.38Y1.93
X2.38Y0.26
X2.38Y0.16
X2.48Y1.93
X2.48Y0.26
X2.48Y0.16
X2.58Y1.93
X2.58Y0.26
X2.58Y0.16
X2.68Y1.93
X2.68Y0.26
X2.68Y0.16
X2.78Y1.93
X2.78Y0.26
X2.78Y0.16
X2.88Y1.93
X2.88Y0.26
X2.88Y0.16
X2.98Y1.93
X2.98Y0.26
X2.98Y0.16
X3.08Y1.93
X3.08Y0.26
X3.08Y0.16
T0
M30
