G04 #@! TF.GenerationSoftware,KiCad,Pcbnew,(5.1.10-1-10_14)*
G04 #@! TF.CreationDate,2021-08-31T23:52:25+02:00*
G04 #@! TF.ProjectId,proc_board,70726f63-5f62-46f6-9172-642e6b696361,rev?*
G04 #@! TF.SameCoordinates,Original*
G04 #@! TF.FileFunction,Copper,L2,Bot*
G04 #@! TF.FilePolarity,Positive*
%FSLAX46Y46*%
G04 Gerber Fmt 4.6, Leading zero omitted, Abs format (unit mm)*
G04 Created by KiCad (PCBNEW (5.1.10-1-10_14)) date 2021-08-31 23:52:25*
%MOMM*%
%LPD*%
G01*
G04 APERTURE LIST*
G04 #@! TA.AperFunction,ComponentPad*
%ADD10O,1.600000X1.600000*%
G04 #@! TD*
G04 #@! TA.AperFunction,ComponentPad*
%ADD11R,1.600000X1.600000*%
G04 #@! TD*
G04 #@! TA.AperFunction,ComponentPad*
%ADD12O,1.700000X1.700000*%
G04 #@! TD*
G04 #@! TA.AperFunction,ComponentPad*
%ADD13R,1.700000X1.700000*%
G04 #@! TD*
G04 #@! TA.AperFunction,ComponentPad*
%ADD14C,1.600000*%
G04 #@! TD*
G04 #@! TA.AperFunction,ViaPad*
%ADD15C,0.600000*%
G04 #@! TD*
G04 #@! TA.AperFunction,Conductor*
%ADD16C,0.250000*%
G04 #@! TD*
G04 #@! TA.AperFunction,Conductor*
%ADD17C,1.000000*%
G04 #@! TD*
G04 #@! TA.AperFunction,Conductor*
%ADD18C,0.254000*%
G04 #@! TD*
G04 #@! TA.AperFunction,Conductor*
%ADD19C,0.100000*%
G04 #@! TD*
G04 APERTURE END LIST*
D10*
G04 #@! TO.P,U4,28*
G04 #@! TO.N,+5V*
X2413000Y56388000D03*
G04 #@! TO.P,U4,14*
G04 #@! TO.N,GND*
X35433000Y41148000D03*
G04 #@! TO.P,U4,27*
G04 #@! TO.N,+5V*
X4953000Y56388000D03*
G04 #@! TO.P,U4,13*
G04 #@! TO.N,D2*
X32893000Y41148000D03*
G04 #@! TO.P,U4,26*
G04 #@! TO.N,A13*
X7493000Y56388000D03*
G04 #@! TO.P,U4,12*
G04 #@! TO.N,D1*
X30353000Y41148000D03*
G04 #@! TO.P,U4,25*
G04 #@! TO.N,A8*
X10033000Y56388000D03*
G04 #@! TO.P,U4,11*
G04 #@! TO.N,D0*
X27813000Y41148000D03*
G04 #@! TO.P,U4,24*
G04 #@! TO.N,A9*
X12573000Y56388000D03*
G04 #@! TO.P,U4,10*
G04 #@! TO.N,A0*
X25273000Y41148000D03*
G04 #@! TO.P,U4,23*
G04 #@! TO.N,A11*
X15113000Y56388000D03*
G04 #@! TO.P,U4,9*
G04 #@! TO.N,A1*
X22733000Y41148000D03*
G04 #@! TO.P,U4,22*
G04 #@! TO.N,~ROM_CS~*
X17653000Y56388000D03*
G04 #@! TO.P,U4,8*
G04 #@! TO.N,A2*
X20193000Y41148000D03*
G04 #@! TO.P,U4,21*
G04 #@! TO.N,A10*
X20193000Y56388000D03*
G04 #@! TO.P,U4,7*
G04 #@! TO.N,A3*
X17653000Y41148000D03*
G04 #@! TO.P,U4,20*
G04 #@! TO.N,GND*
X22733000Y56388000D03*
G04 #@! TO.P,U4,6*
G04 #@! TO.N,A4*
X15113000Y41148000D03*
G04 #@! TO.P,U4,19*
G04 #@! TO.N,D7*
X25273000Y56388000D03*
G04 #@! TO.P,U4,5*
G04 #@! TO.N,A5*
X12573000Y41148000D03*
G04 #@! TO.P,U4,18*
G04 #@! TO.N,D6*
X27813000Y56388000D03*
G04 #@! TO.P,U4,4*
G04 #@! TO.N,A6*
X10033000Y41148000D03*
G04 #@! TO.P,U4,17*
G04 #@! TO.N,D5*
X30353000Y56388000D03*
G04 #@! TO.P,U4,3*
G04 #@! TO.N,A7*
X7493000Y41148000D03*
G04 #@! TO.P,U4,16*
G04 #@! TO.N,D4*
X32893000Y56388000D03*
G04 #@! TO.P,U4,2*
G04 #@! TO.N,A12*
X4953000Y41148000D03*
G04 #@! TO.P,U4,15*
G04 #@! TO.N,D3*
X35433000Y56388000D03*
D11*
G04 #@! TO.P,U4,1*
G04 #@! TO.N,A14*
X2413000Y41148000D03*
G04 #@! TD*
D12*
G04 #@! TO.P,J2,14*
G04 #@! TO.N,D3*
X78232000Y49022000D03*
G04 #@! TO.P,J2,13*
G04 #@! TO.N,D4*
X75692000Y49022000D03*
G04 #@! TO.P,J2,12*
G04 #@! TO.N,D5*
X73152000Y49022000D03*
G04 #@! TO.P,J2,11*
G04 #@! TO.N,D6*
X70612000Y49022000D03*
G04 #@! TO.P,J2,10*
G04 #@! TO.N,D7*
X68072000Y49022000D03*
G04 #@! TO.P,J2,9*
G04 #@! TO.N,~RAM_CS~*
X65532000Y49022000D03*
G04 #@! TO.P,J2,8*
G04 #@! TO.N,A10*
X62992000Y49022000D03*
G04 #@! TO.P,J2,7*
G04 #@! TO.N,GND*
X60452000Y49022000D03*
G04 #@! TO.P,J2,6*
G04 #@! TO.N,A11*
X57912000Y49022000D03*
G04 #@! TO.P,J2,5*
G04 #@! TO.N,A9*
X55372000Y49022000D03*
G04 #@! TO.P,J2,4*
G04 #@! TO.N,A8*
X52832000Y49022000D03*
G04 #@! TO.P,J2,3*
G04 #@! TO.N,A13*
X50292000Y49022000D03*
G04 #@! TO.P,J2,2*
G04 #@! TO.N,~RAMW~*
X47752000Y49022000D03*
D13*
G04 #@! TO.P,J2,1*
G04 #@! TO.N,+5V*
X45212000Y49022000D03*
G04 #@! TD*
D14*
G04 #@! TO.P,C4,2*
G04 #@! TO.N,+5V*
X2366000Y33020000D03*
G04 #@! TO.P,C4,1*
G04 #@! TO.N,GND*
X7366000Y33020000D03*
G04 #@! TD*
G04 #@! TO.P,C3,2*
G04 #@! TO.N,+5V*
X64088000Y22352000D03*
G04 #@! TO.P,C3,1*
G04 #@! TO.N,GND*
X69088000Y22352000D03*
G04 #@! TD*
G04 #@! TO.P,C2,2*
G04 #@! TO.N,+5V*
X4906000Y51816000D03*
G04 #@! TO.P,C2,1*
G04 #@! TO.N,GND*
X9906000Y51816000D03*
G04 #@! TD*
G04 #@! TO.P,C1,2*
G04 #@! TO.N,+5V*
X45038000Y44450000D03*
G04 #@! TO.P,C1,1*
G04 #@! TO.N,GND*
X50038000Y44450000D03*
G04 #@! TD*
D10*
G04 #@! TO.P,U1,20*
G04 #@! TO.N,+5V*
X2286000Y30162500D03*
G04 #@! TO.P,U1,10*
G04 #@! TO.N,GND*
X25146000Y22542500D03*
G04 #@! TO.P,U1,19*
G04 #@! TO.N,~IRQ~*
X4826000Y30162500D03*
G04 #@! TO.P,U1,9*
G04 #@! TO.N,A15*
X22606000Y22542500D03*
G04 #@! TO.P,U1,18*
G04 #@! TO.N,~RAM_CS~*
X7366000Y30162500D03*
G04 #@! TO.P,U1,8*
G04 #@! TO.N,~SSEL~*
X20066000Y22542500D03*
G04 #@! TO.P,U1,17*
G04 #@! TO.N,~ROM_CS~*
X9906000Y30162500D03*
G04 #@! TO.P,U1,7*
G04 #@! TO.N,~INH~*
X17526000Y22542500D03*
G04 #@! TO.P,U1,16*
G04 #@! TO.N,~RAMW~*
X12446000Y30162500D03*
G04 #@! TO.P,U1,6*
G04 #@! TO.N,~IRQ5~*
X14986000Y22542500D03*
G04 #@! TO.P,U1,15*
G04 #@! TO.N,Net-(U1-Pad15)*
X14986000Y30162500D03*
G04 #@! TO.P,U1,5*
G04 #@! TO.N,~IRQ4~*
X12446000Y22542500D03*
G04 #@! TO.P,U1,14*
G04 #@! TO.N,Net-(U1-Pad14)*
X17526000Y30162500D03*
G04 #@! TO.P,U1,4*
G04 #@! TO.N,~IRQ3~*
X9906000Y22542500D03*
G04 #@! TO.P,U1,13*
G04 #@! TO.N,Net-(U1-Pad13)*
X20066000Y30162500D03*
G04 #@! TO.P,U1,3*
G04 #@! TO.N,~IRQ2~*
X7366000Y22542500D03*
G04 #@! TO.P,U1,12*
G04 #@! TO.N,Net-(U1-Pad12)*
X22606000Y30162500D03*
G04 #@! TO.P,U1,2*
G04 #@! TO.N,~IRQ1~*
X4826000Y22542500D03*
G04 #@! TO.P,U1,11*
G04 #@! TO.N,R~W~*
X25146000Y30162500D03*
D11*
G04 #@! TO.P,U1,1*
G04 #@! TO.N,CLK*
X2286000Y22542500D03*
G04 #@! TD*
D10*
G04 #@! TO.P,U3,28*
G04 #@! TO.N,+5V*
X45059001Y41453001D03*
G04 #@! TO.P,U3,14*
G04 #@! TO.N,GND*
X78079001Y33833001D03*
G04 #@! TO.P,U3,27*
G04 #@! TO.N,~RAMW~*
X47599001Y41453001D03*
G04 #@! TO.P,U3,13*
G04 #@! TO.N,D2*
X75539001Y33833001D03*
G04 #@! TO.P,U3,26*
G04 #@! TO.N,A13*
X50139001Y41453001D03*
G04 #@! TO.P,U3,12*
G04 #@! TO.N,D1*
X72999001Y33833001D03*
G04 #@! TO.P,U3,25*
G04 #@! TO.N,A8*
X52679001Y41453001D03*
G04 #@! TO.P,U3,11*
G04 #@! TO.N,D0*
X70459001Y33833001D03*
G04 #@! TO.P,U3,24*
G04 #@! TO.N,A9*
X55219001Y41453001D03*
G04 #@! TO.P,U3,10*
G04 #@! TO.N,A0*
X67919001Y33833001D03*
G04 #@! TO.P,U3,23*
G04 #@! TO.N,A11*
X57759001Y41453001D03*
G04 #@! TO.P,U3,9*
G04 #@! TO.N,A1*
X65379001Y33833001D03*
G04 #@! TO.P,U3,22*
G04 #@! TO.N,GND*
X60299001Y41453001D03*
G04 #@! TO.P,U3,8*
G04 #@! TO.N,A2*
X62839001Y33833001D03*
G04 #@! TO.P,U3,21*
G04 #@! TO.N,A10*
X62839001Y41453001D03*
G04 #@! TO.P,U3,7*
G04 #@! TO.N,A3*
X60299001Y33833001D03*
G04 #@! TO.P,U3,20*
G04 #@! TO.N,~RAM_CS~*
X65379001Y41453001D03*
G04 #@! TO.P,U3,6*
G04 #@! TO.N,A4*
X57759001Y33833001D03*
G04 #@! TO.P,U3,19*
G04 #@! TO.N,D7*
X67919001Y41453001D03*
G04 #@! TO.P,U3,5*
G04 #@! TO.N,A5*
X55219001Y33833001D03*
G04 #@! TO.P,U3,18*
G04 #@! TO.N,D6*
X70459001Y41453001D03*
G04 #@! TO.P,U3,4*
G04 #@! TO.N,A6*
X52679001Y33833001D03*
G04 #@! TO.P,U3,17*
G04 #@! TO.N,D5*
X72999001Y41453001D03*
G04 #@! TO.P,U3,3*
G04 #@! TO.N,A7*
X50139001Y33833001D03*
G04 #@! TO.P,U3,16*
G04 #@! TO.N,D4*
X75539001Y41453001D03*
G04 #@! TO.P,U3,2*
G04 #@! TO.N,A12*
X47599001Y33833001D03*
G04 #@! TO.P,U3,15*
G04 #@! TO.N,D3*
X78079001Y41453001D03*
D11*
G04 #@! TO.P,U3,1*
G04 #@! TO.N,A14*
X45059001Y33833001D03*
G04 #@! TD*
D10*
G04 #@! TO.P,U2,40*
G04 #@! TO.N,~RESET~*
X77978000Y14859000D03*
G04 #@! TO.P,U2,20*
G04 #@! TO.N,A11*
X29718000Y30099000D03*
G04 #@! TO.P,U2,39*
G04 #@! TO.N,Net-(U2-Pad39)*
X75438000Y14859000D03*
G04 #@! TO.P,U2,19*
G04 #@! TO.N,A10*
X32258000Y30099000D03*
G04 #@! TO.P,U2,38*
G04 #@! TO.N,Net-(U2-Pad38)*
X72898000Y14859000D03*
G04 #@! TO.P,U2,18*
G04 #@! TO.N,A9*
X34798000Y30099000D03*
G04 #@! TO.P,U2,37*
G04 #@! TO.N,CLK*
X70358000Y14859000D03*
G04 #@! TO.P,U2,17*
G04 #@! TO.N,A8*
X37338000Y30099000D03*
G04 #@! TO.P,U2,36*
G04 #@! TO.N,BE*
X67818000Y14859000D03*
G04 #@! TO.P,U2,16*
G04 #@! TO.N,A7*
X39878000Y30099000D03*
G04 #@! TO.P,U2,35*
G04 #@! TO.N,Net-(U2-Pad35)*
X65278000Y14859000D03*
G04 #@! TO.P,U2,15*
G04 #@! TO.N,A6*
X42418000Y30099000D03*
G04 #@! TO.P,U2,34*
G04 #@! TO.N,R~W~*
X62738000Y14859000D03*
G04 #@! TO.P,U2,14*
G04 #@! TO.N,A5*
X44958000Y30099000D03*
G04 #@! TO.P,U2,33*
G04 #@! TO.N,D0*
X60198000Y14859000D03*
G04 #@! TO.P,U2,13*
G04 #@! TO.N,A4*
X47498000Y30099000D03*
G04 #@! TO.P,U2,32*
G04 #@! TO.N,D1*
X57658000Y14859000D03*
G04 #@! TO.P,U2,12*
G04 #@! TO.N,A3*
X50038000Y30099000D03*
G04 #@! TO.P,U2,31*
G04 #@! TO.N,D2*
X55118000Y14859000D03*
G04 #@! TO.P,U2,11*
G04 #@! TO.N,A2*
X52578000Y30099000D03*
G04 #@! TO.P,U2,30*
G04 #@! TO.N,D3*
X52578000Y14859000D03*
G04 #@! TO.P,U2,10*
G04 #@! TO.N,A1*
X55118000Y30099000D03*
G04 #@! TO.P,U2,29*
G04 #@! TO.N,D4*
X50038000Y14859000D03*
G04 #@! TO.P,U2,9*
G04 #@! TO.N,A0*
X57658000Y30099000D03*
G04 #@! TO.P,U2,28*
G04 #@! TO.N,D5*
X47498000Y14859000D03*
G04 #@! TO.P,U2,8*
G04 #@! TO.N,+5V*
X60198000Y30099000D03*
G04 #@! TO.P,U2,27*
G04 #@! TO.N,D6*
X44958000Y14859000D03*
G04 #@! TO.P,U2,7*
G04 #@! TO.N,SYNC*
X62738000Y30099000D03*
G04 #@! TO.P,U2,26*
G04 #@! TO.N,D7*
X42418000Y14859000D03*
G04 #@! TO.P,U2,6*
G04 #@! TO.N,~NMI~*
X65278000Y30099000D03*
G04 #@! TO.P,U2,25*
G04 #@! TO.N,A15*
X39878000Y14859000D03*
G04 #@! TO.P,U2,5*
G04 #@! TO.N,Net-(U2-Pad5)*
X67818000Y30099000D03*
G04 #@! TO.P,U2,24*
G04 #@! TO.N,A14*
X37338000Y14859000D03*
G04 #@! TO.P,U2,4*
G04 #@! TO.N,~IRQ~*
X70358000Y30099000D03*
G04 #@! TO.P,U2,23*
G04 #@! TO.N,A13*
X34798000Y14859000D03*
G04 #@! TO.P,U2,3*
G04 #@! TO.N,Net-(U2-Pad3)*
X72898000Y30099000D03*
G04 #@! TO.P,U2,22*
G04 #@! TO.N,A12*
X32258000Y14859000D03*
G04 #@! TO.P,U2,2*
G04 #@! TO.N,RDY*
X75438000Y30099000D03*
G04 #@! TO.P,U2,21*
G04 #@! TO.N,GND*
X29718000Y14859000D03*
D11*
G04 #@! TO.P,U2,1*
G04 #@! TO.N,Net-(U2-Pad1)*
X77978000Y30099000D03*
G04 #@! TD*
D12*
G04 #@! TO.P,J1,50*
G04 #@! TO.N,~NMI~*
X17272000Y4064000D03*
G04 #@! TO.P,J1,49*
G04 #@! TO.N,~RESET~*
X17272000Y6604000D03*
G04 #@! TO.P,J1,48*
G04 #@! TO.N,~IRQ1~*
X19812000Y4064000D03*
G04 #@! TO.P,J1,47*
G04 #@! TO.N,SYNC*
X19812000Y6604000D03*
G04 #@! TO.P,J1,46*
G04 #@! TO.N,~IRQ2~*
X22352000Y4064000D03*
G04 #@! TO.P,J1,45*
G04 #@! TO.N,~IRQ~*
X22352000Y6604000D03*
G04 #@! TO.P,J1,44*
G04 #@! TO.N,~IRQ3~*
X24892000Y4064000D03*
G04 #@! TO.P,J1,43*
G04 #@! TO.N,R~W~*
X24892000Y6604000D03*
G04 #@! TO.P,J1,42*
G04 #@! TO.N,~IRQ4~*
X27432000Y4064000D03*
G04 #@! TO.P,J1,41*
G04 #@! TO.N,CLK*
X27432000Y6604000D03*
G04 #@! TO.P,J1,40*
G04 #@! TO.N,~IRQ5~*
X29972000Y4064000D03*
G04 #@! TO.P,J1,39*
G04 #@! TO.N,BE*
X29972000Y6604000D03*
G04 #@! TO.P,J1,38*
G04 #@! TO.N,LED3*
X32512000Y4064000D03*
G04 #@! TO.P,J1,37*
G04 #@! TO.N,RDY*
X32512000Y6604000D03*
G04 #@! TO.P,J1,36*
G04 #@! TO.N,LED2*
X35052000Y4064000D03*
G04 #@! TO.P,J1,35*
G04 #@! TO.N,A15*
X35052000Y6604000D03*
G04 #@! TO.P,J1,34*
G04 #@! TO.N,LED1*
X37592000Y4064000D03*
G04 #@! TO.P,J1,33*
G04 #@! TO.N,A14*
X37592000Y6604000D03*
G04 #@! TO.P,J1,32*
G04 #@! TO.N,Net-(J1-Pad32)*
X40132000Y4064000D03*
G04 #@! TO.P,J1,31*
G04 #@! TO.N,A13*
X40132000Y6604000D03*
G04 #@! TO.P,J1,30*
G04 #@! TO.N,~INH~*
X42672000Y4064000D03*
G04 #@! TO.P,J1,29*
G04 #@! TO.N,A12*
X42672000Y6604000D03*
G04 #@! TO.P,J1,28*
G04 #@! TO.N,~SSEL~*
X45212000Y4064000D03*
G04 #@! TO.P,J1,27*
G04 #@! TO.N,A11*
X45212000Y6604000D03*
G04 #@! TO.P,J1,26*
G04 #@! TO.N,GND*
X47752000Y4064000D03*
G04 #@! TO.P,J1,25*
G04 #@! TO.N,+5V*
X47752000Y6604000D03*
G04 #@! TO.P,J1,24*
X50292000Y4064000D03*
G04 #@! TO.P,J1,23*
G04 #@! TO.N,GND*
X50292000Y6604000D03*
G04 #@! TO.P,J1,22*
G04 #@! TO.N,~ROM_CS~*
X52832000Y4064000D03*
G04 #@! TO.P,J1,21*
G04 #@! TO.N,A10*
X52832000Y6604000D03*
G04 #@! TO.P,J1,20*
G04 #@! TO.N,EX1*
X55372000Y4064000D03*
G04 #@! TO.P,J1,19*
G04 #@! TO.N,A9*
X55372000Y6604000D03*
G04 #@! TO.P,J1,18*
G04 #@! TO.N,EX0*
X57912000Y4064000D03*
G04 #@! TO.P,J1,17*
G04 #@! TO.N,A8*
X57912000Y6604000D03*
G04 #@! TO.P,J1,16*
G04 #@! TO.N,D7*
X60452000Y4064000D03*
G04 #@! TO.P,J1,15*
G04 #@! TO.N,A7*
X60452000Y6604000D03*
G04 #@! TO.P,J1,14*
G04 #@! TO.N,D6*
X62992000Y4064000D03*
G04 #@! TO.P,J1,13*
G04 #@! TO.N,A6*
X62992000Y6604000D03*
G04 #@! TO.P,J1,12*
G04 #@! TO.N,D5*
X65532000Y4064000D03*
G04 #@! TO.P,J1,11*
G04 #@! TO.N,A5*
X65532000Y6604000D03*
G04 #@! TO.P,J1,10*
G04 #@! TO.N,D4*
X68072000Y4064000D03*
G04 #@! TO.P,J1,9*
G04 #@! TO.N,A4*
X68072000Y6604000D03*
G04 #@! TO.P,J1,8*
G04 #@! TO.N,D3*
X70612000Y4064000D03*
G04 #@! TO.P,J1,7*
G04 #@! TO.N,A3*
X70612000Y6604000D03*
G04 #@! TO.P,J1,6*
G04 #@! TO.N,D2*
X73152000Y4064000D03*
G04 #@! TO.P,J1,5*
G04 #@! TO.N,A2*
X73152000Y6604000D03*
G04 #@! TO.P,J1,4*
G04 #@! TO.N,D1*
X75692000Y4064000D03*
G04 #@! TO.P,J1,3*
G04 #@! TO.N,A1*
X75692000Y6604000D03*
G04 #@! TO.P,J1,2*
G04 #@! TO.N,D0*
X78232000Y4064000D03*
D13*
G04 #@! TO.P,J1,1*
G04 #@! TO.N,A0*
X78232000Y6604000D03*
G04 #@! TD*
D15*
G04 #@! TO.N,RDY*
X30673052Y24704050D03*
X31559500Y9398000D03*
G04 #@! TO.N,A15*
X24255968Y17323484D03*
X35306000Y8953500D03*
G04 #@! TO.N,A14*
X32766000Y32258000D03*
X31115000Y30734000D03*
X36071011Y9398008D03*
G04 #@! TO.N,A13*
X37147500Y10287000D03*
X28520490Y28727466D03*
G04 #@! TO.N,A12*
X38163500Y9842500D03*
G04 #@! TO.N,A11*
X61849000Y36195000D03*
X59499500Y39560500D03*
X43434000Y8509000D03*
G04 #@! TO.N,A10*
X66603677Y35205715D03*
X62611000Y39370000D03*
G04 #@! TO.N,A9*
X36703000Y34036000D03*
X37592000Y31875968D03*
G04 #@! TO.N,A8*
X52705000Y36703000D03*
X54102000Y35246979D03*
G04 #@! TO.N,D7*
X67691000Y35179000D03*
X31231271Y29142021D03*
G04 #@! TO.N,D6*
X52197000Y8255000D03*
X66040000Y32004000D03*
X33626133Y27430968D03*
G04 #@! TO.N,D5*
X53447012Y8461966D03*
X69850000Y32385000D03*
X36449000Y26924000D03*
G04 #@! TO.N,D4*
X55334746Y8949021D03*
X72263000Y32004000D03*
X40596181Y25060867D03*
G04 #@! TO.N,D3*
X57874803Y9399032D03*
X74867002Y31496000D03*
X44130565Y23836061D03*
G04 #@! TO.N,D2*
X60700424Y9849043D03*
X68899944Y28646046D03*
X40453434Y31816434D03*
X39373794Y35810197D03*
X42175584Y28627324D03*
X44778137Y25514946D03*
G04 #@! TO.N,D1*
X63083943Y9754044D03*
X65990503Y28373265D03*
X44196000Y28829000D03*
X45976821Y26530948D03*
X40386000Y35687000D03*
X41373905Y32182941D03*
G04 #@! TO.N,D0*
X65921393Y9754044D03*
X64008000Y30988000D03*
X47484970Y27802251D03*
X46228000Y29210000D03*
X42944272Y32747728D03*
X41275000Y35433000D03*
G04 #@! TO.N,CLK*
X28511500Y17843500D03*
X16954500Y9017000D03*
X27117051Y8709490D03*
G04 #@! TO.N,BE*
X29082998Y17208500D03*
G04 #@! TO.N,SYNC*
X28120510Y27485502D03*
G04 #@! TO.N,R~W~*
X27622500Y17272000D03*
X25590500Y18478500D03*
X24020999Y26606498D03*
G04 #@! TO.N,~INH~*
X24130000Y15049500D03*
X28261864Y13789311D03*
G04 #@! TO.N,~NMI~*
X28120510Y26614035D03*
G04 #@! TO.N,~RESET~*
X24845624Y17964617D03*
G04 #@! TO.N,~IRQ1~*
X18034000Y9080500D03*
G04 #@! TO.N,~IRQ~*
X19939000Y9334502D03*
X29346064Y26140898D03*
G04 #@! TO.N,~IRQ2~*
X18986500Y9334500D03*
G04 #@! TO.N,~IRQ3~*
X20828000Y9398000D03*
G04 #@! TO.N,~SSEL~*
X28445874Y15126817D03*
X23748481Y16705037D03*
G04 #@! TO.N,~ROM_CS~*
X19304000Y48133000D03*
X16824054Y43098020D03*
X13555168Y34974655D03*
X22809183Y9316716D03*
X50482500Y8128000D03*
X30447110Y9555610D03*
G04 #@! TO.N,~RAM_CS~*
X14478000Y42545000D03*
X12763500Y35179000D03*
G04 #@! TO.N,~RAMW~*
X18796000Y43180000D03*
X14605000Y34861500D03*
G04 #@! TO.N,~IRQ4~*
X21746199Y9363699D03*
G04 #@! TO.N,~IRQ5~*
X28003500Y8890000D03*
X23749000Y10223500D03*
G04 #@! TD*
D16*
G04 #@! TO.N,RDY*
X32512000Y8445500D02*
X31559500Y9398000D01*
X32512000Y6604000D02*
X32512000Y8445500D01*
X40288941Y23211059D02*
X38795950Y24704050D01*
X69217881Y23878881D02*
X49577890Y23878881D01*
X48910068Y23211059D02*
X40288941Y23211059D01*
X49577890Y23878881D02*
X48910068Y23211059D01*
X38795950Y24704050D02*
X30673052Y24704050D01*
X75438000Y30099000D02*
X69217881Y23878881D01*
G04 #@! TO.N,A15*
X25513964Y16065488D02*
X24255968Y17323484D01*
X38671512Y16065488D02*
X25513964Y16065488D01*
X39878000Y14859000D02*
X38671512Y16065488D01*
X35052000Y8699500D02*
X35306000Y8953500D01*
X35052000Y6604000D02*
X35052000Y8699500D01*
G04 #@! TO.N,A14*
X31242000Y30734000D02*
X31115000Y30734000D01*
X32766000Y32258000D02*
X31242000Y30734000D01*
X37592000Y7877019D02*
X36071011Y9398008D01*
X37592000Y6604000D02*
X37592000Y7877019D01*
G04 #@! TO.N,A13*
X40132000Y6604000D02*
X37147500Y9588500D01*
X37147500Y9588500D02*
X37147500Y10287000D01*
X40559810Y34161976D02*
X40232996Y33835162D01*
X42350012Y35109602D02*
X42350012Y34946599D01*
X42350012Y34946599D02*
X41565389Y34161976D01*
X40232996Y33835162D02*
X39675358Y33835162D01*
X39675358Y33835162D02*
X39241196Y33401000D01*
X50139001Y41453001D02*
X44994035Y36308035D01*
X43548445Y36308035D02*
X42350012Y35109602D01*
X39241196Y33401000D02*
X31354998Y33401000D01*
X31354998Y33401000D02*
X28520490Y30566492D01*
X28520490Y30566492D02*
X28520490Y28727466D01*
X41565389Y34161976D02*
X40559810Y34161976D01*
X44994035Y36308035D02*
X43548445Y36308035D01*
G04 #@! TO.N,A12*
X42672000Y6604000D02*
X39433500Y9842500D01*
X39433500Y9842500D02*
X38163500Y9842500D01*
G04 #@! TO.N,A11*
X57759001Y41453001D02*
X59499500Y39712502D01*
X59499500Y39712502D02*
X59499500Y39560500D01*
X53000203Y35858024D02*
X53464179Y36322000D01*
X43734845Y35858024D02*
X53000203Y35858024D01*
X42800023Y34923202D02*
X43734845Y35858024D01*
X41751789Y33711965D02*
X42800023Y34760199D01*
X40746209Y33711965D02*
X41751789Y33711965D01*
X39861758Y33385151D02*
X40419396Y33385151D01*
X53464179Y36322000D02*
X61722000Y36322000D01*
X39427596Y32950989D02*
X39861758Y33385151D01*
X32279985Y32950989D02*
X39427596Y32950989D01*
X42800023Y34760199D02*
X42800023Y34923202D01*
X29718000Y30389004D02*
X32279985Y32950989D01*
X29718000Y30099000D02*
X29718000Y30389004D01*
X61722000Y36322000D02*
X61849000Y36195000D01*
X40419396Y33385151D02*
X40746209Y33711965D01*
X43434000Y8382000D02*
X43434000Y8509000D01*
X45212000Y6604000D02*
X43434000Y8382000D01*
D17*
G04 #@! TO.N,+5V*
X50292000Y4064000D02*
X47752000Y6604000D01*
X4906000Y56341000D02*
X4953000Y56388000D01*
X4906000Y51816000D02*
X4906000Y56341000D01*
D16*
G04 #@! TO.N,A10*
X62839001Y41453001D02*
X62839001Y39598001D01*
X62839001Y39598001D02*
X62611000Y39370000D01*
X56235695Y35205715D02*
X66603677Y35205715D01*
X53650579Y35871989D02*
X55569421Y35871989D01*
X34659978Y32500978D02*
X39613996Y32500978D01*
X39613996Y32500978D02*
X40048158Y32935140D01*
X40048158Y32935140D02*
X40605796Y32935140D01*
X40605796Y32935140D02*
X40932610Y33261954D01*
X40932610Y33261954D02*
X41938189Y33261954D01*
X32258000Y30099000D02*
X34659978Y32500978D01*
X43250034Y34736802D02*
X43921245Y35408013D01*
X55569421Y35871989D02*
X56235695Y35205715D01*
X41938189Y33261954D02*
X43250034Y34573799D01*
X43250034Y34573799D02*
X43250034Y34736802D01*
X43921245Y35408013D02*
X53186603Y35408013D01*
X53186603Y35408013D02*
X53650579Y35871989D01*
G04 #@! TO.N,A9*
X34798000Y30099000D02*
X36574968Y31875968D01*
X36574968Y31875968D02*
X37592000Y31875968D01*
X54094000Y42578002D02*
X55219001Y41453001D01*
X49599000Y42578002D02*
X54094000Y42578002D01*
X41900001Y35132999D02*
X41900001Y35296001D01*
X49014000Y41202998D02*
X49014000Y41993002D01*
X46101000Y39497000D02*
X47308002Y39497000D01*
X41900001Y35296001D02*
X46101000Y39497000D01*
X40373409Y34611987D02*
X41378989Y34611987D01*
X47308002Y39497000D02*
X49014000Y41202998D01*
X40046596Y34285173D02*
X40373409Y34611987D01*
X36952173Y34285173D02*
X40046596Y34285173D01*
X49014000Y41993002D02*
X49599000Y42578002D01*
X41378989Y34611987D02*
X41900001Y35132999D01*
X36703000Y34036000D02*
X36952173Y34285173D01*
G04 #@! TO.N,A8*
X54102000Y35306000D02*
X54102000Y35306000D01*
X52705000Y41427002D02*
X52679001Y41453001D01*
X52705000Y36703000D02*
X52705000Y41427002D01*
X40234558Y32485129D02*
X40792196Y32485129D01*
X43700045Y34387399D02*
X43700045Y34550402D01*
X42124589Y32811943D02*
X43700045Y34387399D01*
X41119009Y32811943D02*
X42124589Y32811943D01*
X40792196Y32485129D02*
X41119009Y32811943D01*
X53813023Y34958002D02*
X54102000Y35246979D01*
X44107645Y34958002D02*
X53813023Y34958002D01*
X43700045Y34550402D02*
X44107645Y34958002D01*
X37338000Y30099000D02*
X37848429Y30099000D01*
X37848429Y30099000D02*
X40234558Y32485129D01*
G04 #@! TO.N,D7*
X40951987Y28967022D02*
X31406270Y28967022D01*
X41979009Y27940000D02*
X40951987Y28967022D01*
X44578410Y27940000D02*
X41979009Y27940000D01*
X65919002Y32708000D02*
X63681998Y32708000D01*
X66504002Y34222141D02*
X66504002Y33293000D01*
X67460861Y35179000D02*
X66504002Y34222141D01*
X45144401Y28505991D02*
X44578410Y27940000D01*
X61323001Y29319001D02*
X60971022Y28967022D01*
X61323001Y30349003D02*
X61323001Y29319001D01*
X67691000Y35179000D02*
X67460861Y35179000D01*
X66504002Y33293000D02*
X65919002Y32708000D01*
X46668401Y28505991D02*
X45144401Y28505991D01*
X47129432Y28967022D02*
X46668401Y28505991D01*
X60971022Y28967022D02*
X47129432Y28967022D01*
X31406270Y28967022D02*
X31231271Y29142021D01*
X63681998Y32708000D02*
X61323001Y30349003D01*
G04 #@! TO.N,D6*
X61816999Y6978003D02*
X60979629Y7815373D01*
X60979629Y7815373D02*
X52636627Y7815373D01*
X52636627Y7815373D02*
X52197000Y8255000D01*
X62992000Y4064000D02*
X61816999Y5239001D01*
X61816999Y5239001D02*
X61816999Y6978003D01*
X33655000Y27559000D02*
X33655000Y27559000D01*
X65818001Y28973999D02*
X65043409Y28973999D01*
X45137610Y26589967D02*
X41223802Y26589967D01*
X66040000Y32004000D02*
X66403001Y31640999D01*
X66403001Y31640999D02*
X66403001Y29558999D01*
X66403001Y29558999D02*
X65818001Y28973999D01*
X33801132Y27605967D02*
X33626133Y27430968D01*
X63098368Y27028958D02*
X48273089Y27028958D01*
X48273089Y27028958D02*
X47971371Y26727239D01*
X46998569Y26727239D02*
X46569850Y27155958D01*
X46569850Y27155958D02*
X45703601Y27155958D01*
X40207802Y27605967D02*
X33801132Y27605967D01*
X47971371Y26727239D02*
X46998569Y26727239D01*
X65043409Y28973999D02*
X63098368Y27028958D01*
X45703601Y27155958D02*
X45137610Y26589967D01*
X41223802Y26589967D02*
X40207802Y27605967D01*
G04 #@! TO.N,D5*
X53613470Y8295508D02*
X53447012Y8461966D01*
X61652411Y7779001D02*
X61135904Y8295508D01*
X61135904Y8295508D02*
X53613470Y8295508D01*
X64356999Y6978003D02*
X63556001Y7779001D01*
X63556001Y7779001D02*
X61652411Y7779001D01*
X64356999Y5239001D02*
X64356999Y6978003D01*
X65532000Y4064000D02*
X64356999Y5239001D01*
X36449000Y26924000D02*
X36449000Y26924000D01*
X69850000Y32385000D02*
X69192189Y31727189D01*
X45312992Y26139956D02*
X41037402Y26139956D01*
X40253358Y26924000D02*
X36449000Y26924000D01*
X41037402Y26139956D02*
X40253358Y26924000D01*
X69192189Y31727189D02*
X69192189Y29862999D01*
X69192189Y29862999D02*
X65458126Y26128936D01*
X45625731Y25827217D02*
X45312992Y26139956D01*
X48344171Y25827217D02*
X45625731Y25827217D01*
X48645889Y26128936D02*
X48344171Y25827217D01*
X65458126Y26128936D02*
X48645889Y26128936D01*
G04 #@! TO.N,D4*
X63742401Y8229012D02*
X61838811Y8229012D01*
X66096001Y7779001D02*
X64192411Y7779001D01*
X66707001Y5428999D02*
X66707001Y7168001D01*
X61838811Y8229012D02*
X61293802Y8774022D01*
X55509745Y8774022D02*
X55334746Y8949021D01*
X61293802Y8774022D02*
X55509745Y8774022D01*
X64192411Y7779001D02*
X63742401Y8229012D01*
X66707001Y7168001D02*
X66096001Y7779001D01*
X68072000Y4064000D02*
X66707001Y5428999D01*
X67577903Y24778903D02*
X49205090Y24778903D01*
X49205090Y24778903D02*
X48866121Y24439934D01*
X71772999Y28973999D02*
X67577903Y24778903D01*
X40896180Y24760868D02*
X40596181Y25060867D01*
X48866121Y24439934D02*
X44291736Y24439934D01*
X44291736Y24439934D02*
X43970803Y24760868D01*
X72263000Y32004000D02*
X71772999Y31513999D01*
X43970803Y24760868D02*
X40896180Y24760868D01*
X71772999Y31513999D02*
X71772999Y28973999D01*
G04 #@! TO.N,D3*
X63928801Y8679023D02*
X62025211Y8679023D01*
X58049802Y9224033D02*
X57874803Y9399032D01*
X68185990Y8229012D02*
X64378811Y8229012D01*
X62025211Y8679023D02*
X61480202Y9224033D01*
X69247001Y5428999D02*
X69247001Y7168001D01*
X64378811Y8229012D02*
X63928801Y8679023D01*
X70612000Y4064000D02*
X69247001Y5428999D01*
X61480202Y9224033D02*
X58049802Y9224033D01*
X69247001Y7168001D02*
X68185990Y8229012D01*
X49391489Y24328892D02*
X48898658Y23836061D01*
X48898658Y23836061D02*
X44130565Y23836061D01*
X74867002Y31496000D02*
X74312999Y30941997D01*
X68792894Y24328892D02*
X49391489Y24328892D01*
X74312999Y29848997D02*
X68792894Y24328892D01*
X74312999Y30941997D02*
X74312999Y29848997D01*
G04 #@! TO.N,D2*
X71976999Y6978003D02*
X70275979Y8679023D01*
X70275979Y8679023D02*
X64565211Y8679023D01*
X64115201Y9129034D02*
X62211611Y9129034D01*
X64565211Y8679023D02*
X64115201Y9129034D01*
X62211611Y9129034D02*
X61491602Y9849043D01*
X71976999Y5239001D02*
X71976999Y6978003D01*
X73152000Y4064000D02*
X71976999Y5239001D01*
X61491602Y9849043D02*
X60700424Y9849043D01*
X41003001Y29799907D02*
X42175584Y28627324D01*
X40453434Y31816434D02*
X41003001Y31266867D01*
X41003001Y31266867D02*
X41003001Y29799907D01*
X48530571Y25377206D02*
X44915877Y25377206D01*
X44915877Y25377206D02*
X44778137Y25514946D01*
X68899944Y28646046D02*
X65932823Y25678925D01*
X65932823Y25678925D02*
X48832290Y25678925D01*
X48832290Y25678925D02*
X48530571Y25377206D01*
X33657820Y41148000D02*
X38995623Y35810197D01*
X32893000Y41148000D02*
X33657820Y41148000D01*
X38995623Y35810197D02*
X39373794Y35810197D01*
G04 #@! TO.N,D1*
X72365968Y9129034D02*
X64751611Y9129034D01*
X75692000Y4064000D02*
X74516999Y5239001D01*
X74516999Y5239001D02*
X74516999Y6978003D01*
X64126601Y9754044D02*
X63083943Y9754044D01*
X74516999Y6978003D02*
X72365968Y9129034D01*
X64751611Y9129034D02*
X64126601Y9754044D01*
X44196000Y28829000D02*
X44323000Y28829000D01*
X65990503Y28373265D02*
X64196185Y26578947D01*
X46558449Y26530948D02*
X45976821Y26530948D01*
X48459490Y26578947D02*
X48157771Y26277228D01*
X64196185Y26578947D02*
X48459490Y26578947D01*
X46812169Y26277228D02*
X46558449Y26530948D01*
X48157771Y26277228D02*
X46812169Y26277228D01*
X44196000Y28829000D02*
X43832999Y29192001D01*
X43832999Y30378265D02*
X42028323Y32182941D01*
X42028323Y32182941D02*
X41373905Y32182941D01*
X43832999Y29192001D02*
X43832999Y30378265D01*
X40168004Y35687000D02*
X40386000Y35687000D01*
X31680991Y39820009D02*
X34349402Y39820009D01*
X38984216Y35185195D02*
X39666199Y35185195D01*
X34349402Y39820009D02*
X38984216Y35185195D01*
X30353000Y41148000D02*
X31680991Y39820009D01*
X39666199Y35185195D02*
X40168004Y35687000D01*
G04 #@! TO.N,D0*
X74383002Y9652000D02*
X66023437Y9652000D01*
X77056999Y6978003D02*
X74383002Y9652000D01*
X77056999Y5239001D02*
X77056999Y6978003D01*
X66023437Y9652000D02*
X65921393Y9754044D01*
X78232000Y4064000D02*
X77056999Y5239001D01*
X62241525Y27955757D02*
X47638476Y27955757D01*
X64008000Y29722232D02*
X62241525Y27955757D01*
X64008000Y30988000D02*
X64008000Y29722232D01*
X47638476Y27955757D02*
X47484970Y27802251D01*
X46228000Y29210000D02*
X46228000Y29083000D01*
X46228000Y29210000D02*
X46228000Y30494002D01*
X46228000Y30494002D02*
X43974274Y32747728D01*
X43974274Y32747728D02*
X42944272Y32747728D01*
X39860196Y34735184D02*
X40187010Y35061998D01*
X40903998Y35061998D02*
X41275000Y35433000D01*
X40187010Y35061998D02*
X40903998Y35061998D01*
X27813000Y41148000D02*
X28575000Y41148000D01*
X38672184Y34735184D02*
X39860196Y34735184D01*
X38672184Y34735184D02*
X38672184Y34797316D01*
X38672184Y34797316D02*
X34131250Y39338250D01*
X34131250Y39338250D02*
X30384750Y39338250D01*
X28575000Y41148000D02*
X30384750Y39338250D01*
G04 #@! TO.N,CLK*
X70358000Y14859000D02*
X67373500Y17843500D01*
X67373500Y17843500D02*
X28511500Y17843500D01*
X16954500Y9017000D02*
X16954500Y9017000D01*
X23024497Y10023001D02*
X24338008Y8709490D01*
X24338008Y8709490D02*
X27117051Y8709490D01*
X16954500Y9017000D02*
X17960501Y10023001D01*
X17960501Y10023001D02*
X23024497Y10023001D01*
G04 #@! TO.N,BE*
X65468500Y17208500D02*
X29082998Y17208500D01*
X67818000Y14859000D02*
X65468500Y17208500D01*
G04 #@! TO.N,SYNC*
X46854801Y28055980D02*
X45330801Y28055980D01*
X61157422Y28517011D02*
X47315832Y28517011D01*
X40569580Y28517011D02*
X29576283Y28517011D01*
X29576283Y28517011D02*
X28544774Y27485502D01*
X28544774Y27485502D02*
X28120510Y27485502D01*
X47315832Y28517011D02*
X46854801Y28055980D01*
X62738000Y30099000D02*
X62738000Y30097590D01*
X45330801Y28055980D02*
X44764810Y27489989D01*
X41596602Y27489989D02*
X40569580Y28517011D01*
X62738000Y30097590D02*
X61157422Y28517011D01*
X44764810Y27489989D02*
X41596602Y27489989D01*
G04 #@! TO.N,R~W~*
X28366999Y16527501D02*
X27622500Y17272000D01*
X61069499Y16527501D02*
X28366999Y16527501D01*
X62738000Y14859000D02*
X61069499Y16527501D01*
X27622500Y17272000D02*
X26797000Y17272000D01*
X26797000Y17272000D02*
X25590500Y18478500D01*
X25590500Y18478500D02*
X25590500Y18478500D01*
X25146000Y30162500D02*
X24020999Y29037499D01*
X24020999Y29037499D02*
X24020999Y26606498D01*
G04 #@! TO.N,~INH~*
X24130000Y15049500D02*
X24130000Y15049500D01*
X27001675Y15049500D02*
X28261864Y13789311D01*
X24130000Y15049500D02*
X27001675Y15049500D01*
G04 #@! TO.N,~NMI~*
X40383180Y28067000D02*
X29997739Y28067000D01*
X45517201Y27605969D02*
X44951210Y27039978D01*
X65278000Y30099000D02*
X62657969Y27478969D01*
X48086690Y27478969D02*
X47784971Y27177250D01*
X47188055Y27177250D02*
X46759336Y27605969D01*
X46759336Y27605969D02*
X45517201Y27605969D01*
X29997739Y28067000D02*
X28544774Y26614035D01*
X28544774Y26614035D02*
X28120510Y26614035D01*
X62657969Y27478969D02*
X48086690Y27478969D01*
X47784971Y27177250D02*
X47188055Y27177250D01*
X44951210Y27039978D02*
X41410202Y27039978D01*
X41410202Y27039978D02*
X40383180Y28067000D01*
G04 #@! TO.N,~RESET~*
X24845624Y18624034D02*
X24845624Y17964617D01*
X25335090Y19113500D02*
X24845624Y18624034D01*
X73723500Y19113500D02*
X25335090Y19113500D01*
X77978000Y14859000D02*
X73723500Y19113500D01*
G04 #@! TO.N,~IRQ1~*
X19812000Y4064000D02*
X18460999Y5415001D01*
X18460999Y5415001D02*
X18460999Y8653501D01*
X18460999Y8653501D02*
X18034000Y9080500D01*
G04 #@! TO.N,~IRQ~*
X22352000Y6604000D02*
X22352000Y6921502D01*
X22352000Y6921502D02*
X19939000Y9334502D01*
X49018689Y25228914D02*
X48679720Y24889945D01*
X70358000Y28967630D02*
X66619284Y25228914D01*
X44478136Y24889945D02*
X44001145Y25366936D01*
X70358000Y30099000D02*
X70358000Y28967630D01*
X48679720Y24889945D02*
X44478136Y24889945D01*
X66619284Y25228914D02*
X49018689Y25228914D01*
X41174009Y25366936D02*
X40400047Y26140898D01*
X40400047Y26140898D02*
X29346064Y26140898D01*
X44001145Y25366936D02*
X41174009Y25366936D01*
G04 #@! TO.N,~IRQ2~*
X20987001Y7333999D02*
X18986500Y9334500D01*
X22352000Y4064000D02*
X20987001Y5428999D01*
X20987001Y5428999D02*
X20987001Y7333999D01*
G04 #@! TO.N,~IRQ3~*
X24892000Y4064000D02*
X23716999Y5239001D01*
X23716999Y6946001D02*
X22467012Y8195988D01*
X23716999Y5239001D02*
X23716999Y6946001D01*
X22030012Y8195988D02*
X20828000Y9398000D01*
X22467012Y8195988D02*
X22030012Y8195988D01*
G04 #@! TO.N,~SSEL~*
X28445874Y15126817D02*
X28073180Y15499511D01*
X24954007Y15499511D02*
X23748481Y16705037D01*
X28073180Y15499511D02*
X24954007Y15499511D01*
G04 #@! TO.N,~ROM_CS~*
X19304000Y54737000D02*
X17653000Y56388000D01*
X19304000Y48133000D02*
X19304000Y54737000D01*
X16256000Y42529966D02*
X16256000Y40514411D01*
X16256000Y40514411D02*
X14154989Y38413400D01*
X16824054Y43098020D02*
X16256000Y42529966D01*
X14154989Y38413400D02*
X14154989Y35574476D01*
X14154989Y35574476D02*
X13555168Y34974655D01*
X51467001Y7143499D02*
X50482500Y8128000D01*
X51467001Y5428999D02*
X51467001Y7143499D01*
X52832000Y4064000D02*
X51467001Y5428999D01*
X28975988Y8084488D02*
X30447110Y9555610D01*
X26646537Y8255000D02*
X26817049Y8084488D01*
X23870899Y8255000D02*
X26646537Y8255000D01*
X22809183Y9316716D02*
X23870899Y8255000D01*
X26817049Y8084488D02*
X28975988Y8084488D01*
G04 #@! TO.N,~RAM_CS~*
X14478000Y42545000D02*
X14478000Y42545000D01*
X14478000Y42545000D02*
X13704978Y41771978D01*
X13704978Y41771978D02*
X13704978Y36120478D01*
X13704978Y36120478D02*
X12763500Y35179000D01*
G04 #@! TO.N,~RAMW~*
X14605000Y34861500D02*
X14605000Y34861500D01*
X14605000Y38227000D02*
X14605000Y34861500D01*
X18796000Y40449500D02*
X18097500Y39751000D01*
X18097500Y39751000D02*
X16129000Y39751000D01*
X16129000Y39751000D02*
X14605000Y38227000D01*
X18796000Y43180000D02*
X18796000Y40449500D01*
G04 #@! TO.N,~IRQ4~*
X22843489Y8645999D02*
X22463899Y8645999D01*
X27432000Y4064000D02*
X26256999Y5239001D01*
X26256999Y5239001D02*
X26256999Y6978003D01*
X25430013Y7804989D02*
X23684499Y7804989D01*
X22463899Y8645999D02*
X21746199Y9363699D01*
X26256999Y6978003D02*
X25430013Y7804989D01*
X23684499Y7804989D02*
X22843489Y8645999D01*
G04 #@! TO.N,~IRQ5~*
X28003500Y8890000D02*
X26670000Y10223500D01*
X26670000Y10223500D02*
X23749000Y10223500D01*
G04 #@! TD*
D18*
G04 #@! TO.N,GND*
X2125353Y59386000D02*
X78646647Y59386000D01*
X78740956Y59395289D01*
X78903542Y59379347D01*
X79183018Y59294969D01*
X79440780Y59157915D01*
X79667015Y58973401D01*
X79853103Y58748460D01*
X79991956Y58491658D01*
X80078282Y58212781D01*
X80096365Y58040731D01*
X80087000Y57945646D01*
X80087001Y685000D01*
X14218381Y685000D01*
X8153121Y6750260D01*
X15787000Y6750260D01*
X15787000Y6457740D01*
X15844068Y6170842D01*
X15956010Y5900589D01*
X16118525Y5657368D01*
X16325368Y5450525D01*
X16499760Y5334000D01*
X16325368Y5217475D01*
X16118525Y5010632D01*
X15956010Y4767411D01*
X15844068Y4497158D01*
X15787000Y4210260D01*
X15787000Y3917740D01*
X15844068Y3630842D01*
X15956010Y3360589D01*
X16118525Y3117368D01*
X16325368Y2910525D01*
X16568589Y2748010D01*
X16838842Y2636068D01*
X17125740Y2579000D01*
X17418260Y2579000D01*
X17705158Y2636068D01*
X17975411Y2748010D01*
X18218632Y2910525D01*
X18425475Y3117368D01*
X18542000Y3291760D01*
X18658525Y3117368D01*
X18865368Y2910525D01*
X19108589Y2748010D01*
X19378842Y2636068D01*
X19665740Y2579000D01*
X19958260Y2579000D01*
X20245158Y2636068D01*
X20515411Y2748010D01*
X20758632Y2910525D01*
X20965475Y3117368D01*
X21082000Y3291760D01*
X21198525Y3117368D01*
X21405368Y2910525D01*
X21648589Y2748010D01*
X21918842Y2636068D01*
X22205740Y2579000D01*
X22498260Y2579000D01*
X22785158Y2636068D01*
X23055411Y2748010D01*
X23298632Y2910525D01*
X23505475Y3117368D01*
X23622000Y3291760D01*
X23738525Y3117368D01*
X23945368Y2910525D01*
X24188589Y2748010D01*
X24458842Y2636068D01*
X24745740Y2579000D01*
X25038260Y2579000D01*
X25325158Y2636068D01*
X25595411Y2748010D01*
X25838632Y2910525D01*
X26045475Y3117368D01*
X26162000Y3291760D01*
X26278525Y3117368D01*
X26485368Y2910525D01*
X26728589Y2748010D01*
X26998842Y2636068D01*
X27285740Y2579000D01*
X27578260Y2579000D01*
X27865158Y2636068D01*
X28135411Y2748010D01*
X28378632Y2910525D01*
X28585475Y3117368D01*
X28702000Y3291760D01*
X28818525Y3117368D01*
X29025368Y2910525D01*
X29268589Y2748010D01*
X29538842Y2636068D01*
X29825740Y2579000D01*
X30118260Y2579000D01*
X30405158Y2636068D01*
X30675411Y2748010D01*
X30918632Y2910525D01*
X31125475Y3117368D01*
X31242000Y3291760D01*
X31358525Y3117368D01*
X31565368Y2910525D01*
X31808589Y2748010D01*
X32078842Y2636068D01*
X32365740Y2579000D01*
X32658260Y2579000D01*
X32945158Y2636068D01*
X33215411Y2748010D01*
X33458632Y2910525D01*
X33665475Y3117368D01*
X33782000Y3291760D01*
X33898525Y3117368D01*
X34105368Y2910525D01*
X34348589Y2748010D01*
X34618842Y2636068D01*
X34905740Y2579000D01*
X35198260Y2579000D01*
X35485158Y2636068D01*
X35755411Y2748010D01*
X35998632Y2910525D01*
X36205475Y3117368D01*
X36322000Y3291760D01*
X36438525Y3117368D01*
X36645368Y2910525D01*
X36888589Y2748010D01*
X37158842Y2636068D01*
X37445740Y2579000D01*
X37738260Y2579000D01*
X38025158Y2636068D01*
X38295411Y2748010D01*
X38538632Y2910525D01*
X38745475Y3117368D01*
X38862000Y3291760D01*
X38978525Y3117368D01*
X39185368Y2910525D01*
X39428589Y2748010D01*
X39698842Y2636068D01*
X39985740Y2579000D01*
X40278260Y2579000D01*
X40565158Y2636068D01*
X40835411Y2748010D01*
X41078632Y2910525D01*
X41285475Y3117368D01*
X41402000Y3291760D01*
X41518525Y3117368D01*
X41725368Y2910525D01*
X41968589Y2748010D01*
X42238842Y2636068D01*
X42525740Y2579000D01*
X42818260Y2579000D01*
X43105158Y2636068D01*
X43375411Y2748010D01*
X43618632Y2910525D01*
X43825475Y3117368D01*
X43942000Y3291760D01*
X44058525Y3117368D01*
X44265368Y2910525D01*
X44508589Y2748010D01*
X44778842Y2636068D01*
X45065740Y2579000D01*
X45358260Y2579000D01*
X45645158Y2636068D01*
X45915411Y2748010D01*
X46158632Y2910525D01*
X46365475Y3117368D01*
X46487195Y3299534D01*
X46556822Y3182645D01*
X46751731Y2966412D01*
X46985080Y2792359D01*
X47247901Y2667175D01*
X47395110Y2622524D01*
X47625000Y2743845D01*
X47625000Y3937000D01*
X47605000Y3937000D01*
X47605000Y4191000D01*
X47625000Y4191000D01*
X47625000Y4211000D01*
X47879000Y4211000D01*
X47879000Y4191000D01*
X47899000Y4191000D01*
X47899000Y3937000D01*
X47879000Y3937000D01*
X47879000Y2743845D01*
X48108890Y2622524D01*
X48256099Y2667175D01*
X48518920Y2792359D01*
X48752269Y2966412D01*
X48947178Y3182645D01*
X49016805Y3299534D01*
X49138525Y3117368D01*
X49345368Y2910525D01*
X49588589Y2748010D01*
X49858842Y2636068D01*
X50145740Y2579000D01*
X50438260Y2579000D01*
X50725158Y2636068D01*
X50995411Y2748010D01*
X51238632Y2910525D01*
X51445475Y3117368D01*
X51562000Y3291760D01*
X51678525Y3117368D01*
X51885368Y2910525D01*
X52128589Y2748010D01*
X52398842Y2636068D01*
X52685740Y2579000D01*
X52978260Y2579000D01*
X53265158Y2636068D01*
X53535411Y2748010D01*
X53778632Y2910525D01*
X53985475Y3117368D01*
X54102000Y3291760D01*
X54218525Y3117368D01*
X54425368Y2910525D01*
X54668589Y2748010D01*
X54938842Y2636068D01*
X55225740Y2579000D01*
X55518260Y2579000D01*
X55805158Y2636068D01*
X56075411Y2748010D01*
X56318632Y2910525D01*
X56525475Y3117368D01*
X56642000Y3291760D01*
X56758525Y3117368D01*
X56965368Y2910525D01*
X57208589Y2748010D01*
X57478842Y2636068D01*
X57765740Y2579000D01*
X58058260Y2579000D01*
X58345158Y2636068D01*
X58615411Y2748010D01*
X58858632Y2910525D01*
X59065475Y3117368D01*
X59182000Y3291760D01*
X59298525Y3117368D01*
X59505368Y2910525D01*
X59748589Y2748010D01*
X60018842Y2636068D01*
X60305740Y2579000D01*
X60598260Y2579000D01*
X60885158Y2636068D01*
X61155411Y2748010D01*
X61398632Y2910525D01*
X61605475Y3117368D01*
X61722000Y3291760D01*
X61838525Y3117368D01*
X62045368Y2910525D01*
X62288589Y2748010D01*
X62558842Y2636068D01*
X62845740Y2579000D01*
X63138260Y2579000D01*
X63425158Y2636068D01*
X63695411Y2748010D01*
X63938632Y2910525D01*
X64145475Y3117368D01*
X64262000Y3291760D01*
X64378525Y3117368D01*
X64585368Y2910525D01*
X64828589Y2748010D01*
X65098842Y2636068D01*
X65385740Y2579000D01*
X65678260Y2579000D01*
X65965158Y2636068D01*
X66235411Y2748010D01*
X66478632Y2910525D01*
X66685475Y3117368D01*
X66802000Y3291760D01*
X66918525Y3117368D01*
X67125368Y2910525D01*
X67368589Y2748010D01*
X67638842Y2636068D01*
X67925740Y2579000D01*
X68218260Y2579000D01*
X68505158Y2636068D01*
X68775411Y2748010D01*
X69018632Y2910525D01*
X69225475Y3117368D01*
X69342000Y3291760D01*
X69458525Y3117368D01*
X69665368Y2910525D01*
X69908589Y2748010D01*
X70178842Y2636068D01*
X70465740Y2579000D01*
X70758260Y2579000D01*
X71045158Y2636068D01*
X71315411Y2748010D01*
X71558632Y2910525D01*
X71765475Y3117368D01*
X71882000Y3291760D01*
X71998525Y3117368D01*
X72205368Y2910525D01*
X72448589Y2748010D01*
X72718842Y2636068D01*
X73005740Y2579000D01*
X73298260Y2579000D01*
X73585158Y2636068D01*
X73855411Y2748010D01*
X74098632Y2910525D01*
X74305475Y3117368D01*
X74422000Y3291760D01*
X74538525Y3117368D01*
X74745368Y2910525D01*
X74988589Y2748010D01*
X75258842Y2636068D01*
X75545740Y2579000D01*
X75838260Y2579000D01*
X76125158Y2636068D01*
X76395411Y2748010D01*
X76638632Y2910525D01*
X76845475Y3117368D01*
X76962000Y3291760D01*
X77078525Y3117368D01*
X77285368Y2910525D01*
X77528589Y2748010D01*
X77798842Y2636068D01*
X78085740Y2579000D01*
X78378260Y2579000D01*
X78665158Y2636068D01*
X78935411Y2748010D01*
X79178632Y2910525D01*
X79385475Y3117368D01*
X79547990Y3360589D01*
X79659932Y3630842D01*
X79717000Y3917740D01*
X79717000Y4210260D01*
X79659932Y4497158D01*
X79547990Y4767411D01*
X79385475Y5010632D01*
X79253620Y5142487D01*
X79326180Y5164498D01*
X79436494Y5223463D01*
X79533185Y5302815D01*
X79612537Y5399506D01*
X79671502Y5509820D01*
X79707812Y5629518D01*
X79720072Y5754000D01*
X79720072Y7454000D01*
X79707812Y7578482D01*
X79671502Y7698180D01*
X79612537Y7808494D01*
X79533185Y7905185D01*
X79436494Y7984537D01*
X79326180Y8043502D01*
X79206482Y8079812D01*
X79082000Y8092072D01*
X77382000Y8092072D01*
X77257518Y8079812D01*
X77137820Y8043502D01*
X77091214Y8018590D01*
X74946806Y10162997D01*
X74923003Y10192001D01*
X74807278Y10286974D01*
X74675249Y10357546D01*
X74531988Y10401003D01*
X74420335Y10412000D01*
X74420324Y10412000D01*
X74383002Y10415676D01*
X74345680Y10412000D01*
X66585727Y10412000D01*
X66517421Y10480306D01*
X66364282Y10582630D01*
X66194122Y10653112D01*
X66013482Y10689044D01*
X65829304Y10689044D01*
X65648664Y10653112D01*
X65478504Y10582630D01*
X65325365Y10480306D01*
X65195131Y10350072D01*
X65092807Y10196933D01*
X65022325Y10026773D01*
X65006787Y9948659D01*
X64690404Y10265042D01*
X64666602Y10294045D01*
X64550877Y10389018D01*
X64418848Y10459590D01*
X64275587Y10503047D01*
X64163934Y10514044D01*
X64163923Y10514044D01*
X64126601Y10517720D01*
X64089279Y10514044D01*
X63629478Y10514044D01*
X63526832Y10582630D01*
X63356672Y10653112D01*
X63176032Y10689044D01*
X62991854Y10689044D01*
X62811214Y10653112D01*
X62641054Y10582630D01*
X62487915Y10480306D01*
X62357681Y10350072D01*
X62255357Y10196933D01*
X62244566Y10170881D01*
X62055405Y10360041D01*
X62031603Y10389044D01*
X61915878Y10484017D01*
X61783849Y10554589D01*
X61640588Y10598046D01*
X61528935Y10609043D01*
X61528924Y10609043D01*
X61491602Y10612719D01*
X61454280Y10609043D01*
X61245959Y10609043D01*
X61143313Y10677629D01*
X60973153Y10748111D01*
X60792513Y10784043D01*
X60608335Y10784043D01*
X60427695Y10748111D01*
X60257535Y10677629D01*
X60104396Y10575305D01*
X59974162Y10445071D01*
X59871838Y10291932D01*
X59801356Y10121772D01*
X59773958Y9984033D01*
X58608433Y9984033D01*
X58601065Y9995060D01*
X58470831Y10125294D01*
X58317692Y10227618D01*
X58147532Y10298100D01*
X57966892Y10334032D01*
X57782714Y10334032D01*
X57602074Y10298100D01*
X57431914Y10227618D01*
X57278775Y10125294D01*
X57148541Y9995060D01*
X57046217Y9841921D01*
X56975735Y9671761D01*
X56948337Y9534022D01*
X56068376Y9534022D01*
X56061008Y9545049D01*
X55930774Y9675283D01*
X55777635Y9777607D01*
X55607475Y9848089D01*
X55426835Y9884021D01*
X55242657Y9884021D01*
X55062017Y9848089D01*
X54891857Y9777607D01*
X54738718Y9675283D01*
X54608484Y9545049D01*
X54506160Y9391910D01*
X54435678Y9221750D01*
X54402610Y9055508D01*
X54174935Y9055508D01*
X54173274Y9057994D01*
X54043040Y9188228D01*
X53889901Y9290552D01*
X53719741Y9361034D01*
X53539101Y9396966D01*
X53354923Y9396966D01*
X53174283Y9361034D01*
X53004123Y9290552D01*
X52850984Y9188228D01*
X52720750Y9057994D01*
X52707614Y9038334D01*
X52639889Y9083586D01*
X52469729Y9154068D01*
X52289089Y9190000D01*
X52104911Y9190000D01*
X51924271Y9154068D01*
X51754111Y9083586D01*
X51600972Y8981262D01*
X51470738Y8851028D01*
X51368414Y8697889D01*
X51313448Y8565187D01*
X51311086Y8570889D01*
X51208762Y8724028D01*
X51078528Y8854262D01*
X50925389Y8956586D01*
X50755229Y9027068D01*
X50574589Y9063000D01*
X50390411Y9063000D01*
X50209771Y9027068D01*
X50039611Y8956586D01*
X49886472Y8854262D01*
X49756238Y8724028D01*
X49653914Y8570889D01*
X49583432Y8400729D01*
X49547500Y8220089D01*
X49547500Y8035911D01*
X49574681Y7899266D01*
X49525080Y7875641D01*
X49291731Y7701588D01*
X49096822Y7485355D01*
X49027195Y7368466D01*
X48905475Y7550632D01*
X48698632Y7757475D01*
X48455411Y7919990D01*
X48185158Y8031932D01*
X47898260Y8089000D01*
X47605740Y8089000D01*
X47318842Y8031932D01*
X47048589Y7919990D01*
X46805368Y7757475D01*
X46598525Y7550632D01*
X46482000Y7376240D01*
X46365475Y7550632D01*
X46158632Y7757475D01*
X45915411Y7919990D01*
X45645158Y8031932D01*
X45358260Y8089000D01*
X45065740Y8089000D01*
X44845592Y8045210D01*
X44369000Y8521801D01*
X44369000Y8601089D01*
X44333068Y8781729D01*
X44262586Y8951889D01*
X44160262Y9105028D01*
X44030028Y9235262D01*
X43876889Y9337586D01*
X43706729Y9408068D01*
X43526089Y9444000D01*
X43341911Y9444000D01*
X43161271Y9408068D01*
X42991111Y9337586D01*
X42837972Y9235262D01*
X42707738Y9105028D01*
X42605414Y8951889D01*
X42534932Y8781729D01*
X42499000Y8601089D01*
X42499000Y8416911D01*
X42534932Y8236271D01*
X42595933Y8089000D01*
X42525740Y8089000D01*
X42305592Y8045210D01*
X39997304Y10353497D01*
X39973501Y10382501D01*
X39857776Y10477474D01*
X39725747Y10548046D01*
X39582486Y10591503D01*
X39470833Y10602500D01*
X39470822Y10602500D01*
X39433500Y10606176D01*
X39396178Y10602500D01*
X38709035Y10602500D01*
X38606389Y10671086D01*
X38436229Y10741568D01*
X38255589Y10777500D01*
X38071411Y10777500D01*
X37959189Y10755177D01*
X37873762Y10883028D01*
X37743528Y11013262D01*
X37590389Y11115586D01*
X37420229Y11186068D01*
X37239589Y11222000D01*
X37055411Y11222000D01*
X36874771Y11186068D01*
X36704611Y11115586D01*
X36551472Y11013262D01*
X36421238Y10883028D01*
X36318914Y10729889D01*
X36248432Y10559729D01*
X36212500Y10379089D01*
X36212500Y10323182D01*
X36163100Y10333008D01*
X35978922Y10333008D01*
X35798282Y10297076D01*
X35628122Y10226594D01*
X35474983Y10124270D01*
X35344749Y9994036D01*
X35274232Y9888500D01*
X35213911Y9888500D01*
X35033271Y9852568D01*
X34863111Y9782086D01*
X34709972Y9679762D01*
X34579738Y9549528D01*
X34477414Y9396389D01*
X34406932Y9226229D01*
X34371000Y9045589D01*
X34371000Y9037668D01*
X34346454Y8991746D01*
X34325298Y8922001D01*
X34302998Y8848486D01*
X34295038Y8767671D01*
X34288324Y8699500D01*
X34292001Y8662168D01*
X34292001Y7882179D01*
X34105368Y7757475D01*
X33898525Y7550632D01*
X33782000Y7376240D01*
X33665475Y7550632D01*
X33458632Y7757475D01*
X33272000Y7882178D01*
X33272000Y8408178D01*
X33275676Y8445501D01*
X33272000Y8482824D01*
X33272000Y8482833D01*
X33261003Y8594486D01*
X33217546Y8737747D01*
X33146974Y8869776D01*
X33130377Y8890000D01*
X33075799Y8956504D01*
X33075795Y8956508D01*
X33052001Y8985501D01*
X33023008Y9009295D01*
X32482653Y9549649D01*
X32458568Y9670729D01*
X32388086Y9840889D01*
X32285762Y9994028D01*
X32155528Y10124262D01*
X32002389Y10226586D01*
X31832229Y10297068D01*
X31651589Y10333000D01*
X31467411Y10333000D01*
X31286771Y10297068D01*
X31116611Y10226586D01*
X31105709Y10219301D01*
X31043138Y10281872D01*
X30889999Y10384196D01*
X30719839Y10454678D01*
X30539199Y10490610D01*
X30355021Y10490610D01*
X30174381Y10454678D01*
X30004221Y10384196D01*
X29851082Y10281872D01*
X29720848Y10151638D01*
X29618524Y9998499D01*
X29548042Y9828339D01*
X29523957Y9707259D01*
X28915320Y9098621D01*
X28902568Y9162729D01*
X28832086Y9332889D01*
X28729762Y9486028D01*
X28599528Y9616262D01*
X28446389Y9718586D01*
X28276229Y9789068D01*
X28155149Y9813153D01*
X27233804Y10734497D01*
X27210001Y10763501D01*
X27094276Y10858474D01*
X26962247Y10929046D01*
X26818986Y10972503D01*
X26707333Y10983500D01*
X26707322Y10983500D01*
X26670000Y10987176D01*
X26632678Y10983500D01*
X24294535Y10983500D01*
X24191889Y11052086D01*
X24021729Y11122568D01*
X23841089Y11158500D01*
X23656911Y11158500D01*
X23476271Y11122568D01*
X23306111Y11052086D01*
X23152972Y10949762D01*
X23022738Y10819528D01*
X22999117Y10784177D01*
X22987175Y10783001D01*
X17997823Y10783001D01*
X17960500Y10786677D01*
X17923177Y10783001D01*
X17923168Y10783001D01*
X17811515Y10772004D01*
X17668254Y10728547D01*
X17536225Y10657975D01*
X17420500Y10563002D01*
X17396702Y10534004D01*
X16802851Y9940153D01*
X16681771Y9916068D01*
X16511611Y9845586D01*
X16358472Y9743262D01*
X16228238Y9613028D01*
X16125914Y9459889D01*
X16055432Y9289729D01*
X16019500Y9109089D01*
X16019500Y8924911D01*
X16055432Y8744271D01*
X16125914Y8574111D01*
X16228238Y8420972D01*
X16358472Y8290738D01*
X16511611Y8188414D01*
X16681771Y8117932D01*
X16862411Y8082000D01*
X17046589Y8082000D01*
X17227229Y8117932D01*
X17397389Y8188414D01*
X17541767Y8284884D01*
X17591111Y8251914D01*
X17701000Y8206397D01*
X17701000Y8032759D01*
X17418260Y8089000D01*
X17125740Y8089000D01*
X16838842Y8031932D01*
X16568589Y7919990D01*
X16325368Y7757475D01*
X16118525Y7550632D01*
X15956010Y7307411D01*
X15844068Y7037158D01*
X15787000Y6750260D01*
X8153121Y6750260D01*
X685000Y14218380D01*
X685000Y16797126D01*
X22813481Y16797126D01*
X22813481Y16612948D01*
X22849413Y16432308D01*
X22919895Y16262148D01*
X23022219Y16109009D01*
X23152453Y15978775D01*
X23305592Y15876451D01*
X23475752Y15805969D01*
X23555453Y15790115D01*
X23533972Y15775762D01*
X23403738Y15645528D01*
X23301414Y15492389D01*
X23230932Y15322229D01*
X23195000Y15141589D01*
X23195000Y14957411D01*
X23230932Y14776771D01*
X23301414Y14606611D01*
X23403738Y14453472D01*
X23533972Y14323238D01*
X23687111Y14220914D01*
X23857271Y14150432D01*
X24037911Y14114500D01*
X24222089Y14114500D01*
X24402729Y14150432D01*
X24572889Y14220914D01*
X24675535Y14289500D01*
X26686874Y14289500D01*
X27338712Y13637661D01*
X27362796Y13516582D01*
X27433278Y13346422D01*
X27535602Y13193283D01*
X27665836Y13063049D01*
X27818975Y12960725D01*
X27989135Y12890243D01*
X28169775Y12854311D01*
X28353953Y12854311D01*
X28534593Y12890243D01*
X28704753Y12960725D01*
X28857892Y13063049D01*
X28988126Y13193283D01*
X29090450Y13346422D01*
X29160932Y13516582D01*
X29165685Y13540474D01*
X29234913Y13507754D01*
X29368961Y13467096D01*
X29591000Y13589085D01*
X29591000Y14732000D01*
X29571000Y14732000D01*
X29571000Y14986000D01*
X29591000Y14986000D01*
X29591000Y15006000D01*
X29845000Y15006000D01*
X29845000Y14986000D01*
X29865000Y14986000D01*
X29865000Y14732000D01*
X29845000Y14732000D01*
X29845000Y13589085D01*
X30067039Y13467096D01*
X30201087Y13507754D01*
X30455420Y13627963D01*
X30681414Y13795481D01*
X30870385Y14003869D01*
X30981933Y14189865D01*
X30986320Y14179273D01*
X31143363Y13944241D01*
X31343241Y13744363D01*
X31578273Y13587320D01*
X31839426Y13479147D01*
X32116665Y13424000D01*
X32399335Y13424000D01*
X32676574Y13479147D01*
X32937727Y13587320D01*
X33172759Y13744363D01*
X33372637Y13944241D01*
X33528000Y14176759D01*
X33683363Y13944241D01*
X33883241Y13744363D01*
X34118273Y13587320D01*
X34379426Y13479147D01*
X34656665Y13424000D01*
X34939335Y13424000D01*
X35216574Y13479147D01*
X35477727Y13587320D01*
X35712759Y13744363D01*
X35912637Y13944241D01*
X36068000Y14176759D01*
X36223363Y13944241D01*
X36423241Y13744363D01*
X36658273Y13587320D01*
X36919426Y13479147D01*
X37196665Y13424000D01*
X37479335Y13424000D01*
X37756574Y13479147D01*
X38017727Y13587320D01*
X38252759Y13744363D01*
X38452637Y13944241D01*
X38608000Y14176759D01*
X38763363Y13944241D01*
X38963241Y13744363D01*
X39198273Y13587320D01*
X39459426Y13479147D01*
X39736665Y13424000D01*
X40019335Y13424000D01*
X40296574Y13479147D01*
X40557727Y13587320D01*
X40792759Y13744363D01*
X40992637Y13944241D01*
X41148000Y14176759D01*
X41303363Y13944241D01*
X41503241Y13744363D01*
X41738273Y13587320D01*
X41999426Y13479147D01*
X42276665Y13424000D01*
X42559335Y13424000D01*
X42836574Y13479147D01*
X43097727Y13587320D01*
X43332759Y13744363D01*
X43532637Y13944241D01*
X43688000Y14176759D01*
X43843363Y13944241D01*
X44043241Y13744363D01*
X44278273Y13587320D01*
X44539426Y13479147D01*
X44816665Y13424000D01*
X45099335Y13424000D01*
X45376574Y13479147D01*
X45637727Y13587320D01*
X45872759Y13744363D01*
X46072637Y13944241D01*
X46228000Y14176759D01*
X46383363Y13944241D01*
X46583241Y13744363D01*
X46818273Y13587320D01*
X47079426Y13479147D01*
X47356665Y13424000D01*
X47639335Y13424000D01*
X47916574Y13479147D01*
X48177727Y13587320D01*
X48412759Y13744363D01*
X48612637Y13944241D01*
X48768000Y14176759D01*
X48923363Y13944241D01*
X49123241Y13744363D01*
X49358273Y13587320D01*
X49619426Y13479147D01*
X49896665Y13424000D01*
X50179335Y13424000D01*
X50456574Y13479147D01*
X50717727Y13587320D01*
X50952759Y13744363D01*
X51152637Y13944241D01*
X51308000Y14176759D01*
X51463363Y13944241D01*
X51663241Y13744363D01*
X51898273Y13587320D01*
X52159426Y13479147D01*
X52436665Y13424000D01*
X52719335Y13424000D01*
X52996574Y13479147D01*
X53257727Y13587320D01*
X53492759Y13744363D01*
X53692637Y13944241D01*
X53848000Y14176759D01*
X54003363Y13944241D01*
X54203241Y13744363D01*
X54438273Y13587320D01*
X54699426Y13479147D01*
X54976665Y13424000D01*
X55259335Y13424000D01*
X55536574Y13479147D01*
X55797727Y13587320D01*
X56032759Y13744363D01*
X56232637Y13944241D01*
X56388000Y14176759D01*
X56543363Y13944241D01*
X56743241Y13744363D01*
X56978273Y13587320D01*
X57239426Y13479147D01*
X57516665Y13424000D01*
X57799335Y13424000D01*
X58076574Y13479147D01*
X58337727Y13587320D01*
X58572759Y13744363D01*
X58772637Y13944241D01*
X58928000Y14176759D01*
X59083363Y13944241D01*
X59283241Y13744363D01*
X59518273Y13587320D01*
X59779426Y13479147D01*
X60056665Y13424000D01*
X60339335Y13424000D01*
X60616574Y13479147D01*
X60877727Y13587320D01*
X61112759Y13744363D01*
X61312637Y13944241D01*
X61468000Y14176759D01*
X61623363Y13944241D01*
X61823241Y13744363D01*
X62058273Y13587320D01*
X62319426Y13479147D01*
X62596665Y13424000D01*
X62879335Y13424000D01*
X63156574Y13479147D01*
X63417727Y13587320D01*
X63652759Y13744363D01*
X63852637Y13944241D01*
X64008000Y14176759D01*
X64163363Y13944241D01*
X64363241Y13744363D01*
X64598273Y13587320D01*
X64859426Y13479147D01*
X65136665Y13424000D01*
X65419335Y13424000D01*
X65696574Y13479147D01*
X65957727Y13587320D01*
X66192759Y13744363D01*
X66392637Y13944241D01*
X66548000Y14176759D01*
X66703363Y13944241D01*
X66903241Y13744363D01*
X67138273Y13587320D01*
X67399426Y13479147D01*
X67676665Y13424000D01*
X67959335Y13424000D01*
X68236574Y13479147D01*
X68497727Y13587320D01*
X68732759Y13744363D01*
X68932637Y13944241D01*
X69088000Y14176759D01*
X69243363Y13944241D01*
X69443241Y13744363D01*
X69678273Y13587320D01*
X69939426Y13479147D01*
X70216665Y13424000D01*
X70499335Y13424000D01*
X70776574Y13479147D01*
X71037727Y13587320D01*
X71272759Y13744363D01*
X71472637Y13944241D01*
X71628000Y14176759D01*
X71783363Y13944241D01*
X71983241Y13744363D01*
X72218273Y13587320D01*
X72479426Y13479147D01*
X72756665Y13424000D01*
X73039335Y13424000D01*
X73316574Y13479147D01*
X73577727Y13587320D01*
X73812759Y13744363D01*
X74012637Y13944241D01*
X74168000Y14176759D01*
X74323363Y13944241D01*
X74523241Y13744363D01*
X74758273Y13587320D01*
X75019426Y13479147D01*
X75296665Y13424000D01*
X75579335Y13424000D01*
X75856574Y13479147D01*
X76117727Y13587320D01*
X76352759Y13744363D01*
X76552637Y13944241D01*
X76708000Y14176759D01*
X76863363Y13944241D01*
X77063241Y13744363D01*
X77298273Y13587320D01*
X77559426Y13479147D01*
X77836665Y13424000D01*
X78119335Y13424000D01*
X78396574Y13479147D01*
X78657727Y13587320D01*
X78892759Y13744363D01*
X79092637Y13944241D01*
X79249680Y14179273D01*
X79357853Y14440426D01*
X79413000Y14717665D01*
X79413000Y15000335D01*
X79357853Y15277574D01*
X79249680Y15538727D01*
X79092637Y15773759D01*
X78892759Y15973637D01*
X78657727Y16130680D01*
X78396574Y16238853D01*
X78119335Y16294000D01*
X77836665Y16294000D01*
X77654114Y16257688D01*
X74287304Y19624497D01*
X74263501Y19653501D01*
X74147776Y19748474D01*
X74015747Y19819046D01*
X73872486Y19862503D01*
X73760833Y19873500D01*
X73760822Y19873500D01*
X73723500Y19877176D01*
X73686178Y19873500D01*
X25372412Y19873500D01*
X25335089Y19877176D01*
X25297766Y19873500D01*
X25297757Y19873500D01*
X25186104Y19862503D01*
X25042843Y19819046D01*
X24910814Y19748474D01*
X24795089Y19653501D01*
X24771290Y19624502D01*
X24334626Y19187837D01*
X24305623Y19164035D01*
X24264150Y19113499D01*
X24210650Y19048310D01*
X24165860Y18964514D01*
X24140078Y18916280D01*
X24096621Y18773019D01*
X24085624Y18661366D01*
X24085624Y18661356D01*
X24081948Y18624034D01*
X24085624Y18586712D01*
X24085624Y18510152D01*
X24017038Y18407506D01*
X23946556Y18237346D01*
X23940055Y18204665D01*
X23813079Y18152070D01*
X23659940Y18049746D01*
X23529706Y17919512D01*
X23427382Y17766373D01*
X23356900Y17596213D01*
X23347939Y17551164D01*
X23305592Y17533623D01*
X23152453Y17431299D01*
X23022219Y17301065D01*
X22919895Y17147926D01*
X22849413Y16977766D01*
X22813481Y16797126D01*
X685000Y16797126D01*
X685000Y23342500D01*
X847928Y23342500D01*
X847928Y21742500D01*
X860188Y21618018D01*
X896498Y21498320D01*
X955463Y21388006D01*
X1034815Y21291315D01*
X1131506Y21211963D01*
X1241820Y21152998D01*
X1361518Y21116688D01*
X1486000Y21104428D01*
X3086000Y21104428D01*
X3210482Y21116688D01*
X3330180Y21152998D01*
X3440494Y21211963D01*
X3537185Y21291315D01*
X3616537Y21388006D01*
X3675502Y21498320D01*
X3711812Y21618018D01*
X3712643Y21626461D01*
X3911241Y21427863D01*
X4146273Y21270820D01*
X4407426Y21162647D01*
X4684665Y21107500D01*
X4967335Y21107500D01*
X5244574Y21162647D01*
X5505727Y21270820D01*
X5740759Y21427863D01*
X5940637Y21627741D01*
X6096000Y21860259D01*
X6251363Y21627741D01*
X6451241Y21427863D01*
X6686273Y21270820D01*
X6947426Y21162647D01*
X7224665Y21107500D01*
X7507335Y21107500D01*
X7784574Y21162647D01*
X8045727Y21270820D01*
X8280759Y21427863D01*
X8480637Y21627741D01*
X8636000Y21860259D01*
X8791363Y21627741D01*
X8991241Y21427863D01*
X9226273Y21270820D01*
X9487426Y21162647D01*
X9764665Y21107500D01*
X10047335Y21107500D01*
X10324574Y21162647D01*
X10585727Y21270820D01*
X10820759Y21427863D01*
X11020637Y21627741D01*
X11176000Y21860259D01*
X11331363Y21627741D01*
X11531241Y21427863D01*
X11766273Y21270820D01*
X12027426Y21162647D01*
X12304665Y21107500D01*
X12587335Y21107500D01*
X12864574Y21162647D01*
X13125727Y21270820D01*
X13360759Y21427863D01*
X13560637Y21627741D01*
X13716000Y21860259D01*
X13871363Y21627741D01*
X14071241Y21427863D01*
X14306273Y21270820D01*
X14567426Y21162647D01*
X14844665Y21107500D01*
X15127335Y21107500D01*
X15404574Y21162647D01*
X15665727Y21270820D01*
X15900759Y21427863D01*
X16100637Y21627741D01*
X16256000Y21860259D01*
X16411363Y21627741D01*
X16611241Y21427863D01*
X16846273Y21270820D01*
X17107426Y21162647D01*
X17384665Y21107500D01*
X17667335Y21107500D01*
X17944574Y21162647D01*
X18205727Y21270820D01*
X18440759Y21427863D01*
X18640637Y21627741D01*
X18796000Y21860259D01*
X18951363Y21627741D01*
X19151241Y21427863D01*
X19386273Y21270820D01*
X19647426Y21162647D01*
X19924665Y21107500D01*
X20207335Y21107500D01*
X20484574Y21162647D01*
X20745727Y21270820D01*
X20980759Y21427863D01*
X21180637Y21627741D01*
X21336000Y21860259D01*
X21491363Y21627741D01*
X21691241Y21427863D01*
X21926273Y21270820D01*
X22187426Y21162647D01*
X22464665Y21107500D01*
X22747335Y21107500D01*
X23024574Y21162647D01*
X23285727Y21270820D01*
X23520759Y21427863D01*
X23720637Y21627741D01*
X23877680Y21862773D01*
X23882067Y21873365D01*
X23993615Y21687369D01*
X24182586Y21478981D01*
X24408580Y21311463D01*
X24662913Y21191254D01*
X24796961Y21150596D01*
X25019000Y21272585D01*
X25019000Y22415500D01*
X25273000Y22415500D01*
X25273000Y21272585D01*
X25495039Y21150596D01*
X25629087Y21191254D01*
X25883420Y21311463D01*
X26109414Y21478981D01*
X26298385Y21687369D01*
X26443070Y21928619D01*
X26537909Y22193460D01*
X26416624Y22415500D01*
X25273000Y22415500D01*
X25019000Y22415500D01*
X24999000Y22415500D01*
X24999000Y22669500D01*
X25019000Y22669500D01*
X25019000Y23812415D01*
X25273000Y23812415D01*
X25273000Y22669500D01*
X26416624Y22669500D01*
X26537909Y22891540D01*
X26443070Y23156381D01*
X26298385Y23397631D01*
X26109414Y23606019D01*
X25883420Y23773537D01*
X25629087Y23893746D01*
X25495039Y23934404D01*
X25273000Y23812415D01*
X25019000Y23812415D01*
X24796961Y23934404D01*
X24662913Y23893746D01*
X24408580Y23773537D01*
X24182586Y23606019D01*
X23993615Y23397631D01*
X23882067Y23211635D01*
X23877680Y23222227D01*
X23720637Y23457259D01*
X23520759Y23657137D01*
X23285727Y23814180D01*
X23024574Y23922353D01*
X22747335Y23977500D01*
X22464665Y23977500D01*
X22187426Y23922353D01*
X21926273Y23814180D01*
X21691241Y23657137D01*
X21491363Y23457259D01*
X21336000Y23224741D01*
X21180637Y23457259D01*
X20980759Y23657137D01*
X20745727Y23814180D01*
X20484574Y23922353D01*
X20207335Y23977500D01*
X19924665Y23977500D01*
X19647426Y23922353D01*
X19386273Y23814180D01*
X19151241Y23657137D01*
X18951363Y23457259D01*
X18796000Y23224741D01*
X18640637Y23457259D01*
X18440759Y23657137D01*
X18205727Y23814180D01*
X17944574Y23922353D01*
X17667335Y23977500D01*
X17384665Y23977500D01*
X17107426Y23922353D01*
X16846273Y23814180D01*
X16611241Y23657137D01*
X16411363Y23457259D01*
X16256000Y23224741D01*
X16100637Y23457259D01*
X15900759Y23657137D01*
X15665727Y23814180D01*
X15404574Y23922353D01*
X15127335Y23977500D01*
X14844665Y23977500D01*
X14567426Y23922353D01*
X14306273Y23814180D01*
X14071241Y23657137D01*
X13871363Y23457259D01*
X13716000Y23224741D01*
X13560637Y23457259D01*
X13360759Y23657137D01*
X13125727Y23814180D01*
X12864574Y23922353D01*
X12587335Y23977500D01*
X12304665Y23977500D01*
X12027426Y23922353D01*
X11766273Y23814180D01*
X11531241Y23657137D01*
X11331363Y23457259D01*
X11176000Y23224741D01*
X11020637Y23457259D01*
X10820759Y23657137D01*
X10585727Y23814180D01*
X10324574Y23922353D01*
X10047335Y23977500D01*
X9764665Y23977500D01*
X9487426Y23922353D01*
X9226273Y23814180D01*
X8991241Y23657137D01*
X8791363Y23457259D01*
X8636000Y23224741D01*
X8480637Y23457259D01*
X8280759Y23657137D01*
X8045727Y23814180D01*
X7784574Y23922353D01*
X7507335Y23977500D01*
X7224665Y23977500D01*
X6947426Y23922353D01*
X6686273Y23814180D01*
X6451241Y23657137D01*
X6251363Y23457259D01*
X6096000Y23224741D01*
X5940637Y23457259D01*
X5740759Y23657137D01*
X5505727Y23814180D01*
X5244574Y23922353D01*
X4967335Y23977500D01*
X4684665Y23977500D01*
X4407426Y23922353D01*
X4146273Y23814180D01*
X3911241Y23657137D01*
X3712643Y23458539D01*
X3711812Y23466982D01*
X3675502Y23586680D01*
X3616537Y23696994D01*
X3537185Y23793685D01*
X3440494Y23873037D01*
X3330180Y23932002D01*
X3210482Y23968312D01*
X3086000Y23980572D01*
X1486000Y23980572D01*
X1361518Y23968312D01*
X1241820Y23932002D01*
X1131506Y23873037D01*
X1034815Y23793685D01*
X955463Y23696994D01*
X896498Y23586680D01*
X860188Y23466982D01*
X847928Y23342500D01*
X685000Y23342500D01*
X685000Y30303835D01*
X851000Y30303835D01*
X851000Y30021165D01*
X906147Y29743926D01*
X1014320Y29482773D01*
X1171363Y29247741D01*
X1371241Y29047863D01*
X1606273Y28890820D01*
X1867426Y28782647D01*
X2144665Y28727500D01*
X2427335Y28727500D01*
X2704574Y28782647D01*
X2965727Y28890820D01*
X3200759Y29047863D01*
X3400637Y29247741D01*
X3556000Y29480259D01*
X3711363Y29247741D01*
X3911241Y29047863D01*
X4146273Y28890820D01*
X4407426Y28782647D01*
X4684665Y28727500D01*
X4967335Y28727500D01*
X5244574Y28782647D01*
X5505727Y28890820D01*
X5740759Y29047863D01*
X5940637Y29247741D01*
X6096000Y29480259D01*
X6251363Y29247741D01*
X6451241Y29047863D01*
X6686273Y28890820D01*
X6947426Y28782647D01*
X7224665Y28727500D01*
X7507335Y28727500D01*
X7784574Y28782647D01*
X8045727Y28890820D01*
X8280759Y29047863D01*
X8480637Y29247741D01*
X8636000Y29480259D01*
X8791363Y29247741D01*
X8991241Y29047863D01*
X9226273Y28890820D01*
X9487426Y28782647D01*
X9764665Y28727500D01*
X10047335Y28727500D01*
X10324574Y28782647D01*
X10585727Y28890820D01*
X10820759Y29047863D01*
X11020637Y29247741D01*
X11176000Y29480259D01*
X11331363Y29247741D01*
X11531241Y29047863D01*
X11766273Y28890820D01*
X12027426Y28782647D01*
X12304665Y28727500D01*
X12587335Y28727500D01*
X12864574Y28782647D01*
X13125727Y28890820D01*
X13360759Y29047863D01*
X13560637Y29247741D01*
X13716000Y29480259D01*
X13871363Y29247741D01*
X14071241Y29047863D01*
X14306273Y28890820D01*
X14567426Y28782647D01*
X14844665Y28727500D01*
X15127335Y28727500D01*
X15404574Y28782647D01*
X15665727Y28890820D01*
X15900759Y29047863D01*
X16100637Y29247741D01*
X16256000Y29480259D01*
X16411363Y29247741D01*
X16611241Y29047863D01*
X16846273Y28890820D01*
X17107426Y28782647D01*
X17384665Y28727500D01*
X17667335Y28727500D01*
X17944574Y28782647D01*
X18205727Y28890820D01*
X18440759Y29047863D01*
X18640637Y29247741D01*
X18796000Y29480259D01*
X18951363Y29247741D01*
X19151241Y29047863D01*
X19386273Y28890820D01*
X19647426Y28782647D01*
X19924665Y28727500D01*
X20207335Y28727500D01*
X20484574Y28782647D01*
X20745727Y28890820D01*
X20980759Y29047863D01*
X21180637Y29247741D01*
X21336000Y29480259D01*
X21491363Y29247741D01*
X21691241Y29047863D01*
X21926273Y28890820D01*
X22187426Y28782647D01*
X22464665Y28727500D01*
X22747335Y28727500D01*
X23024574Y28782647D01*
X23260999Y28880577D01*
X23261000Y27152035D01*
X23192413Y27049387D01*
X23121931Y26879227D01*
X23085999Y26698587D01*
X23085999Y26514409D01*
X23121931Y26333769D01*
X23192413Y26163609D01*
X23294737Y26010470D01*
X23424971Y25880236D01*
X23578110Y25777912D01*
X23748270Y25707430D01*
X23928910Y25671498D01*
X24113088Y25671498D01*
X24293728Y25707430D01*
X24463888Y25777912D01*
X24617027Y25880236D01*
X24747261Y26010470D01*
X24849585Y26163609D01*
X24920067Y26333769D01*
X24955999Y26514409D01*
X24955999Y26698587D01*
X24920067Y26879227D01*
X24849585Y27049387D01*
X24780999Y27152033D01*
X24780999Y28722698D01*
X24822113Y28763812D01*
X25004665Y28727500D01*
X25287335Y28727500D01*
X25564574Y28782647D01*
X25825727Y28890820D01*
X26060759Y29047863D01*
X26260637Y29247741D01*
X26417680Y29482773D01*
X26525853Y29743926D01*
X26581000Y30021165D01*
X26581000Y30303835D01*
X26525853Y30581074D01*
X26417680Y30842227D01*
X26260637Y31077259D01*
X26060759Y31277137D01*
X25825727Y31434180D01*
X25564574Y31542353D01*
X25287335Y31597500D01*
X25004665Y31597500D01*
X24727426Y31542353D01*
X24466273Y31434180D01*
X24231241Y31277137D01*
X24031363Y31077259D01*
X23876000Y30844741D01*
X23720637Y31077259D01*
X23520759Y31277137D01*
X23285727Y31434180D01*
X23024574Y31542353D01*
X22747335Y31597500D01*
X22464665Y31597500D01*
X22187426Y31542353D01*
X21926273Y31434180D01*
X21691241Y31277137D01*
X21491363Y31077259D01*
X21336000Y30844741D01*
X21180637Y31077259D01*
X20980759Y31277137D01*
X20745727Y31434180D01*
X20484574Y31542353D01*
X20207335Y31597500D01*
X19924665Y31597500D01*
X19647426Y31542353D01*
X19386273Y31434180D01*
X19151241Y31277137D01*
X18951363Y31077259D01*
X18796000Y30844741D01*
X18640637Y31077259D01*
X18440759Y31277137D01*
X18205727Y31434180D01*
X17944574Y31542353D01*
X17667335Y31597500D01*
X17384665Y31597500D01*
X17107426Y31542353D01*
X16846273Y31434180D01*
X16611241Y31277137D01*
X16411363Y31077259D01*
X16256000Y30844741D01*
X16100637Y31077259D01*
X15900759Y31277137D01*
X15665727Y31434180D01*
X15404574Y31542353D01*
X15127335Y31597500D01*
X14844665Y31597500D01*
X14567426Y31542353D01*
X14306273Y31434180D01*
X14071241Y31277137D01*
X13871363Y31077259D01*
X13716000Y30844741D01*
X13560637Y31077259D01*
X13360759Y31277137D01*
X13125727Y31434180D01*
X12864574Y31542353D01*
X12587335Y31597500D01*
X12304665Y31597500D01*
X12027426Y31542353D01*
X11766273Y31434180D01*
X11531241Y31277137D01*
X11331363Y31077259D01*
X11176000Y30844741D01*
X11020637Y31077259D01*
X10820759Y31277137D01*
X10585727Y31434180D01*
X10324574Y31542353D01*
X10047335Y31597500D01*
X9764665Y31597500D01*
X9487426Y31542353D01*
X9226273Y31434180D01*
X8991241Y31277137D01*
X8791363Y31077259D01*
X8636000Y30844741D01*
X8480637Y31077259D01*
X8280759Y31277137D01*
X8045727Y31434180D01*
X7784574Y31542353D01*
X7528147Y31593360D01*
X7716130Y31621213D01*
X7982292Y31716397D01*
X8107514Y31783329D01*
X8179097Y32027298D01*
X7366000Y32840395D01*
X6552903Y32027298D01*
X6624486Y31783329D01*
X6879996Y31662429D01*
X7154184Y31593700D01*
X7195358Y31591670D01*
X6947426Y31542353D01*
X6686273Y31434180D01*
X6451241Y31277137D01*
X6251363Y31077259D01*
X6096000Y30844741D01*
X5940637Y31077259D01*
X5740759Y31277137D01*
X5505727Y31434180D01*
X5244574Y31542353D01*
X4967335Y31597500D01*
X4684665Y31597500D01*
X4407426Y31542353D01*
X4146273Y31434180D01*
X3911241Y31277137D01*
X3711363Y31077259D01*
X3556000Y30844741D01*
X3400637Y31077259D01*
X3200759Y31277137D01*
X2965727Y31434180D01*
X2704574Y31542353D01*
X2490176Y31585000D01*
X2507335Y31585000D01*
X2784574Y31640147D01*
X3045727Y31748320D01*
X3280759Y31905363D01*
X3480637Y32105241D01*
X3637680Y32340273D01*
X3745853Y32601426D01*
X3801000Y32878665D01*
X3801000Y32949488D01*
X5925783Y32949488D01*
X5967213Y32669870D01*
X6062397Y32403708D01*
X6129329Y32278486D01*
X6373298Y32206903D01*
X7186395Y33020000D01*
X7545605Y33020000D01*
X8358702Y32206903D01*
X8602671Y32278486D01*
X8723571Y32533996D01*
X8792300Y32808184D01*
X8806217Y33090512D01*
X8764787Y33370130D01*
X8669603Y33636292D01*
X8602671Y33761514D01*
X8358702Y33833097D01*
X7545605Y33020000D01*
X7186395Y33020000D01*
X6373298Y33833097D01*
X6129329Y33761514D01*
X6008429Y33506004D01*
X5939700Y33231816D01*
X5925783Y32949488D01*
X3801000Y32949488D01*
X3801000Y33161335D01*
X3745853Y33438574D01*
X3637680Y33699727D01*
X3480637Y33934759D01*
X3402694Y34012702D01*
X6552903Y34012702D01*
X7366000Y33199605D01*
X8179097Y34012702D01*
X8107514Y34256671D01*
X7852004Y34377571D01*
X7577816Y34446300D01*
X7295488Y34460217D01*
X7015870Y34418787D01*
X6749708Y34323603D01*
X6624486Y34256671D01*
X6552903Y34012702D01*
X3402694Y34012702D01*
X3280759Y34134637D01*
X3045727Y34291680D01*
X2784574Y34399853D01*
X2507335Y34455000D01*
X2224665Y34455000D01*
X1947426Y34399853D01*
X1686273Y34291680D01*
X1451241Y34134637D01*
X1251363Y33934759D01*
X1094320Y33699727D01*
X986147Y33438574D01*
X931000Y33161335D01*
X931000Y32878665D01*
X986147Y32601426D01*
X1094320Y32340273D01*
X1251363Y32105241D01*
X1451241Y31905363D01*
X1686273Y31748320D01*
X1947426Y31640147D01*
X2161824Y31597500D01*
X2144665Y31597500D01*
X1867426Y31542353D01*
X1606273Y31434180D01*
X1371241Y31277137D01*
X1171363Y31077259D01*
X1014320Y30842227D01*
X906147Y30581074D01*
X851000Y30303835D01*
X685000Y30303835D01*
X685000Y41948000D01*
X974928Y41948000D01*
X974928Y40348000D01*
X987188Y40223518D01*
X1023498Y40103820D01*
X1082463Y39993506D01*
X1161815Y39896815D01*
X1258506Y39817463D01*
X1368820Y39758498D01*
X1488518Y39722188D01*
X1613000Y39709928D01*
X3213000Y39709928D01*
X3337482Y39722188D01*
X3457180Y39758498D01*
X3567494Y39817463D01*
X3664185Y39896815D01*
X3743537Y39993506D01*
X3802502Y40103820D01*
X3838812Y40223518D01*
X3839643Y40231961D01*
X4038241Y40033363D01*
X4273273Y39876320D01*
X4534426Y39768147D01*
X4811665Y39713000D01*
X5094335Y39713000D01*
X5371574Y39768147D01*
X5632727Y39876320D01*
X5867759Y40033363D01*
X6067637Y40233241D01*
X6223000Y40465759D01*
X6378363Y40233241D01*
X6578241Y40033363D01*
X6813273Y39876320D01*
X7074426Y39768147D01*
X7351665Y39713000D01*
X7634335Y39713000D01*
X7911574Y39768147D01*
X8172727Y39876320D01*
X8407759Y40033363D01*
X8607637Y40233241D01*
X8763000Y40465759D01*
X8918363Y40233241D01*
X9118241Y40033363D01*
X9353273Y39876320D01*
X9614426Y39768147D01*
X9891665Y39713000D01*
X10174335Y39713000D01*
X10451574Y39768147D01*
X10712727Y39876320D01*
X10947759Y40033363D01*
X11147637Y40233241D01*
X11303000Y40465759D01*
X11458363Y40233241D01*
X11658241Y40033363D01*
X11893273Y39876320D01*
X12154426Y39768147D01*
X12431665Y39713000D01*
X12714335Y39713000D01*
X12944978Y39758878D01*
X12944979Y36435281D01*
X12611851Y36102153D01*
X12490771Y36078068D01*
X12320611Y36007586D01*
X12167472Y35905262D01*
X12037238Y35775028D01*
X11934914Y35621889D01*
X11864432Y35451729D01*
X11828500Y35271089D01*
X11828500Y35086911D01*
X11864432Y34906271D01*
X11934914Y34736111D01*
X12037238Y34582972D01*
X12167472Y34452738D01*
X12320611Y34350414D01*
X12490771Y34279932D01*
X12671411Y34244000D01*
X12855589Y34244000D01*
X12945624Y34261909D01*
X12959140Y34248393D01*
X13112279Y34146069D01*
X13282439Y34075587D01*
X13463079Y34039655D01*
X13647257Y34039655D01*
X13827897Y34075587D01*
X13998057Y34146069D01*
X13998107Y34146103D01*
X14008972Y34135238D01*
X14162111Y34032914D01*
X14332271Y33962432D01*
X14512911Y33926500D01*
X14697089Y33926500D01*
X14877729Y33962432D01*
X15047889Y34032914D01*
X15201028Y34135238D01*
X15331262Y34265472D01*
X15433586Y34418611D01*
X15504068Y34588771D01*
X15540000Y34769411D01*
X15540000Y34953589D01*
X15504068Y35134229D01*
X15433586Y35304389D01*
X15365000Y35407035D01*
X15365000Y37912199D01*
X16443803Y38991000D01*
X18060178Y38991000D01*
X18097500Y38987324D01*
X18134822Y38991000D01*
X18134833Y38991000D01*
X18246486Y39001997D01*
X18389747Y39045454D01*
X18521776Y39116026D01*
X18637501Y39210999D01*
X18661303Y39240002D01*
X19307002Y39885701D01*
X19336001Y39909499D01*
X19381197Y39964570D01*
X19513273Y39876320D01*
X19774426Y39768147D01*
X20051665Y39713000D01*
X20334335Y39713000D01*
X20611574Y39768147D01*
X20872727Y39876320D01*
X21107759Y40033363D01*
X21307637Y40233241D01*
X21463000Y40465759D01*
X21618363Y40233241D01*
X21818241Y40033363D01*
X22053273Y39876320D01*
X22314426Y39768147D01*
X22591665Y39713000D01*
X22874335Y39713000D01*
X23151574Y39768147D01*
X23412727Y39876320D01*
X23647759Y40033363D01*
X23847637Y40233241D01*
X24003000Y40465759D01*
X24158363Y40233241D01*
X24358241Y40033363D01*
X24593273Y39876320D01*
X24854426Y39768147D01*
X25131665Y39713000D01*
X25414335Y39713000D01*
X25691574Y39768147D01*
X25952727Y39876320D01*
X26187759Y40033363D01*
X26387637Y40233241D01*
X26543000Y40465759D01*
X26698363Y40233241D01*
X26898241Y40033363D01*
X27133273Y39876320D01*
X27394426Y39768147D01*
X27671665Y39713000D01*
X27954335Y39713000D01*
X28231574Y39768147D01*
X28492727Y39876320D01*
X28660066Y39988132D01*
X29820950Y38827248D01*
X29844749Y38798249D01*
X29873747Y38774451D01*
X29960473Y38703276D01*
X30071860Y38643738D01*
X30092503Y38632704D01*
X30235764Y38589247D01*
X30347417Y38578250D01*
X30347427Y38578250D01*
X30384750Y38574574D01*
X30422072Y38578250D01*
X33816449Y38578250D01*
X37349524Y35045173D01*
X36989496Y35045173D01*
X36952173Y35048849D01*
X36914850Y35045173D01*
X36914840Y35045173D01*
X36803187Y35034176D01*
X36659926Y34990719D01*
X36623035Y34971000D01*
X36610911Y34971000D01*
X36430271Y34935068D01*
X36260111Y34864586D01*
X36106972Y34762262D01*
X35976738Y34632028D01*
X35874414Y34478889D01*
X35803932Y34308729D01*
X35774546Y34161000D01*
X31392323Y34161000D01*
X31354998Y34164676D01*
X31317673Y34161000D01*
X31317665Y34161000D01*
X31206012Y34150003D01*
X31062751Y34106546D01*
X30930722Y34035974D01*
X30814997Y33941001D01*
X30791199Y33912003D01*
X28009493Y31130296D01*
X27980489Y31106493D01*
X27949720Y31069000D01*
X27885516Y30990768D01*
X27831263Y30889268D01*
X27814944Y30858738D01*
X27771487Y30715477D01*
X27760490Y30603824D01*
X27760490Y30603814D01*
X27756814Y30566492D01*
X27760490Y30529169D01*
X27760491Y29273002D01*
X27691904Y29170355D01*
X27621422Y29000195D01*
X27585490Y28819555D01*
X27585490Y28635377D01*
X27621422Y28454737D01*
X27679379Y28314816D01*
X27677621Y28314088D01*
X27524482Y28211764D01*
X27394248Y28081530D01*
X27291924Y27928391D01*
X27221442Y27758231D01*
X27185510Y27577591D01*
X27185510Y27393413D01*
X27221442Y27212773D01*
X27288960Y27049769D01*
X27221442Y26886764D01*
X27185510Y26706124D01*
X27185510Y26521946D01*
X27221442Y26341306D01*
X27291924Y26171146D01*
X27394248Y26018007D01*
X27524482Y25887773D01*
X27677621Y25785449D01*
X27847781Y25714967D01*
X28028421Y25679035D01*
X28212599Y25679035D01*
X28393239Y25714967D01*
X28493288Y25756408D01*
X28517478Y25698009D01*
X28619802Y25544870D01*
X28750036Y25414636D01*
X28903175Y25312312D01*
X29073335Y25241830D01*
X29253975Y25205898D01*
X29438153Y25205898D01*
X29618793Y25241830D01*
X29788953Y25312312D01*
X29891599Y25380898D01*
X30027610Y25380898D01*
X29946790Y25300078D01*
X29844466Y25146939D01*
X29773984Y24976779D01*
X29738052Y24796139D01*
X29738052Y24611961D01*
X29773984Y24431321D01*
X29844466Y24261161D01*
X29946790Y24108022D01*
X30077024Y23977788D01*
X30230163Y23875464D01*
X30400323Y23804982D01*
X30580963Y23769050D01*
X30765141Y23769050D01*
X30945781Y23804982D01*
X31115941Y23875464D01*
X31218587Y23944050D01*
X38481149Y23944050D01*
X39725142Y22700056D01*
X39748940Y22671058D01*
X39777938Y22647260D01*
X39864664Y22576085D01*
X39887618Y22563816D01*
X39996694Y22505513D01*
X40139955Y22462056D01*
X40251608Y22451059D01*
X40251617Y22451059D01*
X40288940Y22447383D01*
X40326263Y22451059D01*
X48872746Y22451059D01*
X48910068Y22447383D01*
X48947390Y22451059D01*
X48947401Y22451059D01*
X49059054Y22462056D01*
X49202315Y22505513D01*
X49334344Y22576085D01*
X49450069Y22671058D01*
X49473871Y22700061D01*
X49892692Y23118881D01*
X62874554Y23118881D01*
X62816320Y23031727D01*
X62708147Y22770574D01*
X62653000Y22493335D01*
X62653000Y22210665D01*
X62708147Y21933426D01*
X62816320Y21672273D01*
X62973363Y21437241D01*
X63173241Y21237363D01*
X63408273Y21080320D01*
X63669426Y20972147D01*
X63946665Y20917000D01*
X64229335Y20917000D01*
X64506574Y20972147D01*
X64767727Y21080320D01*
X65002759Y21237363D01*
X65124694Y21359298D01*
X68274903Y21359298D01*
X68346486Y21115329D01*
X68601996Y20994429D01*
X68876184Y20925700D01*
X69158512Y20911783D01*
X69438130Y20953213D01*
X69704292Y21048397D01*
X69829514Y21115329D01*
X69901097Y21359298D01*
X69088000Y22172395D01*
X68274903Y21359298D01*
X65124694Y21359298D01*
X65202637Y21437241D01*
X65359680Y21672273D01*
X65467853Y21933426D01*
X65523000Y22210665D01*
X65523000Y22493335D01*
X65467853Y22770574D01*
X65359680Y23031727D01*
X65301446Y23118881D01*
X67937785Y23118881D01*
X67851329Y23093514D01*
X67730429Y22838004D01*
X67661700Y22563816D01*
X67647783Y22281488D01*
X67689213Y22001870D01*
X67784397Y21735708D01*
X67851329Y21610486D01*
X68095298Y21538903D01*
X68908395Y22352000D01*
X69267605Y22352000D01*
X70080702Y21538903D01*
X70324671Y21610486D01*
X70445571Y21865996D01*
X70514300Y22140184D01*
X70528217Y22422512D01*
X70486787Y22702130D01*
X70391603Y22968292D01*
X70324671Y23093514D01*
X70080702Y23165097D01*
X69267605Y22352000D01*
X68908395Y22352000D01*
X68894253Y22366143D01*
X69073858Y22545748D01*
X69088000Y22531605D01*
X69901097Y23344702D01*
X69868750Y23454949D01*
X75114114Y28700312D01*
X75296665Y28664000D01*
X75579335Y28664000D01*
X75856574Y28719147D01*
X76117727Y28827320D01*
X76352759Y28984363D01*
X76551357Y29182961D01*
X76552188Y29174518D01*
X76588498Y29054820D01*
X76647463Y28944506D01*
X76726815Y28847815D01*
X76823506Y28768463D01*
X76933820Y28709498D01*
X77053518Y28673188D01*
X77178000Y28660928D01*
X78778000Y28660928D01*
X78902482Y28673188D01*
X79022180Y28709498D01*
X79132494Y28768463D01*
X79229185Y28847815D01*
X79308537Y28944506D01*
X79367502Y29054820D01*
X79403812Y29174518D01*
X79416072Y29299000D01*
X79416072Y30899000D01*
X79403812Y31023482D01*
X79367502Y31143180D01*
X79308537Y31253494D01*
X79229185Y31350185D01*
X79132494Y31429537D01*
X79022180Y31488502D01*
X78902482Y31524812D01*
X78778000Y31537072D01*
X77178000Y31537072D01*
X77053518Y31524812D01*
X76933820Y31488502D01*
X76823506Y31429537D01*
X76726815Y31350185D01*
X76647463Y31253494D01*
X76588498Y31143180D01*
X76552188Y31023482D01*
X76551357Y31015039D01*
X76352759Y31213637D01*
X76117727Y31370680D01*
X75856574Y31478853D01*
X75802002Y31489708D01*
X75802002Y31588089D01*
X75766070Y31768729D01*
X75695588Y31938889D01*
X75593264Y32092028D01*
X75463030Y32222262D01*
X75309891Y32324586D01*
X75139731Y32395068D01*
X74959091Y32431000D01*
X74774913Y32431000D01*
X74594273Y32395068D01*
X74424113Y32324586D01*
X74270974Y32222262D01*
X74140740Y32092028D01*
X74038416Y31938889D01*
X73967934Y31768729D01*
X73943849Y31647649D01*
X73802001Y31505800D01*
X73772998Y31481998D01*
X73729945Y31429537D01*
X73678025Y31366273D01*
X73653366Y31320140D01*
X73577727Y31370680D01*
X73316574Y31478853D01*
X73069466Y31528006D01*
X73091586Y31561111D01*
X73162068Y31731271D01*
X73198000Y31911911D01*
X73198000Y32096089D01*
X73162068Y32276729D01*
X73111836Y32398001D01*
X73140336Y32398001D01*
X73417575Y32453148D01*
X73678728Y32561321D01*
X73913760Y32718364D01*
X74113638Y32918242D01*
X74269001Y33150760D01*
X74424364Y32918242D01*
X74624242Y32718364D01*
X74859274Y32561321D01*
X75120427Y32453148D01*
X75397666Y32398001D01*
X75680336Y32398001D01*
X75957575Y32453148D01*
X76218728Y32561321D01*
X76453760Y32718364D01*
X76653638Y32918242D01*
X76810681Y33153274D01*
X76815068Y33163866D01*
X76926616Y32977870D01*
X77115587Y32769482D01*
X77341581Y32601964D01*
X77595914Y32481755D01*
X77729962Y32441097D01*
X77952001Y32563086D01*
X77952001Y33706001D01*
X78206001Y33706001D01*
X78206001Y32563086D01*
X78428040Y32441097D01*
X78562088Y32481755D01*
X78816421Y32601964D01*
X79042415Y32769482D01*
X79231386Y32977870D01*
X79376071Y33219120D01*
X79470910Y33483961D01*
X79349625Y33706001D01*
X78206001Y33706001D01*
X77952001Y33706001D01*
X77932001Y33706001D01*
X77932001Y33960001D01*
X77952001Y33960001D01*
X77952001Y35102916D01*
X78206001Y35102916D01*
X78206001Y33960001D01*
X79349625Y33960001D01*
X79470910Y34182041D01*
X79376071Y34446882D01*
X79231386Y34688132D01*
X79042415Y34896520D01*
X78816421Y35064038D01*
X78562088Y35184247D01*
X78428040Y35224905D01*
X78206001Y35102916D01*
X77952001Y35102916D01*
X77729962Y35224905D01*
X77595914Y35184247D01*
X77341581Y35064038D01*
X77115587Y34896520D01*
X76926616Y34688132D01*
X76815068Y34502136D01*
X76810681Y34512728D01*
X76653638Y34747760D01*
X76453760Y34947638D01*
X76218728Y35104681D01*
X75957575Y35212854D01*
X75680336Y35268001D01*
X75397666Y35268001D01*
X75120427Y35212854D01*
X74859274Y35104681D01*
X74624242Y34947638D01*
X74424364Y34747760D01*
X74269001Y34515242D01*
X74113638Y34747760D01*
X73913760Y34947638D01*
X73678728Y35104681D01*
X73417575Y35212854D01*
X73140336Y35268001D01*
X72857666Y35268001D01*
X72580427Y35212854D01*
X72319274Y35104681D01*
X72084242Y34947638D01*
X71884364Y34747760D01*
X71729001Y34515242D01*
X71573638Y34747760D01*
X71373760Y34947638D01*
X71138728Y35104681D01*
X70877575Y35212854D01*
X70600336Y35268001D01*
X70317666Y35268001D01*
X70040427Y35212854D01*
X69779274Y35104681D01*
X69544242Y34947638D01*
X69344364Y34747760D01*
X69189001Y34515242D01*
X69033638Y34747760D01*
X68833760Y34947638D01*
X68625921Y35086512D01*
X68626000Y35086911D01*
X68626000Y35271089D01*
X68590068Y35451729D01*
X68519586Y35621889D01*
X68417262Y35775028D01*
X68287028Y35905262D01*
X68133889Y36007586D01*
X67963729Y36078068D01*
X67783089Y36114000D01*
X67598911Y36114000D01*
X67418271Y36078068D01*
X67248111Y36007586D01*
X67167329Y35953610D01*
X67046566Y36034301D01*
X66876406Y36104783D01*
X66695766Y36140715D01*
X66511588Y36140715D01*
X66330948Y36104783D01*
X66160788Y36034301D01*
X66058142Y35965715D01*
X62756710Y35965715D01*
X62784000Y36102911D01*
X62784000Y36287089D01*
X62748068Y36467729D01*
X62677586Y36637889D01*
X62575262Y36791028D01*
X62445028Y36921262D01*
X62291889Y37023586D01*
X62121729Y37094068D01*
X61941089Y37130000D01*
X61756911Y37130000D01*
X61576271Y37094068D01*
X61547136Y37082000D01*
X53560049Y37082000D01*
X53533586Y37145889D01*
X53465000Y37248535D01*
X53465000Y40252330D01*
X53593760Y40338364D01*
X53793638Y40538242D01*
X53949001Y40770760D01*
X54104364Y40538242D01*
X54304242Y40338364D01*
X54539274Y40181321D01*
X54800427Y40073148D01*
X55077666Y40018001D01*
X55360336Y40018001D01*
X55637575Y40073148D01*
X55898728Y40181321D01*
X56133760Y40338364D01*
X56333638Y40538242D01*
X56489001Y40770760D01*
X56644364Y40538242D01*
X56844242Y40338364D01*
X57079274Y40181321D01*
X57340427Y40073148D01*
X57617666Y40018001D01*
X57900336Y40018001D01*
X58082887Y40054313D01*
X58564500Y39572700D01*
X58564500Y39468411D01*
X58600432Y39287771D01*
X58670914Y39117611D01*
X58773238Y38964472D01*
X58903472Y38834238D01*
X59056611Y38731914D01*
X59226771Y38661432D01*
X59407411Y38625500D01*
X59591589Y38625500D01*
X59772229Y38661432D01*
X59942389Y38731914D01*
X60095528Y38834238D01*
X60225762Y38964472D01*
X60328086Y39117611D01*
X60398568Y39287771D01*
X60434500Y39468411D01*
X60434500Y39652589D01*
X60398568Y39833229D01*
X60328086Y40003389D01*
X60318323Y40018001D01*
X60426003Y40018001D01*
X60426003Y40183085D01*
X60648040Y40061097D01*
X60782088Y40101755D01*
X61036421Y40221964D01*
X61262415Y40389482D01*
X61451386Y40597870D01*
X61562934Y40783866D01*
X61567321Y40773274D01*
X61724364Y40538242D01*
X61924242Y40338364D01*
X62079002Y40234957D01*
X62079002Y40139045D01*
X62014972Y40096262D01*
X61884738Y39966028D01*
X61782414Y39812889D01*
X61711932Y39642729D01*
X61676000Y39462089D01*
X61676000Y39277911D01*
X61711932Y39097271D01*
X61782414Y38927111D01*
X61884738Y38773972D01*
X62014972Y38643738D01*
X62168111Y38541414D01*
X62338271Y38470932D01*
X62518911Y38435000D01*
X62703089Y38435000D01*
X62883729Y38470932D01*
X63053889Y38541414D01*
X63207028Y38643738D01*
X63337262Y38773972D01*
X63439586Y38927111D01*
X63510068Y39097271D01*
X63546000Y39277911D01*
X63546000Y39310544D01*
X63588004Y39449015D01*
X63599001Y39560668D01*
X63599001Y39560677D01*
X63602677Y39598000D01*
X63599001Y39635323D01*
X63599001Y40234958D01*
X63753760Y40338364D01*
X63953638Y40538242D01*
X64109001Y40770760D01*
X64264364Y40538242D01*
X64464242Y40338364D01*
X64699274Y40181321D01*
X64960427Y40073148D01*
X65237666Y40018001D01*
X65520336Y40018001D01*
X65797575Y40073148D01*
X66058728Y40181321D01*
X66293760Y40338364D01*
X66493638Y40538242D01*
X66649001Y40770760D01*
X66804364Y40538242D01*
X67004242Y40338364D01*
X67239274Y40181321D01*
X67500427Y40073148D01*
X67777666Y40018001D01*
X68060336Y40018001D01*
X68337575Y40073148D01*
X68598728Y40181321D01*
X68833760Y40338364D01*
X69033638Y40538242D01*
X69189001Y40770760D01*
X69344364Y40538242D01*
X69544242Y40338364D01*
X69779274Y40181321D01*
X70040427Y40073148D01*
X70317666Y40018001D01*
X70600336Y40018001D01*
X70877575Y40073148D01*
X71138728Y40181321D01*
X71373760Y40338364D01*
X71573638Y40538242D01*
X71729001Y40770760D01*
X71884364Y40538242D01*
X72084242Y40338364D01*
X72319274Y40181321D01*
X72580427Y40073148D01*
X72857666Y40018001D01*
X73140336Y40018001D01*
X73417575Y40073148D01*
X73678728Y40181321D01*
X73913760Y40338364D01*
X74113638Y40538242D01*
X74269001Y40770760D01*
X74424364Y40538242D01*
X74624242Y40338364D01*
X74859274Y40181321D01*
X75120427Y40073148D01*
X75397666Y40018001D01*
X75680336Y40018001D01*
X75957575Y40073148D01*
X76218728Y40181321D01*
X76453760Y40338364D01*
X76653638Y40538242D01*
X76809001Y40770760D01*
X76964364Y40538242D01*
X77164242Y40338364D01*
X77399274Y40181321D01*
X77660427Y40073148D01*
X77937666Y40018001D01*
X78220336Y40018001D01*
X78497575Y40073148D01*
X78758728Y40181321D01*
X78993760Y40338364D01*
X79193638Y40538242D01*
X79350681Y40773274D01*
X79458854Y41034427D01*
X79514001Y41311666D01*
X79514001Y41594336D01*
X79458854Y41871575D01*
X79350681Y42132728D01*
X79193638Y42367760D01*
X78993760Y42567638D01*
X78758728Y42724681D01*
X78497575Y42832854D01*
X78220336Y42888001D01*
X77937666Y42888001D01*
X77660427Y42832854D01*
X77399274Y42724681D01*
X77164242Y42567638D01*
X76964364Y42367760D01*
X76809001Y42135242D01*
X76653638Y42367760D01*
X76453760Y42567638D01*
X76218728Y42724681D01*
X75957575Y42832854D01*
X75680336Y42888001D01*
X75397666Y42888001D01*
X75120427Y42832854D01*
X74859274Y42724681D01*
X74624242Y42567638D01*
X74424364Y42367760D01*
X74269001Y42135242D01*
X74113638Y42367760D01*
X73913760Y42567638D01*
X73678728Y42724681D01*
X73417575Y42832854D01*
X73140336Y42888001D01*
X72857666Y42888001D01*
X72580427Y42832854D01*
X72319274Y42724681D01*
X72084242Y42567638D01*
X71884364Y42367760D01*
X71729001Y42135242D01*
X71573638Y42367760D01*
X71373760Y42567638D01*
X71138728Y42724681D01*
X70877575Y42832854D01*
X70600336Y42888001D01*
X70317666Y42888001D01*
X70040427Y42832854D01*
X69779274Y42724681D01*
X69544242Y42567638D01*
X69344364Y42367760D01*
X69189001Y42135242D01*
X69033638Y42367760D01*
X68833760Y42567638D01*
X68598728Y42724681D01*
X68337575Y42832854D01*
X68060336Y42888001D01*
X67777666Y42888001D01*
X67500427Y42832854D01*
X67239274Y42724681D01*
X67004242Y42567638D01*
X66804364Y42367760D01*
X66649001Y42135242D01*
X66493638Y42367760D01*
X66293760Y42567638D01*
X66058728Y42724681D01*
X65797575Y42832854D01*
X65520336Y42888001D01*
X65237666Y42888001D01*
X64960427Y42832854D01*
X64699274Y42724681D01*
X64464242Y42567638D01*
X64264364Y42367760D01*
X64109001Y42135242D01*
X63953638Y42367760D01*
X63753760Y42567638D01*
X63518728Y42724681D01*
X63257575Y42832854D01*
X62980336Y42888001D01*
X62697666Y42888001D01*
X62420427Y42832854D01*
X62159274Y42724681D01*
X61924242Y42567638D01*
X61724364Y42367760D01*
X61567321Y42132728D01*
X61562934Y42122136D01*
X61451386Y42308132D01*
X61262415Y42516520D01*
X61036421Y42684038D01*
X60782088Y42804247D01*
X60648040Y42844905D01*
X60426001Y42722916D01*
X60426001Y41580001D01*
X60446001Y41580001D01*
X60446001Y41326001D01*
X60426001Y41326001D01*
X60426001Y41306001D01*
X60172001Y41306001D01*
X60172001Y41326001D01*
X60152001Y41326001D01*
X60152001Y41580001D01*
X60172001Y41580001D01*
X60172001Y42722916D01*
X59949962Y42844905D01*
X59815914Y42804247D01*
X59561581Y42684038D01*
X59335587Y42516520D01*
X59146616Y42308132D01*
X59035068Y42122136D01*
X59030681Y42132728D01*
X58873638Y42367760D01*
X58673760Y42567638D01*
X58438728Y42724681D01*
X58177575Y42832854D01*
X57900336Y42888001D01*
X57617666Y42888001D01*
X57340427Y42832854D01*
X57079274Y42724681D01*
X56844242Y42567638D01*
X56644364Y42367760D01*
X56489001Y42135242D01*
X56333638Y42367760D01*
X56133760Y42567638D01*
X55898728Y42724681D01*
X55637575Y42832854D01*
X55360336Y42888001D01*
X55077666Y42888001D01*
X54895114Y42851689D01*
X54657804Y43089000D01*
X54634001Y43118003D01*
X54518276Y43212976D01*
X54386247Y43283548D01*
X54242986Y43327005D01*
X54131333Y43338002D01*
X54131322Y43338002D01*
X54094000Y43341678D01*
X54056678Y43338002D01*
X50816094Y43338002D01*
X50851097Y43457298D01*
X50038000Y44270395D01*
X49224903Y43457298D01*
X49280068Y43269285D01*
X49174723Y43212976D01*
X49116192Y43164940D01*
X49058999Y43118003D01*
X49035200Y43089004D01*
X48513797Y42567601D01*
X48513760Y42567638D01*
X48278728Y42724681D01*
X48017575Y42832854D01*
X47740336Y42888001D01*
X47457666Y42888001D01*
X47180427Y42832854D01*
X46919274Y42724681D01*
X46684242Y42567638D01*
X46484364Y42367760D01*
X46329001Y42135242D01*
X46173638Y42367760D01*
X45973760Y42567638D01*
X45738728Y42724681D01*
X45477575Y42832854D01*
X45200336Y42888001D01*
X44917666Y42888001D01*
X44640427Y42832854D01*
X44379274Y42724681D01*
X44144242Y42567638D01*
X43944364Y42367760D01*
X43787321Y42132728D01*
X43679148Y41871575D01*
X43624001Y41594336D01*
X43624001Y41311666D01*
X43679148Y41034427D01*
X43787321Y40773274D01*
X43944364Y40538242D01*
X44144242Y40338364D01*
X44379274Y40181321D01*
X44640427Y40073148D01*
X44917666Y40018001D01*
X45200336Y40018001D01*
X45477575Y40073148D01*
X45738728Y40181321D01*
X45973760Y40338364D01*
X46173638Y40538242D01*
X46329001Y40770760D01*
X46484364Y40538242D01*
X46684242Y40338364D01*
X46806012Y40257000D01*
X46138325Y40257000D01*
X46101000Y40260676D01*
X46063675Y40257000D01*
X46063667Y40257000D01*
X45952014Y40246003D01*
X45808753Y40202546D01*
X45676724Y40131974D01*
X45560999Y40037001D01*
X45537201Y40008003D01*
X41761587Y36232388D01*
X41717889Y36261586D01*
X41547729Y36332068D01*
X41367089Y36368000D01*
X41182911Y36368000D01*
X41053109Y36342181D01*
X40982028Y36413262D01*
X40828889Y36515586D01*
X40658729Y36586068D01*
X40478089Y36622000D01*
X40293911Y36622000D01*
X40113271Y36586068D01*
X39976758Y36529523D01*
X39969822Y36536459D01*
X39816683Y36638783D01*
X39646523Y36709265D01*
X39465883Y36745197D01*
X39281705Y36745197D01*
X39159695Y36720927D01*
X36030019Y39850603D01*
X36170420Y39916963D01*
X36396414Y40084481D01*
X36585385Y40292869D01*
X36730070Y40534119D01*
X36824909Y40798960D01*
X36703624Y41021000D01*
X35560000Y41021000D01*
X35560000Y41001000D01*
X35306000Y41001000D01*
X35306000Y41021000D01*
X35286000Y41021000D01*
X35286000Y41275000D01*
X35306000Y41275000D01*
X35306000Y42417915D01*
X35560000Y42417915D01*
X35560000Y41275000D01*
X36703624Y41275000D01*
X36824909Y41497040D01*
X36730070Y41761881D01*
X36585385Y42003131D01*
X36396414Y42211519D01*
X36170420Y42379037D01*
X35916087Y42499246D01*
X35782039Y42539904D01*
X35560000Y42417915D01*
X35306000Y42417915D01*
X35083961Y42539904D01*
X34949913Y42499246D01*
X34695580Y42379037D01*
X34469586Y42211519D01*
X34280615Y42003131D01*
X34169067Y41817135D01*
X34164680Y41827727D01*
X34007637Y42062759D01*
X33807759Y42262637D01*
X33572727Y42419680D01*
X33311574Y42527853D01*
X33034335Y42583000D01*
X32751665Y42583000D01*
X32474426Y42527853D01*
X32213273Y42419680D01*
X31978241Y42262637D01*
X31778363Y42062759D01*
X31623000Y41830241D01*
X31467637Y42062759D01*
X31267759Y42262637D01*
X31032727Y42419680D01*
X30771574Y42527853D01*
X30494335Y42583000D01*
X30211665Y42583000D01*
X29934426Y42527853D01*
X29673273Y42419680D01*
X29438241Y42262637D01*
X29238363Y42062759D01*
X29083000Y41830241D01*
X28927637Y42062759D01*
X28727759Y42262637D01*
X28492727Y42419680D01*
X28231574Y42527853D01*
X27954335Y42583000D01*
X27671665Y42583000D01*
X27394426Y42527853D01*
X27133273Y42419680D01*
X26898241Y42262637D01*
X26698363Y42062759D01*
X26543000Y41830241D01*
X26387637Y42062759D01*
X26187759Y42262637D01*
X25952727Y42419680D01*
X25691574Y42527853D01*
X25414335Y42583000D01*
X25131665Y42583000D01*
X24854426Y42527853D01*
X24593273Y42419680D01*
X24358241Y42262637D01*
X24158363Y42062759D01*
X24003000Y41830241D01*
X23847637Y42062759D01*
X23647759Y42262637D01*
X23412727Y42419680D01*
X23151574Y42527853D01*
X22874335Y42583000D01*
X22591665Y42583000D01*
X22314426Y42527853D01*
X22053273Y42419680D01*
X21818241Y42262637D01*
X21618363Y42062759D01*
X21463000Y41830241D01*
X21307637Y42062759D01*
X21107759Y42262637D01*
X20872727Y42419680D01*
X20611574Y42527853D01*
X20334335Y42583000D01*
X20051665Y42583000D01*
X19774426Y42527853D01*
X19556000Y42437378D01*
X19556000Y42634465D01*
X19624586Y42737111D01*
X19695068Y42907271D01*
X19731000Y43087911D01*
X19731000Y43272089D01*
X19695068Y43452729D01*
X19624586Y43622889D01*
X19522262Y43776028D01*
X19392028Y43906262D01*
X19238889Y44008586D01*
X19068729Y44079068D01*
X18888089Y44115000D01*
X18703911Y44115000D01*
X18523271Y44079068D01*
X18353111Y44008586D01*
X18199972Y43906262D01*
X18069738Y43776028D01*
X17967414Y43622889D01*
X17896932Y43452729D01*
X17861000Y43272089D01*
X17861000Y43087911D01*
X17896932Y42907271D01*
X17967414Y42737111D01*
X18036000Y42634464D01*
X18036000Y42534929D01*
X17794335Y42583000D01*
X17604444Y42583000D01*
X17652640Y42655131D01*
X17723122Y42825291D01*
X17759054Y43005931D01*
X17759054Y43190109D01*
X17723122Y43370749D01*
X17652640Y43540909D01*
X17550316Y43694048D01*
X17420082Y43824282D01*
X17266943Y43926606D01*
X17096783Y43997088D01*
X16916143Y44033020D01*
X16731965Y44033020D01*
X16551325Y43997088D01*
X16381165Y43926606D01*
X16228026Y43824282D01*
X16097792Y43694048D01*
X15995468Y43540909D01*
X15924986Y43370749D01*
X15900901Y43249669D01*
X15745002Y43093769D01*
X15715999Y43069967D01*
X15660871Y43002792D01*
X15621026Y42954242D01*
X15576130Y42870248D01*
X15550454Y42822212D01*
X15506997Y42678951D01*
X15496000Y42567298D01*
X15496000Y42567288D01*
X15492874Y42535551D01*
X15413000Y42551439D01*
X15413000Y42637089D01*
X15377068Y42817729D01*
X15306586Y42987889D01*
X15204262Y43141028D01*
X15074028Y43271262D01*
X14920889Y43373586D01*
X14750729Y43444068D01*
X14570089Y43480000D01*
X14385911Y43480000D01*
X14205271Y43444068D01*
X14035111Y43373586D01*
X13881972Y43271262D01*
X13751738Y43141028D01*
X13649414Y42987889D01*
X13578932Y42817729D01*
X13554847Y42696649D01*
X13267804Y42409606D01*
X13252727Y42419680D01*
X12991574Y42527853D01*
X12714335Y42583000D01*
X12431665Y42583000D01*
X12154426Y42527853D01*
X11893273Y42419680D01*
X11658241Y42262637D01*
X11458363Y42062759D01*
X11303000Y41830241D01*
X11147637Y42062759D01*
X10947759Y42262637D01*
X10712727Y42419680D01*
X10451574Y42527853D01*
X10174335Y42583000D01*
X9891665Y42583000D01*
X9614426Y42527853D01*
X9353273Y42419680D01*
X9118241Y42262637D01*
X8918363Y42062759D01*
X8763000Y41830241D01*
X8607637Y42062759D01*
X8407759Y42262637D01*
X8172727Y42419680D01*
X7911574Y42527853D01*
X7634335Y42583000D01*
X7351665Y42583000D01*
X7074426Y42527853D01*
X6813273Y42419680D01*
X6578241Y42262637D01*
X6378363Y42062759D01*
X6223000Y41830241D01*
X6067637Y42062759D01*
X5867759Y42262637D01*
X5632727Y42419680D01*
X5371574Y42527853D01*
X5094335Y42583000D01*
X4811665Y42583000D01*
X4534426Y42527853D01*
X4273273Y42419680D01*
X4038241Y42262637D01*
X3839643Y42064039D01*
X3838812Y42072482D01*
X3802502Y42192180D01*
X3743537Y42302494D01*
X3664185Y42399185D01*
X3567494Y42478537D01*
X3457180Y42537502D01*
X3337482Y42573812D01*
X3213000Y42586072D01*
X1613000Y42586072D01*
X1488518Y42573812D01*
X1368820Y42537502D01*
X1258506Y42478537D01*
X1161815Y42399185D01*
X1082463Y42302494D01*
X1023498Y42192180D01*
X987188Y42072482D01*
X974928Y41948000D01*
X685000Y41948000D01*
X685000Y44591335D01*
X43603000Y44591335D01*
X43603000Y44308665D01*
X43658147Y44031426D01*
X43766320Y43770273D01*
X43923363Y43535241D01*
X44123241Y43335363D01*
X44358273Y43178320D01*
X44619426Y43070147D01*
X44896665Y43015000D01*
X45179335Y43015000D01*
X45456574Y43070147D01*
X45717727Y43178320D01*
X45952759Y43335363D01*
X46152637Y43535241D01*
X46309680Y43770273D01*
X46417853Y44031426D01*
X46473000Y44308665D01*
X46473000Y44379488D01*
X48597783Y44379488D01*
X48639213Y44099870D01*
X48734397Y43833708D01*
X48801329Y43708486D01*
X49045298Y43636903D01*
X49858395Y44450000D01*
X50217605Y44450000D01*
X51030702Y43636903D01*
X51274671Y43708486D01*
X51395571Y43963996D01*
X51464300Y44238184D01*
X51478217Y44520512D01*
X51436787Y44800130D01*
X51341603Y45066292D01*
X51274671Y45191514D01*
X51030702Y45263097D01*
X50217605Y44450000D01*
X49858395Y44450000D01*
X49045298Y45263097D01*
X48801329Y45191514D01*
X48680429Y44936004D01*
X48611700Y44661816D01*
X48597783Y44379488D01*
X46473000Y44379488D01*
X46473000Y44591335D01*
X46417853Y44868574D01*
X46309680Y45129727D01*
X46152637Y45364759D01*
X46074694Y45442702D01*
X49224903Y45442702D01*
X50038000Y44629605D01*
X50851097Y45442702D01*
X50779514Y45686671D01*
X50524004Y45807571D01*
X50249816Y45876300D01*
X49967488Y45890217D01*
X49687870Y45848787D01*
X49421708Y45753603D01*
X49296486Y45686671D01*
X49224903Y45442702D01*
X46074694Y45442702D01*
X45952759Y45564637D01*
X45717727Y45721680D01*
X45456574Y45829853D01*
X45179335Y45885000D01*
X44896665Y45885000D01*
X44619426Y45829853D01*
X44358273Y45721680D01*
X44123241Y45564637D01*
X43923363Y45364759D01*
X43766320Y45129727D01*
X43658147Y44868574D01*
X43603000Y44591335D01*
X685000Y44591335D01*
X685000Y56529335D01*
X978000Y56529335D01*
X978000Y56246665D01*
X1033147Y55969426D01*
X1141320Y55708273D01*
X1298363Y55473241D01*
X1498241Y55273363D01*
X1733273Y55116320D01*
X1994426Y55008147D01*
X2271665Y54953000D01*
X2554335Y54953000D01*
X2831574Y55008147D01*
X3092727Y55116320D01*
X3327759Y55273363D01*
X3527637Y55473241D01*
X3683000Y55705759D01*
X3771001Y55574056D01*
X3771000Y52700284D01*
X3634320Y52495727D01*
X3526147Y52234574D01*
X3471000Y51957335D01*
X3471000Y51674665D01*
X3526147Y51397426D01*
X3634320Y51136273D01*
X3791363Y50901241D01*
X3991241Y50701363D01*
X4226273Y50544320D01*
X4487426Y50436147D01*
X4764665Y50381000D01*
X5047335Y50381000D01*
X5324574Y50436147D01*
X5585727Y50544320D01*
X5820759Y50701363D01*
X5942694Y50823298D01*
X9092903Y50823298D01*
X9164486Y50579329D01*
X9419996Y50458429D01*
X9694184Y50389700D01*
X9976512Y50375783D01*
X10256130Y50417213D01*
X10522292Y50512397D01*
X10647514Y50579329D01*
X10719097Y50823298D01*
X9906000Y51636395D01*
X9092903Y50823298D01*
X5942694Y50823298D01*
X6020637Y50901241D01*
X6177680Y51136273D01*
X6285853Y51397426D01*
X6341000Y51674665D01*
X6341000Y51745488D01*
X8465783Y51745488D01*
X8507213Y51465870D01*
X8602397Y51199708D01*
X8669329Y51074486D01*
X8913298Y51002903D01*
X9726395Y51816000D01*
X10085605Y51816000D01*
X10898702Y51002903D01*
X11142671Y51074486D01*
X11263571Y51329996D01*
X11332300Y51604184D01*
X11346217Y51886512D01*
X11304787Y52166130D01*
X11209603Y52432292D01*
X11142671Y52557514D01*
X10898702Y52629097D01*
X10085605Y51816000D01*
X9726395Y51816000D01*
X8913298Y52629097D01*
X8669329Y52557514D01*
X8548429Y52302004D01*
X8479700Y52027816D01*
X8465783Y51745488D01*
X6341000Y51745488D01*
X6341000Y51957335D01*
X6285853Y52234574D01*
X6177680Y52495727D01*
X6041000Y52700284D01*
X6041000Y52808702D01*
X9092903Y52808702D01*
X9906000Y51995605D01*
X10719097Y52808702D01*
X10647514Y53052671D01*
X10392004Y53173571D01*
X10117816Y53242300D01*
X9835488Y53256217D01*
X9555870Y53214787D01*
X9289708Y53119603D01*
X9164486Y53052671D01*
X9092903Y52808702D01*
X6041000Y52808702D01*
X6041000Y55446604D01*
X6067637Y55473241D01*
X6223000Y55705759D01*
X6378363Y55473241D01*
X6578241Y55273363D01*
X6813273Y55116320D01*
X7074426Y55008147D01*
X7351665Y54953000D01*
X7634335Y54953000D01*
X7911574Y55008147D01*
X8172727Y55116320D01*
X8407759Y55273363D01*
X8607637Y55473241D01*
X8763000Y55705759D01*
X8918363Y55473241D01*
X9118241Y55273363D01*
X9353273Y55116320D01*
X9614426Y55008147D01*
X9891665Y54953000D01*
X10174335Y54953000D01*
X10451574Y55008147D01*
X10712727Y55116320D01*
X10947759Y55273363D01*
X11147637Y55473241D01*
X11303000Y55705759D01*
X11458363Y55473241D01*
X11658241Y55273363D01*
X11893273Y55116320D01*
X12154426Y55008147D01*
X12431665Y54953000D01*
X12714335Y54953000D01*
X12991574Y55008147D01*
X13252727Y55116320D01*
X13487759Y55273363D01*
X13687637Y55473241D01*
X13843000Y55705759D01*
X13998363Y55473241D01*
X14198241Y55273363D01*
X14433273Y55116320D01*
X14694426Y55008147D01*
X14971665Y54953000D01*
X15254335Y54953000D01*
X15531574Y55008147D01*
X15792727Y55116320D01*
X16027759Y55273363D01*
X16227637Y55473241D01*
X16383000Y55705759D01*
X16538363Y55473241D01*
X16738241Y55273363D01*
X16973273Y55116320D01*
X17234426Y55008147D01*
X17511665Y54953000D01*
X17794335Y54953000D01*
X17976886Y54989312D01*
X18544001Y54422197D01*
X18544000Y48678536D01*
X18475414Y48575889D01*
X18404932Y48405729D01*
X18369000Y48225089D01*
X18369000Y48040911D01*
X18404932Y47860271D01*
X18475414Y47690111D01*
X18577738Y47536972D01*
X18707972Y47406738D01*
X18861111Y47304414D01*
X19031271Y47233932D01*
X19211911Y47198000D01*
X19396089Y47198000D01*
X19576729Y47233932D01*
X19746889Y47304414D01*
X19900028Y47406738D01*
X20030262Y47536972D01*
X20132586Y47690111D01*
X20203068Y47860271D01*
X20239000Y48040911D01*
X20239000Y48225089D01*
X20203068Y48405729D01*
X20132586Y48575889D01*
X20064000Y48678535D01*
X20064000Y49872000D01*
X43723928Y49872000D01*
X43723928Y48172000D01*
X43736188Y48047518D01*
X43772498Y47927820D01*
X43831463Y47817506D01*
X43910815Y47720815D01*
X44007506Y47641463D01*
X44117820Y47582498D01*
X44237518Y47546188D01*
X44362000Y47533928D01*
X46062000Y47533928D01*
X46186482Y47546188D01*
X46306180Y47582498D01*
X46416494Y47641463D01*
X46513185Y47720815D01*
X46592537Y47817506D01*
X46651502Y47927820D01*
X46673513Y48000380D01*
X46805368Y47868525D01*
X47048589Y47706010D01*
X47318842Y47594068D01*
X47605740Y47537000D01*
X47898260Y47537000D01*
X48185158Y47594068D01*
X48455411Y47706010D01*
X48698632Y47868525D01*
X48905475Y48075368D01*
X49022000Y48249760D01*
X49138525Y48075368D01*
X49345368Y47868525D01*
X49588589Y47706010D01*
X49858842Y47594068D01*
X50145740Y47537000D01*
X50438260Y47537000D01*
X50725158Y47594068D01*
X50995411Y47706010D01*
X51238632Y47868525D01*
X51445475Y48075368D01*
X51562000Y48249760D01*
X51678525Y48075368D01*
X51885368Y47868525D01*
X52128589Y47706010D01*
X52398842Y47594068D01*
X52685740Y47537000D01*
X52978260Y47537000D01*
X53265158Y47594068D01*
X53535411Y47706010D01*
X53778632Y47868525D01*
X53985475Y48075368D01*
X54102000Y48249760D01*
X54218525Y48075368D01*
X54425368Y47868525D01*
X54668589Y47706010D01*
X54938842Y47594068D01*
X55225740Y47537000D01*
X55518260Y47537000D01*
X55805158Y47594068D01*
X56075411Y47706010D01*
X56318632Y47868525D01*
X56525475Y48075368D01*
X56642000Y48249760D01*
X56758525Y48075368D01*
X56965368Y47868525D01*
X57208589Y47706010D01*
X57478842Y47594068D01*
X57765740Y47537000D01*
X58058260Y47537000D01*
X58345158Y47594068D01*
X58615411Y47706010D01*
X58858632Y47868525D01*
X59065475Y48075368D01*
X59187195Y48257534D01*
X59256822Y48140645D01*
X59451731Y47924412D01*
X59685080Y47750359D01*
X59947901Y47625175D01*
X60095110Y47580524D01*
X60325000Y47701845D01*
X60325000Y48895000D01*
X60305000Y48895000D01*
X60305000Y49149000D01*
X60325000Y49149000D01*
X60325000Y50342155D01*
X60579000Y50342155D01*
X60579000Y49149000D01*
X60599000Y49149000D01*
X60599000Y48895000D01*
X60579000Y48895000D01*
X60579000Y47701845D01*
X60808890Y47580524D01*
X60956099Y47625175D01*
X61218920Y47750359D01*
X61452269Y47924412D01*
X61647178Y48140645D01*
X61716805Y48257534D01*
X61838525Y48075368D01*
X62045368Y47868525D01*
X62288589Y47706010D01*
X62558842Y47594068D01*
X62845740Y47537000D01*
X63138260Y47537000D01*
X63425158Y47594068D01*
X63695411Y47706010D01*
X63938632Y47868525D01*
X64145475Y48075368D01*
X64262000Y48249760D01*
X64378525Y48075368D01*
X64585368Y47868525D01*
X64828589Y47706010D01*
X65098842Y47594068D01*
X65385740Y47537000D01*
X65678260Y47537000D01*
X65965158Y47594068D01*
X66235411Y47706010D01*
X66478632Y47868525D01*
X66685475Y48075368D01*
X66802000Y48249760D01*
X66918525Y48075368D01*
X67125368Y47868525D01*
X67368589Y47706010D01*
X67638842Y47594068D01*
X67925740Y47537000D01*
X68218260Y47537000D01*
X68505158Y47594068D01*
X68775411Y47706010D01*
X69018632Y47868525D01*
X69225475Y48075368D01*
X69342000Y48249760D01*
X69458525Y48075368D01*
X69665368Y47868525D01*
X69908589Y47706010D01*
X70178842Y47594068D01*
X70465740Y47537000D01*
X70758260Y47537000D01*
X71045158Y47594068D01*
X71315411Y47706010D01*
X71558632Y47868525D01*
X71765475Y48075368D01*
X71882000Y48249760D01*
X71998525Y48075368D01*
X72205368Y47868525D01*
X72448589Y47706010D01*
X72718842Y47594068D01*
X73005740Y47537000D01*
X73298260Y47537000D01*
X73585158Y47594068D01*
X73855411Y47706010D01*
X74098632Y47868525D01*
X74305475Y48075368D01*
X74422000Y48249760D01*
X74538525Y48075368D01*
X74745368Y47868525D01*
X74988589Y47706010D01*
X75258842Y47594068D01*
X75545740Y47537000D01*
X75838260Y47537000D01*
X76125158Y47594068D01*
X76395411Y47706010D01*
X76638632Y47868525D01*
X76845475Y48075368D01*
X76962000Y48249760D01*
X77078525Y48075368D01*
X77285368Y47868525D01*
X77528589Y47706010D01*
X77798842Y47594068D01*
X78085740Y47537000D01*
X78378260Y47537000D01*
X78665158Y47594068D01*
X78935411Y47706010D01*
X79178632Y47868525D01*
X79385475Y48075368D01*
X79547990Y48318589D01*
X79659932Y48588842D01*
X79717000Y48875740D01*
X79717000Y49168260D01*
X79659932Y49455158D01*
X79547990Y49725411D01*
X79385475Y49968632D01*
X79178632Y50175475D01*
X78935411Y50337990D01*
X78665158Y50449932D01*
X78378260Y50507000D01*
X78085740Y50507000D01*
X77798842Y50449932D01*
X77528589Y50337990D01*
X77285368Y50175475D01*
X77078525Y49968632D01*
X76962000Y49794240D01*
X76845475Y49968632D01*
X76638632Y50175475D01*
X76395411Y50337990D01*
X76125158Y50449932D01*
X75838260Y50507000D01*
X75545740Y50507000D01*
X75258842Y50449932D01*
X74988589Y50337990D01*
X74745368Y50175475D01*
X74538525Y49968632D01*
X74422000Y49794240D01*
X74305475Y49968632D01*
X74098632Y50175475D01*
X73855411Y50337990D01*
X73585158Y50449932D01*
X73298260Y50507000D01*
X73005740Y50507000D01*
X72718842Y50449932D01*
X72448589Y50337990D01*
X72205368Y50175475D01*
X71998525Y49968632D01*
X71882000Y49794240D01*
X71765475Y49968632D01*
X71558632Y50175475D01*
X71315411Y50337990D01*
X71045158Y50449932D01*
X70758260Y50507000D01*
X70465740Y50507000D01*
X70178842Y50449932D01*
X69908589Y50337990D01*
X69665368Y50175475D01*
X69458525Y49968632D01*
X69342000Y49794240D01*
X69225475Y49968632D01*
X69018632Y50175475D01*
X68775411Y50337990D01*
X68505158Y50449932D01*
X68218260Y50507000D01*
X67925740Y50507000D01*
X67638842Y50449932D01*
X67368589Y50337990D01*
X67125368Y50175475D01*
X66918525Y49968632D01*
X66802000Y49794240D01*
X66685475Y49968632D01*
X66478632Y50175475D01*
X66235411Y50337990D01*
X65965158Y50449932D01*
X65678260Y50507000D01*
X65385740Y50507000D01*
X65098842Y50449932D01*
X64828589Y50337990D01*
X64585368Y50175475D01*
X64378525Y49968632D01*
X64262000Y49794240D01*
X64145475Y49968632D01*
X63938632Y50175475D01*
X63695411Y50337990D01*
X63425158Y50449932D01*
X63138260Y50507000D01*
X62845740Y50507000D01*
X62558842Y50449932D01*
X62288589Y50337990D01*
X62045368Y50175475D01*
X61838525Y49968632D01*
X61716805Y49786466D01*
X61647178Y49903355D01*
X61452269Y50119588D01*
X61218920Y50293641D01*
X60956099Y50418825D01*
X60808890Y50463476D01*
X60579000Y50342155D01*
X60325000Y50342155D01*
X60095110Y50463476D01*
X59947901Y50418825D01*
X59685080Y50293641D01*
X59451731Y50119588D01*
X59256822Y49903355D01*
X59187195Y49786466D01*
X59065475Y49968632D01*
X58858632Y50175475D01*
X58615411Y50337990D01*
X58345158Y50449932D01*
X58058260Y50507000D01*
X57765740Y50507000D01*
X57478842Y50449932D01*
X57208589Y50337990D01*
X56965368Y50175475D01*
X56758525Y49968632D01*
X56642000Y49794240D01*
X56525475Y49968632D01*
X56318632Y50175475D01*
X56075411Y50337990D01*
X55805158Y50449932D01*
X55518260Y50507000D01*
X55225740Y50507000D01*
X54938842Y50449932D01*
X54668589Y50337990D01*
X54425368Y50175475D01*
X54218525Y49968632D01*
X54102000Y49794240D01*
X53985475Y49968632D01*
X53778632Y50175475D01*
X53535411Y50337990D01*
X53265158Y50449932D01*
X52978260Y50507000D01*
X52685740Y50507000D01*
X52398842Y50449932D01*
X52128589Y50337990D01*
X51885368Y50175475D01*
X51678525Y49968632D01*
X51562000Y49794240D01*
X51445475Y49968632D01*
X51238632Y50175475D01*
X50995411Y50337990D01*
X50725158Y50449932D01*
X50438260Y50507000D01*
X50145740Y50507000D01*
X49858842Y50449932D01*
X49588589Y50337990D01*
X49345368Y50175475D01*
X49138525Y49968632D01*
X49022000Y49794240D01*
X48905475Y49968632D01*
X48698632Y50175475D01*
X48455411Y50337990D01*
X48185158Y50449932D01*
X47898260Y50507000D01*
X47605740Y50507000D01*
X47318842Y50449932D01*
X47048589Y50337990D01*
X46805368Y50175475D01*
X46673513Y50043620D01*
X46651502Y50116180D01*
X46592537Y50226494D01*
X46513185Y50323185D01*
X46416494Y50402537D01*
X46306180Y50461502D01*
X46186482Y50497812D01*
X46062000Y50510072D01*
X44362000Y50510072D01*
X44237518Y50497812D01*
X44117820Y50461502D01*
X44007506Y50402537D01*
X43910815Y50323185D01*
X43831463Y50226494D01*
X43772498Y50116180D01*
X43736188Y49996482D01*
X43723928Y49872000D01*
X20064000Y49872000D01*
X20064000Y54699667D01*
X20067677Y54737000D01*
X20053003Y54885986D01*
X20031455Y54957020D01*
X20051665Y54953000D01*
X20334335Y54953000D01*
X20611574Y55008147D01*
X20872727Y55116320D01*
X21107759Y55273363D01*
X21307637Y55473241D01*
X21464680Y55708273D01*
X21469067Y55718865D01*
X21580615Y55532869D01*
X21769586Y55324481D01*
X21995580Y55156963D01*
X22249913Y55036754D01*
X22383961Y54996096D01*
X22606000Y55118085D01*
X22606000Y56261000D01*
X22586000Y56261000D01*
X22586000Y56515000D01*
X22606000Y56515000D01*
X22606000Y57657915D01*
X22860000Y57657915D01*
X22860000Y56515000D01*
X22880000Y56515000D01*
X22880000Y56261000D01*
X22860000Y56261000D01*
X22860000Y55118085D01*
X23082039Y54996096D01*
X23216087Y55036754D01*
X23470420Y55156963D01*
X23696414Y55324481D01*
X23885385Y55532869D01*
X23996933Y55718865D01*
X24001320Y55708273D01*
X24158363Y55473241D01*
X24358241Y55273363D01*
X24593273Y55116320D01*
X24854426Y55008147D01*
X25131665Y54953000D01*
X25414335Y54953000D01*
X25691574Y55008147D01*
X25952727Y55116320D01*
X26187759Y55273363D01*
X26387637Y55473241D01*
X26543000Y55705759D01*
X26698363Y55473241D01*
X26898241Y55273363D01*
X27133273Y55116320D01*
X27394426Y55008147D01*
X27671665Y54953000D01*
X27954335Y54953000D01*
X28231574Y55008147D01*
X28492727Y55116320D01*
X28727759Y55273363D01*
X28927637Y55473241D01*
X29083000Y55705759D01*
X29238363Y55473241D01*
X29438241Y55273363D01*
X29673273Y55116320D01*
X29934426Y55008147D01*
X30211665Y54953000D01*
X30494335Y54953000D01*
X30771574Y55008147D01*
X31032727Y55116320D01*
X31267759Y55273363D01*
X31467637Y55473241D01*
X31623000Y55705759D01*
X31778363Y55473241D01*
X31978241Y55273363D01*
X32213273Y55116320D01*
X32474426Y55008147D01*
X32751665Y54953000D01*
X33034335Y54953000D01*
X33311574Y55008147D01*
X33572727Y55116320D01*
X33807759Y55273363D01*
X34007637Y55473241D01*
X34163000Y55705759D01*
X34318363Y55473241D01*
X34518241Y55273363D01*
X34753273Y55116320D01*
X35014426Y55008147D01*
X35291665Y54953000D01*
X35574335Y54953000D01*
X35851574Y55008147D01*
X36112727Y55116320D01*
X36347759Y55273363D01*
X36547637Y55473241D01*
X36704680Y55708273D01*
X36812853Y55969426D01*
X36868000Y56246665D01*
X36868000Y56529335D01*
X36812853Y56806574D01*
X36704680Y57067727D01*
X36547637Y57302759D01*
X36347759Y57502637D01*
X36112727Y57659680D01*
X35851574Y57767853D01*
X35574335Y57823000D01*
X35291665Y57823000D01*
X35014426Y57767853D01*
X34753273Y57659680D01*
X34518241Y57502637D01*
X34318363Y57302759D01*
X34163000Y57070241D01*
X34007637Y57302759D01*
X33807759Y57502637D01*
X33572727Y57659680D01*
X33311574Y57767853D01*
X33034335Y57823000D01*
X32751665Y57823000D01*
X32474426Y57767853D01*
X32213273Y57659680D01*
X31978241Y57502637D01*
X31778363Y57302759D01*
X31623000Y57070241D01*
X31467637Y57302759D01*
X31267759Y57502637D01*
X31032727Y57659680D01*
X30771574Y57767853D01*
X30494335Y57823000D01*
X30211665Y57823000D01*
X29934426Y57767853D01*
X29673273Y57659680D01*
X29438241Y57502637D01*
X29238363Y57302759D01*
X29083000Y57070241D01*
X28927637Y57302759D01*
X28727759Y57502637D01*
X28492727Y57659680D01*
X28231574Y57767853D01*
X27954335Y57823000D01*
X27671665Y57823000D01*
X27394426Y57767853D01*
X27133273Y57659680D01*
X26898241Y57502637D01*
X26698363Y57302759D01*
X26543000Y57070241D01*
X26387637Y57302759D01*
X26187759Y57502637D01*
X25952727Y57659680D01*
X25691574Y57767853D01*
X25414335Y57823000D01*
X25131665Y57823000D01*
X24854426Y57767853D01*
X24593273Y57659680D01*
X24358241Y57502637D01*
X24158363Y57302759D01*
X24001320Y57067727D01*
X23996933Y57057135D01*
X23885385Y57243131D01*
X23696414Y57451519D01*
X23470420Y57619037D01*
X23216087Y57739246D01*
X23082039Y57779904D01*
X22860000Y57657915D01*
X22606000Y57657915D01*
X22383961Y57779904D01*
X22249913Y57739246D01*
X21995580Y57619037D01*
X21769586Y57451519D01*
X21580615Y57243131D01*
X21469067Y57057135D01*
X21464680Y57067727D01*
X21307637Y57302759D01*
X21107759Y57502637D01*
X20872727Y57659680D01*
X20611574Y57767853D01*
X20334335Y57823000D01*
X20051665Y57823000D01*
X19774426Y57767853D01*
X19513273Y57659680D01*
X19278241Y57502637D01*
X19078363Y57302759D01*
X18923000Y57070241D01*
X18767637Y57302759D01*
X18567759Y57502637D01*
X18332727Y57659680D01*
X18071574Y57767853D01*
X17794335Y57823000D01*
X17511665Y57823000D01*
X17234426Y57767853D01*
X16973273Y57659680D01*
X16738241Y57502637D01*
X16538363Y57302759D01*
X16383000Y57070241D01*
X16227637Y57302759D01*
X16027759Y57502637D01*
X15792727Y57659680D01*
X15531574Y57767853D01*
X15254335Y57823000D01*
X14971665Y57823000D01*
X14694426Y57767853D01*
X14433273Y57659680D01*
X14198241Y57502637D01*
X13998363Y57302759D01*
X13843000Y57070241D01*
X13687637Y57302759D01*
X13487759Y57502637D01*
X13252727Y57659680D01*
X12991574Y57767853D01*
X12714335Y57823000D01*
X12431665Y57823000D01*
X12154426Y57767853D01*
X11893273Y57659680D01*
X11658241Y57502637D01*
X11458363Y57302759D01*
X11303000Y57070241D01*
X11147637Y57302759D01*
X10947759Y57502637D01*
X10712727Y57659680D01*
X10451574Y57767853D01*
X10174335Y57823000D01*
X9891665Y57823000D01*
X9614426Y57767853D01*
X9353273Y57659680D01*
X9118241Y57502637D01*
X8918363Y57302759D01*
X8763000Y57070241D01*
X8607637Y57302759D01*
X8407759Y57502637D01*
X8172727Y57659680D01*
X7911574Y57767853D01*
X7634335Y57823000D01*
X7351665Y57823000D01*
X7074426Y57767853D01*
X6813273Y57659680D01*
X6578241Y57502637D01*
X6378363Y57302759D01*
X6223000Y57070241D01*
X6067637Y57302759D01*
X5867759Y57502637D01*
X5632727Y57659680D01*
X5371574Y57767853D01*
X5094335Y57823000D01*
X4811665Y57823000D01*
X4534426Y57767853D01*
X4273273Y57659680D01*
X4038241Y57502637D01*
X3838363Y57302759D01*
X3683000Y57070241D01*
X3527637Y57302759D01*
X3327759Y57502637D01*
X3092727Y57659680D01*
X2831574Y57767853D01*
X2554335Y57823000D01*
X2271665Y57823000D01*
X1994426Y57767853D01*
X1733273Y57659680D01*
X1498241Y57502637D01*
X1298363Y57302759D01*
X1141320Y57067727D01*
X1033147Y56806574D01*
X978000Y56529335D01*
X685000Y56529335D01*
X685000Y57945647D01*
X675711Y58039956D01*
X691653Y58202542D01*
X776031Y58482018D01*
X913085Y58739780D01*
X1097599Y58966015D01*
X1322540Y59152103D01*
X1579342Y59290956D01*
X1858219Y59377282D01*
X2030268Y59395365D01*
X2125353Y59386000D01*
G04 #@! TA.AperFunction,Conductor*
D19*
G36*
X2125353Y59386000D02*
G01*
X78646647Y59386000D01*
X78740956Y59395289D01*
X78903542Y59379347D01*
X79183018Y59294969D01*
X79440780Y59157915D01*
X79667015Y58973401D01*
X79853103Y58748460D01*
X79991956Y58491658D01*
X80078282Y58212781D01*
X80096365Y58040731D01*
X80087000Y57945646D01*
X80087001Y685000D01*
X14218381Y685000D01*
X8153121Y6750260D01*
X15787000Y6750260D01*
X15787000Y6457740D01*
X15844068Y6170842D01*
X15956010Y5900589D01*
X16118525Y5657368D01*
X16325368Y5450525D01*
X16499760Y5334000D01*
X16325368Y5217475D01*
X16118525Y5010632D01*
X15956010Y4767411D01*
X15844068Y4497158D01*
X15787000Y4210260D01*
X15787000Y3917740D01*
X15844068Y3630842D01*
X15956010Y3360589D01*
X16118525Y3117368D01*
X16325368Y2910525D01*
X16568589Y2748010D01*
X16838842Y2636068D01*
X17125740Y2579000D01*
X17418260Y2579000D01*
X17705158Y2636068D01*
X17975411Y2748010D01*
X18218632Y2910525D01*
X18425475Y3117368D01*
X18542000Y3291760D01*
X18658525Y3117368D01*
X18865368Y2910525D01*
X19108589Y2748010D01*
X19378842Y2636068D01*
X19665740Y2579000D01*
X19958260Y2579000D01*
X20245158Y2636068D01*
X20515411Y2748010D01*
X20758632Y2910525D01*
X20965475Y3117368D01*
X21082000Y3291760D01*
X21198525Y3117368D01*
X21405368Y2910525D01*
X21648589Y2748010D01*
X21918842Y2636068D01*
X22205740Y2579000D01*
X22498260Y2579000D01*
X22785158Y2636068D01*
X23055411Y2748010D01*
X23298632Y2910525D01*
X23505475Y3117368D01*
X23622000Y3291760D01*
X23738525Y3117368D01*
X23945368Y2910525D01*
X24188589Y2748010D01*
X24458842Y2636068D01*
X24745740Y2579000D01*
X25038260Y2579000D01*
X25325158Y2636068D01*
X25595411Y2748010D01*
X25838632Y2910525D01*
X26045475Y3117368D01*
X26162000Y3291760D01*
X26278525Y3117368D01*
X26485368Y2910525D01*
X26728589Y2748010D01*
X26998842Y2636068D01*
X27285740Y2579000D01*
X27578260Y2579000D01*
X27865158Y2636068D01*
X28135411Y2748010D01*
X28378632Y2910525D01*
X28585475Y3117368D01*
X28702000Y3291760D01*
X28818525Y3117368D01*
X29025368Y2910525D01*
X29268589Y2748010D01*
X29538842Y2636068D01*
X29825740Y2579000D01*
X30118260Y2579000D01*
X30405158Y2636068D01*
X30675411Y2748010D01*
X30918632Y2910525D01*
X31125475Y3117368D01*
X31242000Y3291760D01*
X31358525Y3117368D01*
X31565368Y2910525D01*
X31808589Y2748010D01*
X32078842Y2636068D01*
X32365740Y2579000D01*
X32658260Y2579000D01*
X32945158Y2636068D01*
X33215411Y2748010D01*
X33458632Y2910525D01*
X33665475Y3117368D01*
X33782000Y3291760D01*
X33898525Y3117368D01*
X34105368Y2910525D01*
X34348589Y2748010D01*
X34618842Y2636068D01*
X34905740Y2579000D01*
X35198260Y2579000D01*
X35485158Y2636068D01*
X35755411Y2748010D01*
X35998632Y2910525D01*
X36205475Y3117368D01*
X36322000Y3291760D01*
X36438525Y3117368D01*
X36645368Y2910525D01*
X36888589Y2748010D01*
X37158842Y2636068D01*
X37445740Y2579000D01*
X37738260Y2579000D01*
X38025158Y2636068D01*
X38295411Y2748010D01*
X38538632Y2910525D01*
X38745475Y3117368D01*
X38862000Y3291760D01*
X38978525Y3117368D01*
X39185368Y2910525D01*
X39428589Y2748010D01*
X39698842Y2636068D01*
X39985740Y2579000D01*
X40278260Y2579000D01*
X40565158Y2636068D01*
X40835411Y2748010D01*
X41078632Y2910525D01*
X41285475Y3117368D01*
X41402000Y3291760D01*
X41518525Y3117368D01*
X41725368Y2910525D01*
X41968589Y2748010D01*
X42238842Y2636068D01*
X42525740Y2579000D01*
X42818260Y2579000D01*
X43105158Y2636068D01*
X43375411Y2748010D01*
X43618632Y2910525D01*
X43825475Y3117368D01*
X43942000Y3291760D01*
X44058525Y3117368D01*
X44265368Y2910525D01*
X44508589Y2748010D01*
X44778842Y2636068D01*
X45065740Y2579000D01*
X45358260Y2579000D01*
X45645158Y2636068D01*
X45915411Y2748010D01*
X46158632Y2910525D01*
X46365475Y3117368D01*
X46487195Y3299534D01*
X46556822Y3182645D01*
X46751731Y2966412D01*
X46985080Y2792359D01*
X47247901Y2667175D01*
X47395110Y2622524D01*
X47625000Y2743845D01*
X47625000Y3937000D01*
X47605000Y3937000D01*
X47605000Y4191000D01*
X47625000Y4191000D01*
X47625000Y4211000D01*
X47879000Y4211000D01*
X47879000Y4191000D01*
X47899000Y4191000D01*
X47899000Y3937000D01*
X47879000Y3937000D01*
X47879000Y2743845D01*
X48108890Y2622524D01*
X48256099Y2667175D01*
X48518920Y2792359D01*
X48752269Y2966412D01*
X48947178Y3182645D01*
X49016805Y3299534D01*
X49138525Y3117368D01*
X49345368Y2910525D01*
X49588589Y2748010D01*
X49858842Y2636068D01*
X50145740Y2579000D01*
X50438260Y2579000D01*
X50725158Y2636068D01*
X50995411Y2748010D01*
X51238632Y2910525D01*
X51445475Y3117368D01*
X51562000Y3291760D01*
X51678525Y3117368D01*
X51885368Y2910525D01*
X52128589Y2748010D01*
X52398842Y2636068D01*
X52685740Y2579000D01*
X52978260Y2579000D01*
X53265158Y2636068D01*
X53535411Y2748010D01*
X53778632Y2910525D01*
X53985475Y3117368D01*
X54102000Y3291760D01*
X54218525Y3117368D01*
X54425368Y2910525D01*
X54668589Y2748010D01*
X54938842Y2636068D01*
X55225740Y2579000D01*
X55518260Y2579000D01*
X55805158Y2636068D01*
X56075411Y2748010D01*
X56318632Y2910525D01*
X56525475Y3117368D01*
X56642000Y3291760D01*
X56758525Y3117368D01*
X56965368Y2910525D01*
X57208589Y2748010D01*
X57478842Y2636068D01*
X57765740Y2579000D01*
X58058260Y2579000D01*
X58345158Y2636068D01*
X58615411Y2748010D01*
X58858632Y2910525D01*
X59065475Y3117368D01*
X59182000Y3291760D01*
X59298525Y3117368D01*
X59505368Y2910525D01*
X59748589Y2748010D01*
X60018842Y2636068D01*
X60305740Y2579000D01*
X60598260Y2579000D01*
X60885158Y2636068D01*
X61155411Y2748010D01*
X61398632Y2910525D01*
X61605475Y3117368D01*
X61722000Y3291760D01*
X61838525Y3117368D01*
X62045368Y2910525D01*
X62288589Y2748010D01*
X62558842Y2636068D01*
X62845740Y2579000D01*
X63138260Y2579000D01*
X63425158Y2636068D01*
X63695411Y2748010D01*
X63938632Y2910525D01*
X64145475Y3117368D01*
X64262000Y3291760D01*
X64378525Y3117368D01*
X64585368Y2910525D01*
X64828589Y2748010D01*
X65098842Y2636068D01*
X65385740Y2579000D01*
X65678260Y2579000D01*
X65965158Y2636068D01*
X66235411Y2748010D01*
X66478632Y2910525D01*
X66685475Y3117368D01*
X66802000Y3291760D01*
X66918525Y3117368D01*
X67125368Y2910525D01*
X67368589Y2748010D01*
X67638842Y2636068D01*
X67925740Y2579000D01*
X68218260Y2579000D01*
X68505158Y2636068D01*
X68775411Y2748010D01*
X69018632Y2910525D01*
X69225475Y3117368D01*
X69342000Y3291760D01*
X69458525Y3117368D01*
X69665368Y2910525D01*
X69908589Y2748010D01*
X70178842Y2636068D01*
X70465740Y2579000D01*
X70758260Y2579000D01*
X71045158Y2636068D01*
X71315411Y2748010D01*
X71558632Y2910525D01*
X71765475Y3117368D01*
X71882000Y3291760D01*
X71998525Y3117368D01*
X72205368Y2910525D01*
X72448589Y2748010D01*
X72718842Y2636068D01*
X73005740Y2579000D01*
X73298260Y2579000D01*
X73585158Y2636068D01*
X73855411Y2748010D01*
X74098632Y2910525D01*
X74305475Y3117368D01*
X74422000Y3291760D01*
X74538525Y3117368D01*
X74745368Y2910525D01*
X74988589Y2748010D01*
X75258842Y2636068D01*
X75545740Y2579000D01*
X75838260Y2579000D01*
X76125158Y2636068D01*
X76395411Y2748010D01*
X76638632Y2910525D01*
X76845475Y3117368D01*
X76962000Y3291760D01*
X77078525Y3117368D01*
X77285368Y2910525D01*
X77528589Y2748010D01*
X77798842Y2636068D01*
X78085740Y2579000D01*
X78378260Y2579000D01*
X78665158Y2636068D01*
X78935411Y2748010D01*
X79178632Y2910525D01*
X79385475Y3117368D01*
X79547990Y3360589D01*
X79659932Y3630842D01*
X79717000Y3917740D01*
X79717000Y4210260D01*
X79659932Y4497158D01*
X79547990Y4767411D01*
X79385475Y5010632D01*
X79253620Y5142487D01*
X79326180Y5164498D01*
X79436494Y5223463D01*
X79533185Y5302815D01*
X79612537Y5399506D01*
X79671502Y5509820D01*
X79707812Y5629518D01*
X79720072Y5754000D01*
X79720072Y7454000D01*
X79707812Y7578482D01*
X79671502Y7698180D01*
X79612537Y7808494D01*
X79533185Y7905185D01*
X79436494Y7984537D01*
X79326180Y8043502D01*
X79206482Y8079812D01*
X79082000Y8092072D01*
X77382000Y8092072D01*
X77257518Y8079812D01*
X77137820Y8043502D01*
X77091214Y8018590D01*
X74946806Y10162997D01*
X74923003Y10192001D01*
X74807278Y10286974D01*
X74675249Y10357546D01*
X74531988Y10401003D01*
X74420335Y10412000D01*
X74420324Y10412000D01*
X74383002Y10415676D01*
X74345680Y10412000D01*
X66585727Y10412000D01*
X66517421Y10480306D01*
X66364282Y10582630D01*
X66194122Y10653112D01*
X66013482Y10689044D01*
X65829304Y10689044D01*
X65648664Y10653112D01*
X65478504Y10582630D01*
X65325365Y10480306D01*
X65195131Y10350072D01*
X65092807Y10196933D01*
X65022325Y10026773D01*
X65006787Y9948659D01*
X64690404Y10265042D01*
X64666602Y10294045D01*
X64550877Y10389018D01*
X64418848Y10459590D01*
X64275587Y10503047D01*
X64163934Y10514044D01*
X64163923Y10514044D01*
X64126601Y10517720D01*
X64089279Y10514044D01*
X63629478Y10514044D01*
X63526832Y10582630D01*
X63356672Y10653112D01*
X63176032Y10689044D01*
X62991854Y10689044D01*
X62811214Y10653112D01*
X62641054Y10582630D01*
X62487915Y10480306D01*
X62357681Y10350072D01*
X62255357Y10196933D01*
X62244566Y10170881D01*
X62055405Y10360041D01*
X62031603Y10389044D01*
X61915878Y10484017D01*
X61783849Y10554589D01*
X61640588Y10598046D01*
X61528935Y10609043D01*
X61528924Y10609043D01*
X61491602Y10612719D01*
X61454280Y10609043D01*
X61245959Y10609043D01*
X61143313Y10677629D01*
X60973153Y10748111D01*
X60792513Y10784043D01*
X60608335Y10784043D01*
X60427695Y10748111D01*
X60257535Y10677629D01*
X60104396Y10575305D01*
X59974162Y10445071D01*
X59871838Y10291932D01*
X59801356Y10121772D01*
X59773958Y9984033D01*
X58608433Y9984033D01*
X58601065Y9995060D01*
X58470831Y10125294D01*
X58317692Y10227618D01*
X58147532Y10298100D01*
X57966892Y10334032D01*
X57782714Y10334032D01*
X57602074Y10298100D01*
X57431914Y10227618D01*
X57278775Y10125294D01*
X57148541Y9995060D01*
X57046217Y9841921D01*
X56975735Y9671761D01*
X56948337Y9534022D01*
X56068376Y9534022D01*
X56061008Y9545049D01*
X55930774Y9675283D01*
X55777635Y9777607D01*
X55607475Y9848089D01*
X55426835Y9884021D01*
X55242657Y9884021D01*
X55062017Y9848089D01*
X54891857Y9777607D01*
X54738718Y9675283D01*
X54608484Y9545049D01*
X54506160Y9391910D01*
X54435678Y9221750D01*
X54402610Y9055508D01*
X54174935Y9055508D01*
X54173274Y9057994D01*
X54043040Y9188228D01*
X53889901Y9290552D01*
X53719741Y9361034D01*
X53539101Y9396966D01*
X53354923Y9396966D01*
X53174283Y9361034D01*
X53004123Y9290552D01*
X52850984Y9188228D01*
X52720750Y9057994D01*
X52707614Y9038334D01*
X52639889Y9083586D01*
X52469729Y9154068D01*
X52289089Y9190000D01*
X52104911Y9190000D01*
X51924271Y9154068D01*
X51754111Y9083586D01*
X51600972Y8981262D01*
X51470738Y8851028D01*
X51368414Y8697889D01*
X51313448Y8565187D01*
X51311086Y8570889D01*
X51208762Y8724028D01*
X51078528Y8854262D01*
X50925389Y8956586D01*
X50755229Y9027068D01*
X50574589Y9063000D01*
X50390411Y9063000D01*
X50209771Y9027068D01*
X50039611Y8956586D01*
X49886472Y8854262D01*
X49756238Y8724028D01*
X49653914Y8570889D01*
X49583432Y8400729D01*
X49547500Y8220089D01*
X49547500Y8035911D01*
X49574681Y7899266D01*
X49525080Y7875641D01*
X49291731Y7701588D01*
X49096822Y7485355D01*
X49027195Y7368466D01*
X48905475Y7550632D01*
X48698632Y7757475D01*
X48455411Y7919990D01*
X48185158Y8031932D01*
X47898260Y8089000D01*
X47605740Y8089000D01*
X47318842Y8031932D01*
X47048589Y7919990D01*
X46805368Y7757475D01*
X46598525Y7550632D01*
X46482000Y7376240D01*
X46365475Y7550632D01*
X46158632Y7757475D01*
X45915411Y7919990D01*
X45645158Y8031932D01*
X45358260Y8089000D01*
X45065740Y8089000D01*
X44845592Y8045210D01*
X44369000Y8521801D01*
X44369000Y8601089D01*
X44333068Y8781729D01*
X44262586Y8951889D01*
X44160262Y9105028D01*
X44030028Y9235262D01*
X43876889Y9337586D01*
X43706729Y9408068D01*
X43526089Y9444000D01*
X43341911Y9444000D01*
X43161271Y9408068D01*
X42991111Y9337586D01*
X42837972Y9235262D01*
X42707738Y9105028D01*
X42605414Y8951889D01*
X42534932Y8781729D01*
X42499000Y8601089D01*
X42499000Y8416911D01*
X42534932Y8236271D01*
X42595933Y8089000D01*
X42525740Y8089000D01*
X42305592Y8045210D01*
X39997304Y10353497D01*
X39973501Y10382501D01*
X39857776Y10477474D01*
X39725747Y10548046D01*
X39582486Y10591503D01*
X39470833Y10602500D01*
X39470822Y10602500D01*
X39433500Y10606176D01*
X39396178Y10602500D01*
X38709035Y10602500D01*
X38606389Y10671086D01*
X38436229Y10741568D01*
X38255589Y10777500D01*
X38071411Y10777500D01*
X37959189Y10755177D01*
X37873762Y10883028D01*
X37743528Y11013262D01*
X37590389Y11115586D01*
X37420229Y11186068D01*
X37239589Y11222000D01*
X37055411Y11222000D01*
X36874771Y11186068D01*
X36704611Y11115586D01*
X36551472Y11013262D01*
X36421238Y10883028D01*
X36318914Y10729889D01*
X36248432Y10559729D01*
X36212500Y10379089D01*
X36212500Y10323182D01*
X36163100Y10333008D01*
X35978922Y10333008D01*
X35798282Y10297076D01*
X35628122Y10226594D01*
X35474983Y10124270D01*
X35344749Y9994036D01*
X35274232Y9888500D01*
X35213911Y9888500D01*
X35033271Y9852568D01*
X34863111Y9782086D01*
X34709972Y9679762D01*
X34579738Y9549528D01*
X34477414Y9396389D01*
X34406932Y9226229D01*
X34371000Y9045589D01*
X34371000Y9037668D01*
X34346454Y8991746D01*
X34325298Y8922001D01*
X34302998Y8848486D01*
X34295038Y8767671D01*
X34288324Y8699500D01*
X34292001Y8662168D01*
X34292001Y7882179D01*
X34105368Y7757475D01*
X33898525Y7550632D01*
X33782000Y7376240D01*
X33665475Y7550632D01*
X33458632Y7757475D01*
X33272000Y7882178D01*
X33272000Y8408178D01*
X33275676Y8445501D01*
X33272000Y8482824D01*
X33272000Y8482833D01*
X33261003Y8594486D01*
X33217546Y8737747D01*
X33146974Y8869776D01*
X33130377Y8890000D01*
X33075799Y8956504D01*
X33075795Y8956508D01*
X33052001Y8985501D01*
X33023008Y9009295D01*
X32482653Y9549649D01*
X32458568Y9670729D01*
X32388086Y9840889D01*
X32285762Y9994028D01*
X32155528Y10124262D01*
X32002389Y10226586D01*
X31832229Y10297068D01*
X31651589Y10333000D01*
X31467411Y10333000D01*
X31286771Y10297068D01*
X31116611Y10226586D01*
X31105709Y10219301D01*
X31043138Y10281872D01*
X30889999Y10384196D01*
X30719839Y10454678D01*
X30539199Y10490610D01*
X30355021Y10490610D01*
X30174381Y10454678D01*
X30004221Y10384196D01*
X29851082Y10281872D01*
X29720848Y10151638D01*
X29618524Y9998499D01*
X29548042Y9828339D01*
X29523957Y9707259D01*
X28915320Y9098621D01*
X28902568Y9162729D01*
X28832086Y9332889D01*
X28729762Y9486028D01*
X28599528Y9616262D01*
X28446389Y9718586D01*
X28276229Y9789068D01*
X28155149Y9813153D01*
X27233804Y10734497D01*
X27210001Y10763501D01*
X27094276Y10858474D01*
X26962247Y10929046D01*
X26818986Y10972503D01*
X26707333Y10983500D01*
X26707322Y10983500D01*
X26670000Y10987176D01*
X26632678Y10983500D01*
X24294535Y10983500D01*
X24191889Y11052086D01*
X24021729Y11122568D01*
X23841089Y11158500D01*
X23656911Y11158500D01*
X23476271Y11122568D01*
X23306111Y11052086D01*
X23152972Y10949762D01*
X23022738Y10819528D01*
X22999117Y10784177D01*
X22987175Y10783001D01*
X17997823Y10783001D01*
X17960500Y10786677D01*
X17923177Y10783001D01*
X17923168Y10783001D01*
X17811515Y10772004D01*
X17668254Y10728547D01*
X17536225Y10657975D01*
X17420500Y10563002D01*
X17396702Y10534004D01*
X16802851Y9940153D01*
X16681771Y9916068D01*
X16511611Y9845586D01*
X16358472Y9743262D01*
X16228238Y9613028D01*
X16125914Y9459889D01*
X16055432Y9289729D01*
X16019500Y9109089D01*
X16019500Y8924911D01*
X16055432Y8744271D01*
X16125914Y8574111D01*
X16228238Y8420972D01*
X16358472Y8290738D01*
X16511611Y8188414D01*
X16681771Y8117932D01*
X16862411Y8082000D01*
X17046589Y8082000D01*
X17227229Y8117932D01*
X17397389Y8188414D01*
X17541767Y8284884D01*
X17591111Y8251914D01*
X17701000Y8206397D01*
X17701000Y8032759D01*
X17418260Y8089000D01*
X17125740Y8089000D01*
X16838842Y8031932D01*
X16568589Y7919990D01*
X16325368Y7757475D01*
X16118525Y7550632D01*
X15956010Y7307411D01*
X15844068Y7037158D01*
X15787000Y6750260D01*
X8153121Y6750260D01*
X685000Y14218380D01*
X685000Y16797126D01*
X22813481Y16797126D01*
X22813481Y16612948D01*
X22849413Y16432308D01*
X22919895Y16262148D01*
X23022219Y16109009D01*
X23152453Y15978775D01*
X23305592Y15876451D01*
X23475752Y15805969D01*
X23555453Y15790115D01*
X23533972Y15775762D01*
X23403738Y15645528D01*
X23301414Y15492389D01*
X23230932Y15322229D01*
X23195000Y15141589D01*
X23195000Y14957411D01*
X23230932Y14776771D01*
X23301414Y14606611D01*
X23403738Y14453472D01*
X23533972Y14323238D01*
X23687111Y14220914D01*
X23857271Y14150432D01*
X24037911Y14114500D01*
X24222089Y14114500D01*
X24402729Y14150432D01*
X24572889Y14220914D01*
X24675535Y14289500D01*
X26686874Y14289500D01*
X27338712Y13637661D01*
X27362796Y13516582D01*
X27433278Y13346422D01*
X27535602Y13193283D01*
X27665836Y13063049D01*
X27818975Y12960725D01*
X27989135Y12890243D01*
X28169775Y12854311D01*
X28353953Y12854311D01*
X28534593Y12890243D01*
X28704753Y12960725D01*
X28857892Y13063049D01*
X28988126Y13193283D01*
X29090450Y13346422D01*
X29160932Y13516582D01*
X29165685Y13540474D01*
X29234913Y13507754D01*
X29368961Y13467096D01*
X29591000Y13589085D01*
X29591000Y14732000D01*
X29571000Y14732000D01*
X29571000Y14986000D01*
X29591000Y14986000D01*
X29591000Y15006000D01*
X29845000Y15006000D01*
X29845000Y14986000D01*
X29865000Y14986000D01*
X29865000Y14732000D01*
X29845000Y14732000D01*
X29845000Y13589085D01*
X30067039Y13467096D01*
X30201087Y13507754D01*
X30455420Y13627963D01*
X30681414Y13795481D01*
X30870385Y14003869D01*
X30981933Y14189865D01*
X30986320Y14179273D01*
X31143363Y13944241D01*
X31343241Y13744363D01*
X31578273Y13587320D01*
X31839426Y13479147D01*
X32116665Y13424000D01*
X32399335Y13424000D01*
X32676574Y13479147D01*
X32937727Y13587320D01*
X33172759Y13744363D01*
X33372637Y13944241D01*
X33528000Y14176759D01*
X33683363Y13944241D01*
X33883241Y13744363D01*
X34118273Y13587320D01*
X34379426Y13479147D01*
X34656665Y13424000D01*
X34939335Y13424000D01*
X35216574Y13479147D01*
X35477727Y13587320D01*
X35712759Y13744363D01*
X35912637Y13944241D01*
X36068000Y14176759D01*
X36223363Y13944241D01*
X36423241Y13744363D01*
X36658273Y13587320D01*
X36919426Y13479147D01*
X37196665Y13424000D01*
X37479335Y13424000D01*
X37756574Y13479147D01*
X38017727Y13587320D01*
X38252759Y13744363D01*
X38452637Y13944241D01*
X38608000Y14176759D01*
X38763363Y13944241D01*
X38963241Y13744363D01*
X39198273Y13587320D01*
X39459426Y13479147D01*
X39736665Y13424000D01*
X40019335Y13424000D01*
X40296574Y13479147D01*
X40557727Y13587320D01*
X40792759Y13744363D01*
X40992637Y13944241D01*
X41148000Y14176759D01*
X41303363Y13944241D01*
X41503241Y13744363D01*
X41738273Y13587320D01*
X41999426Y13479147D01*
X42276665Y13424000D01*
X42559335Y13424000D01*
X42836574Y13479147D01*
X43097727Y13587320D01*
X43332759Y13744363D01*
X43532637Y13944241D01*
X43688000Y14176759D01*
X43843363Y13944241D01*
X44043241Y13744363D01*
X44278273Y13587320D01*
X44539426Y13479147D01*
X44816665Y13424000D01*
X45099335Y13424000D01*
X45376574Y13479147D01*
X45637727Y13587320D01*
X45872759Y13744363D01*
X46072637Y13944241D01*
X46228000Y14176759D01*
X46383363Y13944241D01*
X46583241Y13744363D01*
X46818273Y13587320D01*
X47079426Y13479147D01*
X47356665Y13424000D01*
X47639335Y13424000D01*
X47916574Y13479147D01*
X48177727Y13587320D01*
X48412759Y13744363D01*
X48612637Y13944241D01*
X48768000Y14176759D01*
X48923363Y13944241D01*
X49123241Y13744363D01*
X49358273Y13587320D01*
X49619426Y13479147D01*
X49896665Y13424000D01*
X50179335Y13424000D01*
X50456574Y13479147D01*
X50717727Y13587320D01*
X50952759Y13744363D01*
X51152637Y13944241D01*
X51308000Y14176759D01*
X51463363Y13944241D01*
X51663241Y13744363D01*
X51898273Y13587320D01*
X52159426Y13479147D01*
X52436665Y13424000D01*
X52719335Y13424000D01*
X52996574Y13479147D01*
X53257727Y13587320D01*
X53492759Y13744363D01*
X53692637Y13944241D01*
X53848000Y14176759D01*
X54003363Y13944241D01*
X54203241Y13744363D01*
X54438273Y13587320D01*
X54699426Y13479147D01*
X54976665Y13424000D01*
X55259335Y13424000D01*
X55536574Y13479147D01*
X55797727Y13587320D01*
X56032759Y13744363D01*
X56232637Y13944241D01*
X56388000Y14176759D01*
X56543363Y13944241D01*
X56743241Y13744363D01*
X56978273Y13587320D01*
X57239426Y13479147D01*
X57516665Y13424000D01*
X57799335Y13424000D01*
X58076574Y13479147D01*
X58337727Y13587320D01*
X58572759Y13744363D01*
X58772637Y13944241D01*
X58928000Y14176759D01*
X59083363Y13944241D01*
X59283241Y13744363D01*
X59518273Y13587320D01*
X59779426Y13479147D01*
X60056665Y13424000D01*
X60339335Y13424000D01*
X60616574Y13479147D01*
X60877727Y13587320D01*
X61112759Y13744363D01*
X61312637Y13944241D01*
X61468000Y14176759D01*
X61623363Y13944241D01*
X61823241Y13744363D01*
X62058273Y13587320D01*
X62319426Y13479147D01*
X62596665Y13424000D01*
X62879335Y13424000D01*
X63156574Y13479147D01*
X63417727Y13587320D01*
X63652759Y13744363D01*
X63852637Y13944241D01*
X64008000Y14176759D01*
X64163363Y13944241D01*
X64363241Y13744363D01*
X64598273Y13587320D01*
X64859426Y13479147D01*
X65136665Y13424000D01*
X65419335Y13424000D01*
X65696574Y13479147D01*
X65957727Y13587320D01*
X66192759Y13744363D01*
X66392637Y13944241D01*
X66548000Y14176759D01*
X66703363Y13944241D01*
X66903241Y13744363D01*
X67138273Y13587320D01*
X67399426Y13479147D01*
X67676665Y13424000D01*
X67959335Y13424000D01*
X68236574Y13479147D01*
X68497727Y13587320D01*
X68732759Y13744363D01*
X68932637Y13944241D01*
X69088000Y14176759D01*
X69243363Y13944241D01*
X69443241Y13744363D01*
X69678273Y13587320D01*
X69939426Y13479147D01*
X70216665Y13424000D01*
X70499335Y13424000D01*
X70776574Y13479147D01*
X71037727Y13587320D01*
X71272759Y13744363D01*
X71472637Y13944241D01*
X71628000Y14176759D01*
X71783363Y13944241D01*
X71983241Y13744363D01*
X72218273Y13587320D01*
X72479426Y13479147D01*
X72756665Y13424000D01*
X73039335Y13424000D01*
X73316574Y13479147D01*
X73577727Y13587320D01*
X73812759Y13744363D01*
X74012637Y13944241D01*
X74168000Y14176759D01*
X74323363Y13944241D01*
X74523241Y13744363D01*
X74758273Y13587320D01*
X75019426Y13479147D01*
X75296665Y13424000D01*
X75579335Y13424000D01*
X75856574Y13479147D01*
X76117727Y13587320D01*
X76352759Y13744363D01*
X76552637Y13944241D01*
X76708000Y14176759D01*
X76863363Y13944241D01*
X77063241Y13744363D01*
X77298273Y13587320D01*
X77559426Y13479147D01*
X77836665Y13424000D01*
X78119335Y13424000D01*
X78396574Y13479147D01*
X78657727Y13587320D01*
X78892759Y13744363D01*
X79092637Y13944241D01*
X79249680Y14179273D01*
X79357853Y14440426D01*
X79413000Y14717665D01*
X79413000Y15000335D01*
X79357853Y15277574D01*
X79249680Y15538727D01*
X79092637Y15773759D01*
X78892759Y15973637D01*
X78657727Y16130680D01*
X78396574Y16238853D01*
X78119335Y16294000D01*
X77836665Y16294000D01*
X77654114Y16257688D01*
X74287304Y19624497D01*
X74263501Y19653501D01*
X74147776Y19748474D01*
X74015747Y19819046D01*
X73872486Y19862503D01*
X73760833Y19873500D01*
X73760822Y19873500D01*
X73723500Y19877176D01*
X73686178Y19873500D01*
X25372412Y19873500D01*
X25335089Y19877176D01*
X25297766Y19873500D01*
X25297757Y19873500D01*
X25186104Y19862503D01*
X25042843Y19819046D01*
X24910814Y19748474D01*
X24795089Y19653501D01*
X24771290Y19624502D01*
X24334626Y19187837D01*
X24305623Y19164035D01*
X24264150Y19113499D01*
X24210650Y19048310D01*
X24165860Y18964514D01*
X24140078Y18916280D01*
X24096621Y18773019D01*
X24085624Y18661366D01*
X24085624Y18661356D01*
X24081948Y18624034D01*
X24085624Y18586712D01*
X24085624Y18510152D01*
X24017038Y18407506D01*
X23946556Y18237346D01*
X23940055Y18204665D01*
X23813079Y18152070D01*
X23659940Y18049746D01*
X23529706Y17919512D01*
X23427382Y17766373D01*
X23356900Y17596213D01*
X23347939Y17551164D01*
X23305592Y17533623D01*
X23152453Y17431299D01*
X23022219Y17301065D01*
X22919895Y17147926D01*
X22849413Y16977766D01*
X22813481Y16797126D01*
X685000Y16797126D01*
X685000Y23342500D01*
X847928Y23342500D01*
X847928Y21742500D01*
X860188Y21618018D01*
X896498Y21498320D01*
X955463Y21388006D01*
X1034815Y21291315D01*
X1131506Y21211963D01*
X1241820Y21152998D01*
X1361518Y21116688D01*
X1486000Y21104428D01*
X3086000Y21104428D01*
X3210482Y21116688D01*
X3330180Y21152998D01*
X3440494Y21211963D01*
X3537185Y21291315D01*
X3616537Y21388006D01*
X3675502Y21498320D01*
X3711812Y21618018D01*
X3712643Y21626461D01*
X3911241Y21427863D01*
X4146273Y21270820D01*
X4407426Y21162647D01*
X4684665Y21107500D01*
X4967335Y21107500D01*
X5244574Y21162647D01*
X5505727Y21270820D01*
X5740759Y21427863D01*
X5940637Y21627741D01*
X6096000Y21860259D01*
X6251363Y21627741D01*
X6451241Y21427863D01*
X6686273Y21270820D01*
X6947426Y21162647D01*
X7224665Y21107500D01*
X7507335Y21107500D01*
X7784574Y21162647D01*
X8045727Y21270820D01*
X8280759Y21427863D01*
X8480637Y21627741D01*
X8636000Y21860259D01*
X8791363Y21627741D01*
X8991241Y21427863D01*
X9226273Y21270820D01*
X9487426Y21162647D01*
X9764665Y21107500D01*
X10047335Y21107500D01*
X10324574Y21162647D01*
X10585727Y21270820D01*
X10820759Y21427863D01*
X11020637Y21627741D01*
X11176000Y21860259D01*
X11331363Y21627741D01*
X11531241Y21427863D01*
X11766273Y21270820D01*
X12027426Y21162647D01*
X12304665Y21107500D01*
X12587335Y21107500D01*
X12864574Y21162647D01*
X13125727Y21270820D01*
X13360759Y21427863D01*
X13560637Y21627741D01*
X13716000Y21860259D01*
X13871363Y21627741D01*
X14071241Y21427863D01*
X14306273Y21270820D01*
X14567426Y21162647D01*
X14844665Y21107500D01*
X15127335Y21107500D01*
X15404574Y21162647D01*
X15665727Y21270820D01*
X15900759Y21427863D01*
X16100637Y21627741D01*
X16256000Y21860259D01*
X16411363Y21627741D01*
X16611241Y21427863D01*
X16846273Y21270820D01*
X17107426Y21162647D01*
X17384665Y21107500D01*
X17667335Y21107500D01*
X17944574Y21162647D01*
X18205727Y21270820D01*
X18440759Y21427863D01*
X18640637Y21627741D01*
X18796000Y21860259D01*
X18951363Y21627741D01*
X19151241Y21427863D01*
X19386273Y21270820D01*
X19647426Y21162647D01*
X19924665Y21107500D01*
X20207335Y21107500D01*
X20484574Y21162647D01*
X20745727Y21270820D01*
X20980759Y21427863D01*
X21180637Y21627741D01*
X21336000Y21860259D01*
X21491363Y21627741D01*
X21691241Y21427863D01*
X21926273Y21270820D01*
X22187426Y21162647D01*
X22464665Y21107500D01*
X22747335Y21107500D01*
X23024574Y21162647D01*
X23285727Y21270820D01*
X23520759Y21427863D01*
X23720637Y21627741D01*
X23877680Y21862773D01*
X23882067Y21873365D01*
X23993615Y21687369D01*
X24182586Y21478981D01*
X24408580Y21311463D01*
X24662913Y21191254D01*
X24796961Y21150596D01*
X25019000Y21272585D01*
X25019000Y22415500D01*
X25273000Y22415500D01*
X25273000Y21272585D01*
X25495039Y21150596D01*
X25629087Y21191254D01*
X25883420Y21311463D01*
X26109414Y21478981D01*
X26298385Y21687369D01*
X26443070Y21928619D01*
X26537909Y22193460D01*
X26416624Y22415500D01*
X25273000Y22415500D01*
X25019000Y22415500D01*
X24999000Y22415500D01*
X24999000Y22669500D01*
X25019000Y22669500D01*
X25019000Y23812415D01*
X25273000Y23812415D01*
X25273000Y22669500D01*
X26416624Y22669500D01*
X26537909Y22891540D01*
X26443070Y23156381D01*
X26298385Y23397631D01*
X26109414Y23606019D01*
X25883420Y23773537D01*
X25629087Y23893746D01*
X25495039Y23934404D01*
X25273000Y23812415D01*
X25019000Y23812415D01*
X24796961Y23934404D01*
X24662913Y23893746D01*
X24408580Y23773537D01*
X24182586Y23606019D01*
X23993615Y23397631D01*
X23882067Y23211635D01*
X23877680Y23222227D01*
X23720637Y23457259D01*
X23520759Y23657137D01*
X23285727Y23814180D01*
X23024574Y23922353D01*
X22747335Y23977500D01*
X22464665Y23977500D01*
X22187426Y23922353D01*
X21926273Y23814180D01*
X21691241Y23657137D01*
X21491363Y23457259D01*
X21336000Y23224741D01*
X21180637Y23457259D01*
X20980759Y23657137D01*
X20745727Y23814180D01*
X20484574Y23922353D01*
X20207335Y23977500D01*
X19924665Y23977500D01*
X19647426Y23922353D01*
X19386273Y23814180D01*
X19151241Y23657137D01*
X18951363Y23457259D01*
X18796000Y23224741D01*
X18640637Y23457259D01*
X18440759Y23657137D01*
X18205727Y23814180D01*
X17944574Y23922353D01*
X17667335Y23977500D01*
X17384665Y23977500D01*
X17107426Y23922353D01*
X16846273Y23814180D01*
X16611241Y23657137D01*
X16411363Y23457259D01*
X16256000Y23224741D01*
X16100637Y23457259D01*
X15900759Y23657137D01*
X15665727Y23814180D01*
X15404574Y23922353D01*
X15127335Y23977500D01*
X14844665Y23977500D01*
X14567426Y23922353D01*
X14306273Y23814180D01*
X14071241Y23657137D01*
X13871363Y23457259D01*
X13716000Y23224741D01*
X13560637Y23457259D01*
X13360759Y23657137D01*
X13125727Y23814180D01*
X12864574Y23922353D01*
X12587335Y23977500D01*
X12304665Y23977500D01*
X12027426Y23922353D01*
X11766273Y23814180D01*
X11531241Y23657137D01*
X11331363Y23457259D01*
X11176000Y23224741D01*
X11020637Y23457259D01*
X10820759Y23657137D01*
X10585727Y23814180D01*
X10324574Y23922353D01*
X10047335Y23977500D01*
X9764665Y23977500D01*
X9487426Y23922353D01*
X9226273Y23814180D01*
X8991241Y23657137D01*
X8791363Y23457259D01*
X8636000Y23224741D01*
X8480637Y23457259D01*
X8280759Y23657137D01*
X8045727Y23814180D01*
X7784574Y23922353D01*
X7507335Y23977500D01*
X7224665Y23977500D01*
X6947426Y23922353D01*
X6686273Y23814180D01*
X6451241Y23657137D01*
X6251363Y23457259D01*
X6096000Y23224741D01*
X5940637Y23457259D01*
X5740759Y23657137D01*
X5505727Y23814180D01*
X5244574Y23922353D01*
X4967335Y23977500D01*
X4684665Y23977500D01*
X4407426Y23922353D01*
X4146273Y23814180D01*
X3911241Y23657137D01*
X3712643Y23458539D01*
X3711812Y23466982D01*
X3675502Y23586680D01*
X3616537Y23696994D01*
X3537185Y23793685D01*
X3440494Y23873037D01*
X3330180Y23932002D01*
X3210482Y23968312D01*
X3086000Y23980572D01*
X1486000Y23980572D01*
X1361518Y23968312D01*
X1241820Y23932002D01*
X1131506Y23873037D01*
X1034815Y23793685D01*
X955463Y23696994D01*
X896498Y23586680D01*
X860188Y23466982D01*
X847928Y23342500D01*
X685000Y23342500D01*
X685000Y30303835D01*
X851000Y30303835D01*
X851000Y30021165D01*
X906147Y29743926D01*
X1014320Y29482773D01*
X1171363Y29247741D01*
X1371241Y29047863D01*
X1606273Y28890820D01*
X1867426Y28782647D01*
X2144665Y28727500D01*
X2427335Y28727500D01*
X2704574Y28782647D01*
X2965727Y28890820D01*
X3200759Y29047863D01*
X3400637Y29247741D01*
X3556000Y29480259D01*
X3711363Y29247741D01*
X3911241Y29047863D01*
X4146273Y28890820D01*
X4407426Y28782647D01*
X4684665Y28727500D01*
X4967335Y28727500D01*
X5244574Y28782647D01*
X5505727Y28890820D01*
X5740759Y29047863D01*
X5940637Y29247741D01*
X6096000Y29480259D01*
X6251363Y29247741D01*
X6451241Y29047863D01*
X6686273Y28890820D01*
X6947426Y28782647D01*
X7224665Y28727500D01*
X7507335Y28727500D01*
X7784574Y28782647D01*
X8045727Y28890820D01*
X8280759Y29047863D01*
X8480637Y29247741D01*
X8636000Y29480259D01*
X8791363Y29247741D01*
X8991241Y29047863D01*
X9226273Y28890820D01*
X9487426Y28782647D01*
X9764665Y28727500D01*
X10047335Y28727500D01*
X10324574Y28782647D01*
X10585727Y28890820D01*
X10820759Y29047863D01*
X11020637Y29247741D01*
X11176000Y29480259D01*
X11331363Y29247741D01*
X11531241Y29047863D01*
X11766273Y28890820D01*
X12027426Y28782647D01*
X12304665Y28727500D01*
X12587335Y28727500D01*
X12864574Y28782647D01*
X13125727Y28890820D01*
X13360759Y29047863D01*
X13560637Y29247741D01*
X13716000Y29480259D01*
X13871363Y29247741D01*
X14071241Y29047863D01*
X14306273Y28890820D01*
X14567426Y28782647D01*
X14844665Y28727500D01*
X15127335Y28727500D01*
X15404574Y28782647D01*
X15665727Y28890820D01*
X15900759Y29047863D01*
X16100637Y29247741D01*
X16256000Y29480259D01*
X16411363Y29247741D01*
X16611241Y29047863D01*
X16846273Y28890820D01*
X17107426Y28782647D01*
X17384665Y28727500D01*
X17667335Y28727500D01*
X17944574Y28782647D01*
X18205727Y28890820D01*
X18440759Y29047863D01*
X18640637Y29247741D01*
X18796000Y29480259D01*
X18951363Y29247741D01*
X19151241Y29047863D01*
X19386273Y28890820D01*
X19647426Y28782647D01*
X19924665Y28727500D01*
X20207335Y28727500D01*
X20484574Y28782647D01*
X20745727Y28890820D01*
X20980759Y29047863D01*
X21180637Y29247741D01*
X21336000Y29480259D01*
X21491363Y29247741D01*
X21691241Y29047863D01*
X21926273Y28890820D01*
X22187426Y28782647D01*
X22464665Y28727500D01*
X22747335Y28727500D01*
X23024574Y28782647D01*
X23260999Y28880577D01*
X23261000Y27152035D01*
X23192413Y27049387D01*
X23121931Y26879227D01*
X23085999Y26698587D01*
X23085999Y26514409D01*
X23121931Y26333769D01*
X23192413Y26163609D01*
X23294737Y26010470D01*
X23424971Y25880236D01*
X23578110Y25777912D01*
X23748270Y25707430D01*
X23928910Y25671498D01*
X24113088Y25671498D01*
X24293728Y25707430D01*
X24463888Y25777912D01*
X24617027Y25880236D01*
X24747261Y26010470D01*
X24849585Y26163609D01*
X24920067Y26333769D01*
X24955999Y26514409D01*
X24955999Y26698587D01*
X24920067Y26879227D01*
X24849585Y27049387D01*
X24780999Y27152033D01*
X24780999Y28722698D01*
X24822113Y28763812D01*
X25004665Y28727500D01*
X25287335Y28727500D01*
X25564574Y28782647D01*
X25825727Y28890820D01*
X26060759Y29047863D01*
X26260637Y29247741D01*
X26417680Y29482773D01*
X26525853Y29743926D01*
X26581000Y30021165D01*
X26581000Y30303835D01*
X26525853Y30581074D01*
X26417680Y30842227D01*
X26260637Y31077259D01*
X26060759Y31277137D01*
X25825727Y31434180D01*
X25564574Y31542353D01*
X25287335Y31597500D01*
X25004665Y31597500D01*
X24727426Y31542353D01*
X24466273Y31434180D01*
X24231241Y31277137D01*
X24031363Y31077259D01*
X23876000Y30844741D01*
X23720637Y31077259D01*
X23520759Y31277137D01*
X23285727Y31434180D01*
X23024574Y31542353D01*
X22747335Y31597500D01*
X22464665Y31597500D01*
X22187426Y31542353D01*
X21926273Y31434180D01*
X21691241Y31277137D01*
X21491363Y31077259D01*
X21336000Y30844741D01*
X21180637Y31077259D01*
X20980759Y31277137D01*
X20745727Y31434180D01*
X20484574Y31542353D01*
X20207335Y31597500D01*
X19924665Y31597500D01*
X19647426Y31542353D01*
X19386273Y31434180D01*
X19151241Y31277137D01*
X18951363Y31077259D01*
X18796000Y30844741D01*
X18640637Y31077259D01*
X18440759Y31277137D01*
X18205727Y31434180D01*
X17944574Y31542353D01*
X17667335Y31597500D01*
X17384665Y31597500D01*
X17107426Y31542353D01*
X16846273Y31434180D01*
X16611241Y31277137D01*
X16411363Y31077259D01*
X16256000Y30844741D01*
X16100637Y31077259D01*
X15900759Y31277137D01*
X15665727Y31434180D01*
X15404574Y31542353D01*
X15127335Y31597500D01*
X14844665Y31597500D01*
X14567426Y31542353D01*
X14306273Y31434180D01*
X14071241Y31277137D01*
X13871363Y31077259D01*
X13716000Y30844741D01*
X13560637Y31077259D01*
X13360759Y31277137D01*
X13125727Y31434180D01*
X12864574Y31542353D01*
X12587335Y31597500D01*
X12304665Y31597500D01*
X12027426Y31542353D01*
X11766273Y31434180D01*
X11531241Y31277137D01*
X11331363Y31077259D01*
X11176000Y30844741D01*
X11020637Y31077259D01*
X10820759Y31277137D01*
X10585727Y31434180D01*
X10324574Y31542353D01*
X10047335Y31597500D01*
X9764665Y31597500D01*
X9487426Y31542353D01*
X9226273Y31434180D01*
X8991241Y31277137D01*
X8791363Y31077259D01*
X8636000Y30844741D01*
X8480637Y31077259D01*
X8280759Y31277137D01*
X8045727Y31434180D01*
X7784574Y31542353D01*
X7528147Y31593360D01*
X7716130Y31621213D01*
X7982292Y31716397D01*
X8107514Y31783329D01*
X8179097Y32027298D01*
X7366000Y32840395D01*
X6552903Y32027298D01*
X6624486Y31783329D01*
X6879996Y31662429D01*
X7154184Y31593700D01*
X7195358Y31591670D01*
X6947426Y31542353D01*
X6686273Y31434180D01*
X6451241Y31277137D01*
X6251363Y31077259D01*
X6096000Y30844741D01*
X5940637Y31077259D01*
X5740759Y31277137D01*
X5505727Y31434180D01*
X5244574Y31542353D01*
X4967335Y31597500D01*
X4684665Y31597500D01*
X4407426Y31542353D01*
X4146273Y31434180D01*
X3911241Y31277137D01*
X3711363Y31077259D01*
X3556000Y30844741D01*
X3400637Y31077259D01*
X3200759Y31277137D01*
X2965727Y31434180D01*
X2704574Y31542353D01*
X2490176Y31585000D01*
X2507335Y31585000D01*
X2784574Y31640147D01*
X3045727Y31748320D01*
X3280759Y31905363D01*
X3480637Y32105241D01*
X3637680Y32340273D01*
X3745853Y32601426D01*
X3801000Y32878665D01*
X3801000Y32949488D01*
X5925783Y32949488D01*
X5967213Y32669870D01*
X6062397Y32403708D01*
X6129329Y32278486D01*
X6373298Y32206903D01*
X7186395Y33020000D01*
X7545605Y33020000D01*
X8358702Y32206903D01*
X8602671Y32278486D01*
X8723571Y32533996D01*
X8792300Y32808184D01*
X8806217Y33090512D01*
X8764787Y33370130D01*
X8669603Y33636292D01*
X8602671Y33761514D01*
X8358702Y33833097D01*
X7545605Y33020000D01*
X7186395Y33020000D01*
X6373298Y33833097D01*
X6129329Y33761514D01*
X6008429Y33506004D01*
X5939700Y33231816D01*
X5925783Y32949488D01*
X3801000Y32949488D01*
X3801000Y33161335D01*
X3745853Y33438574D01*
X3637680Y33699727D01*
X3480637Y33934759D01*
X3402694Y34012702D01*
X6552903Y34012702D01*
X7366000Y33199605D01*
X8179097Y34012702D01*
X8107514Y34256671D01*
X7852004Y34377571D01*
X7577816Y34446300D01*
X7295488Y34460217D01*
X7015870Y34418787D01*
X6749708Y34323603D01*
X6624486Y34256671D01*
X6552903Y34012702D01*
X3402694Y34012702D01*
X3280759Y34134637D01*
X3045727Y34291680D01*
X2784574Y34399853D01*
X2507335Y34455000D01*
X2224665Y34455000D01*
X1947426Y34399853D01*
X1686273Y34291680D01*
X1451241Y34134637D01*
X1251363Y33934759D01*
X1094320Y33699727D01*
X986147Y33438574D01*
X931000Y33161335D01*
X931000Y32878665D01*
X986147Y32601426D01*
X1094320Y32340273D01*
X1251363Y32105241D01*
X1451241Y31905363D01*
X1686273Y31748320D01*
X1947426Y31640147D01*
X2161824Y31597500D01*
X2144665Y31597500D01*
X1867426Y31542353D01*
X1606273Y31434180D01*
X1371241Y31277137D01*
X1171363Y31077259D01*
X1014320Y30842227D01*
X906147Y30581074D01*
X851000Y30303835D01*
X685000Y30303835D01*
X685000Y41948000D01*
X974928Y41948000D01*
X974928Y40348000D01*
X987188Y40223518D01*
X1023498Y40103820D01*
X1082463Y39993506D01*
X1161815Y39896815D01*
X1258506Y39817463D01*
X1368820Y39758498D01*
X1488518Y39722188D01*
X1613000Y39709928D01*
X3213000Y39709928D01*
X3337482Y39722188D01*
X3457180Y39758498D01*
X3567494Y39817463D01*
X3664185Y39896815D01*
X3743537Y39993506D01*
X3802502Y40103820D01*
X3838812Y40223518D01*
X3839643Y40231961D01*
X4038241Y40033363D01*
X4273273Y39876320D01*
X4534426Y39768147D01*
X4811665Y39713000D01*
X5094335Y39713000D01*
X5371574Y39768147D01*
X5632727Y39876320D01*
X5867759Y40033363D01*
X6067637Y40233241D01*
X6223000Y40465759D01*
X6378363Y40233241D01*
X6578241Y40033363D01*
X6813273Y39876320D01*
X7074426Y39768147D01*
X7351665Y39713000D01*
X7634335Y39713000D01*
X7911574Y39768147D01*
X8172727Y39876320D01*
X8407759Y40033363D01*
X8607637Y40233241D01*
X8763000Y40465759D01*
X8918363Y40233241D01*
X9118241Y40033363D01*
X9353273Y39876320D01*
X9614426Y39768147D01*
X9891665Y39713000D01*
X10174335Y39713000D01*
X10451574Y39768147D01*
X10712727Y39876320D01*
X10947759Y40033363D01*
X11147637Y40233241D01*
X11303000Y40465759D01*
X11458363Y40233241D01*
X11658241Y40033363D01*
X11893273Y39876320D01*
X12154426Y39768147D01*
X12431665Y39713000D01*
X12714335Y39713000D01*
X12944978Y39758878D01*
X12944979Y36435281D01*
X12611851Y36102153D01*
X12490771Y36078068D01*
X12320611Y36007586D01*
X12167472Y35905262D01*
X12037238Y35775028D01*
X11934914Y35621889D01*
X11864432Y35451729D01*
X11828500Y35271089D01*
X11828500Y35086911D01*
X11864432Y34906271D01*
X11934914Y34736111D01*
X12037238Y34582972D01*
X12167472Y34452738D01*
X12320611Y34350414D01*
X12490771Y34279932D01*
X12671411Y34244000D01*
X12855589Y34244000D01*
X12945624Y34261909D01*
X12959140Y34248393D01*
X13112279Y34146069D01*
X13282439Y34075587D01*
X13463079Y34039655D01*
X13647257Y34039655D01*
X13827897Y34075587D01*
X13998057Y34146069D01*
X13998107Y34146103D01*
X14008972Y34135238D01*
X14162111Y34032914D01*
X14332271Y33962432D01*
X14512911Y33926500D01*
X14697089Y33926500D01*
X14877729Y33962432D01*
X15047889Y34032914D01*
X15201028Y34135238D01*
X15331262Y34265472D01*
X15433586Y34418611D01*
X15504068Y34588771D01*
X15540000Y34769411D01*
X15540000Y34953589D01*
X15504068Y35134229D01*
X15433586Y35304389D01*
X15365000Y35407035D01*
X15365000Y37912199D01*
X16443803Y38991000D01*
X18060178Y38991000D01*
X18097500Y38987324D01*
X18134822Y38991000D01*
X18134833Y38991000D01*
X18246486Y39001997D01*
X18389747Y39045454D01*
X18521776Y39116026D01*
X18637501Y39210999D01*
X18661303Y39240002D01*
X19307002Y39885701D01*
X19336001Y39909499D01*
X19381197Y39964570D01*
X19513273Y39876320D01*
X19774426Y39768147D01*
X20051665Y39713000D01*
X20334335Y39713000D01*
X20611574Y39768147D01*
X20872727Y39876320D01*
X21107759Y40033363D01*
X21307637Y40233241D01*
X21463000Y40465759D01*
X21618363Y40233241D01*
X21818241Y40033363D01*
X22053273Y39876320D01*
X22314426Y39768147D01*
X22591665Y39713000D01*
X22874335Y39713000D01*
X23151574Y39768147D01*
X23412727Y39876320D01*
X23647759Y40033363D01*
X23847637Y40233241D01*
X24003000Y40465759D01*
X24158363Y40233241D01*
X24358241Y40033363D01*
X24593273Y39876320D01*
X24854426Y39768147D01*
X25131665Y39713000D01*
X25414335Y39713000D01*
X25691574Y39768147D01*
X25952727Y39876320D01*
X26187759Y40033363D01*
X26387637Y40233241D01*
X26543000Y40465759D01*
X26698363Y40233241D01*
X26898241Y40033363D01*
X27133273Y39876320D01*
X27394426Y39768147D01*
X27671665Y39713000D01*
X27954335Y39713000D01*
X28231574Y39768147D01*
X28492727Y39876320D01*
X28660066Y39988132D01*
X29820950Y38827248D01*
X29844749Y38798249D01*
X29873747Y38774451D01*
X29960473Y38703276D01*
X30071860Y38643738D01*
X30092503Y38632704D01*
X30235764Y38589247D01*
X30347417Y38578250D01*
X30347427Y38578250D01*
X30384750Y38574574D01*
X30422072Y38578250D01*
X33816449Y38578250D01*
X37349524Y35045173D01*
X36989496Y35045173D01*
X36952173Y35048849D01*
X36914850Y35045173D01*
X36914840Y35045173D01*
X36803187Y35034176D01*
X36659926Y34990719D01*
X36623035Y34971000D01*
X36610911Y34971000D01*
X36430271Y34935068D01*
X36260111Y34864586D01*
X36106972Y34762262D01*
X35976738Y34632028D01*
X35874414Y34478889D01*
X35803932Y34308729D01*
X35774546Y34161000D01*
X31392323Y34161000D01*
X31354998Y34164676D01*
X31317673Y34161000D01*
X31317665Y34161000D01*
X31206012Y34150003D01*
X31062751Y34106546D01*
X30930722Y34035974D01*
X30814997Y33941001D01*
X30791199Y33912003D01*
X28009493Y31130296D01*
X27980489Y31106493D01*
X27949720Y31069000D01*
X27885516Y30990768D01*
X27831263Y30889268D01*
X27814944Y30858738D01*
X27771487Y30715477D01*
X27760490Y30603824D01*
X27760490Y30603814D01*
X27756814Y30566492D01*
X27760490Y30529169D01*
X27760491Y29273002D01*
X27691904Y29170355D01*
X27621422Y29000195D01*
X27585490Y28819555D01*
X27585490Y28635377D01*
X27621422Y28454737D01*
X27679379Y28314816D01*
X27677621Y28314088D01*
X27524482Y28211764D01*
X27394248Y28081530D01*
X27291924Y27928391D01*
X27221442Y27758231D01*
X27185510Y27577591D01*
X27185510Y27393413D01*
X27221442Y27212773D01*
X27288960Y27049769D01*
X27221442Y26886764D01*
X27185510Y26706124D01*
X27185510Y26521946D01*
X27221442Y26341306D01*
X27291924Y26171146D01*
X27394248Y26018007D01*
X27524482Y25887773D01*
X27677621Y25785449D01*
X27847781Y25714967D01*
X28028421Y25679035D01*
X28212599Y25679035D01*
X28393239Y25714967D01*
X28493288Y25756408D01*
X28517478Y25698009D01*
X28619802Y25544870D01*
X28750036Y25414636D01*
X28903175Y25312312D01*
X29073335Y25241830D01*
X29253975Y25205898D01*
X29438153Y25205898D01*
X29618793Y25241830D01*
X29788953Y25312312D01*
X29891599Y25380898D01*
X30027610Y25380898D01*
X29946790Y25300078D01*
X29844466Y25146939D01*
X29773984Y24976779D01*
X29738052Y24796139D01*
X29738052Y24611961D01*
X29773984Y24431321D01*
X29844466Y24261161D01*
X29946790Y24108022D01*
X30077024Y23977788D01*
X30230163Y23875464D01*
X30400323Y23804982D01*
X30580963Y23769050D01*
X30765141Y23769050D01*
X30945781Y23804982D01*
X31115941Y23875464D01*
X31218587Y23944050D01*
X38481149Y23944050D01*
X39725142Y22700056D01*
X39748940Y22671058D01*
X39777938Y22647260D01*
X39864664Y22576085D01*
X39887618Y22563816D01*
X39996694Y22505513D01*
X40139955Y22462056D01*
X40251608Y22451059D01*
X40251617Y22451059D01*
X40288940Y22447383D01*
X40326263Y22451059D01*
X48872746Y22451059D01*
X48910068Y22447383D01*
X48947390Y22451059D01*
X48947401Y22451059D01*
X49059054Y22462056D01*
X49202315Y22505513D01*
X49334344Y22576085D01*
X49450069Y22671058D01*
X49473871Y22700061D01*
X49892692Y23118881D01*
X62874554Y23118881D01*
X62816320Y23031727D01*
X62708147Y22770574D01*
X62653000Y22493335D01*
X62653000Y22210665D01*
X62708147Y21933426D01*
X62816320Y21672273D01*
X62973363Y21437241D01*
X63173241Y21237363D01*
X63408273Y21080320D01*
X63669426Y20972147D01*
X63946665Y20917000D01*
X64229335Y20917000D01*
X64506574Y20972147D01*
X64767727Y21080320D01*
X65002759Y21237363D01*
X65124694Y21359298D01*
X68274903Y21359298D01*
X68346486Y21115329D01*
X68601996Y20994429D01*
X68876184Y20925700D01*
X69158512Y20911783D01*
X69438130Y20953213D01*
X69704292Y21048397D01*
X69829514Y21115329D01*
X69901097Y21359298D01*
X69088000Y22172395D01*
X68274903Y21359298D01*
X65124694Y21359298D01*
X65202637Y21437241D01*
X65359680Y21672273D01*
X65467853Y21933426D01*
X65523000Y22210665D01*
X65523000Y22493335D01*
X65467853Y22770574D01*
X65359680Y23031727D01*
X65301446Y23118881D01*
X67937785Y23118881D01*
X67851329Y23093514D01*
X67730429Y22838004D01*
X67661700Y22563816D01*
X67647783Y22281488D01*
X67689213Y22001870D01*
X67784397Y21735708D01*
X67851329Y21610486D01*
X68095298Y21538903D01*
X68908395Y22352000D01*
X69267605Y22352000D01*
X70080702Y21538903D01*
X70324671Y21610486D01*
X70445571Y21865996D01*
X70514300Y22140184D01*
X70528217Y22422512D01*
X70486787Y22702130D01*
X70391603Y22968292D01*
X70324671Y23093514D01*
X70080702Y23165097D01*
X69267605Y22352000D01*
X68908395Y22352000D01*
X68894253Y22366143D01*
X69073858Y22545748D01*
X69088000Y22531605D01*
X69901097Y23344702D01*
X69868750Y23454949D01*
X75114114Y28700312D01*
X75296665Y28664000D01*
X75579335Y28664000D01*
X75856574Y28719147D01*
X76117727Y28827320D01*
X76352759Y28984363D01*
X76551357Y29182961D01*
X76552188Y29174518D01*
X76588498Y29054820D01*
X76647463Y28944506D01*
X76726815Y28847815D01*
X76823506Y28768463D01*
X76933820Y28709498D01*
X77053518Y28673188D01*
X77178000Y28660928D01*
X78778000Y28660928D01*
X78902482Y28673188D01*
X79022180Y28709498D01*
X79132494Y28768463D01*
X79229185Y28847815D01*
X79308537Y28944506D01*
X79367502Y29054820D01*
X79403812Y29174518D01*
X79416072Y29299000D01*
X79416072Y30899000D01*
X79403812Y31023482D01*
X79367502Y31143180D01*
X79308537Y31253494D01*
X79229185Y31350185D01*
X79132494Y31429537D01*
X79022180Y31488502D01*
X78902482Y31524812D01*
X78778000Y31537072D01*
X77178000Y31537072D01*
X77053518Y31524812D01*
X76933820Y31488502D01*
X76823506Y31429537D01*
X76726815Y31350185D01*
X76647463Y31253494D01*
X76588498Y31143180D01*
X76552188Y31023482D01*
X76551357Y31015039D01*
X76352759Y31213637D01*
X76117727Y31370680D01*
X75856574Y31478853D01*
X75802002Y31489708D01*
X75802002Y31588089D01*
X75766070Y31768729D01*
X75695588Y31938889D01*
X75593264Y32092028D01*
X75463030Y32222262D01*
X75309891Y32324586D01*
X75139731Y32395068D01*
X74959091Y32431000D01*
X74774913Y32431000D01*
X74594273Y32395068D01*
X74424113Y32324586D01*
X74270974Y32222262D01*
X74140740Y32092028D01*
X74038416Y31938889D01*
X73967934Y31768729D01*
X73943849Y31647649D01*
X73802001Y31505800D01*
X73772998Y31481998D01*
X73729945Y31429537D01*
X73678025Y31366273D01*
X73653366Y31320140D01*
X73577727Y31370680D01*
X73316574Y31478853D01*
X73069466Y31528006D01*
X73091586Y31561111D01*
X73162068Y31731271D01*
X73198000Y31911911D01*
X73198000Y32096089D01*
X73162068Y32276729D01*
X73111836Y32398001D01*
X73140336Y32398001D01*
X73417575Y32453148D01*
X73678728Y32561321D01*
X73913760Y32718364D01*
X74113638Y32918242D01*
X74269001Y33150760D01*
X74424364Y32918242D01*
X74624242Y32718364D01*
X74859274Y32561321D01*
X75120427Y32453148D01*
X75397666Y32398001D01*
X75680336Y32398001D01*
X75957575Y32453148D01*
X76218728Y32561321D01*
X76453760Y32718364D01*
X76653638Y32918242D01*
X76810681Y33153274D01*
X76815068Y33163866D01*
X76926616Y32977870D01*
X77115587Y32769482D01*
X77341581Y32601964D01*
X77595914Y32481755D01*
X77729962Y32441097D01*
X77952001Y32563086D01*
X77952001Y33706001D01*
X78206001Y33706001D01*
X78206001Y32563086D01*
X78428040Y32441097D01*
X78562088Y32481755D01*
X78816421Y32601964D01*
X79042415Y32769482D01*
X79231386Y32977870D01*
X79376071Y33219120D01*
X79470910Y33483961D01*
X79349625Y33706001D01*
X78206001Y33706001D01*
X77952001Y33706001D01*
X77932001Y33706001D01*
X77932001Y33960001D01*
X77952001Y33960001D01*
X77952001Y35102916D01*
X78206001Y35102916D01*
X78206001Y33960001D01*
X79349625Y33960001D01*
X79470910Y34182041D01*
X79376071Y34446882D01*
X79231386Y34688132D01*
X79042415Y34896520D01*
X78816421Y35064038D01*
X78562088Y35184247D01*
X78428040Y35224905D01*
X78206001Y35102916D01*
X77952001Y35102916D01*
X77729962Y35224905D01*
X77595914Y35184247D01*
X77341581Y35064038D01*
X77115587Y34896520D01*
X76926616Y34688132D01*
X76815068Y34502136D01*
X76810681Y34512728D01*
X76653638Y34747760D01*
X76453760Y34947638D01*
X76218728Y35104681D01*
X75957575Y35212854D01*
X75680336Y35268001D01*
X75397666Y35268001D01*
X75120427Y35212854D01*
X74859274Y35104681D01*
X74624242Y34947638D01*
X74424364Y34747760D01*
X74269001Y34515242D01*
X74113638Y34747760D01*
X73913760Y34947638D01*
X73678728Y35104681D01*
X73417575Y35212854D01*
X73140336Y35268001D01*
X72857666Y35268001D01*
X72580427Y35212854D01*
X72319274Y35104681D01*
X72084242Y34947638D01*
X71884364Y34747760D01*
X71729001Y34515242D01*
X71573638Y34747760D01*
X71373760Y34947638D01*
X71138728Y35104681D01*
X70877575Y35212854D01*
X70600336Y35268001D01*
X70317666Y35268001D01*
X70040427Y35212854D01*
X69779274Y35104681D01*
X69544242Y34947638D01*
X69344364Y34747760D01*
X69189001Y34515242D01*
X69033638Y34747760D01*
X68833760Y34947638D01*
X68625921Y35086512D01*
X68626000Y35086911D01*
X68626000Y35271089D01*
X68590068Y35451729D01*
X68519586Y35621889D01*
X68417262Y35775028D01*
X68287028Y35905262D01*
X68133889Y36007586D01*
X67963729Y36078068D01*
X67783089Y36114000D01*
X67598911Y36114000D01*
X67418271Y36078068D01*
X67248111Y36007586D01*
X67167329Y35953610D01*
X67046566Y36034301D01*
X66876406Y36104783D01*
X66695766Y36140715D01*
X66511588Y36140715D01*
X66330948Y36104783D01*
X66160788Y36034301D01*
X66058142Y35965715D01*
X62756710Y35965715D01*
X62784000Y36102911D01*
X62784000Y36287089D01*
X62748068Y36467729D01*
X62677586Y36637889D01*
X62575262Y36791028D01*
X62445028Y36921262D01*
X62291889Y37023586D01*
X62121729Y37094068D01*
X61941089Y37130000D01*
X61756911Y37130000D01*
X61576271Y37094068D01*
X61547136Y37082000D01*
X53560049Y37082000D01*
X53533586Y37145889D01*
X53465000Y37248535D01*
X53465000Y40252330D01*
X53593760Y40338364D01*
X53793638Y40538242D01*
X53949001Y40770760D01*
X54104364Y40538242D01*
X54304242Y40338364D01*
X54539274Y40181321D01*
X54800427Y40073148D01*
X55077666Y40018001D01*
X55360336Y40018001D01*
X55637575Y40073148D01*
X55898728Y40181321D01*
X56133760Y40338364D01*
X56333638Y40538242D01*
X56489001Y40770760D01*
X56644364Y40538242D01*
X56844242Y40338364D01*
X57079274Y40181321D01*
X57340427Y40073148D01*
X57617666Y40018001D01*
X57900336Y40018001D01*
X58082887Y40054313D01*
X58564500Y39572700D01*
X58564500Y39468411D01*
X58600432Y39287771D01*
X58670914Y39117611D01*
X58773238Y38964472D01*
X58903472Y38834238D01*
X59056611Y38731914D01*
X59226771Y38661432D01*
X59407411Y38625500D01*
X59591589Y38625500D01*
X59772229Y38661432D01*
X59942389Y38731914D01*
X60095528Y38834238D01*
X60225762Y38964472D01*
X60328086Y39117611D01*
X60398568Y39287771D01*
X60434500Y39468411D01*
X60434500Y39652589D01*
X60398568Y39833229D01*
X60328086Y40003389D01*
X60318323Y40018001D01*
X60426003Y40018001D01*
X60426003Y40183085D01*
X60648040Y40061097D01*
X60782088Y40101755D01*
X61036421Y40221964D01*
X61262415Y40389482D01*
X61451386Y40597870D01*
X61562934Y40783866D01*
X61567321Y40773274D01*
X61724364Y40538242D01*
X61924242Y40338364D01*
X62079002Y40234957D01*
X62079002Y40139045D01*
X62014972Y40096262D01*
X61884738Y39966028D01*
X61782414Y39812889D01*
X61711932Y39642729D01*
X61676000Y39462089D01*
X61676000Y39277911D01*
X61711932Y39097271D01*
X61782414Y38927111D01*
X61884738Y38773972D01*
X62014972Y38643738D01*
X62168111Y38541414D01*
X62338271Y38470932D01*
X62518911Y38435000D01*
X62703089Y38435000D01*
X62883729Y38470932D01*
X63053889Y38541414D01*
X63207028Y38643738D01*
X63337262Y38773972D01*
X63439586Y38927111D01*
X63510068Y39097271D01*
X63546000Y39277911D01*
X63546000Y39310544D01*
X63588004Y39449015D01*
X63599001Y39560668D01*
X63599001Y39560677D01*
X63602677Y39598000D01*
X63599001Y39635323D01*
X63599001Y40234958D01*
X63753760Y40338364D01*
X63953638Y40538242D01*
X64109001Y40770760D01*
X64264364Y40538242D01*
X64464242Y40338364D01*
X64699274Y40181321D01*
X64960427Y40073148D01*
X65237666Y40018001D01*
X65520336Y40018001D01*
X65797575Y40073148D01*
X66058728Y40181321D01*
X66293760Y40338364D01*
X66493638Y40538242D01*
X66649001Y40770760D01*
X66804364Y40538242D01*
X67004242Y40338364D01*
X67239274Y40181321D01*
X67500427Y40073148D01*
X67777666Y40018001D01*
X68060336Y40018001D01*
X68337575Y40073148D01*
X68598728Y40181321D01*
X68833760Y40338364D01*
X69033638Y40538242D01*
X69189001Y40770760D01*
X69344364Y40538242D01*
X69544242Y40338364D01*
X69779274Y40181321D01*
X70040427Y40073148D01*
X70317666Y40018001D01*
X70600336Y40018001D01*
X70877575Y40073148D01*
X71138728Y40181321D01*
X71373760Y40338364D01*
X71573638Y40538242D01*
X71729001Y40770760D01*
X71884364Y40538242D01*
X72084242Y40338364D01*
X72319274Y40181321D01*
X72580427Y40073148D01*
X72857666Y40018001D01*
X73140336Y40018001D01*
X73417575Y40073148D01*
X73678728Y40181321D01*
X73913760Y40338364D01*
X74113638Y40538242D01*
X74269001Y40770760D01*
X74424364Y40538242D01*
X74624242Y40338364D01*
X74859274Y40181321D01*
X75120427Y40073148D01*
X75397666Y40018001D01*
X75680336Y40018001D01*
X75957575Y40073148D01*
X76218728Y40181321D01*
X76453760Y40338364D01*
X76653638Y40538242D01*
X76809001Y40770760D01*
X76964364Y40538242D01*
X77164242Y40338364D01*
X77399274Y40181321D01*
X77660427Y40073148D01*
X77937666Y40018001D01*
X78220336Y40018001D01*
X78497575Y40073148D01*
X78758728Y40181321D01*
X78993760Y40338364D01*
X79193638Y40538242D01*
X79350681Y40773274D01*
X79458854Y41034427D01*
X79514001Y41311666D01*
X79514001Y41594336D01*
X79458854Y41871575D01*
X79350681Y42132728D01*
X79193638Y42367760D01*
X78993760Y42567638D01*
X78758728Y42724681D01*
X78497575Y42832854D01*
X78220336Y42888001D01*
X77937666Y42888001D01*
X77660427Y42832854D01*
X77399274Y42724681D01*
X77164242Y42567638D01*
X76964364Y42367760D01*
X76809001Y42135242D01*
X76653638Y42367760D01*
X76453760Y42567638D01*
X76218728Y42724681D01*
X75957575Y42832854D01*
X75680336Y42888001D01*
X75397666Y42888001D01*
X75120427Y42832854D01*
X74859274Y42724681D01*
X74624242Y42567638D01*
X74424364Y42367760D01*
X74269001Y42135242D01*
X74113638Y42367760D01*
X73913760Y42567638D01*
X73678728Y42724681D01*
X73417575Y42832854D01*
X73140336Y42888001D01*
X72857666Y42888001D01*
X72580427Y42832854D01*
X72319274Y42724681D01*
X72084242Y42567638D01*
X71884364Y42367760D01*
X71729001Y42135242D01*
X71573638Y42367760D01*
X71373760Y42567638D01*
X71138728Y42724681D01*
X70877575Y42832854D01*
X70600336Y42888001D01*
X70317666Y42888001D01*
X70040427Y42832854D01*
X69779274Y42724681D01*
X69544242Y42567638D01*
X69344364Y42367760D01*
X69189001Y42135242D01*
X69033638Y42367760D01*
X68833760Y42567638D01*
X68598728Y42724681D01*
X68337575Y42832854D01*
X68060336Y42888001D01*
X67777666Y42888001D01*
X67500427Y42832854D01*
X67239274Y42724681D01*
X67004242Y42567638D01*
X66804364Y42367760D01*
X66649001Y42135242D01*
X66493638Y42367760D01*
X66293760Y42567638D01*
X66058728Y42724681D01*
X65797575Y42832854D01*
X65520336Y42888001D01*
X65237666Y42888001D01*
X64960427Y42832854D01*
X64699274Y42724681D01*
X64464242Y42567638D01*
X64264364Y42367760D01*
X64109001Y42135242D01*
X63953638Y42367760D01*
X63753760Y42567638D01*
X63518728Y42724681D01*
X63257575Y42832854D01*
X62980336Y42888001D01*
X62697666Y42888001D01*
X62420427Y42832854D01*
X62159274Y42724681D01*
X61924242Y42567638D01*
X61724364Y42367760D01*
X61567321Y42132728D01*
X61562934Y42122136D01*
X61451386Y42308132D01*
X61262415Y42516520D01*
X61036421Y42684038D01*
X60782088Y42804247D01*
X60648040Y42844905D01*
X60426001Y42722916D01*
X60426001Y41580001D01*
X60446001Y41580001D01*
X60446001Y41326001D01*
X60426001Y41326001D01*
X60426001Y41306001D01*
X60172001Y41306001D01*
X60172001Y41326001D01*
X60152001Y41326001D01*
X60152001Y41580001D01*
X60172001Y41580001D01*
X60172001Y42722916D01*
X59949962Y42844905D01*
X59815914Y42804247D01*
X59561581Y42684038D01*
X59335587Y42516520D01*
X59146616Y42308132D01*
X59035068Y42122136D01*
X59030681Y42132728D01*
X58873638Y42367760D01*
X58673760Y42567638D01*
X58438728Y42724681D01*
X58177575Y42832854D01*
X57900336Y42888001D01*
X57617666Y42888001D01*
X57340427Y42832854D01*
X57079274Y42724681D01*
X56844242Y42567638D01*
X56644364Y42367760D01*
X56489001Y42135242D01*
X56333638Y42367760D01*
X56133760Y42567638D01*
X55898728Y42724681D01*
X55637575Y42832854D01*
X55360336Y42888001D01*
X55077666Y42888001D01*
X54895114Y42851689D01*
X54657804Y43089000D01*
X54634001Y43118003D01*
X54518276Y43212976D01*
X54386247Y43283548D01*
X54242986Y43327005D01*
X54131333Y43338002D01*
X54131322Y43338002D01*
X54094000Y43341678D01*
X54056678Y43338002D01*
X50816094Y43338002D01*
X50851097Y43457298D01*
X50038000Y44270395D01*
X49224903Y43457298D01*
X49280068Y43269285D01*
X49174723Y43212976D01*
X49116192Y43164940D01*
X49058999Y43118003D01*
X49035200Y43089004D01*
X48513797Y42567601D01*
X48513760Y42567638D01*
X48278728Y42724681D01*
X48017575Y42832854D01*
X47740336Y42888001D01*
X47457666Y42888001D01*
X47180427Y42832854D01*
X46919274Y42724681D01*
X46684242Y42567638D01*
X46484364Y42367760D01*
X46329001Y42135242D01*
X46173638Y42367760D01*
X45973760Y42567638D01*
X45738728Y42724681D01*
X45477575Y42832854D01*
X45200336Y42888001D01*
X44917666Y42888001D01*
X44640427Y42832854D01*
X44379274Y42724681D01*
X44144242Y42567638D01*
X43944364Y42367760D01*
X43787321Y42132728D01*
X43679148Y41871575D01*
X43624001Y41594336D01*
X43624001Y41311666D01*
X43679148Y41034427D01*
X43787321Y40773274D01*
X43944364Y40538242D01*
X44144242Y40338364D01*
X44379274Y40181321D01*
X44640427Y40073148D01*
X44917666Y40018001D01*
X45200336Y40018001D01*
X45477575Y40073148D01*
X45738728Y40181321D01*
X45973760Y40338364D01*
X46173638Y40538242D01*
X46329001Y40770760D01*
X46484364Y40538242D01*
X46684242Y40338364D01*
X46806012Y40257000D01*
X46138325Y40257000D01*
X46101000Y40260676D01*
X46063675Y40257000D01*
X46063667Y40257000D01*
X45952014Y40246003D01*
X45808753Y40202546D01*
X45676724Y40131974D01*
X45560999Y40037001D01*
X45537201Y40008003D01*
X41761587Y36232388D01*
X41717889Y36261586D01*
X41547729Y36332068D01*
X41367089Y36368000D01*
X41182911Y36368000D01*
X41053109Y36342181D01*
X40982028Y36413262D01*
X40828889Y36515586D01*
X40658729Y36586068D01*
X40478089Y36622000D01*
X40293911Y36622000D01*
X40113271Y36586068D01*
X39976758Y36529523D01*
X39969822Y36536459D01*
X39816683Y36638783D01*
X39646523Y36709265D01*
X39465883Y36745197D01*
X39281705Y36745197D01*
X39159695Y36720927D01*
X36030019Y39850603D01*
X36170420Y39916963D01*
X36396414Y40084481D01*
X36585385Y40292869D01*
X36730070Y40534119D01*
X36824909Y40798960D01*
X36703624Y41021000D01*
X35560000Y41021000D01*
X35560000Y41001000D01*
X35306000Y41001000D01*
X35306000Y41021000D01*
X35286000Y41021000D01*
X35286000Y41275000D01*
X35306000Y41275000D01*
X35306000Y42417915D01*
X35560000Y42417915D01*
X35560000Y41275000D01*
X36703624Y41275000D01*
X36824909Y41497040D01*
X36730070Y41761881D01*
X36585385Y42003131D01*
X36396414Y42211519D01*
X36170420Y42379037D01*
X35916087Y42499246D01*
X35782039Y42539904D01*
X35560000Y42417915D01*
X35306000Y42417915D01*
X35083961Y42539904D01*
X34949913Y42499246D01*
X34695580Y42379037D01*
X34469586Y42211519D01*
X34280615Y42003131D01*
X34169067Y41817135D01*
X34164680Y41827727D01*
X34007637Y42062759D01*
X33807759Y42262637D01*
X33572727Y42419680D01*
X33311574Y42527853D01*
X33034335Y42583000D01*
X32751665Y42583000D01*
X32474426Y42527853D01*
X32213273Y42419680D01*
X31978241Y42262637D01*
X31778363Y42062759D01*
X31623000Y41830241D01*
X31467637Y42062759D01*
X31267759Y42262637D01*
X31032727Y42419680D01*
X30771574Y42527853D01*
X30494335Y42583000D01*
X30211665Y42583000D01*
X29934426Y42527853D01*
X29673273Y42419680D01*
X29438241Y42262637D01*
X29238363Y42062759D01*
X29083000Y41830241D01*
X28927637Y42062759D01*
X28727759Y42262637D01*
X28492727Y42419680D01*
X28231574Y42527853D01*
X27954335Y42583000D01*
X27671665Y42583000D01*
X27394426Y42527853D01*
X27133273Y42419680D01*
X26898241Y42262637D01*
X26698363Y42062759D01*
X26543000Y41830241D01*
X26387637Y42062759D01*
X26187759Y42262637D01*
X25952727Y42419680D01*
X25691574Y42527853D01*
X25414335Y42583000D01*
X25131665Y42583000D01*
X24854426Y42527853D01*
X24593273Y42419680D01*
X24358241Y42262637D01*
X24158363Y42062759D01*
X24003000Y41830241D01*
X23847637Y42062759D01*
X23647759Y42262637D01*
X23412727Y42419680D01*
X23151574Y42527853D01*
X22874335Y42583000D01*
X22591665Y42583000D01*
X22314426Y42527853D01*
X22053273Y42419680D01*
X21818241Y42262637D01*
X21618363Y42062759D01*
X21463000Y41830241D01*
X21307637Y42062759D01*
X21107759Y42262637D01*
X20872727Y42419680D01*
X20611574Y42527853D01*
X20334335Y42583000D01*
X20051665Y42583000D01*
X19774426Y42527853D01*
X19556000Y42437378D01*
X19556000Y42634465D01*
X19624586Y42737111D01*
X19695068Y42907271D01*
X19731000Y43087911D01*
X19731000Y43272089D01*
X19695068Y43452729D01*
X19624586Y43622889D01*
X19522262Y43776028D01*
X19392028Y43906262D01*
X19238889Y44008586D01*
X19068729Y44079068D01*
X18888089Y44115000D01*
X18703911Y44115000D01*
X18523271Y44079068D01*
X18353111Y44008586D01*
X18199972Y43906262D01*
X18069738Y43776028D01*
X17967414Y43622889D01*
X17896932Y43452729D01*
X17861000Y43272089D01*
X17861000Y43087911D01*
X17896932Y42907271D01*
X17967414Y42737111D01*
X18036000Y42634464D01*
X18036000Y42534929D01*
X17794335Y42583000D01*
X17604444Y42583000D01*
X17652640Y42655131D01*
X17723122Y42825291D01*
X17759054Y43005931D01*
X17759054Y43190109D01*
X17723122Y43370749D01*
X17652640Y43540909D01*
X17550316Y43694048D01*
X17420082Y43824282D01*
X17266943Y43926606D01*
X17096783Y43997088D01*
X16916143Y44033020D01*
X16731965Y44033020D01*
X16551325Y43997088D01*
X16381165Y43926606D01*
X16228026Y43824282D01*
X16097792Y43694048D01*
X15995468Y43540909D01*
X15924986Y43370749D01*
X15900901Y43249669D01*
X15745002Y43093769D01*
X15715999Y43069967D01*
X15660871Y43002792D01*
X15621026Y42954242D01*
X15576130Y42870248D01*
X15550454Y42822212D01*
X15506997Y42678951D01*
X15496000Y42567298D01*
X15496000Y42567288D01*
X15492874Y42535551D01*
X15413000Y42551439D01*
X15413000Y42637089D01*
X15377068Y42817729D01*
X15306586Y42987889D01*
X15204262Y43141028D01*
X15074028Y43271262D01*
X14920889Y43373586D01*
X14750729Y43444068D01*
X14570089Y43480000D01*
X14385911Y43480000D01*
X14205271Y43444068D01*
X14035111Y43373586D01*
X13881972Y43271262D01*
X13751738Y43141028D01*
X13649414Y42987889D01*
X13578932Y42817729D01*
X13554847Y42696649D01*
X13267804Y42409606D01*
X13252727Y42419680D01*
X12991574Y42527853D01*
X12714335Y42583000D01*
X12431665Y42583000D01*
X12154426Y42527853D01*
X11893273Y42419680D01*
X11658241Y42262637D01*
X11458363Y42062759D01*
X11303000Y41830241D01*
X11147637Y42062759D01*
X10947759Y42262637D01*
X10712727Y42419680D01*
X10451574Y42527853D01*
X10174335Y42583000D01*
X9891665Y42583000D01*
X9614426Y42527853D01*
X9353273Y42419680D01*
X9118241Y42262637D01*
X8918363Y42062759D01*
X8763000Y41830241D01*
X8607637Y42062759D01*
X8407759Y42262637D01*
X8172727Y42419680D01*
X7911574Y42527853D01*
X7634335Y42583000D01*
X7351665Y42583000D01*
X7074426Y42527853D01*
X6813273Y42419680D01*
X6578241Y42262637D01*
X6378363Y42062759D01*
X6223000Y41830241D01*
X6067637Y42062759D01*
X5867759Y42262637D01*
X5632727Y42419680D01*
X5371574Y42527853D01*
X5094335Y42583000D01*
X4811665Y42583000D01*
X4534426Y42527853D01*
X4273273Y42419680D01*
X4038241Y42262637D01*
X3839643Y42064039D01*
X3838812Y42072482D01*
X3802502Y42192180D01*
X3743537Y42302494D01*
X3664185Y42399185D01*
X3567494Y42478537D01*
X3457180Y42537502D01*
X3337482Y42573812D01*
X3213000Y42586072D01*
X1613000Y42586072D01*
X1488518Y42573812D01*
X1368820Y42537502D01*
X1258506Y42478537D01*
X1161815Y42399185D01*
X1082463Y42302494D01*
X1023498Y42192180D01*
X987188Y42072482D01*
X974928Y41948000D01*
X685000Y41948000D01*
X685000Y44591335D01*
X43603000Y44591335D01*
X43603000Y44308665D01*
X43658147Y44031426D01*
X43766320Y43770273D01*
X43923363Y43535241D01*
X44123241Y43335363D01*
X44358273Y43178320D01*
X44619426Y43070147D01*
X44896665Y43015000D01*
X45179335Y43015000D01*
X45456574Y43070147D01*
X45717727Y43178320D01*
X45952759Y43335363D01*
X46152637Y43535241D01*
X46309680Y43770273D01*
X46417853Y44031426D01*
X46473000Y44308665D01*
X46473000Y44379488D01*
X48597783Y44379488D01*
X48639213Y44099870D01*
X48734397Y43833708D01*
X48801329Y43708486D01*
X49045298Y43636903D01*
X49858395Y44450000D01*
X50217605Y44450000D01*
X51030702Y43636903D01*
X51274671Y43708486D01*
X51395571Y43963996D01*
X51464300Y44238184D01*
X51478217Y44520512D01*
X51436787Y44800130D01*
X51341603Y45066292D01*
X51274671Y45191514D01*
X51030702Y45263097D01*
X50217605Y44450000D01*
X49858395Y44450000D01*
X49045298Y45263097D01*
X48801329Y45191514D01*
X48680429Y44936004D01*
X48611700Y44661816D01*
X48597783Y44379488D01*
X46473000Y44379488D01*
X46473000Y44591335D01*
X46417853Y44868574D01*
X46309680Y45129727D01*
X46152637Y45364759D01*
X46074694Y45442702D01*
X49224903Y45442702D01*
X50038000Y44629605D01*
X50851097Y45442702D01*
X50779514Y45686671D01*
X50524004Y45807571D01*
X50249816Y45876300D01*
X49967488Y45890217D01*
X49687870Y45848787D01*
X49421708Y45753603D01*
X49296486Y45686671D01*
X49224903Y45442702D01*
X46074694Y45442702D01*
X45952759Y45564637D01*
X45717727Y45721680D01*
X45456574Y45829853D01*
X45179335Y45885000D01*
X44896665Y45885000D01*
X44619426Y45829853D01*
X44358273Y45721680D01*
X44123241Y45564637D01*
X43923363Y45364759D01*
X43766320Y45129727D01*
X43658147Y44868574D01*
X43603000Y44591335D01*
X685000Y44591335D01*
X685000Y56529335D01*
X978000Y56529335D01*
X978000Y56246665D01*
X1033147Y55969426D01*
X1141320Y55708273D01*
X1298363Y55473241D01*
X1498241Y55273363D01*
X1733273Y55116320D01*
X1994426Y55008147D01*
X2271665Y54953000D01*
X2554335Y54953000D01*
X2831574Y55008147D01*
X3092727Y55116320D01*
X3327759Y55273363D01*
X3527637Y55473241D01*
X3683000Y55705759D01*
X3771001Y55574056D01*
X3771000Y52700284D01*
X3634320Y52495727D01*
X3526147Y52234574D01*
X3471000Y51957335D01*
X3471000Y51674665D01*
X3526147Y51397426D01*
X3634320Y51136273D01*
X3791363Y50901241D01*
X3991241Y50701363D01*
X4226273Y50544320D01*
X4487426Y50436147D01*
X4764665Y50381000D01*
X5047335Y50381000D01*
X5324574Y50436147D01*
X5585727Y50544320D01*
X5820759Y50701363D01*
X5942694Y50823298D01*
X9092903Y50823298D01*
X9164486Y50579329D01*
X9419996Y50458429D01*
X9694184Y50389700D01*
X9976512Y50375783D01*
X10256130Y50417213D01*
X10522292Y50512397D01*
X10647514Y50579329D01*
X10719097Y50823298D01*
X9906000Y51636395D01*
X9092903Y50823298D01*
X5942694Y50823298D01*
X6020637Y50901241D01*
X6177680Y51136273D01*
X6285853Y51397426D01*
X6341000Y51674665D01*
X6341000Y51745488D01*
X8465783Y51745488D01*
X8507213Y51465870D01*
X8602397Y51199708D01*
X8669329Y51074486D01*
X8913298Y51002903D01*
X9726395Y51816000D01*
X10085605Y51816000D01*
X10898702Y51002903D01*
X11142671Y51074486D01*
X11263571Y51329996D01*
X11332300Y51604184D01*
X11346217Y51886512D01*
X11304787Y52166130D01*
X11209603Y52432292D01*
X11142671Y52557514D01*
X10898702Y52629097D01*
X10085605Y51816000D01*
X9726395Y51816000D01*
X8913298Y52629097D01*
X8669329Y52557514D01*
X8548429Y52302004D01*
X8479700Y52027816D01*
X8465783Y51745488D01*
X6341000Y51745488D01*
X6341000Y51957335D01*
X6285853Y52234574D01*
X6177680Y52495727D01*
X6041000Y52700284D01*
X6041000Y52808702D01*
X9092903Y52808702D01*
X9906000Y51995605D01*
X10719097Y52808702D01*
X10647514Y53052671D01*
X10392004Y53173571D01*
X10117816Y53242300D01*
X9835488Y53256217D01*
X9555870Y53214787D01*
X9289708Y53119603D01*
X9164486Y53052671D01*
X9092903Y52808702D01*
X6041000Y52808702D01*
X6041000Y55446604D01*
X6067637Y55473241D01*
X6223000Y55705759D01*
X6378363Y55473241D01*
X6578241Y55273363D01*
X6813273Y55116320D01*
X7074426Y55008147D01*
X7351665Y54953000D01*
X7634335Y54953000D01*
X7911574Y55008147D01*
X8172727Y55116320D01*
X8407759Y55273363D01*
X8607637Y55473241D01*
X8763000Y55705759D01*
X8918363Y55473241D01*
X9118241Y55273363D01*
X9353273Y55116320D01*
X9614426Y55008147D01*
X9891665Y54953000D01*
X10174335Y54953000D01*
X10451574Y55008147D01*
X10712727Y55116320D01*
X10947759Y55273363D01*
X11147637Y55473241D01*
X11303000Y55705759D01*
X11458363Y55473241D01*
X11658241Y55273363D01*
X11893273Y55116320D01*
X12154426Y55008147D01*
X12431665Y54953000D01*
X12714335Y54953000D01*
X12991574Y55008147D01*
X13252727Y55116320D01*
X13487759Y55273363D01*
X13687637Y55473241D01*
X13843000Y55705759D01*
X13998363Y55473241D01*
X14198241Y55273363D01*
X14433273Y55116320D01*
X14694426Y55008147D01*
X14971665Y54953000D01*
X15254335Y54953000D01*
X15531574Y55008147D01*
X15792727Y55116320D01*
X16027759Y55273363D01*
X16227637Y55473241D01*
X16383000Y55705759D01*
X16538363Y55473241D01*
X16738241Y55273363D01*
X16973273Y55116320D01*
X17234426Y55008147D01*
X17511665Y54953000D01*
X17794335Y54953000D01*
X17976886Y54989312D01*
X18544001Y54422197D01*
X18544000Y48678536D01*
X18475414Y48575889D01*
X18404932Y48405729D01*
X18369000Y48225089D01*
X18369000Y48040911D01*
X18404932Y47860271D01*
X18475414Y47690111D01*
X18577738Y47536972D01*
X18707972Y47406738D01*
X18861111Y47304414D01*
X19031271Y47233932D01*
X19211911Y47198000D01*
X19396089Y47198000D01*
X19576729Y47233932D01*
X19746889Y47304414D01*
X19900028Y47406738D01*
X20030262Y47536972D01*
X20132586Y47690111D01*
X20203068Y47860271D01*
X20239000Y48040911D01*
X20239000Y48225089D01*
X20203068Y48405729D01*
X20132586Y48575889D01*
X20064000Y48678535D01*
X20064000Y49872000D01*
X43723928Y49872000D01*
X43723928Y48172000D01*
X43736188Y48047518D01*
X43772498Y47927820D01*
X43831463Y47817506D01*
X43910815Y47720815D01*
X44007506Y47641463D01*
X44117820Y47582498D01*
X44237518Y47546188D01*
X44362000Y47533928D01*
X46062000Y47533928D01*
X46186482Y47546188D01*
X46306180Y47582498D01*
X46416494Y47641463D01*
X46513185Y47720815D01*
X46592537Y47817506D01*
X46651502Y47927820D01*
X46673513Y48000380D01*
X46805368Y47868525D01*
X47048589Y47706010D01*
X47318842Y47594068D01*
X47605740Y47537000D01*
X47898260Y47537000D01*
X48185158Y47594068D01*
X48455411Y47706010D01*
X48698632Y47868525D01*
X48905475Y48075368D01*
X49022000Y48249760D01*
X49138525Y48075368D01*
X49345368Y47868525D01*
X49588589Y47706010D01*
X49858842Y47594068D01*
X50145740Y47537000D01*
X50438260Y47537000D01*
X50725158Y47594068D01*
X50995411Y47706010D01*
X51238632Y47868525D01*
X51445475Y48075368D01*
X51562000Y48249760D01*
X51678525Y48075368D01*
X51885368Y47868525D01*
X52128589Y47706010D01*
X52398842Y47594068D01*
X52685740Y47537000D01*
X52978260Y47537000D01*
X53265158Y47594068D01*
X53535411Y47706010D01*
X53778632Y47868525D01*
X53985475Y48075368D01*
X54102000Y48249760D01*
X54218525Y48075368D01*
X54425368Y47868525D01*
X54668589Y47706010D01*
X54938842Y47594068D01*
X55225740Y47537000D01*
X55518260Y47537000D01*
X55805158Y47594068D01*
X56075411Y47706010D01*
X56318632Y47868525D01*
X56525475Y48075368D01*
X56642000Y48249760D01*
X56758525Y48075368D01*
X56965368Y47868525D01*
X57208589Y47706010D01*
X57478842Y47594068D01*
X57765740Y47537000D01*
X58058260Y47537000D01*
X58345158Y47594068D01*
X58615411Y47706010D01*
X58858632Y47868525D01*
X59065475Y48075368D01*
X59187195Y48257534D01*
X59256822Y48140645D01*
X59451731Y47924412D01*
X59685080Y47750359D01*
X59947901Y47625175D01*
X60095110Y47580524D01*
X60325000Y47701845D01*
X60325000Y48895000D01*
X60305000Y48895000D01*
X60305000Y49149000D01*
X60325000Y49149000D01*
X60325000Y50342155D01*
X60579000Y50342155D01*
X60579000Y49149000D01*
X60599000Y49149000D01*
X60599000Y48895000D01*
X60579000Y48895000D01*
X60579000Y47701845D01*
X60808890Y47580524D01*
X60956099Y47625175D01*
X61218920Y47750359D01*
X61452269Y47924412D01*
X61647178Y48140645D01*
X61716805Y48257534D01*
X61838525Y48075368D01*
X62045368Y47868525D01*
X62288589Y47706010D01*
X62558842Y47594068D01*
X62845740Y47537000D01*
X63138260Y47537000D01*
X63425158Y47594068D01*
X63695411Y47706010D01*
X63938632Y47868525D01*
X64145475Y48075368D01*
X64262000Y48249760D01*
X64378525Y48075368D01*
X64585368Y47868525D01*
X64828589Y47706010D01*
X65098842Y47594068D01*
X65385740Y47537000D01*
X65678260Y47537000D01*
X65965158Y47594068D01*
X66235411Y47706010D01*
X66478632Y47868525D01*
X66685475Y48075368D01*
X66802000Y48249760D01*
X66918525Y48075368D01*
X67125368Y47868525D01*
X67368589Y47706010D01*
X67638842Y47594068D01*
X67925740Y47537000D01*
X68218260Y47537000D01*
X68505158Y47594068D01*
X68775411Y47706010D01*
X69018632Y47868525D01*
X69225475Y48075368D01*
X69342000Y48249760D01*
X69458525Y48075368D01*
X69665368Y47868525D01*
X69908589Y47706010D01*
X70178842Y47594068D01*
X70465740Y47537000D01*
X70758260Y47537000D01*
X71045158Y47594068D01*
X71315411Y47706010D01*
X71558632Y47868525D01*
X71765475Y48075368D01*
X71882000Y48249760D01*
X71998525Y48075368D01*
X72205368Y47868525D01*
X72448589Y47706010D01*
X72718842Y47594068D01*
X73005740Y47537000D01*
X73298260Y47537000D01*
X73585158Y47594068D01*
X73855411Y47706010D01*
X74098632Y47868525D01*
X74305475Y48075368D01*
X74422000Y48249760D01*
X74538525Y48075368D01*
X74745368Y47868525D01*
X74988589Y47706010D01*
X75258842Y47594068D01*
X75545740Y47537000D01*
X75838260Y47537000D01*
X76125158Y47594068D01*
X76395411Y47706010D01*
X76638632Y47868525D01*
X76845475Y48075368D01*
X76962000Y48249760D01*
X77078525Y48075368D01*
X77285368Y47868525D01*
X77528589Y47706010D01*
X77798842Y47594068D01*
X78085740Y47537000D01*
X78378260Y47537000D01*
X78665158Y47594068D01*
X78935411Y47706010D01*
X79178632Y47868525D01*
X79385475Y48075368D01*
X79547990Y48318589D01*
X79659932Y48588842D01*
X79717000Y48875740D01*
X79717000Y49168260D01*
X79659932Y49455158D01*
X79547990Y49725411D01*
X79385475Y49968632D01*
X79178632Y50175475D01*
X78935411Y50337990D01*
X78665158Y50449932D01*
X78378260Y50507000D01*
X78085740Y50507000D01*
X77798842Y50449932D01*
X77528589Y50337990D01*
X77285368Y50175475D01*
X77078525Y49968632D01*
X76962000Y49794240D01*
X76845475Y49968632D01*
X76638632Y50175475D01*
X76395411Y50337990D01*
X76125158Y50449932D01*
X75838260Y50507000D01*
X75545740Y50507000D01*
X75258842Y50449932D01*
X74988589Y50337990D01*
X74745368Y50175475D01*
X74538525Y49968632D01*
X74422000Y49794240D01*
X74305475Y49968632D01*
X74098632Y50175475D01*
X73855411Y50337990D01*
X73585158Y50449932D01*
X73298260Y50507000D01*
X73005740Y50507000D01*
X72718842Y50449932D01*
X72448589Y50337990D01*
X72205368Y50175475D01*
X71998525Y49968632D01*
X71882000Y49794240D01*
X71765475Y49968632D01*
X71558632Y50175475D01*
X71315411Y50337990D01*
X71045158Y50449932D01*
X70758260Y50507000D01*
X70465740Y50507000D01*
X70178842Y50449932D01*
X69908589Y50337990D01*
X69665368Y50175475D01*
X69458525Y49968632D01*
X69342000Y49794240D01*
X69225475Y49968632D01*
X69018632Y50175475D01*
X68775411Y50337990D01*
X68505158Y50449932D01*
X68218260Y50507000D01*
X67925740Y50507000D01*
X67638842Y50449932D01*
X67368589Y50337990D01*
X67125368Y50175475D01*
X66918525Y49968632D01*
X66802000Y49794240D01*
X66685475Y49968632D01*
X66478632Y50175475D01*
X66235411Y50337990D01*
X65965158Y50449932D01*
X65678260Y50507000D01*
X65385740Y50507000D01*
X65098842Y50449932D01*
X64828589Y50337990D01*
X64585368Y50175475D01*
X64378525Y49968632D01*
X64262000Y49794240D01*
X64145475Y49968632D01*
X63938632Y50175475D01*
X63695411Y50337990D01*
X63425158Y50449932D01*
X63138260Y50507000D01*
X62845740Y50507000D01*
X62558842Y50449932D01*
X62288589Y50337990D01*
X62045368Y50175475D01*
X61838525Y49968632D01*
X61716805Y49786466D01*
X61647178Y49903355D01*
X61452269Y50119588D01*
X61218920Y50293641D01*
X60956099Y50418825D01*
X60808890Y50463476D01*
X60579000Y50342155D01*
X60325000Y50342155D01*
X60095110Y50463476D01*
X59947901Y50418825D01*
X59685080Y50293641D01*
X59451731Y50119588D01*
X59256822Y49903355D01*
X59187195Y49786466D01*
X59065475Y49968632D01*
X58858632Y50175475D01*
X58615411Y50337990D01*
X58345158Y50449932D01*
X58058260Y50507000D01*
X57765740Y50507000D01*
X57478842Y50449932D01*
X57208589Y50337990D01*
X56965368Y50175475D01*
X56758525Y49968632D01*
X56642000Y49794240D01*
X56525475Y49968632D01*
X56318632Y50175475D01*
X56075411Y50337990D01*
X55805158Y50449932D01*
X55518260Y50507000D01*
X55225740Y50507000D01*
X54938842Y50449932D01*
X54668589Y50337990D01*
X54425368Y50175475D01*
X54218525Y49968632D01*
X54102000Y49794240D01*
X53985475Y49968632D01*
X53778632Y50175475D01*
X53535411Y50337990D01*
X53265158Y50449932D01*
X52978260Y50507000D01*
X52685740Y50507000D01*
X52398842Y50449932D01*
X52128589Y50337990D01*
X51885368Y50175475D01*
X51678525Y49968632D01*
X51562000Y49794240D01*
X51445475Y49968632D01*
X51238632Y50175475D01*
X50995411Y50337990D01*
X50725158Y50449932D01*
X50438260Y50507000D01*
X50145740Y50507000D01*
X49858842Y50449932D01*
X49588589Y50337990D01*
X49345368Y50175475D01*
X49138525Y49968632D01*
X49022000Y49794240D01*
X48905475Y49968632D01*
X48698632Y50175475D01*
X48455411Y50337990D01*
X48185158Y50449932D01*
X47898260Y50507000D01*
X47605740Y50507000D01*
X47318842Y50449932D01*
X47048589Y50337990D01*
X46805368Y50175475D01*
X46673513Y50043620D01*
X46651502Y50116180D01*
X46592537Y50226494D01*
X46513185Y50323185D01*
X46416494Y50402537D01*
X46306180Y50461502D01*
X46186482Y50497812D01*
X46062000Y50510072D01*
X44362000Y50510072D01*
X44237518Y50497812D01*
X44117820Y50461502D01*
X44007506Y50402537D01*
X43910815Y50323185D01*
X43831463Y50226494D01*
X43772498Y50116180D01*
X43736188Y49996482D01*
X43723928Y49872000D01*
X20064000Y49872000D01*
X20064000Y54699667D01*
X20067677Y54737000D01*
X20053003Y54885986D01*
X20031455Y54957020D01*
X20051665Y54953000D01*
X20334335Y54953000D01*
X20611574Y55008147D01*
X20872727Y55116320D01*
X21107759Y55273363D01*
X21307637Y55473241D01*
X21464680Y55708273D01*
X21469067Y55718865D01*
X21580615Y55532869D01*
X21769586Y55324481D01*
X21995580Y55156963D01*
X22249913Y55036754D01*
X22383961Y54996096D01*
X22606000Y55118085D01*
X22606000Y56261000D01*
X22586000Y56261000D01*
X22586000Y56515000D01*
X22606000Y56515000D01*
X22606000Y57657915D01*
X22860000Y57657915D01*
X22860000Y56515000D01*
X22880000Y56515000D01*
X22880000Y56261000D01*
X22860000Y56261000D01*
X22860000Y55118085D01*
X23082039Y54996096D01*
X23216087Y55036754D01*
X23470420Y55156963D01*
X23696414Y55324481D01*
X23885385Y55532869D01*
X23996933Y55718865D01*
X24001320Y55708273D01*
X24158363Y55473241D01*
X24358241Y55273363D01*
X24593273Y55116320D01*
X24854426Y55008147D01*
X25131665Y54953000D01*
X25414335Y54953000D01*
X25691574Y55008147D01*
X25952727Y55116320D01*
X26187759Y55273363D01*
X26387637Y55473241D01*
X26543000Y55705759D01*
X26698363Y55473241D01*
X26898241Y55273363D01*
X27133273Y55116320D01*
X27394426Y55008147D01*
X27671665Y54953000D01*
X27954335Y54953000D01*
X28231574Y55008147D01*
X28492727Y55116320D01*
X28727759Y55273363D01*
X28927637Y55473241D01*
X29083000Y55705759D01*
X29238363Y55473241D01*
X29438241Y55273363D01*
X29673273Y55116320D01*
X29934426Y55008147D01*
X30211665Y54953000D01*
X30494335Y54953000D01*
X30771574Y55008147D01*
X31032727Y55116320D01*
X31267759Y55273363D01*
X31467637Y55473241D01*
X31623000Y55705759D01*
X31778363Y55473241D01*
X31978241Y55273363D01*
X32213273Y55116320D01*
X32474426Y55008147D01*
X32751665Y54953000D01*
X33034335Y54953000D01*
X33311574Y55008147D01*
X33572727Y55116320D01*
X33807759Y55273363D01*
X34007637Y55473241D01*
X34163000Y55705759D01*
X34318363Y55473241D01*
X34518241Y55273363D01*
X34753273Y55116320D01*
X35014426Y55008147D01*
X35291665Y54953000D01*
X35574335Y54953000D01*
X35851574Y55008147D01*
X36112727Y55116320D01*
X36347759Y55273363D01*
X36547637Y55473241D01*
X36704680Y55708273D01*
X36812853Y55969426D01*
X36868000Y56246665D01*
X36868000Y56529335D01*
X36812853Y56806574D01*
X36704680Y57067727D01*
X36547637Y57302759D01*
X36347759Y57502637D01*
X36112727Y57659680D01*
X35851574Y57767853D01*
X35574335Y57823000D01*
X35291665Y57823000D01*
X35014426Y57767853D01*
X34753273Y57659680D01*
X34518241Y57502637D01*
X34318363Y57302759D01*
X34163000Y57070241D01*
X34007637Y57302759D01*
X33807759Y57502637D01*
X33572727Y57659680D01*
X33311574Y57767853D01*
X33034335Y57823000D01*
X32751665Y57823000D01*
X32474426Y57767853D01*
X32213273Y57659680D01*
X31978241Y57502637D01*
X31778363Y57302759D01*
X31623000Y57070241D01*
X31467637Y57302759D01*
X31267759Y57502637D01*
X31032727Y57659680D01*
X30771574Y57767853D01*
X30494335Y57823000D01*
X30211665Y57823000D01*
X29934426Y57767853D01*
X29673273Y57659680D01*
X29438241Y57502637D01*
X29238363Y57302759D01*
X29083000Y57070241D01*
X28927637Y57302759D01*
X28727759Y57502637D01*
X28492727Y57659680D01*
X28231574Y57767853D01*
X27954335Y57823000D01*
X27671665Y57823000D01*
X27394426Y57767853D01*
X27133273Y57659680D01*
X26898241Y57502637D01*
X26698363Y57302759D01*
X26543000Y57070241D01*
X26387637Y57302759D01*
X26187759Y57502637D01*
X25952727Y57659680D01*
X25691574Y57767853D01*
X25414335Y57823000D01*
X25131665Y57823000D01*
X24854426Y57767853D01*
X24593273Y57659680D01*
X24358241Y57502637D01*
X24158363Y57302759D01*
X24001320Y57067727D01*
X23996933Y57057135D01*
X23885385Y57243131D01*
X23696414Y57451519D01*
X23470420Y57619037D01*
X23216087Y57739246D01*
X23082039Y57779904D01*
X22860000Y57657915D01*
X22606000Y57657915D01*
X22383961Y57779904D01*
X22249913Y57739246D01*
X21995580Y57619037D01*
X21769586Y57451519D01*
X21580615Y57243131D01*
X21469067Y57057135D01*
X21464680Y57067727D01*
X21307637Y57302759D01*
X21107759Y57502637D01*
X20872727Y57659680D01*
X20611574Y57767853D01*
X20334335Y57823000D01*
X20051665Y57823000D01*
X19774426Y57767853D01*
X19513273Y57659680D01*
X19278241Y57502637D01*
X19078363Y57302759D01*
X18923000Y57070241D01*
X18767637Y57302759D01*
X18567759Y57502637D01*
X18332727Y57659680D01*
X18071574Y57767853D01*
X17794335Y57823000D01*
X17511665Y57823000D01*
X17234426Y57767853D01*
X16973273Y57659680D01*
X16738241Y57502637D01*
X16538363Y57302759D01*
X16383000Y57070241D01*
X16227637Y57302759D01*
X16027759Y57502637D01*
X15792727Y57659680D01*
X15531574Y57767853D01*
X15254335Y57823000D01*
X14971665Y57823000D01*
X14694426Y57767853D01*
X14433273Y57659680D01*
X14198241Y57502637D01*
X13998363Y57302759D01*
X13843000Y57070241D01*
X13687637Y57302759D01*
X13487759Y57502637D01*
X13252727Y57659680D01*
X12991574Y57767853D01*
X12714335Y57823000D01*
X12431665Y57823000D01*
X12154426Y57767853D01*
X11893273Y57659680D01*
X11658241Y57502637D01*
X11458363Y57302759D01*
X11303000Y57070241D01*
X11147637Y57302759D01*
X10947759Y57502637D01*
X10712727Y57659680D01*
X10451574Y57767853D01*
X10174335Y57823000D01*
X9891665Y57823000D01*
X9614426Y57767853D01*
X9353273Y57659680D01*
X9118241Y57502637D01*
X8918363Y57302759D01*
X8763000Y57070241D01*
X8607637Y57302759D01*
X8407759Y57502637D01*
X8172727Y57659680D01*
X7911574Y57767853D01*
X7634335Y57823000D01*
X7351665Y57823000D01*
X7074426Y57767853D01*
X6813273Y57659680D01*
X6578241Y57502637D01*
X6378363Y57302759D01*
X6223000Y57070241D01*
X6067637Y57302759D01*
X5867759Y57502637D01*
X5632727Y57659680D01*
X5371574Y57767853D01*
X5094335Y57823000D01*
X4811665Y57823000D01*
X4534426Y57767853D01*
X4273273Y57659680D01*
X4038241Y57502637D01*
X3838363Y57302759D01*
X3683000Y57070241D01*
X3527637Y57302759D01*
X3327759Y57502637D01*
X3092727Y57659680D01*
X2831574Y57767853D01*
X2554335Y57823000D01*
X2271665Y57823000D01*
X1994426Y57767853D01*
X1733273Y57659680D01*
X1498241Y57502637D01*
X1298363Y57302759D01*
X1141320Y57067727D01*
X1033147Y56806574D01*
X978000Y56529335D01*
X685000Y56529335D01*
X685000Y57945647D01*
X675711Y58039956D01*
X691653Y58202542D01*
X776031Y58482018D01*
X913085Y58739780D01*
X1097599Y58966015D01*
X1322540Y59152103D01*
X1579342Y59290956D01*
X1858219Y59377282D01*
X2030268Y59395365D01*
X2125353Y59386000D01*
G37*
G04 #@! TD.AperFunction*
D18*
X50419000Y6731000D02*
X50439000Y6731000D01*
X50439000Y6477000D01*
X50419000Y6477000D01*
X50419000Y6457000D01*
X50165000Y6457000D01*
X50165000Y6477000D01*
X50145000Y6477000D01*
X50145000Y6731000D01*
X50165000Y6731000D01*
X50165000Y6751000D01*
X50419000Y6751000D01*
X50419000Y6731000D01*
G04 #@! TA.AperFunction,Conductor*
D19*
G36*
X50419000Y6731000D02*
G01*
X50439000Y6731000D01*
X50439000Y6477000D01*
X50419000Y6477000D01*
X50419000Y6457000D01*
X50165000Y6457000D01*
X50165000Y6477000D01*
X50145000Y6477000D01*
X50145000Y6731000D01*
X50165000Y6731000D01*
X50165000Y6751000D01*
X50419000Y6751000D01*
X50419000Y6731000D01*
G37*
G04 #@! TD.AperFunction*
G04 #@! TD*
M02*
