M48
;DRILL file {Pcbnew (2013-07-07 BZR 4022)-stable} date 08/09/2019 15:45:40
;FORMAT={-:-/ absolute / inch / decimal}
FMAT,2
INCH,TZ
T1C0.022
T2C0.030
T3C0.030
T4C0.031
T5C0.032
T6C0.039
T7C0.040
T8C0.041
T9C0.050
T10C0.090
T11C0.120
T12C0.120
%
G90
G05
M72
T1
X0.9214Y-4.1039
X0.9278Y-4.3381
X1.0121Y-3.9805
X1.0362Y-3.8923
X1.1614Y-4.2076
X1.1646Y-4.015
X1.1806Y-2.24
X1.1984Y-3.9004
X1.2174Y-4.0196
X1.232Y-5.9535
X1.2415Y-4.0579
X1.2528Y-2.3002
X1.2851Y-3.7241
X1.3215Y-3.7885
X1.3305Y-3.9389
X1.3677Y-3.7435
X1.4522Y-3.8162
X1.4588Y-3.9806
X1.4593Y-3.8792
X1.5381Y-4.4018
X1.5812Y-4.4021
X1.6281Y-2.3631
X1.6309Y-2.4737
X1.6768Y-4.2174
X1.6803Y-2.2436
X1.7462Y-4.9843
X1.7488Y-2.2177
X1.775Y-2.2722
X1.7892Y-2.4876
X1.7975Y-4.9887
X1.8033Y-4.1512
X1.8141Y-2.6034
X1.8296Y-2.2155
X1.834Y-2.6776
X1.8615Y-2.7269
X1.925Y-4.2086
X2.0674Y-2.0995
X2.1248Y-4.4356
X2.265Y-1.9874
X2.3003Y-1.4071
X2.3288Y-3.5068
X2.3474Y-4.7464
X2.4353Y-2.754
X2.4786Y-4.2618
X2.6608Y-5.7145
X2.7615Y-6.213
X2.828Y-3.6579
X3.0196Y-4.2513
X3.0285Y-4.1802
X3.0773Y-5.8932
X3.1156Y-3.9727
X3.3567Y-2.6872
X3.3629Y-3.4811
X3.3788Y-5.0116
X3.4183Y-3.6108
X3.4375Y-5.2779
X3.4731Y-5.6906
X3.4947Y-4.6809
X3.5523Y-4.8935
X3.5645Y-3.4916
X3.5712Y-5.0209
X3.5944Y-2.0781
X3.6699Y-5.0661
X3.7807Y-6.1057
X3.8084Y-5.3342
X3.8254Y-5.7731
X3.8372Y-1.7164
X3.8436Y-3.9856
X3.8515Y-3.5582
X3.853Y-3.4474
X3.8559Y-1.7982
X3.9063Y-6.1006
X3.9144Y-5.6236
X3.949Y-4.9701
X3.9654Y-3.1859
X3.9659Y-3.5088
X3.9746Y-5.7101
X4.0018Y-3.7421
X4.0095Y-2.0475
X4.0162Y-5.0404
X4.0206Y-5.0842
X4.0526Y-4.3551
X4.0686Y-3.9599
X4.0914Y-1.8768
X4.1142Y-4.9236
X4.1412Y-5.3896
X4.1455Y-1.8156
X4.1665Y-5.7294
X4.172Y-2.3
X4.1878Y-1.8476
X4.198Y-5.1591
X4.2052Y-3.2359
X4.2189Y-5.011
X4.2216Y-4.2839
X4.2283Y-3.1402
X4.2747Y-5.6583
X4.2795Y-3.6292
X4.3046Y-3.249
X4.3327Y-5.8747
X4.3355Y-4.0482
X4.3357Y-3.5204
X4.3587Y-3.1215
X4.3729Y-2.7054
X4.4135Y-5.2799
X4.4143Y-5.1566
X4.4317Y-4.2811
X4.4611Y-5.5548
X4.4711Y-4.2156
X4.4805Y-4.9217
X4.5031Y-5.7419
X4.5199Y-3.5564
X4.6326Y-4.2928
X4.6342Y-5.7064
X4.6578Y-2.3643
X4.6639Y-2.9585
X4.665Y-5.5471
X4.6917Y-4.3419
X4.6995Y-5.9551
X4.714Y-5.2465
X4.7145Y-6.225
X4.7223Y-4.5591
X4.7346Y-3.6015
X4.743Y-5.3715
X4.7518Y-5.6769
X4.7774Y-3.2975
X4.779Y-6.201
X4.7887Y-3.5643
X4.7955Y-4.5361
X4.8446Y-2.9585
X4.8594Y-5.9518
X4.8594Y-3.4409
X4.878Y-5.4739
X4.8911Y-3.9147
X4.9003Y-2.3749
X4.9008Y-2.5759
X4.9014Y-5.0598
X4.9082Y-5.506
X4.968Y-3.8957
X4.9707Y-5.949
X4.9785Y-4.4705
X4.9816Y-3.6282
X5.0065Y-2.2424
X5.0213Y-3.5965
X5.0236Y-1.7538
X5.0241Y-4.4887
X5.0296Y-5.9072
X5.0327Y-6.0468
X5.0556Y-3.954
X5.0595Y-4.4531
X5.0682Y-3.7537
X5.0693Y-5.3267
X5.0697Y-5.0624
X5.0789Y-4.2703
X5.088Y-2.6397
X5.0886Y-5.989
X5.1065Y-4.9866
X5.1271Y-3.6856
X5.1288Y-4.4398
X5.1573Y-4.831
X5.1703Y-4.1159
X5.1908Y-4.0752
X5.2203Y-4.238
X5.223Y-6.2235
X5.2246Y-4.8958
X5.2527Y-2.5257
X5.2878Y-2.7979
X5.3006Y-4.1556
X5.3177Y-2.4449
X5.3192Y-4.796
X5.3257Y-2.5874
X5.3482Y-2.096
X5.3553Y-4.4009
X5.3557Y-6.1474
X5.3638Y-4.824
X5.3642Y-2.6464
X5.3702Y-2.1367
X5.3715Y-2.7251
X5.3735Y-4.0175
X5.3735Y-2.8795
X5.3801Y-2.8039
X5.3825Y-4.4349
X5.3957Y-3.8859
X5.3999Y-1.9885
X5.4005Y-2.0731
X5.4099Y-3.0359
X5.4112Y-4.7759
X5.427Y-3.3548
X5.4281Y-3.151
X5.4318Y-3.8275
X5.4328Y-4.3494
X5.4452Y-3.4591
X5.4452Y-3.5021
X5.4543Y-3.2519
X5.4903Y-2.0241
X5.587Y-2.7645
X5.5889Y-2.5283
X5.5957Y-5.3899
X5.601Y-4.8602
X5.6366Y-6.069
X5.6878Y-5.3708
X5.7371Y-3.4363
X5.7471Y-6.0455
X5.7475Y-4.0471
X5.7563Y-2.8819
X5.7872Y-3.9924
X5.8398Y-3.7654
X5.8477Y-5.3626
X5.8713Y-3.8506
X5.9004Y-4.016
X5.9227Y-5.3354
X5.9285Y-6.0944
X5.9299Y-6.1549
X5.9508Y-6.0523
X5.9937Y-5.3702
X6.0244Y-5.8095
X6.0272Y-3.2684
X6.0555Y-2.8763
X6.0637Y-4.1975
X6.0648Y-6.2123
X6.0652Y-3.7901
X6.0741Y-5.3338
X6.0921Y-2.7251
X6.1008Y-2.3996
X6.1101Y-3.8321
X6.1291Y-4.0637
X6.1759Y-4.4216
X6.1918Y-5.1284
X6.2037Y-4.4624
X6.2172Y-2.4373
X6.2247Y-2.5967
X6.2636Y-4.6409
X6.2636Y-4.2076
X6.2807Y-2.4176
X6.2862Y-6.1892
X6.339Y-6.2145
X6.3664Y-5.126
X6.3736Y-6.0975
X6.3775Y-2.1139
X6.3782Y-2.6858
X6.4279Y-4.665
X6.4292Y-5.2493
X6.452Y-6.209
X6.4634Y-3.8426
X6.4643Y-5.2806
X6.518Y-5.1904
X6.5359Y-5.298
X6.5835Y-6.2205
X6.5939Y-6.0538
X6.5939Y-3.4363
X6.6105Y-5.2296
X6.6189Y-5.318
X6.6376Y-6.1834
X6.6559Y-3.9559
X6.6585Y-4.0566
X6.6833Y-5.2821
X6.6844Y-6.0219
X6.6925Y-6.2304
X6.698Y-2.3203
X6.715Y-5.166
X6.8001Y-3.3159
X6.885Y-4.2251
X6.8927Y-4.7512
X6.9141Y-5.4083
X6.9161Y-3.803
X6.9399Y-3.5518
X6.9448Y-1.9682
X6.9658Y-4.154
X6.9762Y-4.7457
X6.9792Y-5.4789
X6.981Y-6.21
X6.9871Y-4.8688
X7.0033Y-3.2356
X7.0085Y-5.2884
X7.0192Y-4.7451
X7.0321Y-2.4693
X7.0341Y-6.1477
X7.0404Y-5.1296
X7.0423Y-4.6175
X7.0677Y-5.4945
X7.1064Y-4.1843
X7.1377Y-5.8225
X7.1445Y-3.9906
X7.147Y-2.539
X7.1479Y-6.1498
X7.1846Y-2.1061
X7.2021Y-2.4493
X7.2291Y-4.6728
X7.2382Y-5.0296
X7.2477Y-2.017
X7.2485Y-3.1185
X7.2546Y-3.4423
X7.2703Y-4.5869
X7.2835Y-4.4655
X7.293Y-6.2288
X7.3149Y-2.7839
X7.3155Y-4.6276
X7.3205Y-3.7801
X7.336Y-3.4385
X7.3362Y-4.7281
X7.3381Y-5.9742
X7.3383Y-5.1129
X7.3447Y-4.5299
X7.3505Y-4.9995
X7.3526Y-1.9617
X7.3833Y-6.2251
X7.389Y-4.4876
X7.3935Y-5.0177
X7.4042Y-1.8485
X7.4042Y-4.681
X7.4178Y-5.0971
X7.4266Y-4.5108
X7.4503Y-4.9015
X7.4531Y-5.0716
X7.4863Y-5.1409
X7.5055Y-5.5936
X7.5486Y-5.6104
X7.5833Y-1.8209
X7.5876Y-3.8903
X7.5913Y-2.2715
X7.5944Y-3.6294
X7.6029Y-3.3909
X7.605Y-5.6297
X7.6408Y-4.5929
X7.6419Y-3.8105
X7.6435Y-3.2323
X7.6471Y-2.4742
X7.6582Y-5.7255
X7.6791Y-4.3734
X7.687Y-3.1002
X7.6953Y-2.1989
X7.7162Y-3.4309
X7.7175Y-1.533
X7.7189Y-2.9839
X7.7206Y-3.3879
X7.7242Y-2.8863
X7.7263Y-2.6279
X7.7277Y-2.5462
X7.7317Y-4.5376
X7.7373Y-3.4961
X7.7379Y-2.1785
X7.738Y-6.1419
X7.7444Y-3.6809
X7.7486Y-2.3396
X7.7707Y-3.1558
X7.7821Y-2.8089
X7.7836Y-3.3772
X7.7873Y-5.5707
X7.7924Y-1.9617
X7.808Y-2.8459
X7.8209Y-4.4483
X7.8267Y-5.0978
X7.8732Y-5.7072
X7.8817Y-5.166
X7.8952Y-2.3127
X7.9832Y-3.6428
X8.0489Y-6.0763
X8.067Y-6.207
X8.0695Y-2.9427
X8.1003Y-3.1434
X8.1065Y-5.4925
X8.1333Y-2.4219
X8.1367Y-4.2396
X8.1762Y-3.2316
X8.1771Y-4.2057
X8.1955Y-3.8402
X8.2102Y-5.0236
X8.245Y-3.217
X8.2527Y-2.8956
X8.2826Y-3.6428
X8.3072Y-4.0262
X8.322Y-2.8836
X8.3848Y-4.8611
X8.3979Y-4.1725
X8.4032Y-3.1508
X8.4088Y-2.9969
X8.4366Y-2.4492
X8.4814Y-5.4389
X8.4821Y-4.9929
X8.5046Y-3.5307
X8.5207Y-2.746
X8.5365Y-3.4999
X8.6264Y-5.0078
X8.6289Y-3.5307
X8.6368Y-6.0329
X8.6381Y-3.1469
X8.6591Y-2.4863
X8.6596Y-2.8385
X8.671Y-3.9443
X8.6897Y-4.4759
X8.7246Y-4.6418
X8.7255Y-5.6613
X8.7488Y-3.824
X8.7513Y-3.037
X8.7522Y-3.5414
X8.7803Y-5.7255
X8.8456Y-4.7121
X8.887Y-5.7572
X8.9204Y-2.611
X8.9266Y-2.736
X8.927Y-2.9632
X8.931Y-4.4191
X8.9506Y-4.2799
X8.9634Y-2.6292
X8.9917Y-4.441
X8.9983Y-2.5351
X9.0091Y-3.2565
X9.0251Y-3.0667
X9.0372Y-3.1521
X9.0483Y-2.5291
X9.0483Y-5.7379
X9.049Y-4.1801
X9.0814Y-5.7076
X9.0833Y-3.2183
X9.1072Y-2.3793
X9.1219Y-2.6975
X9.149Y-2.7587
X9.1493Y-5.6766
X9.1578Y-4.5812
X9.1656Y-1.9889
X9.1879Y-3.1381
X9.2922Y-3.9515
X9.4669Y-4.8333
X9.5171Y-3.6565
X9.5518Y-5.4904
X9.6264Y-2.2804
X9.6331Y-3.1227
X9.6375Y-3.5639
X9.6549Y-3.6724
X9.6607Y-4.0516
X9.7145Y-2.4072
X9.7585Y-5.1912
X9.7615Y-5.454
X9.7834Y-3.6454
X9.8418Y-2.4694
X9.8822Y-4.5646
X9.8873Y-2.5093
X9.8906Y-3.8246
X9.9066Y-3.406
X9.9087Y-3.6942
X9.9088Y-4.4473
X10.0957Y-2.4297
X10.0957Y-3.725
X10.2066Y-3.2761
X10.3425Y-1.4105
X10.3566Y-4.7951
X10.3904Y-5.0288
X10.5559Y-3.3648
X10.5566Y-2.484
T2
X5.5458Y-1.9374
X5.5458Y-2.0161
X5.6245Y-1.9374
X5.6245Y-2.0161
X5.7033Y-1.9374
X5.7033Y-2.0161
X5.782Y-1.9374
X5.782Y-2.0161
X5.8607Y-1.9374
X5.8607Y-2.0161
X5.9395Y-1.9374
X5.9395Y-2.0161
X5.9793Y-4.2998
X5.9793Y-4.3786
X6.0182Y-1.9374
X6.0182Y-2.0161
X6.058Y-4.2998
X6.058Y-4.3786
X6.097Y-1.9374
X6.097Y-2.0161
X6.1368Y-4.2998
X6.1368Y-4.3786
X6.1757Y-1.9374
X6.1757Y-2.0161
X6.2155Y-4.2998
X6.2155Y-4.3786
X6.2544Y-1.9374
X6.2544Y-2.0161
X6.2943Y-4.2998
X6.2943Y-4.3786
X6.3332Y-1.9374
X6.3332Y-2.0161
X6.373Y-4.2998
X6.373Y-4.3786
X6.4119Y-1.9374
X6.4119Y-2.0161
X6.4517Y-4.2998
X6.4517Y-4.3786
X6.4907Y-1.9374
X6.4907Y-2.0161
X6.5305Y-4.2998
X6.5305Y-4.3786
X6.5694Y-1.9374
X6.5694Y-2.0161
X6.6092Y-4.2998
X6.6092Y-4.3786
X6.6482Y-1.9374
X6.6482Y-2.0161
X6.688Y-4.2998
X6.688Y-4.3786
X6.7269Y-1.9374
X6.7269Y-2.0161
X6.7667Y-4.2998
X6.7667Y-4.3786
X6.8454Y-4.2998
X6.8454Y-4.3786
X6.9242Y-4.2998
X6.9242Y-4.3786
X7.0029Y-4.2998
X7.0029Y-4.3786
X7.0817Y-4.2998
X7.0817Y-4.3786
X7.1604Y-4.2998
X7.1604Y-4.3786
T3
X5.5476Y-2.2527
X5.5476Y-2.3314
X5.5476Y-2.4102
X5.5476Y-2.4889
X5.5476Y-2.5677
X5.5476Y-2.6464
X5.5476Y-2.7251
X5.5476Y-2.8039
X5.5476Y-2.8826
X5.5476Y-2.9614
X5.5476Y-3.0401
X5.5476Y-3.1188
X5.5476Y-3.1976
X5.5476Y-3.2763
X5.5476Y-3.3551
X5.5476Y-3.4338
X5.5476Y-3.5125
X5.5476Y-3.5913
X5.5476Y-3.67
X5.5476Y-3.7488
X5.5476Y-3.8275
X5.5476Y-3.9062
X5.5476Y-3.985
X5.5476Y-4.0637
X5.5476Y-4.1425
X5.5476Y-4.2212
X5.5476Y-4.2999
X5.6263Y-2.2527
X5.6263Y-2.3314
X5.6263Y-2.4102
X5.6263Y-2.4889
X5.6263Y-2.5677
X5.6263Y-2.6464
X5.6263Y-2.7251
X5.6263Y-2.8039
X5.6263Y-2.8826
X5.6263Y-2.9614
X5.6263Y-3.0401
X5.6263Y-3.1188
X5.6263Y-3.1976
X5.6263Y-3.2763
X5.6263Y-3.3551
X5.6263Y-3.4338
X5.6263Y-3.5125
X5.6263Y-3.5913
X5.6263Y-3.67
X5.6263Y-3.7488
X5.6263Y-3.8275
X5.6263Y-3.9062
X5.6263Y-3.985
X5.6263Y-4.0637
X5.6263Y-4.1425
X5.6263Y-4.2212
X5.6263Y-4.2999
X7.4343Y-2.2516
X7.4343Y-2.3303
X7.4343Y-2.4091
X7.4343Y-2.4878
X7.4343Y-2.5666
X7.4343Y-2.6453
X7.4343Y-2.724
X7.4343Y-2.8028
X7.4343Y-2.8815
X7.4343Y-2.9603
X7.4343Y-3.039
X7.4343Y-3.1177
X7.4343Y-3.1965
X7.4343Y-3.2752
X7.4343Y-3.354
X7.4343Y-3.4327
X7.4343Y-3.5114
X7.4343Y-3.5902
X7.4343Y-3.6689
X7.4343Y-3.7477
X7.4343Y-3.8264
X7.4343Y-3.9051
X7.4343Y-3.9839
X7.4343Y-4.0626
X7.4343Y-4.1414
X7.4343Y-4.2201
X7.4343Y-4.2988
X7.513Y-2.2516
X7.513Y-2.3303
X7.513Y-2.4091
X7.513Y-2.4878
X7.513Y-2.5666
X7.513Y-2.6453
X7.513Y-2.724
X7.513Y-2.8028
X7.513Y-2.8815
X7.513Y-2.9603
X7.513Y-3.039
X7.513Y-3.1177
X7.513Y-3.1965
X7.513Y-3.2752
X7.513Y-3.354
X7.513Y-3.4327
X7.513Y-3.5114
X7.513Y-3.5902
X7.513Y-3.6689
X7.513Y-3.7477
X7.513Y-3.8264
X7.513Y-3.9051
X7.513Y-3.9839
X7.513Y-4.0626
X7.513Y-4.1414
X7.513Y-4.2201
X7.513Y-4.2988
T4
X10.5706Y-1.7274
X10.5706Y-1.8274
X10.6206Y-1.7774
T5
X0.9158Y-2.035
X0.9593Y-2.358
X0.9593Y-2.458
X0.9593Y-2.558
X0.9593Y-2.658
X0.9593Y-2.758
X0.9593Y-2.858
X0.9593Y-2.958
X0.9593Y-3.058
X0.9593Y-3.158
X0.9593Y-3.258
X0.9593Y-3.358
X0.9593Y-3.458
X0.9593Y-3.558
X0.9593Y-3.658
X0.9593Y-3.758
X0.9593Y-3.858
X0.9593Y-3.958
X0.9593Y-4.058
X0.9593Y-4.158
X0.9593Y-4.258
X0.9666Y-6.0566
X0.971Y-6.1666
X1.0158Y-2.035
X1.0456Y-1.7886
X1.058Y-4.676
X1.058Y-4.776
X1.058Y-4.876
X1.058Y-4.976
X1.058Y-5.076
X1.058Y-5.176
X1.058Y-5.276
X1.0666Y-6.0566
X1.071Y-6.1666
X1.1175Y-4.528
X1.1456Y-1.7886
X1.1456Y-2.492
X1.1666Y-6.0566
X1.171Y-6.1666
X1.1896Y-2.916
X1.1896Y-3.216
X1.2215Y-3.9635
X1.2215Y-4.1635
X1.2255Y-3.4315
X1.2255Y-3.7315
X1.2666Y-6.0566
X1.271Y-6.1666
X1.2841Y-2.601
X1.2841Y-2.901
X1.3055Y-1.5265
X1.3055Y-1.8265
X1.3175Y-4.528
X1.3456Y-2.492
X1.358Y-4.676
X1.358Y-4.776
X1.358Y-4.876
X1.358Y-4.976
X1.358Y-5.076
X1.358Y-5.176
X1.358Y-5.276
X1.3666Y-6.0566
X1.371Y-6.1666
X1.407Y-1.5265
X1.407Y-1.8265
X1.5593Y-2.358
X1.5593Y-2.458
X1.5593Y-2.558
X1.5593Y-2.658
X1.5593Y-2.758
X1.5593Y-2.858
X1.5593Y-2.958
X1.5593Y-3.058
X1.5593Y-3.158
X1.5593Y-3.258
X1.5593Y-3.358
X1.5593Y-3.458
X1.5593Y-3.558
X1.5593Y-3.658
X1.5593Y-3.758
X1.5593Y-3.858
X1.5593Y-3.958
X1.5593Y-4.058
X1.5593Y-4.158
X1.5593Y-4.258
X1.656Y-4.422
X1.656Y-4.522
X1.656Y-4.622
X1.656Y-4.722
X1.656Y-4.822
X1.656Y-4.922
X1.656Y-5.022
X1.656Y-5.122
X1.656Y-5.222
X1.656Y-5.322
X1.7122Y-1.947
X1.7144Y-2.0658
X1.756Y-5.517
X1.756Y-5.717
X1.7578Y-5.8658
X1.7578Y-5.9658
X1.8122Y-1.947
X1.8144Y-2.0658
X1.8633Y-3.664
X1.872Y-5.171
X1.872Y-5.371
X1.93Y-2.345
X1.9633Y-3.664
X2.03Y-2.345
X2.036Y-5.113
X2.036Y-5.413
X2.0633Y-3.664
X2.094Y-2.0416
X2.136Y-5.113
X2.136Y-5.413
X2.138Y-6.1405
X2.1633Y-3.664
X2.235Y-2.345
X2.236Y-5.113
X2.236Y-5.413
X2.238Y-6.1405
X2.2633Y-3.664
X2.2989Y-4.3335
X2.3021Y-4.5895
X2.336Y-5.113
X2.336Y-5.413
X2.338Y-6.1405
X2.3633Y-3.664
X2.394Y-2.0416
X2.3989Y-4.3335
X2.4021Y-4.5895
X2.436Y-5.113
X2.436Y-5.413
X2.438Y-6.1405
X2.4633Y-3.664
X2.4989Y-4.3335
X2.5021Y-4.5895
X2.5054Y-2.0482
X2.535Y-2.345
X2.536Y-5.113
X2.536Y-5.413
X2.538Y-6.1405
X2.5633Y-3.664
X2.5989Y-4.3335
X2.6021Y-4.5895
X2.636Y-5.113
X2.636Y-5.413
X2.69Y-2.725
X2.69Y-2.825
X2.69Y-2.925
X2.69Y-3.025
X2.69Y-3.125
X2.69Y-3.225
X2.69Y-3.325
X2.6989Y-4.3335
X2.7021Y-4.5895
X2.7695Y-5.5512
X2.7695Y-5.6512
X2.7783Y-5.7932
X2.7783Y-5.8932
X2.7805Y-6.0374
X2.7805Y-6.1374
X2.7989Y-4.3335
X2.8021Y-4.5895
X2.8054Y-2.0482
X2.8989Y-4.3335
X2.9021Y-4.5895
X2.9031Y-5.2519
X2.9031Y-5.4519
X2.9234Y-2.0394
X2.9355Y-5.6265
X2.9365Y-5.8255
X2.9425Y-6.0185
X2.9989Y-4.3335
X3.0021Y-4.5895
X3.0355Y-5.6265
X3.0365Y-5.8255
X3.0425Y-6.0185
X3.0569Y-5.1936
X3.0569Y-5.4936
X3.0989Y-4.3335
X3.1021Y-4.5895
X3.1193Y-3.664
X3.1569Y-5.1936
X3.1569Y-5.4936
X3.1989Y-4.3335
X3.2021Y-4.5895
X3.2193Y-3.664
X3.2234Y-2.0394
X3.2569Y-5.1936
X3.2569Y-5.4936
X3.3Y-2.355
X3.3073Y-5.8859
X3.3073Y-6.0245
X3.3193Y-3.664
X3.3569Y-5.1936
X3.3569Y-5.4936
X3.4073Y-5.8859
X3.4073Y-6.0245
X3.4193Y-3.664
X3.4504Y-2.046
X3.4569Y-5.1936
X3.4569Y-5.4936
X3.481Y-4.04
X3.486Y-4.15
X3.486Y-4.255
X3.5073Y-5.8859
X3.5073Y-6.0245
X3.5193Y-3.664
X3.5504Y-2.046
X3.5569Y-5.1936
X3.5569Y-5.4936
X3.6Y-2.355
X3.6073Y-5.8859
X3.6073Y-6.0245
X3.6193Y-3.664
X3.6504Y-2.046
X3.6569Y-5.1936
X3.6569Y-5.4936
X3.7073Y-5.8859
X3.7073Y-6.0245
X3.71Y-2.345
X3.7193Y-3.664
X3.7504Y-2.046
X3.7569Y-5.1936
X3.7569Y-5.4936
X3.781Y-4.04
X3.786Y-4.15
X3.786Y-4.255
X3.8073Y-5.8859
X3.8073Y-6.0245
X3.81Y-2.345
X3.8193Y-3.664
X3.8504Y-2.046
X3.8569Y-5.1936
X3.8569Y-5.4936
X3.875Y-2.72
X3.875Y-2.82
X3.875Y-2.92
X3.875Y-3.02
X3.875Y-3.12
X3.875Y-3.22
X3.875Y-3.32
X3.9073Y-5.8859
X3.9073Y-6.0245
X3.9088Y-5.7645
X3.9504Y-2.046
X3.9569Y-5.1936
X3.9569Y-5.4936
X4.0073Y-5.8859
X4.0073Y-6.0245
X4.0088Y-5.7645
X4.075Y-3.8945
X4.075Y-4.0945
X4.0812Y-1.948
X4.0812Y-2.148
X4.0892Y-3.108
X4.0892Y-3.308
X4.09Y-4.448
X4.09Y-4.648
X4.0933Y-2.5486
X4.0933Y-2.7486
X4.1073Y-5.8859
X4.1073Y-6.0245
X4.2073Y-5.8859
X4.2073Y-6.0245
X4.2305Y-2.5039
X4.2305Y-2.8039
X4.2317Y-3.8524
X4.2317Y-4.1524
X4.2392Y-1.898
X4.2392Y-2.198
X4.2552Y-3.066
X4.2552Y-3.366
X4.2652Y-4.398
X4.2652Y-4.698
X4.2839Y-4.9018
X4.3305Y-2.5039
X4.3305Y-2.8039
X4.3317Y-3.8524
X4.3317Y-4.1524
X4.3392Y-1.898
X4.3392Y-2.198
X4.3552Y-3.066
X4.3552Y-3.366
X4.3652Y-4.398
X4.3652Y-4.698
X4.4305Y-2.5039
X4.4305Y-2.8039
X4.4317Y-3.8524
X4.4317Y-4.1524
X4.4392Y-1.898
X4.4392Y-2.198
X4.4552Y-3.066
X4.4552Y-3.366
X4.4652Y-4.398
X4.4652Y-4.698
X4.5305Y-2.5039
X4.5305Y-2.8039
X4.5317Y-3.8524
X4.5317Y-4.1524
X4.5373Y-5.9983
X4.5373Y-6.0983
X4.5392Y-1.898
X4.5392Y-2.198
X4.5518Y-4.9018
X4.5552Y-3.066
X4.5552Y-3.366
X4.5652Y-4.398
X4.5652Y-4.698
X4.6305Y-2.5039
X4.6305Y-2.8039
X4.6317Y-3.8524
X4.6317Y-4.1524
X4.6392Y-1.898
X4.6392Y-2.198
X4.6552Y-3.066
X4.6552Y-3.366
X4.6652Y-4.398
X4.6652Y-4.698
X4.7305Y-2.5039
X4.7305Y-2.8039
X4.7317Y-3.8524
X4.7317Y-4.1524
X4.7392Y-1.898
X4.7392Y-2.198
X4.7552Y-3.066
X4.7552Y-3.366
X4.7652Y-4.398
X4.7652Y-4.698
X4.8203Y-4.8958
X4.8241Y-5.1983
X4.8241Y-5.3983
X4.8305Y-2.5039
X4.8305Y-2.8039
X4.8317Y-3.8524
X4.8317Y-4.1524
X4.8392Y-1.898
X4.8392Y-2.198
X4.8552Y-3.066
X4.8552Y-3.366
X4.8652Y-4.398
X4.8652Y-4.698
X4.9305Y-2.5039
X4.9305Y-2.8039
X4.9317Y-3.8524
X4.9317Y-4.1524
X4.9392Y-1.898
X4.9392Y-2.198
X4.9552Y-3.066
X4.9552Y-3.366
X4.9652Y-4.398
X4.9652Y-4.698
X4.9791Y-5.1433
X4.9791Y-5.4433
X5.0305Y-2.5039
X5.0305Y-2.8039
X5.0317Y-3.8524
X5.0317Y-4.1524
X5.0392Y-1.898
X5.0392Y-2.198
X5.0413Y-1.492
X5.0552Y-3.066
X5.0552Y-3.366
X5.0652Y-4.398
X5.0652Y-4.698
X5.0653Y-1.652
X5.0791Y-5.1433
X5.0791Y-5.4433
X5.1305Y-2.5039
X5.1305Y-2.8039
X5.1317Y-3.8524
X5.1317Y-4.1524
X5.1392Y-1.898
X5.1392Y-2.198
X5.1413Y-1.492
X5.1552Y-3.066
X5.1552Y-3.366
X5.1652Y-4.398
X5.1652Y-4.698
X5.1653Y-1.652
X5.1791Y-5.1433
X5.1791Y-5.4433
X5.2525Y-1.4945
X5.2653Y-1.652
X5.2791Y-5.1433
X5.2791Y-5.4433
X5.3525Y-1.4945
X5.3653Y-1.652
X5.3791Y-5.1433
X5.3791Y-5.4433
X5.4114Y-5.843
X5.4114Y-6.143
X5.4653Y-1.652
X5.466Y-1.498
X5.4791Y-5.1433
X5.4791Y-5.4433
X5.5335Y-5.842
X5.5335Y-6.142
X5.5653Y-1.652
X5.566Y-1.498
X5.5791Y-5.1433
X5.5791Y-5.4433
X5.6595Y-5.8455
X5.6595Y-6.1455
X5.6653Y-1.652
X5.6725Y-1.498
X5.6791Y-5.1433
X5.6791Y-5.4433
X5.7653Y-1.652
X5.7714Y-5.835
X5.7714Y-6.135
X5.7725Y-1.498
X5.7791Y-5.1433
X5.7791Y-5.4433
X5.8472Y-2.3611
X5.8653Y-1.652
X5.879Y-1.498
X5.8791Y-5.1433
X5.8791Y-5.4433
X5.9653Y-1.652
X5.979Y-1.498
X6.0472Y-2.3611
X6.0855Y-1.4945
X6.1855Y-1.4945
X6.1905Y-2.915
X6.1905Y-3.115
X6.2885Y-1.4945
X6.3718Y-1.716
X6.3885Y-1.4945
X6.4718Y-1.716
X6.4994Y-1.4938
X6.5994Y-1.4938
X6.711Y-1.7395
X6.8064Y-1.3551
X6.8064Y-1.6551
X6.811Y-1.7395
X6.8955Y-2.91
X6.8955Y-3.11
X6.9064Y-1.3551
X6.9064Y-1.6551
X6.911Y-1.7395
X6.9504Y-2.3847
X7.0064Y-1.3551
X7.0064Y-1.6551
X7.011Y-1.7395
X7.1064Y-1.3551
X7.1064Y-1.6551
X7.111Y-1.7395
X7.1504Y-2.3847
X7.2064Y-1.3551
X7.2064Y-1.6551
X7.211Y-1.7395
X7.3064Y-1.3551
X7.3064Y-1.6551
X7.311Y-1.7395
X7.4064Y-1.3551
X7.4064Y-1.6551
X7.411Y-1.7395
X7.5064Y-1.3551
X7.5064Y-1.6551
X7.511Y-1.7395
X7.611Y-1.7395
X7.8428Y-2.5933
X7.8428Y-2.7933
X7.851Y-3.1402
X7.851Y-3.3402
X7.8662Y-1.9514
X7.8662Y-2.1514
X7.9487Y-3.8415
X7.9487Y-4.0415
X8.0091Y-2.5116
X8.0091Y-2.8116
X8.013Y-3.0902
X8.013Y-3.3902
X8.02Y-1.9014
X8.02Y-2.2014
X8.086Y-4.5737
X8.086Y-4.7737
X8.0971Y-5.1129
X8.0971Y-5.3129
X8.1091Y-2.5116
X8.1091Y-2.8116
X8.1107Y-3.7815
X8.1107Y-4.0815
X8.113Y-3.0902
X8.113Y-3.3902
X8.12Y-1.9014
X8.12Y-2.2014
X8.2091Y-2.5116
X8.2091Y-2.8116
X8.2107Y-3.7815
X8.2107Y-4.0815
X8.213Y-3.0902
X8.213Y-3.3902
X8.22Y-1.9014
X8.22Y-2.2014
X8.241Y-4.5037
X8.241Y-4.8037
X8.2523Y-5.06
X8.2523Y-5.36
X8.3091Y-2.5116
X8.3091Y-2.8116
X8.3107Y-3.7815
X8.3107Y-4.0815
X8.313Y-3.0902
X8.313Y-3.3902
X8.32Y-1.9014
X8.32Y-2.2014
X8.341Y-4.5037
X8.341Y-4.8037
X8.3523Y-5.06
X8.3523Y-5.36
X8.4091Y-2.5116
X8.4091Y-2.8116
X8.4107Y-3.7815
X8.4107Y-4.0815
X8.413Y-3.0902
X8.413Y-3.3902
X8.42Y-1.9014
X8.42Y-2.2014
X8.4203Y-5.9477
X8.441Y-4.5037
X8.441Y-4.8037
X8.4523Y-5.06
X8.4523Y-5.36
X8.5091Y-2.5116
X8.5091Y-2.8116
X8.5107Y-3.7815
X8.5107Y-4.0815
X8.513Y-3.0902
X8.513Y-3.3902
X8.52Y-1.9014
X8.52Y-2.2014
X8.5203Y-5.9477
X8.541Y-4.5037
X8.541Y-4.8037
X8.5523Y-5.06
X8.5523Y-5.36
X8.6091Y-2.5116
X8.6091Y-2.8116
X8.6107Y-3.7815
X8.6107Y-4.0815
X8.613Y-3.0902
X8.613Y-3.3902
X8.62Y-1.9014
X8.62Y-2.2014
X8.641Y-4.5037
X8.641Y-4.8037
X8.6523Y-5.06
X8.6523Y-5.36
X8.7091Y-2.5116
X8.7091Y-2.8116
X8.7107Y-3.7815
X8.7107Y-4.0815
X8.713Y-3.0902
X8.713Y-3.3902
X8.72Y-1.9014
X8.72Y-2.2014
X8.741Y-4.5037
X8.741Y-4.8037
X8.7523Y-5.06
X8.7523Y-5.36
X8.8091Y-2.5116
X8.8091Y-2.8116
X8.8107Y-3.7815
X8.8107Y-4.0815
X8.813Y-3.0902
X8.813Y-3.3902
X8.82Y-1.9014
X8.82Y-2.2014
X8.841Y-4.5037
X8.841Y-4.8037
X8.8523Y-5.06
X8.8523Y-5.36
X8.876Y-5.8405
X8.876Y-5.9405
X8.9091Y-2.5116
X8.9091Y-2.8116
X8.9107Y-3.7815
X8.9107Y-4.0815
X8.913Y-3.0902
X8.913Y-3.3902
X8.92Y-1.9014
X8.92Y-2.2014
X8.9347Y-6.1623
X8.941Y-4.5037
X8.941Y-4.8037
X8.9523Y-5.06
X8.9523Y-5.36
X9.0107Y-3.7815
X9.0107Y-4.0815
X9.0125Y-5.822
X9.0125Y-6.022
X9.0347Y-6.1623
X9.041Y-4.5037
X9.041Y-4.8037
X9.0523Y-5.06
X9.0523Y-5.36
X9.141Y-4.5037
X9.141Y-4.8037
X9.1523Y-5.06
X9.1523Y-5.36
X9.1775Y-5.7585
X9.1775Y-6.0585
X9.1985Y-6.174
X9.2775Y-5.7585
X9.2775Y-6.0585
X9.2998Y-1.5082
X9.2998Y-1.6082
X9.2998Y-1.7082
X9.2998Y-1.8082
X9.2998Y-1.9082
X9.2998Y-2.0082
X9.2998Y-2.1082
X9.3085Y-2.3345
X9.323Y-2.79
X9.323Y-2.89
X9.323Y-2.99
X9.323Y-3.09
X9.323Y-3.19
X9.323Y-3.29
X9.323Y-3.39
X9.323Y-3.49
X9.323Y-3.59
X9.323Y-3.69
X9.332Y-2.5009
X9.37Y-5.39
X9.3775Y-5.7585
X9.3775Y-6.0585
X9.4085Y-2.3345
X9.4226Y-4.0668
X9.4226Y-4.2668
X9.432Y-2.5009
X9.47Y-5.39
X9.4775Y-5.7585
X9.4775Y-6.0585
X9.4985Y-6.174
X9.5085Y-2.3345
X9.5372Y-2.9639
X9.5372Y-3.0639
X9.5372Y-3.1639
X9.5372Y-3.2639
X9.5372Y-3.3639
X9.5372Y-3.4639
X9.5372Y-3.5639
X9.54Y-4.87
X9.548Y-3.9065
X9.548Y-4.0065
X9.548Y-4.1065
X9.548Y-4.2065
X9.548Y-4.3065
X9.548Y-4.4065
X9.548Y-4.5065
X9.548Y-4.6065
X9.5554Y-5.2109
X9.561Y-5.5675
X9.5775Y-5.7585
X9.5775Y-6.0585
X9.5975Y-2.8058
X9.606Y-3.7428
X9.6085Y-2.3345
X9.622Y-6.1635
X9.64Y-4.87
X9.6554Y-5.2109
X9.661Y-5.5675
X9.6775Y-5.7585
X9.6775Y-6.0585
X9.6839Y-2.5009
X9.7085Y-2.3345
X9.773Y-4.855
X9.7775Y-5.7585
X9.7775Y-6.0585
X9.7839Y-2.5009
X9.7975Y-2.8058
X9.8058Y-1.506
X9.8058Y-1.606
X9.8058Y-1.706
X9.8058Y-1.806
X9.8058Y-1.906
X9.8058Y-2.006
X9.8058Y-2.106
X9.806Y-3.7428
X9.8085Y-2.3345
X9.8372Y-2.9639
X9.8372Y-3.0639
X9.8372Y-3.1639
X9.8372Y-3.2639
X9.8372Y-3.3639
X9.8372Y-3.4639
X9.8372Y-3.5639
X9.848Y-3.9065
X9.848Y-4.0065
X9.848Y-4.1065
X9.848Y-4.2065
X9.848Y-4.3065
X9.848Y-4.4065
X9.848Y-4.5065
X9.848Y-4.6065
X9.873Y-4.855
X9.922Y-6.1635
X9.9525Y-1.679
X9.9525Y-1.879
X9.973Y-4.855
X10.0164Y-2.425
X10.0164Y-2.525
X10.0164Y-2.625
X10.0164Y-2.725
X10.0164Y-2.825
X10.0164Y-2.925
X10.0164Y-3.025
X10.0164Y-3.125
X10.0164Y-3.225
X10.0164Y-3.325
X10.0164Y-3.425
X10.0164Y-3.525
X10.0164Y-3.625
X10.0164Y-3.725
X10.0164Y-3.825
X10.0164Y-3.925
X10.0425Y-1.667
X10.0425Y-1.867
X10.073Y-4.855
X10.1046Y-6.1496
X10.1046Y-6.2496
X10.1275Y-2.0595
X10.1535Y-4.4585
X10.161Y-4.116
X10.173Y-4.855
X10.202Y-2.2627
X10.2275Y-2.0595
X10.273Y-4.855
X10.2979Y-6.0678
X10.3425Y-1.667
X10.3425Y-1.867
X10.3532Y-1.9897
X10.3604Y-2.1334
X10.373Y-4.855
X10.3979Y-6.0678
X10.402Y-2.2627
X10.461Y-4.116
X10.473Y-4.855
X10.5035Y-4.4585
X10.573Y-4.855
X10.5958Y-6.1276
X10.5958Y-6.2276
X10.6164Y-2.425
X10.6164Y-2.525
X10.6164Y-2.625
X10.6164Y-2.725
X10.6164Y-2.825
X10.6164Y-2.925
X10.6164Y-3.025
X10.6164Y-3.125
X10.6164Y-3.225
X10.6164Y-3.325
X10.6164Y-3.425
X10.6164Y-3.525
X10.6164Y-3.625
X10.6164Y-3.725
X10.6164Y-3.825
X10.6164Y-3.925
X10.6532Y-1.9897
X10.6604Y-2.1334
X10.673Y-4.855
X10.6958Y-6.1276
T6
X9.8525Y-5.437
X10.604Y-5.443
T7
X1.1485Y-1.9835
X1.1485Y-2.0835
X1.2485Y-1.9835
X1.2485Y-2.0835
X1.3485Y-1.9835
X1.3485Y-2.0835
X1.4485Y-1.9835
X1.4485Y-2.0835
X1.48Y-4.764
X1.48Y-4.864
X1.48Y-4.964
X1.6935Y-1.6055
X1.6935Y-1.7055
X1.7908Y-6.1534
X1.7935Y-1.6055
X1.7935Y-1.7055
X1.885Y-4.8395
X1.885Y-4.9395
X1.8935Y-1.6055
X1.8935Y-1.7055
X1.985Y-4.8395
X1.985Y-4.9395
X1.9935Y-1.6055
X1.9935Y-1.7055
X2.085Y-4.8395
X2.085Y-4.9395
X2.0935Y-1.6055
X2.0935Y-1.7055
X2.185Y-4.8395
X2.185Y-4.9395
X2.285Y-4.8395
X2.285Y-4.9395
X2.385Y-4.8395
X2.385Y-4.9395
X2.485Y-4.8395
X2.485Y-4.9395
X2.585Y-4.8395
X2.585Y-4.9395
X2.685Y-4.8395
X2.685Y-4.9395
X2.785Y-4.8395
X2.785Y-4.9395
X2.885Y-4.8395
X2.885Y-4.9395
X2.985Y-4.8395
X2.985Y-4.9395
X3.085Y-4.8395
X3.085Y-4.9395
X3.185Y-4.8395
X3.185Y-4.9395
X3.285Y-4.8395
X3.285Y-4.9395
X3.3087Y-5.7781
X3.385Y-4.8395
X3.385Y-4.9395
X3.4087Y-5.7781
X3.485Y-4.8395
X3.485Y-4.9395
X3.5066Y-1.4878
X3.5066Y-1.5878
X3.5087Y-5.7781
X3.585Y-4.8395
X3.585Y-4.9395
X3.6066Y-1.4878
X3.6066Y-1.5878
X3.6087Y-5.7781
X3.685Y-4.8395
X3.685Y-4.9395
X3.7066Y-1.4878
X3.7066Y-1.5878
X3.7087Y-5.7781
X3.785Y-4.8395
X3.785Y-4.9395
X3.8066Y-1.4878
X3.8066Y-1.5878
X3.9066Y-1.4878
X3.9066Y-1.5878
X4.0066Y-1.4878
X4.0066Y-1.5878
X4.1066Y-1.4878
X4.1066Y-1.5878
X4.2066Y-1.4878
X4.2066Y-1.5878
X4.2763Y-5.104
X4.5643Y-5.104
X7.9008Y-1.589
X7.9008Y-1.689
X8.0008Y-1.589
X8.0008Y-1.689
X8.1008Y-1.589
X8.1008Y-1.689
X8.2008Y-1.589
X8.2008Y-1.689
X8.3008Y-1.589
X8.3008Y-1.689
X8.4008Y-1.589
X8.4008Y-1.689
X8.5008Y-1.589
X8.5008Y-1.689
X8.6008Y-1.589
X8.6008Y-1.689
X8.6719Y-6.1264
X8.7008Y-1.589
X8.7008Y-1.689
X8.8008Y-1.589
X8.8008Y-1.689
X8.9008Y-1.589
X8.9008Y-1.689
X9.0008Y-1.589
X9.0008Y-1.689
X9.1008Y-1.589
X9.1008Y-1.689
T8
X2.5828Y-1.7776
X2.6275Y-1.6776
X2.6275Y-1.8776
X2.673Y-1.7776
X2.7177Y-1.6776
X2.7177Y-1.8776
X2.7632Y-1.7776
X2.8082Y-1.6776
X2.8082Y-1.8776
X2.8533Y-1.7776
X2.8984Y-1.6776
X2.8984Y-1.8776
X2.9435Y-1.7776
X2.9886Y-1.6776
X2.9886Y-1.8776
T9
X4.458Y-1.639
X4.458Y-1.739
X4.558Y-1.639
X4.658Y-1.639
X4.758Y-1.639
X4.758Y-1.739
T10
X4.358Y-1.489
X4.608Y-1.439
X4.858Y-1.489
T11
X1.0276Y-1.5374
X10.5796Y-1.5214
T12
X2.3065Y-1.7776
X3.2903Y-1.7776
T0
M30
