/* XPM */
static char * Pointer_xpm[] = {
"16 16 4 1",
" 	c None",    %0000  $0 - transparent
"C	c #FF0000", $1100  $c - red 
"F	c #FFFFFF", $1111  $f - white
"8	c #000000", $1000  $8 - black


"CF00000000000000",
"8CFFF00000000000",
"08CCFFF000000000",
"08CCCCFFFF000000",
"088CCCCCCFFF0000",
"008CCCCCCCC80000",
"0088CCCCCC800000",
"0008CCCCCF000000",
"0008CCCCCCF00000",
"00088CC8CCCF0000",
"00008C808CCCF000",
"0000880008CCCF00",
"00000000008CCCF0",
"000000000008CCC8",
"0000000000008C80",
"0000000000000800"};
