M48
; DRILL file {KiCad (5.1.10-1-10_14)} date Sunday, October 31, 2021 at 06:53:14 PM
; FORMAT={-:-/ absolute / inch / decimal}
; #@! TF.CreationDate,2021-10-31T18:53:14+01:00
; #@! TF.GenerationSoftware,Kicad,Pcbnew,(5.1.10-1-10_14)
FMAT,2
INCH
T1C0.0118
T2C0.0236
T3C0.0315
T4C0.0394
T5C0.0472
%
G90
G05
T1
X0.7325Y0.8875
X1.105Y0.3129
X1.1075Y0.815
X1.1075Y0.5854
X1.5Y1.73
X1.585Y0.545
X1.6263Y0.3738
X1.9088Y0.3739
X1.94Y0.37
X2.005Y1.3054
X2.03Y0.29
X2.23Y0.7254
X2.2775Y0.33
X2.2925Y0.705
X2.9509Y0.6
T3
X0.3375Y1.12
X0.3375Y0.82
X0.4375Y1.12
X0.4375Y0.82
X0.5375Y1.12
X0.5375Y0.82
X0.6375Y1.12
X0.6375Y0.82
X0.7375Y1.12
X0.7375Y0.82
X0.74Y0.71
X0.8375Y1.12
X0.8375Y0.82
X0.9369Y0.71
X0.9375Y1.12
X0.9375Y0.82
X1.33Y1.77
X1.33Y1.5731
X1.3331Y1.37
X1.37Y1.2075
X1.37Y0.9075
X1.43Y2.1869
X1.43Y1.99
X1.4425Y1.8775
X1.4425Y1.5775
X1.53Y1.37
X1.54Y1.99
X1.5425Y1.8775
X1.5425Y1.5775
X1.6425Y1.8775
X1.6425Y1.5775
X1.67Y1.2075
X1.67Y0.9075
X1.69Y0.53
X1.7369Y1.99
X1.7425Y1.8775
X1.7425Y1.5775
X1.8869Y0.53
X1.895Y1.2425
X1.895Y0.6425
X1.9275Y1.8775
X1.9275Y1.5775
X1.9331Y1.99
X1.995Y1.2425
X1.995Y0.6425
X2.0275Y1.8775
X2.0275Y1.5775
X2.095Y1.2425
X2.095Y0.6425
X2.1275Y1.8775
X2.1275Y1.5775
X2.13Y1.99
X2.195Y1.2425
X2.195Y0.6425
X2.2275Y1.8775
X2.2275Y1.5775
X2.295Y1.2425
X2.295Y0.6425
X2.395Y1.2425
X2.395Y0.6425
X2.495Y1.2425
X2.495Y0.6425
X2.595Y1.2425
X2.595Y0.6425
X2.695Y1.2425
X2.695Y0.6425
X2.795Y1.2425
X2.795Y0.6425
X2.895Y1.2425
X2.895Y0.6425
X2.995Y1.2425
X2.995Y0.6425
T4
X0.68Y0.26
X0.68Y0.16
X0.78Y0.26
X0.78Y0.16
X0.88Y0.26
X0.88Y0.16
X0.98Y0.26
X0.98Y0.16
X1.08Y0.26
X1.08Y0.16
X1.18Y0.26
X1.18Y0.16
X1.28Y0.26
X1.28Y0.16
X1.38Y0.26
X1.38Y0.16
X1.48Y0.26
X1.48Y0.16
X1.58Y0.26
X1.58Y0.16
X1.68Y0.26
X1.68Y0.16
X1.78Y0.26
X1.78Y0.16
X1.88Y0.26
X1.88Y0.16
X1.98Y0.26
X1.98Y0.16
X2.08Y0.26
X2.08Y0.16
X2.18Y0.26
X2.18Y0.16
X2.28Y0.26
X2.28Y0.16
X2.38Y0.26
X2.38Y0.16
X2.48Y0.26
X2.48Y0.16
X2.58Y0.26
X2.58Y0.16
X2.68Y0.26
X2.68Y0.16
X2.78Y0.26
X2.78Y0.16
X2.88Y0.26
X2.88Y0.16
X2.98Y0.26
X2.98Y0.16
X3.08Y0.26
X3.08Y0.16
T5
X2.6488Y1.6894
X2.9244Y1.6894
T2
G00X2.6528Y1.6028
M15
G01X2.6291Y1.6028
M16
G05
G00X2.7118Y1.78
M15
G01X2.6882Y1.78
M16
G05
G00X2.8693Y1.78
M15
G01X2.8457Y1.78
M16
G05
G00X2.9874Y1.78
M15
G01X2.9638Y1.78
M16
G05
G00X2.9874Y1.5635
M15
G01X2.9638Y1.5635
M16
G05
T0
M30
