%TF.GenerationSoftware,KiCad,Pcbnew,(5.1.10-1-10_14)*%
%TF.CreationDate,2021-10-31T18:53:11+01:00*%
%TF.ProjectId,opl2_board,6f706c32-5f62-46f6-9172-642e6b696361,rev?*%
%TF.SameCoordinates,Original*%
%TF.FileFunction,Copper,L1,Top*%
%TF.FilePolarity,Positive*%
%FSLAX46Y46*%
G04 Gerber Fmt 4.6, Leading zero omitted, Abs format (unit mm)*
G04 Created by KiCad (PCBNEW (5.1.10-1-10_14)) date 2021-10-31 18:53:11*
%MOMM*%
%LPD*%
G01*
G04 APERTURE LIST*
%TA.AperFunction,ComponentPad*%
%ADD10O,2.000000X1.400000*%
%TD*%
%TA.AperFunction,ComponentPad*%
%ADD11R,2.000000X1.400000*%
%TD*%
%TA.AperFunction,ComponentPad*%
%ADD12C,1.600000*%
%TD*%
%TA.AperFunction,ComponentPad*%
%ADD13R,1.600000X1.600000*%
%TD*%
%TA.AperFunction,ComponentPad*%
%ADD14O,1.600000X1.600000*%
%TD*%
%TA.AperFunction,ComponentPad*%
%ADD15O,1.700000X1.700000*%
%TD*%
%TA.AperFunction,ComponentPad*%
%ADD16R,1.700000X1.700000*%
%TD*%
%TA.AperFunction,ViaPad*%
%ADD17C,0.600000*%
%TD*%
%TA.AperFunction,Conductor*%
%ADD18C,1.000000*%
%TD*%
%TA.AperFunction,Conductor*%
%ADD19C,0.250000*%
%TD*%
%TA.AperFunction,Conductor*%
%ADD20C,0.254000*%
%TD*%
%TA.AperFunction,Conductor*%
%ADD21C,0.100000*%
%TD*%
G04 APERTURE END LIST*
D10*
%TO.P,J2,R2*%
%TO.N,GND*%
X75580000Y45212000D03*
%TO.P,J2,R1*%
%TO.N,Net-(J2-PadR1)*%
X72580000Y45212000D03*
D11*
%TO.P,J2,T*%
X68580000Y45212000D03*
D10*
%TO.P,J2,S*%
%TO.N,GND*%
X67080000Y40712000D03*
%TO.P,J2,*%
%TO.N,*%
X75580000Y39712000D03*
%TD*%
D12*
%TO.P,C7,2*%
%TO.N,+5V*%
X47926000Y13462000D03*
%TO.P,C7,1*%
%TO.N,GND*%
X42926000Y13462000D03*
%TD*%
%TO.P,C6,2*%
%TO.N,+5V*%
X49102000Y50546000D03*
%TO.P,C6,1*%
%TO.N,GND*%
X54102000Y50546000D03*
%TD*%
%TO.P,C5,2*%
%TO.N,GND*%
X36322000Y55546000D03*
%TO.P,C5,1*%
%TO.N,Net-(C5-Pad1)*%
X36322000Y50546000D03*
%TD*%
%TO.P,C4,2*%
%TO.N,GND*%
X44116000Y50546000D03*
%TO.P,C4,1*%
%TO.N,Net-(C4-Pad1)*%
X39116000Y50546000D03*
%TD*%
%TO.P,C3,2*%
%TO.N,+5V*%
X23796000Y18034000D03*
%TO.P,C3,1*%
%TO.N,GND*%
X18796000Y18034000D03*
%TD*%
%TO.P,C2,2*%
%TO.N,+5V*%
X33862000Y34798000D03*
%TO.P,C2,1*%
%TO.N,GND*%
X38862000Y34798000D03*
%TD*%
%TO.P,C1,2*%
%TO.N,+5V*%
X33782000Y39958000D03*
%TO.P,C1,1*%
%TO.N,GND*%
X33782000Y44958000D03*
%TD*%
%TO.P,X1,4*%
%TO.N,GND*%
X42418000Y23050500D03*
%TO.P,X1,5*%
%TO.N,Net-(U2-Pad24)*%
X42418000Y30670500D03*
%TO.P,X1,8*%
%TO.N,+5V*%
X34798000Y30670500D03*
D13*
%TO.P,X1,1*%
%TO.N,Net-(X1-Pad1)*%
X34798000Y23050500D03*
%TD*%
D14*
%TO.P,U4,8*%
%TO.N,+5V*%
X48958500Y47688500D03*
%TO.P,U4,4*%
%TO.N,GND*%
X56578500Y40068500D03*
%TO.P,U4,7*%
%TO.N,Net-(C5-Pad1)*%
X51498500Y47688500D03*
%TO.P,U4,3*%
%TO.N,Net-(U3-Pad2)*%
X54038500Y40068500D03*
%TO.P,U4,6*%
%TO.N,Net-(C5-Pad1)*%
X54038500Y47688500D03*
%TO.P,U4,2*%
%TO.N,Net-(J2-PadR1)*%
X51498500Y40068500D03*
%TO.P,U4,5*%
%TO.N,Net-(C4-Pad1)*%
X56578500Y47688500D03*
D13*
%TO.P,U4,1*%
%TO.N,Net-(J2-PadR1)*%
X48958500Y40068500D03*
%TD*%
D14*
%TO.P,U3,8*%
%TO.N,Net-(C5-Pad1)*%
X36639500Y47688500D03*
%TO.P,U3,4*%
%TO.N,Net-(U2-Pad21)*%
X44259500Y40068500D03*
%TO.P,U3,7*%
%TO.N,Net-(C4-Pad1)*%
X39179500Y47688500D03*
%TO.P,U3,3*%
%TO.N,Net-(U2-Pad20)*%
X41719500Y40068500D03*
%TO.P,U3,6*%
%TO.N,GND*%
X41719500Y47688500D03*
%TO.P,U3,2*%
%TO.N,Net-(U3-Pad2)*%
X39179500Y40068500D03*
%TO.P,U3,5*%
%TO.N,Net-(U2-Pad23)*%
X44259500Y47688500D03*
D13*
%TO.P,U3,1*%
%TO.N,+5V*%
X36639500Y40068500D03*
%TD*%
D14*
%TO.P,U2,24*%
%TO.N,Net-(U2-Pad24)*%
X48133000Y31559500D03*
%TO.P,U2,12*%
%TO.N,GND*%
X76073000Y16319500D03*
%TO.P,U2,23*%
%TO.N,Net-(U2-Pad23)*%
X50673000Y31559500D03*
%TO.P,U2,11*%
%TO.N,D1*%
X73533000Y16319500D03*
%TO.P,U2,22*%
%TO.N,N/C*%
X53213000Y31559500D03*
%TO.P,U2,10*%
%TO.N,D0*%
X70993000Y16319500D03*
%TO.P,U2,21*%
%TO.N,Net-(U2-Pad21)*%
X55753000Y31559500D03*
%TO.P,U2,9*%
%TO.N,N/C*%
X68453000Y16319500D03*
%TO.P,U2,20*%
%TO.N,Net-(U2-Pad20)*%
X58293000Y31559500D03*
%TO.P,U2,8*%
%TO.N,N/C*%
X65913000Y16319500D03*
%TO.P,U2,19*%
X60833000Y31559500D03*
%TO.P,U2,7*%
%TO.N,Net-(U1-Pad8)*%
X63373000Y16319500D03*
%TO.P,U2,18*%
%TO.N,D7*%
X63373000Y31559500D03*
%TO.P,U2,6*%
%TO.N,Net-(U1-Pad3)*%
X60833000Y16319500D03*
%TO.P,U2,17*%
%TO.N,D6*%
X65913000Y31559500D03*
%TO.P,U2,5*%
%TO.N,R~W~*%
X58293000Y16319500D03*
%TO.P,U2,16*%
%TO.N,D5*%
X68453000Y31559500D03*
%TO.P,U2,4*%
%TO.N,A0*%
X55753000Y16319500D03*
%TO.P,U2,15*%
%TO.N,D4*%
X70993000Y31559500D03*
%TO.P,U2,3*%
%TO.N,~RESET~*%
X53213000Y16319500D03*
%TO.P,U2,14*%
%TO.N,D3*%
X73533000Y31559500D03*
%TO.P,U2,2*%
%TO.N,~SLOT_IRQ~*%
X50673000Y16319500D03*
%TO.P,U2,13*%
%TO.N,D2*%
X76073000Y31559500D03*
D13*
%TO.P,U2,1*%
%TO.N,+5V*%
X48133000Y16319500D03*
%TD*%
D14*
%TO.P,U1,14*%
%TO.N,+5V*%
X23812500Y20828000D03*
%TO.P,U1,7*%
%TO.N,GND*%
X8572500Y28448000D03*
%TO.P,U1,13*%
%TO.N,~SLOT_SEL~*%
X21272500Y20828000D03*
%TO.P,U1,6*%
%TO.N,Net-(U1-Pad6)*%
X11112500Y28448000D03*
%TO.P,U1,12*%
%TO.N,~SLOT_SEL~*%
X18732500Y20828000D03*
%TO.P,U1,5*%
%TO.N,GND*%
X13652500Y28448000D03*
%TO.P,U1,11*%
%TO.N,Net-(U1-Pad10)*%
X16192500Y20828000D03*
%TO.P,U1,4*%
%TO.N,GND*%
X16192500Y28448000D03*
%TO.P,U1,10*%
%TO.N,Net-(U1-Pad10)*%
X13652500Y20828000D03*
%TO.P,U1,3*%
%TO.N,Net-(U1-Pad3)*%
X18732500Y28448000D03*
%TO.P,U1,9*%
%TO.N,CLK*%
X11112500Y20828000D03*
%TO.P,U1,2*%
%TO.N,R~W~*%
X21272500Y28448000D03*
%TO.P,U1,8*%
%TO.N,Net-(U1-Pad8)*%
X8572500Y20828000D03*
D13*
%TO.P,U1,1*%
%TO.N,R~W~*%
X23812500Y28448000D03*
%TD*%
D15*
%TO.P,J1,50*%
%TO.N,~NMI~*%
X17272000Y4064000D03*
%TO.P,J1,49*%
%TO.N,~RESET~*%
X17272000Y6604000D03*
%TO.P,J1,48*%
%TO.N,~SLOT_IRQ~*%
X19812000Y4064000D03*
%TO.P,J1,47*%
%TO.N,SYNC*%
X19812000Y6604000D03*
%TO.P,J1,46*%
%TO.N,EX3*%
X22352000Y4064000D03*
%TO.P,J1,45*%
%TO.N,~IRQ~*%
X22352000Y6604000D03*
%TO.P,J1,44*%
%TO.N,EX2*%
X24892000Y4064000D03*
%TO.P,J1,43*%
%TO.N,R~W~*%
X24892000Y6604000D03*
%TO.P,J1,42*%
%TO.N,CLK_12M*%
X27432000Y4064000D03*
%TO.P,J1,41*%
%TO.N,CLK*%
X27432000Y6604000D03*
%TO.P,J1,40*%
%TO.N,LED4*%
X29972000Y4064000D03*
%TO.P,J1,39*%
%TO.N,BE*%
X29972000Y6604000D03*
%TO.P,J1,38*%
%TO.N,LED3*%
X32512000Y4064000D03*
%TO.P,J1,37*%
%TO.N,RDY*%
X32512000Y6604000D03*
%TO.P,J1,36*%
%TO.N,LED2*%
X35052000Y4064000D03*
%TO.P,J1,35*%
%TO.N,A15*%
X35052000Y6604000D03*
%TO.P,J1,34*%
%TO.N,LED1*%
X37592000Y4064000D03*
%TO.P,J1,33*%
%TO.N,A14*%
X37592000Y6604000D03*
%TO.P,J1,32*%
%TO.N,~SLOT_SEL~*%
X40132000Y4064000D03*
%TO.P,J1,31*%
%TO.N,A13*%
X40132000Y6604000D03*
%TO.P,J1,30*%
%TO.N,~INH~*%
X42672000Y4064000D03*
%TO.P,J1,29*%
%TO.N,A12*%
X42672000Y6604000D03*
%TO.P,J1,28*%
%TO.N,~SSEL~*%
X45212000Y4064000D03*
%TO.P,J1,27*%
%TO.N,A11*%
X45212000Y6604000D03*
%TO.P,J1,26*%
%TO.N,GND*%
X47752000Y4064000D03*
%TO.P,J1,25*%
%TO.N,+5V*%
X47752000Y6604000D03*
%TO.P,J1,24*%
X50292000Y4064000D03*
%TO.P,J1,23*%
%TO.N,GND*%
X50292000Y6604000D03*
%TO.P,J1,22*%
%TO.N,~SLOT_SEL~*%
X52832000Y4064000D03*
%TO.P,J1,21*%
%TO.N,A10*%
X52832000Y6604000D03*
%TO.P,J1,20*%
%TO.N,EX1*%
X55372000Y4064000D03*
%TO.P,J1,19*%
%TO.N,A9*%
X55372000Y6604000D03*
%TO.P,J1,18*%
%TO.N,EX0*%
X57912000Y4064000D03*
%TO.P,J1,17*%
%TO.N,A8*%
X57912000Y6604000D03*
%TO.P,J1,16*%
%TO.N,D7*%
X60452000Y4064000D03*
%TO.P,J1,15*%
%TO.N,A7*%
X60452000Y6604000D03*
%TO.P,J1,14*%
%TO.N,D6*%
X62992000Y4064000D03*
%TO.P,J1,13*%
%TO.N,A6*%
X62992000Y6604000D03*
%TO.P,J1,12*%
%TO.N,D5*%
X65532000Y4064000D03*
%TO.P,J1,11*%
%TO.N,A5*%
X65532000Y6604000D03*
%TO.P,J1,10*%
%TO.N,D4*%
X68072000Y4064000D03*
%TO.P,J1,9*%
%TO.N,A4*%
X68072000Y6604000D03*
%TO.P,J1,8*%
%TO.N,D3*%
X70612000Y4064000D03*
%TO.P,J1,7*%
%TO.N,A3*%
X70612000Y6604000D03*
%TO.P,J1,6*%
%TO.N,D2*%
X73152000Y4064000D03*
%TO.P,J1,5*%
%TO.N,A2*%
X73152000Y6604000D03*
%TO.P,J1,4*%
%TO.N,D1*%
X75692000Y4064000D03*
%TO.P,J1,3*%
%TO.N,A1*%
X75692000Y6604000D03*
%TO.P,J1,2*%
%TO.N,D0*%
X78232000Y4064000D03*
D16*
%TO.P,J1,1*%
%TO.N,A0*%
X78232000Y6604000D03*
%TD*%
D17*
%TO.N,D0*%
X74952011Y15239994D03*
%TO.N,A0*%
X57848500Y8382000D03*
%TO.N,~RESET~*%
X48482253Y9497922D03*
%TO.N,~SLOT_IRQ~*%
X40259000Y13843000D03*
%TO.N,R~W~*%
X28130500Y20701000D03*
X28067000Y7947935D03*
X28130500Y14868990D03*
X49276000Y9398000D03*
%TO.N,~SLOT_SEL~*%
X41307001Y9493501D03*
X51562000Y7366000D03*
%TO.N,Net-(U1-Pad3)*%
X58229500Y17907000D03*
%TO.N,Net-(U1-Pad8)*%
X18605500Y22542500D03*
X56642000Y18424990D03*
%TO.N,Net-(U2-Pad23)*%
X38100000Y43942000D03*
%TO.N,Net-(U2-Pad20)*%
X50927000Y33156990D03*
%TD*%
D18*
%TO.N,+5V*%
X50292000Y4064000D02*
X47752000Y6604000D01*
D19*
%TO.N,D7*%
X59418001Y27604501D02*
X63373000Y31559500D01*
X59418001Y15779499D02*
X59418001Y27604501D01*
X59276999Y15638497D02*
X59418001Y15779499D01*
X59276999Y5239001D02*
X59276999Y15638497D01*
X60452000Y4064000D02*
X59276999Y5239001D01*
%TO.N,D6*%
X61958001Y27604501D02*
X65913000Y31559500D01*
X61958001Y15779499D02*
X61958001Y27604501D01*
X61816999Y15638497D02*
X61958001Y15779499D01*
X61816999Y5239001D02*
X61816999Y15638497D01*
X62992000Y4064000D02*
X61816999Y5239001D01*
%TO.N,D5*%
X64787999Y16069497D02*
X64787999Y27894499D01*
X64356999Y15638497D02*
X64787999Y16069497D01*
X64787999Y27894499D02*
X68453000Y31559500D01*
X64356999Y5239001D02*
X64356999Y15638497D01*
X65532000Y4064000D02*
X64356999Y5239001D01*
%TO.N,D4*%
X67327999Y27894499D02*
X70993000Y31559500D01*
X67327999Y16069497D02*
X67327999Y27894499D01*
X66896999Y5239001D02*
X66896999Y15638497D01*
X66896999Y15638497D02*
X67327999Y16069497D01*
X68072000Y4064000D02*
X66896999Y5239001D01*
%TO.N,D3*%
X69867999Y16069497D02*
X69867999Y27894499D01*
X69436999Y5239001D02*
X69436999Y15638497D01*
X69867999Y27894499D02*
X73533000Y31559500D01*
X69436999Y15638497D02*
X69867999Y16069497D01*
X70612000Y4064000D02*
X69436999Y5239001D01*
%TO.N,D2*%
X72407999Y16069497D02*
X72407999Y27894499D01*
X71976999Y15638497D02*
X72407999Y16069497D01*
X72407999Y27894499D02*
X76073000Y31559500D01*
X71976999Y5239001D02*
X71976999Y15638497D01*
X73152000Y4064000D02*
X71976999Y5239001D01*
%TO.N,D1*%
X74327001Y15525499D02*
X73533000Y16319500D01*
X74327001Y5428999D02*
X74327001Y15525499D01*
X75692000Y4064000D02*
X74327001Y5428999D01*
%TO.N,D0*%
X77056999Y13135006D02*
X74952011Y15239994D01*
X78232000Y4064000D02*
X77056999Y5239001D01*
X77056999Y5239001D02*
X77056999Y13135006D01*
%TO.N,A0*%
X57848500Y14224000D02*
X55753000Y16319500D01*
X57848500Y8382000D02*
X57848500Y14224000D01*
%TO.N,CLK*%
X26256999Y7779001D02*
X24161499Y7779001D01*
X24161499Y7779001D02*
X11112500Y20828000D01*
X27432000Y6604000D02*
X26256999Y7779001D01*
%TO.N,~RESET~*%
X48482253Y11588753D02*
X48482253Y9497922D01*
X53213000Y16319500D02*
X48482253Y11588753D01*
%TO.N,~SLOT_IRQ~*%
X28796999Y6229997D02*
X28796999Y9365999D01*
X20987001Y5239001D02*
X27806003Y5239001D01*
X19812000Y4064000D02*
X20987001Y5239001D01*
X27806003Y5239001D02*
X28796999Y6229997D01*
X28796999Y9365999D02*
X33274000Y13843000D01*
X33274000Y13843000D02*
X40259000Y13843000D01*
X40259000Y13843000D02*
X40259000Y13843000D01*
%TO.N,R~W~*%
X23812500Y28448000D02*
X21272500Y28448000D01*
X23812500Y28448000D02*
X23812500Y25019000D01*
X23812500Y25019000D02*
X28130500Y20701000D01*
X28130500Y20701000D02*
X28130500Y20701000D01*
X28067000Y14805490D02*
X28130500Y14868990D01*
X28067000Y7947935D02*
X28067000Y14805490D01*
X54338001Y16569503D02*
X54338001Y15773265D01*
X55212999Y17444501D02*
X54338001Y16569503D01*
X49276000Y10711264D02*
X49276000Y9398000D01*
X57167999Y17444501D02*
X55212999Y17444501D01*
X54338001Y15773265D02*
X49276000Y10711264D01*
X58293000Y16319500D02*
X57167999Y17444501D01*
%TO.N,~SLOT_SEL~*%
X21272500Y20828000D02*
X18732500Y20828000D01*
X41307001Y5239001D02*
X41307001Y9493501D01*
X40132000Y4064000D02*
X41307001Y5239001D01*
X51562000Y5334000D02*
X51562000Y7366000D01*
X52832000Y4064000D02*
X51562000Y5334000D01*
X24638000Y15494000D02*
X21272500Y18859500D01*
X39612370Y15494000D02*
X24638000Y15494000D01*
X41307001Y13799369D02*
X39612370Y15494000D01*
X21272500Y18859500D02*
X21272500Y20828000D01*
X41307001Y9493501D02*
X41307001Y13799369D01*
D18*
%TO.N,Net-(C4-Pad1)*%
X39179500Y50201500D02*
X38835000Y50546000D01*
X39179500Y47688500D02*
X39179500Y50201500D01*
D19*
X40432911Y46563499D02*
X39307910Y47688500D01*
X49498501Y46563499D02*
X40432911Y46563499D01*
X50292000Y47356998D02*
X49498501Y46563499D01*
X50902000Y48813501D02*
X50292000Y48203501D01*
X39307910Y47688500D02*
X39179500Y47688500D01*
X56578500Y47688500D02*
X55453499Y48813501D01*
X50292000Y48203501D02*
X50292000Y47356998D01*
X55453499Y48813501D02*
X50902000Y48813501D01*
D18*
%TO.N,Net-(C5-Pad1)*%
X36639500Y50138000D02*
X36322000Y50455500D01*
X36639500Y47688500D02*
X36639500Y50138000D01*
D19*
X54038500Y47688500D02*
X51498500Y47688500D01*
X39878000Y46482000D02*
X37846000Y46482000D01*
X37846000Y46482000D02*
X36639500Y47688500D01*
X49923488Y46113488D02*
X40246512Y46113488D01*
X40246512Y46113488D02*
X40132000Y46228000D01*
X51498500Y47688500D02*
X49923488Y46113488D01*
X40132000Y46228000D02*
X39878000Y46482000D01*
%TO.N,Net-(U1-Pad10)*%
X13652500Y20828000D02*
X16192500Y20828000D01*
%TO.N,Net-(U1-Pad3)*%
X56128489Y20008011D02*
X58229500Y17907000D01*
X18732500Y28448000D02*
X27172489Y20008011D01*
X27172489Y20008011D02*
X56128489Y20008011D01*
%TO.N,Net-(U1-Pad8)*%
X55508990Y19558000D02*
X56642000Y18424990D01*
X18605500Y22542500D02*
X24001590Y22542500D01*
X26986090Y19558000D02*
X55508990Y19558000D01*
X24001590Y22542500D02*
X26986090Y19558000D01*
%TO.N,Net-(U2-Pad24)*%
X43307000Y31559500D02*
X42418000Y30670500D01*
X48133000Y31559500D02*
X43307000Y31559500D01*
%TO.N,Net-(U2-Pad23)*%
X49547999Y32684501D02*
X50673000Y31559500D01*
X37800001Y39782997D02*
X44898497Y32684501D01*
X37800001Y43642001D02*
X37800001Y39782997D01*
X44898497Y32684501D02*
X49547999Y32684501D01*
X38100000Y43942000D02*
X37800001Y43642001D01*
%TO.N,Net-(U2-Pad21)*%
X53530500Y33782000D02*
X55753000Y31559500D01*
X51054000Y33782000D02*
X53530500Y33782000D01*
X50546000Y33782000D02*
X51054000Y33782000D01*
X44259500Y40068500D02*
X50546000Y33782000D01*
%TO.N,Net-(U2-Pad20)*%
X48631010Y33156990D02*
X50927000Y33156990D01*
X41719500Y40068500D02*
X48631010Y33156990D01*
%TO.N,Net-(U3-Pad2)*%
X54038500Y40068500D02*
X52913499Y38943499D01*
X40304501Y41193501D02*
X39179500Y40068500D01*
X45648497Y41193501D02*
X45420499Y41193501D01*
X47898499Y38943499D02*
X45648497Y41193501D01*
X52913499Y38943499D02*
X47898499Y38943499D01*
X45420499Y41193501D02*
X40304501Y41193501D01*
D18*
%TO.N,Net-(J2-PadR1)*%
X51498500Y40068500D02*
X48958500Y40068500D01*
X56642000Y45212000D02*
X72580000Y45212000D01*
X51498500Y40068500D02*
X56642000Y45212000D01*
%TD*%
D20*
%TO.N,+5V*%
X2125353Y59386000D02*
X78646647Y59386000D01*
X78740956Y59395289D01*
X78903542Y59379347D01*
X79183018Y59294969D01*
X79440780Y59157915D01*
X79667015Y58973401D01*
X79853103Y58748460D01*
X79991956Y58491658D01*
X80078282Y58212781D01*
X80096365Y58040731D01*
X80087000Y57945646D01*
X80087001Y685000D01*
X14218381Y685000D01*
X685000Y14218380D01*
X685000Y28589335D01*
X7137500Y28589335D01*
X7137500Y28306665D01*
X7192647Y28029426D01*
X7300820Y27768273D01*
X7457863Y27533241D01*
X7657741Y27333363D01*
X7892773Y27176320D01*
X8153926Y27068147D01*
X8431165Y27013000D01*
X8713835Y27013000D01*
X8991074Y27068147D01*
X9252227Y27176320D01*
X9487259Y27333363D01*
X9687137Y27533241D01*
X9842500Y27765759D01*
X9997863Y27533241D01*
X10197741Y27333363D01*
X10432773Y27176320D01*
X10693926Y27068147D01*
X10971165Y27013000D01*
X11253835Y27013000D01*
X11531074Y27068147D01*
X11792227Y27176320D01*
X12027259Y27333363D01*
X12227137Y27533241D01*
X12382500Y27765759D01*
X12537863Y27533241D01*
X12737741Y27333363D01*
X12972773Y27176320D01*
X13233926Y27068147D01*
X13511165Y27013000D01*
X13793835Y27013000D01*
X14071074Y27068147D01*
X14332227Y27176320D01*
X14567259Y27333363D01*
X14767137Y27533241D01*
X14922500Y27765759D01*
X15077863Y27533241D01*
X15277741Y27333363D01*
X15512773Y27176320D01*
X15773926Y27068147D01*
X16051165Y27013000D01*
X16333835Y27013000D01*
X16611074Y27068147D01*
X16872227Y27176320D01*
X17107259Y27333363D01*
X17307137Y27533241D01*
X17462500Y27765759D01*
X17617863Y27533241D01*
X17817741Y27333363D01*
X18052773Y27176320D01*
X18313926Y27068147D01*
X18591165Y27013000D01*
X18873835Y27013000D01*
X19056387Y27049312D01*
X22803198Y23302500D01*
X19151035Y23302500D01*
X19048389Y23371086D01*
X18878229Y23441568D01*
X18697589Y23477500D01*
X18513411Y23477500D01*
X18332771Y23441568D01*
X18162611Y23371086D01*
X18009472Y23268762D01*
X17879238Y23138528D01*
X17776914Y22985389D01*
X17706432Y22815229D01*
X17670500Y22634589D01*
X17670500Y22450411D01*
X17706432Y22269771D01*
X17776914Y22099611D01*
X17862028Y21972229D01*
X17817741Y21942637D01*
X17617863Y21742759D01*
X17462500Y21510241D01*
X17307137Y21742759D01*
X17107259Y21942637D01*
X16872227Y22099680D01*
X16611074Y22207853D01*
X16333835Y22263000D01*
X16051165Y22263000D01*
X15773926Y22207853D01*
X15512773Y22099680D01*
X15277741Y21942637D01*
X15077863Y21742759D01*
X14974457Y21588000D01*
X14870543Y21588000D01*
X14767137Y21742759D01*
X14567259Y21942637D01*
X14332227Y22099680D01*
X14071074Y22207853D01*
X13793835Y22263000D01*
X13511165Y22263000D01*
X13233926Y22207853D01*
X12972773Y22099680D01*
X12737741Y21942637D01*
X12537863Y21742759D01*
X12382500Y21510241D01*
X12227137Y21742759D01*
X12027259Y21942637D01*
X11792227Y22099680D01*
X11531074Y22207853D01*
X11253835Y22263000D01*
X10971165Y22263000D01*
X10693926Y22207853D01*
X10432773Y22099680D01*
X10197741Y21942637D01*
X9997863Y21742759D01*
X9842500Y21510241D01*
X9687137Y21742759D01*
X9487259Y21942637D01*
X9252227Y22099680D01*
X8991074Y22207853D01*
X8713835Y22263000D01*
X8431165Y22263000D01*
X8153926Y22207853D01*
X7892773Y22099680D01*
X7657741Y21942637D01*
X7457863Y21742759D01*
X7300820Y21507727D01*
X7192647Y21246574D01*
X7137500Y20969335D01*
X7137500Y20686665D01*
X7192647Y20409426D01*
X7300820Y20148273D01*
X7457863Y19913241D01*
X7657741Y19713363D01*
X7892773Y19556320D01*
X8153926Y19448147D01*
X8431165Y19393000D01*
X8713835Y19393000D01*
X8991074Y19448147D01*
X9252227Y19556320D01*
X9487259Y19713363D01*
X9687137Y19913241D01*
X9842500Y20145759D01*
X9997863Y19913241D01*
X10197741Y19713363D01*
X10432773Y19556320D01*
X10693926Y19448147D01*
X10971165Y19393000D01*
X11253835Y19393000D01*
X11436387Y19429312D01*
X22868137Y7997561D01*
X22785158Y8031932D01*
X22498260Y8089000D01*
X22205740Y8089000D01*
X21918842Y8031932D01*
X21648589Y7919990D01*
X21405368Y7757475D01*
X21198525Y7550632D01*
X21082000Y7376240D01*
X20965475Y7550632D01*
X20758632Y7757475D01*
X20515411Y7919990D01*
X20245158Y8031932D01*
X19958260Y8089000D01*
X19665740Y8089000D01*
X19378842Y8031932D01*
X19108589Y7919990D01*
X18865368Y7757475D01*
X18658525Y7550632D01*
X18542000Y7376240D01*
X18425475Y7550632D01*
X18218632Y7757475D01*
X17975411Y7919990D01*
X17705158Y8031932D01*
X17418260Y8089000D01*
X17125740Y8089000D01*
X16838842Y8031932D01*
X16568589Y7919990D01*
X16325368Y7757475D01*
X16118525Y7550632D01*
X15956010Y7307411D01*
X15844068Y7037158D01*
X15787000Y6750260D01*
X15787000Y6457740D01*
X15844068Y6170842D01*
X15956010Y5900589D01*
X16118525Y5657368D01*
X16325368Y5450525D01*
X16499760Y5334000D01*
X16325368Y5217475D01*
X16118525Y5010632D01*
X15956010Y4767411D01*
X15844068Y4497158D01*
X15787000Y4210260D01*
X15787000Y3917740D01*
X15844068Y3630842D01*
X15956010Y3360589D01*
X16118525Y3117368D01*
X16325368Y2910525D01*
X16568589Y2748010D01*
X16838842Y2636068D01*
X17125740Y2579000D01*
X17418260Y2579000D01*
X17705158Y2636068D01*
X17975411Y2748010D01*
X18218632Y2910525D01*
X18425475Y3117368D01*
X18542000Y3291760D01*
X18658525Y3117368D01*
X18865368Y2910525D01*
X19108589Y2748010D01*
X19378842Y2636068D01*
X19665740Y2579000D01*
X19958260Y2579000D01*
X20245158Y2636068D01*
X20515411Y2748010D01*
X20758632Y2910525D01*
X20965475Y3117368D01*
X21082000Y3291760D01*
X21198525Y3117368D01*
X21405368Y2910525D01*
X21648589Y2748010D01*
X21918842Y2636068D01*
X22205740Y2579000D01*
X22498260Y2579000D01*
X22785158Y2636068D01*
X23055411Y2748010D01*
X23298632Y2910525D01*
X23505475Y3117368D01*
X23622000Y3291760D01*
X23738525Y3117368D01*
X23945368Y2910525D01*
X24188589Y2748010D01*
X24458842Y2636068D01*
X24745740Y2579000D01*
X25038260Y2579000D01*
X25325158Y2636068D01*
X25595411Y2748010D01*
X25838632Y2910525D01*
X26045475Y3117368D01*
X26162000Y3291760D01*
X26278525Y3117368D01*
X26485368Y2910525D01*
X26728589Y2748010D01*
X26998842Y2636068D01*
X27285740Y2579000D01*
X27578260Y2579000D01*
X27865158Y2636068D01*
X28135411Y2748010D01*
X28378632Y2910525D01*
X28585475Y3117368D01*
X28702000Y3291760D01*
X28818525Y3117368D01*
X29025368Y2910525D01*
X29268589Y2748010D01*
X29538842Y2636068D01*
X29825740Y2579000D01*
X30118260Y2579000D01*
X30405158Y2636068D01*
X30675411Y2748010D01*
X30918632Y2910525D01*
X31125475Y3117368D01*
X31242000Y3291760D01*
X31358525Y3117368D01*
X31565368Y2910525D01*
X31808589Y2748010D01*
X32078842Y2636068D01*
X32365740Y2579000D01*
X32658260Y2579000D01*
X32945158Y2636068D01*
X33215411Y2748010D01*
X33458632Y2910525D01*
X33665475Y3117368D01*
X33782000Y3291760D01*
X33898525Y3117368D01*
X34105368Y2910525D01*
X34348589Y2748010D01*
X34618842Y2636068D01*
X34905740Y2579000D01*
X35198260Y2579000D01*
X35485158Y2636068D01*
X35755411Y2748010D01*
X35998632Y2910525D01*
X36205475Y3117368D01*
X36322000Y3291760D01*
X36438525Y3117368D01*
X36645368Y2910525D01*
X36888589Y2748010D01*
X37158842Y2636068D01*
X37445740Y2579000D01*
X37738260Y2579000D01*
X38025158Y2636068D01*
X38295411Y2748010D01*
X38538632Y2910525D01*
X38745475Y3117368D01*
X38862000Y3291760D01*
X38978525Y3117368D01*
X39185368Y2910525D01*
X39428589Y2748010D01*
X39698842Y2636068D01*
X39985740Y2579000D01*
X40278260Y2579000D01*
X40565158Y2636068D01*
X40835411Y2748010D01*
X41078632Y2910525D01*
X41285475Y3117368D01*
X41402000Y3291760D01*
X41518525Y3117368D01*
X41725368Y2910525D01*
X41968589Y2748010D01*
X42238842Y2636068D01*
X42525740Y2579000D01*
X42818260Y2579000D01*
X43105158Y2636068D01*
X43375411Y2748010D01*
X43618632Y2910525D01*
X43825475Y3117368D01*
X43942000Y3291760D01*
X44058525Y3117368D01*
X44265368Y2910525D01*
X44508589Y2748010D01*
X44778842Y2636068D01*
X45065740Y2579000D01*
X45358260Y2579000D01*
X45645158Y2636068D01*
X45915411Y2748010D01*
X46158632Y2910525D01*
X46365475Y3117368D01*
X46482000Y3291760D01*
X46598525Y3117368D01*
X46805368Y2910525D01*
X47048589Y2748010D01*
X47318842Y2636068D01*
X47605740Y2579000D01*
X47898260Y2579000D01*
X48185158Y2636068D01*
X48455411Y2748010D01*
X48698632Y2910525D01*
X48905475Y3117368D01*
X49027195Y3299534D01*
X49096822Y3182645D01*
X49291731Y2966412D01*
X49525080Y2792359D01*
X49787901Y2667175D01*
X49935110Y2622524D01*
X50165000Y2743845D01*
X50165000Y3937000D01*
X50145000Y3937000D01*
X50145000Y4191000D01*
X50165000Y4191000D01*
X50165000Y4211000D01*
X50419000Y4211000D01*
X50419000Y4191000D01*
X50439000Y4191000D01*
X50439000Y3937000D01*
X50419000Y3937000D01*
X50419000Y2743845D01*
X50648890Y2622524D01*
X50796099Y2667175D01*
X51058920Y2792359D01*
X51292269Y2966412D01*
X51487178Y3182645D01*
X51556805Y3299534D01*
X51678525Y3117368D01*
X51885368Y2910525D01*
X52128589Y2748010D01*
X52398842Y2636068D01*
X52685740Y2579000D01*
X52978260Y2579000D01*
X53265158Y2636068D01*
X53535411Y2748010D01*
X53778632Y2910525D01*
X53985475Y3117368D01*
X54102000Y3291760D01*
X54218525Y3117368D01*
X54425368Y2910525D01*
X54668589Y2748010D01*
X54938842Y2636068D01*
X55225740Y2579000D01*
X55518260Y2579000D01*
X55805158Y2636068D01*
X56075411Y2748010D01*
X56318632Y2910525D01*
X56525475Y3117368D01*
X56642000Y3291760D01*
X56758525Y3117368D01*
X56965368Y2910525D01*
X57208589Y2748010D01*
X57478842Y2636068D01*
X57765740Y2579000D01*
X58058260Y2579000D01*
X58345158Y2636068D01*
X58615411Y2748010D01*
X58858632Y2910525D01*
X59065475Y3117368D01*
X59182000Y3291760D01*
X59298525Y3117368D01*
X59505368Y2910525D01*
X59748589Y2748010D01*
X60018842Y2636068D01*
X60305740Y2579000D01*
X60598260Y2579000D01*
X60885158Y2636068D01*
X61155411Y2748010D01*
X61398632Y2910525D01*
X61605475Y3117368D01*
X61722000Y3291760D01*
X61838525Y3117368D01*
X62045368Y2910525D01*
X62288589Y2748010D01*
X62558842Y2636068D01*
X62845740Y2579000D01*
X63138260Y2579000D01*
X63425158Y2636068D01*
X63695411Y2748010D01*
X63938632Y2910525D01*
X64145475Y3117368D01*
X64262000Y3291760D01*
X64378525Y3117368D01*
X64585368Y2910525D01*
X64828589Y2748010D01*
X65098842Y2636068D01*
X65385740Y2579000D01*
X65678260Y2579000D01*
X65965158Y2636068D01*
X66235411Y2748010D01*
X66478632Y2910525D01*
X66685475Y3117368D01*
X66802000Y3291760D01*
X66918525Y3117368D01*
X67125368Y2910525D01*
X67368589Y2748010D01*
X67638842Y2636068D01*
X67925740Y2579000D01*
X68218260Y2579000D01*
X68505158Y2636068D01*
X68775411Y2748010D01*
X69018632Y2910525D01*
X69225475Y3117368D01*
X69342000Y3291760D01*
X69458525Y3117368D01*
X69665368Y2910525D01*
X69908589Y2748010D01*
X70178842Y2636068D01*
X70465740Y2579000D01*
X70758260Y2579000D01*
X71045158Y2636068D01*
X71315411Y2748010D01*
X71558632Y2910525D01*
X71765475Y3117368D01*
X71882000Y3291760D01*
X71998525Y3117368D01*
X72205368Y2910525D01*
X72448589Y2748010D01*
X72718842Y2636068D01*
X73005740Y2579000D01*
X73298260Y2579000D01*
X73585158Y2636068D01*
X73855411Y2748010D01*
X74098632Y2910525D01*
X74305475Y3117368D01*
X74422000Y3291760D01*
X74538525Y3117368D01*
X74745368Y2910525D01*
X74988589Y2748010D01*
X75258842Y2636068D01*
X75545740Y2579000D01*
X75838260Y2579000D01*
X76125158Y2636068D01*
X76395411Y2748010D01*
X76638632Y2910525D01*
X76845475Y3117368D01*
X76962000Y3291760D01*
X77078525Y3117368D01*
X77285368Y2910525D01*
X77528589Y2748010D01*
X77798842Y2636068D01*
X78085740Y2579000D01*
X78378260Y2579000D01*
X78665158Y2636068D01*
X78935411Y2748010D01*
X79178632Y2910525D01*
X79385475Y3117368D01*
X79547990Y3360589D01*
X79659932Y3630842D01*
X79717000Y3917740D01*
X79717000Y4210260D01*
X79659932Y4497158D01*
X79547990Y4767411D01*
X79385475Y5010632D01*
X79253620Y5142487D01*
X79326180Y5164498D01*
X79436494Y5223463D01*
X79533185Y5302815D01*
X79612537Y5399506D01*
X79671502Y5509820D01*
X79707812Y5629518D01*
X79720072Y5754000D01*
X79720072Y7454000D01*
X79707812Y7578482D01*
X79671502Y7698180D01*
X79612537Y7808494D01*
X79533185Y7905185D01*
X79436494Y7984537D01*
X79326180Y8043502D01*
X79206482Y8079812D01*
X79082000Y8092072D01*
X77816999Y8092072D01*
X77816999Y13097673D01*
X77820676Y13135006D01*
X77806002Y13283992D01*
X77762545Y13427253D01*
X77691973Y13559282D01*
X77620798Y13646009D01*
X77597000Y13675007D01*
X77568002Y13698805D01*
X76354438Y14912369D01*
X76491574Y14939647D01*
X76752727Y15047820D01*
X76987759Y15204863D01*
X77187637Y15404741D01*
X77344680Y15639773D01*
X77452853Y15900926D01*
X77508000Y16178165D01*
X77508000Y16460835D01*
X77452853Y16738074D01*
X77344680Y16999227D01*
X77187637Y17234259D01*
X76987759Y17434137D01*
X76752727Y17591180D01*
X76491574Y17699353D01*
X76214335Y17754500D01*
X75931665Y17754500D01*
X75654426Y17699353D01*
X75393273Y17591180D01*
X75158241Y17434137D01*
X74958363Y17234259D01*
X74803000Y17001741D01*
X74647637Y17234259D01*
X74447759Y17434137D01*
X74212727Y17591180D01*
X73951574Y17699353D01*
X73674335Y17754500D01*
X73391665Y17754500D01*
X73167999Y17710009D01*
X73167999Y27579698D01*
X75749114Y30160812D01*
X75931665Y30124500D01*
X76214335Y30124500D01*
X76491574Y30179647D01*
X76752727Y30287820D01*
X76987759Y30444863D01*
X77187637Y30644741D01*
X77344680Y30879773D01*
X77452853Y31140926D01*
X77508000Y31418165D01*
X77508000Y31700835D01*
X77452853Y31978074D01*
X77344680Y32239227D01*
X77187637Y32474259D01*
X76987759Y32674137D01*
X76752727Y32831180D01*
X76491574Y32939353D01*
X76214335Y32994500D01*
X75931665Y32994500D01*
X75654426Y32939353D01*
X75393273Y32831180D01*
X75158241Y32674137D01*
X74958363Y32474259D01*
X74803000Y32241741D01*
X74647637Y32474259D01*
X74447759Y32674137D01*
X74212727Y32831180D01*
X73951574Y32939353D01*
X73674335Y32994500D01*
X73391665Y32994500D01*
X73114426Y32939353D01*
X72853273Y32831180D01*
X72618241Y32674137D01*
X72418363Y32474259D01*
X72263000Y32241741D01*
X72107637Y32474259D01*
X71907759Y32674137D01*
X71672727Y32831180D01*
X71411574Y32939353D01*
X71134335Y32994500D01*
X70851665Y32994500D01*
X70574426Y32939353D01*
X70313273Y32831180D01*
X70078241Y32674137D01*
X69878363Y32474259D01*
X69723000Y32241741D01*
X69567637Y32474259D01*
X69367759Y32674137D01*
X69132727Y32831180D01*
X68871574Y32939353D01*
X68594335Y32994500D01*
X68311665Y32994500D01*
X68034426Y32939353D01*
X67773273Y32831180D01*
X67538241Y32674137D01*
X67338363Y32474259D01*
X67183000Y32241741D01*
X67027637Y32474259D01*
X66827759Y32674137D01*
X66592727Y32831180D01*
X66331574Y32939353D01*
X66054335Y32994500D01*
X65771665Y32994500D01*
X65494426Y32939353D01*
X65233273Y32831180D01*
X64998241Y32674137D01*
X64798363Y32474259D01*
X64643000Y32241741D01*
X64487637Y32474259D01*
X64287759Y32674137D01*
X64052727Y32831180D01*
X63791574Y32939353D01*
X63514335Y32994500D01*
X63231665Y32994500D01*
X62954426Y32939353D01*
X62693273Y32831180D01*
X62458241Y32674137D01*
X62258363Y32474259D01*
X62103000Y32241741D01*
X61947637Y32474259D01*
X61747759Y32674137D01*
X61512727Y32831180D01*
X61251574Y32939353D01*
X60974335Y32994500D01*
X60691665Y32994500D01*
X60414426Y32939353D01*
X60153273Y32831180D01*
X59918241Y32674137D01*
X59718363Y32474259D01*
X59563000Y32241741D01*
X59407637Y32474259D01*
X59207759Y32674137D01*
X58972727Y32831180D01*
X58711574Y32939353D01*
X58434335Y32994500D01*
X58151665Y32994500D01*
X57874426Y32939353D01*
X57613273Y32831180D01*
X57378241Y32674137D01*
X57178363Y32474259D01*
X57023000Y32241741D01*
X56867637Y32474259D01*
X56667759Y32674137D01*
X56432727Y32831180D01*
X56171574Y32939353D01*
X55894335Y32994500D01*
X55611665Y32994500D01*
X55429114Y32958188D01*
X54094304Y34292997D01*
X54070501Y34322001D01*
X53954776Y34416974D01*
X53822747Y34487546D01*
X53679486Y34531003D01*
X53567833Y34542000D01*
X53567822Y34542000D01*
X53530500Y34545676D01*
X53493178Y34542000D01*
X50860802Y34542000D01*
X45658188Y39744613D01*
X45694500Y39927165D01*
X45694500Y40072697D01*
X47334700Y38432496D01*
X47358498Y38403498D01*
X47474223Y38308525D01*
X47606252Y38237953D01*
X47749513Y38194496D01*
X47861166Y38183499D01*
X47861175Y38183499D01*
X47898498Y38179823D01*
X47935821Y38183499D01*
X52876177Y38183499D01*
X52913499Y38179823D01*
X52950821Y38183499D01*
X52950832Y38183499D01*
X53062485Y38194496D01*
X53205746Y38237953D01*
X53337775Y38308525D01*
X53453500Y38403498D01*
X53477303Y38432501D01*
X53714613Y38669812D01*
X53897165Y38633500D01*
X54179835Y38633500D01*
X54457074Y38688647D01*
X54718227Y38796820D01*
X54953259Y38953863D01*
X55153137Y39153741D01*
X55308500Y39386259D01*
X55463863Y39153741D01*
X55663741Y38953863D01*
X55898773Y38796820D01*
X56159926Y38688647D01*
X56437165Y38633500D01*
X56719835Y38633500D01*
X56997074Y38688647D01*
X57258227Y38796820D01*
X57493259Y38953863D01*
X57693137Y39153741D01*
X57850180Y39388773D01*
X57958353Y39649926D01*
X58013500Y39927165D01*
X58013500Y40209835D01*
X57958353Y40487074D01*
X57850180Y40748227D01*
X57693137Y40983259D01*
X57493259Y41183137D01*
X57258227Y41340180D01*
X56997074Y41448353D01*
X56719835Y41503500D01*
X56437165Y41503500D01*
X56159926Y41448353D01*
X55898773Y41340180D01*
X55663741Y41183137D01*
X55463863Y40983259D01*
X55308500Y40750741D01*
X55153137Y40983259D01*
X54953259Y41183137D01*
X54718227Y41340180D01*
X54475749Y41440618D01*
X57112132Y44077000D01*
X66865348Y44077000D01*
X66695008Y44006443D01*
X66492733Y43871287D01*
X66320713Y43699267D01*
X66185557Y43496992D01*
X66092460Y43272236D01*
X66045000Y43033637D01*
X66045000Y42790363D01*
X66092460Y42551764D01*
X66185557Y42327008D01*
X66320713Y42124733D01*
X66441161Y42004285D01*
X66266646Y41951347D01*
X66034725Y41827382D01*
X65831445Y41660555D01*
X65664618Y41457275D01*
X65540653Y41225354D01*
X65464317Y40973706D01*
X65438541Y40712000D01*
X65464317Y40450294D01*
X65540653Y40198646D01*
X65664618Y39966725D01*
X65831445Y39763445D01*
X66034725Y39596618D01*
X66266646Y39472653D01*
X66518294Y39396317D01*
X66714421Y39377000D01*
X67445579Y39377000D01*
X67641706Y39396317D01*
X67893354Y39472653D01*
X68125275Y39596618D01*
X68265868Y39712000D01*
X73938541Y39712000D01*
X73964317Y39450294D01*
X74040653Y39198646D01*
X74164618Y38966725D01*
X74331445Y38763445D01*
X74534725Y38596618D01*
X74766646Y38472653D01*
X75018294Y38396317D01*
X75214421Y38377000D01*
X75945579Y38377000D01*
X76141706Y38396317D01*
X76393354Y38472653D01*
X76625275Y38596618D01*
X76828555Y38763445D01*
X76995382Y38966725D01*
X77119347Y39198646D01*
X77195683Y39450294D01*
X77221459Y39712000D01*
X77195683Y39973706D01*
X77119347Y40225354D01*
X76995382Y40457275D01*
X76828555Y40660555D01*
X76625275Y40827382D01*
X76393354Y40951347D01*
X76141706Y41027683D01*
X75945579Y41047000D01*
X75214421Y41047000D01*
X75018294Y41027683D01*
X74766646Y40951347D01*
X74534725Y40827382D01*
X74331445Y40660555D01*
X74164618Y40457275D01*
X74040653Y40225354D01*
X73964317Y39973706D01*
X73938541Y39712000D01*
X68265868Y39712000D01*
X68328555Y39763445D01*
X68495382Y39966725D01*
X68619347Y40198646D01*
X68695683Y40450294D01*
X68721459Y40712000D01*
X68695683Y40973706D01*
X68619347Y41225354D01*
X68495382Y41457275D01*
X68328555Y41660555D01*
X68125275Y41827382D01*
X67988839Y41900309D01*
X68067267Y41952713D01*
X68239287Y42124733D01*
X68374443Y42327008D01*
X68467540Y42551764D01*
X68515000Y42790363D01*
X68515000Y43033637D01*
X68467540Y43272236D01*
X68374443Y43496992D01*
X68239287Y43699267D01*
X68067267Y43871287D01*
X68063314Y43873928D01*
X69580000Y43873928D01*
X69704482Y43886188D01*
X69824180Y43922498D01*
X69934494Y43981463D01*
X70031185Y44060815D01*
X70044468Y44077000D01*
X71571428Y44077000D01*
X71766646Y43972653D01*
X72018294Y43896317D01*
X72214421Y43877000D01*
X72945579Y43877000D01*
X73141706Y43896317D01*
X73393354Y43972653D01*
X73625275Y44096618D01*
X73828555Y44263445D01*
X73995382Y44466725D01*
X74080000Y44625033D01*
X74164618Y44466725D01*
X74331445Y44263445D01*
X74496271Y44128176D01*
X74401637Y44147000D01*
X74158363Y44147000D01*
X73919764Y44099540D01*
X73695008Y44006443D01*
X73492733Y43871287D01*
X73320713Y43699267D01*
X73185557Y43496992D01*
X73092460Y43272236D01*
X73045000Y43033637D01*
X73045000Y42790363D01*
X73092460Y42551764D01*
X73185557Y42327008D01*
X73320713Y42124733D01*
X73492733Y41952713D01*
X73695008Y41817557D01*
X73919764Y41724460D01*
X74158363Y41677000D01*
X74401637Y41677000D01*
X74640236Y41724460D01*
X74864992Y41817557D01*
X75067267Y41952713D01*
X75239287Y42124733D01*
X75374443Y42327008D01*
X75467540Y42551764D01*
X75515000Y42790363D01*
X75515000Y43033637D01*
X75467540Y43272236D01*
X75374443Y43496992D01*
X75239287Y43699267D01*
X75067267Y43871287D01*
X75031797Y43894987D01*
X75214421Y43877000D01*
X75945579Y43877000D01*
X76141706Y43896317D01*
X76393354Y43972653D01*
X76625275Y44096618D01*
X76828555Y44263445D01*
X76995382Y44466725D01*
X77119347Y44698646D01*
X77195683Y44950294D01*
X77221459Y45212000D01*
X77195683Y45473706D01*
X77119347Y45725354D01*
X76995382Y45957275D01*
X76828555Y46160555D01*
X76625275Y46327382D01*
X76393354Y46451347D01*
X76141706Y46527683D01*
X75945579Y46547000D01*
X75214421Y46547000D01*
X75018294Y46527683D01*
X74766646Y46451347D01*
X74534725Y46327382D01*
X74331445Y46160555D01*
X74164618Y45957275D01*
X74080000Y45798967D01*
X73995382Y45957275D01*
X73828555Y46160555D01*
X73625275Y46327382D01*
X73393354Y46451347D01*
X73141706Y46527683D01*
X72945579Y46547000D01*
X72214421Y46547000D01*
X72018294Y46527683D01*
X71766646Y46451347D01*
X71571428Y46347000D01*
X70044468Y46347000D01*
X70031185Y46363185D01*
X69934494Y46442537D01*
X69824180Y46501502D01*
X69704482Y46537812D01*
X69580000Y46550072D01*
X67580000Y46550072D01*
X67455518Y46537812D01*
X67335820Y46501502D01*
X67225506Y46442537D01*
X67128815Y46363185D01*
X67115532Y46347000D01*
X57089666Y46347000D01*
X57258227Y46416820D01*
X57493259Y46573863D01*
X57693137Y46773741D01*
X57850180Y47008773D01*
X57958353Y47269926D01*
X58013500Y47547165D01*
X58013500Y47829835D01*
X57958353Y48107074D01*
X57850180Y48368227D01*
X57693137Y48603259D01*
X57493259Y48803137D01*
X57258227Y48960180D01*
X56997074Y49068353D01*
X56719835Y49123500D01*
X56437165Y49123500D01*
X56254613Y49087188D01*
X56017303Y49324499D01*
X55993500Y49353502D01*
X55877775Y49448475D01*
X55745746Y49519047D01*
X55602485Y49562504D01*
X55490832Y49573501D01*
X55490821Y49573501D01*
X55453499Y49577177D01*
X55416177Y49573501D01*
X55158897Y49573501D01*
X55216637Y49631241D01*
X55373680Y49866273D01*
X55481853Y50127426D01*
X55537000Y50404665D01*
X55537000Y50687335D01*
X55481853Y50964574D01*
X55373680Y51225727D01*
X55216637Y51460759D01*
X55016759Y51660637D01*
X54781727Y51817680D01*
X54520574Y51925853D01*
X54243335Y51981000D01*
X53960665Y51981000D01*
X53683426Y51925853D01*
X53422273Y51817680D01*
X53187241Y51660637D01*
X52987363Y51460759D01*
X52830320Y51225727D01*
X52722147Y50964574D01*
X52667000Y50687335D01*
X52667000Y50404665D01*
X52722147Y50127426D01*
X52830320Y49866273D01*
X52987363Y49631241D01*
X53045103Y49573501D01*
X50939322Y49573501D01*
X50901999Y49577177D01*
X50864676Y49573501D01*
X50864667Y49573501D01*
X50753014Y49562504D01*
X50609753Y49519047D01*
X50477724Y49448475D01*
X50361999Y49353502D01*
X50338200Y49324503D01*
X49832210Y48818512D01*
X49695920Y48919537D01*
X49441587Y49039746D01*
X49307539Y49080404D01*
X49085502Y48958416D01*
X49085502Y49110072D01*
X49172512Y49105783D01*
X49452130Y49147213D01*
X49718292Y49242397D01*
X49843514Y49309329D01*
X49915097Y49553298D01*
X49102000Y50366395D01*
X48288903Y49553298D01*
X48360486Y49309329D01*
X48615996Y49188429D01*
X48875024Y49123500D01*
X48831498Y49123500D01*
X48831498Y48958416D01*
X48609461Y49080404D01*
X48475413Y49039746D01*
X48221080Y48919537D01*
X47995086Y48752019D01*
X47806115Y48543631D01*
X47661430Y48302381D01*
X47566591Y48037540D01*
X47687876Y47815500D01*
X48831500Y47815500D01*
X48831500Y47835500D01*
X49085500Y47835500D01*
X49085500Y47815500D01*
X49105500Y47815500D01*
X49105500Y47561500D01*
X49085500Y47561500D01*
X49085500Y47541500D01*
X48831500Y47541500D01*
X48831500Y47561500D01*
X47687876Y47561500D01*
X47566591Y47339460D01*
X47572307Y47323499D01*
X45650009Y47323499D01*
X45694500Y47547165D01*
X45694500Y47829835D01*
X45639353Y48107074D01*
X45531180Y48368227D01*
X45374137Y48603259D01*
X45174259Y48803137D01*
X44939227Y48960180D01*
X44678074Y49068353D01*
X44400835Y49123500D01*
X44320176Y49123500D01*
X44534574Y49166147D01*
X44795727Y49274320D01*
X45030759Y49431363D01*
X45230637Y49631241D01*
X45387680Y49866273D01*
X45495853Y50127426D01*
X45551000Y50404665D01*
X45551000Y50475488D01*
X47661783Y50475488D01*
X47703213Y50195870D01*
X47798397Y49929708D01*
X47865329Y49804486D01*
X48109298Y49732903D01*
X48922395Y50546000D01*
X49281605Y50546000D01*
X50094702Y49732903D01*
X50338671Y49804486D01*
X50459571Y50059996D01*
X50528300Y50334184D01*
X50542217Y50616512D01*
X50500787Y50896130D01*
X50405603Y51162292D01*
X50338671Y51287514D01*
X50094702Y51359097D01*
X49281605Y50546000D01*
X48922395Y50546000D01*
X48109298Y51359097D01*
X47865329Y51287514D01*
X47744429Y51032004D01*
X47675700Y50757816D01*
X47661783Y50475488D01*
X45551000Y50475488D01*
X45551000Y50687335D01*
X45495853Y50964574D01*
X45387680Y51225727D01*
X45230637Y51460759D01*
X45152694Y51538702D01*
X48288903Y51538702D01*
X49102000Y50725605D01*
X49915097Y51538702D01*
X49843514Y51782671D01*
X49588004Y51903571D01*
X49313816Y51972300D01*
X49031488Y51986217D01*
X48751870Y51944787D01*
X48485708Y51849603D01*
X48360486Y51782671D01*
X48288903Y51538702D01*
X45152694Y51538702D01*
X45030759Y51660637D01*
X44795727Y51817680D01*
X44534574Y51925853D01*
X44257335Y51981000D01*
X43974665Y51981000D01*
X43697426Y51925853D01*
X43436273Y51817680D01*
X43201241Y51660637D01*
X43001363Y51460759D01*
X42844320Y51225727D01*
X42736147Y50964574D01*
X42681000Y50687335D01*
X42681000Y50404665D01*
X42736147Y50127426D01*
X42844320Y49866273D01*
X43001363Y49631241D01*
X43201241Y49431363D01*
X43436273Y49274320D01*
X43697426Y49166147D01*
X43974665Y49111000D01*
X44055324Y49111000D01*
X43840926Y49068353D01*
X43579773Y48960180D01*
X43344741Y48803137D01*
X43144863Y48603259D01*
X42989500Y48370741D01*
X42834137Y48603259D01*
X42634259Y48803137D01*
X42399227Y48960180D01*
X42138074Y49068353D01*
X41860835Y49123500D01*
X41578165Y49123500D01*
X41300926Y49068353D01*
X41039773Y48960180D01*
X40804741Y48803137D01*
X40604863Y48603259D01*
X40449500Y48370741D01*
X40314500Y48572784D01*
X40314500Y49756751D01*
X40387680Y49866273D01*
X40495853Y50127426D01*
X40551000Y50404665D01*
X40551000Y50687335D01*
X40495853Y50964574D01*
X40387680Y51225727D01*
X40230637Y51460759D01*
X40030759Y51660637D01*
X39795727Y51817680D01*
X39534574Y51925853D01*
X39257335Y51981000D01*
X38974665Y51981000D01*
X38697426Y51925853D01*
X38436273Y51817680D01*
X38201241Y51660637D01*
X38001363Y51460759D01*
X37844320Y51225727D01*
X37736147Y50964574D01*
X37719000Y50878371D01*
X37701853Y50964574D01*
X37593680Y51225727D01*
X37436637Y51460759D01*
X37236759Y51660637D01*
X37001727Y51817680D01*
X36740574Y51925853D01*
X36463335Y51981000D01*
X36180665Y51981000D01*
X35903426Y51925853D01*
X35642273Y51817680D01*
X35407241Y51660637D01*
X35207363Y51460759D01*
X35050320Y51225727D01*
X34942147Y50964574D01*
X34887000Y50687335D01*
X34887000Y50404665D01*
X34942147Y50127426D01*
X35050320Y49866273D01*
X35207363Y49631241D01*
X35407241Y49431363D01*
X35504501Y49366376D01*
X35504500Y48572784D01*
X35367820Y48368227D01*
X35259647Y48107074D01*
X35204500Y47829835D01*
X35204500Y47547165D01*
X35259647Y47269926D01*
X35367820Y47008773D01*
X35524863Y46773741D01*
X35724741Y46573863D01*
X35959773Y46416820D01*
X36220926Y46308647D01*
X36498165Y46253500D01*
X36780835Y46253500D01*
X36963386Y46289812D01*
X37282200Y45970998D01*
X37305999Y45941999D01*
X37421724Y45847026D01*
X37553753Y45776454D01*
X37697014Y45732997D01*
X37808667Y45722000D01*
X37808675Y45722000D01*
X37846000Y45718324D01*
X37883325Y45722000D01*
X39563199Y45722000D01*
X39568201Y45716998D01*
X39682711Y45602487D01*
X39706511Y45573487D01*
X39822236Y45478514D01*
X39954265Y45407942D01*
X40097526Y45364485D01*
X40209179Y45353488D01*
X40209189Y45353488D01*
X40246511Y45349812D01*
X40283834Y45353488D01*
X49886166Y45353488D01*
X49923488Y45349812D01*
X49960810Y45353488D01*
X49960821Y45353488D01*
X50072474Y45364485D01*
X50215735Y45407942D01*
X50347764Y45478514D01*
X50463489Y45573487D01*
X50487292Y45602491D01*
X51174614Y46289812D01*
X51357165Y46253500D01*
X51639835Y46253500D01*
X51917074Y46308647D01*
X52178227Y46416820D01*
X52413259Y46573863D01*
X52613137Y46773741D01*
X52716543Y46928500D01*
X52820457Y46928500D01*
X52923863Y46773741D01*
X53123741Y46573863D01*
X53358773Y46416820D01*
X53619926Y46308647D01*
X53897165Y46253500D01*
X54179835Y46253500D01*
X54457074Y46308647D01*
X54718227Y46416820D01*
X54953259Y46573863D01*
X55153137Y46773741D01*
X55308500Y47006259D01*
X55463863Y46773741D01*
X55663741Y46573863D01*
X55898773Y46416820D01*
X56159926Y46308647D01*
X56273038Y46286147D01*
X56205553Y46265676D01*
X56008377Y46160284D01*
X55835551Y46018449D01*
X55800009Y45975141D01*
X51321219Y41496350D01*
X51079926Y41448353D01*
X50818773Y41340180D01*
X50614216Y41203500D01*
X50299457Y41203500D01*
X50289037Y41222994D01*
X50209685Y41319685D01*
X50112994Y41399037D01*
X50002680Y41458002D01*
X49882982Y41494312D01*
X49758500Y41506572D01*
X48158500Y41506572D01*
X48034018Y41494312D01*
X47914320Y41458002D01*
X47804006Y41399037D01*
X47707315Y41319685D01*
X47627963Y41222994D01*
X47568998Y41112680D01*
X47532688Y40992982D01*
X47520428Y40868500D01*
X47520428Y40396372D01*
X46212301Y41704498D01*
X46188498Y41733502D01*
X46072773Y41828475D01*
X45940744Y41899047D01*
X45797483Y41942504D01*
X45685830Y41953501D01*
X45685819Y41953501D01*
X45648497Y41957177D01*
X45611175Y41953501D01*
X40341826Y41953501D01*
X40304501Y41957177D01*
X40267176Y41953501D01*
X40267168Y41953501D01*
X40155515Y41942504D01*
X40012254Y41899047D01*
X39880225Y41828475D01*
X39764500Y41733502D01*
X39740702Y41704504D01*
X39503386Y41467188D01*
X39320835Y41503500D01*
X39038165Y41503500D01*
X38760926Y41448353D01*
X38560001Y41365127D01*
X38560001Y43124848D01*
X38696028Y43215738D01*
X38826262Y43345972D01*
X38928586Y43499111D01*
X38999068Y43669271D01*
X39035000Y43849911D01*
X39035000Y44034089D01*
X38999068Y44214729D01*
X38928586Y44384889D01*
X38826262Y44538028D01*
X38696028Y44668262D01*
X38542889Y44770586D01*
X38372729Y44841068D01*
X38192089Y44877000D01*
X38007911Y44877000D01*
X37827271Y44841068D01*
X37657111Y44770586D01*
X37503972Y44668262D01*
X37373738Y44538028D01*
X37271414Y44384889D01*
X37200932Y44214729D01*
X37173442Y44076531D01*
X37165027Y44066277D01*
X37152714Y44043241D01*
X37094455Y43934247D01*
X37050998Y43790986D01*
X37040001Y43679333D01*
X37040001Y43679323D01*
X37036325Y43642001D01*
X37040001Y43604678D01*
X37040002Y41504185D01*
X36925250Y41503500D01*
X36766500Y41344750D01*
X36766500Y40195500D01*
X36786500Y40195500D01*
X36786500Y39941500D01*
X36766500Y39941500D01*
X36766500Y38792250D01*
X36925250Y38633500D01*
X37439500Y38630428D01*
X37563982Y38642688D01*
X37683680Y38678998D01*
X37778510Y38729687D01*
X44188696Y32319500D01*
X43344323Y32319500D01*
X43307000Y32323176D01*
X43269677Y32319500D01*
X43269667Y32319500D01*
X43158014Y32308503D01*
X43014753Y32265046D01*
X42882724Y32194474D01*
X42766999Y32099501D01*
X42743201Y32070503D01*
X42741886Y32069188D01*
X42559335Y32105500D01*
X42276665Y32105500D01*
X41999426Y32050353D01*
X41738273Y31942180D01*
X41503241Y31785137D01*
X41303363Y31585259D01*
X41146320Y31350227D01*
X41038147Y31089074D01*
X40983000Y30811835D01*
X40983000Y30529165D01*
X41038147Y30251926D01*
X41146320Y29990773D01*
X41303363Y29755741D01*
X41503241Y29555863D01*
X41738273Y29398820D01*
X41999426Y29290647D01*
X42276665Y29235500D01*
X42559335Y29235500D01*
X42836574Y29290647D01*
X43097727Y29398820D01*
X43332759Y29555863D01*
X43532637Y29755741D01*
X43689680Y29990773D01*
X43797853Y30251926D01*
X43853000Y30529165D01*
X43853000Y30799500D01*
X46914957Y30799500D01*
X47018363Y30644741D01*
X47218241Y30444863D01*
X47453273Y30287820D01*
X47714426Y30179647D01*
X47991665Y30124500D01*
X48274335Y30124500D01*
X48551574Y30179647D01*
X48812727Y30287820D01*
X49047759Y30444863D01*
X49247637Y30644741D01*
X49403000Y30877259D01*
X49558363Y30644741D01*
X49758241Y30444863D01*
X49993273Y30287820D01*
X50254426Y30179647D01*
X50531665Y30124500D01*
X50814335Y30124500D01*
X51091574Y30179647D01*
X51352727Y30287820D01*
X51587759Y30444863D01*
X51787637Y30644741D01*
X51943000Y30877259D01*
X52098363Y30644741D01*
X52298241Y30444863D01*
X52533273Y30287820D01*
X52794426Y30179647D01*
X53071665Y30124500D01*
X53354335Y30124500D01*
X53631574Y30179647D01*
X53892727Y30287820D01*
X54127759Y30444863D01*
X54327637Y30644741D01*
X54483000Y30877259D01*
X54638363Y30644741D01*
X54838241Y30444863D01*
X55073273Y30287820D01*
X55334426Y30179647D01*
X55611665Y30124500D01*
X55894335Y30124500D01*
X56171574Y30179647D01*
X56432727Y30287820D01*
X56667759Y30444863D01*
X56867637Y30644741D01*
X57023000Y30877259D01*
X57178363Y30644741D01*
X57378241Y30444863D01*
X57613273Y30287820D01*
X57874426Y30179647D01*
X58151665Y30124500D01*
X58434335Y30124500D01*
X58711574Y30179647D01*
X58972727Y30287820D01*
X59207759Y30444863D01*
X59407637Y30644741D01*
X59563000Y30877259D01*
X59718363Y30644741D01*
X59918241Y30444863D01*
X60153273Y30287820D01*
X60414426Y30179647D01*
X60691665Y30124500D01*
X60863198Y30124500D01*
X58906999Y28168300D01*
X58878001Y28144502D01*
X58854203Y28115504D01*
X58854202Y28115503D01*
X58783027Y28028777D01*
X58712455Y27896747D01*
X58668999Y27753486D01*
X58654325Y27604501D01*
X58658002Y27567169D01*
X58658001Y18741546D01*
X58502229Y18806068D01*
X58381149Y18830153D01*
X56692293Y20519008D01*
X56668490Y20548012D01*
X56552765Y20642985D01*
X56420736Y20713557D01*
X56277475Y20757014D01*
X56165822Y20768011D01*
X56165811Y20768011D01*
X56128489Y20771687D01*
X56091167Y20768011D01*
X29065500Y20768011D01*
X29065500Y20793089D01*
X29029568Y20973729D01*
X28959086Y21143889D01*
X28856762Y21297028D01*
X28726528Y21427262D01*
X28573389Y21529586D01*
X28403229Y21600068D01*
X28282149Y21624153D01*
X26055802Y23850500D01*
X33359928Y23850500D01*
X33359928Y22250500D01*
X33372188Y22126018D01*
X33408498Y22006320D01*
X33467463Y21896006D01*
X33546815Y21799315D01*
X33643506Y21719963D01*
X33753820Y21660998D01*
X33873518Y21624688D01*
X33998000Y21612428D01*
X35598000Y21612428D01*
X35722482Y21624688D01*
X35842180Y21660998D01*
X35952494Y21719963D01*
X36049185Y21799315D01*
X36128537Y21896006D01*
X36187502Y22006320D01*
X36223812Y22126018D01*
X36236072Y22250500D01*
X36236072Y23191835D01*
X40983000Y23191835D01*
X40983000Y22909165D01*
X41038147Y22631926D01*
X41146320Y22370773D01*
X41303363Y22135741D01*
X41503241Y21935863D01*
X41738273Y21778820D01*
X41999426Y21670647D01*
X42276665Y21615500D01*
X42559335Y21615500D01*
X42836574Y21670647D01*
X43097727Y21778820D01*
X43332759Y21935863D01*
X43532637Y22135741D01*
X43689680Y22370773D01*
X43797853Y22631926D01*
X43853000Y22909165D01*
X43853000Y23191835D01*
X43797853Y23469074D01*
X43689680Y23730227D01*
X43532637Y23965259D01*
X43332759Y24165137D01*
X43097727Y24322180D01*
X42836574Y24430353D01*
X42559335Y24485500D01*
X42276665Y24485500D01*
X41999426Y24430353D01*
X41738273Y24322180D01*
X41503241Y24165137D01*
X41303363Y23965259D01*
X41146320Y23730227D01*
X41038147Y23469074D01*
X40983000Y23191835D01*
X36236072Y23191835D01*
X36236072Y23850500D01*
X36223812Y23974982D01*
X36187502Y24094680D01*
X36128537Y24204994D01*
X36049185Y24301685D01*
X35952494Y24381037D01*
X35842180Y24440002D01*
X35722482Y24476312D01*
X35598000Y24488572D01*
X33998000Y24488572D01*
X33873518Y24476312D01*
X33753820Y24440002D01*
X33643506Y24381037D01*
X33546815Y24301685D01*
X33467463Y24204994D01*
X33408498Y24094680D01*
X33372188Y23974982D01*
X33359928Y23850500D01*
X26055802Y23850500D01*
X24572500Y25333801D01*
X24572500Y27009928D01*
X24612500Y27009928D01*
X24736982Y27022188D01*
X24856680Y27058498D01*
X24966994Y27117463D01*
X25063685Y27196815D01*
X25143037Y27293506D01*
X25202002Y27403820D01*
X25238312Y27523518D01*
X25250572Y27648000D01*
X25250572Y29248000D01*
X25238312Y29372482D01*
X25202002Y29492180D01*
X25143037Y29602494D01*
X25081237Y29677798D01*
X33984903Y29677798D01*
X34056486Y29433829D01*
X34311996Y29312929D01*
X34586184Y29244200D01*
X34868512Y29230283D01*
X35148130Y29271713D01*
X35414292Y29366897D01*
X35539514Y29433829D01*
X35611097Y29677798D01*
X34798000Y30490895D01*
X33984903Y29677798D01*
X25081237Y29677798D01*
X25063685Y29699185D01*
X24966994Y29778537D01*
X24856680Y29837502D01*
X24736982Y29873812D01*
X24612500Y29886072D01*
X23012500Y29886072D01*
X22888018Y29873812D01*
X22768320Y29837502D01*
X22658006Y29778537D01*
X22561315Y29699185D01*
X22481963Y29602494D01*
X22422998Y29492180D01*
X22386688Y29372482D01*
X22385857Y29364039D01*
X22187259Y29562637D01*
X21952227Y29719680D01*
X21691074Y29827853D01*
X21413835Y29883000D01*
X21131165Y29883000D01*
X20853926Y29827853D01*
X20592773Y29719680D01*
X20357741Y29562637D01*
X20157863Y29362759D01*
X20002500Y29130241D01*
X19847137Y29362759D01*
X19647259Y29562637D01*
X19412227Y29719680D01*
X19151074Y29827853D01*
X18873835Y29883000D01*
X18591165Y29883000D01*
X18313926Y29827853D01*
X18052773Y29719680D01*
X17817741Y29562637D01*
X17617863Y29362759D01*
X17462500Y29130241D01*
X17307137Y29362759D01*
X17107259Y29562637D01*
X16872227Y29719680D01*
X16611074Y29827853D01*
X16333835Y29883000D01*
X16051165Y29883000D01*
X15773926Y29827853D01*
X15512773Y29719680D01*
X15277741Y29562637D01*
X15077863Y29362759D01*
X14922500Y29130241D01*
X14767137Y29362759D01*
X14567259Y29562637D01*
X14332227Y29719680D01*
X14071074Y29827853D01*
X13793835Y29883000D01*
X13511165Y29883000D01*
X13233926Y29827853D01*
X12972773Y29719680D01*
X12737741Y29562637D01*
X12537863Y29362759D01*
X12382500Y29130241D01*
X12227137Y29362759D01*
X12027259Y29562637D01*
X11792227Y29719680D01*
X11531074Y29827853D01*
X11253835Y29883000D01*
X10971165Y29883000D01*
X10693926Y29827853D01*
X10432773Y29719680D01*
X10197741Y29562637D01*
X9997863Y29362759D01*
X9842500Y29130241D01*
X9687137Y29362759D01*
X9487259Y29562637D01*
X9252227Y29719680D01*
X8991074Y29827853D01*
X8713835Y29883000D01*
X8431165Y29883000D01*
X8153926Y29827853D01*
X7892773Y29719680D01*
X7657741Y29562637D01*
X7457863Y29362759D01*
X7300820Y29127727D01*
X7192647Y28866574D01*
X7137500Y28589335D01*
X685000Y28589335D01*
X685000Y30599988D01*
X33357783Y30599988D01*
X33399213Y30320370D01*
X33494397Y30054208D01*
X33561329Y29928986D01*
X33805298Y29857403D01*
X34618395Y30670500D01*
X34977605Y30670500D01*
X35790702Y29857403D01*
X36034671Y29928986D01*
X36155571Y30184496D01*
X36224300Y30458684D01*
X36238217Y30741012D01*
X36196787Y31020630D01*
X36101603Y31286792D01*
X36034671Y31412014D01*
X35790702Y31483597D01*
X34977605Y30670500D01*
X34618395Y30670500D01*
X33805298Y31483597D01*
X33561329Y31412014D01*
X33440429Y31156504D01*
X33371700Y30882316D01*
X33357783Y30599988D01*
X685000Y30599988D01*
X685000Y31663202D01*
X33984903Y31663202D01*
X34798000Y30850105D01*
X35611097Y31663202D01*
X35539514Y31907171D01*
X35284004Y32028071D01*
X35009816Y32096800D01*
X34727488Y32110717D01*
X34447870Y32069287D01*
X34181708Y31974103D01*
X34056486Y31907171D01*
X33984903Y31663202D01*
X685000Y31663202D01*
X685000Y33805298D01*
X33048903Y33805298D01*
X33120486Y33561329D01*
X33375996Y33440429D01*
X33650184Y33371700D01*
X33932512Y33357783D01*
X34212130Y33399213D01*
X34478292Y33494397D01*
X34603514Y33561329D01*
X34675097Y33805298D01*
X33862000Y34618395D01*
X33048903Y33805298D01*
X685000Y33805298D01*
X685000Y34727488D01*
X32421783Y34727488D01*
X32463213Y34447870D01*
X32558397Y34181708D01*
X32625329Y34056486D01*
X32869298Y33984903D01*
X33682395Y34798000D01*
X34041605Y34798000D01*
X34854702Y33984903D01*
X35098671Y34056486D01*
X35219571Y34311996D01*
X35288300Y34586184D01*
X35302217Y34868512D01*
X35291724Y34939335D01*
X37427000Y34939335D01*
X37427000Y34656665D01*
X37482147Y34379426D01*
X37590320Y34118273D01*
X37747363Y33883241D01*
X37947241Y33683363D01*
X38182273Y33526320D01*
X38443426Y33418147D01*
X38720665Y33363000D01*
X39003335Y33363000D01*
X39280574Y33418147D01*
X39541727Y33526320D01*
X39776759Y33683363D01*
X39976637Y33883241D01*
X40133680Y34118273D01*
X40241853Y34379426D01*
X40297000Y34656665D01*
X40297000Y34939335D01*
X40241853Y35216574D01*
X40133680Y35477727D01*
X39976637Y35712759D01*
X39776759Y35912637D01*
X39541727Y36069680D01*
X39280574Y36177853D01*
X39003335Y36233000D01*
X38720665Y36233000D01*
X38443426Y36177853D01*
X38182273Y36069680D01*
X37947241Y35912637D01*
X37747363Y35712759D01*
X37590320Y35477727D01*
X37482147Y35216574D01*
X37427000Y34939335D01*
X35291724Y34939335D01*
X35260787Y35148130D01*
X35165603Y35414292D01*
X35098671Y35539514D01*
X34854702Y35611097D01*
X34041605Y34798000D01*
X33682395Y34798000D01*
X32869298Y35611097D01*
X32625329Y35539514D01*
X32504429Y35284004D01*
X32435700Y35009816D01*
X32421783Y34727488D01*
X685000Y34727488D01*
X685000Y35790702D01*
X33048903Y35790702D01*
X33862000Y34977605D01*
X34675097Y35790702D01*
X34603514Y36034671D01*
X34348004Y36155571D01*
X34073816Y36224300D01*
X33791488Y36238217D01*
X33511870Y36196787D01*
X33245708Y36101603D01*
X33120486Y36034671D01*
X33048903Y35790702D01*
X685000Y35790702D01*
X685000Y38965298D01*
X32968903Y38965298D01*
X33040486Y38721329D01*
X33295996Y38600429D01*
X33570184Y38531700D01*
X33852512Y38517783D01*
X34132130Y38559213D01*
X34398292Y38654397D01*
X34523514Y38721329D01*
X34595097Y38965298D01*
X33782000Y39778395D01*
X32968903Y38965298D01*
X685000Y38965298D01*
X685000Y39887488D01*
X32341783Y39887488D01*
X32383213Y39607870D01*
X32478397Y39341708D01*
X32545329Y39216486D01*
X32789298Y39144903D01*
X33602395Y39958000D01*
X33961605Y39958000D01*
X34774702Y39144903D01*
X35018671Y39216486D01*
X35139571Y39471996D01*
X35204183Y39729761D01*
X35201428Y39268500D01*
X35213688Y39144018D01*
X35249998Y39024320D01*
X35308963Y38914006D01*
X35388315Y38817315D01*
X35485006Y38737963D01*
X35595320Y38678998D01*
X35715018Y38642688D01*
X35839500Y38630428D01*
X36353750Y38633500D01*
X36512500Y38792250D01*
X36512500Y39941500D01*
X36492500Y39941500D01*
X36492500Y40195500D01*
X36512500Y40195500D01*
X36512500Y41344750D01*
X36353750Y41503500D01*
X35839500Y41506572D01*
X35715018Y41494312D01*
X35595320Y41458002D01*
X35485006Y41399037D01*
X35388315Y41319685D01*
X35308963Y41222994D01*
X35249998Y41112680D01*
X35213688Y40992982D01*
X35201428Y40868500D01*
X35204500Y40354250D01*
X35363248Y40195502D01*
X35204500Y40195502D01*
X35204500Y40148087D01*
X35180787Y40308130D01*
X35085603Y40574292D01*
X35018671Y40699514D01*
X34774702Y40771097D01*
X33961605Y39958000D01*
X33602395Y39958000D01*
X32789298Y40771097D01*
X32545329Y40699514D01*
X32424429Y40444004D01*
X32355700Y40169816D01*
X32341783Y39887488D01*
X685000Y39887488D01*
X685000Y40950702D01*
X32968903Y40950702D01*
X33782000Y40137605D01*
X34595097Y40950702D01*
X34523514Y41194671D01*
X34268004Y41315571D01*
X33993816Y41384300D01*
X33711488Y41398217D01*
X33431870Y41356787D01*
X33165708Y41261603D01*
X33040486Y41194671D01*
X32968903Y40950702D01*
X685000Y40950702D01*
X685000Y45099335D01*
X32347000Y45099335D01*
X32347000Y44816665D01*
X32402147Y44539426D01*
X32510320Y44278273D01*
X32667363Y44043241D01*
X32867241Y43843363D01*
X33102273Y43686320D01*
X33363426Y43578147D01*
X33640665Y43523000D01*
X33923335Y43523000D01*
X34200574Y43578147D01*
X34461727Y43686320D01*
X34696759Y43843363D01*
X34896637Y44043241D01*
X35053680Y44278273D01*
X35161853Y44539426D01*
X35217000Y44816665D01*
X35217000Y45099335D01*
X35161853Y45376574D01*
X35053680Y45637727D01*
X34896637Y45872759D01*
X34696759Y46072637D01*
X34461727Y46229680D01*
X34200574Y46337853D01*
X33923335Y46393000D01*
X33640665Y46393000D01*
X33363426Y46337853D01*
X33102273Y46229680D01*
X32867241Y46072637D01*
X32667363Y45872759D01*
X32510320Y45637727D01*
X32402147Y45376574D01*
X32347000Y45099335D01*
X685000Y45099335D01*
X685000Y55687335D01*
X34887000Y55687335D01*
X34887000Y55404665D01*
X34942147Y55127426D01*
X35050320Y54866273D01*
X35207363Y54631241D01*
X35407241Y54431363D01*
X35642273Y54274320D01*
X35903426Y54166147D01*
X36180665Y54111000D01*
X36463335Y54111000D01*
X36740574Y54166147D01*
X37001727Y54274320D01*
X37236759Y54431363D01*
X37436637Y54631241D01*
X37593680Y54866273D01*
X37701853Y55127426D01*
X37757000Y55404665D01*
X37757000Y55687335D01*
X37701853Y55964574D01*
X37593680Y56225727D01*
X37436637Y56460759D01*
X37236759Y56660637D01*
X37001727Y56817680D01*
X36740574Y56925853D01*
X36463335Y56981000D01*
X36180665Y56981000D01*
X35903426Y56925853D01*
X35642273Y56817680D01*
X35407241Y56660637D01*
X35207363Y56460759D01*
X35050320Y56225727D01*
X34942147Y55964574D01*
X34887000Y55687335D01*
X685000Y55687335D01*
X685000Y57945647D01*
X675711Y58039956D01*
X691653Y58202542D01*
X776031Y58482018D01*
X913085Y58739780D01*
X1097599Y58966015D01*
X1322540Y59152103D01*
X1579342Y59290956D01*
X1858219Y59377282D01*
X2030268Y59395365D01*
X2125353Y59386000D01*
%TA.AperFunction,Conductor*%
D21*
G36*
X2125353Y59386000D02*
G01*
X78646647Y59386000D01*
X78740956Y59395289D01*
X78903542Y59379347D01*
X79183018Y59294969D01*
X79440780Y59157915D01*
X79667015Y58973401D01*
X79853103Y58748460D01*
X79991956Y58491658D01*
X80078282Y58212781D01*
X80096365Y58040731D01*
X80087000Y57945646D01*
X80087001Y685000D01*
X14218381Y685000D01*
X685000Y14218380D01*
X685000Y28589335D01*
X7137500Y28589335D01*
X7137500Y28306665D01*
X7192647Y28029426D01*
X7300820Y27768273D01*
X7457863Y27533241D01*
X7657741Y27333363D01*
X7892773Y27176320D01*
X8153926Y27068147D01*
X8431165Y27013000D01*
X8713835Y27013000D01*
X8991074Y27068147D01*
X9252227Y27176320D01*
X9487259Y27333363D01*
X9687137Y27533241D01*
X9842500Y27765759D01*
X9997863Y27533241D01*
X10197741Y27333363D01*
X10432773Y27176320D01*
X10693926Y27068147D01*
X10971165Y27013000D01*
X11253835Y27013000D01*
X11531074Y27068147D01*
X11792227Y27176320D01*
X12027259Y27333363D01*
X12227137Y27533241D01*
X12382500Y27765759D01*
X12537863Y27533241D01*
X12737741Y27333363D01*
X12972773Y27176320D01*
X13233926Y27068147D01*
X13511165Y27013000D01*
X13793835Y27013000D01*
X14071074Y27068147D01*
X14332227Y27176320D01*
X14567259Y27333363D01*
X14767137Y27533241D01*
X14922500Y27765759D01*
X15077863Y27533241D01*
X15277741Y27333363D01*
X15512773Y27176320D01*
X15773926Y27068147D01*
X16051165Y27013000D01*
X16333835Y27013000D01*
X16611074Y27068147D01*
X16872227Y27176320D01*
X17107259Y27333363D01*
X17307137Y27533241D01*
X17462500Y27765759D01*
X17617863Y27533241D01*
X17817741Y27333363D01*
X18052773Y27176320D01*
X18313926Y27068147D01*
X18591165Y27013000D01*
X18873835Y27013000D01*
X19056387Y27049312D01*
X22803198Y23302500D01*
X19151035Y23302500D01*
X19048389Y23371086D01*
X18878229Y23441568D01*
X18697589Y23477500D01*
X18513411Y23477500D01*
X18332771Y23441568D01*
X18162611Y23371086D01*
X18009472Y23268762D01*
X17879238Y23138528D01*
X17776914Y22985389D01*
X17706432Y22815229D01*
X17670500Y22634589D01*
X17670500Y22450411D01*
X17706432Y22269771D01*
X17776914Y22099611D01*
X17862028Y21972229D01*
X17817741Y21942637D01*
X17617863Y21742759D01*
X17462500Y21510241D01*
X17307137Y21742759D01*
X17107259Y21942637D01*
X16872227Y22099680D01*
X16611074Y22207853D01*
X16333835Y22263000D01*
X16051165Y22263000D01*
X15773926Y22207853D01*
X15512773Y22099680D01*
X15277741Y21942637D01*
X15077863Y21742759D01*
X14974457Y21588000D01*
X14870543Y21588000D01*
X14767137Y21742759D01*
X14567259Y21942637D01*
X14332227Y22099680D01*
X14071074Y22207853D01*
X13793835Y22263000D01*
X13511165Y22263000D01*
X13233926Y22207853D01*
X12972773Y22099680D01*
X12737741Y21942637D01*
X12537863Y21742759D01*
X12382500Y21510241D01*
X12227137Y21742759D01*
X12027259Y21942637D01*
X11792227Y22099680D01*
X11531074Y22207853D01*
X11253835Y22263000D01*
X10971165Y22263000D01*
X10693926Y22207853D01*
X10432773Y22099680D01*
X10197741Y21942637D01*
X9997863Y21742759D01*
X9842500Y21510241D01*
X9687137Y21742759D01*
X9487259Y21942637D01*
X9252227Y22099680D01*
X8991074Y22207853D01*
X8713835Y22263000D01*
X8431165Y22263000D01*
X8153926Y22207853D01*
X7892773Y22099680D01*
X7657741Y21942637D01*
X7457863Y21742759D01*
X7300820Y21507727D01*
X7192647Y21246574D01*
X7137500Y20969335D01*
X7137500Y20686665D01*
X7192647Y20409426D01*
X7300820Y20148273D01*
X7457863Y19913241D01*
X7657741Y19713363D01*
X7892773Y19556320D01*
X8153926Y19448147D01*
X8431165Y19393000D01*
X8713835Y19393000D01*
X8991074Y19448147D01*
X9252227Y19556320D01*
X9487259Y19713363D01*
X9687137Y19913241D01*
X9842500Y20145759D01*
X9997863Y19913241D01*
X10197741Y19713363D01*
X10432773Y19556320D01*
X10693926Y19448147D01*
X10971165Y19393000D01*
X11253835Y19393000D01*
X11436387Y19429312D01*
X22868137Y7997561D01*
X22785158Y8031932D01*
X22498260Y8089000D01*
X22205740Y8089000D01*
X21918842Y8031932D01*
X21648589Y7919990D01*
X21405368Y7757475D01*
X21198525Y7550632D01*
X21082000Y7376240D01*
X20965475Y7550632D01*
X20758632Y7757475D01*
X20515411Y7919990D01*
X20245158Y8031932D01*
X19958260Y8089000D01*
X19665740Y8089000D01*
X19378842Y8031932D01*
X19108589Y7919990D01*
X18865368Y7757475D01*
X18658525Y7550632D01*
X18542000Y7376240D01*
X18425475Y7550632D01*
X18218632Y7757475D01*
X17975411Y7919990D01*
X17705158Y8031932D01*
X17418260Y8089000D01*
X17125740Y8089000D01*
X16838842Y8031932D01*
X16568589Y7919990D01*
X16325368Y7757475D01*
X16118525Y7550632D01*
X15956010Y7307411D01*
X15844068Y7037158D01*
X15787000Y6750260D01*
X15787000Y6457740D01*
X15844068Y6170842D01*
X15956010Y5900589D01*
X16118525Y5657368D01*
X16325368Y5450525D01*
X16499760Y5334000D01*
X16325368Y5217475D01*
X16118525Y5010632D01*
X15956010Y4767411D01*
X15844068Y4497158D01*
X15787000Y4210260D01*
X15787000Y3917740D01*
X15844068Y3630842D01*
X15956010Y3360589D01*
X16118525Y3117368D01*
X16325368Y2910525D01*
X16568589Y2748010D01*
X16838842Y2636068D01*
X17125740Y2579000D01*
X17418260Y2579000D01*
X17705158Y2636068D01*
X17975411Y2748010D01*
X18218632Y2910525D01*
X18425475Y3117368D01*
X18542000Y3291760D01*
X18658525Y3117368D01*
X18865368Y2910525D01*
X19108589Y2748010D01*
X19378842Y2636068D01*
X19665740Y2579000D01*
X19958260Y2579000D01*
X20245158Y2636068D01*
X20515411Y2748010D01*
X20758632Y2910525D01*
X20965475Y3117368D01*
X21082000Y3291760D01*
X21198525Y3117368D01*
X21405368Y2910525D01*
X21648589Y2748010D01*
X21918842Y2636068D01*
X22205740Y2579000D01*
X22498260Y2579000D01*
X22785158Y2636068D01*
X23055411Y2748010D01*
X23298632Y2910525D01*
X23505475Y3117368D01*
X23622000Y3291760D01*
X23738525Y3117368D01*
X23945368Y2910525D01*
X24188589Y2748010D01*
X24458842Y2636068D01*
X24745740Y2579000D01*
X25038260Y2579000D01*
X25325158Y2636068D01*
X25595411Y2748010D01*
X25838632Y2910525D01*
X26045475Y3117368D01*
X26162000Y3291760D01*
X26278525Y3117368D01*
X26485368Y2910525D01*
X26728589Y2748010D01*
X26998842Y2636068D01*
X27285740Y2579000D01*
X27578260Y2579000D01*
X27865158Y2636068D01*
X28135411Y2748010D01*
X28378632Y2910525D01*
X28585475Y3117368D01*
X28702000Y3291760D01*
X28818525Y3117368D01*
X29025368Y2910525D01*
X29268589Y2748010D01*
X29538842Y2636068D01*
X29825740Y2579000D01*
X30118260Y2579000D01*
X30405158Y2636068D01*
X30675411Y2748010D01*
X30918632Y2910525D01*
X31125475Y3117368D01*
X31242000Y3291760D01*
X31358525Y3117368D01*
X31565368Y2910525D01*
X31808589Y2748010D01*
X32078842Y2636068D01*
X32365740Y2579000D01*
X32658260Y2579000D01*
X32945158Y2636068D01*
X33215411Y2748010D01*
X33458632Y2910525D01*
X33665475Y3117368D01*
X33782000Y3291760D01*
X33898525Y3117368D01*
X34105368Y2910525D01*
X34348589Y2748010D01*
X34618842Y2636068D01*
X34905740Y2579000D01*
X35198260Y2579000D01*
X35485158Y2636068D01*
X35755411Y2748010D01*
X35998632Y2910525D01*
X36205475Y3117368D01*
X36322000Y3291760D01*
X36438525Y3117368D01*
X36645368Y2910525D01*
X36888589Y2748010D01*
X37158842Y2636068D01*
X37445740Y2579000D01*
X37738260Y2579000D01*
X38025158Y2636068D01*
X38295411Y2748010D01*
X38538632Y2910525D01*
X38745475Y3117368D01*
X38862000Y3291760D01*
X38978525Y3117368D01*
X39185368Y2910525D01*
X39428589Y2748010D01*
X39698842Y2636068D01*
X39985740Y2579000D01*
X40278260Y2579000D01*
X40565158Y2636068D01*
X40835411Y2748010D01*
X41078632Y2910525D01*
X41285475Y3117368D01*
X41402000Y3291760D01*
X41518525Y3117368D01*
X41725368Y2910525D01*
X41968589Y2748010D01*
X42238842Y2636068D01*
X42525740Y2579000D01*
X42818260Y2579000D01*
X43105158Y2636068D01*
X43375411Y2748010D01*
X43618632Y2910525D01*
X43825475Y3117368D01*
X43942000Y3291760D01*
X44058525Y3117368D01*
X44265368Y2910525D01*
X44508589Y2748010D01*
X44778842Y2636068D01*
X45065740Y2579000D01*
X45358260Y2579000D01*
X45645158Y2636068D01*
X45915411Y2748010D01*
X46158632Y2910525D01*
X46365475Y3117368D01*
X46482000Y3291760D01*
X46598525Y3117368D01*
X46805368Y2910525D01*
X47048589Y2748010D01*
X47318842Y2636068D01*
X47605740Y2579000D01*
X47898260Y2579000D01*
X48185158Y2636068D01*
X48455411Y2748010D01*
X48698632Y2910525D01*
X48905475Y3117368D01*
X49027195Y3299534D01*
X49096822Y3182645D01*
X49291731Y2966412D01*
X49525080Y2792359D01*
X49787901Y2667175D01*
X49935110Y2622524D01*
X50165000Y2743845D01*
X50165000Y3937000D01*
X50145000Y3937000D01*
X50145000Y4191000D01*
X50165000Y4191000D01*
X50165000Y4211000D01*
X50419000Y4211000D01*
X50419000Y4191000D01*
X50439000Y4191000D01*
X50439000Y3937000D01*
X50419000Y3937000D01*
X50419000Y2743845D01*
X50648890Y2622524D01*
X50796099Y2667175D01*
X51058920Y2792359D01*
X51292269Y2966412D01*
X51487178Y3182645D01*
X51556805Y3299534D01*
X51678525Y3117368D01*
X51885368Y2910525D01*
X52128589Y2748010D01*
X52398842Y2636068D01*
X52685740Y2579000D01*
X52978260Y2579000D01*
X53265158Y2636068D01*
X53535411Y2748010D01*
X53778632Y2910525D01*
X53985475Y3117368D01*
X54102000Y3291760D01*
X54218525Y3117368D01*
X54425368Y2910525D01*
X54668589Y2748010D01*
X54938842Y2636068D01*
X55225740Y2579000D01*
X55518260Y2579000D01*
X55805158Y2636068D01*
X56075411Y2748010D01*
X56318632Y2910525D01*
X56525475Y3117368D01*
X56642000Y3291760D01*
X56758525Y3117368D01*
X56965368Y2910525D01*
X57208589Y2748010D01*
X57478842Y2636068D01*
X57765740Y2579000D01*
X58058260Y2579000D01*
X58345158Y2636068D01*
X58615411Y2748010D01*
X58858632Y2910525D01*
X59065475Y3117368D01*
X59182000Y3291760D01*
X59298525Y3117368D01*
X59505368Y2910525D01*
X59748589Y2748010D01*
X60018842Y2636068D01*
X60305740Y2579000D01*
X60598260Y2579000D01*
X60885158Y2636068D01*
X61155411Y2748010D01*
X61398632Y2910525D01*
X61605475Y3117368D01*
X61722000Y3291760D01*
X61838525Y3117368D01*
X62045368Y2910525D01*
X62288589Y2748010D01*
X62558842Y2636068D01*
X62845740Y2579000D01*
X63138260Y2579000D01*
X63425158Y2636068D01*
X63695411Y2748010D01*
X63938632Y2910525D01*
X64145475Y3117368D01*
X64262000Y3291760D01*
X64378525Y3117368D01*
X64585368Y2910525D01*
X64828589Y2748010D01*
X65098842Y2636068D01*
X65385740Y2579000D01*
X65678260Y2579000D01*
X65965158Y2636068D01*
X66235411Y2748010D01*
X66478632Y2910525D01*
X66685475Y3117368D01*
X66802000Y3291760D01*
X66918525Y3117368D01*
X67125368Y2910525D01*
X67368589Y2748010D01*
X67638842Y2636068D01*
X67925740Y2579000D01*
X68218260Y2579000D01*
X68505158Y2636068D01*
X68775411Y2748010D01*
X69018632Y2910525D01*
X69225475Y3117368D01*
X69342000Y3291760D01*
X69458525Y3117368D01*
X69665368Y2910525D01*
X69908589Y2748010D01*
X70178842Y2636068D01*
X70465740Y2579000D01*
X70758260Y2579000D01*
X71045158Y2636068D01*
X71315411Y2748010D01*
X71558632Y2910525D01*
X71765475Y3117368D01*
X71882000Y3291760D01*
X71998525Y3117368D01*
X72205368Y2910525D01*
X72448589Y2748010D01*
X72718842Y2636068D01*
X73005740Y2579000D01*
X73298260Y2579000D01*
X73585158Y2636068D01*
X73855411Y2748010D01*
X74098632Y2910525D01*
X74305475Y3117368D01*
X74422000Y3291760D01*
X74538525Y3117368D01*
X74745368Y2910525D01*
X74988589Y2748010D01*
X75258842Y2636068D01*
X75545740Y2579000D01*
X75838260Y2579000D01*
X76125158Y2636068D01*
X76395411Y2748010D01*
X76638632Y2910525D01*
X76845475Y3117368D01*
X76962000Y3291760D01*
X77078525Y3117368D01*
X77285368Y2910525D01*
X77528589Y2748010D01*
X77798842Y2636068D01*
X78085740Y2579000D01*
X78378260Y2579000D01*
X78665158Y2636068D01*
X78935411Y2748010D01*
X79178632Y2910525D01*
X79385475Y3117368D01*
X79547990Y3360589D01*
X79659932Y3630842D01*
X79717000Y3917740D01*
X79717000Y4210260D01*
X79659932Y4497158D01*
X79547990Y4767411D01*
X79385475Y5010632D01*
X79253620Y5142487D01*
X79326180Y5164498D01*
X79436494Y5223463D01*
X79533185Y5302815D01*
X79612537Y5399506D01*
X79671502Y5509820D01*
X79707812Y5629518D01*
X79720072Y5754000D01*
X79720072Y7454000D01*
X79707812Y7578482D01*
X79671502Y7698180D01*
X79612537Y7808494D01*
X79533185Y7905185D01*
X79436494Y7984537D01*
X79326180Y8043502D01*
X79206482Y8079812D01*
X79082000Y8092072D01*
X77816999Y8092072D01*
X77816999Y13097673D01*
X77820676Y13135006D01*
X77806002Y13283992D01*
X77762545Y13427253D01*
X77691973Y13559282D01*
X77620798Y13646009D01*
X77597000Y13675007D01*
X77568002Y13698805D01*
X76354438Y14912369D01*
X76491574Y14939647D01*
X76752727Y15047820D01*
X76987759Y15204863D01*
X77187637Y15404741D01*
X77344680Y15639773D01*
X77452853Y15900926D01*
X77508000Y16178165D01*
X77508000Y16460835D01*
X77452853Y16738074D01*
X77344680Y16999227D01*
X77187637Y17234259D01*
X76987759Y17434137D01*
X76752727Y17591180D01*
X76491574Y17699353D01*
X76214335Y17754500D01*
X75931665Y17754500D01*
X75654426Y17699353D01*
X75393273Y17591180D01*
X75158241Y17434137D01*
X74958363Y17234259D01*
X74803000Y17001741D01*
X74647637Y17234259D01*
X74447759Y17434137D01*
X74212727Y17591180D01*
X73951574Y17699353D01*
X73674335Y17754500D01*
X73391665Y17754500D01*
X73167999Y17710009D01*
X73167999Y27579698D01*
X75749114Y30160812D01*
X75931665Y30124500D01*
X76214335Y30124500D01*
X76491574Y30179647D01*
X76752727Y30287820D01*
X76987759Y30444863D01*
X77187637Y30644741D01*
X77344680Y30879773D01*
X77452853Y31140926D01*
X77508000Y31418165D01*
X77508000Y31700835D01*
X77452853Y31978074D01*
X77344680Y32239227D01*
X77187637Y32474259D01*
X76987759Y32674137D01*
X76752727Y32831180D01*
X76491574Y32939353D01*
X76214335Y32994500D01*
X75931665Y32994500D01*
X75654426Y32939353D01*
X75393273Y32831180D01*
X75158241Y32674137D01*
X74958363Y32474259D01*
X74803000Y32241741D01*
X74647637Y32474259D01*
X74447759Y32674137D01*
X74212727Y32831180D01*
X73951574Y32939353D01*
X73674335Y32994500D01*
X73391665Y32994500D01*
X73114426Y32939353D01*
X72853273Y32831180D01*
X72618241Y32674137D01*
X72418363Y32474259D01*
X72263000Y32241741D01*
X72107637Y32474259D01*
X71907759Y32674137D01*
X71672727Y32831180D01*
X71411574Y32939353D01*
X71134335Y32994500D01*
X70851665Y32994500D01*
X70574426Y32939353D01*
X70313273Y32831180D01*
X70078241Y32674137D01*
X69878363Y32474259D01*
X69723000Y32241741D01*
X69567637Y32474259D01*
X69367759Y32674137D01*
X69132727Y32831180D01*
X68871574Y32939353D01*
X68594335Y32994500D01*
X68311665Y32994500D01*
X68034426Y32939353D01*
X67773273Y32831180D01*
X67538241Y32674137D01*
X67338363Y32474259D01*
X67183000Y32241741D01*
X67027637Y32474259D01*
X66827759Y32674137D01*
X66592727Y32831180D01*
X66331574Y32939353D01*
X66054335Y32994500D01*
X65771665Y32994500D01*
X65494426Y32939353D01*
X65233273Y32831180D01*
X64998241Y32674137D01*
X64798363Y32474259D01*
X64643000Y32241741D01*
X64487637Y32474259D01*
X64287759Y32674137D01*
X64052727Y32831180D01*
X63791574Y32939353D01*
X63514335Y32994500D01*
X63231665Y32994500D01*
X62954426Y32939353D01*
X62693273Y32831180D01*
X62458241Y32674137D01*
X62258363Y32474259D01*
X62103000Y32241741D01*
X61947637Y32474259D01*
X61747759Y32674137D01*
X61512727Y32831180D01*
X61251574Y32939353D01*
X60974335Y32994500D01*
X60691665Y32994500D01*
X60414426Y32939353D01*
X60153273Y32831180D01*
X59918241Y32674137D01*
X59718363Y32474259D01*
X59563000Y32241741D01*
X59407637Y32474259D01*
X59207759Y32674137D01*
X58972727Y32831180D01*
X58711574Y32939353D01*
X58434335Y32994500D01*
X58151665Y32994500D01*
X57874426Y32939353D01*
X57613273Y32831180D01*
X57378241Y32674137D01*
X57178363Y32474259D01*
X57023000Y32241741D01*
X56867637Y32474259D01*
X56667759Y32674137D01*
X56432727Y32831180D01*
X56171574Y32939353D01*
X55894335Y32994500D01*
X55611665Y32994500D01*
X55429114Y32958188D01*
X54094304Y34292997D01*
X54070501Y34322001D01*
X53954776Y34416974D01*
X53822747Y34487546D01*
X53679486Y34531003D01*
X53567833Y34542000D01*
X53567822Y34542000D01*
X53530500Y34545676D01*
X53493178Y34542000D01*
X50860802Y34542000D01*
X45658188Y39744613D01*
X45694500Y39927165D01*
X45694500Y40072697D01*
X47334700Y38432496D01*
X47358498Y38403498D01*
X47474223Y38308525D01*
X47606252Y38237953D01*
X47749513Y38194496D01*
X47861166Y38183499D01*
X47861175Y38183499D01*
X47898498Y38179823D01*
X47935821Y38183499D01*
X52876177Y38183499D01*
X52913499Y38179823D01*
X52950821Y38183499D01*
X52950832Y38183499D01*
X53062485Y38194496D01*
X53205746Y38237953D01*
X53337775Y38308525D01*
X53453500Y38403498D01*
X53477303Y38432501D01*
X53714613Y38669812D01*
X53897165Y38633500D01*
X54179835Y38633500D01*
X54457074Y38688647D01*
X54718227Y38796820D01*
X54953259Y38953863D01*
X55153137Y39153741D01*
X55308500Y39386259D01*
X55463863Y39153741D01*
X55663741Y38953863D01*
X55898773Y38796820D01*
X56159926Y38688647D01*
X56437165Y38633500D01*
X56719835Y38633500D01*
X56997074Y38688647D01*
X57258227Y38796820D01*
X57493259Y38953863D01*
X57693137Y39153741D01*
X57850180Y39388773D01*
X57958353Y39649926D01*
X58013500Y39927165D01*
X58013500Y40209835D01*
X57958353Y40487074D01*
X57850180Y40748227D01*
X57693137Y40983259D01*
X57493259Y41183137D01*
X57258227Y41340180D01*
X56997074Y41448353D01*
X56719835Y41503500D01*
X56437165Y41503500D01*
X56159926Y41448353D01*
X55898773Y41340180D01*
X55663741Y41183137D01*
X55463863Y40983259D01*
X55308500Y40750741D01*
X55153137Y40983259D01*
X54953259Y41183137D01*
X54718227Y41340180D01*
X54475749Y41440618D01*
X57112132Y44077000D01*
X66865348Y44077000D01*
X66695008Y44006443D01*
X66492733Y43871287D01*
X66320713Y43699267D01*
X66185557Y43496992D01*
X66092460Y43272236D01*
X66045000Y43033637D01*
X66045000Y42790363D01*
X66092460Y42551764D01*
X66185557Y42327008D01*
X66320713Y42124733D01*
X66441161Y42004285D01*
X66266646Y41951347D01*
X66034725Y41827382D01*
X65831445Y41660555D01*
X65664618Y41457275D01*
X65540653Y41225354D01*
X65464317Y40973706D01*
X65438541Y40712000D01*
X65464317Y40450294D01*
X65540653Y40198646D01*
X65664618Y39966725D01*
X65831445Y39763445D01*
X66034725Y39596618D01*
X66266646Y39472653D01*
X66518294Y39396317D01*
X66714421Y39377000D01*
X67445579Y39377000D01*
X67641706Y39396317D01*
X67893354Y39472653D01*
X68125275Y39596618D01*
X68265868Y39712000D01*
X73938541Y39712000D01*
X73964317Y39450294D01*
X74040653Y39198646D01*
X74164618Y38966725D01*
X74331445Y38763445D01*
X74534725Y38596618D01*
X74766646Y38472653D01*
X75018294Y38396317D01*
X75214421Y38377000D01*
X75945579Y38377000D01*
X76141706Y38396317D01*
X76393354Y38472653D01*
X76625275Y38596618D01*
X76828555Y38763445D01*
X76995382Y38966725D01*
X77119347Y39198646D01*
X77195683Y39450294D01*
X77221459Y39712000D01*
X77195683Y39973706D01*
X77119347Y40225354D01*
X76995382Y40457275D01*
X76828555Y40660555D01*
X76625275Y40827382D01*
X76393354Y40951347D01*
X76141706Y41027683D01*
X75945579Y41047000D01*
X75214421Y41047000D01*
X75018294Y41027683D01*
X74766646Y40951347D01*
X74534725Y40827382D01*
X74331445Y40660555D01*
X74164618Y40457275D01*
X74040653Y40225354D01*
X73964317Y39973706D01*
X73938541Y39712000D01*
X68265868Y39712000D01*
X68328555Y39763445D01*
X68495382Y39966725D01*
X68619347Y40198646D01*
X68695683Y40450294D01*
X68721459Y40712000D01*
X68695683Y40973706D01*
X68619347Y41225354D01*
X68495382Y41457275D01*
X68328555Y41660555D01*
X68125275Y41827382D01*
X67988839Y41900309D01*
X68067267Y41952713D01*
X68239287Y42124733D01*
X68374443Y42327008D01*
X68467540Y42551764D01*
X68515000Y42790363D01*
X68515000Y43033637D01*
X68467540Y43272236D01*
X68374443Y43496992D01*
X68239287Y43699267D01*
X68067267Y43871287D01*
X68063314Y43873928D01*
X69580000Y43873928D01*
X69704482Y43886188D01*
X69824180Y43922498D01*
X69934494Y43981463D01*
X70031185Y44060815D01*
X70044468Y44077000D01*
X71571428Y44077000D01*
X71766646Y43972653D01*
X72018294Y43896317D01*
X72214421Y43877000D01*
X72945579Y43877000D01*
X73141706Y43896317D01*
X73393354Y43972653D01*
X73625275Y44096618D01*
X73828555Y44263445D01*
X73995382Y44466725D01*
X74080000Y44625033D01*
X74164618Y44466725D01*
X74331445Y44263445D01*
X74496271Y44128176D01*
X74401637Y44147000D01*
X74158363Y44147000D01*
X73919764Y44099540D01*
X73695008Y44006443D01*
X73492733Y43871287D01*
X73320713Y43699267D01*
X73185557Y43496992D01*
X73092460Y43272236D01*
X73045000Y43033637D01*
X73045000Y42790363D01*
X73092460Y42551764D01*
X73185557Y42327008D01*
X73320713Y42124733D01*
X73492733Y41952713D01*
X73695008Y41817557D01*
X73919764Y41724460D01*
X74158363Y41677000D01*
X74401637Y41677000D01*
X74640236Y41724460D01*
X74864992Y41817557D01*
X75067267Y41952713D01*
X75239287Y42124733D01*
X75374443Y42327008D01*
X75467540Y42551764D01*
X75515000Y42790363D01*
X75515000Y43033637D01*
X75467540Y43272236D01*
X75374443Y43496992D01*
X75239287Y43699267D01*
X75067267Y43871287D01*
X75031797Y43894987D01*
X75214421Y43877000D01*
X75945579Y43877000D01*
X76141706Y43896317D01*
X76393354Y43972653D01*
X76625275Y44096618D01*
X76828555Y44263445D01*
X76995382Y44466725D01*
X77119347Y44698646D01*
X77195683Y44950294D01*
X77221459Y45212000D01*
X77195683Y45473706D01*
X77119347Y45725354D01*
X76995382Y45957275D01*
X76828555Y46160555D01*
X76625275Y46327382D01*
X76393354Y46451347D01*
X76141706Y46527683D01*
X75945579Y46547000D01*
X75214421Y46547000D01*
X75018294Y46527683D01*
X74766646Y46451347D01*
X74534725Y46327382D01*
X74331445Y46160555D01*
X74164618Y45957275D01*
X74080000Y45798967D01*
X73995382Y45957275D01*
X73828555Y46160555D01*
X73625275Y46327382D01*
X73393354Y46451347D01*
X73141706Y46527683D01*
X72945579Y46547000D01*
X72214421Y46547000D01*
X72018294Y46527683D01*
X71766646Y46451347D01*
X71571428Y46347000D01*
X70044468Y46347000D01*
X70031185Y46363185D01*
X69934494Y46442537D01*
X69824180Y46501502D01*
X69704482Y46537812D01*
X69580000Y46550072D01*
X67580000Y46550072D01*
X67455518Y46537812D01*
X67335820Y46501502D01*
X67225506Y46442537D01*
X67128815Y46363185D01*
X67115532Y46347000D01*
X57089666Y46347000D01*
X57258227Y46416820D01*
X57493259Y46573863D01*
X57693137Y46773741D01*
X57850180Y47008773D01*
X57958353Y47269926D01*
X58013500Y47547165D01*
X58013500Y47829835D01*
X57958353Y48107074D01*
X57850180Y48368227D01*
X57693137Y48603259D01*
X57493259Y48803137D01*
X57258227Y48960180D01*
X56997074Y49068353D01*
X56719835Y49123500D01*
X56437165Y49123500D01*
X56254613Y49087188D01*
X56017303Y49324499D01*
X55993500Y49353502D01*
X55877775Y49448475D01*
X55745746Y49519047D01*
X55602485Y49562504D01*
X55490832Y49573501D01*
X55490821Y49573501D01*
X55453499Y49577177D01*
X55416177Y49573501D01*
X55158897Y49573501D01*
X55216637Y49631241D01*
X55373680Y49866273D01*
X55481853Y50127426D01*
X55537000Y50404665D01*
X55537000Y50687335D01*
X55481853Y50964574D01*
X55373680Y51225727D01*
X55216637Y51460759D01*
X55016759Y51660637D01*
X54781727Y51817680D01*
X54520574Y51925853D01*
X54243335Y51981000D01*
X53960665Y51981000D01*
X53683426Y51925853D01*
X53422273Y51817680D01*
X53187241Y51660637D01*
X52987363Y51460759D01*
X52830320Y51225727D01*
X52722147Y50964574D01*
X52667000Y50687335D01*
X52667000Y50404665D01*
X52722147Y50127426D01*
X52830320Y49866273D01*
X52987363Y49631241D01*
X53045103Y49573501D01*
X50939322Y49573501D01*
X50901999Y49577177D01*
X50864676Y49573501D01*
X50864667Y49573501D01*
X50753014Y49562504D01*
X50609753Y49519047D01*
X50477724Y49448475D01*
X50361999Y49353502D01*
X50338200Y49324503D01*
X49832210Y48818512D01*
X49695920Y48919537D01*
X49441587Y49039746D01*
X49307539Y49080404D01*
X49085502Y48958416D01*
X49085502Y49110072D01*
X49172512Y49105783D01*
X49452130Y49147213D01*
X49718292Y49242397D01*
X49843514Y49309329D01*
X49915097Y49553298D01*
X49102000Y50366395D01*
X48288903Y49553298D01*
X48360486Y49309329D01*
X48615996Y49188429D01*
X48875024Y49123500D01*
X48831498Y49123500D01*
X48831498Y48958416D01*
X48609461Y49080404D01*
X48475413Y49039746D01*
X48221080Y48919537D01*
X47995086Y48752019D01*
X47806115Y48543631D01*
X47661430Y48302381D01*
X47566591Y48037540D01*
X47687876Y47815500D01*
X48831500Y47815500D01*
X48831500Y47835500D01*
X49085500Y47835500D01*
X49085500Y47815500D01*
X49105500Y47815500D01*
X49105500Y47561500D01*
X49085500Y47561500D01*
X49085500Y47541500D01*
X48831500Y47541500D01*
X48831500Y47561500D01*
X47687876Y47561500D01*
X47566591Y47339460D01*
X47572307Y47323499D01*
X45650009Y47323499D01*
X45694500Y47547165D01*
X45694500Y47829835D01*
X45639353Y48107074D01*
X45531180Y48368227D01*
X45374137Y48603259D01*
X45174259Y48803137D01*
X44939227Y48960180D01*
X44678074Y49068353D01*
X44400835Y49123500D01*
X44320176Y49123500D01*
X44534574Y49166147D01*
X44795727Y49274320D01*
X45030759Y49431363D01*
X45230637Y49631241D01*
X45387680Y49866273D01*
X45495853Y50127426D01*
X45551000Y50404665D01*
X45551000Y50475488D01*
X47661783Y50475488D01*
X47703213Y50195870D01*
X47798397Y49929708D01*
X47865329Y49804486D01*
X48109298Y49732903D01*
X48922395Y50546000D01*
X49281605Y50546000D01*
X50094702Y49732903D01*
X50338671Y49804486D01*
X50459571Y50059996D01*
X50528300Y50334184D01*
X50542217Y50616512D01*
X50500787Y50896130D01*
X50405603Y51162292D01*
X50338671Y51287514D01*
X50094702Y51359097D01*
X49281605Y50546000D01*
X48922395Y50546000D01*
X48109298Y51359097D01*
X47865329Y51287514D01*
X47744429Y51032004D01*
X47675700Y50757816D01*
X47661783Y50475488D01*
X45551000Y50475488D01*
X45551000Y50687335D01*
X45495853Y50964574D01*
X45387680Y51225727D01*
X45230637Y51460759D01*
X45152694Y51538702D01*
X48288903Y51538702D01*
X49102000Y50725605D01*
X49915097Y51538702D01*
X49843514Y51782671D01*
X49588004Y51903571D01*
X49313816Y51972300D01*
X49031488Y51986217D01*
X48751870Y51944787D01*
X48485708Y51849603D01*
X48360486Y51782671D01*
X48288903Y51538702D01*
X45152694Y51538702D01*
X45030759Y51660637D01*
X44795727Y51817680D01*
X44534574Y51925853D01*
X44257335Y51981000D01*
X43974665Y51981000D01*
X43697426Y51925853D01*
X43436273Y51817680D01*
X43201241Y51660637D01*
X43001363Y51460759D01*
X42844320Y51225727D01*
X42736147Y50964574D01*
X42681000Y50687335D01*
X42681000Y50404665D01*
X42736147Y50127426D01*
X42844320Y49866273D01*
X43001363Y49631241D01*
X43201241Y49431363D01*
X43436273Y49274320D01*
X43697426Y49166147D01*
X43974665Y49111000D01*
X44055324Y49111000D01*
X43840926Y49068353D01*
X43579773Y48960180D01*
X43344741Y48803137D01*
X43144863Y48603259D01*
X42989500Y48370741D01*
X42834137Y48603259D01*
X42634259Y48803137D01*
X42399227Y48960180D01*
X42138074Y49068353D01*
X41860835Y49123500D01*
X41578165Y49123500D01*
X41300926Y49068353D01*
X41039773Y48960180D01*
X40804741Y48803137D01*
X40604863Y48603259D01*
X40449500Y48370741D01*
X40314500Y48572784D01*
X40314500Y49756751D01*
X40387680Y49866273D01*
X40495853Y50127426D01*
X40551000Y50404665D01*
X40551000Y50687335D01*
X40495853Y50964574D01*
X40387680Y51225727D01*
X40230637Y51460759D01*
X40030759Y51660637D01*
X39795727Y51817680D01*
X39534574Y51925853D01*
X39257335Y51981000D01*
X38974665Y51981000D01*
X38697426Y51925853D01*
X38436273Y51817680D01*
X38201241Y51660637D01*
X38001363Y51460759D01*
X37844320Y51225727D01*
X37736147Y50964574D01*
X37719000Y50878371D01*
X37701853Y50964574D01*
X37593680Y51225727D01*
X37436637Y51460759D01*
X37236759Y51660637D01*
X37001727Y51817680D01*
X36740574Y51925853D01*
X36463335Y51981000D01*
X36180665Y51981000D01*
X35903426Y51925853D01*
X35642273Y51817680D01*
X35407241Y51660637D01*
X35207363Y51460759D01*
X35050320Y51225727D01*
X34942147Y50964574D01*
X34887000Y50687335D01*
X34887000Y50404665D01*
X34942147Y50127426D01*
X35050320Y49866273D01*
X35207363Y49631241D01*
X35407241Y49431363D01*
X35504501Y49366376D01*
X35504500Y48572784D01*
X35367820Y48368227D01*
X35259647Y48107074D01*
X35204500Y47829835D01*
X35204500Y47547165D01*
X35259647Y47269926D01*
X35367820Y47008773D01*
X35524863Y46773741D01*
X35724741Y46573863D01*
X35959773Y46416820D01*
X36220926Y46308647D01*
X36498165Y46253500D01*
X36780835Y46253500D01*
X36963386Y46289812D01*
X37282200Y45970998D01*
X37305999Y45941999D01*
X37421724Y45847026D01*
X37553753Y45776454D01*
X37697014Y45732997D01*
X37808667Y45722000D01*
X37808675Y45722000D01*
X37846000Y45718324D01*
X37883325Y45722000D01*
X39563199Y45722000D01*
X39568201Y45716998D01*
X39682711Y45602487D01*
X39706511Y45573487D01*
X39822236Y45478514D01*
X39954265Y45407942D01*
X40097526Y45364485D01*
X40209179Y45353488D01*
X40209189Y45353488D01*
X40246511Y45349812D01*
X40283834Y45353488D01*
X49886166Y45353488D01*
X49923488Y45349812D01*
X49960810Y45353488D01*
X49960821Y45353488D01*
X50072474Y45364485D01*
X50215735Y45407942D01*
X50347764Y45478514D01*
X50463489Y45573487D01*
X50487292Y45602491D01*
X51174614Y46289812D01*
X51357165Y46253500D01*
X51639835Y46253500D01*
X51917074Y46308647D01*
X52178227Y46416820D01*
X52413259Y46573863D01*
X52613137Y46773741D01*
X52716543Y46928500D01*
X52820457Y46928500D01*
X52923863Y46773741D01*
X53123741Y46573863D01*
X53358773Y46416820D01*
X53619926Y46308647D01*
X53897165Y46253500D01*
X54179835Y46253500D01*
X54457074Y46308647D01*
X54718227Y46416820D01*
X54953259Y46573863D01*
X55153137Y46773741D01*
X55308500Y47006259D01*
X55463863Y46773741D01*
X55663741Y46573863D01*
X55898773Y46416820D01*
X56159926Y46308647D01*
X56273038Y46286147D01*
X56205553Y46265676D01*
X56008377Y46160284D01*
X55835551Y46018449D01*
X55800009Y45975141D01*
X51321219Y41496350D01*
X51079926Y41448353D01*
X50818773Y41340180D01*
X50614216Y41203500D01*
X50299457Y41203500D01*
X50289037Y41222994D01*
X50209685Y41319685D01*
X50112994Y41399037D01*
X50002680Y41458002D01*
X49882982Y41494312D01*
X49758500Y41506572D01*
X48158500Y41506572D01*
X48034018Y41494312D01*
X47914320Y41458002D01*
X47804006Y41399037D01*
X47707315Y41319685D01*
X47627963Y41222994D01*
X47568998Y41112680D01*
X47532688Y40992982D01*
X47520428Y40868500D01*
X47520428Y40396372D01*
X46212301Y41704498D01*
X46188498Y41733502D01*
X46072773Y41828475D01*
X45940744Y41899047D01*
X45797483Y41942504D01*
X45685830Y41953501D01*
X45685819Y41953501D01*
X45648497Y41957177D01*
X45611175Y41953501D01*
X40341826Y41953501D01*
X40304501Y41957177D01*
X40267176Y41953501D01*
X40267168Y41953501D01*
X40155515Y41942504D01*
X40012254Y41899047D01*
X39880225Y41828475D01*
X39764500Y41733502D01*
X39740702Y41704504D01*
X39503386Y41467188D01*
X39320835Y41503500D01*
X39038165Y41503500D01*
X38760926Y41448353D01*
X38560001Y41365127D01*
X38560001Y43124848D01*
X38696028Y43215738D01*
X38826262Y43345972D01*
X38928586Y43499111D01*
X38999068Y43669271D01*
X39035000Y43849911D01*
X39035000Y44034089D01*
X38999068Y44214729D01*
X38928586Y44384889D01*
X38826262Y44538028D01*
X38696028Y44668262D01*
X38542889Y44770586D01*
X38372729Y44841068D01*
X38192089Y44877000D01*
X38007911Y44877000D01*
X37827271Y44841068D01*
X37657111Y44770586D01*
X37503972Y44668262D01*
X37373738Y44538028D01*
X37271414Y44384889D01*
X37200932Y44214729D01*
X37173442Y44076531D01*
X37165027Y44066277D01*
X37152714Y44043241D01*
X37094455Y43934247D01*
X37050998Y43790986D01*
X37040001Y43679333D01*
X37040001Y43679323D01*
X37036325Y43642001D01*
X37040001Y43604678D01*
X37040002Y41504185D01*
X36925250Y41503500D01*
X36766500Y41344750D01*
X36766500Y40195500D01*
X36786500Y40195500D01*
X36786500Y39941500D01*
X36766500Y39941500D01*
X36766500Y38792250D01*
X36925250Y38633500D01*
X37439500Y38630428D01*
X37563982Y38642688D01*
X37683680Y38678998D01*
X37778510Y38729687D01*
X44188696Y32319500D01*
X43344323Y32319500D01*
X43307000Y32323176D01*
X43269677Y32319500D01*
X43269667Y32319500D01*
X43158014Y32308503D01*
X43014753Y32265046D01*
X42882724Y32194474D01*
X42766999Y32099501D01*
X42743201Y32070503D01*
X42741886Y32069188D01*
X42559335Y32105500D01*
X42276665Y32105500D01*
X41999426Y32050353D01*
X41738273Y31942180D01*
X41503241Y31785137D01*
X41303363Y31585259D01*
X41146320Y31350227D01*
X41038147Y31089074D01*
X40983000Y30811835D01*
X40983000Y30529165D01*
X41038147Y30251926D01*
X41146320Y29990773D01*
X41303363Y29755741D01*
X41503241Y29555863D01*
X41738273Y29398820D01*
X41999426Y29290647D01*
X42276665Y29235500D01*
X42559335Y29235500D01*
X42836574Y29290647D01*
X43097727Y29398820D01*
X43332759Y29555863D01*
X43532637Y29755741D01*
X43689680Y29990773D01*
X43797853Y30251926D01*
X43853000Y30529165D01*
X43853000Y30799500D01*
X46914957Y30799500D01*
X47018363Y30644741D01*
X47218241Y30444863D01*
X47453273Y30287820D01*
X47714426Y30179647D01*
X47991665Y30124500D01*
X48274335Y30124500D01*
X48551574Y30179647D01*
X48812727Y30287820D01*
X49047759Y30444863D01*
X49247637Y30644741D01*
X49403000Y30877259D01*
X49558363Y30644741D01*
X49758241Y30444863D01*
X49993273Y30287820D01*
X50254426Y30179647D01*
X50531665Y30124500D01*
X50814335Y30124500D01*
X51091574Y30179647D01*
X51352727Y30287820D01*
X51587759Y30444863D01*
X51787637Y30644741D01*
X51943000Y30877259D01*
X52098363Y30644741D01*
X52298241Y30444863D01*
X52533273Y30287820D01*
X52794426Y30179647D01*
X53071665Y30124500D01*
X53354335Y30124500D01*
X53631574Y30179647D01*
X53892727Y30287820D01*
X54127759Y30444863D01*
X54327637Y30644741D01*
X54483000Y30877259D01*
X54638363Y30644741D01*
X54838241Y30444863D01*
X55073273Y30287820D01*
X55334426Y30179647D01*
X55611665Y30124500D01*
X55894335Y30124500D01*
X56171574Y30179647D01*
X56432727Y30287820D01*
X56667759Y30444863D01*
X56867637Y30644741D01*
X57023000Y30877259D01*
X57178363Y30644741D01*
X57378241Y30444863D01*
X57613273Y30287820D01*
X57874426Y30179647D01*
X58151665Y30124500D01*
X58434335Y30124500D01*
X58711574Y30179647D01*
X58972727Y30287820D01*
X59207759Y30444863D01*
X59407637Y30644741D01*
X59563000Y30877259D01*
X59718363Y30644741D01*
X59918241Y30444863D01*
X60153273Y30287820D01*
X60414426Y30179647D01*
X60691665Y30124500D01*
X60863198Y30124500D01*
X58906999Y28168300D01*
X58878001Y28144502D01*
X58854203Y28115504D01*
X58854202Y28115503D01*
X58783027Y28028777D01*
X58712455Y27896747D01*
X58668999Y27753486D01*
X58654325Y27604501D01*
X58658002Y27567169D01*
X58658001Y18741546D01*
X58502229Y18806068D01*
X58381149Y18830153D01*
X56692293Y20519008D01*
X56668490Y20548012D01*
X56552765Y20642985D01*
X56420736Y20713557D01*
X56277475Y20757014D01*
X56165822Y20768011D01*
X56165811Y20768011D01*
X56128489Y20771687D01*
X56091167Y20768011D01*
X29065500Y20768011D01*
X29065500Y20793089D01*
X29029568Y20973729D01*
X28959086Y21143889D01*
X28856762Y21297028D01*
X28726528Y21427262D01*
X28573389Y21529586D01*
X28403229Y21600068D01*
X28282149Y21624153D01*
X26055802Y23850500D01*
X33359928Y23850500D01*
X33359928Y22250500D01*
X33372188Y22126018D01*
X33408498Y22006320D01*
X33467463Y21896006D01*
X33546815Y21799315D01*
X33643506Y21719963D01*
X33753820Y21660998D01*
X33873518Y21624688D01*
X33998000Y21612428D01*
X35598000Y21612428D01*
X35722482Y21624688D01*
X35842180Y21660998D01*
X35952494Y21719963D01*
X36049185Y21799315D01*
X36128537Y21896006D01*
X36187502Y22006320D01*
X36223812Y22126018D01*
X36236072Y22250500D01*
X36236072Y23191835D01*
X40983000Y23191835D01*
X40983000Y22909165D01*
X41038147Y22631926D01*
X41146320Y22370773D01*
X41303363Y22135741D01*
X41503241Y21935863D01*
X41738273Y21778820D01*
X41999426Y21670647D01*
X42276665Y21615500D01*
X42559335Y21615500D01*
X42836574Y21670647D01*
X43097727Y21778820D01*
X43332759Y21935863D01*
X43532637Y22135741D01*
X43689680Y22370773D01*
X43797853Y22631926D01*
X43853000Y22909165D01*
X43853000Y23191835D01*
X43797853Y23469074D01*
X43689680Y23730227D01*
X43532637Y23965259D01*
X43332759Y24165137D01*
X43097727Y24322180D01*
X42836574Y24430353D01*
X42559335Y24485500D01*
X42276665Y24485500D01*
X41999426Y24430353D01*
X41738273Y24322180D01*
X41503241Y24165137D01*
X41303363Y23965259D01*
X41146320Y23730227D01*
X41038147Y23469074D01*
X40983000Y23191835D01*
X36236072Y23191835D01*
X36236072Y23850500D01*
X36223812Y23974982D01*
X36187502Y24094680D01*
X36128537Y24204994D01*
X36049185Y24301685D01*
X35952494Y24381037D01*
X35842180Y24440002D01*
X35722482Y24476312D01*
X35598000Y24488572D01*
X33998000Y24488572D01*
X33873518Y24476312D01*
X33753820Y24440002D01*
X33643506Y24381037D01*
X33546815Y24301685D01*
X33467463Y24204994D01*
X33408498Y24094680D01*
X33372188Y23974982D01*
X33359928Y23850500D01*
X26055802Y23850500D01*
X24572500Y25333801D01*
X24572500Y27009928D01*
X24612500Y27009928D01*
X24736982Y27022188D01*
X24856680Y27058498D01*
X24966994Y27117463D01*
X25063685Y27196815D01*
X25143037Y27293506D01*
X25202002Y27403820D01*
X25238312Y27523518D01*
X25250572Y27648000D01*
X25250572Y29248000D01*
X25238312Y29372482D01*
X25202002Y29492180D01*
X25143037Y29602494D01*
X25081237Y29677798D01*
X33984903Y29677798D01*
X34056486Y29433829D01*
X34311996Y29312929D01*
X34586184Y29244200D01*
X34868512Y29230283D01*
X35148130Y29271713D01*
X35414292Y29366897D01*
X35539514Y29433829D01*
X35611097Y29677798D01*
X34798000Y30490895D01*
X33984903Y29677798D01*
X25081237Y29677798D01*
X25063685Y29699185D01*
X24966994Y29778537D01*
X24856680Y29837502D01*
X24736982Y29873812D01*
X24612500Y29886072D01*
X23012500Y29886072D01*
X22888018Y29873812D01*
X22768320Y29837502D01*
X22658006Y29778537D01*
X22561315Y29699185D01*
X22481963Y29602494D01*
X22422998Y29492180D01*
X22386688Y29372482D01*
X22385857Y29364039D01*
X22187259Y29562637D01*
X21952227Y29719680D01*
X21691074Y29827853D01*
X21413835Y29883000D01*
X21131165Y29883000D01*
X20853926Y29827853D01*
X20592773Y29719680D01*
X20357741Y29562637D01*
X20157863Y29362759D01*
X20002500Y29130241D01*
X19847137Y29362759D01*
X19647259Y29562637D01*
X19412227Y29719680D01*
X19151074Y29827853D01*
X18873835Y29883000D01*
X18591165Y29883000D01*
X18313926Y29827853D01*
X18052773Y29719680D01*
X17817741Y29562637D01*
X17617863Y29362759D01*
X17462500Y29130241D01*
X17307137Y29362759D01*
X17107259Y29562637D01*
X16872227Y29719680D01*
X16611074Y29827853D01*
X16333835Y29883000D01*
X16051165Y29883000D01*
X15773926Y29827853D01*
X15512773Y29719680D01*
X15277741Y29562637D01*
X15077863Y29362759D01*
X14922500Y29130241D01*
X14767137Y29362759D01*
X14567259Y29562637D01*
X14332227Y29719680D01*
X14071074Y29827853D01*
X13793835Y29883000D01*
X13511165Y29883000D01*
X13233926Y29827853D01*
X12972773Y29719680D01*
X12737741Y29562637D01*
X12537863Y29362759D01*
X12382500Y29130241D01*
X12227137Y29362759D01*
X12027259Y29562637D01*
X11792227Y29719680D01*
X11531074Y29827853D01*
X11253835Y29883000D01*
X10971165Y29883000D01*
X10693926Y29827853D01*
X10432773Y29719680D01*
X10197741Y29562637D01*
X9997863Y29362759D01*
X9842500Y29130241D01*
X9687137Y29362759D01*
X9487259Y29562637D01*
X9252227Y29719680D01*
X8991074Y29827853D01*
X8713835Y29883000D01*
X8431165Y29883000D01*
X8153926Y29827853D01*
X7892773Y29719680D01*
X7657741Y29562637D01*
X7457863Y29362759D01*
X7300820Y29127727D01*
X7192647Y28866574D01*
X7137500Y28589335D01*
X685000Y28589335D01*
X685000Y30599988D01*
X33357783Y30599988D01*
X33399213Y30320370D01*
X33494397Y30054208D01*
X33561329Y29928986D01*
X33805298Y29857403D01*
X34618395Y30670500D01*
X34977605Y30670500D01*
X35790702Y29857403D01*
X36034671Y29928986D01*
X36155571Y30184496D01*
X36224300Y30458684D01*
X36238217Y30741012D01*
X36196787Y31020630D01*
X36101603Y31286792D01*
X36034671Y31412014D01*
X35790702Y31483597D01*
X34977605Y30670500D01*
X34618395Y30670500D01*
X33805298Y31483597D01*
X33561329Y31412014D01*
X33440429Y31156504D01*
X33371700Y30882316D01*
X33357783Y30599988D01*
X685000Y30599988D01*
X685000Y31663202D01*
X33984903Y31663202D01*
X34798000Y30850105D01*
X35611097Y31663202D01*
X35539514Y31907171D01*
X35284004Y32028071D01*
X35009816Y32096800D01*
X34727488Y32110717D01*
X34447870Y32069287D01*
X34181708Y31974103D01*
X34056486Y31907171D01*
X33984903Y31663202D01*
X685000Y31663202D01*
X685000Y33805298D01*
X33048903Y33805298D01*
X33120486Y33561329D01*
X33375996Y33440429D01*
X33650184Y33371700D01*
X33932512Y33357783D01*
X34212130Y33399213D01*
X34478292Y33494397D01*
X34603514Y33561329D01*
X34675097Y33805298D01*
X33862000Y34618395D01*
X33048903Y33805298D01*
X685000Y33805298D01*
X685000Y34727488D01*
X32421783Y34727488D01*
X32463213Y34447870D01*
X32558397Y34181708D01*
X32625329Y34056486D01*
X32869298Y33984903D01*
X33682395Y34798000D01*
X34041605Y34798000D01*
X34854702Y33984903D01*
X35098671Y34056486D01*
X35219571Y34311996D01*
X35288300Y34586184D01*
X35302217Y34868512D01*
X35291724Y34939335D01*
X37427000Y34939335D01*
X37427000Y34656665D01*
X37482147Y34379426D01*
X37590320Y34118273D01*
X37747363Y33883241D01*
X37947241Y33683363D01*
X38182273Y33526320D01*
X38443426Y33418147D01*
X38720665Y33363000D01*
X39003335Y33363000D01*
X39280574Y33418147D01*
X39541727Y33526320D01*
X39776759Y33683363D01*
X39976637Y33883241D01*
X40133680Y34118273D01*
X40241853Y34379426D01*
X40297000Y34656665D01*
X40297000Y34939335D01*
X40241853Y35216574D01*
X40133680Y35477727D01*
X39976637Y35712759D01*
X39776759Y35912637D01*
X39541727Y36069680D01*
X39280574Y36177853D01*
X39003335Y36233000D01*
X38720665Y36233000D01*
X38443426Y36177853D01*
X38182273Y36069680D01*
X37947241Y35912637D01*
X37747363Y35712759D01*
X37590320Y35477727D01*
X37482147Y35216574D01*
X37427000Y34939335D01*
X35291724Y34939335D01*
X35260787Y35148130D01*
X35165603Y35414292D01*
X35098671Y35539514D01*
X34854702Y35611097D01*
X34041605Y34798000D01*
X33682395Y34798000D01*
X32869298Y35611097D01*
X32625329Y35539514D01*
X32504429Y35284004D01*
X32435700Y35009816D01*
X32421783Y34727488D01*
X685000Y34727488D01*
X685000Y35790702D01*
X33048903Y35790702D01*
X33862000Y34977605D01*
X34675097Y35790702D01*
X34603514Y36034671D01*
X34348004Y36155571D01*
X34073816Y36224300D01*
X33791488Y36238217D01*
X33511870Y36196787D01*
X33245708Y36101603D01*
X33120486Y36034671D01*
X33048903Y35790702D01*
X685000Y35790702D01*
X685000Y38965298D01*
X32968903Y38965298D01*
X33040486Y38721329D01*
X33295996Y38600429D01*
X33570184Y38531700D01*
X33852512Y38517783D01*
X34132130Y38559213D01*
X34398292Y38654397D01*
X34523514Y38721329D01*
X34595097Y38965298D01*
X33782000Y39778395D01*
X32968903Y38965298D01*
X685000Y38965298D01*
X685000Y39887488D01*
X32341783Y39887488D01*
X32383213Y39607870D01*
X32478397Y39341708D01*
X32545329Y39216486D01*
X32789298Y39144903D01*
X33602395Y39958000D01*
X33961605Y39958000D01*
X34774702Y39144903D01*
X35018671Y39216486D01*
X35139571Y39471996D01*
X35204183Y39729761D01*
X35201428Y39268500D01*
X35213688Y39144018D01*
X35249998Y39024320D01*
X35308963Y38914006D01*
X35388315Y38817315D01*
X35485006Y38737963D01*
X35595320Y38678998D01*
X35715018Y38642688D01*
X35839500Y38630428D01*
X36353750Y38633500D01*
X36512500Y38792250D01*
X36512500Y39941500D01*
X36492500Y39941500D01*
X36492500Y40195500D01*
X36512500Y40195500D01*
X36512500Y41344750D01*
X36353750Y41503500D01*
X35839500Y41506572D01*
X35715018Y41494312D01*
X35595320Y41458002D01*
X35485006Y41399037D01*
X35388315Y41319685D01*
X35308963Y41222994D01*
X35249998Y41112680D01*
X35213688Y40992982D01*
X35201428Y40868500D01*
X35204500Y40354250D01*
X35363248Y40195502D01*
X35204500Y40195502D01*
X35204500Y40148087D01*
X35180787Y40308130D01*
X35085603Y40574292D01*
X35018671Y40699514D01*
X34774702Y40771097D01*
X33961605Y39958000D01*
X33602395Y39958000D01*
X32789298Y40771097D01*
X32545329Y40699514D01*
X32424429Y40444004D01*
X32355700Y40169816D01*
X32341783Y39887488D01*
X685000Y39887488D01*
X685000Y40950702D01*
X32968903Y40950702D01*
X33782000Y40137605D01*
X34595097Y40950702D01*
X34523514Y41194671D01*
X34268004Y41315571D01*
X33993816Y41384300D01*
X33711488Y41398217D01*
X33431870Y41356787D01*
X33165708Y41261603D01*
X33040486Y41194671D01*
X32968903Y40950702D01*
X685000Y40950702D01*
X685000Y45099335D01*
X32347000Y45099335D01*
X32347000Y44816665D01*
X32402147Y44539426D01*
X32510320Y44278273D01*
X32667363Y44043241D01*
X32867241Y43843363D01*
X33102273Y43686320D01*
X33363426Y43578147D01*
X33640665Y43523000D01*
X33923335Y43523000D01*
X34200574Y43578147D01*
X34461727Y43686320D01*
X34696759Y43843363D01*
X34896637Y44043241D01*
X35053680Y44278273D01*
X35161853Y44539426D01*
X35217000Y44816665D01*
X35217000Y45099335D01*
X35161853Y45376574D01*
X35053680Y45637727D01*
X34896637Y45872759D01*
X34696759Y46072637D01*
X34461727Y46229680D01*
X34200574Y46337853D01*
X33923335Y46393000D01*
X33640665Y46393000D01*
X33363426Y46337853D01*
X33102273Y46229680D01*
X32867241Y46072637D01*
X32667363Y45872759D01*
X32510320Y45637727D01*
X32402147Y45376574D01*
X32347000Y45099335D01*
X685000Y45099335D01*
X685000Y55687335D01*
X34887000Y55687335D01*
X34887000Y55404665D01*
X34942147Y55127426D01*
X35050320Y54866273D01*
X35207363Y54631241D01*
X35407241Y54431363D01*
X35642273Y54274320D01*
X35903426Y54166147D01*
X36180665Y54111000D01*
X36463335Y54111000D01*
X36740574Y54166147D01*
X37001727Y54274320D01*
X37236759Y54431363D01*
X37436637Y54631241D01*
X37593680Y54866273D01*
X37701853Y55127426D01*
X37757000Y55404665D01*
X37757000Y55687335D01*
X37701853Y55964574D01*
X37593680Y56225727D01*
X37436637Y56460759D01*
X37236759Y56660637D01*
X37001727Y56817680D01*
X36740574Y56925853D01*
X36463335Y56981000D01*
X36180665Y56981000D01*
X35903426Y56925853D01*
X35642273Y56817680D01*
X35407241Y56660637D01*
X35207363Y56460759D01*
X35050320Y56225727D01*
X34942147Y55964574D01*
X34887000Y55687335D01*
X685000Y55687335D01*
X685000Y57945647D01*
X675711Y58039956D01*
X691653Y58202542D01*
X776031Y58482018D01*
X913085Y58739780D01*
X1097599Y58966015D01*
X1322540Y59152103D01*
X1579342Y59290956D01*
X1858219Y59377282D01*
X2030268Y59395365D01*
X2125353Y59386000D01*
G37*
%TD.AperFunction*%
D20*
X26422295Y19046992D02*
X26446089Y19017999D01*
X26475082Y18994205D01*
X26475086Y18994201D01*
X26530458Y18948759D01*
X26561814Y18923026D01*
X26693843Y18852454D01*
X26837104Y18808997D01*
X26948757Y18798000D01*
X26948766Y18798000D01*
X26986089Y18794324D01*
X27023412Y18798000D01*
X55194189Y18798000D01*
X55718847Y18273341D01*
X55732541Y18204501D01*
X55250321Y18204501D01*
X55212998Y18208177D01*
X55175675Y18204501D01*
X55175666Y18204501D01*
X55064013Y18193504D01*
X54933632Y18153954D01*
X54920752Y18150047D01*
X54788722Y18079475D01*
X54705082Y18010833D01*
X54672998Y17984502D01*
X54649200Y17955504D01*
X54127796Y17434100D01*
X54127759Y17434137D01*
X53892727Y17591180D01*
X53631574Y17699353D01*
X53354335Y17754500D01*
X53071665Y17754500D01*
X52794426Y17699353D01*
X52533273Y17591180D01*
X52298241Y17434137D01*
X52098363Y17234259D01*
X51943000Y17001741D01*
X51787637Y17234259D01*
X51587759Y17434137D01*
X51352727Y17591180D01*
X51091574Y17699353D01*
X50814335Y17754500D01*
X50531665Y17754500D01*
X50254426Y17699353D01*
X49993273Y17591180D01*
X49758241Y17434137D01*
X49559643Y17235539D01*
X49558812Y17243982D01*
X49522502Y17363680D01*
X49463537Y17473994D01*
X49384185Y17570685D01*
X49287494Y17650037D01*
X49177180Y17709002D01*
X49057482Y17745312D01*
X48933000Y17757572D01*
X48418750Y17754500D01*
X48260000Y17595750D01*
X48260000Y16446500D01*
X48280000Y16446500D01*
X48280000Y16192500D01*
X48260000Y16192500D01*
X48260000Y16172500D01*
X48006000Y16172500D01*
X48006000Y16192500D01*
X46856750Y16192500D01*
X46698000Y16033750D01*
X46694928Y15519500D01*
X46707188Y15395018D01*
X46743498Y15275320D01*
X46802463Y15165006D01*
X46881815Y15068315D01*
X46978506Y14988963D01*
X47088820Y14929998D01*
X47208518Y14893688D01*
X47333000Y14881428D01*
X47731236Y14883807D01*
X47575870Y14860787D01*
X47309708Y14765603D01*
X47184486Y14698671D01*
X47112903Y14454702D01*
X47926000Y13641605D01*
X48739097Y14454702D01*
X48667514Y14698671D01*
X48412004Y14819571D01*
X48152976Y14884500D01*
X48260002Y14884500D01*
X48260002Y15043248D01*
X48418750Y14884500D01*
X48933000Y14881428D01*
X49057482Y14893688D01*
X49177180Y14929998D01*
X49287494Y14988963D01*
X49384185Y15068315D01*
X49463537Y15165006D01*
X49522502Y15275320D01*
X49558812Y15395018D01*
X49559643Y15403461D01*
X49758241Y15204863D01*
X49993273Y15047820D01*
X50254426Y14939647D01*
X50531665Y14884500D01*
X50703198Y14884500D01*
X49364280Y13545582D01*
X49324787Y13812130D01*
X49229603Y14078292D01*
X49162671Y14203514D01*
X48918702Y14275097D01*
X48105605Y13462000D01*
X48119748Y13447858D01*
X47940143Y13268253D01*
X47926000Y13282395D01*
X47112903Y12469298D01*
X47184486Y12225329D01*
X47439996Y12104429D01*
X47714184Y12035700D01*
X47859986Y12028513D01*
X47847279Y12013029D01*
X47776708Y11881000D01*
X47776707Y11880999D01*
X47733250Y11737738D01*
X47722253Y11626085D01*
X47722253Y11626075D01*
X47718577Y11588753D01*
X47722253Y11551430D01*
X47722254Y10043459D01*
X47653667Y9940811D01*
X47583185Y9770651D01*
X47547253Y9590011D01*
X47547253Y9405833D01*
X47583185Y9225193D01*
X47653667Y9055033D01*
X47755991Y8901894D01*
X47886225Y8771660D01*
X48039364Y8669336D01*
X48209524Y8598854D01*
X48390164Y8562922D01*
X48574342Y8562922D01*
X48754982Y8598854D01*
X48776013Y8607565D01*
X48833111Y8569414D01*
X49003271Y8498932D01*
X49183911Y8463000D01*
X49368089Y8463000D01*
X49548729Y8498932D01*
X49718889Y8569414D01*
X49872028Y8671738D01*
X50002262Y8801972D01*
X50104586Y8955111D01*
X50175068Y9125271D01*
X50211000Y9305911D01*
X50211000Y9490089D01*
X50175068Y9670729D01*
X50104586Y9840889D01*
X50036000Y9943535D01*
X50036000Y10396463D01*
X54841934Y15202395D01*
X55073273Y15047820D01*
X55334426Y14939647D01*
X55611665Y14884500D01*
X55894335Y14884500D01*
X56076886Y14920812D01*
X57088501Y13909197D01*
X57088500Y8927536D01*
X57019914Y8824889D01*
X56949432Y8654729D01*
X56913500Y8474089D01*
X56913500Y8289911D01*
X56949432Y8109271D01*
X57019914Y7939111D01*
X57086983Y7838735D01*
X56965368Y7757475D01*
X56758525Y7550632D01*
X56642000Y7376240D01*
X56525475Y7550632D01*
X56318632Y7757475D01*
X56075411Y7919990D01*
X55805158Y8031932D01*
X55518260Y8089000D01*
X55225740Y8089000D01*
X54938842Y8031932D01*
X54668589Y7919990D01*
X54425368Y7757475D01*
X54218525Y7550632D01*
X54102000Y7376240D01*
X53985475Y7550632D01*
X53778632Y7757475D01*
X53535411Y7919990D01*
X53265158Y8031932D01*
X52978260Y8089000D01*
X52685740Y8089000D01*
X52398842Y8031932D01*
X52271220Y7979070D01*
X52158028Y8092262D01*
X52004889Y8194586D01*
X51834729Y8265068D01*
X51654089Y8301000D01*
X51469911Y8301000D01*
X51289271Y8265068D01*
X51119111Y8194586D01*
X50965972Y8092262D01*
X50852780Y7979070D01*
X50725158Y8031932D01*
X50438260Y8089000D01*
X50145740Y8089000D01*
X49858842Y8031932D01*
X49588589Y7919990D01*
X49345368Y7757475D01*
X49138525Y7550632D01*
X49016805Y7368466D01*
X48947178Y7485355D01*
X48752269Y7701588D01*
X48518920Y7875641D01*
X48256099Y8000825D01*
X48108890Y8045476D01*
X47879000Y7924155D01*
X47879000Y6731000D01*
X47899000Y6731000D01*
X47899000Y6477000D01*
X47879000Y6477000D01*
X47879000Y6457000D01*
X47625000Y6457000D01*
X47625000Y6477000D01*
X47605000Y6477000D01*
X47605000Y6731000D01*
X47625000Y6731000D01*
X47625000Y7924155D01*
X47395110Y8045476D01*
X47247901Y8000825D01*
X46985080Y7875641D01*
X46751731Y7701588D01*
X46556822Y7485355D01*
X46487195Y7368466D01*
X46365475Y7550632D01*
X46158632Y7757475D01*
X45915411Y7919990D01*
X45645158Y8031932D01*
X45358260Y8089000D01*
X45065740Y8089000D01*
X44778842Y8031932D01*
X44508589Y7919990D01*
X44265368Y7757475D01*
X44058525Y7550632D01*
X43942000Y7376240D01*
X43825475Y7550632D01*
X43618632Y7757475D01*
X43375411Y7919990D01*
X43105158Y8031932D01*
X42818260Y8089000D01*
X42525740Y8089000D01*
X42238842Y8031932D01*
X42067001Y7960753D01*
X42067001Y8947966D01*
X42135587Y9050612D01*
X42206069Y9220772D01*
X42242001Y9401412D01*
X42242001Y9585590D01*
X42206069Y9766230D01*
X42135587Y9936390D01*
X42067001Y10039036D01*
X42067001Y12310105D01*
X42246273Y12190320D01*
X42507426Y12082147D01*
X42784665Y12027000D01*
X43067335Y12027000D01*
X43344574Y12082147D01*
X43605727Y12190320D01*
X43840759Y12347363D01*
X44040637Y12547241D01*
X44197680Y12782273D01*
X44305853Y13043426D01*
X44361000Y13320665D01*
X44361000Y13391488D01*
X46485783Y13391488D01*
X46527213Y13111870D01*
X46622397Y12845708D01*
X46689329Y12720486D01*
X46933298Y12648903D01*
X47746395Y13462000D01*
X46933298Y14275097D01*
X46689329Y14203514D01*
X46568429Y13948004D01*
X46499700Y13673816D01*
X46485783Y13391488D01*
X44361000Y13391488D01*
X44361000Y13603335D01*
X44305853Y13880574D01*
X44197680Y14141727D01*
X44040637Y14376759D01*
X43840759Y14576637D01*
X43605727Y14733680D01*
X43344574Y14841853D01*
X43067335Y14897000D01*
X42784665Y14897000D01*
X42507426Y14841853D01*
X42246273Y14733680D01*
X42011241Y14576637D01*
X41811363Y14376759D01*
X41808579Y14372593D01*
X40176174Y16004997D01*
X40152371Y16034001D01*
X40036646Y16128974D01*
X39904617Y16199546D01*
X39761356Y16243003D01*
X39649703Y16254000D01*
X39649692Y16254000D01*
X39612370Y16257676D01*
X39575048Y16254000D01*
X24952802Y16254000D01*
X24454073Y16752729D01*
X24537514Y16797329D01*
X24609097Y17041298D01*
X24530895Y17119500D01*
X46694928Y17119500D01*
X46698000Y16605250D01*
X46856750Y16446500D01*
X48006000Y16446500D01*
X48006000Y17595750D01*
X47847250Y17754500D01*
X47333000Y17757572D01*
X47208518Y17745312D01*
X47088820Y17709002D01*
X46978506Y17650037D01*
X46881815Y17570685D01*
X46802463Y17473994D01*
X46743498Y17363680D01*
X46707188Y17243982D01*
X46694928Y17119500D01*
X24530895Y17119500D01*
X23796000Y17854395D01*
X23781858Y17840253D01*
X23602253Y18019858D01*
X23616395Y18034000D01*
X23975605Y18034000D01*
X24788702Y17220903D01*
X25032671Y17292486D01*
X25153571Y17547996D01*
X25222300Y17822184D01*
X25236217Y18104512D01*
X25194787Y18384130D01*
X25099603Y18650292D01*
X25032671Y18775514D01*
X24788702Y18847097D01*
X23975605Y18034000D01*
X23616395Y18034000D01*
X22803298Y18847097D01*
X22559329Y18775514D01*
X22518203Y18688598D01*
X22032500Y19174301D01*
X22032500Y19609957D01*
X22187259Y19713363D01*
X22387137Y19913241D01*
X22544180Y20148273D01*
X22548567Y20158865D01*
X22660115Y19972869D01*
X22849086Y19764481D01*
X23075080Y19596963D01*
X23329413Y19476754D01*
X23463461Y19436096D01*
X23685498Y19558084D01*
X23685498Y19468292D01*
X23445870Y19432787D01*
X23179708Y19337603D01*
X23054486Y19270671D01*
X22982903Y19026702D01*
X23796000Y18213605D01*
X24609097Y19026702D01*
X24537514Y19270671D01*
X24282004Y19391571D01*
X24007816Y19460300D01*
X23939502Y19463667D01*
X23939502Y19558084D01*
X24161539Y19436096D01*
X24295587Y19476754D01*
X24549920Y19596963D01*
X24775914Y19764481D01*
X24964885Y19972869D01*
X25109570Y20214119D01*
X25147961Y20321327D01*
X26422295Y19046992D01*
%TA.AperFunction,Conductor*%
D21*
G36*
X26422295Y19046992D02*
G01*
X26446089Y19017999D01*
X26475082Y18994205D01*
X26475086Y18994201D01*
X26530458Y18948759D01*
X26561814Y18923026D01*
X26693843Y18852454D01*
X26837104Y18808997D01*
X26948757Y18798000D01*
X26948766Y18798000D01*
X26986089Y18794324D01*
X27023412Y18798000D01*
X55194189Y18798000D01*
X55718847Y18273341D01*
X55732541Y18204501D01*
X55250321Y18204501D01*
X55212998Y18208177D01*
X55175675Y18204501D01*
X55175666Y18204501D01*
X55064013Y18193504D01*
X54933632Y18153954D01*
X54920752Y18150047D01*
X54788722Y18079475D01*
X54705082Y18010833D01*
X54672998Y17984502D01*
X54649200Y17955504D01*
X54127796Y17434100D01*
X54127759Y17434137D01*
X53892727Y17591180D01*
X53631574Y17699353D01*
X53354335Y17754500D01*
X53071665Y17754500D01*
X52794426Y17699353D01*
X52533273Y17591180D01*
X52298241Y17434137D01*
X52098363Y17234259D01*
X51943000Y17001741D01*
X51787637Y17234259D01*
X51587759Y17434137D01*
X51352727Y17591180D01*
X51091574Y17699353D01*
X50814335Y17754500D01*
X50531665Y17754500D01*
X50254426Y17699353D01*
X49993273Y17591180D01*
X49758241Y17434137D01*
X49559643Y17235539D01*
X49558812Y17243982D01*
X49522502Y17363680D01*
X49463537Y17473994D01*
X49384185Y17570685D01*
X49287494Y17650037D01*
X49177180Y17709002D01*
X49057482Y17745312D01*
X48933000Y17757572D01*
X48418750Y17754500D01*
X48260000Y17595750D01*
X48260000Y16446500D01*
X48280000Y16446500D01*
X48280000Y16192500D01*
X48260000Y16192500D01*
X48260000Y16172500D01*
X48006000Y16172500D01*
X48006000Y16192500D01*
X46856750Y16192500D01*
X46698000Y16033750D01*
X46694928Y15519500D01*
X46707188Y15395018D01*
X46743498Y15275320D01*
X46802463Y15165006D01*
X46881815Y15068315D01*
X46978506Y14988963D01*
X47088820Y14929998D01*
X47208518Y14893688D01*
X47333000Y14881428D01*
X47731236Y14883807D01*
X47575870Y14860787D01*
X47309708Y14765603D01*
X47184486Y14698671D01*
X47112903Y14454702D01*
X47926000Y13641605D01*
X48739097Y14454702D01*
X48667514Y14698671D01*
X48412004Y14819571D01*
X48152976Y14884500D01*
X48260002Y14884500D01*
X48260002Y15043248D01*
X48418750Y14884500D01*
X48933000Y14881428D01*
X49057482Y14893688D01*
X49177180Y14929998D01*
X49287494Y14988963D01*
X49384185Y15068315D01*
X49463537Y15165006D01*
X49522502Y15275320D01*
X49558812Y15395018D01*
X49559643Y15403461D01*
X49758241Y15204863D01*
X49993273Y15047820D01*
X50254426Y14939647D01*
X50531665Y14884500D01*
X50703198Y14884500D01*
X49364280Y13545582D01*
X49324787Y13812130D01*
X49229603Y14078292D01*
X49162671Y14203514D01*
X48918702Y14275097D01*
X48105605Y13462000D01*
X48119748Y13447858D01*
X47940143Y13268253D01*
X47926000Y13282395D01*
X47112903Y12469298D01*
X47184486Y12225329D01*
X47439996Y12104429D01*
X47714184Y12035700D01*
X47859986Y12028513D01*
X47847279Y12013029D01*
X47776708Y11881000D01*
X47776707Y11880999D01*
X47733250Y11737738D01*
X47722253Y11626085D01*
X47722253Y11626075D01*
X47718577Y11588753D01*
X47722253Y11551430D01*
X47722254Y10043459D01*
X47653667Y9940811D01*
X47583185Y9770651D01*
X47547253Y9590011D01*
X47547253Y9405833D01*
X47583185Y9225193D01*
X47653667Y9055033D01*
X47755991Y8901894D01*
X47886225Y8771660D01*
X48039364Y8669336D01*
X48209524Y8598854D01*
X48390164Y8562922D01*
X48574342Y8562922D01*
X48754982Y8598854D01*
X48776013Y8607565D01*
X48833111Y8569414D01*
X49003271Y8498932D01*
X49183911Y8463000D01*
X49368089Y8463000D01*
X49548729Y8498932D01*
X49718889Y8569414D01*
X49872028Y8671738D01*
X50002262Y8801972D01*
X50104586Y8955111D01*
X50175068Y9125271D01*
X50211000Y9305911D01*
X50211000Y9490089D01*
X50175068Y9670729D01*
X50104586Y9840889D01*
X50036000Y9943535D01*
X50036000Y10396463D01*
X54841934Y15202395D01*
X55073273Y15047820D01*
X55334426Y14939647D01*
X55611665Y14884500D01*
X55894335Y14884500D01*
X56076886Y14920812D01*
X57088501Y13909197D01*
X57088500Y8927536D01*
X57019914Y8824889D01*
X56949432Y8654729D01*
X56913500Y8474089D01*
X56913500Y8289911D01*
X56949432Y8109271D01*
X57019914Y7939111D01*
X57086983Y7838735D01*
X56965368Y7757475D01*
X56758525Y7550632D01*
X56642000Y7376240D01*
X56525475Y7550632D01*
X56318632Y7757475D01*
X56075411Y7919990D01*
X55805158Y8031932D01*
X55518260Y8089000D01*
X55225740Y8089000D01*
X54938842Y8031932D01*
X54668589Y7919990D01*
X54425368Y7757475D01*
X54218525Y7550632D01*
X54102000Y7376240D01*
X53985475Y7550632D01*
X53778632Y7757475D01*
X53535411Y7919990D01*
X53265158Y8031932D01*
X52978260Y8089000D01*
X52685740Y8089000D01*
X52398842Y8031932D01*
X52271220Y7979070D01*
X52158028Y8092262D01*
X52004889Y8194586D01*
X51834729Y8265068D01*
X51654089Y8301000D01*
X51469911Y8301000D01*
X51289271Y8265068D01*
X51119111Y8194586D01*
X50965972Y8092262D01*
X50852780Y7979070D01*
X50725158Y8031932D01*
X50438260Y8089000D01*
X50145740Y8089000D01*
X49858842Y8031932D01*
X49588589Y7919990D01*
X49345368Y7757475D01*
X49138525Y7550632D01*
X49016805Y7368466D01*
X48947178Y7485355D01*
X48752269Y7701588D01*
X48518920Y7875641D01*
X48256099Y8000825D01*
X48108890Y8045476D01*
X47879000Y7924155D01*
X47879000Y6731000D01*
X47899000Y6731000D01*
X47899000Y6477000D01*
X47879000Y6477000D01*
X47879000Y6457000D01*
X47625000Y6457000D01*
X47625000Y6477000D01*
X47605000Y6477000D01*
X47605000Y6731000D01*
X47625000Y6731000D01*
X47625000Y7924155D01*
X47395110Y8045476D01*
X47247901Y8000825D01*
X46985080Y7875641D01*
X46751731Y7701588D01*
X46556822Y7485355D01*
X46487195Y7368466D01*
X46365475Y7550632D01*
X46158632Y7757475D01*
X45915411Y7919990D01*
X45645158Y8031932D01*
X45358260Y8089000D01*
X45065740Y8089000D01*
X44778842Y8031932D01*
X44508589Y7919990D01*
X44265368Y7757475D01*
X44058525Y7550632D01*
X43942000Y7376240D01*
X43825475Y7550632D01*
X43618632Y7757475D01*
X43375411Y7919990D01*
X43105158Y8031932D01*
X42818260Y8089000D01*
X42525740Y8089000D01*
X42238842Y8031932D01*
X42067001Y7960753D01*
X42067001Y8947966D01*
X42135587Y9050612D01*
X42206069Y9220772D01*
X42242001Y9401412D01*
X42242001Y9585590D01*
X42206069Y9766230D01*
X42135587Y9936390D01*
X42067001Y10039036D01*
X42067001Y12310105D01*
X42246273Y12190320D01*
X42507426Y12082147D01*
X42784665Y12027000D01*
X43067335Y12027000D01*
X43344574Y12082147D01*
X43605727Y12190320D01*
X43840759Y12347363D01*
X44040637Y12547241D01*
X44197680Y12782273D01*
X44305853Y13043426D01*
X44361000Y13320665D01*
X44361000Y13391488D01*
X46485783Y13391488D01*
X46527213Y13111870D01*
X46622397Y12845708D01*
X46689329Y12720486D01*
X46933298Y12648903D01*
X47746395Y13462000D01*
X46933298Y14275097D01*
X46689329Y14203514D01*
X46568429Y13948004D01*
X46499700Y13673816D01*
X46485783Y13391488D01*
X44361000Y13391488D01*
X44361000Y13603335D01*
X44305853Y13880574D01*
X44197680Y14141727D01*
X44040637Y14376759D01*
X43840759Y14576637D01*
X43605727Y14733680D01*
X43344574Y14841853D01*
X43067335Y14897000D01*
X42784665Y14897000D01*
X42507426Y14841853D01*
X42246273Y14733680D01*
X42011241Y14576637D01*
X41811363Y14376759D01*
X41808579Y14372593D01*
X40176174Y16004997D01*
X40152371Y16034001D01*
X40036646Y16128974D01*
X39904617Y16199546D01*
X39761356Y16243003D01*
X39649703Y16254000D01*
X39649692Y16254000D01*
X39612370Y16257676D01*
X39575048Y16254000D01*
X24952802Y16254000D01*
X24454073Y16752729D01*
X24537514Y16797329D01*
X24609097Y17041298D01*
X24530895Y17119500D01*
X46694928Y17119500D01*
X46698000Y16605250D01*
X46856750Y16446500D01*
X48006000Y16446500D01*
X48006000Y17595750D01*
X47847250Y17754500D01*
X47333000Y17757572D01*
X47208518Y17745312D01*
X47088820Y17709002D01*
X46978506Y17650037D01*
X46881815Y17570685D01*
X46802463Y17473994D01*
X46743498Y17363680D01*
X46707188Y17243982D01*
X46694928Y17119500D01*
X24530895Y17119500D01*
X23796000Y17854395D01*
X23781858Y17840253D01*
X23602253Y18019858D01*
X23616395Y18034000D01*
X23975605Y18034000D01*
X24788702Y17220903D01*
X25032671Y17292486D01*
X25153571Y17547996D01*
X25222300Y17822184D01*
X25236217Y18104512D01*
X25194787Y18384130D01*
X25099603Y18650292D01*
X25032671Y18775514D01*
X24788702Y18847097D01*
X23975605Y18034000D01*
X23616395Y18034000D01*
X22803298Y18847097D01*
X22559329Y18775514D01*
X22518203Y18688598D01*
X22032500Y19174301D01*
X22032500Y19609957D01*
X22187259Y19713363D01*
X22387137Y19913241D01*
X22544180Y20148273D01*
X22548567Y20158865D01*
X22660115Y19972869D01*
X22849086Y19764481D01*
X23075080Y19596963D01*
X23329413Y19476754D01*
X23463461Y19436096D01*
X23685498Y19558084D01*
X23685498Y19468292D01*
X23445870Y19432787D01*
X23179708Y19337603D01*
X23054486Y19270671D01*
X22982903Y19026702D01*
X23796000Y18213605D01*
X24609097Y19026702D01*
X24537514Y19270671D01*
X24282004Y19391571D01*
X24007816Y19460300D01*
X23939502Y19463667D01*
X23939502Y19558084D01*
X24161539Y19436096D01*
X24295587Y19476754D01*
X24549920Y19596963D01*
X24775914Y19764481D01*
X24964885Y19972869D01*
X25109570Y20214119D01*
X25147961Y20321327D01*
X26422295Y19046992D01*
G37*
%TD.AperFunction*%
D20*
X23939500Y20955000D02*
X23959500Y20955000D01*
X23959500Y20701000D01*
X23939500Y20701000D01*
X23939500Y20681000D01*
X23685500Y20681000D01*
X23685500Y20701000D01*
X23665500Y20701000D01*
X23665500Y20955000D01*
X23685500Y20955000D01*
X23685500Y20975000D01*
X23939500Y20975000D01*
X23939500Y20955000D01*
%TA.AperFunction,Conductor*%
D21*
G36*
X23939500Y20955000D02*
G01*
X23959500Y20955000D01*
X23959500Y20701000D01*
X23939500Y20701000D01*
X23939500Y20681000D01*
X23685500Y20681000D01*
X23685500Y20701000D01*
X23665500Y20701000D01*
X23665500Y20955000D01*
X23685500Y20955000D01*
X23685500Y20975000D01*
X23939500Y20975000D01*
X23939500Y20955000D01*
G37*
%TD.AperFunction*%
%TD*%
M02*
