%TF.GenerationSoftware,KiCad,Pcbnew,(5.1.10-1-10_14)*%
%TF.CreationDate,2021-10-31T18:53:11+01:00*%
%TF.ProjectId,opl2_board,6f706c32-5f62-46f6-9172-642e6b696361,rev?*%
%TF.SameCoordinates,Original*%
%TF.FileFunction,Soldermask,Top*%
%TF.FilePolarity,Negative*%
%FSLAX46Y46*%
G04 Gerber Fmt 4.6, Leading zero omitted, Abs format (unit mm)*
G04 Created by KiCad (PCBNEW (5.1.10-1-10_14)) date 2021-10-31 18:53:11*
%MOMM*%
%LPD*%
G01*
G04 APERTURE LIST*
%ADD10C,1.200000*%
%ADD11O,2.000000X1.400000*%
%ADD12R,2.000000X1.400000*%
%ADD13C,1.600000*%
%ADD14R,1.600000X1.600000*%
%ADD15O,1.600000X1.600000*%
%ADD16O,1.700000X1.700000*%
%ADD17R,1.700000X1.700000*%
G04 APERTURE END LIST*
D10*
%TO.C,J2*%
X67280000Y42912000D03*
X74280000Y42912000D03*
D11*
X75580000Y45212000D03*
X72580000Y45212000D03*
D12*
X68580000Y45212000D03*
D11*
X67080000Y40712000D03*
X75580000Y39712000D03*
%TD*%
D13*
%TO.C,C7*%
X47926000Y13462000D03*
X42926000Y13462000D03*
%TD*%
%TO.C,C6*%
X49102000Y50546000D03*
X54102000Y50546000D03*
%TD*%
%TO.C,C5*%
X36322000Y55546000D03*
X36322000Y50546000D03*
%TD*%
%TO.C,C4*%
X44116000Y50546000D03*
X39116000Y50546000D03*
%TD*%
%TO.C,C3*%
X23796000Y18034000D03*
X18796000Y18034000D03*
%TD*%
%TO.C,C2*%
X33862000Y34798000D03*
X38862000Y34798000D03*
%TD*%
%TO.C,C1*%
X33782000Y39958000D03*
X33782000Y44958000D03*
%TD*%
%TO.C,X1*%
X42418000Y23050500D03*
X42418000Y30670500D03*
X34798000Y30670500D03*
D14*
X34798000Y23050500D03*
%TD*%
D15*
%TO.C,U4*%
X48958500Y47688500D03*
X56578500Y40068500D03*
X51498500Y47688500D03*
X54038500Y40068500D03*
X54038500Y47688500D03*
X51498500Y40068500D03*
X56578500Y47688500D03*
D14*
X48958500Y40068500D03*
%TD*%
D15*
%TO.C,U3*%
X36639500Y47688500D03*
X44259500Y40068500D03*
X39179500Y47688500D03*
X41719500Y40068500D03*
X41719500Y47688500D03*
X39179500Y40068500D03*
X44259500Y47688500D03*
D14*
X36639500Y40068500D03*
%TD*%
D15*
%TO.C,U2*%
X48133000Y31559500D03*
X76073000Y16319500D03*
X50673000Y31559500D03*
X73533000Y16319500D03*
X53213000Y31559500D03*
X70993000Y16319500D03*
X55753000Y31559500D03*
X68453000Y16319500D03*
X58293000Y31559500D03*
X65913000Y16319500D03*
X60833000Y31559500D03*
X63373000Y16319500D03*
X63373000Y31559500D03*
X60833000Y16319500D03*
X65913000Y31559500D03*
X58293000Y16319500D03*
X68453000Y31559500D03*
X55753000Y16319500D03*
X70993000Y31559500D03*
X53213000Y16319500D03*
X73533000Y31559500D03*
X50673000Y16319500D03*
X76073000Y31559500D03*
D14*
X48133000Y16319500D03*
%TD*%
D15*
%TO.C,U1*%
X23812500Y20828000D03*
X8572500Y28448000D03*
X21272500Y20828000D03*
X11112500Y28448000D03*
X18732500Y20828000D03*
X13652500Y28448000D03*
X16192500Y20828000D03*
X16192500Y28448000D03*
X13652500Y20828000D03*
X18732500Y28448000D03*
X11112500Y20828000D03*
X21272500Y28448000D03*
X8572500Y20828000D03*
D14*
X23812500Y28448000D03*
%TD*%
D16*
%TO.C,J1*%
X17272000Y4064000D03*
X17272000Y6604000D03*
X19812000Y4064000D03*
X19812000Y6604000D03*
X22352000Y4064000D03*
X22352000Y6604000D03*
X24892000Y4064000D03*
X24892000Y6604000D03*
X27432000Y4064000D03*
X27432000Y6604000D03*
X29972000Y4064000D03*
X29972000Y6604000D03*
X32512000Y4064000D03*
X32512000Y6604000D03*
X35052000Y4064000D03*
X35052000Y6604000D03*
X37592000Y4064000D03*
X37592000Y6604000D03*
X40132000Y4064000D03*
X40132000Y6604000D03*
X42672000Y4064000D03*
X42672000Y6604000D03*
X45212000Y4064000D03*
X45212000Y6604000D03*
X47752000Y4064000D03*
X47752000Y6604000D03*
X50292000Y4064000D03*
X50292000Y6604000D03*
X52832000Y4064000D03*
X52832000Y6604000D03*
X55372000Y4064000D03*
X55372000Y6604000D03*
X57912000Y4064000D03*
X57912000Y6604000D03*
X60452000Y4064000D03*
X60452000Y6604000D03*
X62992000Y4064000D03*
X62992000Y6604000D03*
X65532000Y4064000D03*
X65532000Y6604000D03*
X68072000Y4064000D03*
X68072000Y6604000D03*
X70612000Y4064000D03*
X70612000Y6604000D03*
X73152000Y4064000D03*
X73152000Y6604000D03*
X75692000Y4064000D03*
X75692000Y6604000D03*
X78232000Y4064000D03*
D17*
X78232000Y6604000D03*
%TD*%
M02*
