G04 #@! TF.GenerationSoftware,KiCad,Pcbnew,(5.0.2)-1*
G04 #@! TF.CreationDate,2019-09-24T20:27:20-04:00*
G04 #@! TF.ProjectId,FrontPanel,46726f6e-7450-4616-9e65-6c2e6b696361,X1*
G04 #@! TF.SameCoordinates,Original*
G04 #@! TF.FileFunction,Legend,Bot*
G04 #@! TF.FilePolarity,Positive*
%FSLAX46Y46*%
G04 Gerber Fmt 4.6, Leading zero omitted, Abs format (unit mm)*
G04 Created by KiCad (PCBNEW (5.0.2)-1) date 9/24/2019 8:27:20 PM*
%MOMM*%
%LPD*%
G01*
G04 APERTURE LIST*
%ADD10C,0.381000*%
%ADD11C,0.300000*%
%ADD12C,0.396875*%
%ADD13C,0.120000*%
%ADD14C,0.150000*%
G04 APERTURE END LIST*
D10*
X71165357Y-95000535D02*
X71346785Y-94909821D01*
X71437500Y-94728392D01*
X71437500Y-93095535D01*
X69623214Y-95000535D02*
X69623214Y-94002678D01*
X69713928Y-93821250D01*
X69895357Y-93730535D01*
X70258214Y-93730535D01*
X70439642Y-93821250D01*
X69623214Y-94909821D02*
X69804642Y-95000535D01*
X70258214Y-95000535D01*
X70439642Y-94909821D01*
X70530357Y-94728392D01*
X70530357Y-94546964D01*
X70439642Y-94365535D01*
X70258214Y-94274821D01*
X69804642Y-94274821D01*
X69623214Y-94184107D01*
X68716071Y-93730535D02*
X68716071Y-95000535D01*
X68716071Y-93911964D02*
X68625357Y-93821250D01*
X68443928Y-93730535D01*
X68171785Y-93730535D01*
X67990357Y-93821250D01*
X67899642Y-94002678D01*
X67899642Y-95000535D01*
X66176071Y-95000535D02*
X66176071Y-93095535D01*
X66176071Y-94909821D02*
X66357500Y-95000535D01*
X66720357Y-95000535D01*
X66901785Y-94909821D01*
X66992500Y-94819107D01*
X67083214Y-94637678D01*
X67083214Y-94093392D01*
X66992500Y-93911964D01*
X66901785Y-93821250D01*
X66720357Y-93730535D01*
X66357500Y-93730535D01*
X66176071Y-93821250D01*
X65268928Y-94274821D02*
X63817500Y-94274821D01*
X62910357Y-95000535D02*
X62910357Y-93095535D01*
X62910357Y-93821250D02*
X62728928Y-93730535D01*
X62366071Y-93730535D01*
X62184642Y-93821250D01*
X62093928Y-93911964D01*
X62003214Y-94093392D01*
X62003214Y-94637678D01*
X62093928Y-94819107D01*
X62184642Y-94909821D01*
X62366071Y-95000535D01*
X62728928Y-95000535D01*
X62910357Y-94909821D01*
X60914642Y-95000535D02*
X61096071Y-94909821D01*
X61186785Y-94819107D01*
X61277500Y-94637678D01*
X61277500Y-94093392D01*
X61186785Y-93911964D01*
X61096071Y-93821250D01*
X60914642Y-93730535D01*
X60642500Y-93730535D01*
X60461071Y-93821250D01*
X60370357Y-93911964D01*
X60279642Y-94093392D01*
X60279642Y-94637678D01*
X60370357Y-94819107D01*
X60461071Y-94909821D01*
X60642500Y-95000535D01*
X60914642Y-95000535D01*
X58646785Y-95000535D02*
X58646785Y-94002678D01*
X58737500Y-93821250D01*
X58918928Y-93730535D01*
X59281785Y-93730535D01*
X59463214Y-93821250D01*
X58646785Y-94909821D02*
X58828214Y-95000535D01*
X59281785Y-95000535D01*
X59463214Y-94909821D01*
X59553928Y-94728392D01*
X59553928Y-94546964D01*
X59463214Y-94365535D01*
X59281785Y-94274821D01*
X58828214Y-94274821D01*
X58646785Y-94184107D01*
X57739642Y-95000535D02*
X57739642Y-93730535D01*
X57739642Y-94093392D02*
X57648928Y-93911964D01*
X57558214Y-93821250D01*
X57376785Y-93730535D01*
X57195357Y-93730535D01*
X55743928Y-95000535D02*
X55743928Y-93095535D01*
X55743928Y-94909821D02*
X55925357Y-95000535D01*
X56288214Y-95000535D01*
X56469642Y-94909821D01*
X56560357Y-94819107D01*
X56651071Y-94637678D01*
X56651071Y-94093392D01*
X56560357Y-93911964D01*
X56469642Y-93821250D01*
X56288214Y-93730535D01*
X55925357Y-93730535D01*
X55743928Y-93821250D01*
X54927500Y-94909821D02*
X54746071Y-95000535D01*
X54383214Y-95000535D01*
X54201785Y-94909821D01*
X54111071Y-94728392D01*
X54111071Y-94637678D01*
X54201785Y-94456250D01*
X54383214Y-94365535D01*
X54655357Y-94365535D01*
X54836785Y-94274821D01*
X54927500Y-94093392D01*
X54927500Y-94002678D01*
X54836785Y-93821250D01*
X54655357Y-93730535D01*
X54383214Y-93730535D01*
X54201785Y-93821250D01*
X53294642Y-94819107D02*
X53203928Y-94909821D01*
X53294642Y-95000535D01*
X53385357Y-94909821D01*
X53294642Y-94819107D01*
X53294642Y-95000535D01*
X51571071Y-94909821D02*
X51752500Y-95000535D01*
X52115357Y-95000535D01*
X52296785Y-94909821D01*
X52387500Y-94819107D01*
X52478214Y-94637678D01*
X52478214Y-94093392D01*
X52387500Y-93911964D01*
X52296785Y-93821250D01*
X52115357Y-93730535D01*
X51752500Y-93730535D01*
X51571071Y-93821250D01*
X50482500Y-95000535D02*
X50663928Y-94909821D01*
X50754642Y-94819107D01*
X50845357Y-94637678D01*
X50845357Y-94093392D01*
X50754642Y-93911964D01*
X50663928Y-93821250D01*
X50482500Y-93730535D01*
X50210357Y-93730535D01*
X50028928Y-93821250D01*
X49938214Y-93911964D01*
X49847500Y-94093392D01*
X49847500Y-94637678D01*
X49938214Y-94819107D01*
X50028928Y-94909821D01*
X50210357Y-95000535D01*
X50482500Y-95000535D01*
X49031071Y-95000535D02*
X49031071Y-93730535D01*
X49031071Y-93911964D02*
X48940357Y-93821250D01*
X48758928Y-93730535D01*
X48486785Y-93730535D01*
X48305357Y-93821250D01*
X48214642Y-94002678D01*
X48214642Y-95000535D01*
X48214642Y-94002678D02*
X48123928Y-93821250D01*
X47942500Y-93730535D01*
X47670357Y-93730535D01*
X47488928Y-93821250D01*
X47398214Y-94002678D01*
X47398214Y-95000535D01*
X45130357Y-93004821D02*
X46763214Y-95454107D01*
X67990357Y-97241178D02*
X68625357Y-97241178D01*
X68625357Y-98239035D02*
X68625357Y-96334035D01*
X67718214Y-96334035D01*
X66992500Y-98239035D02*
X66992500Y-96969035D01*
X66992500Y-97331892D02*
X66901785Y-97150464D01*
X66811071Y-97059750D01*
X66629642Y-96969035D01*
X66448214Y-96969035D01*
X65541071Y-98239035D02*
X65722500Y-98148321D01*
X65813214Y-98057607D01*
X65903928Y-97876178D01*
X65903928Y-97331892D01*
X65813214Y-97150464D01*
X65722500Y-97059750D01*
X65541071Y-96969035D01*
X65268928Y-96969035D01*
X65087500Y-97059750D01*
X64996785Y-97150464D01*
X64906071Y-97331892D01*
X64906071Y-97876178D01*
X64996785Y-98057607D01*
X65087500Y-98148321D01*
X65268928Y-98239035D01*
X65541071Y-98239035D01*
X64089642Y-96969035D02*
X64089642Y-98239035D01*
X64089642Y-97150464D02*
X63998928Y-97059750D01*
X63817500Y-96969035D01*
X63545357Y-96969035D01*
X63363928Y-97059750D01*
X63273214Y-97241178D01*
X63273214Y-98239035D01*
X62638214Y-96969035D02*
X61912500Y-96969035D01*
X62366071Y-96334035D02*
X62366071Y-97966892D01*
X62275357Y-98148321D01*
X62093928Y-98239035D01*
X61912500Y-98239035D01*
X61277500Y-98239035D02*
X61277500Y-96334035D01*
X60551785Y-96334035D01*
X60370357Y-96424750D01*
X60279642Y-96515464D01*
X60188928Y-96696892D01*
X60188928Y-96969035D01*
X60279642Y-97150464D01*
X60370357Y-97241178D01*
X60551785Y-97331892D01*
X61277500Y-97331892D01*
X58556071Y-98239035D02*
X58556071Y-97241178D01*
X58646785Y-97059750D01*
X58828214Y-96969035D01*
X59191071Y-96969035D01*
X59372500Y-97059750D01*
X58556071Y-98148321D02*
X58737500Y-98239035D01*
X59191071Y-98239035D01*
X59372500Y-98148321D01*
X59463214Y-97966892D01*
X59463214Y-97785464D01*
X59372500Y-97604035D01*
X59191071Y-97513321D01*
X58737500Y-97513321D01*
X58556071Y-97422607D01*
X57648928Y-96969035D02*
X57648928Y-98239035D01*
X57648928Y-97150464D02*
X57558214Y-97059750D01*
X57376785Y-96969035D01*
X57104642Y-96969035D01*
X56923214Y-97059750D01*
X56832500Y-97241178D01*
X56832500Y-98239035D01*
X55199642Y-98148321D02*
X55381071Y-98239035D01*
X55743928Y-98239035D01*
X55925357Y-98148321D01*
X56016071Y-97966892D01*
X56016071Y-97241178D01*
X55925357Y-97059750D01*
X55743928Y-96969035D01*
X55381071Y-96969035D01*
X55199642Y-97059750D01*
X55108928Y-97241178D01*
X55108928Y-97422607D01*
X56016071Y-97604035D01*
X54020357Y-98239035D02*
X54201785Y-98148321D01*
X54292500Y-97966892D01*
X54292500Y-96334035D01*
X53294642Y-97513321D02*
X51843214Y-97513321D01*
X50573214Y-96334035D02*
X50391785Y-96334035D01*
X50210357Y-96424750D01*
X50119642Y-96515464D01*
X50028928Y-96696892D01*
X49938214Y-97059750D01*
X49938214Y-97513321D01*
X50028928Y-97876178D01*
X50119642Y-98057607D01*
X50210357Y-98148321D01*
X50391785Y-98239035D01*
X50573214Y-98239035D01*
X50754642Y-98148321D01*
X50845357Y-98057607D01*
X50936071Y-97876178D01*
X51026785Y-97513321D01*
X51026785Y-97059750D01*
X50936071Y-96696892D01*
X50845357Y-96515464D01*
X50754642Y-96424750D01*
X50573214Y-96334035D01*
X48123928Y-98239035D02*
X49212500Y-98239035D01*
X48668214Y-98239035D02*
X48668214Y-96334035D01*
X48849642Y-96606178D01*
X49031071Y-96787607D01*
X49212500Y-96878321D01*
X63146778Y-102428785D02*
X63146778Y-100523785D01*
X62421064Y-100523785D01*
X62239635Y-100614500D01*
X62148921Y-100705214D01*
X62058207Y-100886642D01*
X62058207Y-101158785D01*
X62148921Y-101340214D01*
X62239635Y-101430928D01*
X62421064Y-101521642D01*
X63146778Y-101521642D01*
X61423207Y-100523785D02*
X60969635Y-102428785D01*
X60606778Y-101068071D01*
X60243921Y-102428785D01*
X59790350Y-100523785D01*
X58429635Y-101430928D02*
X58157492Y-101521642D01*
X58066778Y-101612357D01*
X57976064Y-101793785D01*
X57976064Y-102065928D01*
X58066778Y-102247357D01*
X58157492Y-102338071D01*
X58338921Y-102428785D01*
X59064635Y-102428785D01*
X59064635Y-100523785D01*
X58429635Y-100523785D01*
X58248207Y-100614500D01*
X58157492Y-100705214D01*
X58066778Y-100886642D01*
X58066778Y-101068071D01*
X58157492Y-101249500D01*
X58248207Y-101340214D01*
X58429635Y-101430928D01*
X59064635Y-101430928D01*
X54619635Y-102428785D02*
X55254635Y-101521642D01*
X55708207Y-102428785D02*
X55708207Y-100523785D01*
X54982492Y-100523785D01*
X54801064Y-100614500D01*
X54710350Y-100705214D01*
X54619635Y-100886642D01*
X54619635Y-101158785D01*
X54710350Y-101340214D01*
X54801064Y-101430928D01*
X54982492Y-101521642D01*
X55708207Y-101521642D01*
X53077492Y-102338071D02*
X53258921Y-102428785D01*
X53621778Y-102428785D01*
X53803207Y-102338071D01*
X53893921Y-102156642D01*
X53893921Y-101430928D01*
X53803207Y-101249500D01*
X53621778Y-101158785D01*
X53258921Y-101158785D01*
X53077492Y-101249500D01*
X52986778Y-101430928D01*
X52986778Y-101612357D01*
X53893921Y-101793785D01*
X52351778Y-101158785D02*
X51898207Y-102428785D01*
X51444635Y-101158785D01*
X48269635Y-102428785D02*
X49358207Y-102428785D01*
X48813921Y-102428785D02*
X48813921Y-100523785D01*
X48995350Y-100795928D01*
X49176778Y-100977357D01*
X49358207Y-101068071D01*
D11*
X102024571Y-37258571D02*
X102024571Y-36401428D01*
X102024571Y-36830000D02*
X100524571Y-36830000D01*
X100738857Y-36687142D01*
X100881714Y-36544285D01*
X100953142Y-36401428D01*
D12*
X91650154Y-38582297D02*
X90062654Y-38582297D01*
X90213845Y-39262654D02*
X90138250Y-39338250D01*
X90062654Y-39489440D01*
X90062654Y-39867416D01*
X90138250Y-40018607D01*
X90213845Y-40094202D01*
X90365035Y-40169797D01*
X90516226Y-40169797D01*
X90743011Y-40094202D01*
X91650154Y-39187059D01*
X91650154Y-40169797D01*
X91498964Y-41757297D02*
X91574559Y-41681702D01*
X91650154Y-41454916D01*
X91650154Y-41303726D01*
X91574559Y-41076940D01*
X91423369Y-40925750D01*
X91272178Y-40850154D01*
X90969797Y-40774559D01*
X90743011Y-40774559D01*
X90440630Y-40850154D01*
X90289440Y-40925750D01*
X90138250Y-41076940D01*
X90062654Y-41303726D01*
X90062654Y-41454916D01*
X90138250Y-41681702D01*
X90213845Y-41757297D01*
D11*
X94293511Y-43021285D02*
X94372130Y-43202714D01*
X94372130Y-43505095D01*
X94293511Y-43626047D01*
X94214892Y-43686523D01*
X94057654Y-43747000D01*
X93900416Y-43747000D01*
X93743178Y-43686523D01*
X93664559Y-43626047D01*
X93585940Y-43505095D01*
X93507321Y-43263190D01*
X93428702Y-43142238D01*
X93350083Y-43081761D01*
X93192845Y-43021285D01*
X93035607Y-43021285D01*
X92878369Y-43081761D01*
X92799750Y-43142238D01*
X92721130Y-43263190D01*
X92721130Y-43565571D01*
X92799750Y-43747000D01*
X94214892Y-45017000D02*
X94293511Y-44956523D01*
X94372130Y-44775095D01*
X94372130Y-44654142D01*
X94293511Y-44472714D01*
X94136273Y-44351761D01*
X93979035Y-44291285D01*
X93664559Y-44230809D01*
X93428702Y-44230809D01*
X93114226Y-44291285D01*
X92956988Y-44351761D01*
X92799750Y-44472714D01*
X92721130Y-44654142D01*
X92721130Y-44775095D01*
X92799750Y-44956523D01*
X92878369Y-45017000D01*
X94372130Y-46166047D02*
X94372130Y-45561285D01*
X92721130Y-45561285D01*
X97070011Y-42960809D02*
X97148630Y-43142238D01*
X97148630Y-43444619D01*
X97070011Y-43565571D01*
X96991392Y-43626047D01*
X96834154Y-43686523D01*
X96676916Y-43686523D01*
X96519678Y-43626047D01*
X96441059Y-43565571D01*
X96362440Y-43444619D01*
X96283821Y-43202714D01*
X96205202Y-43081761D01*
X96126583Y-43021285D01*
X95969345Y-42960809D01*
X95812107Y-42960809D01*
X95654869Y-43021285D01*
X95576250Y-43081761D01*
X95497630Y-43202714D01*
X95497630Y-43505095D01*
X95576250Y-43686523D01*
X97148630Y-44230809D02*
X95497630Y-44230809D01*
X95497630Y-44533190D01*
X95576250Y-44714619D01*
X95733488Y-44835571D01*
X95890726Y-44896047D01*
X96205202Y-44956523D01*
X96441059Y-44956523D01*
X96755535Y-44896047D01*
X96912773Y-44835571D01*
X97070011Y-44714619D01*
X97148630Y-44533190D01*
X97148630Y-44230809D01*
X96676916Y-45440333D02*
X96676916Y-46045095D01*
X97148630Y-45319380D02*
X95497630Y-45742714D01*
X97148630Y-46166047D01*
X99296178Y-43928428D02*
X99296178Y-44896047D01*
X99925130Y-44412238D02*
X98667226Y-44412238D01*
X98274130Y-45319380D02*
X99925130Y-45742714D01*
X98274130Y-46166047D01*
X101129250Y-43384142D02*
X101050630Y-43263190D01*
X101050630Y-43081761D01*
X101129250Y-42900333D01*
X101286488Y-42779380D01*
X101443726Y-42718904D01*
X101758202Y-42658428D01*
X101994059Y-42658428D01*
X102308535Y-42718904D01*
X102465773Y-42779380D01*
X102623011Y-42900333D01*
X102701630Y-43081761D01*
X102701630Y-43202714D01*
X102623011Y-43384142D01*
X102544392Y-43444619D01*
X101994059Y-43444619D01*
X101994059Y-43202714D01*
X102701630Y-43988904D02*
X101050630Y-43988904D01*
X102701630Y-44714619D01*
X101050630Y-44714619D01*
X102701630Y-45319380D02*
X101050630Y-45319380D01*
X101050630Y-45621761D01*
X101129250Y-45803190D01*
X101286488Y-45924142D01*
X101443726Y-45984619D01*
X101758202Y-46045095D01*
X101994059Y-46045095D01*
X102308535Y-45984619D01*
X102465773Y-45924142D01*
X102623011Y-45803190D01*
X102701630Y-45621761D01*
X102701630Y-45319380D01*
D13*
G04 #@! TO.C,R1*
X89161252Y-79958000D02*
X88638748Y-79958000D01*
X89161252Y-78538000D02*
X88638748Y-78538000D01*
G04 #@! TO.C,R2*
X89161252Y-75998000D02*
X88638748Y-75998000D01*
X89161252Y-77418000D02*
X88638748Y-77418000D01*
G04 #@! TO.C,R5*
X27185252Y-77164000D02*
X26662748Y-77164000D01*
X27185252Y-75744000D02*
X26662748Y-75744000D01*
G04 #@! TO.C,R8*
X34805252Y-75744000D02*
X34282748Y-75744000D01*
X34805252Y-77164000D02*
X34282748Y-77164000D01*
G04 #@! TO.C,R9*
X42425252Y-77164000D02*
X41902748Y-77164000D01*
X42425252Y-75744000D02*
X41902748Y-75744000D01*
G04 #@! TO.C,R10*
X50045252Y-75744000D02*
X49522748Y-75744000D01*
X50045252Y-77164000D02*
X49522748Y-77164000D01*
G04 #@! TO.C,R11*
X58935252Y-75744000D02*
X58412748Y-75744000D01*
X58935252Y-77164000D02*
X58412748Y-77164000D01*
G04 #@! TO.C,R12*
X66555252Y-75744000D02*
X66032748Y-75744000D01*
X66555252Y-77164000D02*
X66032748Y-77164000D01*
G04 #@! TO.C,R13*
X74175252Y-77164000D02*
X73652748Y-77164000D01*
X74175252Y-75744000D02*
X73652748Y-75744000D01*
G04 #@! TO.C,R14*
X81795252Y-77164000D02*
X81272748Y-77164000D01*
X81795252Y-75744000D02*
X81272748Y-75744000D01*
G04 #@! TO.C,R15*
X27185252Y-58114000D02*
X26662748Y-58114000D01*
X27185252Y-56694000D02*
X26662748Y-56694000D01*
G04 #@! TO.C,R16*
X34805252Y-58114000D02*
X34282748Y-58114000D01*
X34805252Y-56694000D02*
X34282748Y-56694000D01*
G04 #@! TO.C,R17*
X42425252Y-56694000D02*
X41902748Y-56694000D01*
X42425252Y-58114000D02*
X41902748Y-58114000D01*
G04 #@! TO.C,R18*
X50045252Y-56694000D02*
X49522748Y-56694000D01*
X50045252Y-58114000D02*
X49522748Y-58114000D01*
G04 #@! TO.C,R19*
X60205252Y-58114000D02*
X59682748Y-58114000D01*
X60205252Y-56694000D02*
X59682748Y-56694000D01*
G04 #@! TO.C,R20*
X67825252Y-58114000D02*
X67302748Y-58114000D01*
X67825252Y-56694000D02*
X67302748Y-56694000D01*
G04 #@! TO.C,R21*
X75445252Y-56694000D02*
X74922748Y-56694000D01*
X75445252Y-58114000D02*
X74922748Y-58114000D01*
G04 #@! TO.C,R22*
X83065252Y-56694000D02*
X82542748Y-56694000D01*
X83065252Y-58114000D02*
X82542748Y-58114000D01*
G04 #@! TO.C,R23*
X27194252Y-39064000D02*
X26671748Y-39064000D01*
X27194252Y-37644000D02*
X26671748Y-37644000D01*
G04 #@! TO.C,R24*
X34805252Y-37644000D02*
X34282748Y-37644000D01*
X34805252Y-39064000D02*
X34282748Y-39064000D01*
G04 #@! TO.C,R25*
X42425252Y-39064000D02*
X41902748Y-39064000D01*
X42425252Y-37644000D02*
X41902748Y-37644000D01*
G04 #@! TO.C,R26*
X50045252Y-37644000D02*
X49522748Y-37644000D01*
X50045252Y-39064000D02*
X49522748Y-39064000D01*
G04 #@! TO.C,R27*
X60205252Y-39064000D02*
X59682748Y-39064000D01*
X60205252Y-37644000D02*
X59682748Y-37644000D01*
G04 #@! TO.C,R28*
X67825252Y-39064000D02*
X67302748Y-39064000D01*
X67825252Y-37644000D02*
X67302748Y-37644000D01*
G04 #@! TO.C,R29*
X75445252Y-37644000D02*
X74922748Y-37644000D01*
X75445252Y-39064000D02*
X74922748Y-39064000D01*
G04 #@! TO.C,R30*
X83065252Y-37644000D02*
X82542748Y-37644000D01*
X83065252Y-39064000D02*
X82542748Y-39064000D01*
G04 #@! TO.C,R31*
X27185252Y-16054000D02*
X26662748Y-16054000D01*
X27185252Y-17474000D02*
X26662748Y-17474000D01*
G04 #@! TO.C,R32*
X34805252Y-17474000D02*
X34282748Y-17474000D01*
X34805252Y-16054000D02*
X34282748Y-16054000D01*
G04 #@! TO.C,R33*
X42425252Y-17474000D02*
X41902748Y-17474000D01*
X42425252Y-16054000D02*
X41902748Y-16054000D01*
G04 #@! TO.C,R34*
X50045252Y-16054000D02*
X49522748Y-16054000D01*
X50045252Y-17474000D02*
X49522748Y-17474000D01*
G04 #@! TO.C,R35*
X60205252Y-17474000D02*
X59682748Y-17474000D01*
X60205252Y-16054000D02*
X59682748Y-16054000D01*
G04 #@! TO.C,R36*
X67825252Y-16054000D02*
X67302748Y-16054000D01*
X67825252Y-17474000D02*
X67302748Y-17474000D01*
G04 #@! TO.C,R37*
X75445252Y-17474000D02*
X74922748Y-17474000D01*
X75445252Y-16054000D02*
X74922748Y-16054000D01*
G04 #@! TO.C,R38*
X83065252Y-16054000D02*
X82542748Y-16054000D01*
X83065252Y-17474000D02*
X82542748Y-17474000D01*
G04 #@! TO.C,J2*
X102676000Y-42732000D02*
X102676000Y-41402000D01*
X101346000Y-42732000D02*
X102676000Y-42732000D01*
X100076000Y-42732000D02*
X100076000Y-40072000D01*
X100076000Y-40072000D02*
X92396000Y-40072000D01*
X100076000Y-42732000D02*
X92396000Y-42732000D01*
X92396000Y-42732000D02*
X92396000Y-40072000D01*
G04 #@! TO.C,J3*
X92396000Y-40192000D02*
X92396000Y-37532000D01*
X100076000Y-40192000D02*
X92396000Y-40192000D01*
X100076000Y-37532000D02*
X92396000Y-37532000D01*
X100076000Y-40192000D02*
X100076000Y-37532000D01*
X101346000Y-40192000D02*
X102676000Y-40192000D01*
X102676000Y-40192000D02*
X102676000Y-38862000D01*
G04 #@! TO.C,J6*
X91126000Y-75378000D02*
X96326000Y-75378000D01*
X91126000Y-77978000D02*
X91126000Y-75378000D01*
X96326000Y-80578000D02*
X96326000Y-75378000D01*
X91126000Y-77978000D02*
X93726000Y-77978000D01*
X93726000Y-77978000D02*
X93726000Y-80578000D01*
X93726000Y-80578000D02*
X96326000Y-80578000D01*
X91126000Y-79248000D02*
X91126000Y-80578000D01*
X91126000Y-80578000D02*
X92456000Y-80578000D01*
G04 #@! TO.C,R1*
D14*
X85501666Y-79700380D02*
X85835000Y-79224190D01*
X86073095Y-79700380D02*
X86073095Y-78700380D01*
X85692142Y-78700380D01*
X85596904Y-78748000D01*
X85549285Y-78795619D01*
X85501666Y-78890857D01*
X85501666Y-79033714D01*
X85549285Y-79128952D01*
X85596904Y-79176571D01*
X85692142Y-79224190D01*
X86073095Y-79224190D01*
X84549285Y-79700380D02*
X85120714Y-79700380D01*
X84835000Y-79700380D02*
X84835000Y-78700380D01*
X84930238Y-78843238D01*
X85025476Y-78938476D01*
X85120714Y-78986095D01*
G04 #@! TO.C,R2*
X85256666Y-77160380D02*
X85590000Y-76684190D01*
X85828095Y-77160380D02*
X85828095Y-76160380D01*
X85447142Y-76160380D01*
X85351904Y-76208000D01*
X85304285Y-76255619D01*
X85256666Y-76350857D01*
X85256666Y-76493714D01*
X85304285Y-76588952D01*
X85351904Y-76636571D01*
X85447142Y-76684190D01*
X85828095Y-76684190D01*
X84875714Y-76255619D02*
X84828095Y-76208000D01*
X84732857Y-76160380D01*
X84494761Y-76160380D01*
X84399523Y-76208000D01*
X84351904Y-76255619D01*
X84304285Y-76350857D01*
X84304285Y-76446095D01*
X84351904Y-76588952D01*
X84923333Y-77160380D01*
X84304285Y-77160380D01*
G04 #@! TO.C,R5*
X27090666Y-75256380D02*
X27424000Y-74780190D01*
X27662095Y-75256380D02*
X27662095Y-74256380D01*
X27281142Y-74256380D01*
X27185904Y-74304000D01*
X27138285Y-74351619D01*
X27090666Y-74446857D01*
X27090666Y-74589714D01*
X27138285Y-74684952D01*
X27185904Y-74732571D01*
X27281142Y-74780190D01*
X27662095Y-74780190D01*
X26185904Y-74256380D02*
X26662095Y-74256380D01*
X26709714Y-74732571D01*
X26662095Y-74684952D01*
X26566857Y-74637333D01*
X26328761Y-74637333D01*
X26233523Y-74684952D01*
X26185904Y-74732571D01*
X26138285Y-74827809D01*
X26138285Y-75065904D01*
X26185904Y-75161142D01*
X26233523Y-75208761D01*
X26328761Y-75256380D01*
X26566857Y-75256380D01*
X26662095Y-75208761D01*
X26709714Y-75161142D01*
G04 #@! TO.C,R8*
X34710666Y-75256380D02*
X35044000Y-74780190D01*
X35282095Y-75256380D02*
X35282095Y-74256380D01*
X34901142Y-74256380D01*
X34805904Y-74304000D01*
X34758285Y-74351619D01*
X34710666Y-74446857D01*
X34710666Y-74589714D01*
X34758285Y-74684952D01*
X34805904Y-74732571D01*
X34901142Y-74780190D01*
X35282095Y-74780190D01*
X34139238Y-74684952D02*
X34234476Y-74637333D01*
X34282095Y-74589714D01*
X34329714Y-74494476D01*
X34329714Y-74446857D01*
X34282095Y-74351619D01*
X34234476Y-74304000D01*
X34139238Y-74256380D01*
X33948761Y-74256380D01*
X33853523Y-74304000D01*
X33805904Y-74351619D01*
X33758285Y-74446857D01*
X33758285Y-74494476D01*
X33805904Y-74589714D01*
X33853523Y-74637333D01*
X33948761Y-74684952D01*
X34139238Y-74684952D01*
X34234476Y-74732571D01*
X34282095Y-74780190D01*
X34329714Y-74875428D01*
X34329714Y-75065904D01*
X34282095Y-75161142D01*
X34234476Y-75208761D01*
X34139238Y-75256380D01*
X33948761Y-75256380D01*
X33853523Y-75208761D01*
X33805904Y-75161142D01*
X33758285Y-75065904D01*
X33758285Y-74875428D01*
X33805904Y-74780190D01*
X33853523Y-74732571D01*
X33948761Y-74684952D01*
G04 #@! TO.C,R9*
X42330666Y-75256380D02*
X42664000Y-74780190D01*
X42902095Y-75256380D02*
X42902095Y-74256380D01*
X42521142Y-74256380D01*
X42425904Y-74304000D01*
X42378285Y-74351619D01*
X42330666Y-74446857D01*
X42330666Y-74589714D01*
X42378285Y-74684952D01*
X42425904Y-74732571D01*
X42521142Y-74780190D01*
X42902095Y-74780190D01*
X41854476Y-75256380D02*
X41664000Y-75256380D01*
X41568761Y-75208761D01*
X41521142Y-75161142D01*
X41425904Y-75018285D01*
X41378285Y-74827809D01*
X41378285Y-74446857D01*
X41425904Y-74351619D01*
X41473523Y-74304000D01*
X41568761Y-74256380D01*
X41759238Y-74256380D01*
X41854476Y-74304000D01*
X41902095Y-74351619D01*
X41949714Y-74446857D01*
X41949714Y-74684952D01*
X41902095Y-74780190D01*
X41854476Y-74827809D01*
X41759238Y-74875428D01*
X41568761Y-74875428D01*
X41473523Y-74827809D01*
X41425904Y-74780190D01*
X41378285Y-74684952D01*
G04 #@! TO.C,R10*
X50426857Y-75256380D02*
X50760190Y-74780190D01*
X50998285Y-75256380D02*
X50998285Y-74256380D01*
X50617333Y-74256380D01*
X50522095Y-74304000D01*
X50474476Y-74351619D01*
X50426857Y-74446857D01*
X50426857Y-74589714D01*
X50474476Y-74684952D01*
X50522095Y-74732571D01*
X50617333Y-74780190D01*
X50998285Y-74780190D01*
X49474476Y-75256380D02*
X50045904Y-75256380D01*
X49760190Y-75256380D02*
X49760190Y-74256380D01*
X49855428Y-74399238D01*
X49950666Y-74494476D01*
X50045904Y-74542095D01*
X48855428Y-74256380D02*
X48760190Y-74256380D01*
X48664952Y-74304000D01*
X48617333Y-74351619D01*
X48569714Y-74446857D01*
X48522095Y-74637333D01*
X48522095Y-74875428D01*
X48569714Y-75065904D01*
X48617333Y-75161142D01*
X48664952Y-75208761D01*
X48760190Y-75256380D01*
X48855428Y-75256380D01*
X48950666Y-75208761D01*
X48998285Y-75161142D01*
X49045904Y-75065904D01*
X49093523Y-74875428D01*
X49093523Y-74637333D01*
X49045904Y-74446857D01*
X48998285Y-74351619D01*
X48950666Y-74304000D01*
X48855428Y-74256380D01*
G04 #@! TO.C,R11*
X59316857Y-75256380D02*
X59650190Y-74780190D01*
X59888285Y-75256380D02*
X59888285Y-74256380D01*
X59507333Y-74256380D01*
X59412095Y-74304000D01*
X59364476Y-74351619D01*
X59316857Y-74446857D01*
X59316857Y-74589714D01*
X59364476Y-74684952D01*
X59412095Y-74732571D01*
X59507333Y-74780190D01*
X59888285Y-74780190D01*
X58364476Y-75256380D02*
X58935904Y-75256380D01*
X58650190Y-75256380D02*
X58650190Y-74256380D01*
X58745428Y-74399238D01*
X58840666Y-74494476D01*
X58935904Y-74542095D01*
X57412095Y-75256380D02*
X57983523Y-75256380D01*
X57697809Y-75256380D02*
X57697809Y-74256380D01*
X57793047Y-74399238D01*
X57888285Y-74494476D01*
X57983523Y-74542095D01*
G04 #@! TO.C,R12*
X66936857Y-75256380D02*
X67270190Y-74780190D01*
X67508285Y-75256380D02*
X67508285Y-74256380D01*
X67127333Y-74256380D01*
X67032095Y-74304000D01*
X66984476Y-74351619D01*
X66936857Y-74446857D01*
X66936857Y-74589714D01*
X66984476Y-74684952D01*
X67032095Y-74732571D01*
X67127333Y-74780190D01*
X67508285Y-74780190D01*
X65984476Y-75256380D02*
X66555904Y-75256380D01*
X66270190Y-75256380D02*
X66270190Y-74256380D01*
X66365428Y-74399238D01*
X66460666Y-74494476D01*
X66555904Y-74542095D01*
X65603523Y-74351619D02*
X65555904Y-74304000D01*
X65460666Y-74256380D01*
X65222571Y-74256380D01*
X65127333Y-74304000D01*
X65079714Y-74351619D01*
X65032095Y-74446857D01*
X65032095Y-74542095D01*
X65079714Y-74684952D01*
X65651142Y-75256380D01*
X65032095Y-75256380D01*
G04 #@! TO.C,R13*
X74556857Y-75256380D02*
X74890190Y-74780190D01*
X75128285Y-75256380D02*
X75128285Y-74256380D01*
X74747333Y-74256380D01*
X74652095Y-74304000D01*
X74604476Y-74351619D01*
X74556857Y-74446857D01*
X74556857Y-74589714D01*
X74604476Y-74684952D01*
X74652095Y-74732571D01*
X74747333Y-74780190D01*
X75128285Y-74780190D01*
X73604476Y-75256380D02*
X74175904Y-75256380D01*
X73890190Y-75256380D02*
X73890190Y-74256380D01*
X73985428Y-74399238D01*
X74080666Y-74494476D01*
X74175904Y-74542095D01*
X73271142Y-74256380D02*
X72652095Y-74256380D01*
X72985428Y-74637333D01*
X72842571Y-74637333D01*
X72747333Y-74684952D01*
X72699714Y-74732571D01*
X72652095Y-74827809D01*
X72652095Y-75065904D01*
X72699714Y-75161142D01*
X72747333Y-75208761D01*
X72842571Y-75256380D01*
X73128285Y-75256380D01*
X73223523Y-75208761D01*
X73271142Y-75161142D01*
G04 #@! TO.C,R14*
X82176857Y-75256380D02*
X82510190Y-74780190D01*
X82748285Y-75256380D02*
X82748285Y-74256380D01*
X82367333Y-74256380D01*
X82272095Y-74304000D01*
X82224476Y-74351619D01*
X82176857Y-74446857D01*
X82176857Y-74589714D01*
X82224476Y-74684952D01*
X82272095Y-74732571D01*
X82367333Y-74780190D01*
X82748285Y-74780190D01*
X81224476Y-75256380D02*
X81795904Y-75256380D01*
X81510190Y-75256380D02*
X81510190Y-74256380D01*
X81605428Y-74399238D01*
X81700666Y-74494476D01*
X81795904Y-74542095D01*
X80367333Y-74589714D02*
X80367333Y-75256380D01*
X80605428Y-74208761D02*
X80843523Y-74923047D01*
X80224476Y-74923047D01*
G04 #@! TO.C,R15*
X27566857Y-56206380D02*
X27900190Y-55730190D01*
X28138285Y-56206380D02*
X28138285Y-55206380D01*
X27757333Y-55206380D01*
X27662095Y-55254000D01*
X27614476Y-55301619D01*
X27566857Y-55396857D01*
X27566857Y-55539714D01*
X27614476Y-55634952D01*
X27662095Y-55682571D01*
X27757333Y-55730190D01*
X28138285Y-55730190D01*
X26614476Y-56206380D02*
X27185904Y-56206380D01*
X26900190Y-56206380D02*
X26900190Y-55206380D01*
X26995428Y-55349238D01*
X27090666Y-55444476D01*
X27185904Y-55492095D01*
X25709714Y-55206380D02*
X26185904Y-55206380D01*
X26233523Y-55682571D01*
X26185904Y-55634952D01*
X26090666Y-55587333D01*
X25852571Y-55587333D01*
X25757333Y-55634952D01*
X25709714Y-55682571D01*
X25662095Y-55777809D01*
X25662095Y-56015904D01*
X25709714Y-56111142D01*
X25757333Y-56158761D01*
X25852571Y-56206380D01*
X26090666Y-56206380D01*
X26185904Y-56158761D01*
X26233523Y-56111142D01*
G04 #@! TO.C,R16*
X35186857Y-56206380D02*
X35520190Y-55730190D01*
X35758285Y-56206380D02*
X35758285Y-55206380D01*
X35377333Y-55206380D01*
X35282095Y-55254000D01*
X35234476Y-55301619D01*
X35186857Y-55396857D01*
X35186857Y-55539714D01*
X35234476Y-55634952D01*
X35282095Y-55682571D01*
X35377333Y-55730190D01*
X35758285Y-55730190D01*
X34234476Y-56206380D02*
X34805904Y-56206380D01*
X34520190Y-56206380D02*
X34520190Y-55206380D01*
X34615428Y-55349238D01*
X34710666Y-55444476D01*
X34805904Y-55492095D01*
X33377333Y-55206380D02*
X33567809Y-55206380D01*
X33663047Y-55254000D01*
X33710666Y-55301619D01*
X33805904Y-55444476D01*
X33853523Y-55634952D01*
X33853523Y-56015904D01*
X33805904Y-56111142D01*
X33758285Y-56158761D01*
X33663047Y-56206380D01*
X33472571Y-56206380D01*
X33377333Y-56158761D01*
X33329714Y-56111142D01*
X33282095Y-56015904D01*
X33282095Y-55777809D01*
X33329714Y-55682571D01*
X33377333Y-55634952D01*
X33472571Y-55587333D01*
X33663047Y-55587333D01*
X33758285Y-55634952D01*
X33805904Y-55682571D01*
X33853523Y-55777809D01*
G04 #@! TO.C,R17*
X42806857Y-56206380D02*
X43140190Y-55730190D01*
X43378285Y-56206380D02*
X43378285Y-55206380D01*
X42997333Y-55206380D01*
X42902095Y-55254000D01*
X42854476Y-55301619D01*
X42806857Y-55396857D01*
X42806857Y-55539714D01*
X42854476Y-55634952D01*
X42902095Y-55682571D01*
X42997333Y-55730190D01*
X43378285Y-55730190D01*
X41854476Y-56206380D02*
X42425904Y-56206380D01*
X42140190Y-56206380D02*
X42140190Y-55206380D01*
X42235428Y-55349238D01*
X42330666Y-55444476D01*
X42425904Y-55492095D01*
X41521142Y-55206380D02*
X40854476Y-55206380D01*
X41283047Y-56206380D01*
G04 #@! TO.C,R18*
X50426857Y-56206380D02*
X50760190Y-55730190D01*
X50998285Y-56206380D02*
X50998285Y-55206380D01*
X50617333Y-55206380D01*
X50522095Y-55254000D01*
X50474476Y-55301619D01*
X50426857Y-55396857D01*
X50426857Y-55539714D01*
X50474476Y-55634952D01*
X50522095Y-55682571D01*
X50617333Y-55730190D01*
X50998285Y-55730190D01*
X49474476Y-56206380D02*
X50045904Y-56206380D01*
X49760190Y-56206380D02*
X49760190Y-55206380D01*
X49855428Y-55349238D01*
X49950666Y-55444476D01*
X50045904Y-55492095D01*
X48903047Y-55634952D02*
X48998285Y-55587333D01*
X49045904Y-55539714D01*
X49093523Y-55444476D01*
X49093523Y-55396857D01*
X49045904Y-55301619D01*
X48998285Y-55254000D01*
X48903047Y-55206380D01*
X48712571Y-55206380D01*
X48617333Y-55254000D01*
X48569714Y-55301619D01*
X48522095Y-55396857D01*
X48522095Y-55444476D01*
X48569714Y-55539714D01*
X48617333Y-55587333D01*
X48712571Y-55634952D01*
X48903047Y-55634952D01*
X48998285Y-55682571D01*
X49045904Y-55730190D01*
X49093523Y-55825428D01*
X49093523Y-56015904D01*
X49045904Y-56111142D01*
X48998285Y-56158761D01*
X48903047Y-56206380D01*
X48712571Y-56206380D01*
X48617333Y-56158761D01*
X48569714Y-56111142D01*
X48522095Y-56015904D01*
X48522095Y-55825428D01*
X48569714Y-55730190D01*
X48617333Y-55682571D01*
X48712571Y-55634952D01*
G04 #@! TO.C,R19*
X60586857Y-56206380D02*
X60920190Y-55730190D01*
X61158285Y-56206380D02*
X61158285Y-55206380D01*
X60777333Y-55206380D01*
X60682095Y-55254000D01*
X60634476Y-55301619D01*
X60586857Y-55396857D01*
X60586857Y-55539714D01*
X60634476Y-55634952D01*
X60682095Y-55682571D01*
X60777333Y-55730190D01*
X61158285Y-55730190D01*
X59634476Y-56206380D02*
X60205904Y-56206380D01*
X59920190Y-56206380D02*
X59920190Y-55206380D01*
X60015428Y-55349238D01*
X60110666Y-55444476D01*
X60205904Y-55492095D01*
X59158285Y-56206380D02*
X58967809Y-56206380D01*
X58872571Y-56158761D01*
X58824952Y-56111142D01*
X58729714Y-55968285D01*
X58682095Y-55777809D01*
X58682095Y-55396857D01*
X58729714Y-55301619D01*
X58777333Y-55254000D01*
X58872571Y-55206380D01*
X59063047Y-55206380D01*
X59158285Y-55254000D01*
X59205904Y-55301619D01*
X59253523Y-55396857D01*
X59253523Y-55634952D01*
X59205904Y-55730190D01*
X59158285Y-55777809D01*
X59063047Y-55825428D01*
X58872571Y-55825428D01*
X58777333Y-55777809D01*
X58729714Y-55730190D01*
X58682095Y-55634952D01*
G04 #@! TO.C,R20*
X68206857Y-56206380D02*
X68540190Y-55730190D01*
X68778285Y-56206380D02*
X68778285Y-55206380D01*
X68397333Y-55206380D01*
X68302095Y-55254000D01*
X68254476Y-55301619D01*
X68206857Y-55396857D01*
X68206857Y-55539714D01*
X68254476Y-55634952D01*
X68302095Y-55682571D01*
X68397333Y-55730190D01*
X68778285Y-55730190D01*
X67825904Y-55301619D02*
X67778285Y-55254000D01*
X67683047Y-55206380D01*
X67444952Y-55206380D01*
X67349714Y-55254000D01*
X67302095Y-55301619D01*
X67254476Y-55396857D01*
X67254476Y-55492095D01*
X67302095Y-55634952D01*
X67873523Y-56206380D01*
X67254476Y-56206380D01*
X66635428Y-55206380D02*
X66540190Y-55206380D01*
X66444952Y-55254000D01*
X66397333Y-55301619D01*
X66349714Y-55396857D01*
X66302095Y-55587333D01*
X66302095Y-55825428D01*
X66349714Y-56015904D01*
X66397333Y-56111142D01*
X66444952Y-56158761D01*
X66540190Y-56206380D01*
X66635428Y-56206380D01*
X66730666Y-56158761D01*
X66778285Y-56111142D01*
X66825904Y-56015904D01*
X66873523Y-55825428D01*
X66873523Y-55587333D01*
X66825904Y-55396857D01*
X66778285Y-55301619D01*
X66730666Y-55254000D01*
X66635428Y-55206380D01*
G04 #@! TO.C,R21*
X75826857Y-56206380D02*
X76160190Y-55730190D01*
X76398285Y-56206380D02*
X76398285Y-55206380D01*
X76017333Y-55206380D01*
X75922095Y-55254000D01*
X75874476Y-55301619D01*
X75826857Y-55396857D01*
X75826857Y-55539714D01*
X75874476Y-55634952D01*
X75922095Y-55682571D01*
X76017333Y-55730190D01*
X76398285Y-55730190D01*
X75445904Y-55301619D02*
X75398285Y-55254000D01*
X75303047Y-55206380D01*
X75064952Y-55206380D01*
X74969714Y-55254000D01*
X74922095Y-55301619D01*
X74874476Y-55396857D01*
X74874476Y-55492095D01*
X74922095Y-55634952D01*
X75493523Y-56206380D01*
X74874476Y-56206380D01*
X73922095Y-56206380D02*
X74493523Y-56206380D01*
X74207809Y-56206380D02*
X74207809Y-55206380D01*
X74303047Y-55349238D01*
X74398285Y-55444476D01*
X74493523Y-55492095D01*
G04 #@! TO.C,R22*
X83446857Y-56206380D02*
X83780190Y-55730190D01*
X84018285Y-56206380D02*
X84018285Y-55206380D01*
X83637333Y-55206380D01*
X83542095Y-55254000D01*
X83494476Y-55301619D01*
X83446857Y-55396857D01*
X83446857Y-55539714D01*
X83494476Y-55634952D01*
X83542095Y-55682571D01*
X83637333Y-55730190D01*
X84018285Y-55730190D01*
X83065904Y-55301619D02*
X83018285Y-55254000D01*
X82923047Y-55206380D01*
X82684952Y-55206380D01*
X82589714Y-55254000D01*
X82542095Y-55301619D01*
X82494476Y-55396857D01*
X82494476Y-55492095D01*
X82542095Y-55634952D01*
X83113523Y-56206380D01*
X82494476Y-56206380D01*
X82113523Y-55301619D02*
X82065904Y-55254000D01*
X81970666Y-55206380D01*
X81732571Y-55206380D01*
X81637333Y-55254000D01*
X81589714Y-55301619D01*
X81542095Y-55396857D01*
X81542095Y-55492095D01*
X81589714Y-55634952D01*
X82161142Y-56206380D01*
X81542095Y-56206380D01*
G04 #@! TO.C,R23*
X27575857Y-37156380D02*
X27909190Y-36680190D01*
X28147285Y-37156380D02*
X28147285Y-36156380D01*
X27766333Y-36156380D01*
X27671095Y-36204000D01*
X27623476Y-36251619D01*
X27575857Y-36346857D01*
X27575857Y-36489714D01*
X27623476Y-36584952D01*
X27671095Y-36632571D01*
X27766333Y-36680190D01*
X28147285Y-36680190D01*
X27194904Y-36251619D02*
X27147285Y-36204000D01*
X27052047Y-36156380D01*
X26813952Y-36156380D01*
X26718714Y-36204000D01*
X26671095Y-36251619D01*
X26623476Y-36346857D01*
X26623476Y-36442095D01*
X26671095Y-36584952D01*
X27242523Y-37156380D01*
X26623476Y-37156380D01*
X26290142Y-36156380D02*
X25671095Y-36156380D01*
X26004428Y-36537333D01*
X25861571Y-36537333D01*
X25766333Y-36584952D01*
X25718714Y-36632571D01*
X25671095Y-36727809D01*
X25671095Y-36965904D01*
X25718714Y-37061142D01*
X25766333Y-37108761D01*
X25861571Y-37156380D01*
X26147285Y-37156380D01*
X26242523Y-37108761D01*
X26290142Y-37061142D01*
G04 #@! TO.C,R24*
X35186857Y-37156380D02*
X35520190Y-36680190D01*
X35758285Y-37156380D02*
X35758285Y-36156380D01*
X35377333Y-36156380D01*
X35282095Y-36204000D01*
X35234476Y-36251619D01*
X35186857Y-36346857D01*
X35186857Y-36489714D01*
X35234476Y-36584952D01*
X35282095Y-36632571D01*
X35377333Y-36680190D01*
X35758285Y-36680190D01*
X34805904Y-36251619D02*
X34758285Y-36204000D01*
X34663047Y-36156380D01*
X34424952Y-36156380D01*
X34329714Y-36204000D01*
X34282095Y-36251619D01*
X34234476Y-36346857D01*
X34234476Y-36442095D01*
X34282095Y-36584952D01*
X34853523Y-37156380D01*
X34234476Y-37156380D01*
X33377333Y-36489714D02*
X33377333Y-37156380D01*
X33615428Y-36108761D02*
X33853523Y-36823047D01*
X33234476Y-36823047D01*
G04 #@! TO.C,R25*
X42806857Y-37156380D02*
X43140190Y-36680190D01*
X43378285Y-37156380D02*
X43378285Y-36156380D01*
X42997333Y-36156380D01*
X42902095Y-36204000D01*
X42854476Y-36251619D01*
X42806857Y-36346857D01*
X42806857Y-36489714D01*
X42854476Y-36584952D01*
X42902095Y-36632571D01*
X42997333Y-36680190D01*
X43378285Y-36680190D01*
X42425904Y-36251619D02*
X42378285Y-36204000D01*
X42283047Y-36156380D01*
X42044952Y-36156380D01*
X41949714Y-36204000D01*
X41902095Y-36251619D01*
X41854476Y-36346857D01*
X41854476Y-36442095D01*
X41902095Y-36584952D01*
X42473523Y-37156380D01*
X41854476Y-37156380D01*
X40949714Y-36156380D02*
X41425904Y-36156380D01*
X41473523Y-36632571D01*
X41425904Y-36584952D01*
X41330666Y-36537333D01*
X41092571Y-36537333D01*
X40997333Y-36584952D01*
X40949714Y-36632571D01*
X40902095Y-36727809D01*
X40902095Y-36965904D01*
X40949714Y-37061142D01*
X40997333Y-37108761D01*
X41092571Y-37156380D01*
X41330666Y-37156380D01*
X41425904Y-37108761D01*
X41473523Y-37061142D01*
G04 #@! TO.C,R26*
X50426857Y-37156380D02*
X50760190Y-36680190D01*
X50998285Y-37156380D02*
X50998285Y-36156380D01*
X50617333Y-36156380D01*
X50522095Y-36204000D01*
X50474476Y-36251619D01*
X50426857Y-36346857D01*
X50426857Y-36489714D01*
X50474476Y-36584952D01*
X50522095Y-36632571D01*
X50617333Y-36680190D01*
X50998285Y-36680190D01*
X50045904Y-36251619D02*
X49998285Y-36204000D01*
X49903047Y-36156380D01*
X49664952Y-36156380D01*
X49569714Y-36204000D01*
X49522095Y-36251619D01*
X49474476Y-36346857D01*
X49474476Y-36442095D01*
X49522095Y-36584952D01*
X50093523Y-37156380D01*
X49474476Y-37156380D01*
X48617333Y-36156380D02*
X48807809Y-36156380D01*
X48903047Y-36204000D01*
X48950666Y-36251619D01*
X49045904Y-36394476D01*
X49093523Y-36584952D01*
X49093523Y-36965904D01*
X49045904Y-37061142D01*
X48998285Y-37108761D01*
X48903047Y-37156380D01*
X48712571Y-37156380D01*
X48617333Y-37108761D01*
X48569714Y-37061142D01*
X48522095Y-36965904D01*
X48522095Y-36727809D01*
X48569714Y-36632571D01*
X48617333Y-36584952D01*
X48712571Y-36537333D01*
X48903047Y-36537333D01*
X48998285Y-36584952D01*
X49045904Y-36632571D01*
X49093523Y-36727809D01*
G04 #@! TO.C,R27*
X60586857Y-37156380D02*
X60920190Y-36680190D01*
X61158285Y-37156380D02*
X61158285Y-36156380D01*
X60777333Y-36156380D01*
X60682095Y-36204000D01*
X60634476Y-36251619D01*
X60586857Y-36346857D01*
X60586857Y-36489714D01*
X60634476Y-36584952D01*
X60682095Y-36632571D01*
X60777333Y-36680190D01*
X61158285Y-36680190D01*
X60205904Y-36251619D02*
X60158285Y-36204000D01*
X60063047Y-36156380D01*
X59824952Y-36156380D01*
X59729714Y-36204000D01*
X59682095Y-36251619D01*
X59634476Y-36346857D01*
X59634476Y-36442095D01*
X59682095Y-36584952D01*
X60253523Y-37156380D01*
X59634476Y-37156380D01*
X59301142Y-36156380D02*
X58634476Y-36156380D01*
X59063047Y-37156380D01*
G04 #@! TO.C,R28*
X68206857Y-37156380D02*
X68540190Y-36680190D01*
X68778285Y-37156380D02*
X68778285Y-36156380D01*
X68397333Y-36156380D01*
X68302095Y-36204000D01*
X68254476Y-36251619D01*
X68206857Y-36346857D01*
X68206857Y-36489714D01*
X68254476Y-36584952D01*
X68302095Y-36632571D01*
X68397333Y-36680190D01*
X68778285Y-36680190D01*
X67825904Y-36251619D02*
X67778285Y-36204000D01*
X67683047Y-36156380D01*
X67444952Y-36156380D01*
X67349714Y-36204000D01*
X67302095Y-36251619D01*
X67254476Y-36346857D01*
X67254476Y-36442095D01*
X67302095Y-36584952D01*
X67873523Y-37156380D01*
X67254476Y-37156380D01*
X66683047Y-36584952D02*
X66778285Y-36537333D01*
X66825904Y-36489714D01*
X66873523Y-36394476D01*
X66873523Y-36346857D01*
X66825904Y-36251619D01*
X66778285Y-36204000D01*
X66683047Y-36156380D01*
X66492571Y-36156380D01*
X66397333Y-36204000D01*
X66349714Y-36251619D01*
X66302095Y-36346857D01*
X66302095Y-36394476D01*
X66349714Y-36489714D01*
X66397333Y-36537333D01*
X66492571Y-36584952D01*
X66683047Y-36584952D01*
X66778285Y-36632571D01*
X66825904Y-36680190D01*
X66873523Y-36775428D01*
X66873523Y-36965904D01*
X66825904Y-37061142D01*
X66778285Y-37108761D01*
X66683047Y-37156380D01*
X66492571Y-37156380D01*
X66397333Y-37108761D01*
X66349714Y-37061142D01*
X66302095Y-36965904D01*
X66302095Y-36775428D01*
X66349714Y-36680190D01*
X66397333Y-36632571D01*
X66492571Y-36584952D01*
G04 #@! TO.C,R29*
X75826857Y-37156380D02*
X76160190Y-36680190D01*
X76398285Y-37156380D02*
X76398285Y-36156380D01*
X76017333Y-36156380D01*
X75922095Y-36204000D01*
X75874476Y-36251619D01*
X75826857Y-36346857D01*
X75826857Y-36489714D01*
X75874476Y-36584952D01*
X75922095Y-36632571D01*
X76017333Y-36680190D01*
X76398285Y-36680190D01*
X75445904Y-36251619D02*
X75398285Y-36204000D01*
X75303047Y-36156380D01*
X75064952Y-36156380D01*
X74969714Y-36204000D01*
X74922095Y-36251619D01*
X74874476Y-36346857D01*
X74874476Y-36442095D01*
X74922095Y-36584952D01*
X75493523Y-37156380D01*
X74874476Y-37156380D01*
X74398285Y-37156380D02*
X74207809Y-37156380D01*
X74112571Y-37108761D01*
X74064952Y-37061142D01*
X73969714Y-36918285D01*
X73922095Y-36727809D01*
X73922095Y-36346857D01*
X73969714Y-36251619D01*
X74017333Y-36204000D01*
X74112571Y-36156380D01*
X74303047Y-36156380D01*
X74398285Y-36204000D01*
X74445904Y-36251619D01*
X74493523Y-36346857D01*
X74493523Y-36584952D01*
X74445904Y-36680190D01*
X74398285Y-36727809D01*
X74303047Y-36775428D01*
X74112571Y-36775428D01*
X74017333Y-36727809D01*
X73969714Y-36680190D01*
X73922095Y-36584952D01*
G04 #@! TO.C,R30*
X83446857Y-37156380D02*
X83780190Y-36680190D01*
X84018285Y-37156380D02*
X84018285Y-36156380D01*
X83637333Y-36156380D01*
X83542095Y-36204000D01*
X83494476Y-36251619D01*
X83446857Y-36346857D01*
X83446857Y-36489714D01*
X83494476Y-36584952D01*
X83542095Y-36632571D01*
X83637333Y-36680190D01*
X84018285Y-36680190D01*
X83113523Y-36156380D02*
X82494476Y-36156380D01*
X82827809Y-36537333D01*
X82684952Y-36537333D01*
X82589714Y-36584952D01*
X82542095Y-36632571D01*
X82494476Y-36727809D01*
X82494476Y-36965904D01*
X82542095Y-37061142D01*
X82589714Y-37108761D01*
X82684952Y-37156380D01*
X82970666Y-37156380D01*
X83065904Y-37108761D01*
X83113523Y-37061142D01*
X81875428Y-36156380D02*
X81780190Y-36156380D01*
X81684952Y-36204000D01*
X81637333Y-36251619D01*
X81589714Y-36346857D01*
X81542095Y-36537333D01*
X81542095Y-36775428D01*
X81589714Y-36965904D01*
X81637333Y-37061142D01*
X81684952Y-37108761D01*
X81780190Y-37156380D01*
X81875428Y-37156380D01*
X81970666Y-37108761D01*
X82018285Y-37061142D01*
X82065904Y-36965904D01*
X82113523Y-36775428D01*
X82113523Y-36537333D01*
X82065904Y-36346857D01*
X82018285Y-36251619D01*
X81970666Y-36204000D01*
X81875428Y-36156380D01*
G04 #@! TO.C,R31*
X27566857Y-15566380D02*
X27900190Y-15090190D01*
X28138285Y-15566380D02*
X28138285Y-14566380D01*
X27757333Y-14566380D01*
X27662095Y-14614000D01*
X27614476Y-14661619D01*
X27566857Y-14756857D01*
X27566857Y-14899714D01*
X27614476Y-14994952D01*
X27662095Y-15042571D01*
X27757333Y-15090190D01*
X28138285Y-15090190D01*
X27233523Y-14566380D02*
X26614476Y-14566380D01*
X26947809Y-14947333D01*
X26804952Y-14947333D01*
X26709714Y-14994952D01*
X26662095Y-15042571D01*
X26614476Y-15137809D01*
X26614476Y-15375904D01*
X26662095Y-15471142D01*
X26709714Y-15518761D01*
X26804952Y-15566380D01*
X27090666Y-15566380D01*
X27185904Y-15518761D01*
X27233523Y-15471142D01*
X25662095Y-15566380D02*
X26233523Y-15566380D01*
X25947809Y-15566380D02*
X25947809Y-14566380D01*
X26043047Y-14709238D01*
X26138285Y-14804476D01*
X26233523Y-14852095D01*
G04 #@! TO.C,R32*
X35186857Y-15566380D02*
X35520190Y-15090190D01*
X35758285Y-15566380D02*
X35758285Y-14566380D01*
X35377333Y-14566380D01*
X35282095Y-14614000D01*
X35234476Y-14661619D01*
X35186857Y-14756857D01*
X35186857Y-14899714D01*
X35234476Y-14994952D01*
X35282095Y-15042571D01*
X35377333Y-15090190D01*
X35758285Y-15090190D01*
X34853523Y-14566380D02*
X34234476Y-14566380D01*
X34567809Y-14947333D01*
X34424952Y-14947333D01*
X34329714Y-14994952D01*
X34282095Y-15042571D01*
X34234476Y-15137809D01*
X34234476Y-15375904D01*
X34282095Y-15471142D01*
X34329714Y-15518761D01*
X34424952Y-15566380D01*
X34710666Y-15566380D01*
X34805904Y-15518761D01*
X34853523Y-15471142D01*
X33853523Y-14661619D02*
X33805904Y-14614000D01*
X33710666Y-14566380D01*
X33472571Y-14566380D01*
X33377333Y-14614000D01*
X33329714Y-14661619D01*
X33282095Y-14756857D01*
X33282095Y-14852095D01*
X33329714Y-14994952D01*
X33901142Y-15566380D01*
X33282095Y-15566380D01*
G04 #@! TO.C,R33*
X42806857Y-15566380D02*
X43140190Y-15090190D01*
X43378285Y-15566380D02*
X43378285Y-14566380D01*
X42997333Y-14566380D01*
X42902095Y-14614000D01*
X42854476Y-14661619D01*
X42806857Y-14756857D01*
X42806857Y-14899714D01*
X42854476Y-14994952D01*
X42902095Y-15042571D01*
X42997333Y-15090190D01*
X43378285Y-15090190D01*
X42473523Y-14566380D02*
X41854476Y-14566380D01*
X42187809Y-14947333D01*
X42044952Y-14947333D01*
X41949714Y-14994952D01*
X41902095Y-15042571D01*
X41854476Y-15137809D01*
X41854476Y-15375904D01*
X41902095Y-15471142D01*
X41949714Y-15518761D01*
X42044952Y-15566380D01*
X42330666Y-15566380D01*
X42425904Y-15518761D01*
X42473523Y-15471142D01*
X41521142Y-14566380D02*
X40902095Y-14566380D01*
X41235428Y-14947333D01*
X41092571Y-14947333D01*
X40997333Y-14994952D01*
X40949714Y-15042571D01*
X40902095Y-15137809D01*
X40902095Y-15375904D01*
X40949714Y-15471142D01*
X40997333Y-15518761D01*
X41092571Y-15566380D01*
X41378285Y-15566380D01*
X41473523Y-15518761D01*
X41521142Y-15471142D01*
G04 #@! TO.C,R34*
X50426857Y-15566380D02*
X50760190Y-15090190D01*
X50998285Y-15566380D02*
X50998285Y-14566380D01*
X50617333Y-14566380D01*
X50522095Y-14614000D01*
X50474476Y-14661619D01*
X50426857Y-14756857D01*
X50426857Y-14899714D01*
X50474476Y-14994952D01*
X50522095Y-15042571D01*
X50617333Y-15090190D01*
X50998285Y-15090190D01*
X50093523Y-14566380D02*
X49474476Y-14566380D01*
X49807809Y-14947333D01*
X49664952Y-14947333D01*
X49569714Y-14994952D01*
X49522095Y-15042571D01*
X49474476Y-15137809D01*
X49474476Y-15375904D01*
X49522095Y-15471142D01*
X49569714Y-15518761D01*
X49664952Y-15566380D01*
X49950666Y-15566380D01*
X50045904Y-15518761D01*
X50093523Y-15471142D01*
X48617333Y-14899714D02*
X48617333Y-15566380D01*
X48855428Y-14518761D02*
X49093523Y-15233047D01*
X48474476Y-15233047D01*
G04 #@! TO.C,R35*
X60586857Y-15566380D02*
X60920190Y-15090190D01*
X61158285Y-15566380D02*
X61158285Y-14566380D01*
X60777333Y-14566380D01*
X60682095Y-14614000D01*
X60634476Y-14661619D01*
X60586857Y-14756857D01*
X60586857Y-14899714D01*
X60634476Y-14994952D01*
X60682095Y-15042571D01*
X60777333Y-15090190D01*
X61158285Y-15090190D01*
X60253523Y-14566380D02*
X59634476Y-14566380D01*
X59967809Y-14947333D01*
X59824952Y-14947333D01*
X59729714Y-14994952D01*
X59682095Y-15042571D01*
X59634476Y-15137809D01*
X59634476Y-15375904D01*
X59682095Y-15471142D01*
X59729714Y-15518761D01*
X59824952Y-15566380D01*
X60110666Y-15566380D01*
X60205904Y-15518761D01*
X60253523Y-15471142D01*
X58729714Y-14566380D02*
X59205904Y-14566380D01*
X59253523Y-15042571D01*
X59205904Y-14994952D01*
X59110666Y-14947333D01*
X58872571Y-14947333D01*
X58777333Y-14994952D01*
X58729714Y-15042571D01*
X58682095Y-15137809D01*
X58682095Y-15375904D01*
X58729714Y-15471142D01*
X58777333Y-15518761D01*
X58872571Y-15566380D01*
X59110666Y-15566380D01*
X59205904Y-15518761D01*
X59253523Y-15471142D01*
G04 #@! TO.C,R36*
X68206857Y-15566380D02*
X68540190Y-15090190D01*
X68778285Y-15566380D02*
X68778285Y-14566380D01*
X68397333Y-14566380D01*
X68302095Y-14614000D01*
X68254476Y-14661619D01*
X68206857Y-14756857D01*
X68206857Y-14899714D01*
X68254476Y-14994952D01*
X68302095Y-15042571D01*
X68397333Y-15090190D01*
X68778285Y-15090190D01*
X67873523Y-14566380D02*
X67254476Y-14566380D01*
X67587809Y-14947333D01*
X67444952Y-14947333D01*
X67349714Y-14994952D01*
X67302095Y-15042571D01*
X67254476Y-15137809D01*
X67254476Y-15375904D01*
X67302095Y-15471142D01*
X67349714Y-15518761D01*
X67444952Y-15566380D01*
X67730666Y-15566380D01*
X67825904Y-15518761D01*
X67873523Y-15471142D01*
X66397333Y-14566380D02*
X66587809Y-14566380D01*
X66683047Y-14614000D01*
X66730666Y-14661619D01*
X66825904Y-14804476D01*
X66873523Y-14994952D01*
X66873523Y-15375904D01*
X66825904Y-15471142D01*
X66778285Y-15518761D01*
X66683047Y-15566380D01*
X66492571Y-15566380D01*
X66397333Y-15518761D01*
X66349714Y-15471142D01*
X66302095Y-15375904D01*
X66302095Y-15137809D01*
X66349714Y-15042571D01*
X66397333Y-14994952D01*
X66492571Y-14947333D01*
X66683047Y-14947333D01*
X66778285Y-14994952D01*
X66825904Y-15042571D01*
X66873523Y-15137809D01*
G04 #@! TO.C,R37*
X75826857Y-15566380D02*
X76160190Y-15090190D01*
X76398285Y-15566380D02*
X76398285Y-14566380D01*
X76017333Y-14566380D01*
X75922095Y-14614000D01*
X75874476Y-14661619D01*
X75826857Y-14756857D01*
X75826857Y-14899714D01*
X75874476Y-14994952D01*
X75922095Y-15042571D01*
X76017333Y-15090190D01*
X76398285Y-15090190D01*
X75493523Y-14566380D02*
X74874476Y-14566380D01*
X75207809Y-14947333D01*
X75064952Y-14947333D01*
X74969714Y-14994952D01*
X74922095Y-15042571D01*
X74874476Y-15137809D01*
X74874476Y-15375904D01*
X74922095Y-15471142D01*
X74969714Y-15518761D01*
X75064952Y-15566380D01*
X75350666Y-15566380D01*
X75445904Y-15518761D01*
X75493523Y-15471142D01*
X74541142Y-14566380D02*
X73874476Y-14566380D01*
X74303047Y-15566380D01*
G04 #@! TO.C,R38*
X83446857Y-15566380D02*
X83780190Y-15090190D01*
X84018285Y-15566380D02*
X84018285Y-14566380D01*
X83637333Y-14566380D01*
X83542095Y-14614000D01*
X83494476Y-14661619D01*
X83446857Y-14756857D01*
X83446857Y-14899714D01*
X83494476Y-14994952D01*
X83542095Y-15042571D01*
X83637333Y-15090190D01*
X84018285Y-15090190D01*
X83113523Y-14566380D02*
X82494476Y-14566380D01*
X82827809Y-14947333D01*
X82684952Y-14947333D01*
X82589714Y-14994952D01*
X82542095Y-15042571D01*
X82494476Y-15137809D01*
X82494476Y-15375904D01*
X82542095Y-15471142D01*
X82589714Y-15518761D01*
X82684952Y-15566380D01*
X82970666Y-15566380D01*
X83065904Y-15518761D01*
X83113523Y-15471142D01*
X81923047Y-14994952D02*
X82018285Y-14947333D01*
X82065904Y-14899714D01*
X82113523Y-14804476D01*
X82113523Y-14756857D01*
X82065904Y-14661619D01*
X82018285Y-14614000D01*
X81923047Y-14566380D01*
X81732571Y-14566380D01*
X81637333Y-14614000D01*
X81589714Y-14661619D01*
X81542095Y-14756857D01*
X81542095Y-14804476D01*
X81589714Y-14899714D01*
X81637333Y-14947333D01*
X81732571Y-14994952D01*
X81923047Y-14994952D01*
X82018285Y-15042571D01*
X82065904Y-15090190D01*
X82113523Y-15185428D01*
X82113523Y-15375904D01*
X82065904Y-15471142D01*
X82018285Y-15518761D01*
X81923047Y-15566380D01*
X81732571Y-15566380D01*
X81637333Y-15518761D01*
X81589714Y-15471142D01*
X81542095Y-15375904D01*
X81542095Y-15185428D01*
X81589714Y-15090190D01*
X81637333Y-15042571D01*
X81732571Y-14994952D01*
G04 #@! TO.C,J2*
X103128380Y-41068666D02*
X103842666Y-41068666D01*
X103985523Y-41021047D01*
X104080761Y-40925809D01*
X104128380Y-40782952D01*
X104128380Y-40687714D01*
X103223619Y-41497238D02*
X103176000Y-41544857D01*
X103128380Y-41640095D01*
X103128380Y-41878190D01*
X103176000Y-41973428D01*
X103223619Y-42021047D01*
X103318857Y-42068666D01*
X103414095Y-42068666D01*
X103556952Y-42021047D01*
X104128380Y-41449619D01*
X104128380Y-42068666D01*
G04 #@! TO.C,J3*
X103128380Y-38528666D02*
X103842666Y-38528666D01*
X103985523Y-38481047D01*
X104080761Y-38385809D01*
X104128380Y-38242952D01*
X104128380Y-38147714D01*
X103128380Y-38909619D02*
X103128380Y-39528666D01*
X103509333Y-39195333D01*
X103509333Y-39338190D01*
X103556952Y-39433428D01*
X103604571Y-39481047D01*
X103699809Y-39528666D01*
X103937904Y-39528666D01*
X104033142Y-39481047D01*
X104080761Y-39433428D01*
X104128380Y-39338190D01*
X104128380Y-39052476D01*
X104080761Y-38957238D01*
X104033142Y-38909619D01*
G04 #@! TO.C,J6*
X94059333Y-81030380D02*
X94059333Y-81744666D01*
X94106952Y-81887523D01*
X94202190Y-81982761D01*
X94345047Y-82030380D01*
X94440285Y-82030380D01*
X93154571Y-81030380D02*
X93345047Y-81030380D01*
X93440285Y-81078000D01*
X93487904Y-81125619D01*
X93583142Y-81268476D01*
X93630761Y-81458952D01*
X93630761Y-81839904D01*
X93583142Y-81935142D01*
X93535523Y-81982761D01*
X93440285Y-82030380D01*
X93249809Y-82030380D01*
X93154571Y-81982761D01*
X93106952Y-81935142D01*
X93059333Y-81839904D01*
X93059333Y-81601809D01*
X93106952Y-81506571D01*
X93154571Y-81458952D01*
X93249809Y-81411333D01*
X93440285Y-81411333D01*
X93535523Y-81458952D01*
X93583142Y-81506571D01*
X93630761Y-81601809D01*
G04 #@! TD*
M02*
