M48
;DRILL file {KiCad (5.0.2)-1} date 9/25/2019 8:11:14 PM
;FORMAT={-:-/ absolute / inch / decimal}
FMAT,2
INCH,TZ
T1C0.0250
T2C0.0354
T3C0.0394
T4C0.0433
T5C0.1510
%
G90
G05
T1
X1.01Y-2.2
X1.02Y-0.55
X1.02Y-1.45
X1.025Y-2.95
X1.31Y-2.2
X1.32Y-0.5875
X1.32Y-1.45
X1.32Y-2.95
X1.4272Y-1.877
X1.4272Y-2.63
X1.4272Y-3.38
X1.43Y-1.06
X1.61Y-0.57
X1.62Y-1.44
X1.62Y-2.2
X1.62Y-2.95
X1.7272Y-1.9
X1.7272Y-2.65
X1.7272Y-3.42
X1.73Y-1.0525
X1.92Y-0.5555
X1.92Y-1.44
X1.92Y-2.19
X1.92Y-2.95
X2.0272Y-1.909
X2.0272Y-2.66
X2.03Y-1.08
X2.03Y-3.41
X2.3196Y-0.5395
X2.32Y-1.4295
X2.32Y-2.1995
X2.32Y-2.95
X2.4272Y-1.925
X2.4272Y-2.68
X2.4272Y-3.425
X2.43Y-1.1
X2.6Y-0.5235
X2.62Y-1.4095
X2.62Y-2.1795
X2.62Y-2.94
X2.7272Y-1.941
X2.7272Y-2.691
X2.7272Y-3.441
X2.73Y-1.1125
X2.87Y-2.9195
X2.91Y-0.48
X2.91Y-2.1595
X2.92Y-1.38
X3.21Y-0.49
X3.22Y-1.3695
X3.22Y-2.1395
X3.225Y-2.9035
X3.3969Y-2.889
X3.525Y-2.925
X3.56Y-3.53
X3.58Y-1.22
X3.58Y-2.81
X3.59Y-2.09
X3.59Y-2.22
X3.65Y-2.41
X3.74Y-2.19
X3.7416Y-2.3484
X3.77Y-1.0325
X3.78Y-2.07
X3.81Y-3.1
X3.8134Y-2.6266
X3.8167Y-1.8898
X3.8283Y-1.1442
X3.84Y-2.77
X3.85Y-2.47
X3.85Y-3.49
X3.86Y-3.303
X3.86Y-3.4252
X3.87Y-0.98
X3.87Y-1.0875
X3.87Y-1.84
X3.87Y-1.933
X3.87Y-1.994
X3.87Y-2.15
X3.87Y-2.5905
X3.87Y-2.6709
X3.87Y-2.7319
X3.87Y-2.9
X3.87Y-3.3642
X3.875Y-1.712
X4.0091Y-3.3337
X4.0095Y-2.0874
X4.01Y-1.87
X4.01Y-1.92
X4.01Y-1.965
X4.01Y-2.02
X4.01Y-2.71
X4.01Y-3.44
X4.02Y-1.01
X4.02Y-1.055
X4.02Y-1.1
X4.02Y-1.16
X4.02Y-1.3
X4.02Y-2.56
X4.02Y-2.61
X4.02Y-2.66
X4.02Y-2.8501
X4.02Y-3.29
X4.02Y-3.39
X4.03Y-1.8
X4.03Y-2.16
X4.0309Y-2.8937
X4.0495Y-1.34
X4.05Y-3.55
X4.06Y-2.49
X4.0616Y-2.1216
X4.08Y-1.24
X4.09Y-1.74
X4.0921Y-2.87
T2
X2.6Y-3.1
X2.7Y-3.1
X1.6Y-1.6
X1.7Y-1.6
X1.6Y-0.75
X1.7Y-0.75
X1.9Y-2.35
X2.Y-2.35
X1.9Y-3.1
X2.Y-3.1
X1.Y-1.6
X1.1Y-1.6
X1.3Y-0.75
X1.4Y-0.75
X1.9Y-1.6
X2.Y-1.6
X2.9Y-0.75
X3.Y-0.75
X1.6Y-3.1
X1.7Y-3.1
X2.9Y-2.35
X3.Y-2.35
X1.3Y-1.6
X1.4Y-1.6
X3.2Y-2.35
X3.3Y-2.35
X1.3Y-3.1
X1.4Y-3.1
X1.Y-3.1
X1.1Y-3.1
X2.6Y-2.35
X2.7Y-2.35
X1.Y-0.75
X1.1Y-0.75
X3.2Y-3.1
X3.3Y-3.1
X1.3Y-2.35
X1.4Y-2.35
X2.3Y-2.35
X2.4Y-2.35
X3.2Y-1.6
X3.3Y-1.6
X2.6Y-0.75
X2.7Y-0.75
X2.9Y-3.1
X3.Y-3.1
X1.9Y-0.75
X2.Y-0.75
X2.9Y-1.6
X3.Y-1.6
X2.3Y-0.75
X2.4Y-0.75
X2.3Y-3.1
X2.4Y-3.1
X1.Y-2.35
X1.1Y-2.35
X2.3Y-1.6
X2.4Y-1.6
X1.6Y-2.35
X1.7Y-2.35
X2.6Y-1.6
X2.7Y-1.6
X3.2Y-0.75
X3.3Y-0.75
T3
X3.69Y-1.53
X3.79Y-1.53
X3.89Y-1.53
X3.99Y-1.53
X3.5525Y-3.65
X3.5525Y-3.75
X3.59Y-1.63
X3.69Y-1.63
X3.79Y-1.63
X3.89Y-1.63
X3.99Y-1.63
X3.64Y-3.02
X3.64Y-3.12
X3.74Y-3.02
X3.74Y-3.12
T4
X1.25Y-3.2941
X1.25Y-3.55
X1.4272Y-3.2941
X1.4272Y-3.55
X2.55Y-1.7941
X2.55Y-2.05
X2.7272Y-1.7941
X2.7272Y-2.05
X0.95Y-2.5441
X0.95Y-2.8
X1.1272Y-2.5441
X1.1272Y-2.8
X0.95Y-1.7941
X0.95Y-2.05
X1.1272Y-1.7941
X1.1272Y-2.05
X2.55Y-3.2941
X2.55Y-3.55
X2.7272Y-3.2941
X2.7272Y-3.55
X1.85Y-0.9441
X1.85Y-1.2
X2.0272Y-0.9441
X2.0272Y-1.2
X2.25Y-3.2941
X2.25Y-3.55
X2.4272Y-3.2941
X2.4272Y-3.55
X1.85Y-2.5441
X1.85Y-2.8
X2.0272Y-2.5441
X2.0272Y-2.8
X1.55Y-3.2941
X1.55Y-3.55
X1.7272Y-3.2941
X1.7272Y-3.55
X2.55Y-2.5441
X2.55Y-2.8
X2.7272Y-2.5441
X2.7272Y-2.8
X2.85Y-3.2941
X2.85Y-3.55
X3.0272Y-3.2941
X3.0272Y-3.55
X3.15Y-2.5441
X3.15Y-2.8
X3.3272Y-2.5441
X3.3272Y-2.8
X1.55Y-0.9441
X1.55Y-1.2
X1.7272Y-0.9441
X1.7272Y-1.2
X3.15Y-0.9441
X3.15Y-1.2
X3.3272Y-0.9441
X3.3272Y-1.2
X2.25Y-1.7941
X2.25Y-2.05
X2.4272Y-1.7941
X2.4272Y-2.05
X1.85Y-3.2941
X1.85Y-3.55
X2.0272Y-3.2941
X2.0272Y-3.55
X1.85Y-1.7941
X1.85Y-2.05
X2.0272Y-1.7941
X2.0272Y-2.05
X1.55Y-1.7941
X1.55Y-2.05
X1.7272Y-1.7941
X1.7272Y-2.05
X2.85Y-0.9441
X2.85Y-1.2
X3.0272Y-0.9441
X3.0272Y-1.2
X1.55Y-2.5441
X1.55Y-2.8
X1.7272Y-2.5441
X1.7272Y-2.8
X2.25Y-2.5441
X2.25Y-2.8
X2.4272Y-2.5441
X2.4272Y-2.8
X2.25Y-0.9441
X2.25Y-1.2
X2.4272Y-0.9441
X2.4272Y-1.2
X2.85Y-2.5441
X2.85Y-2.8
X3.0272Y-2.5441
X3.0272Y-2.8
X3.15Y-3.2941
X3.15Y-3.55
X3.3272Y-3.2941
X3.3272Y-3.55
X3.15Y-1.7941
X3.15Y-2.05
X3.3272Y-1.7941
X3.3272Y-2.05
X2.85Y-1.7941
X2.85Y-2.05
X3.0272Y-1.7941
X3.0272Y-2.05
X1.25Y-1.7941
X1.25Y-2.05
X1.4272Y-1.7941
X1.4272Y-2.05
X1.25Y-2.5441
X1.25Y-2.8
X1.4272Y-2.5441
X1.4272Y-2.8
X0.95Y-0.9441
X0.95Y-1.2
X1.1272Y-0.9441
X1.1272Y-1.2
X0.95Y-3.2941
X0.95Y-3.55
X1.1272Y-3.2941
X1.1272Y-3.55
X1.25Y-0.9441
X1.25Y-1.2
X1.4272Y-0.9441
X1.4272Y-1.2
X2.55Y-0.9441
X2.55Y-1.2
X2.7272Y-0.9441
X2.7272Y-1.2
T5
X3.8976Y-0.6299
X0.6299Y-3.8976
X0.6299Y-0.6299
X3.8976Y-3.8976
T0
M30
