%TF.GenerationSoftware,KiCad,Pcbnew,(5.1.10-1-10_14)*%
%TF.CreationDate,2021-10-31T20:24:47+01:00*%
%TF.ProjectId,planck_board,706c616e-636b-45f6-926f-6172642e6b69,rev?*%
%TF.SameCoordinates,Original*%
%TF.FileFunction,Legend,Bot*%
%TF.FilePolarity,Positive*%
%FSLAX46Y46*%
G04 Gerber Fmt 4.6, Leading zero omitted, Abs format (unit mm)*
G04 Created by KiCad (PCBNEW (5.1.10-1-10_14)) date 2021-10-31 20:24:47*
%MOMM*%
%LPD*%
G01*
G04 APERTURE LIST*
%ADD10C,0.150000*%
G04 APERTURE END LIST*
D10*
X80632166Y33331095D02*
X80365500Y32531095D01*
X80098833Y33331095D01*
X79375023Y32607285D02*
X79413119Y32569190D01*
X79527404Y32531095D01*
X79603595Y32531095D01*
X79717880Y32569190D01*
X79794071Y32645380D01*
X79832166Y32721571D01*
X79870261Y32873952D01*
X79870261Y32988238D01*
X79832166Y33140619D01*
X79794071Y33216809D01*
X79717880Y33293000D01*
X79603595Y33331095D01*
X79527404Y33331095D01*
X79413119Y33293000D01*
X79375023Y33254904D01*
X78575023Y32607285D02*
X78613119Y32569190D01*
X78727404Y32531095D01*
X78803595Y32531095D01*
X78917880Y32569190D01*
X78994071Y32645380D01*
X79032166Y32721571D01*
X79070261Y32873952D01*
X79070261Y32988238D01*
X79032166Y33140619D01*
X78994071Y33216809D01*
X78917880Y33293000D01*
X78803595Y33331095D01*
X78727404Y33331095D01*
X78613119Y33293000D01*
X78575023Y33254904D01*
X80175023Y30753000D02*
X80251214Y30791095D01*
X80365500Y30791095D01*
X80479785Y30753000D01*
X80555976Y30676809D01*
X80594071Y30600619D01*
X80632166Y30448238D01*
X80632166Y30333952D01*
X80594071Y30181571D01*
X80555976Y30105380D01*
X80479785Y30029190D01*
X80365500Y29991095D01*
X80289309Y29991095D01*
X80175023Y30029190D01*
X80136928Y30067285D01*
X80136928Y30333952D01*
X80289309Y30333952D01*
X79794071Y29991095D02*
X79794071Y30791095D01*
X79336928Y29991095D01*
X79336928Y30791095D01*
X78955976Y29991095D02*
X78955976Y30791095D01*
X78765500Y30791095D01*
X78651214Y30753000D01*
X78575023Y30676809D01*
X78536928Y30600619D01*
X78498833Y30448238D01*
X78498833Y30333952D01*
X78536928Y30181571D01*
X78575023Y30105380D01*
X78651214Y30029190D01*
X78765500Y29991095D01*
X78955976Y29991095D01*
X1943023Y30753000D02*
X2019214Y30791095D01*
X2133500Y30791095D01*
X2247785Y30753000D01*
X2323976Y30676809D01*
X2362071Y30600619D01*
X2400166Y30448238D01*
X2400166Y30333952D01*
X2362071Y30181571D01*
X2323976Y30105380D01*
X2247785Y30029190D01*
X2133500Y29991095D01*
X2057309Y29991095D01*
X1943023Y30029190D01*
X1904928Y30067285D01*
X1904928Y30333952D01*
X2057309Y30333952D01*
X1562071Y29991095D02*
X1562071Y30791095D01*
X1104928Y29991095D01*
X1104928Y30791095D01*
X723976Y29991095D02*
X723976Y30791095D01*
X533500Y30791095D01*
X419214Y30753000D01*
X343023Y30676809D01*
X304928Y30600619D01*
X266833Y30448238D01*
X266833Y30333952D01*
X304928Y30181571D01*
X343023Y30105380D01*
X419214Y30029190D01*
X533500Y29991095D01*
X723976Y29991095D01*
X2400166Y33331095D02*
X2133500Y32531095D01*
X1866833Y33331095D01*
X1143023Y32607285D02*
X1181119Y32569190D01*
X1295404Y32531095D01*
X1371595Y32531095D01*
X1485880Y32569190D01*
X1562071Y32645380D01*
X1600166Y32721571D01*
X1638261Y32873952D01*
X1638261Y32988238D01*
X1600166Y33140619D01*
X1562071Y33216809D01*
X1485880Y33293000D01*
X1371595Y33331095D01*
X1295404Y33331095D01*
X1181119Y33293000D01*
X1143023Y33254904D01*
X343023Y32607285D02*
X381119Y32569190D01*
X495404Y32531095D01*
X571595Y32531095D01*
X685880Y32569190D01*
X762071Y32645380D01*
X800166Y32721571D01*
X838261Y32873952D01*
X838261Y32988238D01*
X800166Y33140619D01*
X762071Y33216809D01*
X685880Y33293000D01*
X571595Y33331095D01*
X495404Y33331095D01*
X381119Y33293000D01*
X343023Y33254904D01*
X18421214Y9280000D02*
X17621214Y9280000D01*
X17773595Y8147095D02*
X18040261Y8528047D01*
X18230738Y8147095D02*
X18230738Y8947095D01*
X17925976Y8947095D01*
X17849785Y8909000D01*
X17811690Y8870904D01*
X17773595Y8794714D01*
X17773595Y8680428D01*
X17811690Y8604238D01*
X17849785Y8566142D01*
X17925976Y8528047D01*
X18230738Y8528047D01*
X17621214Y9280000D02*
X16859309Y9280000D01*
X17468833Y8185190D02*
X17354547Y8147095D01*
X17164071Y8147095D01*
X17087880Y8185190D01*
X17049785Y8223285D01*
X17011690Y8299476D01*
X17011690Y8375666D01*
X17049785Y8451857D01*
X17087880Y8489952D01*
X17164071Y8528047D01*
X17316452Y8566142D01*
X17392642Y8604238D01*
X17430738Y8642333D01*
X17468833Y8718523D01*
X17468833Y8794714D01*
X17430738Y8870904D01*
X17392642Y8909000D01*
X17316452Y8947095D01*
X17125976Y8947095D01*
X17011690Y8909000D01*
X16859309Y9280000D02*
X16249785Y9280000D01*
X16783119Y8947095D02*
X16325976Y8947095D01*
X16554547Y8147095D02*
X16554547Y8947095D01*
X25165023Y8147095D02*
X25431690Y8528047D01*
X25622166Y8147095D02*
X25622166Y8947095D01*
X25317404Y8947095D01*
X25241214Y8909000D01*
X25203119Y8870904D01*
X25165023Y8794714D01*
X25165023Y8680428D01*
X25203119Y8604238D01*
X25241214Y8566142D01*
X25317404Y8528047D01*
X25622166Y8528047D01*
X25012642Y9280000D02*
X24098357Y9280000D01*
X24898357Y8947095D02*
X24707880Y8147095D01*
X24555500Y8718523D01*
X24403119Y8147095D01*
X24212642Y8947095D01*
X27971690Y8223285D02*
X28009785Y8185190D01*
X28124071Y8147095D01*
X28200261Y8147095D01*
X28314547Y8185190D01*
X28390738Y8261380D01*
X28428833Y8337571D01*
X28466928Y8489952D01*
X28466928Y8604238D01*
X28428833Y8756619D01*
X28390738Y8832809D01*
X28314547Y8909000D01*
X28200261Y8947095D01*
X28124071Y8947095D01*
X28009785Y8909000D01*
X27971690Y8870904D01*
X27247880Y8147095D02*
X27628833Y8147095D01*
X27628833Y8947095D01*
X26981214Y8147095D02*
X26981214Y8947095D01*
X26524071Y8147095D02*
X26866928Y8604238D01*
X26524071Y8947095D02*
X26981214Y8489952D01*
X61086928Y8375666D02*
X60705976Y8375666D01*
X61163119Y8147095D02*
X60896452Y8947095D01*
X60629785Y8147095D01*
X60439309Y8947095D02*
X59905976Y8947095D01*
X60248833Y8147095D01*
X53847880Y8375666D02*
X53466928Y8375666D01*
X53924071Y8147095D02*
X53657404Y8947095D01*
X53390738Y8147095D01*
X52705023Y8147095D02*
X53162166Y8147095D01*
X52933595Y8147095D02*
X52933595Y8947095D01*
X53009785Y8832809D01*
X53085976Y8756619D01*
X53162166Y8718523D01*
X52209785Y8947095D02*
X52133595Y8947095D01*
X52057404Y8909000D01*
X52019309Y8870904D01*
X51981214Y8794714D01*
X51943119Y8642333D01*
X51943119Y8451857D01*
X51981214Y8299476D01*
X52019309Y8223285D01*
X52057404Y8185190D01*
X52133595Y8147095D01*
X52209785Y8147095D01*
X52285976Y8185190D01*
X52324071Y8223285D01*
X52362166Y8299476D01*
X52400261Y8451857D01*
X52400261Y8642333D01*
X52362166Y8794714D01*
X52324071Y8870904D01*
X52285976Y8909000D01*
X52209785Y8947095D01*
X66166928Y8375666D02*
X65785976Y8375666D01*
X66243119Y8147095D02*
X65976452Y8947095D01*
X65709785Y8147095D01*
X65062166Y8947095D02*
X65443119Y8947095D01*
X65481214Y8566142D01*
X65443119Y8604238D01*
X65366928Y8642333D01*
X65176452Y8642333D01*
X65100261Y8604238D01*
X65062166Y8566142D01*
X65024071Y8489952D01*
X65024071Y8299476D01*
X65062166Y8223285D01*
X65100261Y8185190D01*
X65176452Y8147095D01*
X65366928Y8147095D01*
X65443119Y8185190D01*
X65481214Y8223285D01*
X68706928Y8375666D02*
X68325976Y8375666D01*
X68783119Y8147095D02*
X68516452Y8947095D01*
X68249785Y8147095D01*
X67640261Y8680428D02*
X67640261Y8147095D01*
X67830738Y8985190D02*
X68021214Y8413761D01*
X67525976Y8413761D01*
X73786928Y8375666D02*
X73405976Y8375666D01*
X73863119Y8147095D02*
X73596452Y8947095D01*
X73329785Y8147095D01*
X73101214Y8870904D02*
X73063119Y8909000D01*
X72986928Y8947095D01*
X72796452Y8947095D01*
X72720261Y8909000D01*
X72682166Y8870904D01*
X72644071Y8794714D01*
X72644071Y8718523D01*
X72682166Y8604238D01*
X73139309Y8147095D01*
X72644071Y8147095D01*
X78866928Y8375666D02*
X78485976Y8375666D01*
X78943119Y8147095D02*
X78676452Y8947095D01*
X78409785Y8147095D01*
X77990738Y8947095D02*
X77914547Y8947095D01*
X77838357Y8909000D01*
X77800261Y8870904D01*
X77762166Y8794714D01*
X77724071Y8642333D01*
X77724071Y8451857D01*
X77762166Y8299476D01*
X77800261Y8223285D01*
X77838357Y8185190D01*
X77914547Y8147095D01*
X77990738Y8147095D01*
X78066928Y8185190D01*
X78105023Y8223285D01*
X78143119Y8299476D01*
X78181214Y8451857D01*
X78181214Y8642333D01*
X78143119Y8794714D01*
X78105023Y8870904D01*
X78066928Y8909000D01*
X77990738Y8947095D01*
X76326928Y8375666D02*
X75945976Y8375666D01*
X76403119Y8147095D02*
X76136452Y8947095D01*
X75869785Y8147095D01*
X75184071Y8147095D02*
X75641214Y8147095D01*
X75412642Y8147095D02*
X75412642Y8947095D01*
X75488833Y8832809D01*
X75565023Y8756619D01*
X75641214Y8718523D01*
X38607880Y8375666D02*
X38226928Y8375666D01*
X38684071Y8147095D02*
X38417404Y8947095D01*
X38150738Y8147095D01*
X37465023Y8147095D02*
X37922166Y8147095D01*
X37693595Y8147095D02*
X37693595Y8947095D01*
X37769785Y8832809D01*
X37845976Y8756619D01*
X37922166Y8718523D01*
X36779309Y8680428D02*
X36779309Y8147095D01*
X36969785Y8985190D02*
X37160261Y8413761D01*
X36665023Y8413761D01*
X41147880Y8375666D02*
X40766928Y8375666D01*
X41224071Y8147095D02*
X40957404Y8947095D01*
X40690738Y8147095D01*
X40005023Y8147095D02*
X40462166Y8147095D01*
X40233595Y8147095D02*
X40233595Y8947095D01*
X40309785Y8832809D01*
X40385976Y8756619D01*
X40462166Y8718523D01*
X39738357Y8947095D02*
X39243119Y8947095D01*
X39509785Y8642333D01*
X39395500Y8642333D01*
X39319309Y8604238D01*
X39281214Y8566142D01*
X39243119Y8489952D01*
X39243119Y8299476D01*
X39281214Y8223285D01*
X39319309Y8185190D01*
X39395500Y8147095D01*
X39624071Y8147095D01*
X39700261Y8185190D01*
X39738357Y8223285D01*
X56006928Y8375666D02*
X55625976Y8375666D01*
X56083119Y8147095D02*
X55816452Y8947095D01*
X55549785Y8147095D01*
X55245023Y8147095D02*
X55092642Y8147095D01*
X55016452Y8185190D01*
X54978357Y8223285D01*
X54902166Y8337571D01*
X54864071Y8489952D01*
X54864071Y8794714D01*
X54902166Y8870904D01*
X54940261Y8909000D01*
X55016452Y8947095D01*
X55168833Y8947095D01*
X55245023Y8909000D01*
X55283119Y8870904D01*
X55321214Y8794714D01*
X55321214Y8604238D01*
X55283119Y8528047D01*
X55245023Y8489952D01*
X55168833Y8451857D01*
X55016452Y8451857D01*
X54940261Y8489952D01*
X54902166Y8528047D01*
X54864071Y8604238D01*
X58546928Y8375666D02*
X58165976Y8375666D01*
X58623119Y8147095D02*
X58356452Y8947095D01*
X58089785Y8147095D01*
X57708833Y8604238D02*
X57785023Y8642333D01*
X57823119Y8680428D01*
X57861214Y8756619D01*
X57861214Y8794714D01*
X57823119Y8870904D01*
X57785023Y8909000D01*
X57708833Y8947095D01*
X57556452Y8947095D01*
X57480261Y8909000D01*
X57442166Y8870904D01*
X57404071Y8794714D01*
X57404071Y8756619D01*
X57442166Y8680428D01*
X57480261Y8642333D01*
X57556452Y8604238D01*
X57708833Y8604238D01*
X57785023Y8566142D01*
X57823119Y8528047D01*
X57861214Y8451857D01*
X57861214Y8299476D01*
X57823119Y8223285D01*
X57785023Y8185190D01*
X57708833Y8147095D01*
X57556452Y8147095D01*
X57480261Y8185190D01*
X57442166Y8223285D01*
X57404071Y8299476D01*
X57404071Y8451857D01*
X57442166Y8528047D01*
X57480261Y8566142D01*
X57556452Y8604238D01*
X33070738Y8147095D02*
X33337404Y8528047D01*
X33527880Y8147095D02*
X33527880Y8947095D01*
X33223119Y8947095D01*
X33146928Y8909000D01*
X33108833Y8870904D01*
X33070738Y8794714D01*
X33070738Y8680428D01*
X33108833Y8604238D01*
X33146928Y8566142D01*
X33223119Y8528047D01*
X33527880Y8528047D01*
X32727880Y8147095D02*
X32727880Y8947095D01*
X32537404Y8947095D01*
X32423119Y8909000D01*
X32346928Y8832809D01*
X32308833Y8756619D01*
X32270738Y8604238D01*
X32270738Y8489952D01*
X32308833Y8337571D01*
X32346928Y8261380D01*
X32423119Y8185190D01*
X32537404Y8147095D01*
X32727880Y8147095D01*
X31775500Y8528047D02*
X31775500Y8147095D01*
X32042166Y8947095D02*
X31775500Y8528047D01*
X31508833Y8947095D01*
X36067880Y8375666D02*
X35686928Y8375666D01*
X36144071Y8147095D02*
X35877404Y8947095D01*
X35610738Y8147095D01*
X34925023Y8147095D02*
X35382166Y8147095D01*
X35153595Y8147095D02*
X35153595Y8947095D01*
X35229785Y8832809D01*
X35305976Y8756619D01*
X35382166Y8718523D01*
X34201214Y8947095D02*
X34582166Y8947095D01*
X34620261Y8566142D01*
X34582166Y8604238D01*
X34505976Y8642333D01*
X34315500Y8642333D01*
X34239309Y8604238D01*
X34201214Y8566142D01*
X34163119Y8489952D01*
X34163119Y8299476D01*
X34201214Y8223285D01*
X34239309Y8185190D01*
X34315500Y8147095D01*
X34505976Y8147095D01*
X34582166Y8185190D01*
X34620261Y8223285D01*
X23425023Y9280000D02*
X23044071Y9280000D01*
X23234547Y8147095D02*
X23234547Y8947095D01*
X23044071Y9280000D02*
X22244071Y9280000D01*
X22396452Y8147095D02*
X22663119Y8528047D01*
X22853595Y8147095D02*
X22853595Y8947095D01*
X22548833Y8947095D01*
X22472642Y8909000D01*
X22434547Y8870904D01*
X22396452Y8794714D01*
X22396452Y8680428D01*
X22434547Y8604238D01*
X22472642Y8566142D01*
X22548833Y8528047D01*
X22853595Y8528047D01*
X22244071Y9280000D02*
X21405976Y9280000D01*
X21520261Y8070904D02*
X21596452Y8109000D01*
X21672642Y8185190D01*
X21786928Y8299476D01*
X21863119Y8337571D01*
X21939309Y8337571D01*
X21901214Y8147095D02*
X21977404Y8185190D01*
X22053595Y8261380D01*
X22091690Y8413761D01*
X22091690Y8680428D01*
X22053595Y8832809D01*
X21977404Y8909000D01*
X21901214Y8947095D01*
X21748833Y8947095D01*
X21672642Y8909000D01*
X21596452Y8832809D01*
X21558357Y8680428D01*
X21558357Y8413761D01*
X21596452Y8261380D01*
X21672642Y8185190D01*
X21748833Y8147095D01*
X21901214Y8147095D01*
X43687880Y8375666D02*
X43306928Y8375666D01*
X43764071Y8147095D02*
X43497404Y8947095D01*
X43230738Y8147095D01*
X42545023Y8147095D02*
X43002166Y8147095D01*
X42773595Y8147095D02*
X42773595Y8947095D01*
X42849785Y8832809D01*
X42925976Y8756619D01*
X43002166Y8718523D01*
X42240261Y8870904D02*
X42202166Y8909000D01*
X42125976Y8947095D01*
X41935500Y8947095D01*
X41859309Y8909000D01*
X41821214Y8870904D01*
X41783119Y8794714D01*
X41783119Y8718523D01*
X41821214Y8604238D01*
X42278357Y8147095D01*
X41783119Y8147095D01*
X46227880Y8375666D02*
X45846928Y8375666D01*
X46304071Y8147095D02*
X46037404Y8947095D01*
X45770738Y8147095D01*
X45085023Y8147095D02*
X45542166Y8147095D01*
X45313595Y8147095D02*
X45313595Y8947095D01*
X45389785Y8832809D01*
X45465976Y8756619D01*
X45542166Y8718523D01*
X44323119Y8147095D02*
X44780261Y8147095D01*
X44551690Y8147095D02*
X44551690Y8947095D01*
X44627880Y8832809D01*
X44704071Y8756619D01*
X44780261Y8718523D01*
X48882166Y8947095D02*
X48615500Y8147095D01*
X48348833Y8947095D01*
X47625023Y8223285D02*
X47663119Y8185190D01*
X47777404Y8147095D01*
X47853595Y8147095D01*
X47967880Y8185190D01*
X48044071Y8261380D01*
X48082166Y8337571D01*
X48120261Y8489952D01*
X48120261Y8604238D01*
X48082166Y8756619D01*
X48044071Y8832809D01*
X47967880Y8909000D01*
X47853595Y8947095D01*
X47777404Y8947095D01*
X47663119Y8909000D01*
X47625023Y8870904D01*
X46825023Y8223285D02*
X46863119Y8185190D01*
X46977404Y8147095D01*
X47053595Y8147095D01*
X47167880Y8185190D01*
X47244071Y8261380D01*
X47282166Y8337571D01*
X47320261Y8489952D01*
X47320261Y8604238D01*
X47282166Y8756619D01*
X47244071Y8832809D01*
X47167880Y8909000D01*
X47053595Y8947095D01*
X46977404Y8947095D01*
X46863119Y8909000D01*
X46825023Y8870904D01*
X71246928Y8375666D02*
X70865976Y8375666D01*
X71323119Y8147095D02*
X71056452Y8947095D01*
X70789785Y8147095D01*
X70599309Y8947095D02*
X70104071Y8947095D01*
X70370738Y8642333D01*
X70256452Y8642333D01*
X70180261Y8604238D01*
X70142166Y8566142D01*
X70104071Y8489952D01*
X70104071Y8299476D01*
X70142166Y8223285D01*
X70180261Y8185190D01*
X70256452Y8147095D01*
X70485023Y8147095D01*
X70561214Y8185190D01*
X70599309Y8223285D01*
X50965023Y8909000D02*
X51041214Y8947095D01*
X51155500Y8947095D01*
X51269785Y8909000D01*
X51345976Y8832809D01*
X51384071Y8756619D01*
X51422166Y8604238D01*
X51422166Y8489952D01*
X51384071Y8337571D01*
X51345976Y8261380D01*
X51269785Y8185190D01*
X51155500Y8147095D01*
X51079309Y8147095D01*
X50965023Y8185190D01*
X50926928Y8223285D01*
X50926928Y8489952D01*
X51079309Y8489952D01*
X50584071Y8147095D02*
X50584071Y8947095D01*
X50126928Y8147095D01*
X50126928Y8947095D01*
X49745976Y8147095D02*
X49745976Y8947095D01*
X49555500Y8947095D01*
X49441214Y8909000D01*
X49365023Y8832809D01*
X49326928Y8756619D01*
X49288833Y8604238D01*
X49288833Y8489952D01*
X49326928Y8337571D01*
X49365023Y8261380D01*
X49441214Y8185190D01*
X49555500Y8147095D01*
X49745976Y8147095D01*
X21265976Y8185190D02*
X21151690Y8147095D01*
X20961214Y8147095D01*
X20885023Y8185190D01*
X20846928Y8223285D01*
X20808833Y8299476D01*
X20808833Y8375666D01*
X20846928Y8451857D01*
X20885023Y8489952D01*
X20961214Y8528047D01*
X21113595Y8566142D01*
X21189785Y8604238D01*
X21227880Y8642333D01*
X21265976Y8718523D01*
X21265976Y8794714D01*
X21227880Y8870904D01*
X21189785Y8909000D01*
X21113595Y8947095D01*
X20923119Y8947095D01*
X20808833Y8909000D01*
X20313595Y8528047D02*
X20313595Y8147095D01*
X20580261Y8947095D02*
X20313595Y8528047D01*
X20046928Y8947095D01*
X19780261Y8147095D02*
X19780261Y8947095D01*
X19323119Y8147095D01*
X19323119Y8947095D01*
X18485023Y8223285D02*
X18523119Y8185190D01*
X18637404Y8147095D01*
X18713595Y8147095D01*
X18827880Y8185190D01*
X18904071Y8261380D01*
X18942166Y8337571D01*
X18980261Y8489952D01*
X18980261Y8604238D01*
X18942166Y8756619D01*
X18904071Y8832809D01*
X18827880Y8909000D01*
X18713595Y8947095D01*
X18637404Y8947095D01*
X18523119Y8909000D01*
X18485023Y8870904D01*
X63626928Y8375666D02*
X63245976Y8375666D01*
X63703119Y8147095D02*
X63436452Y8947095D01*
X63169785Y8147095D01*
X62560261Y8947095D02*
X62712642Y8947095D01*
X62788833Y8909000D01*
X62826928Y8870904D01*
X62903119Y8756619D01*
X62941214Y8604238D01*
X62941214Y8299476D01*
X62903119Y8223285D01*
X62865023Y8185190D01*
X62788833Y8147095D01*
X62636452Y8147095D01*
X62560261Y8185190D01*
X62522166Y8223285D01*
X62484071Y8299476D01*
X62484071Y8489952D01*
X62522166Y8566142D01*
X62560261Y8604238D01*
X62636452Y8642333D01*
X62788833Y8642333D01*
X62865023Y8604238D01*
X62903119Y8566142D01*
X62941214Y8489952D01*
X30340261Y8566142D02*
X30225976Y8528047D01*
X30187880Y8489952D01*
X30149785Y8413761D01*
X30149785Y8299476D01*
X30187880Y8223285D01*
X30225976Y8185190D01*
X30302166Y8147095D01*
X30606928Y8147095D01*
X30606928Y8947095D01*
X30340261Y8947095D01*
X30264071Y8909000D01*
X30225976Y8870904D01*
X30187880Y8794714D01*
X30187880Y8718523D01*
X30225976Y8642333D01*
X30264071Y8604238D01*
X30340261Y8566142D01*
X30606928Y8566142D01*
X29806928Y8566142D02*
X29540261Y8566142D01*
X29425976Y8147095D02*
X29806928Y8147095D01*
X29806928Y8947095D01*
X29425976Y8947095D01*
X18275166Y2422000D02*
X17437071Y2422000D01*
X18084690Y1289095D02*
X18084690Y2089095D01*
X17627547Y1289095D01*
X17627547Y2089095D01*
X17437071Y2422000D02*
X16522785Y2422000D01*
X17246595Y1289095D02*
X17246595Y2089095D01*
X16979928Y1517666D01*
X16713261Y2089095D01*
X16713261Y1289095D01*
X16522785Y2422000D02*
X16141833Y2422000D01*
X16332309Y1289095D02*
X16332309Y2089095D01*
X20719928Y2422000D02*
X19958023Y2422000D01*
X20567547Y1327190D02*
X20453261Y1289095D01*
X20262785Y1289095D01*
X20186595Y1327190D01*
X20148500Y1365285D01*
X20110404Y1441476D01*
X20110404Y1517666D01*
X20148500Y1593857D01*
X20186595Y1631952D01*
X20262785Y1670047D01*
X20415166Y1708142D01*
X20491357Y1746238D01*
X20529452Y1784333D01*
X20567547Y1860523D01*
X20567547Y1936714D01*
X20529452Y2012904D01*
X20491357Y2051000D01*
X20415166Y2089095D01*
X20224690Y2089095D01*
X20110404Y2051000D01*
X19958023Y2422000D02*
X19577071Y2422000D01*
X19767547Y1289095D02*
X19767547Y2089095D01*
X19577071Y2422000D02*
X18777071Y2422000D01*
X18929452Y1289095D02*
X19196119Y1670047D01*
X19386595Y1289095D02*
X19386595Y2089095D01*
X19081833Y2089095D01*
X19005642Y2051000D01*
X18967547Y2012904D01*
X18929452Y1936714D01*
X18929452Y1822428D01*
X18967547Y1746238D01*
X19005642Y1708142D01*
X19081833Y1670047D01*
X19386595Y1670047D01*
X25761833Y1708142D02*
X25495166Y1708142D01*
X25380880Y1289095D02*
X25761833Y1289095D01*
X25761833Y2089095D01*
X25380880Y2089095D01*
X25114214Y2089095D02*
X24580880Y1289095D01*
X24580880Y2089095D02*
X25114214Y1289095D01*
X24314214Y2012904D02*
X24276119Y2051000D01*
X24199928Y2089095D01*
X24009452Y2089095D01*
X23933261Y2051000D01*
X23895166Y2012904D01*
X23857071Y1936714D01*
X23857071Y1860523D01*
X23895166Y1746238D01*
X24352309Y1289095D01*
X23857071Y1289095D01*
X43637071Y2422000D02*
X43256119Y2422000D01*
X43446595Y1289095D02*
X43446595Y2089095D01*
X43256119Y2422000D02*
X42418023Y2422000D01*
X43065642Y1289095D02*
X43065642Y2089095D01*
X42608500Y1289095D01*
X42608500Y2089095D01*
X42418023Y2422000D02*
X41579928Y2422000D01*
X42227547Y1289095D02*
X42227547Y2089095D01*
X42227547Y1708142D02*
X41770404Y1708142D01*
X41770404Y1289095D02*
X41770404Y2089095D01*
X41135166Y2422000D02*
X40373261Y2422000D01*
X40982785Y1327190D02*
X40868500Y1289095D01*
X40678023Y1289095D01*
X40601833Y1327190D01*
X40563738Y1365285D01*
X40525642Y1441476D01*
X40525642Y1517666D01*
X40563738Y1593857D01*
X40601833Y1631952D01*
X40678023Y1670047D01*
X40830404Y1708142D01*
X40906595Y1746238D01*
X40944690Y1784333D01*
X40982785Y1860523D01*
X40982785Y1936714D01*
X40944690Y2012904D01*
X40906595Y2051000D01*
X40830404Y2089095D01*
X40639928Y2089095D01*
X40525642Y2051000D01*
X40373261Y2422000D02*
X39649452Y2422000D01*
X40182785Y1708142D02*
X39916119Y1708142D01*
X39801833Y1289095D02*
X40182785Y1289095D01*
X40182785Y2089095D01*
X39801833Y2089095D01*
X39649452Y2422000D02*
X39001833Y2422000D01*
X39078023Y1289095D02*
X39458976Y1289095D01*
X39458976Y2089095D01*
X27978023Y1289095D02*
X28435166Y1289095D01*
X28206595Y1289095D02*
X28206595Y2089095D01*
X28282785Y1974809D01*
X28358976Y1898619D01*
X28435166Y1860523D01*
X27673261Y2012904D02*
X27635166Y2051000D01*
X27558976Y2089095D01*
X27368500Y2089095D01*
X27292309Y2051000D01*
X27254214Y2012904D01*
X27216119Y1936714D01*
X27216119Y1860523D01*
X27254214Y1746238D01*
X27711357Y1289095D01*
X27216119Y1289095D01*
X26873261Y1289095D02*
X26873261Y2089095D01*
X26606595Y1517666D01*
X26339928Y2089095D01*
X26339928Y1289095D01*
X37661833Y1289095D02*
X38042785Y1289095D01*
X38042785Y2089095D01*
X36976119Y1289095D02*
X37433261Y1289095D01*
X37204690Y1289095D02*
X37204690Y2089095D01*
X37280880Y1974809D01*
X37357071Y1898619D01*
X37433261Y1860523D01*
X32581833Y1289095D02*
X32962785Y1289095D01*
X32962785Y2089095D01*
X32391357Y2089095D02*
X31896119Y2089095D01*
X32162785Y1784333D01*
X32048500Y1784333D01*
X31972309Y1746238D01*
X31934214Y1708142D01*
X31896119Y1631952D01*
X31896119Y1441476D01*
X31934214Y1365285D01*
X31972309Y1327190D01*
X32048500Y1289095D01*
X32277071Y1289095D01*
X32353261Y1327190D01*
X32391357Y1365285D01*
X23221833Y1708142D02*
X22955166Y1708142D01*
X22840880Y1289095D02*
X23221833Y1289095D01*
X23221833Y2089095D01*
X22840880Y2089095D01*
X22574214Y2089095D02*
X22040880Y1289095D01*
X22040880Y2089095D02*
X22574214Y1289095D01*
X21812309Y2089095D02*
X21317071Y2089095D01*
X21583738Y1784333D01*
X21469452Y1784333D01*
X21393261Y1746238D01*
X21355166Y1708142D01*
X21317071Y1631952D01*
X21317071Y1441476D01*
X21355166Y1365285D01*
X21393261Y1327190D01*
X21469452Y1289095D01*
X21698023Y1289095D01*
X21774214Y1327190D01*
X21812309Y1365285D01*
X30041833Y1289095D02*
X30422785Y1289095D01*
X30422785Y2089095D01*
X29432309Y1822428D02*
X29432309Y1289095D01*
X29622785Y2127190D02*
X29813261Y1555761D01*
X29318023Y1555761D01*
X35121833Y1289095D02*
X35502785Y1289095D01*
X35502785Y2089095D01*
X34893261Y2012904D02*
X34855166Y2051000D01*
X34778976Y2089095D01*
X34588500Y2089095D01*
X34512309Y2051000D01*
X34474214Y2012904D01*
X34436119Y1936714D01*
X34436119Y1860523D01*
X34474214Y1746238D01*
X34931357Y1289095D01*
X34436119Y1289095D01*
X68598976Y1289095D02*
X68598976Y2089095D01*
X68408500Y2089095D01*
X68294214Y2051000D01*
X68218023Y1974809D01*
X68179928Y1898619D01*
X68141833Y1746238D01*
X68141833Y1631952D01*
X68179928Y1479571D01*
X68218023Y1403380D01*
X68294214Y1327190D01*
X68408500Y1289095D01*
X68598976Y1289095D01*
X67456119Y1822428D02*
X67456119Y1289095D01*
X67646595Y2127190D02*
X67837071Y1555761D01*
X67341833Y1555761D01*
X53930404Y2422000D02*
X53168500Y2422000D01*
X53778023Y1327190D02*
X53663738Y1289095D01*
X53473261Y1289095D01*
X53397071Y1327190D01*
X53358976Y1365285D01*
X53320880Y1441476D01*
X53320880Y1517666D01*
X53358976Y1593857D01*
X53397071Y1631952D01*
X53473261Y1670047D01*
X53625642Y1708142D01*
X53701833Y1746238D01*
X53739928Y1784333D01*
X53778023Y1860523D01*
X53778023Y1936714D01*
X53739928Y2012904D01*
X53701833Y2051000D01*
X53625642Y2089095D01*
X53435166Y2089095D01*
X53320880Y2051000D01*
X53168500Y2422000D02*
X52520880Y2422000D01*
X52597071Y1289095D02*
X52978023Y1289095D01*
X52978023Y2089095D01*
X52520880Y2422000D02*
X51606595Y2422000D01*
X52406595Y2089095D02*
X52216119Y1289095D01*
X52063738Y1860523D01*
X51911357Y1289095D01*
X51720880Y2089095D01*
X66058976Y1289095D02*
X66058976Y2089095D01*
X65868500Y2089095D01*
X65754214Y2051000D01*
X65678023Y1974809D01*
X65639928Y1898619D01*
X65601833Y1746238D01*
X65601833Y1631952D01*
X65639928Y1479571D01*
X65678023Y1403380D01*
X65754214Y1327190D01*
X65868500Y1289095D01*
X66058976Y1289095D01*
X64878023Y2089095D02*
X65258976Y2089095D01*
X65297071Y1708142D01*
X65258976Y1746238D01*
X65182785Y1784333D01*
X64992309Y1784333D01*
X64916119Y1746238D01*
X64878023Y1708142D01*
X64839928Y1631952D01*
X64839928Y1441476D01*
X64878023Y1365285D01*
X64916119Y1327190D01*
X64992309Y1289095D01*
X65182785Y1289095D01*
X65258976Y1327190D01*
X65297071Y1365285D01*
X56241833Y1708142D02*
X55975166Y1708142D01*
X55860880Y1289095D02*
X56241833Y1289095D01*
X56241833Y2089095D01*
X55860880Y2089095D01*
X55594214Y2089095D02*
X55060880Y1289095D01*
X55060880Y2089095D02*
X55594214Y1289095D01*
X54337071Y1289095D02*
X54794214Y1289095D01*
X54565642Y1289095D02*
X54565642Y2089095D01*
X54641833Y1974809D01*
X54718023Y1898619D01*
X54794214Y1860523D01*
X63518976Y1289095D02*
X63518976Y2089095D01*
X63328500Y2089095D01*
X63214214Y2051000D01*
X63138023Y1974809D01*
X63099928Y1898619D01*
X63061833Y1746238D01*
X63061833Y1631952D01*
X63099928Y1479571D01*
X63138023Y1403380D01*
X63214214Y1327190D01*
X63328500Y1289095D01*
X63518976Y1289095D01*
X62376119Y2089095D02*
X62528500Y2089095D01*
X62604690Y2051000D01*
X62642785Y2012904D01*
X62718976Y1898619D01*
X62757071Y1746238D01*
X62757071Y1441476D01*
X62718976Y1365285D01*
X62680880Y1327190D01*
X62604690Y1289095D01*
X62452309Y1289095D01*
X62376119Y1327190D01*
X62338023Y1365285D01*
X62299928Y1441476D01*
X62299928Y1631952D01*
X62338023Y1708142D01*
X62376119Y1746238D01*
X62452309Y1784333D01*
X62604690Y1784333D01*
X62680880Y1746238D01*
X62718976Y1708142D01*
X62757071Y1631952D01*
X58781833Y1708142D02*
X58515166Y1708142D01*
X58400880Y1289095D02*
X58781833Y1289095D01*
X58781833Y2089095D01*
X58400880Y2089095D01*
X58134214Y2089095D02*
X57600880Y1289095D01*
X57600880Y2089095D02*
X58134214Y1289095D01*
X57143738Y2089095D02*
X57067547Y2089095D01*
X56991357Y2051000D01*
X56953261Y2012904D01*
X56915166Y1936714D01*
X56877071Y1784333D01*
X56877071Y1593857D01*
X56915166Y1441476D01*
X56953261Y1365285D01*
X56991357Y1327190D01*
X57067547Y1289095D01*
X57143738Y1289095D01*
X57219928Y1327190D01*
X57258023Y1365285D01*
X57296119Y1441476D01*
X57334214Y1593857D01*
X57334214Y1784333D01*
X57296119Y1936714D01*
X57258023Y2012904D01*
X57219928Y2051000D01*
X57143738Y2089095D01*
X60978976Y1289095D02*
X60978976Y2089095D01*
X60788500Y2089095D01*
X60674214Y2051000D01*
X60598023Y1974809D01*
X60559928Y1898619D01*
X60521833Y1746238D01*
X60521833Y1631952D01*
X60559928Y1479571D01*
X60598023Y1403380D01*
X60674214Y1327190D01*
X60788500Y1289095D01*
X60978976Y1289095D01*
X60255166Y2089095D02*
X59721833Y2089095D01*
X60064690Y1289095D01*
X51295166Y2089095D02*
X51028500Y1289095D01*
X50761833Y2089095D01*
X50038023Y1365285D02*
X50076119Y1327190D01*
X50190404Y1289095D01*
X50266595Y1289095D01*
X50380880Y1327190D01*
X50457071Y1403380D01*
X50495166Y1479571D01*
X50533261Y1631952D01*
X50533261Y1746238D01*
X50495166Y1898619D01*
X50457071Y1974809D01*
X50380880Y2051000D01*
X50266595Y2089095D01*
X50190404Y2089095D01*
X50076119Y2051000D01*
X50038023Y2012904D01*
X49238023Y1365285D02*
X49276119Y1327190D01*
X49390404Y1289095D01*
X49466595Y1289095D01*
X49580880Y1327190D01*
X49657071Y1403380D01*
X49695166Y1479571D01*
X49733261Y1631952D01*
X49733261Y1746238D01*
X49695166Y1898619D01*
X49657071Y1974809D01*
X49580880Y2051000D01*
X49466595Y2089095D01*
X49390404Y2089095D01*
X49276119Y2051000D01*
X49238023Y2012904D01*
X71138976Y1289095D02*
X71138976Y2089095D01*
X70948500Y2089095D01*
X70834214Y2051000D01*
X70758023Y1974809D01*
X70719928Y1898619D01*
X70681833Y1746238D01*
X70681833Y1631952D01*
X70719928Y1479571D01*
X70758023Y1403380D01*
X70834214Y1327190D01*
X70948500Y1289095D01*
X71138976Y1289095D01*
X70415166Y2089095D02*
X69919928Y2089095D01*
X70186595Y1784333D01*
X70072309Y1784333D01*
X69996119Y1746238D01*
X69958023Y1708142D01*
X69919928Y1631952D01*
X69919928Y1441476D01*
X69958023Y1365285D01*
X69996119Y1327190D01*
X70072309Y1289095D01*
X70300880Y1289095D01*
X70377071Y1327190D01*
X70415166Y1365285D01*
X48298023Y2051000D02*
X48374214Y2089095D01*
X48488500Y2089095D01*
X48602785Y2051000D01*
X48678976Y1974809D01*
X48717071Y1898619D01*
X48755166Y1746238D01*
X48755166Y1631952D01*
X48717071Y1479571D01*
X48678976Y1403380D01*
X48602785Y1327190D01*
X48488500Y1289095D01*
X48412309Y1289095D01*
X48298023Y1327190D01*
X48259928Y1365285D01*
X48259928Y1631952D01*
X48412309Y1631952D01*
X47917071Y1289095D02*
X47917071Y2089095D01*
X47459928Y1289095D01*
X47459928Y2089095D01*
X47078976Y1289095D02*
X47078976Y2089095D01*
X46888500Y2089095D01*
X46774214Y2051000D01*
X46698023Y1974809D01*
X46659928Y1898619D01*
X46621833Y1746238D01*
X46621833Y1631952D01*
X46659928Y1479571D01*
X46698023Y1403380D01*
X46774214Y1327190D01*
X46888500Y1289095D01*
X47078976Y1289095D01*
X73678976Y1289095D02*
X73678976Y2089095D01*
X73488500Y2089095D01*
X73374214Y2051000D01*
X73298023Y1974809D01*
X73259928Y1898619D01*
X73221833Y1746238D01*
X73221833Y1631952D01*
X73259928Y1479571D01*
X73298023Y1403380D01*
X73374214Y1327190D01*
X73488500Y1289095D01*
X73678976Y1289095D01*
X72917071Y2012904D02*
X72878976Y2051000D01*
X72802785Y2089095D01*
X72612309Y2089095D01*
X72536119Y2051000D01*
X72498023Y2012904D01*
X72459928Y1936714D01*
X72459928Y1860523D01*
X72498023Y1746238D01*
X72955166Y1289095D01*
X72459928Y1289095D01*
X45910404Y2422000D02*
X45148500Y2422000D01*
X45758023Y1327190D02*
X45643738Y1289095D01*
X45453261Y1289095D01*
X45377071Y1327190D01*
X45338976Y1365285D01*
X45300880Y1441476D01*
X45300880Y1517666D01*
X45338976Y1593857D01*
X45377071Y1631952D01*
X45453261Y1670047D01*
X45605642Y1708142D01*
X45681833Y1746238D01*
X45719928Y1784333D01*
X45758023Y1860523D01*
X45758023Y1936714D01*
X45719928Y2012904D01*
X45681833Y2051000D01*
X45605642Y2089095D01*
X45415166Y2089095D01*
X45300880Y2051000D01*
X45148500Y2422000D02*
X44386595Y2422000D01*
X44996119Y1327190D02*
X44881833Y1289095D01*
X44691357Y1289095D01*
X44615166Y1327190D01*
X44577071Y1365285D01*
X44538976Y1441476D01*
X44538976Y1517666D01*
X44577071Y1593857D01*
X44615166Y1631952D01*
X44691357Y1670047D01*
X44843738Y1708142D01*
X44919928Y1746238D01*
X44958023Y1784333D01*
X44996119Y1860523D01*
X44996119Y1936714D01*
X44958023Y2012904D01*
X44919928Y2051000D01*
X44843738Y2089095D01*
X44653261Y2089095D01*
X44538976Y2051000D01*
X76218976Y1289095D02*
X76218976Y2089095D01*
X76028500Y2089095D01*
X75914214Y2051000D01*
X75838023Y1974809D01*
X75799928Y1898619D01*
X75761833Y1746238D01*
X75761833Y1631952D01*
X75799928Y1479571D01*
X75838023Y1403380D01*
X75914214Y1327190D01*
X76028500Y1289095D01*
X76218976Y1289095D01*
X74999928Y1289095D02*
X75457071Y1289095D01*
X75228500Y1289095D02*
X75228500Y2089095D01*
X75304690Y1974809D01*
X75380880Y1898619D01*
X75457071Y1860523D01*
X78758976Y1289095D02*
X78758976Y2089095D01*
X78568500Y2089095D01*
X78454214Y2051000D01*
X78378023Y1974809D01*
X78339928Y1898619D01*
X78301833Y1746238D01*
X78301833Y1631952D01*
X78339928Y1479571D01*
X78378023Y1403380D01*
X78454214Y1327190D01*
X78568500Y1289095D01*
X78758976Y1289095D01*
X77806595Y2089095D02*
X77730404Y2089095D01*
X77654214Y2051000D01*
X77616119Y2012904D01*
X77578023Y1936714D01*
X77539928Y1784333D01*
X77539928Y1593857D01*
X77578023Y1441476D01*
X77616119Y1365285D01*
X77654214Y1327190D01*
X77730404Y1289095D01*
X77806595Y1289095D01*
X77882785Y1327190D01*
X77920880Y1365285D01*
X77958976Y1441476D01*
X77997071Y1593857D01*
X77997071Y1784333D01*
X77958976Y1936714D01*
X77920880Y2012904D01*
X77882785Y2051000D01*
X77806595Y2089095D01*
M02*
