%TF.GenerationSoftware,KiCad,Pcbnew,(5.1.10-1-10_14)*%
%TF.CreationDate,2021-10-31T20:24:47+01:00*%
%TF.ProjectId,planck_board,706c616e-636b-45f6-926f-6172642e6b69,rev?*%
%TF.SameCoordinates,Original*%
%TF.FileFunction,Soldermask,Top*%
%TF.FilePolarity,Negative*%
%FSLAX46Y46*%
G04 Gerber Fmt 4.6, Leading zero omitted, Abs format (unit mm)*
G04 Created by KiCad (PCBNEW (5.1.10-1-10_14)) date 2021-10-31 20:24:47*
%MOMM*%
%LPD*%
G01*
G04 APERTURE LIST*
%ADD10O,1.700000X1.700000*%
%ADD11R,1.700000X1.700000*%
G04 APERTURE END LIST*
%TO.C,REF\u002A\u002A*%
G36*
G01*
X76556500Y30055000D02*
X76556500Y30905000D01*
G75*
G02*
X76981500Y31330000I425000J0D01*
G01*
X77831500Y31330000D01*
G75*
G02*
X78256500Y30905000I0J-425000D01*
G01*
X78256500Y30055000D01*
G75*
G02*
X77831500Y29630000I-425000J0D01*
G01*
X76981500Y29630000D01*
G75*
G02*
X76556500Y30055000I0J425000D01*
G01*
G37*
%TD*%
%TO.C,REF\u002A\u002A*%
G36*
G01*
X74016500Y30055000D02*
X74016500Y30905000D01*
G75*
G02*
X74441500Y31330000I425000J0D01*
G01*
X75291500Y31330000D01*
G75*
G02*
X75716500Y30905000I0J-425000D01*
G01*
X75716500Y30055000D01*
G75*
G02*
X75291500Y29630000I-425000J0D01*
G01*
X74441500Y29630000D01*
G75*
G02*
X74016500Y30055000I0J425000D01*
G01*
G37*
%TD*%
%TO.C,REF\u002A\u002A*%
G36*
G01*
X71476500Y30055000D02*
X71476500Y30905000D01*
G75*
G02*
X71901500Y31330000I425000J0D01*
G01*
X72751500Y31330000D01*
G75*
G02*
X73176500Y30905000I0J-425000D01*
G01*
X73176500Y30055000D01*
G75*
G02*
X72751500Y29630000I-425000J0D01*
G01*
X71901500Y29630000D01*
G75*
G02*
X71476500Y30055000I0J425000D01*
G01*
G37*
%TD*%
%TO.C,REF\u002A\u002A*%
G36*
G01*
X68936500Y30055000D02*
X68936500Y30905000D01*
G75*
G02*
X69361500Y31330000I425000J0D01*
G01*
X70211500Y31330000D01*
G75*
G02*
X70636500Y30905000I0J-425000D01*
G01*
X70636500Y30055000D01*
G75*
G02*
X70211500Y29630000I-425000J0D01*
G01*
X69361500Y29630000D01*
G75*
G02*
X68936500Y30055000I0J425000D01*
G01*
G37*
%TD*%
%TO.C,REF\u002A\u002A*%
G36*
G01*
X66396500Y30055000D02*
X66396500Y30905000D01*
G75*
G02*
X66821500Y31330000I425000J0D01*
G01*
X67671500Y31330000D01*
G75*
G02*
X68096500Y30905000I0J-425000D01*
G01*
X68096500Y30055000D01*
G75*
G02*
X67671500Y29630000I-425000J0D01*
G01*
X66821500Y29630000D01*
G75*
G02*
X66396500Y30055000I0J425000D01*
G01*
G37*
%TD*%
%TO.C,REF\u002A\u002A*%
G36*
G01*
X63856500Y30055000D02*
X63856500Y30905000D01*
G75*
G02*
X64281500Y31330000I425000J0D01*
G01*
X65131500Y31330000D01*
G75*
G02*
X65556500Y30905000I0J-425000D01*
G01*
X65556500Y30055000D01*
G75*
G02*
X65131500Y29630000I-425000J0D01*
G01*
X64281500Y29630000D01*
G75*
G02*
X63856500Y30055000I0J425000D01*
G01*
G37*
%TD*%
%TO.C,REF\u002A\u002A*%
G36*
G01*
X61316500Y30055000D02*
X61316500Y30905000D01*
G75*
G02*
X61741500Y31330000I425000J0D01*
G01*
X62591500Y31330000D01*
G75*
G02*
X63016500Y30905000I0J-425000D01*
G01*
X63016500Y30055000D01*
G75*
G02*
X62591500Y29630000I-425000J0D01*
G01*
X61741500Y29630000D01*
G75*
G02*
X61316500Y30055000I0J425000D01*
G01*
G37*
%TD*%
%TO.C,REF\u002A\u002A*%
G36*
G01*
X58776500Y30055000D02*
X58776500Y30905000D01*
G75*
G02*
X59201500Y31330000I425000J0D01*
G01*
X60051500Y31330000D01*
G75*
G02*
X60476500Y30905000I0J-425000D01*
G01*
X60476500Y30055000D01*
G75*
G02*
X60051500Y29630000I-425000J0D01*
G01*
X59201500Y29630000D01*
G75*
G02*
X58776500Y30055000I0J425000D01*
G01*
G37*
%TD*%
%TO.C,REF\u002A\u002A*%
G36*
G01*
X56236500Y30055000D02*
X56236500Y30905000D01*
G75*
G02*
X56661500Y31330000I425000J0D01*
G01*
X57511500Y31330000D01*
G75*
G02*
X57936500Y30905000I0J-425000D01*
G01*
X57936500Y30055000D01*
G75*
G02*
X57511500Y29630000I-425000J0D01*
G01*
X56661500Y29630000D01*
G75*
G02*
X56236500Y30055000I0J425000D01*
G01*
G37*
%TD*%
%TO.C,REF\u002A\u002A*%
G36*
G01*
X53696500Y30055000D02*
X53696500Y30905000D01*
G75*
G02*
X54121500Y31330000I425000J0D01*
G01*
X54971500Y31330000D01*
G75*
G02*
X55396500Y30905000I0J-425000D01*
G01*
X55396500Y30055000D01*
G75*
G02*
X54971500Y29630000I-425000J0D01*
G01*
X54121500Y29630000D01*
G75*
G02*
X53696500Y30055000I0J425000D01*
G01*
G37*
%TD*%
%TO.C,REF\u002A\u002A*%
G36*
G01*
X51156500Y30055000D02*
X51156500Y30905000D01*
G75*
G02*
X51581500Y31330000I425000J0D01*
G01*
X52431500Y31330000D01*
G75*
G02*
X52856500Y30905000I0J-425000D01*
G01*
X52856500Y30055000D01*
G75*
G02*
X52431500Y29630000I-425000J0D01*
G01*
X51581500Y29630000D01*
G75*
G02*
X51156500Y30055000I0J425000D01*
G01*
G37*
%TD*%
%TO.C,REF\u002A\u002A*%
G36*
G01*
X48616500Y30055000D02*
X48616500Y30905000D01*
G75*
G02*
X49041500Y31330000I425000J0D01*
G01*
X49891500Y31330000D01*
G75*
G02*
X50316500Y30905000I0J-425000D01*
G01*
X50316500Y30055000D01*
G75*
G02*
X49891500Y29630000I-425000J0D01*
G01*
X49041500Y29630000D01*
G75*
G02*
X48616500Y30055000I0J425000D01*
G01*
G37*
%TD*%
%TO.C,REF\u002A\u002A*%
G36*
G01*
X46076500Y30055000D02*
X46076500Y30905000D01*
G75*
G02*
X46501500Y31330000I425000J0D01*
G01*
X47351500Y31330000D01*
G75*
G02*
X47776500Y30905000I0J-425000D01*
G01*
X47776500Y30055000D01*
G75*
G02*
X47351500Y29630000I-425000J0D01*
G01*
X46501500Y29630000D01*
G75*
G02*
X46076500Y30055000I0J425000D01*
G01*
G37*
%TD*%
%TO.C,REF\u002A\u002A*%
G36*
G01*
X43536500Y30055000D02*
X43536500Y30905000D01*
G75*
G02*
X43961500Y31330000I425000J0D01*
G01*
X44811500Y31330000D01*
G75*
G02*
X45236500Y30905000I0J-425000D01*
G01*
X45236500Y30055000D01*
G75*
G02*
X44811500Y29630000I-425000J0D01*
G01*
X43961500Y29630000D01*
G75*
G02*
X43536500Y30055000I0J425000D01*
G01*
G37*
%TD*%
%TO.C,REF\u002A\u002A*%
G36*
G01*
X40996500Y30055000D02*
X40996500Y30905000D01*
G75*
G02*
X41421500Y31330000I425000J0D01*
G01*
X42271500Y31330000D01*
G75*
G02*
X42696500Y30905000I0J-425000D01*
G01*
X42696500Y30055000D01*
G75*
G02*
X42271500Y29630000I-425000J0D01*
G01*
X41421500Y29630000D01*
G75*
G02*
X40996500Y30055000I0J425000D01*
G01*
G37*
%TD*%
%TO.C,REF\u002A\u002A*%
G36*
G01*
X38456500Y30055000D02*
X38456500Y30905000D01*
G75*
G02*
X38881500Y31330000I425000J0D01*
G01*
X39731500Y31330000D01*
G75*
G02*
X40156500Y30905000I0J-425000D01*
G01*
X40156500Y30055000D01*
G75*
G02*
X39731500Y29630000I-425000J0D01*
G01*
X38881500Y29630000D01*
G75*
G02*
X38456500Y30055000I0J425000D01*
G01*
G37*
%TD*%
%TO.C,REF\u002A\u002A*%
G36*
G01*
X35916500Y30055000D02*
X35916500Y30905000D01*
G75*
G02*
X36341500Y31330000I425000J0D01*
G01*
X37191500Y31330000D01*
G75*
G02*
X37616500Y30905000I0J-425000D01*
G01*
X37616500Y30055000D01*
G75*
G02*
X37191500Y29630000I-425000J0D01*
G01*
X36341500Y29630000D01*
G75*
G02*
X35916500Y30055000I0J425000D01*
G01*
G37*
%TD*%
%TO.C,REF\u002A\u002A*%
G36*
G01*
X33376500Y30055000D02*
X33376500Y30905000D01*
G75*
G02*
X33801500Y31330000I425000J0D01*
G01*
X34651500Y31330000D01*
G75*
G02*
X35076500Y30905000I0J-425000D01*
G01*
X35076500Y30055000D01*
G75*
G02*
X34651500Y29630000I-425000J0D01*
G01*
X33801500Y29630000D01*
G75*
G02*
X33376500Y30055000I0J425000D01*
G01*
G37*
%TD*%
%TO.C,REF\u002A\u002A*%
G36*
G01*
X30836500Y30055000D02*
X30836500Y30905000D01*
G75*
G02*
X31261500Y31330000I425000J0D01*
G01*
X32111500Y31330000D01*
G75*
G02*
X32536500Y30905000I0J-425000D01*
G01*
X32536500Y30055000D01*
G75*
G02*
X32111500Y29630000I-425000J0D01*
G01*
X31261500Y29630000D01*
G75*
G02*
X30836500Y30055000I0J425000D01*
G01*
G37*
%TD*%
%TO.C,REF\u002A\u002A*%
G36*
G01*
X28296500Y30055000D02*
X28296500Y30905000D01*
G75*
G02*
X28721500Y31330000I425000J0D01*
G01*
X29571500Y31330000D01*
G75*
G02*
X29996500Y30905000I0J-425000D01*
G01*
X29996500Y30055000D01*
G75*
G02*
X29571500Y29630000I-425000J0D01*
G01*
X28721500Y29630000D01*
G75*
G02*
X28296500Y30055000I0J425000D01*
G01*
G37*
%TD*%
%TO.C,REF\u002A\u002A*%
G36*
G01*
X25756500Y30055000D02*
X25756500Y30905000D01*
G75*
G02*
X26181500Y31330000I425000J0D01*
G01*
X27031500Y31330000D01*
G75*
G02*
X27456500Y30905000I0J-425000D01*
G01*
X27456500Y30055000D01*
G75*
G02*
X27031500Y29630000I-425000J0D01*
G01*
X26181500Y29630000D01*
G75*
G02*
X25756500Y30055000I0J425000D01*
G01*
G37*
%TD*%
%TO.C,REF\u002A\u002A*%
G36*
G01*
X23216500Y30055000D02*
X23216500Y30905000D01*
G75*
G02*
X23641500Y31330000I425000J0D01*
G01*
X24491500Y31330000D01*
G75*
G02*
X24916500Y30905000I0J-425000D01*
G01*
X24916500Y30055000D01*
G75*
G02*
X24491500Y29630000I-425000J0D01*
G01*
X23641500Y29630000D01*
G75*
G02*
X23216500Y30055000I0J425000D01*
G01*
G37*
%TD*%
%TO.C,REF\u002A\u002A*%
G36*
G01*
X20676500Y30055000D02*
X20676500Y30905000D01*
G75*
G02*
X21101500Y31330000I425000J0D01*
G01*
X21951500Y31330000D01*
G75*
G02*
X22376500Y30905000I0J-425000D01*
G01*
X22376500Y30055000D01*
G75*
G02*
X21951500Y29630000I-425000J0D01*
G01*
X21101500Y29630000D01*
G75*
G02*
X20676500Y30055000I0J425000D01*
G01*
G37*
%TD*%
%TO.C,REF\u002A\u002A*%
G36*
G01*
X18136500Y30055000D02*
X18136500Y30905000D01*
G75*
G02*
X18561500Y31330000I425000J0D01*
G01*
X19411500Y31330000D01*
G75*
G02*
X19836500Y30905000I0J-425000D01*
G01*
X19836500Y30055000D01*
G75*
G02*
X19411500Y29630000I-425000J0D01*
G01*
X18561500Y29630000D01*
G75*
G02*
X18136500Y30055000I0J425000D01*
G01*
G37*
%TD*%
%TO.C,REF\u002A\u002A*%
G36*
G01*
X15596500Y30055000D02*
X15596500Y30905000D01*
G75*
G02*
X16021500Y31330000I425000J0D01*
G01*
X16871500Y31330000D01*
G75*
G02*
X17296500Y30905000I0J-425000D01*
G01*
X17296500Y30055000D01*
G75*
G02*
X16871500Y29630000I-425000J0D01*
G01*
X16021500Y29630000D01*
G75*
G02*
X15596500Y30055000I0J425000D01*
G01*
G37*
%TD*%
%TO.C,REF\u002A\u002A*%
G36*
G01*
X13056500Y30055000D02*
X13056500Y30905000D01*
G75*
G02*
X13481500Y31330000I425000J0D01*
G01*
X14331500Y31330000D01*
G75*
G02*
X14756500Y30905000I0J-425000D01*
G01*
X14756500Y30055000D01*
G75*
G02*
X14331500Y29630000I-425000J0D01*
G01*
X13481500Y29630000D01*
G75*
G02*
X13056500Y30055000I0J425000D01*
G01*
G37*
%TD*%
%TO.C,REF\u002A\u002A*%
G36*
G01*
X10516500Y30055000D02*
X10516500Y30905000D01*
G75*
G02*
X10941500Y31330000I425000J0D01*
G01*
X11791500Y31330000D01*
G75*
G02*
X12216500Y30905000I0J-425000D01*
G01*
X12216500Y30055000D01*
G75*
G02*
X11791500Y29630000I-425000J0D01*
G01*
X10941500Y29630000D01*
G75*
G02*
X10516500Y30055000I0J425000D01*
G01*
G37*
%TD*%
%TO.C,REF\u002A\u002A*%
G36*
G01*
X7976500Y30055000D02*
X7976500Y30905000D01*
G75*
G02*
X8401500Y31330000I425000J0D01*
G01*
X9251500Y31330000D01*
G75*
G02*
X9676500Y30905000I0J-425000D01*
G01*
X9676500Y30055000D01*
G75*
G02*
X9251500Y29630000I-425000J0D01*
G01*
X8401500Y29630000D01*
G75*
G02*
X7976500Y30055000I0J425000D01*
G01*
G37*
%TD*%
%TO.C,REF\u002A\u002A*%
G36*
G01*
X5436500Y30055000D02*
X5436500Y30905000D01*
G75*
G02*
X5861500Y31330000I425000J0D01*
G01*
X6711500Y31330000D01*
G75*
G02*
X7136500Y30905000I0J-425000D01*
G01*
X7136500Y30055000D01*
G75*
G02*
X6711500Y29630000I-425000J0D01*
G01*
X5861500Y29630000D01*
G75*
G02*
X5436500Y30055000I0J425000D01*
G01*
G37*
%TD*%
%TO.C,REF\u002A\u002A*%
G36*
G01*
X76556500Y32595000D02*
X76556500Y33445000D01*
G75*
G02*
X76981500Y33870000I425000J0D01*
G01*
X77831500Y33870000D01*
G75*
G02*
X78256500Y33445000I0J-425000D01*
G01*
X78256500Y32595000D01*
G75*
G02*
X77831500Y32170000I-425000J0D01*
G01*
X76981500Y32170000D01*
G75*
G02*
X76556500Y32595000I0J425000D01*
G01*
G37*
%TD*%
%TO.C,REF\u002A\u002A*%
G36*
G01*
X74016500Y32595000D02*
X74016500Y33445000D01*
G75*
G02*
X74441500Y33870000I425000J0D01*
G01*
X75291500Y33870000D01*
G75*
G02*
X75716500Y33445000I0J-425000D01*
G01*
X75716500Y32595000D01*
G75*
G02*
X75291500Y32170000I-425000J0D01*
G01*
X74441500Y32170000D01*
G75*
G02*
X74016500Y32595000I0J425000D01*
G01*
G37*
%TD*%
%TO.C,REF\u002A\u002A*%
G36*
G01*
X71476500Y32595000D02*
X71476500Y33445000D01*
G75*
G02*
X71901500Y33870000I425000J0D01*
G01*
X72751500Y33870000D01*
G75*
G02*
X73176500Y33445000I0J-425000D01*
G01*
X73176500Y32595000D01*
G75*
G02*
X72751500Y32170000I-425000J0D01*
G01*
X71901500Y32170000D01*
G75*
G02*
X71476500Y32595000I0J425000D01*
G01*
G37*
%TD*%
%TO.C,REF\u002A\u002A*%
G36*
G01*
X68936500Y32595000D02*
X68936500Y33445000D01*
G75*
G02*
X69361500Y33870000I425000J0D01*
G01*
X70211500Y33870000D01*
G75*
G02*
X70636500Y33445000I0J-425000D01*
G01*
X70636500Y32595000D01*
G75*
G02*
X70211500Y32170000I-425000J0D01*
G01*
X69361500Y32170000D01*
G75*
G02*
X68936500Y32595000I0J425000D01*
G01*
G37*
%TD*%
%TO.C,REF\u002A\u002A*%
G36*
G01*
X66396500Y32595000D02*
X66396500Y33445000D01*
G75*
G02*
X66821500Y33870000I425000J0D01*
G01*
X67671500Y33870000D01*
G75*
G02*
X68096500Y33445000I0J-425000D01*
G01*
X68096500Y32595000D01*
G75*
G02*
X67671500Y32170000I-425000J0D01*
G01*
X66821500Y32170000D01*
G75*
G02*
X66396500Y32595000I0J425000D01*
G01*
G37*
%TD*%
%TO.C,REF\u002A\u002A*%
G36*
G01*
X63856500Y32595000D02*
X63856500Y33445000D01*
G75*
G02*
X64281500Y33870000I425000J0D01*
G01*
X65131500Y33870000D01*
G75*
G02*
X65556500Y33445000I0J-425000D01*
G01*
X65556500Y32595000D01*
G75*
G02*
X65131500Y32170000I-425000J0D01*
G01*
X64281500Y32170000D01*
G75*
G02*
X63856500Y32595000I0J425000D01*
G01*
G37*
%TD*%
%TO.C,REF\u002A\u002A*%
G36*
G01*
X61316500Y32595000D02*
X61316500Y33445000D01*
G75*
G02*
X61741500Y33870000I425000J0D01*
G01*
X62591500Y33870000D01*
G75*
G02*
X63016500Y33445000I0J-425000D01*
G01*
X63016500Y32595000D01*
G75*
G02*
X62591500Y32170000I-425000J0D01*
G01*
X61741500Y32170000D01*
G75*
G02*
X61316500Y32595000I0J425000D01*
G01*
G37*
%TD*%
%TO.C,REF\u002A\u002A*%
G36*
G01*
X58776500Y32595000D02*
X58776500Y33445000D01*
G75*
G02*
X59201500Y33870000I425000J0D01*
G01*
X60051500Y33870000D01*
G75*
G02*
X60476500Y33445000I0J-425000D01*
G01*
X60476500Y32595000D01*
G75*
G02*
X60051500Y32170000I-425000J0D01*
G01*
X59201500Y32170000D01*
G75*
G02*
X58776500Y32595000I0J425000D01*
G01*
G37*
%TD*%
%TO.C,REF\u002A\u002A*%
G36*
G01*
X56236500Y32595000D02*
X56236500Y33445000D01*
G75*
G02*
X56661500Y33870000I425000J0D01*
G01*
X57511500Y33870000D01*
G75*
G02*
X57936500Y33445000I0J-425000D01*
G01*
X57936500Y32595000D01*
G75*
G02*
X57511500Y32170000I-425000J0D01*
G01*
X56661500Y32170000D01*
G75*
G02*
X56236500Y32595000I0J425000D01*
G01*
G37*
%TD*%
%TO.C,REF\u002A\u002A*%
G36*
G01*
X53696500Y32595000D02*
X53696500Y33445000D01*
G75*
G02*
X54121500Y33870000I425000J0D01*
G01*
X54971500Y33870000D01*
G75*
G02*
X55396500Y33445000I0J-425000D01*
G01*
X55396500Y32595000D01*
G75*
G02*
X54971500Y32170000I-425000J0D01*
G01*
X54121500Y32170000D01*
G75*
G02*
X53696500Y32595000I0J425000D01*
G01*
G37*
%TD*%
%TO.C,REF\u002A\u002A*%
G36*
G01*
X51156500Y32595000D02*
X51156500Y33445000D01*
G75*
G02*
X51581500Y33870000I425000J0D01*
G01*
X52431500Y33870000D01*
G75*
G02*
X52856500Y33445000I0J-425000D01*
G01*
X52856500Y32595000D01*
G75*
G02*
X52431500Y32170000I-425000J0D01*
G01*
X51581500Y32170000D01*
G75*
G02*
X51156500Y32595000I0J425000D01*
G01*
G37*
%TD*%
%TO.C,REF\u002A\u002A*%
G36*
G01*
X48616500Y32595000D02*
X48616500Y33445000D01*
G75*
G02*
X49041500Y33870000I425000J0D01*
G01*
X49891500Y33870000D01*
G75*
G02*
X50316500Y33445000I0J-425000D01*
G01*
X50316500Y32595000D01*
G75*
G02*
X49891500Y32170000I-425000J0D01*
G01*
X49041500Y32170000D01*
G75*
G02*
X48616500Y32595000I0J425000D01*
G01*
G37*
%TD*%
%TO.C,REF\u002A\u002A*%
G36*
G01*
X46076500Y32595000D02*
X46076500Y33445000D01*
G75*
G02*
X46501500Y33870000I425000J0D01*
G01*
X47351500Y33870000D01*
G75*
G02*
X47776500Y33445000I0J-425000D01*
G01*
X47776500Y32595000D01*
G75*
G02*
X47351500Y32170000I-425000J0D01*
G01*
X46501500Y32170000D01*
G75*
G02*
X46076500Y32595000I0J425000D01*
G01*
G37*
%TD*%
%TO.C,REF\u002A\u002A*%
G36*
G01*
X43536500Y32595000D02*
X43536500Y33445000D01*
G75*
G02*
X43961500Y33870000I425000J0D01*
G01*
X44811500Y33870000D01*
G75*
G02*
X45236500Y33445000I0J-425000D01*
G01*
X45236500Y32595000D01*
G75*
G02*
X44811500Y32170000I-425000J0D01*
G01*
X43961500Y32170000D01*
G75*
G02*
X43536500Y32595000I0J425000D01*
G01*
G37*
%TD*%
%TO.C,REF\u002A\u002A*%
G36*
G01*
X40996500Y32595000D02*
X40996500Y33445000D01*
G75*
G02*
X41421500Y33870000I425000J0D01*
G01*
X42271500Y33870000D01*
G75*
G02*
X42696500Y33445000I0J-425000D01*
G01*
X42696500Y32595000D01*
G75*
G02*
X42271500Y32170000I-425000J0D01*
G01*
X41421500Y32170000D01*
G75*
G02*
X40996500Y32595000I0J425000D01*
G01*
G37*
%TD*%
%TO.C,REF\u002A\u002A*%
G36*
G01*
X38456500Y32595000D02*
X38456500Y33445000D01*
G75*
G02*
X38881500Y33870000I425000J0D01*
G01*
X39731500Y33870000D01*
G75*
G02*
X40156500Y33445000I0J-425000D01*
G01*
X40156500Y32595000D01*
G75*
G02*
X39731500Y32170000I-425000J0D01*
G01*
X38881500Y32170000D01*
G75*
G02*
X38456500Y32595000I0J425000D01*
G01*
G37*
%TD*%
%TO.C,REF\u002A\u002A*%
G36*
G01*
X35916500Y32595000D02*
X35916500Y33445000D01*
G75*
G02*
X36341500Y33870000I425000J0D01*
G01*
X37191500Y33870000D01*
G75*
G02*
X37616500Y33445000I0J-425000D01*
G01*
X37616500Y32595000D01*
G75*
G02*
X37191500Y32170000I-425000J0D01*
G01*
X36341500Y32170000D01*
G75*
G02*
X35916500Y32595000I0J425000D01*
G01*
G37*
%TD*%
%TO.C,REF\u002A\u002A*%
G36*
G01*
X33376500Y32595000D02*
X33376500Y33445000D01*
G75*
G02*
X33801500Y33870000I425000J0D01*
G01*
X34651500Y33870000D01*
G75*
G02*
X35076500Y33445000I0J-425000D01*
G01*
X35076500Y32595000D01*
G75*
G02*
X34651500Y32170000I-425000J0D01*
G01*
X33801500Y32170000D01*
G75*
G02*
X33376500Y32595000I0J425000D01*
G01*
G37*
%TD*%
%TO.C,REF\u002A\u002A*%
G36*
G01*
X30836500Y32595000D02*
X30836500Y33445000D01*
G75*
G02*
X31261500Y33870000I425000J0D01*
G01*
X32111500Y33870000D01*
G75*
G02*
X32536500Y33445000I0J-425000D01*
G01*
X32536500Y32595000D01*
G75*
G02*
X32111500Y32170000I-425000J0D01*
G01*
X31261500Y32170000D01*
G75*
G02*
X30836500Y32595000I0J425000D01*
G01*
G37*
%TD*%
%TO.C,REF\u002A\u002A*%
G36*
G01*
X28296500Y32595000D02*
X28296500Y33445000D01*
G75*
G02*
X28721500Y33870000I425000J0D01*
G01*
X29571500Y33870000D01*
G75*
G02*
X29996500Y33445000I0J-425000D01*
G01*
X29996500Y32595000D01*
G75*
G02*
X29571500Y32170000I-425000J0D01*
G01*
X28721500Y32170000D01*
G75*
G02*
X28296500Y32595000I0J425000D01*
G01*
G37*
%TD*%
%TO.C,REF\u002A\u002A*%
G36*
G01*
X25756500Y32595000D02*
X25756500Y33445000D01*
G75*
G02*
X26181500Y33870000I425000J0D01*
G01*
X27031500Y33870000D01*
G75*
G02*
X27456500Y33445000I0J-425000D01*
G01*
X27456500Y32595000D01*
G75*
G02*
X27031500Y32170000I-425000J0D01*
G01*
X26181500Y32170000D01*
G75*
G02*
X25756500Y32595000I0J425000D01*
G01*
G37*
%TD*%
%TO.C,REF\u002A\u002A*%
G36*
G01*
X23216500Y32595000D02*
X23216500Y33445000D01*
G75*
G02*
X23641500Y33870000I425000J0D01*
G01*
X24491500Y33870000D01*
G75*
G02*
X24916500Y33445000I0J-425000D01*
G01*
X24916500Y32595000D01*
G75*
G02*
X24491500Y32170000I-425000J0D01*
G01*
X23641500Y32170000D01*
G75*
G02*
X23216500Y32595000I0J425000D01*
G01*
G37*
%TD*%
%TO.C,REF\u002A\u002A*%
G36*
G01*
X20676500Y32595000D02*
X20676500Y33445000D01*
G75*
G02*
X21101500Y33870000I425000J0D01*
G01*
X21951500Y33870000D01*
G75*
G02*
X22376500Y33445000I0J-425000D01*
G01*
X22376500Y32595000D01*
G75*
G02*
X21951500Y32170000I-425000J0D01*
G01*
X21101500Y32170000D01*
G75*
G02*
X20676500Y32595000I0J425000D01*
G01*
G37*
%TD*%
%TO.C,REF\u002A\u002A*%
G36*
G01*
X18136500Y32595000D02*
X18136500Y33445000D01*
G75*
G02*
X18561500Y33870000I425000J0D01*
G01*
X19411500Y33870000D01*
G75*
G02*
X19836500Y33445000I0J-425000D01*
G01*
X19836500Y32595000D01*
G75*
G02*
X19411500Y32170000I-425000J0D01*
G01*
X18561500Y32170000D01*
G75*
G02*
X18136500Y32595000I0J425000D01*
G01*
G37*
%TD*%
%TO.C,REF\u002A\u002A*%
G36*
G01*
X15596500Y32595000D02*
X15596500Y33445000D01*
G75*
G02*
X16021500Y33870000I425000J0D01*
G01*
X16871500Y33870000D01*
G75*
G02*
X17296500Y33445000I0J-425000D01*
G01*
X17296500Y32595000D01*
G75*
G02*
X16871500Y32170000I-425000J0D01*
G01*
X16021500Y32170000D01*
G75*
G02*
X15596500Y32595000I0J425000D01*
G01*
G37*
%TD*%
%TO.C,REF\u002A\u002A*%
G36*
G01*
X13056500Y32595000D02*
X13056500Y33445000D01*
G75*
G02*
X13481500Y33870000I425000J0D01*
G01*
X14331500Y33870000D01*
G75*
G02*
X14756500Y33445000I0J-425000D01*
G01*
X14756500Y32595000D01*
G75*
G02*
X14331500Y32170000I-425000J0D01*
G01*
X13481500Y32170000D01*
G75*
G02*
X13056500Y32595000I0J425000D01*
G01*
G37*
%TD*%
%TO.C,REF\u002A\u002A*%
G36*
G01*
X10516500Y32595000D02*
X10516500Y33445000D01*
G75*
G02*
X10941500Y33870000I425000J0D01*
G01*
X11791500Y33870000D01*
G75*
G02*
X12216500Y33445000I0J-425000D01*
G01*
X12216500Y32595000D01*
G75*
G02*
X11791500Y32170000I-425000J0D01*
G01*
X10941500Y32170000D01*
G75*
G02*
X10516500Y32595000I0J425000D01*
G01*
G37*
%TD*%
%TO.C,REF\u002A\u002A*%
G36*
G01*
X7976500Y32595000D02*
X7976500Y33445000D01*
G75*
G02*
X8401500Y33870000I425000J0D01*
G01*
X9251500Y33870000D01*
G75*
G02*
X9676500Y33445000I0J-425000D01*
G01*
X9676500Y32595000D01*
G75*
G02*
X9251500Y32170000I-425000J0D01*
G01*
X8401500Y32170000D01*
G75*
G02*
X7976500Y32595000I0J425000D01*
G01*
G37*
%TD*%
%TO.C,REF\u002A\u002A*%
G36*
G01*
X5436500Y32595000D02*
X5436500Y33445000D01*
G75*
G02*
X5861500Y33870000I425000J0D01*
G01*
X6711500Y33870000D01*
G75*
G02*
X7136500Y33445000I0J-425000D01*
G01*
X7136500Y32595000D01*
G75*
G02*
X6711500Y32170000I-425000J0D01*
G01*
X5861500Y32170000D01*
G75*
G02*
X5436500Y32595000I0J425000D01*
G01*
G37*
%TD*%
%TO.C,REF\u002A\u002A*%
G36*
G01*
X76556500Y12275000D02*
X76556500Y13125000D01*
G75*
G02*
X76981500Y13550000I425000J0D01*
G01*
X77831500Y13550000D01*
G75*
G02*
X78256500Y13125000I0J-425000D01*
G01*
X78256500Y12275000D01*
G75*
G02*
X77831500Y11850000I-425000J0D01*
G01*
X76981500Y11850000D01*
G75*
G02*
X76556500Y12275000I0J425000D01*
G01*
G37*
%TD*%
%TO.C,REF\u002A\u002A*%
G36*
G01*
X74016500Y12275000D02*
X74016500Y13125000D01*
G75*
G02*
X74441500Y13550000I425000J0D01*
G01*
X75291500Y13550000D01*
G75*
G02*
X75716500Y13125000I0J-425000D01*
G01*
X75716500Y12275000D01*
G75*
G02*
X75291500Y11850000I-425000J0D01*
G01*
X74441500Y11850000D01*
G75*
G02*
X74016500Y12275000I0J425000D01*
G01*
G37*
%TD*%
%TO.C,REF\u002A\u002A*%
G36*
G01*
X71476500Y12275000D02*
X71476500Y13125000D01*
G75*
G02*
X71901500Y13550000I425000J0D01*
G01*
X72751500Y13550000D01*
G75*
G02*
X73176500Y13125000I0J-425000D01*
G01*
X73176500Y12275000D01*
G75*
G02*
X72751500Y11850000I-425000J0D01*
G01*
X71901500Y11850000D01*
G75*
G02*
X71476500Y12275000I0J425000D01*
G01*
G37*
%TD*%
%TO.C,REF\u002A\u002A*%
G36*
G01*
X68936500Y12275000D02*
X68936500Y13125000D01*
G75*
G02*
X69361500Y13550000I425000J0D01*
G01*
X70211500Y13550000D01*
G75*
G02*
X70636500Y13125000I0J-425000D01*
G01*
X70636500Y12275000D01*
G75*
G02*
X70211500Y11850000I-425000J0D01*
G01*
X69361500Y11850000D01*
G75*
G02*
X68936500Y12275000I0J425000D01*
G01*
G37*
%TD*%
%TO.C,REF\u002A\u002A*%
G36*
G01*
X66396500Y12275000D02*
X66396500Y13125000D01*
G75*
G02*
X66821500Y13550000I425000J0D01*
G01*
X67671500Y13550000D01*
G75*
G02*
X68096500Y13125000I0J-425000D01*
G01*
X68096500Y12275000D01*
G75*
G02*
X67671500Y11850000I-425000J0D01*
G01*
X66821500Y11850000D01*
G75*
G02*
X66396500Y12275000I0J425000D01*
G01*
G37*
%TD*%
%TO.C,REF\u002A\u002A*%
G36*
G01*
X63856500Y12275000D02*
X63856500Y13125000D01*
G75*
G02*
X64281500Y13550000I425000J0D01*
G01*
X65131500Y13550000D01*
G75*
G02*
X65556500Y13125000I0J-425000D01*
G01*
X65556500Y12275000D01*
G75*
G02*
X65131500Y11850000I-425000J0D01*
G01*
X64281500Y11850000D01*
G75*
G02*
X63856500Y12275000I0J425000D01*
G01*
G37*
%TD*%
%TO.C,REF\u002A\u002A*%
G36*
G01*
X61316500Y12275000D02*
X61316500Y13125000D01*
G75*
G02*
X61741500Y13550000I425000J0D01*
G01*
X62591500Y13550000D01*
G75*
G02*
X63016500Y13125000I0J-425000D01*
G01*
X63016500Y12275000D01*
G75*
G02*
X62591500Y11850000I-425000J0D01*
G01*
X61741500Y11850000D01*
G75*
G02*
X61316500Y12275000I0J425000D01*
G01*
G37*
%TD*%
%TO.C,REF\u002A\u002A*%
G36*
G01*
X58776500Y12275000D02*
X58776500Y13125000D01*
G75*
G02*
X59201500Y13550000I425000J0D01*
G01*
X60051500Y13550000D01*
G75*
G02*
X60476500Y13125000I0J-425000D01*
G01*
X60476500Y12275000D01*
G75*
G02*
X60051500Y11850000I-425000J0D01*
G01*
X59201500Y11850000D01*
G75*
G02*
X58776500Y12275000I0J425000D01*
G01*
G37*
%TD*%
%TO.C,REF\u002A\u002A*%
G36*
G01*
X56236500Y12275000D02*
X56236500Y13125000D01*
G75*
G02*
X56661500Y13550000I425000J0D01*
G01*
X57511500Y13550000D01*
G75*
G02*
X57936500Y13125000I0J-425000D01*
G01*
X57936500Y12275000D01*
G75*
G02*
X57511500Y11850000I-425000J0D01*
G01*
X56661500Y11850000D01*
G75*
G02*
X56236500Y12275000I0J425000D01*
G01*
G37*
%TD*%
%TO.C,REF\u002A\u002A*%
G36*
G01*
X53696500Y12275000D02*
X53696500Y13125000D01*
G75*
G02*
X54121500Y13550000I425000J0D01*
G01*
X54971500Y13550000D01*
G75*
G02*
X55396500Y13125000I0J-425000D01*
G01*
X55396500Y12275000D01*
G75*
G02*
X54971500Y11850000I-425000J0D01*
G01*
X54121500Y11850000D01*
G75*
G02*
X53696500Y12275000I0J425000D01*
G01*
G37*
%TD*%
%TO.C,REF\u002A\u002A*%
G36*
G01*
X51156500Y12275000D02*
X51156500Y13125000D01*
G75*
G02*
X51581500Y13550000I425000J0D01*
G01*
X52431500Y13550000D01*
G75*
G02*
X52856500Y13125000I0J-425000D01*
G01*
X52856500Y12275000D01*
G75*
G02*
X52431500Y11850000I-425000J0D01*
G01*
X51581500Y11850000D01*
G75*
G02*
X51156500Y12275000I0J425000D01*
G01*
G37*
%TD*%
%TO.C,REF\u002A\u002A*%
G36*
G01*
X48616500Y12275000D02*
X48616500Y13125000D01*
G75*
G02*
X49041500Y13550000I425000J0D01*
G01*
X49891500Y13550000D01*
G75*
G02*
X50316500Y13125000I0J-425000D01*
G01*
X50316500Y12275000D01*
G75*
G02*
X49891500Y11850000I-425000J0D01*
G01*
X49041500Y11850000D01*
G75*
G02*
X48616500Y12275000I0J425000D01*
G01*
G37*
%TD*%
%TO.C,REF\u002A\u002A*%
G36*
G01*
X46076500Y12275000D02*
X46076500Y13125000D01*
G75*
G02*
X46501500Y13550000I425000J0D01*
G01*
X47351500Y13550000D01*
G75*
G02*
X47776500Y13125000I0J-425000D01*
G01*
X47776500Y12275000D01*
G75*
G02*
X47351500Y11850000I-425000J0D01*
G01*
X46501500Y11850000D01*
G75*
G02*
X46076500Y12275000I0J425000D01*
G01*
G37*
%TD*%
%TO.C,REF\u002A\u002A*%
G36*
G01*
X43536500Y12275000D02*
X43536500Y13125000D01*
G75*
G02*
X43961500Y13550000I425000J0D01*
G01*
X44811500Y13550000D01*
G75*
G02*
X45236500Y13125000I0J-425000D01*
G01*
X45236500Y12275000D01*
G75*
G02*
X44811500Y11850000I-425000J0D01*
G01*
X43961500Y11850000D01*
G75*
G02*
X43536500Y12275000I0J425000D01*
G01*
G37*
%TD*%
%TO.C,REF\u002A\u002A*%
G36*
G01*
X40996500Y12275000D02*
X40996500Y13125000D01*
G75*
G02*
X41421500Y13550000I425000J0D01*
G01*
X42271500Y13550000D01*
G75*
G02*
X42696500Y13125000I0J-425000D01*
G01*
X42696500Y12275000D01*
G75*
G02*
X42271500Y11850000I-425000J0D01*
G01*
X41421500Y11850000D01*
G75*
G02*
X40996500Y12275000I0J425000D01*
G01*
G37*
%TD*%
%TO.C,REF\u002A\u002A*%
G36*
G01*
X38456500Y12275000D02*
X38456500Y13125000D01*
G75*
G02*
X38881500Y13550000I425000J0D01*
G01*
X39731500Y13550000D01*
G75*
G02*
X40156500Y13125000I0J-425000D01*
G01*
X40156500Y12275000D01*
G75*
G02*
X39731500Y11850000I-425000J0D01*
G01*
X38881500Y11850000D01*
G75*
G02*
X38456500Y12275000I0J425000D01*
G01*
G37*
%TD*%
%TO.C,REF\u002A\u002A*%
G36*
G01*
X35916500Y12275000D02*
X35916500Y13125000D01*
G75*
G02*
X36341500Y13550000I425000J0D01*
G01*
X37191500Y13550000D01*
G75*
G02*
X37616500Y13125000I0J-425000D01*
G01*
X37616500Y12275000D01*
G75*
G02*
X37191500Y11850000I-425000J0D01*
G01*
X36341500Y11850000D01*
G75*
G02*
X35916500Y12275000I0J425000D01*
G01*
G37*
%TD*%
%TO.C,REF\u002A\u002A*%
G36*
G01*
X33376500Y12275000D02*
X33376500Y13125000D01*
G75*
G02*
X33801500Y13550000I425000J0D01*
G01*
X34651500Y13550000D01*
G75*
G02*
X35076500Y13125000I0J-425000D01*
G01*
X35076500Y12275000D01*
G75*
G02*
X34651500Y11850000I-425000J0D01*
G01*
X33801500Y11850000D01*
G75*
G02*
X33376500Y12275000I0J425000D01*
G01*
G37*
%TD*%
%TO.C,REF\u002A\u002A*%
G36*
G01*
X30836500Y12275000D02*
X30836500Y13125000D01*
G75*
G02*
X31261500Y13550000I425000J0D01*
G01*
X32111500Y13550000D01*
G75*
G02*
X32536500Y13125000I0J-425000D01*
G01*
X32536500Y12275000D01*
G75*
G02*
X32111500Y11850000I-425000J0D01*
G01*
X31261500Y11850000D01*
G75*
G02*
X30836500Y12275000I0J425000D01*
G01*
G37*
%TD*%
%TO.C,REF\u002A\u002A*%
G36*
G01*
X28296500Y12275000D02*
X28296500Y13125000D01*
G75*
G02*
X28721500Y13550000I425000J0D01*
G01*
X29571500Y13550000D01*
G75*
G02*
X29996500Y13125000I0J-425000D01*
G01*
X29996500Y12275000D01*
G75*
G02*
X29571500Y11850000I-425000J0D01*
G01*
X28721500Y11850000D01*
G75*
G02*
X28296500Y12275000I0J425000D01*
G01*
G37*
%TD*%
%TO.C,REF\u002A\u002A*%
G36*
G01*
X25756500Y12275000D02*
X25756500Y13125000D01*
G75*
G02*
X26181500Y13550000I425000J0D01*
G01*
X27031500Y13550000D01*
G75*
G02*
X27456500Y13125000I0J-425000D01*
G01*
X27456500Y12275000D01*
G75*
G02*
X27031500Y11850000I-425000J0D01*
G01*
X26181500Y11850000D01*
G75*
G02*
X25756500Y12275000I0J425000D01*
G01*
G37*
%TD*%
%TO.C,REF\u002A\u002A*%
G36*
G01*
X23216500Y12275000D02*
X23216500Y13125000D01*
G75*
G02*
X23641500Y13550000I425000J0D01*
G01*
X24491500Y13550000D01*
G75*
G02*
X24916500Y13125000I0J-425000D01*
G01*
X24916500Y12275000D01*
G75*
G02*
X24491500Y11850000I-425000J0D01*
G01*
X23641500Y11850000D01*
G75*
G02*
X23216500Y12275000I0J425000D01*
G01*
G37*
%TD*%
%TO.C,REF\u002A\u002A*%
G36*
G01*
X20676500Y12275000D02*
X20676500Y13125000D01*
G75*
G02*
X21101500Y13550000I425000J0D01*
G01*
X21951500Y13550000D01*
G75*
G02*
X22376500Y13125000I0J-425000D01*
G01*
X22376500Y12275000D01*
G75*
G02*
X21951500Y11850000I-425000J0D01*
G01*
X21101500Y11850000D01*
G75*
G02*
X20676500Y12275000I0J425000D01*
G01*
G37*
%TD*%
%TO.C,REF\u002A\u002A*%
G36*
G01*
X18136500Y12275000D02*
X18136500Y13125000D01*
G75*
G02*
X18561500Y13550000I425000J0D01*
G01*
X19411500Y13550000D01*
G75*
G02*
X19836500Y13125000I0J-425000D01*
G01*
X19836500Y12275000D01*
G75*
G02*
X19411500Y11850000I-425000J0D01*
G01*
X18561500Y11850000D01*
G75*
G02*
X18136500Y12275000I0J425000D01*
G01*
G37*
%TD*%
%TO.C,REF\u002A\u002A*%
G36*
G01*
X15596500Y12275000D02*
X15596500Y13125000D01*
G75*
G02*
X16021500Y13550000I425000J0D01*
G01*
X16871500Y13550000D01*
G75*
G02*
X17296500Y13125000I0J-425000D01*
G01*
X17296500Y12275000D01*
G75*
G02*
X16871500Y11850000I-425000J0D01*
G01*
X16021500Y11850000D01*
G75*
G02*
X15596500Y12275000I0J425000D01*
G01*
G37*
%TD*%
%TO.C,REF\u002A\u002A*%
G36*
G01*
X13056500Y12275000D02*
X13056500Y13125000D01*
G75*
G02*
X13481500Y13550000I425000J0D01*
G01*
X14331500Y13550000D01*
G75*
G02*
X14756500Y13125000I0J-425000D01*
G01*
X14756500Y12275000D01*
G75*
G02*
X14331500Y11850000I-425000J0D01*
G01*
X13481500Y11850000D01*
G75*
G02*
X13056500Y12275000I0J425000D01*
G01*
G37*
%TD*%
%TO.C,REF\u002A\u002A*%
G36*
G01*
X10516500Y12275000D02*
X10516500Y13125000D01*
G75*
G02*
X10941500Y13550000I425000J0D01*
G01*
X11791500Y13550000D01*
G75*
G02*
X12216500Y13125000I0J-425000D01*
G01*
X12216500Y12275000D01*
G75*
G02*
X11791500Y11850000I-425000J0D01*
G01*
X10941500Y11850000D01*
G75*
G02*
X10516500Y12275000I0J425000D01*
G01*
G37*
%TD*%
%TO.C,REF\u002A\u002A*%
G36*
G01*
X7976500Y12275000D02*
X7976500Y13125000D01*
G75*
G02*
X8401500Y13550000I425000J0D01*
G01*
X9251500Y13550000D01*
G75*
G02*
X9676500Y13125000I0J-425000D01*
G01*
X9676500Y12275000D01*
G75*
G02*
X9251500Y11850000I-425000J0D01*
G01*
X8401500Y11850000D01*
G75*
G02*
X7976500Y12275000I0J425000D01*
G01*
G37*
%TD*%
%TO.C,REF\u002A\u002A*%
G36*
G01*
X5436500Y12275000D02*
X5436500Y13125000D01*
G75*
G02*
X5861500Y13550000I425000J0D01*
G01*
X6711500Y13550000D01*
G75*
G02*
X7136500Y13125000I0J-425000D01*
G01*
X7136500Y12275000D01*
G75*
G02*
X6711500Y11850000I-425000J0D01*
G01*
X5861500Y11850000D01*
G75*
G02*
X5436500Y12275000I0J425000D01*
G01*
G37*
%TD*%
%TO.C,REF\u002A\u002A*%
G36*
G01*
X76556500Y14815000D02*
X76556500Y15665000D01*
G75*
G02*
X76981500Y16090000I425000J0D01*
G01*
X77831500Y16090000D01*
G75*
G02*
X78256500Y15665000I0J-425000D01*
G01*
X78256500Y14815000D01*
G75*
G02*
X77831500Y14390000I-425000J0D01*
G01*
X76981500Y14390000D01*
G75*
G02*
X76556500Y14815000I0J425000D01*
G01*
G37*
%TD*%
%TO.C,REF\u002A\u002A*%
G36*
G01*
X74016500Y14815000D02*
X74016500Y15665000D01*
G75*
G02*
X74441500Y16090000I425000J0D01*
G01*
X75291500Y16090000D01*
G75*
G02*
X75716500Y15665000I0J-425000D01*
G01*
X75716500Y14815000D01*
G75*
G02*
X75291500Y14390000I-425000J0D01*
G01*
X74441500Y14390000D01*
G75*
G02*
X74016500Y14815000I0J425000D01*
G01*
G37*
%TD*%
%TO.C,REF\u002A\u002A*%
G36*
G01*
X71476500Y14815000D02*
X71476500Y15665000D01*
G75*
G02*
X71901500Y16090000I425000J0D01*
G01*
X72751500Y16090000D01*
G75*
G02*
X73176500Y15665000I0J-425000D01*
G01*
X73176500Y14815000D01*
G75*
G02*
X72751500Y14390000I-425000J0D01*
G01*
X71901500Y14390000D01*
G75*
G02*
X71476500Y14815000I0J425000D01*
G01*
G37*
%TD*%
%TO.C,REF\u002A\u002A*%
G36*
G01*
X68936500Y14815000D02*
X68936500Y15665000D01*
G75*
G02*
X69361500Y16090000I425000J0D01*
G01*
X70211500Y16090000D01*
G75*
G02*
X70636500Y15665000I0J-425000D01*
G01*
X70636500Y14815000D01*
G75*
G02*
X70211500Y14390000I-425000J0D01*
G01*
X69361500Y14390000D01*
G75*
G02*
X68936500Y14815000I0J425000D01*
G01*
G37*
%TD*%
%TO.C,REF\u002A\u002A*%
G36*
G01*
X66396500Y14815000D02*
X66396500Y15665000D01*
G75*
G02*
X66821500Y16090000I425000J0D01*
G01*
X67671500Y16090000D01*
G75*
G02*
X68096500Y15665000I0J-425000D01*
G01*
X68096500Y14815000D01*
G75*
G02*
X67671500Y14390000I-425000J0D01*
G01*
X66821500Y14390000D01*
G75*
G02*
X66396500Y14815000I0J425000D01*
G01*
G37*
%TD*%
%TO.C,REF\u002A\u002A*%
G36*
G01*
X63856500Y14815000D02*
X63856500Y15665000D01*
G75*
G02*
X64281500Y16090000I425000J0D01*
G01*
X65131500Y16090000D01*
G75*
G02*
X65556500Y15665000I0J-425000D01*
G01*
X65556500Y14815000D01*
G75*
G02*
X65131500Y14390000I-425000J0D01*
G01*
X64281500Y14390000D01*
G75*
G02*
X63856500Y14815000I0J425000D01*
G01*
G37*
%TD*%
%TO.C,REF\u002A\u002A*%
G36*
G01*
X61316500Y14815000D02*
X61316500Y15665000D01*
G75*
G02*
X61741500Y16090000I425000J0D01*
G01*
X62591500Y16090000D01*
G75*
G02*
X63016500Y15665000I0J-425000D01*
G01*
X63016500Y14815000D01*
G75*
G02*
X62591500Y14390000I-425000J0D01*
G01*
X61741500Y14390000D01*
G75*
G02*
X61316500Y14815000I0J425000D01*
G01*
G37*
%TD*%
%TO.C,REF\u002A\u002A*%
G36*
G01*
X58776500Y14815000D02*
X58776500Y15665000D01*
G75*
G02*
X59201500Y16090000I425000J0D01*
G01*
X60051500Y16090000D01*
G75*
G02*
X60476500Y15665000I0J-425000D01*
G01*
X60476500Y14815000D01*
G75*
G02*
X60051500Y14390000I-425000J0D01*
G01*
X59201500Y14390000D01*
G75*
G02*
X58776500Y14815000I0J425000D01*
G01*
G37*
%TD*%
%TO.C,REF\u002A\u002A*%
G36*
G01*
X56236500Y14815000D02*
X56236500Y15665000D01*
G75*
G02*
X56661500Y16090000I425000J0D01*
G01*
X57511500Y16090000D01*
G75*
G02*
X57936500Y15665000I0J-425000D01*
G01*
X57936500Y14815000D01*
G75*
G02*
X57511500Y14390000I-425000J0D01*
G01*
X56661500Y14390000D01*
G75*
G02*
X56236500Y14815000I0J425000D01*
G01*
G37*
%TD*%
%TO.C,REF\u002A\u002A*%
G36*
G01*
X53696500Y14815000D02*
X53696500Y15665000D01*
G75*
G02*
X54121500Y16090000I425000J0D01*
G01*
X54971500Y16090000D01*
G75*
G02*
X55396500Y15665000I0J-425000D01*
G01*
X55396500Y14815000D01*
G75*
G02*
X54971500Y14390000I-425000J0D01*
G01*
X54121500Y14390000D01*
G75*
G02*
X53696500Y14815000I0J425000D01*
G01*
G37*
%TD*%
%TO.C,REF\u002A\u002A*%
G36*
G01*
X51156500Y14815000D02*
X51156500Y15665000D01*
G75*
G02*
X51581500Y16090000I425000J0D01*
G01*
X52431500Y16090000D01*
G75*
G02*
X52856500Y15665000I0J-425000D01*
G01*
X52856500Y14815000D01*
G75*
G02*
X52431500Y14390000I-425000J0D01*
G01*
X51581500Y14390000D01*
G75*
G02*
X51156500Y14815000I0J425000D01*
G01*
G37*
%TD*%
%TO.C,REF\u002A\u002A*%
G36*
G01*
X48616500Y14815000D02*
X48616500Y15665000D01*
G75*
G02*
X49041500Y16090000I425000J0D01*
G01*
X49891500Y16090000D01*
G75*
G02*
X50316500Y15665000I0J-425000D01*
G01*
X50316500Y14815000D01*
G75*
G02*
X49891500Y14390000I-425000J0D01*
G01*
X49041500Y14390000D01*
G75*
G02*
X48616500Y14815000I0J425000D01*
G01*
G37*
%TD*%
%TO.C,REF\u002A\u002A*%
G36*
G01*
X46076500Y14815000D02*
X46076500Y15665000D01*
G75*
G02*
X46501500Y16090000I425000J0D01*
G01*
X47351500Y16090000D01*
G75*
G02*
X47776500Y15665000I0J-425000D01*
G01*
X47776500Y14815000D01*
G75*
G02*
X47351500Y14390000I-425000J0D01*
G01*
X46501500Y14390000D01*
G75*
G02*
X46076500Y14815000I0J425000D01*
G01*
G37*
%TD*%
%TO.C,REF\u002A\u002A*%
G36*
G01*
X43536500Y14815000D02*
X43536500Y15665000D01*
G75*
G02*
X43961500Y16090000I425000J0D01*
G01*
X44811500Y16090000D01*
G75*
G02*
X45236500Y15665000I0J-425000D01*
G01*
X45236500Y14815000D01*
G75*
G02*
X44811500Y14390000I-425000J0D01*
G01*
X43961500Y14390000D01*
G75*
G02*
X43536500Y14815000I0J425000D01*
G01*
G37*
%TD*%
%TO.C,REF\u002A\u002A*%
G36*
G01*
X40996500Y14815000D02*
X40996500Y15665000D01*
G75*
G02*
X41421500Y16090000I425000J0D01*
G01*
X42271500Y16090000D01*
G75*
G02*
X42696500Y15665000I0J-425000D01*
G01*
X42696500Y14815000D01*
G75*
G02*
X42271500Y14390000I-425000J0D01*
G01*
X41421500Y14390000D01*
G75*
G02*
X40996500Y14815000I0J425000D01*
G01*
G37*
%TD*%
%TO.C,REF\u002A\u002A*%
G36*
G01*
X38456500Y14815000D02*
X38456500Y15665000D01*
G75*
G02*
X38881500Y16090000I425000J0D01*
G01*
X39731500Y16090000D01*
G75*
G02*
X40156500Y15665000I0J-425000D01*
G01*
X40156500Y14815000D01*
G75*
G02*
X39731500Y14390000I-425000J0D01*
G01*
X38881500Y14390000D01*
G75*
G02*
X38456500Y14815000I0J425000D01*
G01*
G37*
%TD*%
%TO.C,REF\u002A\u002A*%
G36*
G01*
X35916500Y14815000D02*
X35916500Y15665000D01*
G75*
G02*
X36341500Y16090000I425000J0D01*
G01*
X37191500Y16090000D01*
G75*
G02*
X37616500Y15665000I0J-425000D01*
G01*
X37616500Y14815000D01*
G75*
G02*
X37191500Y14390000I-425000J0D01*
G01*
X36341500Y14390000D01*
G75*
G02*
X35916500Y14815000I0J425000D01*
G01*
G37*
%TD*%
%TO.C,REF\u002A\u002A*%
G36*
G01*
X33376500Y14815000D02*
X33376500Y15665000D01*
G75*
G02*
X33801500Y16090000I425000J0D01*
G01*
X34651500Y16090000D01*
G75*
G02*
X35076500Y15665000I0J-425000D01*
G01*
X35076500Y14815000D01*
G75*
G02*
X34651500Y14390000I-425000J0D01*
G01*
X33801500Y14390000D01*
G75*
G02*
X33376500Y14815000I0J425000D01*
G01*
G37*
%TD*%
%TO.C,REF\u002A\u002A*%
G36*
G01*
X30836500Y14815000D02*
X30836500Y15665000D01*
G75*
G02*
X31261500Y16090000I425000J0D01*
G01*
X32111500Y16090000D01*
G75*
G02*
X32536500Y15665000I0J-425000D01*
G01*
X32536500Y14815000D01*
G75*
G02*
X32111500Y14390000I-425000J0D01*
G01*
X31261500Y14390000D01*
G75*
G02*
X30836500Y14815000I0J425000D01*
G01*
G37*
%TD*%
%TO.C,REF\u002A\u002A*%
G36*
G01*
X28296500Y14815000D02*
X28296500Y15665000D01*
G75*
G02*
X28721500Y16090000I425000J0D01*
G01*
X29571500Y16090000D01*
G75*
G02*
X29996500Y15665000I0J-425000D01*
G01*
X29996500Y14815000D01*
G75*
G02*
X29571500Y14390000I-425000J0D01*
G01*
X28721500Y14390000D01*
G75*
G02*
X28296500Y14815000I0J425000D01*
G01*
G37*
%TD*%
%TO.C,REF\u002A\u002A*%
G36*
G01*
X25756500Y14815000D02*
X25756500Y15665000D01*
G75*
G02*
X26181500Y16090000I425000J0D01*
G01*
X27031500Y16090000D01*
G75*
G02*
X27456500Y15665000I0J-425000D01*
G01*
X27456500Y14815000D01*
G75*
G02*
X27031500Y14390000I-425000J0D01*
G01*
X26181500Y14390000D01*
G75*
G02*
X25756500Y14815000I0J425000D01*
G01*
G37*
%TD*%
%TO.C,REF\u002A\u002A*%
G36*
G01*
X23216500Y14815000D02*
X23216500Y15665000D01*
G75*
G02*
X23641500Y16090000I425000J0D01*
G01*
X24491500Y16090000D01*
G75*
G02*
X24916500Y15665000I0J-425000D01*
G01*
X24916500Y14815000D01*
G75*
G02*
X24491500Y14390000I-425000J0D01*
G01*
X23641500Y14390000D01*
G75*
G02*
X23216500Y14815000I0J425000D01*
G01*
G37*
%TD*%
%TO.C,REF\u002A\u002A*%
G36*
G01*
X20676500Y14815000D02*
X20676500Y15665000D01*
G75*
G02*
X21101500Y16090000I425000J0D01*
G01*
X21951500Y16090000D01*
G75*
G02*
X22376500Y15665000I0J-425000D01*
G01*
X22376500Y14815000D01*
G75*
G02*
X21951500Y14390000I-425000J0D01*
G01*
X21101500Y14390000D01*
G75*
G02*
X20676500Y14815000I0J425000D01*
G01*
G37*
%TD*%
%TO.C,REF\u002A\u002A*%
G36*
G01*
X18136500Y14815000D02*
X18136500Y15665000D01*
G75*
G02*
X18561500Y16090000I425000J0D01*
G01*
X19411500Y16090000D01*
G75*
G02*
X19836500Y15665000I0J-425000D01*
G01*
X19836500Y14815000D01*
G75*
G02*
X19411500Y14390000I-425000J0D01*
G01*
X18561500Y14390000D01*
G75*
G02*
X18136500Y14815000I0J425000D01*
G01*
G37*
%TD*%
%TO.C,REF\u002A\u002A*%
G36*
G01*
X15596500Y14815000D02*
X15596500Y15665000D01*
G75*
G02*
X16021500Y16090000I425000J0D01*
G01*
X16871500Y16090000D01*
G75*
G02*
X17296500Y15665000I0J-425000D01*
G01*
X17296500Y14815000D01*
G75*
G02*
X16871500Y14390000I-425000J0D01*
G01*
X16021500Y14390000D01*
G75*
G02*
X15596500Y14815000I0J425000D01*
G01*
G37*
%TD*%
%TO.C,REF\u002A\u002A*%
G36*
G01*
X13056500Y14815000D02*
X13056500Y15665000D01*
G75*
G02*
X13481500Y16090000I425000J0D01*
G01*
X14331500Y16090000D01*
G75*
G02*
X14756500Y15665000I0J-425000D01*
G01*
X14756500Y14815000D01*
G75*
G02*
X14331500Y14390000I-425000J0D01*
G01*
X13481500Y14390000D01*
G75*
G02*
X13056500Y14815000I0J425000D01*
G01*
G37*
%TD*%
%TO.C,REF\u002A\u002A*%
G36*
G01*
X10516500Y14815000D02*
X10516500Y15665000D01*
G75*
G02*
X10941500Y16090000I425000J0D01*
G01*
X11791500Y16090000D01*
G75*
G02*
X12216500Y15665000I0J-425000D01*
G01*
X12216500Y14815000D01*
G75*
G02*
X11791500Y14390000I-425000J0D01*
G01*
X10941500Y14390000D01*
G75*
G02*
X10516500Y14815000I0J425000D01*
G01*
G37*
%TD*%
%TO.C,REF\u002A\u002A*%
G36*
G01*
X7976500Y14815000D02*
X7976500Y15665000D01*
G75*
G02*
X8401500Y16090000I425000J0D01*
G01*
X9251500Y16090000D01*
G75*
G02*
X9676500Y15665000I0J-425000D01*
G01*
X9676500Y14815000D01*
G75*
G02*
X9251500Y14390000I-425000J0D01*
G01*
X8401500Y14390000D01*
G75*
G02*
X7976500Y14815000I0J425000D01*
G01*
G37*
%TD*%
%TO.C,REF\u002A\u002A*%
G36*
G01*
X5436500Y14815000D02*
X5436500Y15665000D01*
G75*
G02*
X5861500Y16090000I425000J0D01*
G01*
X6711500Y16090000D01*
G75*
G02*
X7136500Y15665000I0J-425000D01*
G01*
X7136500Y14815000D01*
G75*
G02*
X6711500Y14390000I-425000J0D01*
G01*
X5861500Y14390000D01*
G75*
G02*
X5436500Y14815000I0J425000D01*
G01*
G37*
%TD*%
%TO.C,REF\u002A\u002A*%
G36*
G01*
X2896500Y14815000D02*
X2896500Y15665000D01*
G75*
G02*
X3321500Y16090000I425000J0D01*
G01*
X4171500Y16090000D01*
G75*
G02*
X4596500Y15665000I0J-425000D01*
G01*
X4596500Y14815000D01*
G75*
G02*
X4171500Y14390000I-425000J0D01*
G01*
X3321500Y14390000D01*
G75*
G02*
X2896500Y14815000I0J425000D01*
G01*
G37*
%TD*%
%TO.C,REF\u002A\u002A*%
G36*
G01*
X76556500Y17355000D02*
X76556500Y18205000D01*
G75*
G02*
X76981500Y18630000I425000J0D01*
G01*
X77831500Y18630000D01*
G75*
G02*
X78256500Y18205000I0J-425000D01*
G01*
X78256500Y17355000D01*
G75*
G02*
X77831500Y16930000I-425000J0D01*
G01*
X76981500Y16930000D01*
G75*
G02*
X76556500Y17355000I0J425000D01*
G01*
G37*
%TD*%
%TO.C,REF\u002A\u002A*%
G36*
G01*
X74016500Y17355000D02*
X74016500Y18205000D01*
G75*
G02*
X74441500Y18630000I425000J0D01*
G01*
X75291500Y18630000D01*
G75*
G02*
X75716500Y18205000I0J-425000D01*
G01*
X75716500Y17355000D01*
G75*
G02*
X75291500Y16930000I-425000J0D01*
G01*
X74441500Y16930000D01*
G75*
G02*
X74016500Y17355000I0J425000D01*
G01*
G37*
%TD*%
%TO.C,REF\u002A\u002A*%
G36*
G01*
X71476500Y17355000D02*
X71476500Y18205000D01*
G75*
G02*
X71901500Y18630000I425000J0D01*
G01*
X72751500Y18630000D01*
G75*
G02*
X73176500Y18205000I0J-425000D01*
G01*
X73176500Y17355000D01*
G75*
G02*
X72751500Y16930000I-425000J0D01*
G01*
X71901500Y16930000D01*
G75*
G02*
X71476500Y17355000I0J425000D01*
G01*
G37*
%TD*%
%TO.C,REF\u002A\u002A*%
G36*
G01*
X68936500Y17355000D02*
X68936500Y18205000D01*
G75*
G02*
X69361500Y18630000I425000J0D01*
G01*
X70211500Y18630000D01*
G75*
G02*
X70636500Y18205000I0J-425000D01*
G01*
X70636500Y17355000D01*
G75*
G02*
X70211500Y16930000I-425000J0D01*
G01*
X69361500Y16930000D01*
G75*
G02*
X68936500Y17355000I0J425000D01*
G01*
G37*
%TD*%
%TO.C,REF\u002A\u002A*%
G36*
G01*
X66396500Y17355000D02*
X66396500Y18205000D01*
G75*
G02*
X66821500Y18630000I425000J0D01*
G01*
X67671500Y18630000D01*
G75*
G02*
X68096500Y18205000I0J-425000D01*
G01*
X68096500Y17355000D01*
G75*
G02*
X67671500Y16930000I-425000J0D01*
G01*
X66821500Y16930000D01*
G75*
G02*
X66396500Y17355000I0J425000D01*
G01*
G37*
%TD*%
%TO.C,REF\u002A\u002A*%
G36*
G01*
X63856500Y17355000D02*
X63856500Y18205000D01*
G75*
G02*
X64281500Y18630000I425000J0D01*
G01*
X65131500Y18630000D01*
G75*
G02*
X65556500Y18205000I0J-425000D01*
G01*
X65556500Y17355000D01*
G75*
G02*
X65131500Y16930000I-425000J0D01*
G01*
X64281500Y16930000D01*
G75*
G02*
X63856500Y17355000I0J425000D01*
G01*
G37*
%TD*%
%TO.C,REF\u002A\u002A*%
G36*
G01*
X61316500Y17355000D02*
X61316500Y18205000D01*
G75*
G02*
X61741500Y18630000I425000J0D01*
G01*
X62591500Y18630000D01*
G75*
G02*
X63016500Y18205000I0J-425000D01*
G01*
X63016500Y17355000D01*
G75*
G02*
X62591500Y16930000I-425000J0D01*
G01*
X61741500Y16930000D01*
G75*
G02*
X61316500Y17355000I0J425000D01*
G01*
G37*
%TD*%
%TO.C,REF\u002A\u002A*%
G36*
G01*
X58776500Y17355000D02*
X58776500Y18205000D01*
G75*
G02*
X59201500Y18630000I425000J0D01*
G01*
X60051500Y18630000D01*
G75*
G02*
X60476500Y18205000I0J-425000D01*
G01*
X60476500Y17355000D01*
G75*
G02*
X60051500Y16930000I-425000J0D01*
G01*
X59201500Y16930000D01*
G75*
G02*
X58776500Y17355000I0J425000D01*
G01*
G37*
%TD*%
%TO.C,REF\u002A\u002A*%
G36*
G01*
X56236500Y17355000D02*
X56236500Y18205000D01*
G75*
G02*
X56661500Y18630000I425000J0D01*
G01*
X57511500Y18630000D01*
G75*
G02*
X57936500Y18205000I0J-425000D01*
G01*
X57936500Y17355000D01*
G75*
G02*
X57511500Y16930000I-425000J0D01*
G01*
X56661500Y16930000D01*
G75*
G02*
X56236500Y17355000I0J425000D01*
G01*
G37*
%TD*%
%TO.C,REF\u002A\u002A*%
G36*
G01*
X53696500Y17355000D02*
X53696500Y18205000D01*
G75*
G02*
X54121500Y18630000I425000J0D01*
G01*
X54971500Y18630000D01*
G75*
G02*
X55396500Y18205000I0J-425000D01*
G01*
X55396500Y17355000D01*
G75*
G02*
X54971500Y16930000I-425000J0D01*
G01*
X54121500Y16930000D01*
G75*
G02*
X53696500Y17355000I0J425000D01*
G01*
G37*
%TD*%
%TO.C,REF\u002A\u002A*%
G36*
G01*
X51156500Y17355000D02*
X51156500Y18205000D01*
G75*
G02*
X51581500Y18630000I425000J0D01*
G01*
X52431500Y18630000D01*
G75*
G02*
X52856500Y18205000I0J-425000D01*
G01*
X52856500Y17355000D01*
G75*
G02*
X52431500Y16930000I-425000J0D01*
G01*
X51581500Y16930000D01*
G75*
G02*
X51156500Y17355000I0J425000D01*
G01*
G37*
%TD*%
%TO.C,REF\u002A\u002A*%
G36*
G01*
X48616500Y17355000D02*
X48616500Y18205000D01*
G75*
G02*
X49041500Y18630000I425000J0D01*
G01*
X49891500Y18630000D01*
G75*
G02*
X50316500Y18205000I0J-425000D01*
G01*
X50316500Y17355000D01*
G75*
G02*
X49891500Y16930000I-425000J0D01*
G01*
X49041500Y16930000D01*
G75*
G02*
X48616500Y17355000I0J425000D01*
G01*
G37*
%TD*%
%TO.C,REF\u002A\u002A*%
G36*
G01*
X46076500Y17355000D02*
X46076500Y18205000D01*
G75*
G02*
X46501500Y18630000I425000J0D01*
G01*
X47351500Y18630000D01*
G75*
G02*
X47776500Y18205000I0J-425000D01*
G01*
X47776500Y17355000D01*
G75*
G02*
X47351500Y16930000I-425000J0D01*
G01*
X46501500Y16930000D01*
G75*
G02*
X46076500Y17355000I0J425000D01*
G01*
G37*
%TD*%
%TO.C,REF\u002A\u002A*%
G36*
G01*
X43536500Y17355000D02*
X43536500Y18205000D01*
G75*
G02*
X43961500Y18630000I425000J0D01*
G01*
X44811500Y18630000D01*
G75*
G02*
X45236500Y18205000I0J-425000D01*
G01*
X45236500Y17355000D01*
G75*
G02*
X44811500Y16930000I-425000J0D01*
G01*
X43961500Y16930000D01*
G75*
G02*
X43536500Y17355000I0J425000D01*
G01*
G37*
%TD*%
%TO.C,REF\u002A\u002A*%
G36*
G01*
X40996500Y17355000D02*
X40996500Y18205000D01*
G75*
G02*
X41421500Y18630000I425000J0D01*
G01*
X42271500Y18630000D01*
G75*
G02*
X42696500Y18205000I0J-425000D01*
G01*
X42696500Y17355000D01*
G75*
G02*
X42271500Y16930000I-425000J0D01*
G01*
X41421500Y16930000D01*
G75*
G02*
X40996500Y17355000I0J425000D01*
G01*
G37*
%TD*%
%TO.C,REF\u002A\u002A*%
G36*
G01*
X38456500Y17355000D02*
X38456500Y18205000D01*
G75*
G02*
X38881500Y18630000I425000J0D01*
G01*
X39731500Y18630000D01*
G75*
G02*
X40156500Y18205000I0J-425000D01*
G01*
X40156500Y17355000D01*
G75*
G02*
X39731500Y16930000I-425000J0D01*
G01*
X38881500Y16930000D01*
G75*
G02*
X38456500Y17355000I0J425000D01*
G01*
G37*
%TD*%
%TO.C,REF\u002A\u002A*%
G36*
G01*
X35916500Y17355000D02*
X35916500Y18205000D01*
G75*
G02*
X36341500Y18630000I425000J0D01*
G01*
X37191500Y18630000D01*
G75*
G02*
X37616500Y18205000I0J-425000D01*
G01*
X37616500Y17355000D01*
G75*
G02*
X37191500Y16930000I-425000J0D01*
G01*
X36341500Y16930000D01*
G75*
G02*
X35916500Y17355000I0J425000D01*
G01*
G37*
%TD*%
%TO.C,REF\u002A\u002A*%
G36*
G01*
X33376500Y17355000D02*
X33376500Y18205000D01*
G75*
G02*
X33801500Y18630000I425000J0D01*
G01*
X34651500Y18630000D01*
G75*
G02*
X35076500Y18205000I0J-425000D01*
G01*
X35076500Y17355000D01*
G75*
G02*
X34651500Y16930000I-425000J0D01*
G01*
X33801500Y16930000D01*
G75*
G02*
X33376500Y17355000I0J425000D01*
G01*
G37*
%TD*%
%TO.C,REF\u002A\u002A*%
G36*
G01*
X30836500Y17355000D02*
X30836500Y18205000D01*
G75*
G02*
X31261500Y18630000I425000J0D01*
G01*
X32111500Y18630000D01*
G75*
G02*
X32536500Y18205000I0J-425000D01*
G01*
X32536500Y17355000D01*
G75*
G02*
X32111500Y16930000I-425000J0D01*
G01*
X31261500Y16930000D01*
G75*
G02*
X30836500Y17355000I0J425000D01*
G01*
G37*
%TD*%
%TO.C,REF\u002A\u002A*%
G36*
G01*
X28296500Y17355000D02*
X28296500Y18205000D01*
G75*
G02*
X28721500Y18630000I425000J0D01*
G01*
X29571500Y18630000D01*
G75*
G02*
X29996500Y18205000I0J-425000D01*
G01*
X29996500Y17355000D01*
G75*
G02*
X29571500Y16930000I-425000J0D01*
G01*
X28721500Y16930000D01*
G75*
G02*
X28296500Y17355000I0J425000D01*
G01*
G37*
%TD*%
%TO.C,REF\u002A\u002A*%
G36*
G01*
X25756500Y17355000D02*
X25756500Y18205000D01*
G75*
G02*
X26181500Y18630000I425000J0D01*
G01*
X27031500Y18630000D01*
G75*
G02*
X27456500Y18205000I0J-425000D01*
G01*
X27456500Y17355000D01*
G75*
G02*
X27031500Y16930000I-425000J0D01*
G01*
X26181500Y16930000D01*
G75*
G02*
X25756500Y17355000I0J425000D01*
G01*
G37*
%TD*%
%TO.C,REF\u002A\u002A*%
G36*
G01*
X23216500Y17355000D02*
X23216500Y18205000D01*
G75*
G02*
X23641500Y18630000I425000J0D01*
G01*
X24491500Y18630000D01*
G75*
G02*
X24916500Y18205000I0J-425000D01*
G01*
X24916500Y17355000D01*
G75*
G02*
X24491500Y16930000I-425000J0D01*
G01*
X23641500Y16930000D01*
G75*
G02*
X23216500Y17355000I0J425000D01*
G01*
G37*
%TD*%
%TO.C,REF\u002A\u002A*%
G36*
G01*
X20676500Y17355000D02*
X20676500Y18205000D01*
G75*
G02*
X21101500Y18630000I425000J0D01*
G01*
X21951500Y18630000D01*
G75*
G02*
X22376500Y18205000I0J-425000D01*
G01*
X22376500Y17355000D01*
G75*
G02*
X21951500Y16930000I-425000J0D01*
G01*
X21101500Y16930000D01*
G75*
G02*
X20676500Y17355000I0J425000D01*
G01*
G37*
%TD*%
%TO.C,REF\u002A\u002A*%
G36*
G01*
X18136500Y17355000D02*
X18136500Y18205000D01*
G75*
G02*
X18561500Y18630000I425000J0D01*
G01*
X19411500Y18630000D01*
G75*
G02*
X19836500Y18205000I0J-425000D01*
G01*
X19836500Y17355000D01*
G75*
G02*
X19411500Y16930000I-425000J0D01*
G01*
X18561500Y16930000D01*
G75*
G02*
X18136500Y17355000I0J425000D01*
G01*
G37*
%TD*%
%TO.C,REF\u002A\u002A*%
G36*
G01*
X15596500Y17355000D02*
X15596500Y18205000D01*
G75*
G02*
X16021500Y18630000I425000J0D01*
G01*
X16871500Y18630000D01*
G75*
G02*
X17296500Y18205000I0J-425000D01*
G01*
X17296500Y17355000D01*
G75*
G02*
X16871500Y16930000I-425000J0D01*
G01*
X16021500Y16930000D01*
G75*
G02*
X15596500Y17355000I0J425000D01*
G01*
G37*
%TD*%
%TO.C,REF\u002A\u002A*%
G36*
G01*
X13056500Y17355000D02*
X13056500Y18205000D01*
G75*
G02*
X13481500Y18630000I425000J0D01*
G01*
X14331500Y18630000D01*
G75*
G02*
X14756500Y18205000I0J-425000D01*
G01*
X14756500Y17355000D01*
G75*
G02*
X14331500Y16930000I-425000J0D01*
G01*
X13481500Y16930000D01*
G75*
G02*
X13056500Y17355000I0J425000D01*
G01*
G37*
%TD*%
%TO.C,REF\u002A\u002A*%
G36*
G01*
X10516500Y17355000D02*
X10516500Y18205000D01*
G75*
G02*
X10941500Y18630000I425000J0D01*
G01*
X11791500Y18630000D01*
G75*
G02*
X12216500Y18205000I0J-425000D01*
G01*
X12216500Y17355000D01*
G75*
G02*
X11791500Y16930000I-425000J0D01*
G01*
X10941500Y16930000D01*
G75*
G02*
X10516500Y17355000I0J425000D01*
G01*
G37*
%TD*%
%TO.C,REF\u002A\u002A*%
G36*
G01*
X7976500Y17355000D02*
X7976500Y18205000D01*
G75*
G02*
X8401500Y18630000I425000J0D01*
G01*
X9251500Y18630000D01*
G75*
G02*
X9676500Y18205000I0J-425000D01*
G01*
X9676500Y17355000D01*
G75*
G02*
X9251500Y16930000I-425000J0D01*
G01*
X8401500Y16930000D01*
G75*
G02*
X7976500Y17355000I0J425000D01*
G01*
G37*
%TD*%
%TO.C,REF\u002A\u002A*%
G36*
G01*
X5436500Y17355000D02*
X5436500Y18205000D01*
G75*
G02*
X5861500Y18630000I425000J0D01*
G01*
X6711500Y18630000D01*
G75*
G02*
X7136500Y18205000I0J-425000D01*
G01*
X7136500Y17355000D01*
G75*
G02*
X6711500Y16930000I-425000J0D01*
G01*
X5861500Y16930000D01*
G75*
G02*
X5436500Y17355000I0J425000D01*
G01*
G37*
%TD*%
%TO.C,REF\u002A\u002A*%
G36*
G01*
X2896500Y17355000D02*
X2896500Y18205000D01*
G75*
G02*
X3321500Y18630000I425000J0D01*
G01*
X4171500Y18630000D01*
G75*
G02*
X4596500Y18205000I0J-425000D01*
G01*
X4596500Y17355000D01*
G75*
G02*
X4171500Y16930000I-425000J0D01*
G01*
X3321500Y16930000D01*
G75*
G02*
X2896500Y17355000I0J425000D01*
G01*
G37*
%TD*%
%TO.C,REF\u002A\u002A*%
G36*
G01*
X76556500Y19895000D02*
X76556500Y20745000D01*
G75*
G02*
X76981500Y21170000I425000J0D01*
G01*
X77831500Y21170000D01*
G75*
G02*
X78256500Y20745000I0J-425000D01*
G01*
X78256500Y19895000D01*
G75*
G02*
X77831500Y19470000I-425000J0D01*
G01*
X76981500Y19470000D01*
G75*
G02*
X76556500Y19895000I0J425000D01*
G01*
G37*
%TD*%
%TO.C,REF\u002A\u002A*%
G36*
G01*
X74016500Y19895000D02*
X74016500Y20745000D01*
G75*
G02*
X74441500Y21170000I425000J0D01*
G01*
X75291500Y21170000D01*
G75*
G02*
X75716500Y20745000I0J-425000D01*
G01*
X75716500Y19895000D01*
G75*
G02*
X75291500Y19470000I-425000J0D01*
G01*
X74441500Y19470000D01*
G75*
G02*
X74016500Y19895000I0J425000D01*
G01*
G37*
%TD*%
%TO.C,REF\u002A\u002A*%
G36*
G01*
X71476500Y19895000D02*
X71476500Y20745000D01*
G75*
G02*
X71901500Y21170000I425000J0D01*
G01*
X72751500Y21170000D01*
G75*
G02*
X73176500Y20745000I0J-425000D01*
G01*
X73176500Y19895000D01*
G75*
G02*
X72751500Y19470000I-425000J0D01*
G01*
X71901500Y19470000D01*
G75*
G02*
X71476500Y19895000I0J425000D01*
G01*
G37*
%TD*%
%TO.C,REF\u002A\u002A*%
G36*
G01*
X68936500Y19895000D02*
X68936500Y20745000D01*
G75*
G02*
X69361500Y21170000I425000J0D01*
G01*
X70211500Y21170000D01*
G75*
G02*
X70636500Y20745000I0J-425000D01*
G01*
X70636500Y19895000D01*
G75*
G02*
X70211500Y19470000I-425000J0D01*
G01*
X69361500Y19470000D01*
G75*
G02*
X68936500Y19895000I0J425000D01*
G01*
G37*
%TD*%
%TO.C,REF\u002A\u002A*%
G36*
G01*
X66396500Y19895000D02*
X66396500Y20745000D01*
G75*
G02*
X66821500Y21170000I425000J0D01*
G01*
X67671500Y21170000D01*
G75*
G02*
X68096500Y20745000I0J-425000D01*
G01*
X68096500Y19895000D01*
G75*
G02*
X67671500Y19470000I-425000J0D01*
G01*
X66821500Y19470000D01*
G75*
G02*
X66396500Y19895000I0J425000D01*
G01*
G37*
%TD*%
%TO.C,REF\u002A\u002A*%
G36*
G01*
X63856500Y19895000D02*
X63856500Y20745000D01*
G75*
G02*
X64281500Y21170000I425000J0D01*
G01*
X65131500Y21170000D01*
G75*
G02*
X65556500Y20745000I0J-425000D01*
G01*
X65556500Y19895000D01*
G75*
G02*
X65131500Y19470000I-425000J0D01*
G01*
X64281500Y19470000D01*
G75*
G02*
X63856500Y19895000I0J425000D01*
G01*
G37*
%TD*%
%TO.C,REF\u002A\u002A*%
G36*
G01*
X61316500Y19895000D02*
X61316500Y20745000D01*
G75*
G02*
X61741500Y21170000I425000J0D01*
G01*
X62591500Y21170000D01*
G75*
G02*
X63016500Y20745000I0J-425000D01*
G01*
X63016500Y19895000D01*
G75*
G02*
X62591500Y19470000I-425000J0D01*
G01*
X61741500Y19470000D01*
G75*
G02*
X61316500Y19895000I0J425000D01*
G01*
G37*
%TD*%
%TO.C,REF\u002A\u002A*%
G36*
G01*
X58776500Y19895000D02*
X58776500Y20745000D01*
G75*
G02*
X59201500Y21170000I425000J0D01*
G01*
X60051500Y21170000D01*
G75*
G02*
X60476500Y20745000I0J-425000D01*
G01*
X60476500Y19895000D01*
G75*
G02*
X60051500Y19470000I-425000J0D01*
G01*
X59201500Y19470000D01*
G75*
G02*
X58776500Y19895000I0J425000D01*
G01*
G37*
%TD*%
%TO.C,REF\u002A\u002A*%
G36*
G01*
X56236500Y19895000D02*
X56236500Y20745000D01*
G75*
G02*
X56661500Y21170000I425000J0D01*
G01*
X57511500Y21170000D01*
G75*
G02*
X57936500Y20745000I0J-425000D01*
G01*
X57936500Y19895000D01*
G75*
G02*
X57511500Y19470000I-425000J0D01*
G01*
X56661500Y19470000D01*
G75*
G02*
X56236500Y19895000I0J425000D01*
G01*
G37*
%TD*%
%TO.C,REF\u002A\u002A*%
G36*
G01*
X53696500Y19895000D02*
X53696500Y20745000D01*
G75*
G02*
X54121500Y21170000I425000J0D01*
G01*
X54971500Y21170000D01*
G75*
G02*
X55396500Y20745000I0J-425000D01*
G01*
X55396500Y19895000D01*
G75*
G02*
X54971500Y19470000I-425000J0D01*
G01*
X54121500Y19470000D01*
G75*
G02*
X53696500Y19895000I0J425000D01*
G01*
G37*
%TD*%
%TO.C,REF\u002A\u002A*%
G36*
G01*
X51156500Y19895000D02*
X51156500Y20745000D01*
G75*
G02*
X51581500Y21170000I425000J0D01*
G01*
X52431500Y21170000D01*
G75*
G02*
X52856500Y20745000I0J-425000D01*
G01*
X52856500Y19895000D01*
G75*
G02*
X52431500Y19470000I-425000J0D01*
G01*
X51581500Y19470000D01*
G75*
G02*
X51156500Y19895000I0J425000D01*
G01*
G37*
%TD*%
%TO.C,REF\u002A\u002A*%
G36*
G01*
X48616500Y19895000D02*
X48616500Y20745000D01*
G75*
G02*
X49041500Y21170000I425000J0D01*
G01*
X49891500Y21170000D01*
G75*
G02*
X50316500Y20745000I0J-425000D01*
G01*
X50316500Y19895000D01*
G75*
G02*
X49891500Y19470000I-425000J0D01*
G01*
X49041500Y19470000D01*
G75*
G02*
X48616500Y19895000I0J425000D01*
G01*
G37*
%TD*%
%TO.C,REF\u002A\u002A*%
G36*
G01*
X46076500Y19895000D02*
X46076500Y20745000D01*
G75*
G02*
X46501500Y21170000I425000J0D01*
G01*
X47351500Y21170000D01*
G75*
G02*
X47776500Y20745000I0J-425000D01*
G01*
X47776500Y19895000D01*
G75*
G02*
X47351500Y19470000I-425000J0D01*
G01*
X46501500Y19470000D01*
G75*
G02*
X46076500Y19895000I0J425000D01*
G01*
G37*
%TD*%
%TO.C,REF\u002A\u002A*%
G36*
G01*
X43536500Y19895000D02*
X43536500Y20745000D01*
G75*
G02*
X43961500Y21170000I425000J0D01*
G01*
X44811500Y21170000D01*
G75*
G02*
X45236500Y20745000I0J-425000D01*
G01*
X45236500Y19895000D01*
G75*
G02*
X44811500Y19470000I-425000J0D01*
G01*
X43961500Y19470000D01*
G75*
G02*
X43536500Y19895000I0J425000D01*
G01*
G37*
%TD*%
%TO.C,REF\u002A\u002A*%
G36*
G01*
X40996500Y19895000D02*
X40996500Y20745000D01*
G75*
G02*
X41421500Y21170000I425000J0D01*
G01*
X42271500Y21170000D01*
G75*
G02*
X42696500Y20745000I0J-425000D01*
G01*
X42696500Y19895000D01*
G75*
G02*
X42271500Y19470000I-425000J0D01*
G01*
X41421500Y19470000D01*
G75*
G02*
X40996500Y19895000I0J425000D01*
G01*
G37*
%TD*%
%TO.C,REF\u002A\u002A*%
G36*
G01*
X38456500Y19895000D02*
X38456500Y20745000D01*
G75*
G02*
X38881500Y21170000I425000J0D01*
G01*
X39731500Y21170000D01*
G75*
G02*
X40156500Y20745000I0J-425000D01*
G01*
X40156500Y19895000D01*
G75*
G02*
X39731500Y19470000I-425000J0D01*
G01*
X38881500Y19470000D01*
G75*
G02*
X38456500Y19895000I0J425000D01*
G01*
G37*
%TD*%
%TO.C,REF\u002A\u002A*%
G36*
G01*
X35916500Y19895000D02*
X35916500Y20745000D01*
G75*
G02*
X36341500Y21170000I425000J0D01*
G01*
X37191500Y21170000D01*
G75*
G02*
X37616500Y20745000I0J-425000D01*
G01*
X37616500Y19895000D01*
G75*
G02*
X37191500Y19470000I-425000J0D01*
G01*
X36341500Y19470000D01*
G75*
G02*
X35916500Y19895000I0J425000D01*
G01*
G37*
%TD*%
%TO.C,REF\u002A\u002A*%
G36*
G01*
X33376500Y19895000D02*
X33376500Y20745000D01*
G75*
G02*
X33801500Y21170000I425000J0D01*
G01*
X34651500Y21170000D01*
G75*
G02*
X35076500Y20745000I0J-425000D01*
G01*
X35076500Y19895000D01*
G75*
G02*
X34651500Y19470000I-425000J0D01*
G01*
X33801500Y19470000D01*
G75*
G02*
X33376500Y19895000I0J425000D01*
G01*
G37*
%TD*%
%TO.C,REF\u002A\u002A*%
G36*
G01*
X30836500Y19895000D02*
X30836500Y20745000D01*
G75*
G02*
X31261500Y21170000I425000J0D01*
G01*
X32111500Y21170000D01*
G75*
G02*
X32536500Y20745000I0J-425000D01*
G01*
X32536500Y19895000D01*
G75*
G02*
X32111500Y19470000I-425000J0D01*
G01*
X31261500Y19470000D01*
G75*
G02*
X30836500Y19895000I0J425000D01*
G01*
G37*
%TD*%
%TO.C,REF\u002A\u002A*%
G36*
G01*
X28296500Y19895000D02*
X28296500Y20745000D01*
G75*
G02*
X28721500Y21170000I425000J0D01*
G01*
X29571500Y21170000D01*
G75*
G02*
X29996500Y20745000I0J-425000D01*
G01*
X29996500Y19895000D01*
G75*
G02*
X29571500Y19470000I-425000J0D01*
G01*
X28721500Y19470000D01*
G75*
G02*
X28296500Y19895000I0J425000D01*
G01*
G37*
%TD*%
%TO.C,REF\u002A\u002A*%
G36*
G01*
X25756500Y19895000D02*
X25756500Y20745000D01*
G75*
G02*
X26181500Y21170000I425000J0D01*
G01*
X27031500Y21170000D01*
G75*
G02*
X27456500Y20745000I0J-425000D01*
G01*
X27456500Y19895000D01*
G75*
G02*
X27031500Y19470000I-425000J0D01*
G01*
X26181500Y19470000D01*
G75*
G02*
X25756500Y19895000I0J425000D01*
G01*
G37*
%TD*%
%TO.C,REF\u002A\u002A*%
G36*
G01*
X23216500Y19895000D02*
X23216500Y20745000D01*
G75*
G02*
X23641500Y21170000I425000J0D01*
G01*
X24491500Y21170000D01*
G75*
G02*
X24916500Y20745000I0J-425000D01*
G01*
X24916500Y19895000D01*
G75*
G02*
X24491500Y19470000I-425000J0D01*
G01*
X23641500Y19470000D01*
G75*
G02*
X23216500Y19895000I0J425000D01*
G01*
G37*
%TD*%
%TO.C,REF\u002A\u002A*%
G36*
G01*
X20676500Y19895000D02*
X20676500Y20745000D01*
G75*
G02*
X21101500Y21170000I425000J0D01*
G01*
X21951500Y21170000D01*
G75*
G02*
X22376500Y20745000I0J-425000D01*
G01*
X22376500Y19895000D01*
G75*
G02*
X21951500Y19470000I-425000J0D01*
G01*
X21101500Y19470000D01*
G75*
G02*
X20676500Y19895000I0J425000D01*
G01*
G37*
%TD*%
%TO.C,REF\u002A\u002A*%
G36*
G01*
X18136500Y19895000D02*
X18136500Y20745000D01*
G75*
G02*
X18561500Y21170000I425000J0D01*
G01*
X19411500Y21170000D01*
G75*
G02*
X19836500Y20745000I0J-425000D01*
G01*
X19836500Y19895000D01*
G75*
G02*
X19411500Y19470000I-425000J0D01*
G01*
X18561500Y19470000D01*
G75*
G02*
X18136500Y19895000I0J425000D01*
G01*
G37*
%TD*%
%TO.C,REF\u002A\u002A*%
G36*
G01*
X15596500Y19895000D02*
X15596500Y20745000D01*
G75*
G02*
X16021500Y21170000I425000J0D01*
G01*
X16871500Y21170000D01*
G75*
G02*
X17296500Y20745000I0J-425000D01*
G01*
X17296500Y19895000D01*
G75*
G02*
X16871500Y19470000I-425000J0D01*
G01*
X16021500Y19470000D01*
G75*
G02*
X15596500Y19895000I0J425000D01*
G01*
G37*
%TD*%
%TO.C,REF\u002A\u002A*%
G36*
G01*
X13056500Y19895000D02*
X13056500Y20745000D01*
G75*
G02*
X13481500Y21170000I425000J0D01*
G01*
X14331500Y21170000D01*
G75*
G02*
X14756500Y20745000I0J-425000D01*
G01*
X14756500Y19895000D01*
G75*
G02*
X14331500Y19470000I-425000J0D01*
G01*
X13481500Y19470000D01*
G75*
G02*
X13056500Y19895000I0J425000D01*
G01*
G37*
%TD*%
%TO.C,REF\u002A\u002A*%
G36*
G01*
X10516500Y19895000D02*
X10516500Y20745000D01*
G75*
G02*
X10941500Y21170000I425000J0D01*
G01*
X11791500Y21170000D01*
G75*
G02*
X12216500Y20745000I0J-425000D01*
G01*
X12216500Y19895000D01*
G75*
G02*
X11791500Y19470000I-425000J0D01*
G01*
X10941500Y19470000D01*
G75*
G02*
X10516500Y19895000I0J425000D01*
G01*
G37*
%TD*%
%TO.C,REF\u002A\u002A*%
G36*
G01*
X7976500Y19895000D02*
X7976500Y20745000D01*
G75*
G02*
X8401500Y21170000I425000J0D01*
G01*
X9251500Y21170000D01*
G75*
G02*
X9676500Y20745000I0J-425000D01*
G01*
X9676500Y19895000D01*
G75*
G02*
X9251500Y19470000I-425000J0D01*
G01*
X8401500Y19470000D01*
G75*
G02*
X7976500Y19895000I0J425000D01*
G01*
G37*
%TD*%
%TO.C,REF\u002A\u002A*%
G36*
G01*
X5436500Y19895000D02*
X5436500Y20745000D01*
G75*
G02*
X5861500Y21170000I425000J0D01*
G01*
X6711500Y21170000D01*
G75*
G02*
X7136500Y20745000I0J-425000D01*
G01*
X7136500Y19895000D01*
G75*
G02*
X6711500Y19470000I-425000J0D01*
G01*
X5861500Y19470000D01*
G75*
G02*
X5436500Y19895000I0J425000D01*
G01*
G37*
%TD*%
%TO.C,REF\u002A\u002A*%
G36*
G01*
X2896500Y19895000D02*
X2896500Y20745000D01*
G75*
G02*
X3321500Y21170000I425000J0D01*
G01*
X4171500Y21170000D01*
G75*
G02*
X4596500Y20745000I0J-425000D01*
G01*
X4596500Y19895000D01*
G75*
G02*
X4171500Y19470000I-425000J0D01*
G01*
X3321500Y19470000D01*
G75*
G02*
X2896500Y19895000I0J425000D01*
G01*
G37*
%TD*%
%TO.C,REF\u002A\u002A*%
G36*
G01*
X76556500Y22435000D02*
X76556500Y23285000D01*
G75*
G02*
X76981500Y23710000I425000J0D01*
G01*
X77831500Y23710000D01*
G75*
G02*
X78256500Y23285000I0J-425000D01*
G01*
X78256500Y22435000D01*
G75*
G02*
X77831500Y22010000I-425000J0D01*
G01*
X76981500Y22010000D01*
G75*
G02*
X76556500Y22435000I0J425000D01*
G01*
G37*
%TD*%
%TO.C,REF\u002A\u002A*%
G36*
G01*
X74016500Y22435000D02*
X74016500Y23285000D01*
G75*
G02*
X74441500Y23710000I425000J0D01*
G01*
X75291500Y23710000D01*
G75*
G02*
X75716500Y23285000I0J-425000D01*
G01*
X75716500Y22435000D01*
G75*
G02*
X75291500Y22010000I-425000J0D01*
G01*
X74441500Y22010000D01*
G75*
G02*
X74016500Y22435000I0J425000D01*
G01*
G37*
%TD*%
%TO.C,REF\u002A\u002A*%
G36*
G01*
X71476500Y22435000D02*
X71476500Y23285000D01*
G75*
G02*
X71901500Y23710000I425000J0D01*
G01*
X72751500Y23710000D01*
G75*
G02*
X73176500Y23285000I0J-425000D01*
G01*
X73176500Y22435000D01*
G75*
G02*
X72751500Y22010000I-425000J0D01*
G01*
X71901500Y22010000D01*
G75*
G02*
X71476500Y22435000I0J425000D01*
G01*
G37*
%TD*%
%TO.C,REF\u002A\u002A*%
G36*
G01*
X68936500Y22435000D02*
X68936500Y23285000D01*
G75*
G02*
X69361500Y23710000I425000J0D01*
G01*
X70211500Y23710000D01*
G75*
G02*
X70636500Y23285000I0J-425000D01*
G01*
X70636500Y22435000D01*
G75*
G02*
X70211500Y22010000I-425000J0D01*
G01*
X69361500Y22010000D01*
G75*
G02*
X68936500Y22435000I0J425000D01*
G01*
G37*
%TD*%
%TO.C,REF\u002A\u002A*%
G36*
G01*
X66396500Y22435000D02*
X66396500Y23285000D01*
G75*
G02*
X66821500Y23710000I425000J0D01*
G01*
X67671500Y23710000D01*
G75*
G02*
X68096500Y23285000I0J-425000D01*
G01*
X68096500Y22435000D01*
G75*
G02*
X67671500Y22010000I-425000J0D01*
G01*
X66821500Y22010000D01*
G75*
G02*
X66396500Y22435000I0J425000D01*
G01*
G37*
%TD*%
%TO.C,REF\u002A\u002A*%
G36*
G01*
X63856500Y22435000D02*
X63856500Y23285000D01*
G75*
G02*
X64281500Y23710000I425000J0D01*
G01*
X65131500Y23710000D01*
G75*
G02*
X65556500Y23285000I0J-425000D01*
G01*
X65556500Y22435000D01*
G75*
G02*
X65131500Y22010000I-425000J0D01*
G01*
X64281500Y22010000D01*
G75*
G02*
X63856500Y22435000I0J425000D01*
G01*
G37*
%TD*%
%TO.C,REF\u002A\u002A*%
G36*
G01*
X61316500Y22435000D02*
X61316500Y23285000D01*
G75*
G02*
X61741500Y23710000I425000J0D01*
G01*
X62591500Y23710000D01*
G75*
G02*
X63016500Y23285000I0J-425000D01*
G01*
X63016500Y22435000D01*
G75*
G02*
X62591500Y22010000I-425000J0D01*
G01*
X61741500Y22010000D01*
G75*
G02*
X61316500Y22435000I0J425000D01*
G01*
G37*
%TD*%
%TO.C,REF\u002A\u002A*%
G36*
G01*
X58776500Y22435000D02*
X58776500Y23285000D01*
G75*
G02*
X59201500Y23710000I425000J0D01*
G01*
X60051500Y23710000D01*
G75*
G02*
X60476500Y23285000I0J-425000D01*
G01*
X60476500Y22435000D01*
G75*
G02*
X60051500Y22010000I-425000J0D01*
G01*
X59201500Y22010000D01*
G75*
G02*
X58776500Y22435000I0J425000D01*
G01*
G37*
%TD*%
%TO.C,REF\u002A\u002A*%
G36*
G01*
X56236500Y22435000D02*
X56236500Y23285000D01*
G75*
G02*
X56661500Y23710000I425000J0D01*
G01*
X57511500Y23710000D01*
G75*
G02*
X57936500Y23285000I0J-425000D01*
G01*
X57936500Y22435000D01*
G75*
G02*
X57511500Y22010000I-425000J0D01*
G01*
X56661500Y22010000D01*
G75*
G02*
X56236500Y22435000I0J425000D01*
G01*
G37*
%TD*%
%TO.C,REF\u002A\u002A*%
G36*
G01*
X53696500Y22435000D02*
X53696500Y23285000D01*
G75*
G02*
X54121500Y23710000I425000J0D01*
G01*
X54971500Y23710000D01*
G75*
G02*
X55396500Y23285000I0J-425000D01*
G01*
X55396500Y22435000D01*
G75*
G02*
X54971500Y22010000I-425000J0D01*
G01*
X54121500Y22010000D01*
G75*
G02*
X53696500Y22435000I0J425000D01*
G01*
G37*
%TD*%
%TO.C,REF\u002A\u002A*%
G36*
G01*
X51156500Y22435000D02*
X51156500Y23285000D01*
G75*
G02*
X51581500Y23710000I425000J0D01*
G01*
X52431500Y23710000D01*
G75*
G02*
X52856500Y23285000I0J-425000D01*
G01*
X52856500Y22435000D01*
G75*
G02*
X52431500Y22010000I-425000J0D01*
G01*
X51581500Y22010000D01*
G75*
G02*
X51156500Y22435000I0J425000D01*
G01*
G37*
%TD*%
%TO.C,REF\u002A\u002A*%
G36*
G01*
X48616500Y22435000D02*
X48616500Y23285000D01*
G75*
G02*
X49041500Y23710000I425000J0D01*
G01*
X49891500Y23710000D01*
G75*
G02*
X50316500Y23285000I0J-425000D01*
G01*
X50316500Y22435000D01*
G75*
G02*
X49891500Y22010000I-425000J0D01*
G01*
X49041500Y22010000D01*
G75*
G02*
X48616500Y22435000I0J425000D01*
G01*
G37*
%TD*%
%TO.C,REF\u002A\u002A*%
G36*
G01*
X46076500Y22435000D02*
X46076500Y23285000D01*
G75*
G02*
X46501500Y23710000I425000J0D01*
G01*
X47351500Y23710000D01*
G75*
G02*
X47776500Y23285000I0J-425000D01*
G01*
X47776500Y22435000D01*
G75*
G02*
X47351500Y22010000I-425000J0D01*
G01*
X46501500Y22010000D01*
G75*
G02*
X46076500Y22435000I0J425000D01*
G01*
G37*
%TD*%
%TO.C,REF\u002A\u002A*%
G36*
G01*
X43536500Y22435000D02*
X43536500Y23285000D01*
G75*
G02*
X43961500Y23710000I425000J0D01*
G01*
X44811500Y23710000D01*
G75*
G02*
X45236500Y23285000I0J-425000D01*
G01*
X45236500Y22435000D01*
G75*
G02*
X44811500Y22010000I-425000J0D01*
G01*
X43961500Y22010000D01*
G75*
G02*
X43536500Y22435000I0J425000D01*
G01*
G37*
%TD*%
%TO.C,REF\u002A\u002A*%
G36*
G01*
X40996500Y22435000D02*
X40996500Y23285000D01*
G75*
G02*
X41421500Y23710000I425000J0D01*
G01*
X42271500Y23710000D01*
G75*
G02*
X42696500Y23285000I0J-425000D01*
G01*
X42696500Y22435000D01*
G75*
G02*
X42271500Y22010000I-425000J0D01*
G01*
X41421500Y22010000D01*
G75*
G02*
X40996500Y22435000I0J425000D01*
G01*
G37*
%TD*%
%TO.C,REF\u002A\u002A*%
G36*
G01*
X38456500Y22435000D02*
X38456500Y23285000D01*
G75*
G02*
X38881500Y23710000I425000J0D01*
G01*
X39731500Y23710000D01*
G75*
G02*
X40156500Y23285000I0J-425000D01*
G01*
X40156500Y22435000D01*
G75*
G02*
X39731500Y22010000I-425000J0D01*
G01*
X38881500Y22010000D01*
G75*
G02*
X38456500Y22435000I0J425000D01*
G01*
G37*
%TD*%
%TO.C,REF\u002A\u002A*%
G36*
G01*
X35916500Y22435000D02*
X35916500Y23285000D01*
G75*
G02*
X36341500Y23710000I425000J0D01*
G01*
X37191500Y23710000D01*
G75*
G02*
X37616500Y23285000I0J-425000D01*
G01*
X37616500Y22435000D01*
G75*
G02*
X37191500Y22010000I-425000J0D01*
G01*
X36341500Y22010000D01*
G75*
G02*
X35916500Y22435000I0J425000D01*
G01*
G37*
%TD*%
%TO.C,REF\u002A\u002A*%
G36*
G01*
X33376500Y22435000D02*
X33376500Y23285000D01*
G75*
G02*
X33801500Y23710000I425000J0D01*
G01*
X34651500Y23710000D01*
G75*
G02*
X35076500Y23285000I0J-425000D01*
G01*
X35076500Y22435000D01*
G75*
G02*
X34651500Y22010000I-425000J0D01*
G01*
X33801500Y22010000D01*
G75*
G02*
X33376500Y22435000I0J425000D01*
G01*
G37*
%TD*%
%TO.C,REF\u002A\u002A*%
G36*
G01*
X30836500Y22435000D02*
X30836500Y23285000D01*
G75*
G02*
X31261500Y23710000I425000J0D01*
G01*
X32111500Y23710000D01*
G75*
G02*
X32536500Y23285000I0J-425000D01*
G01*
X32536500Y22435000D01*
G75*
G02*
X32111500Y22010000I-425000J0D01*
G01*
X31261500Y22010000D01*
G75*
G02*
X30836500Y22435000I0J425000D01*
G01*
G37*
%TD*%
%TO.C,REF\u002A\u002A*%
G36*
G01*
X28296500Y22435000D02*
X28296500Y23285000D01*
G75*
G02*
X28721500Y23710000I425000J0D01*
G01*
X29571500Y23710000D01*
G75*
G02*
X29996500Y23285000I0J-425000D01*
G01*
X29996500Y22435000D01*
G75*
G02*
X29571500Y22010000I-425000J0D01*
G01*
X28721500Y22010000D01*
G75*
G02*
X28296500Y22435000I0J425000D01*
G01*
G37*
%TD*%
%TO.C,REF\u002A\u002A*%
G36*
G01*
X25756500Y22435000D02*
X25756500Y23285000D01*
G75*
G02*
X26181500Y23710000I425000J0D01*
G01*
X27031500Y23710000D01*
G75*
G02*
X27456500Y23285000I0J-425000D01*
G01*
X27456500Y22435000D01*
G75*
G02*
X27031500Y22010000I-425000J0D01*
G01*
X26181500Y22010000D01*
G75*
G02*
X25756500Y22435000I0J425000D01*
G01*
G37*
%TD*%
%TO.C,REF\u002A\u002A*%
G36*
G01*
X23216500Y22435000D02*
X23216500Y23285000D01*
G75*
G02*
X23641500Y23710000I425000J0D01*
G01*
X24491500Y23710000D01*
G75*
G02*
X24916500Y23285000I0J-425000D01*
G01*
X24916500Y22435000D01*
G75*
G02*
X24491500Y22010000I-425000J0D01*
G01*
X23641500Y22010000D01*
G75*
G02*
X23216500Y22435000I0J425000D01*
G01*
G37*
%TD*%
%TO.C,REF\u002A\u002A*%
G36*
G01*
X20676500Y22435000D02*
X20676500Y23285000D01*
G75*
G02*
X21101500Y23710000I425000J0D01*
G01*
X21951500Y23710000D01*
G75*
G02*
X22376500Y23285000I0J-425000D01*
G01*
X22376500Y22435000D01*
G75*
G02*
X21951500Y22010000I-425000J0D01*
G01*
X21101500Y22010000D01*
G75*
G02*
X20676500Y22435000I0J425000D01*
G01*
G37*
%TD*%
%TO.C,REF\u002A\u002A*%
G36*
G01*
X18136500Y22435000D02*
X18136500Y23285000D01*
G75*
G02*
X18561500Y23710000I425000J0D01*
G01*
X19411500Y23710000D01*
G75*
G02*
X19836500Y23285000I0J-425000D01*
G01*
X19836500Y22435000D01*
G75*
G02*
X19411500Y22010000I-425000J0D01*
G01*
X18561500Y22010000D01*
G75*
G02*
X18136500Y22435000I0J425000D01*
G01*
G37*
%TD*%
%TO.C,REF\u002A\u002A*%
G36*
G01*
X15596500Y22435000D02*
X15596500Y23285000D01*
G75*
G02*
X16021500Y23710000I425000J0D01*
G01*
X16871500Y23710000D01*
G75*
G02*
X17296500Y23285000I0J-425000D01*
G01*
X17296500Y22435000D01*
G75*
G02*
X16871500Y22010000I-425000J0D01*
G01*
X16021500Y22010000D01*
G75*
G02*
X15596500Y22435000I0J425000D01*
G01*
G37*
%TD*%
%TO.C,REF\u002A\u002A*%
G36*
G01*
X13056500Y22435000D02*
X13056500Y23285000D01*
G75*
G02*
X13481500Y23710000I425000J0D01*
G01*
X14331500Y23710000D01*
G75*
G02*
X14756500Y23285000I0J-425000D01*
G01*
X14756500Y22435000D01*
G75*
G02*
X14331500Y22010000I-425000J0D01*
G01*
X13481500Y22010000D01*
G75*
G02*
X13056500Y22435000I0J425000D01*
G01*
G37*
%TD*%
%TO.C,REF\u002A\u002A*%
G36*
G01*
X10516500Y22435000D02*
X10516500Y23285000D01*
G75*
G02*
X10941500Y23710000I425000J0D01*
G01*
X11791500Y23710000D01*
G75*
G02*
X12216500Y23285000I0J-425000D01*
G01*
X12216500Y22435000D01*
G75*
G02*
X11791500Y22010000I-425000J0D01*
G01*
X10941500Y22010000D01*
G75*
G02*
X10516500Y22435000I0J425000D01*
G01*
G37*
%TD*%
%TO.C,REF\u002A\u002A*%
G36*
G01*
X7976500Y22435000D02*
X7976500Y23285000D01*
G75*
G02*
X8401500Y23710000I425000J0D01*
G01*
X9251500Y23710000D01*
G75*
G02*
X9676500Y23285000I0J-425000D01*
G01*
X9676500Y22435000D01*
G75*
G02*
X9251500Y22010000I-425000J0D01*
G01*
X8401500Y22010000D01*
G75*
G02*
X7976500Y22435000I0J425000D01*
G01*
G37*
%TD*%
%TO.C,REF\u002A\u002A*%
G36*
G01*
X5436500Y22435000D02*
X5436500Y23285000D01*
G75*
G02*
X5861500Y23710000I425000J0D01*
G01*
X6711500Y23710000D01*
G75*
G02*
X7136500Y23285000I0J-425000D01*
G01*
X7136500Y22435000D01*
G75*
G02*
X6711500Y22010000I-425000J0D01*
G01*
X5861500Y22010000D01*
G75*
G02*
X5436500Y22435000I0J425000D01*
G01*
G37*
%TD*%
%TO.C,REF\u002A\u002A*%
G36*
G01*
X2896500Y22435000D02*
X2896500Y23285000D01*
G75*
G02*
X3321500Y23710000I425000J0D01*
G01*
X4171500Y23710000D01*
G75*
G02*
X4596500Y23285000I0J-425000D01*
G01*
X4596500Y22435000D01*
G75*
G02*
X4171500Y22010000I-425000J0D01*
G01*
X3321500Y22010000D01*
G75*
G02*
X2896500Y22435000I0J425000D01*
G01*
G37*
%TD*%
%TO.C,REF\u002A\u002A*%
G36*
G01*
X76556500Y24975000D02*
X76556500Y25825000D01*
G75*
G02*
X76981500Y26250000I425000J0D01*
G01*
X77831500Y26250000D01*
G75*
G02*
X78256500Y25825000I0J-425000D01*
G01*
X78256500Y24975000D01*
G75*
G02*
X77831500Y24550000I-425000J0D01*
G01*
X76981500Y24550000D01*
G75*
G02*
X76556500Y24975000I0J425000D01*
G01*
G37*
%TD*%
%TO.C,REF\u002A\u002A*%
G36*
G01*
X74016500Y24975000D02*
X74016500Y25825000D01*
G75*
G02*
X74441500Y26250000I425000J0D01*
G01*
X75291500Y26250000D01*
G75*
G02*
X75716500Y25825000I0J-425000D01*
G01*
X75716500Y24975000D01*
G75*
G02*
X75291500Y24550000I-425000J0D01*
G01*
X74441500Y24550000D01*
G75*
G02*
X74016500Y24975000I0J425000D01*
G01*
G37*
%TD*%
%TO.C,REF\u002A\u002A*%
G36*
G01*
X71476500Y24975000D02*
X71476500Y25825000D01*
G75*
G02*
X71901500Y26250000I425000J0D01*
G01*
X72751500Y26250000D01*
G75*
G02*
X73176500Y25825000I0J-425000D01*
G01*
X73176500Y24975000D01*
G75*
G02*
X72751500Y24550000I-425000J0D01*
G01*
X71901500Y24550000D01*
G75*
G02*
X71476500Y24975000I0J425000D01*
G01*
G37*
%TD*%
%TO.C,REF\u002A\u002A*%
G36*
G01*
X68936500Y24975000D02*
X68936500Y25825000D01*
G75*
G02*
X69361500Y26250000I425000J0D01*
G01*
X70211500Y26250000D01*
G75*
G02*
X70636500Y25825000I0J-425000D01*
G01*
X70636500Y24975000D01*
G75*
G02*
X70211500Y24550000I-425000J0D01*
G01*
X69361500Y24550000D01*
G75*
G02*
X68936500Y24975000I0J425000D01*
G01*
G37*
%TD*%
%TO.C,REF\u002A\u002A*%
G36*
G01*
X66396500Y24975000D02*
X66396500Y25825000D01*
G75*
G02*
X66821500Y26250000I425000J0D01*
G01*
X67671500Y26250000D01*
G75*
G02*
X68096500Y25825000I0J-425000D01*
G01*
X68096500Y24975000D01*
G75*
G02*
X67671500Y24550000I-425000J0D01*
G01*
X66821500Y24550000D01*
G75*
G02*
X66396500Y24975000I0J425000D01*
G01*
G37*
%TD*%
%TO.C,REF\u002A\u002A*%
G36*
G01*
X63856500Y24975000D02*
X63856500Y25825000D01*
G75*
G02*
X64281500Y26250000I425000J0D01*
G01*
X65131500Y26250000D01*
G75*
G02*
X65556500Y25825000I0J-425000D01*
G01*
X65556500Y24975000D01*
G75*
G02*
X65131500Y24550000I-425000J0D01*
G01*
X64281500Y24550000D01*
G75*
G02*
X63856500Y24975000I0J425000D01*
G01*
G37*
%TD*%
%TO.C,REF\u002A\u002A*%
G36*
G01*
X61316500Y24975000D02*
X61316500Y25825000D01*
G75*
G02*
X61741500Y26250000I425000J0D01*
G01*
X62591500Y26250000D01*
G75*
G02*
X63016500Y25825000I0J-425000D01*
G01*
X63016500Y24975000D01*
G75*
G02*
X62591500Y24550000I-425000J0D01*
G01*
X61741500Y24550000D01*
G75*
G02*
X61316500Y24975000I0J425000D01*
G01*
G37*
%TD*%
%TO.C,REF\u002A\u002A*%
G36*
G01*
X58776500Y24975000D02*
X58776500Y25825000D01*
G75*
G02*
X59201500Y26250000I425000J0D01*
G01*
X60051500Y26250000D01*
G75*
G02*
X60476500Y25825000I0J-425000D01*
G01*
X60476500Y24975000D01*
G75*
G02*
X60051500Y24550000I-425000J0D01*
G01*
X59201500Y24550000D01*
G75*
G02*
X58776500Y24975000I0J425000D01*
G01*
G37*
%TD*%
%TO.C,REF\u002A\u002A*%
G36*
G01*
X56236500Y24975000D02*
X56236500Y25825000D01*
G75*
G02*
X56661500Y26250000I425000J0D01*
G01*
X57511500Y26250000D01*
G75*
G02*
X57936500Y25825000I0J-425000D01*
G01*
X57936500Y24975000D01*
G75*
G02*
X57511500Y24550000I-425000J0D01*
G01*
X56661500Y24550000D01*
G75*
G02*
X56236500Y24975000I0J425000D01*
G01*
G37*
%TD*%
%TO.C,REF\u002A\u002A*%
G36*
G01*
X53696500Y24975000D02*
X53696500Y25825000D01*
G75*
G02*
X54121500Y26250000I425000J0D01*
G01*
X54971500Y26250000D01*
G75*
G02*
X55396500Y25825000I0J-425000D01*
G01*
X55396500Y24975000D01*
G75*
G02*
X54971500Y24550000I-425000J0D01*
G01*
X54121500Y24550000D01*
G75*
G02*
X53696500Y24975000I0J425000D01*
G01*
G37*
%TD*%
%TO.C,REF\u002A\u002A*%
G36*
G01*
X51156500Y24975000D02*
X51156500Y25825000D01*
G75*
G02*
X51581500Y26250000I425000J0D01*
G01*
X52431500Y26250000D01*
G75*
G02*
X52856500Y25825000I0J-425000D01*
G01*
X52856500Y24975000D01*
G75*
G02*
X52431500Y24550000I-425000J0D01*
G01*
X51581500Y24550000D01*
G75*
G02*
X51156500Y24975000I0J425000D01*
G01*
G37*
%TD*%
%TO.C,REF\u002A\u002A*%
G36*
G01*
X48616500Y24975000D02*
X48616500Y25825000D01*
G75*
G02*
X49041500Y26250000I425000J0D01*
G01*
X49891500Y26250000D01*
G75*
G02*
X50316500Y25825000I0J-425000D01*
G01*
X50316500Y24975000D01*
G75*
G02*
X49891500Y24550000I-425000J0D01*
G01*
X49041500Y24550000D01*
G75*
G02*
X48616500Y24975000I0J425000D01*
G01*
G37*
%TD*%
%TO.C,REF\u002A\u002A*%
G36*
G01*
X46076500Y24975000D02*
X46076500Y25825000D01*
G75*
G02*
X46501500Y26250000I425000J0D01*
G01*
X47351500Y26250000D01*
G75*
G02*
X47776500Y25825000I0J-425000D01*
G01*
X47776500Y24975000D01*
G75*
G02*
X47351500Y24550000I-425000J0D01*
G01*
X46501500Y24550000D01*
G75*
G02*
X46076500Y24975000I0J425000D01*
G01*
G37*
%TD*%
%TO.C,REF\u002A\u002A*%
G36*
G01*
X43536500Y24975000D02*
X43536500Y25825000D01*
G75*
G02*
X43961500Y26250000I425000J0D01*
G01*
X44811500Y26250000D01*
G75*
G02*
X45236500Y25825000I0J-425000D01*
G01*
X45236500Y24975000D01*
G75*
G02*
X44811500Y24550000I-425000J0D01*
G01*
X43961500Y24550000D01*
G75*
G02*
X43536500Y24975000I0J425000D01*
G01*
G37*
%TD*%
%TO.C,REF\u002A\u002A*%
G36*
G01*
X40996500Y24975000D02*
X40996500Y25825000D01*
G75*
G02*
X41421500Y26250000I425000J0D01*
G01*
X42271500Y26250000D01*
G75*
G02*
X42696500Y25825000I0J-425000D01*
G01*
X42696500Y24975000D01*
G75*
G02*
X42271500Y24550000I-425000J0D01*
G01*
X41421500Y24550000D01*
G75*
G02*
X40996500Y24975000I0J425000D01*
G01*
G37*
%TD*%
%TO.C,REF\u002A\u002A*%
G36*
G01*
X38456500Y24975000D02*
X38456500Y25825000D01*
G75*
G02*
X38881500Y26250000I425000J0D01*
G01*
X39731500Y26250000D01*
G75*
G02*
X40156500Y25825000I0J-425000D01*
G01*
X40156500Y24975000D01*
G75*
G02*
X39731500Y24550000I-425000J0D01*
G01*
X38881500Y24550000D01*
G75*
G02*
X38456500Y24975000I0J425000D01*
G01*
G37*
%TD*%
%TO.C,REF\u002A\u002A*%
G36*
G01*
X35916500Y24975000D02*
X35916500Y25825000D01*
G75*
G02*
X36341500Y26250000I425000J0D01*
G01*
X37191500Y26250000D01*
G75*
G02*
X37616500Y25825000I0J-425000D01*
G01*
X37616500Y24975000D01*
G75*
G02*
X37191500Y24550000I-425000J0D01*
G01*
X36341500Y24550000D01*
G75*
G02*
X35916500Y24975000I0J425000D01*
G01*
G37*
%TD*%
%TO.C,REF\u002A\u002A*%
G36*
G01*
X33376500Y24975000D02*
X33376500Y25825000D01*
G75*
G02*
X33801500Y26250000I425000J0D01*
G01*
X34651500Y26250000D01*
G75*
G02*
X35076500Y25825000I0J-425000D01*
G01*
X35076500Y24975000D01*
G75*
G02*
X34651500Y24550000I-425000J0D01*
G01*
X33801500Y24550000D01*
G75*
G02*
X33376500Y24975000I0J425000D01*
G01*
G37*
%TD*%
%TO.C,REF\u002A\u002A*%
G36*
G01*
X30836500Y24975000D02*
X30836500Y25825000D01*
G75*
G02*
X31261500Y26250000I425000J0D01*
G01*
X32111500Y26250000D01*
G75*
G02*
X32536500Y25825000I0J-425000D01*
G01*
X32536500Y24975000D01*
G75*
G02*
X32111500Y24550000I-425000J0D01*
G01*
X31261500Y24550000D01*
G75*
G02*
X30836500Y24975000I0J425000D01*
G01*
G37*
%TD*%
%TO.C,REF\u002A\u002A*%
G36*
G01*
X28296500Y24975000D02*
X28296500Y25825000D01*
G75*
G02*
X28721500Y26250000I425000J0D01*
G01*
X29571500Y26250000D01*
G75*
G02*
X29996500Y25825000I0J-425000D01*
G01*
X29996500Y24975000D01*
G75*
G02*
X29571500Y24550000I-425000J0D01*
G01*
X28721500Y24550000D01*
G75*
G02*
X28296500Y24975000I0J425000D01*
G01*
G37*
%TD*%
%TO.C,REF\u002A\u002A*%
G36*
G01*
X25756500Y24975000D02*
X25756500Y25825000D01*
G75*
G02*
X26181500Y26250000I425000J0D01*
G01*
X27031500Y26250000D01*
G75*
G02*
X27456500Y25825000I0J-425000D01*
G01*
X27456500Y24975000D01*
G75*
G02*
X27031500Y24550000I-425000J0D01*
G01*
X26181500Y24550000D01*
G75*
G02*
X25756500Y24975000I0J425000D01*
G01*
G37*
%TD*%
%TO.C,REF\u002A\u002A*%
G36*
G01*
X23216500Y24975000D02*
X23216500Y25825000D01*
G75*
G02*
X23641500Y26250000I425000J0D01*
G01*
X24491500Y26250000D01*
G75*
G02*
X24916500Y25825000I0J-425000D01*
G01*
X24916500Y24975000D01*
G75*
G02*
X24491500Y24550000I-425000J0D01*
G01*
X23641500Y24550000D01*
G75*
G02*
X23216500Y24975000I0J425000D01*
G01*
G37*
%TD*%
%TO.C,REF\u002A\u002A*%
G36*
G01*
X20676500Y24975000D02*
X20676500Y25825000D01*
G75*
G02*
X21101500Y26250000I425000J0D01*
G01*
X21951500Y26250000D01*
G75*
G02*
X22376500Y25825000I0J-425000D01*
G01*
X22376500Y24975000D01*
G75*
G02*
X21951500Y24550000I-425000J0D01*
G01*
X21101500Y24550000D01*
G75*
G02*
X20676500Y24975000I0J425000D01*
G01*
G37*
%TD*%
%TO.C,REF\u002A\u002A*%
G36*
G01*
X18136500Y24975000D02*
X18136500Y25825000D01*
G75*
G02*
X18561500Y26250000I425000J0D01*
G01*
X19411500Y26250000D01*
G75*
G02*
X19836500Y25825000I0J-425000D01*
G01*
X19836500Y24975000D01*
G75*
G02*
X19411500Y24550000I-425000J0D01*
G01*
X18561500Y24550000D01*
G75*
G02*
X18136500Y24975000I0J425000D01*
G01*
G37*
%TD*%
%TO.C,REF\u002A\u002A*%
G36*
G01*
X15596500Y24975000D02*
X15596500Y25825000D01*
G75*
G02*
X16021500Y26250000I425000J0D01*
G01*
X16871500Y26250000D01*
G75*
G02*
X17296500Y25825000I0J-425000D01*
G01*
X17296500Y24975000D01*
G75*
G02*
X16871500Y24550000I-425000J0D01*
G01*
X16021500Y24550000D01*
G75*
G02*
X15596500Y24975000I0J425000D01*
G01*
G37*
%TD*%
%TO.C,REF\u002A\u002A*%
G36*
G01*
X13056500Y24975000D02*
X13056500Y25825000D01*
G75*
G02*
X13481500Y26250000I425000J0D01*
G01*
X14331500Y26250000D01*
G75*
G02*
X14756500Y25825000I0J-425000D01*
G01*
X14756500Y24975000D01*
G75*
G02*
X14331500Y24550000I-425000J0D01*
G01*
X13481500Y24550000D01*
G75*
G02*
X13056500Y24975000I0J425000D01*
G01*
G37*
%TD*%
%TO.C,REF\u002A\u002A*%
G36*
G01*
X10516500Y24975000D02*
X10516500Y25825000D01*
G75*
G02*
X10941500Y26250000I425000J0D01*
G01*
X11791500Y26250000D01*
G75*
G02*
X12216500Y25825000I0J-425000D01*
G01*
X12216500Y24975000D01*
G75*
G02*
X11791500Y24550000I-425000J0D01*
G01*
X10941500Y24550000D01*
G75*
G02*
X10516500Y24975000I0J425000D01*
G01*
G37*
%TD*%
%TO.C,REF\u002A\u002A*%
G36*
G01*
X7976500Y24975000D02*
X7976500Y25825000D01*
G75*
G02*
X8401500Y26250000I425000J0D01*
G01*
X9251500Y26250000D01*
G75*
G02*
X9676500Y25825000I0J-425000D01*
G01*
X9676500Y24975000D01*
G75*
G02*
X9251500Y24550000I-425000J0D01*
G01*
X8401500Y24550000D01*
G75*
G02*
X7976500Y24975000I0J425000D01*
G01*
G37*
%TD*%
%TO.C,REF\u002A\u002A*%
G36*
G01*
X5436500Y24975000D02*
X5436500Y25825000D01*
G75*
G02*
X5861500Y26250000I425000J0D01*
G01*
X6711500Y26250000D01*
G75*
G02*
X7136500Y25825000I0J-425000D01*
G01*
X7136500Y24975000D01*
G75*
G02*
X6711500Y24550000I-425000J0D01*
G01*
X5861500Y24550000D01*
G75*
G02*
X5436500Y24975000I0J425000D01*
G01*
G37*
%TD*%
%TO.C,REF\u002A\u002A*%
G36*
G01*
X2896500Y24975000D02*
X2896500Y25825000D01*
G75*
G02*
X3321500Y26250000I425000J0D01*
G01*
X4171500Y26250000D01*
G75*
G02*
X4596500Y25825000I0J-425000D01*
G01*
X4596500Y24975000D01*
G75*
G02*
X4171500Y24550000I-425000J0D01*
G01*
X3321500Y24550000D01*
G75*
G02*
X2896500Y24975000I0J425000D01*
G01*
G37*
%TD*%
%TO.C,REF\u002A\u002A*%
G36*
G01*
X76556500Y27515000D02*
X76556500Y28365000D01*
G75*
G02*
X76981500Y28790000I425000J0D01*
G01*
X77831500Y28790000D01*
G75*
G02*
X78256500Y28365000I0J-425000D01*
G01*
X78256500Y27515000D01*
G75*
G02*
X77831500Y27090000I-425000J0D01*
G01*
X76981500Y27090000D01*
G75*
G02*
X76556500Y27515000I0J425000D01*
G01*
G37*
%TD*%
%TO.C,REF\u002A\u002A*%
G36*
G01*
X74016500Y27515000D02*
X74016500Y28365000D01*
G75*
G02*
X74441500Y28790000I425000J0D01*
G01*
X75291500Y28790000D01*
G75*
G02*
X75716500Y28365000I0J-425000D01*
G01*
X75716500Y27515000D01*
G75*
G02*
X75291500Y27090000I-425000J0D01*
G01*
X74441500Y27090000D01*
G75*
G02*
X74016500Y27515000I0J425000D01*
G01*
G37*
%TD*%
%TO.C,REF\u002A\u002A*%
G36*
G01*
X71476500Y27515000D02*
X71476500Y28365000D01*
G75*
G02*
X71901500Y28790000I425000J0D01*
G01*
X72751500Y28790000D01*
G75*
G02*
X73176500Y28365000I0J-425000D01*
G01*
X73176500Y27515000D01*
G75*
G02*
X72751500Y27090000I-425000J0D01*
G01*
X71901500Y27090000D01*
G75*
G02*
X71476500Y27515000I0J425000D01*
G01*
G37*
%TD*%
%TO.C,REF\u002A\u002A*%
G36*
G01*
X68936500Y27515000D02*
X68936500Y28365000D01*
G75*
G02*
X69361500Y28790000I425000J0D01*
G01*
X70211500Y28790000D01*
G75*
G02*
X70636500Y28365000I0J-425000D01*
G01*
X70636500Y27515000D01*
G75*
G02*
X70211500Y27090000I-425000J0D01*
G01*
X69361500Y27090000D01*
G75*
G02*
X68936500Y27515000I0J425000D01*
G01*
G37*
%TD*%
%TO.C,REF\u002A\u002A*%
G36*
G01*
X66396500Y27515000D02*
X66396500Y28365000D01*
G75*
G02*
X66821500Y28790000I425000J0D01*
G01*
X67671500Y28790000D01*
G75*
G02*
X68096500Y28365000I0J-425000D01*
G01*
X68096500Y27515000D01*
G75*
G02*
X67671500Y27090000I-425000J0D01*
G01*
X66821500Y27090000D01*
G75*
G02*
X66396500Y27515000I0J425000D01*
G01*
G37*
%TD*%
%TO.C,REF\u002A\u002A*%
G36*
G01*
X63856500Y27515000D02*
X63856500Y28365000D01*
G75*
G02*
X64281500Y28790000I425000J0D01*
G01*
X65131500Y28790000D01*
G75*
G02*
X65556500Y28365000I0J-425000D01*
G01*
X65556500Y27515000D01*
G75*
G02*
X65131500Y27090000I-425000J0D01*
G01*
X64281500Y27090000D01*
G75*
G02*
X63856500Y27515000I0J425000D01*
G01*
G37*
%TD*%
%TO.C,REF\u002A\u002A*%
G36*
G01*
X61316500Y27515000D02*
X61316500Y28365000D01*
G75*
G02*
X61741500Y28790000I425000J0D01*
G01*
X62591500Y28790000D01*
G75*
G02*
X63016500Y28365000I0J-425000D01*
G01*
X63016500Y27515000D01*
G75*
G02*
X62591500Y27090000I-425000J0D01*
G01*
X61741500Y27090000D01*
G75*
G02*
X61316500Y27515000I0J425000D01*
G01*
G37*
%TD*%
%TO.C,REF\u002A\u002A*%
G36*
G01*
X58776500Y27515000D02*
X58776500Y28365000D01*
G75*
G02*
X59201500Y28790000I425000J0D01*
G01*
X60051500Y28790000D01*
G75*
G02*
X60476500Y28365000I0J-425000D01*
G01*
X60476500Y27515000D01*
G75*
G02*
X60051500Y27090000I-425000J0D01*
G01*
X59201500Y27090000D01*
G75*
G02*
X58776500Y27515000I0J425000D01*
G01*
G37*
%TD*%
%TO.C,REF\u002A\u002A*%
G36*
G01*
X56236500Y27515000D02*
X56236500Y28365000D01*
G75*
G02*
X56661500Y28790000I425000J0D01*
G01*
X57511500Y28790000D01*
G75*
G02*
X57936500Y28365000I0J-425000D01*
G01*
X57936500Y27515000D01*
G75*
G02*
X57511500Y27090000I-425000J0D01*
G01*
X56661500Y27090000D01*
G75*
G02*
X56236500Y27515000I0J425000D01*
G01*
G37*
%TD*%
%TO.C,REF\u002A\u002A*%
G36*
G01*
X53696500Y27515000D02*
X53696500Y28365000D01*
G75*
G02*
X54121500Y28790000I425000J0D01*
G01*
X54971500Y28790000D01*
G75*
G02*
X55396500Y28365000I0J-425000D01*
G01*
X55396500Y27515000D01*
G75*
G02*
X54971500Y27090000I-425000J0D01*
G01*
X54121500Y27090000D01*
G75*
G02*
X53696500Y27515000I0J425000D01*
G01*
G37*
%TD*%
%TO.C,REF\u002A\u002A*%
G36*
G01*
X51156500Y27515000D02*
X51156500Y28365000D01*
G75*
G02*
X51581500Y28790000I425000J0D01*
G01*
X52431500Y28790000D01*
G75*
G02*
X52856500Y28365000I0J-425000D01*
G01*
X52856500Y27515000D01*
G75*
G02*
X52431500Y27090000I-425000J0D01*
G01*
X51581500Y27090000D01*
G75*
G02*
X51156500Y27515000I0J425000D01*
G01*
G37*
%TD*%
%TO.C,REF\u002A\u002A*%
G36*
G01*
X48616500Y27515000D02*
X48616500Y28365000D01*
G75*
G02*
X49041500Y28790000I425000J0D01*
G01*
X49891500Y28790000D01*
G75*
G02*
X50316500Y28365000I0J-425000D01*
G01*
X50316500Y27515000D01*
G75*
G02*
X49891500Y27090000I-425000J0D01*
G01*
X49041500Y27090000D01*
G75*
G02*
X48616500Y27515000I0J425000D01*
G01*
G37*
%TD*%
%TO.C,REF\u002A\u002A*%
G36*
G01*
X46076500Y27515000D02*
X46076500Y28365000D01*
G75*
G02*
X46501500Y28790000I425000J0D01*
G01*
X47351500Y28790000D01*
G75*
G02*
X47776500Y28365000I0J-425000D01*
G01*
X47776500Y27515000D01*
G75*
G02*
X47351500Y27090000I-425000J0D01*
G01*
X46501500Y27090000D01*
G75*
G02*
X46076500Y27515000I0J425000D01*
G01*
G37*
%TD*%
%TO.C,REF\u002A\u002A*%
G36*
G01*
X43536500Y27515000D02*
X43536500Y28365000D01*
G75*
G02*
X43961500Y28790000I425000J0D01*
G01*
X44811500Y28790000D01*
G75*
G02*
X45236500Y28365000I0J-425000D01*
G01*
X45236500Y27515000D01*
G75*
G02*
X44811500Y27090000I-425000J0D01*
G01*
X43961500Y27090000D01*
G75*
G02*
X43536500Y27515000I0J425000D01*
G01*
G37*
%TD*%
%TO.C,REF\u002A\u002A*%
G36*
G01*
X40996500Y27515000D02*
X40996500Y28365000D01*
G75*
G02*
X41421500Y28790000I425000J0D01*
G01*
X42271500Y28790000D01*
G75*
G02*
X42696500Y28365000I0J-425000D01*
G01*
X42696500Y27515000D01*
G75*
G02*
X42271500Y27090000I-425000J0D01*
G01*
X41421500Y27090000D01*
G75*
G02*
X40996500Y27515000I0J425000D01*
G01*
G37*
%TD*%
%TO.C,REF\u002A\u002A*%
G36*
G01*
X38456500Y27515000D02*
X38456500Y28365000D01*
G75*
G02*
X38881500Y28790000I425000J0D01*
G01*
X39731500Y28790000D01*
G75*
G02*
X40156500Y28365000I0J-425000D01*
G01*
X40156500Y27515000D01*
G75*
G02*
X39731500Y27090000I-425000J0D01*
G01*
X38881500Y27090000D01*
G75*
G02*
X38456500Y27515000I0J425000D01*
G01*
G37*
%TD*%
%TO.C,REF\u002A\u002A*%
G36*
G01*
X35916500Y27515000D02*
X35916500Y28365000D01*
G75*
G02*
X36341500Y28790000I425000J0D01*
G01*
X37191500Y28790000D01*
G75*
G02*
X37616500Y28365000I0J-425000D01*
G01*
X37616500Y27515000D01*
G75*
G02*
X37191500Y27090000I-425000J0D01*
G01*
X36341500Y27090000D01*
G75*
G02*
X35916500Y27515000I0J425000D01*
G01*
G37*
%TD*%
%TO.C,REF\u002A\u002A*%
G36*
G01*
X33376500Y27515000D02*
X33376500Y28365000D01*
G75*
G02*
X33801500Y28790000I425000J0D01*
G01*
X34651500Y28790000D01*
G75*
G02*
X35076500Y28365000I0J-425000D01*
G01*
X35076500Y27515000D01*
G75*
G02*
X34651500Y27090000I-425000J0D01*
G01*
X33801500Y27090000D01*
G75*
G02*
X33376500Y27515000I0J425000D01*
G01*
G37*
%TD*%
%TO.C,REF\u002A\u002A*%
G36*
G01*
X30836500Y27515000D02*
X30836500Y28365000D01*
G75*
G02*
X31261500Y28790000I425000J0D01*
G01*
X32111500Y28790000D01*
G75*
G02*
X32536500Y28365000I0J-425000D01*
G01*
X32536500Y27515000D01*
G75*
G02*
X32111500Y27090000I-425000J0D01*
G01*
X31261500Y27090000D01*
G75*
G02*
X30836500Y27515000I0J425000D01*
G01*
G37*
%TD*%
%TO.C,REF\u002A\u002A*%
G36*
G01*
X28296500Y27515000D02*
X28296500Y28365000D01*
G75*
G02*
X28721500Y28790000I425000J0D01*
G01*
X29571500Y28790000D01*
G75*
G02*
X29996500Y28365000I0J-425000D01*
G01*
X29996500Y27515000D01*
G75*
G02*
X29571500Y27090000I-425000J0D01*
G01*
X28721500Y27090000D01*
G75*
G02*
X28296500Y27515000I0J425000D01*
G01*
G37*
%TD*%
%TO.C,REF\u002A\u002A*%
G36*
G01*
X25756500Y27515000D02*
X25756500Y28365000D01*
G75*
G02*
X26181500Y28790000I425000J0D01*
G01*
X27031500Y28790000D01*
G75*
G02*
X27456500Y28365000I0J-425000D01*
G01*
X27456500Y27515000D01*
G75*
G02*
X27031500Y27090000I-425000J0D01*
G01*
X26181500Y27090000D01*
G75*
G02*
X25756500Y27515000I0J425000D01*
G01*
G37*
%TD*%
%TO.C,REF\u002A\u002A*%
G36*
G01*
X23216500Y27515000D02*
X23216500Y28365000D01*
G75*
G02*
X23641500Y28790000I425000J0D01*
G01*
X24491500Y28790000D01*
G75*
G02*
X24916500Y28365000I0J-425000D01*
G01*
X24916500Y27515000D01*
G75*
G02*
X24491500Y27090000I-425000J0D01*
G01*
X23641500Y27090000D01*
G75*
G02*
X23216500Y27515000I0J425000D01*
G01*
G37*
%TD*%
%TO.C,REF\u002A\u002A*%
G36*
G01*
X20676500Y27515000D02*
X20676500Y28365000D01*
G75*
G02*
X21101500Y28790000I425000J0D01*
G01*
X21951500Y28790000D01*
G75*
G02*
X22376500Y28365000I0J-425000D01*
G01*
X22376500Y27515000D01*
G75*
G02*
X21951500Y27090000I-425000J0D01*
G01*
X21101500Y27090000D01*
G75*
G02*
X20676500Y27515000I0J425000D01*
G01*
G37*
%TD*%
%TO.C,REF\u002A\u002A*%
G36*
G01*
X18136500Y27515000D02*
X18136500Y28365000D01*
G75*
G02*
X18561500Y28790000I425000J0D01*
G01*
X19411500Y28790000D01*
G75*
G02*
X19836500Y28365000I0J-425000D01*
G01*
X19836500Y27515000D01*
G75*
G02*
X19411500Y27090000I-425000J0D01*
G01*
X18561500Y27090000D01*
G75*
G02*
X18136500Y27515000I0J425000D01*
G01*
G37*
%TD*%
%TO.C,REF\u002A\u002A*%
G36*
G01*
X15596500Y27515000D02*
X15596500Y28365000D01*
G75*
G02*
X16021500Y28790000I425000J0D01*
G01*
X16871500Y28790000D01*
G75*
G02*
X17296500Y28365000I0J-425000D01*
G01*
X17296500Y27515000D01*
G75*
G02*
X16871500Y27090000I-425000J0D01*
G01*
X16021500Y27090000D01*
G75*
G02*
X15596500Y27515000I0J425000D01*
G01*
G37*
%TD*%
%TO.C,REF\u002A\u002A*%
G36*
G01*
X13056500Y27515000D02*
X13056500Y28365000D01*
G75*
G02*
X13481500Y28790000I425000J0D01*
G01*
X14331500Y28790000D01*
G75*
G02*
X14756500Y28365000I0J-425000D01*
G01*
X14756500Y27515000D01*
G75*
G02*
X14331500Y27090000I-425000J0D01*
G01*
X13481500Y27090000D01*
G75*
G02*
X13056500Y27515000I0J425000D01*
G01*
G37*
%TD*%
%TO.C,REF\u002A\u002A*%
G36*
G01*
X10516500Y27515000D02*
X10516500Y28365000D01*
G75*
G02*
X10941500Y28790000I425000J0D01*
G01*
X11791500Y28790000D01*
G75*
G02*
X12216500Y28365000I0J-425000D01*
G01*
X12216500Y27515000D01*
G75*
G02*
X11791500Y27090000I-425000J0D01*
G01*
X10941500Y27090000D01*
G75*
G02*
X10516500Y27515000I0J425000D01*
G01*
G37*
%TD*%
%TO.C,REF\u002A\u002A*%
G36*
G01*
X7976500Y27515000D02*
X7976500Y28365000D01*
G75*
G02*
X8401500Y28790000I425000J0D01*
G01*
X9251500Y28790000D01*
G75*
G02*
X9676500Y28365000I0J-425000D01*
G01*
X9676500Y27515000D01*
G75*
G02*
X9251500Y27090000I-425000J0D01*
G01*
X8401500Y27090000D01*
G75*
G02*
X7976500Y27515000I0J425000D01*
G01*
G37*
%TD*%
%TO.C,REF\u002A\u002A*%
G36*
G01*
X5436500Y27515000D02*
X5436500Y28365000D01*
G75*
G02*
X5861500Y28790000I425000J0D01*
G01*
X6711500Y28790000D01*
G75*
G02*
X7136500Y28365000I0J-425000D01*
G01*
X7136500Y27515000D01*
G75*
G02*
X6711500Y27090000I-425000J0D01*
G01*
X5861500Y27090000D01*
G75*
G02*
X5436500Y27515000I0J425000D01*
G01*
G37*
%TD*%
%TO.C,REF\u002A\u002A*%
G36*
G01*
X2896500Y27515000D02*
X2896500Y28365000D01*
G75*
G02*
X3321500Y28790000I425000J0D01*
G01*
X4171500Y28790000D01*
G75*
G02*
X4596500Y28365000I0J-425000D01*
G01*
X4596500Y27515000D01*
G75*
G02*
X4171500Y27090000I-425000J0D01*
G01*
X3321500Y27090000D01*
G75*
G02*
X2896500Y27515000I0J425000D01*
G01*
G37*
%TD*%
%TO.C,REF\u002A\u002A*%
G36*
G01*
X2896500Y30055000D02*
X2896500Y30905000D01*
G75*
G02*
X3321500Y31330000I425000J0D01*
G01*
X4171500Y31330000D01*
G75*
G02*
X4596500Y30905000I0J-425000D01*
G01*
X4596500Y30055000D01*
G75*
G02*
X4171500Y29630000I-425000J0D01*
G01*
X3321500Y29630000D01*
G75*
G02*
X2896500Y30055000I0J425000D01*
G01*
G37*
%TD*%
%TO.C,REF\u002A\u002A*%
G36*
G01*
X2896500Y32595000D02*
X2896500Y33445000D01*
G75*
G02*
X3321500Y33870000I425000J0D01*
G01*
X4171500Y33870000D01*
G75*
G02*
X4596500Y33445000I0J-425000D01*
G01*
X4596500Y32595000D01*
G75*
G02*
X4171500Y32170000I-425000J0D01*
G01*
X3321500Y32170000D01*
G75*
G02*
X2896500Y32595000I0J425000D01*
G01*
G37*
%TD*%
%TO.C,REF\u002A\u002A*%
G36*
G01*
X76556500Y35135000D02*
X76556500Y35985000D01*
G75*
G02*
X76981500Y36410000I425000J0D01*
G01*
X77831500Y36410000D01*
G75*
G02*
X78256500Y35985000I0J-425000D01*
G01*
X78256500Y35135000D01*
G75*
G02*
X77831500Y34710000I-425000J0D01*
G01*
X76981500Y34710000D01*
G75*
G02*
X76556500Y35135000I0J425000D01*
G01*
G37*
%TD*%
%TO.C,REF\u002A\u002A*%
G36*
G01*
X74016500Y35135000D02*
X74016500Y35985000D01*
G75*
G02*
X74441500Y36410000I425000J0D01*
G01*
X75291500Y36410000D01*
G75*
G02*
X75716500Y35985000I0J-425000D01*
G01*
X75716500Y35135000D01*
G75*
G02*
X75291500Y34710000I-425000J0D01*
G01*
X74441500Y34710000D01*
G75*
G02*
X74016500Y35135000I0J425000D01*
G01*
G37*
%TD*%
%TO.C,REF\u002A\u002A*%
G36*
G01*
X71476500Y35135000D02*
X71476500Y35985000D01*
G75*
G02*
X71901500Y36410000I425000J0D01*
G01*
X72751500Y36410000D01*
G75*
G02*
X73176500Y35985000I0J-425000D01*
G01*
X73176500Y35135000D01*
G75*
G02*
X72751500Y34710000I-425000J0D01*
G01*
X71901500Y34710000D01*
G75*
G02*
X71476500Y35135000I0J425000D01*
G01*
G37*
%TD*%
%TO.C,REF\u002A\u002A*%
G36*
G01*
X68936500Y35135000D02*
X68936500Y35985000D01*
G75*
G02*
X69361500Y36410000I425000J0D01*
G01*
X70211500Y36410000D01*
G75*
G02*
X70636500Y35985000I0J-425000D01*
G01*
X70636500Y35135000D01*
G75*
G02*
X70211500Y34710000I-425000J0D01*
G01*
X69361500Y34710000D01*
G75*
G02*
X68936500Y35135000I0J425000D01*
G01*
G37*
%TD*%
%TO.C,REF\u002A\u002A*%
G36*
G01*
X66396500Y35135000D02*
X66396500Y35985000D01*
G75*
G02*
X66821500Y36410000I425000J0D01*
G01*
X67671500Y36410000D01*
G75*
G02*
X68096500Y35985000I0J-425000D01*
G01*
X68096500Y35135000D01*
G75*
G02*
X67671500Y34710000I-425000J0D01*
G01*
X66821500Y34710000D01*
G75*
G02*
X66396500Y35135000I0J425000D01*
G01*
G37*
%TD*%
%TO.C,REF\u002A\u002A*%
G36*
G01*
X63856500Y35135000D02*
X63856500Y35985000D01*
G75*
G02*
X64281500Y36410000I425000J0D01*
G01*
X65131500Y36410000D01*
G75*
G02*
X65556500Y35985000I0J-425000D01*
G01*
X65556500Y35135000D01*
G75*
G02*
X65131500Y34710000I-425000J0D01*
G01*
X64281500Y34710000D01*
G75*
G02*
X63856500Y35135000I0J425000D01*
G01*
G37*
%TD*%
%TO.C,REF\u002A\u002A*%
G36*
G01*
X61316500Y35135000D02*
X61316500Y35985000D01*
G75*
G02*
X61741500Y36410000I425000J0D01*
G01*
X62591500Y36410000D01*
G75*
G02*
X63016500Y35985000I0J-425000D01*
G01*
X63016500Y35135000D01*
G75*
G02*
X62591500Y34710000I-425000J0D01*
G01*
X61741500Y34710000D01*
G75*
G02*
X61316500Y35135000I0J425000D01*
G01*
G37*
%TD*%
%TO.C,REF\u002A\u002A*%
G36*
G01*
X58776500Y35135000D02*
X58776500Y35985000D01*
G75*
G02*
X59201500Y36410000I425000J0D01*
G01*
X60051500Y36410000D01*
G75*
G02*
X60476500Y35985000I0J-425000D01*
G01*
X60476500Y35135000D01*
G75*
G02*
X60051500Y34710000I-425000J0D01*
G01*
X59201500Y34710000D01*
G75*
G02*
X58776500Y35135000I0J425000D01*
G01*
G37*
%TD*%
%TO.C,REF\u002A\u002A*%
G36*
G01*
X56236500Y35135000D02*
X56236500Y35985000D01*
G75*
G02*
X56661500Y36410000I425000J0D01*
G01*
X57511500Y36410000D01*
G75*
G02*
X57936500Y35985000I0J-425000D01*
G01*
X57936500Y35135000D01*
G75*
G02*
X57511500Y34710000I-425000J0D01*
G01*
X56661500Y34710000D01*
G75*
G02*
X56236500Y35135000I0J425000D01*
G01*
G37*
%TD*%
%TO.C,REF\u002A\u002A*%
G36*
G01*
X53696500Y35135000D02*
X53696500Y35985000D01*
G75*
G02*
X54121500Y36410000I425000J0D01*
G01*
X54971500Y36410000D01*
G75*
G02*
X55396500Y35985000I0J-425000D01*
G01*
X55396500Y35135000D01*
G75*
G02*
X54971500Y34710000I-425000J0D01*
G01*
X54121500Y34710000D01*
G75*
G02*
X53696500Y35135000I0J425000D01*
G01*
G37*
%TD*%
%TO.C,REF\u002A\u002A*%
G36*
G01*
X51156500Y35135000D02*
X51156500Y35985000D01*
G75*
G02*
X51581500Y36410000I425000J0D01*
G01*
X52431500Y36410000D01*
G75*
G02*
X52856500Y35985000I0J-425000D01*
G01*
X52856500Y35135000D01*
G75*
G02*
X52431500Y34710000I-425000J0D01*
G01*
X51581500Y34710000D01*
G75*
G02*
X51156500Y35135000I0J425000D01*
G01*
G37*
%TD*%
%TO.C,REF\u002A\u002A*%
G36*
G01*
X48616500Y35135000D02*
X48616500Y35985000D01*
G75*
G02*
X49041500Y36410000I425000J0D01*
G01*
X49891500Y36410000D01*
G75*
G02*
X50316500Y35985000I0J-425000D01*
G01*
X50316500Y35135000D01*
G75*
G02*
X49891500Y34710000I-425000J0D01*
G01*
X49041500Y34710000D01*
G75*
G02*
X48616500Y35135000I0J425000D01*
G01*
G37*
%TD*%
%TO.C,REF\u002A\u002A*%
G36*
G01*
X46076500Y35135000D02*
X46076500Y35985000D01*
G75*
G02*
X46501500Y36410000I425000J0D01*
G01*
X47351500Y36410000D01*
G75*
G02*
X47776500Y35985000I0J-425000D01*
G01*
X47776500Y35135000D01*
G75*
G02*
X47351500Y34710000I-425000J0D01*
G01*
X46501500Y34710000D01*
G75*
G02*
X46076500Y35135000I0J425000D01*
G01*
G37*
%TD*%
%TO.C,REF\u002A\u002A*%
G36*
G01*
X43536500Y35135000D02*
X43536500Y35985000D01*
G75*
G02*
X43961500Y36410000I425000J0D01*
G01*
X44811500Y36410000D01*
G75*
G02*
X45236500Y35985000I0J-425000D01*
G01*
X45236500Y35135000D01*
G75*
G02*
X44811500Y34710000I-425000J0D01*
G01*
X43961500Y34710000D01*
G75*
G02*
X43536500Y35135000I0J425000D01*
G01*
G37*
%TD*%
%TO.C,REF\u002A\u002A*%
G36*
G01*
X40996500Y35135000D02*
X40996500Y35985000D01*
G75*
G02*
X41421500Y36410000I425000J0D01*
G01*
X42271500Y36410000D01*
G75*
G02*
X42696500Y35985000I0J-425000D01*
G01*
X42696500Y35135000D01*
G75*
G02*
X42271500Y34710000I-425000J0D01*
G01*
X41421500Y34710000D01*
G75*
G02*
X40996500Y35135000I0J425000D01*
G01*
G37*
%TD*%
%TO.C,REF\u002A\u002A*%
G36*
G01*
X38456500Y35135000D02*
X38456500Y35985000D01*
G75*
G02*
X38881500Y36410000I425000J0D01*
G01*
X39731500Y36410000D01*
G75*
G02*
X40156500Y35985000I0J-425000D01*
G01*
X40156500Y35135000D01*
G75*
G02*
X39731500Y34710000I-425000J0D01*
G01*
X38881500Y34710000D01*
G75*
G02*
X38456500Y35135000I0J425000D01*
G01*
G37*
%TD*%
%TO.C,REF\u002A\u002A*%
G36*
G01*
X35916500Y35135000D02*
X35916500Y35985000D01*
G75*
G02*
X36341500Y36410000I425000J0D01*
G01*
X37191500Y36410000D01*
G75*
G02*
X37616500Y35985000I0J-425000D01*
G01*
X37616500Y35135000D01*
G75*
G02*
X37191500Y34710000I-425000J0D01*
G01*
X36341500Y34710000D01*
G75*
G02*
X35916500Y35135000I0J425000D01*
G01*
G37*
%TD*%
%TO.C,REF\u002A\u002A*%
G36*
G01*
X33376500Y35135000D02*
X33376500Y35985000D01*
G75*
G02*
X33801500Y36410000I425000J0D01*
G01*
X34651500Y36410000D01*
G75*
G02*
X35076500Y35985000I0J-425000D01*
G01*
X35076500Y35135000D01*
G75*
G02*
X34651500Y34710000I-425000J0D01*
G01*
X33801500Y34710000D01*
G75*
G02*
X33376500Y35135000I0J425000D01*
G01*
G37*
%TD*%
%TO.C,REF\u002A\u002A*%
G36*
G01*
X30836500Y35135000D02*
X30836500Y35985000D01*
G75*
G02*
X31261500Y36410000I425000J0D01*
G01*
X32111500Y36410000D01*
G75*
G02*
X32536500Y35985000I0J-425000D01*
G01*
X32536500Y35135000D01*
G75*
G02*
X32111500Y34710000I-425000J0D01*
G01*
X31261500Y34710000D01*
G75*
G02*
X30836500Y35135000I0J425000D01*
G01*
G37*
%TD*%
%TO.C,REF\u002A\u002A*%
G36*
G01*
X28296500Y35135000D02*
X28296500Y35985000D01*
G75*
G02*
X28721500Y36410000I425000J0D01*
G01*
X29571500Y36410000D01*
G75*
G02*
X29996500Y35985000I0J-425000D01*
G01*
X29996500Y35135000D01*
G75*
G02*
X29571500Y34710000I-425000J0D01*
G01*
X28721500Y34710000D01*
G75*
G02*
X28296500Y35135000I0J425000D01*
G01*
G37*
%TD*%
%TO.C,REF\u002A\u002A*%
G36*
G01*
X25756500Y35135000D02*
X25756500Y35985000D01*
G75*
G02*
X26181500Y36410000I425000J0D01*
G01*
X27031500Y36410000D01*
G75*
G02*
X27456500Y35985000I0J-425000D01*
G01*
X27456500Y35135000D01*
G75*
G02*
X27031500Y34710000I-425000J0D01*
G01*
X26181500Y34710000D01*
G75*
G02*
X25756500Y35135000I0J425000D01*
G01*
G37*
%TD*%
%TO.C,REF\u002A\u002A*%
G36*
G01*
X23216500Y35135000D02*
X23216500Y35985000D01*
G75*
G02*
X23641500Y36410000I425000J0D01*
G01*
X24491500Y36410000D01*
G75*
G02*
X24916500Y35985000I0J-425000D01*
G01*
X24916500Y35135000D01*
G75*
G02*
X24491500Y34710000I-425000J0D01*
G01*
X23641500Y34710000D01*
G75*
G02*
X23216500Y35135000I0J425000D01*
G01*
G37*
%TD*%
%TO.C,REF\u002A\u002A*%
G36*
G01*
X20676500Y35135000D02*
X20676500Y35985000D01*
G75*
G02*
X21101500Y36410000I425000J0D01*
G01*
X21951500Y36410000D01*
G75*
G02*
X22376500Y35985000I0J-425000D01*
G01*
X22376500Y35135000D01*
G75*
G02*
X21951500Y34710000I-425000J0D01*
G01*
X21101500Y34710000D01*
G75*
G02*
X20676500Y35135000I0J425000D01*
G01*
G37*
%TD*%
%TO.C,REF\u002A\u002A*%
G36*
G01*
X18136500Y35135000D02*
X18136500Y35985000D01*
G75*
G02*
X18561500Y36410000I425000J0D01*
G01*
X19411500Y36410000D01*
G75*
G02*
X19836500Y35985000I0J-425000D01*
G01*
X19836500Y35135000D01*
G75*
G02*
X19411500Y34710000I-425000J0D01*
G01*
X18561500Y34710000D01*
G75*
G02*
X18136500Y35135000I0J425000D01*
G01*
G37*
%TD*%
%TO.C,REF\u002A\u002A*%
G36*
G01*
X15596500Y35135000D02*
X15596500Y35985000D01*
G75*
G02*
X16021500Y36410000I425000J0D01*
G01*
X16871500Y36410000D01*
G75*
G02*
X17296500Y35985000I0J-425000D01*
G01*
X17296500Y35135000D01*
G75*
G02*
X16871500Y34710000I-425000J0D01*
G01*
X16021500Y34710000D01*
G75*
G02*
X15596500Y35135000I0J425000D01*
G01*
G37*
%TD*%
%TO.C,REF\u002A\u002A*%
G36*
G01*
X13056500Y35135000D02*
X13056500Y35985000D01*
G75*
G02*
X13481500Y36410000I425000J0D01*
G01*
X14331500Y36410000D01*
G75*
G02*
X14756500Y35985000I0J-425000D01*
G01*
X14756500Y35135000D01*
G75*
G02*
X14331500Y34710000I-425000J0D01*
G01*
X13481500Y34710000D01*
G75*
G02*
X13056500Y35135000I0J425000D01*
G01*
G37*
%TD*%
%TO.C,REF\u002A\u002A*%
G36*
G01*
X10516500Y35135000D02*
X10516500Y35985000D01*
G75*
G02*
X10941500Y36410000I425000J0D01*
G01*
X11791500Y36410000D01*
G75*
G02*
X12216500Y35985000I0J-425000D01*
G01*
X12216500Y35135000D01*
G75*
G02*
X11791500Y34710000I-425000J0D01*
G01*
X10941500Y34710000D01*
G75*
G02*
X10516500Y35135000I0J425000D01*
G01*
G37*
%TD*%
%TO.C,REF\u002A\u002A*%
G36*
G01*
X7976500Y35135000D02*
X7976500Y35985000D01*
G75*
G02*
X8401500Y36410000I425000J0D01*
G01*
X9251500Y36410000D01*
G75*
G02*
X9676500Y35985000I0J-425000D01*
G01*
X9676500Y35135000D01*
G75*
G02*
X9251500Y34710000I-425000J0D01*
G01*
X8401500Y34710000D01*
G75*
G02*
X7976500Y35135000I0J425000D01*
G01*
G37*
%TD*%
%TO.C,REF\u002A\u002A*%
G36*
G01*
X5436500Y35135000D02*
X5436500Y35985000D01*
G75*
G02*
X5861500Y36410000I425000J0D01*
G01*
X6711500Y36410000D01*
G75*
G02*
X7136500Y35985000I0J-425000D01*
G01*
X7136500Y35135000D01*
G75*
G02*
X6711500Y34710000I-425000J0D01*
G01*
X5861500Y34710000D01*
G75*
G02*
X5436500Y35135000I0J425000D01*
G01*
G37*
%TD*%
%TO.C,REF\u002A\u002A*%
G36*
G01*
X2896500Y35135000D02*
X2896500Y35985000D01*
G75*
G02*
X3321500Y36410000I425000J0D01*
G01*
X4171500Y36410000D01*
G75*
G02*
X4596500Y35985000I0J-425000D01*
G01*
X4596500Y35135000D01*
G75*
G02*
X4171500Y34710000I-425000J0D01*
G01*
X3321500Y34710000D01*
G75*
G02*
X2896500Y35135000I0J425000D01*
G01*
G37*
%TD*%
%TO.C,REF\u002A\u002A*%
G36*
G01*
X76556500Y37675000D02*
X76556500Y38525000D01*
G75*
G02*
X76981500Y38950000I425000J0D01*
G01*
X77831500Y38950000D01*
G75*
G02*
X78256500Y38525000I0J-425000D01*
G01*
X78256500Y37675000D01*
G75*
G02*
X77831500Y37250000I-425000J0D01*
G01*
X76981500Y37250000D01*
G75*
G02*
X76556500Y37675000I0J425000D01*
G01*
G37*
%TD*%
%TO.C,REF\u002A\u002A*%
G36*
G01*
X74016500Y37675000D02*
X74016500Y38525000D01*
G75*
G02*
X74441500Y38950000I425000J0D01*
G01*
X75291500Y38950000D01*
G75*
G02*
X75716500Y38525000I0J-425000D01*
G01*
X75716500Y37675000D01*
G75*
G02*
X75291500Y37250000I-425000J0D01*
G01*
X74441500Y37250000D01*
G75*
G02*
X74016500Y37675000I0J425000D01*
G01*
G37*
%TD*%
%TO.C,REF\u002A\u002A*%
G36*
G01*
X71476500Y37675000D02*
X71476500Y38525000D01*
G75*
G02*
X71901500Y38950000I425000J0D01*
G01*
X72751500Y38950000D01*
G75*
G02*
X73176500Y38525000I0J-425000D01*
G01*
X73176500Y37675000D01*
G75*
G02*
X72751500Y37250000I-425000J0D01*
G01*
X71901500Y37250000D01*
G75*
G02*
X71476500Y37675000I0J425000D01*
G01*
G37*
%TD*%
%TO.C,REF\u002A\u002A*%
G36*
G01*
X68936500Y37675000D02*
X68936500Y38525000D01*
G75*
G02*
X69361500Y38950000I425000J0D01*
G01*
X70211500Y38950000D01*
G75*
G02*
X70636500Y38525000I0J-425000D01*
G01*
X70636500Y37675000D01*
G75*
G02*
X70211500Y37250000I-425000J0D01*
G01*
X69361500Y37250000D01*
G75*
G02*
X68936500Y37675000I0J425000D01*
G01*
G37*
%TD*%
%TO.C,REF\u002A\u002A*%
G36*
G01*
X66396500Y37675000D02*
X66396500Y38525000D01*
G75*
G02*
X66821500Y38950000I425000J0D01*
G01*
X67671500Y38950000D01*
G75*
G02*
X68096500Y38525000I0J-425000D01*
G01*
X68096500Y37675000D01*
G75*
G02*
X67671500Y37250000I-425000J0D01*
G01*
X66821500Y37250000D01*
G75*
G02*
X66396500Y37675000I0J425000D01*
G01*
G37*
%TD*%
%TO.C,REF\u002A\u002A*%
G36*
G01*
X63856500Y37675000D02*
X63856500Y38525000D01*
G75*
G02*
X64281500Y38950000I425000J0D01*
G01*
X65131500Y38950000D01*
G75*
G02*
X65556500Y38525000I0J-425000D01*
G01*
X65556500Y37675000D01*
G75*
G02*
X65131500Y37250000I-425000J0D01*
G01*
X64281500Y37250000D01*
G75*
G02*
X63856500Y37675000I0J425000D01*
G01*
G37*
%TD*%
%TO.C,REF\u002A\u002A*%
G36*
G01*
X61316500Y37675000D02*
X61316500Y38525000D01*
G75*
G02*
X61741500Y38950000I425000J0D01*
G01*
X62591500Y38950000D01*
G75*
G02*
X63016500Y38525000I0J-425000D01*
G01*
X63016500Y37675000D01*
G75*
G02*
X62591500Y37250000I-425000J0D01*
G01*
X61741500Y37250000D01*
G75*
G02*
X61316500Y37675000I0J425000D01*
G01*
G37*
%TD*%
%TO.C,REF\u002A\u002A*%
G36*
G01*
X58776500Y37675000D02*
X58776500Y38525000D01*
G75*
G02*
X59201500Y38950000I425000J0D01*
G01*
X60051500Y38950000D01*
G75*
G02*
X60476500Y38525000I0J-425000D01*
G01*
X60476500Y37675000D01*
G75*
G02*
X60051500Y37250000I-425000J0D01*
G01*
X59201500Y37250000D01*
G75*
G02*
X58776500Y37675000I0J425000D01*
G01*
G37*
%TD*%
%TO.C,REF\u002A\u002A*%
G36*
G01*
X56236500Y37675000D02*
X56236500Y38525000D01*
G75*
G02*
X56661500Y38950000I425000J0D01*
G01*
X57511500Y38950000D01*
G75*
G02*
X57936500Y38525000I0J-425000D01*
G01*
X57936500Y37675000D01*
G75*
G02*
X57511500Y37250000I-425000J0D01*
G01*
X56661500Y37250000D01*
G75*
G02*
X56236500Y37675000I0J425000D01*
G01*
G37*
%TD*%
%TO.C,REF\u002A\u002A*%
G36*
G01*
X53696500Y37675000D02*
X53696500Y38525000D01*
G75*
G02*
X54121500Y38950000I425000J0D01*
G01*
X54971500Y38950000D01*
G75*
G02*
X55396500Y38525000I0J-425000D01*
G01*
X55396500Y37675000D01*
G75*
G02*
X54971500Y37250000I-425000J0D01*
G01*
X54121500Y37250000D01*
G75*
G02*
X53696500Y37675000I0J425000D01*
G01*
G37*
%TD*%
%TO.C,REF\u002A\u002A*%
G36*
G01*
X51156500Y37675000D02*
X51156500Y38525000D01*
G75*
G02*
X51581500Y38950000I425000J0D01*
G01*
X52431500Y38950000D01*
G75*
G02*
X52856500Y38525000I0J-425000D01*
G01*
X52856500Y37675000D01*
G75*
G02*
X52431500Y37250000I-425000J0D01*
G01*
X51581500Y37250000D01*
G75*
G02*
X51156500Y37675000I0J425000D01*
G01*
G37*
%TD*%
%TO.C,REF\u002A\u002A*%
G36*
G01*
X48616500Y37675000D02*
X48616500Y38525000D01*
G75*
G02*
X49041500Y38950000I425000J0D01*
G01*
X49891500Y38950000D01*
G75*
G02*
X50316500Y38525000I0J-425000D01*
G01*
X50316500Y37675000D01*
G75*
G02*
X49891500Y37250000I-425000J0D01*
G01*
X49041500Y37250000D01*
G75*
G02*
X48616500Y37675000I0J425000D01*
G01*
G37*
%TD*%
%TO.C,REF\u002A\u002A*%
G36*
G01*
X46076500Y37675000D02*
X46076500Y38525000D01*
G75*
G02*
X46501500Y38950000I425000J0D01*
G01*
X47351500Y38950000D01*
G75*
G02*
X47776500Y38525000I0J-425000D01*
G01*
X47776500Y37675000D01*
G75*
G02*
X47351500Y37250000I-425000J0D01*
G01*
X46501500Y37250000D01*
G75*
G02*
X46076500Y37675000I0J425000D01*
G01*
G37*
%TD*%
%TO.C,REF\u002A\u002A*%
G36*
G01*
X43536500Y37675000D02*
X43536500Y38525000D01*
G75*
G02*
X43961500Y38950000I425000J0D01*
G01*
X44811500Y38950000D01*
G75*
G02*
X45236500Y38525000I0J-425000D01*
G01*
X45236500Y37675000D01*
G75*
G02*
X44811500Y37250000I-425000J0D01*
G01*
X43961500Y37250000D01*
G75*
G02*
X43536500Y37675000I0J425000D01*
G01*
G37*
%TD*%
%TO.C,REF\u002A\u002A*%
G36*
G01*
X40996500Y37675000D02*
X40996500Y38525000D01*
G75*
G02*
X41421500Y38950000I425000J0D01*
G01*
X42271500Y38950000D01*
G75*
G02*
X42696500Y38525000I0J-425000D01*
G01*
X42696500Y37675000D01*
G75*
G02*
X42271500Y37250000I-425000J0D01*
G01*
X41421500Y37250000D01*
G75*
G02*
X40996500Y37675000I0J425000D01*
G01*
G37*
%TD*%
%TO.C,REF\u002A\u002A*%
G36*
G01*
X38456500Y37675000D02*
X38456500Y38525000D01*
G75*
G02*
X38881500Y38950000I425000J0D01*
G01*
X39731500Y38950000D01*
G75*
G02*
X40156500Y38525000I0J-425000D01*
G01*
X40156500Y37675000D01*
G75*
G02*
X39731500Y37250000I-425000J0D01*
G01*
X38881500Y37250000D01*
G75*
G02*
X38456500Y37675000I0J425000D01*
G01*
G37*
%TD*%
%TO.C,REF\u002A\u002A*%
G36*
G01*
X35916500Y37675000D02*
X35916500Y38525000D01*
G75*
G02*
X36341500Y38950000I425000J0D01*
G01*
X37191500Y38950000D01*
G75*
G02*
X37616500Y38525000I0J-425000D01*
G01*
X37616500Y37675000D01*
G75*
G02*
X37191500Y37250000I-425000J0D01*
G01*
X36341500Y37250000D01*
G75*
G02*
X35916500Y37675000I0J425000D01*
G01*
G37*
%TD*%
%TO.C,REF\u002A\u002A*%
G36*
G01*
X33376500Y37675000D02*
X33376500Y38525000D01*
G75*
G02*
X33801500Y38950000I425000J0D01*
G01*
X34651500Y38950000D01*
G75*
G02*
X35076500Y38525000I0J-425000D01*
G01*
X35076500Y37675000D01*
G75*
G02*
X34651500Y37250000I-425000J0D01*
G01*
X33801500Y37250000D01*
G75*
G02*
X33376500Y37675000I0J425000D01*
G01*
G37*
%TD*%
%TO.C,REF\u002A\u002A*%
G36*
G01*
X30836500Y37675000D02*
X30836500Y38525000D01*
G75*
G02*
X31261500Y38950000I425000J0D01*
G01*
X32111500Y38950000D01*
G75*
G02*
X32536500Y38525000I0J-425000D01*
G01*
X32536500Y37675000D01*
G75*
G02*
X32111500Y37250000I-425000J0D01*
G01*
X31261500Y37250000D01*
G75*
G02*
X30836500Y37675000I0J425000D01*
G01*
G37*
%TD*%
%TO.C,REF\u002A\u002A*%
G36*
G01*
X28296500Y37675000D02*
X28296500Y38525000D01*
G75*
G02*
X28721500Y38950000I425000J0D01*
G01*
X29571500Y38950000D01*
G75*
G02*
X29996500Y38525000I0J-425000D01*
G01*
X29996500Y37675000D01*
G75*
G02*
X29571500Y37250000I-425000J0D01*
G01*
X28721500Y37250000D01*
G75*
G02*
X28296500Y37675000I0J425000D01*
G01*
G37*
%TD*%
%TO.C,REF\u002A\u002A*%
G36*
G01*
X25756500Y37675000D02*
X25756500Y38525000D01*
G75*
G02*
X26181500Y38950000I425000J0D01*
G01*
X27031500Y38950000D01*
G75*
G02*
X27456500Y38525000I0J-425000D01*
G01*
X27456500Y37675000D01*
G75*
G02*
X27031500Y37250000I-425000J0D01*
G01*
X26181500Y37250000D01*
G75*
G02*
X25756500Y37675000I0J425000D01*
G01*
G37*
%TD*%
%TO.C,REF\u002A\u002A*%
G36*
G01*
X23216500Y37675000D02*
X23216500Y38525000D01*
G75*
G02*
X23641500Y38950000I425000J0D01*
G01*
X24491500Y38950000D01*
G75*
G02*
X24916500Y38525000I0J-425000D01*
G01*
X24916500Y37675000D01*
G75*
G02*
X24491500Y37250000I-425000J0D01*
G01*
X23641500Y37250000D01*
G75*
G02*
X23216500Y37675000I0J425000D01*
G01*
G37*
%TD*%
%TO.C,REF\u002A\u002A*%
G36*
G01*
X20676500Y37675000D02*
X20676500Y38525000D01*
G75*
G02*
X21101500Y38950000I425000J0D01*
G01*
X21951500Y38950000D01*
G75*
G02*
X22376500Y38525000I0J-425000D01*
G01*
X22376500Y37675000D01*
G75*
G02*
X21951500Y37250000I-425000J0D01*
G01*
X21101500Y37250000D01*
G75*
G02*
X20676500Y37675000I0J425000D01*
G01*
G37*
%TD*%
%TO.C,REF\u002A\u002A*%
G36*
G01*
X18136500Y37675000D02*
X18136500Y38525000D01*
G75*
G02*
X18561500Y38950000I425000J0D01*
G01*
X19411500Y38950000D01*
G75*
G02*
X19836500Y38525000I0J-425000D01*
G01*
X19836500Y37675000D01*
G75*
G02*
X19411500Y37250000I-425000J0D01*
G01*
X18561500Y37250000D01*
G75*
G02*
X18136500Y37675000I0J425000D01*
G01*
G37*
%TD*%
%TO.C,REF\u002A\u002A*%
G36*
G01*
X15596500Y37675000D02*
X15596500Y38525000D01*
G75*
G02*
X16021500Y38950000I425000J0D01*
G01*
X16871500Y38950000D01*
G75*
G02*
X17296500Y38525000I0J-425000D01*
G01*
X17296500Y37675000D01*
G75*
G02*
X16871500Y37250000I-425000J0D01*
G01*
X16021500Y37250000D01*
G75*
G02*
X15596500Y37675000I0J425000D01*
G01*
G37*
%TD*%
%TO.C,REF\u002A\u002A*%
G36*
G01*
X13056500Y37675000D02*
X13056500Y38525000D01*
G75*
G02*
X13481500Y38950000I425000J0D01*
G01*
X14331500Y38950000D01*
G75*
G02*
X14756500Y38525000I0J-425000D01*
G01*
X14756500Y37675000D01*
G75*
G02*
X14331500Y37250000I-425000J0D01*
G01*
X13481500Y37250000D01*
G75*
G02*
X13056500Y37675000I0J425000D01*
G01*
G37*
%TD*%
%TO.C,REF\u002A\u002A*%
G36*
G01*
X10516500Y37675000D02*
X10516500Y38525000D01*
G75*
G02*
X10941500Y38950000I425000J0D01*
G01*
X11791500Y38950000D01*
G75*
G02*
X12216500Y38525000I0J-425000D01*
G01*
X12216500Y37675000D01*
G75*
G02*
X11791500Y37250000I-425000J0D01*
G01*
X10941500Y37250000D01*
G75*
G02*
X10516500Y37675000I0J425000D01*
G01*
G37*
%TD*%
%TO.C,REF\u002A\u002A*%
G36*
G01*
X7976500Y37675000D02*
X7976500Y38525000D01*
G75*
G02*
X8401500Y38950000I425000J0D01*
G01*
X9251500Y38950000D01*
G75*
G02*
X9676500Y38525000I0J-425000D01*
G01*
X9676500Y37675000D01*
G75*
G02*
X9251500Y37250000I-425000J0D01*
G01*
X8401500Y37250000D01*
G75*
G02*
X7976500Y37675000I0J425000D01*
G01*
G37*
%TD*%
%TO.C,REF\u002A\u002A*%
G36*
G01*
X5436500Y37675000D02*
X5436500Y38525000D01*
G75*
G02*
X5861500Y38950000I425000J0D01*
G01*
X6711500Y38950000D01*
G75*
G02*
X7136500Y38525000I0J-425000D01*
G01*
X7136500Y37675000D01*
G75*
G02*
X6711500Y37250000I-425000J0D01*
G01*
X5861500Y37250000D01*
G75*
G02*
X5436500Y37675000I0J425000D01*
G01*
G37*
%TD*%
%TO.C,REF\u002A\u002A*%
G36*
G01*
X2896500Y37675000D02*
X2896500Y38525000D01*
G75*
G02*
X3321500Y38950000I425000J0D01*
G01*
X4171500Y38950000D01*
G75*
G02*
X4596500Y38525000I0J-425000D01*
G01*
X4596500Y37675000D01*
G75*
G02*
X4171500Y37250000I-425000J0D01*
G01*
X3321500Y37250000D01*
G75*
G02*
X2896500Y37675000I0J425000D01*
G01*
G37*
%TD*%
%TO.C,REF\u002A\u002A*%
G36*
G01*
X76556500Y40215000D02*
X76556500Y41065000D01*
G75*
G02*
X76981500Y41490000I425000J0D01*
G01*
X77831500Y41490000D01*
G75*
G02*
X78256500Y41065000I0J-425000D01*
G01*
X78256500Y40215000D01*
G75*
G02*
X77831500Y39790000I-425000J0D01*
G01*
X76981500Y39790000D01*
G75*
G02*
X76556500Y40215000I0J425000D01*
G01*
G37*
%TD*%
%TO.C,REF\u002A\u002A*%
G36*
G01*
X74016500Y40215000D02*
X74016500Y41065000D01*
G75*
G02*
X74441500Y41490000I425000J0D01*
G01*
X75291500Y41490000D01*
G75*
G02*
X75716500Y41065000I0J-425000D01*
G01*
X75716500Y40215000D01*
G75*
G02*
X75291500Y39790000I-425000J0D01*
G01*
X74441500Y39790000D01*
G75*
G02*
X74016500Y40215000I0J425000D01*
G01*
G37*
%TD*%
%TO.C,REF\u002A\u002A*%
G36*
G01*
X71476500Y40215000D02*
X71476500Y41065000D01*
G75*
G02*
X71901500Y41490000I425000J0D01*
G01*
X72751500Y41490000D01*
G75*
G02*
X73176500Y41065000I0J-425000D01*
G01*
X73176500Y40215000D01*
G75*
G02*
X72751500Y39790000I-425000J0D01*
G01*
X71901500Y39790000D01*
G75*
G02*
X71476500Y40215000I0J425000D01*
G01*
G37*
%TD*%
%TO.C,REF\u002A\u002A*%
G36*
G01*
X68936500Y40215000D02*
X68936500Y41065000D01*
G75*
G02*
X69361500Y41490000I425000J0D01*
G01*
X70211500Y41490000D01*
G75*
G02*
X70636500Y41065000I0J-425000D01*
G01*
X70636500Y40215000D01*
G75*
G02*
X70211500Y39790000I-425000J0D01*
G01*
X69361500Y39790000D01*
G75*
G02*
X68936500Y40215000I0J425000D01*
G01*
G37*
%TD*%
%TO.C,REF\u002A\u002A*%
G36*
G01*
X66396500Y40215000D02*
X66396500Y41065000D01*
G75*
G02*
X66821500Y41490000I425000J0D01*
G01*
X67671500Y41490000D01*
G75*
G02*
X68096500Y41065000I0J-425000D01*
G01*
X68096500Y40215000D01*
G75*
G02*
X67671500Y39790000I-425000J0D01*
G01*
X66821500Y39790000D01*
G75*
G02*
X66396500Y40215000I0J425000D01*
G01*
G37*
%TD*%
%TO.C,REF\u002A\u002A*%
G36*
G01*
X63856500Y40215000D02*
X63856500Y41065000D01*
G75*
G02*
X64281500Y41490000I425000J0D01*
G01*
X65131500Y41490000D01*
G75*
G02*
X65556500Y41065000I0J-425000D01*
G01*
X65556500Y40215000D01*
G75*
G02*
X65131500Y39790000I-425000J0D01*
G01*
X64281500Y39790000D01*
G75*
G02*
X63856500Y40215000I0J425000D01*
G01*
G37*
%TD*%
%TO.C,REF\u002A\u002A*%
G36*
G01*
X61316500Y40215000D02*
X61316500Y41065000D01*
G75*
G02*
X61741500Y41490000I425000J0D01*
G01*
X62591500Y41490000D01*
G75*
G02*
X63016500Y41065000I0J-425000D01*
G01*
X63016500Y40215000D01*
G75*
G02*
X62591500Y39790000I-425000J0D01*
G01*
X61741500Y39790000D01*
G75*
G02*
X61316500Y40215000I0J425000D01*
G01*
G37*
%TD*%
%TO.C,REF\u002A\u002A*%
G36*
G01*
X58776500Y40215000D02*
X58776500Y41065000D01*
G75*
G02*
X59201500Y41490000I425000J0D01*
G01*
X60051500Y41490000D01*
G75*
G02*
X60476500Y41065000I0J-425000D01*
G01*
X60476500Y40215000D01*
G75*
G02*
X60051500Y39790000I-425000J0D01*
G01*
X59201500Y39790000D01*
G75*
G02*
X58776500Y40215000I0J425000D01*
G01*
G37*
%TD*%
%TO.C,REF\u002A\u002A*%
G36*
G01*
X56236500Y40215000D02*
X56236500Y41065000D01*
G75*
G02*
X56661500Y41490000I425000J0D01*
G01*
X57511500Y41490000D01*
G75*
G02*
X57936500Y41065000I0J-425000D01*
G01*
X57936500Y40215000D01*
G75*
G02*
X57511500Y39790000I-425000J0D01*
G01*
X56661500Y39790000D01*
G75*
G02*
X56236500Y40215000I0J425000D01*
G01*
G37*
%TD*%
%TO.C,REF\u002A\u002A*%
G36*
G01*
X53696500Y40215000D02*
X53696500Y41065000D01*
G75*
G02*
X54121500Y41490000I425000J0D01*
G01*
X54971500Y41490000D01*
G75*
G02*
X55396500Y41065000I0J-425000D01*
G01*
X55396500Y40215000D01*
G75*
G02*
X54971500Y39790000I-425000J0D01*
G01*
X54121500Y39790000D01*
G75*
G02*
X53696500Y40215000I0J425000D01*
G01*
G37*
%TD*%
%TO.C,REF\u002A\u002A*%
G36*
G01*
X51156500Y40215000D02*
X51156500Y41065000D01*
G75*
G02*
X51581500Y41490000I425000J0D01*
G01*
X52431500Y41490000D01*
G75*
G02*
X52856500Y41065000I0J-425000D01*
G01*
X52856500Y40215000D01*
G75*
G02*
X52431500Y39790000I-425000J0D01*
G01*
X51581500Y39790000D01*
G75*
G02*
X51156500Y40215000I0J425000D01*
G01*
G37*
%TD*%
%TO.C,REF\u002A\u002A*%
G36*
G01*
X48616500Y40215000D02*
X48616500Y41065000D01*
G75*
G02*
X49041500Y41490000I425000J0D01*
G01*
X49891500Y41490000D01*
G75*
G02*
X50316500Y41065000I0J-425000D01*
G01*
X50316500Y40215000D01*
G75*
G02*
X49891500Y39790000I-425000J0D01*
G01*
X49041500Y39790000D01*
G75*
G02*
X48616500Y40215000I0J425000D01*
G01*
G37*
%TD*%
%TO.C,REF\u002A\u002A*%
G36*
G01*
X46076500Y40215000D02*
X46076500Y41065000D01*
G75*
G02*
X46501500Y41490000I425000J0D01*
G01*
X47351500Y41490000D01*
G75*
G02*
X47776500Y41065000I0J-425000D01*
G01*
X47776500Y40215000D01*
G75*
G02*
X47351500Y39790000I-425000J0D01*
G01*
X46501500Y39790000D01*
G75*
G02*
X46076500Y40215000I0J425000D01*
G01*
G37*
%TD*%
%TO.C,REF\u002A\u002A*%
G36*
G01*
X43536500Y40215000D02*
X43536500Y41065000D01*
G75*
G02*
X43961500Y41490000I425000J0D01*
G01*
X44811500Y41490000D01*
G75*
G02*
X45236500Y41065000I0J-425000D01*
G01*
X45236500Y40215000D01*
G75*
G02*
X44811500Y39790000I-425000J0D01*
G01*
X43961500Y39790000D01*
G75*
G02*
X43536500Y40215000I0J425000D01*
G01*
G37*
%TD*%
%TO.C,REF\u002A\u002A*%
G36*
G01*
X40996500Y40215000D02*
X40996500Y41065000D01*
G75*
G02*
X41421500Y41490000I425000J0D01*
G01*
X42271500Y41490000D01*
G75*
G02*
X42696500Y41065000I0J-425000D01*
G01*
X42696500Y40215000D01*
G75*
G02*
X42271500Y39790000I-425000J0D01*
G01*
X41421500Y39790000D01*
G75*
G02*
X40996500Y40215000I0J425000D01*
G01*
G37*
%TD*%
%TO.C,REF\u002A\u002A*%
G36*
G01*
X38456500Y40215000D02*
X38456500Y41065000D01*
G75*
G02*
X38881500Y41490000I425000J0D01*
G01*
X39731500Y41490000D01*
G75*
G02*
X40156500Y41065000I0J-425000D01*
G01*
X40156500Y40215000D01*
G75*
G02*
X39731500Y39790000I-425000J0D01*
G01*
X38881500Y39790000D01*
G75*
G02*
X38456500Y40215000I0J425000D01*
G01*
G37*
%TD*%
%TO.C,REF\u002A\u002A*%
G36*
G01*
X35916500Y40215000D02*
X35916500Y41065000D01*
G75*
G02*
X36341500Y41490000I425000J0D01*
G01*
X37191500Y41490000D01*
G75*
G02*
X37616500Y41065000I0J-425000D01*
G01*
X37616500Y40215000D01*
G75*
G02*
X37191500Y39790000I-425000J0D01*
G01*
X36341500Y39790000D01*
G75*
G02*
X35916500Y40215000I0J425000D01*
G01*
G37*
%TD*%
%TO.C,REF\u002A\u002A*%
G36*
G01*
X33376500Y40215000D02*
X33376500Y41065000D01*
G75*
G02*
X33801500Y41490000I425000J0D01*
G01*
X34651500Y41490000D01*
G75*
G02*
X35076500Y41065000I0J-425000D01*
G01*
X35076500Y40215000D01*
G75*
G02*
X34651500Y39790000I-425000J0D01*
G01*
X33801500Y39790000D01*
G75*
G02*
X33376500Y40215000I0J425000D01*
G01*
G37*
%TD*%
%TO.C,REF\u002A\u002A*%
G36*
G01*
X30836500Y40215000D02*
X30836500Y41065000D01*
G75*
G02*
X31261500Y41490000I425000J0D01*
G01*
X32111500Y41490000D01*
G75*
G02*
X32536500Y41065000I0J-425000D01*
G01*
X32536500Y40215000D01*
G75*
G02*
X32111500Y39790000I-425000J0D01*
G01*
X31261500Y39790000D01*
G75*
G02*
X30836500Y40215000I0J425000D01*
G01*
G37*
%TD*%
%TO.C,REF\u002A\u002A*%
G36*
G01*
X28296500Y40215000D02*
X28296500Y41065000D01*
G75*
G02*
X28721500Y41490000I425000J0D01*
G01*
X29571500Y41490000D01*
G75*
G02*
X29996500Y41065000I0J-425000D01*
G01*
X29996500Y40215000D01*
G75*
G02*
X29571500Y39790000I-425000J0D01*
G01*
X28721500Y39790000D01*
G75*
G02*
X28296500Y40215000I0J425000D01*
G01*
G37*
%TD*%
%TO.C,REF\u002A\u002A*%
G36*
G01*
X25756500Y40215000D02*
X25756500Y41065000D01*
G75*
G02*
X26181500Y41490000I425000J0D01*
G01*
X27031500Y41490000D01*
G75*
G02*
X27456500Y41065000I0J-425000D01*
G01*
X27456500Y40215000D01*
G75*
G02*
X27031500Y39790000I-425000J0D01*
G01*
X26181500Y39790000D01*
G75*
G02*
X25756500Y40215000I0J425000D01*
G01*
G37*
%TD*%
%TO.C,REF\u002A\u002A*%
G36*
G01*
X23216500Y40215000D02*
X23216500Y41065000D01*
G75*
G02*
X23641500Y41490000I425000J0D01*
G01*
X24491500Y41490000D01*
G75*
G02*
X24916500Y41065000I0J-425000D01*
G01*
X24916500Y40215000D01*
G75*
G02*
X24491500Y39790000I-425000J0D01*
G01*
X23641500Y39790000D01*
G75*
G02*
X23216500Y40215000I0J425000D01*
G01*
G37*
%TD*%
%TO.C,REF\u002A\u002A*%
G36*
G01*
X20676500Y40215000D02*
X20676500Y41065000D01*
G75*
G02*
X21101500Y41490000I425000J0D01*
G01*
X21951500Y41490000D01*
G75*
G02*
X22376500Y41065000I0J-425000D01*
G01*
X22376500Y40215000D01*
G75*
G02*
X21951500Y39790000I-425000J0D01*
G01*
X21101500Y39790000D01*
G75*
G02*
X20676500Y40215000I0J425000D01*
G01*
G37*
%TD*%
%TO.C,REF\u002A\u002A*%
G36*
G01*
X18136500Y40215000D02*
X18136500Y41065000D01*
G75*
G02*
X18561500Y41490000I425000J0D01*
G01*
X19411500Y41490000D01*
G75*
G02*
X19836500Y41065000I0J-425000D01*
G01*
X19836500Y40215000D01*
G75*
G02*
X19411500Y39790000I-425000J0D01*
G01*
X18561500Y39790000D01*
G75*
G02*
X18136500Y40215000I0J425000D01*
G01*
G37*
%TD*%
%TO.C,REF\u002A\u002A*%
G36*
G01*
X15596500Y40215000D02*
X15596500Y41065000D01*
G75*
G02*
X16021500Y41490000I425000J0D01*
G01*
X16871500Y41490000D01*
G75*
G02*
X17296500Y41065000I0J-425000D01*
G01*
X17296500Y40215000D01*
G75*
G02*
X16871500Y39790000I-425000J0D01*
G01*
X16021500Y39790000D01*
G75*
G02*
X15596500Y40215000I0J425000D01*
G01*
G37*
%TD*%
%TO.C,REF\u002A\u002A*%
G36*
G01*
X13056500Y40215000D02*
X13056500Y41065000D01*
G75*
G02*
X13481500Y41490000I425000J0D01*
G01*
X14331500Y41490000D01*
G75*
G02*
X14756500Y41065000I0J-425000D01*
G01*
X14756500Y40215000D01*
G75*
G02*
X14331500Y39790000I-425000J0D01*
G01*
X13481500Y39790000D01*
G75*
G02*
X13056500Y40215000I0J425000D01*
G01*
G37*
%TD*%
%TO.C,REF\u002A\u002A*%
G36*
G01*
X10516500Y40215000D02*
X10516500Y41065000D01*
G75*
G02*
X10941500Y41490000I425000J0D01*
G01*
X11791500Y41490000D01*
G75*
G02*
X12216500Y41065000I0J-425000D01*
G01*
X12216500Y40215000D01*
G75*
G02*
X11791500Y39790000I-425000J0D01*
G01*
X10941500Y39790000D01*
G75*
G02*
X10516500Y40215000I0J425000D01*
G01*
G37*
%TD*%
%TO.C,REF\u002A\u002A*%
G36*
G01*
X7976500Y40215000D02*
X7976500Y41065000D01*
G75*
G02*
X8401500Y41490000I425000J0D01*
G01*
X9251500Y41490000D01*
G75*
G02*
X9676500Y41065000I0J-425000D01*
G01*
X9676500Y40215000D01*
G75*
G02*
X9251500Y39790000I-425000J0D01*
G01*
X8401500Y39790000D01*
G75*
G02*
X7976500Y40215000I0J425000D01*
G01*
G37*
%TD*%
%TO.C,REF\u002A\u002A*%
G36*
G01*
X5436500Y40215000D02*
X5436500Y41065000D01*
G75*
G02*
X5861500Y41490000I425000J0D01*
G01*
X6711500Y41490000D01*
G75*
G02*
X7136500Y41065000I0J-425000D01*
G01*
X7136500Y40215000D01*
G75*
G02*
X6711500Y39790000I-425000J0D01*
G01*
X5861500Y39790000D01*
G75*
G02*
X5436500Y40215000I0J425000D01*
G01*
G37*
%TD*%
%TO.C,REF\u002A\u002A*%
G36*
G01*
X2896500Y40215000D02*
X2896500Y41065000D01*
G75*
G02*
X3321500Y41490000I425000J0D01*
G01*
X4171500Y41490000D01*
G75*
G02*
X4596500Y41065000I0J-425000D01*
G01*
X4596500Y40215000D01*
G75*
G02*
X4171500Y39790000I-425000J0D01*
G01*
X3321500Y39790000D01*
G75*
G02*
X2896500Y40215000I0J425000D01*
G01*
G37*
%TD*%
%TO.C,REF\u002A\u002A*%
G36*
G01*
X76556500Y42755000D02*
X76556500Y43605000D01*
G75*
G02*
X76981500Y44030000I425000J0D01*
G01*
X77831500Y44030000D01*
G75*
G02*
X78256500Y43605000I0J-425000D01*
G01*
X78256500Y42755000D01*
G75*
G02*
X77831500Y42330000I-425000J0D01*
G01*
X76981500Y42330000D01*
G75*
G02*
X76556500Y42755000I0J425000D01*
G01*
G37*
%TD*%
%TO.C,REF\u002A\u002A*%
G36*
G01*
X74016500Y42755000D02*
X74016500Y43605000D01*
G75*
G02*
X74441500Y44030000I425000J0D01*
G01*
X75291500Y44030000D01*
G75*
G02*
X75716500Y43605000I0J-425000D01*
G01*
X75716500Y42755000D01*
G75*
G02*
X75291500Y42330000I-425000J0D01*
G01*
X74441500Y42330000D01*
G75*
G02*
X74016500Y42755000I0J425000D01*
G01*
G37*
%TD*%
%TO.C,REF\u002A\u002A*%
G36*
G01*
X71476500Y42755000D02*
X71476500Y43605000D01*
G75*
G02*
X71901500Y44030000I425000J0D01*
G01*
X72751500Y44030000D01*
G75*
G02*
X73176500Y43605000I0J-425000D01*
G01*
X73176500Y42755000D01*
G75*
G02*
X72751500Y42330000I-425000J0D01*
G01*
X71901500Y42330000D01*
G75*
G02*
X71476500Y42755000I0J425000D01*
G01*
G37*
%TD*%
%TO.C,REF\u002A\u002A*%
G36*
G01*
X68936500Y42755000D02*
X68936500Y43605000D01*
G75*
G02*
X69361500Y44030000I425000J0D01*
G01*
X70211500Y44030000D01*
G75*
G02*
X70636500Y43605000I0J-425000D01*
G01*
X70636500Y42755000D01*
G75*
G02*
X70211500Y42330000I-425000J0D01*
G01*
X69361500Y42330000D01*
G75*
G02*
X68936500Y42755000I0J425000D01*
G01*
G37*
%TD*%
%TO.C,REF\u002A\u002A*%
G36*
G01*
X66396500Y42755000D02*
X66396500Y43605000D01*
G75*
G02*
X66821500Y44030000I425000J0D01*
G01*
X67671500Y44030000D01*
G75*
G02*
X68096500Y43605000I0J-425000D01*
G01*
X68096500Y42755000D01*
G75*
G02*
X67671500Y42330000I-425000J0D01*
G01*
X66821500Y42330000D01*
G75*
G02*
X66396500Y42755000I0J425000D01*
G01*
G37*
%TD*%
%TO.C,REF\u002A\u002A*%
G36*
G01*
X63856500Y42755000D02*
X63856500Y43605000D01*
G75*
G02*
X64281500Y44030000I425000J0D01*
G01*
X65131500Y44030000D01*
G75*
G02*
X65556500Y43605000I0J-425000D01*
G01*
X65556500Y42755000D01*
G75*
G02*
X65131500Y42330000I-425000J0D01*
G01*
X64281500Y42330000D01*
G75*
G02*
X63856500Y42755000I0J425000D01*
G01*
G37*
%TD*%
%TO.C,REF\u002A\u002A*%
G36*
G01*
X61316500Y42755000D02*
X61316500Y43605000D01*
G75*
G02*
X61741500Y44030000I425000J0D01*
G01*
X62591500Y44030000D01*
G75*
G02*
X63016500Y43605000I0J-425000D01*
G01*
X63016500Y42755000D01*
G75*
G02*
X62591500Y42330000I-425000J0D01*
G01*
X61741500Y42330000D01*
G75*
G02*
X61316500Y42755000I0J425000D01*
G01*
G37*
%TD*%
%TO.C,REF\u002A\u002A*%
G36*
G01*
X58776500Y42755000D02*
X58776500Y43605000D01*
G75*
G02*
X59201500Y44030000I425000J0D01*
G01*
X60051500Y44030000D01*
G75*
G02*
X60476500Y43605000I0J-425000D01*
G01*
X60476500Y42755000D01*
G75*
G02*
X60051500Y42330000I-425000J0D01*
G01*
X59201500Y42330000D01*
G75*
G02*
X58776500Y42755000I0J425000D01*
G01*
G37*
%TD*%
%TO.C,REF\u002A\u002A*%
G36*
G01*
X56236500Y42755000D02*
X56236500Y43605000D01*
G75*
G02*
X56661500Y44030000I425000J0D01*
G01*
X57511500Y44030000D01*
G75*
G02*
X57936500Y43605000I0J-425000D01*
G01*
X57936500Y42755000D01*
G75*
G02*
X57511500Y42330000I-425000J0D01*
G01*
X56661500Y42330000D01*
G75*
G02*
X56236500Y42755000I0J425000D01*
G01*
G37*
%TD*%
%TO.C,REF\u002A\u002A*%
G36*
G01*
X53696500Y42755000D02*
X53696500Y43605000D01*
G75*
G02*
X54121500Y44030000I425000J0D01*
G01*
X54971500Y44030000D01*
G75*
G02*
X55396500Y43605000I0J-425000D01*
G01*
X55396500Y42755000D01*
G75*
G02*
X54971500Y42330000I-425000J0D01*
G01*
X54121500Y42330000D01*
G75*
G02*
X53696500Y42755000I0J425000D01*
G01*
G37*
%TD*%
%TO.C,REF\u002A\u002A*%
G36*
G01*
X51156500Y42755000D02*
X51156500Y43605000D01*
G75*
G02*
X51581500Y44030000I425000J0D01*
G01*
X52431500Y44030000D01*
G75*
G02*
X52856500Y43605000I0J-425000D01*
G01*
X52856500Y42755000D01*
G75*
G02*
X52431500Y42330000I-425000J0D01*
G01*
X51581500Y42330000D01*
G75*
G02*
X51156500Y42755000I0J425000D01*
G01*
G37*
%TD*%
%TO.C,REF\u002A\u002A*%
G36*
G01*
X48616500Y42755000D02*
X48616500Y43605000D01*
G75*
G02*
X49041500Y44030000I425000J0D01*
G01*
X49891500Y44030000D01*
G75*
G02*
X50316500Y43605000I0J-425000D01*
G01*
X50316500Y42755000D01*
G75*
G02*
X49891500Y42330000I-425000J0D01*
G01*
X49041500Y42330000D01*
G75*
G02*
X48616500Y42755000I0J425000D01*
G01*
G37*
%TD*%
%TO.C,REF\u002A\u002A*%
G36*
G01*
X46076500Y42755000D02*
X46076500Y43605000D01*
G75*
G02*
X46501500Y44030000I425000J0D01*
G01*
X47351500Y44030000D01*
G75*
G02*
X47776500Y43605000I0J-425000D01*
G01*
X47776500Y42755000D01*
G75*
G02*
X47351500Y42330000I-425000J0D01*
G01*
X46501500Y42330000D01*
G75*
G02*
X46076500Y42755000I0J425000D01*
G01*
G37*
%TD*%
%TO.C,REF\u002A\u002A*%
G36*
G01*
X43536500Y42755000D02*
X43536500Y43605000D01*
G75*
G02*
X43961500Y44030000I425000J0D01*
G01*
X44811500Y44030000D01*
G75*
G02*
X45236500Y43605000I0J-425000D01*
G01*
X45236500Y42755000D01*
G75*
G02*
X44811500Y42330000I-425000J0D01*
G01*
X43961500Y42330000D01*
G75*
G02*
X43536500Y42755000I0J425000D01*
G01*
G37*
%TD*%
%TO.C,REF\u002A\u002A*%
G36*
G01*
X40996500Y42755000D02*
X40996500Y43605000D01*
G75*
G02*
X41421500Y44030000I425000J0D01*
G01*
X42271500Y44030000D01*
G75*
G02*
X42696500Y43605000I0J-425000D01*
G01*
X42696500Y42755000D01*
G75*
G02*
X42271500Y42330000I-425000J0D01*
G01*
X41421500Y42330000D01*
G75*
G02*
X40996500Y42755000I0J425000D01*
G01*
G37*
%TD*%
%TO.C,REF\u002A\u002A*%
G36*
G01*
X38456500Y42755000D02*
X38456500Y43605000D01*
G75*
G02*
X38881500Y44030000I425000J0D01*
G01*
X39731500Y44030000D01*
G75*
G02*
X40156500Y43605000I0J-425000D01*
G01*
X40156500Y42755000D01*
G75*
G02*
X39731500Y42330000I-425000J0D01*
G01*
X38881500Y42330000D01*
G75*
G02*
X38456500Y42755000I0J425000D01*
G01*
G37*
%TD*%
%TO.C,REF\u002A\u002A*%
G36*
G01*
X35916500Y42755000D02*
X35916500Y43605000D01*
G75*
G02*
X36341500Y44030000I425000J0D01*
G01*
X37191500Y44030000D01*
G75*
G02*
X37616500Y43605000I0J-425000D01*
G01*
X37616500Y42755000D01*
G75*
G02*
X37191500Y42330000I-425000J0D01*
G01*
X36341500Y42330000D01*
G75*
G02*
X35916500Y42755000I0J425000D01*
G01*
G37*
%TD*%
%TO.C,REF\u002A\u002A*%
G36*
G01*
X33376500Y42755000D02*
X33376500Y43605000D01*
G75*
G02*
X33801500Y44030000I425000J0D01*
G01*
X34651500Y44030000D01*
G75*
G02*
X35076500Y43605000I0J-425000D01*
G01*
X35076500Y42755000D01*
G75*
G02*
X34651500Y42330000I-425000J0D01*
G01*
X33801500Y42330000D01*
G75*
G02*
X33376500Y42755000I0J425000D01*
G01*
G37*
%TD*%
%TO.C,REF\u002A\u002A*%
G36*
G01*
X30836500Y42755000D02*
X30836500Y43605000D01*
G75*
G02*
X31261500Y44030000I425000J0D01*
G01*
X32111500Y44030000D01*
G75*
G02*
X32536500Y43605000I0J-425000D01*
G01*
X32536500Y42755000D01*
G75*
G02*
X32111500Y42330000I-425000J0D01*
G01*
X31261500Y42330000D01*
G75*
G02*
X30836500Y42755000I0J425000D01*
G01*
G37*
%TD*%
%TO.C,REF\u002A\u002A*%
G36*
G01*
X28296500Y42755000D02*
X28296500Y43605000D01*
G75*
G02*
X28721500Y44030000I425000J0D01*
G01*
X29571500Y44030000D01*
G75*
G02*
X29996500Y43605000I0J-425000D01*
G01*
X29996500Y42755000D01*
G75*
G02*
X29571500Y42330000I-425000J0D01*
G01*
X28721500Y42330000D01*
G75*
G02*
X28296500Y42755000I0J425000D01*
G01*
G37*
%TD*%
%TO.C,REF\u002A\u002A*%
G36*
G01*
X25756500Y42755000D02*
X25756500Y43605000D01*
G75*
G02*
X26181500Y44030000I425000J0D01*
G01*
X27031500Y44030000D01*
G75*
G02*
X27456500Y43605000I0J-425000D01*
G01*
X27456500Y42755000D01*
G75*
G02*
X27031500Y42330000I-425000J0D01*
G01*
X26181500Y42330000D01*
G75*
G02*
X25756500Y42755000I0J425000D01*
G01*
G37*
%TD*%
%TO.C,REF\u002A\u002A*%
G36*
G01*
X23216500Y42755000D02*
X23216500Y43605000D01*
G75*
G02*
X23641500Y44030000I425000J0D01*
G01*
X24491500Y44030000D01*
G75*
G02*
X24916500Y43605000I0J-425000D01*
G01*
X24916500Y42755000D01*
G75*
G02*
X24491500Y42330000I-425000J0D01*
G01*
X23641500Y42330000D01*
G75*
G02*
X23216500Y42755000I0J425000D01*
G01*
G37*
%TD*%
%TO.C,REF\u002A\u002A*%
G36*
G01*
X20676500Y42755000D02*
X20676500Y43605000D01*
G75*
G02*
X21101500Y44030000I425000J0D01*
G01*
X21951500Y44030000D01*
G75*
G02*
X22376500Y43605000I0J-425000D01*
G01*
X22376500Y42755000D01*
G75*
G02*
X21951500Y42330000I-425000J0D01*
G01*
X21101500Y42330000D01*
G75*
G02*
X20676500Y42755000I0J425000D01*
G01*
G37*
%TD*%
%TO.C,REF\u002A\u002A*%
G36*
G01*
X18136500Y42755000D02*
X18136500Y43605000D01*
G75*
G02*
X18561500Y44030000I425000J0D01*
G01*
X19411500Y44030000D01*
G75*
G02*
X19836500Y43605000I0J-425000D01*
G01*
X19836500Y42755000D01*
G75*
G02*
X19411500Y42330000I-425000J0D01*
G01*
X18561500Y42330000D01*
G75*
G02*
X18136500Y42755000I0J425000D01*
G01*
G37*
%TD*%
%TO.C,REF\u002A\u002A*%
G36*
G01*
X15596500Y42755000D02*
X15596500Y43605000D01*
G75*
G02*
X16021500Y44030000I425000J0D01*
G01*
X16871500Y44030000D01*
G75*
G02*
X17296500Y43605000I0J-425000D01*
G01*
X17296500Y42755000D01*
G75*
G02*
X16871500Y42330000I-425000J0D01*
G01*
X16021500Y42330000D01*
G75*
G02*
X15596500Y42755000I0J425000D01*
G01*
G37*
%TD*%
%TO.C,REF\u002A\u002A*%
G36*
G01*
X13056500Y42755000D02*
X13056500Y43605000D01*
G75*
G02*
X13481500Y44030000I425000J0D01*
G01*
X14331500Y44030000D01*
G75*
G02*
X14756500Y43605000I0J-425000D01*
G01*
X14756500Y42755000D01*
G75*
G02*
X14331500Y42330000I-425000J0D01*
G01*
X13481500Y42330000D01*
G75*
G02*
X13056500Y42755000I0J425000D01*
G01*
G37*
%TD*%
%TO.C,REF\u002A\u002A*%
G36*
G01*
X10516500Y42755000D02*
X10516500Y43605000D01*
G75*
G02*
X10941500Y44030000I425000J0D01*
G01*
X11791500Y44030000D01*
G75*
G02*
X12216500Y43605000I0J-425000D01*
G01*
X12216500Y42755000D01*
G75*
G02*
X11791500Y42330000I-425000J0D01*
G01*
X10941500Y42330000D01*
G75*
G02*
X10516500Y42755000I0J425000D01*
G01*
G37*
%TD*%
%TO.C,REF\u002A\u002A*%
G36*
G01*
X7976500Y42755000D02*
X7976500Y43605000D01*
G75*
G02*
X8401500Y44030000I425000J0D01*
G01*
X9251500Y44030000D01*
G75*
G02*
X9676500Y43605000I0J-425000D01*
G01*
X9676500Y42755000D01*
G75*
G02*
X9251500Y42330000I-425000J0D01*
G01*
X8401500Y42330000D01*
G75*
G02*
X7976500Y42755000I0J425000D01*
G01*
G37*
%TD*%
%TO.C,REF\u002A\u002A*%
G36*
G01*
X5436500Y42755000D02*
X5436500Y43605000D01*
G75*
G02*
X5861500Y44030000I425000J0D01*
G01*
X6711500Y44030000D01*
G75*
G02*
X7136500Y43605000I0J-425000D01*
G01*
X7136500Y42755000D01*
G75*
G02*
X6711500Y42330000I-425000J0D01*
G01*
X5861500Y42330000D01*
G75*
G02*
X5436500Y42755000I0J425000D01*
G01*
G37*
%TD*%
%TO.C,REF\u002A\u002A*%
G36*
G01*
X2896500Y42755000D02*
X2896500Y43605000D01*
G75*
G02*
X3321500Y44030000I425000J0D01*
G01*
X4171500Y44030000D01*
G75*
G02*
X4596500Y43605000I0J-425000D01*
G01*
X4596500Y42755000D01*
G75*
G02*
X4171500Y42330000I-425000J0D01*
G01*
X3321500Y42330000D01*
G75*
G02*
X2896500Y42755000I0J425000D01*
G01*
G37*
%TD*%
%TO.C,REF\u002A\u002A*%
G36*
G01*
X76556500Y45295000D02*
X76556500Y46145000D01*
G75*
G02*
X76981500Y46570000I425000J0D01*
G01*
X77831500Y46570000D01*
G75*
G02*
X78256500Y46145000I0J-425000D01*
G01*
X78256500Y45295000D01*
G75*
G02*
X77831500Y44870000I-425000J0D01*
G01*
X76981500Y44870000D01*
G75*
G02*
X76556500Y45295000I0J425000D01*
G01*
G37*
%TD*%
%TO.C,REF\u002A\u002A*%
G36*
G01*
X74016500Y45295000D02*
X74016500Y46145000D01*
G75*
G02*
X74441500Y46570000I425000J0D01*
G01*
X75291500Y46570000D01*
G75*
G02*
X75716500Y46145000I0J-425000D01*
G01*
X75716500Y45295000D01*
G75*
G02*
X75291500Y44870000I-425000J0D01*
G01*
X74441500Y44870000D01*
G75*
G02*
X74016500Y45295000I0J425000D01*
G01*
G37*
%TD*%
%TO.C,REF\u002A\u002A*%
G36*
G01*
X71476500Y45295000D02*
X71476500Y46145000D01*
G75*
G02*
X71901500Y46570000I425000J0D01*
G01*
X72751500Y46570000D01*
G75*
G02*
X73176500Y46145000I0J-425000D01*
G01*
X73176500Y45295000D01*
G75*
G02*
X72751500Y44870000I-425000J0D01*
G01*
X71901500Y44870000D01*
G75*
G02*
X71476500Y45295000I0J425000D01*
G01*
G37*
%TD*%
%TO.C,REF\u002A\u002A*%
G36*
G01*
X68936500Y45295000D02*
X68936500Y46145000D01*
G75*
G02*
X69361500Y46570000I425000J0D01*
G01*
X70211500Y46570000D01*
G75*
G02*
X70636500Y46145000I0J-425000D01*
G01*
X70636500Y45295000D01*
G75*
G02*
X70211500Y44870000I-425000J0D01*
G01*
X69361500Y44870000D01*
G75*
G02*
X68936500Y45295000I0J425000D01*
G01*
G37*
%TD*%
%TO.C,REF\u002A\u002A*%
G36*
G01*
X66396500Y45295000D02*
X66396500Y46145000D01*
G75*
G02*
X66821500Y46570000I425000J0D01*
G01*
X67671500Y46570000D01*
G75*
G02*
X68096500Y46145000I0J-425000D01*
G01*
X68096500Y45295000D01*
G75*
G02*
X67671500Y44870000I-425000J0D01*
G01*
X66821500Y44870000D01*
G75*
G02*
X66396500Y45295000I0J425000D01*
G01*
G37*
%TD*%
%TO.C,REF\u002A\u002A*%
G36*
G01*
X63856500Y45295000D02*
X63856500Y46145000D01*
G75*
G02*
X64281500Y46570000I425000J0D01*
G01*
X65131500Y46570000D01*
G75*
G02*
X65556500Y46145000I0J-425000D01*
G01*
X65556500Y45295000D01*
G75*
G02*
X65131500Y44870000I-425000J0D01*
G01*
X64281500Y44870000D01*
G75*
G02*
X63856500Y45295000I0J425000D01*
G01*
G37*
%TD*%
%TO.C,REF\u002A\u002A*%
G36*
G01*
X61316500Y45295000D02*
X61316500Y46145000D01*
G75*
G02*
X61741500Y46570000I425000J0D01*
G01*
X62591500Y46570000D01*
G75*
G02*
X63016500Y46145000I0J-425000D01*
G01*
X63016500Y45295000D01*
G75*
G02*
X62591500Y44870000I-425000J0D01*
G01*
X61741500Y44870000D01*
G75*
G02*
X61316500Y45295000I0J425000D01*
G01*
G37*
%TD*%
%TO.C,REF\u002A\u002A*%
G36*
G01*
X58776500Y45295000D02*
X58776500Y46145000D01*
G75*
G02*
X59201500Y46570000I425000J0D01*
G01*
X60051500Y46570000D01*
G75*
G02*
X60476500Y46145000I0J-425000D01*
G01*
X60476500Y45295000D01*
G75*
G02*
X60051500Y44870000I-425000J0D01*
G01*
X59201500Y44870000D01*
G75*
G02*
X58776500Y45295000I0J425000D01*
G01*
G37*
%TD*%
%TO.C,REF\u002A\u002A*%
G36*
G01*
X56236500Y45295000D02*
X56236500Y46145000D01*
G75*
G02*
X56661500Y46570000I425000J0D01*
G01*
X57511500Y46570000D01*
G75*
G02*
X57936500Y46145000I0J-425000D01*
G01*
X57936500Y45295000D01*
G75*
G02*
X57511500Y44870000I-425000J0D01*
G01*
X56661500Y44870000D01*
G75*
G02*
X56236500Y45295000I0J425000D01*
G01*
G37*
%TD*%
%TO.C,REF\u002A\u002A*%
G36*
G01*
X53696500Y45295000D02*
X53696500Y46145000D01*
G75*
G02*
X54121500Y46570000I425000J0D01*
G01*
X54971500Y46570000D01*
G75*
G02*
X55396500Y46145000I0J-425000D01*
G01*
X55396500Y45295000D01*
G75*
G02*
X54971500Y44870000I-425000J0D01*
G01*
X54121500Y44870000D01*
G75*
G02*
X53696500Y45295000I0J425000D01*
G01*
G37*
%TD*%
%TO.C,REF\u002A\u002A*%
G36*
G01*
X51156500Y45295000D02*
X51156500Y46145000D01*
G75*
G02*
X51581500Y46570000I425000J0D01*
G01*
X52431500Y46570000D01*
G75*
G02*
X52856500Y46145000I0J-425000D01*
G01*
X52856500Y45295000D01*
G75*
G02*
X52431500Y44870000I-425000J0D01*
G01*
X51581500Y44870000D01*
G75*
G02*
X51156500Y45295000I0J425000D01*
G01*
G37*
%TD*%
%TO.C,REF\u002A\u002A*%
G36*
G01*
X48616500Y45295000D02*
X48616500Y46145000D01*
G75*
G02*
X49041500Y46570000I425000J0D01*
G01*
X49891500Y46570000D01*
G75*
G02*
X50316500Y46145000I0J-425000D01*
G01*
X50316500Y45295000D01*
G75*
G02*
X49891500Y44870000I-425000J0D01*
G01*
X49041500Y44870000D01*
G75*
G02*
X48616500Y45295000I0J425000D01*
G01*
G37*
%TD*%
%TO.C,REF\u002A\u002A*%
G36*
G01*
X46076500Y45295000D02*
X46076500Y46145000D01*
G75*
G02*
X46501500Y46570000I425000J0D01*
G01*
X47351500Y46570000D01*
G75*
G02*
X47776500Y46145000I0J-425000D01*
G01*
X47776500Y45295000D01*
G75*
G02*
X47351500Y44870000I-425000J0D01*
G01*
X46501500Y44870000D01*
G75*
G02*
X46076500Y45295000I0J425000D01*
G01*
G37*
%TD*%
%TO.C,REF\u002A\u002A*%
G36*
G01*
X43536500Y45295000D02*
X43536500Y46145000D01*
G75*
G02*
X43961500Y46570000I425000J0D01*
G01*
X44811500Y46570000D01*
G75*
G02*
X45236500Y46145000I0J-425000D01*
G01*
X45236500Y45295000D01*
G75*
G02*
X44811500Y44870000I-425000J0D01*
G01*
X43961500Y44870000D01*
G75*
G02*
X43536500Y45295000I0J425000D01*
G01*
G37*
%TD*%
%TO.C,REF\u002A\u002A*%
G36*
G01*
X40996500Y45295000D02*
X40996500Y46145000D01*
G75*
G02*
X41421500Y46570000I425000J0D01*
G01*
X42271500Y46570000D01*
G75*
G02*
X42696500Y46145000I0J-425000D01*
G01*
X42696500Y45295000D01*
G75*
G02*
X42271500Y44870000I-425000J0D01*
G01*
X41421500Y44870000D01*
G75*
G02*
X40996500Y45295000I0J425000D01*
G01*
G37*
%TD*%
%TO.C,REF\u002A\u002A*%
G36*
G01*
X38456500Y45295000D02*
X38456500Y46145000D01*
G75*
G02*
X38881500Y46570000I425000J0D01*
G01*
X39731500Y46570000D01*
G75*
G02*
X40156500Y46145000I0J-425000D01*
G01*
X40156500Y45295000D01*
G75*
G02*
X39731500Y44870000I-425000J0D01*
G01*
X38881500Y44870000D01*
G75*
G02*
X38456500Y45295000I0J425000D01*
G01*
G37*
%TD*%
%TO.C,REF\u002A\u002A*%
G36*
G01*
X35916500Y45295000D02*
X35916500Y46145000D01*
G75*
G02*
X36341500Y46570000I425000J0D01*
G01*
X37191500Y46570000D01*
G75*
G02*
X37616500Y46145000I0J-425000D01*
G01*
X37616500Y45295000D01*
G75*
G02*
X37191500Y44870000I-425000J0D01*
G01*
X36341500Y44870000D01*
G75*
G02*
X35916500Y45295000I0J425000D01*
G01*
G37*
%TD*%
%TO.C,REF\u002A\u002A*%
G36*
G01*
X33376500Y45295000D02*
X33376500Y46145000D01*
G75*
G02*
X33801500Y46570000I425000J0D01*
G01*
X34651500Y46570000D01*
G75*
G02*
X35076500Y46145000I0J-425000D01*
G01*
X35076500Y45295000D01*
G75*
G02*
X34651500Y44870000I-425000J0D01*
G01*
X33801500Y44870000D01*
G75*
G02*
X33376500Y45295000I0J425000D01*
G01*
G37*
%TD*%
%TO.C,REF\u002A\u002A*%
G36*
G01*
X30836500Y45295000D02*
X30836500Y46145000D01*
G75*
G02*
X31261500Y46570000I425000J0D01*
G01*
X32111500Y46570000D01*
G75*
G02*
X32536500Y46145000I0J-425000D01*
G01*
X32536500Y45295000D01*
G75*
G02*
X32111500Y44870000I-425000J0D01*
G01*
X31261500Y44870000D01*
G75*
G02*
X30836500Y45295000I0J425000D01*
G01*
G37*
%TD*%
%TO.C,REF\u002A\u002A*%
G36*
G01*
X28296500Y45295000D02*
X28296500Y46145000D01*
G75*
G02*
X28721500Y46570000I425000J0D01*
G01*
X29571500Y46570000D01*
G75*
G02*
X29996500Y46145000I0J-425000D01*
G01*
X29996500Y45295000D01*
G75*
G02*
X29571500Y44870000I-425000J0D01*
G01*
X28721500Y44870000D01*
G75*
G02*
X28296500Y45295000I0J425000D01*
G01*
G37*
%TD*%
%TO.C,REF\u002A\u002A*%
G36*
G01*
X25756500Y45295000D02*
X25756500Y46145000D01*
G75*
G02*
X26181500Y46570000I425000J0D01*
G01*
X27031500Y46570000D01*
G75*
G02*
X27456500Y46145000I0J-425000D01*
G01*
X27456500Y45295000D01*
G75*
G02*
X27031500Y44870000I-425000J0D01*
G01*
X26181500Y44870000D01*
G75*
G02*
X25756500Y45295000I0J425000D01*
G01*
G37*
%TD*%
%TO.C,REF\u002A\u002A*%
G36*
G01*
X23216500Y45295000D02*
X23216500Y46145000D01*
G75*
G02*
X23641500Y46570000I425000J0D01*
G01*
X24491500Y46570000D01*
G75*
G02*
X24916500Y46145000I0J-425000D01*
G01*
X24916500Y45295000D01*
G75*
G02*
X24491500Y44870000I-425000J0D01*
G01*
X23641500Y44870000D01*
G75*
G02*
X23216500Y45295000I0J425000D01*
G01*
G37*
%TD*%
%TO.C,REF\u002A\u002A*%
G36*
G01*
X20676500Y45295000D02*
X20676500Y46145000D01*
G75*
G02*
X21101500Y46570000I425000J0D01*
G01*
X21951500Y46570000D01*
G75*
G02*
X22376500Y46145000I0J-425000D01*
G01*
X22376500Y45295000D01*
G75*
G02*
X21951500Y44870000I-425000J0D01*
G01*
X21101500Y44870000D01*
G75*
G02*
X20676500Y45295000I0J425000D01*
G01*
G37*
%TD*%
%TO.C,REF\u002A\u002A*%
G36*
G01*
X18136500Y45295000D02*
X18136500Y46145000D01*
G75*
G02*
X18561500Y46570000I425000J0D01*
G01*
X19411500Y46570000D01*
G75*
G02*
X19836500Y46145000I0J-425000D01*
G01*
X19836500Y45295000D01*
G75*
G02*
X19411500Y44870000I-425000J0D01*
G01*
X18561500Y44870000D01*
G75*
G02*
X18136500Y45295000I0J425000D01*
G01*
G37*
%TD*%
%TO.C,REF\u002A\u002A*%
G36*
G01*
X15596500Y45295000D02*
X15596500Y46145000D01*
G75*
G02*
X16021500Y46570000I425000J0D01*
G01*
X16871500Y46570000D01*
G75*
G02*
X17296500Y46145000I0J-425000D01*
G01*
X17296500Y45295000D01*
G75*
G02*
X16871500Y44870000I-425000J0D01*
G01*
X16021500Y44870000D01*
G75*
G02*
X15596500Y45295000I0J425000D01*
G01*
G37*
%TD*%
%TO.C,REF\u002A\u002A*%
G36*
G01*
X13056500Y45295000D02*
X13056500Y46145000D01*
G75*
G02*
X13481500Y46570000I425000J0D01*
G01*
X14331500Y46570000D01*
G75*
G02*
X14756500Y46145000I0J-425000D01*
G01*
X14756500Y45295000D01*
G75*
G02*
X14331500Y44870000I-425000J0D01*
G01*
X13481500Y44870000D01*
G75*
G02*
X13056500Y45295000I0J425000D01*
G01*
G37*
%TD*%
%TO.C,REF\u002A\u002A*%
G36*
G01*
X10516500Y45295000D02*
X10516500Y46145000D01*
G75*
G02*
X10941500Y46570000I425000J0D01*
G01*
X11791500Y46570000D01*
G75*
G02*
X12216500Y46145000I0J-425000D01*
G01*
X12216500Y45295000D01*
G75*
G02*
X11791500Y44870000I-425000J0D01*
G01*
X10941500Y44870000D01*
G75*
G02*
X10516500Y45295000I0J425000D01*
G01*
G37*
%TD*%
%TO.C,REF\u002A\u002A*%
G36*
G01*
X7976500Y45295000D02*
X7976500Y46145000D01*
G75*
G02*
X8401500Y46570000I425000J0D01*
G01*
X9251500Y46570000D01*
G75*
G02*
X9676500Y46145000I0J-425000D01*
G01*
X9676500Y45295000D01*
G75*
G02*
X9251500Y44870000I-425000J0D01*
G01*
X8401500Y44870000D01*
G75*
G02*
X7976500Y45295000I0J425000D01*
G01*
G37*
%TD*%
%TO.C,REF\u002A\u002A*%
G36*
G01*
X5436500Y45295000D02*
X5436500Y46145000D01*
G75*
G02*
X5861500Y46570000I425000J0D01*
G01*
X6711500Y46570000D01*
G75*
G02*
X7136500Y46145000I0J-425000D01*
G01*
X7136500Y45295000D01*
G75*
G02*
X6711500Y44870000I-425000J0D01*
G01*
X5861500Y44870000D01*
G75*
G02*
X5436500Y45295000I0J425000D01*
G01*
G37*
%TD*%
%TO.C,REF\u002A\u002A*%
G36*
G01*
X2896500Y45295000D02*
X2896500Y46145000D01*
G75*
G02*
X3321500Y46570000I425000J0D01*
G01*
X4171500Y46570000D01*
G75*
G02*
X4596500Y46145000I0J-425000D01*
G01*
X4596500Y45295000D01*
G75*
G02*
X4171500Y44870000I-425000J0D01*
G01*
X3321500Y44870000D01*
G75*
G02*
X2896500Y45295000I0J425000D01*
G01*
G37*
%TD*%
%TO.C,REF\u002A\u002A*%
G36*
G01*
X76556500Y47835000D02*
X76556500Y48685000D01*
G75*
G02*
X76981500Y49110000I425000J0D01*
G01*
X77831500Y49110000D01*
G75*
G02*
X78256500Y48685000I0J-425000D01*
G01*
X78256500Y47835000D01*
G75*
G02*
X77831500Y47410000I-425000J0D01*
G01*
X76981500Y47410000D01*
G75*
G02*
X76556500Y47835000I0J425000D01*
G01*
G37*
%TD*%
%TO.C,REF\u002A\u002A*%
G36*
G01*
X74016500Y47835000D02*
X74016500Y48685000D01*
G75*
G02*
X74441500Y49110000I425000J0D01*
G01*
X75291500Y49110000D01*
G75*
G02*
X75716500Y48685000I0J-425000D01*
G01*
X75716500Y47835000D01*
G75*
G02*
X75291500Y47410000I-425000J0D01*
G01*
X74441500Y47410000D01*
G75*
G02*
X74016500Y47835000I0J425000D01*
G01*
G37*
%TD*%
%TO.C,REF\u002A\u002A*%
G36*
G01*
X71476500Y47835000D02*
X71476500Y48685000D01*
G75*
G02*
X71901500Y49110000I425000J0D01*
G01*
X72751500Y49110000D01*
G75*
G02*
X73176500Y48685000I0J-425000D01*
G01*
X73176500Y47835000D01*
G75*
G02*
X72751500Y47410000I-425000J0D01*
G01*
X71901500Y47410000D01*
G75*
G02*
X71476500Y47835000I0J425000D01*
G01*
G37*
%TD*%
%TO.C,REF\u002A\u002A*%
G36*
G01*
X68936500Y47835000D02*
X68936500Y48685000D01*
G75*
G02*
X69361500Y49110000I425000J0D01*
G01*
X70211500Y49110000D01*
G75*
G02*
X70636500Y48685000I0J-425000D01*
G01*
X70636500Y47835000D01*
G75*
G02*
X70211500Y47410000I-425000J0D01*
G01*
X69361500Y47410000D01*
G75*
G02*
X68936500Y47835000I0J425000D01*
G01*
G37*
%TD*%
%TO.C,REF\u002A\u002A*%
G36*
G01*
X66396500Y47835000D02*
X66396500Y48685000D01*
G75*
G02*
X66821500Y49110000I425000J0D01*
G01*
X67671500Y49110000D01*
G75*
G02*
X68096500Y48685000I0J-425000D01*
G01*
X68096500Y47835000D01*
G75*
G02*
X67671500Y47410000I-425000J0D01*
G01*
X66821500Y47410000D01*
G75*
G02*
X66396500Y47835000I0J425000D01*
G01*
G37*
%TD*%
%TO.C,REF\u002A\u002A*%
G36*
G01*
X63856500Y47835000D02*
X63856500Y48685000D01*
G75*
G02*
X64281500Y49110000I425000J0D01*
G01*
X65131500Y49110000D01*
G75*
G02*
X65556500Y48685000I0J-425000D01*
G01*
X65556500Y47835000D01*
G75*
G02*
X65131500Y47410000I-425000J0D01*
G01*
X64281500Y47410000D01*
G75*
G02*
X63856500Y47835000I0J425000D01*
G01*
G37*
%TD*%
%TO.C,REF\u002A\u002A*%
G36*
G01*
X61316500Y47835000D02*
X61316500Y48685000D01*
G75*
G02*
X61741500Y49110000I425000J0D01*
G01*
X62591500Y49110000D01*
G75*
G02*
X63016500Y48685000I0J-425000D01*
G01*
X63016500Y47835000D01*
G75*
G02*
X62591500Y47410000I-425000J0D01*
G01*
X61741500Y47410000D01*
G75*
G02*
X61316500Y47835000I0J425000D01*
G01*
G37*
%TD*%
%TO.C,REF\u002A\u002A*%
G36*
G01*
X58776500Y47835000D02*
X58776500Y48685000D01*
G75*
G02*
X59201500Y49110000I425000J0D01*
G01*
X60051500Y49110000D01*
G75*
G02*
X60476500Y48685000I0J-425000D01*
G01*
X60476500Y47835000D01*
G75*
G02*
X60051500Y47410000I-425000J0D01*
G01*
X59201500Y47410000D01*
G75*
G02*
X58776500Y47835000I0J425000D01*
G01*
G37*
%TD*%
%TO.C,REF\u002A\u002A*%
G36*
G01*
X56236500Y47835000D02*
X56236500Y48685000D01*
G75*
G02*
X56661500Y49110000I425000J0D01*
G01*
X57511500Y49110000D01*
G75*
G02*
X57936500Y48685000I0J-425000D01*
G01*
X57936500Y47835000D01*
G75*
G02*
X57511500Y47410000I-425000J0D01*
G01*
X56661500Y47410000D01*
G75*
G02*
X56236500Y47835000I0J425000D01*
G01*
G37*
%TD*%
%TO.C,REF\u002A\u002A*%
G36*
G01*
X53696500Y47835000D02*
X53696500Y48685000D01*
G75*
G02*
X54121500Y49110000I425000J0D01*
G01*
X54971500Y49110000D01*
G75*
G02*
X55396500Y48685000I0J-425000D01*
G01*
X55396500Y47835000D01*
G75*
G02*
X54971500Y47410000I-425000J0D01*
G01*
X54121500Y47410000D01*
G75*
G02*
X53696500Y47835000I0J425000D01*
G01*
G37*
%TD*%
%TO.C,REF\u002A\u002A*%
G36*
G01*
X51156500Y47835000D02*
X51156500Y48685000D01*
G75*
G02*
X51581500Y49110000I425000J0D01*
G01*
X52431500Y49110000D01*
G75*
G02*
X52856500Y48685000I0J-425000D01*
G01*
X52856500Y47835000D01*
G75*
G02*
X52431500Y47410000I-425000J0D01*
G01*
X51581500Y47410000D01*
G75*
G02*
X51156500Y47835000I0J425000D01*
G01*
G37*
%TD*%
%TO.C,REF\u002A\u002A*%
G36*
G01*
X48616500Y47835000D02*
X48616500Y48685000D01*
G75*
G02*
X49041500Y49110000I425000J0D01*
G01*
X49891500Y49110000D01*
G75*
G02*
X50316500Y48685000I0J-425000D01*
G01*
X50316500Y47835000D01*
G75*
G02*
X49891500Y47410000I-425000J0D01*
G01*
X49041500Y47410000D01*
G75*
G02*
X48616500Y47835000I0J425000D01*
G01*
G37*
%TD*%
%TO.C,REF\u002A\u002A*%
G36*
G01*
X46076500Y47835000D02*
X46076500Y48685000D01*
G75*
G02*
X46501500Y49110000I425000J0D01*
G01*
X47351500Y49110000D01*
G75*
G02*
X47776500Y48685000I0J-425000D01*
G01*
X47776500Y47835000D01*
G75*
G02*
X47351500Y47410000I-425000J0D01*
G01*
X46501500Y47410000D01*
G75*
G02*
X46076500Y47835000I0J425000D01*
G01*
G37*
%TD*%
%TO.C,REF\u002A\u002A*%
G36*
G01*
X43536500Y47835000D02*
X43536500Y48685000D01*
G75*
G02*
X43961500Y49110000I425000J0D01*
G01*
X44811500Y49110000D01*
G75*
G02*
X45236500Y48685000I0J-425000D01*
G01*
X45236500Y47835000D01*
G75*
G02*
X44811500Y47410000I-425000J0D01*
G01*
X43961500Y47410000D01*
G75*
G02*
X43536500Y47835000I0J425000D01*
G01*
G37*
%TD*%
%TO.C,REF\u002A\u002A*%
G36*
G01*
X40996500Y47835000D02*
X40996500Y48685000D01*
G75*
G02*
X41421500Y49110000I425000J0D01*
G01*
X42271500Y49110000D01*
G75*
G02*
X42696500Y48685000I0J-425000D01*
G01*
X42696500Y47835000D01*
G75*
G02*
X42271500Y47410000I-425000J0D01*
G01*
X41421500Y47410000D01*
G75*
G02*
X40996500Y47835000I0J425000D01*
G01*
G37*
%TD*%
%TO.C,REF\u002A\u002A*%
G36*
G01*
X38456500Y47835000D02*
X38456500Y48685000D01*
G75*
G02*
X38881500Y49110000I425000J0D01*
G01*
X39731500Y49110000D01*
G75*
G02*
X40156500Y48685000I0J-425000D01*
G01*
X40156500Y47835000D01*
G75*
G02*
X39731500Y47410000I-425000J0D01*
G01*
X38881500Y47410000D01*
G75*
G02*
X38456500Y47835000I0J425000D01*
G01*
G37*
%TD*%
%TO.C,REF\u002A\u002A*%
G36*
G01*
X35916500Y47835000D02*
X35916500Y48685000D01*
G75*
G02*
X36341500Y49110000I425000J0D01*
G01*
X37191500Y49110000D01*
G75*
G02*
X37616500Y48685000I0J-425000D01*
G01*
X37616500Y47835000D01*
G75*
G02*
X37191500Y47410000I-425000J0D01*
G01*
X36341500Y47410000D01*
G75*
G02*
X35916500Y47835000I0J425000D01*
G01*
G37*
%TD*%
%TO.C,REF\u002A\u002A*%
G36*
G01*
X33376500Y47835000D02*
X33376500Y48685000D01*
G75*
G02*
X33801500Y49110000I425000J0D01*
G01*
X34651500Y49110000D01*
G75*
G02*
X35076500Y48685000I0J-425000D01*
G01*
X35076500Y47835000D01*
G75*
G02*
X34651500Y47410000I-425000J0D01*
G01*
X33801500Y47410000D01*
G75*
G02*
X33376500Y47835000I0J425000D01*
G01*
G37*
%TD*%
%TO.C,REF\u002A\u002A*%
G36*
G01*
X30836500Y47835000D02*
X30836500Y48685000D01*
G75*
G02*
X31261500Y49110000I425000J0D01*
G01*
X32111500Y49110000D01*
G75*
G02*
X32536500Y48685000I0J-425000D01*
G01*
X32536500Y47835000D01*
G75*
G02*
X32111500Y47410000I-425000J0D01*
G01*
X31261500Y47410000D01*
G75*
G02*
X30836500Y47835000I0J425000D01*
G01*
G37*
%TD*%
%TO.C,REF\u002A\u002A*%
G36*
G01*
X28296500Y47835000D02*
X28296500Y48685000D01*
G75*
G02*
X28721500Y49110000I425000J0D01*
G01*
X29571500Y49110000D01*
G75*
G02*
X29996500Y48685000I0J-425000D01*
G01*
X29996500Y47835000D01*
G75*
G02*
X29571500Y47410000I-425000J0D01*
G01*
X28721500Y47410000D01*
G75*
G02*
X28296500Y47835000I0J425000D01*
G01*
G37*
%TD*%
%TO.C,REF\u002A\u002A*%
G36*
G01*
X25756500Y47835000D02*
X25756500Y48685000D01*
G75*
G02*
X26181500Y49110000I425000J0D01*
G01*
X27031500Y49110000D01*
G75*
G02*
X27456500Y48685000I0J-425000D01*
G01*
X27456500Y47835000D01*
G75*
G02*
X27031500Y47410000I-425000J0D01*
G01*
X26181500Y47410000D01*
G75*
G02*
X25756500Y47835000I0J425000D01*
G01*
G37*
%TD*%
%TO.C,REF\u002A\u002A*%
G36*
G01*
X23216500Y47835000D02*
X23216500Y48685000D01*
G75*
G02*
X23641500Y49110000I425000J0D01*
G01*
X24491500Y49110000D01*
G75*
G02*
X24916500Y48685000I0J-425000D01*
G01*
X24916500Y47835000D01*
G75*
G02*
X24491500Y47410000I-425000J0D01*
G01*
X23641500Y47410000D01*
G75*
G02*
X23216500Y47835000I0J425000D01*
G01*
G37*
%TD*%
%TO.C,REF\u002A\u002A*%
G36*
G01*
X20676500Y47835000D02*
X20676500Y48685000D01*
G75*
G02*
X21101500Y49110000I425000J0D01*
G01*
X21951500Y49110000D01*
G75*
G02*
X22376500Y48685000I0J-425000D01*
G01*
X22376500Y47835000D01*
G75*
G02*
X21951500Y47410000I-425000J0D01*
G01*
X21101500Y47410000D01*
G75*
G02*
X20676500Y47835000I0J425000D01*
G01*
G37*
%TD*%
%TO.C,REF\u002A\u002A*%
G36*
G01*
X18136500Y47835000D02*
X18136500Y48685000D01*
G75*
G02*
X18561500Y49110000I425000J0D01*
G01*
X19411500Y49110000D01*
G75*
G02*
X19836500Y48685000I0J-425000D01*
G01*
X19836500Y47835000D01*
G75*
G02*
X19411500Y47410000I-425000J0D01*
G01*
X18561500Y47410000D01*
G75*
G02*
X18136500Y47835000I0J425000D01*
G01*
G37*
%TD*%
%TO.C,REF\u002A\u002A*%
G36*
G01*
X15596500Y47835000D02*
X15596500Y48685000D01*
G75*
G02*
X16021500Y49110000I425000J0D01*
G01*
X16871500Y49110000D01*
G75*
G02*
X17296500Y48685000I0J-425000D01*
G01*
X17296500Y47835000D01*
G75*
G02*
X16871500Y47410000I-425000J0D01*
G01*
X16021500Y47410000D01*
G75*
G02*
X15596500Y47835000I0J425000D01*
G01*
G37*
%TD*%
%TO.C,REF\u002A\u002A*%
G36*
G01*
X13056500Y47835000D02*
X13056500Y48685000D01*
G75*
G02*
X13481500Y49110000I425000J0D01*
G01*
X14331500Y49110000D01*
G75*
G02*
X14756500Y48685000I0J-425000D01*
G01*
X14756500Y47835000D01*
G75*
G02*
X14331500Y47410000I-425000J0D01*
G01*
X13481500Y47410000D01*
G75*
G02*
X13056500Y47835000I0J425000D01*
G01*
G37*
%TD*%
%TO.C,REF\u002A\u002A*%
G36*
G01*
X10516500Y47835000D02*
X10516500Y48685000D01*
G75*
G02*
X10941500Y49110000I425000J0D01*
G01*
X11791500Y49110000D01*
G75*
G02*
X12216500Y48685000I0J-425000D01*
G01*
X12216500Y47835000D01*
G75*
G02*
X11791500Y47410000I-425000J0D01*
G01*
X10941500Y47410000D01*
G75*
G02*
X10516500Y47835000I0J425000D01*
G01*
G37*
%TD*%
%TO.C,REF\u002A\u002A*%
G36*
G01*
X7976500Y47835000D02*
X7976500Y48685000D01*
G75*
G02*
X8401500Y49110000I425000J0D01*
G01*
X9251500Y49110000D01*
G75*
G02*
X9676500Y48685000I0J-425000D01*
G01*
X9676500Y47835000D01*
G75*
G02*
X9251500Y47410000I-425000J0D01*
G01*
X8401500Y47410000D01*
G75*
G02*
X7976500Y47835000I0J425000D01*
G01*
G37*
%TD*%
%TO.C,REF\u002A\u002A*%
G36*
G01*
X5436500Y47835000D02*
X5436500Y48685000D01*
G75*
G02*
X5861500Y49110000I425000J0D01*
G01*
X6711500Y49110000D01*
G75*
G02*
X7136500Y48685000I0J-425000D01*
G01*
X7136500Y47835000D01*
G75*
G02*
X6711500Y47410000I-425000J0D01*
G01*
X5861500Y47410000D01*
G75*
G02*
X5436500Y47835000I0J425000D01*
G01*
G37*
%TD*%
%TO.C,REF\u002A\u002A*%
G36*
G01*
X2896500Y47835000D02*
X2896500Y48685000D01*
G75*
G02*
X3321500Y49110000I425000J0D01*
G01*
X4171500Y49110000D01*
G75*
G02*
X4596500Y48685000I0J-425000D01*
G01*
X4596500Y47835000D01*
G75*
G02*
X4171500Y47410000I-425000J0D01*
G01*
X3321500Y47410000D01*
G75*
G02*
X2896500Y47835000I0J425000D01*
G01*
G37*
%TD*%
%TO.C,REF\u002A\u002A*%
G36*
G01*
X76556500Y50375000D02*
X76556500Y51225000D01*
G75*
G02*
X76981500Y51650000I425000J0D01*
G01*
X77831500Y51650000D01*
G75*
G02*
X78256500Y51225000I0J-425000D01*
G01*
X78256500Y50375000D01*
G75*
G02*
X77831500Y49950000I-425000J0D01*
G01*
X76981500Y49950000D01*
G75*
G02*
X76556500Y50375000I0J425000D01*
G01*
G37*
%TD*%
%TO.C,REF\u002A\u002A*%
G36*
G01*
X74016500Y50375000D02*
X74016500Y51225000D01*
G75*
G02*
X74441500Y51650000I425000J0D01*
G01*
X75291500Y51650000D01*
G75*
G02*
X75716500Y51225000I0J-425000D01*
G01*
X75716500Y50375000D01*
G75*
G02*
X75291500Y49950000I-425000J0D01*
G01*
X74441500Y49950000D01*
G75*
G02*
X74016500Y50375000I0J425000D01*
G01*
G37*
%TD*%
%TO.C,REF\u002A\u002A*%
G36*
G01*
X71476500Y50375000D02*
X71476500Y51225000D01*
G75*
G02*
X71901500Y51650000I425000J0D01*
G01*
X72751500Y51650000D01*
G75*
G02*
X73176500Y51225000I0J-425000D01*
G01*
X73176500Y50375000D01*
G75*
G02*
X72751500Y49950000I-425000J0D01*
G01*
X71901500Y49950000D01*
G75*
G02*
X71476500Y50375000I0J425000D01*
G01*
G37*
%TD*%
%TO.C,REF\u002A\u002A*%
G36*
G01*
X68936500Y50375000D02*
X68936500Y51225000D01*
G75*
G02*
X69361500Y51650000I425000J0D01*
G01*
X70211500Y51650000D01*
G75*
G02*
X70636500Y51225000I0J-425000D01*
G01*
X70636500Y50375000D01*
G75*
G02*
X70211500Y49950000I-425000J0D01*
G01*
X69361500Y49950000D01*
G75*
G02*
X68936500Y50375000I0J425000D01*
G01*
G37*
%TD*%
%TO.C,REF\u002A\u002A*%
G36*
G01*
X66396500Y50375000D02*
X66396500Y51225000D01*
G75*
G02*
X66821500Y51650000I425000J0D01*
G01*
X67671500Y51650000D01*
G75*
G02*
X68096500Y51225000I0J-425000D01*
G01*
X68096500Y50375000D01*
G75*
G02*
X67671500Y49950000I-425000J0D01*
G01*
X66821500Y49950000D01*
G75*
G02*
X66396500Y50375000I0J425000D01*
G01*
G37*
%TD*%
%TO.C,REF\u002A\u002A*%
G36*
G01*
X63856500Y50375000D02*
X63856500Y51225000D01*
G75*
G02*
X64281500Y51650000I425000J0D01*
G01*
X65131500Y51650000D01*
G75*
G02*
X65556500Y51225000I0J-425000D01*
G01*
X65556500Y50375000D01*
G75*
G02*
X65131500Y49950000I-425000J0D01*
G01*
X64281500Y49950000D01*
G75*
G02*
X63856500Y50375000I0J425000D01*
G01*
G37*
%TD*%
%TO.C,REF\u002A\u002A*%
G36*
G01*
X61316500Y50375000D02*
X61316500Y51225000D01*
G75*
G02*
X61741500Y51650000I425000J0D01*
G01*
X62591500Y51650000D01*
G75*
G02*
X63016500Y51225000I0J-425000D01*
G01*
X63016500Y50375000D01*
G75*
G02*
X62591500Y49950000I-425000J0D01*
G01*
X61741500Y49950000D01*
G75*
G02*
X61316500Y50375000I0J425000D01*
G01*
G37*
%TD*%
%TO.C,REF\u002A\u002A*%
G36*
G01*
X58776500Y50375000D02*
X58776500Y51225000D01*
G75*
G02*
X59201500Y51650000I425000J0D01*
G01*
X60051500Y51650000D01*
G75*
G02*
X60476500Y51225000I0J-425000D01*
G01*
X60476500Y50375000D01*
G75*
G02*
X60051500Y49950000I-425000J0D01*
G01*
X59201500Y49950000D01*
G75*
G02*
X58776500Y50375000I0J425000D01*
G01*
G37*
%TD*%
%TO.C,REF\u002A\u002A*%
G36*
G01*
X56236500Y50375000D02*
X56236500Y51225000D01*
G75*
G02*
X56661500Y51650000I425000J0D01*
G01*
X57511500Y51650000D01*
G75*
G02*
X57936500Y51225000I0J-425000D01*
G01*
X57936500Y50375000D01*
G75*
G02*
X57511500Y49950000I-425000J0D01*
G01*
X56661500Y49950000D01*
G75*
G02*
X56236500Y50375000I0J425000D01*
G01*
G37*
%TD*%
%TO.C,REF\u002A\u002A*%
G36*
G01*
X53696500Y50375000D02*
X53696500Y51225000D01*
G75*
G02*
X54121500Y51650000I425000J0D01*
G01*
X54971500Y51650000D01*
G75*
G02*
X55396500Y51225000I0J-425000D01*
G01*
X55396500Y50375000D01*
G75*
G02*
X54971500Y49950000I-425000J0D01*
G01*
X54121500Y49950000D01*
G75*
G02*
X53696500Y50375000I0J425000D01*
G01*
G37*
%TD*%
%TO.C,REF\u002A\u002A*%
G36*
G01*
X51156500Y50375000D02*
X51156500Y51225000D01*
G75*
G02*
X51581500Y51650000I425000J0D01*
G01*
X52431500Y51650000D01*
G75*
G02*
X52856500Y51225000I0J-425000D01*
G01*
X52856500Y50375000D01*
G75*
G02*
X52431500Y49950000I-425000J0D01*
G01*
X51581500Y49950000D01*
G75*
G02*
X51156500Y50375000I0J425000D01*
G01*
G37*
%TD*%
%TO.C,REF\u002A\u002A*%
G36*
G01*
X48616500Y50375000D02*
X48616500Y51225000D01*
G75*
G02*
X49041500Y51650000I425000J0D01*
G01*
X49891500Y51650000D01*
G75*
G02*
X50316500Y51225000I0J-425000D01*
G01*
X50316500Y50375000D01*
G75*
G02*
X49891500Y49950000I-425000J0D01*
G01*
X49041500Y49950000D01*
G75*
G02*
X48616500Y50375000I0J425000D01*
G01*
G37*
%TD*%
%TO.C,REF\u002A\u002A*%
G36*
G01*
X46076500Y50375000D02*
X46076500Y51225000D01*
G75*
G02*
X46501500Y51650000I425000J0D01*
G01*
X47351500Y51650000D01*
G75*
G02*
X47776500Y51225000I0J-425000D01*
G01*
X47776500Y50375000D01*
G75*
G02*
X47351500Y49950000I-425000J0D01*
G01*
X46501500Y49950000D01*
G75*
G02*
X46076500Y50375000I0J425000D01*
G01*
G37*
%TD*%
%TO.C,REF\u002A\u002A*%
G36*
G01*
X43536500Y50375000D02*
X43536500Y51225000D01*
G75*
G02*
X43961500Y51650000I425000J0D01*
G01*
X44811500Y51650000D01*
G75*
G02*
X45236500Y51225000I0J-425000D01*
G01*
X45236500Y50375000D01*
G75*
G02*
X44811500Y49950000I-425000J0D01*
G01*
X43961500Y49950000D01*
G75*
G02*
X43536500Y50375000I0J425000D01*
G01*
G37*
%TD*%
%TO.C,REF\u002A\u002A*%
G36*
G01*
X40996500Y50375000D02*
X40996500Y51225000D01*
G75*
G02*
X41421500Y51650000I425000J0D01*
G01*
X42271500Y51650000D01*
G75*
G02*
X42696500Y51225000I0J-425000D01*
G01*
X42696500Y50375000D01*
G75*
G02*
X42271500Y49950000I-425000J0D01*
G01*
X41421500Y49950000D01*
G75*
G02*
X40996500Y50375000I0J425000D01*
G01*
G37*
%TD*%
%TO.C,REF\u002A\u002A*%
G36*
G01*
X38456500Y50375000D02*
X38456500Y51225000D01*
G75*
G02*
X38881500Y51650000I425000J0D01*
G01*
X39731500Y51650000D01*
G75*
G02*
X40156500Y51225000I0J-425000D01*
G01*
X40156500Y50375000D01*
G75*
G02*
X39731500Y49950000I-425000J0D01*
G01*
X38881500Y49950000D01*
G75*
G02*
X38456500Y50375000I0J425000D01*
G01*
G37*
%TD*%
%TO.C,REF\u002A\u002A*%
G36*
G01*
X35916500Y50375000D02*
X35916500Y51225000D01*
G75*
G02*
X36341500Y51650000I425000J0D01*
G01*
X37191500Y51650000D01*
G75*
G02*
X37616500Y51225000I0J-425000D01*
G01*
X37616500Y50375000D01*
G75*
G02*
X37191500Y49950000I-425000J0D01*
G01*
X36341500Y49950000D01*
G75*
G02*
X35916500Y50375000I0J425000D01*
G01*
G37*
%TD*%
%TO.C,REF\u002A\u002A*%
G36*
G01*
X33376500Y50375000D02*
X33376500Y51225000D01*
G75*
G02*
X33801500Y51650000I425000J0D01*
G01*
X34651500Y51650000D01*
G75*
G02*
X35076500Y51225000I0J-425000D01*
G01*
X35076500Y50375000D01*
G75*
G02*
X34651500Y49950000I-425000J0D01*
G01*
X33801500Y49950000D01*
G75*
G02*
X33376500Y50375000I0J425000D01*
G01*
G37*
%TD*%
%TO.C,REF\u002A\u002A*%
G36*
G01*
X30836500Y50375000D02*
X30836500Y51225000D01*
G75*
G02*
X31261500Y51650000I425000J0D01*
G01*
X32111500Y51650000D01*
G75*
G02*
X32536500Y51225000I0J-425000D01*
G01*
X32536500Y50375000D01*
G75*
G02*
X32111500Y49950000I-425000J0D01*
G01*
X31261500Y49950000D01*
G75*
G02*
X30836500Y50375000I0J425000D01*
G01*
G37*
%TD*%
%TO.C,REF\u002A\u002A*%
G36*
G01*
X28296500Y50375000D02*
X28296500Y51225000D01*
G75*
G02*
X28721500Y51650000I425000J0D01*
G01*
X29571500Y51650000D01*
G75*
G02*
X29996500Y51225000I0J-425000D01*
G01*
X29996500Y50375000D01*
G75*
G02*
X29571500Y49950000I-425000J0D01*
G01*
X28721500Y49950000D01*
G75*
G02*
X28296500Y50375000I0J425000D01*
G01*
G37*
%TD*%
%TO.C,REF\u002A\u002A*%
G36*
G01*
X25756500Y50375000D02*
X25756500Y51225000D01*
G75*
G02*
X26181500Y51650000I425000J0D01*
G01*
X27031500Y51650000D01*
G75*
G02*
X27456500Y51225000I0J-425000D01*
G01*
X27456500Y50375000D01*
G75*
G02*
X27031500Y49950000I-425000J0D01*
G01*
X26181500Y49950000D01*
G75*
G02*
X25756500Y50375000I0J425000D01*
G01*
G37*
%TD*%
%TO.C,REF\u002A\u002A*%
G36*
G01*
X23216500Y50375000D02*
X23216500Y51225000D01*
G75*
G02*
X23641500Y51650000I425000J0D01*
G01*
X24491500Y51650000D01*
G75*
G02*
X24916500Y51225000I0J-425000D01*
G01*
X24916500Y50375000D01*
G75*
G02*
X24491500Y49950000I-425000J0D01*
G01*
X23641500Y49950000D01*
G75*
G02*
X23216500Y50375000I0J425000D01*
G01*
G37*
%TD*%
%TO.C,REF\u002A\u002A*%
G36*
G01*
X20676500Y50375000D02*
X20676500Y51225000D01*
G75*
G02*
X21101500Y51650000I425000J0D01*
G01*
X21951500Y51650000D01*
G75*
G02*
X22376500Y51225000I0J-425000D01*
G01*
X22376500Y50375000D01*
G75*
G02*
X21951500Y49950000I-425000J0D01*
G01*
X21101500Y49950000D01*
G75*
G02*
X20676500Y50375000I0J425000D01*
G01*
G37*
%TD*%
%TO.C,REF\u002A\u002A*%
G36*
G01*
X18136500Y50375000D02*
X18136500Y51225000D01*
G75*
G02*
X18561500Y51650000I425000J0D01*
G01*
X19411500Y51650000D01*
G75*
G02*
X19836500Y51225000I0J-425000D01*
G01*
X19836500Y50375000D01*
G75*
G02*
X19411500Y49950000I-425000J0D01*
G01*
X18561500Y49950000D01*
G75*
G02*
X18136500Y50375000I0J425000D01*
G01*
G37*
%TD*%
%TO.C,REF\u002A\u002A*%
G36*
G01*
X15596500Y50375000D02*
X15596500Y51225000D01*
G75*
G02*
X16021500Y51650000I425000J0D01*
G01*
X16871500Y51650000D01*
G75*
G02*
X17296500Y51225000I0J-425000D01*
G01*
X17296500Y50375000D01*
G75*
G02*
X16871500Y49950000I-425000J0D01*
G01*
X16021500Y49950000D01*
G75*
G02*
X15596500Y50375000I0J425000D01*
G01*
G37*
%TD*%
%TO.C,REF\u002A\u002A*%
G36*
G01*
X13056500Y50375000D02*
X13056500Y51225000D01*
G75*
G02*
X13481500Y51650000I425000J0D01*
G01*
X14331500Y51650000D01*
G75*
G02*
X14756500Y51225000I0J-425000D01*
G01*
X14756500Y50375000D01*
G75*
G02*
X14331500Y49950000I-425000J0D01*
G01*
X13481500Y49950000D01*
G75*
G02*
X13056500Y50375000I0J425000D01*
G01*
G37*
%TD*%
%TO.C,REF\u002A\u002A*%
G36*
G01*
X10516500Y50375000D02*
X10516500Y51225000D01*
G75*
G02*
X10941500Y51650000I425000J0D01*
G01*
X11791500Y51650000D01*
G75*
G02*
X12216500Y51225000I0J-425000D01*
G01*
X12216500Y50375000D01*
G75*
G02*
X11791500Y49950000I-425000J0D01*
G01*
X10941500Y49950000D01*
G75*
G02*
X10516500Y50375000I0J425000D01*
G01*
G37*
%TD*%
%TO.C,REF\u002A\u002A*%
G36*
G01*
X7976500Y50375000D02*
X7976500Y51225000D01*
G75*
G02*
X8401500Y51650000I425000J0D01*
G01*
X9251500Y51650000D01*
G75*
G02*
X9676500Y51225000I0J-425000D01*
G01*
X9676500Y50375000D01*
G75*
G02*
X9251500Y49950000I-425000J0D01*
G01*
X8401500Y49950000D01*
G75*
G02*
X7976500Y50375000I0J425000D01*
G01*
G37*
%TD*%
%TO.C,REF\u002A\u002A*%
G36*
G01*
X5436500Y50375000D02*
X5436500Y51225000D01*
G75*
G02*
X5861500Y51650000I425000J0D01*
G01*
X6711500Y51650000D01*
G75*
G02*
X7136500Y51225000I0J-425000D01*
G01*
X7136500Y50375000D01*
G75*
G02*
X6711500Y49950000I-425000J0D01*
G01*
X5861500Y49950000D01*
G75*
G02*
X5436500Y50375000I0J425000D01*
G01*
G37*
%TD*%
%TO.C,REF\u002A\u002A*%
G36*
G01*
X2896500Y50375000D02*
X2896500Y51225000D01*
G75*
G02*
X3321500Y51650000I425000J0D01*
G01*
X4171500Y51650000D01*
G75*
G02*
X4596500Y51225000I0J-425000D01*
G01*
X4596500Y50375000D01*
G75*
G02*
X4171500Y49950000I-425000J0D01*
G01*
X3321500Y49950000D01*
G75*
G02*
X2896500Y50375000I0J425000D01*
G01*
G37*
%TD*%
%TO.C,REF\u002A\u002A*%
G36*
G01*
X76556500Y52915000D02*
X76556500Y53765000D01*
G75*
G02*
X76981500Y54190000I425000J0D01*
G01*
X77831500Y54190000D01*
G75*
G02*
X78256500Y53765000I0J-425000D01*
G01*
X78256500Y52915000D01*
G75*
G02*
X77831500Y52490000I-425000J0D01*
G01*
X76981500Y52490000D01*
G75*
G02*
X76556500Y52915000I0J425000D01*
G01*
G37*
%TD*%
%TO.C,REF\u002A\u002A*%
G36*
G01*
X74016500Y52915000D02*
X74016500Y53765000D01*
G75*
G02*
X74441500Y54190000I425000J0D01*
G01*
X75291500Y54190000D01*
G75*
G02*
X75716500Y53765000I0J-425000D01*
G01*
X75716500Y52915000D01*
G75*
G02*
X75291500Y52490000I-425000J0D01*
G01*
X74441500Y52490000D01*
G75*
G02*
X74016500Y52915000I0J425000D01*
G01*
G37*
%TD*%
%TO.C,REF\u002A\u002A*%
G36*
G01*
X71476500Y52915000D02*
X71476500Y53765000D01*
G75*
G02*
X71901500Y54190000I425000J0D01*
G01*
X72751500Y54190000D01*
G75*
G02*
X73176500Y53765000I0J-425000D01*
G01*
X73176500Y52915000D01*
G75*
G02*
X72751500Y52490000I-425000J0D01*
G01*
X71901500Y52490000D01*
G75*
G02*
X71476500Y52915000I0J425000D01*
G01*
G37*
%TD*%
%TO.C,REF\u002A\u002A*%
G36*
G01*
X68936500Y52915000D02*
X68936500Y53765000D01*
G75*
G02*
X69361500Y54190000I425000J0D01*
G01*
X70211500Y54190000D01*
G75*
G02*
X70636500Y53765000I0J-425000D01*
G01*
X70636500Y52915000D01*
G75*
G02*
X70211500Y52490000I-425000J0D01*
G01*
X69361500Y52490000D01*
G75*
G02*
X68936500Y52915000I0J425000D01*
G01*
G37*
%TD*%
%TO.C,REF\u002A\u002A*%
G36*
G01*
X66396500Y52915000D02*
X66396500Y53765000D01*
G75*
G02*
X66821500Y54190000I425000J0D01*
G01*
X67671500Y54190000D01*
G75*
G02*
X68096500Y53765000I0J-425000D01*
G01*
X68096500Y52915000D01*
G75*
G02*
X67671500Y52490000I-425000J0D01*
G01*
X66821500Y52490000D01*
G75*
G02*
X66396500Y52915000I0J425000D01*
G01*
G37*
%TD*%
%TO.C,REF\u002A\u002A*%
G36*
G01*
X63856500Y52915000D02*
X63856500Y53765000D01*
G75*
G02*
X64281500Y54190000I425000J0D01*
G01*
X65131500Y54190000D01*
G75*
G02*
X65556500Y53765000I0J-425000D01*
G01*
X65556500Y52915000D01*
G75*
G02*
X65131500Y52490000I-425000J0D01*
G01*
X64281500Y52490000D01*
G75*
G02*
X63856500Y52915000I0J425000D01*
G01*
G37*
%TD*%
%TO.C,REF\u002A\u002A*%
G36*
G01*
X61316500Y52915000D02*
X61316500Y53765000D01*
G75*
G02*
X61741500Y54190000I425000J0D01*
G01*
X62591500Y54190000D01*
G75*
G02*
X63016500Y53765000I0J-425000D01*
G01*
X63016500Y52915000D01*
G75*
G02*
X62591500Y52490000I-425000J0D01*
G01*
X61741500Y52490000D01*
G75*
G02*
X61316500Y52915000I0J425000D01*
G01*
G37*
%TD*%
%TO.C,REF\u002A\u002A*%
G36*
G01*
X58776500Y52915000D02*
X58776500Y53765000D01*
G75*
G02*
X59201500Y54190000I425000J0D01*
G01*
X60051500Y54190000D01*
G75*
G02*
X60476500Y53765000I0J-425000D01*
G01*
X60476500Y52915000D01*
G75*
G02*
X60051500Y52490000I-425000J0D01*
G01*
X59201500Y52490000D01*
G75*
G02*
X58776500Y52915000I0J425000D01*
G01*
G37*
%TD*%
%TO.C,REF\u002A\u002A*%
G36*
G01*
X56236500Y52915000D02*
X56236500Y53765000D01*
G75*
G02*
X56661500Y54190000I425000J0D01*
G01*
X57511500Y54190000D01*
G75*
G02*
X57936500Y53765000I0J-425000D01*
G01*
X57936500Y52915000D01*
G75*
G02*
X57511500Y52490000I-425000J0D01*
G01*
X56661500Y52490000D01*
G75*
G02*
X56236500Y52915000I0J425000D01*
G01*
G37*
%TD*%
%TO.C,REF\u002A\u002A*%
G36*
G01*
X53696500Y52915000D02*
X53696500Y53765000D01*
G75*
G02*
X54121500Y54190000I425000J0D01*
G01*
X54971500Y54190000D01*
G75*
G02*
X55396500Y53765000I0J-425000D01*
G01*
X55396500Y52915000D01*
G75*
G02*
X54971500Y52490000I-425000J0D01*
G01*
X54121500Y52490000D01*
G75*
G02*
X53696500Y52915000I0J425000D01*
G01*
G37*
%TD*%
%TO.C,REF\u002A\u002A*%
G36*
G01*
X51156500Y52915000D02*
X51156500Y53765000D01*
G75*
G02*
X51581500Y54190000I425000J0D01*
G01*
X52431500Y54190000D01*
G75*
G02*
X52856500Y53765000I0J-425000D01*
G01*
X52856500Y52915000D01*
G75*
G02*
X52431500Y52490000I-425000J0D01*
G01*
X51581500Y52490000D01*
G75*
G02*
X51156500Y52915000I0J425000D01*
G01*
G37*
%TD*%
%TO.C,REF\u002A\u002A*%
G36*
G01*
X48616500Y52915000D02*
X48616500Y53765000D01*
G75*
G02*
X49041500Y54190000I425000J0D01*
G01*
X49891500Y54190000D01*
G75*
G02*
X50316500Y53765000I0J-425000D01*
G01*
X50316500Y52915000D01*
G75*
G02*
X49891500Y52490000I-425000J0D01*
G01*
X49041500Y52490000D01*
G75*
G02*
X48616500Y52915000I0J425000D01*
G01*
G37*
%TD*%
%TO.C,REF\u002A\u002A*%
G36*
G01*
X46076500Y52915000D02*
X46076500Y53765000D01*
G75*
G02*
X46501500Y54190000I425000J0D01*
G01*
X47351500Y54190000D01*
G75*
G02*
X47776500Y53765000I0J-425000D01*
G01*
X47776500Y52915000D01*
G75*
G02*
X47351500Y52490000I-425000J0D01*
G01*
X46501500Y52490000D01*
G75*
G02*
X46076500Y52915000I0J425000D01*
G01*
G37*
%TD*%
%TO.C,REF\u002A\u002A*%
G36*
G01*
X43536500Y52915000D02*
X43536500Y53765000D01*
G75*
G02*
X43961500Y54190000I425000J0D01*
G01*
X44811500Y54190000D01*
G75*
G02*
X45236500Y53765000I0J-425000D01*
G01*
X45236500Y52915000D01*
G75*
G02*
X44811500Y52490000I-425000J0D01*
G01*
X43961500Y52490000D01*
G75*
G02*
X43536500Y52915000I0J425000D01*
G01*
G37*
%TD*%
%TO.C,REF\u002A\u002A*%
G36*
G01*
X40996500Y52915000D02*
X40996500Y53765000D01*
G75*
G02*
X41421500Y54190000I425000J0D01*
G01*
X42271500Y54190000D01*
G75*
G02*
X42696500Y53765000I0J-425000D01*
G01*
X42696500Y52915000D01*
G75*
G02*
X42271500Y52490000I-425000J0D01*
G01*
X41421500Y52490000D01*
G75*
G02*
X40996500Y52915000I0J425000D01*
G01*
G37*
%TD*%
%TO.C,REF\u002A\u002A*%
G36*
G01*
X38456500Y52915000D02*
X38456500Y53765000D01*
G75*
G02*
X38881500Y54190000I425000J0D01*
G01*
X39731500Y54190000D01*
G75*
G02*
X40156500Y53765000I0J-425000D01*
G01*
X40156500Y52915000D01*
G75*
G02*
X39731500Y52490000I-425000J0D01*
G01*
X38881500Y52490000D01*
G75*
G02*
X38456500Y52915000I0J425000D01*
G01*
G37*
%TD*%
%TO.C,REF\u002A\u002A*%
G36*
G01*
X35916500Y52915000D02*
X35916500Y53765000D01*
G75*
G02*
X36341500Y54190000I425000J0D01*
G01*
X37191500Y54190000D01*
G75*
G02*
X37616500Y53765000I0J-425000D01*
G01*
X37616500Y52915000D01*
G75*
G02*
X37191500Y52490000I-425000J0D01*
G01*
X36341500Y52490000D01*
G75*
G02*
X35916500Y52915000I0J425000D01*
G01*
G37*
%TD*%
%TO.C,REF\u002A\u002A*%
G36*
G01*
X33376500Y52915000D02*
X33376500Y53765000D01*
G75*
G02*
X33801500Y54190000I425000J0D01*
G01*
X34651500Y54190000D01*
G75*
G02*
X35076500Y53765000I0J-425000D01*
G01*
X35076500Y52915000D01*
G75*
G02*
X34651500Y52490000I-425000J0D01*
G01*
X33801500Y52490000D01*
G75*
G02*
X33376500Y52915000I0J425000D01*
G01*
G37*
%TD*%
%TO.C,REF\u002A\u002A*%
G36*
G01*
X30836500Y52915000D02*
X30836500Y53765000D01*
G75*
G02*
X31261500Y54190000I425000J0D01*
G01*
X32111500Y54190000D01*
G75*
G02*
X32536500Y53765000I0J-425000D01*
G01*
X32536500Y52915000D01*
G75*
G02*
X32111500Y52490000I-425000J0D01*
G01*
X31261500Y52490000D01*
G75*
G02*
X30836500Y52915000I0J425000D01*
G01*
G37*
%TD*%
%TO.C,REF\u002A\u002A*%
G36*
G01*
X28296500Y52915000D02*
X28296500Y53765000D01*
G75*
G02*
X28721500Y54190000I425000J0D01*
G01*
X29571500Y54190000D01*
G75*
G02*
X29996500Y53765000I0J-425000D01*
G01*
X29996500Y52915000D01*
G75*
G02*
X29571500Y52490000I-425000J0D01*
G01*
X28721500Y52490000D01*
G75*
G02*
X28296500Y52915000I0J425000D01*
G01*
G37*
%TD*%
%TO.C,REF\u002A\u002A*%
G36*
G01*
X25756500Y52915000D02*
X25756500Y53765000D01*
G75*
G02*
X26181500Y54190000I425000J0D01*
G01*
X27031500Y54190000D01*
G75*
G02*
X27456500Y53765000I0J-425000D01*
G01*
X27456500Y52915000D01*
G75*
G02*
X27031500Y52490000I-425000J0D01*
G01*
X26181500Y52490000D01*
G75*
G02*
X25756500Y52915000I0J425000D01*
G01*
G37*
%TD*%
%TO.C,REF\u002A\u002A*%
G36*
G01*
X23216500Y52915000D02*
X23216500Y53765000D01*
G75*
G02*
X23641500Y54190000I425000J0D01*
G01*
X24491500Y54190000D01*
G75*
G02*
X24916500Y53765000I0J-425000D01*
G01*
X24916500Y52915000D01*
G75*
G02*
X24491500Y52490000I-425000J0D01*
G01*
X23641500Y52490000D01*
G75*
G02*
X23216500Y52915000I0J425000D01*
G01*
G37*
%TD*%
%TO.C,REF\u002A\u002A*%
G36*
G01*
X20676500Y52915000D02*
X20676500Y53765000D01*
G75*
G02*
X21101500Y54190000I425000J0D01*
G01*
X21951500Y54190000D01*
G75*
G02*
X22376500Y53765000I0J-425000D01*
G01*
X22376500Y52915000D01*
G75*
G02*
X21951500Y52490000I-425000J0D01*
G01*
X21101500Y52490000D01*
G75*
G02*
X20676500Y52915000I0J425000D01*
G01*
G37*
%TD*%
%TO.C,REF\u002A\u002A*%
G36*
G01*
X18136500Y52915000D02*
X18136500Y53765000D01*
G75*
G02*
X18561500Y54190000I425000J0D01*
G01*
X19411500Y54190000D01*
G75*
G02*
X19836500Y53765000I0J-425000D01*
G01*
X19836500Y52915000D01*
G75*
G02*
X19411500Y52490000I-425000J0D01*
G01*
X18561500Y52490000D01*
G75*
G02*
X18136500Y52915000I0J425000D01*
G01*
G37*
%TD*%
%TO.C,REF\u002A\u002A*%
G36*
G01*
X15596500Y52915000D02*
X15596500Y53765000D01*
G75*
G02*
X16021500Y54190000I425000J0D01*
G01*
X16871500Y54190000D01*
G75*
G02*
X17296500Y53765000I0J-425000D01*
G01*
X17296500Y52915000D01*
G75*
G02*
X16871500Y52490000I-425000J0D01*
G01*
X16021500Y52490000D01*
G75*
G02*
X15596500Y52915000I0J425000D01*
G01*
G37*
%TD*%
%TO.C,REF\u002A\u002A*%
G36*
G01*
X13056500Y52915000D02*
X13056500Y53765000D01*
G75*
G02*
X13481500Y54190000I425000J0D01*
G01*
X14331500Y54190000D01*
G75*
G02*
X14756500Y53765000I0J-425000D01*
G01*
X14756500Y52915000D01*
G75*
G02*
X14331500Y52490000I-425000J0D01*
G01*
X13481500Y52490000D01*
G75*
G02*
X13056500Y52915000I0J425000D01*
G01*
G37*
%TD*%
%TO.C,REF\u002A\u002A*%
G36*
G01*
X10516500Y52915000D02*
X10516500Y53765000D01*
G75*
G02*
X10941500Y54190000I425000J0D01*
G01*
X11791500Y54190000D01*
G75*
G02*
X12216500Y53765000I0J-425000D01*
G01*
X12216500Y52915000D01*
G75*
G02*
X11791500Y52490000I-425000J0D01*
G01*
X10941500Y52490000D01*
G75*
G02*
X10516500Y52915000I0J425000D01*
G01*
G37*
%TD*%
%TO.C,REF\u002A\u002A*%
G36*
G01*
X7976500Y52915000D02*
X7976500Y53765000D01*
G75*
G02*
X8401500Y54190000I425000J0D01*
G01*
X9251500Y54190000D01*
G75*
G02*
X9676500Y53765000I0J-425000D01*
G01*
X9676500Y52915000D01*
G75*
G02*
X9251500Y52490000I-425000J0D01*
G01*
X8401500Y52490000D01*
G75*
G02*
X7976500Y52915000I0J425000D01*
G01*
G37*
%TD*%
%TO.C,REF\u002A\u002A*%
G36*
G01*
X5436500Y52915000D02*
X5436500Y53765000D01*
G75*
G02*
X5861500Y54190000I425000J0D01*
G01*
X6711500Y54190000D01*
G75*
G02*
X7136500Y53765000I0J-425000D01*
G01*
X7136500Y52915000D01*
G75*
G02*
X6711500Y52490000I-425000J0D01*
G01*
X5861500Y52490000D01*
G75*
G02*
X5436500Y52915000I0J425000D01*
G01*
G37*
%TD*%
%TO.C,REF\u002A\u002A*%
G36*
G01*
X2896500Y52915000D02*
X2896500Y53765000D01*
G75*
G02*
X3321500Y54190000I425000J0D01*
G01*
X4171500Y54190000D01*
G75*
G02*
X4596500Y53765000I0J-425000D01*
G01*
X4596500Y52915000D01*
G75*
G02*
X4171500Y52490000I-425000J0D01*
G01*
X3321500Y52490000D01*
G75*
G02*
X2896500Y52915000I0J425000D01*
G01*
G37*
%TD*%
%TO.C,REF\u002A\u002A*%
G36*
G01*
X76556500Y55455000D02*
X76556500Y56305000D01*
G75*
G02*
X76981500Y56730000I425000J0D01*
G01*
X77831500Y56730000D01*
G75*
G02*
X78256500Y56305000I0J-425000D01*
G01*
X78256500Y55455000D01*
G75*
G02*
X77831500Y55030000I-425000J0D01*
G01*
X76981500Y55030000D01*
G75*
G02*
X76556500Y55455000I0J425000D01*
G01*
G37*
%TD*%
%TO.C,REF\u002A\u002A*%
G36*
G01*
X74016500Y55455000D02*
X74016500Y56305000D01*
G75*
G02*
X74441500Y56730000I425000J0D01*
G01*
X75291500Y56730000D01*
G75*
G02*
X75716500Y56305000I0J-425000D01*
G01*
X75716500Y55455000D01*
G75*
G02*
X75291500Y55030000I-425000J0D01*
G01*
X74441500Y55030000D01*
G75*
G02*
X74016500Y55455000I0J425000D01*
G01*
G37*
%TD*%
%TO.C,REF\u002A\u002A*%
G36*
G01*
X71476500Y55455000D02*
X71476500Y56305000D01*
G75*
G02*
X71901500Y56730000I425000J0D01*
G01*
X72751500Y56730000D01*
G75*
G02*
X73176500Y56305000I0J-425000D01*
G01*
X73176500Y55455000D01*
G75*
G02*
X72751500Y55030000I-425000J0D01*
G01*
X71901500Y55030000D01*
G75*
G02*
X71476500Y55455000I0J425000D01*
G01*
G37*
%TD*%
%TO.C,REF\u002A\u002A*%
G36*
G01*
X68936500Y55455000D02*
X68936500Y56305000D01*
G75*
G02*
X69361500Y56730000I425000J0D01*
G01*
X70211500Y56730000D01*
G75*
G02*
X70636500Y56305000I0J-425000D01*
G01*
X70636500Y55455000D01*
G75*
G02*
X70211500Y55030000I-425000J0D01*
G01*
X69361500Y55030000D01*
G75*
G02*
X68936500Y55455000I0J425000D01*
G01*
G37*
%TD*%
%TO.C,REF\u002A\u002A*%
G36*
G01*
X66396500Y55455000D02*
X66396500Y56305000D01*
G75*
G02*
X66821500Y56730000I425000J0D01*
G01*
X67671500Y56730000D01*
G75*
G02*
X68096500Y56305000I0J-425000D01*
G01*
X68096500Y55455000D01*
G75*
G02*
X67671500Y55030000I-425000J0D01*
G01*
X66821500Y55030000D01*
G75*
G02*
X66396500Y55455000I0J425000D01*
G01*
G37*
%TD*%
%TO.C,REF\u002A\u002A*%
G36*
G01*
X63856500Y55455000D02*
X63856500Y56305000D01*
G75*
G02*
X64281500Y56730000I425000J0D01*
G01*
X65131500Y56730000D01*
G75*
G02*
X65556500Y56305000I0J-425000D01*
G01*
X65556500Y55455000D01*
G75*
G02*
X65131500Y55030000I-425000J0D01*
G01*
X64281500Y55030000D01*
G75*
G02*
X63856500Y55455000I0J425000D01*
G01*
G37*
%TD*%
%TO.C,REF\u002A\u002A*%
G36*
G01*
X61316500Y55455000D02*
X61316500Y56305000D01*
G75*
G02*
X61741500Y56730000I425000J0D01*
G01*
X62591500Y56730000D01*
G75*
G02*
X63016500Y56305000I0J-425000D01*
G01*
X63016500Y55455000D01*
G75*
G02*
X62591500Y55030000I-425000J0D01*
G01*
X61741500Y55030000D01*
G75*
G02*
X61316500Y55455000I0J425000D01*
G01*
G37*
%TD*%
%TO.C,REF\u002A\u002A*%
G36*
G01*
X58776500Y55455000D02*
X58776500Y56305000D01*
G75*
G02*
X59201500Y56730000I425000J0D01*
G01*
X60051500Y56730000D01*
G75*
G02*
X60476500Y56305000I0J-425000D01*
G01*
X60476500Y55455000D01*
G75*
G02*
X60051500Y55030000I-425000J0D01*
G01*
X59201500Y55030000D01*
G75*
G02*
X58776500Y55455000I0J425000D01*
G01*
G37*
%TD*%
%TO.C,REF\u002A\u002A*%
G36*
G01*
X56236500Y55455000D02*
X56236500Y56305000D01*
G75*
G02*
X56661500Y56730000I425000J0D01*
G01*
X57511500Y56730000D01*
G75*
G02*
X57936500Y56305000I0J-425000D01*
G01*
X57936500Y55455000D01*
G75*
G02*
X57511500Y55030000I-425000J0D01*
G01*
X56661500Y55030000D01*
G75*
G02*
X56236500Y55455000I0J425000D01*
G01*
G37*
%TD*%
%TO.C,REF\u002A\u002A*%
G36*
G01*
X53696500Y55455000D02*
X53696500Y56305000D01*
G75*
G02*
X54121500Y56730000I425000J0D01*
G01*
X54971500Y56730000D01*
G75*
G02*
X55396500Y56305000I0J-425000D01*
G01*
X55396500Y55455000D01*
G75*
G02*
X54971500Y55030000I-425000J0D01*
G01*
X54121500Y55030000D01*
G75*
G02*
X53696500Y55455000I0J425000D01*
G01*
G37*
%TD*%
%TO.C,REF\u002A\u002A*%
G36*
G01*
X51156500Y55455000D02*
X51156500Y56305000D01*
G75*
G02*
X51581500Y56730000I425000J0D01*
G01*
X52431500Y56730000D01*
G75*
G02*
X52856500Y56305000I0J-425000D01*
G01*
X52856500Y55455000D01*
G75*
G02*
X52431500Y55030000I-425000J0D01*
G01*
X51581500Y55030000D01*
G75*
G02*
X51156500Y55455000I0J425000D01*
G01*
G37*
%TD*%
%TO.C,REF\u002A\u002A*%
G36*
G01*
X48616500Y55455000D02*
X48616500Y56305000D01*
G75*
G02*
X49041500Y56730000I425000J0D01*
G01*
X49891500Y56730000D01*
G75*
G02*
X50316500Y56305000I0J-425000D01*
G01*
X50316500Y55455000D01*
G75*
G02*
X49891500Y55030000I-425000J0D01*
G01*
X49041500Y55030000D01*
G75*
G02*
X48616500Y55455000I0J425000D01*
G01*
G37*
%TD*%
%TO.C,REF\u002A\u002A*%
G36*
G01*
X46076500Y55455000D02*
X46076500Y56305000D01*
G75*
G02*
X46501500Y56730000I425000J0D01*
G01*
X47351500Y56730000D01*
G75*
G02*
X47776500Y56305000I0J-425000D01*
G01*
X47776500Y55455000D01*
G75*
G02*
X47351500Y55030000I-425000J0D01*
G01*
X46501500Y55030000D01*
G75*
G02*
X46076500Y55455000I0J425000D01*
G01*
G37*
%TD*%
%TO.C,REF\u002A\u002A*%
G36*
G01*
X43536500Y55455000D02*
X43536500Y56305000D01*
G75*
G02*
X43961500Y56730000I425000J0D01*
G01*
X44811500Y56730000D01*
G75*
G02*
X45236500Y56305000I0J-425000D01*
G01*
X45236500Y55455000D01*
G75*
G02*
X44811500Y55030000I-425000J0D01*
G01*
X43961500Y55030000D01*
G75*
G02*
X43536500Y55455000I0J425000D01*
G01*
G37*
%TD*%
%TO.C,REF\u002A\u002A*%
G36*
G01*
X40996500Y55455000D02*
X40996500Y56305000D01*
G75*
G02*
X41421500Y56730000I425000J0D01*
G01*
X42271500Y56730000D01*
G75*
G02*
X42696500Y56305000I0J-425000D01*
G01*
X42696500Y55455000D01*
G75*
G02*
X42271500Y55030000I-425000J0D01*
G01*
X41421500Y55030000D01*
G75*
G02*
X40996500Y55455000I0J425000D01*
G01*
G37*
%TD*%
%TO.C,REF\u002A\u002A*%
G36*
G01*
X38456500Y55455000D02*
X38456500Y56305000D01*
G75*
G02*
X38881500Y56730000I425000J0D01*
G01*
X39731500Y56730000D01*
G75*
G02*
X40156500Y56305000I0J-425000D01*
G01*
X40156500Y55455000D01*
G75*
G02*
X39731500Y55030000I-425000J0D01*
G01*
X38881500Y55030000D01*
G75*
G02*
X38456500Y55455000I0J425000D01*
G01*
G37*
%TD*%
%TO.C,REF\u002A\u002A*%
G36*
G01*
X35916500Y55455000D02*
X35916500Y56305000D01*
G75*
G02*
X36341500Y56730000I425000J0D01*
G01*
X37191500Y56730000D01*
G75*
G02*
X37616500Y56305000I0J-425000D01*
G01*
X37616500Y55455000D01*
G75*
G02*
X37191500Y55030000I-425000J0D01*
G01*
X36341500Y55030000D01*
G75*
G02*
X35916500Y55455000I0J425000D01*
G01*
G37*
%TD*%
%TO.C,REF\u002A\u002A*%
G36*
G01*
X33376500Y55455000D02*
X33376500Y56305000D01*
G75*
G02*
X33801500Y56730000I425000J0D01*
G01*
X34651500Y56730000D01*
G75*
G02*
X35076500Y56305000I0J-425000D01*
G01*
X35076500Y55455000D01*
G75*
G02*
X34651500Y55030000I-425000J0D01*
G01*
X33801500Y55030000D01*
G75*
G02*
X33376500Y55455000I0J425000D01*
G01*
G37*
%TD*%
%TO.C,REF\u002A\u002A*%
G36*
G01*
X30836500Y55455000D02*
X30836500Y56305000D01*
G75*
G02*
X31261500Y56730000I425000J0D01*
G01*
X32111500Y56730000D01*
G75*
G02*
X32536500Y56305000I0J-425000D01*
G01*
X32536500Y55455000D01*
G75*
G02*
X32111500Y55030000I-425000J0D01*
G01*
X31261500Y55030000D01*
G75*
G02*
X30836500Y55455000I0J425000D01*
G01*
G37*
%TD*%
%TO.C,REF\u002A\u002A*%
G36*
G01*
X28296500Y55455000D02*
X28296500Y56305000D01*
G75*
G02*
X28721500Y56730000I425000J0D01*
G01*
X29571500Y56730000D01*
G75*
G02*
X29996500Y56305000I0J-425000D01*
G01*
X29996500Y55455000D01*
G75*
G02*
X29571500Y55030000I-425000J0D01*
G01*
X28721500Y55030000D01*
G75*
G02*
X28296500Y55455000I0J425000D01*
G01*
G37*
%TD*%
%TO.C,REF\u002A\u002A*%
G36*
G01*
X25756500Y55455000D02*
X25756500Y56305000D01*
G75*
G02*
X26181500Y56730000I425000J0D01*
G01*
X27031500Y56730000D01*
G75*
G02*
X27456500Y56305000I0J-425000D01*
G01*
X27456500Y55455000D01*
G75*
G02*
X27031500Y55030000I-425000J0D01*
G01*
X26181500Y55030000D01*
G75*
G02*
X25756500Y55455000I0J425000D01*
G01*
G37*
%TD*%
%TO.C,REF\u002A\u002A*%
G36*
G01*
X23216500Y55455000D02*
X23216500Y56305000D01*
G75*
G02*
X23641500Y56730000I425000J0D01*
G01*
X24491500Y56730000D01*
G75*
G02*
X24916500Y56305000I0J-425000D01*
G01*
X24916500Y55455000D01*
G75*
G02*
X24491500Y55030000I-425000J0D01*
G01*
X23641500Y55030000D01*
G75*
G02*
X23216500Y55455000I0J425000D01*
G01*
G37*
%TD*%
%TO.C,REF\u002A\u002A*%
G36*
G01*
X20676500Y55455000D02*
X20676500Y56305000D01*
G75*
G02*
X21101500Y56730000I425000J0D01*
G01*
X21951500Y56730000D01*
G75*
G02*
X22376500Y56305000I0J-425000D01*
G01*
X22376500Y55455000D01*
G75*
G02*
X21951500Y55030000I-425000J0D01*
G01*
X21101500Y55030000D01*
G75*
G02*
X20676500Y55455000I0J425000D01*
G01*
G37*
%TD*%
%TO.C,REF\u002A\u002A*%
G36*
G01*
X18136500Y55455000D02*
X18136500Y56305000D01*
G75*
G02*
X18561500Y56730000I425000J0D01*
G01*
X19411500Y56730000D01*
G75*
G02*
X19836500Y56305000I0J-425000D01*
G01*
X19836500Y55455000D01*
G75*
G02*
X19411500Y55030000I-425000J0D01*
G01*
X18561500Y55030000D01*
G75*
G02*
X18136500Y55455000I0J425000D01*
G01*
G37*
%TD*%
%TO.C,REF\u002A\u002A*%
G36*
G01*
X15596500Y55455000D02*
X15596500Y56305000D01*
G75*
G02*
X16021500Y56730000I425000J0D01*
G01*
X16871500Y56730000D01*
G75*
G02*
X17296500Y56305000I0J-425000D01*
G01*
X17296500Y55455000D01*
G75*
G02*
X16871500Y55030000I-425000J0D01*
G01*
X16021500Y55030000D01*
G75*
G02*
X15596500Y55455000I0J425000D01*
G01*
G37*
%TD*%
%TO.C,REF\u002A\u002A*%
G36*
G01*
X13056500Y55455000D02*
X13056500Y56305000D01*
G75*
G02*
X13481500Y56730000I425000J0D01*
G01*
X14331500Y56730000D01*
G75*
G02*
X14756500Y56305000I0J-425000D01*
G01*
X14756500Y55455000D01*
G75*
G02*
X14331500Y55030000I-425000J0D01*
G01*
X13481500Y55030000D01*
G75*
G02*
X13056500Y55455000I0J425000D01*
G01*
G37*
%TD*%
%TO.C,REF\u002A\u002A*%
G36*
G01*
X10516500Y55455000D02*
X10516500Y56305000D01*
G75*
G02*
X10941500Y56730000I425000J0D01*
G01*
X11791500Y56730000D01*
G75*
G02*
X12216500Y56305000I0J-425000D01*
G01*
X12216500Y55455000D01*
G75*
G02*
X11791500Y55030000I-425000J0D01*
G01*
X10941500Y55030000D01*
G75*
G02*
X10516500Y55455000I0J425000D01*
G01*
G37*
%TD*%
%TO.C,REF\u002A\u002A*%
G36*
G01*
X7976500Y55455000D02*
X7976500Y56305000D01*
G75*
G02*
X8401500Y56730000I425000J0D01*
G01*
X9251500Y56730000D01*
G75*
G02*
X9676500Y56305000I0J-425000D01*
G01*
X9676500Y55455000D01*
G75*
G02*
X9251500Y55030000I-425000J0D01*
G01*
X8401500Y55030000D01*
G75*
G02*
X7976500Y55455000I0J425000D01*
G01*
G37*
%TD*%
%TO.C,REF\u002A\u002A*%
G36*
G01*
X5436500Y55455000D02*
X5436500Y56305000D01*
G75*
G02*
X5861500Y56730000I425000J0D01*
G01*
X6711500Y56730000D01*
G75*
G02*
X7136500Y56305000I0J-425000D01*
G01*
X7136500Y55455000D01*
G75*
G02*
X6711500Y55030000I-425000J0D01*
G01*
X5861500Y55030000D01*
G75*
G02*
X5436500Y55455000I0J425000D01*
G01*
G37*
%TD*%
%TO.C,REF\u002A\u002A*%
G36*
G01*
X2896500Y55455000D02*
X2896500Y56305000D01*
G75*
G02*
X3321500Y56730000I425000J0D01*
G01*
X4171500Y56730000D01*
G75*
G02*
X4596500Y56305000I0J-425000D01*
G01*
X4596500Y55455000D01*
G75*
G02*
X4171500Y55030000I-425000J0D01*
G01*
X3321500Y55030000D01*
G75*
G02*
X2896500Y55455000I0J425000D01*
G01*
G37*
%TD*%
D10*
%TO.C,J1*%
X17272000Y4064000D03*
X17272000Y6604000D03*
X19812000Y4064000D03*
X19812000Y6604000D03*
X22352000Y4064000D03*
X22352000Y6604000D03*
X24892000Y4064000D03*
X24892000Y6604000D03*
X27432000Y4064000D03*
X27432000Y6604000D03*
X29972000Y4064000D03*
X29972000Y6604000D03*
X32512000Y4064000D03*
X32512000Y6604000D03*
X35052000Y4064000D03*
X35052000Y6604000D03*
X37592000Y4064000D03*
X37592000Y6604000D03*
X40132000Y4064000D03*
X40132000Y6604000D03*
X42672000Y4064000D03*
X42672000Y6604000D03*
X45212000Y4064000D03*
X45212000Y6604000D03*
X47752000Y4064000D03*
X47752000Y6604000D03*
X50292000Y4064000D03*
X50292000Y6604000D03*
X52832000Y4064000D03*
X52832000Y6604000D03*
X55372000Y4064000D03*
X55372000Y6604000D03*
X57912000Y4064000D03*
X57912000Y6604000D03*
X60452000Y4064000D03*
X60452000Y6604000D03*
X62992000Y4064000D03*
X62992000Y6604000D03*
X65532000Y4064000D03*
X65532000Y6604000D03*
X68072000Y4064000D03*
X68072000Y6604000D03*
X70612000Y4064000D03*
X70612000Y6604000D03*
X73152000Y4064000D03*
X73152000Y6604000D03*
X75692000Y4064000D03*
X75692000Y6604000D03*
X78232000Y4064000D03*
D11*
X78232000Y6604000D03*
%TD*%
M02*
