M48
; DRILL file {KiCad (5.1.10-1-10_14)} date Sunday, October 31, 2021 at 08:24:50 PM
; FORMAT={-:-/ absolute / inch / decimal}
; #@! TF.CreationDate,2021-10-31T20:24:50+01:00
; #@! TF.GenerationSoftware,Kicad,Pcbnew,(5.1.10-1-10_14)
FMAT,2
INCH
T1C0.0394
%
G90
G05
T1
X0.1475Y2.2
X0.1475Y2.1
X0.1475Y2.0
X0.1475Y1.9
X0.1475Y1.8
X0.1475Y1.7
X0.1475Y1.6
X0.1475Y1.5
X0.1475Y1.4
X0.1475Y1.3
X0.1475Y1.2
X0.1475Y1.1
X0.1475Y1.0
X0.1475Y0.9
X0.1475Y0.8
X0.1475Y0.7
X0.1475Y0.6
X0.2475Y2.2
X0.2475Y2.1
X0.2475Y2.0
X0.2475Y1.9
X0.2475Y1.8
X0.2475Y1.7
X0.2475Y1.6
X0.2475Y1.5
X0.2475Y1.4
X0.2475Y1.3
X0.2475Y1.2
X0.2475Y1.1
X0.2475Y1.0
X0.2475Y0.9
X0.2475Y0.8
X0.2475Y0.7
X0.2475Y0.6
X0.2475Y0.5
X0.3475Y2.2
X0.3475Y2.1
X0.3475Y2.0
X0.3475Y1.9
X0.3475Y1.8
X0.3475Y1.7
X0.3475Y1.6
X0.3475Y1.5
X0.3475Y1.4
X0.3475Y1.3
X0.3475Y1.2
X0.3475Y1.1
X0.3475Y1.0
X0.3475Y0.9
X0.3475Y0.8
X0.3475Y0.7
X0.3475Y0.6
X0.3475Y0.5
X0.4475Y2.2
X0.4475Y2.1
X0.4475Y2.0
X0.4475Y1.9
X0.4475Y1.8
X0.4475Y1.7
X0.4475Y1.6
X0.4475Y1.5
X0.4475Y1.4
X0.4475Y1.3
X0.4475Y1.2
X0.4475Y1.1
X0.4475Y1.0
X0.4475Y0.9
X0.4475Y0.8
X0.4475Y0.7
X0.4475Y0.6
X0.4475Y0.5
X0.5475Y2.2
X0.5475Y2.1
X0.5475Y2.0
X0.5475Y1.9
X0.5475Y1.8
X0.5475Y1.7
X0.5475Y1.6
X0.5475Y1.5
X0.5475Y1.4
X0.5475Y1.3
X0.5475Y1.2
X0.5475Y1.1
X0.5475Y1.0
X0.5475Y0.9
X0.5475Y0.8
X0.5475Y0.7
X0.5475Y0.6
X0.5475Y0.5
X0.6475Y2.2
X0.6475Y2.1
X0.6475Y2.0
X0.6475Y1.9
X0.6475Y1.8
X0.6475Y1.7
X0.6475Y1.6
X0.6475Y1.5
X0.6475Y1.4
X0.6475Y1.3
X0.6475Y1.2
X0.6475Y1.1
X0.6475Y1.0
X0.6475Y0.9
X0.6475Y0.8
X0.6475Y0.7
X0.6475Y0.6
X0.6475Y0.5
X0.68Y0.26
X0.68Y0.16
X0.7475Y2.2
X0.7475Y2.1
X0.7475Y2.0
X0.7475Y1.9
X0.7475Y1.8
X0.7475Y1.7
X0.7475Y1.6
X0.7475Y1.5
X0.7475Y1.4
X0.7475Y1.3
X0.7475Y1.2
X0.7475Y1.1
X0.7475Y1.0
X0.7475Y0.9
X0.7475Y0.8
X0.7475Y0.7
X0.7475Y0.6
X0.7475Y0.5
X0.78Y0.26
X0.78Y0.16
X0.8475Y2.2
X0.8475Y2.1
X0.8475Y2.0
X0.8475Y1.9
X0.8475Y1.8
X0.8475Y1.7
X0.8475Y1.6
X0.8475Y1.5
X0.8475Y1.4
X0.8475Y1.3
X0.8475Y1.2
X0.8475Y1.1
X0.8475Y1.0
X0.8475Y0.9
X0.8475Y0.8
X0.8475Y0.7
X0.8475Y0.6
X0.8475Y0.5
X0.88Y0.26
X0.88Y0.16
X0.9475Y2.2
X0.9475Y2.1
X0.9475Y2.0
X0.9475Y1.9
X0.9475Y1.8
X0.9475Y1.7
X0.9475Y1.6
X0.9475Y1.5
X0.9475Y1.4
X0.9475Y1.3
X0.9475Y1.2
X0.9475Y1.1
X0.9475Y1.0
X0.9475Y0.9
X0.9475Y0.8
X0.9475Y0.7
X0.9475Y0.6
X0.9475Y0.5
X0.98Y0.26
X0.98Y0.16
X1.0475Y2.2
X1.0475Y2.1
X1.0475Y2.0
X1.0475Y1.9
X1.0475Y1.8
X1.0475Y1.7
X1.0475Y1.6
X1.0475Y1.5
X1.0475Y1.4
X1.0475Y1.3
X1.0475Y1.2
X1.0475Y1.1
X1.0475Y1.0
X1.0475Y0.9
X1.0475Y0.8
X1.0475Y0.7
X1.0475Y0.6
X1.0475Y0.5
X1.08Y0.26
X1.08Y0.16
X1.1475Y2.2
X1.1475Y2.1
X1.1475Y2.0
X1.1475Y1.9
X1.1475Y1.8
X1.1475Y1.7
X1.1475Y1.6
X1.1475Y1.5
X1.1475Y1.4
X1.1475Y1.3
X1.1475Y1.2
X1.1475Y1.1
X1.1475Y1.0
X1.1475Y0.9
X1.1475Y0.8
X1.1475Y0.7
X1.1475Y0.6
X1.1475Y0.5
X1.18Y0.26
X1.18Y0.16
X1.2475Y2.2
X1.2475Y2.1
X1.2475Y2.0
X1.2475Y1.9
X1.2475Y1.8
X1.2475Y1.7
X1.2475Y1.6
X1.2475Y1.5
X1.2475Y1.4
X1.2475Y1.3
X1.2475Y1.2
X1.2475Y1.1
X1.2475Y1.0
X1.2475Y0.9
X1.2475Y0.8
X1.2475Y0.7
X1.2475Y0.6
X1.2475Y0.5
X1.28Y0.26
X1.28Y0.16
X1.3475Y2.2
X1.3475Y2.1
X1.3475Y2.0
X1.3475Y1.9
X1.3475Y1.8
X1.3475Y1.7
X1.3475Y1.6
X1.3475Y1.5
X1.3475Y1.4
X1.3475Y1.3
X1.3475Y1.2
X1.3475Y1.1
X1.3475Y1.0
X1.3475Y0.9
X1.3475Y0.8
X1.3475Y0.7
X1.3475Y0.6
X1.3475Y0.5
X1.38Y0.26
X1.38Y0.16
X1.4475Y2.2
X1.4475Y2.1
X1.4475Y2.0
X1.4475Y1.9
X1.4475Y1.8
X1.4475Y1.7
X1.4475Y1.6
X1.4475Y1.5
X1.4475Y1.4
X1.4475Y1.3
X1.4475Y1.2
X1.4475Y1.1
X1.4475Y1.0
X1.4475Y0.9
X1.4475Y0.8
X1.4475Y0.7
X1.4475Y0.6
X1.4475Y0.5
X1.48Y0.26
X1.48Y0.16
X1.5475Y2.2
X1.5475Y2.1
X1.5475Y2.0
X1.5475Y1.9
X1.5475Y1.8
X1.5475Y1.7
X1.5475Y1.6
X1.5475Y1.5
X1.5475Y1.4
X1.5475Y1.3
X1.5475Y1.2
X1.5475Y1.1
X1.5475Y1.0
X1.5475Y0.9
X1.5475Y0.8
X1.5475Y0.7
X1.5475Y0.6
X1.5475Y0.5
X1.58Y0.26
X1.58Y0.16
X1.6475Y2.2
X1.6475Y2.1
X1.6475Y2.0
X1.6475Y1.9
X1.6475Y1.8
X1.6475Y1.7
X1.6475Y1.6
X1.6475Y1.5
X1.6475Y1.4
X1.6475Y1.3
X1.6475Y1.2
X1.6475Y1.1
X1.6475Y1.0
X1.6475Y0.9
X1.6475Y0.8
X1.6475Y0.7
X1.6475Y0.6
X1.6475Y0.5
X1.68Y0.26
X1.68Y0.16
X1.7475Y2.2
X1.7475Y2.1
X1.7475Y2.0
X1.7475Y1.9
X1.7475Y1.8
X1.7475Y1.7
X1.7475Y1.6
X1.7475Y1.5
X1.7475Y1.4
X1.7475Y1.3
X1.7475Y1.2
X1.7475Y1.1
X1.7475Y1.0
X1.7475Y0.9
X1.7475Y0.8
X1.7475Y0.7
X1.7475Y0.6
X1.7475Y0.5
X1.78Y0.26
X1.78Y0.16
X1.8475Y2.2
X1.8475Y2.1
X1.8475Y2.0
X1.8475Y1.9
X1.8475Y1.8
X1.8475Y1.7
X1.8475Y1.6
X1.8475Y1.5
X1.8475Y1.4
X1.8475Y1.3
X1.8475Y1.2
X1.8475Y1.1
X1.8475Y1.0
X1.8475Y0.9
X1.8475Y0.8
X1.8475Y0.7
X1.8475Y0.6
X1.8475Y0.5
X1.88Y0.26
X1.88Y0.16
X1.9475Y2.2
X1.9475Y2.1
X1.9475Y2.0
X1.9475Y1.9
X1.9475Y1.8
X1.9475Y1.7
X1.9475Y1.6
X1.9475Y1.5
X1.9475Y1.4
X1.9475Y1.3
X1.9475Y1.2
X1.9475Y1.1
X1.9475Y1.0
X1.9475Y0.9
X1.9475Y0.8
X1.9475Y0.7
X1.9475Y0.6
X1.9475Y0.5
X1.98Y0.26
X1.98Y0.16
X2.0475Y2.2
X2.0475Y2.1
X2.0475Y2.0
X2.0475Y1.9
X2.0475Y1.8
X2.0475Y1.7
X2.0475Y1.6
X2.0475Y1.5
X2.0475Y1.4
X2.0475Y1.3
X2.0475Y1.2
X2.0475Y1.1
X2.0475Y1.0
X2.0475Y0.9
X2.0475Y0.8
X2.0475Y0.7
X2.0475Y0.6
X2.0475Y0.5
X2.08Y0.26
X2.08Y0.16
X2.1475Y2.2
X2.1475Y2.1
X2.1475Y2.0
X2.1475Y1.9
X2.1475Y1.8
X2.1475Y1.7
X2.1475Y1.6
X2.1475Y1.5
X2.1475Y1.4
X2.1475Y1.3
X2.1475Y1.2
X2.1475Y1.1
X2.1475Y1.0
X2.1475Y0.9
X2.1475Y0.8
X2.1475Y0.7
X2.1475Y0.6
X2.1475Y0.5
X2.18Y0.26
X2.18Y0.16
X2.2475Y2.2
X2.2475Y2.1
X2.2475Y2.0
X2.2475Y1.9
X2.2475Y1.8
X2.2475Y1.7
X2.2475Y1.6
X2.2475Y1.5
X2.2475Y1.4
X2.2475Y1.3
X2.2475Y1.2
X2.2475Y1.1
X2.2475Y1.0
X2.2475Y0.9
X2.2475Y0.8
X2.2475Y0.7
X2.2475Y0.6
X2.2475Y0.5
X2.28Y0.26
X2.28Y0.16
X2.3475Y2.2
X2.3475Y2.1
X2.3475Y2.0
X2.3475Y1.9
X2.3475Y1.8
X2.3475Y1.7
X2.3475Y1.6
X2.3475Y1.5
X2.3475Y1.4
X2.3475Y1.3
X2.3475Y1.2
X2.3475Y1.1
X2.3475Y1.0
X2.3475Y0.9
X2.3475Y0.8
X2.3475Y0.7
X2.3475Y0.6
X2.3475Y0.5
X2.38Y0.26
X2.38Y0.16
X2.4475Y2.2
X2.4475Y2.1
X2.4475Y2.0
X2.4475Y1.9
X2.4475Y1.8
X2.4475Y1.7
X2.4475Y1.6
X2.4475Y1.5
X2.4475Y1.4
X2.4475Y1.3
X2.4475Y1.2
X2.4475Y1.1
X2.4475Y1.0
X2.4475Y0.9
X2.4475Y0.8
X2.4475Y0.7
X2.4475Y0.6
X2.4475Y0.5
X2.48Y0.26
X2.48Y0.16
X2.5475Y2.2
X2.5475Y2.1
X2.5475Y2.0
X2.5475Y1.9
X2.5475Y1.8
X2.5475Y1.7
X2.5475Y1.6
X2.5475Y1.5
X2.5475Y1.4
X2.5475Y1.3
X2.5475Y1.2
X2.5475Y1.1
X2.5475Y1.0
X2.5475Y0.9
X2.5475Y0.8
X2.5475Y0.7
X2.5475Y0.6
X2.5475Y0.5
X2.58Y0.26
X2.58Y0.16
X2.6475Y2.2
X2.6475Y2.1
X2.6475Y2.0
X2.6475Y1.9
X2.6475Y1.8
X2.6475Y1.7
X2.6475Y1.6
X2.6475Y1.5
X2.6475Y1.4
X2.6475Y1.3
X2.6475Y1.2
X2.6475Y1.1
X2.6475Y1.0
X2.6475Y0.9
X2.6475Y0.8
X2.6475Y0.7
X2.6475Y0.6
X2.6475Y0.5
X2.68Y0.26
X2.68Y0.16
X2.7475Y2.2
X2.7475Y2.1
X2.7475Y2.0
X2.7475Y1.9
X2.7475Y1.8
X2.7475Y1.7
X2.7475Y1.6
X2.7475Y1.5
X2.7475Y1.4
X2.7475Y1.3
X2.7475Y1.2
X2.7475Y1.1
X2.7475Y1.0
X2.7475Y0.9
X2.7475Y0.8
X2.7475Y0.7
X2.7475Y0.6
X2.7475Y0.5
X2.78Y0.26
X2.78Y0.16
X2.8475Y2.2
X2.8475Y2.1
X2.8475Y2.0
X2.8475Y1.9
X2.8475Y1.8
X2.8475Y1.7
X2.8475Y1.6
X2.8475Y1.5
X2.8475Y1.4
X2.8475Y1.3
X2.8475Y1.2
X2.8475Y1.1
X2.8475Y1.0
X2.8475Y0.9
X2.8475Y0.8
X2.8475Y0.7
X2.8475Y0.6
X2.8475Y0.5
X2.88Y0.26
X2.88Y0.16
X2.9475Y2.2
X2.9475Y2.1
X2.9475Y2.0
X2.9475Y1.9
X2.9475Y1.8
X2.9475Y1.7
X2.9475Y1.6
X2.9475Y1.5
X2.9475Y1.4
X2.9475Y1.3
X2.9475Y1.2
X2.9475Y1.1
X2.9475Y1.0
X2.9475Y0.9
X2.9475Y0.8
X2.9475Y0.7
X2.9475Y0.6
X2.9475Y0.5
X2.98Y0.26
X2.98Y0.16
X3.0475Y2.2
X3.0475Y2.1
X3.0475Y2.0
X3.0475Y1.9
X3.0475Y1.8
X3.0475Y1.7
X3.0475Y1.6
X3.0475Y1.5
X3.0475Y1.4
X3.0475Y1.3
X3.0475Y1.2
X3.0475Y1.1
X3.0475Y1.0
X3.0475Y0.9
X3.0475Y0.8
X3.0475Y0.7
X3.0475Y0.6
X3.0475Y0.5
X3.08Y0.26
X3.08Y0.16
T0
M30
