%TF.GenerationSoftware,KiCad,Pcbnew,(5.1.10-1-10_14)*%
%TF.CreationDate,2021-10-31T20:24:47+01:00*%
%TF.ProjectId,planck_board,706c616e-636b-45f6-926f-6172642e6b69,rev?*%
%TF.SameCoordinates,Original*%
%TF.FileFunction,Legend,Top*%
%TF.FilePolarity,Positive*%
%FSLAX46Y46*%
G04 Gerber Fmt 4.6, Leading zero omitted, Abs format (unit mm)*
G04 Created by KiCad (PCBNEW (5.1.10-1-10_14)) date 2021-10-31 20:24:47*
%MOMM*%
%LPD*%
G01*
G04 APERTURE LIST*
%ADD10C,0.150000*%
%ADD11C,0.200000*%
%ADD12C,0.120000*%
G04 APERTURE END LIST*
D10*
X787476Y30816500D02*
X711285Y30854595D01*
X597000Y30854595D01*
X482714Y30816500D01*
X406523Y30740309D01*
X368428Y30664119D01*
X330333Y30511738D01*
X330333Y30397452D01*
X368428Y30245071D01*
X406523Y30168880D01*
X482714Y30092690D01*
X597000Y30054595D01*
X673190Y30054595D01*
X787476Y30092690D01*
X825571Y30130785D01*
X825571Y30397452D01*
X673190Y30397452D01*
X1168428Y30054595D02*
X1168428Y30854595D01*
X1625571Y30054595D01*
X1625571Y30854595D01*
X2006523Y30054595D02*
X2006523Y30854595D01*
X2197000Y30854595D01*
X2311285Y30816500D01*
X2387476Y30740309D01*
X2425571Y30664119D01*
X2463666Y30511738D01*
X2463666Y30397452D01*
X2425571Y30245071D01*
X2387476Y30168880D01*
X2311285Y30092690D01*
X2197000Y30054595D01*
X2006523Y30054595D01*
X330333Y33331095D02*
X596999Y32531095D01*
X863666Y33331095D01*
X1587476Y32607285D02*
X1549380Y32569190D01*
X1435095Y32531095D01*
X1358904Y32531095D01*
X1244619Y32569190D01*
X1168428Y32645380D01*
X1130333Y32721571D01*
X1092238Y32873952D01*
X1092238Y32988238D01*
X1130333Y33140619D01*
X1168428Y33216809D01*
X1244619Y33293000D01*
X1358904Y33331095D01*
X1435095Y33331095D01*
X1549380Y33293000D01*
X1587476Y33254904D01*
X2387476Y32607285D02*
X2349380Y32569190D01*
X2235095Y32531095D01*
X2158904Y32531095D01*
X2044619Y32569190D01*
X1968428Y32645380D01*
X1930333Y32721571D01*
X1892238Y32873952D01*
X1892238Y32988238D01*
X1930333Y33140619D01*
X1968428Y33216809D01*
X2044619Y33293000D01*
X2158904Y33331095D01*
X2235095Y33331095D01*
X2349380Y33293000D01*
X2387476Y33254904D01*
X78498833Y33267595D02*
X78765500Y32467595D01*
X79032166Y33267595D01*
X79755976Y32543785D02*
X79717880Y32505690D01*
X79603595Y32467595D01*
X79527404Y32467595D01*
X79413119Y32505690D01*
X79336928Y32581880D01*
X79298833Y32658071D01*
X79260738Y32810452D01*
X79260738Y32924738D01*
X79298833Y33077119D01*
X79336928Y33153309D01*
X79413119Y33229500D01*
X79527404Y33267595D01*
X79603595Y33267595D01*
X79717880Y33229500D01*
X79755976Y33191404D01*
X80555976Y32543785D02*
X80517880Y32505690D01*
X80403595Y32467595D01*
X80327404Y32467595D01*
X80213119Y32505690D01*
X80136928Y32581880D01*
X80098833Y32658071D01*
X80060738Y32810452D01*
X80060738Y32924738D01*
X80098833Y33077119D01*
X80136928Y33153309D01*
X80213119Y33229500D01*
X80327404Y33267595D01*
X80403595Y33267595D01*
X80517880Y33229500D01*
X80555976Y33191404D01*
X78955976Y30753000D02*
X78879785Y30791095D01*
X78765500Y30791095D01*
X78651214Y30753000D01*
X78575023Y30676809D01*
X78536928Y30600619D01*
X78498833Y30448238D01*
X78498833Y30333952D01*
X78536928Y30181571D01*
X78575023Y30105380D01*
X78651214Y30029190D01*
X78765500Y29991095D01*
X78841690Y29991095D01*
X78955976Y30029190D01*
X78994071Y30067285D01*
X78994071Y30333952D01*
X78841690Y30333952D01*
X79336928Y29991095D02*
X79336928Y30791095D01*
X79794071Y29991095D01*
X79794071Y30791095D01*
X80175023Y29991095D02*
X80175023Y30791095D01*
X80365500Y30791095D01*
X80479785Y30753000D01*
X80555976Y30676809D01*
X80594071Y30600619D01*
X80632166Y30448238D01*
X80632166Y30333952D01*
X80594071Y30181571D01*
X80555976Y30105380D01*
X80479785Y30029190D01*
X80365500Y29991095D01*
X80175023Y29991095D01*
X77660571Y8375666D02*
X78041523Y8375666D01*
X77584380Y8147095D02*
X77851047Y8947095D01*
X78117714Y8147095D01*
X78536761Y8947095D02*
X78612952Y8947095D01*
X78689142Y8909000D01*
X78727238Y8870904D01*
X78765333Y8794714D01*
X78803428Y8642333D01*
X78803428Y8451857D01*
X78765333Y8299476D01*
X78727238Y8223285D01*
X78689142Y8185190D01*
X78612952Y8147095D01*
X78536761Y8147095D01*
X78460571Y8185190D01*
X78422476Y8223285D01*
X78384380Y8299476D01*
X78346285Y8451857D01*
X78346285Y8642333D01*
X78384380Y8794714D01*
X78422476Y8870904D01*
X78460571Y8909000D01*
X78536761Y8947095D01*
X75120571Y8375666D02*
X75501523Y8375666D01*
X75044380Y8147095D02*
X75311047Y8947095D01*
X75577714Y8147095D01*
X76263428Y8147095D02*
X75806285Y8147095D01*
X76034857Y8147095D02*
X76034857Y8947095D01*
X75958666Y8832809D01*
X75882476Y8756619D01*
X75806285Y8718523D01*
X72580571Y8375666D02*
X72961523Y8375666D01*
X72504380Y8147095D02*
X72771047Y8947095D01*
X73037714Y8147095D01*
X73266285Y8870904D02*
X73304380Y8909000D01*
X73380571Y8947095D01*
X73571047Y8947095D01*
X73647238Y8909000D01*
X73685333Y8870904D01*
X73723428Y8794714D01*
X73723428Y8718523D01*
X73685333Y8604238D01*
X73228190Y8147095D01*
X73723428Y8147095D01*
X70040571Y8375666D02*
X70421523Y8375666D01*
X69964380Y8147095D02*
X70231047Y8947095D01*
X70497714Y8147095D01*
X70688190Y8947095D02*
X71183428Y8947095D01*
X70916761Y8642333D01*
X71031047Y8642333D01*
X71107238Y8604238D01*
X71145333Y8566142D01*
X71183428Y8489952D01*
X71183428Y8299476D01*
X71145333Y8223285D01*
X71107238Y8185190D01*
X71031047Y8147095D01*
X70802476Y8147095D01*
X70726285Y8185190D01*
X70688190Y8223285D01*
X67500571Y8375666D02*
X67881523Y8375666D01*
X67424380Y8147095D02*
X67691047Y8947095D01*
X67957714Y8147095D01*
X68567238Y8680428D02*
X68567238Y8147095D01*
X68376761Y8985190D02*
X68186285Y8413761D01*
X68681523Y8413761D01*
X64960571Y8375666D02*
X65341523Y8375666D01*
X64884380Y8147095D02*
X65151047Y8947095D01*
X65417714Y8147095D01*
X66065333Y8947095D02*
X65684380Y8947095D01*
X65646285Y8566142D01*
X65684380Y8604238D01*
X65760571Y8642333D01*
X65951047Y8642333D01*
X66027238Y8604238D01*
X66065333Y8566142D01*
X66103428Y8489952D01*
X66103428Y8299476D01*
X66065333Y8223285D01*
X66027238Y8185190D01*
X65951047Y8147095D01*
X65760571Y8147095D01*
X65684380Y8185190D01*
X65646285Y8223285D01*
X62420571Y8375666D02*
X62801523Y8375666D01*
X62344380Y8147095D02*
X62611047Y8947095D01*
X62877714Y8147095D01*
X63487238Y8947095D02*
X63334857Y8947095D01*
X63258666Y8909000D01*
X63220571Y8870904D01*
X63144380Y8756619D01*
X63106285Y8604238D01*
X63106285Y8299476D01*
X63144380Y8223285D01*
X63182476Y8185190D01*
X63258666Y8147095D01*
X63411047Y8147095D01*
X63487238Y8185190D01*
X63525333Y8223285D01*
X63563428Y8299476D01*
X63563428Y8489952D01*
X63525333Y8566142D01*
X63487238Y8604238D01*
X63411047Y8642333D01*
X63258666Y8642333D01*
X63182476Y8604238D01*
X63144380Y8566142D01*
X63106285Y8489952D01*
X59880571Y8375666D02*
X60261523Y8375666D01*
X59804380Y8147095D02*
X60071047Y8947095D01*
X60337714Y8147095D01*
X60528190Y8947095D02*
X61061523Y8947095D01*
X60718666Y8147095D01*
X57340571Y8375666D02*
X57721523Y8375666D01*
X57264380Y8147095D02*
X57531047Y8947095D01*
X57797714Y8147095D01*
X58178666Y8604238D02*
X58102476Y8642333D01*
X58064380Y8680428D01*
X58026285Y8756619D01*
X58026285Y8794714D01*
X58064380Y8870904D01*
X58102476Y8909000D01*
X58178666Y8947095D01*
X58331047Y8947095D01*
X58407238Y8909000D01*
X58445333Y8870904D01*
X58483428Y8794714D01*
X58483428Y8756619D01*
X58445333Y8680428D01*
X58407238Y8642333D01*
X58331047Y8604238D01*
X58178666Y8604238D01*
X58102476Y8566142D01*
X58064380Y8528047D01*
X58026285Y8451857D01*
X58026285Y8299476D01*
X58064380Y8223285D01*
X58102476Y8185190D01*
X58178666Y8147095D01*
X58331047Y8147095D01*
X58407238Y8185190D01*
X58445333Y8223285D01*
X58483428Y8299476D01*
X58483428Y8451857D01*
X58445333Y8528047D01*
X58407238Y8566142D01*
X58331047Y8604238D01*
X54800571Y8375666D02*
X55181523Y8375666D01*
X54724380Y8147095D02*
X54991047Y8947095D01*
X55257714Y8147095D01*
X55562476Y8147095D02*
X55714857Y8147095D01*
X55791047Y8185190D01*
X55829142Y8223285D01*
X55905333Y8337571D01*
X55943428Y8489952D01*
X55943428Y8794714D01*
X55905333Y8870904D01*
X55867238Y8909000D01*
X55791047Y8947095D01*
X55638666Y8947095D01*
X55562476Y8909000D01*
X55524380Y8870904D01*
X55486285Y8794714D01*
X55486285Y8604238D01*
X55524380Y8528047D01*
X55562476Y8489952D01*
X55638666Y8451857D01*
X55791047Y8451857D01*
X55867238Y8489952D01*
X55905333Y8528047D01*
X55943428Y8604238D01*
X51879619Y8375666D02*
X52260571Y8375666D01*
X51803428Y8147095D02*
X52070095Y8947095D01*
X52336761Y8147095D01*
X53022476Y8147095D02*
X52565333Y8147095D01*
X52793904Y8147095D02*
X52793904Y8947095D01*
X52717714Y8832809D01*
X52641523Y8756619D01*
X52565333Y8718523D01*
X53517714Y8947095D02*
X53593904Y8947095D01*
X53670095Y8909000D01*
X53708190Y8870904D01*
X53746285Y8794714D01*
X53784380Y8642333D01*
X53784380Y8451857D01*
X53746285Y8299476D01*
X53708190Y8223285D01*
X53670095Y8185190D01*
X53593904Y8147095D01*
X53517714Y8147095D01*
X53441523Y8185190D01*
X53403428Y8223285D01*
X53365333Y8299476D01*
X53327238Y8451857D01*
X53327238Y8642333D01*
X53365333Y8794714D01*
X53403428Y8870904D01*
X53441523Y8909000D01*
X53517714Y8947095D01*
X49682476Y8909000D02*
X49606285Y8947095D01*
X49492000Y8947095D01*
X49377714Y8909000D01*
X49301523Y8832809D01*
X49263428Y8756619D01*
X49225333Y8604238D01*
X49225333Y8489952D01*
X49263428Y8337571D01*
X49301523Y8261380D01*
X49377714Y8185190D01*
X49492000Y8147095D01*
X49568190Y8147095D01*
X49682476Y8185190D01*
X49720571Y8223285D01*
X49720571Y8489952D01*
X49568190Y8489952D01*
X50063428Y8147095D02*
X50063428Y8947095D01*
X50520571Y8147095D01*
X50520571Y8947095D01*
X50901523Y8147095D02*
X50901523Y8947095D01*
X51092000Y8947095D01*
X51206285Y8909000D01*
X51282476Y8832809D01*
X51320571Y8756619D01*
X51358666Y8604238D01*
X51358666Y8489952D01*
X51320571Y8337571D01*
X51282476Y8261380D01*
X51206285Y8185190D01*
X51092000Y8147095D01*
X50901523Y8147095D01*
X46685333Y8947095D02*
X46952000Y8147095D01*
X47218666Y8947095D01*
X47942476Y8223285D02*
X47904380Y8185190D01*
X47790095Y8147095D01*
X47713904Y8147095D01*
X47599619Y8185190D01*
X47523428Y8261380D01*
X47485333Y8337571D01*
X47447238Y8489952D01*
X47447238Y8604238D01*
X47485333Y8756619D01*
X47523428Y8832809D01*
X47599619Y8909000D01*
X47713904Y8947095D01*
X47790095Y8947095D01*
X47904380Y8909000D01*
X47942476Y8870904D01*
X48742476Y8223285D02*
X48704380Y8185190D01*
X48590095Y8147095D01*
X48513904Y8147095D01*
X48399619Y8185190D01*
X48323428Y8261380D01*
X48285333Y8337571D01*
X48247238Y8489952D01*
X48247238Y8604238D01*
X48285333Y8756619D01*
X48323428Y8832809D01*
X48399619Y8909000D01*
X48513904Y8947095D01*
X48590095Y8947095D01*
X48704380Y8909000D01*
X48742476Y8870904D01*
X44259619Y8375666D02*
X44640571Y8375666D01*
X44183428Y8147095D02*
X44450095Y8947095D01*
X44716761Y8147095D01*
X45402476Y8147095D02*
X44945333Y8147095D01*
X45173904Y8147095D02*
X45173904Y8947095D01*
X45097714Y8832809D01*
X45021523Y8756619D01*
X44945333Y8718523D01*
X46164380Y8147095D02*
X45707238Y8147095D01*
X45935809Y8147095D02*
X45935809Y8947095D01*
X45859619Y8832809D01*
X45783428Y8756619D01*
X45707238Y8718523D01*
X41719619Y8375666D02*
X42100571Y8375666D01*
X41643428Y8147095D02*
X41910095Y8947095D01*
X42176761Y8147095D01*
X42862476Y8147095D02*
X42405333Y8147095D01*
X42633904Y8147095D02*
X42633904Y8947095D01*
X42557714Y8832809D01*
X42481523Y8756619D01*
X42405333Y8718523D01*
X43167238Y8870904D02*
X43205333Y8909000D01*
X43281523Y8947095D01*
X43472000Y8947095D01*
X43548190Y8909000D01*
X43586285Y8870904D01*
X43624380Y8794714D01*
X43624380Y8718523D01*
X43586285Y8604238D01*
X43129142Y8147095D01*
X43624380Y8147095D01*
X39179619Y8375666D02*
X39560571Y8375666D01*
X39103428Y8147095D02*
X39370095Y8947095D01*
X39636761Y8147095D01*
X40322476Y8147095D02*
X39865333Y8147095D01*
X40093904Y8147095D02*
X40093904Y8947095D01*
X40017714Y8832809D01*
X39941523Y8756619D01*
X39865333Y8718523D01*
X40589142Y8947095D02*
X41084380Y8947095D01*
X40817714Y8642333D01*
X40932000Y8642333D01*
X41008190Y8604238D01*
X41046285Y8566142D01*
X41084380Y8489952D01*
X41084380Y8299476D01*
X41046285Y8223285D01*
X41008190Y8185190D01*
X40932000Y8147095D01*
X40703428Y8147095D01*
X40627238Y8185190D01*
X40589142Y8223285D01*
X36639619Y8375666D02*
X37020571Y8375666D01*
X36563428Y8147095D02*
X36830095Y8947095D01*
X37096761Y8147095D01*
X37782476Y8147095D02*
X37325333Y8147095D01*
X37553904Y8147095D02*
X37553904Y8947095D01*
X37477714Y8832809D01*
X37401523Y8756619D01*
X37325333Y8718523D01*
X38468190Y8680428D02*
X38468190Y8147095D01*
X38277714Y8985190D02*
X38087238Y8413761D01*
X38582476Y8413761D01*
X34099619Y8375666D02*
X34480571Y8375666D01*
X34023428Y8147095D02*
X34290095Y8947095D01*
X34556761Y8147095D01*
X35242476Y8147095D02*
X34785333Y8147095D01*
X35013904Y8147095D02*
X35013904Y8947095D01*
X34937714Y8832809D01*
X34861523Y8756619D01*
X34785333Y8718523D01*
X35966285Y8947095D02*
X35585333Y8947095D01*
X35547238Y8566142D01*
X35585333Y8604238D01*
X35661523Y8642333D01*
X35852000Y8642333D01*
X35928190Y8604238D01*
X35966285Y8566142D01*
X36004380Y8489952D01*
X36004380Y8299476D01*
X35966285Y8223285D01*
X35928190Y8185190D01*
X35852000Y8147095D01*
X35661523Y8147095D01*
X35585333Y8185190D01*
X35547238Y8223285D01*
X32016761Y8147095D02*
X31750095Y8528047D01*
X31559619Y8147095D02*
X31559619Y8947095D01*
X31864380Y8947095D01*
X31940571Y8909000D01*
X31978666Y8870904D01*
X32016761Y8794714D01*
X32016761Y8680428D01*
X31978666Y8604238D01*
X31940571Y8566142D01*
X31864380Y8528047D01*
X31559619Y8528047D01*
X32359619Y8147095D02*
X32359619Y8947095D01*
X32550095Y8947095D01*
X32664380Y8909000D01*
X32740571Y8832809D01*
X32778666Y8756619D01*
X32816761Y8604238D01*
X32816761Y8489952D01*
X32778666Y8337571D01*
X32740571Y8261380D01*
X32664380Y8185190D01*
X32550095Y8147095D01*
X32359619Y8147095D01*
X33312000Y8528047D02*
X33312000Y8147095D01*
X33045333Y8947095D02*
X33312000Y8528047D01*
X33578666Y8947095D01*
X29667238Y8566142D02*
X29781523Y8528047D01*
X29819619Y8489952D01*
X29857714Y8413761D01*
X29857714Y8299476D01*
X29819619Y8223285D01*
X29781523Y8185190D01*
X29705333Y8147095D01*
X29400571Y8147095D01*
X29400571Y8947095D01*
X29667238Y8947095D01*
X29743428Y8909000D01*
X29781523Y8870904D01*
X29819619Y8794714D01*
X29819619Y8718523D01*
X29781523Y8642333D01*
X29743428Y8604238D01*
X29667238Y8566142D01*
X29400571Y8566142D01*
X30200571Y8566142D02*
X30467238Y8566142D01*
X30581523Y8147095D02*
X30200571Y8147095D01*
X30200571Y8947095D01*
X30581523Y8947095D01*
X26955809Y8223285D02*
X26917714Y8185190D01*
X26803428Y8147095D01*
X26727238Y8147095D01*
X26612952Y8185190D01*
X26536761Y8261380D01*
X26498666Y8337571D01*
X26460571Y8489952D01*
X26460571Y8604238D01*
X26498666Y8756619D01*
X26536761Y8832809D01*
X26612952Y8909000D01*
X26727238Y8947095D01*
X26803428Y8947095D01*
X26917714Y8909000D01*
X26955809Y8870904D01*
X27679619Y8147095D02*
X27298666Y8147095D01*
X27298666Y8947095D01*
X27946285Y8147095D02*
X27946285Y8947095D01*
X28403428Y8147095D02*
X28060571Y8604238D01*
X28403428Y8947095D02*
X27946285Y8489952D01*
X24682476Y8147095D02*
X24415809Y8528047D01*
X24225333Y8147095D02*
X24225333Y8947095D01*
X24530095Y8947095D01*
X24606285Y8909000D01*
X24644380Y8870904D01*
X24682476Y8794714D01*
X24682476Y8680428D01*
X24644380Y8604238D01*
X24606285Y8566142D01*
X24530095Y8528047D01*
X24225333Y8528047D01*
X24834857Y9280000D02*
X25749142Y9280000D01*
X24949142Y8947095D02*
X25139619Y8147095D01*
X25292000Y8718523D01*
X25444380Y8147095D01*
X25634857Y8947095D01*
X21342476Y9280000D02*
X21723428Y9280000D01*
X21532952Y8147095D02*
X21532952Y8947095D01*
X21723428Y9280000D02*
X22523428Y9280000D01*
X22371047Y8147095D02*
X22104380Y8528047D01*
X21913904Y8147095D02*
X21913904Y8947095D01*
X22218666Y8947095D01*
X22294857Y8909000D01*
X22332952Y8870904D01*
X22371047Y8794714D01*
X22371047Y8680428D01*
X22332952Y8604238D01*
X22294857Y8566142D01*
X22218666Y8528047D01*
X21913904Y8528047D01*
X22523428Y9280000D02*
X23361523Y9280000D01*
X23247238Y8070904D02*
X23171047Y8109000D01*
X23094857Y8185190D01*
X22980571Y8299476D01*
X22904380Y8337571D01*
X22828190Y8337571D01*
X22866285Y8147095D02*
X22790095Y8185190D01*
X22713904Y8261380D01*
X22675809Y8413761D01*
X22675809Y8680428D01*
X22713904Y8832809D01*
X22790095Y8909000D01*
X22866285Y8947095D01*
X23018666Y8947095D01*
X23094857Y8909000D01*
X23171047Y8832809D01*
X23209142Y8680428D01*
X23209142Y8413761D01*
X23171047Y8261380D01*
X23094857Y8185190D01*
X23018666Y8147095D01*
X22866285Y8147095D01*
X18421523Y8185190D02*
X18535809Y8147095D01*
X18726285Y8147095D01*
X18802476Y8185190D01*
X18840571Y8223285D01*
X18878666Y8299476D01*
X18878666Y8375666D01*
X18840571Y8451857D01*
X18802476Y8489952D01*
X18726285Y8528047D01*
X18573904Y8566142D01*
X18497714Y8604238D01*
X18459619Y8642333D01*
X18421523Y8718523D01*
X18421523Y8794714D01*
X18459619Y8870904D01*
X18497714Y8909000D01*
X18573904Y8947095D01*
X18764380Y8947095D01*
X18878666Y8909000D01*
X19373904Y8528047D02*
X19373904Y8147095D01*
X19107238Y8947095D02*
X19373904Y8528047D01*
X19640571Y8947095D01*
X19907238Y8147095D02*
X19907238Y8947095D01*
X20364380Y8147095D01*
X20364380Y8947095D01*
X21202476Y8223285D02*
X21164380Y8185190D01*
X21050095Y8147095D01*
X20973904Y8147095D01*
X20859619Y8185190D01*
X20783428Y8261380D01*
X20745333Y8337571D01*
X20707238Y8489952D01*
X20707238Y8604238D01*
X20745333Y8756619D01*
X20783428Y8832809D01*
X20859619Y8909000D01*
X20973904Y8947095D01*
X21050095Y8947095D01*
X21164380Y8909000D01*
X21202476Y8870904D01*
X16186285Y9280000D02*
X16986285Y9280000D01*
X16833904Y8147095D02*
X16567238Y8528047D01*
X16376761Y8147095D02*
X16376761Y8947095D01*
X16681523Y8947095D01*
X16757714Y8909000D01*
X16795809Y8870904D01*
X16833904Y8794714D01*
X16833904Y8680428D01*
X16795809Y8604238D01*
X16757714Y8566142D01*
X16681523Y8528047D01*
X16376761Y8528047D01*
X16986285Y9280000D02*
X17748190Y9280000D01*
X17138666Y8185190D02*
X17252952Y8147095D01*
X17443428Y8147095D01*
X17519619Y8185190D01*
X17557714Y8223285D01*
X17595809Y8299476D01*
X17595809Y8375666D01*
X17557714Y8451857D01*
X17519619Y8489952D01*
X17443428Y8528047D01*
X17291047Y8566142D01*
X17214857Y8604238D01*
X17176761Y8642333D01*
X17138666Y8718523D01*
X17138666Y8794714D01*
X17176761Y8870904D01*
X17214857Y8909000D01*
X17291047Y8947095D01*
X17481523Y8947095D01*
X17595809Y8909000D01*
X17748190Y9280000D02*
X18357714Y9280000D01*
X17824380Y8947095D02*
X18281523Y8947095D01*
X18052952Y8147095D02*
X18052952Y8947095D01*
X77641523Y654095D02*
X77641523Y1454095D01*
X77832000Y1454095D01*
X77946285Y1416000D01*
X78022476Y1339809D01*
X78060571Y1263619D01*
X78098666Y1111238D01*
X78098666Y996952D01*
X78060571Y844571D01*
X78022476Y768380D01*
X77946285Y692190D01*
X77832000Y654095D01*
X77641523Y654095D01*
X78593904Y1454095D02*
X78670095Y1454095D01*
X78746285Y1416000D01*
X78784380Y1377904D01*
X78822476Y1301714D01*
X78860571Y1149333D01*
X78860571Y958857D01*
X78822476Y806476D01*
X78784380Y730285D01*
X78746285Y692190D01*
X78670095Y654095D01*
X78593904Y654095D01*
X78517714Y692190D01*
X78479619Y730285D01*
X78441523Y806476D01*
X78403428Y958857D01*
X78403428Y1149333D01*
X78441523Y1301714D01*
X78479619Y1377904D01*
X78517714Y1416000D01*
X78593904Y1454095D01*
X75101523Y654095D02*
X75101523Y1454095D01*
X75292000Y1454095D01*
X75406285Y1416000D01*
X75482476Y1339809D01*
X75520571Y1263619D01*
X75558666Y1111238D01*
X75558666Y996952D01*
X75520571Y844571D01*
X75482476Y768380D01*
X75406285Y692190D01*
X75292000Y654095D01*
X75101523Y654095D01*
X76320571Y654095D02*
X75863428Y654095D01*
X76092000Y654095D02*
X76092000Y1454095D01*
X76015809Y1339809D01*
X75939619Y1263619D01*
X75863428Y1225523D01*
X72561523Y654095D02*
X72561523Y1454095D01*
X72752000Y1454095D01*
X72866285Y1416000D01*
X72942476Y1339809D01*
X72980571Y1263619D01*
X73018666Y1111238D01*
X73018666Y996952D01*
X72980571Y844571D01*
X72942476Y768380D01*
X72866285Y692190D01*
X72752000Y654095D01*
X72561523Y654095D01*
X73323428Y1377904D02*
X73361523Y1416000D01*
X73437714Y1454095D01*
X73628190Y1454095D01*
X73704380Y1416000D01*
X73742476Y1377904D01*
X73780571Y1301714D01*
X73780571Y1225523D01*
X73742476Y1111238D01*
X73285333Y654095D01*
X73780571Y654095D01*
X70021523Y654095D02*
X70021523Y1454095D01*
X70212000Y1454095D01*
X70326285Y1416000D01*
X70402476Y1339809D01*
X70440571Y1263619D01*
X70478666Y1111238D01*
X70478666Y996952D01*
X70440571Y844571D01*
X70402476Y768380D01*
X70326285Y692190D01*
X70212000Y654095D01*
X70021523Y654095D01*
X70745333Y1454095D02*
X71240571Y1454095D01*
X70973904Y1149333D01*
X71088190Y1149333D01*
X71164380Y1111238D01*
X71202476Y1073142D01*
X71240571Y996952D01*
X71240571Y806476D01*
X71202476Y730285D01*
X71164380Y692190D01*
X71088190Y654095D01*
X70859619Y654095D01*
X70783428Y692190D01*
X70745333Y730285D01*
X67481523Y654095D02*
X67481523Y1454095D01*
X67672000Y1454095D01*
X67786285Y1416000D01*
X67862476Y1339809D01*
X67900571Y1263619D01*
X67938666Y1111238D01*
X67938666Y996952D01*
X67900571Y844571D01*
X67862476Y768380D01*
X67786285Y692190D01*
X67672000Y654095D01*
X67481523Y654095D01*
X68624380Y1187428D02*
X68624380Y654095D01*
X68433904Y1492190D02*
X68243428Y920761D01*
X68738666Y920761D01*
X64941523Y654095D02*
X64941523Y1454095D01*
X65132000Y1454095D01*
X65246285Y1416000D01*
X65322476Y1339809D01*
X65360571Y1263619D01*
X65398666Y1111238D01*
X65398666Y996952D01*
X65360571Y844571D01*
X65322476Y768380D01*
X65246285Y692190D01*
X65132000Y654095D01*
X64941523Y654095D01*
X66122476Y1454095D02*
X65741523Y1454095D01*
X65703428Y1073142D01*
X65741523Y1111238D01*
X65817714Y1149333D01*
X66008190Y1149333D01*
X66084380Y1111238D01*
X66122476Y1073142D01*
X66160571Y996952D01*
X66160571Y806476D01*
X66122476Y730285D01*
X66084380Y692190D01*
X66008190Y654095D01*
X65817714Y654095D01*
X65741523Y692190D01*
X65703428Y730285D01*
X62401523Y654095D02*
X62401523Y1454095D01*
X62592000Y1454095D01*
X62706285Y1416000D01*
X62782476Y1339809D01*
X62820571Y1263619D01*
X62858666Y1111238D01*
X62858666Y996952D01*
X62820571Y844571D01*
X62782476Y768380D01*
X62706285Y692190D01*
X62592000Y654095D01*
X62401523Y654095D01*
X63544380Y1454095D02*
X63392000Y1454095D01*
X63315809Y1416000D01*
X63277714Y1377904D01*
X63201523Y1263619D01*
X63163428Y1111238D01*
X63163428Y806476D01*
X63201523Y730285D01*
X63239619Y692190D01*
X63315809Y654095D01*
X63468190Y654095D01*
X63544380Y692190D01*
X63582476Y730285D01*
X63620571Y806476D01*
X63620571Y996952D01*
X63582476Y1073142D01*
X63544380Y1111238D01*
X63468190Y1149333D01*
X63315809Y1149333D01*
X63239619Y1111238D01*
X63201523Y1073142D01*
X63163428Y996952D01*
X59861523Y654095D02*
X59861523Y1454095D01*
X60052000Y1454095D01*
X60166285Y1416000D01*
X60242476Y1339809D01*
X60280571Y1263619D01*
X60318666Y1111238D01*
X60318666Y996952D01*
X60280571Y844571D01*
X60242476Y768380D01*
X60166285Y692190D01*
X60052000Y654095D01*
X59861523Y654095D01*
X60585333Y1454095D02*
X61118666Y1454095D01*
X60775809Y654095D01*
X56978666Y1073142D02*
X57245333Y1073142D01*
X57359619Y654095D02*
X56978666Y654095D01*
X56978666Y1454095D01*
X57359619Y1454095D01*
X57626285Y1454095D02*
X58159619Y654095D01*
X58159619Y1454095D02*
X57626285Y654095D01*
X58616761Y1454095D02*
X58692952Y1454095D01*
X58769142Y1416000D01*
X58807238Y1377904D01*
X58845333Y1301714D01*
X58883428Y1149333D01*
X58883428Y958857D01*
X58845333Y806476D01*
X58807238Y730285D01*
X58769142Y692190D01*
X58692952Y654095D01*
X58616761Y654095D01*
X58540571Y692190D01*
X58502476Y730285D01*
X58464380Y806476D01*
X58426285Y958857D01*
X58426285Y1149333D01*
X58464380Y1301714D01*
X58502476Y1377904D01*
X58540571Y1416000D01*
X58616761Y1454095D01*
X54438666Y1073142D02*
X54705333Y1073142D01*
X54819619Y654095D02*
X54438666Y654095D01*
X54438666Y1454095D01*
X54819619Y1454095D01*
X55086285Y1454095D02*
X55619619Y654095D01*
X55619619Y1454095D02*
X55086285Y654095D01*
X56343428Y654095D02*
X55886285Y654095D01*
X56114857Y654095D02*
X56114857Y1454095D01*
X56038666Y1339809D01*
X55962476Y1263619D01*
X55886285Y1225523D01*
X51670095Y1787000D02*
X52432000Y1787000D01*
X51822476Y692190D02*
X51936761Y654095D01*
X52127238Y654095D01*
X52203428Y692190D01*
X52241523Y730285D01*
X52279619Y806476D01*
X52279619Y882666D01*
X52241523Y958857D01*
X52203428Y996952D01*
X52127238Y1035047D01*
X51974857Y1073142D01*
X51898666Y1111238D01*
X51860571Y1149333D01*
X51822476Y1225523D01*
X51822476Y1301714D01*
X51860571Y1377904D01*
X51898666Y1416000D01*
X51974857Y1454095D01*
X52165333Y1454095D01*
X52279619Y1416000D01*
X52432000Y1787000D02*
X53079619Y1787000D01*
X53003428Y654095D02*
X52622476Y654095D01*
X52622476Y1454095D01*
X53079619Y1787000D02*
X53993904Y1787000D01*
X53193904Y1454095D02*
X53384380Y654095D01*
X53536761Y1225523D01*
X53689142Y654095D01*
X53879619Y1454095D01*
X49225333Y1454095D02*
X49492000Y654095D01*
X49758666Y1454095D01*
X50482476Y730285D02*
X50444380Y692190D01*
X50330095Y654095D01*
X50253904Y654095D01*
X50139619Y692190D01*
X50063428Y768380D01*
X50025333Y844571D01*
X49987238Y996952D01*
X49987238Y1111238D01*
X50025333Y1263619D01*
X50063428Y1339809D01*
X50139619Y1416000D01*
X50253904Y1454095D01*
X50330095Y1454095D01*
X50444380Y1416000D01*
X50482476Y1377904D01*
X51282476Y730285D02*
X51244380Y692190D01*
X51130095Y654095D01*
X51053904Y654095D01*
X50939619Y692190D01*
X50863428Y768380D01*
X50825333Y844571D01*
X50787238Y996952D01*
X50787238Y1111238D01*
X50825333Y1263619D01*
X50863428Y1339809D01*
X50939619Y1416000D01*
X51053904Y1454095D01*
X51130095Y1454095D01*
X51244380Y1416000D01*
X51282476Y1377904D01*
X47142476Y1416000D02*
X47066285Y1454095D01*
X46952000Y1454095D01*
X46837714Y1416000D01*
X46761523Y1339809D01*
X46723428Y1263619D01*
X46685333Y1111238D01*
X46685333Y996952D01*
X46723428Y844571D01*
X46761523Y768380D01*
X46837714Y692190D01*
X46952000Y654095D01*
X47028190Y654095D01*
X47142476Y692190D01*
X47180571Y730285D01*
X47180571Y996952D01*
X47028190Y996952D01*
X47523428Y654095D02*
X47523428Y1454095D01*
X47980571Y654095D01*
X47980571Y1454095D01*
X48361523Y654095D02*
X48361523Y1454095D01*
X48552000Y1454095D01*
X48666285Y1416000D01*
X48742476Y1339809D01*
X48780571Y1263619D01*
X48818666Y1111238D01*
X48818666Y996952D01*
X48780571Y844571D01*
X48742476Y768380D01*
X48666285Y692190D01*
X48552000Y654095D01*
X48361523Y654095D01*
X44450095Y1787000D02*
X45212000Y1787000D01*
X44602476Y692190D02*
X44716761Y654095D01*
X44907238Y654095D01*
X44983428Y692190D01*
X45021523Y730285D01*
X45059619Y806476D01*
X45059619Y882666D01*
X45021523Y958857D01*
X44983428Y996952D01*
X44907238Y1035047D01*
X44754857Y1073142D01*
X44678666Y1111238D01*
X44640571Y1149333D01*
X44602476Y1225523D01*
X44602476Y1301714D01*
X44640571Y1377904D01*
X44678666Y1416000D01*
X44754857Y1454095D01*
X44945333Y1454095D01*
X45059619Y1416000D01*
X45212000Y1787000D02*
X45973904Y1787000D01*
X45364380Y692190D02*
X45478666Y654095D01*
X45669142Y654095D01*
X45745333Y692190D01*
X45783428Y730285D01*
X45821523Y806476D01*
X45821523Y882666D01*
X45783428Y958857D01*
X45745333Y996952D01*
X45669142Y1035047D01*
X45516761Y1073142D01*
X45440571Y1111238D01*
X45402476Y1149333D01*
X45364380Y1225523D01*
X45364380Y1301714D01*
X45402476Y1377904D01*
X45440571Y1416000D01*
X45516761Y1454095D01*
X45707238Y1454095D01*
X45821523Y1416000D01*
X41643428Y1787000D02*
X42024380Y1787000D01*
X41833904Y654095D02*
X41833904Y1454095D01*
X42024380Y1787000D02*
X42862476Y1787000D01*
X42214857Y654095D02*
X42214857Y1454095D01*
X42672000Y654095D01*
X42672000Y1454095D01*
X42862476Y1787000D02*
X43700571Y1787000D01*
X43052952Y654095D02*
X43052952Y1454095D01*
X43052952Y1073142D02*
X43510095Y1073142D01*
X43510095Y654095D02*
X43510095Y1454095D01*
X39065333Y1787000D02*
X39827238Y1787000D01*
X39217714Y692190D02*
X39332000Y654095D01*
X39522476Y654095D01*
X39598666Y692190D01*
X39636761Y730285D01*
X39674857Y806476D01*
X39674857Y882666D01*
X39636761Y958857D01*
X39598666Y996952D01*
X39522476Y1035047D01*
X39370095Y1073142D01*
X39293904Y1111238D01*
X39255809Y1149333D01*
X39217714Y1225523D01*
X39217714Y1301714D01*
X39255809Y1377904D01*
X39293904Y1416000D01*
X39370095Y1454095D01*
X39560571Y1454095D01*
X39674857Y1416000D01*
X39827238Y1787000D02*
X40551047Y1787000D01*
X40017714Y1073142D02*
X40284380Y1073142D01*
X40398666Y654095D02*
X40017714Y654095D01*
X40017714Y1454095D01*
X40398666Y1454095D01*
X40551047Y1787000D02*
X41198666Y1787000D01*
X41122476Y654095D02*
X40741523Y654095D01*
X40741523Y1454095D01*
X37458666Y654095D02*
X37077714Y654095D01*
X37077714Y1454095D01*
X38144380Y654095D02*
X37687238Y654095D01*
X37915809Y654095D02*
X37915809Y1454095D01*
X37839619Y1339809D01*
X37763428Y1263619D01*
X37687238Y1225523D01*
X34918666Y654095D02*
X34537714Y654095D01*
X34537714Y1454095D01*
X35147238Y1377904D02*
X35185333Y1416000D01*
X35261523Y1454095D01*
X35452000Y1454095D01*
X35528190Y1416000D01*
X35566285Y1377904D01*
X35604380Y1301714D01*
X35604380Y1225523D01*
X35566285Y1111238D01*
X35109142Y654095D01*
X35604380Y654095D01*
X32378666Y654095D02*
X31997714Y654095D01*
X31997714Y1454095D01*
X32569142Y1454095D02*
X33064380Y1454095D01*
X32797714Y1149333D01*
X32912000Y1149333D01*
X32988190Y1111238D01*
X33026285Y1073142D01*
X33064380Y996952D01*
X33064380Y806476D01*
X33026285Y730285D01*
X32988190Y692190D01*
X32912000Y654095D01*
X32683428Y654095D01*
X32607238Y692190D01*
X32569142Y730285D01*
X29838666Y654095D02*
X29457714Y654095D01*
X29457714Y1454095D01*
X30448190Y1187428D02*
X30448190Y654095D01*
X30257714Y1492190D02*
X30067238Y920761D01*
X30562476Y920761D01*
X26822476Y654095D02*
X26365333Y654095D01*
X26593904Y654095D02*
X26593904Y1454095D01*
X26517714Y1339809D01*
X26441523Y1263619D01*
X26365333Y1225523D01*
X27127238Y1377904D02*
X27165333Y1416000D01*
X27241523Y1454095D01*
X27432000Y1454095D01*
X27508190Y1416000D01*
X27546285Y1377904D01*
X27584380Y1301714D01*
X27584380Y1225523D01*
X27546285Y1111238D01*
X27089142Y654095D01*
X27584380Y654095D01*
X27927238Y654095D02*
X27927238Y1454095D01*
X28193904Y882666D01*
X28460571Y1454095D01*
X28460571Y654095D01*
X23958666Y1073142D02*
X24225333Y1073142D01*
X24339619Y654095D02*
X23958666Y654095D01*
X23958666Y1454095D01*
X24339619Y1454095D01*
X24606285Y1454095D02*
X25139619Y654095D01*
X25139619Y1454095D02*
X24606285Y654095D01*
X25406285Y1377904D02*
X25444380Y1416000D01*
X25520571Y1454095D01*
X25711047Y1454095D01*
X25787238Y1416000D01*
X25825333Y1377904D01*
X25863428Y1301714D01*
X25863428Y1225523D01*
X25825333Y1111238D01*
X25368190Y654095D01*
X25863428Y654095D01*
X21418666Y1073142D02*
X21685333Y1073142D01*
X21799619Y654095D02*
X21418666Y654095D01*
X21418666Y1454095D01*
X21799619Y1454095D01*
X22066285Y1454095D02*
X22599619Y654095D01*
X22599619Y1454095D02*
X22066285Y654095D01*
X22828190Y1454095D02*
X23323428Y1454095D01*
X23056761Y1149333D01*
X23171047Y1149333D01*
X23247238Y1111238D01*
X23285333Y1073142D01*
X23323428Y996952D01*
X23323428Y806476D01*
X23285333Y730285D01*
X23247238Y692190D01*
X23171047Y654095D01*
X22942476Y654095D01*
X22866285Y692190D01*
X22828190Y730285D01*
X18840571Y1787000D02*
X19602476Y1787000D01*
X18992952Y692190D02*
X19107238Y654095D01*
X19297714Y654095D01*
X19373904Y692190D01*
X19412000Y730285D01*
X19450095Y806476D01*
X19450095Y882666D01*
X19412000Y958857D01*
X19373904Y996952D01*
X19297714Y1035047D01*
X19145333Y1073142D01*
X19069142Y1111238D01*
X19031047Y1149333D01*
X18992952Y1225523D01*
X18992952Y1301714D01*
X19031047Y1377904D01*
X19069142Y1416000D01*
X19145333Y1454095D01*
X19335809Y1454095D01*
X19450095Y1416000D01*
X19602476Y1787000D02*
X19983428Y1787000D01*
X19792952Y654095D02*
X19792952Y1454095D01*
X19983428Y1787000D02*
X20783428Y1787000D01*
X20631047Y654095D02*
X20364380Y1035047D01*
X20173904Y654095D02*
X20173904Y1454095D01*
X20478666Y1454095D01*
X20554857Y1416000D01*
X20592952Y1377904D01*
X20631047Y1301714D01*
X20631047Y1187428D01*
X20592952Y1111238D01*
X20554857Y1073142D01*
X20478666Y1035047D01*
X20173904Y1035047D01*
X16205333Y1787000D02*
X17043428Y1787000D01*
X16395809Y654095D02*
X16395809Y1454095D01*
X16852952Y654095D01*
X16852952Y1454095D01*
X17043428Y1787000D02*
X17957714Y1787000D01*
X17233904Y654095D02*
X17233904Y1454095D01*
X17500571Y882666D01*
X17767238Y1454095D01*
X17767238Y654095D01*
X17957714Y1787000D02*
X18338666Y1787000D01*
X18148190Y654095D02*
X18148190Y1454095D01*
D11*
X3466642Y57614428D02*
X3466642Y59114428D01*
X4038071Y59114428D01*
X4180928Y59043000D01*
X4252357Y58971571D01*
X4323785Y58828714D01*
X4323785Y58614428D01*
X4252357Y58471571D01*
X4180928Y58400142D01*
X4038071Y58328714D01*
X3466642Y58328714D01*
X5680928Y57614428D02*
X4966642Y57614428D01*
X4966642Y59114428D01*
X6109500Y58043000D02*
X6823785Y58043000D01*
X5966642Y57614428D02*
X6466642Y59114428D01*
X6966642Y57614428D01*
X7466642Y57614428D02*
X7466642Y59114428D01*
X8323785Y57614428D01*
X8323785Y59114428D01*
X9895214Y57757285D02*
X9823785Y57685857D01*
X9609500Y57614428D01*
X9466642Y57614428D01*
X9252357Y57685857D01*
X9109500Y57828714D01*
X9038071Y57971571D01*
X8966642Y58257285D01*
X8966642Y58471571D01*
X9038071Y58757285D01*
X9109500Y58900142D01*
X9252357Y59043000D01*
X9466642Y59114428D01*
X9609500Y59114428D01*
X9823785Y59043000D01*
X9895214Y58971571D01*
X10538071Y57614428D02*
X10538071Y59114428D01*
X11395214Y57614428D02*
X10752357Y58471571D01*
X11395214Y59114428D02*
X10538071Y58257285D01*
X13180928Y57614428D02*
X13180928Y59114428D01*
X13752357Y59114428D01*
X13895214Y59043000D01*
X13966642Y58971571D01*
X14038071Y58828714D01*
X14038071Y58614428D01*
X13966642Y58471571D01*
X13895214Y58400142D01*
X13752357Y58328714D01*
X13180928Y58328714D01*
X15538071Y57614428D02*
X15038071Y58328714D01*
X14680928Y57614428D02*
X14680928Y59114428D01*
X15252357Y59114428D01*
X15395214Y59043000D01*
X15466642Y58971571D01*
X15538071Y58828714D01*
X15538071Y58614428D01*
X15466642Y58471571D01*
X15395214Y58400142D01*
X15252357Y58328714D01*
X14680928Y58328714D01*
X16466642Y59114428D02*
X16752357Y59114428D01*
X16895214Y59043000D01*
X17038071Y58900142D01*
X17109500Y58614428D01*
X17109500Y58114428D01*
X17038071Y57828714D01*
X16895214Y57685857D01*
X16752357Y57614428D01*
X16466642Y57614428D01*
X16323785Y57685857D01*
X16180928Y57828714D01*
X16109499Y58114428D01*
X16109499Y58614428D01*
X16180928Y58900142D01*
X16323785Y59043000D01*
X16466642Y59114428D01*
X17538071Y59114428D02*
X18395214Y59114428D01*
X17966642Y57614428D02*
X17966642Y59114428D01*
X19180928Y59114428D02*
X19466642Y59114428D01*
X19609499Y59043000D01*
X19752357Y58900142D01*
X19823785Y58614428D01*
X19823785Y58114428D01*
X19752357Y57828714D01*
X19609499Y57685857D01*
X19466642Y57614428D01*
X19180928Y57614428D01*
X19038071Y57685857D01*
X18895214Y57828714D01*
X18823785Y58114428D01*
X18823785Y58614428D01*
X18895214Y58900142D01*
X19038071Y59043000D01*
X19180928Y59114428D01*
X22109499Y58400142D02*
X22323785Y58328714D01*
X22395214Y58257285D01*
X22466642Y58114428D01*
X22466642Y57900142D01*
X22395214Y57757285D01*
X22323785Y57685857D01*
X22180928Y57614428D01*
X21609499Y57614428D01*
X21609499Y59114428D01*
X22109499Y59114428D01*
X22252357Y59043000D01*
X22323785Y58971571D01*
X22395214Y58828714D01*
X22395214Y58685857D01*
X22323785Y58543000D01*
X22252357Y58471571D01*
X22109499Y58400142D01*
X21609499Y58400142D01*
X23395214Y59114428D02*
X23680928Y59114428D01*
X23823785Y59043000D01*
X23966642Y58900142D01*
X24038071Y58614428D01*
X24038071Y58114428D01*
X23966642Y57828714D01*
X23823785Y57685857D01*
X23680928Y57614428D01*
X23395214Y57614428D01*
X23252357Y57685857D01*
X23109499Y57828714D01*
X23038071Y58114428D01*
X23038071Y58614428D01*
X23109499Y58900142D01*
X23252357Y59043000D01*
X23395214Y59114428D01*
X24609499Y58043000D02*
X25323785Y58043000D01*
X24466642Y57614428D02*
X24966642Y59114428D01*
X25466642Y57614428D01*
X26823785Y57614428D02*
X26323785Y58328714D01*
X25966642Y57614428D02*
X25966642Y59114428D01*
X26538071Y59114428D01*
X26680928Y59043000D01*
X26752357Y58971571D01*
X26823785Y58828714D01*
X26823785Y58614428D01*
X26752357Y58471571D01*
X26680928Y58400142D01*
X26538071Y58328714D01*
X25966642Y58328714D01*
X27466642Y57614428D02*
X27466642Y59114428D01*
X27823785Y59114428D01*
X28038071Y59043000D01*
X28180928Y58900142D01*
X28252357Y58757285D01*
X28323785Y58471571D01*
X28323785Y58257285D01*
X28252357Y57971571D01*
X28180928Y57828714D01*
X28038071Y57685857D01*
X27823785Y57614428D01*
X27466642Y57614428D01*
X29895214Y59114428D02*
X30395214Y57614428D01*
X30895214Y59114428D01*
X32180928Y57614428D02*
X31323785Y57614428D01*
X31752357Y57614428D02*
X31752357Y59114428D01*
X31609499Y58900142D01*
X31466642Y58757285D01*
X31323785Y58685857D01*
X32823785Y57757285D02*
X32895214Y57685857D01*
X32823785Y57614428D01*
X32752357Y57685857D01*
X32823785Y57757285D01*
X32823785Y57614428D01*
X33823785Y59114428D02*
X33966642Y59114428D01*
X34109500Y59043000D01*
X34180928Y58971571D01*
X34252357Y58828714D01*
X34323785Y58543000D01*
X34323785Y58185857D01*
X34252357Y57900142D01*
X34180928Y57757285D01*
X34109500Y57685857D01*
X33966642Y57614428D01*
X33823785Y57614428D01*
X33680928Y57685857D01*
X33609500Y57757285D01*
X33538071Y57900142D01*
X33466642Y58185857D01*
X33466642Y58543000D01*
X33538071Y58828714D01*
X33609500Y58971571D01*
X33680928Y59043000D01*
X33823785Y59114428D01*
D12*
%TO.C,J1*%
X79562000Y2624000D02*
X15942000Y2624000D01*
X15942000Y2624000D02*
X15942000Y-36000D01*
X15942000Y-36000D02*
X79562000Y-36000D01*
X79562000Y-36000D02*
X79562000Y2624000D01*
X78612000Y-36000D02*
X78612000Y-6036000D01*
X78612000Y-6036000D02*
X77852000Y-6036000D01*
X77852000Y-6036000D02*
X77852000Y-36000D01*
X78552000Y-36000D02*
X78552000Y-6036000D01*
X78432000Y-36000D02*
X78432000Y-6036000D01*
X78312000Y-36000D02*
X78312000Y-6036000D01*
X78192000Y-36000D02*
X78192000Y-6036000D01*
X78072000Y-36000D02*
X78072000Y-6036000D01*
X77952000Y-36000D02*
X77952000Y-6036000D01*
X78612000Y3021071D02*
X78612000Y2624000D01*
X77852000Y3021071D02*
X77852000Y2624000D01*
X78612000Y5494000D02*
X78612000Y5106929D01*
X77852000Y5494000D02*
X77852000Y5106929D01*
X76962000Y2624000D02*
X76962000Y-36000D01*
X76072000Y-36000D02*
X76072000Y-6036000D01*
X76072000Y-6036000D02*
X75312000Y-6036000D01*
X75312000Y-6036000D02*
X75312000Y-36000D01*
X76072000Y3021071D02*
X76072000Y2624000D01*
X75312000Y3021071D02*
X75312000Y2624000D01*
X76072000Y5561071D02*
X76072000Y5106929D01*
X75312000Y5561071D02*
X75312000Y5106929D01*
X74422000Y2624000D02*
X74422000Y-36000D01*
X73532000Y-36000D02*
X73532000Y-6036000D01*
X73532000Y-6036000D02*
X72772000Y-6036000D01*
X72772000Y-6036000D02*
X72772000Y-36000D01*
X73532000Y3021071D02*
X73532000Y2624000D01*
X72772000Y3021071D02*
X72772000Y2624000D01*
X73532000Y5561071D02*
X73532000Y5106929D01*
X72772000Y5561071D02*
X72772000Y5106929D01*
X71882000Y2624000D02*
X71882000Y-36000D01*
X70992000Y-36000D02*
X70992000Y-6036000D01*
X70992000Y-6036000D02*
X70232000Y-6036000D01*
X70232000Y-6036000D02*
X70232000Y-36000D01*
X70992000Y3021071D02*
X70992000Y2624000D01*
X70232000Y3021071D02*
X70232000Y2624000D01*
X70992000Y5561071D02*
X70992000Y5106929D01*
X70232000Y5561071D02*
X70232000Y5106929D01*
X69342000Y2624000D02*
X69342000Y-36000D01*
X68452000Y-36000D02*
X68452000Y-6036000D01*
X68452000Y-6036000D02*
X67692000Y-6036000D01*
X67692000Y-6036000D02*
X67692000Y-36000D01*
X68452000Y3021071D02*
X68452000Y2624000D01*
X67692000Y3021071D02*
X67692000Y2624000D01*
X68452000Y5561071D02*
X68452000Y5106929D01*
X67692000Y5561071D02*
X67692000Y5106929D01*
X66802000Y2624000D02*
X66802000Y-36000D01*
X65912000Y-36000D02*
X65912000Y-6036000D01*
X65912000Y-6036000D02*
X65152000Y-6036000D01*
X65152000Y-6036000D02*
X65152000Y-36000D01*
X65912000Y3021071D02*
X65912000Y2624000D01*
X65152000Y3021071D02*
X65152000Y2624000D01*
X65912000Y5561071D02*
X65912000Y5106929D01*
X65152000Y5561071D02*
X65152000Y5106929D01*
X64262000Y2624000D02*
X64262000Y-36000D01*
X63372000Y-36000D02*
X63372000Y-6036000D01*
X63372000Y-6036000D02*
X62612000Y-6036000D01*
X62612000Y-6036000D02*
X62612000Y-36000D01*
X63372000Y3021071D02*
X63372000Y2624000D01*
X62612000Y3021071D02*
X62612000Y2624000D01*
X63372000Y5561071D02*
X63372000Y5106929D01*
X62612000Y5561071D02*
X62612000Y5106929D01*
X61722000Y2624000D02*
X61722000Y-36000D01*
X60832000Y-36000D02*
X60832000Y-6036000D01*
X60832000Y-6036000D02*
X60072000Y-6036000D01*
X60072000Y-6036000D02*
X60072000Y-36000D01*
X60832000Y3021071D02*
X60832000Y2624000D01*
X60072000Y3021071D02*
X60072000Y2624000D01*
X60832000Y5561071D02*
X60832000Y5106929D01*
X60072000Y5561071D02*
X60072000Y5106929D01*
X59182000Y2624000D02*
X59182000Y-36000D01*
X58292000Y-36000D02*
X58292000Y-6036000D01*
X58292000Y-6036000D02*
X57532000Y-6036000D01*
X57532000Y-6036000D02*
X57532000Y-36000D01*
X58292000Y3021071D02*
X58292000Y2624000D01*
X57532000Y3021071D02*
X57532000Y2624000D01*
X58292000Y5561071D02*
X58292000Y5106929D01*
X57532000Y5561071D02*
X57532000Y5106929D01*
X56642000Y2624000D02*
X56642000Y-36000D01*
X55752000Y-36000D02*
X55752000Y-6036000D01*
X55752000Y-6036000D02*
X54992000Y-6036000D01*
X54992000Y-6036000D02*
X54992000Y-36000D01*
X55752000Y3021071D02*
X55752000Y2624000D01*
X54992000Y3021071D02*
X54992000Y2624000D01*
X55752000Y5561071D02*
X55752000Y5106929D01*
X54992000Y5561071D02*
X54992000Y5106929D01*
X54102000Y2624000D02*
X54102000Y-36000D01*
X53212000Y-36000D02*
X53212000Y-6036000D01*
X53212000Y-6036000D02*
X52452000Y-6036000D01*
X52452000Y-6036000D02*
X52452000Y-36000D01*
X53212000Y3021071D02*
X53212000Y2624000D01*
X52452000Y3021071D02*
X52452000Y2624000D01*
X53212000Y5561071D02*
X53212000Y5106929D01*
X52452000Y5561071D02*
X52452000Y5106929D01*
X51562000Y2624000D02*
X51562000Y-36000D01*
X50672000Y-36000D02*
X50672000Y-6036000D01*
X50672000Y-6036000D02*
X49912000Y-6036000D01*
X49912000Y-6036000D02*
X49912000Y-36000D01*
X50672000Y3021071D02*
X50672000Y2624000D01*
X49912000Y3021071D02*
X49912000Y2624000D01*
X50672000Y5561071D02*
X50672000Y5106929D01*
X49912000Y5561071D02*
X49912000Y5106929D01*
X49022000Y2624000D02*
X49022000Y-36000D01*
X48132000Y-36000D02*
X48132000Y-6036000D01*
X48132000Y-6036000D02*
X47372000Y-6036000D01*
X47372000Y-6036000D02*
X47372000Y-36000D01*
X48132000Y3021071D02*
X48132000Y2624000D01*
X47372000Y3021071D02*
X47372000Y2624000D01*
X48132000Y5561071D02*
X48132000Y5106929D01*
X47372000Y5561071D02*
X47372000Y5106929D01*
X46482000Y2624000D02*
X46482000Y-36000D01*
X45592000Y-36000D02*
X45592000Y-6036000D01*
X45592000Y-6036000D02*
X44832000Y-6036000D01*
X44832000Y-6036000D02*
X44832000Y-36000D01*
X45592000Y3021071D02*
X45592000Y2624000D01*
X44832000Y3021071D02*
X44832000Y2624000D01*
X45592000Y5561071D02*
X45592000Y5106929D01*
X44832000Y5561071D02*
X44832000Y5106929D01*
X43942000Y2624000D02*
X43942000Y-36000D01*
X43052000Y-36000D02*
X43052000Y-6036000D01*
X43052000Y-6036000D02*
X42292000Y-6036000D01*
X42292000Y-6036000D02*
X42292000Y-36000D01*
X43052000Y3021071D02*
X43052000Y2624000D01*
X42292000Y3021071D02*
X42292000Y2624000D01*
X43052000Y5561071D02*
X43052000Y5106929D01*
X42292000Y5561071D02*
X42292000Y5106929D01*
X41402000Y2624000D02*
X41402000Y-36000D01*
X40512000Y-36000D02*
X40512000Y-6036000D01*
X40512000Y-6036000D02*
X39752000Y-6036000D01*
X39752000Y-6036000D02*
X39752000Y-36000D01*
X40512000Y3021071D02*
X40512000Y2624000D01*
X39752000Y3021071D02*
X39752000Y2624000D01*
X40512000Y5561071D02*
X40512000Y5106929D01*
X39752000Y5561071D02*
X39752000Y5106929D01*
X38862000Y2624000D02*
X38862000Y-36000D01*
X37972000Y-36000D02*
X37972000Y-6036000D01*
X37972000Y-6036000D02*
X37212000Y-6036000D01*
X37212000Y-6036000D02*
X37212000Y-36000D01*
X37972000Y3021071D02*
X37972000Y2624000D01*
X37212000Y3021071D02*
X37212000Y2624000D01*
X37972000Y5561071D02*
X37972000Y5106929D01*
X37212000Y5561071D02*
X37212000Y5106929D01*
X36322000Y2624000D02*
X36322000Y-36000D01*
X35432000Y-36000D02*
X35432000Y-6036000D01*
X35432000Y-6036000D02*
X34672000Y-6036000D01*
X34672000Y-6036000D02*
X34672000Y-36000D01*
X35432000Y3021071D02*
X35432000Y2624000D01*
X34672000Y3021071D02*
X34672000Y2624000D01*
X35432000Y5561071D02*
X35432000Y5106929D01*
X34672000Y5561071D02*
X34672000Y5106929D01*
X33782000Y2624000D02*
X33782000Y-36000D01*
X32892000Y-36000D02*
X32892000Y-6036000D01*
X32892000Y-6036000D02*
X32132000Y-6036000D01*
X32132000Y-6036000D02*
X32132000Y-36000D01*
X32892000Y3021071D02*
X32892000Y2624000D01*
X32132000Y3021071D02*
X32132000Y2624000D01*
X32892000Y5561071D02*
X32892000Y5106929D01*
X32132000Y5561071D02*
X32132000Y5106929D01*
X31242000Y2624000D02*
X31242000Y-36000D01*
X30352000Y-36000D02*
X30352000Y-6036000D01*
X30352000Y-6036000D02*
X29592000Y-6036000D01*
X29592000Y-6036000D02*
X29592000Y-36000D01*
X30352000Y3021071D02*
X30352000Y2624000D01*
X29592000Y3021071D02*
X29592000Y2624000D01*
X30352000Y5561071D02*
X30352000Y5106929D01*
X29592000Y5561071D02*
X29592000Y5106929D01*
X28702000Y2624000D02*
X28702000Y-36000D01*
X27812000Y-36000D02*
X27812000Y-6036000D01*
X27812000Y-6036000D02*
X27052000Y-6036000D01*
X27052000Y-6036000D02*
X27052000Y-36000D01*
X27812000Y3021071D02*
X27812000Y2624000D01*
X27052000Y3021071D02*
X27052000Y2624000D01*
X27812000Y5561071D02*
X27812000Y5106929D01*
X27052000Y5561071D02*
X27052000Y5106929D01*
X26162000Y2624000D02*
X26162000Y-36000D01*
X25272000Y-36000D02*
X25272000Y-6036000D01*
X25272000Y-6036000D02*
X24512000Y-6036000D01*
X24512000Y-6036000D02*
X24512000Y-36000D01*
X25272000Y3021071D02*
X25272000Y2624000D01*
X24512000Y3021071D02*
X24512000Y2624000D01*
X25272000Y5561071D02*
X25272000Y5106929D01*
X24512000Y5561071D02*
X24512000Y5106929D01*
X23622000Y2624000D02*
X23622000Y-36000D01*
X22732000Y-36000D02*
X22732000Y-6036000D01*
X22732000Y-6036000D02*
X21972000Y-6036000D01*
X21972000Y-6036000D02*
X21972000Y-36000D01*
X22732000Y3021071D02*
X22732000Y2624000D01*
X21972000Y3021071D02*
X21972000Y2624000D01*
X22732000Y5561071D02*
X22732000Y5106929D01*
X21972000Y5561071D02*
X21972000Y5106929D01*
X21082000Y2624000D02*
X21082000Y-36000D01*
X20192000Y-36000D02*
X20192000Y-6036000D01*
X20192000Y-6036000D02*
X19432000Y-6036000D01*
X19432000Y-6036000D02*
X19432000Y-36000D01*
X20192000Y3021071D02*
X20192000Y2624000D01*
X19432000Y3021071D02*
X19432000Y2624000D01*
X20192000Y5561071D02*
X20192000Y5106929D01*
X19432000Y5561071D02*
X19432000Y5106929D01*
X18542000Y2624000D02*
X18542000Y-36000D01*
X17652000Y-36000D02*
X17652000Y-6036000D01*
X17652000Y-6036000D02*
X16892000Y-6036000D01*
X16892000Y-6036000D02*
X16892000Y-36000D01*
X17652000Y3021071D02*
X17652000Y2624000D01*
X16892000Y3021071D02*
X16892000Y2624000D01*
X17652000Y5561071D02*
X17652000Y5106929D01*
X16892000Y5561071D02*
X16892000Y5106929D01*
X78232000Y7874000D02*
X79502000Y7874000D01*
X79502000Y7874000D02*
X79502000Y6604000D01*
%TD*%
M02*
