G04 #@! TF.GenerationSoftware,KiCad,Pcbnew,(5.0.2)-1*
G04 #@! TF.CreationDate,2019-08-30T14:41:27-04:00*
G04 #@! TF.ProjectId,RC6502 Apple 1 SBC,52433635-3032-4204-9170-706c65203120,rev?*
G04 #@! TF.SameCoordinates,Original*
G04 #@! TF.FileFunction,Legend,Bot*
G04 #@! TF.FilePolarity,Positive*
%FSLAX46Y46*%
G04 Gerber Fmt 4.6, Leading zero omitted, Abs format (unit mm)*
G04 Created by KiCad (PCBNEW (5.0.2)-1) date 8/30/2019 2:41:27 PM*
%MOMM*%
%LPD*%
G01*
G04 APERTURE LIST*
%ADD10C,0.100000*%
%ADD11C,0.200000*%
%ADD12C,0.150000*%
%ADD13C,0.300000*%
G04 APERTURE END LIST*
D10*
X117562380Y-81081904D02*
X118562380Y-81415238D01*
X117562380Y-81748571D01*
X118562380Y-82081904D02*
X117562380Y-82081904D01*
X117562380Y-82462857D01*
X117610000Y-82558095D01*
X117657619Y-82605714D01*
X117752857Y-82653333D01*
X117895714Y-82653333D01*
X117990952Y-82605714D01*
X118038571Y-82558095D01*
X118086190Y-82462857D01*
X118086190Y-82081904D01*
X118657619Y-82843809D02*
X118657619Y-83605714D01*
X117610000Y-84367619D02*
X117562380Y-84272380D01*
X117562380Y-84129523D01*
X117610000Y-83986666D01*
X117705238Y-83891428D01*
X117800476Y-83843809D01*
X117990952Y-83796190D01*
X118133809Y-83796190D01*
X118324285Y-83843809D01*
X118419523Y-83891428D01*
X118514761Y-83986666D01*
X118562380Y-84129523D01*
X118562380Y-84224761D01*
X118514761Y-84367619D01*
X118467142Y-84415238D01*
X118133809Y-84415238D01*
X118133809Y-84224761D01*
X118562380Y-84843809D02*
X117562380Y-84843809D01*
X118562380Y-85415238D01*
X117562380Y-85415238D01*
X118562380Y-85891428D02*
X117562380Y-85891428D01*
X117562380Y-86129523D01*
X117610000Y-86272380D01*
X117705238Y-86367619D01*
X117800476Y-86415238D01*
X117990952Y-86462857D01*
X118133809Y-86462857D01*
X118324285Y-86415238D01*
X118419523Y-86367619D01*
X118514761Y-86272380D01*
X118562380Y-86129523D01*
X118562380Y-85891428D01*
D11*
X120650000Y-82550000D02*
X120650000Y-85090000D01*
X118745000Y-86995000D02*
X118745000Y-80645000D01*
X122555000Y-86995000D02*
X118745000Y-86995000D01*
X122555000Y-80645000D02*
X122555000Y-86995000D01*
X118745000Y-80645000D02*
X122555000Y-80645000D01*
D10*
X143651428Y-62317380D02*
X143460952Y-62317380D01*
X143365714Y-62365000D01*
X143270476Y-62460238D01*
X143222857Y-62650714D01*
X143222857Y-62984047D01*
X143270476Y-63174523D01*
X143365714Y-63269761D01*
X143460952Y-63317380D01*
X143651428Y-63317380D01*
X143746666Y-63269761D01*
X143841904Y-63174523D01*
X143889523Y-62984047D01*
X143889523Y-62650714D01*
X143841904Y-62460238D01*
X143746666Y-62365000D01*
X143651428Y-62317380D01*
X142841904Y-63269761D02*
X142699047Y-63317380D01*
X142460952Y-63317380D01*
X142365714Y-63269761D01*
X142318095Y-63222142D01*
X142270476Y-63126904D01*
X142270476Y-63031666D01*
X142318095Y-62936428D01*
X142365714Y-62888809D01*
X142460952Y-62841190D01*
X142651428Y-62793571D01*
X142746666Y-62745952D01*
X142794285Y-62698333D01*
X142841904Y-62603095D01*
X142841904Y-62507857D01*
X142794285Y-62412619D01*
X142746666Y-62365000D01*
X142651428Y-62317380D01*
X142413333Y-62317380D01*
X142270476Y-62365000D01*
X141270476Y-63222142D02*
X141318095Y-63269761D01*
X141460952Y-63317380D01*
X141556190Y-63317380D01*
X141699047Y-63269761D01*
X141794285Y-63174523D01*
X141841904Y-63079285D01*
X141889523Y-62888809D01*
X141889523Y-62745952D01*
X141841904Y-62555476D01*
X141794285Y-62460238D01*
X141699047Y-62365000D01*
X141556190Y-62317380D01*
X141460952Y-62317380D01*
X141318095Y-62365000D01*
X141270476Y-62412619D01*
X141080000Y-63412619D02*
X140318095Y-63412619D01*
X140080000Y-62793571D02*
X139746666Y-62793571D01*
X139603809Y-63317380D02*
X140080000Y-63317380D01*
X140080000Y-62317380D01*
X139603809Y-62317380D01*
X139175238Y-63317380D02*
X139175238Y-62317380D01*
X138603809Y-63317380D01*
X138603809Y-62317380D01*
D11*
X146685000Y-61595000D02*
X149225000Y-61595000D01*
X144780000Y-63500000D02*
X144780000Y-59690000D01*
X151130000Y-63500000D02*
X144780000Y-63500000D01*
X151130000Y-59690000D02*
X151130000Y-63500000D01*
X144780000Y-59690000D02*
X151130000Y-59690000D01*
D10*
X119070380Y-112268285D02*
X118070380Y-112268285D01*
X118070380Y-112649238D01*
X118118000Y-112744476D01*
X118165619Y-112792095D01*
X118260857Y-112839714D01*
X118403714Y-112839714D01*
X118498952Y-112792095D01*
X118546571Y-112744476D01*
X118594190Y-112649238D01*
X118594190Y-112268285D01*
X119070380Y-113268285D02*
X118070380Y-113268285D01*
X118784666Y-113696857D02*
X118784666Y-114173047D01*
X119070380Y-113601619D02*
X118070380Y-113934952D01*
X119070380Y-114268285D01*
X119165619Y-114363523D02*
X119165619Y-115125428D01*
X118546571Y-115363523D02*
X118546571Y-115696857D01*
X119070380Y-115839714D02*
X119070380Y-115363523D01*
X118070380Y-115363523D01*
X118070380Y-115839714D01*
X119070380Y-116268285D02*
X118070380Y-116268285D01*
X119070380Y-116839714D01*
X118070380Y-116839714D01*
D11*
X121285000Y-113665000D02*
X121285000Y-116205000D01*
X123190000Y-111760000D02*
X123190000Y-117475000D01*
X119380000Y-111760000D02*
X123190000Y-111760000D01*
X119380000Y-117475000D02*
X119380000Y-111760000D01*
X123190000Y-117475000D02*
X119380000Y-117475000D01*
D12*
X117927380Y-50865000D02*
X116927380Y-50865000D01*
X117927380Y-51293571D02*
X117403571Y-51293571D01*
X117308333Y-51245952D01*
X117260714Y-51150714D01*
X117260714Y-51007857D01*
X117308333Y-50912619D01*
X117355952Y-50865000D01*
X117260714Y-51626904D02*
X117260714Y-52007857D01*
X116927380Y-51769761D02*
X117784523Y-51769761D01*
X117879761Y-51817380D01*
X117927380Y-51912619D01*
X117927380Y-52007857D01*
X117260714Y-52198333D02*
X117260714Y-52579285D01*
X116927380Y-52341190D02*
X117784523Y-52341190D01*
X117879761Y-52388809D01*
X117927380Y-52484047D01*
X117927380Y-52579285D01*
X117260714Y-52912619D02*
X118260714Y-52912619D01*
X117308333Y-52912619D02*
X117260714Y-53007857D01*
X117260714Y-53198333D01*
X117308333Y-53293571D01*
X117355952Y-53341190D01*
X117451190Y-53388809D01*
X117736904Y-53388809D01*
X117832142Y-53341190D01*
X117879761Y-53293571D01*
X117927380Y-53198333D01*
X117927380Y-53007857D01*
X117879761Y-52912619D01*
X117879761Y-53769761D02*
X117927380Y-53865000D01*
X117927380Y-54055476D01*
X117879761Y-54150714D01*
X117784523Y-54198333D01*
X117736904Y-54198333D01*
X117641666Y-54150714D01*
X117594047Y-54055476D01*
X117594047Y-53912619D01*
X117546428Y-53817380D01*
X117451190Y-53769761D01*
X117403571Y-53769761D01*
X117308333Y-53817380D01*
X117260714Y-53912619D01*
X117260714Y-54055476D01*
X117308333Y-54150714D01*
X117832142Y-54626904D02*
X117879761Y-54674523D01*
X117927380Y-54626904D01*
X117879761Y-54579285D01*
X117832142Y-54626904D01*
X117927380Y-54626904D01*
X117308333Y-54626904D02*
X117355952Y-54674523D01*
X117403571Y-54626904D01*
X117355952Y-54579285D01*
X117308333Y-54626904D01*
X117403571Y-54626904D01*
X116879761Y-55817380D02*
X118165476Y-54960238D01*
X116879761Y-56865000D02*
X118165476Y-56007857D01*
X117927380Y-57198333D02*
X116927380Y-57198333D01*
X117927380Y-57626904D02*
X117403571Y-57626904D01*
X117308333Y-57579285D01*
X117260714Y-57484047D01*
X117260714Y-57341190D01*
X117308333Y-57245952D01*
X117355952Y-57198333D01*
X117260714Y-58007857D02*
X117927380Y-58245952D01*
X117260714Y-58484047D01*
X117879761Y-59245952D02*
X117927380Y-59150714D01*
X117927380Y-58960238D01*
X117879761Y-58865000D01*
X117784523Y-58817380D01*
X117403571Y-58817380D01*
X117308333Y-58865000D01*
X117260714Y-58960238D01*
X117260714Y-59150714D01*
X117308333Y-59245952D01*
X117403571Y-59293571D01*
X117498809Y-59293571D01*
X117594047Y-58817380D01*
X117260714Y-59579285D02*
X117260714Y-59960238D01*
X116927380Y-59722142D02*
X117784523Y-59722142D01*
X117879761Y-59769761D01*
X117927380Y-59865000D01*
X117927380Y-59960238D01*
X117879761Y-60674523D02*
X117927380Y-60579285D01*
X117927380Y-60388809D01*
X117879761Y-60293571D01*
X117784523Y-60245952D01*
X117403571Y-60245952D01*
X117308333Y-60293571D01*
X117260714Y-60388809D01*
X117260714Y-60579285D01*
X117308333Y-60674523D01*
X117403571Y-60722142D01*
X117498809Y-60722142D01*
X117594047Y-60245952D01*
X117927380Y-61150714D02*
X116927380Y-61150714D01*
X117308333Y-61150714D02*
X117260714Y-61245952D01*
X117260714Y-61436428D01*
X117308333Y-61531666D01*
X117355952Y-61579285D01*
X117451190Y-61626904D01*
X117736904Y-61626904D01*
X117832142Y-61579285D01*
X117879761Y-61531666D01*
X117927380Y-61436428D01*
X117927380Y-61245952D01*
X117879761Y-61150714D01*
X117927380Y-62198333D02*
X117879761Y-62103095D01*
X117832142Y-62055476D01*
X117736904Y-62007857D01*
X117451190Y-62007857D01*
X117355952Y-62055476D01*
X117308333Y-62103095D01*
X117260714Y-62198333D01*
X117260714Y-62341190D01*
X117308333Y-62436428D01*
X117355952Y-62484047D01*
X117451190Y-62531666D01*
X117736904Y-62531666D01*
X117832142Y-62484047D01*
X117879761Y-62436428D01*
X117927380Y-62341190D01*
X117927380Y-62198333D01*
X117927380Y-63103095D02*
X117879761Y-63007857D01*
X117784523Y-62960238D01*
X116927380Y-62960238D01*
X117927380Y-63626904D02*
X117879761Y-63531666D01*
X117784523Y-63484047D01*
X116927380Y-63484047D01*
X117879761Y-64388809D02*
X117927380Y-64293571D01*
X117927380Y-64103095D01*
X117879761Y-64007857D01*
X117784523Y-63960238D01*
X117403571Y-63960238D01*
X117308333Y-64007857D01*
X117260714Y-64103095D01*
X117260714Y-64293571D01*
X117308333Y-64388809D01*
X117403571Y-64436428D01*
X117498809Y-64436428D01*
X117594047Y-63960238D01*
X117832142Y-64865000D02*
X117879761Y-64912619D01*
X117927380Y-64865000D01*
X117879761Y-64817380D01*
X117832142Y-64865000D01*
X117927380Y-64865000D01*
X117927380Y-65341190D02*
X116927380Y-65341190D01*
X117308333Y-65341190D02*
X117260714Y-65436428D01*
X117260714Y-65626904D01*
X117308333Y-65722142D01*
X117355952Y-65769761D01*
X117451190Y-65817380D01*
X117736904Y-65817380D01*
X117832142Y-65769761D01*
X117879761Y-65722142D01*
X117927380Y-65626904D01*
X117927380Y-65436428D01*
X117879761Y-65341190D01*
X117927380Y-66388809D02*
X117879761Y-66293571D01*
X117784523Y-66245952D01*
X116927380Y-66245952D01*
X117927380Y-66912619D02*
X117879761Y-66817380D01*
X117832142Y-66769761D01*
X117736904Y-66722142D01*
X117451190Y-66722142D01*
X117355952Y-66769761D01*
X117308333Y-66817380D01*
X117260714Y-66912619D01*
X117260714Y-67055476D01*
X117308333Y-67150714D01*
X117355952Y-67198333D01*
X117451190Y-67245952D01*
X117736904Y-67245952D01*
X117832142Y-67198333D01*
X117879761Y-67150714D01*
X117927380Y-67055476D01*
X117927380Y-66912619D01*
X117260714Y-68103095D02*
X118070238Y-68103095D01*
X118165476Y-68055476D01*
X118213095Y-68007857D01*
X118260714Y-67912619D01*
X118260714Y-67769761D01*
X118213095Y-67674523D01*
X117879761Y-68103095D02*
X117927380Y-68007857D01*
X117927380Y-67817380D01*
X117879761Y-67722142D01*
X117832142Y-67674523D01*
X117736904Y-67626904D01*
X117451190Y-67626904D01*
X117355952Y-67674523D01*
X117308333Y-67722142D01*
X117260714Y-67817380D01*
X117260714Y-68007857D01*
X117308333Y-68103095D01*
X117879761Y-68531666D02*
X117927380Y-68626904D01*
X117927380Y-68817380D01*
X117879761Y-68912619D01*
X117784523Y-68960238D01*
X117736904Y-68960238D01*
X117641666Y-68912619D01*
X117594047Y-68817380D01*
X117594047Y-68674523D01*
X117546428Y-68579285D01*
X117451190Y-68531666D01*
X117403571Y-68531666D01*
X117308333Y-68579285D01*
X117260714Y-68674523D01*
X117260714Y-68817380D01*
X117308333Y-68912619D01*
X117260714Y-69388809D02*
X118260714Y-69388809D01*
X117308333Y-69388809D02*
X117260714Y-69484047D01*
X117260714Y-69674523D01*
X117308333Y-69769761D01*
X117355952Y-69817380D01*
X117451190Y-69865000D01*
X117736904Y-69865000D01*
X117832142Y-69817380D01*
X117879761Y-69769761D01*
X117927380Y-69674523D01*
X117927380Y-69484047D01*
X117879761Y-69388809D01*
X117927380Y-70436428D02*
X117879761Y-70341190D01*
X117832142Y-70293571D01*
X117736904Y-70245952D01*
X117451190Y-70245952D01*
X117355952Y-70293571D01*
X117308333Y-70341190D01*
X117260714Y-70436428D01*
X117260714Y-70579285D01*
X117308333Y-70674523D01*
X117355952Y-70722142D01*
X117451190Y-70769761D01*
X117736904Y-70769761D01*
X117832142Y-70722142D01*
X117879761Y-70674523D01*
X117927380Y-70579285D01*
X117927380Y-70436428D01*
X117260714Y-71055476D02*
X117260714Y-71436428D01*
X116927380Y-71198333D02*
X117784523Y-71198333D01*
X117879761Y-71245952D01*
X117927380Y-71341190D01*
X117927380Y-71436428D01*
X117832142Y-71769761D02*
X117879761Y-71817380D01*
X117927380Y-71769761D01*
X117879761Y-71722142D01*
X117832142Y-71769761D01*
X117927380Y-71769761D01*
X117879761Y-72674523D02*
X117927380Y-72579285D01*
X117927380Y-72388809D01*
X117879761Y-72293571D01*
X117832142Y-72245952D01*
X117736904Y-72198333D01*
X117451190Y-72198333D01*
X117355952Y-72245952D01*
X117308333Y-72293571D01*
X117260714Y-72388809D01*
X117260714Y-72579285D01*
X117308333Y-72674523D01*
X117927380Y-73245952D02*
X117879761Y-73150714D01*
X117832142Y-73103095D01*
X117736904Y-73055476D01*
X117451190Y-73055476D01*
X117355952Y-73103095D01*
X117308333Y-73150714D01*
X117260714Y-73245952D01*
X117260714Y-73388809D01*
X117308333Y-73484047D01*
X117355952Y-73531666D01*
X117451190Y-73579285D01*
X117736904Y-73579285D01*
X117832142Y-73531666D01*
X117879761Y-73484047D01*
X117927380Y-73388809D01*
X117927380Y-73245952D01*
X117927380Y-74007857D02*
X117260714Y-74007857D01*
X117355952Y-74007857D02*
X117308333Y-74055476D01*
X117260714Y-74150714D01*
X117260714Y-74293571D01*
X117308333Y-74388809D01*
X117403571Y-74436428D01*
X117927380Y-74436428D01*
X117403571Y-74436428D02*
X117308333Y-74484047D01*
X117260714Y-74579285D01*
X117260714Y-74722142D01*
X117308333Y-74817380D01*
X117403571Y-74865000D01*
X117927380Y-74865000D01*
D11*
X169545000Y-132715000D02*
X172085000Y-132715000D01*
D10*
X172608619Y-135834380D02*
X172941952Y-135358190D01*
X173180047Y-135834380D02*
X173180047Y-134834380D01*
X172799095Y-134834380D01*
X172703857Y-134882000D01*
X172656238Y-134929619D01*
X172608619Y-135024857D01*
X172608619Y-135167714D01*
X172656238Y-135262952D01*
X172703857Y-135310571D01*
X172799095Y-135358190D01*
X173180047Y-135358190D01*
X172227666Y-135548666D02*
X171751476Y-135548666D01*
X172322904Y-135834380D02*
X171989571Y-134834380D01*
X171656238Y-135834380D01*
X171322904Y-135834380D02*
X171322904Y-134834380D01*
X170989571Y-135548666D01*
X170656238Y-134834380D01*
X170656238Y-135834380D01*
X170418142Y-135929619D02*
X169656238Y-135929619D01*
X169418142Y-135310571D02*
X169084809Y-135310571D01*
X168941952Y-135834380D02*
X169418142Y-135834380D01*
X169418142Y-134834380D01*
X168941952Y-134834380D01*
X168513380Y-135834380D02*
X168513380Y-134834380D01*
X167941952Y-135834380D01*
X167941952Y-134834380D01*
D11*
X167640000Y-134620000D02*
X167640000Y-130810000D01*
X173355000Y-134620000D02*
X167640000Y-134620000D01*
X173355000Y-130810000D02*
X173355000Y-134620000D01*
X167640000Y-130810000D02*
X173355000Y-130810000D01*
X212725000Y-133985000D02*
X212725000Y-139065000D01*
D10*
X214574380Y-116983142D02*
X214098190Y-116649809D01*
X214574380Y-116411714D02*
X213574380Y-116411714D01*
X213574380Y-116792666D01*
X213622000Y-116887904D01*
X213669619Y-116935523D01*
X213764857Y-116983142D01*
X213907714Y-116983142D01*
X214002952Y-116935523D01*
X214050571Y-116887904D01*
X214098190Y-116792666D01*
X214098190Y-116411714D01*
X213574380Y-117602190D02*
X213574380Y-117792666D01*
X213622000Y-117887904D01*
X213717238Y-117983142D01*
X213907714Y-118030761D01*
X214241047Y-118030761D01*
X214431523Y-117983142D01*
X214526761Y-117887904D01*
X214574380Y-117792666D01*
X214574380Y-117602190D01*
X214526761Y-117506952D01*
X214431523Y-117411714D01*
X214241047Y-117364095D01*
X213907714Y-117364095D01*
X213717238Y-117411714D01*
X213622000Y-117506952D01*
X213574380Y-117602190D01*
X214574380Y-118459333D02*
X213574380Y-118459333D01*
X214288666Y-118792666D01*
X213574380Y-119126000D01*
X214574380Y-119126000D01*
X214669619Y-119364095D02*
X214669619Y-120126000D01*
X214050571Y-120364095D02*
X214050571Y-120697428D01*
X214574380Y-120840285D02*
X214574380Y-120364095D01*
X213574380Y-120364095D01*
X213574380Y-120840285D01*
X214574380Y-121268857D02*
X213574380Y-121268857D01*
X214574380Y-121840285D01*
X213574380Y-121840285D01*
D11*
X211455000Y-118110000D02*
X211455000Y-120650000D01*
X209550000Y-116205000D02*
X209550000Y-121920000D01*
X213360000Y-116205000D02*
X209550000Y-116205000D01*
X213360000Y-121920000D02*
X213360000Y-116205000D01*
X209550000Y-121920000D02*
X213360000Y-121920000D01*
X153035000Y-46990000D02*
X157480000Y-46990000D01*
X153035000Y-41910000D02*
X153035000Y-46990000D01*
X157480000Y-41910000D02*
X153035000Y-41910000D01*
X157480000Y-41910000D02*
X158750000Y-41910000D01*
X158750000Y-46990000D02*
X157480000Y-46990000D01*
D13*
X181264285Y-42353571D02*
X181264285Y-43425000D01*
X181335714Y-43639285D01*
X181478571Y-43782142D01*
X181692857Y-43853571D01*
X181835714Y-43853571D01*
X179907142Y-42853571D02*
X179907142Y-43853571D01*
X180550000Y-42853571D02*
X180550000Y-43639285D01*
X180478571Y-43782142D01*
X180335714Y-43853571D01*
X180121428Y-43853571D01*
X179978571Y-43782142D01*
X179907142Y-43710714D01*
X179192857Y-43853571D02*
X179192857Y-42853571D01*
X179192857Y-42996428D02*
X179121428Y-42925000D01*
X178978571Y-42853571D01*
X178764285Y-42853571D01*
X178621428Y-42925000D01*
X178550000Y-43067857D01*
X178550000Y-43853571D01*
X178550000Y-43067857D02*
X178478571Y-42925000D01*
X178335714Y-42853571D01*
X178121428Y-42853571D01*
X177978571Y-42925000D01*
X177907142Y-43067857D01*
X177907142Y-43853571D01*
X177192857Y-42853571D02*
X177192857Y-44353571D01*
X177192857Y-42925000D02*
X177050000Y-42853571D01*
X176764285Y-42853571D01*
X176621428Y-42925000D01*
X176550000Y-42996428D01*
X176478571Y-43139285D01*
X176478571Y-43567857D01*
X176550000Y-43710714D01*
X176621428Y-43782142D01*
X176764285Y-43853571D01*
X177050000Y-43853571D01*
X177192857Y-43782142D01*
X175264285Y-43782142D02*
X175407142Y-43853571D01*
X175692857Y-43853571D01*
X175835714Y-43782142D01*
X175907142Y-43639285D01*
X175907142Y-43067857D01*
X175835714Y-42925000D01*
X175692857Y-42853571D01*
X175407142Y-42853571D01*
X175264285Y-42925000D01*
X175192857Y-43067857D01*
X175192857Y-43210714D01*
X175907142Y-43353571D01*
X174550000Y-43853571D02*
X174550000Y-42853571D01*
X174550000Y-43139285D02*
X174478571Y-42996428D01*
X174407142Y-42925000D01*
X174264285Y-42853571D01*
X174121428Y-42853571D01*
X172478571Y-43853571D02*
X172478571Y-42853571D01*
X172478571Y-42996428D02*
X172407142Y-42925000D01*
X172264285Y-42853571D01*
X172050000Y-42853571D01*
X171907142Y-42925000D01*
X171835714Y-43067857D01*
X171835714Y-43853571D01*
X171835714Y-43067857D02*
X171764285Y-42925000D01*
X171621428Y-42853571D01*
X171407142Y-42853571D01*
X171264285Y-42925000D01*
X171192857Y-43067857D01*
X171192857Y-43853571D01*
X169907142Y-43782142D02*
X170050000Y-43853571D01*
X170335714Y-43853571D01*
X170478571Y-43782142D01*
X170550000Y-43639285D01*
X170550000Y-43067857D01*
X170478571Y-42925000D01*
X170335714Y-42853571D01*
X170050000Y-42853571D01*
X169907142Y-42925000D01*
X169835714Y-43067857D01*
X169835714Y-43210714D01*
X170550000Y-43353571D01*
X168192857Y-42853571D02*
X167907142Y-43853571D01*
X167621428Y-43139285D01*
X167335714Y-43853571D01*
X167050000Y-42853571D01*
X166478571Y-43853571D02*
X166478571Y-42353571D01*
X165835714Y-43853571D02*
X165835714Y-43067857D01*
X165907142Y-42925000D01*
X166050000Y-42853571D01*
X166264285Y-42853571D01*
X166407142Y-42925000D01*
X166478571Y-42996428D01*
X164550000Y-43782142D02*
X164692857Y-43853571D01*
X164978571Y-43853571D01*
X165121428Y-43782142D01*
X165192857Y-43639285D01*
X165192857Y-43067857D01*
X165121428Y-42925000D01*
X164978571Y-42853571D01*
X164692857Y-42853571D01*
X164550000Y-42925000D01*
X164478571Y-43067857D01*
X164478571Y-43210714D01*
X165192857Y-43353571D01*
X163835714Y-42853571D02*
X163835714Y-43853571D01*
X163835714Y-42996428D02*
X163764285Y-42925000D01*
X163621428Y-42853571D01*
X163407142Y-42853571D01*
X163264285Y-42925000D01*
X163192857Y-43067857D01*
X163192857Y-43853571D01*
X161335714Y-43853571D02*
X161335714Y-42353571D01*
X160478571Y-43853571D01*
X160478571Y-42353571D01*
X159478571Y-42353571D02*
X159192857Y-42353571D01*
X159050000Y-42425000D01*
X158907142Y-42567857D01*
X158835714Y-42853571D01*
X158835714Y-43353571D01*
X158907142Y-43639285D01*
X159050000Y-43782142D01*
X159192857Y-43853571D01*
X159478571Y-43853571D01*
X159621428Y-43782142D01*
X159764285Y-43639285D01*
X159835714Y-43353571D01*
X159835714Y-42853571D01*
X159764285Y-42567857D01*
X159621428Y-42425000D01*
X159478571Y-42353571D01*
X158407142Y-42353571D02*
X157550000Y-42353571D01*
X157978571Y-43853571D02*
X157978571Y-42353571D01*
X181050000Y-45403571D02*
X181050000Y-46403571D01*
X181692857Y-45403571D02*
X181692857Y-46189285D01*
X181621428Y-46332142D01*
X181478571Y-46403571D01*
X181264285Y-46403571D01*
X181121428Y-46332142D01*
X181050000Y-46260714D01*
X180407142Y-46332142D02*
X180264285Y-46403571D01*
X179978571Y-46403571D01*
X179835714Y-46332142D01*
X179764285Y-46189285D01*
X179764285Y-46117857D01*
X179835714Y-45975000D01*
X179978571Y-45903571D01*
X180192857Y-45903571D01*
X180335714Y-45832142D01*
X180407142Y-45689285D01*
X180407142Y-45617857D01*
X180335714Y-45475000D01*
X180192857Y-45403571D01*
X179978571Y-45403571D01*
X179835714Y-45475000D01*
X179121428Y-46403571D02*
X179121428Y-45403571D01*
X179121428Y-44903571D02*
X179192857Y-44975000D01*
X179121428Y-45046428D01*
X179050000Y-44975000D01*
X179121428Y-44903571D01*
X179121428Y-45046428D01*
X178407142Y-45403571D02*
X178407142Y-46403571D01*
X178407142Y-45546428D02*
X178335714Y-45475000D01*
X178192857Y-45403571D01*
X177978571Y-45403571D01*
X177835714Y-45475000D01*
X177764285Y-45617857D01*
X177764285Y-46403571D01*
X176407142Y-45403571D02*
X176407142Y-46617857D01*
X176478571Y-46760714D01*
X176550000Y-46832142D01*
X176692857Y-46903571D01*
X176907142Y-46903571D01*
X177050000Y-46832142D01*
X176407142Y-46332142D02*
X176550000Y-46403571D01*
X176835714Y-46403571D01*
X176978571Y-46332142D01*
X177050000Y-46260714D01*
X177121428Y-46117857D01*
X177121428Y-45689285D01*
X177050000Y-45546428D01*
X176978571Y-45475000D01*
X176835714Y-45403571D01*
X176550000Y-45403571D01*
X176407142Y-45475000D01*
X174550000Y-45403571D02*
X174550000Y-46903571D01*
X174550000Y-45475000D02*
X174407142Y-45403571D01*
X174121428Y-45403571D01*
X173978571Y-45475000D01*
X173907142Y-45546428D01*
X173835714Y-45689285D01*
X173835714Y-46117857D01*
X173907142Y-46260714D01*
X173978571Y-46332142D01*
X174121428Y-46403571D01*
X174407142Y-46403571D01*
X174550000Y-46332142D01*
X172978571Y-46403571D02*
X173121428Y-46332142D01*
X173192857Y-46260714D01*
X173264285Y-46117857D01*
X173264285Y-45689285D01*
X173192857Y-45546428D01*
X173121428Y-45475000D01*
X172978571Y-45403571D01*
X172764285Y-45403571D01*
X172621428Y-45475000D01*
X172550000Y-45546428D01*
X172478571Y-45689285D01*
X172478571Y-46117857D01*
X172550000Y-46260714D01*
X172621428Y-46332142D01*
X172764285Y-46403571D01*
X172978571Y-46403571D01*
X171978571Y-45403571D02*
X171692857Y-46403571D01*
X171407142Y-45689285D01*
X171121428Y-46403571D01*
X170835714Y-45403571D01*
X169692857Y-46332142D02*
X169835714Y-46403571D01*
X170121428Y-46403571D01*
X170264285Y-46332142D01*
X170335714Y-46189285D01*
X170335714Y-45617857D01*
X170264285Y-45475000D01*
X170121428Y-45403571D01*
X169835714Y-45403571D01*
X169692857Y-45475000D01*
X169621428Y-45617857D01*
X169621428Y-45760714D01*
X170335714Y-45903571D01*
X168978571Y-46403571D02*
X168978571Y-45403571D01*
X168978571Y-45689285D02*
X168907142Y-45546428D01*
X168835714Y-45475000D01*
X168692857Y-45403571D01*
X168550000Y-45403571D01*
X167478571Y-46332142D02*
X167621428Y-46403571D01*
X167907142Y-46403571D01*
X168050000Y-46332142D01*
X168121428Y-46189285D01*
X168121428Y-45617857D01*
X168050000Y-45475000D01*
X167907142Y-45403571D01*
X167621428Y-45403571D01*
X167478571Y-45475000D01*
X167407142Y-45617857D01*
X167407142Y-45760714D01*
X168121428Y-45903571D01*
X166121428Y-46403571D02*
X166121428Y-44903571D01*
X166121428Y-46332142D02*
X166264285Y-46403571D01*
X166550000Y-46403571D01*
X166692857Y-46332142D01*
X166764285Y-46260714D01*
X166835714Y-46117857D01*
X166835714Y-45689285D01*
X166764285Y-45546428D01*
X166692857Y-45475000D01*
X166550000Y-45403571D01*
X166264285Y-45403571D01*
X166121428Y-45475000D01*
X164264285Y-46403571D02*
X164264285Y-44903571D01*
X164264285Y-45475000D02*
X164121428Y-45403571D01*
X163835714Y-45403571D01*
X163692857Y-45475000D01*
X163621428Y-45546428D01*
X163550000Y-45689285D01*
X163550000Y-46117857D01*
X163621428Y-46260714D01*
X163692857Y-46332142D01*
X163835714Y-46403571D01*
X164121428Y-46403571D01*
X164264285Y-46332142D01*
X162264285Y-46403571D02*
X162264285Y-45617857D01*
X162335714Y-45475000D01*
X162478571Y-45403571D01*
X162764285Y-45403571D01*
X162907142Y-45475000D01*
X162264285Y-46332142D02*
X162407142Y-46403571D01*
X162764285Y-46403571D01*
X162907142Y-46332142D01*
X162978571Y-46189285D01*
X162978571Y-46046428D01*
X162907142Y-45903571D01*
X162764285Y-45832142D01*
X162407142Y-45832142D01*
X162264285Y-45760714D01*
X160907142Y-46332142D02*
X161050000Y-46403571D01*
X161335714Y-46403571D01*
X161478571Y-46332142D01*
X161550000Y-46260714D01*
X161621428Y-46117857D01*
X161621428Y-45689285D01*
X161550000Y-45546428D01*
X161478571Y-45475000D01*
X161335714Y-45403571D01*
X161050000Y-45403571D01*
X160907142Y-45475000D01*
X160264285Y-46403571D02*
X160264285Y-44903571D01*
X160121428Y-45832142D02*
X159692857Y-46403571D01*
X159692857Y-45403571D02*
X160264285Y-45975000D01*
X159050000Y-45403571D02*
X159050000Y-46903571D01*
X159050000Y-45475000D02*
X158907142Y-45403571D01*
X158621428Y-45403571D01*
X158478571Y-45475000D01*
X158407142Y-45546428D01*
X158335714Y-45689285D01*
X158335714Y-46117857D01*
X158407142Y-46260714D01*
X158478571Y-46332142D01*
X158621428Y-46403571D01*
X158907142Y-46403571D01*
X159050000Y-46332142D01*
X157478571Y-46403571D02*
X157621428Y-46332142D01*
X157692857Y-46189285D01*
X157692857Y-44903571D01*
X156264285Y-46403571D02*
X156264285Y-45617857D01*
X156335714Y-45475000D01*
X156478571Y-45403571D01*
X156764285Y-45403571D01*
X156907142Y-45475000D01*
X156264285Y-46332142D02*
X156407142Y-46403571D01*
X156764285Y-46403571D01*
X156907142Y-46332142D01*
X156978571Y-46189285D01*
X156978571Y-46046428D01*
X156907142Y-45903571D01*
X156764285Y-45832142D01*
X156407142Y-45832142D01*
X156264285Y-45760714D01*
X155550000Y-45403571D02*
X155550000Y-46403571D01*
X155550000Y-45546428D02*
X155478571Y-45475000D01*
X155335714Y-45403571D01*
X155121428Y-45403571D01*
X154978571Y-45475000D01*
X154907142Y-45617857D01*
X154907142Y-46403571D01*
X153621428Y-46332142D02*
X153764285Y-46403571D01*
X154050000Y-46403571D01*
X154192857Y-46332142D01*
X154264285Y-46189285D01*
X154264285Y-45617857D01*
X154192857Y-45475000D01*
X154050000Y-45403571D01*
X153764285Y-45403571D01*
X153621428Y-45475000D01*
X153550000Y-45617857D01*
X153550000Y-45760714D01*
X154264285Y-45903571D01*
X214673571Y-127552142D02*
X213173571Y-127552142D01*
X213173571Y-128123571D01*
X213245000Y-128266428D01*
X213316428Y-128337857D01*
X213459285Y-128409285D01*
X213673571Y-128409285D01*
X213816428Y-128337857D01*
X213887857Y-128266428D01*
X213959285Y-128123571D01*
X213959285Y-127552142D01*
X214673571Y-129052142D02*
X213673571Y-129052142D01*
X213173571Y-129052142D02*
X213245000Y-128980714D01*
X213316428Y-129052142D01*
X213245000Y-129123571D01*
X213173571Y-129052142D01*
X213316428Y-129052142D01*
X213673571Y-129766428D02*
X214673571Y-129766428D01*
X213816428Y-129766428D02*
X213745000Y-129837857D01*
X213673571Y-129980714D01*
X213673571Y-130195000D01*
X213745000Y-130337857D01*
X213887857Y-130409285D01*
X214673571Y-130409285D01*
X214673571Y-133052142D02*
X214673571Y-132195000D01*
X214673571Y-132623571D02*
X213173571Y-132623571D01*
X213387857Y-132480714D01*
X213530714Y-132337857D01*
X213602142Y-132195000D01*
D11*
X212725000Y-126365000D02*
X212725000Y-133985000D01*
X215265000Y-126365000D02*
X212725000Y-126365000D01*
X182880000Y-42545000D02*
X182880000Y-46355000D01*
X158750000Y-46990000D02*
X186055000Y-46990000D01*
X186055000Y-41910000D02*
X158750000Y-41910000D01*
X186055000Y-46990000D02*
X186055000Y-41910000D01*
X215265000Y-55245000D02*
X174625000Y-55245000D01*
D13*
X204770714Y-53590000D02*
X204056428Y-53590000D01*
X204913571Y-54018571D02*
X204413571Y-52518571D01*
X203913571Y-54018571D01*
X203413571Y-54018571D02*
X203413571Y-53018571D01*
X203413571Y-53304285D02*
X203342142Y-53161428D01*
X203270714Y-53090000D01*
X203127857Y-53018571D01*
X202985000Y-53018571D01*
X201842142Y-54018571D02*
X201842142Y-52518571D01*
X201842142Y-53947142D02*
X201985000Y-54018571D01*
X202270714Y-54018571D01*
X202413571Y-53947142D01*
X202485000Y-53875714D01*
X202556428Y-53732857D01*
X202556428Y-53304285D01*
X202485000Y-53161428D01*
X202413571Y-53090000D01*
X202270714Y-53018571D01*
X201985000Y-53018571D01*
X201842142Y-53090000D01*
X200485000Y-53018571D02*
X200485000Y-54018571D01*
X201127857Y-53018571D02*
X201127857Y-53804285D01*
X201056428Y-53947142D01*
X200913571Y-54018571D01*
X200699285Y-54018571D01*
X200556428Y-53947142D01*
X200485000Y-53875714D01*
X199770714Y-54018571D02*
X199770714Y-53018571D01*
X199770714Y-52518571D02*
X199842142Y-52590000D01*
X199770714Y-52661428D01*
X199699285Y-52590000D01*
X199770714Y-52518571D01*
X199770714Y-52661428D01*
X199056428Y-53018571D02*
X199056428Y-54018571D01*
X199056428Y-53161428D02*
X198985000Y-53090000D01*
X198842142Y-53018571D01*
X198627857Y-53018571D01*
X198485000Y-53090000D01*
X198413571Y-53232857D01*
X198413571Y-54018571D01*
X197485000Y-54018571D02*
X197627857Y-53947142D01*
X197699285Y-53875714D01*
X197770714Y-53732857D01*
X197770714Y-53304285D01*
X197699285Y-53161428D01*
X197627857Y-53090000D01*
X197485000Y-53018571D01*
X197270714Y-53018571D01*
X197127857Y-53090000D01*
X197056428Y-53161428D01*
X196985000Y-53304285D01*
X196985000Y-53732857D01*
X197056428Y-53875714D01*
X197127857Y-53947142D01*
X197270714Y-54018571D01*
X197485000Y-54018571D01*
X195199285Y-54018571D02*
X195199285Y-52518571D01*
X194342142Y-54018571D01*
X194342142Y-52518571D01*
X192985000Y-54018571D02*
X192985000Y-53232857D01*
X193056428Y-53090000D01*
X193199285Y-53018571D01*
X193485000Y-53018571D01*
X193627857Y-53090000D01*
X192985000Y-53947142D02*
X193127857Y-54018571D01*
X193485000Y-54018571D01*
X193627857Y-53947142D01*
X193699285Y-53804285D01*
X193699285Y-53661428D01*
X193627857Y-53518571D01*
X193485000Y-53447142D01*
X193127857Y-53447142D01*
X192985000Y-53375714D01*
X192270714Y-53018571D02*
X192270714Y-54018571D01*
X192270714Y-53161428D02*
X192199285Y-53090000D01*
X192056428Y-53018571D01*
X191842142Y-53018571D01*
X191699285Y-53090000D01*
X191627857Y-53232857D01*
X191627857Y-54018571D01*
X190699285Y-54018571D02*
X190842142Y-53947142D01*
X190913571Y-53875714D01*
X190985000Y-53732857D01*
X190985000Y-53304285D01*
X190913571Y-53161428D01*
X190842142Y-53090000D01*
X190699285Y-53018571D01*
X190485000Y-53018571D01*
X190342142Y-53090000D01*
X190270714Y-53161428D01*
X190199285Y-53304285D01*
X190199285Y-53732857D01*
X190270714Y-53875714D01*
X190342142Y-53947142D01*
X190485000Y-54018571D01*
X190699285Y-54018571D01*
X213220714Y-57675714D02*
X213292142Y-57747142D01*
X213506428Y-57818571D01*
X213649285Y-57818571D01*
X213863571Y-57747142D01*
X214006428Y-57604285D01*
X214077857Y-57461428D01*
X214149285Y-57175714D01*
X214149285Y-56961428D01*
X214077857Y-56675714D01*
X214006428Y-56532857D01*
X213863571Y-56390000D01*
X213649285Y-56318571D01*
X213506428Y-56318571D01*
X213292142Y-56390000D01*
X213220714Y-56461428D01*
X212363571Y-57818571D02*
X212506428Y-57747142D01*
X212577857Y-57675714D01*
X212649285Y-57532857D01*
X212649285Y-57104285D01*
X212577857Y-56961428D01*
X212506428Y-56890000D01*
X212363571Y-56818571D01*
X212149285Y-56818571D01*
X212006428Y-56890000D01*
X211935000Y-56961428D01*
X211863571Y-57104285D01*
X211863571Y-57532857D01*
X211935000Y-57675714D01*
X212006428Y-57747142D01*
X212149285Y-57818571D01*
X212363571Y-57818571D01*
X211220714Y-57818571D02*
X211220714Y-56818571D01*
X211220714Y-56961428D02*
X211149285Y-56890000D01*
X211006428Y-56818571D01*
X210792142Y-56818571D01*
X210649285Y-56890000D01*
X210577857Y-57032857D01*
X210577857Y-57818571D01*
X210577857Y-57032857D02*
X210506428Y-56890000D01*
X210363571Y-56818571D01*
X210149285Y-56818571D01*
X210006428Y-56890000D01*
X209935000Y-57032857D01*
X209935000Y-57818571D01*
X209220714Y-56818571D02*
X209220714Y-58318571D01*
X209220714Y-56890000D02*
X209077857Y-56818571D01*
X208792142Y-56818571D01*
X208649285Y-56890000D01*
X208577857Y-56961428D01*
X208506428Y-57104285D01*
X208506428Y-57532857D01*
X208577857Y-57675714D01*
X208649285Y-57747142D01*
X208792142Y-57818571D01*
X209077857Y-57818571D01*
X209220714Y-57747142D01*
X207863571Y-57818571D02*
X207863571Y-56818571D01*
X207863571Y-56318571D02*
X207935000Y-56390000D01*
X207863571Y-56461428D01*
X207792142Y-56390000D01*
X207863571Y-56318571D01*
X207863571Y-56461428D01*
X206935000Y-57818571D02*
X207077857Y-57747142D01*
X207149285Y-57604285D01*
X207149285Y-56318571D01*
X205792142Y-57747142D02*
X205935000Y-57818571D01*
X206220714Y-57818571D01*
X206363571Y-57747142D01*
X206435000Y-57604285D01*
X206435000Y-57032857D01*
X206363571Y-56890000D01*
X206220714Y-56818571D01*
X205935000Y-56818571D01*
X205792142Y-56890000D01*
X205720714Y-57032857D01*
X205720714Y-57175714D01*
X206435000Y-57318571D01*
X205006428Y-57747142D02*
X205006428Y-57818571D01*
X205077857Y-57961428D01*
X205149285Y-58032857D01*
X202577857Y-56818571D02*
X202577857Y-57818571D01*
X203220714Y-56818571D02*
X203220714Y-57604285D01*
X203149285Y-57747142D01*
X203006428Y-57818571D01*
X202792142Y-57818571D01*
X202649285Y-57747142D01*
X202577857Y-57675714D01*
X201863571Y-56818571D02*
X201863571Y-58318571D01*
X201863571Y-56890000D02*
X201720714Y-56818571D01*
X201435000Y-56818571D01*
X201292142Y-56890000D01*
X201220714Y-56961428D01*
X201149285Y-57104285D01*
X201149285Y-57532857D01*
X201220714Y-57675714D01*
X201292142Y-57747142D01*
X201435000Y-57818571D01*
X201720714Y-57818571D01*
X201863571Y-57747142D01*
X200292142Y-57818571D02*
X200435000Y-57747142D01*
X200506428Y-57604285D01*
X200506428Y-56318571D01*
X199506428Y-57818571D02*
X199649285Y-57747142D01*
X199720714Y-57675714D01*
X199792142Y-57532857D01*
X199792142Y-57104285D01*
X199720714Y-56961428D01*
X199649285Y-56890000D01*
X199506428Y-56818571D01*
X199292142Y-56818571D01*
X199149285Y-56890000D01*
X199077857Y-56961428D01*
X199006428Y-57104285D01*
X199006428Y-57532857D01*
X199077857Y-57675714D01*
X199149285Y-57747142D01*
X199292142Y-57818571D01*
X199506428Y-57818571D01*
X197720714Y-57818571D02*
X197720714Y-57032857D01*
X197792142Y-56890000D01*
X197935000Y-56818571D01*
X198220714Y-56818571D01*
X198363571Y-56890000D01*
X197720714Y-57747142D02*
X197863571Y-57818571D01*
X198220714Y-57818571D01*
X198363571Y-57747142D01*
X198435000Y-57604285D01*
X198435000Y-57461428D01*
X198363571Y-57318571D01*
X198220714Y-57247142D01*
X197863571Y-57247142D01*
X197720714Y-57175714D01*
X196363571Y-57818571D02*
X196363571Y-56318571D01*
X196363571Y-57747142D02*
X196506428Y-57818571D01*
X196792142Y-57818571D01*
X196935000Y-57747142D01*
X197006428Y-57675714D01*
X197077857Y-57532857D01*
X197077857Y-57104285D01*
X197006428Y-56961428D01*
X196935000Y-56890000D01*
X196792142Y-56818571D01*
X196506428Y-56818571D01*
X196363571Y-56890000D01*
X193863571Y-57818571D02*
X193863571Y-57032857D01*
X193935000Y-56890000D01*
X194077857Y-56818571D01*
X194363571Y-56818571D01*
X194506428Y-56890000D01*
X193863571Y-57747142D02*
X194006428Y-57818571D01*
X194363571Y-57818571D01*
X194506428Y-57747142D01*
X194577857Y-57604285D01*
X194577857Y-57461428D01*
X194506428Y-57318571D01*
X194363571Y-57247142D01*
X194006428Y-57247142D01*
X193863571Y-57175714D01*
X193149285Y-56818571D02*
X193149285Y-57818571D01*
X193149285Y-56961428D02*
X193077857Y-56890000D01*
X192935000Y-56818571D01*
X192720714Y-56818571D01*
X192577857Y-56890000D01*
X192506428Y-57032857D01*
X192506428Y-57818571D01*
X191149285Y-57818571D02*
X191149285Y-56318571D01*
X191149285Y-57747142D02*
X191292142Y-57818571D01*
X191577857Y-57818571D01*
X191720714Y-57747142D01*
X191792142Y-57675714D01*
X191863571Y-57532857D01*
X191863571Y-57104285D01*
X191792142Y-56961428D01*
X191720714Y-56890000D01*
X191577857Y-56818571D01*
X191292142Y-56818571D01*
X191149285Y-56890000D01*
X213506428Y-60297142D02*
X213649285Y-60368571D01*
X213935000Y-60368571D01*
X214077857Y-60297142D01*
X214149285Y-60154285D01*
X214149285Y-59582857D01*
X214077857Y-59440000D01*
X213935000Y-59368571D01*
X213649285Y-59368571D01*
X213506428Y-59440000D01*
X213435000Y-59582857D01*
X213435000Y-59725714D01*
X214149285Y-59868571D01*
X212792142Y-59368571D02*
X212792142Y-60368571D01*
X212792142Y-59511428D02*
X212720714Y-59440000D01*
X212577857Y-59368571D01*
X212363571Y-59368571D01*
X212220714Y-59440000D01*
X212149285Y-59582857D01*
X212149285Y-60368571D01*
X211435000Y-59368571D02*
X211435000Y-60654285D01*
X211506428Y-60797142D01*
X211649285Y-60868571D01*
X211720714Y-60868571D01*
X211435000Y-58868571D02*
X211506428Y-58940000D01*
X211435000Y-59011428D01*
X211363571Y-58940000D01*
X211435000Y-58868571D01*
X211435000Y-59011428D01*
X210506428Y-60368571D02*
X210649285Y-60297142D01*
X210720714Y-60225714D01*
X210792142Y-60082857D01*
X210792142Y-59654285D01*
X210720714Y-59511428D01*
X210649285Y-59440000D01*
X210506428Y-59368571D01*
X210292142Y-59368571D01*
X210149285Y-59440000D01*
X210077857Y-59511428D01*
X210006428Y-59654285D01*
X210006428Y-60082857D01*
X210077857Y-60225714D01*
X210149285Y-60297142D01*
X210292142Y-60368571D01*
X210506428Y-60368571D01*
X209506428Y-59368571D02*
X209149285Y-60368571D01*
X208792142Y-59368571D02*
X209149285Y-60368571D01*
X209292142Y-60725714D01*
X209363571Y-60797142D01*
X209506428Y-60868571D01*
X206435000Y-60297142D02*
X206577857Y-60368571D01*
X206863571Y-60368571D01*
X207006428Y-60297142D01*
X207077857Y-60225714D01*
X207149285Y-60082857D01*
X207149285Y-59654285D01*
X207077857Y-59511428D01*
X207006428Y-59440000D01*
X206863571Y-59368571D01*
X206577857Y-59368571D01*
X206435000Y-59440000D01*
X205577857Y-60368571D02*
X205720714Y-60297142D01*
X205792142Y-60225714D01*
X205863571Y-60082857D01*
X205863571Y-59654285D01*
X205792142Y-59511428D01*
X205720714Y-59440000D01*
X205577857Y-59368571D01*
X205363571Y-59368571D01*
X205220714Y-59440000D01*
X205149285Y-59511428D01*
X205077857Y-59654285D01*
X205077857Y-60082857D01*
X205149285Y-60225714D01*
X205220714Y-60297142D01*
X205363571Y-60368571D01*
X205577857Y-60368571D01*
X204435000Y-60368571D02*
X204435000Y-59368571D01*
X204435000Y-59511428D02*
X204363571Y-59440000D01*
X204220714Y-59368571D01*
X204006428Y-59368571D01*
X203863571Y-59440000D01*
X203792142Y-59582857D01*
X203792142Y-60368571D01*
X203792142Y-59582857D02*
X203720714Y-59440000D01*
X203577857Y-59368571D01*
X203363571Y-59368571D01*
X203220714Y-59440000D01*
X203149285Y-59582857D01*
X203149285Y-60368571D01*
X202435000Y-60368571D02*
X202435000Y-59368571D01*
X202435000Y-59511428D02*
X202363571Y-59440000D01*
X202220714Y-59368571D01*
X202006428Y-59368571D01*
X201863571Y-59440000D01*
X201792142Y-59582857D01*
X201792142Y-60368571D01*
X201792142Y-59582857D02*
X201720714Y-59440000D01*
X201577857Y-59368571D01*
X201363571Y-59368571D01*
X201220714Y-59440000D01*
X201149285Y-59582857D01*
X201149285Y-60368571D01*
X199792142Y-59368571D02*
X199792142Y-60368571D01*
X200435000Y-59368571D02*
X200435000Y-60154285D01*
X200363571Y-60297142D01*
X200220714Y-60368571D01*
X200006428Y-60368571D01*
X199863571Y-60297142D01*
X199792142Y-60225714D01*
X199077857Y-59368571D02*
X199077857Y-60368571D01*
X199077857Y-59511428D02*
X199006428Y-59440000D01*
X198863571Y-59368571D01*
X198649285Y-59368571D01*
X198506428Y-59440000D01*
X198435000Y-59582857D01*
X198435000Y-60368571D01*
X197720714Y-60368571D02*
X197720714Y-59368571D01*
X197720714Y-58868571D02*
X197792142Y-58940000D01*
X197720714Y-59011428D01*
X197649285Y-58940000D01*
X197720714Y-58868571D01*
X197720714Y-59011428D01*
X196363571Y-60297142D02*
X196506428Y-60368571D01*
X196792142Y-60368571D01*
X196935000Y-60297142D01*
X197006428Y-60225714D01*
X197077857Y-60082857D01*
X197077857Y-59654285D01*
X197006428Y-59511428D01*
X196935000Y-59440000D01*
X196792142Y-59368571D01*
X196506428Y-59368571D01*
X196363571Y-59440000D01*
X195077857Y-60368571D02*
X195077857Y-59582857D01*
X195149285Y-59440000D01*
X195292142Y-59368571D01*
X195577857Y-59368571D01*
X195720714Y-59440000D01*
X195077857Y-60297142D02*
X195220714Y-60368571D01*
X195577857Y-60368571D01*
X195720714Y-60297142D01*
X195792142Y-60154285D01*
X195792142Y-60011428D01*
X195720714Y-59868571D01*
X195577857Y-59797142D01*
X195220714Y-59797142D01*
X195077857Y-59725714D01*
X194577857Y-59368571D02*
X194006428Y-59368571D01*
X194363571Y-58868571D02*
X194363571Y-60154285D01*
X194292142Y-60297142D01*
X194149285Y-60368571D01*
X194006428Y-60368571D01*
X193506428Y-60368571D02*
X193506428Y-59368571D01*
X193506428Y-58868571D02*
X193577857Y-58940000D01*
X193506428Y-59011428D01*
X193435000Y-58940000D01*
X193506428Y-58868571D01*
X193506428Y-59011428D01*
X192577857Y-60368571D02*
X192720714Y-60297142D01*
X192792142Y-60225714D01*
X192863571Y-60082857D01*
X192863571Y-59654285D01*
X192792142Y-59511428D01*
X192720714Y-59440000D01*
X192577857Y-59368571D01*
X192363571Y-59368571D01*
X192220714Y-59440000D01*
X192149285Y-59511428D01*
X192077857Y-59654285D01*
X192077857Y-60082857D01*
X192149285Y-60225714D01*
X192220714Y-60297142D01*
X192363571Y-60368571D01*
X192577857Y-60368571D01*
X191435000Y-59368571D02*
X191435000Y-60368571D01*
X191435000Y-59511428D02*
X191363571Y-59440000D01*
X191220714Y-59368571D01*
X191006428Y-59368571D01*
X190863571Y-59440000D01*
X190792142Y-59582857D01*
X190792142Y-60368571D01*
X213863571Y-62918571D02*
X214006428Y-62847142D01*
X214077857Y-62775714D01*
X214149285Y-62632857D01*
X214149285Y-62204285D01*
X214077857Y-62061428D01*
X214006428Y-61990000D01*
X213863571Y-61918571D01*
X213649285Y-61918571D01*
X213506428Y-61990000D01*
X213435000Y-62061428D01*
X213363571Y-62204285D01*
X213363571Y-62632857D01*
X213435000Y-62775714D01*
X213506428Y-62847142D01*
X213649285Y-62918571D01*
X213863571Y-62918571D01*
X212720714Y-61918571D02*
X212720714Y-62918571D01*
X212720714Y-62061428D02*
X212649285Y-61990000D01*
X212506428Y-61918571D01*
X212292142Y-61918571D01*
X212149285Y-61990000D01*
X212077857Y-62132857D01*
X212077857Y-62918571D01*
X210363571Y-61918571D02*
X210006428Y-62918571D01*
X209649285Y-61918571D02*
X210006428Y-62918571D01*
X210149285Y-63275714D01*
X210220714Y-63347142D01*
X210363571Y-63418571D01*
X208863571Y-62918571D02*
X209006428Y-62847142D01*
X209077857Y-62775714D01*
X209149285Y-62632857D01*
X209149285Y-62204285D01*
X209077857Y-62061428D01*
X209006428Y-61990000D01*
X208863571Y-61918571D01*
X208649285Y-61918571D01*
X208506428Y-61990000D01*
X208435000Y-62061428D01*
X208363571Y-62204285D01*
X208363571Y-62632857D01*
X208435000Y-62775714D01*
X208506428Y-62847142D01*
X208649285Y-62918571D01*
X208863571Y-62918571D01*
X207077857Y-61918571D02*
X207077857Y-62918571D01*
X207720714Y-61918571D02*
X207720714Y-62704285D01*
X207649285Y-62847142D01*
X207506428Y-62918571D01*
X207292142Y-62918571D01*
X207149285Y-62847142D01*
X207077857Y-62775714D01*
X206363571Y-62918571D02*
X206363571Y-61918571D01*
X206363571Y-62204285D02*
X206292142Y-62061428D01*
X206220714Y-61990000D01*
X206077857Y-61918571D01*
X205935000Y-61918571D01*
X204077857Y-62918571D02*
X204220714Y-62847142D01*
X204292142Y-62775714D01*
X204363571Y-62632857D01*
X204363571Y-62204285D01*
X204292142Y-62061428D01*
X204220714Y-61990000D01*
X204077857Y-61918571D01*
X203863571Y-61918571D01*
X203720714Y-61990000D01*
X203649285Y-62061428D01*
X203577857Y-62204285D01*
X203577857Y-62632857D01*
X203649285Y-62775714D01*
X203720714Y-62847142D01*
X203863571Y-62918571D01*
X204077857Y-62918571D01*
X203077857Y-61918571D02*
X202792142Y-62918571D01*
X202506428Y-62204285D01*
X202220714Y-62918571D01*
X201935000Y-61918571D01*
X201363571Y-61918571D02*
X201363571Y-62918571D01*
X201363571Y-62061428D02*
X201292142Y-61990000D01*
X201149285Y-61918571D01*
X200935000Y-61918571D01*
X200792142Y-61990000D01*
X200720714Y-62132857D01*
X200720714Y-62918571D01*
X199077857Y-61918571D02*
X198506428Y-61918571D01*
X198863571Y-61418571D02*
X198863571Y-62704285D01*
X198792142Y-62847142D01*
X198649285Y-62918571D01*
X198506428Y-62918571D01*
X197435000Y-62847142D02*
X197577857Y-62918571D01*
X197863571Y-62918571D01*
X198006428Y-62847142D01*
X198077857Y-62704285D01*
X198077857Y-62132857D01*
X198006428Y-61990000D01*
X197863571Y-61918571D01*
X197577857Y-61918571D01*
X197435000Y-61990000D01*
X197363571Y-62132857D01*
X197363571Y-62275714D01*
X198077857Y-62418571D01*
X196720714Y-62918571D02*
X196720714Y-61918571D01*
X196720714Y-62204285D02*
X196649285Y-62061428D01*
X196577857Y-61990000D01*
X196435000Y-61918571D01*
X196292142Y-61918571D01*
X195792142Y-62918571D02*
X195792142Y-61918571D01*
X195792142Y-62061428D02*
X195720714Y-61990000D01*
X195577857Y-61918571D01*
X195363571Y-61918571D01*
X195220714Y-61990000D01*
X195149285Y-62132857D01*
X195149285Y-62918571D01*
X195149285Y-62132857D02*
X195077857Y-61990000D01*
X194935000Y-61918571D01*
X194720714Y-61918571D01*
X194577857Y-61990000D01*
X194506428Y-62132857D01*
X194506428Y-62918571D01*
X193863571Y-62847142D02*
X193720714Y-62918571D01*
X193435000Y-62918571D01*
X193292142Y-62847142D01*
X193220714Y-62704285D01*
X193220714Y-62632857D01*
X193292142Y-62490000D01*
X193435000Y-62418571D01*
X193649285Y-62418571D01*
X193792142Y-62347142D01*
X193863571Y-62204285D01*
X193863571Y-62132857D01*
X193792142Y-61990000D01*
X193649285Y-61918571D01*
X193435000Y-61918571D01*
X193292142Y-61990000D01*
X192577857Y-62775714D02*
X192506428Y-62847142D01*
X192577857Y-62918571D01*
X192649285Y-62847142D01*
X192577857Y-62775714D01*
X192577857Y-62918571D01*
X192577857Y-62347142D02*
X192649285Y-61490000D01*
X192577857Y-61418571D01*
X192506428Y-61490000D01*
X192577857Y-62347142D01*
X192577857Y-61418571D01*
D11*
X174625000Y-64135000D02*
X174625000Y-51435000D01*
X215265000Y-64135000D02*
X174625000Y-64135000D01*
X215265000Y-51435000D02*
X215265000Y-64135000D01*
X174625000Y-51435000D02*
X215265000Y-51435000D01*
X150008095Y-49099523D02*
X148708095Y-49099523D01*
X148708095Y-49594761D01*
X148770000Y-49718571D01*
X148831904Y-49780476D01*
X148955714Y-49842380D01*
X149141428Y-49842380D01*
X149265238Y-49780476D01*
X149327142Y-49718571D01*
X149389047Y-49594761D01*
X149389047Y-49099523D01*
X150008095Y-50585238D02*
X149946190Y-50461428D01*
X149884285Y-50399523D01*
X149760476Y-50337619D01*
X149389047Y-50337619D01*
X149265238Y-50399523D01*
X149203333Y-50461428D01*
X149141428Y-50585238D01*
X149141428Y-50770952D01*
X149203333Y-50894761D01*
X149265238Y-50956666D01*
X149389047Y-51018571D01*
X149760476Y-51018571D01*
X149884285Y-50956666D01*
X149946190Y-50894761D01*
X150008095Y-50770952D01*
X150008095Y-50585238D01*
X149141428Y-51451904D02*
X150008095Y-51699523D01*
X149389047Y-51947142D01*
X150008095Y-52194761D01*
X149141428Y-52442380D01*
X149946190Y-53432857D02*
X150008095Y-53309047D01*
X150008095Y-53061428D01*
X149946190Y-52937619D01*
X149822380Y-52875714D01*
X149327142Y-52875714D01*
X149203333Y-52937619D01*
X149141428Y-53061428D01*
X149141428Y-53309047D01*
X149203333Y-53432857D01*
X149327142Y-53494761D01*
X149450952Y-53494761D01*
X149574761Y-52875714D01*
X150008095Y-54051904D02*
X149141428Y-54051904D01*
X149389047Y-54051904D02*
X149265238Y-54113809D01*
X149203333Y-54175714D01*
X149141428Y-54299523D01*
X149141428Y-54423333D01*
X150008095Y-56032857D02*
X149946190Y-55909047D01*
X149884285Y-55847142D01*
X149760476Y-55785238D01*
X149389047Y-55785238D01*
X149265238Y-55847142D01*
X149203333Y-55909047D01*
X149141428Y-56032857D01*
X149141428Y-56218571D01*
X149203333Y-56342380D01*
X149265238Y-56404285D01*
X149389047Y-56466190D01*
X149760476Y-56466190D01*
X149884285Y-56404285D01*
X149946190Y-56342380D01*
X150008095Y-56218571D01*
X150008095Y-56032857D01*
X149141428Y-57023333D02*
X150008095Y-57023333D01*
X149265238Y-57023333D02*
X149203333Y-57085238D01*
X149141428Y-57209047D01*
X149141428Y-57394761D01*
X149203333Y-57518571D01*
X149327142Y-57580476D01*
X150008095Y-57580476D01*
X152158095Y-51235238D02*
X151291428Y-51235238D01*
X151539047Y-51235238D02*
X151415238Y-51297142D01*
X151353333Y-51359047D01*
X151291428Y-51482857D01*
X151291428Y-51606666D01*
X152096190Y-52535238D02*
X152158095Y-52411428D01*
X152158095Y-52163809D01*
X152096190Y-52040000D01*
X151972380Y-51978095D01*
X151477142Y-51978095D01*
X151353333Y-52040000D01*
X151291428Y-52163809D01*
X151291428Y-52411428D01*
X151353333Y-52535238D01*
X151477142Y-52597142D01*
X151600952Y-52597142D01*
X151724761Y-51978095D01*
X152096190Y-53092380D02*
X152158095Y-53216190D01*
X152158095Y-53463809D01*
X152096190Y-53587619D01*
X151972380Y-53649523D01*
X151910476Y-53649523D01*
X151786666Y-53587619D01*
X151724761Y-53463809D01*
X151724761Y-53278095D01*
X151662857Y-53154285D01*
X151539047Y-53092380D01*
X151477142Y-53092380D01*
X151353333Y-53154285D01*
X151291428Y-53278095D01*
X151291428Y-53463809D01*
X151353333Y-53587619D01*
X152096190Y-54701904D02*
X152158095Y-54578095D01*
X152158095Y-54330476D01*
X152096190Y-54206666D01*
X151972380Y-54144761D01*
X151477142Y-54144761D01*
X151353333Y-54206666D01*
X151291428Y-54330476D01*
X151291428Y-54578095D01*
X151353333Y-54701904D01*
X151477142Y-54763809D01*
X151600952Y-54763809D01*
X151724761Y-54144761D01*
X151291428Y-55135238D02*
X151291428Y-55630476D01*
X150858095Y-55320952D02*
X151972380Y-55320952D01*
X152096190Y-55382857D01*
X152158095Y-55506666D01*
X152158095Y-55630476D01*
X153035000Y-48260000D02*
X147955000Y-48260000D01*
X153035000Y-58420000D02*
X153035000Y-48260000D01*
X147955000Y-58420000D02*
X153035000Y-58420000D01*
X147955000Y-48260000D02*
X147955000Y-58420000D01*
D13*
X139294285Y-53942142D02*
X139080000Y-54013571D01*
X138722857Y-54013571D01*
X138580000Y-53942142D01*
X138508571Y-53870714D01*
X138437142Y-53727857D01*
X138437142Y-53585000D01*
X138508571Y-53442142D01*
X138580000Y-53370714D01*
X138722857Y-53299285D01*
X139008571Y-53227857D01*
X139151428Y-53156428D01*
X139222857Y-53085000D01*
X139294285Y-52942142D01*
X139294285Y-52799285D01*
X139222857Y-52656428D01*
X139151428Y-52585000D01*
X139008571Y-52513571D01*
X138651428Y-52513571D01*
X138437142Y-52585000D01*
X137937142Y-53013571D02*
X137580000Y-54013571D01*
X137222857Y-53013571D02*
X137580000Y-54013571D01*
X137722857Y-54370714D01*
X137794285Y-54442142D01*
X137937142Y-54513571D01*
X136722857Y-53942142D02*
X136580000Y-54013571D01*
X136294285Y-54013571D01*
X136151428Y-53942142D01*
X136080000Y-53799285D01*
X136080000Y-53727857D01*
X136151428Y-53585000D01*
X136294285Y-53513571D01*
X136508571Y-53513571D01*
X136651428Y-53442142D01*
X136722857Y-53299285D01*
X136722857Y-53227857D01*
X136651428Y-53085000D01*
X136508571Y-53013571D01*
X136294285Y-53013571D01*
X136151428Y-53085000D01*
X135651428Y-53013571D02*
X135080000Y-53013571D01*
X135437142Y-52513571D02*
X135437142Y-53799285D01*
X135365714Y-53942142D01*
X135222857Y-54013571D01*
X135080000Y-54013571D01*
X134008571Y-53942142D02*
X134151428Y-54013571D01*
X134437142Y-54013571D01*
X134580000Y-53942142D01*
X134651428Y-53799285D01*
X134651428Y-53227857D01*
X134580000Y-53085000D01*
X134437142Y-53013571D01*
X134151428Y-53013571D01*
X134008571Y-53085000D01*
X133937142Y-53227857D01*
X133937142Y-53370714D01*
X134651428Y-53513571D01*
X133294285Y-54013571D02*
X133294285Y-53013571D01*
X133294285Y-53156428D02*
X133222857Y-53085000D01*
X133080000Y-53013571D01*
X132865714Y-53013571D01*
X132722857Y-53085000D01*
X132651428Y-53227857D01*
X132651428Y-54013571D01*
X132651428Y-53227857D02*
X132580000Y-53085000D01*
X132437142Y-53013571D01*
X132222857Y-53013571D01*
X132080000Y-53085000D01*
X132008571Y-53227857D01*
X132008571Y-54013571D01*
X129508571Y-53942142D02*
X129651428Y-54013571D01*
X129937142Y-54013571D01*
X130080000Y-53942142D01*
X130151428Y-53870714D01*
X130222857Y-53727857D01*
X130222857Y-53299285D01*
X130151428Y-53156428D01*
X130080000Y-53085000D01*
X129937142Y-53013571D01*
X129651428Y-53013571D01*
X129508571Y-53085000D01*
X128651428Y-54013571D02*
X128794285Y-53942142D01*
X128865714Y-53799285D01*
X128865714Y-52513571D01*
X127865714Y-54013571D02*
X128008571Y-53942142D01*
X128080000Y-53870714D01*
X128151428Y-53727857D01*
X128151428Y-53299285D01*
X128080000Y-53156428D01*
X128008571Y-53085000D01*
X127865714Y-53013571D01*
X127651428Y-53013571D01*
X127508571Y-53085000D01*
X127437142Y-53156428D01*
X127365714Y-53299285D01*
X127365714Y-53727857D01*
X127437142Y-53870714D01*
X127508571Y-53942142D01*
X127651428Y-54013571D01*
X127865714Y-54013571D01*
X126080000Y-53942142D02*
X126222857Y-54013571D01*
X126508571Y-54013571D01*
X126651428Y-53942142D01*
X126722857Y-53870714D01*
X126794285Y-53727857D01*
X126794285Y-53299285D01*
X126722857Y-53156428D01*
X126651428Y-53085000D01*
X126508571Y-53013571D01*
X126222857Y-53013571D01*
X126080000Y-53085000D01*
X125437142Y-54013571D02*
X125437142Y-52513571D01*
X125294285Y-53442142D02*
X124865714Y-54013571D01*
X124865714Y-53013571D02*
X125437142Y-53585000D01*
X140258571Y-56563571D02*
X141115714Y-56563571D01*
X140687142Y-56563571D02*
X140687142Y-55063571D01*
X140830000Y-55277857D01*
X140972857Y-55420714D01*
X141115714Y-55492142D01*
X138472857Y-56563571D02*
X138472857Y-55063571D01*
X137972857Y-56135000D01*
X137472857Y-55063571D01*
X137472857Y-56563571D01*
X136758571Y-56563571D02*
X136758571Y-55063571D01*
X136115714Y-56563571D02*
X136115714Y-55777857D01*
X136187142Y-55635000D01*
X136330000Y-55563571D01*
X136544285Y-55563571D01*
X136687142Y-55635000D01*
X136758571Y-55706428D01*
X135544285Y-55563571D02*
X134758571Y-55563571D01*
X135544285Y-56563571D01*
X134758571Y-56563571D01*
X132830000Y-56563571D02*
X132972857Y-56492142D01*
X133044285Y-56420714D01*
X133115714Y-56277857D01*
X133115714Y-55849285D01*
X133044285Y-55706428D01*
X132972857Y-55635000D01*
X132830000Y-55563571D01*
X132615714Y-55563571D01*
X132472857Y-55635000D01*
X132401428Y-55706428D01*
X132330000Y-55849285D01*
X132330000Y-56277857D01*
X132401428Y-56420714D01*
X132472857Y-56492142D01*
X132615714Y-56563571D01*
X132830000Y-56563571D01*
X131758571Y-56492142D02*
X131615714Y-56563571D01*
X131330000Y-56563571D01*
X131187142Y-56492142D01*
X131115714Y-56349285D01*
X131115714Y-56277857D01*
X131187142Y-56135000D01*
X131330000Y-56063571D01*
X131544285Y-56063571D01*
X131687142Y-55992142D01*
X131758571Y-55849285D01*
X131758571Y-55777857D01*
X131687142Y-55635000D01*
X131544285Y-55563571D01*
X131330000Y-55563571D01*
X131187142Y-55635000D01*
X129830000Y-56492142D02*
X129972857Y-56563571D01*
X130258571Y-56563571D01*
X130401428Y-56492142D01*
X130472857Y-56420714D01*
X130544285Y-56277857D01*
X130544285Y-55849285D01*
X130472857Y-55706428D01*
X130401428Y-55635000D01*
X130258571Y-55563571D01*
X129972857Y-55563571D01*
X129830000Y-55635000D01*
X129187142Y-56563571D02*
X129187142Y-55563571D01*
X129187142Y-55063571D02*
X129258571Y-55135000D01*
X129187142Y-55206428D01*
X129115714Y-55135000D01*
X129187142Y-55063571D01*
X129187142Y-55206428D01*
X128258571Y-56563571D02*
X128401428Y-56492142D01*
X128472857Y-56349285D01*
X128472857Y-55063571D01*
X127472857Y-56563571D02*
X127615714Y-56492142D01*
X127687142Y-56349285D01*
X127687142Y-55063571D01*
X126258571Y-56563571D02*
X126258571Y-55777857D01*
X126330000Y-55635000D01*
X126472857Y-55563571D01*
X126758571Y-55563571D01*
X126901428Y-55635000D01*
X126258571Y-56492142D02*
X126401428Y-56563571D01*
X126758571Y-56563571D01*
X126901428Y-56492142D01*
X126972857Y-56349285D01*
X126972857Y-56206428D01*
X126901428Y-56063571D01*
X126758571Y-55992142D01*
X126401428Y-55992142D01*
X126258571Y-55920714D01*
X125758571Y-55563571D02*
X125187142Y-55563571D01*
X125544285Y-55063571D02*
X125544285Y-56349285D01*
X125472857Y-56492142D01*
X125330000Y-56563571D01*
X125187142Y-56563571D01*
X124472857Y-56563571D02*
X124615714Y-56492142D01*
X124687142Y-56420714D01*
X124758571Y-56277857D01*
X124758571Y-55849285D01*
X124687142Y-55706428D01*
X124615714Y-55635000D01*
X124472857Y-55563571D01*
X124258571Y-55563571D01*
X124115714Y-55635000D01*
X124044285Y-55706428D01*
X123972857Y-55849285D01*
X123972857Y-56277857D01*
X124044285Y-56420714D01*
X124115714Y-56492142D01*
X124258571Y-56563571D01*
X124472857Y-56563571D01*
X123330000Y-56563571D02*
X123330000Y-55563571D01*
X123330000Y-55849285D02*
X123258571Y-55706428D01*
X123187142Y-55635000D01*
X123044285Y-55563571D01*
X122901428Y-55563571D01*
D11*
X142875000Y-60960000D02*
X122555000Y-60960000D01*
X142875000Y-48260000D02*
X142875000Y-60960000D01*
X122555000Y-48260000D02*
X142875000Y-48260000D01*
X122555000Y-60960000D02*
X122555000Y-48260000D01*
D13*
X153041428Y-69465000D02*
X152327142Y-69465000D01*
X153184285Y-69893571D02*
X152684285Y-68393571D01*
X152184285Y-69893571D01*
X151684285Y-69893571D02*
X151684285Y-68893571D01*
X151684285Y-69179285D02*
X151612857Y-69036428D01*
X151541428Y-68965000D01*
X151398571Y-68893571D01*
X151255714Y-68893571D01*
X150112857Y-69893571D02*
X150112857Y-68393571D01*
X150112857Y-69822142D02*
X150255714Y-69893571D01*
X150541428Y-69893571D01*
X150684285Y-69822142D01*
X150755714Y-69750714D01*
X150827142Y-69607857D01*
X150827142Y-69179285D01*
X150755714Y-69036428D01*
X150684285Y-68965000D01*
X150541428Y-68893571D01*
X150255714Y-68893571D01*
X150112857Y-68965000D01*
X148755714Y-68893571D02*
X148755714Y-69893571D01*
X149398571Y-68893571D02*
X149398571Y-69679285D01*
X149327142Y-69822142D01*
X149184285Y-69893571D01*
X148970000Y-69893571D01*
X148827142Y-69822142D01*
X148755714Y-69750714D01*
X148041428Y-69893571D02*
X148041428Y-68893571D01*
X148041428Y-68393571D02*
X148112857Y-68465000D01*
X148041428Y-68536428D01*
X147970000Y-68465000D01*
X148041428Y-68393571D01*
X148041428Y-68536428D01*
X147327142Y-68893571D02*
X147327142Y-69893571D01*
X147327142Y-69036428D02*
X147255714Y-68965000D01*
X147112857Y-68893571D01*
X146898571Y-68893571D01*
X146755714Y-68965000D01*
X146684285Y-69107857D01*
X146684285Y-69893571D01*
X145755714Y-69893571D02*
X145898571Y-69822142D01*
X145970000Y-69750714D01*
X146041428Y-69607857D01*
X146041428Y-69179285D01*
X145970000Y-69036428D01*
X145898571Y-68965000D01*
X145755714Y-68893571D01*
X145541428Y-68893571D01*
X145398571Y-68965000D01*
X145327142Y-69036428D01*
X145255714Y-69179285D01*
X145255714Y-69607857D01*
X145327142Y-69750714D01*
X145398571Y-69822142D01*
X145541428Y-69893571D01*
X145755714Y-69893571D01*
X143470000Y-69893571D02*
X143470000Y-68393571D01*
X141684285Y-68322142D02*
X142970000Y-70250714D01*
X140898571Y-68393571D02*
X140612857Y-68393571D01*
X140470000Y-68465000D01*
X140327142Y-68607857D01*
X140255714Y-68893571D01*
X140255714Y-69393571D01*
X140327142Y-69679285D01*
X140470000Y-69822142D01*
X140612857Y-69893571D01*
X140898571Y-69893571D01*
X141041428Y-69822142D01*
X141184285Y-69679285D01*
X141255714Y-69393571D01*
X141255714Y-68893571D01*
X141184285Y-68607857D01*
X141041428Y-68465000D01*
X140898571Y-68393571D01*
X138470000Y-69107857D02*
X137970000Y-69107857D01*
X137755714Y-69893571D02*
X138470000Y-69893571D01*
X138470000Y-68393571D01*
X137755714Y-68393571D01*
X137255714Y-69893571D02*
X136470000Y-68893571D01*
X137255714Y-68893571D02*
X136470000Y-69893571D01*
X135898571Y-68893571D02*
X135898571Y-70393571D01*
X135898571Y-68965000D02*
X135755714Y-68893571D01*
X135470000Y-68893571D01*
X135327142Y-68965000D01*
X135255714Y-69036428D01*
X135184285Y-69179285D01*
X135184285Y-69607857D01*
X135255714Y-69750714D01*
X135327142Y-69822142D01*
X135470000Y-69893571D01*
X135755714Y-69893571D01*
X135898571Y-69822142D01*
X133898571Y-69893571D02*
X133898571Y-69107857D01*
X133970000Y-68965000D01*
X134112857Y-68893571D01*
X134398571Y-68893571D01*
X134541428Y-68965000D01*
X133898571Y-69822142D02*
X134041428Y-69893571D01*
X134398571Y-69893571D01*
X134541428Y-69822142D01*
X134612857Y-69679285D01*
X134612857Y-69536428D01*
X134541428Y-69393571D01*
X134398571Y-69322142D01*
X134041428Y-69322142D01*
X133898571Y-69250714D01*
X133184285Y-68893571D02*
X133184285Y-69893571D01*
X133184285Y-69036428D02*
X133112857Y-68965000D01*
X132970000Y-68893571D01*
X132755714Y-68893571D01*
X132612857Y-68965000D01*
X132541428Y-69107857D01*
X132541428Y-69893571D01*
X131184285Y-69893571D02*
X131184285Y-68393571D01*
X131184285Y-69822142D02*
X131327142Y-69893571D01*
X131612857Y-69893571D01*
X131755714Y-69822142D01*
X131827142Y-69750714D01*
X131898571Y-69607857D01*
X131898571Y-69179285D01*
X131827142Y-69036428D01*
X131755714Y-68965000D01*
X131612857Y-68893571D01*
X131327142Y-68893571D01*
X131184285Y-68965000D01*
X129898571Y-69822142D02*
X130041428Y-69893571D01*
X130327142Y-69893571D01*
X130470000Y-69822142D01*
X130541428Y-69679285D01*
X130541428Y-69107857D01*
X130470000Y-68965000D01*
X130327142Y-68893571D01*
X130041428Y-68893571D01*
X129898571Y-68965000D01*
X129827142Y-69107857D01*
X129827142Y-69250714D01*
X130541428Y-69393571D01*
X129184285Y-69893571D02*
X129184285Y-68893571D01*
X129184285Y-69179285D02*
X129112857Y-69036428D01*
X129041428Y-68965000D01*
X128898571Y-68893571D01*
X128755714Y-68893571D01*
D11*
X122555000Y-71755000D02*
X122555000Y-66675000D01*
X158115000Y-71755000D02*
X122555000Y-71755000D01*
X158115000Y-66675000D02*
X158115000Y-71755000D01*
X122555000Y-66675000D02*
X158115000Y-66675000D01*
D13*
X204513571Y-73696428D02*
X203013571Y-73696428D01*
X204513571Y-74553571D01*
X203013571Y-74553571D01*
X204085000Y-75196428D02*
X204085000Y-75910714D01*
X204513571Y-75053571D02*
X203013571Y-75553571D01*
X204513571Y-76053571D01*
X204513571Y-76553571D02*
X203013571Y-76553571D01*
X204513571Y-77410714D01*
X203013571Y-77410714D01*
X204513571Y-78125000D02*
X203013571Y-78125000D01*
X203013571Y-78482142D01*
X203085000Y-78696428D01*
X203227857Y-78839285D01*
X203370714Y-78910714D01*
X203656428Y-78982142D01*
X203870714Y-78982142D01*
X204156428Y-78910714D01*
X204299285Y-78839285D01*
X204442142Y-78696428D01*
X204513571Y-78482142D01*
X204513571Y-78125000D01*
X203085000Y-81553571D02*
X203013571Y-81410714D01*
X203013571Y-81196428D01*
X203085000Y-80982142D01*
X203227857Y-80839285D01*
X203370714Y-80767857D01*
X203656428Y-80696428D01*
X203870714Y-80696428D01*
X204156428Y-80767857D01*
X204299285Y-80839285D01*
X204442142Y-80982142D01*
X204513571Y-81196428D01*
X204513571Y-81339285D01*
X204442142Y-81553571D01*
X204370714Y-81625000D01*
X203870714Y-81625000D01*
X203870714Y-81339285D01*
X204513571Y-82910714D02*
X203727857Y-82910714D01*
X203585000Y-82839285D01*
X203513571Y-82696428D01*
X203513571Y-82410714D01*
X203585000Y-82267857D01*
X204442142Y-82910714D02*
X204513571Y-82767857D01*
X204513571Y-82410714D01*
X204442142Y-82267857D01*
X204299285Y-82196428D01*
X204156428Y-82196428D01*
X204013571Y-82267857D01*
X203942142Y-82410714D01*
X203942142Y-82767857D01*
X203870714Y-82910714D01*
X203513571Y-83410714D02*
X203513571Y-83982142D01*
X203013571Y-83625000D02*
X204299285Y-83625000D01*
X204442142Y-83696428D01*
X204513571Y-83839285D01*
X204513571Y-83982142D01*
X204442142Y-85053571D02*
X204513571Y-84910714D01*
X204513571Y-84625000D01*
X204442142Y-84482142D01*
X204299285Y-84410714D01*
X203727857Y-84410714D01*
X203585000Y-84482142D01*
X203513571Y-84625000D01*
X203513571Y-84910714D01*
X203585000Y-85053571D01*
X203727857Y-85125000D01*
X203870714Y-85125000D01*
X204013571Y-84410714D01*
D11*
X201295000Y-88265000D02*
X206375000Y-88265000D01*
X201295000Y-70485000D02*
X201295000Y-88265000D01*
X206375000Y-70485000D02*
X201295000Y-70485000D01*
X206375000Y-88265000D02*
X206375000Y-70485000D01*
D13*
X189202142Y-71085285D02*
X189273571Y-71299571D01*
X189273571Y-71656714D01*
X189202142Y-71799571D01*
X189130714Y-71871000D01*
X188987857Y-71942428D01*
X188845000Y-71942428D01*
X188702142Y-71871000D01*
X188630714Y-71799571D01*
X188559285Y-71656714D01*
X188487857Y-71371000D01*
X188416428Y-71228142D01*
X188345000Y-71156714D01*
X188202142Y-71085285D01*
X188059285Y-71085285D01*
X187916428Y-71156714D01*
X187845000Y-71228142D01*
X187773571Y-71371000D01*
X187773571Y-71728142D01*
X187845000Y-71942428D01*
X189273571Y-72585285D02*
X188273571Y-72585285D01*
X187773571Y-72585285D02*
X187845000Y-72513857D01*
X187916428Y-72585285D01*
X187845000Y-72656714D01*
X187773571Y-72585285D01*
X187916428Y-72585285D01*
X188273571Y-73942428D02*
X189487857Y-73942428D01*
X189630714Y-73871000D01*
X189702142Y-73799571D01*
X189773571Y-73656714D01*
X189773571Y-73442428D01*
X189702142Y-73299571D01*
X189202142Y-73942428D02*
X189273571Y-73799571D01*
X189273571Y-73513857D01*
X189202142Y-73371000D01*
X189130714Y-73299571D01*
X188987857Y-73228142D01*
X188559285Y-73228142D01*
X188416428Y-73299571D01*
X188345000Y-73371000D01*
X188273571Y-73513857D01*
X188273571Y-73799571D01*
X188345000Y-73942428D01*
X188273571Y-74656714D02*
X189273571Y-74656714D01*
X188416428Y-74656714D02*
X188345000Y-74728142D01*
X188273571Y-74871000D01*
X188273571Y-75085285D01*
X188345000Y-75228142D01*
X188487857Y-75299571D01*
X189273571Y-75299571D01*
X189273571Y-76656714D02*
X188487857Y-76656714D01*
X188345000Y-76585285D01*
X188273571Y-76442428D01*
X188273571Y-76156714D01*
X188345000Y-76013857D01*
X189202142Y-76656714D02*
X189273571Y-76513857D01*
X189273571Y-76156714D01*
X189202142Y-76013857D01*
X189059285Y-75942428D01*
X188916428Y-75942428D01*
X188773571Y-76013857D01*
X188702142Y-76156714D01*
X188702142Y-76513857D01*
X188630714Y-76656714D01*
X189273571Y-77585285D02*
X189202142Y-77442428D01*
X189059285Y-77371000D01*
X187773571Y-77371000D01*
X189273571Y-79299571D02*
X188273571Y-79299571D01*
X187773571Y-79299571D02*
X187845000Y-79228142D01*
X187916428Y-79299571D01*
X187845000Y-79371000D01*
X187773571Y-79299571D01*
X187916428Y-79299571D01*
X188273571Y-80013857D02*
X189273571Y-80013857D01*
X188416428Y-80013857D02*
X188345000Y-80085285D01*
X188273571Y-80228142D01*
X188273571Y-80442428D01*
X188345000Y-80585285D01*
X188487857Y-80656714D01*
X189273571Y-80656714D01*
X188273571Y-81228142D02*
X189273571Y-81585285D01*
X188273571Y-81942428D01*
X189202142Y-83085285D02*
X189273571Y-82942428D01*
X189273571Y-82656714D01*
X189202142Y-82513857D01*
X189059285Y-82442428D01*
X188487857Y-82442428D01*
X188345000Y-82513857D01*
X188273571Y-82656714D01*
X188273571Y-82942428D01*
X188345000Y-83085285D01*
X188487857Y-83156714D01*
X188630714Y-83156714D01*
X188773571Y-82442428D01*
X189273571Y-83799571D02*
X188273571Y-83799571D01*
X188559285Y-83799571D02*
X188416428Y-83871000D01*
X188345000Y-83942428D01*
X188273571Y-84085285D01*
X188273571Y-84228142D01*
X188273571Y-84513857D02*
X188273571Y-85085285D01*
X187773571Y-84728142D02*
X189059285Y-84728142D01*
X189202142Y-84799571D01*
X189273571Y-84942428D01*
X189273571Y-85085285D01*
X189202142Y-86156714D02*
X189273571Y-86013857D01*
X189273571Y-85728142D01*
X189202142Y-85585285D01*
X189059285Y-85513857D01*
X188487857Y-85513857D01*
X188345000Y-85585285D01*
X188273571Y-85728142D01*
X188273571Y-86013857D01*
X188345000Y-86156714D01*
X188487857Y-86228142D01*
X188630714Y-86228142D01*
X188773571Y-85513857D01*
X189273571Y-86871000D02*
X188273571Y-86871000D01*
X188559285Y-86871000D02*
X188416428Y-86942428D01*
X188345000Y-87013857D01*
X188273571Y-87156714D01*
X188273571Y-87299571D01*
D11*
X186055000Y-88265000D02*
X186055000Y-70485000D01*
X191135000Y-88265000D02*
X186055000Y-88265000D01*
X191135000Y-70485000D02*
X191135000Y-88265000D01*
X186055000Y-70485000D02*
X191135000Y-70485000D01*
D13*
X173605000Y-71002142D02*
X173605000Y-71716428D01*
X174033571Y-70859285D02*
X172533571Y-71359285D01*
X174033571Y-71859285D01*
X174033571Y-73002142D02*
X172533571Y-73002142D01*
X173962142Y-73002142D02*
X174033571Y-72859285D01*
X174033571Y-72573571D01*
X173962142Y-72430714D01*
X173890714Y-72359285D01*
X173747857Y-72287857D01*
X173319285Y-72287857D01*
X173176428Y-72359285D01*
X173105000Y-72430714D01*
X173033571Y-72573571D01*
X173033571Y-72859285D01*
X173105000Y-73002142D01*
X174033571Y-74359285D02*
X172533571Y-74359285D01*
X173962142Y-74359285D02*
X174033571Y-74216428D01*
X174033571Y-73930714D01*
X173962142Y-73787857D01*
X173890714Y-73716428D01*
X173747857Y-73645000D01*
X173319285Y-73645000D01*
X173176428Y-73716428D01*
X173105000Y-73787857D01*
X173033571Y-73930714D01*
X173033571Y-74216428D01*
X173105000Y-74359285D01*
X174033571Y-75073571D02*
X173033571Y-75073571D01*
X173319285Y-75073571D02*
X173176428Y-75145000D01*
X173105000Y-75216428D01*
X173033571Y-75359285D01*
X173033571Y-75502142D01*
X173962142Y-76573571D02*
X174033571Y-76430714D01*
X174033571Y-76145000D01*
X173962142Y-76002142D01*
X173819285Y-75930714D01*
X173247857Y-75930714D01*
X173105000Y-76002142D01*
X173033571Y-76145000D01*
X173033571Y-76430714D01*
X173105000Y-76573571D01*
X173247857Y-76645000D01*
X173390714Y-76645000D01*
X173533571Y-75930714D01*
X173962142Y-77216428D02*
X174033571Y-77359285D01*
X174033571Y-77645000D01*
X173962142Y-77787857D01*
X173819285Y-77859285D01*
X173747857Y-77859285D01*
X173605000Y-77787857D01*
X173533571Y-77645000D01*
X173533571Y-77430714D01*
X173462142Y-77287857D01*
X173319285Y-77216428D01*
X173247857Y-77216428D01*
X173105000Y-77287857D01*
X173033571Y-77430714D01*
X173033571Y-77645000D01*
X173105000Y-77787857D01*
X173962142Y-78430714D02*
X174033571Y-78573571D01*
X174033571Y-78859285D01*
X173962142Y-79002142D01*
X173819285Y-79073571D01*
X173747857Y-79073571D01*
X173605000Y-79002142D01*
X173533571Y-78859285D01*
X173533571Y-78645000D01*
X173462142Y-78502142D01*
X173319285Y-78430714D01*
X173247857Y-78430714D01*
X173105000Y-78502142D01*
X173033571Y-78645000D01*
X173033571Y-78859285D01*
X173105000Y-79002142D01*
X174033571Y-81502142D02*
X172533571Y-81502142D01*
X173962142Y-81502142D02*
X174033571Y-81359285D01*
X174033571Y-81073571D01*
X173962142Y-80930714D01*
X173890714Y-80859285D01*
X173747857Y-80787857D01*
X173319285Y-80787857D01*
X173176428Y-80859285D01*
X173105000Y-80930714D01*
X173033571Y-81073571D01*
X173033571Y-81359285D01*
X173105000Y-81502142D01*
X173962142Y-82787857D02*
X174033571Y-82645000D01*
X174033571Y-82359285D01*
X173962142Y-82216428D01*
X173819285Y-82145000D01*
X173247857Y-82145000D01*
X173105000Y-82216428D01*
X173033571Y-82359285D01*
X173033571Y-82645000D01*
X173105000Y-82787857D01*
X173247857Y-82859285D01*
X173390714Y-82859285D01*
X173533571Y-82145000D01*
X173962142Y-84145000D02*
X174033571Y-84002142D01*
X174033571Y-83716428D01*
X173962142Y-83573571D01*
X173890714Y-83502142D01*
X173747857Y-83430714D01*
X173319285Y-83430714D01*
X173176428Y-83502142D01*
X173105000Y-83573571D01*
X173033571Y-83716428D01*
X173033571Y-84002142D01*
X173105000Y-84145000D01*
X174033571Y-85002142D02*
X173962142Y-84859285D01*
X173890714Y-84787857D01*
X173747857Y-84716428D01*
X173319285Y-84716428D01*
X173176428Y-84787857D01*
X173105000Y-84859285D01*
X173033571Y-85002142D01*
X173033571Y-85216428D01*
X173105000Y-85359285D01*
X173176428Y-85430714D01*
X173319285Y-85502142D01*
X173747857Y-85502142D01*
X173890714Y-85430714D01*
X173962142Y-85359285D01*
X174033571Y-85216428D01*
X174033571Y-85002142D01*
X174033571Y-86787857D02*
X172533571Y-86787857D01*
X173962142Y-86787857D02*
X174033571Y-86645000D01*
X174033571Y-86359285D01*
X173962142Y-86216428D01*
X173890714Y-86145000D01*
X173747857Y-86073571D01*
X173319285Y-86073571D01*
X173176428Y-86145000D01*
X173105000Y-86216428D01*
X173033571Y-86359285D01*
X173033571Y-86645000D01*
X173105000Y-86787857D01*
X174033571Y-87502142D02*
X173033571Y-87502142D01*
X172533571Y-87502142D02*
X172605000Y-87430714D01*
X172676428Y-87502142D01*
X172605000Y-87573571D01*
X172533571Y-87502142D01*
X172676428Y-87502142D01*
X173033571Y-88216428D02*
X174033571Y-88216428D01*
X173176428Y-88216428D02*
X173105000Y-88287857D01*
X173033571Y-88430714D01*
X173033571Y-88645000D01*
X173105000Y-88787857D01*
X173247857Y-88859285D01*
X174033571Y-88859285D01*
X173033571Y-90216428D02*
X174247857Y-90216428D01*
X174390714Y-90145000D01*
X174462142Y-90073571D01*
X174533571Y-89930714D01*
X174533571Y-89716428D01*
X174462142Y-89573571D01*
X173962142Y-90216428D02*
X174033571Y-90073571D01*
X174033571Y-89787857D01*
X173962142Y-89645000D01*
X173890714Y-89573571D01*
X173747857Y-89502142D01*
X173319285Y-89502142D01*
X173176428Y-89573571D01*
X173105000Y-89645000D01*
X173033571Y-89787857D01*
X173033571Y-90073571D01*
X173105000Y-90216428D01*
D11*
X175895000Y-70485000D02*
X170815000Y-70485000D01*
X175895000Y-90805000D02*
X175895000Y-70485000D01*
X170815000Y-90805000D02*
X175895000Y-90805000D01*
X170815000Y-70485000D02*
X170815000Y-90805000D01*
X126365000Y-132080000D02*
X126365000Y-81280000D01*
X139065000Y-132080000D02*
X126365000Y-132080000D01*
X139065000Y-81280000D02*
X139065000Y-132080000D01*
X126365000Y-81280000D02*
X139065000Y-81280000D01*
D13*
X128293571Y-101667857D02*
X128293571Y-100810714D01*
X128293571Y-101239285D02*
X126793571Y-101239285D01*
X127007857Y-101096428D01*
X127150714Y-100953571D01*
X127222142Y-100810714D01*
X128293571Y-103096428D02*
X128293571Y-102239285D01*
X128293571Y-102667857D02*
X126793571Y-102667857D01*
X127007857Y-102525000D01*
X127150714Y-102382142D01*
X127222142Y-102239285D01*
X126793571Y-104453571D02*
X126793571Y-103739285D01*
X127507857Y-103667857D01*
X127436428Y-103739285D01*
X127365000Y-103882142D01*
X127365000Y-104239285D01*
X127436428Y-104382142D01*
X127507857Y-104453571D01*
X127650714Y-104525000D01*
X128007857Y-104525000D01*
X128150714Y-104453571D01*
X128222142Y-104382142D01*
X128293571Y-104239285D01*
X128293571Y-103882142D01*
X128222142Y-103739285D01*
X128150714Y-103667857D01*
X126936428Y-105096428D02*
X126865000Y-105167857D01*
X126793571Y-105310714D01*
X126793571Y-105667857D01*
X126865000Y-105810714D01*
X126936428Y-105882142D01*
X127079285Y-105953571D01*
X127222142Y-105953571D01*
X127436428Y-105882142D01*
X128293571Y-105025000D01*
X128293571Y-105953571D01*
X126793571Y-106882142D02*
X126793571Y-107025000D01*
X126865000Y-107167857D01*
X126936428Y-107239285D01*
X127079285Y-107310714D01*
X127365000Y-107382142D01*
X127722142Y-107382142D01*
X128007857Y-107310714D01*
X128150714Y-107239285D01*
X128222142Y-107167857D01*
X128293571Y-107025000D01*
X128293571Y-106882142D01*
X128222142Y-106739285D01*
X128150714Y-106667857D01*
X128007857Y-106596428D01*
X127722142Y-106525000D01*
X127365000Y-106525000D01*
X127079285Y-106596428D01*
X126936428Y-106667857D01*
X126865000Y-106739285D01*
X126793571Y-106882142D01*
X126793571Y-108310714D02*
X126793571Y-108453571D01*
X126865000Y-108596428D01*
X126936428Y-108667857D01*
X127079285Y-108739285D01*
X127365000Y-108810714D01*
X127722142Y-108810714D01*
X128007857Y-108739285D01*
X128150714Y-108667857D01*
X128222142Y-108596428D01*
X128293571Y-108453571D01*
X128293571Y-108310714D01*
X128222142Y-108167857D01*
X128150714Y-108096428D01*
X128007857Y-108025000D01*
X127722142Y-107953571D01*
X127365000Y-107953571D01*
X127079285Y-108025000D01*
X126936428Y-108096428D01*
X126865000Y-108167857D01*
X126793571Y-108310714D01*
X129986428Y-101096428D02*
X129915000Y-100953571D01*
X129843571Y-100882142D01*
X129700714Y-100810714D01*
X129629285Y-100810714D01*
X129486428Y-100882142D01*
X129415000Y-100953571D01*
X129343571Y-101096428D01*
X129343571Y-101382142D01*
X129415000Y-101525000D01*
X129486428Y-101596428D01*
X129629285Y-101667857D01*
X129700714Y-101667857D01*
X129843571Y-101596428D01*
X129915000Y-101525000D01*
X129986428Y-101382142D01*
X129986428Y-101096428D01*
X130057857Y-100953571D01*
X130129285Y-100882142D01*
X130272142Y-100810714D01*
X130557857Y-100810714D01*
X130700714Y-100882142D01*
X130772142Y-100953571D01*
X130843571Y-101096428D01*
X130843571Y-101382142D01*
X130772142Y-101525000D01*
X130700714Y-101596428D01*
X130557857Y-101667857D01*
X130272142Y-101667857D01*
X130129285Y-101596428D01*
X130057857Y-101525000D01*
X129986428Y-101382142D01*
X133393571Y-101667857D02*
X133393571Y-100810714D01*
X133393571Y-101239285D02*
X131893571Y-101239285D01*
X132107857Y-101096428D01*
X132250714Y-100953571D01*
X132322142Y-100810714D01*
X135943571Y-100882142D02*
X134443571Y-100882142D01*
X135943571Y-101739285D01*
X134443571Y-101739285D01*
X135943571Y-102667857D02*
X135872142Y-102525000D01*
X135800714Y-102453571D01*
X135657857Y-102382142D01*
X135229285Y-102382142D01*
X135086428Y-102453571D01*
X135015000Y-102525000D01*
X134943571Y-102667857D01*
X134943571Y-102882142D01*
X135015000Y-103025000D01*
X135086428Y-103096428D01*
X135229285Y-103167857D01*
X135657857Y-103167857D01*
X135800714Y-103096428D01*
X135872142Y-103025000D01*
X135943571Y-102882142D01*
X135943571Y-102667857D01*
X134943571Y-103810714D02*
X135943571Y-103810714D01*
X135086428Y-103810714D02*
X135015000Y-103882142D01*
X134943571Y-104025000D01*
X134943571Y-104239285D01*
X135015000Y-104382142D01*
X135157857Y-104453571D01*
X135943571Y-104453571D01*
X135872142Y-105739285D02*
X135943571Y-105596428D01*
X135943571Y-105310714D01*
X135872142Y-105167857D01*
X135729285Y-105096428D01*
X135157857Y-105096428D01*
X135015000Y-105167857D01*
X134943571Y-105310714D01*
X134943571Y-105596428D01*
X135015000Y-105739285D01*
X135157857Y-105810714D01*
X135300714Y-105810714D01*
X135443571Y-105096428D01*
X136993571Y-100739285D02*
X138493571Y-101739285D01*
X136993571Y-101739285D02*
X138493571Y-100739285D01*
X136993571Y-102596428D02*
X136993571Y-102882142D01*
X137065000Y-103025000D01*
X137207857Y-103167857D01*
X137493571Y-103239285D01*
X137993571Y-103239285D01*
X138279285Y-103167857D01*
X138422142Y-103025000D01*
X138493571Y-102882142D01*
X138493571Y-102596428D01*
X138422142Y-102453571D01*
X138279285Y-102310714D01*
X137993571Y-102239285D01*
X137493571Y-102239285D01*
X137207857Y-102310714D01*
X137065000Y-102453571D01*
X136993571Y-102596428D01*
X138493571Y-103882142D02*
X136993571Y-103882142D01*
X138493571Y-104739285D01*
X136993571Y-104739285D01*
X136922142Y-106525000D02*
X138850714Y-105239285D01*
X136993571Y-106882142D02*
X138493571Y-107882142D01*
X136993571Y-107882142D02*
X138493571Y-106882142D01*
X136993571Y-108739285D02*
X136993571Y-109025000D01*
X137065000Y-109167857D01*
X137207857Y-109310714D01*
X137493571Y-109382142D01*
X137993571Y-109382142D01*
X138279285Y-109310714D01*
X138422142Y-109167857D01*
X138493571Y-109025000D01*
X138493571Y-108739285D01*
X138422142Y-108596428D01*
X138279285Y-108453571D01*
X137993571Y-108382142D01*
X137493571Y-108382142D01*
X137207857Y-108453571D01*
X137065000Y-108596428D01*
X136993571Y-108739285D01*
X137707857Y-110525000D02*
X137707857Y-110025000D01*
X138493571Y-110025000D02*
X136993571Y-110025000D01*
X136993571Y-110739285D01*
X137707857Y-111810714D02*
X137707857Y-111310714D01*
X138493571Y-111310714D02*
X136993571Y-111310714D01*
X136993571Y-112025000D01*
X128222142Y-83665714D02*
X128293571Y-83880000D01*
X128293571Y-84237142D01*
X128222142Y-84380000D01*
X128150714Y-84451428D01*
X128007857Y-84522857D01*
X127865000Y-84522857D01*
X127722142Y-84451428D01*
X127650714Y-84380000D01*
X127579285Y-84237142D01*
X127507857Y-83951428D01*
X127436428Y-83808571D01*
X127365000Y-83737142D01*
X127222142Y-83665714D01*
X127079285Y-83665714D01*
X126936428Y-83737142D01*
X126865000Y-83808571D01*
X126793571Y-83951428D01*
X126793571Y-84308571D01*
X126865000Y-84522857D01*
X127293571Y-85165714D02*
X128793571Y-85165714D01*
X127365000Y-85165714D02*
X127293571Y-85308571D01*
X127293571Y-85594285D01*
X127365000Y-85737142D01*
X127436428Y-85808571D01*
X127579285Y-85880000D01*
X128007857Y-85880000D01*
X128150714Y-85808571D01*
X128222142Y-85737142D01*
X128293571Y-85594285D01*
X128293571Y-85308571D01*
X128222142Y-85165714D01*
X128222142Y-87094285D02*
X128293571Y-86951428D01*
X128293571Y-86665714D01*
X128222142Y-86522857D01*
X128079285Y-86451428D01*
X127507857Y-86451428D01*
X127365000Y-86522857D01*
X127293571Y-86665714D01*
X127293571Y-86951428D01*
X127365000Y-87094285D01*
X127507857Y-87165714D01*
X127650714Y-87165714D01*
X127793571Y-86451428D01*
X128222142Y-88380000D02*
X128293571Y-88237142D01*
X128293571Y-87951428D01*
X128222142Y-87808571D01*
X128079285Y-87737142D01*
X127507857Y-87737142D01*
X127365000Y-87808571D01*
X127293571Y-87951428D01*
X127293571Y-88237142D01*
X127365000Y-88380000D01*
X127507857Y-88451428D01*
X127650714Y-88451428D01*
X127793571Y-87737142D01*
X128293571Y-89737142D02*
X126793571Y-89737142D01*
X128222142Y-89737142D02*
X128293571Y-89594285D01*
X128293571Y-89308571D01*
X128222142Y-89165714D01*
X128150714Y-89094285D01*
X128007857Y-89022857D01*
X127579285Y-89022857D01*
X127436428Y-89094285D01*
X127365000Y-89165714D01*
X127293571Y-89308571D01*
X127293571Y-89594285D01*
X127365000Y-89737142D01*
X128865000Y-92022857D02*
X128793571Y-91951428D01*
X128579285Y-91808571D01*
X128436428Y-91737142D01*
X128222142Y-91665714D01*
X127865000Y-91594285D01*
X127579285Y-91594285D01*
X127222142Y-91665714D01*
X127007857Y-91737142D01*
X126865000Y-91808571D01*
X126650714Y-91951428D01*
X126579285Y-92022857D01*
X128293571Y-92594285D02*
X126793571Y-92594285D01*
X127365000Y-92594285D02*
X127293571Y-92737142D01*
X127293571Y-93022857D01*
X127365000Y-93165714D01*
X127436428Y-93237142D01*
X127579285Y-93308571D01*
X128007857Y-93308571D01*
X128150714Y-93237142D01*
X128222142Y-93165714D01*
X128293571Y-93022857D01*
X128293571Y-92737142D01*
X128222142Y-92594285D01*
X128293571Y-94594285D02*
X127507857Y-94594285D01*
X127365000Y-94522857D01*
X127293571Y-94380000D01*
X127293571Y-94094285D01*
X127365000Y-93951428D01*
X128222142Y-94594285D02*
X128293571Y-94451428D01*
X128293571Y-94094285D01*
X128222142Y-93951428D01*
X128079285Y-93880000D01*
X127936428Y-93880000D01*
X127793571Y-93951428D01*
X127722142Y-94094285D01*
X127722142Y-94451428D01*
X127650714Y-94594285D01*
X127293571Y-95951428D02*
X128293571Y-95951428D01*
X127293571Y-95308571D02*
X128079285Y-95308571D01*
X128222142Y-95380000D01*
X128293571Y-95522857D01*
X128293571Y-95737142D01*
X128222142Y-95880000D01*
X128150714Y-95951428D01*
X128293571Y-97308571D02*
X126793571Y-97308571D01*
X128222142Y-97308571D02*
X128293571Y-97165714D01*
X128293571Y-96880000D01*
X128222142Y-96737142D01*
X128150714Y-96665714D01*
X128007857Y-96594285D01*
X127579285Y-96594285D01*
X127436428Y-96665714D01*
X127365000Y-96737142D01*
X127293571Y-96880000D01*
X127293571Y-97165714D01*
X127365000Y-97308571D01*
X128865000Y-97880000D02*
X128793571Y-97951428D01*
X128579285Y-98094285D01*
X128436428Y-98165714D01*
X128222142Y-98237142D01*
X127865000Y-98308571D01*
X127579285Y-98308571D01*
X127222142Y-98237142D01*
X127007857Y-98165714D01*
X126865000Y-98094285D01*
X126650714Y-97951428D01*
X126579285Y-97880000D01*
X130843571Y-83737142D02*
X129343571Y-83737142D01*
X129343571Y-84094285D01*
X129415000Y-84308571D01*
X129557857Y-84451428D01*
X129700714Y-84522857D01*
X129986428Y-84594285D01*
X130200714Y-84594285D01*
X130486428Y-84522857D01*
X130629285Y-84451428D01*
X130772142Y-84308571D01*
X130843571Y-84094285D01*
X130843571Y-83737142D01*
X130843571Y-85880000D02*
X130057857Y-85880000D01*
X129915000Y-85808571D01*
X129843571Y-85665714D01*
X129843571Y-85380000D01*
X129915000Y-85237142D01*
X130772142Y-85880000D02*
X130843571Y-85737142D01*
X130843571Y-85380000D01*
X130772142Y-85237142D01*
X130629285Y-85165714D01*
X130486428Y-85165714D01*
X130343571Y-85237142D01*
X130272142Y-85380000D01*
X130272142Y-85737142D01*
X130200714Y-85880000D01*
X129843571Y-86380000D02*
X129843571Y-86951428D01*
X129343571Y-86594285D02*
X130629285Y-86594285D01*
X130772142Y-86665714D01*
X130843571Y-86808571D01*
X130843571Y-86951428D01*
X130843571Y-88094285D02*
X130057857Y-88094285D01*
X129915000Y-88022857D01*
X129843571Y-87880000D01*
X129843571Y-87594285D01*
X129915000Y-87451428D01*
X130772142Y-88094285D02*
X130843571Y-87951428D01*
X130843571Y-87594285D01*
X130772142Y-87451428D01*
X130629285Y-87380000D01*
X130486428Y-87380000D01*
X130343571Y-87451428D01*
X130272142Y-87594285D01*
X130272142Y-87951428D01*
X130200714Y-88094285D01*
X130843571Y-89951428D02*
X129343571Y-89951428D01*
X129915000Y-89951428D02*
X129843571Y-90094285D01*
X129843571Y-90380000D01*
X129915000Y-90522857D01*
X129986428Y-90594285D01*
X130129285Y-90665714D01*
X130557857Y-90665714D01*
X130700714Y-90594285D01*
X130772142Y-90522857D01*
X130843571Y-90380000D01*
X130843571Y-90094285D01*
X130772142Y-89951428D01*
X130843571Y-91308571D02*
X129843571Y-91308571D01*
X129343571Y-91308571D02*
X129415000Y-91237142D01*
X129486428Y-91308571D01*
X129415000Y-91380000D01*
X129343571Y-91308571D01*
X129486428Y-91308571D01*
X129843571Y-91808571D02*
X129843571Y-92380000D01*
X129343571Y-92022857D02*
X130629285Y-92022857D01*
X130772142Y-92094285D01*
X130843571Y-92237142D01*
X130843571Y-92380000D01*
X130772142Y-92808571D02*
X130843571Y-92951428D01*
X130843571Y-93237142D01*
X130772142Y-93380000D01*
X130629285Y-93451428D01*
X130557857Y-93451428D01*
X130415000Y-93380000D01*
X130343571Y-93237142D01*
X130343571Y-93022857D01*
X130272142Y-92880000D01*
X130129285Y-92808571D01*
X130057857Y-92808571D01*
X129915000Y-92880000D01*
X129843571Y-93022857D01*
X129843571Y-93237142D01*
X129915000Y-93380000D01*
X133322142Y-83665714D02*
X133393571Y-83880000D01*
X133393571Y-84237142D01*
X133322142Y-84380000D01*
X133250714Y-84451428D01*
X133107857Y-84522857D01*
X132965000Y-84522857D01*
X132822142Y-84451428D01*
X132750714Y-84380000D01*
X132679285Y-84237142D01*
X132607857Y-83951428D01*
X132536428Y-83808571D01*
X132465000Y-83737142D01*
X132322142Y-83665714D01*
X132179285Y-83665714D01*
X132036428Y-83737142D01*
X131965000Y-83808571D01*
X131893571Y-83951428D01*
X131893571Y-84308571D01*
X131965000Y-84522857D01*
X132393571Y-84951428D02*
X132393571Y-85522857D01*
X131893571Y-85165714D02*
X133179285Y-85165714D01*
X133322142Y-85237142D01*
X133393571Y-85380000D01*
X133393571Y-85522857D01*
X133393571Y-86237142D02*
X133322142Y-86094285D01*
X133250714Y-86022857D01*
X133107857Y-85951428D01*
X132679285Y-85951428D01*
X132536428Y-86022857D01*
X132465000Y-86094285D01*
X132393571Y-86237142D01*
X132393571Y-86451428D01*
X132465000Y-86594285D01*
X132536428Y-86665714D01*
X132679285Y-86737142D01*
X133107857Y-86737142D01*
X133250714Y-86665714D01*
X133322142Y-86594285D01*
X133393571Y-86451428D01*
X133393571Y-86237142D01*
X132393571Y-87380000D02*
X133893571Y-87380000D01*
X132465000Y-87380000D02*
X132393571Y-87522857D01*
X132393571Y-87808571D01*
X132465000Y-87951428D01*
X132536428Y-88022857D01*
X132679285Y-88094285D01*
X133107857Y-88094285D01*
X133250714Y-88022857D01*
X133322142Y-87951428D01*
X133393571Y-87808571D01*
X133393571Y-87522857D01*
X133322142Y-87380000D01*
X133393571Y-89880000D02*
X131893571Y-89880000D01*
X132465000Y-89880000D02*
X132393571Y-90022857D01*
X132393571Y-90308571D01*
X132465000Y-90451428D01*
X132536428Y-90522857D01*
X132679285Y-90594285D01*
X133107857Y-90594285D01*
X133250714Y-90522857D01*
X133322142Y-90451428D01*
X133393571Y-90308571D01*
X133393571Y-90022857D01*
X133322142Y-89880000D01*
X133393571Y-91237142D02*
X132393571Y-91237142D01*
X131893571Y-91237142D02*
X131965000Y-91165714D01*
X132036428Y-91237142D01*
X131965000Y-91308571D01*
X131893571Y-91237142D01*
X132036428Y-91237142D01*
X132393571Y-91737142D02*
X132393571Y-92308571D01*
X131893571Y-91951428D02*
X133179285Y-91951428D01*
X133322142Y-92022857D01*
X133393571Y-92165714D01*
X133393571Y-92308571D01*
X133322142Y-92737142D02*
X133393571Y-92880000D01*
X133393571Y-93165714D01*
X133322142Y-93308571D01*
X133179285Y-93380000D01*
X133107857Y-93380000D01*
X132965000Y-93308571D01*
X132893571Y-93165714D01*
X132893571Y-92951428D01*
X132822142Y-92808571D01*
X132679285Y-92737142D01*
X132607857Y-92737142D01*
X132465000Y-92808571D01*
X132393571Y-92951428D01*
X132393571Y-93165714D01*
X132465000Y-93308571D01*
X135943571Y-83737142D02*
X134443571Y-83737142D01*
X134443571Y-84308571D01*
X134515000Y-84451428D01*
X134586428Y-84522857D01*
X134729285Y-84594285D01*
X134943571Y-84594285D01*
X135086428Y-84522857D01*
X135157857Y-84451428D01*
X135229285Y-84308571D01*
X135229285Y-83737142D01*
X135943571Y-85880000D02*
X135157857Y-85880000D01*
X135015000Y-85808571D01*
X134943571Y-85665714D01*
X134943571Y-85380000D01*
X135015000Y-85237142D01*
X135872142Y-85880000D02*
X135943571Y-85737142D01*
X135943571Y-85380000D01*
X135872142Y-85237142D01*
X135729285Y-85165714D01*
X135586428Y-85165714D01*
X135443571Y-85237142D01*
X135372142Y-85380000D01*
X135372142Y-85737142D01*
X135300714Y-85880000D01*
X135943571Y-86594285D02*
X134943571Y-86594285D01*
X135229285Y-86594285D02*
X135086428Y-86665714D01*
X135015000Y-86737142D01*
X134943571Y-86880000D01*
X134943571Y-87022857D01*
X135943571Y-87522857D02*
X134943571Y-87522857D01*
X134443571Y-87522857D02*
X134515000Y-87451428D01*
X134586428Y-87522857D01*
X134515000Y-87594285D01*
X134443571Y-87522857D01*
X134586428Y-87522857D01*
X134943571Y-88022857D02*
X134943571Y-88594285D01*
X134443571Y-88237142D02*
X135729285Y-88237142D01*
X135872142Y-88308571D01*
X135943571Y-88451428D01*
X135943571Y-88594285D01*
X134943571Y-88951428D02*
X135943571Y-89308571D01*
X134943571Y-89665714D02*
X135943571Y-89308571D01*
X136300714Y-89165714D01*
X136372142Y-89094285D01*
X136443571Y-88951428D01*
X137707857Y-84237142D02*
X137707857Y-83737142D01*
X138493571Y-83737142D02*
X136993571Y-83737142D01*
X136993571Y-84451428D01*
X138493571Y-85237142D02*
X138422142Y-85094285D01*
X138279285Y-85022857D01*
X136993571Y-85022857D01*
X138493571Y-86022857D02*
X138422142Y-85880000D01*
X138350714Y-85808571D01*
X138207857Y-85737142D01*
X137779285Y-85737142D01*
X137636428Y-85808571D01*
X137565000Y-85880000D01*
X137493571Y-86022857D01*
X137493571Y-86237142D01*
X137565000Y-86380000D01*
X137636428Y-86451428D01*
X137779285Y-86522857D01*
X138207857Y-86522857D01*
X138350714Y-86451428D01*
X138422142Y-86380000D01*
X138493571Y-86237142D01*
X138493571Y-86022857D01*
X137493571Y-87022857D02*
X138493571Y-87308571D01*
X137779285Y-87594285D01*
X138493571Y-87880000D01*
X137493571Y-88165714D01*
X138422142Y-90522857D02*
X138493571Y-90380000D01*
X138493571Y-90094285D01*
X138422142Y-89951428D01*
X138350714Y-89880000D01*
X138207857Y-89808571D01*
X137779285Y-89808571D01*
X137636428Y-89880000D01*
X137565000Y-89951428D01*
X137493571Y-90094285D01*
X137493571Y-90380000D01*
X137565000Y-90522857D01*
X138493571Y-91380000D02*
X138422142Y-91237142D01*
X138350714Y-91165714D01*
X138207857Y-91094285D01*
X137779285Y-91094285D01*
X137636428Y-91165714D01*
X137565000Y-91237142D01*
X137493571Y-91380000D01*
X137493571Y-91594285D01*
X137565000Y-91737142D01*
X137636428Y-91808571D01*
X137779285Y-91880000D01*
X138207857Y-91880000D01*
X138350714Y-91808571D01*
X138422142Y-91737142D01*
X138493571Y-91594285D01*
X138493571Y-91380000D01*
X137493571Y-92522857D02*
X138493571Y-92522857D01*
X137636428Y-92522857D02*
X137565000Y-92594285D01*
X137493571Y-92737142D01*
X137493571Y-92951428D01*
X137565000Y-93094285D01*
X137707857Y-93165714D01*
X138493571Y-93165714D01*
X137493571Y-93665714D02*
X137493571Y-94237142D01*
X136993571Y-93880000D02*
X138279285Y-93880000D01*
X138422142Y-93951428D01*
X138493571Y-94094285D01*
X138493571Y-94237142D01*
X138493571Y-94737142D02*
X137493571Y-94737142D01*
X137779285Y-94737142D02*
X137636428Y-94808571D01*
X137565000Y-94880000D01*
X137493571Y-95022857D01*
X137493571Y-95165714D01*
X138493571Y-95880000D02*
X138422142Y-95737142D01*
X138350714Y-95665714D01*
X138207857Y-95594285D01*
X137779285Y-95594285D01*
X137636428Y-95665714D01*
X137565000Y-95737142D01*
X137493571Y-95880000D01*
X137493571Y-96094285D01*
X137565000Y-96237142D01*
X137636428Y-96308571D01*
X137779285Y-96380000D01*
X138207857Y-96380000D01*
X138350714Y-96308571D01*
X138422142Y-96237142D01*
X138493571Y-96094285D01*
X138493571Y-95880000D01*
X138493571Y-97237142D02*
X138422142Y-97094285D01*
X138279285Y-97022857D01*
X136993571Y-97022857D01*
D11*
X149225000Y-109855000D02*
X161925000Y-109855000D01*
D13*
X152300714Y-116400000D02*
X152372142Y-116328571D01*
X152443571Y-116114285D01*
X152443571Y-115971428D01*
X152372142Y-115757142D01*
X152229285Y-115614285D01*
X152086428Y-115542857D01*
X151800714Y-115471428D01*
X151586428Y-115471428D01*
X151300714Y-115542857D01*
X151157857Y-115614285D01*
X151015000Y-115757142D01*
X150943571Y-115971428D01*
X150943571Y-116114285D01*
X151015000Y-116328571D01*
X151086428Y-116400000D01*
X152443571Y-117257142D02*
X152372142Y-117114285D01*
X152300714Y-117042857D01*
X152157857Y-116971428D01*
X151729285Y-116971428D01*
X151586428Y-117042857D01*
X151515000Y-117114285D01*
X151443571Y-117257142D01*
X151443571Y-117471428D01*
X151515000Y-117614285D01*
X151586428Y-117685714D01*
X151729285Y-117757142D01*
X152157857Y-117757142D01*
X152300714Y-117685714D01*
X152372142Y-117614285D01*
X152443571Y-117471428D01*
X152443571Y-117257142D01*
X152443571Y-118400000D02*
X151443571Y-118400000D01*
X151586428Y-118400000D02*
X151515000Y-118471428D01*
X151443571Y-118614285D01*
X151443571Y-118828571D01*
X151515000Y-118971428D01*
X151657857Y-119042857D01*
X152443571Y-119042857D01*
X151657857Y-119042857D02*
X151515000Y-119114285D01*
X151443571Y-119257142D01*
X151443571Y-119471428D01*
X151515000Y-119614285D01*
X151657857Y-119685714D01*
X152443571Y-119685714D01*
X152443571Y-120400000D02*
X151443571Y-120400000D01*
X151586428Y-120400000D02*
X151515000Y-120471428D01*
X151443571Y-120614285D01*
X151443571Y-120828571D01*
X151515000Y-120971428D01*
X151657857Y-121042857D01*
X152443571Y-121042857D01*
X151657857Y-121042857D02*
X151515000Y-121114285D01*
X151443571Y-121257142D01*
X151443571Y-121471428D01*
X151515000Y-121614285D01*
X151657857Y-121685714D01*
X152443571Y-121685714D01*
X152443571Y-123042857D02*
X151657857Y-123042857D01*
X151515000Y-122971428D01*
X151443571Y-122828571D01*
X151443571Y-122542857D01*
X151515000Y-122400000D01*
X152372142Y-123042857D02*
X152443571Y-122900000D01*
X152443571Y-122542857D01*
X152372142Y-122400000D01*
X152229285Y-122328571D01*
X152086428Y-122328571D01*
X151943571Y-122400000D01*
X151872142Y-122542857D01*
X151872142Y-122900000D01*
X151800714Y-123042857D01*
X151443571Y-123757142D02*
X152443571Y-123757142D01*
X151586428Y-123757142D02*
X151515000Y-123828571D01*
X151443571Y-123971428D01*
X151443571Y-124185714D01*
X151515000Y-124328571D01*
X151657857Y-124400000D01*
X152443571Y-124400000D01*
X152443571Y-125757142D02*
X150943571Y-125757142D01*
X152372142Y-125757142D02*
X152443571Y-125614285D01*
X152443571Y-125328571D01*
X152372142Y-125185714D01*
X152300714Y-125114285D01*
X152157857Y-125042857D01*
X151729285Y-125042857D01*
X151586428Y-125114285D01*
X151515000Y-125185714D01*
X151443571Y-125328571D01*
X151443571Y-125614285D01*
X151515000Y-125757142D01*
X152443571Y-91527857D02*
X150943571Y-91527857D01*
X150943571Y-92099285D01*
X151015000Y-92242142D01*
X151086428Y-92313571D01*
X151229285Y-92385000D01*
X151443571Y-92385000D01*
X151586428Y-92313571D01*
X151657857Y-92242142D01*
X151729285Y-92099285D01*
X151729285Y-91527857D01*
X152443571Y-93027857D02*
X151443571Y-93027857D01*
X151729285Y-93027857D02*
X151586428Y-93099285D01*
X151515000Y-93170714D01*
X151443571Y-93313571D01*
X151443571Y-93456428D01*
X152443571Y-94170714D02*
X152372142Y-94027857D01*
X152300714Y-93956428D01*
X152157857Y-93885000D01*
X151729285Y-93885000D01*
X151586428Y-93956428D01*
X151515000Y-94027857D01*
X151443571Y-94170714D01*
X151443571Y-94385000D01*
X151515000Y-94527857D01*
X151586428Y-94599285D01*
X151729285Y-94670714D01*
X152157857Y-94670714D01*
X152300714Y-94599285D01*
X152372142Y-94527857D01*
X152443571Y-94385000D01*
X152443571Y-94170714D01*
X151443571Y-95956428D02*
X152657857Y-95956428D01*
X152800714Y-95885000D01*
X152872142Y-95813571D01*
X152943571Y-95670714D01*
X152943571Y-95456428D01*
X152872142Y-95313571D01*
X152372142Y-95956428D02*
X152443571Y-95813571D01*
X152443571Y-95527857D01*
X152372142Y-95385000D01*
X152300714Y-95313571D01*
X152157857Y-95242142D01*
X151729285Y-95242142D01*
X151586428Y-95313571D01*
X151515000Y-95385000D01*
X151443571Y-95527857D01*
X151443571Y-95813571D01*
X151515000Y-95956428D01*
X152443571Y-96670714D02*
X151443571Y-96670714D01*
X151729285Y-96670714D02*
X151586428Y-96742142D01*
X151515000Y-96813571D01*
X151443571Y-96956428D01*
X151443571Y-97099285D01*
X152443571Y-98242142D02*
X151657857Y-98242142D01*
X151515000Y-98170714D01*
X151443571Y-98027857D01*
X151443571Y-97742142D01*
X151515000Y-97599285D01*
X152372142Y-98242142D02*
X152443571Y-98099285D01*
X152443571Y-97742142D01*
X152372142Y-97599285D01*
X152229285Y-97527857D01*
X152086428Y-97527857D01*
X151943571Y-97599285D01*
X151872142Y-97742142D01*
X151872142Y-98099285D01*
X151800714Y-98242142D01*
X152443571Y-98956428D02*
X151443571Y-98956428D01*
X151586428Y-98956428D02*
X151515000Y-99027857D01*
X151443571Y-99170714D01*
X151443571Y-99385000D01*
X151515000Y-99527857D01*
X151657857Y-99599285D01*
X152443571Y-99599285D01*
X151657857Y-99599285D02*
X151515000Y-99670714D01*
X151443571Y-99813571D01*
X151443571Y-100027857D01*
X151515000Y-100170714D01*
X151657857Y-100242142D01*
X152443571Y-100242142D01*
X155457857Y-111042142D02*
X155457857Y-111542142D01*
X156243571Y-111756428D02*
X156243571Y-111042142D01*
X154743571Y-111042142D01*
X154743571Y-111756428D01*
X154743571Y-112685000D02*
X154743571Y-112827857D01*
X154815000Y-112970714D01*
X154886428Y-113042142D01*
X155029285Y-113113571D01*
X155315000Y-113185000D01*
X155672142Y-113185000D01*
X155957857Y-113113571D01*
X156100714Y-113042142D01*
X156172142Y-112970714D01*
X156243571Y-112827857D01*
X156243571Y-112685000D01*
X156172142Y-112542142D01*
X156100714Y-112470714D01*
X155957857Y-112399285D01*
X155672142Y-112327857D01*
X155315000Y-112327857D01*
X155029285Y-112399285D01*
X154886428Y-112470714D01*
X154815000Y-112542142D01*
X154743571Y-112685000D01*
X154743571Y-114113571D02*
X154743571Y-114256428D01*
X154815000Y-114399285D01*
X154886428Y-114470714D01*
X155029285Y-114542142D01*
X155315000Y-114613571D01*
X155672142Y-114613571D01*
X155957857Y-114542142D01*
X156100714Y-114470714D01*
X156172142Y-114399285D01*
X156243571Y-114256428D01*
X156243571Y-114113571D01*
X156172142Y-113970714D01*
X156100714Y-113899285D01*
X155957857Y-113827857D01*
X155672142Y-113756428D01*
X155315000Y-113756428D01*
X155029285Y-113827857D01*
X154886428Y-113899285D01*
X154815000Y-113970714D01*
X154743571Y-114113571D01*
X154743571Y-115542142D02*
X154743571Y-115685000D01*
X154815000Y-115827857D01*
X154886428Y-115899285D01*
X155029285Y-115970714D01*
X155315000Y-116042142D01*
X155672142Y-116042142D01*
X155957857Y-115970714D01*
X156100714Y-115899285D01*
X156172142Y-115827857D01*
X156243571Y-115685000D01*
X156243571Y-115542142D01*
X156172142Y-115399285D01*
X156100714Y-115327857D01*
X155957857Y-115256428D01*
X155672142Y-115185000D01*
X155315000Y-115185000D01*
X155029285Y-115256428D01*
X154886428Y-115327857D01*
X154815000Y-115399285D01*
X154743571Y-115542142D01*
X156243571Y-118685000D02*
X155529285Y-118185000D01*
X156243571Y-117827857D02*
X154743571Y-117827857D01*
X154743571Y-118399285D01*
X154815000Y-118542142D01*
X154886428Y-118613571D01*
X155029285Y-118685000D01*
X155243571Y-118685000D01*
X155386428Y-118613571D01*
X155457857Y-118542142D01*
X155529285Y-118399285D01*
X155529285Y-117827857D01*
X158007857Y-111542142D02*
X158007857Y-111042142D01*
X158793571Y-111042142D02*
X157293571Y-111042142D01*
X157293571Y-111756428D01*
X157293571Y-112613571D02*
X157293571Y-112756428D01*
X157365000Y-112899285D01*
X157436428Y-112970714D01*
X157579285Y-113042142D01*
X157865000Y-113113571D01*
X158222142Y-113113571D01*
X158507857Y-113042142D01*
X158650714Y-112970714D01*
X158722142Y-112899285D01*
X158793571Y-112756428D01*
X158793571Y-112613571D01*
X158722142Y-112470714D01*
X158650714Y-112399285D01*
X158507857Y-112327857D01*
X158222142Y-112256428D01*
X157865000Y-112256428D01*
X157579285Y-112327857D01*
X157436428Y-112399285D01*
X157365000Y-112470714D01*
X157293571Y-112613571D01*
X157293571Y-114042142D02*
X157293571Y-114185000D01*
X157365000Y-114327857D01*
X157436428Y-114399285D01*
X157579285Y-114470714D01*
X157865000Y-114542142D01*
X158222142Y-114542142D01*
X158507857Y-114470714D01*
X158650714Y-114399285D01*
X158722142Y-114327857D01*
X158793571Y-114185000D01*
X158793571Y-114042142D01*
X158722142Y-113899285D01*
X158650714Y-113827857D01*
X158507857Y-113756428D01*
X158222142Y-113685000D01*
X157865000Y-113685000D01*
X157579285Y-113756428D01*
X157436428Y-113827857D01*
X157365000Y-113899285D01*
X157293571Y-114042142D01*
X157293571Y-115470714D02*
X157293571Y-115613571D01*
X157365000Y-115756428D01*
X157436428Y-115827857D01*
X157579285Y-115899285D01*
X157865000Y-115970714D01*
X158222142Y-115970714D01*
X158507857Y-115899285D01*
X158650714Y-115827857D01*
X158722142Y-115756428D01*
X158793571Y-115613571D01*
X158793571Y-115470714D01*
X158722142Y-115327857D01*
X158650714Y-115256428D01*
X158507857Y-115185000D01*
X158222142Y-115113571D01*
X157865000Y-115113571D01*
X157579285Y-115185000D01*
X157436428Y-115256428D01*
X157365000Y-115327857D01*
X157293571Y-115470714D01*
X158793571Y-118613571D02*
X158079285Y-118113571D01*
X158793571Y-117756428D02*
X157293571Y-117756428D01*
X157293571Y-118327857D01*
X157365000Y-118470714D01*
X157436428Y-118542142D01*
X157579285Y-118613571D01*
X157793571Y-118613571D01*
X157936428Y-118542142D01*
X158007857Y-118470714D01*
X158079285Y-118327857D01*
X158079285Y-117756428D01*
X160557857Y-111542142D02*
X160557857Y-111042142D01*
X161343571Y-111042142D02*
X159843571Y-111042142D01*
X159843571Y-111756428D01*
X160557857Y-112827857D02*
X160557857Y-112327857D01*
X161343571Y-112327857D02*
X159843571Y-112327857D01*
X159843571Y-113042142D01*
X159843571Y-113899285D02*
X159843571Y-114042142D01*
X159915000Y-114185000D01*
X159986428Y-114256428D01*
X160129285Y-114327857D01*
X160415000Y-114399285D01*
X160772142Y-114399285D01*
X161057857Y-114327857D01*
X161200714Y-114256428D01*
X161272142Y-114185000D01*
X161343571Y-114042142D01*
X161343571Y-113899285D01*
X161272142Y-113756428D01*
X161200714Y-113685000D01*
X161057857Y-113613571D01*
X160772142Y-113542142D01*
X160415000Y-113542142D01*
X160129285Y-113613571D01*
X159986428Y-113685000D01*
X159915000Y-113756428D01*
X159843571Y-113899285D01*
X159843571Y-115327857D02*
X159843571Y-115470714D01*
X159915000Y-115613571D01*
X159986428Y-115685000D01*
X160129285Y-115756428D01*
X160415000Y-115827857D01*
X160772142Y-115827857D01*
X161057857Y-115756428D01*
X161200714Y-115685000D01*
X161272142Y-115613571D01*
X161343571Y-115470714D01*
X161343571Y-115327857D01*
X161272142Y-115185000D01*
X161200714Y-115113571D01*
X161057857Y-115042142D01*
X160772142Y-114970714D01*
X160415000Y-114970714D01*
X160129285Y-115042142D01*
X159986428Y-115113571D01*
X159915000Y-115185000D01*
X159843571Y-115327857D01*
X161343571Y-118470714D02*
X160629285Y-117970714D01*
X161343571Y-117613571D02*
X159843571Y-117613571D01*
X159843571Y-118185000D01*
X159915000Y-118327857D01*
X159986428Y-118399285D01*
X160129285Y-118470714D01*
X160343571Y-118470714D01*
X160486428Y-118399285D01*
X160557857Y-118327857D01*
X160629285Y-118185000D01*
X160629285Y-117613571D01*
X156243571Y-83737142D02*
X154743571Y-83737142D01*
X155243571Y-84451428D02*
X156243571Y-84451428D01*
X155386428Y-84451428D02*
X155315000Y-84522857D01*
X155243571Y-84665714D01*
X155243571Y-84880000D01*
X155315000Y-85022857D01*
X155457857Y-85094285D01*
X156243571Y-85094285D01*
X155243571Y-85594285D02*
X155243571Y-86165714D01*
X154743571Y-85808571D02*
X156029285Y-85808571D01*
X156172142Y-85880000D01*
X156243571Y-86022857D01*
X156243571Y-86165714D01*
X156172142Y-87237142D02*
X156243571Y-87094285D01*
X156243571Y-86808571D01*
X156172142Y-86665714D01*
X156029285Y-86594285D01*
X155457857Y-86594285D01*
X155315000Y-86665714D01*
X155243571Y-86808571D01*
X155243571Y-87094285D01*
X155315000Y-87237142D01*
X155457857Y-87308571D01*
X155600714Y-87308571D01*
X155743571Y-86594285D01*
X155243571Y-88594285D02*
X156457857Y-88594285D01*
X156600714Y-88522857D01*
X156672142Y-88451428D01*
X156743571Y-88308571D01*
X156743571Y-88094285D01*
X156672142Y-87951428D01*
X156172142Y-88594285D02*
X156243571Y-88451428D01*
X156243571Y-88165714D01*
X156172142Y-88022857D01*
X156100714Y-87951428D01*
X155957857Y-87880000D01*
X155529285Y-87880000D01*
X155386428Y-87951428D01*
X155315000Y-88022857D01*
X155243571Y-88165714D01*
X155243571Y-88451428D01*
X155315000Y-88594285D01*
X156172142Y-89880000D02*
X156243571Y-89737142D01*
X156243571Y-89451428D01*
X156172142Y-89308571D01*
X156029285Y-89237142D01*
X155457857Y-89237142D01*
X155315000Y-89308571D01*
X155243571Y-89451428D01*
X155243571Y-89737142D01*
X155315000Y-89880000D01*
X155457857Y-89951428D01*
X155600714Y-89951428D01*
X155743571Y-89237142D01*
X156243571Y-90594285D02*
X155243571Y-90594285D01*
X155529285Y-90594285D02*
X155386428Y-90665714D01*
X155315000Y-90737142D01*
X155243571Y-90880000D01*
X155243571Y-91022857D01*
X155457857Y-93165714D02*
X155529285Y-93380000D01*
X155600714Y-93451428D01*
X155743571Y-93522857D01*
X155957857Y-93522857D01*
X156100714Y-93451428D01*
X156172142Y-93380000D01*
X156243571Y-93237142D01*
X156243571Y-92665714D01*
X154743571Y-92665714D01*
X154743571Y-93165714D01*
X154815000Y-93308571D01*
X154886428Y-93380000D01*
X155029285Y-93451428D01*
X155172142Y-93451428D01*
X155315000Y-93380000D01*
X155386428Y-93308571D01*
X155457857Y-93165714D01*
X155457857Y-92665714D01*
X156243571Y-94808571D02*
X155457857Y-94808571D01*
X155315000Y-94737142D01*
X155243571Y-94594285D01*
X155243571Y-94308571D01*
X155315000Y-94165714D01*
X156172142Y-94808571D02*
X156243571Y-94665714D01*
X156243571Y-94308571D01*
X156172142Y-94165714D01*
X156029285Y-94094285D01*
X155886428Y-94094285D01*
X155743571Y-94165714D01*
X155672142Y-94308571D01*
X155672142Y-94665714D01*
X155600714Y-94808571D01*
X156172142Y-95451428D02*
X156243571Y-95594285D01*
X156243571Y-95880000D01*
X156172142Y-96022857D01*
X156029285Y-96094285D01*
X155957857Y-96094285D01*
X155815000Y-96022857D01*
X155743571Y-95880000D01*
X155743571Y-95665714D01*
X155672142Y-95522857D01*
X155529285Y-95451428D01*
X155457857Y-95451428D01*
X155315000Y-95522857D01*
X155243571Y-95665714D01*
X155243571Y-95880000D01*
X155315000Y-96022857D01*
X156243571Y-96737142D02*
X155243571Y-96737142D01*
X154743571Y-96737142D02*
X154815000Y-96665714D01*
X154886428Y-96737142D01*
X154815000Y-96808571D01*
X154743571Y-96737142D01*
X154886428Y-96737142D01*
X156172142Y-98094285D02*
X156243571Y-97951428D01*
X156243571Y-97665714D01*
X156172142Y-97522857D01*
X156100714Y-97451428D01*
X155957857Y-97380000D01*
X155529285Y-97380000D01*
X155386428Y-97451428D01*
X155315000Y-97522857D01*
X155243571Y-97665714D01*
X155243571Y-97951428D01*
X155315000Y-98094285D01*
X158793571Y-83737142D02*
X157293571Y-83737142D01*
X158793571Y-84594285D02*
X157936428Y-83951428D01*
X157293571Y-84594285D02*
X158150714Y-83737142D01*
X158793571Y-85237142D02*
X157793571Y-85237142D01*
X158079285Y-85237142D02*
X157936428Y-85308571D01*
X157865000Y-85380000D01*
X157793571Y-85522857D01*
X157793571Y-85665714D01*
X157793571Y-86808571D02*
X158793571Y-86808571D01*
X157793571Y-86165714D02*
X158579285Y-86165714D01*
X158722142Y-86237142D01*
X158793571Y-86380000D01*
X158793571Y-86594285D01*
X158722142Y-86737142D01*
X158650714Y-86808571D01*
X158722142Y-87451428D02*
X158793571Y-87594285D01*
X158793571Y-87880000D01*
X158722142Y-88022857D01*
X158579285Y-88094285D01*
X158507857Y-88094285D01*
X158365000Y-88022857D01*
X158293571Y-87880000D01*
X158293571Y-87665714D01*
X158222142Y-87522857D01*
X158079285Y-87451428D01*
X158007857Y-87451428D01*
X157865000Y-87522857D01*
X157793571Y-87665714D01*
X157793571Y-87880000D01*
X157865000Y-88022857D01*
X158793571Y-89380000D02*
X158007857Y-89380000D01*
X157865000Y-89308571D01*
X157793571Y-89165714D01*
X157793571Y-88880000D01*
X157865000Y-88737142D01*
X158722142Y-89380000D02*
X158793571Y-89237142D01*
X158793571Y-88880000D01*
X158722142Y-88737142D01*
X158579285Y-88665714D01*
X158436428Y-88665714D01*
X158293571Y-88737142D01*
X158222142Y-88880000D01*
X158222142Y-89237142D01*
X158150714Y-89380000D01*
X158793571Y-90737142D02*
X157293571Y-90737142D01*
X158722142Y-90737142D02*
X158793571Y-90594285D01*
X158793571Y-90308571D01*
X158722142Y-90165714D01*
X158650714Y-90094285D01*
X158507857Y-90022857D01*
X158079285Y-90022857D01*
X157936428Y-90094285D01*
X157865000Y-90165714D01*
X157793571Y-90308571D01*
X157793571Y-90594285D01*
X157865000Y-90737142D01*
X158722142Y-92022857D02*
X158793571Y-91880000D01*
X158793571Y-91594285D01*
X158722142Y-91451428D01*
X158579285Y-91380000D01*
X158007857Y-91380000D01*
X157865000Y-91451428D01*
X157793571Y-91594285D01*
X157793571Y-91880000D01*
X157865000Y-92022857D01*
X158007857Y-92094285D01*
X158150714Y-92094285D01*
X158293571Y-91380000D01*
X158793571Y-92737142D02*
X157793571Y-92737142D01*
X158079285Y-92737142D02*
X157936428Y-92808571D01*
X157865000Y-92880000D01*
X157793571Y-93022857D01*
X157793571Y-93165714D01*
X158365000Y-94737142D02*
X158365000Y-95451428D01*
X158793571Y-94594285D02*
X157293571Y-95094285D01*
X158793571Y-95594285D01*
X158722142Y-96022857D02*
X158793571Y-96165714D01*
X158793571Y-96451428D01*
X158722142Y-96594285D01*
X158579285Y-96665714D01*
X158507857Y-96665714D01*
X158365000Y-96594285D01*
X158293571Y-96451428D01*
X158293571Y-96237142D01*
X158222142Y-96094285D01*
X158079285Y-96022857D01*
X158007857Y-96022857D01*
X157865000Y-96094285D01*
X157793571Y-96237142D01*
X157793571Y-96451428D01*
X157865000Y-96594285D01*
X158722142Y-97237142D02*
X158793571Y-97380000D01*
X158793571Y-97665714D01*
X158722142Y-97808571D01*
X158579285Y-97880000D01*
X158507857Y-97880000D01*
X158365000Y-97808571D01*
X158293571Y-97665714D01*
X158293571Y-97451428D01*
X158222142Y-97308571D01*
X158079285Y-97237142D01*
X158007857Y-97237142D01*
X157865000Y-97308571D01*
X157793571Y-97451428D01*
X157793571Y-97665714D01*
X157865000Y-97808571D01*
X158722142Y-99094285D02*
X158793571Y-98951428D01*
X158793571Y-98665714D01*
X158722142Y-98522857D01*
X158579285Y-98451428D01*
X158007857Y-98451428D01*
X157865000Y-98522857D01*
X157793571Y-98665714D01*
X157793571Y-98951428D01*
X157865000Y-99094285D01*
X158007857Y-99165714D01*
X158150714Y-99165714D01*
X158293571Y-98451428D01*
X158793571Y-99808571D02*
X157793571Y-99808571D01*
X157936428Y-99808571D02*
X157865000Y-99880000D01*
X157793571Y-100022857D01*
X157793571Y-100237142D01*
X157865000Y-100380000D01*
X158007857Y-100451428D01*
X158793571Y-100451428D01*
X158007857Y-100451428D02*
X157865000Y-100522857D01*
X157793571Y-100665714D01*
X157793571Y-100880000D01*
X157865000Y-101022857D01*
X158007857Y-101094285D01*
X158793571Y-101094285D01*
X158793571Y-101808571D02*
X157293571Y-101808571D01*
X157865000Y-101808571D02*
X157793571Y-101951428D01*
X157793571Y-102237142D01*
X157865000Y-102380000D01*
X157936428Y-102451428D01*
X158079285Y-102522857D01*
X158507857Y-102522857D01*
X158650714Y-102451428D01*
X158722142Y-102380000D01*
X158793571Y-102237142D01*
X158793571Y-101951428D01*
X158722142Y-101808571D01*
X158793571Y-103380000D02*
X158722142Y-103237142D01*
X158579285Y-103165714D01*
X157293571Y-103165714D01*
X158722142Y-104522857D02*
X158793571Y-104380000D01*
X158793571Y-104094285D01*
X158722142Y-103951428D01*
X158579285Y-103880000D01*
X158007857Y-103880000D01*
X157865000Y-103951428D01*
X157793571Y-104094285D01*
X157793571Y-104380000D01*
X157865000Y-104522857D01*
X158007857Y-104594285D01*
X158150714Y-104594285D01*
X158293571Y-103880000D01*
X158793571Y-105237142D02*
X157793571Y-105237142D01*
X158079285Y-105237142D02*
X157936428Y-105308571D01*
X157865000Y-105380000D01*
X157793571Y-105522857D01*
X157793571Y-105665714D01*
X159843571Y-83594285D02*
X161343571Y-83951428D01*
X160272142Y-84237142D01*
X161343571Y-84522857D01*
X159843571Y-84880000D01*
X161343571Y-85665714D02*
X161272142Y-85522857D01*
X161200714Y-85451428D01*
X161057857Y-85380000D01*
X160629285Y-85380000D01*
X160486428Y-85451428D01*
X160415000Y-85522857D01*
X160343571Y-85665714D01*
X160343571Y-85880000D01*
X160415000Y-86022857D01*
X160486428Y-86094285D01*
X160629285Y-86165714D01*
X161057857Y-86165714D01*
X161200714Y-86094285D01*
X161272142Y-86022857D01*
X161343571Y-85880000D01*
X161343571Y-85665714D01*
X160343571Y-86665714D02*
X160343571Y-87451428D01*
X161343571Y-86665714D01*
X161343571Y-87451428D01*
X161343571Y-89165714D02*
X159843571Y-89165714D01*
X160915000Y-89665714D01*
X159843571Y-90165714D01*
X161343571Y-90165714D01*
X161343571Y-91094285D02*
X161272142Y-90951428D01*
X161200714Y-90880000D01*
X161057857Y-90808571D01*
X160629285Y-90808571D01*
X160486428Y-90880000D01*
X160415000Y-90951428D01*
X160343571Y-91094285D01*
X160343571Y-91308571D01*
X160415000Y-91451428D01*
X160486428Y-91522857D01*
X160629285Y-91594285D01*
X161057857Y-91594285D01*
X161200714Y-91522857D01*
X161272142Y-91451428D01*
X161343571Y-91308571D01*
X161343571Y-91094285D01*
X160343571Y-92237142D02*
X161343571Y-92237142D01*
X160486428Y-92237142D02*
X160415000Y-92308571D01*
X160343571Y-92451428D01*
X160343571Y-92665714D01*
X160415000Y-92808571D01*
X160557857Y-92880000D01*
X161343571Y-92880000D01*
X161343571Y-93594285D02*
X160343571Y-93594285D01*
X159843571Y-93594285D02*
X159915000Y-93522857D01*
X159986428Y-93594285D01*
X159915000Y-93665714D01*
X159843571Y-93594285D01*
X159986428Y-93594285D01*
X160343571Y-94094285D02*
X160343571Y-94665714D01*
X159843571Y-94308571D02*
X161129285Y-94308571D01*
X161272142Y-94380000D01*
X161343571Y-94522857D01*
X161343571Y-94665714D01*
X161343571Y-95380000D02*
X161272142Y-95237142D01*
X161200714Y-95165714D01*
X161057857Y-95094285D01*
X160629285Y-95094285D01*
X160486428Y-95165714D01*
X160415000Y-95237142D01*
X160343571Y-95380000D01*
X160343571Y-95594285D01*
X160415000Y-95737142D01*
X160486428Y-95808571D01*
X160629285Y-95880000D01*
X161057857Y-95880000D01*
X161200714Y-95808571D01*
X161272142Y-95737142D01*
X161343571Y-95594285D01*
X161343571Y-95380000D01*
X161343571Y-96522857D02*
X160343571Y-96522857D01*
X160629285Y-96522857D02*
X160486428Y-96594285D01*
X160415000Y-96665714D01*
X160343571Y-96808571D01*
X160343571Y-96951428D01*
D11*
X161925000Y-132080000D02*
X149225000Y-132080000D01*
X161925000Y-81280000D02*
X161925000Y-132080000D01*
X149225000Y-81280000D02*
X161925000Y-81280000D01*
X149225000Y-132080000D02*
X149225000Y-81280000D01*
X193675000Y-94615000D02*
X193675000Y-135890000D01*
X206375000Y-94615000D02*
X193675000Y-94615000D01*
X170815000Y-130175000D02*
X170815000Y-94615000D01*
X183515000Y-130175000D02*
X170815000Y-130175000D01*
X183515000Y-94615000D02*
X183515000Y-130175000D01*
X170815000Y-94615000D02*
X183515000Y-94615000D01*
D13*
X172738571Y-95802142D02*
X171238571Y-95802142D01*
X171238571Y-96159285D01*
X171310000Y-96373571D01*
X171452857Y-96516428D01*
X171595714Y-96587857D01*
X171881428Y-96659285D01*
X172095714Y-96659285D01*
X172381428Y-96587857D01*
X172524285Y-96516428D01*
X172667142Y-96373571D01*
X172738571Y-96159285D01*
X172738571Y-95802142D01*
X171738571Y-97945000D02*
X172738571Y-97945000D01*
X171738571Y-97302142D02*
X172524285Y-97302142D01*
X172667142Y-97373571D01*
X172738571Y-97516428D01*
X172738571Y-97730714D01*
X172667142Y-97873571D01*
X172595714Y-97945000D01*
X172738571Y-98659285D02*
X171738571Y-98659285D01*
X171881428Y-98659285D02*
X171810000Y-98730714D01*
X171738571Y-98873571D01*
X171738571Y-99087857D01*
X171810000Y-99230714D01*
X171952857Y-99302142D01*
X172738571Y-99302142D01*
X171952857Y-99302142D02*
X171810000Y-99373571D01*
X171738571Y-99516428D01*
X171738571Y-99730714D01*
X171810000Y-99873571D01*
X171952857Y-99945000D01*
X172738571Y-99945000D01*
X171738571Y-100659285D02*
X173238571Y-100659285D01*
X171810000Y-100659285D02*
X171738571Y-100802142D01*
X171738571Y-101087857D01*
X171810000Y-101230714D01*
X171881428Y-101302142D01*
X172024285Y-101373571D01*
X172452857Y-101373571D01*
X172595714Y-101302142D01*
X172667142Y-101230714D01*
X172738571Y-101087857D01*
X172738571Y-100802142D01*
X172667142Y-100659285D01*
X171738571Y-103802142D02*
X172738571Y-103802142D01*
X171738571Y-103159285D02*
X172524285Y-103159285D01*
X172667142Y-103230714D01*
X172738571Y-103373571D01*
X172738571Y-103587857D01*
X172667142Y-103730714D01*
X172595714Y-103802142D01*
X172667142Y-104445000D02*
X172738571Y-104587857D01*
X172738571Y-104873571D01*
X172667142Y-105016428D01*
X172524285Y-105087857D01*
X172452857Y-105087857D01*
X172310000Y-105016428D01*
X172238571Y-104873571D01*
X172238571Y-104659285D01*
X172167142Y-104516428D01*
X172024285Y-104445000D01*
X171952857Y-104445000D01*
X171810000Y-104516428D01*
X171738571Y-104659285D01*
X171738571Y-104873571D01*
X171810000Y-105016428D01*
X172667142Y-106302142D02*
X172738571Y-106159285D01*
X172738571Y-105873571D01*
X172667142Y-105730714D01*
X172524285Y-105659285D01*
X171952857Y-105659285D01*
X171810000Y-105730714D01*
X171738571Y-105873571D01*
X171738571Y-106159285D01*
X171810000Y-106302142D01*
X171952857Y-106373571D01*
X172095714Y-106373571D01*
X172238571Y-105659285D01*
X172738571Y-107016428D02*
X171738571Y-107016428D01*
X172024285Y-107016428D02*
X171881428Y-107087857D01*
X171810000Y-107159285D01*
X171738571Y-107302142D01*
X171738571Y-107445000D01*
X172738571Y-109087857D02*
X171738571Y-109087857D01*
X171881428Y-109087857D02*
X171810000Y-109159285D01*
X171738571Y-109302142D01*
X171738571Y-109516428D01*
X171810000Y-109659285D01*
X171952857Y-109730714D01*
X172738571Y-109730714D01*
X171952857Y-109730714D02*
X171810000Y-109802142D01*
X171738571Y-109945000D01*
X171738571Y-110159285D01*
X171810000Y-110302142D01*
X171952857Y-110373571D01*
X172738571Y-110373571D01*
X172667142Y-111659285D02*
X172738571Y-111516428D01*
X172738571Y-111230714D01*
X172667142Y-111087857D01*
X172524285Y-111016428D01*
X171952857Y-111016428D01*
X171810000Y-111087857D01*
X171738571Y-111230714D01*
X171738571Y-111516428D01*
X171810000Y-111659285D01*
X171952857Y-111730714D01*
X172095714Y-111730714D01*
X172238571Y-111016428D01*
X172738571Y-112373571D02*
X171738571Y-112373571D01*
X171881428Y-112373571D02*
X171810000Y-112445000D01*
X171738571Y-112587857D01*
X171738571Y-112802142D01*
X171810000Y-112945000D01*
X171952857Y-113016428D01*
X172738571Y-113016428D01*
X171952857Y-113016428D02*
X171810000Y-113087857D01*
X171738571Y-113230714D01*
X171738571Y-113445000D01*
X171810000Y-113587857D01*
X171952857Y-113659285D01*
X172738571Y-113659285D01*
X172738571Y-114587857D02*
X172667142Y-114445000D01*
X172595714Y-114373571D01*
X172452857Y-114302142D01*
X172024285Y-114302142D01*
X171881428Y-114373571D01*
X171810000Y-114445000D01*
X171738571Y-114587857D01*
X171738571Y-114802142D01*
X171810000Y-114945000D01*
X171881428Y-115016428D01*
X172024285Y-115087857D01*
X172452857Y-115087857D01*
X172595714Y-115016428D01*
X172667142Y-114945000D01*
X172738571Y-114802142D01*
X172738571Y-114587857D01*
X172738571Y-115730714D02*
X171738571Y-115730714D01*
X172024285Y-115730714D02*
X171881428Y-115802142D01*
X171810000Y-115873571D01*
X171738571Y-116016428D01*
X171738571Y-116159285D01*
X171738571Y-116516428D02*
X172738571Y-116873571D01*
X171738571Y-117230714D02*
X172738571Y-116873571D01*
X173095714Y-116730714D01*
X173167142Y-116659285D01*
X173238571Y-116516428D01*
X172595714Y-117802142D02*
X172667142Y-117873571D01*
X172738571Y-117802142D01*
X172667142Y-117730714D01*
X172595714Y-117802142D01*
X172738571Y-117802142D01*
X171810000Y-117802142D02*
X171881428Y-117873571D01*
X171952857Y-117802142D01*
X171881428Y-117730714D01*
X171810000Y-117802142D01*
X171952857Y-117802142D01*
X173788571Y-96087857D02*
X173788571Y-96230714D01*
X173860000Y-96373571D01*
X173931428Y-96445000D01*
X174074285Y-96516428D01*
X174360000Y-96587857D01*
X174717142Y-96587857D01*
X175002857Y-96516428D01*
X175145714Y-96445000D01*
X175217142Y-96373571D01*
X175288571Y-96230714D01*
X175288571Y-96087857D01*
X175217142Y-95945000D01*
X175145714Y-95873571D01*
X175002857Y-95802142D01*
X174717142Y-95730714D01*
X174360000Y-95730714D01*
X174074285Y-95802142D01*
X173931428Y-95873571D01*
X173860000Y-95945000D01*
X173788571Y-96087857D01*
X175288571Y-98016428D02*
X175288571Y-97159285D01*
X175288571Y-97587857D02*
X173788571Y-97587857D01*
X174002857Y-97445000D01*
X174145714Y-97302142D01*
X174217142Y-97159285D01*
X173788571Y-98945000D02*
X173788571Y-99087857D01*
X173860000Y-99230714D01*
X173931428Y-99302142D01*
X174074285Y-99373571D01*
X174360000Y-99445000D01*
X174717142Y-99445000D01*
X175002857Y-99373571D01*
X175145714Y-99302142D01*
X175217142Y-99230714D01*
X175288571Y-99087857D01*
X175288571Y-98945000D01*
X175217142Y-98802142D01*
X175145714Y-98730714D01*
X175002857Y-98659285D01*
X174717142Y-98587857D01*
X174360000Y-98587857D01*
X174074285Y-98659285D01*
X173931428Y-98730714D01*
X173860000Y-98802142D01*
X173788571Y-98945000D01*
X173788571Y-100373571D02*
X173788571Y-100516428D01*
X173860000Y-100659285D01*
X173931428Y-100730714D01*
X174074285Y-100802142D01*
X174360000Y-100873571D01*
X174717142Y-100873571D01*
X175002857Y-100802142D01*
X175145714Y-100730714D01*
X175217142Y-100659285D01*
X175288571Y-100516428D01*
X175288571Y-100373571D01*
X175217142Y-100230714D01*
X175145714Y-100159285D01*
X175002857Y-100087857D01*
X174717142Y-100016428D01*
X174360000Y-100016428D01*
X174074285Y-100087857D01*
X173931428Y-100159285D01*
X173860000Y-100230714D01*
X173788571Y-100373571D01*
X175145714Y-101516428D02*
X175217142Y-101587857D01*
X175288571Y-101516428D01*
X175217142Y-101445000D01*
X175145714Y-101516428D01*
X175288571Y-101516428D01*
X175288571Y-103016428D02*
X175288571Y-102159285D01*
X175288571Y-102587857D02*
X173788571Y-102587857D01*
X174002857Y-102445000D01*
X174145714Y-102302142D01*
X174217142Y-102159285D01*
X174502857Y-104159285D02*
X174502857Y-103659285D01*
X175288571Y-103659285D02*
X173788571Y-103659285D01*
X173788571Y-104373571D01*
X174502857Y-105445000D02*
X174502857Y-104945000D01*
X175288571Y-104945000D02*
X173788571Y-104945000D01*
X173788571Y-105659285D01*
X174502857Y-106730714D02*
X174502857Y-106230714D01*
X175288571Y-106230714D02*
X173788571Y-106230714D01*
X173788571Y-106945000D01*
X180245714Y-96659285D02*
X180317142Y-96587857D01*
X180388571Y-96373571D01*
X180388571Y-96230714D01*
X180317142Y-96016428D01*
X180174285Y-95873571D01*
X180031428Y-95802142D01*
X179745714Y-95730714D01*
X179531428Y-95730714D01*
X179245714Y-95802142D01*
X179102857Y-95873571D01*
X178960000Y-96016428D01*
X178888571Y-96230714D01*
X178888571Y-96373571D01*
X178960000Y-96587857D01*
X179031428Y-96659285D01*
X180388571Y-97302142D02*
X178888571Y-97302142D01*
X180388571Y-97945000D02*
X179602857Y-97945000D01*
X179460000Y-97873571D01*
X179388571Y-97730714D01*
X179388571Y-97516428D01*
X179460000Y-97373571D01*
X179531428Y-97302142D01*
X180388571Y-99302142D02*
X179602857Y-99302142D01*
X179460000Y-99230714D01*
X179388571Y-99087857D01*
X179388571Y-98802142D01*
X179460000Y-98659285D01*
X180317142Y-99302142D02*
X180388571Y-99159285D01*
X180388571Y-98802142D01*
X180317142Y-98659285D01*
X180174285Y-98587857D01*
X180031428Y-98587857D01*
X179888571Y-98659285D01*
X179817142Y-98802142D01*
X179817142Y-99159285D01*
X179745714Y-99302142D01*
X179388571Y-100016428D02*
X180388571Y-100016428D01*
X179531428Y-100016428D02*
X179460000Y-100087857D01*
X179388571Y-100230714D01*
X179388571Y-100445000D01*
X179460000Y-100587857D01*
X179602857Y-100659285D01*
X180388571Y-100659285D01*
X179388571Y-102016428D02*
X180602857Y-102016428D01*
X180745714Y-101945000D01*
X180817142Y-101873571D01*
X180888571Y-101730714D01*
X180888571Y-101516428D01*
X180817142Y-101373571D01*
X180317142Y-102016428D02*
X180388571Y-101873571D01*
X180388571Y-101587857D01*
X180317142Y-101445000D01*
X180245714Y-101373571D01*
X180102857Y-101302142D01*
X179674285Y-101302142D01*
X179531428Y-101373571D01*
X179460000Y-101445000D01*
X179388571Y-101587857D01*
X179388571Y-101873571D01*
X179460000Y-102016428D01*
X180317142Y-103302142D02*
X180388571Y-103159285D01*
X180388571Y-102873571D01*
X180317142Y-102730714D01*
X180174285Y-102659285D01*
X179602857Y-102659285D01*
X179460000Y-102730714D01*
X179388571Y-102873571D01*
X179388571Y-103159285D01*
X179460000Y-103302142D01*
X179602857Y-103373571D01*
X179745714Y-103373571D01*
X179888571Y-102659285D01*
X180317142Y-105087857D02*
X180388571Y-105302142D01*
X180388571Y-105659285D01*
X180317142Y-105802142D01*
X180245714Y-105873571D01*
X180102857Y-105945000D01*
X179960000Y-105945000D01*
X179817142Y-105873571D01*
X179745714Y-105802142D01*
X179674285Y-105659285D01*
X179602857Y-105373571D01*
X179531428Y-105230714D01*
X179460000Y-105159285D01*
X179317142Y-105087857D01*
X179174285Y-105087857D01*
X179031428Y-105159285D01*
X178960000Y-105230714D01*
X178888571Y-105373571D01*
X178888571Y-105730714D01*
X178960000Y-105945000D01*
X178674285Y-105516428D02*
X180602857Y-105516428D01*
X178888571Y-106873571D02*
X178888571Y-107016428D01*
X178960000Y-107159285D01*
X179031428Y-107230714D01*
X179174285Y-107302142D01*
X179460000Y-107373571D01*
X179817142Y-107373571D01*
X180102857Y-107302142D01*
X180245714Y-107230714D01*
X180317142Y-107159285D01*
X180388571Y-107016428D01*
X180388571Y-106873571D01*
X180317142Y-106730714D01*
X180245714Y-106659285D01*
X180102857Y-106587857D01*
X179817142Y-106516428D01*
X179460000Y-106516428D01*
X179174285Y-106587857D01*
X179031428Y-106659285D01*
X178960000Y-106730714D01*
X178888571Y-106873571D01*
X180388571Y-108802142D02*
X180388571Y-107945000D01*
X180388571Y-108373571D02*
X178888571Y-108373571D01*
X179102857Y-108230714D01*
X179245714Y-108087857D01*
X179317142Y-107945000D01*
X178888571Y-109730714D02*
X178888571Y-109873571D01*
X178960000Y-110016428D01*
X179031428Y-110087857D01*
X179174285Y-110159285D01*
X179460000Y-110230714D01*
X179817142Y-110230714D01*
X180102857Y-110159285D01*
X180245714Y-110087857D01*
X180317142Y-110016428D01*
X180388571Y-109873571D01*
X180388571Y-109730714D01*
X180317142Y-109587857D01*
X180245714Y-109516428D01*
X180102857Y-109445000D01*
X179817142Y-109373571D01*
X179460000Y-109373571D01*
X179174285Y-109445000D01*
X179031428Y-109516428D01*
X178960000Y-109587857D01*
X178888571Y-109730714D01*
X178888571Y-111159285D02*
X178888571Y-111302142D01*
X178960000Y-111445000D01*
X179031428Y-111516428D01*
X179174285Y-111587857D01*
X179460000Y-111659285D01*
X179817142Y-111659285D01*
X180102857Y-111587857D01*
X180245714Y-111516428D01*
X180317142Y-111445000D01*
X180388571Y-111302142D01*
X180388571Y-111159285D01*
X180317142Y-111016428D01*
X180245714Y-110945000D01*
X180102857Y-110873571D01*
X179817142Y-110802142D01*
X179460000Y-110802142D01*
X179174285Y-110873571D01*
X179031428Y-110945000D01*
X178960000Y-111016428D01*
X178888571Y-111159285D01*
X179388571Y-113230714D02*
X179388571Y-113802142D01*
X178888571Y-113445000D02*
X180174285Y-113445000D01*
X180317142Y-113516428D01*
X180388571Y-113659285D01*
X180388571Y-113802142D01*
X180388571Y-114516428D02*
X180317142Y-114373571D01*
X180245714Y-114302142D01*
X180102857Y-114230714D01*
X179674285Y-114230714D01*
X179531428Y-114302142D01*
X179460000Y-114373571D01*
X179388571Y-114516428D01*
X179388571Y-114730714D01*
X179460000Y-114873571D01*
X179531428Y-114945000D01*
X179674285Y-115016428D01*
X180102857Y-115016428D01*
X180245714Y-114945000D01*
X180317142Y-114873571D01*
X180388571Y-114730714D01*
X180388571Y-114516428D01*
X179602857Y-117302142D02*
X179602857Y-116802142D01*
X180388571Y-116802142D02*
X178888571Y-116802142D01*
X178888571Y-117516428D01*
X179602857Y-118587857D02*
X179602857Y-118087857D01*
X180388571Y-118087857D02*
X178888571Y-118087857D01*
X178888571Y-118802142D01*
X180245714Y-119373571D02*
X180317142Y-119445000D01*
X180388571Y-119373571D01*
X180317142Y-119302142D01*
X180245714Y-119373571D01*
X180388571Y-119373571D01*
X179460000Y-119373571D02*
X179531428Y-119445000D01*
X179602857Y-119373571D01*
X179531428Y-119302142D01*
X179460000Y-119373571D01*
X179602857Y-119373571D01*
X181438571Y-96087857D02*
X181438571Y-96230714D01*
X181510000Y-96373571D01*
X181581428Y-96445000D01*
X181724285Y-96516428D01*
X182010000Y-96587857D01*
X182367142Y-96587857D01*
X182652857Y-96516428D01*
X182795714Y-96445000D01*
X182867142Y-96373571D01*
X182938571Y-96230714D01*
X182938571Y-96087857D01*
X182867142Y-95945000D01*
X182795714Y-95873571D01*
X182652857Y-95802142D01*
X182367142Y-95730714D01*
X182010000Y-95730714D01*
X181724285Y-95802142D01*
X181581428Y-95873571D01*
X181510000Y-95945000D01*
X181438571Y-96087857D01*
X182938571Y-98016428D02*
X182938571Y-97159285D01*
X182938571Y-97587857D02*
X181438571Y-97587857D01*
X181652857Y-97445000D01*
X181795714Y-97302142D01*
X181867142Y-97159285D01*
X181438571Y-98945000D02*
X181438571Y-99087857D01*
X181510000Y-99230714D01*
X181581428Y-99302142D01*
X181724285Y-99373571D01*
X182010000Y-99445000D01*
X182367142Y-99445000D01*
X182652857Y-99373571D01*
X182795714Y-99302142D01*
X182867142Y-99230714D01*
X182938571Y-99087857D01*
X182938571Y-98945000D01*
X182867142Y-98802142D01*
X182795714Y-98730714D01*
X182652857Y-98659285D01*
X182367142Y-98587857D01*
X182010000Y-98587857D01*
X181724285Y-98659285D01*
X181581428Y-98730714D01*
X181510000Y-98802142D01*
X181438571Y-98945000D01*
X181438571Y-100373571D02*
X181438571Y-100516428D01*
X181510000Y-100659285D01*
X181581428Y-100730714D01*
X181724285Y-100802142D01*
X182010000Y-100873571D01*
X182367142Y-100873571D01*
X182652857Y-100802142D01*
X182795714Y-100730714D01*
X182867142Y-100659285D01*
X182938571Y-100516428D01*
X182938571Y-100373571D01*
X182867142Y-100230714D01*
X182795714Y-100159285D01*
X182652857Y-100087857D01*
X182367142Y-100016428D01*
X182010000Y-100016428D01*
X181724285Y-100087857D01*
X181581428Y-100159285D01*
X181510000Y-100230714D01*
X181438571Y-100373571D01*
X182795714Y-101516428D02*
X182867142Y-101587857D01*
X182938571Y-101516428D01*
X182867142Y-101445000D01*
X182795714Y-101516428D01*
X182938571Y-101516428D01*
X182010000Y-101516428D02*
X182081428Y-101587857D01*
X182152857Y-101516428D01*
X182081428Y-101445000D01*
X182010000Y-101516428D01*
X182152857Y-101516428D01*
X182152857Y-102730714D02*
X182152857Y-102230714D01*
X182938571Y-102230714D02*
X181438571Y-102230714D01*
X181438571Y-102945000D01*
X182152857Y-104016428D02*
X182152857Y-103516428D01*
X182938571Y-103516428D02*
X181438571Y-103516428D01*
X181438571Y-104230714D01*
D11*
X202438000Y-130810000D02*
X202438000Y-133096000D01*
X202565000Y-133096000D02*
X202565000Y-130810000D01*
X200025000Y-134747000D02*
X200025000Y-132207000D01*
X199898000Y-132334000D02*
X199898000Y-134747000D01*
X202565000Y-124333000D02*
X202565000Y-126746000D01*
X202438000Y-126746000D02*
X202438000Y-124333000D01*
X200025000Y-124333000D02*
X200025000Y-126746000D01*
X199898000Y-126873000D02*
X199898000Y-124333000D01*
X197358000Y-125857000D02*
X197358000Y-128397000D01*
X197485000Y-128397000D02*
X197485000Y-125857000D01*
X197485000Y-130810000D02*
X197485000Y-133096000D01*
X197358000Y-133223000D02*
X197358000Y-130810000D01*
X194945000Y-134747000D02*
X194945000Y-132334000D01*
X194818000Y-128397000D02*
X194818000Y-125984000D01*
X194945000Y-125984000D02*
X194945000Y-128270000D01*
X194818000Y-134747000D02*
X194818000Y-132207000D01*
X199999600Y-131191000D02*
X199974200Y-131191000D01*
X202514200Y-124714000D02*
X202539600Y-124714000D01*
D13*
X189686428Y-108236428D02*
X189615000Y-108093571D01*
X189543571Y-108022142D01*
X189400714Y-107950714D01*
X189329285Y-107950714D01*
X189186428Y-108022142D01*
X189115000Y-108093571D01*
X189043571Y-108236428D01*
X189043571Y-108522142D01*
X189115000Y-108665000D01*
X189186428Y-108736428D01*
X189329285Y-108807857D01*
X189400714Y-108807857D01*
X189543571Y-108736428D01*
X189615000Y-108665000D01*
X189686428Y-108522142D01*
X189686428Y-108236428D01*
X189757857Y-108093571D01*
X189829285Y-108022142D01*
X189972142Y-107950714D01*
X190257857Y-107950714D01*
X190400714Y-108022142D01*
X190472142Y-108093571D01*
X190543571Y-108236428D01*
X190543571Y-108522142D01*
X190472142Y-108665000D01*
X190400714Y-108736428D01*
X190257857Y-108807857D01*
X189972142Y-108807857D01*
X189829285Y-108736428D01*
X189757857Y-108665000D01*
X189686428Y-108522142D01*
X190543571Y-109450714D02*
X189043571Y-109450714D01*
X190543571Y-110307857D02*
X189686428Y-109665000D01*
X189043571Y-110307857D02*
X189900714Y-109450714D01*
X189543571Y-111950714D02*
X190543571Y-112236428D01*
X189829285Y-112522142D01*
X190543571Y-112807857D01*
X189543571Y-113093571D01*
X190543571Y-113665000D02*
X189543571Y-113665000D01*
X189043571Y-113665000D02*
X189115000Y-113593571D01*
X189186428Y-113665000D01*
X189115000Y-113736428D01*
X189043571Y-113665000D01*
X189186428Y-113665000D01*
X189543571Y-114379285D02*
X190543571Y-114379285D01*
X189686428Y-114379285D02*
X189615000Y-114450714D01*
X189543571Y-114593571D01*
X189543571Y-114807857D01*
X189615000Y-114950714D01*
X189757857Y-115022142D01*
X190543571Y-115022142D01*
X190543571Y-116379285D02*
X189043571Y-116379285D01*
X190472142Y-116379285D02*
X190543571Y-116236428D01*
X190543571Y-115950714D01*
X190472142Y-115807857D01*
X190400714Y-115736428D01*
X190257857Y-115665000D01*
X189829285Y-115665000D01*
X189686428Y-115736428D01*
X189615000Y-115807857D01*
X189543571Y-115950714D01*
X189543571Y-116236428D01*
X189615000Y-116379285D01*
X190543571Y-117307857D02*
X190472142Y-117165000D01*
X190400714Y-117093571D01*
X190257857Y-117022142D01*
X189829285Y-117022142D01*
X189686428Y-117093571D01*
X189615000Y-117165000D01*
X189543571Y-117307857D01*
X189543571Y-117522142D01*
X189615000Y-117665000D01*
X189686428Y-117736428D01*
X189829285Y-117807857D01*
X190257857Y-117807857D01*
X190400714Y-117736428D01*
X190472142Y-117665000D01*
X190543571Y-117522142D01*
X190543571Y-117307857D01*
X189543571Y-118307857D02*
X190543571Y-118593571D01*
X189829285Y-118879285D01*
X190543571Y-119165000D01*
X189543571Y-119450714D01*
D11*
X188595000Y-104140000D02*
X206375000Y-104140000D01*
X188595000Y-122555000D02*
X188595000Y-104140000D01*
D13*
X194103571Y-131000714D02*
X194103571Y-131286428D01*
X194175000Y-131429285D01*
X194317857Y-131572142D01*
X194603571Y-131643571D01*
X195103571Y-131643571D01*
X195389285Y-131572142D01*
X195532142Y-131429285D01*
X195603571Y-131286428D01*
X195603571Y-131000714D01*
X195532142Y-130857857D01*
X195389285Y-130715000D01*
X195103571Y-130643571D01*
X194603571Y-130643571D01*
X194317857Y-130715000D01*
X194175000Y-130857857D01*
X194103571Y-131000714D01*
X194103571Y-132572142D02*
X194103571Y-132857857D01*
X194175000Y-133000714D01*
X194317857Y-133143571D01*
X194603571Y-133215000D01*
X195103571Y-133215000D01*
X195389285Y-133143571D01*
X195532142Y-133000714D01*
X195603571Y-132857857D01*
X195603571Y-132572142D01*
X195532142Y-132429285D01*
X195389285Y-132286428D01*
X195103571Y-132215000D01*
X194603571Y-132215000D01*
X194317857Y-132286428D01*
X194175000Y-132429285D01*
X194103571Y-132572142D01*
X194103571Y-134143571D02*
X194103571Y-134429285D01*
X194175000Y-134572142D01*
X194317857Y-134715000D01*
X194603571Y-134786428D01*
X195103571Y-134786428D01*
X195389285Y-134715000D01*
X195532142Y-134572142D01*
X195603571Y-134429285D01*
X195603571Y-134143571D01*
X195532142Y-134000714D01*
X195389285Y-133857857D01*
X195103571Y-133786428D01*
X194603571Y-133786428D01*
X194317857Y-133857857D01*
X194175000Y-134000714D01*
X194103571Y-134143571D01*
X196653571Y-131000714D02*
X196653571Y-131286428D01*
X196725000Y-131429285D01*
X196867857Y-131572142D01*
X197153571Y-131643571D01*
X197653571Y-131643571D01*
X197939285Y-131572142D01*
X198082142Y-131429285D01*
X198153571Y-131286428D01*
X198153571Y-131000714D01*
X198082142Y-130857857D01*
X197939285Y-130715000D01*
X197653571Y-130643571D01*
X197153571Y-130643571D01*
X196867857Y-130715000D01*
X196725000Y-130857857D01*
X196653571Y-131000714D01*
X196653571Y-132572142D02*
X196653571Y-132857857D01*
X196725000Y-133000714D01*
X196867857Y-133143571D01*
X197153571Y-133215000D01*
X197653571Y-133215000D01*
X197939285Y-133143571D01*
X198082142Y-133000714D01*
X198153571Y-132857857D01*
X198153571Y-132572142D01*
X198082142Y-132429285D01*
X197939285Y-132286428D01*
X197653571Y-132215000D01*
X197153571Y-132215000D01*
X196867857Y-132286428D01*
X196725000Y-132429285D01*
X196653571Y-132572142D01*
X196653571Y-134143571D02*
X196653571Y-134429285D01*
X196725000Y-134572142D01*
X196867857Y-134715000D01*
X197153571Y-134786428D01*
X197653571Y-134786428D01*
X197939285Y-134715000D01*
X198082142Y-134572142D01*
X198153571Y-134429285D01*
X198153571Y-134143571D01*
X198082142Y-134000714D01*
X197939285Y-133857857D01*
X197653571Y-133786428D01*
X197153571Y-133786428D01*
X196867857Y-133857857D01*
X196725000Y-134000714D01*
X196653571Y-134143571D01*
X199203571Y-131000714D02*
X199203571Y-131286428D01*
X199275000Y-131429285D01*
X199417857Y-131572142D01*
X199703571Y-131643571D01*
X200203571Y-131643571D01*
X200489285Y-131572142D01*
X200632142Y-131429285D01*
X200703571Y-131286428D01*
X200703571Y-131000714D01*
X200632142Y-130857857D01*
X200489285Y-130715000D01*
X200203571Y-130643571D01*
X199703571Y-130643571D01*
X199417857Y-130715000D01*
X199275000Y-130857857D01*
X199203571Y-131000714D01*
X199203571Y-132572142D02*
X199203571Y-132857857D01*
X199275000Y-133000714D01*
X199417857Y-133143571D01*
X199703571Y-133215000D01*
X200203571Y-133215000D01*
X200489285Y-133143571D01*
X200632142Y-133000714D01*
X200703571Y-132857857D01*
X200703571Y-132572142D01*
X200632142Y-132429285D01*
X200489285Y-132286428D01*
X200203571Y-132215000D01*
X199703571Y-132215000D01*
X199417857Y-132286428D01*
X199275000Y-132429285D01*
X199203571Y-132572142D01*
X199203571Y-134143571D02*
X199203571Y-134429285D01*
X199275000Y-134572142D01*
X199417857Y-134715000D01*
X199703571Y-134786428D01*
X200203571Y-134786428D01*
X200489285Y-134715000D01*
X200632142Y-134572142D01*
X200703571Y-134429285D01*
X200703571Y-134143571D01*
X200632142Y-134000714D01*
X200489285Y-133857857D01*
X200203571Y-133786428D01*
X199703571Y-133786428D01*
X199417857Y-133857857D01*
X199275000Y-134000714D01*
X199203571Y-134143571D01*
X201753571Y-131000714D02*
X201753571Y-131286428D01*
X201825000Y-131429285D01*
X201967857Y-131572142D01*
X202253571Y-131643571D01*
X202753571Y-131643571D01*
X203039285Y-131572142D01*
X203182142Y-131429285D01*
X203253571Y-131286428D01*
X203253571Y-131000714D01*
X203182142Y-130857857D01*
X203039285Y-130715000D01*
X202753571Y-130643571D01*
X202253571Y-130643571D01*
X201967857Y-130715000D01*
X201825000Y-130857857D01*
X201753571Y-131000714D01*
X201753571Y-132572142D02*
X201753571Y-132857857D01*
X201825000Y-133000714D01*
X201967857Y-133143571D01*
X202253571Y-133215000D01*
X202753571Y-133215000D01*
X203039285Y-133143571D01*
X203182142Y-133000714D01*
X203253571Y-132857857D01*
X203253571Y-132572142D01*
X203182142Y-132429285D01*
X203039285Y-132286428D01*
X202753571Y-132215000D01*
X202253571Y-132215000D01*
X201967857Y-132286428D01*
X201825000Y-132429285D01*
X201753571Y-132572142D01*
X201753571Y-134143571D02*
X201753571Y-134429285D01*
X201825000Y-134572142D01*
X201967857Y-134715000D01*
X202253571Y-134786428D01*
X202753571Y-134786428D01*
X203039285Y-134715000D01*
X203182142Y-134572142D01*
X203253571Y-134429285D01*
X203253571Y-134143571D01*
X203182142Y-134000714D01*
X203039285Y-133857857D01*
X202753571Y-133786428D01*
X202253571Y-133786428D01*
X201967857Y-133857857D01*
X201825000Y-134000714D01*
X201753571Y-134143571D01*
X204303571Y-131000714D02*
X204303571Y-131286428D01*
X204375000Y-131429285D01*
X204517857Y-131572142D01*
X204803571Y-131643571D01*
X205303571Y-131643571D01*
X205589285Y-131572142D01*
X205732142Y-131429285D01*
X205803571Y-131286428D01*
X205803571Y-131000714D01*
X205732142Y-130857857D01*
X205589285Y-130715000D01*
X205303571Y-130643571D01*
X204803571Y-130643571D01*
X204517857Y-130715000D01*
X204375000Y-130857857D01*
X204303571Y-131000714D01*
X204303571Y-132572142D02*
X204303571Y-132857857D01*
X204375000Y-133000714D01*
X204517857Y-133143571D01*
X204803571Y-133215000D01*
X205303571Y-133215000D01*
X205589285Y-133143571D01*
X205732142Y-133000714D01*
X205803571Y-132857857D01*
X205803571Y-132572142D01*
X205732142Y-132429285D01*
X205589285Y-132286428D01*
X205303571Y-132215000D01*
X204803571Y-132215000D01*
X204517857Y-132286428D01*
X204375000Y-132429285D01*
X204303571Y-132572142D01*
X204303571Y-134143571D02*
X204303571Y-134429285D01*
X204375000Y-134572142D01*
X204517857Y-134715000D01*
X204803571Y-134786428D01*
X205303571Y-134786428D01*
X205589285Y-134715000D01*
X205732142Y-134572142D01*
X205803571Y-134429285D01*
X205803571Y-134143571D01*
X205732142Y-134000714D01*
X205589285Y-133857857D01*
X205303571Y-133786428D01*
X204803571Y-133786428D01*
X204517857Y-133857857D01*
X204375000Y-134000714D01*
X204303571Y-134143571D01*
X194103571Y-124650714D02*
X194103571Y-124936428D01*
X194175000Y-125079285D01*
X194317857Y-125222142D01*
X194603571Y-125293571D01*
X195103571Y-125293571D01*
X195389285Y-125222142D01*
X195532142Y-125079285D01*
X195603571Y-124936428D01*
X195603571Y-124650714D01*
X195532142Y-124507857D01*
X195389285Y-124365000D01*
X195103571Y-124293571D01*
X194603571Y-124293571D01*
X194317857Y-124365000D01*
X194175000Y-124507857D01*
X194103571Y-124650714D01*
X194103571Y-126222142D02*
X194103571Y-126507857D01*
X194175000Y-126650714D01*
X194317857Y-126793571D01*
X194603571Y-126865000D01*
X195103571Y-126865000D01*
X195389285Y-126793571D01*
X195532142Y-126650714D01*
X195603571Y-126507857D01*
X195603571Y-126222142D01*
X195532142Y-126079285D01*
X195389285Y-125936428D01*
X195103571Y-125865000D01*
X194603571Y-125865000D01*
X194317857Y-125936428D01*
X194175000Y-126079285D01*
X194103571Y-126222142D01*
X194103571Y-127793571D02*
X194103571Y-128079285D01*
X194175000Y-128222142D01*
X194317857Y-128365000D01*
X194603571Y-128436428D01*
X195103571Y-128436428D01*
X195389285Y-128365000D01*
X195532142Y-128222142D01*
X195603571Y-128079285D01*
X195603571Y-127793571D01*
X195532142Y-127650714D01*
X195389285Y-127507857D01*
X195103571Y-127436428D01*
X194603571Y-127436428D01*
X194317857Y-127507857D01*
X194175000Y-127650714D01*
X194103571Y-127793571D01*
X196653571Y-124650714D02*
X196653571Y-124936428D01*
X196725000Y-125079285D01*
X196867857Y-125222142D01*
X197153571Y-125293571D01*
X197653571Y-125293571D01*
X197939285Y-125222142D01*
X198082142Y-125079285D01*
X198153571Y-124936428D01*
X198153571Y-124650714D01*
X198082142Y-124507857D01*
X197939285Y-124365000D01*
X197653571Y-124293571D01*
X197153571Y-124293571D01*
X196867857Y-124365000D01*
X196725000Y-124507857D01*
X196653571Y-124650714D01*
X196653571Y-126222142D02*
X196653571Y-126507857D01*
X196725000Y-126650714D01*
X196867857Y-126793571D01*
X197153571Y-126865000D01*
X197653571Y-126865000D01*
X197939285Y-126793571D01*
X198082142Y-126650714D01*
X198153571Y-126507857D01*
X198153571Y-126222142D01*
X198082142Y-126079285D01*
X197939285Y-125936428D01*
X197653571Y-125865000D01*
X197153571Y-125865000D01*
X196867857Y-125936428D01*
X196725000Y-126079285D01*
X196653571Y-126222142D01*
X196653571Y-127793571D02*
X196653571Y-128079285D01*
X196725000Y-128222142D01*
X196867857Y-128365000D01*
X197153571Y-128436428D01*
X197653571Y-128436428D01*
X197939285Y-128365000D01*
X198082142Y-128222142D01*
X198153571Y-128079285D01*
X198153571Y-127793571D01*
X198082142Y-127650714D01*
X197939285Y-127507857D01*
X197653571Y-127436428D01*
X197153571Y-127436428D01*
X196867857Y-127507857D01*
X196725000Y-127650714D01*
X196653571Y-127793571D01*
X199203571Y-124650714D02*
X199203571Y-124936428D01*
X199275000Y-125079285D01*
X199417857Y-125222142D01*
X199703571Y-125293571D01*
X200203571Y-125293571D01*
X200489285Y-125222142D01*
X200632142Y-125079285D01*
X200703571Y-124936428D01*
X200703571Y-124650714D01*
X200632142Y-124507857D01*
X200489285Y-124365000D01*
X200203571Y-124293571D01*
X199703571Y-124293571D01*
X199417857Y-124365000D01*
X199275000Y-124507857D01*
X199203571Y-124650714D01*
X199203571Y-126222142D02*
X199203571Y-126507857D01*
X199275000Y-126650714D01*
X199417857Y-126793571D01*
X199703571Y-126865000D01*
X200203571Y-126865000D01*
X200489285Y-126793571D01*
X200632142Y-126650714D01*
X200703571Y-126507857D01*
X200703571Y-126222142D01*
X200632142Y-126079285D01*
X200489285Y-125936428D01*
X200203571Y-125865000D01*
X199703571Y-125865000D01*
X199417857Y-125936428D01*
X199275000Y-126079285D01*
X199203571Y-126222142D01*
X199203571Y-127793571D02*
X199203571Y-128079285D01*
X199275000Y-128222142D01*
X199417857Y-128365000D01*
X199703571Y-128436428D01*
X200203571Y-128436428D01*
X200489285Y-128365000D01*
X200632142Y-128222142D01*
X200703571Y-128079285D01*
X200703571Y-127793571D01*
X200632142Y-127650714D01*
X200489285Y-127507857D01*
X200203571Y-127436428D01*
X199703571Y-127436428D01*
X199417857Y-127507857D01*
X199275000Y-127650714D01*
X199203571Y-127793571D01*
X201753571Y-124650714D02*
X201753571Y-124936428D01*
X201825000Y-125079285D01*
X201967857Y-125222142D01*
X202253571Y-125293571D01*
X202753571Y-125293571D01*
X203039285Y-125222142D01*
X203182142Y-125079285D01*
X203253571Y-124936428D01*
X203253571Y-124650714D01*
X203182142Y-124507857D01*
X203039285Y-124365000D01*
X202753571Y-124293571D01*
X202253571Y-124293571D01*
X201967857Y-124365000D01*
X201825000Y-124507857D01*
X201753571Y-124650714D01*
X201753571Y-126222142D02*
X201753571Y-126507857D01*
X201825000Y-126650714D01*
X201967857Y-126793571D01*
X202253571Y-126865000D01*
X202753571Y-126865000D01*
X203039285Y-126793571D01*
X203182142Y-126650714D01*
X203253571Y-126507857D01*
X203253571Y-126222142D01*
X203182142Y-126079285D01*
X203039285Y-125936428D01*
X202753571Y-125865000D01*
X202253571Y-125865000D01*
X201967857Y-125936428D01*
X201825000Y-126079285D01*
X201753571Y-126222142D01*
X201753571Y-127793571D02*
X201753571Y-128079285D01*
X201825000Y-128222142D01*
X201967857Y-128365000D01*
X202253571Y-128436428D01*
X202753571Y-128436428D01*
X203039285Y-128365000D01*
X203182142Y-128222142D01*
X203253571Y-128079285D01*
X203253571Y-127793571D01*
X203182142Y-127650714D01*
X203039285Y-127507857D01*
X202753571Y-127436428D01*
X202253571Y-127436428D01*
X201967857Y-127507857D01*
X201825000Y-127650714D01*
X201753571Y-127793571D01*
X204303571Y-124650714D02*
X204303571Y-124936428D01*
X204375000Y-125079285D01*
X204517857Y-125222142D01*
X204803571Y-125293571D01*
X205303571Y-125293571D01*
X205589285Y-125222142D01*
X205732142Y-125079285D01*
X205803571Y-124936428D01*
X205803571Y-124650714D01*
X205732142Y-124507857D01*
X205589285Y-124365000D01*
X205303571Y-124293571D01*
X204803571Y-124293571D01*
X204517857Y-124365000D01*
X204375000Y-124507857D01*
X204303571Y-124650714D01*
X204303571Y-126222142D02*
X204303571Y-126507857D01*
X204375000Y-126650714D01*
X204517857Y-126793571D01*
X204803571Y-126865000D01*
X205303571Y-126865000D01*
X205589285Y-126793571D01*
X205732142Y-126650714D01*
X205803571Y-126507857D01*
X205803571Y-126222142D01*
X205732142Y-126079285D01*
X205589285Y-125936428D01*
X205303571Y-125865000D01*
X204803571Y-125865000D01*
X204517857Y-125936428D01*
X204375000Y-126079285D01*
X204303571Y-126222142D01*
X204303571Y-127793571D02*
X204303571Y-128079285D01*
X204375000Y-128222142D01*
X204517857Y-128365000D01*
X204803571Y-128436428D01*
X205303571Y-128436428D01*
X205589285Y-128365000D01*
X205732142Y-128222142D01*
X205803571Y-128079285D01*
X205803571Y-127793571D01*
X205732142Y-127650714D01*
X205589285Y-127507857D01*
X205303571Y-127436428D01*
X204803571Y-127436428D01*
X204517857Y-127507857D01*
X204375000Y-127650714D01*
X204303571Y-127793571D01*
D11*
X206375000Y-122555000D02*
X206375000Y-94615000D01*
X206375000Y-129540000D02*
X188595000Y-129540000D01*
X188595000Y-135890000D02*
X188595000Y-122555000D01*
X206375000Y-135890000D02*
X188595000Y-135890000D01*
X206375000Y-122555000D02*
X206375000Y-135890000D01*
X188595000Y-122555000D02*
X206375000Y-122555000D01*
D13*
X194266428Y-95095714D02*
X194195000Y-95167142D01*
X194123571Y-95310000D01*
X194123571Y-95667142D01*
X194195000Y-95810000D01*
X194266428Y-95881428D01*
X194409285Y-95952857D01*
X194552142Y-95952857D01*
X194766428Y-95881428D01*
X195623571Y-95024285D01*
X195623571Y-95952857D01*
X194766428Y-96810000D02*
X194695000Y-96667142D01*
X194623571Y-96595714D01*
X194480714Y-96524285D01*
X194409285Y-96524285D01*
X194266428Y-96595714D01*
X194195000Y-96667142D01*
X194123571Y-96810000D01*
X194123571Y-97095714D01*
X194195000Y-97238571D01*
X194266428Y-97310000D01*
X194409285Y-97381428D01*
X194480714Y-97381428D01*
X194623571Y-97310000D01*
X194695000Y-97238571D01*
X194766428Y-97095714D01*
X194766428Y-96810000D01*
X194837857Y-96667142D01*
X194909285Y-96595714D01*
X195052142Y-96524285D01*
X195337857Y-96524285D01*
X195480714Y-96595714D01*
X195552142Y-96667142D01*
X195623571Y-96810000D01*
X195623571Y-97095714D01*
X195552142Y-97238571D01*
X195480714Y-97310000D01*
X195337857Y-97381428D01*
X195052142Y-97381428D01*
X194909285Y-97310000D01*
X194837857Y-97238571D01*
X194766428Y-97095714D01*
X195480714Y-98881428D02*
X195552142Y-98810000D01*
X195623571Y-98595714D01*
X195623571Y-98452857D01*
X195552142Y-98238571D01*
X195409285Y-98095714D01*
X195266428Y-98024285D01*
X194980714Y-97952857D01*
X194766428Y-97952857D01*
X194480714Y-98024285D01*
X194337857Y-98095714D01*
X194195000Y-98238571D01*
X194123571Y-98452857D01*
X194123571Y-98595714D01*
X194195000Y-98810000D01*
X194266428Y-98881428D01*
X194266428Y-99452857D02*
X194195000Y-99524285D01*
X194123571Y-99667142D01*
X194123571Y-100024285D01*
X194195000Y-100167142D01*
X194266428Y-100238571D01*
X194409285Y-100310000D01*
X194552142Y-100310000D01*
X194766428Y-100238571D01*
X195623571Y-99381428D01*
X195623571Y-100310000D01*
X194123571Y-101667142D02*
X194123571Y-100952857D01*
X194837857Y-100881428D01*
X194766428Y-100952857D01*
X194695000Y-101095714D01*
X194695000Y-101452857D01*
X194766428Y-101595714D01*
X194837857Y-101667142D01*
X194980714Y-101738571D01*
X195337857Y-101738571D01*
X195480714Y-101667142D01*
X195552142Y-101595714D01*
X195623571Y-101452857D01*
X195623571Y-101095714D01*
X195552142Y-100952857D01*
X195480714Y-100881428D01*
X194123571Y-103024285D02*
X194123571Y-102738571D01*
X194195000Y-102595714D01*
X194266428Y-102524285D01*
X194480714Y-102381428D01*
X194766428Y-102310000D01*
X195337857Y-102310000D01*
X195480714Y-102381428D01*
X195552142Y-102452857D01*
X195623571Y-102595714D01*
X195623571Y-102881428D01*
X195552142Y-103024285D01*
X195480714Y-103095714D01*
X195337857Y-103167142D01*
X194980714Y-103167142D01*
X194837857Y-103095714D01*
X194766428Y-103024285D01*
X194695000Y-102881428D01*
X194695000Y-102595714D01*
X194766428Y-102452857D01*
X194837857Y-102381428D01*
X194980714Y-102310000D01*
X201886428Y-95095714D02*
X201815000Y-95167142D01*
X201743571Y-95310000D01*
X201743571Y-95667142D01*
X201815000Y-95810000D01*
X201886428Y-95881428D01*
X202029285Y-95952857D01*
X202172142Y-95952857D01*
X202386428Y-95881428D01*
X203243571Y-95024285D01*
X203243571Y-95952857D01*
X202386428Y-96810000D02*
X202315000Y-96667142D01*
X202243571Y-96595714D01*
X202100714Y-96524285D01*
X202029285Y-96524285D01*
X201886428Y-96595714D01*
X201815000Y-96667142D01*
X201743571Y-96810000D01*
X201743571Y-97095714D01*
X201815000Y-97238571D01*
X201886428Y-97310000D01*
X202029285Y-97381428D01*
X202100714Y-97381428D01*
X202243571Y-97310000D01*
X202315000Y-97238571D01*
X202386428Y-97095714D01*
X202386428Y-96810000D01*
X202457857Y-96667142D01*
X202529285Y-96595714D01*
X202672142Y-96524285D01*
X202957857Y-96524285D01*
X203100714Y-96595714D01*
X203172142Y-96667142D01*
X203243571Y-96810000D01*
X203243571Y-97095714D01*
X203172142Y-97238571D01*
X203100714Y-97310000D01*
X202957857Y-97381428D01*
X202672142Y-97381428D01*
X202529285Y-97310000D01*
X202457857Y-97238571D01*
X202386428Y-97095714D01*
X203100714Y-98881428D02*
X203172142Y-98810000D01*
X203243571Y-98595714D01*
X203243571Y-98452857D01*
X203172142Y-98238571D01*
X203029285Y-98095714D01*
X202886428Y-98024285D01*
X202600714Y-97952857D01*
X202386428Y-97952857D01*
X202100714Y-98024285D01*
X201957857Y-98095714D01*
X201815000Y-98238571D01*
X201743571Y-98452857D01*
X201743571Y-98595714D01*
X201815000Y-98810000D01*
X201886428Y-98881428D01*
X201886428Y-99452857D02*
X201815000Y-99524285D01*
X201743571Y-99667142D01*
X201743571Y-100024285D01*
X201815000Y-100167142D01*
X201886428Y-100238571D01*
X202029285Y-100310000D01*
X202172142Y-100310000D01*
X202386428Y-100238571D01*
X203243571Y-99381428D01*
X203243571Y-100310000D01*
X201743571Y-101667142D02*
X201743571Y-100952857D01*
X202457857Y-100881428D01*
X202386428Y-100952857D01*
X202315000Y-101095714D01*
X202315000Y-101452857D01*
X202386428Y-101595714D01*
X202457857Y-101667142D01*
X202600714Y-101738571D01*
X202957857Y-101738571D01*
X203100714Y-101667142D01*
X203172142Y-101595714D01*
X203243571Y-101452857D01*
X203243571Y-101095714D01*
X203172142Y-100952857D01*
X203100714Y-100881428D01*
X201743571Y-103024285D02*
X201743571Y-102738571D01*
X201815000Y-102595714D01*
X201886428Y-102524285D01*
X202100714Y-102381428D01*
X202386428Y-102310000D01*
X202957857Y-102310000D01*
X203100714Y-102381428D01*
X203172142Y-102452857D01*
X203243571Y-102595714D01*
X203243571Y-102881428D01*
X203172142Y-103024285D01*
X203100714Y-103095714D01*
X202957857Y-103167142D01*
X202600714Y-103167142D01*
X202457857Y-103095714D01*
X202386428Y-103024285D01*
X202315000Y-102881428D01*
X202315000Y-102595714D01*
X202386428Y-102452857D01*
X202457857Y-102381428D01*
X202600714Y-102310000D01*
X199346428Y-95095714D02*
X199275000Y-95167142D01*
X199203571Y-95310000D01*
X199203571Y-95667142D01*
X199275000Y-95810000D01*
X199346428Y-95881428D01*
X199489285Y-95952857D01*
X199632142Y-95952857D01*
X199846428Y-95881428D01*
X200703571Y-95024285D01*
X200703571Y-95952857D01*
X199846428Y-96810000D02*
X199775000Y-96667142D01*
X199703571Y-96595714D01*
X199560714Y-96524285D01*
X199489285Y-96524285D01*
X199346428Y-96595714D01*
X199275000Y-96667142D01*
X199203571Y-96810000D01*
X199203571Y-97095714D01*
X199275000Y-97238571D01*
X199346428Y-97310000D01*
X199489285Y-97381428D01*
X199560714Y-97381428D01*
X199703571Y-97310000D01*
X199775000Y-97238571D01*
X199846428Y-97095714D01*
X199846428Y-96810000D01*
X199917857Y-96667142D01*
X199989285Y-96595714D01*
X200132142Y-96524285D01*
X200417857Y-96524285D01*
X200560714Y-96595714D01*
X200632142Y-96667142D01*
X200703571Y-96810000D01*
X200703571Y-97095714D01*
X200632142Y-97238571D01*
X200560714Y-97310000D01*
X200417857Y-97381428D01*
X200132142Y-97381428D01*
X199989285Y-97310000D01*
X199917857Y-97238571D01*
X199846428Y-97095714D01*
X200560714Y-98881428D02*
X200632142Y-98810000D01*
X200703571Y-98595714D01*
X200703571Y-98452857D01*
X200632142Y-98238571D01*
X200489285Y-98095714D01*
X200346428Y-98024285D01*
X200060714Y-97952857D01*
X199846428Y-97952857D01*
X199560714Y-98024285D01*
X199417857Y-98095714D01*
X199275000Y-98238571D01*
X199203571Y-98452857D01*
X199203571Y-98595714D01*
X199275000Y-98810000D01*
X199346428Y-98881428D01*
X199346428Y-99452857D02*
X199275000Y-99524285D01*
X199203571Y-99667142D01*
X199203571Y-100024285D01*
X199275000Y-100167142D01*
X199346428Y-100238571D01*
X199489285Y-100310000D01*
X199632142Y-100310000D01*
X199846428Y-100238571D01*
X200703571Y-99381428D01*
X200703571Y-100310000D01*
X199203571Y-101667142D02*
X199203571Y-100952857D01*
X199917857Y-100881428D01*
X199846428Y-100952857D01*
X199775000Y-101095714D01*
X199775000Y-101452857D01*
X199846428Y-101595714D01*
X199917857Y-101667142D01*
X200060714Y-101738571D01*
X200417857Y-101738571D01*
X200560714Y-101667142D01*
X200632142Y-101595714D01*
X200703571Y-101452857D01*
X200703571Y-101095714D01*
X200632142Y-100952857D01*
X200560714Y-100881428D01*
X199203571Y-103024285D02*
X199203571Y-102738571D01*
X199275000Y-102595714D01*
X199346428Y-102524285D01*
X199560714Y-102381428D01*
X199846428Y-102310000D01*
X200417857Y-102310000D01*
X200560714Y-102381428D01*
X200632142Y-102452857D01*
X200703571Y-102595714D01*
X200703571Y-102881428D01*
X200632142Y-103024285D01*
X200560714Y-103095714D01*
X200417857Y-103167142D01*
X200060714Y-103167142D01*
X199917857Y-103095714D01*
X199846428Y-103024285D01*
X199775000Y-102881428D01*
X199775000Y-102595714D01*
X199846428Y-102452857D01*
X199917857Y-102381428D01*
X200060714Y-102310000D01*
X196806428Y-95095714D02*
X196735000Y-95167142D01*
X196663571Y-95310000D01*
X196663571Y-95667142D01*
X196735000Y-95810000D01*
X196806428Y-95881428D01*
X196949285Y-95952857D01*
X197092142Y-95952857D01*
X197306428Y-95881428D01*
X198163571Y-95024285D01*
X198163571Y-95952857D01*
X197306428Y-96810000D02*
X197235000Y-96667142D01*
X197163571Y-96595714D01*
X197020714Y-96524285D01*
X196949285Y-96524285D01*
X196806428Y-96595714D01*
X196735000Y-96667142D01*
X196663571Y-96810000D01*
X196663571Y-97095714D01*
X196735000Y-97238571D01*
X196806428Y-97310000D01*
X196949285Y-97381428D01*
X197020714Y-97381428D01*
X197163571Y-97310000D01*
X197235000Y-97238571D01*
X197306428Y-97095714D01*
X197306428Y-96810000D01*
X197377857Y-96667142D01*
X197449285Y-96595714D01*
X197592142Y-96524285D01*
X197877857Y-96524285D01*
X198020714Y-96595714D01*
X198092142Y-96667142D01*
X198163571Y-96810000D01*
X198163571Y-97095714D01*
X198092142Y-97238571D01*
X198020714Y-97310000D01*
X197877857Y-97381428D01*
X197592142Y-97381428D01*
X197449285Y-97310000D01*
X197377857Y-97238571D01*
X197306428Y-97095714D01*
X198020714Y-98881428D02*
X198092142Y-98810000D01*
X198163571Y-98595714D01*
X198163571Y-98452857D01*
X198092142Y-98238571D01*
X197949285Y-98095714D01*
X197806428Y-98024285D01*
X197520714Y-97952857D01*
X197306428Y-97952857D01*
X197020714Y-98024285D01*
X196877857Y-98095714D01*
X196735000Y-98238571D01*
X196663571Y-98452857D01*
X196663571Y-98595714D01*
X196735000Y-98810000D01*
X196806428Y-98881428D01*
X196806428Y-99452857D02*
X196735000Y-99524285D01*
X196663571Y-99667142D01*
X196663571Y-100024285D01*
X196735000Y-100167142D01*
X196806428Y-100238571D01*
X196949285Y-100310000D01*
X197092142Y-100310000D01*
X197306428Y-100238571D01*
X198163571Y-99381428D01*
X198163571Y-100310000D01*
X196663571Y-101667142D02*
X196663571Y-100952857D01*
X197377857Y-100881428D01*
X197306428Y-100952857D01*
X197235000Y-101095714D01*
X197235000Y-101452857D01*
X197306428Y-101595714D01*
X197377857Y-101667142D01*
X197520714Y-101738571D01*
X197877857Y-101738571D01*
X198020714Y-101667142D01*
X198092142Y-101595714D01*
X198163571Y-101452857D01*
X198163571Y-101095714D01*
X198092142Y-100952857D01*
X198020714Y-100881428D01*
X196663571Y-103024285D02*
X196663571Y-102738571D01*
X196735000Y-102595714D01*
X196806428Y-102524285D01*
X197020714Y-102381428D01*
X197306428Y-102310000D01*
X197877857Y-102310000D01*
X198020714Y-102381428D01*
X198092142Y-102452857D01*
X198163571Y-102595714D01*
X198163571Y-102881428D01*
X198092142Y-103024285D01*
X198020714Y-103095714D01*
X197877857Y-103167142D01*
X197520714Y-103167142D01*
X197377857Y-103095714D01*
X197306428Y-103024285D01*
X197235000Y-102881428D01*
X197235000Y-102595714D01*
X197306428Y-102452857D01*
X197377857Y-102381428D01*
X197520714Y-102310000D01*
X204426428Y-95095714D02*
X204355000Y-95167142D01*
X204283571Y-95310000D01*
X204283571Y-95667142D01*
X204355000Y-95810000D01*
X204426428Y-95881428D01*
X204569285Y-95952857D01*
X204712142Y-95952857D01*
X204926428Y-95881428D01*
X205783571Y-95024285D01*
X205783571Y-95952857D01*
X204926428Y-96810000D02*
X204855000Y-96667142D01*
X204783571Y-96595714D01*
X204640714Y-96524285D01*
X204569285Y-96524285D01*
X204426428Y-96595714D01*
X204355000Y-96667142D01*
X204283571Y-96810000D01*
X204283571Y-97095714D01*
X204355000Y-97238571D01*
X204426428Y-97310000D01*
X204569285Y-97381428D01*
X204640714Y-97381428D01*
X204783571Y-97310000D01*
X204855000Y-97238571D01*
X204926428Y-97095714D01*
X204926428Y-96810000D01*
X204997857Y-96667142D01*
X205069285Y-96595714D01*
X205212142Y-96524285D01*
X205497857Y-96524285D01*
X205640714Y-96595714D01*
X205712142Y-96667142D01*
X205783571Y-96810000D01*
X205783571Y-97095714D01*
X205712142Y-97238571D01*
X205640714Y-97310000D01*
X205497857Y-97381428D01*
X205212142Y-97381428D01*
X205069285Y-97310000D01*
X204997857Y-97238571D01*
X204926428Y-97095714D01*
X205640714Y-98881428D02*
X205712142Y-98810000D01*
X205783571Y-98595714D01*
X205783571Y-98452857D01*
X205712142Y-98238571D01*
X205569285Y-98095714D01*
X205426428Y-98024285D01*
X205140714Y-97952857D01*
X204926428Y-97952857D01*
X204640714Y-98024285D01*
X204497857Y-98095714D01*
X204355000Y-98238571D01*
X204283571Y-98452857D01*
X204283571Y-98595714D01*
X204355000Y-98810000D01*
X204426428Y-98881428D01*
X204283571Y-100167142D02*
X204283571Y-99881428D01*
X204355000Y-99738571D01*
X204426428Y-99667142D01*
X204640714Y-99524285D01*
X204926428Y-99452857D01*
X205497857Y-99452857D01*
X205640714Y-99524285D01*
X205712142Y-99595714D01*
X205783571Y-99738571D01*
X205783571Y-100024285D01*
X205712142Y-100167142D01*
X205640714Y-100238571D01*
X205497857Y-100310000D01*
X205140714Y-100310000D01*
X204997857Y-100238571D01*
X204926428Y-100167142D01*
X204855000Y-100024285D01*
X204855000Y-99738571D01*
X204926428Y-99595714D01*
X204997857Y-99524285D01*
X205140714Y-99452857D01*
X204783571Y-101595714D02*
X205783571Y-101595714D01*
X204212142Y-101238571D02*
X205283571Y-100881428D01*
X205283571Y-101810000D01*
X190115000Y-123944285D02*
X190115000Y-124658571D01*
X190543571Y-123801428D02*
X189043571Y-124301428D01*
X190543571Y-124801428D01*
X190543571Y-126087142D02*
X190543571Y-125230000D01*
X190543571Y-125658571D02*
X189043571Y-125658571D01*
X189257857Y-125515714D01*
X189400714Y-125372857D01*
X189472142Y-125230000D01*
X189543571Y-127372857D02*
X190543571Y-127372857D01*
X188972142Y-127015714D02*
X190043571Y-126658571D01*
X190043571Y-127587142D01*
X190115000Y-131564285D02*
X190115000Y-132278571D01*
X190543571Y-131421428D02*
X189043571Y-131921428D01*
X190543571Y-132421428D01*
X190543571Y-133707142D02*
X190543571Y-132850000D01*
X190543571Y-133278571D02*
X189043571Y-133278571D01*
X189257857Y-133135714D01*
X189400714Y-132992857D01*
X189472142Y-132850000D01*
X189043571Y-134207142D02*
X189043571Y-135135714D01*
X189615000Y-134635714D01*
X189615000Y-134850000D01*
X189686428Y-134992857D01*
X189757857Y-135064285D01*
X189900714Y-135135714D01*
X190257857Y-135135714D01*
X190400714Y-135064285D01*
X190472142Y-134992857D01*
X190543571Y-134850000D01*
X190543571Y-134421428D01*
X190472142Y-134278571D01*
X190400714Y-134207142D01*
X195532142Y-105890714D02*
X195603571Y-106105000D01*
X195603571Y-106462142D01*
X195532142Y-106605000D01*
X195460714Y-106676428D01*
X195317857Y-106747857D01*
X195175000Y-106747857D01*
X195032142Y-106676428D01*
X194960714Y-106605000D01*
X194889285Y-106462142D01*
X194817857Y-106176428D01*
X194746428Y-106033571D01*
X194675000Y-105962142D01*
X194532142Y-105890714D01*
X194389285Y-105890714D01*
X194246428Y-105962142D01*
X194175000Y-106033571D01*
X194103571Y-106176428D01*
X194103571Y-106533571D01*
X194175000Y-106747857D01*
X193889285Y-106319285D02*
X195817857Y-106319285D01*
X194103571Y-107676428D02*
X194103571Y-107819285D01*
X194175000Y-107962142D01*
X194246428Y-108033571D01*
X194389285Y-108105000D01*
X194675000Y-108176428D01*
X195032142Y-108176428D01*
X195317857Y-108105000D01*
X195460714Y-108033571D01*
X195532142Y-107962142D01*
X195603571Y-107819285D01*
X195603571Y-107676428D01*
X195532142Y-107533571D01*
X195460714Y-107462142D01*
X195317857Y-107390714D01*
X195032142Y-107319285D01*
X194675000Y-107319285D01*
X194389285Y-107390714D01*
X194246428Y-107462142D01*
X194175000Y-107533571D01*
X194103571Y-107676428D01*
X194103571Y-109105000D02*
X194103571Y-109247857D01*
X194175000Y-109390714D01*
X194246428Y-109462142D01*
X194389285Y-109533571D01*
X194675000Y-109605000D01*
X195032142Y-109605000D01*
X195317857Y-109533571D01*
X195460714Y-109462142D01*
X195532142Y-109390714D01*
X195603571Y-109247857D01*
X195603571Y-109105000D01*
X195532142Y-108962142D01*
X195460714Y-108890714D01*
X195317857Y-108819285D01*
X195032142Y-108747857D01*
X194675000Y-108747857D01*
X194389285Y-108819285D01*
X194246428Y-108890714D01*
X194175000Y-108962142D01*
X194103571Y-109105000D01*
X194103571Y-110533571D02*
X194103571Y-110676428D01*
X194175000Y-110819285D01*
X194246428Y-110890714D01*
X194389285Y-110962142D01*
X194675000Y-111033571D01*
X195032142Y-111033571D01*
X195317857Y-110962142D01*
X195460714Y-110890714D01*
X195532142Y-110819285D01*
X195603571Y-110676428D01*
X195603571Y-110533571D01*
X195532142Y-110390714D01*
X195460714Y-110319285D01*
X195317857Y-110247857D01*
X195032142Y-110176428D01*
X194675000Y-110176428D01*
X194389285Y-110247857D01*
X194246428Y-110319285D01*
X194175000Y-110390714D01*
X194103571Y-110533571D01*
X194103571Y-111962142D02*
X194103571Y-112105000D01*
X194175000Y-112247857D01*
X194246428Y-112319285D01*
X194389285Y-112390714D01*
X194675000Y-112462142D01*
X195032142Y-112462142D01*
X195317857Y-112390714D01*
X195460714Y-112319285D01*
X195532142Y-112247857D01*
X195603571Y-112105000D01*
X195603571Y-111962142D01*
X195532142Y-111819285D01*
X195460714Y-111747857D01*
X195317857Y-111676428D01*
X195032142Y-111605000D01*
X194675000Y-111605000D01*
X194389285Y-111676428D01*
X194246428Y-111747857D01*
X194175000Y-111819285D01*
X194103571Y-111962142D01*
X195032142Y-113105000D02*
X195032142Y-114247857D01*
X195532142Y-114890714D02*
X195603571Y-115105000D01*
X195603571Y-115462142D01*
X195532142Y-115605000D01*
X195460714Y-115676428D01*
X195317857Y-115747857D01*
X195175000Y-115747857D01*
X195032142Y-115676428D01*
X194960714Y-115605000D01*
X194889285Y-115462142D01*
X194817857Y-115176428D01*
X194746428Y-115033571D01*
X194675000Y-114962142D01*
X194532142Y-114890714D01*
X194389285Y-114890714D01*
X194246428Y-114962142D01*
X194175000Y-115033571D01*
X194103571Y-115176428D01*
X194103571Y-115533571D01*
X194175000Y-115747857D01*
X193889285Y-115319285D02*
X195817857Y-115319285D01*
X195603571Y-117176428D02*
X195603571Y-116319285D01*
X195603571Y-116747857D02*
X194103571Y-116747857D01*
X194317857Y-116605000D01*
X194460714Y-116462142D01*
X194532142Y-116319285D01*
X194817857Y-118319285D02*
X194817857Y-117819285D01*
X195603571Y-117819285D02*
X194103571Y-117819285D01*
X194103571Y-118533571D01*
X194817857Y-119605000D02*
X194817857Y-119105000D01*
X195603571Y-119105000D02*
X194103571Y-119105000D01*
X194103571Y-119819285D01*
X194817857Y-120890714D02*
X194817857Y-120390714D01*
X195603571Y-120390714D02*
X194103571Y-120390714D01*
X194103571Y-121105000D01*
X198082142Y-105890714D02*
X198153571Y-106105000D01*
X198153571Y-106462142D01*
X198082142Y-106605000D01*
X198010714Y-106676428D01*
X197867857Y-106747857D01*
X197725000Y-106747857D01*
X197582142Y-106676428D01*
X197510714Y-106605000D01*
X197439285Y-106462142D01*
X197367857Y-106176428D01*
X197296428Y-106033571D01*
X197225000Y-105962142D01*
X197082142Y-105890714D01*
X196939285Y-105890714D01*
X196796428Y-105962142D01*
X196725000Y-106033571D01*
X196653571Y-106176428D01*
X196653571Y-106533571D01*
X196725000Y-106747857D01*
X196439285Y-106319285D02*
X198367857Y-106319285D01*
X196796428Y-107319285D02*
X196725000Y-107390714D01*
X196653571Y-107533571D01*
X196653571Y-107890714D01*
X196725000Y-108033571D01*
X196796428Y-108105000D01*
X196939285Y-108176428D01*
X197082142Y-108176428D01*
X197296428Y-108105000D01*
X198153571Y-107247857D01*
X198153571Y-108176428D01*
X196653571Y-109105000D02*
X196653571Y-109247857D01*
X196725000Y-109390714D01*
X196796428Y-109462142D01*
X196939285Y-109533571D01*
X197225000Y-109605000D01*
X197582142Y-109605000D01*
X197867857Y-109533571D01*
X198010714Y-109462142D01*
X198082142Y-109390714D01*
X198153571Y-109247857D01*
X198153571Y-109105000D01*
X198082142Y-108962142D01*
X198010714Y-108890714D01*
X197867857Y-108819285D01*
X197582142Y-108747857D01*
X197225000Y-108747857D01*
X196939285Y-108819285D01*
X196796428Y-108890714D01*
X196725000Y-108962142D01*
X196653571Y-109105000D01*
X196653571Y-110533571D02*
X196653571Y-110676428D01*
X196725000Y-110819285D01*
X196796428Y-110890714D01*
X196939285Y-110962142D01*
X197225000Y-111033571D01*
X197582142Y-111033571D01*
X197867857Y-110962142D01*
X198010714Y-110890714D01*
X198082142Y-110819285D01*
X198153571Y-110676428D01*
X198153571Y-110533571D01*
X198082142Y-110390714D01*
X198010714Y-110319285D01*
X197867857Y-110247857D01*
X197582142Y-110176428D01*
X197225000Y-110176428D01*
X196939285Y-110247857D01*
X196796428Y-110319285D01*
X196725000Y-110390714D01*
X196653571Y-110533571D01*
X196653571Y-111962142D02*
X196653571Y-112105000D01*
X196725000Y-112247857D01*
X196796428Y-112319285D01*
X196939285Y-112390714D01*
X197225000Y-112462142D01*
X197582142Y-112462142D01*
X197867857Y-112390714D01*
X198010714Y-112319285D01*
X198082142Y-112247857D01*
X198153571Y-112105000D01*
X198153571Y-111962142D01*
X198082142Y-111819285D01*
X198010714Y-111747857D01*
X197867857Y-111676428D01*
X197582142Y-111605000D01*
X197225000Y-111605000D01*
X196939285Y-111676428D01*
X196796428Y-111747857D01*
X196725000Y-111819285D01*
X196653571Y-111962142D01*
X197582142Y-113105000D02*
X197582142Y-114247857D01*
X198082142Y-114890714D02*
X198153571Y-115105000D01*
X198153571Y-115462142D01*
X198082142Y-115605000D01*
X198010714Y-115676428D01*
X197867857Y-115747857D01*
X197725000Y-115747857D01*
X197582142Y-115676428D01*
X197510714Y-115605000D01*
X197439285Y-115462142D01*
X197367857Y-115176428D01*
X197296428Y-115033571D01*
X197225000Y-114962142D01*
X197082142Y-114890714D01*
X196939285Y-114890714D01*
X196796428Y-114962142D01*
X196725000Y-115033571D01*
X196653571Y-115176428D01*
X196653571Y-115533571D01*
X196725000Y-115747857D01*
X196439285Y-115319285D02*
X198367857Y-115319285D01*
X196653571Y-116247857D02*
X196653571Y-117176428D01*
X197225000Y-116676428D01*
X197225000Y-116890714D01*
X197296428Y-117033571D01*
X197367857Y-117105000D01*
X197510714Y-117176428D01*
X197867857Y-117176428D01*
X198010714Y-117105000D01*
X198082142Y-117033571D01*
X198153571Y-116890714D01*
X198153571Y-116462142D01*
X198082142Y-116319285D01*
X198010714Y-116247857D01*
X197367857Y-118319285D02*
X197367857Y-117819285D01*
X198153571Y-117819285D02*
X196653571Y-117819285D01*
X196653571Y-118533571D01*
X197367857Y-119605000D02*
X197367857Y-119105000D01*
X198153571Y-119105000D02*
X196653571Y-119105000D01*
X196653571Y-119819285D01*
X197367857Y-120890714D02*
X197367857Y-120390714D01*
X198153571Y-120390714D02*
X196653571Y-120390714D01*
X196653571Y-121105000D01*
X200632142Y-105890714D02*
X200703571Y-106105000D01*
X200703571Y-106462142D01*
X200632142Y-106605000D01*
X200560714Y-106676428D01*
X200417857Y-106747857D01*
X200275000Y-106747857D01*
X200132142Y-106676428D01*
X200060714Y-106605000D01*
X199989285Y-106462142D01*
X199917857Y-106176428D01*
X199846428Y-106033571D01*
X199775000Y-105962142D01*
X199632142Y-105890714D01*
X199489285Y-105890714D01*
X199346428Y-105962142D01*
X199275000Y-106033571D01*
X199203571Y-106176428D01*
X199203571Y-106533571D01*
X199275000Y-106747857D01*
X198989285Y-106319285D02*
X200917857Y-106319285D01*
X199703571Y-108033571D02*
X200703571Y-108033571D01*
X199132142Y-107676428D02*
X200203571Y-107319285D01*
X200203571Y-108247857D01*
X199203571Y-109105000D02*
X199203571Y-109247857D01*
X199275000Y-109390714D01*
X199346428Y-109462142D01*
X199489285Y-109533571D01*
X199775000Y-109605000D01*
X200132142Y-109605000D01*
X200417857Y-109533571D01*
X200560714Y-109462142D01*
X200632142Y-109390714D01*
X200703571Y-109247857D01*
X200703571Y-109105000D01*
X200632142Y-108962142D01*
X200560714Y-108890714D01*
X200417857Y-108819285D01*
X200132142Y-108747857D01*
X199775000Y-108747857D01*
X199489285Y-108819285D01*
X199346428Y-108890714D01*
X199275000Y-108962142D01*
X199203571Y-109105000D01*
X199203571Y-110533571D02*
X199203571Y-110676428D01*
X199275000Y-110819285D01*
X199346428Y-110890714D01*
X199489285Y-110962142D01*
X199775000Y-111033571D01*
X200132142Y-111033571D01*
X200417857Y-110962142D01*
X200560714Y-110890714D01*
X200632142Y-110819285D01*
X200703571Y-110676428D01*
X200703571Y-110533571D01*
X200632142Y-110390714D01*
X200560714Y-110319285D01*
X200417857Y-110247857D01*
X200132142Y-110176428D01*
X199775000Y-110176428D01*
X199489285Y-110247857D01*
X199346428Y-110319285D01*
X199275000Y-110390714D01*
X199203571Y-110533571D01*
X199203571Y-111962142D02*
X199203571Y-112105000D01*
X199275000Y-112247857D01*
X199346428Y-112319285D01*
X199489285Y-112390714D01*
X199775000Y-112462142D01*
X200132142Y-112462142D01*
X200417857Y-112390714D01*
X200560714Y-112319285D01*
X200632142Y-112247857D01*
X200703571Y-112105000D01*
X200703571Y-111962142D01*
X200632142Y-111819285D01*
X200560714Y-111747857D01*
X200417857Y-111676428D01*
X200132142Y-111605000D01*
X199775000Y-111605000D01*
X199489285Y-111676428D01*
X199346428Y-111747857D01*
X199275000Y-111819285D01*
X199203571Y-111962142D01*
X200132142Y-113105000D02*
X200132142Y-114247857D01*
X200632142Y-114890714D02*
X200703571Y-115105000D01*
X200703571Y-115462142D01*
X200632142Y-115605000D01*
X200560714Y-115676428D01*
X200417857Y-115747857D01*
X200275000Y-115747857D01*
X200132142Y-115676428D01*
X200060714Y-115605000D01*
X199989285Y-115462142D01*
X199917857Y-115176428D01*
X199846428Y-115033571D01*
X199775000Y-114962142D01*
X199632142Y-114890714D01*
X199489285Y-114890714D01*
X199346428Y-114962142D01*
X199275000Y-115033571D01*
X199203571Y-115176428D01*
X199203571Y-115533571D01*
X199275000Y-115747857D01*
X198989285Y-115319285D02*
X200917857Y-115319285D01*
X199203571Y-117105000D02*
X199203571Y-116390714D01*
X199917857Y-116319285D01*
X199846428Y-116390714D01*
X199775000Y-116533571D01*
X199775000Y-116890714D01*
X199846428Y-117033571D01*
X199917857Y-117105000D01*
X200060714Y-117176428D01*
X200417857Y-117176428D01*
X200560714Y-117105000D01*
X200632142Y-117033571D01*
X200703571Y-116890714D01*
X200703571Y-116533571D01*
X200632142Y-116390714D01*
X200560714Y-116319285D01*
X199917857Y-118319285D02*
X199917857Y-117819285D01*
X200703571Y-117819285D02*
X199203571Y-117819285D01*
X199203571Y-118533571D01*
X199917857Y-119605000D02*
X199917857Y-119105000D01*
X200703571Y-119105000D02*
X199203571Y-119105000D01*
X199203571Y-119819285D01*
X199917857Y-120890714D02*
X199917857Y-120390714D01*
X200703571Y-120390714D02*
X199203571Y-120390714D01*
X199203571Y-121105000D01*
X203182142Y-105890714D02*
X203253571Y-106105000D01*
X203253571Y-106462142D01*
X203182142Y-106605000D01*
X203110714Y-106676428D01*
X202967857Y-106747857D01*
X202825000Y-106747857D01*
X202682142Y-106676428D01*
X202610714Y-106605000D01*
X202539285Y-106462142D01*
X202467857Y-106176428D01*
X202396428Y-106033571D01*
X202325000Y-105962142D01*
X202182142Y-105890714D01*
X202039285Y-105890714D01*
X201896428Y-105962142D01*
X201825000Y-106033571D01*
X201753571Y-106176428D01*
X201753571Y-106533571D01*
X201825000Y-106747857D01*
X201539285Y-106319285D02*
X203467857Y-106319285D01*
X201753571Y-108033571D02*
X201753571Y-107747857D01*
X201825000Y-107605000D01*
X201896428Y-107533571D01*
X202110714Y-107390714D01*
X202396428Y-107319285D01*
X202967857Y-107319285D01*
X203110714Y-107390714D01*
X203182142Y-107462142D01*
X203253571Y-107605000D01*
X203253571Y-107890714D01*
X203182142Y-108033571D01*
X203110714Y-108105000D01*
X202967857Y-108176428D01*
X202610714Y-108176428D01*
X202467857Y-108105000D01*
X202396428Y-108033571D01*
X202325000Y-107890714D01*
X202325000Y-107605000D01*
X202396428Y-107462142D01*
X202467857Y-107390714D01*
X202610714Y-107319285D01*
X201753571Y-109105000D02*
X201753571Y-109247857D01*
X201825000Y-109390714D01*
X201896428Y-109462142D01*
X202039285Y-109533571D01*
X202325000Y-109605000D01*
X202682142Y-109605000D01*
X202967857Y-109533571D01*
X203110714Y-109462142D01*
X203182142Y-109390714D01*
X203253571Y-109247857D01*
X203253571Y-109105000D01*
X203182142Y-108962142D01*
X203110714Y-108890714D01*
X202967857Y-108819285D01*
X202682142Y-108747857D01*
X202325000Y-108747857D01*
X202039285Y-108819285D01*
X201896428Y-108890714D01*
X201825000Y-108962142D01*
X201753571Y-109105000D01*
X201753571Y-110533571D02*
X201753571Y-110676428D01*
X201825000Y-110819285D01*
X201896428Y-110890714D01*
X202039285Y-110962142D01*
X202325000Y-111033571D01*
X202682142Y-111033571D01*
X202967857Y-110962142D01*
X203110714Y-110890714D01*
X203182142Y-110819285D01*
X203253571Y-110676428D01*
X203253571Y-110533571D01*
X203182142Y-110390714D01*
X203110714Y-110319285D01*
X202967857Y-110247857D01*
X202682142Y-110176428D01*
X202325000Y-110176428D01*
X202039285Y-110247857D01*
X201896428Y-110319285D01*
X201825000Y-110390714D01*
X201753571Y-110533571D01*
X201753571Y-111962142D02*
X201753571Y-112105000D01*
X201825000Y-112247857D01*
X201896428Y-112319285D01*
X202039285Y-112390714D01*
X202325000Y-112462142D01*
X202682142Y-112462142D01*
X202967857Y-112390714D01*
X203110714Y-112319285D01*
X203182142Y-112247857D01*
X203253571Y-112105000D01*
X203253571Y-111962142D01*
X203182142Y-111819285D01*
X203110714Y-111747857D01*
X202967857Y-111676428D01*
X202682142Y-111605000D01*
X202325000Y-111605000D01*
X202039285Y-111676428D01*
X201896428Y-111747857D01*
X201825000Y-111819285D01*
X201753571Y-111962142D01*
X202682142Y-113105000D02*
X202682142Y-114247857D01*
X203182142Y-114890714D02*
X203253571Y-115105000D01*
X203253571Y-115462142D01*
X203182142Y-115605000D01*
X203110714Y-115676428D01*
X202967857Y-115747857D01*
X202825000Y-115747857D01*
X202682142Y-115676428D01*
X202610714Y-115605000D01*
X202539285Y-115462142D01*
X202467857Y-115176428D01*
X202396428Y-115033571D01*
X202325000Y-114962142D01*
X202182142Y-114890714D01*
X202039285Y-114890714D01*
X201896428Y-114962142D01*
X201825000Y-115033571D01*
X201753571Y-115176428D01*
X201753571Y-115533571D01*
X201825000Y-115747857D01*
X201539285Y-115319285D02*
X203467857Y-115319285D01*
X201753571Y-116247857D02*
X201753571Y-117247857D01*
X203253571Y-116605000D01*
X202467857Y-118319285D02*
X202467857Y-117819285D01*
X203253571Y-117819285D02*
X201753571Y-117819285D01*
X201753571Y-118533571D01*
X202467857Y-119605000D02*
X202467857Y-119105000D01*
X203253571Y-119105000D02*
X201753571Y-119105000D01*
X201753571Y-119819285D01*
X202467857Y-120890714D02*
X202467857Y-120390714D01*
X203253571Y-120390714D02*
X201753571Y-120390714D01*
X201753571Y-121105000D01*
X205732142Y-105890714D02*
X205803571Y-106105000D01*
X205803571Y-106462142D01*
X205732142Y-106605000D01*
X205660714Y-106676428D01*
X205517857Y-106747857D01*
X205375000Y-106747857D01*
X205232142Y-106676428D01*
X205160714Y-106605000D01*
X205089285Y-106462142D01*
X205017857Y-106176428D01*
X204946428Y-106033571D01*
X204875000Y-105962142D01*
X204732142Y-105890714D01*
X204589285Y-105890714D01*
X204446428Y-105962142D01*
X204375000Y-106033571D01*
X204303571Y-106176428D01*
X204303571Y-106533571D01*
X204375000Y-106747857D01*
X204089285Y-106319285D02*
X206017857Y-106319285D01*
X204303571Y-107676428D02*
X204303571Y-107819285D01*
X204375000Y-107962142D01*
X204446428Y-108033571D01*
X204589285Y-108105000D01*
X204875000Y-108176428D01*
X205232142Y-108176428D01*
X205517857Y-108105000D01*
X205660714Y-108033571D01*
X205732142Y-107962142D01*
X205803571Y-107819285D01*
X205803571Y-107676428D01*
X205732142Y-107533571D01*
X205660714Y-107462142D01*
X205517857Y-107390714D01*
X205232142Y-107319285D01*
X204875000Y-107319285D01*
X204589285Y-107390714D01*
X204446428Y-107462142D01*
X204375000Y-107533571D01*
X204303571Y-107676428D01*
X204303571Y-109105000D02*
X204303571Y-109247857D01*
X204375000Y-109390714D01*
X204446428Y-109462142D01*
X204589285Y-109533571D01*
X204875000Y-109605000D01*
X205232142Y-109605000D01*
X205517857Y-109533571D01*
X205660714Y-109462142D01*
X205732142Y-109390714D01*
X205803571Y-109247857D01*
X205803571Y-109105000D01*
X205732142Y-108962142D01*
X205660714Y-108890714D01*
X205517857Y-108819285D01*
X205232142Y-108747857D01*
X204875000Y-108747857D01*
X204589285Y-108819285D01*
X204446428Y-108890714D01*
X204375000Y-108962142D01*
X204303571Y-109105000D01*
X204303571Y-110533571D02*
X204303571Y-110676428D01*
X204375000Y-110819285D01*
X204446428Y-110890714D01*
X204589285Y-110962142D01*
X204875000Y-111033571D01*
X205232142Y-111033571D01*
X205517857Y-110962142D01*
X205660714Y-110890714D01*
X205732142Y-110819285D01*
X205803571Y-110676428D01*
X205803571Y-110533571D01*
X205732142Y-110390714D01*
X205660714Y-110319285D01*
X205517857Y-110247857D01*
X205232142Y-110176428D01*
X204875000Y-110176428D01*
X204589285Y-110247857D01*
X204446428Y-110319285D01*
X204375000Y-110390714D01*
X204303571Y-110533571D01*
X204303571Y-111962142D02*
X204303571Y-112105000D01*
X204375000Y-112247857D01*
X204446428Y-112319285D01*
X204589285Y-112390714D01*
X204875000Y-112462142D01*
X205232142Y-112462142D01*
X205517857Y-112390714D01*
X205660714Y-112319285D01*
X205732142Y-112247857D01*
X205803571Y-112105000D01*
X205803571Y-111962142D01*
X205732142Y-111819285D01*
X205660714Y-111747857D01*
X205517857Y-111676428D01*
X205232142Y-111605000D01*
X204875000Y-111605000D01*
X204589285Y-111676428D01*
X204446428Y-111747857D01*
X204375000Y-111819285D01*
X204303571Y-111962142D01*
X205232142Y-113105000D02*
X205232142Y-114247857D01*
X205732142Y-114890714D02*
X205803571Y-115105000D01*
X205803571Y-115462142D01*
X205732142Y-115605000D01*
X205660714Y-115676428D01*
X205517857Y-115747857D01*
X205375000Y-115747857D01*
X205232142Y-115676428D01*
X205160714Y-115605000D01*
X205089285Y-115462142D01*
X205017857Y-115176428D01*
X204946428Y-115033571D01*
X204875000Y-114962142D01*
X204732142Y-114890714D01*
X204589285Y-114890714D01*
X204446428Y-114962142D01*
X204375000Y-115033571D01*
X204303571Y-115176428D01*
X204303571Y-115533571D01*
X204375000Y-115747857D01*
X204089285Y-115319285D02*
X206017857Y-115319285D01*
X205803571Y-117176428D02*
X205803571Y-116319285D01*
X205803571Y-116747857D02*
X204303571Y-116747857D01*
X204517857Y-116605000D01*
X204660714Y-116462142D01*
X204732142Y-116319285D01*
X205017857Y-118319285D02*
X205017857Y-117819285D01*
X205803571Y-117819285D02*
X204303571Y-117819285D01*
X204303571Y-118533571D01*
X205017857Y-119605000D02*
X205017857Y-119105000D01*
X205803571Y-119105000D02*
X204303571Y-119105000D01*
X204303571Y-119819285D01*
X205017857Y-120890714D02*
X205017857Y-120390714D01*
X205803571Y-120390714D02*
X204303571Y-120390714D01*
X204303571Y-121105000D01*
M02*
