M48
;DRILL file {KiCad (5.0.2)-1} date 8/30/2019 2:41:30 PM
;FORMAT={-:-/ absolute / inch / decimal}
FMAT,2
INCH,TZ
T1C0.0157
T2C0.0236
T3C0.0315
T4C0.0354
T5C0.0394
T6C0.0433
T7C0.1260
%
G90
G05
T1
X4.625Y-4.525
X4.625Y-5.25
X4.675Y-3.075
X4.675Y-3.15
X4.7Y-3.05
X4.7Y-3.125
X4.85Y-1.875
X4.875Y-5.325
X4.925Y-1.85
X4.95Y-1.775
X4.95Y-3.075
X4.975Y-3.05
X5.Y-5.025
X5.Y-5.075
X5.025Y-4.925
X5.025Y-5.1
X5.05Y-1.725
X5.05Y-4.75
X5.1Y-5.3
X5.125Y-2.725
X5.125Y-4.7
X5.15Y-4.6
X5.175Y-4.5
X5.2Y-3.075
X5.2Y-4.4
X5.225Y-2.7
X5.225Y-3.05
X5.225Y-4.3
X5.25Y-3.075
X5.25Y-4.2
X5.275Y-4.1
X5.3Y-3.025
X5.325Y-2.675
X5.325Y-4.05
X5.325Y-4.15
X5.325Y-4.25
X5.325Y-4.35
X5.325Y-4.45
X5.325Y-4.55
X5.325Y-4.65
X5.325Y-4.725
X5.35Y-5.15
X5.375Y-3.
X5.4Y-2.725
X5.4Y-3.9
X5.4Y-4.7
X5.425Y-3.925
X5.425Y-4.5
X5.45Y-3.075
X5.45Y-4.025
X5.475Y-3.05
X5.475Y-3.8
X5.5Y-2.75
X5.525Y-2.95
X5.575Y-5.2
X5.6Y-2.775
X5.625Y-2.95
X5.625Y-5.2
X5.7Y-5.125
X5.725Y-2.825
X5.725Y-3.1
X5.75Y-4.825
X5.875Y-3.8
X5.875Y-5.35
X5.9Y-4.1
X5.925Y-3.675
X5.925Y-3.775
X5.925Y-3.85
X5.95Y-3.075
X5.95Y-3.225
X5.95Y-3.875
X5.95Y-4.225
X5.95Y-4.575
X5.95Y-4.625
X5.975Y-3.85
X5.975Y-4.075
X5.975Y-4.325
X5.975Y-4.475
X5.975Y-4.525
X5.975Y-4.7
X5.975Y-5.325
X6.Y-3.8
X6.025Y-4.325
X6.025Y-4.725
X6.05Y-4.225
X6.05Y-5.2
X6.075Y-4.125
X6.075Y-4.725
X6.075Y-5.375
X6.1Y-3.9
X6.1Y-4.025
X6.1Y-5.175
X6.125Y-5.3
X6.15Y-3.925
X6.15Y-5.175
X6.175Y-3.725
X6.175Y-3.825
X6.175Y-5.2
X6.225Y-1.775
X6.25Y-1.875
X6.25Y-2.5
X6.25Y-3.7
X6.25Y-5.175
X6.275Y-1.725
X6.275Y-2.575
X6.275Y-3.75
X6.275Y-4.8
X6.275Y-5.2
X6.275Y-5.325
X6.3Y-2.425
X6.3Y-2.6
X6.3Y-3.475
X6.3Y-3.6
X6.3Y-4.725
X6.325Y-2.625
X6.35Y-1.7
X6.35Y-1.875
X6.35Y-2.65
X6.375Y-3.4
X6.4Y-1.825
X6.425Y-2.325
X6.425Y-2.45
X6.425Y-2.5
X6.45Y-2.05
X6.45Y-2.475
X6.475Y-1.7
X6.475Y-2.8
X6.475Y-3.5
X6.475Y-3.6
X6.5Y-2.525
X6.525Y-3.625
X6.55Y-2.65
X6.55Y-4.8
X6.55Y-4.9
X6.55Y-5.175
X6.575Y-1.925
X6.575Y-4.825
X6.575Y-5.
X6.6Y-2.8
X6.6Y-3.825
X6.6Y-4.85
X6.625Y-3.175
X6.65Y-2.425
X6.7Y-2.425
X6.725Y-3.825
X6.725Y-4.025
X6.725Y-4.125
X6.725Y-4.225
X6.725Y-4.325
X6.725Y-4.425
X6.725Y-4.525
X6.725Y-4.625
X6.75Y-3.25
X6.75Y-3.7
X6.75Y-4.725
X6.775Y-3.225
X6.775Y-3.875
X6.775Y-3.975
X6.775Y-4.05
X6.775Y-4.825
X6.8Y-3.25
X6.8Y-4.075
X6.8Y-4.15
X6.8Y-4.925
X6.8Y-5.125
X6.825Y-4.175
X6.825Y-4.25
X6.85Y-2.425
X6.85Y-2.675
X6.85Y-4.025
X6.85Y-4.275
X6.85Y-4.35
X6.875Y-1.9
X6.875Y-2.45
X6.875Y-3.275
X6.875Y-4.375
X6.875Y-4.45
X6.875Y-5.1
X6.9Y-2.475
X6.9Y-2.525
X6.9Y-4.475
X6.9Y-4.55
X6.9Y-4.925
X6.9Y-5.025
X6.9Y-5.125
X6.925Y-2.7
X6.925Y-2.975
X6.925Y-4.575
X6.925Y-4.65
X6.925Y-4.825
X6.95Y-2.5
X6.95Y-2.625
X6.95Y-4.725
X6.95Y-4.85
X6.975Y-1.9
X6.975Y-2.225
X6.975Y-2.275
X6.975Y-2.325
X6.975Y-5.1
X6.975Y-5.35
X7.Y-2.675
X7.Y-4.65
X7.025Y-5.3
X7.05Y-3.175
X7.05Y-3.275
X7.05Y-5.325
X7.075Y-2.725
X7.075Y-4.15
X7.1Y-4.25
X7.125Y-2.675
X7.125Y-2.725
X7.125Y-4.35
X7.15Y-3.35
X7.15Y-4.55
X7.175Y-2.675
X7.2Y-3.025
X7.2Y-3.275
X7.225Y-2.725
X7.325Y-3.175
X7.35Y-3.325
X7.375Y-3.275
X7.375Y-3.375
X7.375Y-3.65
X7.375Y-3.875
X7.475Y-2.65
X7.475Y-2.75
X7.5Y-3.3
X7.625Y-5.15
X7.65Y-4.525
X7.675Y-4.7
X7.675Y-5.1
X7.7Y-4.325
X7.7Y-4.675
X7.7Y-5.075
X7.725Y-4.225
X7.725Y-4.7
X7.725Y-5.1
X7.75Y-3.75
X7.75Y-4.125
X7.75Y-4.675
X7.75Y-5.075
X7.775Y-4.7
X7.775Y-5.1
X7.8Y-3.725
X7.8Y-3.8
X7.8Y-4.675
X7.8Y-5.075
X7.825Y-3.975
X7.825Y-4.7
X7.825Y-5.1
X7.85Y-4.125
X7.85Y-4.675
X7.85Y-5.075
X7.875Y-4.225
X7.875Y-4.7
X7.875Y-5.1
X7.9Y-3.825
X7.9Y-4.525
X7.9Y-4.675
X7.9Y-5.075
X7.925Y-4.325
X7.925Y-4.45
X7.925Y-4.55
X7.925Y-4.7
X7.925Y-5.1
X7.95Y-3.
X7.95Y-3.775
X7.95Y-4.05
X7.95Y-4.525
X7.95Y-4.675
X7.95Y-5.075
X7.975Y-3.075
X7.975Y-4.025
X7.975Y-4.55
X7.975Y-4.7
X7.975Y-5.1
X8.Y-4.05
X8.Y-4.525
X8.Y-4.675
X8.Y-5.075
X8.075Y-3.7
X8.2Y-5.325
X8.25Y-2.25
X8.325Y-2.35
X8.4Y-3.55
X8.425Y-3.75
X8.425Y-3.8
X8.45Y-3.6
X8.45Y-5.275
T2
X6.51Y-2.6
X6.5887Y-2.6
T3
X7.575Y-3.775
X7.575Y-3.875
X7.575Y-3.975
X7.575Y-4.075
X7.575Y-4.175
X7.575Y-4.275
X7.575Y-4.375
X7.575Y-4.475
X7.575Y-4.575
X7.575Y-4.675
X7.575Y-4.775
X7.575Y-4.875
X7.575Y-4.975
X7.575Y-5.075
X8.175Y-3.775
X8.175Y-3.875
X8.175Y-3.975
X8.175Y-4.075
X8.175Y-4.175
X8.175Y-4.275
X8.175Y-4.375
X8.175Y-4.475
X8.175Y-4.575
X8.175Y-4.675
X8.175Y-4.775
X8.175Y-4.875
X8.175Y-4.975
X8.175Y-5.075
X5.675Y-3.025
X5.8719Y-3.025
X7.275Y-2.825
X7.275Y-2.925
X7.275Y-3.025
X7.275Y-3.125
X7.275Y-3.225
X7.275Y-3.325
X7.275Y-3.425
X7.575Y-2.825
X7.575Y-2.925
X7.575Y-3.025
X7.575Y-3.125
X7.575Y-3.225
X7.575Y-3.325
X7.575Y-3.425
X6.2Y-1.925
X6.2Y-2.1219
X6.2Y-2.25
X6.2Y-2.4469
X4.925Y-3.25
X4.925Y-3.35
X4.925Y-3.45
X4.925Y-3.55
X4.925Y-3.65
X4.925Y-3.75
X4.925Y-3.85
X4.925Y-3.95
X4.925Y-4.05
X4.925Y-4.15
X4.925Y-4.25
X4.925Y-4.35
X4.925Y-4.45
X4.925Y-4.55
X4.925Y-4.65
X4.925Y-4.75
X4.925Y-4.85
X4.925Y-4.95
X4.925Y-5.05
X4.925Y-5.15
X5.525Y-3.25
X5.525Y-3.35
X5.525Y-3.45
X5.525Y-3.55
X5.525Y-3.65
X5.525Y-3.75
X5.525Y-3.85
X5.525Y-3.95
X5.525Y-4.05
X5.525Y-4.15
X5.525Y-4.25
X5.525Y-4.35
X5.525Y-4.45
X5.525Y-4.55
X5.525Y-4.65
X5.525Y-4.75
X5.525Y-4.85
X5.525Y-4.95
X5.525Y-5.05
X5.525Y-5.15
X4.775Y-4.8281
X4.775Y-5.025
X7.875Y-2.825
X7.875Y-2.925
X7.875Y-3.025
X7.875Y-3.125
X7.875Y-3.225
X7.875Y-3.325
X7.875Y-3.425
X8.175Y-2.825
X8.175Y-2.925
X8.175Y-3.025
X8.175Y-3.125
X8.175Y-3.225
X8.175Y-3.325
X8.175Y-3.425
X7.7Y-2.825
X7.7Y-3.0219
X7.025Y-1.975
X7.025Y-2.575
X7.125Y-1.975
X7.125Y-2.575
X7.225Y-1.975
X7.225Y-2.575
X7.325Y-1.975
X7.325Y-2.575
X7.425Y-1.975
X7.425Y-2.575
X7.525Y-1.975
X7.525Y-2.575
X7.625Y-1.975
X7.625Y-2.575
X7.725Y-1.975
X7.725Y-2.575
X7.825Y-1.975
X7.825Y-2.575
X7.925Y-1.975
X7.925Y-2.575
X8.025Y-1.975
X8.025Y-2.575
X8.125Y-1.975
X8.125Y-2.575
X8.225Y-1.975
X8.225Y-2.575
X8.325Y-1.975
X8.325Y-2.575
X8.425Y-1.975
X8.425Y-2.575
X5.675Y-4.625
X5.675Y-5.025
X5.675Y-4.1
X5.675Y-4.5
X8.325Y-2.825
X8.325Y-3.0219
X7.025Y-2.4
X7.425Y-2.4
X7.425Y-3.775
X7.425Y-3.9719
X6.35Y-2.175
X6.75Y-2.175
X6.675Y-2.825
X6.675Y-2.925
X6.675Y-3.025
X6.675Y-3.125
X6.675Y-3.225
X6.675Y-3.325
X6.675Y-3.425
X6.675Y-3.525
X6.975Y-2.825
X6.975Y-2.925
X6.975Y-3.025
X6.975Y-3.125
X6.975Y-3.225
X6.975Y-3.325
X6.975Y-3.425
X6.975Y-3.525
X5.825Y-3.25
X5.825Y-3.35
X5.825Y-3.45
X5.825Y-3.55
X5.825Y-3.65
X5.825Y-3.75
X5.825Y-3.85
X5.825Y-3.95
X5.825Y-4.05
X5.825Y-4.15
X5.825Y-4.25
X5.825Y-4.35
X5.825Y-4.45
X5.825Y-4.55
X5.825Y-4.65
X5.825Y-4.75
X5.825Y-4.85
X5.825Y-4.95
X5.825Y-5.05
X5.825Y-5.15
X6.425Y-3.25
X6.425Y-3.35
X6.425Y-3.45
X6.425Y-3.55
X6.425Y-3.65
X6.425Y-3.75
X6.425Y-3.85
X6.425Y-3.95
X6.425Y-4.05
X6.425Y-4.15
X6.425Y-4.25
X6.425Y-4.35
X6.425Y-4.45
X6.425Y-4.55
X6.425Y-4.65
X6.425Y-4.75
X6.425Y-4.85
X6.425Y-4.95
X6.425Y-5.05
X6.425Y-5.15
X6.025Y-3.025
X6.425Y-3.025
X6.35Y-2.375
X6.75Y-2.375
X7.125Y-2.825
X7.125Y-3.0219
X8.325Y-3.775
X8.325Y-3.9719
X7.7Y-3.25
X7.7Y-3.4469
X5.775Y-1.95
X5.775Y-2.05
X5.775Y-2.15
X5.775Y-2.25
X6.075Y-1.95
X6.075Y-2.05
X6.075Y-2.15
X6.075Y-2.25
X4.875Y-2.575
X4.875Y-2.875
X4.975Y-2.575
X4.975Y-2.875
X5.075Y-2.575
X5.075Y-2.875
X5.175Y-2.575
X5.175Y-2.875
X5.275Y-2.575
X5.275Y-2.875
X5.375Y-2.575
X5.375Y-2.875
X5.475Y-2.575
X5.475Y-2.875
X5.575Y-2.575
X5.575Y-2.875
X5.675Y-2.575
X5.675Y-2.875
X5.775Y-2.575
X5.775Y-2.875
X5.875Y-2.575
X5.875Y-2.875
X5.975Y-2.575
X5.975Y-2.875
X6.075Y-2.575
X6.075Y-2.875
X6.175Y-2.575
X6.175Y-2.875
X5.675Y-3.8031
X5.675Y-4.
X5.675Y-3.3
X5.675Y-3.7
X6.35Y-1.975
X6.75Y-1.975
X4.925Y-2.
X4.925Y-2.3
X5.225Y-2.
X5.225Y-2.3
X5.525Y-2.
X5.525Y-2.3
X7.025Y-2.15
X7.425Y-2.15
X6.675Y-3.775
X6.675Y-3.875
X6.675Y-3.975
X6.675Y-4.075
X6.675Y-4.175
X6.675Y-4.275
X6.675Y-4.375
X6.675Y-4.475
X6.675Y-4.575
X6.675Y-4.675
X6.675Y-4.775
X6.675Y-4.875
X6.675Y-4.975
X6.675Y-5.075
X7.275Y-3.775
X7.275Y-3.875
X7.275Y-3.975
X7.275Y-4.075
X7.275Y-4.175
X7.275Y-4.275
X7.275Y-4.375
X7.275Y-4.475
X7.275Y-4.575
X7.275Y-4.675
X7.275Y-4.775
X7.275Y-4.875
X7.275Y-4.975
X7.275Y-5.075
X8.325Y-4.1
X8.325Y-4.5
T4
X7.5Y-1.75
X7.6Y-1.75
T5
X7.575Y-3.625
X7.675Y-3.625
X7.775Y-3.625
X7.975Y-3.625
X8.075Y-3.625
X8.175Y-3.625
X4.75Y-3.25
X4.75Y-3.35
X7.275Y-1.7
X7.275Y-1.8
X5.775Y-2.425
X5.875Y-2.425
X6.675Y-5.225
X6.775Y-5.225
X6.875Y-5.225
X4.775Y-4.475
X4.775Y-4.575
X4.775Y-4.675
X4.625Y-5.425
X4.725Y-5.425
X4.825Y-5.425
X4.925Y-5.425
X5.025Y-5.425
X5.125Y-5.425
X5.225Y-5.425
X5.325Y-5.425
X5.425Y-5.425
X5.525Y-5.425
X5.625Y-5.425
X5.725Y-5.425
X5.825Y-5.425
X5.925Y-5.425
X6.025Y-5.425
X6.125Y-5.425
X6.225Y-5.425
X6.325Y-5.425
X6.425Y-5.425
X6.525Y-5.425
X6.625Y-5.425
X6.725Y-5.425
X6.825Y-5.425
X6.925Y-5.425
X7.025Y-5.425
X7.125Y-5.425
X7.225Y-5.425
X7.325Y-5.425
X7.425Y-5.425
X7.525Y-5.425
X7.625Y-5.425
X7.725Y-5.425
X7.825Y-5.425
X7.925Y-5.425
X8.025Y-5.425
X8.125Y-5.425
X8.225Y-5.425
X8.325Y-5.425
X8.425Y-5.425
X8.325Y-4.65
X8.325Y-4.75
X8.325Y-4.85
T6
X7.8191Y-1.6478
X7.8191Y-1.825
X8.075Y-1.6478
X8.075Y-1.825
T7
X8.3Y-1.725
X4.75Y-1.725
X4.75Y-5.2
X8.3Y-5.2
T0
M30
