G04 #@! TF.GenerationSoftware,KiCad,Pcbnew,(5.0.2)-1*
G04 #@! TF.CreationDate,2019-08-30T14:41:27-04:00*
G04 #@! TF.ProjectId,RC6502 Apple 1 SBC,52433635-3032-4204-9170-706c65203120,rev?*
G04 #@! TF.SameCoordinates,Original*
G04 #@! TF.FileFunction,Copper,L1,Top*
G04 #@! TF.FilePolarity,Positive*
%FSLAX46Y46*%
G04 Gerber Fmt 4.6, Leading zero omitted, Abs format (unit mm)*
G04 Created by KiCad (PCBNEW (5.0.2)-1) date 8/30/2019 2:41:27 PM*
%MOMM*%
%LPD*%
G01*
G04 APERTURE LIST*
G04 #@! TA.AperFunction,ComponentPad*
%ADD10R,1.600000X1.600000*%
G04 #@! TD*
G04 #@! TA.AperFunction,ComponentPad*
%ADD11O,1.600000X1.600000*%
G04 #@! TD*
G04 #@! TA.AperFunction,ComponentPad*
%ADD12C,1.600000*%
G04 #@! TD*
G04 #@! TA.AperFunction,ComponentPad*
%ADD13R,1.700000X1.700000*%
G04 #@! TD*
G04 #@! TA.AperFunction,ComponentPad*
%ADD14O,1.700000X1.700000*%
G04 #@! TD*
G04 #@! TA.AperFunction,ComponentPad*
%ADD15C,2.000000*%
G04 #@! TD*
G04 #@! TA.AperFunction,ComponentPad*
%ADD16R,1.200000X1.200000*%
G04 #@! TD*
G04 #@! TA.AperFunction,ComponentPad*
%ADD17C,1.200000*%
G04 #@! TD*
G04 #@! TA.AperFunction,ComponentPad*
%ADD18C,5.000000*%
G04 #@! TD*
G04 #@! TA.AperFunction,ComponentPad*
%ADD19R,1.800000X1.800000*%
G04 #@! TD*
G04 #@! TA.AperFunction,ComponentPad*
%ADD20C,1.800000*%
G04 #@! TD*
G04 #@! TA.AperFunction,ViaPad*
%ADD21C,0.600000*%
G04 #@! TD*
G04 #@! TA.AperFunction,Conductor*
%ADD22C,0.250000*%
G04 #@! TD*
G04 APERTURE END LIST*
D10*
G04 #@! TO.P,U1,1*
G04 #@! TO.N,Net-(J1-Pad2)*
X147955000Y-82550000D03*
D11*
G04 #@! TO.P,U1,21*
G04 #@! TO.N,GND*
X163195000Y-130810000D03*
G04 #@! TO.P,U1,2*
G04 #@! TO.N,RDY*
X147955000Y-85090000D03*
G04 #@! TO.P,U1,22*
G04 #@! TO.N,A12*
X163195000Y-128270000D03*
G04 #@! TO.P,U1,3*
G04 #@! TO.N,PHI1*
X147955000Y-87630000D03*
G04 #@! TO.P,U1,23*
G04 #@! TO.N,A13*
X163195000Y-125730000D03*
G04 #@! TO.P,U1,4*
G04 #@! TO.N,IRQ*
X147955000Y-90170000D03*
G04 #@! TO.P,U1,24*
G04 #@! TO.N,A14*
X163195000Y-123190000D03*
G04 #@! TO.P,U1,5*
G04 #@! TO.N,N/C*
X147955000Y-92710000D03*
G04 #@! TO.P,U1,25*
G04 #@! TO.N,A15*
X163195000Y-120650000D03*
G04 #@! TO.P,U1,6*
G04 #@! TO.N,NMI*
X147955000Y-95250000D03*
G04 #@! TO.P,U1,26*
G04 #@! TO.N,D7*
X163195000Y-118110000D03*
G04 #@! TO.P,U1,7*
G04 #@! TO.N,SYNC*
X147955000Y-97790000D03*
G04 #@! TO.P,U1,27*
G04 #@! TO.N,D6*
X163195000Y-115570000D03*
G04 #@! TO.P,U1,8*
G04 #@! TO.N,VCC*
X147955000Y-100330000D03*
G04 #@! TO.P,U1,28*
G04 #@! TO.N,D5*
X163195000Y-113030000D03*
G04 #@! TO.P,U1,9*
G04 #@! TO.N,A0*
X147955000Y-102870000D03*
G04 #@! TO.P,U1,29*
G04 #@! TO.N,D4*
X163195000Y-110490000D03*
G04 #@! TO.P,U1,10*
G04 #@! TO.N,A1*
X147955000Y-105410000D03*
G04 #@! TO.P,U1,30*
G04 #@! TO.N,D3*
X163195000Y-107950000D03*
G04 #@! TO.P,U1,11*
G04 #@! TO.N,A2*
X147955000Y-107950000D03*
G04 #@! TO.P,U1,31*
G04 #@! TO.N,D2*
X163195000Y-105410000D03*
G04 #@! TO.P,U1,12*
G04 #@! TO.N,A3*
X147955000Y-110490000D03*
G04 #@! TO.P,U1,32*
G04 #@! TO.N,D1*
X163195000Y-102870000D03*
G04 #@! TO.P,U1,13*
G04 #@! TO.N,A4*
X147955000Y-113030000D03*
G04 #@! TO.P,U1,33*
G04 #@! TO.N,D0*
X163195000Y-100330000D03*
G04 #@! TO.P,U1,14*
G04 #@! TO.N,A5*
X147955000Y-115570000D03*
G04 #@! TO.P,U1,34*
G04 #@! TO.N,RW*
X163195000Y-97790000D03*
G04 #@! TO.P,U1,15*
G04 #@! TO.N,A6*
X147955000Y-118110000D03*
G04 #@! TO.P,U1,35*
G04 #@! TO.N,N/C*
X163195000Y-95250000D03*
G04 #@! TO.P,U1,16*
G04 #@! TO.N,A7*
X147955000Y-120650000D03*
G04 #@! TO.P,U1,36*
G04 #@! TO.N,Net-(R10-Pad1)*
X163195000Y-92710000D03*
G04 #@! TO.P,U1,17*
G04 #@! TO.N,A8*
X147955000Y-123190000D03*
G04 #@! TO.P,U1,37*
G04 #@! TO.N,CLOCK*
X163195000Y-90170000D03*
G04 #@! TO.P,U1,18*
G04 #@! TO.N,A9*
X147955000Y-125730000D03*
G04 #@! TO.P,U1,38*
G04 #@! TO.N,VCC*
X163195000Y-87630000D03*
G04 #@! TO.P,U1,19*
G04 #@! TO.N,A10*
X147955000Y-128270000D03*
G04 #@! TO.P,U1,39*
G04 #@! TO.N,PHI2*
X163195000Y-85090000D03*
G04 #@! TO.P,U1,20*
G04 #@! TO.N,A11*
X147955000Y-130810000D03*
G04 #@! TO.P,U1,40*
G04 #@! TO.N,RESET*
X163195000Y-82550000D03*
G04 #@! TD*
D12*
G04 #@! TO.P,C1,1*
G04 #@! TO.N,VCC*
X144145000Y-101600000D03*
G04 #@! TO.P,C1,2*
G04 #@! TO.N,GND*
X144145000Y-96600000D03*
G04 #@! TD*
G04 #@! TO.P,C2,1*
G04 #@! TO.N,VCC*
X188595000Y-95885000D03*
G04 #@! TO.P,C2,2*
G04 #@! TO.N,GND*
X188595000Y-100885000D03*
G04 #@! TD*
G04 #@! TO.P,C4,1*
G04 #@! TO.N,VCC*
X211455000Y-95885000D03*
G04 #@! TO.P,C4,2*
G04 #@! TO.N,GND*
X211455000Y-100885000D03*
G04 #@! TD*
G04 #@! TO.P,C5,1*
G04 #@! TO.N,VCC*
X211455000Y-71755000D03*
G04 #@! TO.P,C5,2*
G04 #@! TO.N,GND*
X211455000Y-76755000D03*
G04 #@! TD*
G04 #@! TO.P,C6,1*
G04 #@! TO.N,Net-(C6-Pad1)*
X157480000Y-57150000D03*
G04 #@! TO.P,C6,2*
G04 #@! TO.N,GND*
X157480000Y-62150000D03*
G04 #@! TD*
G04 #@! TO.P,C7,1*
G04 #@! TO.N,VCC*
X195580000Y-71755000D03*
G04 #@! TO.P,C7,2*
G04 #@! TO.N,GND*
X195580000Y-76755000D03*
G04 #@! TD*
G04 #@! TO.P,C8,1*
G04 #@! TO.N,VCC*
X121285000Y-127635000D03*
G04 #@! TO.P,C8,2*
G04 #@! TO.N,GND*
X121285000Y-122635000D03*
G04 #@! TD*
G04 #@! TO.P,C9,1*
G04 #@! TO.N,VCC*
X144145000Y-76835000D03*
G04 #@! TO.P,C9,2*
G04 #@! TO.N,GND*
X149145000Y-76835000D03*
G04 #@! TD*
G04 #@! TO.P,C11,1*
G04 #@! TO.N,VCC*
X157480000Y-48895000D03*
G04 #@! TO.P,C11,2*
G04 #@! TO.N,GND*
X157480000Y-53895000D03*
G04 #@! TD*
D10*
G04 #@! TO.P,J2,1*
G04 #@! TO.N,TX*
X178435000Y-65405000D03*
D11*
G04 #@! TO.P,J2,17*
G04 #@! TO.N,N/C*
X211455000Y-50165000D03*
G04 #@! TO.P,J2,2*
G04 #@! TO.N,RX*
X180975000Y-65405000D03*
G04 #@! TO.P,J2,18*
G04 #@! TO.N,N/C*
X208915000Y-50165000D03*
G04 #@! TO.P,J2,3*
X183515000Y-65405000D03*
G04 #@! TO.P,J2,19*
X206375000Y-50165000D03*
G04 #@! TO.P,J2,4*
X186055000Y-65405000D03*
G04 #@! TO.P,J2,20*
X203835000Y-50165000D03*
G04 #@! TO.P,J2,5*
G04 #@! TO.N,KBD_READY*
X188595000Y-65405000D03*
G04 #@! TO.P,J2,21*
G04 #@! TO.N,N/C*
X201295000Y-50165000D03*
G04 #@! TO.P,J2,6*
G04 #@! TO.N,OUT_DA*
X191135000Y-65405000D03*
G04 #@! TO.P,J2,22*
G04 #@! TO.N,N/C*
X198755000Y-50165000D03*
G04 #@! TO.P,J2,7*
G04 #@! TO.N,KBD_STROBE*
X193675000Y-65405000D03*
G04 #@! TO.P,J2,23*
G04 #@! TO.N,N/C*
X196215000Y-50165000D03*
G04 #@! TO.P,J2,8*
G04 #@! TO.N,OUT_RDA*
X196215000Y-65405000D03*
G04 #@! TO.P,J2,24*
G04 #@! TO.N,N/C*
X193675000Y-50165000D03*
G04 #@! TO.P,J2,9*
X198755000Y-65405000D03*
G04 #@! TO.P,J2,25*
X191135000Y-50165000D03*
G04 #@! TO.P,J2,10*
X201295000Y-65405000D03*
G04 #@! TO.P,J2,26*
X188595000Y-50165000D03*
G04 #@! TO.P,J2,11*
X203835000Y-65405000D03*
G04 #@! TO.P,J2,27*
G04 #@! TO.N,Net-(J2-Pad27)*
X186055000Y-50165000D03*
G04 #@! TO.P,J2,12*
G04 #@! TO.N,N/C*
X206375000Y-65405000D03*
G04 #@! TO.P,J2,28*
G04 #@! TO.N,P_RESET*
X183515000Y-50165000D03*
G04 #@! TO.P,J2,13*
G04 #@! TO.N,Net-(J2-Pad13)*
X208915000Y-65405000D03*
G04 #@! TO.P,J2,29*
G04 #@! TO.N,GND*
X180975000Y-50165000D03*
G04 #@! TO.P,J2,14*
G04 #@! TO.N,Net-(J2-Pad14)*
X211455000Y-65405000D03*
G04 #@! TO.P,J2,30*
G04 #@! TO.N,N/C*
X178435000Y-50165000D03*
G04 #@! TO.P,J2,15*
G04 #@! TO.N,Net-(J2-Pad15)*
X213995000Y-65405000D03*
G04 #@! TO.P,J2,16*
G04 #@! TO.N,Net-(J2-Pad16)*
X213995000Y-50165000D03*
G04 #@! TD*
D13*
G04 #@! TO.P,J3,1*
G04 #@! TO.N,A15*
X213995000Y-137795000D03*
D14*
G04 #@! TO.P,J3,2*
G04 #@! TO.N,A14*
X211455000Y-137795000D03*
G04 #@! TO.P,J3,3*
G04 #@! TO.N,A13*
X208915000Y-137795000D03*
G04 #@! TO.P,J3,4*
G04 #@! TO.N,A12*
X206375000Y-137795000D03*
G04 #@! TO.P,J3,5*
G04 #@! TO.N,A11*
X203835000Y-137795000D03*
G04 #@! TO.P,J3,6*
G04 #@! TO.N,A10*
X201295000Y-137795000D03*
G04 #@! TO.P,J3,7*
G04 #@! TO.N,A9*
X198755000Y-137795000D03*
G04 #@! TO.P,J3,8*
G04 #@! TO.N,A8*
X196215000Y-137795000D03*
G04 #@! TO.P,J3,9*
G04 #@! TO.N,A7*
X193675000Y-137795000D03*
G04 #@! TO.P,J3,10*
G04 #@! TO.N,A6*
X191135000Y-137795000D03*
G04 #@! TO.P,J3,11*
G04 #@! TO.N,A5*
X188595000Y-137795000D03*
G04 #@! TO.P,J3,12*
G04 #@! TO.N,A4*
X186055000Y-137795000D03*
G04 #@! TO.P,J3,13*
G04 #@! TO.N,A3*
X183515000Y-137795000D03*
G04 #@! TO.P,J3,14*
G04 #@! TO.N,A2*
X180975000Y-137795000D03*
G04 #@! TO.P,J3,15*
G04 #@! TO.N,A1*
X178435000Y-137795000D03*
G04 #@! TO.P,J3,16*
G04 #@! TO.N,A0*
X175895000Y-137795000D03*
G04 #@! TO.P,J3,17*
G04 #@! TO.N,GND*
X173355000Y-137795000D03*
G04 #@! TO.P,J3,18*
G04 #@! TO.N,VCC*
X170815000Y-137795000D03*
G04 #@! TO.P,J3,19*
G04 #@! TO.N,PHI2*
X168275000Y-137795000D03*
G04 #@! TO.P,J3,20*
G04 #@! TO.N,RESET*
X165735000Y-137795000D03*
G04 #@! TO.P,J3,21*
G04 #@! TO.N,CLOCK*
X163195000Y-137795000D03*
G04 #@! TO.P,J3,22*
G04 #@! TO.N,IRQ*
X160655000Y-137795000D03*
G04 #@! TO.P,J3,23*
G04 #@! TO.N,PHI1*
X158115000Y-137795000D03*
G04 #@! TO.P,J3,24*
G04 #@! TO.N,RW*
X155575000Y-137795000D03*
G04 #@! TO.P,J3,25*
G04 #@! TO.N,RDY*
X153035000Y-137795000D03*
G04 #@! TO.P,J3,26*
G04 #@! TO.N,SYNC*
X150495000Y-137795000D03*
G04 #@! TO.P,J3,27*
G04 #@! TO.N,D0*
X147955000Y-137795000D03*
G04 #@! TO.P,J3,28*
G04 #@! TO.N,D1*
X145415000Y-137795000D03*
G04 #@! TO.P,J3,29*
G04 #@! TO.N,D2*
X142875000Y-137795000D03*
G04 #@! TO.P,J3,30*
G04 #@! TO.N,D3*
X140335000Y-137795000D03*
G04 #@! TO.P,J3,31*
G04 #@! TO.N,D4*
X137795000Y-137795000D03*
G04 #@! TO.P,J3,32*
G04 #@! TO.N,D5*
X135255000Y-137795000D03*
G04 #@! TO.P,J3,33*
G04 #@! TO.N,D6*
X132715000Y-137795000D03*
G04 #@! TO.P,J3,34*
G04 #@! TO.N,D7*
X130175000Y-137795000D03*
G04 #@! TO.P,J3,35*
G04 #@! TO.N,TX*
X127635000Y-137795000D03*
G04 #@! TO.P,J3,36*
G04 #@! TO.N,RX*
X125095000Y-137795000D03*
G04 #@! TO.P,J3,37*
G04 #@! TO.N,NMI*
X122555000Y-137795000D03*
G04 #@! TO.P,J3,38*
G04 #@! TO.N,N/C*
X120015000Y-137795000D03*
G04 #@! TO.P,J3,39*
X117475000Y-137795000D03*
G04 #@! TD*
D12*
G04 #@! TO.P,R1,1*
G04 #@! TO.N,Net-(R1-Pad1)*
X211455000Y-104140000D03*
D11*
G04 #@! TO.P,R1,2*
G04 #@! TO.N,VCC*
X211455000Y-114300000D03*
G04 #@! TD*
D12*
G04 #@! TO.P,R2,1*
G04 #@! TO.N,VCC*
X171450000Y-50165000D03*
D11*
G04 #@! TO.P,R2,2*
G04 #@! TO.N,Net-(C6-Pad1)*
X161290000Y-50165000D03*
G04 #@! TD*
D12*
G04 #@! TO.P,R3,1*
G04 #@! TO.N,VCC*
X171450000Y-55245000D03*
D11*
G04 #@! TO.P,R3,2*
G04 #@! TO.N,Net-(C10-Pad1)*
X161290000Y-55245000D03*
G04 #@! TD*
D12*
G04 #@! TO.P,R4,1*
G04 #@! TO.N,RESET*
X161290000Y-60325000D03*
D11*
G04 #@! TO.P,R4,2*
G04 #@! TO.N,VCC*
X171450000Y-60325000D03*
G04 #@! TD*
D12*
G04 #@! TO.P,R5,1*
G04 #@! TO.N,VCC*
X178435000Y-54610000D03*
D11*
G04 #@! TO.P,R5,2*
G04 #@! TO.N,Net-(D1-Pad2)*
X188595000Y-54610000D03*
G04 #@! TD*
D12*
G04 #@! TO.P,R6,1*
G04 #@! TO.N,RDY*
X144145000Y-117475000D03*
D11*
G04 #@! TO.P,R6,2*
G04 #@! TO.N,VCC*
X144145000Y-127635000D03*
G04 #@! TD*
D12*
G04 #@! TO.P,R7,1*
G04 #@! TO.N,IRQ*
X144145000Y-114300000D03*
D11*
G04 #@! TO.P,R7,2*
G04 #@! TO.N,VCC*
X144145000Y-104140000D03*
G04 #@! TD*
D12*
G04 #@! TO.P,R8,1*
G04 #@! TO.N,NMI*
X144145000Y-93980000D03*
D11*
G04 #@! TO.P,R8,2*
G04 #@! TO.N,VCC*
X144145000Y-83820000D03*
G04 #@! TD*
D12*
G04 #@! TO.P,R9,1*
G04 #@! TO.N,VCC*
X178435000Y-60960000D03*
D11*
G04 #@! TO.P,R9,2*
G04 #@! TO.N,Net-(J2-Pad13)*
X188595000Y-60960000D03*
G04 #@! TD*
D15*
G04 #@! TO.P,SW1,2*
G04 #@! TO.N,Net-(C6-Pad1)*
X205105000Y-41855000D03*
G04 #@! TO.P,SW1,1*
G04 #@! TO.N,GND*
X205105000Y-46355000D03*
G04 #@! TO.P,SW1,2*
G04 #@! TO.N,Net-(C6-Pad1)*
X198605000Y-41855000D03*
G04 #@! TO.P,SW1,1*
G04 #@! TO.N,GND*
X198605000Y-46355000D03*
G04 #@! TD*
D10*
G04 #@! TO.P,U2,1*
G04 #@! TO.N,A14*
X169545000Y-95885000D03*
D11*
G04 #@! TO.P,U2,15*
G04 #@! TO.N,D3*
X184785000Y-128905000D03*
G04 #@! TO.P,U2,2*
G04 #@! TO.N,A12*
X169545000Y-98425000D03*
G04 #@! TO.P,U2,16*
G04 #@! TO.N,D4*
X184785000Y-126365000D03*
G04 #@! TO.P,U2,3*
G04 #@! TO.N,A7*
X169545000Y-100965000D03*
G04 #@! TO.P,U2,17*
G04 #@! TO.N,D5*
X184785000Y-123825000D03*
G04 #@! TO.P,U2,4*
G04 #@! TO.N,A6*
X169545000Y-103505000D03*
G04 #@! TO.P,U2,18*
G04 #@! TO.N,D6*
X184785000Y-121285000D03*
G04 #@! TO.P,U2,5*
G04 #@! TO.N,A5*
X169545000Y-106045000D03*
G04 #@! TO.P,U2,19*
G04 #@! TO.N,D7*
X184785000Y-118745000D03*
G04 #@! TO.P,U2,6*
G04 #@! TO.N,A4*
X169545000Y-108585000D03*
G04 #@! TO.P,U2,20*
G04 #@! TO.N,Net-(J10-Pad2)*
X184785000Y-116205000D03*
G04 #@! TO.P,U2,7*
G04 #@! TO.N,A3*
X169545000Y-111125000D03*
G04 #@! TO.P,U2,21*
G04 #@! TO.N,A10*
X184785000Y-113665000D03*
G04 #@! TO.P,U2,8*
G04 #@! TO.N,A2*
X169545000Y-113665000D03*
G04 #@! TO.P,U2,22*
G04 #@! TO.N,Net-(J10-Pad2)*
X184785000Y-111125000D03*
G04 #@! TO.P,U2,9*
G04 #@! TO.N,A1*
X169545000Y-116205000D03*
G04 #@! TO.P,U2,23*
G04 #@! TO.N,A11*
X184785000Y-108585000D03*
G04 #@! TO.P,U2,10*
G04 #@! TO.N,A0*
X169545000Y-118745000D03*
G04 #@! TO.P,U2,24*
G04 #@! TO.N,A9*
X184785000Y-106045000D03*
G04 #@! TO.P,U2,11*
G04 #@! TO.N,D0*
X169545000Y-121285000D03*
G04 #@! TO.P,U2,25*
G04 #@! TO.N,A8*
X184785000Y-103505000D03*
G04 #@! TO.P,U2,12*
G04 #@! TO.N,D1*
X169545000Y-123825000D03*
G04 #@! TO.P,U2,26*
G04 #@! TO.N,A13*
X184785000Y-100965000D03*
G04 #@! TO.P,U2,13*
G04 #@! TO.N,D2*
X169545000Y-126365000D03*
G04 #@! TO.P,U2,27*
G04 #@! TO.N,Net-(U2-Pad27)*
X184785000Y-98425000D03*
G04 #@! TO.P,U2,14*
G04 #@! TO.N,GND*
X169545000Y-128905000D03*
G04 #@! TO.P,U2,28*
G04 #@! TO.N,VCC*
X184785000Y-95885000D03*
G04 #@! TD*
D10*
G04 #@! TO.P,U5,1*
G04 #@! TO.N,Net-(U5-Pad1)*
X200025000Y-71755000D03*
D11*
G04 #@! TO.P,U5,8*
G04 #@! TO.N,Net-(U5-Pad13)*
X207645000Y-86995000D03*
G04 #@! TO.P,U5,2*
G04 #@! TO.N,Net-(U5-Pad1)*
X200025000Y-74295000D03*
G04 #@! TO.P,U5,9*
G04 #@! TO.N,RW*
X207645000Y-84455000D03*
G04 #@! TO.P,U5,3*
G04 #@! TO.N,CS_ROM*
X200025000Y-76835000D03*
G04 #@! TO.P,U5,10*
G04 #@! TO.N,RW*
X207645000Y-81915000D03*
G04 #@! TO.P,U5,4*
G04 #@! TO.N,Net-(U3-Pad9)*
X200025000Y-79375000D03*
G04 #@! TO.P,U5,11*
G04 #@! TO.N,Net-(U2-Pad27)*
X207645000Y-79375000D03*
G04 #@! TO.P,U5,5*
G04 #@! TO.N,Net-(U3-Pad7)*
X200025000Y-81915000D03*
G04 #@! TO.P,U5,12*
G04 #@! TO.N,PHI2*
X207645000Y-76835000D03*
G04 #@! TO.P,U5,6*
G04 #@! TO.N,Net-(U5-Pad1)*
X200025000Y-84455000D03*
G04 #@! TO.P,U5,13*
G04 #@! TO.N,Net-(U5-Pad13)*
X207645000Y-74295000D03*
G04 #@! TO.P,U5,7*
G04 #@! TO.N,GND*
X200025000Y-86995000D03*
G04 #@! TO.P,U5,14*
G04 #@! TO.N,VCC*
X207645000Y-71755000D03*
G04 #@! TD*
D10*
G04 #@! TO.P,U7,1*
G04 #@! TO.N,Net-(U7-Pad1)*
X184785000Y-71755000D03*
D11*
G04 #@! TO.P,U7,8*
G04 #@! TO.N,N/C*
X192405000Y-86995000D03*
G04 #@! TO.P,U7,2*
G04 #@! TO.N,Net-(C12-Pad2)*
X184785000Y-74295000D03*
G04 #@! TO.P,U7,9*
G04 #@! TO.N,GND*
X192405000Y-84455000D03*
G04 #@! TO.P,U7,3*
G04 #@! TO.N,Net-(U6-Pad3)*
X184785000Y-76835000D03*
G04 #@! TO.P,U7,10*
G04 #@! TO.N,N/C*
X192405000Y-81915000D03*
G04 #@! TO.P,U7,4*
G04 #@! TO.N,RESET*
X184785000Y-79375000D03*
G04 #@! TO.P,U7,11*
G04 #@! TO.N,GND*
X192405000Y-79375000D03*
G04 #@! TO.P,U7,5*
X184785000Y-81915000D03*
G04 #@! TO.P,U7,12*
G04 #@! TO.N,N/C*
X192405000Y-76835000D03*
G04 #@! TO.P,U7,6*
X184785000Y-84455000D03*
G04 #@! TO.P,U7,13*
G04 #@! TO.N,GND*
X192405000Y-74295000D03*
G04 #@! TO.P,U7,7*
X184785000Y-86995000D03*
G04 #@! TO.P,U7,14*
G04 #@! TO.N,VCC*
X192405000Y-71755000D03*
G04 #@! TD*
D10*
G04 #@! TO.P,U8,1*
G04 #@! TO.N,GND*
X125095000Y-82550000D03*
D11*
G04 #@! TO.P,U8,21*
G04 #@! TO.N,RW*
X140335000Y-130810000D03*
G04 #@! TO.P,U8,2*
G04 #@! TO.N,KBD_D0*
X125095000Y-85090000D03*
G04 #@! TO.P,U8,22*
G04 #@! TO.N,A4*
X140335000Y-128270000D03*
G04 #@! TO.P,U8,3*
G04 #@! TO.N,KBD_D1*
X125095000Y-87630000D03*
G04 #@! TO.P,U8,23*
G04 #@! TO.N,CS_PIA*
X140335000Y-125730000D03*
G04 #@! TO.P,U8,4*
G04 #@! TO.N,KBD_D2*
X125095000Y-90170000D03*
G04 #@! TO.P,U8,24*
G04 #@! TO.N,Net-(J11-Pad2)*
X140335000Y-123190000D03*
G04 #@! TO.P,U8,5*
G04 #@! TO.N,KBD_D3*
X125095000Y-92710000D03*
G04 #@! TO.P,U8,25*
G04 #@! TO.N,PHI2*
X140335000Y-120650000D03*
G04 #@! TO.P,U8,6*
G04 #@! TO.N,KBD_D4*
X125095000Y-95250000D03*
G04 #@! TO.P,U8,26*
G04 #@! TO.N,D7*
X140335000Y-118110000D03*
G04 #@! TO.P,U8,7*
G04 #@! TO.N,KBD_D5*
X125095000Y-97790000D03*
G04 #@! TO.P,U8,27*
G04 #@! TO.N,D6*
X140335000Y-115570000D03*
G04 #@! TO.P,U8,8*
G04 #@! TO.N,KBD_D6*
X125095000Y-100330000D03*
G04 #@! TO.P,U8,28*
G04 #@! TO.N,D5*
X140335000Y-113030000D03*
G04 #@! TO.P,U8,9*
G04 #@! TO.N,KBD_D7*
X125095000Y-102870000D03*
G04 #@! TO.P,U8,29*
G04 #@! TO.N,D4*
X140335000Y-110490000D03*
G04 #@! TO.P,U8,10*
G04 #@! TO.N,OUT_D0*
X125095000Y-105410000D03*
G04 #@! TO.P,U8,30*
G04 #@! TO.N,D3*
X140335000Y-107950000D03*
G04 #@! TO.P,U8,11*
G04 #@! TO.N,OUT_D1*
X125095000Y-107950000D03*
G04 #@! TO.P,U8,31*
G04 #@! TO.N,D2*
X140335000Y-105410000D03*
G04 #@! TO.P,U8,12*
G04 #@! TO.N,OUT_D2*
X125095000Y-110490000D03*
G04 #@! TO.P,U8,32*
G04 #@! TO.N,D1*
X140335000Y-102870000D03*
G04 #@! TO.P,U8,13*
G04 #@! TO.N,OUT_D3*
X125095000Y-113030000D03*
G04 #@! TO.P,U8,33*
G04 #@! TO.N,D0*
X140335000Y-100330000D03*
G04 #@! TO.P,U8,14*
G04 #@! TO.N,OUT_D4*
X125095000Y-115570000D03*
G04 #@! TO.P,U8,34*
G04 #@! TO.N,RESET*
X140335000Y-97790000D03*
G04 #@! TO.P,U8,15*
G04 #@! TO.N,OUT_D5*
X125095000Y-118110000D03*
G04 #@! TO.P,U8,35*
G04 #@! TO.N,A1*
X140335000Y-95250000D03*
G04 #@! TO.P,U8,16*
G04 #@! TO.N,OUT_D6*
X125095000Y-120650000D03*
G04 #@! TO.P,U8,36*
G04 #@! TO.N,A0*
X140335000Y-92710000D03*
G04 #@! TO.P,U8,17*
G04 #@! TO.N,OUT_DA*
X125095000Y-123190000D03*
G04 #@! TO.P,U8,37*
G04 #@! TO.N,N/C*
X140335000Y-90170000D03*
G04 #@! TO.P,U8,18*
G04 #@! TO.N,OUT_RDA*
X125095000Y-125730000D03*
G04 #@! TO.P,U8,38*
G04 #@! TO.N,N/C*
X140335000Y-87630000D03*
G04 #@! TO.P,U8,19*
G04 #@! TO.N,Net-(U7-Pad1)*
X125095000Y-128270000D03*
G04 #@! TO.P,U8,39*
G04 #@! TO.N,KBD_READY*
X140335000Y-85090000D03*
G04 #@! TO.P,U8,20*
G04 #@! TO.N,VCC*
X125095000Y-130810000D03*
G04 #@! TO.P,U8,40*
G04 #@! TO.N,KBD_STROBE*
X140335000Y-82550000D03*
G04 #@! TD*
D10*
G04 #@! TO.P,U9,1*
G04 #@! TO.N,KBD_D0*
X123825000Y-73025000D03*
D11*
G04 #@! TO.P,U9,15*
G04 #@! TO.N,GND*
X156845000Y-65405000D03*
G04 #@! TO.P,U9,2*
G04 #@! TO.N,KBD_D1*
X126365000Y-73025000D03*
G04 #@! TO.P,U9,16*
G04 #@! TO.N,GND*
X154305000Y-65405000D03*
G04 #@! TO.P,U9,3*
G04 #@! TO.N,KBD_D2*
X128905000Y-73025000D03*
G04 #@! TO.P,U9,17*
G04 #@! TO.N,GND*
X151765000Y-65405000D03*
G04 #@! TO.P,U9,4*
G04 #@! TO.N,KBD_D3*
X131445000Y-73025000D03*
G04 #@! TO.P,U9,18*
G04 #@! TO.N,P_RESET*
X149225000Y-65405000D03*
G04 #@! TO.P,U9,5*
G04 #@! TO.N,KBD_D4*
X133985000Y-73025000D03*
G04 #@! TO.P,U9,19*
G04 #@! TO.N,N/C*
X146685000Y-65405000D03*
G04 #@! TO.P,U9,6*
G04 #@! TO.N,KBD_D5*
X136525000Y-73025000D03*
G04 #@! TO.P,U9,20*
G04 #@! TO.N,N/C*
X144145000Y-65405000D03*
G04 #@! TO.P,U9,7*
G04 #@! TO.N,KBD_D6*
X139065000Y-73025000D03*
G04 #@! TO.P,U9,21*
G04 #@! TO.N,OUT_D0*
X141605000Y-65405000D03*
G04 #@! TO.P,U9,8*
G04 #@! TO.N,KBD_D7*
X141605000Y-73025000D03*
G04 #@! TO.P,U9,22*
G04 #@! TO.N,OUT_D1*
X139065000Y-65405000D03*
G04 #@! TO.P,U9,9*
G04 #@! TO.N,VCC*
X144145000Y-73025000D03*
G04 #@! TO.P,U9,23*
G04 #@! TO.N,OUT_D2*
X136525000Y-65405000D03*
G04 #@! TO.P,U9,10*
G04 #@! TO.N,GND*
X146685000Y-73025000D03*
G04 #@! TO.P,U9,24*
G04 #@! TO.N,OUT_D3*
X133985000Y-65405000D03*
G04 #@! TO.P,U9,11*
G04 #@! TO.N,Net-(J2-Pad13)*
X149225000Y-73025000D03*
G04 #@! TO.P,U9,25*
G04 #@! TO.N,OUT_D4*
X131445000Y-65405000D03*
G04 #@! TO.P,U9,12*
G04 #@! TO.N,Net-(J2-Pad16)*
X151765000Y-73025000D03*
G04 #@! TO.P,U9,26*
G04 #@! TO.N,OUT_D5*
X128905000Y-65405000D03*
G04 #@! TO.P,U9,13*
G04 #@! TO.N,Net-(J2-Pad14)*
X154305000Y-73025000D03*
G04 #@! TO.P,U9,27*
G04 #@! TO.N,OUT_D6*
X126365000Y-65405000D03*
G04 #@! TO.P,U9,14*
G04 #@! TO.N,Net-(J2-Pad15)*
X156845000Y-73025000D03*
G04 #@! TO.P,U9,28*
G04 #@! TO.N,N/C*
X123825000Y-65405000D03*
G04 #@! TD*
D10*
G04 #@! TO.P,U3,1*
G04 #@! TO.N,A12*
X169545000Y-71755000D03*
D11*
G04 #@! TO.P,U3,9*
G04 #@! TO.N,Net-(U3-Pad9)*
X177165000Y-89535000D03*
G04 #@! TO.P,U3,2*
G04 #@! TO.N,A13*
X169545000Y-74295000D03*
G04 #@! TO.P,U3,10*
G04 #@! TO.N,CS_PIA*
X177165000Y-86995000D03*
G04 #@! TO.P,U3,3*
G04 #@! TO.N,A14*
X169545000Y-76835000D03*
G04 #@! TO.P,U3,11*
G04 #@! TO.N,N/C*
X177165000Y-84455000D03*
G04 #@! TO.P,U3,4*
G04 #@! TO.N,GND*
X169545000Y-79375000D03*
G04 #@! TO.P,U3,12*
G04 #@! TO.N,N/C*
X177165000Y-81915000D03*
G04 #@! TO.P,U3,5*
G04 #@! TO.N,GND*
X169545000Y-81915000D03*
G04 #@! TO.P,U3,13*
G04 #@! TO.N,N/C*
X177165000Y-79375000D03*
G04 #@! TO.P,U3,6*
G04 #@! TO.N,A15*
X169545000Y-84455000D03*
G04 #@! TO.P,U3,14*
G04 #@! TO.N,N/C*
X177165000Y-76835000D03*
G04 #@! TO.P,U3,7*
G04 #@! TO.N,Net-(U3-Pad7)*
X169545000Y-86995000D03*
G04 #@! TO.P,U3,15*
G04 #@! TO.N,N/C*
X177165000Y-74295000D03*
G04 #@! TO.P,U3,8*
G04 #@! TO.N,GND*
X169545000Y-89535000D03*
G04 #@! TO.P,U3,16*
G04 #@! TO.N,VCC*
X177165000Y-71755000D03*
G04 #@! TD*
D10*
G04 #@! TO.P,U4,1*
G04 #@! TO.N,A14_W*
X192405000Y-95885000D03*
D11*
G04 #@! TO.P,U4,15*
G04 #@! TO.N,D3*
X207645000Y-128905000D03*
G04 #@! TO.P,U4,2*
G04 #@! TO.N,A12*
X192405000Y-98425000D03*
G04 #@! TO.P,U4,16*
G04 #@! TO.N,D4*
X207645000Y-126365000D03*
G04 #@! TO.P,U4,3*
G04 #@! TO.N,A7*
X192405000Y-100965000D03*
G04 #@! TO.P,U4,17*
G04 #@! TO.N,D5*
X207645000Y-123825000D03*
G04 #@! TO.P,U4,4*
G04 #@! TO.N,A6*
X192405000Y-103505000D03*
G04 #@! TO.P,U4,18*
G04 #@! TO.N,D6*
X207645000Y-121285000D03*
G04 #@! TO.P,U4,5*
G04 #@! TO.N,A5*
X192405000Y-106045000D03*
G04 #@! TO.P,U4,19*
G04 #@! TO.N,D7*
X207645000Y-118745000D03*
G04 #@! TO.P,U4,6*
G04 #@! TO.N,A4*
X192405000Y-108585000D03*
G04 #@! TO.P,U4,20*
G04 #@! TO.N,Net-(J9-Pad2)*
X207645000Y-116205000D03*
G04 #@! TO.P,U4,7*
G04 #@! TO.N,A3*
X192405000Y-111125000D03*
G04 #@! TO.P,U4,21*
G04 #@! TO.N,A10*
X207645000Y-113665000D03*
G04 #@! TO.P,U4,8*
G04 #@! TO.N,A2*
X192405000Y-113665000D03*
G04 #@! TO.P,U4,22*
G04 #@! TO.N,Net-(J9-Pad2)*
X207645000Y-111125000D03*
G04 #@! TO.P,U4,9*
G04 #@! TO.N,A1*
X192405000Y-116205000D03*
G04 #@! TO.P,U4,23*
G04 #@! TO.N,A11*
X207645000Y-108585000D03*
G04 #@! TO.P,U4,10*
G04 #@! TO.N,A0*
X192405000Y-118745000D03*
G04 #@! TO.P,U4,24*
G04 #@! TO.N,A9*
X207645000Y-106045000D03*
G04 #@! TO.P,U4,11*
G04 #@! TO.N,D0*
X192405000Y-121285000D03*
G04 #@! TO.P,U4,25*
G04 #@! TO.N,A8*
X207645000Y-103505000D03*
G04 #@! TO.P,U4,12*
G04 #@! TO.N,D1*
X192405000Y-123825000D03*
G04 #@! TO.P,U4,26*
G04 #@! TO.N,A13_W*
X207645000Y-100965000D03*
G04 #@! TO.P,U4,13*
G04 #@! TO.N,D2*
X192405000Y-126365000D03*
G04 #@! TO.P,U4,27*
G04 #@! TO.N,Net-(R1-Pad1)*
X207645000Y-98425000D03*
G04 #@! TO.P,U4,14*
G04 #@! TO.N,GND*
X192405000Y-128905000D03*
G04 #@! TO.P,U4,28*
G04 #@! TO.N,VCC*
X207645000Y-95885000D03*
G04 #@! TD*
D10*
G04 #@! TO.P,U6,1*
G04 #@! TO.N,GND*
X146685000Y-49530000D03*
D11*
G04 #@! TO.P,U6,5*
G04 #@! TO.N,N/C*
X154305000Y-57150000D03*
G04 #@! TO.P,U6,2*
G04 #@! TO.N,Net-(C6-Pad1)*
X146685000Y-52070000D03*
G04 #@! TO.P,U6,6*
G04 #@! TO.N,Net-(C10-Pad1)*
X154305000Y-54610000D03*
G04 #@! TO.P,U6,3*
G04 #@! TO.N,Net-(U6-Pad3)*
X146685000Y-54610000D03*
G04 #@! TO.P,U6,7*
G04 #@! TO.N,Net-(C10-Pad1)*
X154305000Y-52070000D03*
G04 #@! TO.P,U6,4*
G04 #@! TO.N,VCC*
X146685000Y-57150000D03*
G04 #@! TO.P,U6,8*
X154305000Y-49530000D03*
G04 #@! TD*
D12*
G04 #@! TO.P,C3,1*
G04 #@! TO.N,VCC*
X180975000Y-71755000D03*
G04 #@! TO.P,C3,2*
G04 #@! TO.N,GND*
X180975000Y-76755000D03*
G04 #@! TD*
D16*
G04 #@! TO.P,C10,1*
G04 #@! TO.N,Net-(C10-Pad1)*
X165354000Y-66040000D03*
D17*
G04 #@! TO.P,C10,2*
G04 #@! TO.N,GND*
X167354000Y-66040000D03*
G04 #@! TD*
D12*
G04 #@! TO.P,C12,1*
G04 #@! TO.N,OUT_DA*
X195580000Y-82550000D03*
G04 #@! TO.P,C12,2*
G04 #@! TO.N,Net-(C12-Pad2)*
X195580000Y-87550000D03*
G04 #@! TD*
D18*
G04 #@! TO.P,J4,1*
G04 #@! TO.N,N/C*
X210820000Y-132080000D03*
G04 #@! TD*
G04 #@! TO.P,J5,1*
G04 #@! TO.N,N/C*
X120650000Y-132080000D03*
G04 #@! TD*
G04 #@! TO.P,J6,1*
G04 #@! TO.N,N/C*
X210820000Y-43815000D03*
G04 #@! TD*
G04 #@! TO.P,J7,1*
G04 #@! TO.N,N/C*
X120650000Y-43815000D03*
G04 #@! TD*
D13*
G04 #@! TO.P,J1,1*
G04 #@! TO.N,GND*
X120650000Y-85090000D03*
D14*
G04 #@! TO.P,J1,2*
G04 #@! TO.N,Net-(J1-Pad2)*
X120650000Y-82550000D03*
G04 #@! TD*
D19*
G04 #@! TO.P,D1,1*
G04 #@! TO.N,GND*
X193040000Y-44450000D03*
D20*
G04 #@! TO.P,D1,2*
G04 #@! TO.N,Net-(D1-Pad2)*
X190500000Y-44450000D03*
G04 #@! TD*
D13*
G04 #@! TO.P,J8,1*
G04 #@! TO.N,Net-(J2-Pad27)*
X184785000Y-45720000D03*
D14*
G04 #@! TO.P,J8,2*
G04 #@! TO.N,VCC*
X184785000Y-43180000D03*
G04 #@! TD*
D13*
G04 #@! TO.P,A13,1*
G04 #@! TO.N,VCC*
X192405000Y-92075000D03*
D14*
G04 #@! TO.P,A13,2*
G04 #@! TO.N,A13_W*
X194945000Y-92075000D03*
G04 #@! TO.P,A13,3*
G04 #@! TO.N,GND*
X197485000Y-92075000D03*
G04 #@! TD*
D13*
G04 #@! TO.P,A14,1*
G04 #@! TO.N,VCC*
X202565000Y-92075000D03*
D14*
G04 #@! TO.P,A14,2*
G04 #@! TO.N,A14_W*
X205105000Y-92075000D03*
G04 #@! TO.P,A14,3*
G04 #@! TO.N,GND*
X207645000Y-92075000D03*
G04 #@! TD*
D12*
G04 #@! TO.P,R10,1*
G04 #@! TO.N,Net-(R10-Pad1)*
X163195000Y-76835000D03*
D11*
G04 #@! TO.P,R10,2*
G04 #@! TO.N,VCC*
X153035000Y-76835000D03*
G04 #@! TD*
D12*
G04 #@! TO.P,X1,7*
G04 #@! TO.N,GND*
X132715000Y-58420000D03*
G04 #@! TO.P,X1,8*
G04 #@! TO.N,Net-(JP1-Pad1)*
X132715000Y-50800000D03*
D10*
G04 #@! TO.P,X1,1*
G04 #@! TO.N,N/C*
X125095000Y-58420000D03*
D12*
G04 #@! TO.P,X1,14*
G04 #@! TO.N,VCC*
X125095000Y-50800000D03*
G04 #@! TO.P,X1,8*
G04 #@! TO.N,Net-(JP1-Pad1)*
X140335000Y-50800000D03*
G04 #@! TO.P,X1,7*
G04 #@! TO.N,GND*
X140335000Y-58420000D03*
G04 #@! TD*
D13*
G04 #@! TO.P,J9,1*
G04 #@! TO.N,CS_ROM*
X211455000Y-118110000D03*
D14*
G04 #@! TO.P,J9,2*
G04 #@! TO.N,Net-(J9-Pad2)*
X211455000Y-120650000D03*
G04 #@! TO.P,J9,3*
G04 #@! TO.N,VCC*
X211455000Y-123190000D03*
G04 #@! TD*
D13*
G04 #@! TO.P,J10,1*
G04 #@! TO.N,A15*
X169545000Y-132715000D03*
D14*
G04 #@! TO.P,J10,2*
G04 #@! TO.N,Net-(J10-Pad2)*
X172085000Y-132715000D03*
G04 #@! TO.P,J10,3*
G04 #@! TO.N,VCC*
X174625000Y-132715000D03*
G04 #@! TD*
D13*
G04 #@! TO.P,J11,1*
G04 #@! TO.N,VCC*
X121285000Y-113665000D03*
D14*
G04 #@! TO.P,J11,2*
G04 #@! TO.N,Net-(J11-Pad2)*
X121285000Y-116205000D03*
G04 #@! TO.P,J11,3*
G04 #@! TO.N,GND*
X121285000Y-118745000D03*
G04 #@! TD*
D13*
G04 #@! TO.P,JP1,1*
G04 #@! TO.N,Net-(JP1-Pad1)*
X146685000Y-61595000D03*
D14*
G04 #@! TO.P,JP1,2*
G04 #@! TO.N,CLOCK*
X149225000Y-61595000D03*
G04 #@! TD*
D21*
G04 #@! TO.N,OUT_DA*
X173990000Y-67945000D03*
X183515000Y-69215000D03*
X189865000Y-69850000D03*
X189865000Y-67310000D03*
G04 #@! TO.N,VCC*
X161290000Y-43180000D03*
X164465000Y-43180000D03*
X117475000Y-114935000D03*
X139065000Y-77470000D03*
X126365000Y-77470000D03*
X149225000Y-135890000D03*
X178435000Y-134620000D03*
X214630000Y-91440000D03*
X213360000Y-90170000D03*
X138430000Y-102235000D03*
X214630000Y-133985000D03*
X177165000Y-135890000D03*
X117475000Y-133350000D03*
G04 #@! TO.N,Net-(J1-Pad2)*
X138430000Y-78105000D03*
X145415000Y-78740000D03*
X125730000Y-78105000D03*
G04 #@! TO.N,TX*
X119380000Y-79375000D03*
X119380000Y-77470000D03*
X127635000Y-129540000D03*
X127635000Y-125095000D03*
X162560000Y-46355000D03*
X159385000Y-43815000D03*
X128270000Y-43815000D03*
X125095000Y-46990000D03*
X170180000Y-61595000D03*
G04 #@! TO.N,RX*
X118745000Y-80010000D03*
X118745000Y-78105000D03*
X127000000Y-128905000D03*
X127000000Y-127635000D03*
X161290000Y-47625000D03*
X158115000Y-45085000D03*
X125730000Y-45085000D03*
X123190000Y-47625000D03*
X168910000Y-61595000D03*
X176530000Y-66675000D03*
G04 #@! TO.N,KBD_READY*
X182245000Y-67945000D03*
X180975000Y-69215000D03*
G04 #@! TO.N,KBD_STROBE*
X180975000Y-67945000D03*
X179705000Y-69215000D03*
G04 #@! TO.N,OUT_RDA*
X177800000Y-67945000D03*
X175895000Y-68580000D03*
G04 #@! TO.N,P_RESET*
X158750000Y-63500000D03*
X160020000Y-61595000D03*
X163830000Y-52070000D03*
X167005000Y-48895000D03*
X174625000Y-48260000D03*
X177165000Y-48260000D03*
G04 #@! TO.N,Net-(J2-Pad13)*
X175260000Y-64135000D03*
X176530000Y-63500000D03*
X159385000Y-65405000D03*
X165100000Y-64135000D03*
G04 #@! TO.N,Net-(J2-Pad14)*
X160655000Y-66675000D03*
X163830000Y-62865000D03*
X177165000Y-57785000D03*
X174625000Y-62230000D03*
X211455000Y-59690000D03*
X209550000Y-57150000D03*
G04 #@! TO.N,Net-(J2-Pad15)*
X175260000Y-62865000D03*
X177165000Y-59055000D03*
X163195000Y-63500000D03*
X161290000Y-67310000D03*
G04 #@! TO.N,Net-(J2-Pad16)*
X160020000Y-66040000D03*
X163195000Y-62230000D03*
X177165000Y-56515000D03*
X173990000Y-61595000D03*
G04 #@! TO.N,A15*
X166370000Y-131445000D03*
X179070000Y-135255000D03*
X208280000Y-135255000D03*
X160020000Y-120015000D03*
X160020000Y-91440000D03*
X160020000Y-88265000D03*
X161925000Y-86360000D03*
G04 #@! TO.N,A14*
X198120000Y-96520000D03*
X196850000Y-95250000D03*
X203200000Y-118745000D03*
X203200000Y-114935000D03*
X203200000Y-128905000D03*
X203200000Y-102870000D03*
X171450000Y-82550000D03*
X171450000Y-93980000D03*
X166370000Y-121920000D03*
G04 #@! TO.N,A13*
X202565000Y-119380000D03*
X202565000Y-115570000D03*
X202565000Y-129540000D03*
X202565000Y-102235000D03*
X187325000Y-98425000D03*
X198755000Y-100965000D03*
X173990000Y-102235000D03*
X172085000Y-81915000D03*
X170815000Y-97155000D03*
X167005000Y-122555000D03*
X167640000Y-97155000D03*
G04 #@! TO.N,A12*
X201930000Y-118745000D03*
X201930000Y-114935000D03*
X201930000Y-128905000D03*
X201930000Y-102870000D03*
X172720000Y-82550000D03*
X172085000Y-98425000D03*
X167640000Y-123190000D03*
G04 #@! TO.N,A11*
X201295000Y-113030000D03*
X201295000Y-115570000D03*
X201295000Y-119380000D03*
X201295000Y-129540000D03*
X174625000Y-129540000D03*
X180975000Y-110490000D03*
X201295000Y-109855000D03*
X195580000Y-109855000D03*
G04 #@! TO.N,A10*
X200660000Y-118745000D03*
X200660000Y-128905000D03*
X172720000Y-130175000D03*
X175260000Y-130175000D03*
X181610000Y-115570000D03*
X200660000Y-114935000D03*
X194310000Y-114935000D03*
G04 #@! TO.N,A9*
X200025000Y-119380000D03*
X200025000Y-129540000D03*
X175260000Y-127635000D03*
X180340000Y-107950000D03*
X167005000Y-127000000D03*
X196215000Y-107315000D03*
X200025000Y-107315000D03*
G04 #@! TO.N,A8*
X199390000Y-118745000D03*
X199390000Y-128905000D03*
X176530000Y-123190000D03*
X179705000Y-105410000D03*
X166370000Y-124460000D03*
X196850000Y-104775000D03*
X199390000Y-104775000D03*
G04 #@! TO.N,A7*
X198755000Y-119380000D03*
X198755000Y-129540000D03*
X172085000Y-100965000D03*
X154305000Y-120015000D03*
X154940000Y-102235000D03*
G04 #@! TO.N,A6*
X198120000Y-128905000D03*
X198120000Y-118745000D03*
X153035000Y-120015000D03*
X154305000Y-104775000D03*
X172720000Y-103505000D03*
G04 #@! TO.N,A5*
X197485000Y-119380000D03*
X197485000Y-129540000D03*
X151130000Y-117475000D03*
X153670000Y-107315000D03*
X173355000Y-106045000D03*
G04 #@! TO.N,A4*
X146050000Y-122555000D03*
X144780000Y-130175000D03*
X196850000Y-118745000D03*
X196850000Y-128905000D03*
X151765000Y-114935000D03*
X153035000Y-109855000D03*
X173990000Y-108585000D03*
G04 #@! TO.N,A3*
X196215000Y-119380000D03*
X196215000Y-129540000D03*
X174625000Y-111125000D03*
G04 #@! TO.N,A2*
X195580000Y-118745000D03*
X195580000Y-128905000D03*
X151765000Y-109855000D03*
X151765000Y-113665000D03*
X175260000Y-113665000D03*
G04 #@! TO.N,A1*
X194945000Y-119380000D03*
X194945000Y-129540000D03*
X151130000Y-98425000D03*
X151130000Y-107315000D03*
X151130000Y-116205000D03*
X175895000Y-116205000D03*
G04 #@! TO.N,A0*
X193675000Y-130810000D03*
X150495000Y-95885000D03*
X150495000Y-93345000D03*
X150495000Y-97790000D03*
X151765000Y-119380000D03*
X177800000Y-118110000D03*
G04 #@! TO.N,PHI2*
X186055000Y-80645000D03*
X179070000Y-83185000D03*
X174625000Y-83185000D03*
X202565000Y-78105000D03*
X159385000Y-95250000D03*
X159385000Y-121920000D03*
X159385000Y-132080000D03*
G04 #@! TO.N,RESET*
X167640000Y-71120000D03*
X166370000Y-67310000D03*
X179070000Y-80645000D03*
X168275000Y-80645000D03*
X152400000Y-96520000D03*
X149225000Y-96520000D03*
X158750000Y-131445000D03*
X158750000Y-93980000D03*
G04 #@! TO.N,CLOCK*
X151130000Y-78105000D03*
X156845000Y-94615000D03*
X151130000Y-81915000D03*
X156845000Y-132080000D03*
X156845000Y-97155000D03*
G04 #@! TO.N,IRQ*
X137795000Y-114300000D03*
X159385000Y-135255000D03*
X137795000Y-99695000D03*
G04 #@! TO.N,RW*
X156210000Y-99695000D03*
X156210000Y-131445000D03*
X155575000Y-134620000D03*
G04 #@! TO.N,RDY*
X137160000Y-119380000D03*
X151765000Y-135255000D03*
X137160000Y-99060000D03*
G04 #@! TO.N,SYNC*
X154940000Y-99060000D03*
X154940000Y-131445000D03*
G04 #@! TO.N,D0*
X171450000Y-120015000D03*
X176530000Y-120015000D03*
G04 #@! TO.N,D1*
X170815000Y-102235000D03*
X172085000Y-102870000D03*
X172085000Y-122555000D03*
X175895000Y-122555000D03*
X133985000Y-104140000D03*
X135255000Y-102870000D03*
G04 #@! TO.N,D2*
X172720000Y-125095000D03*
X175260000Y-125095000D03*
X172720000Y-105410000D03*
X170815000Y-104775000D03*
X133350000Y-106680000D03*
X135255000Y-105410000D03*
G04 #@! TO.N,D3*
X170815000Y-107315000D03*
X173355000Y-107950000D03*
X132715000Y-109220000D03*
X135255000Y-107950000D03*
G04 #@! TO.N,D4*
X173990000Y-110490000D03*
X170815000Y-109855000D03*
X132080000Y-111760000D03*
X135255000Y-110490000D03*
G04 #@! TO.N,D5*
X174625000Y-113030000D03*
X170815000Y-112395000D03*
X135255000Y-113030000D03*
X131445000Y-114300000D03*
G04 #@! TO.N,D6*
X175260000Y-115570000D03*
X170815000Y-114935000D03*
X130810000Y-116840000D03*
X135255000Y-115570000D03*
G04 #@! TO.N,D7*
X170815000Y-117475000D03*
X175895000Y-118110000D03*
X130175000Y-119380000D03*
X135255000Y-118110000D03*
G04 #@! TO.N,NMI*
X139065000Y-96520000D03*
X123825000Y-135255000D03*
G04 #@! TO.N,A13_W*
X200660000Y-97155000D03*
X198120000Y-94615000D03*
G04 #@! TO.N,A14_W*
X201930000Y-95885000D03*
X205105000Y-93980000D03*
G04 #@! TO.N,CS_PIA*
X142875000Y-132080000D03*
X164465000Y-88900000D03*
G04 #@! TO.N,CS_ROM*
X213995000Y-96520000D03*
X213995000Y-95250000D03*
G04 #@! TO.N,Net-(U5-Pad1)*
X201930000Y-76200000D03*
G04 #@! TO.N,OUT_D0*
X130175000Y-69215000D03*
X132080000Y-78105000D03*
G04 #@! TO.N,OUT_D1*
X132715000Y-68580000D03*
X132715000Y-77470000D03*
G04 #@! TO.N,OUT_D2*
X135255000Y-67945000D03*
X133350000Y-78105000D03*
G04 #@! TO.N,OUT_D3*
X137160000Y-69215000D03*
X134620000Y-76835000D03*
G04 #@! TO.N,OUT_D4*
X139700000Y-69850000D03*
X136525000Y-76200000D03*
G04 #@! TO.N,OUT_D5*
X142240000Y-70485000D03*
X140335000Y-74930000D03*
G04 #@! TO.N,OUT_D6*
X142875000Y-74930000D03*
X145415000Y-71755000D03*
G04 #@! TO.N,Net-(U2-Pad27)*
X187325000Y-92710000D03*
G04 #@! TO.N,Net-(U3-Pad9)*
X190500000Y-83820000D03*
G04 #@! TO.N,Net-(U3-Pad7)*
X187325000Y-83185000D03*
X182880000Y-83185000D03*
G04 #@! TO.N,Net-(U6-Pad3)*
X175895000Y-75565000D03*
X164465000Y-71120000D03*
G04 #@! TO.N,Net-(U7-Pad1)*
X182880000Y-76835000D03*
X181610000Y-85090000D03*
X141605000Y-132080000D03*
X135890000Y-130810000D03*
X129540000Y-134620000D03*
X164465000Y-91440000D03*
G04 #@! TO.N,Net-(C6-Pad1)*
X158750000Y-47625000D03*
G04 #@! TO.N,Net-(C10-Pad1)*
X163195000Y-59055000D03*
G04 #@! TO.N,Net-(C12-Pad2)*
X187325000Y-85725000D03*
X186690000Y-84455000D03*
G04 #@! TO.N,Net-(R10-Pad1)*
X165735000Y-92075000D03*
G04 #@! TO.N,Net-(J10-Pad2)*
X177165000Y-129540000D03*
G04 #@! TO.N,Net-(J11-Pad2)*
X128270000Y-120650000D03*
X135255000Y-120015000D03*
G04 #@! TO.N,PHI1*
X153670000Y-132080000D03*
X154305000Y-136525000D03*
X151765000Y-97790000D03*
X151765000Y-103505000D03*
X149860000Y-104140000D03*
G04 #@! TD*
D22*
G04 #@! TO.N,OUT_DA*
X189865000Y-69850000D02*
X189230000Y-69850000D01*
X165100000Y-76835000D02*
X165100000Y-68580000D01*
X165100000Y-68580000D02*
X165735000Y-67945000D01*
X165735000Y-67945000D02*
X173990000Y-67945000D01*
X149860000Y-79375000D02*
X162560000Y-79375000D01*
X140335000Y-79375000D02*
X149860000Y-79375000D01*
X136525000Y-83185000D02*
X139065000Y-80645000D01*
X136525000Y-97155000D02*
X136525000Y-83185000D01*
X133350000Y-102235000D02*
X133350000Y-100330000D01*
X127635000Y-123190000D02*
X128905000Y-121920000D01*
X128905000Y-121920000D02*
X128905000Y-117475000D01*
X127635000Y-123190000D02*
X125095000Y-123190000D01*
X132080000Y-107315000D02*
X132080000Y-105410000D01*
X131445000Y-107950000D02*
X132080000Y-107315000D01*
X129540000Y-116840000D02*
X129540000Y-115570000D01*
X129540000Y-115570000D02*
X130175000Y-114935000D01*
X130175000Y-114935000D02*
X130175000Y-113030000D01*
X130175000Y-113030000D02*
X130810000Y-112395000D01*
X130810000Y-112395000D02*
X130810000Y-111125000D01*
X130810000Y-111125000D02*
X130810000Y-110490000D01*
X130810000Y-110490000D02*
X131445000Y-109855000D01*
X131445000Y-109855000D02*
X131445000Y-107950000D01*
X128905000Y-117475000D02*
X129540000Y-116840000D01*
X132715000Y-104775000D02*
X132715000Y-102870000D01*
X132715000Y-102870000D02*
X133350000Y-102235000D01*
X132080000Y-105410000D02*
X132715000Y-104775000D01*
X133350000Y-100330000D02*
X135255000Y-98425000D01*
X135255000Y-98425000D02*
X136525000Y-97155000D01*
X139065000Y-80645000D02*
X139700000Y-80010000D01*
X139700000Y-80010000D02*
X140335000Y-79375000D01*
X162560000Y-79375000D02*
X165100000Y-76835000D01*
X188595000Y-69215000D02*
X183515000Y-69215000D01*
X189230000Y-69850000D02*
X188595000Y-69215000D01*
X195580000Y-82550000D02*
X195580000Y-81915000D01*
X195580000Y-81915000D02*
X194310000Y-80645000D01*
X194310000Y-80645000D02*
X191135000Y-80645000D01*
X191135000Y-80645000D02*
X189865000Y-79375000D01*
X189865000Y-79375000D02*
X189865000Y-69850000D01*
X189865000Y-67310000D02*
X191135000Y-66040000D01*
X191135000Y-66040000D02*
X191135000Y-65405000D01*
G04 #@! TO.N,VCC*
X157480000Y-48895000D02*
X158750000Y-48895000D01*
X158750000Y-48895000D02*
X164465000Y-43180000D01*
X154305000Y-49530000D02*
X156845000Y-49530000D01*
X156845000Y-49530000D02*
X157480000Y-48895000D01*
X146050000Y-43815000D02*
X144780000Y-45085000D01*
X146050000Y-43815000D02*
X152400000Y-43815000D01*
X152400000Y-43815000D02*
X153670000Y-45085000D01*
X153670000Y-45085000D02*
X153670000Y-45720000D01*
X153670000Y-45720000D02*
X154305000Y-46355000D01*
X154305000Y-46355000D02*
X154940000Y-46355000D01*
X161290000Y-43180000D02*
X158115000Y-46355000D01*
X154940000Y-46355000D02*
X158115000Y-46355000D01*
X139700000Y-46355000D02*
X142240000Y-46355000D01*
X139700000Y-46355000D02*
X127000000Y-46355000D01*
X142875000Y-46355000D02*
X142240000Y-46355000D01*
X144780000Y-45085000D02*
X144780000Y-45720000D01*
X144780000Y-45720000D02*
X144145000Y-46355000D01*
X144145000Y-46355000D02*
X142875000Y-46355000D01*
X144145000Y-76835000D02*
X140970000Y-76835000D01*
X139700000Y-76835000D02*
X139065000Y-77470000D01*
X140970000Y-76835000D02*
X139700000Y-76835000D01*
X120015000Y-78105000D02*
X119380000Y-78740000D01*
X120650000Y-77470000D02*
X120015000Y-78105000D01*
X121285000Y-77470000D02*
X120650000Y-77470000D01*
X126365000Y-77470000D02*
X121285000Y-77470000D01*
X117475000Y-80010000D02*
X118745000Y-78740000D01*
X119380000Y-78740000D02*
X118745000Y-78740000D01*
X144145000Y-127635000D02*
X144145000Y-131445000D01*
X144780000Y-132080000D02*
X145415000Y-132080000D01*
X144145000Y-131445000D02*
X144780000Y-132080000D01*
X145415000Y-132080000D02*
X149225000Y-135890000D01*
X174625000Y-132715000D02*
X177800000Y-132715000D01*
X178435000Y-133350000D02*
X178435000Y-134620000D01*
X177800000Y-132715000D02*
X178435000Y-133350000D01*
X211455000Y-123190000D02*
X214630000Y-123190000D01*
X127000000Y-46355000D02*
X127000000Y-48895000D01*
X127000000Y-48895000D02*
X125095000Y-50800000D01*
X117475000Y-82550000D02*
X117475000Y-80010000D01*
X117475000Y-80010000D02*
X117475000Y-52070000D01*
X117475000Y-52070000D02*
X123190000Y-46355000D01*
X123190000Y-46355000D02*
X125095000Y-46355000D01*
X125095000Y-46355000D02*
X127000000Y-46355000D01*
X117475000Y-83820000D02*
X117475000Y-82550000D01*
X164465000Y-43180000D02*
X173990000Y-43180000D01*
X175260000Y-44450000D02*
X173990000Y-43180000D01*
X175895000Y-44450000D02*
X175260000Y-44450000D01*
X144145000Y-76835000D02*
X144780000Y-76835000D01*
X144780000Y-76835000D02*
X146685000Y-78740000D01*
X153035000Y-78105000D02*
X153035000Y-76835000D01*
X152400000Y-78740000D02*
X153035000Y-78105000D01*
X146685000Y-78740000D02*
X152400000Y-78740000D01*
X202565000Y-92075000D02*
X202565000Y-94615000D01*
X202565000Y-94615000D02*
X203835000Y-95885000D01*
X203835000Y-95885000D02*
X207645000Y-95885000D01*
X201295000Y-90170000D02*
X213360000Y-90170000D01*
X163195000Y-87630000D02*
X164465000Y-87630000D01*
X175260000Y-73660000D02*
X177165000Y-71755000D01*
X175260000Y-85090000D02*
X175260000Y-73660000D01*
X174625000Y-85725000D02*
X175260000Y-85090000D01*
X166370000Y-85725000D02*
X174625000Y-85725000D01*
X164465000Y-87630000D02*
X166370000Y-85725000D01*
X192405000Y-92075000D02*
X192405000Y-91440000D01*
X192405000Y-91440000D02*
X193675000Y-90170000D01*
X193675000Y-90170000D02*
X201295000Y-90170000D01*
X139065000Y-101600000D02*
X144145000Y-101600000D01*
X138430000Y-102235000D02*
X139065000Y-101600000D01*
X144145000Y-101600000D02*
X145415000Y-100330000D01*
X145415000Y-100330000D02*
X147955000Y-100330000D01*
X121285000Y-127635000D02*
X121920000Y-127635000D01*
X121920000Y-127635000D02*
X125095000Y-130810000D01*
X121285000Y-127635000D02*
X118745000Y-127635000D01*
X118745000Y-127635000D02*
X117475000Y-128905000D01*
X170815000Y-137795000D02*
X170815000Y-137160000D01*
X170815000Y-137160000D02*
X172085000Y-135890000D01*
X214630000Y-118745000D02*
X214630000Y-114300000D01*
X214630000Y-133985000D02*
X214630000Y-123190000D01*
X214630000Y-123190000D02*
X214630000Y-118745000D01*
X172085000Y-135890000D02*
X177165000Y-135890000D01*
X117475000Y-106045000D02*
X117475000Y-105410000D01*
X117475000Y-127635000D02*
X117475000Y-114935000D01*
X117475000Y-114935000D02*
X117475000Y-106045000D01*
X117475000Y-128905000D02*
X117475000Y-127635000D01*
X117475000Y-105410000D02*
X117475000Y-104140000D01*
X117475000Y-95885000D02*
X117475000Y-83820000D01*
X117475000Y-104140000D02*
X117475000Y-97155000D01*
X117475000Y-97155000D02*
X117475000Y-95885000D01*
X171450000Y-60325000D02*
X175895000Y-60325000D01*
X175895000Y-60325000D02*
X175895000Y-59690000D01*
X171450000Y-55245000D02*
X175895000Y-55245000D01*
X171450000Y-50165000D02*
X175895000Y-50165000D01*
X146685000Y-57150000D02*
X148590000Y-57150000D01*
X151130000Y-49530000D02*
X154305000Y-49530000D01*
X149860000Y-50800000D02*
X151130000Y-49530000D01*
X149860000Y-55880000D02*
X149860000Y-50800000D01*
X148590000Y-57150000D02*
X149860000Y-55880000D01*
X175895000Y-44450000D02*
X176530000Y-44450000D01*
X176530000Y-44450000D02*
X177800000Y-43180000D01*
X117475000Y-133350000D02*
X117475000Y-128905000D01*
X211455000Y-114300000D02*
X214630000Y-114300000D01*
X144145000Y-76835000D02*
X144145000Y-73025000D01*
X178435000Y-60960000D02*
X175895000Y-60960000D01*
X178435000Y-54610000D02*
X175895000Y-54610000D01*
X211455000Y-95885000D02*
X214630000Y-95885000D01*
X214630000Y-114300000D02*
X214630000Y-95885000D01*
X214630000Y-95885000D02*
X214630000Y-91440000D01*
X214630000Y-91440000D02*
X214630000Y-82550000D01*
X214630000Y-82550000D02*
X214630000Y-71755000D01*
X211455000Y-71755000D02*
X214630000Y-71755000D01*
X196850000Y-68580000D02*
X196850000Y-69215000D01*
X196850000Y-69215000D02*
X196850000Y-70485000D01*
X196850000Y-70485000D02*
X195580000Y-71755000D01*
X207645000Y-71755000D02*
X211455000Y-71755000D01*
X197485000Y-68580000D02*
X213360000Y-68580000D01*
X196850000Y-68580000D02*
X197485000Y-68580000D01*
X213360000Y-68580000D02*
X214630000Y-69850000D01*
X214630000Y-69850000D02*
X214630000Y-71755000D01*
X195580000Y-71755000D02*
X192405000Y-71755000D01*
X182245000Y-68580000D02*
X195580000Y-68580000D01*
X195580000Y-68580000D02*
X196850000Y-68580000D01*
X180975000Y-71755000D02*
X182245000Y-70485000D01*
X175895000Y-44450000D02*
X175895000Y-50165000D01*
X175895000Y-50165000D02*
X175895000Y-54610000D01*
X175895000Y-54610000D02*
X175895000Y-55245000D01*
X175895000Y-55245000D02*
X175895000Y-59690000D01*
X175895000Y-59690000D02*
X175895000Y-60960000D01*
X175895000Y-60960000D02*
X175895000Y-67310000D01*
X175895000Y-67310000D02*
X177165000Y-68580000D01*
X177165000Y-68580000D02*
X179705000Y-68580000D01*
X177800000Y-43180000D02*
X184785000Y-43180000D01*
X182245000Y-68580000D02*
X179705000Y-68580000D01*
X182245000Y-70485000D02*
X182245000Y-68580000D01*
X177165000Y-71755000D02*
X180975000Y-71755000D01*
X207645000Y-95885000D02*
X211455000Y-95885000D01*
X184785000Y-95885000D02*
X188595000Y-95885000D01*
G04 #@! TO.N,Net-(D1-Pad2)*
X190500000Y-44450000D02*
X190500000Y-48260000D01*
X189865000Y-53340000D02*
X188595000Y-54610000D01*
X189865000Y-48895000D02*
X189865000Y-53340000D01*
X190500000Y-48260000D02*
X189865000Y-48895000D01*
G04 #@! TO.N,Net-(J1-Pad2)*
X142875000Y-78105000D02*
X143510000Y-78740000D01*
X138430000Y-78105000D02*
X142875000Y-78105000D01*
X145415000Y-78740000D02*
X144145000Y-78740000D01*
X143510000Y-78740000D02*
X144145000Y-78740000D01*
X120650000Y-78740000D02*
X120650000Y-80010000D01*
X121285000Y-78105000D02*
X120650000Y-78740000D01*
X125730000Y-78105000D02*
X121285000Y-78105000D01*
X120650000Y-80010000D02*
X120650000Y-80645000D01*
X120650000Y-82550000D02*
X120650000Y-80645000D01*
G04 #@! TO.N,TX*
X167640000Y-51435000D02*
X169545000Y-53340000D01*
X142240000Y-43815000D02*
X142875000Y-43180000D01*
X142875000Y-43180000D02*
X142875000Y-42545000D01*
X142875000Y-42545000D02*
X144145000Y-41275000D01*
X144145000Y-41275000D02*
X154305000Y-41275000D01*
X154305000Y-41275000D02*
X155575000Y-42545000D01*
X155575000Y-42545000D02*
X155575000Y-43180000D01*
X155575000Y-43180000D02*
X156210000Y-43815000D01*
X156210000Y-43815000D02*
X159385000Y-43815000D01*
X128270000Y-43815000D02*
X139700000Y-43815000D01*
X119380000Y-63500000D02*
X119380000Y-52705000D01*
X119380000Y-77470000D02*
X119380000Y-63500000D01*
X119380000Y-88265000D02*
X119380000Y-123190000D01*
X127635000Y-125095000D02*
X127000000Y-124460000D01*
X127000000Y-124460000D02*
X120650000Y-124460000D01*
X120650000Y-124460000D02*
X119380000Y-123190000D01*
X127635000Y-137795000D02*
X127635000Y-133985000D01*
X127635000Y-133985000D02*
X127635000Y-129540000D01*
X119380000Y-88265000D02*
X119380000Y-79375000D01*
X167640000Y-51435000D02*
X162560000Y-46355000D01*
X119380000Y-52705000D02*
X125095000Y-46990000D01*
X139700000Y-43815000D02*
X142240000Y-43815000D01*
X169545000Y-60960000D02*
X170180000Y-61595000D01*
X169545000Y-53340000D02*
X169545000Y-60960000D01*
G04 #@! TO.N,RX*
X165735000Y-52070000D02*
X168910000Y-55245000D01*
X154305000Y-44450000D02*
X154305000Y-43815000D01*
X154305000Y-43815000D02*
X153035000Y-42545000D01*
X153035000Y-42545000D02*
X145415000Y-42545000D01*
X145415000Y-42545000D02*
X144145000Y-43815000D01*
X144145000Y-43815000D02*
X144145000Y-44450000D01*
X144145000Y-44450000D02*
X143510000Y-45085000D01*
X143510000Y-45085000D02*
X139700000Y-45085000D01*
X118745000Y-63500000D02*
X118745000Y-52070000D01*
X118745000Y-78105000D02*
X118745000Y-63500000D01*
X118745000Y-94615000D02*
X118745000Y-123825000D01*
X127000000Y-132715000D02*
X127000000Y-129540000D01*
X127000000Y-129540000D02*
X127000000Y-128905000D01*
X127000000Y-127635000D02*
X126365000Y-127000000D01*
X126365000Y-127000000D02*
X123825000Y-127000000D01*
X123825000Y-127000000D02*
X121920000Y-125095000D01*
X121920000Y-125095000D02*
X120015000Y-125095000D01*
X120015000Y-125095000D02*
X118745000Y-123825000D01*
X125095000Y-137795000D02*
X125095000Y-134620000D01*
X125095000Y-134620000D02*
X125730000Y-133985000D01*
X125730000Y-133985000D02*
X127000000Y-132715000D01*
X118745000Y-94615000D02*
X118745000Y-80010000D01*
X165735000Y-52070000D02*
X161290000Y-47625000D01*
X154940000Y-45085000D02*
X158115000Y-45085000D01*
X125730000Y-45085000D02*
X139700000Y-45085000D01*
X118745000Y-52070000D02*
X123190000Y-47625000D01*
X154940000Y-45085000D02*
X154305000Y-44450000D01*
X168910000Y-55245000D02*
X168910000Y-61595000D01*
X179705000Y-66675000D02*
X176530000Y-66675000D01*
X180975000Y-65405000D02*
X179705000Y-66675000D01*
G04 #@! TO.N,KBD_READY*
X170815000Y-69850000D02*
X180340000Y-69850000D01*
X167640000Y-69850000D02*
X167005000Y-70485000D01*
X164465000Y-81280000D02*
X167005000Y-78740000D01*
X167005000Y-78740000D02*
X167005000Y-70485000D01*
X142875000Y-81915000D02*
X143510000Y-81280000D01*
X140335000Y-84455000D02*
X141605000Y-83185000D01*
X141605000Y-83185000D02*
X142875000Y-81915000D01*
X143510000Y-81280000D02*
X149860000Y-81280000D01*
X149860000Y-81280000D02*
X164465000Y-81280000D01*
X170815000Y-69850000D02*
X167640000Y-69850000D01*
X188595000Y-66675000D02*
X188595000Y-65405000D01*
X187325000Y-67945000D02*
X188595000Y-66675000D01*
X182245000Y-67945000D02*
X187325000Y-67945000D01*
X180340000Y-69850000D02*
X180975000Y-69215000D01*
X140335000Y-85090000D02*
X140335000Y-84455000D01*
G04 #@! TO.N,KBD_STROBE*
X170815000Y-69215000D02*
X179705000Y-69215000D01*
X166370000Y-71755000D02*
X166370000Y-69850000D01*
X166370000Y-69850000D02*
X167005000Y-69215000D01*
X167005000Y-69215000D02*
X170815000Y-69215000D01*
X163830000Y-80645000D02*
X166370000Y-78105000D01*
X140970000Y-82550000D02*
X142875000Y-80645000D01*
X142875000Y-80645000D02*
X149860000Y-80645000D01*
X149860000Y-80645000D02*
X163830000Y-80645000D01*
X166370000Y-78105000D02*
X166370000Y-71755000D01*
X192405000Y-63500000D02*
X193675000Y-64770000D01*
X188595000Y-63500000D02*
X192405000Y-63500000D01*
X187325000Y-64770000D02*
X188595000Y-63500000D01*
X187325000Y-66675000D02*
X187325000Y-64770000D01*
X186690000Y-67310000D02*
X187325000Y-66675000D01*
X181610000Y-67310000D02*
X186690000Y-67310000D01*
X180975000Y-67945000D02*
X181610000Y-67310000D01*
X193675000Y-64770000D02*
X193675000Y-65405000D01*
X140335000Y-82550000D02*
X140970000Y-82550000D01*
G04 #@! TO.N,OUT_RDA*
X170815000Y-68580000D02*
X175895000Y-68580000D01*
X165735000Y-69850000D02*
X165735000Y-69215000D01*
X165735000Y-69215000D02*
X166370000Y-68580000D01*
X166370000Y-68580000D02*
X170815000Y-68580000D01*
X165735000Y-71755000D02*
X165735000Y-77470000D01*
X163195000Y-80010000D02*
X165735000Y-77470000D01*
X140335000Y-80645000D02*
X140970000Y-80010000D01*
X137160000Y-97790000D02*
X137160000Y-83820000D01*
X133985000Y-102870000D02*
X133985000Y-100965000D01*
X128270000Y-125730000D02*
X129540000Y-124460000D01*
X129540000Y-124460000D02*
X129540000Y-118745000D01*
X125095000Y-125730000D02*
X128270000Y-125730000D01*
X132715000Y-107950000D02*
X132715000Y-106045000D01*
X132080000Y-108585000D02*
X132715000Y-107950000D01*
X129540000Y-118110000D02*
X130175000Y-117475000D01*
X130175000Y-117475000D02*
X130175000Y-116205000D01*
X130175000Y-116205000D02*
X130810000Y-115570000D01*
X130810000Y-115570000D02*
X130810000Y-113665000D01*
X130810000Y-113665000D02*
X131445000Y-113030000D01*
X131445000Y-113030000D02*
X131445000Y-111125000D01*
X131445000Y-111125000D02*
X132080000Y-110490000D01*
X132080000Y-110490000D02*
X132080000Y-108585000D01*
X129540000Y-118745000D02*
X129540000Y-118110000D01*
X133350000Y-105410000D02*
X133350000Y-103505000D01*
X133350000Y-103505000D02*
X133985000Y-102870000D01*
X132715000Y-106045000D02*
X133350000Y-105410000D01*
X133985000Y-100965000D02*
X135890000Y-99060000D01*
X135890000Y-99060000D02*
X137160000Y-97790000D01*
X137160000Y-83820000D02*
X140335000Y-80645000D01*
X140970000Y-80010000D02*
X149860000Y-80010000D01*
X149860000Y-80010000D02*
X163195000Y-80010000D01*
X165735000Y-71755000D02*
X165735000Y-69850000D01*
X196215000Y-64135000D02*
X196215000Y-65405000D01*
X194945000Y-62865000D02*
X196215000Y-64135000D01*
X186055000Y-62865000D02*
X194945000Y-62865000D01*
X184785000Y-64135000D02*
X186055000Y-62865000D01*
X184785000Y-66040000D02*
X184785000Y-64135000D01*
X184150000Y-66675000D02*
X184785000Y-66040000D01*
X181610000Y-66675000D02*
X184150000Y-66675000D01*
X180975000Y-66675000D02*
X181610000Y-66675000D01*
X179705000Y-67945000D02*
X180975000Y-66675000D01*
X177800000Y-67945000D02*
X179705000Y-67945000D01*
G04 #@! TO.N,P_RESET*
X163830000Y-52070000D02*
X163830000Y-57785000D01*
X158115000Y-64135000D02*
X149860000Y-64135000D01*
X149225000Y-64770000D02*
X149860000Y-64135000D01*
X158750000Y-63500000D02*
X158115000Y-64135000D01*
X160020000Y-59055000D02*
X160655000Y-58420000D01*
X160020000Y-61595000D02*
X160020000Y-59055000D01*
X162560000Y-58420000D02*
X160655000Y-58420000D01*
X167640000Y-48260000D02*
X167005000Y-48895000D01*
X168910000Y-48260000D02*
X167640000Y-48260000D01*
X170180000Y-48260000D02*
X168910000Y-48260000D01*
X174625000Y-48260000D02*
X170180000Y-48260000D01*
X182245000Y-48260000D02*
X177165000Y-48260000D01*
X182245000Y-48260000D02*
X183515000Y-49530000D01*
X163195000Y-58420000D02*
X162560000Y-58420000D01*
X163830000Y-57785000D02*
X163195000Y-58420000D01*
X183515000Y-50165000D02*
X183515000Y-49530000D01*
X149225000Y-64770000D02*
X149225000Y-65405000D01*
G04 #@! TO.N,Net-(J2-Pad13)*
X167640000Y-64135000D02*
X165100000Y-64135000D01*
X167640000Y-64135000D02*
X175260000Y-64135000D01*
X176530000Y-63500000D02*
X183515000Y-63500000D01*
X183515000Y-63500000D02*
X186055000Y-60960000D01*
X188595000Y-60960000D02*
X186055000Y-60960000D01*
X158750000Y-66040000D02*
X159385000Y-65405000D01*
X158115000Y-66675000D02*
X154940000Y-69850000D01*
X158115000Y-66675000D02*
X158750000Y-66040000D01*
X150495000Y-69850000D02*
X149225000Y-71120000D01*
X154940000Y-69850000D02*
X150495000Y-69850000D01*
X149225000Y-71120000D02*
X149225000Y-73025000D01*
X188595000Y-60960000D02*
X207010000Y-60960000D01*
X208915000Y-62230000D02*
X208915000Y-65405000D01*
X207645000Y-60960000D02*
X208915000Y-62230000D01*
X207010000Y-60960000D02*
X207645000Y-60960000D01*
G04 #@! TO.N,Net-(J2-Pad14)*
X180975000Y-57150000D02*
X209550000Y-57150000D01*
X177800000Y-57150000D02*
X180975000Y-57150000D01*
X163830000Y-62865000D02*
X173990000Y-62865000D01*
X154305000Y-73025000D02*
X160020000Y-67310000D01*
X160020000Y-67310000D02*
X160655000Y-66675000D01*
X173990000Y-62865000D02*
X174625000Y-62230000D01*
X177165000Y-57785000D02*
X177800000Y-57150000D01*
X211455000Y-59690000D02*
X211455000Y-65405000D01*
G04 #@! TO.N,Net-(J2-Pad15)*
X180975000Y-58420000D02*
X212725000Y-58420000D01*
X174625000Y-63500000D02*
X175260000Y-62865000D01*
X177165000Y-59055000D02*
X177800000Y-58420000D01*
X177800000Y-58420000D02*
X180975000Y-58420000D01*
X160655000Y-67945000D02*
X161290000Y-67310000D01*
X156845000Y-71755000D02*
X160655000Y-67945000D01*
X156845000Y-73025000D02*
X156845000Y-71755000D01*
X163195000Y-63500000D02*
X174625000Y-63500000D01*
X213995000Y-59690000D02*
X213995000Y-65405000D01*
X212725000Y-58420000D02*
X213995000Y-59690000D01*
G04 #@! TO.N,Net-(J2-Pad16)*
X180975000Y-55880000D02*
X212725000Y-55880000D01*
X177800000Y-55880000D02*
X180975000Y-55880000D01*
X163195000Y-62230000D02*
X173355000Y-62230000D01*
X151765000Y-73025000D02*
X151765000Y-71755000D01*
X153035000Y-70485000D02*
X155575000Y-70485000D01*
X151765000Y-71755000D02*
X153035000Y-70485000D01*
X155575000Y-70485000D02*
X159385000Y-66675000D01*
X159385000Y-66675000D02*
X160020000Y-66040000D01*
X173355000Y-62230000D02*
X173990000Y-61595000D01*
X177165000Y-56515000D02*
X177800000Y-55880000D01*
X213995000Y-54610000D02*
X213995000Y-50165000D01*
X212725000Y-55880000D02*
X213995000Y-54610000D01*
G04 #@! TO.N,A15*
X169545000Y-132715000D02*
X169545000Y-133350000D01*
X169545000Y-133350000D02*
X171450000Y-135255000D01*
X167640000Y-132715000D02*
X169545000Y-132715000D01*
X166370000Y-131445000D02*
X167640000Y-132715000D01*
X210185000Y-135255000D02*
X208280000Y-135255000D01*
X213995000Y-136525000D02*
X212725000Y-135255000D01*
X212725000Y-135255000D02*
X210185000Y-135255000D01*
X213995000Y-136525000D02*
X213995000Y-137795000D01*
X171450000Y-135255000D02*
X179070000Y-135255000D01*
X169545000Y-84455000D02*
X166370000Y-84455000D01*
X160655000Y-120650000D02*
X160020000Y-120015000D01*
X160655000Y-120650000D02*
X163195000Y-120650000D01*
X160020000Y-88265000D02*
X160020000Y-91440000D01*
X164465000Y-86360000D02*
X161925000Y-86360000D01*
X166370000Y-84455000D02*
X164465000Y-86360000D01*
G04 #@! TO.N,A14*
X203200000Y-128905000D02*
X203200000Y-131445000D01*
X195580000Y-95250000D02*
X194945000Y-95250000D01*
X203200000Y-101600000D02*
X198120000Y-96520000D01*
X196850000Y-95250000D02*
X195580000Y-95250000D01*
X206375000Y-134620000D02*
X207645000Y-135890000D01*
X211455000Y-137160000D02*
X210185000Y-135890000D01*
X207645000Y-135890000D02*
X210185000Y-135890000D01*
X203200000Y-118745000D02*
X203200000Y-114935000D01*
X203200000Y-102870000D02*
X203200000Y-101600000D01*
X193675000Y-93980000D02*
X182880000Y-93980000D01*
X194945000Y-95250000D02*
X193675000Y-93980000D01*
X182880000Y-93980000D02*
X171450000Y-93980000D01*
X203200000Y-131445000D02*
X206375000Y-134620000D01*
X165100000Y-123190000D02*
X165735000Y-123190000D01*
X166370000Y-122555000D02*
X166370000Y-121920000D01*
X165735000Y-123190000D02*
X166370000Y-122555000D01*
X169545000Y-76835000D02*
X170815000Y-76835000D01*
X170815000Y-76835000D02*
X171450000Y-77470000D01*
X171450000Y-77470000D02*
X171450000Y-82550000D01*
X171450000Y-93980000D02*
X169545000Y-95885000D01*
X163195000Y-123190000D02*
X165100000Y-123190000D01*
X211455000Y-137160000D02*
X211455000Y-137795000D01*
G04 #@! TO.N,A13*
X202565000Y-129540000D02*
X202565000Y-132080000D01*
X208915000Y-137160000D02*
X208280000Y-136525000D01*
X208280000Y-136525000D02*
X207010000Y-136525000D01*
X207010000Y-136525000D02*
X205740000Y-135255000D01*
X202565000Y-115570000D02*
X202565000Y-119380000D01*
X187325000Y-98425000D02*
X190500000Y-98425000D01*
X190500000Y-98425000D02*
X191770000Y-99695000D01*
X191770000Y-99695000D02*
X197485000Y-99695000D01*
X197485000Y-99695000D02*
X198755000Y-100965000D01*
X202565000Y-132080000D02*
X205740000Y-135255000D01*
X165735000Y-125730000D02*
X166370000Y-125730000D01*
X167005000Y-125095000D02*
X167005000Y-124460000D01*
X166370000Y-125730000D02*
X167005000Y-125095000D01*
X183515000Y-100965000D02*
X182245000Y-102235000D01*
X182245000Y-102235000D02*
X173990000Y-102235000D01*
X184785000Y-100965000D02*
X183515000Y-100965000D01*
X169545000Y-74295000D02*
X170815000Y-74295000D01*
X172085000Y-75565000D02*
X172085000Y-81915000D01*
X170815000Y-74295000D02*
X172085000Y-75565000D01*
X170815000Y-97155000D02*
X168275000Y-97155000D01*
X167005000Y-124460000D02*
X167005000Y-122555000D01*
X168275000Y-97155000D02*
X167640000Y-97155000D01*
X165735000Y-125730000D02*
X163195000Y-125730000D01*
X208915000Y-137795000D02*
X208915000Y-137160000D01*
G04 #@! TO.N,A12*
X206375000Y-137795000D02*
X206375000Y-137160000D01*
X206375000Y-137160000D02*
X205740000Y-136525000D01*
X201930000Y-128905000D02*
X201930000Y-132715000D01*
X192405000Y-98425000D02*
X197485000Y-98425000D01*
X197485000Y-98425000D02*
X201930000Y-102870000D01*
X201930000Y-114935000D02*
X201930000Y-118745000D01*
X201930000Y-132715000D02*
X205740000Y-136525000D01*
X166370000Y-128270000D02*
X167005000Y-128270000D01*
X167640000Y-127635000D02*
X167640000Y-127000000D01*
X167005000Y-128270000D02*
X167640000Y-127635000D01*
X171450000Y-71755000D02*
X172720000Y-73025000D01*
X172720000Y-73025000D02*
X172720000Y-82550000D01*
X169545000Y-71755000D02*
X171450000Y-71755000D01*
X192405000Y-98425000D02*
X191770000Y-98425000D01*
X191770000Y-98425000D02*
X190500000Y-97155000D01*
X182245000Y-98425000D02*
X172085000Y-98425000D01*
X172085000Y-98425000D02*
X169545000Y-98425000D01*
X183515000Y-97155000D02*
X182245000Y-98425000D01*
X190500000Y-97155000D02*
X183515000Y-97155000D01*
X163195000Y-128270000D02*
X166370000Y-128270000D01*
X167640000Y-127000000D02*
X167640000Y-123190000D01*
G04 #@! TO.N,A11*
X201295000Y-129540000D02*
X201295000Y-133350000D01*
X201295000Y-109855000D02*
X201295000Y-113030000D01*
X201295000Y-115570000D02*
X201295000Y-119380000D01*
X203835000Y-136525000D02*
X203835000Y-135890000D01*
X203835000Y-136525000D02*
X203835000Y-137795000D01*
X201295000Y-133350000D02*
X203835000Y-135890000D01*
X167005000Y-130810000D02*
X165735000Y-130810000D01*
X165735000Y-130810000D02*
X164465000Y-132080000D01*
X174625000Y-129540000D02*
X173355000Y-130810000D01*
X147955000Y-130810000D02*
X149225000Y-130810000D01*
X183515000Y-108585000D02*
X184785000Y-108585000D01*
X181610000Y-109855000D02*
X180975000Y-110490000D01*
X182245000Y-109855000D02*
X181610000Y-109855000D01*
X183515000Y-108585000D02*
X182245000Y-109855000D01*
X160655000Y-130810000D02*
X161925000Y-132080000D01*
X149225000Y-130810000D02*
X160655000Y-130810000D01*
X164465000Y-132080000D02*
X161925000Y-132080000D01*
X173355000Y-130810000D02*
X167005000Y-130810000D01*
X184785000Y-108585000D02*
X189865000Y-108585000D01*
X191135000Y-109855000D02*
X195580000Y-109855000D01*
X189865000Y-108585000D02*
X191135000Y-109855000D01*
X207645000Y-108585000D02*
X202565000Y-108585000D01*
X202565000Y-108585000D02*
X201295000Y-109855000D01*
G04 #@! TO.N,A10*
X200660000Y-128905000D02*
X200660000Y-133985000D01*
X201295000Y-137795000D02*
X201295000Y-135890000D01*
X200660000Y-118745000D02*
X200660000Y-114935000D01*
X201295000Y-135890000D02*
X201295000Y-134620000D01*
X200660000Y-133985000D02*
X201295000Y-134620000D01*
X147955000Y-128270000D02*
X160655000Y-128270000D01*
X168275000Y-130175000D02*
X172720000Y-130175000D01*
X167640000Y-129540000D02*
X168275000Y-130175000D01*
X161925000Y-129540000D02*
X167640000Y-129540000D01*
X160655000Y-128270000D02*
X161925000Y-129540000D01*
X184785000Y-113665000D02*
X183515000Y-113665000D01*
X183515000Y-113665000D02*
X182245000Y-114935000D01*
X182245000Y-114935000D02*
X181610000Y-115570000D01*
X184785000Y-113665000D02*
X189865000Y-113665000D01*
X191135000Y-114935000D02*
X189865000Y-113665000D01*
X194310000Y-114935000D02*
X191135000Y-114935000D01*
X207645000Y-113665000D02*
X201930000Y-113665000D01*
X201930000Y-113665000D02*
X200660000Y-114935000D01*
G04 #@! TO.N,A9*
X200025000Y-129540000D02*
X200025000Y-136525000D01*
X198755000Y-137795000D02*
X200025000Y-136525000D01*
X200025000Y-119380000D02*
X200025000Y-107315000D01*
X183515000Y-106045000D02*
X184785000Y-106045000D01*
X180975000Y-107315000D02*
X180340000Y-107950000D01*
X182245000Y-107315000D02*
X180975000Y-107315000D01*
X183515000Y-106045000D02*
X182245000Y-107315000D01*
X160655000Y-125730000D02*
X161925000Y-127000000D01*
X161925000Y-127000000D02*
X167005000Y-127000000D01*
X160655000Y-125730000D02*
X147955000Y-125730000D01*
X184785000Y-106045000D02*
X189865000Y-106045000D01*
X189865000Y-106045000D02*
X191135000Y-107315000D01*
X191135000Y-107315000D02*
X196215000Y-107315000D01*
X207645000Y-106045000D02*
X201930000Y-106045000D01*
X201295000Y-106045000D02*
X200025000Y-107315000D01*
X201930000Y-106045000D02*
X201295000Y-106045000D01*
G04 #@! TO.N,A8*
X199390000Y-128905000D02*
X199390000Y-135255000D01*
X198120000Y-136525000D02*
X197485000Y-136525000D01*
X199390000Y-135255000D02*
X198120000Y-136525000D01*
X196215000Y-137795000D02*
X197485000Y-136525000D01*
X199390000Y-118745000D02*
X199390000Y-104775000D01*
X183515000Y-103505000D02*
X184785000Y-103505000D01*
X180340000Y-104775000D02*
X179705000Y-105410000D01*
X182245000Y-104775000D02*
X180340000Y-104775000D01*
X183515000Y-103505000D02*
X182245000Y-104775000D01*
X160655000Y-123190000D02*
X161925000Y-124460000D01*
X160655000Y-123190000D02*
X147955000Y-123190000D01*
X166370000Y-124460000D02*
X161925000Y-124460000D01*
X184785000Y-103505000D02*
X189865000Y-103505000D01*
X189865000Y-103505000D02*
X191135000Y-104775000D01*
X191135000Y-104775000D02*
X196850000Y-104775000D01*
X200660000Y-103505000D02*
X199390000Y-104775000D01*
X207645000Y-103505000D02*
X200660000Y-103505000D01*
G04 #@! TO.N,A7*
X193675000Y-137795000D02*
X193675000Y-136525000D01*
X197485000Y-100965000D02*
X192405000Y-100965000D01*
X198755000Y-102235000D02*
X197485000Y-100965000D01*
X198755000Y-119380000D02*
X198755000Y-102235000D01*
X194945000Y-135255000D02*
X197485000Y-135255000D01*
X193675000Y-136525000D02*
X194945000Y-135255000D01*
X198120000Y-135255000D02*
X197485000Y-135255000D01*
X198755000Y-134620000D02*
X198120000Y-135255000D01*
X198755000Y-129540000D02*
X198755000Y-134620000D01*
X192405000Y-100965000D02*
X191770000Y-100965000D01*
X191770000Y-100965000D02*
X190500000Y-99695000D01*
X172085000Y-100965000D02*
X180340000Y-100965000D01*
X182245000Y-100965000D02*
X180340000Y-100965000D01*
X183515000Y-99695000D02*
X182245000Y-100965000D01*
X190500000Y-99695000D02*
X183515000Y-99695000D01*
X161925000Y-101600000D02*
X155575000Y-101600000D01*
X168275000Y-100965000D02*
X167640000Y-101600000D01*
X167640000Y-101600000D02*
X161925000Y-101600000D01*
X169545000Y-100965000D02*
X168275000Y-100965000D01*
X153670000Y-120650000D02*
X147955000Y-120650000D01*
X154305000Y-120015000D02*
X153670000Y-120650000D01*
X155575000Y-101600000D02*
X154940000Y-102235000D01*
G04 #@! TO.N,A6*
X191135000Y-136525000D02*
X191770000Y-135890000D01*
X191770000Y-135890000D02*
X193040000Y-135890000D01*
X193040000Y-135890000D02*
X194310000Y-134620000D01*
X192405000Y-103505000D02*
X196850000Y-103505000D01*
X198120000Y-104775000D02*
X196850000Y-103505000D01*
X198120000Y-118745000D02*
X198120000Y-104775000D01*
X191135000Y-136525000D02*
X191135000Y-137795000D01*
X197485000Y-134620000D02*
X194310000Y-134620000D01*
X198120000Y-133985000D02*
X197485000Y-134620000D01*
X198120000Y-128905000D02*
X198120000Y-133985000D01*
X161925000Y-104140000D02*
X154940000Y-104140000D01*
X168275000Y-103505000D02*
X167640000Y-104140000D01*
X167640000Y-104140000D02*
X161925000Y-104140000D01*
X169545000Y-103505000D02*
X168275000Y-103505000D01*
X150495000Y-120015000D02*
X148590000Y-118110000D01*
X153035000Y-120015000D02*
X150495000Y-120015000D01*
X154940000Y-104140000D02*
X154305000Y-104775000D01*
X148590000Y-118110000D02*
X147955000Y-118110000D01*
X191135000Y-103505000D02*
X192405000Y-103505000D01*
X189865000Y-102235000D02*
X191135000Y-103505000D01*
X183515000Y-102235000D02*
X189865000Y-102235000D01*
X182245000Y-103505000D02*
X183515000Y-102235000D01*
X172720000Y-103505000D02*
X182245000Y-103505000D01*
G04 #@! TO.N,A5*
X193675000Y-133985000D02*
X196850000Y-133985000D01*
X196215000Y-106045000D02*
X197485000Y-107315000D01*
X197485000Y-107315000D02*
X197485000Y-119380000D01*
X192405000Y-106045000D02*
X196215000Y-106045000D01*
X189230000Y-136525000D02*
X188595000Y-137160000D01*
X193675000Y-133985000D02*
X192405000Y-135255000D01*
X191135000Y-135255000D02*
X189865000Y-136525000D01*
X192405000Y-135255000D02*
X191135000Y-135255000D01*
X189865000Y-136525000D02*
X189230000Y-136525000D01*
X197485000Y-133350000D02*
X197485000Y-129540000D01*
X196850000Y-133985000D02*
X197485000Y-133350000D01*
X188595000Y-137160000D02*
X188595000Y-137795000D01*
X147955000Y-115570000D02*
X148590000Y-115570000D01*
X148590000Y-115570000D02*
X150495000Y-117475000D01*
X150495000Y-117475000D02*
X151130000Y-117475000D01*
X153670000Y-107315000D02*
X154305000Y-106680000D01*
X154305000Y-106680000D02*
X161925000Y-106680000D01*
X169545000Y-106045000D02*
X168275000Y-106045000D01*
X167640000Y-106680000D02*
X161925000Y-106680000D01*
X168275000Y-106045000D02*
X167640000Y-106680000D01*
X191135000Y-106045000D02*
X192405000Y-106045000D01*
X189865000Y-104775000D02*
X191135000Y-106045000D01*
X183515000Y-104775000D02*
X189865000Y-104775000D01*
X182245000Y-106045000D02*
X183515000Y-104775000D01*
X173355000Y-106045000D02*
X182245000Y-106045000D01*
G04 #@! TO.N,A4*
X146050000Y-122555000D02*
X146050000Y-126365000D01*
X146050000Y-129540000D02*
X146050000Y-126365000D01*
X145415000Y-130175000D02*
X146050000Y-129540000D01*
X144780000Y-130175000D02*
X145415000Y-130175000D01*
X193040000Y-133350000D02*
X196215000Y-133350000D01*
X195580000Y-108585000D02*
X196850000Y-109855000D01*
X196850000Y-109855000D02*
X196850000Y-118745000D01*
X192405000Y-108585000D02*
X195580000Y-108585000D01*
X191770000Y-134620000D02*
X193040000Y-133350000D01*
X190500000Y-134620000D02*
X191770000Y-134620000D01*
X189230000Y-135890000D02*
X190500000Y-134620000D01*
X188595000Y-135890000D02*
X189230000Y-135890000D01*
X187960000Y-136525000D02*
X188595000Y-135890000D01*
X186690000Y-136525000D02*
X187960000Y-136525000D01*
X186690000Y-136525000D02*
X186055000Y-137160000D01*
X196850000Y-132715000D02*
X196850000Y-128905000D01*
X196215000Y-133350000D02*
X196850000Y-132715000D01*
X186055000Y-137795000D02*
X186055000Y-137160000D01*
X147955000Y-113030000D02*
X148590000Y-113030000D01*
X148590000Y-113030000D02*
X150495000Y-114935000D01*
X150495000Y-114935000D02*
X151765000Y-114935000D01*
X153035000Y-109855000D02*
X153670000Y-109220000D01*
X153670000Y-109220000D02*
X161925000Y-109220000D01*
X169545000Y-108585000D02*
X168275000Y-108585000D01*
X167640000Y-109220000D02*
X161925000Y-109220000D01*
X168275000Y-108585000D02*
X167640000Y-109220000D01*
X191135000Y-108585000D02*
X192405000Y-108585000D01*
X189865000Y-107315000D02*
X191135000Y-108585000D01*
X183515000Y-107315000D02*
X189865000Y-107315000D01*
X182245000Y-108585000D02*
X183515000Y-107315000D01*
X173990000Y-108585000D02*
X182245000Y-108585000D01*
G04 #@! TO.N,A3*
X192405000Y-132715000D02*
X195580000Y-132715000D01*
X194945000Y-111125000D02*
X196215000Y-112395000D01*
X196215000Y-112395000D02*
X196215000Y-119380000D01*
X192405000Y-111125000D02*
X194945000Y-111125000D01*
X184150000Y-136525000D02*
X185420000Y-136525000D01*
X185420000Y-136525000D02*
X186055000Y-135890000D01*
X186055000Y-135890000D02*
X187325000Y-135890000D01*
X187325000Y-135890000D02*
X187960000Y-135255000D01*
X187960000Y-135255000D02*
X188595000Y-135255000D01*
X188595000Y-135255000D02*
X189865000Y-133985000D01*
X189865000Y-133985000D02*
X191135000Y-133985000D01*
X191135000Y-133985000D02*
X192405000Y-132715000D01*
X184150000Y-136525000D02*
X183515000Y-137160000D01*
X196215000Y-132080000D02*
X196215000Y-129540000D01*
X195580000Y-132715000D02*
X196215000Y-132080000D01*
X183515000Y-137795000D02*
X183515000Y-137160000D01*
X147955000Y-110490000D02*
X148590000Y-110490000D01*
X148590000Y-110490000D02*
X149860000Y-111760000D01*
X149860000Y-111760000D02*
X161925000Y-111760000D01*
X169545000Y-111125000D02*
X168275000Y-111125000D01*
X167640000Y-111760000D02*
X161925000Y-111760000D01*
X168275000Y-111125000D02*
X167640000Y-111760000D01*
X191135000Y-111125000D02*
X192405000Y-111125000D01*
X189865000Y-109855000D02*
X191135000Y-111125000D01*
X183515000Y-109855000D02*
X189865000Y-109855000D01*
X182245000Y-111125000D02*
X183515000Y-109855000D01*
X174625000Y-111125000D02*
X182245000Y-111125000D01*
G04 #@! TO.N,A2*
X191770000Y-132080000D02*
X194945000Y-132080000D01*
X195580000Y-118745000D02*
X195580000Y-114935000D01*
X195580000Y-114935000D02*
X194310000Y-113665000D01*
X192405000Y-113665000D02*
X194310000Y-113665000D01*
X190500000Y-133350000D02*
X191770000Y-132080000D01*
X189230000Y-133350000D02*
X190500000Y-133350000D01*
X187960000Y-134620000D02*
X189230000Y-133350000D01*
X187325000Y-134620000D02*
X187960000Y-134620000D01*
X186690000Y-135255000D02*
X187325000Y-134620000D01*
X185420000Y-135255000D02*
X186690000Y-135255000D01*
X184785000Y-135890000D02*
X185420000Y-135255000D01*
X183515000Y-135890000D02*
X184785000Y-135890000D01*
X182880000Y-136525000D02*
X183515000Y-135890000D01*
X181610000Y-136525000D02*
X182880000Y-136525000D01*
X181610000Y-136525000D02*
X180975000Y-137160000D01*
X195580000Y-131445000D02*
X195580000Y-128905000D01*
X194945000Y-132080000D02*
X195580000Y-131445000D01*
X180975000Y-137795000D02*
X180975000Y-137160000D01*
X147955000Y-107950000D02*
X148590000Y-107950000D01*
X148590000Y-107950000D02*
X149860000Y-109220000D01*
X149860000Y-109220000D02*
X151130000Y-109220000D01*
X151130000Y-109220000D02*
X151765000Y-109855000D01*
X151765000Y-113665000D02*
X152400000Y-114300000D01*
X152400000Y-114300000D02*
X161925000Y-114300000D01*
X169545000Y-113665000D02*
X168275000Y-113665000D01*
X167640000Y-114300000D02*
X161925000Y-114300000D01*
X168275000Y-113665000D02*
X167640000Y-114300000D01*
X191135000Y-113665000D02*
X192405000Y-113665000D01*
X189865000Y-112395000D02*
X191135000Y-113665000D01*
X183515000Y-112395000D02*
X189865000Y-112395000D01*
X182245000Y-113665000D02*
X183515000Y-112395000D01*
X175260000Y-113665000D02*
X182245000Y-113665000D01*
G04 #@! TO.N,A1*
X193675000Y-116205000D02*
X194945000Y-117475000D01*
X194945000Y-117475000D02*
X194945000Y-119380000D01*
X192405000Y-116205000D02*
X193675000Y-116205000D01*
X194310000Y-131445000D02*
X194945000Y-130810000D01*
X194945000Y-130810000D02*
X194945000Y-129540000D01*
X179070000Y-136525000D02*
X178435000Y-137160000D01*
X179070000Y-136525000D02*
X180340000Y-136525000D01*
X180340000Y-136525000D02*
X180975000Y-135890000D01*
X180975000Y-135890000D02*
X182245000Y-135890000D01*
X182245000Y-135890000D02*
X182880000Y-135255000D01*
X182880000Y-135255000D02*
X184150000Y-135255000D01*
X184150000Y-135255000D02*
X184785000Y-134620000D01*
X184785000Y-134620000D02*
X186055000Y-134620000D01*
X186055000Y-134620000D02*
X186690000Y-133985000D01*
X186690000Y-133985000D02*
X187325000Y-133985000D01*
X187325000Y-133985000D02*
X188595000Y-132715000D01*
X188595000Y-132715000D02*
X189865000Y-132715000D01*
X189865000Y-132715000D02*
X191135000Y-131445000D01*
X191135000Y-131445000D02*
X194310000Y-131445000D01*
X178435000Y-137795000D02*
X178435000Y-137160000D01*
X149860000Y-93980000D02*
X151130000Y-95250000D01*
X140335000Y-95250000D02*
X141605000Y-93980000D01*
X149860000Y-93980000D02*
X146685000Y-93980000D01*
X144780000Y-92075000D02*
X146685000Y-93980000D01*
X143510000Y-92075000D02*
X144780000Y-92075000D01*
X143510000Y-92075000D02*
X141605000Y-93980000D01*
X151130000Y-95250000D02*
X151130000Y-98425000D01*
X147955000Y-105410000D02*
X148590000Y-105410000D01*
X148590000Y-105410000D02*
X149860000Y-106680000D01*
X149860000Y-106680000D02*
X150495000Y-106680000D01*
X150495000Y-106680000D02*
X151130000Y-107315000D01*
X151130000Y-116205000D02*
X151765000Y-116840000D01*
X151765000Y-116840000D02*
X161925000Y-116840000D01*
X169545000Y-116205000D02*
X168275000Y-116205000D01*
X167640000Y-116840000D02*
X161925000Y-116840000D01*
X168275000Y-116205000D02*
X167640000Y-116840000D01*
X191135000Y-116205000D02*
X192405000Y-116205000D01*
X189865000Y-114935000D02*
X191135000Y-116205000D01*
X183515000Y-114935000D02*
X189865000Y-114935000D01*
X182245000Y-116205000D02*
X183515000Y-114935000D01*
X175895000Y-116205000D02*
X182245000Y-116205000D01*
G04 #@! TO.N,A0*
X189230000Y-132080000D02*
X190500000Y-130810000D01*
X187960000Y-132080000D02*
X189230000Y-132080000D01*
X186690000Y-133350000D02*
X187960000Y-132080000D01*
X186055000Y-133350000D02*
X186690000Y-133350000D01*
X185420000Y-133985000D02*
X186055000Y-133350000D01*
X184150000Y-133985000D02*
X185420000Y-133985000D01*
X183515000Y-134620000D02*
X184150000Y-133985000D01*
X182245000Y-134620000D02*
X183515000Y-134620000D01*
X181610000Y-135255000D02*
X182245000Y-134620000D01*
X180340000Y-135255000D02*
X181610000Y-135255000D01*
X179705000Y-135890000D02*
X180340000Y-135255000D01*
X178435000Y-135890000D02*
X179705000Y-135890000D01*
X177800000Y-136525000D02*
X178435000Y-135890000D01*
X176530000Y-136525000D02*
X177800000Y-136525000D01*
X175895000Y-137160000D02*
X176530000Y-136525000D01*
X193675000Y-130810000D02*
X190500000Y-130810000D01*
X175895000Y-137795000D02*
X175895000Y-137160000D01*
X178435000Y-117475000D02*
X189865000Y-117475000D01*
X150495000Y-97790000D02*
X150495000Y-95885000D01*
X150495000Y-93345000D02*
X150495000Y-92710000D01*
X140335000Y-92710000D02*
X141605000Y-91440000D01*
X141605000Y-91440000D02*
X146050000Y-91440000D01*
X149225000Y-91440000D02*
X146050000Y-91440000D01*
X150495000Y-92710000D02*
X149225000Y-91440000D01*
X151765000Y-119380000D02*
X161925000Y-119380000D01*
X168275000Y-118745000D02*
X169545000Y-118745000D01*
X167640000Y-119380000D02*
X161925000Y-119380000D01*
X168275000Y-118745000D02*
X167640000Y-119380000D01*
X191135000Y-118745000D02*
X192405000Y-118745000D01*
X189865000Y-117475000D02*
X191135000Y-118745000D01*
X177800000Y-118110000D02*
X178435000Y-117475000D01*
G04 #@! TO.N,PHI2*
X202565000Y-78105000D02*
X203200000Y-77470000D01*
X165735000Y-83185000D02*
X174625000Y-83185000D01*
X165735000Y-83185000D02*
X163830000Y-85090000D01*
X181610000Y-80645000D02*
X186055000Y-80645000D01*
X179070000Y-83185000D02*
X181610000Y-80645000D01*
X207645000Y-76835000D02*
X204470000Y-76835000D01*
X203835000Y-76835000D02*
X204470000Y-76835000D01*
X203200000Y-77470000D02*
X203835000Y-76835000D01*
X163195000Y-85090000D02*
X163830000Y-85090000D01*
X161290000Y-86360000D02*
X161290000Y-85725000D01*
X161290000Y-93345000D02*
X161290000Y-86360000D01*
X159385000Y-95250000D02*
X161290000Y-93345000D01*
X161925000Y-85090000D02*
X163195000Y-85090000D01*
X161290000Y-85725000D02*
X161925000Y-85090000D01*
X140335000Y-120650000D02*
X145415000Y-120650000D01*
X146685000Y-121920000D02*
X159385000Y-121920000D01*
X145415000Y-120650000D02*
X146685000Y-121920000D01*
X168275000Y-137795000D02*
X168275000Y-136525000D01*
X160655000Y-133350000D02*
X159385000Y-132080000D01*
X165100000Y-133350000D02*
X160655000Y-133350000D01*
X168275000Y-136525000D02*
X165100000Y-133350000D01*
G04 #@! TO.N,RESET*
X161290000Y-62865000D02*
X161290000Y-64770000D01*
X161290000Y-64770000D02*
X163195000Y-66675000D01*
X166370000Y-67310000D02*
X163830000Y-67310000D01*
X167640000Y-79375000D02*
X167640000Y-71120000D01*
X166370000Y-80645000D02*
X167640000Y-79375000D01*
X161290000Y-62865000D02*
X161290000Y-60325000D01*
X163830000Y-67310000D02*
X163195000Y-66675000D01*
X163195000Y-82550000D02*
X164465000Y-82550000D01*
X179070000Y-80645000D02*
X180340000Y-79375000D01*
X180340000Y-79375000D02*
X184785000Y-79375000D01*
X166370000Y-80645000D02*
X168275000Y-80645000D01*
X164465000Y-82550000D02*
X166370000Y-80645000D01*
X158750000Y-93980000D02*
X160655000Y-92075000D01*
X160655000Y-83820000D02*
X161925000Y-82550000D01*
X160655000Y-92075000D02*
X160655000Y-83820000D01*
X158750000Y-93980000D02*
X158115000Y-94615000D01*
X156210000Y-96520000D02*
X158115000Y-94615000D01*
X147320000Y-96520000D02*
X149225000Y-96520000D01*
X145415000Y-97790000D02*
X146050000Y-97790000D01*
X146050000Y-97790000D02*
X147320000Y-96520000D01*
X145415000Y-97790000D02*
X140335000Y-97790000D01*
X152400000Y-96520000D02*
X156210000Y-96520000D01*
X163195000Y-82550000D02*
X161925000Y-82550000D01*
X162560000Y-133985000D02*
X165735000Y-137160000D01*
X162560000Y-133985000D02*
X160020000Y-133985000D01*
X160020000Y-133985000D02*
X158750000Y-132715000D01*
X158750000Y-132715000D02*
X158750000Y-131445000D01*
X165735000Y-137795000D02*
X165735000Y-137160000D01*
G04 #@! TO.N,CLOCK*
X149225000Y-61595000D02*
X149225000Y-62865000D01*
X147955000Y-73660000D02*
X151130000Y-76835000D01*
X147955000Y-71755000D02*
X147955000Y-73660000D01*
X151130000Y-78105000D02*
X151130000Y-76835000D01*
X151130000Y-88900000D02*
X151130000Y-81915000D01*
X156845000Y-94615000D02*
X151130000Y-88900000D01*
X147955000Y-64135000D02*
X147955000Y-71755000D01*
X149225000Y-62865000D02*
X147955000Y-64135000D01*
X161925000Y-94615000D02*
X161925000Y-91440000D01*
X158115000Y-95885000D02*
X160655000Y-95885000D01*
X160655000Y-95885000D02*
X161925000Y-94615000D01*
X163195000Y-90170000D02*
X161925000Y-91440000D01*
X160655000Y-134620000D02*
X163195000Y-137160000D01*
X160655000Y-134620000D02*
X158115000Y-134620000D01*
X158115000Y-134620000D02*
X156845000Y-133350000D01*
X156845000Y-133350000D02*
X156845000Y-132080000D01*
X156845000Y-97155000D02*
X158115000Y-95885000D01*
X163195000Y-137795000D02*
X163195000Y-137160000D01*
G04 #@! TO.N,IRQ*
X137795000Y-114300000D02*
X138430000Y-114300000D01*
X138430000Y-114300000D02*
X144145000Y-114300000D01*
X160655000Y-136525000D02*
X159385000Y-135255000D01*
X160655000Y-136525000D02*
X160655000Y-137795000D01*
X138430000Y-93980000D02*
X138430000Y-90170000D01*
X138430000Y-99060000D02*
X138430000Y-93980000D01*
X137795000Y-99695000D02*
X138430000Y-99060000D01*
X146685000Y-90170000D02*
X147955000Y-90170000D01*
X145415000Y-88900000D02*
X146685000Y-90170000D01*
X139700000Y-88900000D02*
X145415000Y-88900000D01*
X138430000Y-90170000D02*
X139700000Y-88900000D01*
G04 #@! TO.N,RW*
X163195000Y-97790000D02*
X164465000Y-97790000D01*
X167640000Y-94615000D02*
X168910000Y-93345000D01*
X164465000Y-97790000D02*
X167640000Y-94615000D01*
X206375000Y-85725000D02*
X206375000Y-83185000D01*
X206375000Y-83185000D02*
X207645000Y-81915000D01*
X163195000Y-97790000D02*
X163830000Y-97790000D01*
X206375000Y-85725000D02*
X207645000Y-84455000D01*
X206375000Y-88265000D02*
X206375000Y-85725000D01*
X168910000Y-93345000D02*
X188595000Y-93345000D01*
X188595000Y-93345000D02*
X189865000Y-92075000D01*
X189865000Y-92075000D02*
X189865000Y-90170000D01*
X189865000Y-90170000D02*
X190500000Y-89535000D01*
X190500000Y-89535000D02*
X205105000Y-89535000D01*
X205105000Y-89535000D02*
X206375000Y-88265000D01*
X155575000Y-134620000D02*
X155575000Y-132080000D01*
X157480000Y-97790000D02*
X163195000Y-97790000D01*
X156210000Y-99060000D02*
X157480000Y-97790000D01*
X156210000Y-99695000D02*
X156210000Y-99060000D01*
X155575000Y-132080000D02*
X156210000Y-131445000D01*
X155575000Y-136525000D02*
X155575000Y-137795000D01*
X155575000Y-136525000D02*
X155575000Y-134620000D01*
G04 #@! TO.N,RDY*
X144145000Y-117475000D02*
X142875000Y-117475000D01*
X139065000Y-119380000D02*
X137160000Y-119380000D01*
X140970000Y-119380000D02*
X139065000Y-119380000D01*
X142875000Y-117475000D02*
X140970000Y-119380000D01*
X153035000Y-136525000D02*
X153035000Y-137795000D01*
X153035000Y-136525000D02*
X151765000Y-135255000D01*
X137795000Y-93980000D02*
X137795000Y-87630000D01*
X137795000Y-87630000D02*
X139065000Y-86360000D01*
X139065000Y-86360000D02*
X145415000Y-86360000D01*
X145415000Y-86360000D02*
X146685000Y-85090000D01*
X147955000Y-85090000D02*
X146685000Y-85090000D01*
X137160000Y-99060000D02*
X137795000Y-98425000D01*
X137795000Y-98425000D02*
X137795000Y-93980000D01*
X144145000Y-117475000D02*
X143510000Y-117475000D01*
G04 #@! TO.N,SYNC*
X147955000Y-97790000D02*
X148590000Y-97790000D01*
X148590000Y-97790000D02*
X149860000Y-99060000D01*
X149860000Y-99060000D02*
X154940000Y-99060000D01*
X154940000Y-131445000D02*
X151765000Y-131445000D01*
X151765000Y-131445000D02*
X150495000Y-132715000D01*
X150495000Y-132715000D02*
X150495000Y-137795000D01*
G04 #@! TO.N,D0*
X189865000Y-120015000D02*
X176530000Y-120015000D01*
X161925000Y-100330000D02*
X149860000Y-100330000D01*
X141605000Y-100330000D02*
X142875000Y-99060000D01*
X163195000Y-100330000D02*
X161925000Y-100330000D01*
X141605000Y-100330000D02*
X140335000Y-100330000D01*
X148590000Y-99060000D02*
X142875000Y-99060000D01*
X149860000Y-100330000D02*
X148590000Y-99060000D01*
X192405000Y-121285000D02*
X191135000Y-121285000D01*
X191135000Y-121285000D02*
X189865000Y-120015000D01*
X168275000Y-99695000D02*
X170815000Y-99695000D01*
X167640000Y-100330000D02*
X168275000Y-99695000D01*
X163195000Y-100330000D02*
X167005000Y-100330000D01*
X167005000Y-100330000D02*
X167640000Y-100330000D01*
X171450000Y-120015000D02*
X170180000Y-121285000D01*
X171450000Y-100330000D02*
X171450000Y-120015000D01*
X170815000Y-99695000D02*
X171450000Y-100330000D01*
X170180000Y-121285000D02*
X169545000Y-121285000D01*
X134620000Y-121285000D02*
X134620000Y-101600000D01*
X134620000Y-101600000D02*
X135890000Y-100330000D01*
X135890000Y-100330000D02*
X140335000Y-100330000D01*
X137160000Y-132715000D02*
X136525000Y-132715000D01*
X147955000Y-136525000D02*
X144145000Y-132715000D01*
X144145000Y-132715000D02*
X137160000Y-132715000D01*
X147955000Y-137795000D02*
X147955000Y-136525000D01*
X134620000Y-130810000D02*
X134620000Y-121285000D01*
X136525000Y-132715000D02*
X134620000Y-130810000D01*
G04 #@! TO.N,D1*
X161925000Y-102870000D02*
X149860000Y-102870000D01*
X163195000Y-102870000D02*
X161925000Y-102870000D01*
X145415000Y-102870000D02*
X146685000Y-101600000D01*
X145415000Y-102870000D02*
X140335000Y-102870000D01*
X148590000Y-101600000D02*
X146685000Y-101600000D01*
X149860000Y-102870000D02*
X148590000Y-101600000D01*
X172085000Y-103505000D02*
X172085000Y-102870000D01*
X172085000Y-122555000D02*
X172085000Y-103505000D01*
X167640000Y-102870000D02*
X168275000Y-102235000D01*
X166370000Y-102870000D02*
X163195000Y-102870000D01*
X166370000Y-102870000D02*
X167640000Y-102870000D01*
X168275000Y-102235000D02*
X170815000Y-102235000D01*
X176530000Y-122555000D02*
X175895000Y-122555000D01*
X191135000Y-123825000D02*
X189865000Y-122555000D01*
X189865000Y-122555000D02*
X176530000Y-122555000D01*
X192405000Y-123825000D02*
X191135000Y-123825000D01*
X170815000Y-123825000D02*
X169545000Y-123825000D01*
X172085000Y-122555000D02*
X170815000Y-123825000D01*
X133985000Y-121285000D02*
X133985000Y-104140000D01*
X135255000Y-102870000D02*
X140335000Y-102870000D01*
X136525000Y-133350000D02*
X135890000Y-133350000D01*
X145415000Y-136525000D02*
X142240000Y-133350000D01*
X142240000Y-133350000D02*
X136525000Y-133350000D01*
X145415000Y-137795000D02*
X145415000Y-136525000D01*
X133985000Y-131445000D02*
X133985000Y-121285000D01*
X135890000Y-133350000D02*
X133985000Y-131445000D01*
G04 #@! TO.N,D2*
X161925000Y-105410000D02*
X149860000Y-105410000D01*
X145415000Y-105410000D02*
X146685000Y-104140000D01*
X163195000Y-105410000D02*
X161925000Y-105410000D01*
X145415000Y-105410000D02*
X140335000Y-105410000D01*
X148590000Y-104140000D02*
X146685000Y-104140000D01*
X149860000Y-105410000D02*
X148590000Y-104140000D01*
X192405000Y-126365000D02*
X191135000Y-126365000D01*
X189865000Y-125095000D02*
X175260000Y-125095000D01*
X191135000Y-126365000D02*
X189865000Y-125095000D01*
X172720000Y-117475000D02*
X172720000Y-125095000D01*
X168275000Y-104775000D02*
X170815000Y-104775000D01*
X167640000Y-105410000D02*
X168275000Y-104775000D01*
X163195000Y-105410000D02*
X165735000Y-105410000D01*
X165735000Y-105410000D02*
X167640000Y-105410000D01*
X172720000Y-117475000D02*
X172720000Y-105410000D01*
X171450000Y-126365000D02*
X169545000Y-126365000D01*
X172720000Y-125095000D02*
X171450000Y-126365000D01*
X133350000Y-121285000D02*
X133350000Y-106680000D01*
X135255000Y-105410000D02*
X140335000Y-105410000D01*
X142875000Y-137795000D02*
X142875000Y-136525000D01*
X133350000Y-132264998D02*
X133350000Y-121285000D01*
X135070002Y-133985000D02*
X133350000Y-132264998D01*
X140335000Y-133985000D02*
X135070002Y-133985000D01*
X142875000Y-136525000D02*
X140335000Y-133985000D01*
G04 #@! TO.N,D3*
X193675000Y-130175000D02*
X194310000Y-129540000D01*
X189865000Y-128905000D02*
X191135000Y-130175000D01*
X191135000Y-130175000D02*
X193675000Y-130175000D01*
X207645000Y-128905000D02*
X206375000Y-128905000D01*
X189865000Y-128905000D02*
X184785000Y-128905000D01*
X194310000Y-129540000D02*
X194310000Y-128905000D01*
X194310000Y-128905000D02*
X194945000Y-128270000D01*
X194945000Y-128270000D02*
X205105000Y-128270000D01*
X205105000Y-128270000D02*
X205740000Y-128905000D01*
X205740000Y-128905000D02*
X206375000Y-128905000D01*
X161925000Y-107950000D02*
X149860000Y-107950000D01*
X145415000Y-107950000D02*
X146685000Y-106680000D01*
X163195000Y-107950000D02*
X161925000Y-107950000D01*
X145415000Y-107950000D02*
X140335000Y-107950000D01*
X148590000Y-106680000D02*
X146685000Y-106680000D01*
X149860000Y-107950000D02*
X148590000Y-106680000D01*
X173355000Y-117475000D02*
X173355000Y-127635000D01*
X163195000Y-107950000D02*
X167640000Y-107950000D01*
X167640000Y-107950000D02*
X168275000Y-107315000D01*
X168275000Y-107315000D02*
X170815000Y-107315000D01*
X173355000Y-117475000D02*
X173355000Y-107950000D01*
X174625000Y-128905000D02*
X184785000Y-128905000D01*
X173355000Y-127635000D02*
X174625000Y-128905000D01*
X132715000Y-121285000D02*
X132715000Y-109220000D01*
X135255000Y-107950000D02*
X140335000Y-107950000D01*
X140335000Y-137795000D02*
X140335000Y-136525000D01*
X132715000Y-132715000D02*
X132715000Y-121285000D01*
X134620000Y-134620000D02*
X132715000Y-132715000D01*
X138430000Y-134620000D02*
X134620000Y-134620000D01*
X140335000Y-136525000D02*
X138430000Y-134620000D01*
G04 #@! TO.N,D4*
X161925000Y-110490000D02*
X149860000Y-110490000D01*
X145415000Y-110490000D02*
X146685000Y-109220000D01*
X163195000Y-110490000D02*
X161925000Y-110490000D01*
X145415000Y-110490000D02*
X140335000Y-110490000D01*
X148590000Y-109220000D02*
X146685000Y-109220000D01*
X149860000Y-110490000D02*
X148590000Y-109220000D01*
X184785000Y-126365000D02*
X189865000Y-126365000D01*
X206375000Y-126365000D02*
X207645000Y-126365000D01*
X205105000Y-127635000D02*
X206375000Y-126365000D01*
X191135000Y-127635000D02*
X205105000Y-127635000D01*
X189865000Y-126365000D02*
X191135000Y-127635000D01*
X173990000Y-117475000D02*
X173990000Y-125095000D01*
X168275000Y-109855000D02*
X170815000Y-109855000D01*
X167640000Y-110490000D02*
X168275000Y-109855000D01*
X163195000Y-110490000D02*
X167640000Y-110490000D01*
X173990000Y-117475000D02*
X173990000Y-110490000D01*
X175260000Y-126365000D02*
X184785000Y-126365000D01*
X173990000Y-125095000D02*
X175260000Y-126365000D01*
X132080000Y-121285000D02*
X132080000Y-111760000D01*
X135255000Y-110490000D02*
X140335000Y-110490000D01*
X137795000Y-137795000D02*
X137795000Y-136525000D01*
X132080000Y-133350000D02*
X132080000Y-121285000D01*
X133985000Y-135255000D02*
X132080000Y-133350000D01*
X136525000Y-135255000D02*
X133985000Y-135255000D01*
X137795000Y-136525000D02*
X136525000Y-135255000D01*
G04 #@! TO.N,D5*
X161925000Y-113030000D02*
X149860000Y-113030000D01*
X145415000Y-113030000D02*
X146685000Y-111760000D01*
X163195000Y-113030000D02*
X161925000Y-113030000D01*
X145415000Y-113030000D02*
X140335000Y-113030000D01*
X148590000Y-111760000D02*
X146685000Y-111760000D01*
X149860000Y-113030000D02*
X148590000Y-111760000D01*
X184785000Y-123825000D02*
X189865000Y-123825000D01*
X206375000Y-123825000D02*
X207645000Y-123825000D01*
X205105000Y-125095000D02*
X206375000Y-123825000D01*
X191135000Y-125095000D02*
X205105000Y-125095000D01*
X189865000Y-123825000D02*
X191135000Y-125095000D01*
X174625000Y-117475000D02*
X174625000Y-122555000D01*
X168275000Y-112395000D02*
X170815000Y-112395000D01*
X167640000Y-113030000D02*
X168275000Y-112395000D01*
X163195000Y-113030000D02*
X167640000Y-113030000D01*
X174625000Y-117475000D02*
X174625000Y-113030000D01*
X175895000Y-123825000D02*
X184785000Y-123825000D01*
X174625000Y-122555000D02*
X175895000Y-123825000D01*
X135255000Y-113030000D02*
X140335000Y-113030000D01*
X131445000Y-121285000D02*
X131445000Y-114300000D01*
X135255000Y-136525000D02*
X134620000Y-135890000D01*
X134620000Y-135890000D02*
X133350000Y-135890000D01*
X133350000Y-135890000D02*
X131445000Y-133985000D01*
X131445000Y-133985000D02*
X131445000Y-121285000D01*
X135255000Y-137795000D02*
X135255000Y-136525000D01*
G04 #@! TO.N,D6*
X184785000Y-121285000D02*
X189865000Y-121285000D01*
X161925000Y-115570000D02*
X149860000Y-115570000D01*
X145415000Y-115570000D02*
X146685000Y-114300000D01*
X163195000Y-115570000D02*
X161925000Y-115570000D01*
X145415000Y-115570000D02*
X140335000Y-115570000D01*
X148590000Y-114300000D02*
X146685000Y-114300000D01*
X149860000Y-115570000D02*
X148590000Y-114300000D01*
X206375000Y-121285000D02*
X207645000Y-121285000D01*
X205105000Y-122555000D02*
X206375000Y-121285000D01*
X191135000Y-122555000D02*
X205105000Y-122555000D01*
X189865000Y-121285000D02*
X191135000Y-122555000D01*
X175260000Y-117475000D02*
X175260000Y-120015000D01*
X168275000Y-114935000D02*
X170815000Y-114935000D01*
X167640000Y-115570000D02*
X168275000Y-114935000D01*
X163195000Y-115570000D02*
X167640000Y-115570000D01*
X175260000Y-117475000D02*
X175260000Y-115570000D01*
X176530000Y-121285000D02*
X184785000Y-121285000D01*
X175260000Y-120015000D02*
X176530000Y-121285000D01*
X130810000Y-134620000D02*
X130810000Y-117475000D01*
X130810000Y-117475000D02*
X130810000Y-116840000D01*
X135255000Y-115570000D02*
X140335000Y-115570000D01*
X132715000Y-137795000D02*
X132715000Y-136525000D01*
X132715000Y-136525000D02*
X130810000Y-134620000D01*
G04 #@! TO.N,D7*
X184785000Y-118745000D02*
X189865000Y-118745000D01*
X161925000Y-118110000D02*
X149860000Y-118110000D01*
X142875000Y-116205000D02*
X146050000Y-116205000D01*
X146050000Y-116205000D02*
X146685000Y-116840000D01*
X163195000Y-118110000D02*
X161925000Y-118110000D01*
X142875000Y-116205000D02*
X140970000Y-118110000D01*
X148590000Y-116840000D02*
X146685000Y-116840000D01*
X149860000Y-118110000D02*
X148590000Y-116840000D01*
X206375000Y-118745000D02*
X207645000Y-118745000D01*
X205105000Y-120015000D02*
X206375000Y-118745000D01*
X191135000Y-120015000D02*
X205105000Y-120015000D01*
X189865000Y-118745000D02*
X191135000Y-120015000D01*
X175895000Y-118110000D02*
X176530000Y-118745000D01*
X163195000Y-118110000D02*
X167640000Y-118110000D01*
X167640000Y-118110000D02*
X168275000Y-117475000D01*
X168275000Y-117475000D02*
X170815000Y-117475000D01*
X176530000Y-118745000D02*
X184785000Y-118745000D01*
X140335000Y-118110000D02*
X140970000Y-118110000D01*
X130175000Y-137795000D02*
X130175000Y-119380000D01*
X135255000Y-118110000D02*
X140335000Y-118110000D01*
G04 #@! TO.N,NMI*
X122555000Y-137795000D02*
X122555000Y-136525000D01*
X141605000Y-96520000D02*
X144145000Y-93980000D01*
X139065000Y-96520000D02*
X141605000Y-96520000D01*
X122555000Y-136525000D02*
X123825000Y-135255000D01*
X144145000Y-93980000D02*
X145415000Y-93980000D01*
X145415000Y-93980000D02*
X146685000Y-95250000D01*
X146685000Y-95250000D02*
X147955000Y-95250000D01*
X122555000Y-137795000D02*
X122555000Y-137160000D01*
G04 #@! TO.N,A13_W*
X204470000Y-100965000D02*
X200660000Y-97155000D01*
X198120000Y-94615000D02*
X196215000Y-94615000D01*
X196215000Y-94615000D02*
X194945000Y-93345000D01*
X194945000Y-92075000D02*
X194945000Y-93345000D01*
X205740000Y-100965000D02*
X207645000Y-100965000D01*
X205740000Y-100965000D02*
X204470000Y-100965000D01*
G04 #@! TO.N,A14_W*
X205105000Y-92075000D02*
X205105000Y-93980000D01*
X197485000Y-95885000D02*
X192405000Y-95885000D01*
X197485000Y-95885000D02*
X201930000Y-95885000D01*
X192405000Y-95885000D02*
X193040000Y-95885000D01*
G04 #@! TO.N,Net-(R1-Pad1)*
X211455000Y-104140000D02*
X210820000Y-104140000D01*
X210820000Y-104140000D02*
X209550000Y-102870000D01*
X209550000Y-102870000D02*
X209550000Y-99695000D01*
X209550000Y-99695000D02*
X208280000Y-98425000D01*
X208280000Y-98425000D02*
X207645000Y-98425000D01*
G04 #@! TO.N,CS_PIA*
X142240000Y-126365000D02*
X142240000Y-131445000D01*
X142240000Y-131445000D02*
X142875000Y-132080000D01*
X164465000Y-88900000D02*
X165100000Y-88265000D01*
X165100000Y-88265000D02*
X175895000Y-88265000D01*
X177165000Y-86995000D02*
X175895000Y-88265000D01*
X141605000Y-125730000D02*
X142240000Y-126365000D01*
X141605000Y-125730000D02*
X140335000Y-125730000D01*
G04 #@! TO.N,CS_ROM*
X213995000Y-96520000D02*
X213995000Y-111125000D01*
X213995000Y-74295000D02*
X212725000Y-73025000D01*
X213995000Y-95250000D02*
X213995000Y-76835000D01*
X213995000Y-76835000D02*
X213995000Y-74295000D01*
X203835000Y-73025000D02*
X212725000Y-73025000D01*
X200025000Y-76835000D02*
X201295000Y-75565000D01*
X201295000Y-75565000D02*
X203835000Y-73025000D01*
X210185000Y-116840000D02*
X211455000Y-118110000D01*
X210185000Y-113030000D02*
X210185000Y-116840000D01*
X210820000Y-112395000D02*
X210185000Y-113030000D01*
X212725000Y-112395000D02*
X210820000Y-112395000D01*
X213995000Y-111125000D02*
X212725000Y-112395000D01*
G04 #@! TO.N,Net-(U5-Pad1)*
X201930000Y-79375000D02*
X201930000Y-76200000D01*
X200660000Y-84455000D02*
X201930000Y-83185000D01*
X201930000Y-79375000D02*
X201930000Y-83185000D01*
X200660000Y-84455000D02*
X200025000Y-84455000D01*
X200025000Y-71755000D02*
X200025000Y-74295000D01*
G04 #@! TO.N,KBD_D0*
X127000000Y-78105000D02*
X127000000Y-81280000D01*
X127000000Y-74930000D02*
X126365000Y-74295000D01*
X126365000Y-74295000D02*
X124460000Y-74295000D01*
X123825000Y-73660000D02*
X124460000Y-74295000D01*
X127000000Y-83820000D02*
X127000000Y-81280000D01*
X127000000Y-83820000D02*
X125730000Y-85090000D01*
X127000000Y-78105000D02*
X127000000Y-74930000D01*
X123825000Y-73660000D02*
X123825000Y-73025000D01*
X125095000Y-85090000D02*
X125730000Y-85090000D01*
G04 #@! TO.N,KBD_D1*
X127635000Y-77470000D02*
X127635000Y-81915000D01*
X126365000Y-73025000D02*
X127635000Y-74295000D01*
X127635000Y-85090000D02*
X127635000Y-81915000D01*
X127000000Y-85725000D02*
X127635000Y-85090000D01*
X127000000Y-85725000D02*
X125095000Y-87630000D01*
X127635000Y-77470000D02*
X127635000Y-74295000D01*
G04 #@! TO.N,KBD_D2*
X128270000Y-81280000D02*
X128270000Y-78105000D01*
X128905000Y-73660000D02*
X128270000Y-74295000D01*
X128270000Y-87630000D02*
X125730000Y-90170000D01*
X128270000Y-87630000D02*
X128270000Y-81280000D01*
X128270000Y-78105000D02*
X128270000Y-74295000D01*
X128905000Y-73660000D02*
X128905000Y-73025000D01*
X125095000Y-90170000D02*
X125730000Y-90170000D01*
G04 #@! TO.N,KBD_D3*
X128905000Y-77470000D02*
X128905000Y-81915000D01*
X128905000Y-74930000D02*
X129540000Y-74295000D01*
X129540000Y-74295000D02*
X130810000Y-74295000D01*
X131445000Y-73660000D02*
X130810000Y-74295000D01*
X127635000Y-90805000D02*
X128905000Y-89535000D01*
X128905000Y-81915000D02*
X128905000Y-88900000D01*
X127635000Y-90805000D02*
X125730000Y-92710000D01*
X128905000Y-89535000D02*
X128905000Y-88900000D01*
X128905000Y-77470000D02*
X128905000Y-74930000D01*
X131445000Y-73660000D02*
X131445000Y-73025000D01*
X125095000Y-92710000D02*
X125730000Y-92710000D01*
G04 #@! TO.N,KBD_D4*
X129540000Y-81280000D02*
X129540000Y-78105000D01*
X130810000Y-74930000D02*
X131445000Y-74930000D01*
X131445000Y-74930000D02*
X132080000Y-74295000D01*
X132080000Y-74295000D02*
X132715000Y-74295000D01*
X133985000Y-73025000D02*
X132715000Y-74295000D01*
X129540000Y-78105000D02*
X129540000Y-75565000D01*
X129540000Y-90170000D02*
X129540000Y-81280000D01*
X126365000Y-93980000D02*
X126365000Y-93345000D01*
X126365000Y-93980000D02*
X125095000Y-95250000D01*
X126365000Y-93345000D02*
X128270000Y-91440000D01*
X128270000Y-91440000D02*
X129540000Y-90170000D01*
X129540000Y-75565000D02*
X130175000Y-74930000D01*
X130175000Y-74930000D02*
X130810000Y-74930000D01*
G04 #@! TO.N,KBD_D5*
X130175000Y-77470000D02*
X130175000Y-81915000D01*
X132080000Y-75565000D02*
X132715000Y-74930000D01*
X132715000Y-74930000D02*
X133350000Y-74930000D01*
X133350000Y-74930000D02*
X133985000Y-74295000D01*
X133985000Y-74295000D02*
X135890000Y-74295000D01*
X136525000Y-73660000D02*
X135890000Y-74295000D01*
X130175000Y-77470000D02*
X130175000Y-76200000D01*
X130175000Y-90805000D02*
X130175000Y-81915000D01*
X127000000Y-94615000D02*
X127000000Y-93980000D01*
X127000000Y-95885000D02*
X127000000Y-94615000D01*
X127000000Y-95885000D02*
X125095000Y-97790000D01*
X127000000Y-93980000D02*
X128905000Y-92075000D01*
X128905000Y-92075000D02*
X130175000Y-90805000D01*
X130175000Y-76200000D02*
X130810000Y-75565000D01*
X130810000Y-75565000D02*
X132080000Y-75565000D01*
X136525000Y-73660000D02*
X136525000Y-73025000D01*
G04 #@! TO.N,KBD_D6*
X130810000Y-81280000D02*
X130810000Y-78105000D01*
X130810000Y-76835000D02*
X131445000Y-76200000D01*
X131445000Y-76200000D02*
X132715000Y-76200000D01*
X132715000Y-76200000D02*
X133350000Y-75565000D01*
X133350000Y-75565000D02*
X133985000Y-75565000D01*
X133985000Y-75565000D02*
X134620000Y-74930000D01*
X134620000Y-74930000D02*
X136525000Y-74930000D01*
X136525000Y-74930000D02*
X137160000Y-74295000D01*
X137160000Y-74295000D02*
X138430000Y-74295000D01*
X139065000Y-73660000D02*
X138430000Y-74295000D01*
X129540000Y-92710000D02*
X130810000Y-91440000D01*
X127635000Y-96520000D02*
X127635000Y-94615000D01*
X127635000Y-94615000D02*
X129540000Y-92710000D01*
X127000000Y-99060000D02*
X125730000Y-100330000D01*
X127000000Y-99060000D02*
X127000000Y-97155000D01*
X127000000Y-97155000D02*
X127635000Y-96520000D01*
X130810000Y-91440000D02*
X130810000Y-81280000D01*
X130810000Y-78105000D02*
X130810000Y-76835000D01*
X139065000Y-73660000D02*
X139065000Y-73025000D01*
X125095000Y-100330000D02*
X125730000Y-100330000D01*
G04 #@! TO.N,KBD_D7*
X131445000Y-77470000D02*
X131445000Y-81915000D01*
X132080000Y-76835000D02*
X133350000Y-76835000D01*
X133350000Y-76835000D02*
X133985000Y-76200000D01*
X133985000Y-76200000D02*
X134620000Y-76200000D01*
X134620000Y-76200000D02*
X135255000Y-75565000D01*
X135255000Y-75565000D02*
X137160000Y-75565000D01*
X137160000Y-75565000D02*
X137795000Y-74930000D01*
X137795000Y-74930000D02*
X139065000Y-74930000D01*
X139065000Y-74930000D02*
X139700000Y-74295000D01*
X139700000Y-74295000D02*
X140970000Y-74295000D01*
X141605000Y-73660000D02*
X140970000Y-74295000D01*
X130175000Y-93345000D02*
X131445000Y-92075000D01*
X128270000Y-95250000D02*
X130175000Y-93345000D01*
X127635000Y-99060000D02*
X127635000Y-97790000D01*
X127000000Y-100330000D02*
X127635000Y-99695000D01*
X127635000Y-99695000D02*
X127635000Y-99060000D01*
X127000000Y-101600000D02*
X125730000Y-102870000D01*
X127000000Y-101600000D02*
X127000000Y-100965000D01*
X127000000Y-100965000D02*
X127000000Y-100330000D01*
X128270000Y-97155000D02*
X128270000Y-95885000D01*
X127635000Y-97790000D02*
X128270000Y-97155000D01*
X128270000Y-95885000D02*
X128270000Y-95250000D01*
X131445000Y-92075000D02*
X131445000Y-81915000D01*
X131445000Y-77470000D02*
X132080000Y-76835000D01*
X141605000Y-73660000D02*
X141605000Y-73025000D01*
X125095000Y-102870000D02*
X125730000Y-102870000D01*
G04 #@! TO.N,OUT_D0*
X132080000Y-81280000D02*
X132080000Y-78105000D01*
X130810000Y-93980000D02*
X132080000Y-92710000D01*
X128270000Y-98425000D02*
X128905000Y-97790000D01*
X128905000Y-97790000D02*
X128905000Y-95885000D01*
X128905000Y-95885000D02*
X130810000Y-93980000D01*
X128270000Y-99060000D02*
X128270000Y-100330000D01*
X127635000Y-102870000D02*
X127635000Y-100965000D01*
X127635000Y-100965000D02*
X128270000Y-100330000D01*
X125095000Y-105410000D02*
X127635000Y-102870000D01*
X128270000Y-99060000D02*
X128270000Y-98425000D01*
X132080000Y-92710000D02*
X132080000Y-81280000D01*
X130175000Y-69215000D02*
X130175000Y-64770000D01*
X130175000Y-64770000D02*
X130175000Y-64135000D01*
X130175000Y-64135000D02*
X131445000Y-62865000D01*
X131445000Y-62865000D02*
X140335000Y-62865000D01*
X140335000Y-62865000D02*
X141605000Y-64135000D01*
X141605000Y-64135000D02*
X141605000Y-65405000D01*
G04 #@! TO.N,OUT_D1*
X132715000Y-81915000D02*
X132715000Y-77470000D01*
X129540000Y-97155000D02*
X129540000Y-96520000D01*
X128270000Y-101600000D02*
X128905000Y-100965000D01*
X128905000Y-100965000D02*
X128905000Y-99060000D01*
X128905000Y-99060000D02*
X129540000Y-98425000D01*
X129540000Y-98425000D02*
X129540000Y-97155000D01*
X125730000Y-107950000D02*
X127635000Y-106045000D01*
X127635000Y-106045000D02*
X127635000Y-104140000D01*
X127635000Y-104140000D02*
X128270000Y-103505000D01*
X128270000Y-103505000D02*
X128270000Y-101600000D01*
X129540000Y-96520000D02*
X131445000Y-94615000D01*
X131445000Y-94615000D02*
X132715000Y-93345000D01*
X132715000Y-93345000D02*
X132715000Y-81915000D01*
X132715000Y-68580000D02*
X132715000Y-64770000D01*
X132715000Y-64770000D02*
X133985000Y-63500000D01*
X133985000Y-63500000D02*
X137795000Y-63500000D01*
X137795000Y-63500000D02*
X139065000Y-64770000D01*
X139065000Y-64770000D02*
X139065000Y-65405000D01*
X125095000Y-107950000D02*
X125730000Y-107950000D01*
G04 #@! TO.N,OUT_D2*
X133350000Y-81280000D02*
X133350000Y-78105000D01*
X135255000Y-67945000D02*
X135255000Y-66675000D01*
X136525000Y-65405000D02*
X135255000Y-66675000D01*
X132080000Y-95250000D02*
X133350000Y-93980000D01*
X128905000Y-102235000D02*
X129540000Y-101600000D01*
X129540000Y-101600000D02*
X129540000Y-99695000D01*
X129540000Y-99695000D02*
X130175000Y-99060000D01*
X130175000Y-99060000D02*
X130175000Y-97155000D01*
X130175000Y-97155000D02*
X132080000Y-95250000D01*
X126365000Y-110490000D02*
X125095000Y-110490000D01*
X128270000Y-104775000D02*
X128905000Y-104140000D01*
X128270000Y-106680000D02*
X128270000Y-104775000D01*
X127635000Y-107315000D02*
X128270000Y-106680000D01*
X127635000Y-109220000D02*
X127635000Y-107315000D01*
X126365000Y-110490000D02*
X127635000Y-109220000D01*
X128905000Y-104140000D02*
X128905000Y-102235000D01*
X133350000Y-93980000D02*
X133350000Y-81280000D01*
G04 #@! TO.N,OUT_D3*
X137160000Y-69215000D02*
X135255000Y-69215000D01*
X135255000Y-69215000D02*
X133985000Y-67945000D01*
X133985000Y-65405000D02*
X133985000Y-67945000D01*
X133985000Y-77470000D02*
X133985000Y-81915000D01*
X132715000Y-95885000D02*
X133985000Y-94615000D01*
X130175000Y-100330000D02*
X130810000Y-99695000D01*
X130810000Y-99695000D02*
X130810000Y-97790000D01*
X130810000Y-97790000D02*
X132715000Y-95885000D01*
X129540000Y-102870000D02*
X130175000Y-102235000D01*
X127000000Y-113030000D02*
X125095000Y-113030000D01*
X129540000Y-104775000D02*
X129540000Y-102870000D01*
X128905000Y-105410000D02*
X129540000Y-104775000D01*
X128905000Y-107315000D02*
X128905000Y-105410000D01*
X128270000Y-107950000D02*
X128905000Y-107315000D01*
X128270000Y-109855000D02*
X128270000Y-107950000D01*
X127635000Y-110490000D02*
X128270000Y-109855000D01*
X127635000Y-112395000D02*
X127635000Y-110490000D01*
X127000000Y-113030000D02*
X127635000Y-112395000D01*
X130175000Y-102235000D02*
X130175000Y-100330000D01*
X133985000Y-81915000D02*
X133985000Y-94615000D01*
X134620000Y-76835000D02*
X133985000Y-77470000D01*
G04 #@! TO.N,OUT_D4*
X133350000Y-96520000D02*
X134620000Y-95250000D01*
X131445000Y-98425000D02*
X133350000Y-96520000D01*
X130175000Y-103505000D02*
X130810000Y-102870000D01*
X130810000Y-100965000D02*
X131445000Y-100330000D01*
X130810000Y-102870000D02*
X130810000Y-100965000D01*
X128270000Y-113030000D02*
X127635000Y-113665000D01*
X128270000Y-113030000D02*
X128270000Y-111125000D01*
X128270000Y-111125000D02*
X128905000Y-110490000D01*
X128905000Y-110490000D02*
X128905000Y-108585000D01*
X128905000Y-108585000D02*
X129540000Y-107950000D01*
X129540000Y-107950000D02*
X129540000Y-106045000D01*
X129540000Y-106045000D02*
X130175000Y-105410000D01*
X130175000Y-103505000D02*
X130175000Y-105410000D01*
X125095000Y-115570000D02*
X127000000Y-115570000D01*
X127635000Y-114935000D02*
X127000000Y-115570000D01*
X127635000Y-113665000D02*
X127635000Y-114935000D01*
X131445000Y-100330000D02*
X131445000Y-98425000D01*
X134620000Y-95250000D02*
X134620000Y-81280000D01*
X131445000Y-68580000D02*
X131445000Y-65405000D01*
X132715000Y-69850000D02*
X131445000Y-68580000D01*
X139700000Y-69850000D02*
X132715000Y-69850000D01*
X134620000Y-81280000D02*
X134620000Y-78105000D01*
X136525000Y-76200000D02*
X134620000Y-78105000D01*
G04 #@! TO.N,OUT_D5*
X135890000Y-78105000D02*
X138430000Y-75565000D01*
X135255000Y-78740000D02*
X135890000Y-78105000D01*
X135255000Y-81915000D02*
X135255000Y-95885000D01*
X132080000Y-100965000D02*
X132080000Y-99695000D01*
X126365000Y-118110000D02*
X127635000Y-116840000D01*
X127635000Y-116840000D02*
X127635000Y-116205000D01*
X125095000Y-118110000D02*
X126365000Y-118110000D01*
X128270000Y-115570000D02*
X128270000Y-114300000D01*
X128270000Y-114300000D02*
X128905000Y-113665000D01*
X128905000Y-113665000D02*
X128905000Y-111760000D01*
X128905000Y-111760000D02*
X129540000Y-111125000D01*
X129540000Y-111125000D02*
X129540000Y-109220000D01*
X129540000Y-109220000D02*
X130175000Y-108585000D01*
X130175000Y-108585000D02*
X130175000Y-106680000D01*
X130175000Y-106680000D02*
X130810000Y-106045000D01*
X130810000Y-106045000D02*
X130810000Y-104140000D01*
X127635000Y-116205000D02*
X128270000Y-115570000D01*
X131445000Y-103505000D02*
X131445000Y-101600000D01*
X131445000Y-101600000D02*
X132080000Y-100965000D01*
X130810000Y-104140000D02*
X131445000Y-103505000D01*
X132080000Y-99060000D02*
X133985000Y-97155000D01*
X132080000Y-99695000D02*
X132080000Y-99060000D01*
X133985000Y-97155000D02*
X135255000Y-95885000D01*
X128905000Y-69215000D02*
X128905000Y-65405000D01*
X130175000Y-70485000D02*
X128905000Y-69215000D01*
X142240000Y-70485000D02*
X130175000Y-70485000D01*
X135255000Y-81915000D02*
X135255000Y-78740000D01*
X139700000Y-75565000D02*
X140335000Y-74930000D01*
X139065000Y-75565000D02*
X139700000Y-75565000D01*
X138430000Y-75565000D02*
X139065000Y-75565000D01*
G04 #@! TO.N,OUT_D6*
X138430000Y-76835000D02*
X139065000Y-76200000D01*
X139065000Y-76200000D02*
X140335000Y-76200000D01*
X142875000Y-74930000D02*
X141605000Y-74930000D01*
X141605000Y-74930000D02*
X140335000Y-76200000D01*
X144780000Y-71120000D02*
X127635000Y-71120000D01*
X127635000Y-71120000D02*
X126365000Y-69850000D01*
X126365000Y-69850000D02*
X126365000Y-65405000D01*
X145415000Y-71755000D02*
X144780000Y-71120000D01*
X134620000Y-97790000D02*
X135890000Y-96520000D01*
X132715000Y-99695000D02*
X134620000Y-97790000D01*
X131445000Y-104775000D02*
X132080000Y-104140000D01*
X132080000Y-102235000D02*
X132715000Y-101600000D01*
X132080000Y-104140000D02*
X132080000Y-102235000D01*
X128270000Y-116840000D02*
X128905000Y-116205000D01*
X130810000Y-109220000D02*
X130810000Y-107315000D01*
X130175000Y-109855000D02*
X130810000Y-109220000D01*
X130175000Y-111760000D02*
X130175000Y-109855000D01*
X129540000Y-112395000D02*
X130175000Y-111760000D01*
X129540000Y-114300000D02*
X129540000Y-112395000D01*
X128905000Y-114935000D02*
X129540000Y-114300000D01*
X128905000Y-116205000D02*
X128905000Y-114935000D01*
X130810000Y-107315000D02*
X131445000Y-106680000D01*
X131445000Y-106680000D02*
X131445000Y-104775000D01*
X125095000Y-120650000D02*
X127000000Y-120650000D01*
X128270000Y-119380000D02*
X128270000Y-116840000D01*
X127000000Y-120650000D02*
X128270000Y-119380000D01*
X132715000Y-101600000D02*
X132715000Y-99695000D01*
X135890000Y-96520000D02*
X135890000Y-81280000D01*
X135890000Y-81280000D02*
X135890000Y-79375000D01*
X138430000Y-76835000D02*
X135890000Y-79375000D01*
G04 #@! TO.N,Net-(U2-Pad27)*
X207645000Y-79375000D02*
X206375000Y-79375000D01*
X187960000Y-92710000D02*
X187325000Y-92710000D01*
X189230000Y-91440000D02*
X187960000Y-92710000D01*
X189230000Y-89535000D02*
X189230000Y-91440000D01*
X189865000Y-88900000D02*
X189230000Y-89535000D01*
X204470000Y-88900000D02*
X189865000Y-88900000D01*
X205740000Y-87630000D02*
X204470000Y-88900000D01*
X205740000Y-80010000D02*
X205740000Y-87630000D01*
X206375000Y-79375000D02*
X205740000Y-80010000D01*
G04 #@! TO.N,Net-(U3-Pad9)*
X186055000Y-85725000D02*
X186690000Y-85090000D01*
X183515000Y-85725000D02*
X186055000Y-85725000D01*
X182245000Y-84455000D02*
X183515000Y-85725000D01*
X180975000Y-84455000D02*
X182245000Y-84455000D01*
X179070000Y-86360000D02*
X180975000Y-84455000D01*
X179070000Y-88265000D02*
X179070000Y-86360000D01*
X179070000Y-88265000D02*
X177800000Y-89535000D01*
X189230000Y-85090000D02*
X186690000Y-85090000D01*
X189865000Y-84455000D02*
X189230000Y-85090000D01*
X190500000Y-83820000D02*
X189865000Y-84455000D01*
X177165000Y-89535000D02*
X177800000Y-89535000D01*
G04 #@! TO.N,Net-(U3-Pad7)*
X175895000Y-85725000D02*
X178435000Y-85725000D01*
X198755000Y-81915000D02*
X196850000Y-83820000D01*
X196850000Y-83820000D02*
X193675000Y-83820000D01*
X193675000Y-83820000D02*
X193040000Y-83185000D01*
X193040000Y-83185000D02*
X187325000Y-83185000D01*
X175895000Y-85725000D02*
X174625000Y-86995000D01*
X169545000Y-86995000D02*
X174625000Y-86995000D01*
X198755000Y-81915000D02*
X200025000Y-81915000D01*
X180975000Y-83185000D02*
X182880000Y-83185000D01*
X178435000Y-85725000D02*
X180975000Y-83185000D01*
G04 #@! TO.N,Net-(U5-Pad13)*
X207645000Y-74295000D02*
X208280000Y-74295000D01*
X208280000Y-74295000D02*
X209550000Y-75565000D01*
X209550000Y-75565000D02*
X209550000Y-85725000D01*
X209550000Y-85725000D02*
X208280000Y-86995000D01*
X208280000Y-86995000D02*
X207645000Y-86995000D01*
G04 #@! TO.N,Net-(U6-Pad3)*
X161290000Y-66040000D02*
X159385000Y-64135000D01*
X183515000Y-78105000D02*
X180340000Y-78105000D01*
X180340000Y-78105000D02*
X177800000Y-75565000D01*
X177800000Y-75565000D02*
X175895000Y-75565000D01*
X184785000Y-76835000D02*
X183515000Y-78105000D01*
X164465000Y-69215000D02*
X161290000Y-66040000D01*
X164465000Y-71120000D02*
X164465000Y-69215000D01*
X145415000Y-54610000D02*
X144780000Y-55245000D01*
X144780000Y-55245000D02*
X144780000Y-59055000D01*
X144780000Y-59055000D02*
X145415000Y-59690000D01*
X145415000Y-59690000D02*
X154940000Y-59690000D01*
X145415000Y-54610000D02*
X146685000Y-54610000D01*
X158750000Y-59690000D02*
X154940000Y-59690000D01*
X159385000Y-60325000D02*
X158750000Y-59690000D01*
X159385000Y-64135000D02*
X159385000Y-60325000D01*
G04 #@! TO.N,Net-(U7-Pad1)*
X181610000Y-85090000D02*
X180340000Y-86360000D01*
X182880000Y-76835000D02*
X182880000Y-73025000D01*
X184150000Y-71755000D02*
X182880000Y-73025000D01*
X179070000Y-90805000D02*
X178435000Y-91440000D01*
X179070000Y-90170000D02*
X179070000Y-90805000D01*
X180340000Y-88900000D02*
X179070000Y-90170000D01*
X180340000Y-86360000D02*
X180340000Y-88900000D01*
X141605000Y-132080000D02*
X139700000Y-132080000D01*
X127635000Y-128270000D02*
X125095000Y-128270000D01*
X139065000Y-131445000D02*
X139700000Y-132080000D01*
X139065000Y-130810000D02*
X139065000Y-131445000D01*
X138430000Y-130175000D02*
X139065000Y-130810000D01*
X136525000Y-130175000D02*
X138430000Y-130175000D01*
X135890000Y-130810000D02*
X136525000Y-130175000D01*
X128905000Y-134620000D02*
X129540000Y-134620000D01*
X128270000Y-133985000D02*
X128905000Y-134620000D01*
X128270000Y-128905000D02*
X128270000Y-133985000D01*
X127635000Y-128270000D02*
X128270000Y-128905000D01*
X164465000Y-91440000D02*
X178435000Y-91440000D01*
X184150000Y-71755000D02*
X184785000Y-71755000D01*
G04 #@! TO.N,Net-(C6-Pad1)*
X161925000Y-57150000D02*
X162560000Y-57150000D01*
X163195000Y-52070000D02*
X162560000Y-51435000D01*
X163195000Y-56515000D02*
X163195000Y-52070000D01*
X162560000Y-57150000D02*
X163195000Y-56515000D01*
X157480000Y-57150000D02*
X161925000Y-57150000D01*
X162560000Y-51435000D02*
X161290000Y-50165000D01*
X146050000Y-52070000D02*
X146685000Y-52070000D01*
X198605000Y-41855000D02*
X205105000Y-41855000D01*
X198605000Y-41855000D02*
X164520000Y-41855000D01*
X164520000Y-41855000D02*
X158750000Y-47625000D01*
X156845000Y-47625000D02*
X158750000Y-47625000D01*
X150495000Y-48260000D02*
X151130000Y-47625000D01*
X151130000Y-47625000D02*
X156845000Y-47625000D01*
X146685000Y-52070000D02*
X150495000Y-48260000D01*
X146685000Y-52070000D02*
X146050000Y-52070000D01*
G04 #@! TO.N,Net-(C10-Pad1)*
X162560000Y-62865000D02*
X162560000Y-64770000D01*
X163830000Y-66040000D02*
X165354000Y-66040000D01*
X162560000Y-64770000D02*
X163830000Y-66040000D01*
X165354000Y-66040000D02*
X165354000Y-65659000D01*
X162560000Y-62865000D02*
X162560000Y-61595000D01*
X162560000Y-61595000D02*
X163195000Y-60960000D01*
X163195000Y-60960000D02*
X163195000Y-59055000D01*
X154305000Y-52070000D02*
X160020000Y-52070000D01*
X161290000Y-53340000D02*
X161290000Y-55245000D01*
X160020000Y-52070000D02*
X161290000Y-53340000D01*
X154305000Y-52070000D02*
X154305000Y-54610000D01*
G04 #@! TO.N,Net-(C12-Pad2)*
X186690000Y-83820000D02*
X186690000Y-84455000D01*
X186690000Y-82550000D02*
X186690000Y-75565000D01*
X185420000Y-74295000D02*
X186690000Y-75565000D01*
X186690000Y-82550000D02*
X186690000Y-83185000D01*
X186690000Y-83185000D02*
X186690000Y-83820000D01*
X187325000Y-85725000D02*
X191135000Y-85725000D01*
X195500000Y-87550000D02*
X193675000Y-85725000D01*
X193675000Y-85725000D02*
X191135000Y-85725000D01*
X195580000Y-87550000D02*
X195500000Y-87550000D01*
X185420000Y-74295000D02*
X184785000Y-74295000D01*
G04 #@! TO.N,Net-(J2-Pad27)*
X184785000Y-45720000D02*
X186055000Y-46990000D01*
X186055000Y-46990000D02*
X186055000Y-50165000D01*
G04 #@! TO.N,Net-(R10-Pad1)*
X163195000Y-92710000D02*
X165100000Y-92710000D01*
X165100000Y-92710000D02*
X165735000Y-92075000D01*
G04 #@! TO.N,Net-(J9-Pad2)*
X207645000Y-116205000D02*
X208915000Y-116205000D01*
X208915000Y-116205000D02*
X209550000Y-116840000D01*
X207645000Y-111125000D02*
X208915000Y-111125000D01*
X210185000Y-120650000D02*
X211455000Y-120650000D01*
X209550000Y-120015000D02*
X210185000Y-120650000D01*
X209550000Y-111760000D02*
X209550000Y-116840000D01*
X209550000Y-116840000D02*
X209550000Y-120015000D01*
X208915000Y-111125000D02*
X209550000Y-111760000D01*
G04 #@! TO.N,Net-(J10-Pad2)*
X175260000Y-131445000D02*
X177165000Y-129540000D01*
X172720000Y-131445000D02*
X175260000Y-131445000D01*
X172085000Y-132080000D02*
X172720000Y-131445000D01*
X172085000Y-132715000D02*
X172085000Y-132080000D01*
G04 #@! TO.N,Net-(J11-Pad2)*
X135890000Y-120015000D02*
X135255000Y-120015000D01*
X139065000Y-123190000D02*
X138430000Y-122555000D01*
X138430000Y-122555000D02*
X138430000Y-120650000D01*
X138430000Y-120650000D02*
X137795000Y-120015000D01*
X137795000Y-120015000D02*
X135890000Y-120015000D01*
X121285000Y-116205000D02*
X122555000Y-116205000D01*
X127000000Y-121920000D02*
X128270000Y-120650000D01*
X123825000Y-121920000D02*
X127000000Y-121920000D01*
X123190000Y-121285000D02*
X123825000Y-121920000D01*
X123190000Y-116840000D02*
X123190000Y-121285000D01*
X122555000Y-116205000D02*
X123190000Y-116840000D01*
X139065000Y-123190000D02*
X140335000Y-123190000D01*
G04 #@! TO.N,Net-(JP1-Pad1)*
X146685000Y-61595000D02*
X143510000Y-61595000D01*
X143510000Y-61595000D02*
X142240000Y-60325000D01*
X142240000Y-52705000D02*
X140335000Y-50800000D01*
X142240000Y-60325000D02*
X142240000Y-52705000D01*
X132715000Y-50800000D02*
X140335000Y-50800000D01*
G04 #@! TO.N,PHI1*
X153670000Y-135890000D02*
X153670000Y-132080000D01*
X154305000Y-136525000D02*
X153670000Y-135890000D01*
X149860000Y-87630000D02*
X147955000Y-87630000D01*
X151765000Y-90805000D02*
X151765000Y-95885000D01*
X150495000Y-89535000D02*
X151765000Y-90805000D01*
X150495000Y-88265000D02*
X150495000Y-89535000D01*
X149860000Y-87630000D02*
X150495000Y-88265000D01*
X151765000Y-95885000D02*
X151765000Y-97790000D01*
X150495000Y-103505000D02*
X151765000Y-103505000D01*
X149860000Y-104140000D02*
X150495000Y-103505000D01*
G04 #@! TD*
M02*
