G75*
%MOIN*%
%OFA0B0*%
%FSLAX25Y25*%
%IPPOS*%
%LPD*%
%AMOC8*
5,1,8,0,0,1.08239X$1,22.5*
%
%ADD10OC8,0.04800*%
%ADD11C,0.04800*%
%ADD12C,0.04800*%
%ADD13C,0.06000*%
%ADD14OC8,0.06000*%
%ADD15OC8,0.06200*%
%ADD16C,0.06200*%
%ADD17OC8,0.05315*%
%ADD18C,0.03000*%
%ADD19C,0.04000*%
%ADD20C,0.01200*%
D10*
X0069500Y0037333D03*
X0099500Y0037333D03*
X0099500Y0077333D03*
X0069500Y0077333D03*
X0074500Y0107333D03*
X0094500Y0107333D03*
X0164500Y0187333D03*
X0184500Y0187333D03*
X0184500Y0204833D03*
X0164500Y0204833D03*
X0164500Y0232333D03*
X0144500Y0232333D03*
X0119500Y0232333D03*
X0099500Y0232333D03*
X0087000Y0232333D03*
X0087000Y0222333D03*
X0087000Y0242333D03*
X0087000Y0252333D03*
X0077000Y0252333D03*
X0064500Y0252333D03*
X0054500Y0252333D03*
X0047000Y0242333D03*
X0047000Y0232333D03*
X0047000Y0222333D03*
X0054500Y0292333D03*
X0064500Y0292333D03*
X0064500Y0302333D03*
X0054500Y0302333D03*
X0189500Y0232333D03*
X0209500Y0232333D03*
X0234500Y0232333D03*
X0254500Y0232333D03*
X0279500Y0232333D03*
X0299500Y0232333D03*
X0324500Y0222333D03*
X0344500Y0222333D03*
X0339500Y0197333D03*
X0309500Y0197333D03*
X0309500Y0157333D03*
X0339500Y0157333D03*
X0334500Y0107333D03*
X0334500Y0097333D03*
X0314500Y0107333D03*
X0259500Y0127333D03*
X0259500Y0147333D03*
X0334500Y0057333D03*
D11*
X0056900Y0017333D02*
X0052100Y0017333D01*
X0052100Y0027333D02*
X0056900Y0027333D01*
X0056900Y0037333D02*
X0052100Y0037333D01*
X0052100Y0047333D02*
X0056900Y0047333D01*
X0056900Y0057333D02*
X0052100Y0057333D01*
X0052100Y0067333D02*
X0056900Y0067333D01*
X0056900Y0077333D02*
X0052100Y0077333D01*
X0052100Y0087333D02*
X0056900Y0087333D01*
X0067100Y0087333D02*
X0071900Y0087333D01*
X0056900Y0097333D02*
X0052100Y0097333D01*
X0052100Y0107333D02*
X0056900Y0107333D01*
X0056900Y0117333D02*
X0052100Y0117333D01*
X0052100Y0127333D02*
X0056900Y0127333D01*
X0056900Y0137333D02*
X0052100Y0137333D01*
X0052100Y0147333D02*
X0056900Y0147333D01*
X0056900Y0157333D02*
X0052100Y0157333D01*
X0052100Y0167333D02*
X0056900Y0167333D01*
X0056900Y0177333D02*
X0052100Y0177333D01*
X0052100Y0187333D02*
X0056900Y0187333D01*
X0056900Y0197333D02*
X0052100Y0197333D01*
X0052100Y0207333D02*
X0056900Y0207333D01*
X0097100Y0242333D02*
X0101900Y0242333D01*
X0101900Y0252333D02*
X0097100Y0252333D01*
X0097100Y0262333D02*
X0101900Y0262333D01*
X0101900Y0272333D02*
X0097100Y0272333D01*
X0097100Y0282333D02*
X0101900Y0282333D01*
X0101900Y0292333D02*
X0097100Y0292333D01*
X0097100Y0302333D02*
X0101900Y0302333D01*
X0127100Y0302333D02*
X0131900Y0302333D01*
X0131900Y0292333D02*
X0127100Y0292333D01*
X0127100Y0282333D02*
X0131900Y0282333D01*
X0131900Y0272333D02*
X0127100Y0272333D01*
X0127100Y0262333D02*
X0131900Y0262333D01*
X0131900Y0252333D02*
X0127100Y0252333D01*
X0127100Y0242333D02*
X0131900Y0242333D01*
X0142100Y0242333D02*
X0146900Y0242333D01*
X0146900Y0252333D02*
X0142100Y0252333D01*
X0142100Y0262333D02*
X0146900Y0262333D01*
X0146900Y0272333D02*
X0142100Y0272333D01*
X0142100Y0282333D02*
X0146900Y0282333D01*
X0146900Y0292333D02*
X0142100Y0292333D01*
X0142100Y0302333D02*
X0146900Y0302333D01*
X0172100Y0302333D02*
X0176900Y0302333D01*
X0187100Y0302333D02*
X0191900Y0302333D01*
X0191900Y0292333D02*
X0187100Y0292333D01*
X0176900Y0292333D02*
X0172100Y0292333D01*
X0172100Y0282333D02*
X0176900Y0282333D01*
X0187100Y0282333D02*
X0191900Y0282333D01*
X0191900Y0272333D02*
X0187100Y0272333D01*
X0176900Y0272333D02*
X0172100Y0272333D01*
X0172100Y0262333D02*
X0176900Y0262333D01*
X0187100Y0262333D02*
X0191900Y0262333D01*
X0191900Y0252333D02*
X0187100Y0252333D01*
X0176900Y0252333D02*
X0172100Y0252333D01*
X0172100Y0242333D02*
X0176900Y0242333D01*
X0187100Y0242333D02*
X0191900Y0242333D01*
X0217100Y0242333D02*
X0221900Y0242333D01*
X0232100Y0242333D02*
X0236900Y0242333D01*
X0236900Y0252333D02*
X0232100Y0252333D01*
X0221900Y0252333D02*
X0217100Y0252333D01*
X0217100Y0262333D02*
X0221900Y0262333D01*
X0232100Y0262333D02*
X0236900Y0262333D01*
X0236900Y0272333D02*
X0232100Y0272333D01*
X0221900Y0272333D02*
X0217100Y0272333D01*
X0217100Y0282333D02*
X0221900Y0282333D01*
X0232100Y0282333D02*
X0236900Y0282333D01*
X0236900Y0292333D02*
X0232100Y0292333D01*
X0221900Y0292333D02*
X0217100Y0292333D01*
X0217100Y0302333D02*
X0221900Y0302333D01*
X0232100Y0302333D02*
X0236900Y0302333D01*
X0262100Y0302333D02*
X0266900Y0302333D01*
X0266900Y0292333D02*
X0262100Y0292333D01*
X0262100Y0282333D02*
X0266900Y0282333D01*
X0266900Y0272333D02*
X0262100Y0272333D01*
X0262100Y0262333D02*
X0266900Y0262333D01*
X0266900Y0252333D02*
X0262100Y0252333D01*
X0262100Y0242333D02*
X0266900Y0242333D01*
X0277100Y0242333D02*
X0281900Y0242333D01*
X0281900Y0252333D02*
X0277100Y0252333D01*
X0277100Y0262333D02*
X0281900Y0262333D01*
X0281900Y0272333D02*
X0277100Y0272333D01*
X0277100Y0282333D02*
X0281900Y0282333D01*
X0281900Y0292333D02*
X0277100Y0292333D01*
X0277100Y0302333D02*
X0281900Y0302333D01*
X0307100Y0302333D02*
X0311900Y0302333D01*
X0311900Y0292333D02*
X0307100Y0292333D01*
X0307100Y0282333D02*
X0311900Y0282333D01*
X0311900Y0272333D02*
X0307100Y0272333D01*
X0307100Y0262333D02*
X0311900Y0262333D01*
X0311900Y0252333D02*
X0307100Y0252333D01*
X0307100Y0242333D02*
X0311900Y0242333D01*
X0322100Y0242333D02*
X0326900Y0242333D01*
X0326900Y0232333D02*
X0322100Y0232333D01*
X0322100Y0252333D02*
X0326900Y0252333D01*
X0326900Y0262333D02*
X0322100Y0262333D01*
X0322100Y0272333D02*
X0326900Y0272333D01*
X0326900Y0282333D02*
X0322100Y0282333D01*
X0322100Y0292333D02*
X0326900Y0292333D01*
X0326900Y0302333D02*
X0322100Y0302333D01*
X0352100Y0302333D02*
X0356900Y0302333D01*
X0356900Y0292333D02*
X0352100Y0292333D01*
X0352100Y0282333D02*
X0356900Y0282333D01*
X0356900Y0272333D02*
X0352100Y0272333D01*
X0352100Y0262333D02*
X0356900Y0262333D01*
X0356900Y0252333D02*
X0352100Y0252333D01*
X0352100Y0242333D02*
X0356900Y0242333D01*
X0356900Y0232333D02*
X0352100Y0232333D01*
X0352100Y0207333D02*
X0356900Y0207333D01*
X0356900Y0197333D02*
X0352100Y0197333D01*
X0352100Y0187333D02*
X0356900Y0187333D01*
X0356900Y0177333D02*
X0352100Y0177333D01*
X0352100Y0167333D02*
X0356900Y0167333D01*
X0356900Y0157333D02*
X0352100Y0157333D01*
X0352100Y0147333D02*
X0356900Y0147333D01*
X0356900Y0137333D02*
X0352100Y0137333D01*
X0352100Y0127333D02*
X0356900Y0127333D01*
X0356900Y0117333D02*
X0352100Y0117333D01*
X0352100Y0107333D02*
X0356900Y0107333D01*
X0356900Y0097333D02*
X0352100Y0097333D01*
X0352100Y0087333D02*
X0356900Y0087333D01*
X0356900Y0077333D02*
X0352100Y0077333D01*
X0352100Y0067333D02*
X0356900Y0067333D01*
X0356900Y0057333D02*
X0352100Y0057333D01*
X0352100Y0047333D02*
X0356900Y0047333D01*
X0356900Y0037333D02*
X0352100Y0037333D01*
X0352100Y0027333D02*
X0356900Y0027333D01*
X0356900Y0017333D02*
X0352100Y0017333D01*
X0296900Y0017333D02*
X0292100Y0017333D01*
X0292100Y0027333D02*
X0296900Y0027333D01*
X0296900Y0037333D02*
X0292100Y0037333D01*
X0292100Y0047333D02*
X0296900Y0047333D01*
X0296900Y0057333D02*
X0292100Y0057333D01*
X0292100Y0067333D02*
X0296900Y0067333D01*
X0296900Y0077333D02*
X0292100Y0077333D01*
X0292100Y0087333D02*
X0296900Y0087333D01*
X0296900Y0097333D02*
X0292100Y0097333D01*
X0292100Y0107333D02*
X0296900Y0107333D01*
X0296900Y0117333D02*
X0292100Y0117333D01*
X0292100Y0127333D02*
X0296900Y0127333D01*
X0296900Y0137333D02*
X0292100Y0137333D01*
X0292100Y0147333D02*
X0296900Y0147333D01*
X0296900Y0157333D02*
X0292100Y0157333D01*
X0292100Y0167333D02*
X0296900Y0167333D01*
X0296900Y0177333D02*
X0292100Y0177333D01*
X0292100Y0187333D02*
X0296900Y0187333D01*
X0296900Y0197333D02*
X0292100Y0197333D01*
X0292100Y0207333D02*
X0296900Y0207333D01*
X0274500Y0209933D02*
X0274500Y0214733D01*
X0264500Y0214733D02*
X0264500Y0209933D01*
X0254500Y0209933D02*
X0254500Y0214733D01*
X0244500Y0214733D02*
X0244500Y0209933D01*
X0234500Y0209933D02*
X0234500Y0214733D01*
X0224500Y0214733D02*
X0224500Y0209933D01*
X0214500Y0209933D02*
X0214500Y0214733D01*
X0204500Y0214733D02*
X0204500Y0209933D01*
X0204500Y0184733D02*
X0204500Y0179933D01*
X0214500Y0179933D02*
X0214500Y0184733D01*
X0224500Y0184733D02*
X0224500Y0179933D01*
X0234500Y0179933D02*
X0234500Y0184733D01*
X0244500Y0184733D02*
X0244500Y0179933D01*
X0254500Y0179933D02*
X0254500Y0184733D01*
X0264500Y0184733D02*
X0264500Y0179933D01*
X0274500Y0179933D02*
X0274500Y0184733D01*
X0272100Y0147333D02*
X0276900Y0147333D01*
X0276900Y0137333D02*
X0272100Y0137333D01*
X0272100Y0127333D02*
X0276900Y0127333D01*
X0276900Y0117333D02*
X0272100Y0117333D01*
X0272100Y0107333D02*
X0276900Y0107333D01*
X0276900Y0097333D02*
X0272100Y0097333D01*
X0272100Y0087333D02*
X0276900Y0087333D01*
X0276900Y0077333D02*
X0272100Y0077333D01*
X0272100Y0067333D02*
X0276900Y0067333D01*
X0276900Y0057333D02*
X0272100Y0057333D01*
X0272100Y0047333D02*
X0276900Y0047333D01*
X0276900Y0037333D02*
X0272100Y0037333D01*
X0272100Y0027333D02*
X0276900Y0027333D01*
X0276900Y0017333D02*
X0272100Y0017333D01*
X0216900Y0017333D02*
X0212100Y0017333D01*
X0212100Y0027333D02*
X0216900Y0027333D01*
X0216900Y0037333D02*
X0212100Y0037333D01*
X0212100Y0047333D02*
X0216900Y0047333D01*
X0216900Y0057333D02*
X0212100Y0057333D01*
X0196900Y0057333D02*
X0192100Y0057333D01*
X0192100Y0047333D02*
X0196900Y0047333D01*
X0196900Y0037333D02*
X0192100Y0037333D01*
X0192100Y0027333D02*
X0196900Y0027333D01*
X0196900Y0017333D02*
X0192100Y0017333D01*
X0136900Y0017333D02*
X0132100Y0017333D01*
X0132100Y0027333D02*
X0136900Y0027333D01*
X0136900Y0037333D02*
X0132100Y0037333D01*
X0132100Y0047333D02*
X0136900Y0047333D01*
X0136900Y0057333D02*
X0132100Y0057333D01*
X0116900Y0057333D02*
X0112100Y0057333D01*
X0112100Y0047333D02*
X0116900Y0047333D01*
X0116900Y0037333D02*
X0112100Y0037333D01*
X0112100Y0027333D02*
X0116900Y0027333D01*
X0116900Y0017333D02*
X0112100Y0017333D01*
X0112100Y0067333D02*
X0116900Y0067333D01*
X0116900Y0077333D02*
X0112100Y0077333D01*
X0112100Y0087333D02*
X0116900Y0087333D01*
X0116900Y0097333D02*
X0112100Y0097333D01*
X0112100Y0107333D02*
X0116900Y0107333D01*
X0116900Y0117333D02*
X0112100Y0117333D01*
X0112100Y0127333D02*
X0116900Y0127333D01*
X0132100Y0127333D02*
X0136900Y0127333D01*
X0136900Y0117333D02*
X0132100Y0117333D01*
X0132100Y0107333D02*
X0136900Y0107333D01*
X0136900Y0097333D02*
X0132100Y0097333D01*
X0132100Y0087333D02*
X0136900Y0087333D01*
X0136900Y0077333D02*
X0132100Y0077333D01*
X0132100Y0067333D02*
X0136900Y0067333D01*
X0101900Y0087333D02*
X0097100Y0087333D01*
X0112100Y0137333D02*
X0116900Y0137333D01*
X0116900Y0147333D02*
X0112100Y0147333D01*
X0112100Y0157333D02*
X0116900Y0157333D01*
X0116900Y0167333D02*
X0112100Y0167333D01*
X0112100Y0177333D02*
X0116900Y0177333D01*
X0116900Y0187333D02*
X0112100Y0187333D01*
X0112100Y0197333D02*
X0116900Y0197333D01*
X0116900Y0207333D02*
X0112100Y0207333D01*
X0132100Y0167333D02*
X0136900Y0167333D01*
X0136900Y0157333D02*
X0132100Y0157333D01*
X0132100Y0147333D02*
X0136900Y0147333D01*
X0136900Y0137333D02*
X0132100Y0137333D01*
X0192100Y0137333D02*
X0196900Y0137333D01*
X0196900Y0147333D02*
X0192100Y0147333D01*
X0192100Y0157333D02*
X0196900Y0157333D01*
X0196900Y0167333D02*
X0192100Y0167333D01*
X0212100Y0147333D02*
X0216900Y0147333D01*
X0216900Y0137333D02*
X0212100Y0137333D01*
X0212100Y0127333D02*
X0216900Y0127333D01*
X0216900Y0117333D02*
X0212100Y0117333D01*
X0212100Y0107333D02*
X0216900Y0107333D01*
X0216900Y0097333D02*
X0212100Y0097333D01*
X0212100Y0087333D02*
X0216900Y0087333D01*
X0216900Y0077333D02*
X0212100Y0077333D01*
X0212100Y0067333D02*
X0216900Y0067333D01*
X0196900Y0067333D02*
X0192100Y0067333D01*
X0192100Y0077333D02*
X0196900Y0077333D01*
X0196900Y0087333D02*
X0192100Y0087333D01*
X0192100Y0097333D02*
X0196900Y0097333D01*
X0196900Y0107333D02*
X0192100Y0107333D01*
X0192100Y0117333D02*
X0196900Y0117333D01*
X0196900Y0127333D02*
X0192100Y0127333D01*
D12*
X0082000Y0272833D03*
X0082000Y0291833D03*
D13*
X0365600Y0278133D02*
X0365600Y0272133D01*
X0383400Y0272133D02*
X0383400Y0278133D01*
X0383400Y0252533D02*
X0383400Y0246533D01*
X0383400Y0238133D02*
X0383400Y0232133D01*
X0365600Y0232133D02*
X0365600Y0238133D01*
X0365600Y0246533D02*
X0365600Y0252533D01*
X0365600Y0212533D02*
X0365600Y0206533D01*
X0383400Y0206533D02*
X0383400Y0212533D01*
X0382500Y0087255D02*
X0376500Y0087255D01*
X0376500Y0077412D02*
X0382500Y0077412D01*
D14*
X0379500Y0134833D03*
X0369500Y0134833D03*
X0369500Y0144833D03*
X0379500Y0144833D03*
X0379500Y0154833D03*
X0369500Y0154833D03*
X0369500Y0164833D03*
X0379500Y0164833D03*
X0379500Y0174833D03*
X0369500Y0174833D03*
X0369500Y0184833D03*
X0379500Y0184833D03*
X0024500Y0184833D03*
X0024500Y0174833D03*
X0024500Y0164833D03*
X0024500Y0154833D03*
X0024500Y0144833D03*
X0024500Y0134833D03*
X0024500Y0124833D03*
X0014500Y0124833D03*
X0014500Y0134833D03*
X0014500Y0144833D03*
X0014500Y0154833D03*
X0014500Y0164833D03*
X0014500Y0174833D03*
X0014500Y0184833D03*
X0014500Y0194833D03*
X0024500Y0194833D03*
X0024500Y0204833D03*
X0014500Y0204833D03*
X0014500Y0214833D03*
X0024500Y0214833D03*
X0024500Y0224833D03*
X0014500Y0224833D03*
X0014500Y0234833D03*
X0024500Y0234833D03*
X0024500Y0244833D03*
X0014500Y0244833D03*
X0014500Y0254833D03*
X0024500Y0254833D03*
X0024500Y0114833D03*
X0024500Y0104833D03*
X0024500Y0094833D03*
X0024500Y0084833D03*
X0024500Y0074833D03*
X0024500Y0064833D03*
X0014500Y0064833D03*
X0014500Y0074833D03*
X0014500Y0084833D03*
X0014500Y0094833D03*
X0014500Y0104833D03*
X0014500Y0114833D03*
D15*
X0144500Y0197333D03*
D16*
X0144500Y0207333D03*
D17*
X0234459Y0167320D03*
X0244459Y0167320D03*
X0254459Y0167320D03*
D18*
X0254500Y0167333D01*
X0254500Y0182333D01*
X0264500Y0172333D02*
X0274500Y0182333D01*
X0275750Y0182333D01*
X0278250Y0179833D01*
X0282000Y0179833D01*
X0287000Y0184833D01*
X0287000Y0197333D01*
X0294500Y0197333D01*
X0309500Y0197333D01*
X0339500Y0197333D01*
X0354500Y0197333D01*
X0369500Y0197333D01*
X0382000Y0209833D01*
X0383400Y0209533D01*
X0383250Y0209833D01*
X0383250Y0234833D01*
X0383400Y0235133D01*
X0383250Y0236083D01*
X0383250Y0248583D01*
X0383400Y0249533D01*
X0383250Y0249833D01*
X0383250Y0274833D01*
X0383400Y0275133D01*
X0354500Y0302333D02*
X0349500Y0307333D01*
X0305750Y0307333D01*
X0305125Y0306708D01*
X0309500Y0302333D01*
X0305125Y0306708D02*
X0304500Y0307333D01*
X0270750Y0307333D01*
X0265750Y0302333D01*
X0264500Y0302333D01*
X0234500Y0302333D01*
X0219500Y0302333D01*
X0218250Y0302333D01*
X0213250Y0307333D01*
X0180750Y0307333D01*
X0175750Y0302333D01*
X0174500Y0302333D01*
X0169500Y0307333D01*
X0134500Y0307333D01*
X0133875Y0306708D01*
X0133250Y0307333D01*
X0059500Y0307333D01*
X0054500Y0302333D01*
X0087000Y0252333D02*
X0092000Y0247333D01*
X0092000Y0237333D01*
X0113250Y0237333D01*
X0118250Y0232333D01*
X0119500Y0232333D01*
X0127000Y0224833D01*
X0157000Y0224833D01*
X0160125Y0227958D01*
X0160750Y0227333D01*
X0204500Y0227333D01*
X0205125Y0227958D01*
X0205750Y0227333D01*
X0249500Y0227333D01*
X0250125Y0227958D01*
X0250750Y0227333D01*
X0294500Y0227333D01*
X0295125Y0227958D01*
X0295750Y0227333D01*
X0339500Y0227333D01*
X0344500Y0222333D01*
X0324500Y0222333D02*
X0323250Y0221083D01*
X0212000Y0221083D01*
X0204500Y0213583D01*
X0204500Y0212333D01*
X0203250Y0211083D01*
X0190750Y0211083D01*
X0184500Y0204833D01*
X0164500Y0204833D02*
X0164500Y0197333D01*
X0144500Y0197333D01*
X0164500Y0197333D02*
X0164500Y0187333D01*
X0184500Y0187333D02*
X0188250Y0187333D01*
X0192000Y0183583D01*
X0214500Y0147333D02*
X0259500Y0147333D01*
X0274500Y0147333D01*
X0274500Y0137333D02*
X0289500Y0122333D01*
X0318250Y0122333D01*
X0333250Y0107333D01*
X0334500Y0107333D01*
X0334500Y0097333D01*
X0354500Y0097333D01*
X0368250Y0097333D01*
X0378250Y0087333D01*
X0379500Y0087255D01*
X0379500Y0086083D01*
X0388250Y0086083D01*
X0388250Y0074833D01*
X0384500Y0071083D01*
X0358250Y0071083D01*
X0354500Y0067333D01*
X0370750Y0081083D02*
X0359500Y0092333D01*
X0332000Y0092333D01*
X0317000Y0107333D01*
X0314500Y0107333D01*
X0294500Y0107333D01*
X0369500Y0134833D02*
X0379500Y0134833D01*
X0377000Y0081083D02*
X0370750Y0081083D01*
X0377000Y0081083D02*
X0379500Y0078583D01*
X0379500Y0077412D01*
X0214500Y0017333D02*
X0209500Y0012333D01*
X0139500Y0012333D01*
X0134500Y0017333D01*
X0133250Y0017333D01*
X0124500Y0008583D01*
X0053250Y0008583D01*
X0014500Y0047333D01*
X0069500Y0037333D02*
X0085750Y0037333D01*
X0085750Y0038583D01*
X0085750Y0037333D02*
X0099500Y0037333D01*
X0094500Y0097333D02*
X0114500Y0097333D01*
X0094500Y0097333D02*
X0094500Y0102333D01*
X0037000Y0102333D01*
X0054500Y0107333D02*
X0074500Y0107333D01*
X0085750Y0107333D01*
X0094500Y0107333D02*
X0094500Y0102333D01*
X0087000Y0222333D02*
X0087000Y0232333D01*
X0099500Y0232333D01*
X0099500Y0242333D02*
X0119500Y0242333D01*
X0124500Y0237333D01*
X0144500Y0237333D01*
X0144500Y0232333D01*
X0144500Y0237333D02*
X0144500Y0242333D01*
X0174500Y0242333D01*
X0189500Y0242333D01*
X0205125Y0227958D02*
X0209500Y0232333D01*
X0234500Y0242333D02*
X0239500Y0247333D01*
X0274500Y0247333D01*
X0279500Y0242333D01*
X0288250Y0237333D02*
X0283250Y0232333D01*
X0279500Y0232333D01*
X0288250Y0237333D02*
X0319500Y0237333D01*
X0324500Y0232333D01*
X0299500Y0232333D02*
X0295125Y0227958D01*
X0254500Y0232333D02*
X0250125Y0227958D01*
X0164500Y0232333D02*
X0160125Y0227958D01*
X0087000Y0232333D02*
X0087000Y0242333D01*
X0129500Y0302333D02*
X0133875Y0306708D01*
D19*
X0139500Y0287333D03*
X0164500Y0263583D03*
X0182000Y0279833D03*
X0199500Y0293583D03*
X0182000Y0299833D03*
X0204500Y0267333D03*
X0199500Y0247333D03*
X0175750Y0221083D03*
X0150750Y0229833D03*
X0110750Y0221083D03*
X0104500Y0209833D03*
X0098250Y0202333D03*
X0094500Y0198583D03*
X0087000Y0196083D03*
X0094500Y0184833D03*
X0119500Y0162333D03*
X0124500Y0162333D03*
X0125750Y0173583D03*
X0130750Y0183583D03*
X0140750Y0179833D03*
X0152000Y0181083D03*
X0158250Y0187333D03*
X0158250Y0192333D03*
X0168250Y0183583D03*
X0159500Y0172333D03*
X0179500Y0196083D03*
X0192000Y0183583D03*
X0199500Y0191083D03*
X0197000Y0203583D03*
X0220750Y0188583D03*
X0225750Y0196083D03*
X0240750Y0192333D03*
X0253250Y0199833D03*
X0258250Y0199833D03*
X0280750Y0184833D03*
X0288250Y0173583D03*
X0264500Y0172333D03*
X0239500Y0173583D03*
X0208250Y0154833D03*
X0205750Y0159833D03*
X0189500Y0162333D03*
X0209500Y0142333D03*
X0182000Y0134833D03*
X0155750Y0116083D03*
X0147000Y0112333D03*
X0159500Y0104833D03*
X0165750Y0104833D03*
X0169500Y0082333D03*
X0202000Y0091083D03*
X0223250Y0076083D03*
X0233250Y0068583D03*
X0242000Y0072333D03*
X0245750Y0088583D03*
X0242000Y0052333D03*
X0265750Y0032333D03*
X0283250Y0037333D03*
X0239500Y0012333D03*
X0184500Y0029833D03*
X0182000Y0022333D03*
X0120750Y0073583D03*
X0108250Y0083583D03*
X0099500Y0102333D03*
X0099500Y0111083D03*
X0085750Y0107333D03*
X0067000Y0118583D03*
X0059500Y0132333D03*
X0079500Y0147333D03*
X0099500Y0133583D03*
X0124500Y0106083D03*
X0143250Y0132333D03*
X0139500Y0142333D03*
X0094500Y0211083D03*
X0079500Y0221083D03*
X0060750Y0218583D03*
X0043250Y0214833D03*
X0035750Y0182333D03*
X0038250Y0159833D03*
X0048250Y0153583D03*
X0037000Y0102333D03*
X0044500Y0093583D03*
X0019500Y0071083D03*
X0014500Y0047333D03*
X0040750Y0042333D03*
X0075750Y0056083D03*
X0085750Y0038583D03*
X0089500Y0027333D03*
X0079500Y0018583D03*
X0075750Y0023583D03*
X0302000Y0143583D03*
X0330750Y0138583D03*
X0333250Y0261083D03*
X0290750Y0296083D03*
X0243250Y0272333D03*
X0068250Y0277333D03*
X0067000Y0261083D03*
X0039500Y0261083D03*
D20*
X0065750Y0287333D01*
X0134500Y0287333D01*
X0139500Y0292333D01*
X0144500Y0292333D01*
X0149500Y0297333D01*
X0178250Y0297333D01*
X0180750Y0294833D01*
X0187000Y0294833D01*
X0189500Y0292333D01*
X0198250Y0292333D01*
X0199500Y0293583D01*
X0189500Y0282333D02*
X0219500Y0282333D01*
X0224500Y0277333D02*
X0185750Y0277333D01*
X0183250Y0274833D01*
X0177000Y0274833D01*
X0174500Y0272333D01*
X0179500Y0277333D02*
X0113250Y0277333D01*
X0103250Y0267333D01*
X0085750Y0267333D01*
X0075750Y0257333D01*
X0033250Y0257333D01*
X0025750Y0249833D01*
X0013250Y0249833D01*
X0007000Y0243583D01*
X0007000Y0169833D01*
X0025750Y0169833D01*
X0029500Y0173583D01*
X0029500Y0184833D01*
X0024500Y0184833D01*
X0019500Y0189833D02*
X0019500Y0179833D01*
X0024500Y0174833D01*
X0035750Y0182333D02*
X0058250Y0182333D01*
X0068250Y0172333D01*
X0119500Y0172333D01*
X0129500Y0162333D01*
X0154500Y0162333D01*
X0164500Y0172333D01*
X0238250Y0172333D01*
X0239500Y0173583D01*
X0237000Y0176083D02*
X0243250Y0182333D01*
X0244500Y0182333D01*
X0237000Y0176083D02*
X0202000Y0176083D01*
X0200750Y0177333D01*
X0140750Y0177333D01*
X0140750Y0179833D01*
X0140750Y0177333D02*
X0114500Y0177333D01*
X0114500Y0167333D02*
X0115750Y0166083D01*
X0120750Y0166083D01*
X0124500Y0162333D01*
X0119500Y0162333D02*
X0110750Y0162333D01*
X0108250Y0164833D01*
X0057000Y0164833D01*
X0054500Y0167333D01*
X0048250Y0171083D02*
X0048250Y0162333D01*
X0100750Y0162333D01*
X0110750Y0152333D01*
X0129500Y0152333D01*
X0134500Y0147333D01*
X0139500Y0152333D02*
X0205750Y0152333D01*
X0208250Y0154833D01*
X0208250Y0149833D02*
X0197000Y0149833D01*
X0194500Y0147333D01*
X0190750Y0142333D02*
X0204500Y0142333D01*
X0209500Y0137333D01*
X0214500Y0137333D01*
X0209500Y0142333D02*
X0280750Y0142333D01*
X0290750Y0132333D01*
X0340750Y0132333D01*
X0350750Y0122333D01*
X0373250Y0122333D01*
X0388250Y0137333D01*
X0388250Y0283583D01*
X0364500Y0283583D01*
X0358250Y0277333D01*
X0314500Y0277333D01*
X0309500Y0272333D01*
X0309500Y0262333D02*
X0294500Y0277333D01*
X0309500Y0292333D01*
X0314500Y0287333D02*
X0349500Y0287333D01*
X0354500Y0282333D01*
X0364500Y0274833D02*
X0365600Y0275133D01*
X0364500Y0274833D02*
X0364500Y0257333D01*
X0363250Y0257333D01*
X0360750Y0254833D01*
X0360750Y0232333D01*
X0354500Y0232333D01*
X0354500Y0226083D01*
X0345750Y0217333D01*
X0304500Y0217333D01*
X0294500Y0207333D01*
X0294500Y0187333D02*
X0297000Y0184833D01*
X0348250Y0184833D01*
X0350750Y0182333D01*
X0367000Y0182333D01*
X0369500Y0184833D01*
X0374500Y0189833D02*
X0379500Y0184833D01*
X0380750Y0179833D02*
X0384500Y0176083D01*
X0384500Y0144833D01*
X0379500Y0144833D01*
X0374500Y0143583D02*
X0374500Y0149833D01*
X0370750Y0149833D01*
X0374500Y0153583D01*
X0374500Y0159833D01*
X0379500Y0164833D01*
X0374500Y0163583D02*
X0374500Y0174833D01*
X0379500Y0174833D01*
X0380750Y0179833D02*
X0357000Y0179833D01*
X0354500Y0177333D01*
X0354500Y0187333D02*
X0357000Y0189833D01*
X0374500Y0189833D01*
X0369500Y0174833D02*
X0367000Y0172333D01*
X0318250Y0172333D01*
X0305750Y0159833D01*
X0297000Y0159833D01*
X0294500Y0157333D01*
X0294500Y0147333D02*
X0354500Y0147333D01*
X0354500Y0157333D02*
X0357000Y0159833D01*
X0370750Y0159833D01*
X0374500Y0163583D01*
X0369500Y0164833D02*
X0367000Y0162333D01*
X0344500Y0162333D01*
X0339500Y0157333D01*
X0330750Y0138583D02*
X0295750Y0138583D01*
X0294500Y0137333D01*
X0302000Y0143583D02*
X0303250Y0142333D01*
X0367000Y0142333D01*
X0369500Y0144833D01*
X0374500Y0143583D02*
X0370750Y0139833D01*
X0367000Y0139833D01*
X0354500Y0127333D01*
X0368250Y0149833D02*
X0370750Y0149833D01*
X0368250Y0149833D02*
X0365750Y0152333D01*
X0314500Y0152333D01*
X0309500Y0157333D01*
X0288250Y0173583D02*
X0277000Y0162333D01*
X0253250Y0162333D01*
X0249500Y0166083D01*
X0249500Y0172333D01*
X0243250Y0172333D01*
X0238250Y0167333D01*
X0234500Y0167333D01*
X0234459Y0167320D01*
X0239500Y0162333D02*
X0243250Y0166083D01*
X0244459Y0167320D01*
X0239500Y0162333D02*
X0220750Y0162333D01*
X0208250Y0149833D01*
X0194500Y0137333D02*
X0192000Y0134833D01*
X0182000Y0134833D01*
X0187000Y0138583D02*
X0190750Y0142333D01*
X0187000Y0138583D02*
X0135750Y0138583D01*
X0134500Y0137333D01*
X0132000Y0137333D01*
X0127000Y0142333D01*
X0110750Y0142333D01*
X0100750Y0152333D01*
X0049500Y0152333D01*
X0048250Y0153583D01*
X0042000Y0149833D02*
X0023250Y0149833D01*
X0019500Y0146083D01*
X0019500Y0129833D01*
X0025750Y0129833D01*
X0029500Y0126083D01*
X0029500Y0114833D01*
X0024500Y0114833D01*
X0023250Y0109833D02*
X0019500Y0106083D01*
X0019500Y0094833D01*
X0024500Y0094833D01*
X0025750Y0089833D02*
X0013250Y0089833D01*
X0009500Y0093583D01*
X0009500Y0119833D01*
X0019500Y0119833D01*
X0024500Y0124833D01*
X0037000Y0132333D02*
X0059500Y0132333D01*
X0054500Y0127333D02*
X0052000Y0124833D01*
X0043250Y0124833D01*
X0028250Y0109833D01*
X0023250Y0109833D01*
X0024500Y0104833D02*
X0027000Y0104833D01*
X0044500Y0122333D01*
X0089500Y0122333D01*
X0089500Y0127333D01*
X0078250Y0138583D01*
X0078250Y0147333D01*
X0079500Y0147333D01*
X0078250Y0138583D02*
X0063250Y0138583D01*
X0054500Y0147333D01*
X0054500Y0137333D02*
X0042000Y0149833D01*
X0038250Y0159833D02*
X0007000Y0159833D01*
X0007000Y0061083D01*
X0018250Y0049833D01*
X0022000Y0049833D01*
X0054500Y0017333D01*
X0054500Y0027333D02*
X0089500Y0027333D01*
X0079500Y0018583D02*
X0085750Y0012333D01*
X0120750Y0012333D01*
X0130750Y0022333D01*
X0182000Y0022333D01*
X0187000Y0026083D02*
X0190750Y0022333D01*
X0207000Y0022333D01*
X0212000Y0027333D01*
X0214500Y0027333D01*
X0265750Y0027333D01*
X0270750Y0032333D01*
X0278250Y0032333D01*
X0280750Y0029833D01*
X0292000Y0029833D01*
X0294500Y0027333D01*
X0282000Y0032333D02*
X0277000Y0037333D01*
X0274500Y0037333D01*
X0272000Y0037333D01*
X0267000Y0042333D01*
X0210750Y0042333D01*
X0208250Y0039833D01*
X0197000Y0039833D01*
X0194500Y0037333D01*
X0190750Y0032333D02*
X0207000Y0032333D01*
X0212000Y0037333D01*
X0214500Y0037333D01*
X0210750Y0032333D02*
X0265750Y0032333D01*
X0270750Y0042333D02*
X0268250Y0044833D01*
X0209500Y0044833D01*
X0207000Y0042333D01*
X0139500Y0042333D01*
X0134500Y0047333D01*
X0129500Y0052333D01*
X0079500Y0052333D01*
X0075750Y0056083D01*
X0069500Y0073583D02*
X0058250Y0062333D01*
X0050750Y0062333D01*
X0049500Y0063583D01*
X0025750Y0063583D01*
X0024500Y0064833D01*
X0022000Y0068583D02*
X0019500Y0071083D01*
X0022000Y0068583D02*
X0023250Y0069833D01*
X0052000Y0069833D01*
X0054500Y0067333D01*
X0057000Y0059833D02*
X0108250Y0059833D01*
X0110750Y0062333D01*
X0329500Y0062333D01*
X0334500Y0057333D01*
X0354500Y0057333D01*
X0349500Y0052333D02*
X0279500Y0052333D01*
X0274500Y0057333D01*
X0247000Y0057333D01*
X0242000Y0052333D01*
X0242000Y0047333D02*
X0237000Y0052333D01*
X0210750Y0052333D01*
X0208250Y0049833D01*
X0197000Y0049833D01*
X0194500Y0047333D01*
X0207000Y0052333D02*
X0212000Y0057333D01*
X0214500Y0057333D01*
X0207000Y0052333D02*
X0139500Y0052333D01*
X0134500Y0057333D01*
X0134500Y0067333D02*
X0127000Y0067333D01*
X0120750Y0073583D01*
X0114500Y0067333D02*
X0104500Y0077333D01*
X0099500Y0077333D01*
X0099500Y0087333D01*
X0108250Y0083583D02*
X0109500Y0082333D01*
X0125750Y0082333D01*
X0130750Y0077333D01*
X0134500Y0077333D01*
X0135750Y0078583D01*
X0187000Y0078583D01*
X0190750Y0082333D01*
X0207000Y0082333D01*
X0212000Y0077333D01*
X0214500Y0077333D01*
X0210750Y0082333D02*
X0225750Y0082333D01*
X0228250Y0084833D01*
X0272000Y0084833D01*
X0274500Y0087333D01*
X0274500Y0077333D02*
X0242000Y0077333D01*
X0237000Y0072333D01*
X0210750Y0072333D01*
X0208250Y0074833D01*
X0197000Y0074833D01*
X0194500Y0077333D01*
X0197000Y0084833D02*
X0208250Y0084833D01*
X0210750Y0082333D01*
X0212000Y0087333D02*
X0214500Y0087333D01*
X0212000Y0087333D02*
X0207000Y0092333D01*
X0202000Y0092333D01*
X0202000Y0091083D01*
X0202000Y0092333D02*
X0139500Y0092333D01*
X0134500Y0087333D01*
X0130750Y0082333D02*
X0169500Y0082333D01*
X0194500Y0087333D02*
X0197000Y0084833D01*
X0197000Y0094833D02*
X0208250Y0094833D01*
X0210750Y0092333D01*
X0245750Y0092333D01*
X0250750Y0097333D01*
X0274500Y0097333D01*
X0269500Y0102333D02*
X0274500Y0107333D01*
X0269500Y0102333D02*
X0210750Y0102333D01*
X0208250Y0104833D01*
X0197000Y0104833D01*
X0195750Y0106083D01*
X0194500Y0107333D01*
X0195750Y0106083D02*
X0167000Y0106083D01*
X0165750Y0104833D01*
X0159500Y0104833D02*
X0157000Y0102333D01*
X0099500Y0102333D01*
X0103250Y0107333D02*
X0114500Y0107333D01*
X0115750Y0106083D01*
X0124500Y0106083D01*
X0134500Y0107333D02*
X0135750Y0108583D01*
X0187000Y0108583D01*
X0190750Y0112333D01*
X0207000Y0112333D01*
X0212000Y0107333D01*
X0214500Y0107333D01*
X0210750Y0112333D02*
X0208250Y0114833D01*
X0197000Y0114833D01*
X0194500Y0117333D01*
X0157000Y0117333D01*
X0155750Y0116083D01*
X0157000Y0122333D02*
X0160750Y0126083D01*
X0195750Y0126083D01*
X0194500Y0127333D01*
X0195750Y0126083D02*
X0197000Y0124833D01*
X0208250Y0124833D01*
X0210750Y0122333D01*
X0269500Y0122333D01*
X0274500Y0127333D01*
X0274500Y0117333D02*
X0263250Y0117333D01*
X0258250Y0112333D01*
X0210750Y0112333D01*
X0212000Y0117333D02*
X0214500Y0117333D01*
X0212000Y0117333D02*
X0207000Y0122333D01*
X0190750Y0122333D01*
X0188250Y0119833D01*
X0137000Y0119833D01*
X0134500Y0117333D01*
X0134500Y0127333D02*
X0135750Y0128583D01*
X0187000Y0128583D01*
X0190750Y0132333D01*
X0209500Y0132333D01*
X0214500Y0127333D01*
X0207000Y0102333D02*
X0190750Y0102333D01*
X0188250Y0099833D01*
X0137000Y0099833D01*
X0134500Y0097333D01*
X0120750Y0092333D02*
X0130750Y0082333D01*
X0139500Y0072333D02*
X0207000Y0072333D01*
X0212000Y0067333D01*
X0214500Y0067333D01*
X0223250Y0076083D02*
X0229500Y0082333D01*
X0289500Y0082333D01*
X0294500Y0087333D01*
X0294500Y0077333D02*
X0289500Y0072333D01*
X0242000Y0072333D01*
X0233250Y0068583D02*
X0273250Y0068583D01*
X0274500Y0067333D01*
X0274500Y0047333D02*
X0294500Y0047333D01*
X0283250Y0037333D02*
X0278250Y0042333D01*
X0270750Y0042333D01*
X0274500Y0047333D02*
X0242000Y0047333D01*
X0214500Y0047333D02*
X0212000Y0047333D01*
X0209500Y0044833D01*
X0210750Y0032333D02*
X0208250Y0029833D01*
X0197000Y0029833D01*
X0194500Y0027333D01*
X0190750Y0032333D02*
X0188250Y0034833D01*
X0137000Y0034833D01*
X0134500Y0037333D01*
X0129500Y0042333D01*
X0050750Y0042333D01*
X0040750Y0052333D01*
X0019500Y0052333D01*
X0019500Y0066083D01*
X0022000Y0068583D01*
X0024500Y0074833D02*
X0042000Y0074833D01*
X0054500Y0087333D01*
X0059500Y0092333D01*
X0120750Y0092333D01*
X0103250Y0107333D02*
X0099500Y0111083D01*
X0108250Y0114833D02*
X0110750Y0112333D01*
X0147000Y0112333D01*
X0157000Y0122333D02*
X0110750Y0122333D01*
X0099500Y0133583D01*
X0114500Y0137333D02*
X0119500Y0132333D01*
X0143250Y0132333D01*
X0139500Y0142333D02*
X0130750Y0142333D01*
X0128250Y0144833D01*
X0117000Y0144833D01*
X0114500Y0147333D01*
X0134500Y0157333D02*
X0139500Y0152333D01*
X0127000Y0172333D02*
X0159500Y0172333D01*
X0153250Y0179833D02*
X0152000Y0181083D01*
X0153250Y0179833D02*
X0193250Y0179833D01*
X0205750Y0192333D01*
X0240750Y0192333D01*
X0234500Y0182333D02*
X0228250Y0188583D01*
X0220750Y0188583D01*
X0225750Y0196083D02*
X0269500Y0196083D01*
X0280750Y0184833D01*
X0258250Y0199833D02*
X0254500Y0203583D01*
X0197000Y0203583D01*
X0199500Y0206083D02*
X0198250Y0207333D01*
X0193250Y0207333D01*
X0185750Y0199833D01*
X0179500Y0199833D01*
X0162000Y0217333D01*
X0062000Y0217333D01*
X0060750Y0218583D01*
X0050750Y0212333D02*
X0048250Y0209833D01*
X0048250Y0202333D01*
X0098250Y0202333D01*
X0094500Y0198583D02*
X0089500Y0198583D01*
X0087000Y0196083D01*
X0094500Y0184833D02*
X0057000Y0184833D01*
X0054500Y0187333D01*
X0050750Y0192333D02*
X0048250Y0189833D01*
X0019500Y0189833D01*
X0024500Y0204833D02*
X0033250Y0204833D01*
X0043250Y0214833D01*
X0048250Y0214833D02*
X0043250Y0219833D01*
X0009500Y0219833D01*
X0009500Y0229833D01*
X0014500Y0234833D01*
X0019500Y0229833D02*
X0014500Y0224833D01*
X0019500Y0229833D02*
X0044500Y0229833D01*
X0047000Y0232333D01*
X0044500Y0239833D02*
X0019500Y0239833D01*
X0014500Y0244833D01*
X0024500Y0234833D02*
X0027000Y0237333D01*
X0063250Y0237333D01*
X0079500Y0221083D01*
X0093250Y0212333D02*
X0050750Y0212333D01*
X0048250Y0214833D02*
X0099500Y0214833D01*
X0104500Y0209833D01*
X0107000Y0206083D02*
X0110750Y0202333D01*
X0155750Y0202333D01*
X0163250Y0209833D01*
X0165750Y0209833D01*
X0179500Y0196083D01*
X0168250Y0183583D02*
X0167000Y0182333D01*
X0158250Y0182333D01*
X0155750Y0184833D01*
X0132000Y0184833D01*
X0130750Y0183583D01*
X0125750Y0173583D02*
X0127000Y0172333D01*
X0114500Y0187333D02*
X0158250Y0187333D01*
X0158250Y0192333D02*
X0050750Y0192333D01*
X0055750Y0206083D02*
X0107000Y0206083D01*
X0094500Y0211083D02*
X0093250Y0212333D01*
X0110750Y0221083D02*
X0175750Y0221083D01*
X0158250Y0237333D02*
X0283250Y0237333D01*
X0288250Y0242333D01*
X0309500Y0242333D01*
X0309500Y0252333D02*
X0324500Y0252333D01*
X0333250Y0261083D02*
X0353250Y0261083D01*
X0354500Y0262333D01*
X0339500Y0257333D02*
X0354500Y0242333D01*
X0339500Y0257333D02*
X0305750Y0257333D01*
X0285750Y0277333D01*
X0269500Y0277333D01*
X0264500Y0282333D01*
X0259500Y0287333D02*
X0139500Y0287333D01*
X0144500Y0282333D02*
X0174500Y0282333D01*
X0179500Y0277333D02*
X0182000Y0279833D01*
X0170750Y0267333D02*
X0204500Y0267333D01*
X0200750Y0263583D02*
X0212000Y0263583D01*
X0215750Y0267333D01*
X0274500Y0267333D01*
X0279500Y0272333D01*
X0294500Y0277333D02*
X0279500Y0292333D01*
X0264500Y0292333D01*
X0259500Y0287333D01*
X0243250Y0272333D02*
X0238250Y0277333D01*
X0224500Y0277333D01*
X0219500Y0272333D01*
X0200750Y0263583D02*
X0194500Y0257333D01*
X0170750Y0257333D01*
X0164500Y0263583D01*
X0170750Y0267333D02*
X0168250Y0269833D01*
X0147000Y0269833D01*
X0144500Y0272333D01*
X0148250Y0267333D02*
X0129500Y0267333D01*
X0129500Y0262333D01*
X0129500Y0267333D02*
X0129500Y0272333D01*
X0127000Y0279833D02*
X0105750Y0279833D01*
X0103250Y0277333D01*
X0068250Y0277333D01*
X0074500Y0268583D02*
X0083250Y0268583D01*
X0087000Y0272333D01*
X0099500Y0272333D01*
X0099500Y0262333D02*
X0099500Y0252333D01*
X0077000Y0252333D02*
X0064500Y0252333D01*
X0067000Y0261083D02*
X0074500Y0268583D01*
X0074500Y0292333D02*
X0082000Y0292333D01*
X0082000Y0291833D01*
X0082000Y0292333D02*
X0099500Y0292333D01*
X0074500Y0292333D02*
X0064500Y0302333D01*
X0054500Y0292333D01*
X0047000Y0242333D02*
X0044500Y0239833D01*
X0054500Y0207333D02*
X0055750Y0206083D01*
X0054500Y0177333D02*
X0048250Y0171083D01*
X0024500Y0144833D02*
X0037000Y0132333D01*
X0054500Y0117333D02*
X0057000Y0114833D01*
X0108250Y0114833D01*
X0114500Y0117333D02*
X0068250Y0117333D01*
X0067000Y0118583D01*
X0054500Y0097333D02*
X0033250Y0097333D01*
X0025750Y0089833D01*
X0024500Y0084833D02*
X0035750Y0084833D01*
X0044500Y0093583D01*
X0069500Y0087333D02*
X0069500Y0077333D01*
X0069500Y0073583D01*
X0057000Y0059833D02*
X0054500Y0057333D01*
X0040750Y0042333D02*
X0050750Y0032333D01*
X0182000Y0032333D01*
X0184500Y0029833D01*
X0187000Y0026083D02*
X0135750Y0026083D01*
X0134500Y0027333D01*
X0132000Y0027333D01*
X0127000Y0022333D01*
X0077000Y0022333D01*
X0075750Y0023583D01*
X0134500Y0067333D02*
X0139500Y0072333D01*
X0194500Y0097333D02*
X0197000Y0094833D01*
X0207000Y0102333D02*
X0212000Y0097333D01*
X0214500Y0097333D01*
X0245750Y0088583D02*
X0249500Y0092333D01*
X0327000Y0092333D01*
X0332000Y0087333D01*
X0354500Y0087333D01*
X0349500Y0052333D02*
X0354500Y0047333D01*
X0354500Y0037333D02*
X0349500Y0032333D01*
X0282000Y0032333D01*
X0269500Y0022333D02*
X0349500Y0022333D01*
X0354500Y0027333D01*
X0354500Y0017333D02*
X0349500Y0012333D01*
X0239500Y0012333D01*
X0210750Y0022333D02*
X0269500Y0022333D01*
X0274500Y0017333D01*
X0210750Y0022333D02*
X0208250Y0019833D01*
X0197000Y0019833D01*
X0194500Y0017333D01*
X0205750Y0159833D02*
X0203250Y0162333D01*
X0189500Y0162333D01*
X0199500Y0191083D02*
X0208250Y0199833D01*
X0253250Y0199833D01*
X0257000Y0206083D02*
X0260750Y0202333D01*
X0349500Y0202333D01*
X0354500Y0207333D01*
X0309500Y0282333D02*
X0314500Y0287333D01*
X0290750Y0296083D02*
X0289500Y0297333D01*
X0184500Y0297333D01*
X0182000Y0299833D01*
X0148250Y0267333D02*
X0168250Y0247333D01*
X0193250Y0247333D01*
X0197000Y0243583D01*
X0218250Y0243583D01*
X0219500Y0242333D01*
X0229500Y0247333D02*
X0234500Y0252333D01*
X0229500Y0247333D02*
X0199500Y0247333D01*
X0194500Y0257333D02*
X0189500Y0252333D01*
X0158250Y0237333D02*
X0150750Y0229833D01*
X0199500Y0206083D02*
X0257000Y0206083D01*
X0129500Y0282333D02*
X0127000Y0279833D01*
M02*
