%
M48
M72
T01C0.02400
T02C0.03200
T03C0.03543
T04C0.04000
T05C0.12598
%
T01
X40750Y42333
X14500Y47333
X19500Y71083
X44500Y93583
X37000Y102333
X67000Y118583
X59500Y132333
X79500Y147333
X99500Y133583
X99500Y111083
X99500Y102333
X85750Y107333
X108250Y83583
X120750Y73583
X159500Y104833
X165750Y104833
X155750Y116083
X147000Y112333
X124500Y106083
X143250Y132333
X139500Y142333
X124500Y162333
X119500Y162333
X125750Y173583
X130750Y183583
X140750Y179833
X152000Y181083
X158250Y187333
X158250Y192333
X168250Y183583
X159500Y172333
X179500Y196083
X192000Y183583
X199500Y191083
X197000Y203583
X220750Y188583
X225750Y196083
X240750Y192333
X253250Y199833
X258250Y199833
X280750Y184833
X288250Y173583
X264500Y172333
X239500Y173583
X208250Y154833
X205750Y159833
X189500Y162333
X209500Y142333
X182000Y134833
X202000Y91083
X223250Y76083
X233250Y68583
X242000Y72333
X245750Y88583
X242000Y52333
X265750Y32333
X283250Y37333
X239500Y12333
X184500Y29833
X182000Y22333
X169500Y82333
X89500Y27333
X79500Y18583
X75750Y23583
X85750Y38583
X75750Y56083
X48250Y153583
X38250Y159833
X35750Y182333
X43250Y214833
X60750Y218583
X79500Y221083
X94500Y211083
X98250Y202333
X94500Y198583
X87000Y196083
X94500Y184833
X104500Y209833
X110750Y221083
X150750Y229833
X175750Y221083
X199500Y247333
X204500Y267333
X182000Y279833
X199500Y293583
X182000Y299833
X164500Y263583
X139500Y287333
X68250Y277333
X67000Y261083
X39500Y261083
X243250Y272333
X290750Y296083
X333250Y261083
X302000Y143583
X330750Y138583
T02
X339500Y157333
X354500Y157333
X354500Y147333
X354500Y137333
X354500Y127333
X354500Y117333
X354500Y107333
X354500Y97333
X354500Y87333
X354500Y77333
X354500Y67333
X354500Y57333
X354500Y47333
X354500Y37333
X354500Y27333
X354500Y17333
X334500Y57333
X294500Y57333
X294500Y47333
X294500Y37333
X294500Y27333
X294500Y17333
X274500Y17333
X274500Y27333
X274500Y37333
X274500Y47333
X274500Y57333
X274500Y67333
X274500Y77333
X274500Y87333
X274500Y97333
X274500Y107333
X274500Y117333
X274500Y127333
X274500Y137333
X274500Y147333
X259500Y147333
X259500Y127333
X294500Y127333
X294500Y117333
X294500Y107333
X294500Y97333
X294500Y87333
X294500Y77333
X294500Y67333
X334500Y97333
X334500Y107333
X314500Y107333
X294500Y137333
X294500Y147333
X294500Y157333
X294500Y167333
X294500Y177333
X294500Y187333
X294500Y197333
X294500Y207333
X309500Y197333
X339500Y197333
X354500Y197333
X354500Y187333
X354500Y177333
X354500Y167333
X309500Y157333
X274500Y182333
X264500Y182333
X254500Y182333
X244500Y182333
X234500Y182333
X224500Y182333
X214500Y182333
X204500Y182333
X194500Y167333
X194500Y157333
X194500Y147333
X194500Y137333
X194500Y127333
X194500Y117333
X194500Y107333
X194500Y97333
X194500Y87333
X194500Y77333
X194500Y67333
X194500Y57333
X194500Y47333
X194500Y37333
X194500Y27333
X194500Y17333
X214500Y17333
X214500Y27333
X214500Y37333
X214500Y47333
X214500Y57333
X214500Y67333
X214500Y77333
X214500Y87333
X214500Y97333
X214500Y107333
X214500Y117333
X214500Y127333
X214500Y137333
X214500Y147333
X184500Y187333
X164500Y187333
X144500Y197333
X144500Y207333
X164500Y204833
X184500Y204833
X204500Y212333
X214500Y212333
X224500Y212333
X234500Y212333
X244500Y212333
X254500Y212333
X264500Y212333
X274500Y212333
X279500Y232333
X279500Y242333
X279500Y252333
X279500Y262333
X279500Y272333
X279500Y282333
X279500Y292333
X279500Y302333
X264500Y302333
X264500Y292333
X264500Y282333
X264500Y272333
X264500Y262333
X264500Y252333
X264500Y242333
X254500Y232333
X234500Y232333
X234500Y242333
X234500Y252333
X234500Y262333
X234500Y272333
X234500Y282333
X234500Y292333
X234500Y302333
X219500Y302333
X219500Y292333
X219500Y282333
X219500Y272333
X219500Y262333
X219500Y252333
X219500Y242333
X209500Y232333
X189500Y232333
X189500Y242333
X189500Y252333
X189500Y262333
X189500Y272333
X189500Y282333
X189500Y292333
X189500Y302333
X174500Y302333
X174500Y292333
X174500Y282333
X174500Y272333
X174500Y262333
X174500Y252333
X174500Y242333
X164500Y232333
X144500Y232333
X144500Y242333
X129500Y242333
X119500Y232333
X99500Y232333
X99500Y242333
X87000Y242333
X87000Y232333
X87000Y222333
X114500Y207333
X114500Y197333
X114500Y187333
X114500Y177333
X114500Y167333
X114500Y157333
X114500Y147333
X114500Y137333
X114500Y127333
X114500Y117333
X114500Y107333
X114500Y97333
X114500Y87333
X114500Y77333
X114500Y67333
X114500Y57333
X114500Y47333
X114500Y37333
X114500Y27333
X114500Y17333
X134500Y17333
X134500Y27333
X134500Y37333
X134500Y47333
X134500Y57333
X134500Y67333
X134500Y77333
X134500Y87333
X134500Y97333
X134500Y107333
X134500Y117333
X134500Y127333
X134500Y137333
X134500Y147333
X134500Y157333
X134500Y167333
X94500Y107333
X74500Y107333
X54500Y107333
X54500Y97333
X54500Y87333
X54500Y77333
X54500Y67333
X54500Y57333
X54500Y47333
X54500Y37333
X54500Y27333
X54500Y17333
X69500Y37333
X99500Y37333
X99500Y77333
X99500Y87333
X69500Y87333
X69500Y77333
X54500Y117333
X54500Y127333
X54500Y137333
X54500Y147333
X54500Y157333
X54500Y167333
X54500Y177333
X54500Y187333
X54500Y197333
X54500Y207333
X47000Y222333
X47000Y232333
X47000Y242333
X54500Y252333
X64500Y252333
X77000Y252333
X87000Y252333
X99500Y252333
X99500Y262333
X99500Y272333
X99500Y282333
X99500Y292333
X99500Y302333
X82000Y291833
X64500Y292333
X54500Y292333
X54500Y302333
X64500Y302333
X82000Y272833
X129500Y272333
X129500Y262333
X129500Y252333
X144500Y252333
X144500Y262333
X144500Y272333
X144500Y282333
X144500Y292333
X144500Y302333
X129500Y302333
X129500Y292333
X129500Y282333
X299500Y232333
X309500Y242333
X324500Y242333
X324500Y232333
X324500Y222333
X344500Y222333
X354500Y232333
X354500Y242333
X354500Y252333
X354500Y262333
X354500Y272333
X354500Y282333
X354500Y292333
X354500Y302333
X324500Y302333
X324500Y292333
X324500Y282333
X324500Y272333
X324500Y262333
X324500Y252333
X309500Y252333
X309500Y262333
X309500Y272333
X309500Y282333
X309500Y292333
X309500Y302333
X354500Y207333
T03
X254459Y167320
X244459Y167320
X234459Y167320
T04
X365600Y209533
X383400Y209533
X379500Y184833
X369500Y184833
X369500Y174833
X379500Y174833
X379500Y164833
X369500Y164833
X369500Y154833
X379500Y154833
X379500Y144833
X369500Y144833
X369500Y134833
X379500Y134833
X379500Y87255
X379500Y77412
X383400Y235133
X365600Y235133
X365600Y249533
X383400Y249533
X383400Y275133
X365600Y275133
X24500Y254833
X24500Y244833
X24500Y234833
X24500Y224833
X24500Y214833
X24500Y204833
X24500Y194833
X14500Y194833
X14500Y204833
X14500Y214833
X14500Y224833
X14500Y234833
X14500Y244833
X14500Y254833
X14500Y184833
X14500Y174833
X14500Y164833
X14500Y154833
X14500Y144833
X14500Y134833
X14500Y124833
X24500Y124833
X24500Y134833
X24500Y144833
X24500Y154833
X24500Y164833
X24500Y174833
X24500Y184833
X24500Y114833
X24500Y104833
X24500Y94833
X24500Y84833
X24500Y74833
X24500Y64833
X14500Y64833
X14500Y74833
X14500Y84833
X14500Y94833
X14500Y104833
X14500Y114833
T05
X17000Y17333
X17000Y302333
X382000Y302333
X382000Y17333
M30
