%TF.GenerationSoftware,KiCad,Pcbnew,(5.1.10-1-10_14)*%
%TF.CreationDate,2021-10-31T16:46:36+01:00*%
%TF.ProjectId,io_board,696f5f62-6f61-4726-942e-6b696361645f,rev?*%
%TF.SameCoordinates,Original*%
%TF.FileFunction,Copper,L1,Top*%
%TF.FilePolarity,Positive*%
%FSLAX46Y46*%
G04 Gerber Fmt 4.6, Leading zero omitted, Abs format (unit mm)*
G04 Created by KiCad (PCBNEW (5.1.10-1-10_14)) date 2021-10-31 16:46:36*
%MOMM*%
%LPD*%
G01*
G04 APERTURE LIST*
%TA.AperFunction,ComponentPad*%
%ADD10C,1.800000*%
%TD*%
%TA.AperFunction,ComponentPad*%
%ADD11R,1.800000X1.800000*%
%TD*%
%TA.AperFunction,ComponentPad*%
%ADD12O,1.600000X1.600000*%
%TD*%
%TA.AperFunction,ComponentPad*%
%ADD13C,1.600000*%
%TD*%
%TA.AperFunction,ComponentPad*%
%ADD14O,1.700000X1.700000*%
%TD*%
%TA.AperFunction,ComponentPad*%
%ADD15R,1.700000X1.700000*%
%TD*%
%TA.AperFunction,ComponentPad*%
%ADD16R,1.600000X1.600000*%
%TD*%
%TA.AperFunction,ComponentPad*%
%ADD17C,3.300000*%
%TD*%
%TA.AperFunction,ComponentPad*%
%ADD18C,1.524000*%
%TD*%
%TA.AperFunction,ViaPad*%
%ADD19C,0.600000*%
%TD*%
%TA.AperFunction,ViaPad*%
%ADD20C,0.800000*%
%TD*%
%TA.AperFunction,Conductor*%
%ADD21C,1.000000*%
%TD*%
%TA.AperFunction,Conductor*%
%ADD22C,0.250000*%
%TD*%
%TA.AperFunction,Conductor*%
%ADD23C,0.500000*%
%TD*%
%TA.AperFunction,Conductor*%
%ADD24C,0.254000*%
%TD*%
%TA.AperFunction,Conductor*%
%ADD25C,0.100000*%
%TD*%
G04 APERTURE END LIST*
D10*
%TO.P,D6,2*%
%TO.N,/PA5*%
X15240000Y50546000D03*
D11*
%TO.P,D6,1*%
%TO.N,Net-(D6-Pad1)*%
X12700000Y50546000D03*
%TD*%
D10*
%TO.P,D8,2*%
%TO.N,/PA7*%
X5080000Y50546000D03*
D11*
%TO.P,D8,1*%
%TO.N,Net-(D8-Pad1)*%
X2540000Y50546000D03*
%TD*%
D10*
%TO.P,D7,2*%
%TO.N,/PA6*%
X10160000Y50546000D03*
D11*
%TO.P,D7,1*%
%TO.N,Net-(D7-Pad1)*%
X7620000Y50546000D03*
%TD*%
D10*
%TO.P,D5,2*%
%TO.N,/PA4*%
X20320000Y50546000D03*
D11*
%TO.P,D5,1*%
%TO.N,Net-(D5-Pad1)*%
X17780000Y50546000D03*
%TD*%
D10*
%TO.P,D4,2*%
%TO.N,/PA3*%
X25400000Y50546000D03*
D11*
%TO.P,D4,1*%
%TO.N,Net-(D4-Pad1)*%
X22860000Y50546000D03*
%TD*%
D10*
%TO.P,D3,2*%
%TO.N,/PA2*%
X30480000Y50546000D03*
D11*
%TO.P,D3,1*%
%TO.N,Net-(D3-Pad1)*%
X27940000Y50546000D03*
%TD*%
D10*
%TO.P,D2,2*%
%TO.N,/PA1*%
X35560000Y50546000D03*
D11*
%TO.P,D2,1*%
%TO.N,Net-(D2-Pad1)*%
X33020000Y50546000D03*
%TD*%
D10*
%TO.P,D1,2*%
%TO.N,/PA0*%
X40640000Y50546000D03*
D11*
%TO.P,D1,1*%
%TO.N,Net-(D1-Pad1)*%
X38100000Y50546000D03*
%TD*%
D12*
%TO.P,R12,2*%
%TO.N,GND*%
X9906000Y38608000D03*
D13*
%TO.P,R12,1*%
%TO.N,Net-(D8-Pad1)*%
X9906000Y46228000D03*
%TD*%
D12*
%TO.P,R11,2*%
%TO.N,GND*%
X12954000Y38608000D03*
D13*
%TO.P,R11,1*%
%TO.N,Net-(D7-Pad1)*%
X12954000Y46228000D03*
%TD*%
D12*
%TO.P,R10,2*%
%TO.N,GND*%
X16002000Y38608000D03*
D13*
%TO.P,R10,1*%
%TO.N,Net-(D6-Pad1)*%
X16002000Y46228000D03*
%TD*%
D12*
%TO.P,R9,2*%
%TO.N,GND*%
X19050000Y38608000D03*
D13*
%TO.P,R9,1*%
%TO.N,Net-(D5-Pad1)*%
X19050000Y46228000D03*
%TD*%
D12*
%TO.P,R8,2*%
%TO.N,GND*%
X22098000Y38608000D03*
D13*
%TO.P,R8,1*%
%TO.N,Net-(D4-Pad1)*%
X22098000Y46228000D03*
%TD*%
D12*
%TO.P,R7,2*%
%TO.N,GND*%
X25146000Y38608000D03*
D13*
%TO.P,R7,1*%
%TO.N,Net-(D3-Pad1)*%
X25146000Y46228000D03*
%TD*%
D12*
%TO.P,R6,2*%
%TO.N,GND*%
X28194000Y38608000D03*
D13*
%TO.P,R6,1*%
%TO.N,Net-(D2-Pad1)*%
X28194000Y46228000D03*
%TD*%
D12*
%TO.P,R5,2*%
%TO.N,GND*%
X31242000Y38608000D03*
D13*
%TO.P,R5,1*%
%TO.N,Net-(D1-Pad1)*%
X31242000Y46228000D03*
%TD*%
D12*
%TO.P,R4,2*%
%TO.N,Net-(R4-Pad2)*%
X59436000Y26670000D03*
D13*
%TO.P,R4,1*%
%TO.N,+5V*%
X59436000Y19050000D03*
%TD*%
D12*
%TO.P,R3,2*%
%TO.N,Net-(R3-Pad2)*%
X10160000Y17018000D03*
D13*
%TO.P,R3,1*%
%TO.N,+5V*%
X17780000Y17018000D03*
%TD*%
D12*
%TO.P,R2,2*%
%TO.N,PS2_DATA*%
X64008000Y39878000D03*
D13*
%TO.P,R2,1*%
%TO.N,+5V*%
X71628000Y39878000D03*
%TD*%
D12*
%TO.P,R1,2*%
%TO.N,Net-(J3-Pad5)*%
X54102000Y46990000D03*
D13*
%TO.P,R1,1*%
%TO.N,+5V*%
X54102000Y39370000D03*
%TD*%
D14*
%TO.P,J2,12*%
%TO.N,/PA6*%
X56388000Y53594000D03*
%TO.P,J2,11*%
%TO.N,/PA0*%
X56388000Y51054000D03*
%TO.P,J2,10*%
%TO.N,/PA7*%
X53848000Y53594000D03*
%TO.P,J2,9*%
%TO.N,/PA1*%
X53848000Y51054000D03*
%TO.P,J2,8*%
%TO.N,GND*%
X51308000Y53594000D03*
%TO.P,J2,7*%
%TO.N,/PA2*%
X51308000Y51054000D03*
%TO.P,J2,6*%
%TO.N,/CA1*%
X48768000Y53594000D03*
%TO.P,J2,5*%
%TO.N,/PA3*%
X48768000Y51054000D03*
%TO.P,J2,4*%
%TO.N,/CA2*%
X46228000Y53594000D03*
%TO.P,J2,3*%
%TO.N,/PA4*%
X46228000Y51054000D03*
%TO.P,J2,2*%
%TO.N,+5V*%
X43688000Y53594000D03*
D15*
%TO.P,J2,1*%
%TO.N,/PA5*%
X43688000Y51054000D03*
%TD*%
D13*
%TO.P,C4,2*%
%TO.N,GND*%
X7032000Y38862000D03*
%TO.P,C4,1*%
%TO.N,+5V*%
X2032000Y38862000D03*
%TD*%
%TO.P,C3,2*%
%TO.N,GND*%
X78914000Y39878000D03*
%TO.P,C3,1*%
%TO.N,+5V*%
X73914000Y39878000D03*
%TD*%
%TO.P,C2,2*%
%TO.N,GND*%
X64008000Y51642000D03*
%TO.P,C2,1*%
%TO.N,+5V*%
X64008000Y56642000D03*
%TD*%
%TO.P,C1,2*%
%TO.N,GND*%
X56722000Y39878000D03*
%TO.P,C1,1*%
%TO.N,+5V*%
X61722000Y39878000D03*
%TD*%
D12*
%TO.P,U1,16*%
%TO.N,+5V*%
X63309500Y36576000D03*
%TO.P,U1,8*%
%TO.N,GND*%
X55689500Y18796000D03*
%TO.P,U1,15*%
%TO.N,Net-(U1-Pad15)*%
X63309500Y34036000D03*
%TO.P,U1,7*%
%TO.N,/SS1*%
X55689500Y21336000D03*
%TO.P,U1,14*%
%TO.N,/SS7*%
X63309500Y31496000D03*
%TO.P,U1,6*%
%TO.N,Net-(R4-Pad2)*%
X55689500Y23876000D03*
%TO.P,U1,13*%
%TO.N,/SS6*%
X63309500Y28956000D03*
%TO.P,U1,5*%
%TO.N,~SLOT_SEL~*%
X55689500Y26416000D03*
%TO.P,U1,12*%
%TO.N,/SS5*%
X63309500Y26416000D03*
%TO.P,U1,4*%
%TO.N,~SLOT_SEL~*%
X55689500Y28956000D03*
%TO.P,U1,11*%
%TO.N,/SS4*%
X63309500Y23876000D03*
%TO.P,U1,3*%
%TO.N,LED3*%
X55689500Y31496000D03*
%TO.P,U1,10*%
%TO.N,/SS3*%
X63309500Y21336000D03*
%TO.P,U1,2*%
%TO.N,LED2*%
X55689500Y34036000D03*
%TO.P,U1,9*%
%TO.N,/SS2*%
X63309500Y18796000D03*
D16*
%TO.P,U1,1*%
%TO.N,LED1*%
X55689500Y36576000D03*
%TD*%
D12*
%TO.P,U3,14*%
%TO.N,+5V*%
X67627500Y58293000D03*
%TO.P,U3,7*%
%TO.N,GND*%
X60007500Y43053000D03*
%TO.P,U3,13*%
%TO.N,PS2_DATA*%
X67627500Y55753000D03*
%TO.P,U3,6*%
%TO.N,Net-(U3-Pad6)*%
X60007500Y45593000D03*
%TO.P,U3,12*%
%TO.N,Net-(U3-Pad11)*%
X67627500Y53213000D03*
%TO.P,U3,5*%
%TO.N,GND*%
X60007500Y48133000D03*
%TO.P,U3,11*%
%TO.N,Net-(U3-Pad11)*%
X67627500Y50673000D03*
%TO.P,U3,4*%
%TO.N,Net-(U2-Pad19)*%
X60007500Y50673000D03*
%TO.P,U3,10*%
%TO.N,Net-(U2-Pad17)*%
X67627500Y48133000D03*
%TO.P,U3,3*%
%TO.N,Net-(U3-Pad2)*%
X60007500Y53213000D03*
%TO.P,U3,9*%
%TO.N,GND*%
X67627500Y45593000D03*
%TO.P,U3,2*%
%TO.N,Net-(U3-Pad2)*%
X60007500Y55753000D03*
%TO.P,U3,8*%
%TO.N,Net-(U3-Pad8)*%
X67627500Y43053000D03*
D16*
%TO.P,U3,1*%
%TO.N,Net-(J3-Pad5)*%
X60007500Y58293000D03*
%TD*%
D12*
%TO.P,U2,40*%
%TO.N,/CA1*%
X50800000Y20320000D03*
%TO.P,U2,20*%
%TO.N,+5V*%
X2540000Y35560000D03*
%TO.P,U2,39*%
%TO.N,/CA2*%
X48260000Y20320000D03*
%TO.P,U2,19*%
%TO.N,Net-(U2-Pad19)*%
X5080000Y35560000D03*
%TO.P,U2,38*%
%TO.N,A0*%
X45720000Y20320000D03*
%TO.P,U2,18*%
%TO.N,~SINT~*%
X7620000Y35560000D03*
%TO.P,U2,37*%
%TO.N,A1*%
X43180000Y20320000D03*
%TO.P,U2,17*%
%TO.N,Net-(U2-Pad17)*%
X10160000Y35560000D03*
%TO.P,U2,36*%
%TO.N,A2*%
X40640000Y20320000D03*
%TO.P,U2,16*%
%TO.N,~CONF~*%
X12700000Y35560000D03*
%TO.P,U2,35*%
%TO.N,A3*%
X38100000Y20320000D03*
%TO.P,U2,15*%
%TO.N,MOSI*%
X15240000Y35560000D03*
%TO.P,U2,34*%
%TO.N,~RESET~*%
X35560000Y20320000D03*
%TO.P,U2,14*%
%TO.N,MISO*%
X17780000Y35560000D03*
%TO.P,U2,33*%
%TO.N,D0*%
X33020000Y20320000D03*
%TO.P,U2,13*%
%TO.N,LED4*%
X20320000Y35560000D03*
%TO.P,U2,32*%
%TO.N,D1*%
X30480000Y20320000D03*
%TO.P,U2,12*%
%TO.N,LED3*%
X22860000Y35560000D03*
%TO.P,U2,31*%
%TO.N,D2*%
X27940000Y20320000D03*
%TO.P,U2,11*%
%TO.N,LED2*%
X25400000Y35560000D03*
%TO.P,U2,30*%
%TO.N,D3*%
X25400000Y20320000D03*
%TO.P,U2,10*%
%TO.N,LED1*%
X27940000Y35560000D03*
%TO.P,U2,29*%
%TO.N,D4*%
X22860000Y20320000D03*
%TO.P,U2,9*%
%TO.N,/PA7*%
X30480000Y35560000D03*
%TO.P,U2,28*%
%TO.N,D5*%
X20320000Y20320000D03*
%TO.P,U2,8*%
%TO.N,/PA6*%
X33020000Y35560000D03*
%TO.P,U2,27*%
%TO.N,D6*%
X17780000Y20320000D03*
%TO.P,U2,7*%
%TO.N,/PA5*%
X35560000Y35560000D03*
%TO.P,U2,26*%
%TO.N,D7*%
X15240000Y20320000D03*
%TO.P,U2,6*%
%TO.N,/PA4*%
X38100000Y35560000D03*
%TO.P,U2,25*%
%TO.N,CLK_12M*%
X12700000Y20320000D03*
%TO.P,U2,5*%
%TO.N,/PA3*%
X40640000Y35560000D03*
%TO.P,U2,24*%
%TO.N,Net-(R3-Pad2)*%
X10160000Y20320000D03*
%TO.P,U2,4*%
%TO.N,/PA2*%
X43180000Y35560000D03*
%TO.P,U2,23*%
%TO.N,~SLOT_SEL~*%
X7620000Y20320000D03*
%TO.P,U2,3*%
%TO.N,/PA1*%
X45720000Y35560000D03*
%TO.P,U2,22*%
%TO.N,R~W~*%
X5080000Y20320000D03*
%TO.P,U2,2*%
%TO.N,/PA0*%
X48260000Y35560000D03*
%TO.P,U2,21*%
%TO.N,~SLOT_IRQ~*%
X2540000Y20320000D03*
D16*
%TO.P,U2,1*%
%TO.N,GND*%
X50800000Y35560000D03*
%TD*%
D14*
%TO.P,J4,20*%
%TO.N,/SS7*%
X71374000Y13716000D03*
%TO.P,J4,19*%
%TO.N,GND*%
X68834000Y13716000D03*
%TO.P,J4,18*%
%TO.N,/SS6*%
X71374000Y16256000D03*
%TO.P,J4,17*%
%TO.N,/SS5*%
X68834000Y16256000D03*
%TO.P,J4,16*%
%TO.N,GND*%
X71374000Y18796000D03*
%TO.P,J4,15*%
%TO.N,/SS4*%
X68834000Y18796000D03*
%TO.P,J4,14*%
%TO.N,/SS3*%
X71374000Y21336000D03*
%TO.P,J4,13*%
%TO.N,Net-(J4-Pad13)*%
X68834000Y21336000D03*
%TO.P,J4,12*%
%TO.N,/SS2*%
X71374000Y23876000D03*
%TO.P,J4,11*%
%TO.N,/SS1*%
X68834000Y23876000D03*
%TO.P,J4,10*%
%TO.N,+5V*%
X71374000Y26416000D03*
%TO.P,J4,9*%
%TO.N,~SINT~*%
X68834000Y26416000D03*
%TO.P,J4,8*%
%TO.N,+5V*%
X71374000Y28956000D03*
%TO.P,J4,7*%
%TO.N,MISO*%
X68834000Y28956000D03*
%TO.P,J4,6*%
%TO.N,GND*%
X71374000Y31496000D03*
%TO.P,J4,5*%
%TO.N,MOSI*%
X68834000Y31496000D03*
%TO.P,J4,4*%
%TO.N,GND*%
X71374000Y34036000D03*
%TO.P,J4,3*%
%TO.N,LED4*%
X68834000Y34036000D03*
%TO.P,J4,2*%
%TO.N,GND*%
X71374000Y36576000D03*
D15*
%TO.P,J4,1*%
%TO.N,~CONF~*%
X68834000Y36576000D03*
%TD*%
D17*
%TO.P,J3,7*%
%TO.N,N/C*%
X77850000Y50800000D03*
D18*
%TO.P,J3,1*%
%TO.N,PS2_DATA*%
X74050000Y52100000D03*
%TO.P,J3,2*%
%TO.N,Net-(J3-Pad2)*%
X74050000Y49500000D03*
%TO.P,J3,5*%
%TO.N,Net-(J3-Pad5)*%
X71550000Y54200000D03*
%TO.P,J3,3*%
%TO.N,GND*%
X74050000Y54200000D03*
%TO.P,J3,6*%
%TO.N,Net-(J3-Pad6)*%
X71550000Y47400000D03*
%TO.P,J3,4*%
%TO.N,+5V*%
X74050000Y47400000D03*
D17*
%TO.P,J3,7*%
%TO.N,N/C*%
X77050000Y44050000D03*
X77050000Y57550000D03*
%TD*%
D14*
%TO.P,J1,50*%
%TO.N,~NMI~*%
X17272000Y4064000D03*
%TO.P,J1,49*%
%TO.N,~RESET~*%
X17272000Y6604000D03*
%TO.P,J1,48*%
%TO.N,~SLOT_IRQ~*%
X19812000Y4064000D03*
%TO.P,J1,47*%
%TO.N,SYNC*%
X19812000Y6604000D03*
%TO.P,J1,46*%
%TO.N,EX3*%
X22352000Y4064000D03*
%TO.P,J1,45*%
%TO.N,~IRQ~*%
X22352000Y6604000D03*
%TO.P,J1,44*%
%TO.N,EX2*%
X24892000Y4064000D03*
%TO.P,J1,43*%
%TO.N,R~W~*%
X24892000Y6604000D03*
%TO.P,J1,42*%
%TO.N,CLK_12M*%
X27432000Y4064000D03*
%TO.P,J1,41*%
%TO.N,CLK*%
X27432000Y6604000D03*
%TO.P,J1,40*%
%TO.N,LED4*%
X29972000Y4064000D03*
%TO.P,J1,39*%
%TO.N,BE*%
X29972000Y6604000D03*
%TO.P,J1,38*%
%TO.N,LED3*%
X32512000Y4064000D03*
%TO.P,J1,37*%
%TO.N,RDY*%
X32512000Y6604000D03*
%TO.P,J1,36*%
%TO.N,LED2*%
X35052000Y4064000D03*
%TO.P,J1,35*%
%TO.N,A15*%
X35052000Y6604000D03*
%TO.P,J1,34*%
%TO.N,LED1*%
X37592000Y4064000D03*
%TO.P,J1,33*%
%TO.N,A14*%
X37592000Y6604000D03*
%TO.P,J1,32*%
%TO.N,~SLOT_SEL~*%
X40132000Y4064000D03*
%TO.P,J1,31*%
%TO.N,A13*%
X40132000Y6604000D03*
%TO.P,J1,30*%
%TO.N,~INH~*%
X42672000Y4064000D03*
%TO.P,J1,29*%
%TO.N,A12*%
X42672000Y6604000D03*
%TO.P,J1,28*%
%TO.N,~SSEL~*%
X45212000Y4064000D03*
%TO.P,J1,27*%
%TO.N,A11*%
X45212000Y6604000D03*
%TO.P,J1,26*%
%TO.N,GND*%
X47752000Y4064000D03*
%TO.P,J1,25*%
%TO.N,+5V*%
X47752000Y6604000D03*
%TO.P,J1,24*%
X50292000Y4064000D03*
%TO.P,J1,23*%
%TO.N,GND*%
X50292000Y6604000D03*
%TO.P,J1,22*%
%TO.N,~SLOW~*%
X52832000Y4064000D03*
%TO.P,J1,21*%
%TO.N,A10*%
X52832000Y6604000D03*
%TO.P,J1,20*%
%TO.N,EX1*%
X55372000Y4064000D03*
%TO.P,J1,19*%
%TO.N,A9*%
X55372000Y6604000D03*
%TO.P,J1,18*%
%TO.N,EX0*%
X57912000Y4064000D03*
%TO.P,J1,17*%
%TO.N,A8*%
X57912000Y6604000D03*
%TO.P,J1,16*%
%TO.N,D7*%
X60452000Y4064000D03*
%TO.P,J1,15*%
%TO.N,A7*%
X60452000Y6604000D03*
%TO.P,J1,14*%
%TO.N,D6*%
X62992000Y4064000D03*
%TO.P,J1,13*%
%TO.N,A6*%
X62992000Y6604000D03*
%TO.P,J1,12*%
%TO.N,D5*%
X65532000Y4064000D03*
%TO.P,J1,11*%
%TO.N,A5*%
X65532000Y6604000D03*
%TO.P,J1,10*%
%TO.N,D4*%
X68072000Y4064000D03*
%TO.P,J1,9*%
%TO.N,A4*%
X68072000Y6604000D03*
%TO.P,J1,8*%
%TO.N,D3*%
X70612000Y4064000D03*
%TO.P,J1,7*%
%TO.N,A3*%
X70612000Y6604000D03*
%TO.P,J1,6*%
%TO.N,D2*%
X73152000Y4064000D03*
%TO.P,J1,5*%
%TO.N,A2*%
X73152000Y6604000D03*
%TO.P,J1,4*%
%TO.N,D1*%
X75692000Y4064000D03*
%TO.P,J1,3*%
%TO.N,A1*%
X75692000Y6604000D03*
%TO.P,J1,2*%
%TO.N,D0*%
X78232000Y4064000D03*
D15*
%TO.P,J1,1*%
%TO.N,A0*%
X78232000Y6604000D03*
%TD*%
D19*
%TO.N,A3*%
X70612000Y9200957D03*
%TO.N,A2*%
X73152000Y8890000D03*
%TO.N,A1*%
X75218047Y8522055D03*
%TO.N,LED4*%
X24130000Y27940000D03*
X29689519Y10804990D03*
X24436570Y33223929D03*
X53886482Y32415120D03*
X58927994Y33645010D03*
X24130000Y20964990D03*
%TO.N,LED3*%
X25107987Y27940000D03*
X30743450Y10804990D03*
X25273000Y33845500D03*
X26670000Y20964990D03*
%TO.N,LED2*%
X26670000Y34290000D03*
X26162008Y27940000D03*
X31602346Y10804990D03*
X29210000Y20964990D03*
%TO.N,LED1*%
X27178000Y27940000D03*
X32509556Y10802546D03*
X28956000Y34567076D03*
X31750000Y20964990D03*
%TO.N,~RESET~*%
X33528000Y10668000D03*
%TO.N,R~W~*%
X11430000Y13970000D03*
X18288000Y7874000D03*
%TO.N,~SLOT_SEL~*%
X38956999Y10827001D03*
X52070000Y22860000D03*
%TO.N,/PA6*%
X49158990Y38100000D03*
%TO.N,/PA7*%
X48258966Y39116000D03*
%TO.N,/PA5*%
X43632654Y38410957D03*
%TO.N,/PA4*%
X45457648Y38244547D03*
%TO.N,/CA1*%
X46845001Y27541001D03*
X47341126Y36479605D03*
%TO.N,/PA3*%
X46707660Y38158509D03*
%TO.N,/CA2*%
X44594999Y27576999D03*
X44781684Y37114674D03*
%TO.N,/PA2*%
X47908978Y37846000D03*
%TO.N,/PA1*%
X48514000Y37084000D03*
%TO.N,~SINT~*%
X58655619Y27940000D03*
%TO.N,MOSI*%
X53848000Y30480000D03*
X59944000Y33782000D03*
%TO.N,MISO*%
X58674000Y28955996D03*
%TO.N,~CONF~*%
X52832000Y30734000D03*
X64516000Y37592000D03*
X58674000Y36576000D03*
%TO.N,/SS7*%
X67183000Y26225500D03*
%TO.N,/SS6*%
X65786000Y26162000D03*
%TO.N,/SS4*%
X65278000Y18986498D03*
%TO.N,~SLOT_IRQ~*%
X8655499Y13481499D03*
%TO.N,CLK_12M*%
X23114000Y10668000D03*
%TO.N,Net-(U2-Pad19)*%
X50546000Y39370000D03*
%TO.N,Net-(U2-Pad17)*%
X50546000Y38100000D03*
D20*
X64479010Y48050188D03*
%TD*%
D21*
%TO.N,+5V*%
X50292000Y4064000D02*
X47752000Y6604000D01*
D22*
X65659000Y58293000D02*
X64008000Y56642000D01*
X67627500Y58293000D02*
X65659000Y58293000D01*
%TO.N,D7*%
X16365001Y19194999D02*
X16039999Y19520001D01*
X26204389Y17844966D02*
X24300799Y17844966D01*
X56736999Y7128487D02*
X49641486Y14224000D01*
X59087001Y5428999D02*
X57347999Y5428999D01*
X21497189Y18744988D02*
X19593599Y18744988D01*
X24300799Y17844966D02*
X23850789Y18294977D01*
X60452000Y4064000D02*
X59087001Y5428999D01*
X26654399Y17394955D02*
X26204389Y17844966D01*
X28557989Y17394955D02*
X26654399Y17394955D01*
X56736999Y6039999D02*
X56736999Y7128487D01*
X57347999Y5428999D02*
X56736999Y6039999D01*
X19143589Y19194999D02*
X16365001Y19194999D01*
X21947198Y18294978D02*
X21497189Y18744988D01*
X16039999Y19520001D02*
X15240000Y20320000D01*
X19593599Y18744988D02*
X19143589Y19194999D01*
X49641486Y14224000D02*
X31728944Y14224000D01*
X31728944Y14224000D02*
X28557989Y17394955D01*
X23850789Y18294977D02*
X21947198Y18294978D01*
%TO.N,D6*%
X26390787Y18294978D02*
X24487197Y18294979D01*
X49827884Y14674012D02*
X31915343Y14674012D01*
X19795411Y19194999D02*
X18670410Y20320000D01*
X61627001Y5428999D02*
X61627001Y7168001D01*
X62992000Y4064000D02*
X61627001Y5428999D01*
X31915343Y14674012D02*
X28744389Y17844966D01*
X61627001Y7168001D02*
X61016001Y7779001D01*
X56722895Y7779001D02*
X49827884Y14674012D01*
X26840799Y17844966D02*
X26390787Y18294978D01*
X28744389Y17844966D02*
X26840799Y17844966D01*
X61016001Y7779001D02*
X56722895Y7779001D01*
X18670410Y20320000D02*
X17780000Y20320000D01*
X22133599Y18744988D02*
X21683589Y19194999D01*
X24487197Y18294979D02*
X24037189Y18744988D01*
X21683589Y19194999D02*
X19795411Y19194999D01*
X24037189Y18744988D02*
X22133599Y18744988D01*
%TO.N,D5*%
X22319999Y19194999D02*
X21194998Y20320000D01*
X64167001Y7168001D02*
X63105990Y8229012D01*
X32101743Y15124023D02*
X28930789Y18294977D01*
X24673598Y18744989D02*
X24223589Y19194999D01*
X28930789Y18294977D02*
X27027199Y18294977D01*
X24223589Y19194999D02*
X22319999Y19194999D01*
X50014284Y15124023D02*
X32101743Y15124023D01*
X63105990Y8229012D02*
X56909295Y8229012D01*
X27027199Y18294977D02*
X26577187Y18744989D01*
X65532000Y4064000D02*
X64167001Y5428999D01*
X64167001Y5428999D02*
X64167001Y7168001D01*
X56909295Y8229012D02*
X50014284Y15124023D01*
X26577187Y18744989D02*
X24673598Y18744989D01*
X21194998Y20320000D02*
X20320000Y20320000D01*
%TO.N,D4*%
X66096001Y7779001D02*
X64345712Y7779001D01*
X23753233Y20320000D02*
X22860000Y20320000D01*
X29117189Y18744988D02*
X27213599Y18744988D01*
X24878233Y19195000D02*
X23753233Y20320000D01*
X68072000Y4064000D02*
X66707001Y5428999D01*
X66707001Y7168001D02*
X66096001Y7779001D01*
X66707001Y5428999D02*
X66707001Y7168001D01*
X57095695Y8679021D02*
X50200682Y15574034D01*
X32288143Y15574034D02*
X29117189Y18744988D01*
X27213599Y18744988D02*
X26763587Y19195000D01*
X50200682Y15574034D02*
X32288143Y15574034D01*
X26763587Y19195000D02*
X24878233Y19195000D01*
X64345712Y7779001D02*
X63445692Y8679021D01*
X63445692Y8679021D02*
X57095695Y8679021D01*
%TO.N,D3*%
X57282095Y9129032D02*
X50387082Y16024045D01*
X32474543Y16024045D02*
X29303589Y19194999D01*
X66282401Y8229012D02*
X64532112Y8229012D01*
X70612000Y4064000D02*
X69247001Y5428999D01*
X27399999Y19194999D02*
X26274998Y20320000D01*
X50387082Y16024045D02*
X32474543Y16024045D01*
X69247001Y5428999D02*
X69247001Y7168001D01*
X66485490Y8025923D02*
X66282401Y8229012D01*
X29303589Y19194999D02*
X27399999Y19194999D01*
X26274998Y20320000D02*
X25400000Y20320000D01*
X68389079Y8025923D02*
X66485490Y8025923D01*
X64532112Y8229012D02*
X63632092Y9129032D01*
X63632092Y9129032D02*
X57282095Y9129032D01*
X69247001Y7168001D02*
X68389079Y8025923D01*
%TO.N,A3*%
X67044690Y9375956D02*
X70437001Y9375956D01*
X50925407Y17394955D02*
X57841297Y10479065D01*
X70437001Y9375956D02*
X70612000Y9200957D01*
X57841297Y10479065D02*
X64191292Y10479065D01*
X64191292Y10479065D02*
X65091311Y9579045D01*
X65091311Y9579045D02*
X66841601Y9579045D01*
X38100000Y20320000D02*
X41025045Y17394955D01*
X66841601Y9579045D02*
X67044690Y9375956D01*
X41025045Y17394955D02*
X50925407Y17394955D01*
%TO.N,D2*%
X71976999Y5239001D02*
X71976999Y6978003D01*
X57468495Y9579043D02*
X50573482Y16474056D01*
X73152000Y4064000D02*
X71976999Y5239001D01*
X71976999Y6978003D02*
X71161033Y7793969D01*
X71161033Y7793969D02*
X69798799Y7793969D01*
X69798799Y7793969D02*
X69116834Y8475934D01*
X66468801Y8679023D02*
X64718511Y8679023D01*
X63818492Y9579043D02*
X57468495Y9579043D01*
X50573482Y16474056D02*
X32681995Y16474056D01*
X66671890Y8475934D02*
X66468801Y8679023D01*
X28836051Y20320000D02*
X27940000Y20320000D01*
X64718511Y8679023D02*
X63818492Y9579043D01*
X32681995Y16474056D02*
X28836051Y20320000D01*
X69116834Y8475934D02*
X66671890Y8475934D01*
%TO.N,A2*%
X67231090Y9825967D02*
X72216033Y9825967D01*
X65277711Y10029056D02*
X67028001Y10029056D01*
X58027692Y10929075D02*
X64377693Y10929075D01*
X64377693Y10929075D02*
X65277711Y10029056D01*
X67028001Y10029056D02*
X67231090Y9825967D01*
X51111801Y17844966D02*
X58027692Y10929075D01*
X40640000Y20320000D02*
X43115033Y17844966D01*
X43115033Y17844966D02*
X51111801Y17844966D01*
X72216033Y9825967D02*
X73152000Y8890000D01*
%TO.N,D1*%
X64004892Y10029054D02*
X57654895Y10029054D01*
X33875933Y16924067D02*
X30480000Y20320000D01*
X57654895Y10029054D02*
X50759882Y16924067D01*
X73209409Y8243980D02*
X69985199Y8243980D01*
X64904911Y9129034D02*
X64004892Y10029054D01*
X66858290Y8925945D02*
X66655201Y9129034D01*
X50759882Y16924067D02*
X33875933Y16924067D01*
X75692000Y4064000D02*
X74327001Y5428999D01*
X69303234Y8925945D02*
X66858290Y8925945D01*
X74327001Y5428999D02*
X74327001Y7126388D01*
X66655201Y9129034D02*
X64904911Y9129034D01*
X74327001Y7126388D02*
X73209409Y8243980D01*
X69985199Y8243980D02*
X69303234Y8925945D01*
%TO.N,A1*%
X73014113Y10725989D02*
X75218047Y8522055D01*
X44755012Y18744988D02*
X51484601Y18744988D01*
X67400801Y10929078D02*
X67603890Y10725989D01*
X65650511Y10929078D02*
X67400801Y10929078D01*
X43180000Y20320000D02*
X44755012Y18744988D01*
X51484601Y18744988D02*
X58400489Y11829100D01*
X67603890Y10725989D02*
X73014113Y10725989D01*
X64750490Y11829100D02*
X65650511Y10929078D01*
X58400489Y11829100D02*
X64750490Y11829100D01*
%TO.N,D0*%
X76867001Y7120589D02*
X76090537Y7897053D01*
X73777001Y8589999D02*
X73777001Y9190001D01*
X67214401Y10479067D02*
X65464111Y10479067D01*
X73777001Y9190001D02*
X72691024Y10275978D01*
X65464111Y10479067D02*
X64564090Y11379089D01*
X78232000Y4064000D02*
X76867001Y5428999D01*
X34145001Y21445001D02*
X33020000Y20320000D01*
X76090537Y7897053D02*
X74469947Y7897053D01*
X67417490Y10275978D02*
X67214401Y10479067D01*
X74469947Y7897053D02*
X73777001Y8589999D01*
X72691024Y10275978D02*
X67417490Y10275978D01*
X43301433Y18294977D02*
X41765001Y19831409D01*
X64564090Y11379089D02*
X58214089Y11379089D01*
X41765001Y20860001D02*
X41180001Y21445001D01*
X76867001Y5428999D02*
X76867001Y7120589D01*
X41180001Y21445001D02*
X34145001Y21445001D01*
X41765001Y19831409D02*
X41765001Y20860001D01*
X58214089Y11379089D02*
X51298201Y18294977D01*
X51298201Y18294977D02*
X43301433Y18294977D01*
%TO.N,A0*%
X67790290Y11176000D02*
X73660000Y11176000D01*
X64936891Y12279110D02*
X65836911Y11379089D01*
X58610802Y12285632D02*
X58616555Y12279111D01*
X58610791Y12285633D02*
X58610802Y12285632D01*
X58563072Y12302950D02*
X58573950Y12302495D01*
X51955495Y18910509D02*
X52590111Y18275889D01*
X46845001Y19194999D02*
X51671001Y19194999D01*
X73660000Y11176000D02*
X78232000Y6604000D01*
X45720000Y20320000D02*
X46845001Y19194999D01*
X58573950Y12302495D02*
X58588153Y12287056D01*
X58610784Y12285641D02*
X58610791Y12285633D01*
X58616555Y12279111D02*
X64936891Y12279110D01*
X67587201Y11379089D02*
X67790290Y11176000D01*
X51691882Y19174122D02*
X51955495Y18910509D01*
X58555379Y12310643D02*
X58563072Y12302950D01*
X51691878Y19174122D02*
X51691882Y19174122D01*
X65836911Y11379089D02*
X67587201Y11379089D01*
X58555357Y12310643D02*
X58555379Y12310643D01*
X52590111Y18275889D02*
X58555357Y12310643D01*
X58588153Y12287056D02*
X58610784Y12285641D01*
X51671001Y19194999D02*
X51691878Y19174122D01*
%TO.N,LED4*%
X53848000Y32258000D02*
X53848000Y32258000D01*
X28656001Y9771472D02*
X29689519Y10804990D01*
X28656001Y5379999D02*
X28656001Y9771472D01*
X29972000Y4064000D02*
X28656001Y5379999D01*
X22656071Y33223929D02*
X24436570Y33223929D01*
X20320000Y35560000D02*
X22656071Y33223929D01*
X53886482Y32454414D02*
X53886482Y32415120D01*
X53259558Y33042044D02*
X24618455Y33042044D01*
X24618455Y33042044D02*
X24436570Y33223929D01*
X53886482Y32415120D02*
X53259558Y33042044D01*
X68834000Y34036000D02*
X67708999Y35161001D01*
X67708999Y35161001D02*
X60019721Y35161001D01*
X60019721Y35161001D02*
X58927994Y34069274D01*
X58927994Y34069274D02*
X58927994Y33645010D01*
X24130000Y27940000D02*
X24130000Y20964990D01*
%TO.N,LED3*%
X31336999Y9787177D02*
X30743450Y10380726D01*
X30743450Y10380726D02*
X30743450Y10804990D01*
X32512000Y4064000D02*
X31336999Y5239001D01*
X31336999Y5239001D02*
X31336999Y9787177D01*
X24574500Y33845500D02*
X25273000Y33845500D01*
X22860000Y35560000D02*
X24574500Y33845500D01*
X55626000Y31496000D02*
X55626000Y31639898D01*
X25626445Y33492055D02*
X25273000Y33845500D01*
X55689500Y31496000D02*
X53693445Y33492055D01*
X53693445Y33492055D02*
X25626445Y33492055D01*
X25107987Y22527003D02*
X26670000Y20964990D01*
X25107987Y27940000D02*
X25107987Y22527003D01*
%TO.N,LED2*%
X25400000Y35560000D02*
X26670000Y34290000D01*
X35052000Y4064000D02*
X33687001Y5428999D01*
X33687001Y5428999D02*
X33687001Y8720335D01*
X33687001Y8720335D02*
X31602346Y10804990D01*
X27017934Y33942066D02*
X55278066Y33942066D01*
X55278066Y33688066D02*
X55626000Y34036000D01*
X26670000Y34290000D02*
X27017934Y33942066D01*
X26162008Y27940000D02*
X29210000Y24892008D01*
X29210000Y24892008D02*
X29210000Y20964990D01*
%TO.N,LED1*%
X33269103Y10042999D02*
X32509556Y10802546D01*
X33481999Y10042999D02*
X33269103Y10042999D01*
X36416999Y5239001D02*
X36416999Y7107999D01*
X37592000Y4064000D02*
X36416999Y5239001D01*
X36416999Y7107999D02*
X33481999Y10042999D01*
X55626000Y36830000D02*
X53230999Y34434999D01*
X53230999Y34434999D02*
X29088077Y34434999D01*
X27940000Y35560000D02*
X28932924Y34567076D01*
X28932924Y34567076D02*
X28956000Y34567076D01*
X29088077Y34434999D02*
X28956000Y34567076D01*
X31750000Y23368000D02*
X31750000Y20964990D01*
X27178000Y27940000D02*
X31750000Y23368000D01*
%TO.N,~RESET~*%
X32720001Y11475999D02*
X33528000Y10668000D01*
X22815003Y11475999D02*
X32720001Y11475999D01*
X17272000Y6604000D02*
X17943004Y6604000D01*
X17943004Y6604000D02*
X22815003Y11475999D01*
%TO.N,R~W~*%
X17526000Y7874000D02*
X18288000Y7874000D01*
X11430000Y13970000D02*
X17526000Y7874000D01*
%TO.N,~SLOT_SEL~*%
X38956999Y5239001D02*
X38956999Y10827001D01*
X40132000Y4064000D02*
X38956999Y5239001D01*
X38956999Y10827001D02*
X38956999Y10827001D01*
X55372000Y26416000D02*
X55626000Y26416000D01*
X52070000Y23368000D02*
X52070000Y22860000D01*
X55372000Y26670000D02*
X52070000Y23368000D01*
%TO.N,/PA6*%
X10160000Y50546000D02*
X13352999Y47353001D01*
X13352999Y47353001D02*
X13494001Y47353001D01*
X13494001Y47353001D02*
X14079001Y46768001D01*
X33020000Y38608000D02*
X33020000Y35560000D01*
X14079001Y46768001D02*
X14079001Y45109997D01*
X14079001Y45109997D02*
X17269997Y41919001D01*
X29708999Y41919001D02*
X33020000Y38608000D01*
X17269997Y41919001D02*
X29708999Y41919001D01*
X49333989Y45398400D02*
X49333989Y38274999D01*
X53814589Y49878999D02*
X49333989Y45398400D01*
X56388000Y53594000D02*
X55023001Y52229001D01*
X55023001Y52229001D02*
X55023001Y50489999D01*
X55023001Y50489999D02*
X54412001Y49878999D01*
X54412001Y49878999D02*
X53814589Y49878999D01*
X49333989Y38274999D02*
X49158990Y38100000D01*
%TO.N,/PA7*%
X53848000Y53594000D02*
X52672999Y52418999D01*
X48258966Y46265964D02*
X48258966Y39116000D01*
X52672999Y50679997D02*
X48258966Y46265964D01*
X52672999Y52418999D02*
X52672999Y50679997D01*
X27653999Y37482999D02*
X27795001Y37482999D01*
X26271001Y39006999D02*
X27068999Y38209001D01*
X25544999Y39733001D02*
X25686001Y39733001D01*
X27068999Y38067999D02*
X27653999Y37482999D01*
X25686001Y39733001D02*
X26271001Y39148001D01*
X25409001Y39868999D02*
X25544999Y39733001D01*
X27795001Y37482999D02*
X28592999Y36685001D01*
X24390998Y39878000D02*
X24399999Y39868999D01*
X24399999Y39868999D02*
X25409001Y39868999D01*
X22844001Y39868999D02*
X22853002Y39878000D01*
X22853002Y39878000D02*
X24390998Y39878000D01*
X21850998Y39878000D02*
X21859999Y39868999D01*
X21859999Y39868999D02*
X22844001Y39868999D01*
X17638998Y39878000D02*
X21850998Y39878000D01*
X29354999Y36685001D02*
X30480000Y35560000D01*
X8272999Y47353001D02*
X10446001Y47353001D01*
X27068999Y38209001D02*
X27068999Y38067999D01*
X11031001Y46485997D02*
X17638998Y39878000D01*
X26271001Y39148001D02*
X26271001Y39006999D01*
X5080000Y50546000D02*
X8272999Y47353001D01*
X11031001Y46768001D02*
X11031001Y46485997D01*
X28592999Y36685001D02*
X29354999Y36685001D01*
X10446001Y47353001D02*
X11031001Y46768001D01*
%TO.N,/PA5*%
X43688000Y38466303D02*
X43632654Y38410957D01*
X43688000Y51054000D02*
X43688000Y38466303D01*
X15240000Y48655002D02*
X17127001Y46768001D01*
X17127001Y44601997D02*
X19359986Y42369012D01*
X15240000Y50546000D02*
X15240000Y48655002D01*
X19359986Y42369012D02*
X30274988Y42369012D01*
X17127001Y46768001D02*
X17127001Y44601997D01*
X35560000Y37084000D02*
X35560000Y35560000D01*
X30274988Y42369012D02*
X35560000Y37084000D01*
%TO.N,/PA4*%
X38100000Y35814000D02*
X38100000Y35560000D01*
X20320000Y50546000D02*
X19548999Y49774999D01*
X46228000Y51054000D02*
X45378001Y50204001D01*
X45378001Y50204001D02*
X45378001Y38324194D01*
X45378001Y38324194D02*
X45457648Y38244547D01*
X30840977Y42819023D02*
X38100000Y35560000D01*
X20175001Y46372999D02*
X23728977Y42819023D01*
X20175001Y46768001D02*
X20175001Y46372999D01*
X20066000Y46877002D02*
X20175001Y46768001D01*
X20066000Y50292000D02*
X20066000Y46877002D01*
X23728977Y42819023D02*
X30840977Y42819023D01*
X20320000Y50546000D02*
X20066000Y50292000D01*
%TO.N,/CA1*%
X46845001Y24274999D02*
X50800000Y20320000D01*
X46845001Y27541001D02*
X46845001Y24274999D01*
X48768000Y53594000D02*
X47403001Y52229001D01*
X47403001Y52229001D02*
X47403001Y50325411D01*
X46082650Y37738081D02*
X47341126Y36479605D01*
X46082650Y49005060D02*
X46082650Y37738081D01*
X47403001Y50325411D02*
X46082650Y49005060D01*
%TO.N,/PA3*%
X40640000Y35814000D02*
X40640000Y35560000D01*
X25400000Y50163590D02*
X25400000Y50546000D01*
X46707660Y48993660D02*
X46707660Y38158509D01*
X48768000Y51054000D02*
X46707660Y48993660D01*
X23876000Y49022000D02*
X25400000Y50546000D01*
X39981182Y35560000D02*
X32272148Y43269034D01*
X23876000Y45212000D02*
X23876000Y49022000D01*
X32272148Y43269034D02*
X25818966Y43269034D01*
X25818966Y43269034D02*
X23876000Y45212000D01*
X40640000Y35560000D02*
X39981182Y35560000D01*
%TO.N,/CA2*%
X44594999Y23985001D02*
X48260000Y20320000D01*
X44594999Y27576999D02*
X44594999Y23985001D01*
X44863001Y49943999D02*
X44781684Y49862682D01*
X44781684Y49862682D02*
X44781684Y37114674D01*
X46228000Y53594000D02*
X44863001Y52229001D01*
X44863001Y52229001D02*
X44863001Y49943999D01*
%TO.N,/PA2*%
X43180000Y35814000D02*
X43180000Y35560000D01*
X29753002Y50546000D02*
X30480000Y50546000D01*
X47608979Y47354979D02*
X47608979Y38145999D01*
X51308000Y51054000D02*
X47608979Y47354979D01*
X47608979Y38145999D02*
X47908978Y37846000D01*
X26924000Y46990000D02*
X30480000Y50546000D01*
X28783953Y43719045D02*
X26924000Y45578998D01*
X35020955Y43719045D02*
X28783953Y43719045D01*
X26924000Y45578998D02*
X26924000Y46990000D01*
X43180000Y35560000D02*
X35020955Y43719045D01*
%TO.N,/PA1*%
X45720000Y35814000D02*
X45720000Y35560000D01*
X48883978Y38749992D02*
X48533988Y38400002D01*
X53848000Y51054000D02*
X48883978Y46089978D01*
X48883978Y46089978D02*
X48883978Y38749992D01*
X48533988Y37103988D02*
X48514000Y37084000D01*
X48533988Y38400002D02*
X48533988Y37103988D01*
X35560000Y49396000D02*
X35560000Y50546000D01*
X31769975Y48420977D02*
X34584977Y48420977D01*
X30116999Y46768001D02*
X31769975Y48420977D01*
X31522944Y44169056D02*
X30116999Y45575001D01*
X34584977Y48420977D02*
X35560000Y49396000D01*
X30116999Y45575001D02*
X30116999Y46768001D01*
X36165889Y44169056D02*
X31522944Y44169056D01*
X44774945Y35560000D02*
X36165889Y44169056D01*
X45720000Y35560000D02*
X44774945Y35560000D01*
%TO.N,/PA0*%
X43669999Y37319999D02*
X43327940Y37662058D01*
X45081685Y36489673D02*
X44500325Y36489673D01*
X46210116Y36685001D02*
X45277013Y36685001D01*
X48260000Y35560000D02*
X47335117Y35560000D01*
X44500325Y36489673D02*
X43669999Y37319999D01*
X45277013Y36685001D02*
X45081685Y36489673D01*
X47335117Y35560000D02*
X46210116Y36685001D01*
X39878000Y49784000D02*
X39878000Y41111998D01*
X39878000Y41111998D02*
X43669999Y37319999D01*
X40640000Y50546000D02*
X39878000Y49784000D01*
X49784000Y37084000D02*
X49784000Y45212000D01*
X54598401Y49428988D02*
X55473012Y50303599D01*
X48260000Y35560000D02*
X49784000Y37084000D01*
X55626000Y51054000D02*
X56388000Y51054000D01*
X49784000Y45212000D02*
X54000990Y49428988D01*
X55473012Y50303599D02*
X55473012Y50901012D01*
X54000990Y49428988D02*
X54598401Y49428988D01*
X55473012Y50901012D02*
X55626000Y51054000D01*
%TO.N,~SINT~*%
X58355620Y27640001D02*
X58655619Y27940000D01*
X50800000Y31242000D02*
X54401999Y27640001D01*
X7620000Y35560000D02*
X11938000Y31242000D01*
X54401999Y27640001D02*
X58355620Y27640001D01*
X11938000Y31242000D02*
X50800000Y31242000D01*
%TO.N,MOSI*%
X53848000Y30480000D02*
X53848000Y30480000D01*
X15240000Y35560000D02*
X18657978Y32142022D01*
X18657978Y32142022D02*
X52439978Y32142022D01*
X52439978Y32142022D02*
X53848000Y30734000D01*
X61976000Y33782000D02*
X59944000Y33782000D01*
X62184499Y33573501D02*
X61976000Y33782000D01*
X62769499Y32910999D02*
X62184499Y33495999D01*
X62847001Y32910999D02*
X62769499Y32910999D01*
X63037999Y32720001D02*
X62847001Y32910999D01*
X62184499Y33495999D02*
X62184499Y33573501D01*
X67609999Y32720001D02*
X63037999Y32720001D01*
X68834000Y31496000D02*
X67609999Y32720001D01*
%TO.N,MISO*%
X17780000Y35560000D02*
X20747967Y32592033D01*
X20747967Y32592033D02*
X52823861Y32592033D01*
X54391947Y31023947D02*
X55080893Y30335001D01*
X52823861Y32592033D02*
X54391947Y31023947D01*
X54391947Y31023947D02*
X55334893Y30081001D01*
X57548995Y30081001D02*
X58674000Y28955996D01*
X55334893Y30081001D02*
X57548995Y30081001D01*
D21*
%TO.N,Net-(R3-Pad2)*%
X10160000Y17018000D02*
X10160000Y20320000D01*
D22*
%TO.N,~CONF~*%
X52832000Y30734000D02*
X52832000Y30734000D01*
X64216001Y37891999D02*
X59989999Y37891999D01*
X64516000Y37592000D02*
X64216001Y37891999D01*
X59989999Y37891999D02*
X58674000Y36576000D01*
X12700000Y35560000D02*
X16567989Y31692011D01*
X51873989Y31692011D02*
X52832000Y30734000D01*
X16567989Y31692011D02*
X51873989Y31692011D01*
D23*
%TO.N,Net-(R4-Pad2)*%
X56642000Y23876000D02*
X55689500Y23876000D01*
X59436000Y26670000D02*
X56642000Y23876000D01*
D22*
%TO.N,/SS7*%
X63309500Y31496000D02*
X67183000Y27622500D01*
X67183000Y27622500D02*
X67183000Y26225500D01*
X67183000Y26225500D02*
X67183000Y26225500D01*
%TO.N,/SS6*%
X63309500Y28956000D02*
X65786000Y26479500D01*
X65786000Y26479500D02*
X65786000Y26162000D01*
X65786000Y26162000D02*
X65786000Y26162000D01*
%TO.N,/SS5*%
X68326000Y16256000D02*
X68834000Y16256000D01*
%TO.N,/SS4*%
X68326000Y18796000D02*
X68834000Y18796000D01*
X65468498Y18796000D02*
X65278000Y18986498D01*
X68834000Y18796000D02*
X65468498Y18796000D01*
%TO.N,/SS3*%
X64484501Y20160999D02*
X63309500Y21336000D01*
X70198999Y20160999D02*
X64484501Y20160999D01*
X71374000Y21336000D02*
X70198999Y20160999D01*
%TO.N,/SS2*%
X63309500Y18796000D02*
X62184499Y19921001D01*
X62184499Y21876001D02*
X62819499Y22511001D01*
X62819499Y22511001D02*
X70009001Y22511001D01*
X62184499Y19921001D02*
X62184499Y21876001D01*
X70009001Y22511001D02*
X71374000Y23876000D01*
%TO.N,/SS1*%
X59182000Y21336000D02*
X55689500Y21336000D01*
X62184499Y24338499D02*
X59182000Y21336000D01*
X68834000Y23876000D02*
X67708999Y25001001D01*
X62184499Y24416001D02*
X62184499Y24338499D01*
X62769499Y25001001D02*
X62184499Y24416001D01*
X67708999Y25001001D02*
X62769499Y25001001D01*
%TO.N,~SLOT_IRQ~*%
X16897997Y5239001D02*
X8655499Y13481499D01*
X18636999Y5239001D02*
X16897997Y5239001D01*
X19812000Y4064000D02*
X18636999Y5239001D01*
X8655499Y13481499D02*
X8636000Y13500998D01*
%TO.N,CLK_12M*%
X26162000Y5334000D02*
X27432000Y4064000D01*
X26162000Y7620000D02*
X26162000Y5334000D01*
X23114000Y10668000D02*
X26162000Y7620000D01*
%TO.N,Net-(U2-Pad19)*%
X59213499Y49878999D02*
X60007500Y50673000D01*
X50546000Y41211500D02*
X59213499Y49878999D01*
X50546000Y39370000D02*
X50546000Y41211500D01*
%TO.N,Net-(U2-Pad17)*%
X59499500Y49339500D02*
X63189698Y49339500D01*
X51562000Y41402000D02*
X59499500Y49339500D01*
X51562000Y39116000D02*
X51562000Y41402000D01*
X63189698Y49339500D02*
X64479010Y48050188D01*
X50546000Y38100000D02*
X51562000Y39116000D01*
%TO.N,Net-(U3-Pad2)*%
X60007500Y53213000D02*
X60007500Y55753000D01*
%TO.N,Net-(U3-Pad11)*%
X67627500Y50673000D02*
X67627500Y53213000D01*
%TO.N,Net-(D1-Pad1)*%
X33627002Y46228000D02*
X31242000Y46228000D01*
X37945002Y50546000D02*
X33627002Y46228000D01*
X38100000Y50546000D02*
X37945002Y50546000D01*
%TO.N,Net-(D2-Pad1)*%
X33020000Y50546000D02*
X31344988Y48870988D01*
X30277012Y47803012D02*
X33020000Y50546000D01*
X29515012Y47803012D02*
X30277012Y47803012D01*
X27940000Y46228000D02*
X29515012Y47803012D01*
%TO.N,Net-(D3-Pad1)*%
X27940000Y50546000D02*
X27785002Y50546000D01*
X27940000Y49530000D02*
X27940000Y50546000D01*
X24638000Y46228000D02*
X27940000Y49530000D01*
%TO.N,Net-(D4-Pad1)*%
X22860000Y46990000D02*
X22098000Y46228000D01*
X22860000Y50546000D02*
X22860000Y46990000D01*
%TO.N,Net-(D5-Pad1)*%
X17780000Y47498000D02*
X19050000Y46228000D01*
X17780000Y50546000D02*
X17780000Y47498000D01*
%TO.N,Net-(D6-Pad1)*%
X16002000Y47244000D02*
X16002000Y46228000D01*
X12700000Y50546000D02*
X16002000Y47244000D01*
%TO.N,Net-(D7-Pad1)*%
X7620000Y50546000D02*
X10362988Y47803012D01*
X10362988Y47803012D02*
X11378988Y47803012D01*
X11378988Y47803012D02*
X12954000Y46228000D01*
%TO.N,Net-(D8-Pad1)*%
X6096000Y46228000D02*
X9906000Y46228000D01*
X2540000Y49784000D02*
X6096000Y46228000D01*
X2540000Y50546000D02*
X2540000Y49784000D01*
%TD*%
D24*
%TO.N,+5V*%
X2125353Y59386000D02*
X58644093Y59386000D01*
X58617998Y59337180D01*
X58581688Y59217482D01*
X58569428Y59093000D01*
X58569428Y57493000D01*
X58581688Y57368518D01*
X58617998Y57248820D01*
X58676963Y57138506D01*
X58756315Y57041815D01*
X58853006Y56962463D01*
X58963320Y56903498D01*
X59083018Y56867188D01*
X59091461Y56866357D01*
X58892863Y56667759D01*
X58735820Y56432727D01*
X58627647Y56171574D01*
X58572500Y55894335D01*
X58572500Y55611665D01*
X58627647Y55334426D01*
X58735820Y55073273D01*
X58892863Y54838241D01*
X59092741Y54638363D01*
X59247501Y54534956D01*
X59247500Y54431044D01*
X59092741Y54327637D01*
X58892863Y54127759D01*
X58735820Y53892727D01*
X58627647Y53631574D01*
X58572500Y53354335D01*
X58572500Y53071665D01*
X58627647Y52794426D01*
X58735820Y52533273D01*
X58892863Y52298241D01*
X59092741Y52098363D01*
X59325259Y51943000D01*
X59092741Y51787637D01*
X58892863Y51587759D01*
X58735820Y51352727D01*
X58627647Y51091574D01*
X58572500Y50814335D01*
X58572500Y50531665D01*
X58608812Y50349114D01*
X55512782Y47253084D01*
X55481853Y47408574D01*
X55373680Y47669727D01*
X55216637Y47904759D01*
X55016759Y48104637D01*
X54781727Y48261680D01*
X54520574Y48369853D01*
X54243335Y48425000D01*
X54071804Y48425000D01*
X54315792Y48668988D01*
X54561079Y48668988D01*
X54598401Y48665312D01*
X54635723Y48668988D01*
X54635734Y48668988D01*
X54747387Y48679985D01*
X54890648Y48723442D01*
X55022677Y48794014D01*
X55138402Y48888987D01*
X55162204Y48917990D01*
X55895050Y49650835D01*
X55954842Y49626068D01*
X56241740Y49569000D01*
X56534260Y49569000D01*
X56821158Y49626068D01*
X57091411Y49738010D01*
X57334632Y49900525D01*
X57541475Y50107368D01*
X57703990Y50350589D01*
X57815932Y50620842D01*
X57873000Y50907740D01*
X57873000Y51200260D01*
X57815932Y51487158D01*
X57703990Y51757411D01*
X57541475Y52000632D01*
X57334632Y52207475D01*
X57160240Y52324000D01*
X57334632Y52440525D01*
X57541475Y52647368D01*
X57703990Y52890589D01*
X57815932Y53160842D01*
X57873000Y53447740D01*
X57873000Y53740260D01*
X57815932Y54027158D01*
X57703990Y54297411D01*
X57541475Y54540632D01*
X57334632Y54747475D01*
X57091411Y54909990D01*
X56821158Y55021932D01*
X56534260Y55079000D01*
X56241740Y55079000D01*
X55954842Y55021932D01*
X55684589Y54909990D01*
X55441368Y54747475D01*
X55234525Y54540632D01*
X55118000Y54366240D01*
X55001475Y54540632D01*
X54794632Y54747475D01*
X54551411Y54909990D01*
X54281158Y55021932D01*
X53994260Y55079000D01*
X53701740Y55079000D01*
X53414842Y55021932D01*
X53144589Y54909990D01*
X52901368Y54747475D01*
X52694525Y54540632D01*
X52578000Y54366240D01*
X52461475Y54540632D01*
X52254632Y54747475D01*
X52011411Y54909990D01*
X51741158Y55021932D01*
X51454260Y55079000D01*
X51161740Y55079000D01*
X50874842Y55021932D01*
X50604589Y54909990D01*
X50361368Y54747475D01*
X50154525Y54540632D01*
X50038000Y54366240D01*
X49921475Y54540632D01*
X49714632Y54747475D01*
X49471411Y54909990D01*
X49201158Y55021932D01*
X48914260Y55079000D01*
X48621740Y55079000D01*
X48334842Y55021932D01*
X48064589Y54909990D01*
X47821368Y54747475D01*
X47614525Y54540632D01*
X47498000Y54366240D01*
X47381475Y54540632D01*
X47174632Y54747475D01*
X46931411Y54909990D01*
X46661158Y55021932D01*
X46374260Y55079000D01*
X46081740Y55079000D01*
X45794842Y55021932D01*
X45524589Y54909990D01*
X45281368Y54747475D01*
X45074525Y54540632D01*
X44952805Y54358466D01*
X44883178Y54475355D01*
X44688269Y54691588D01*
X44454920Y54865641D01*
X44192099Y54990825D01*
X44044890Y55035476D01*
X43815000Y54914155D01*
X43815000Y53721000D01*
X43835000Y53721000D01*
X43835000Y53467000D01*
X43815000Y53467000D01*
X43815000Y53447000D01*
X43561000Y53447000D01*
X43561000Y53467000D01*
X42367186Y53467000D01*
X42246519Y53237109D01*
X42343843Y52962748D01*
X42492822Y52712645D01*
X42669626Y52516498D01*
X42593820Y52493502D01*
X42483506Y52434537D01*
X42386815Y52355185D01*
X42307463Y52258494D01*
X42248498Y52148180D01*
X42212188Y52028482D01*
X42199928Y51904000D01*
X42199928Y50204000D01*
X42212188Y50079518D01*
X42248498Y49959820D01*
X42307463Y49849506D01*
X42386815Y49752815D01*
X42483506Y49673463D01*
X42593820Y49614498D01*
X42713518Y49578188D01*
X42838000Y49565928D01*
X42928000Y49565928D01*
X42928001Y39136799D01*
X40638000Y41426799D01*
X40638000Y49011000D01*
X40791184Y49011000D01*
X41087743Y49069989D01*
X41367095Y49185701D01*
X41618505Y49353688D01*
X41832312Y49567495D01*
X42000299Y49818905D01*
X42116011Y50098257D01*
X42175000Y50394816D01*
X42175000Y50697184D01*
X42116011Y50993743D01*
X42000299Y51273095D01*
X41832312Y51524505D01*
X41618505Y51738312D01*
X41367095Y51906299D01*
X41087743Y52022011D01*
X40791184Y52081000D01*
X40488816Y52081000D01*
X40192257Y52022011D01*
X39912905Y51906299D01*
X39661495Y51738312D01*
X39595056Y51671873D01*
X39589502Y51690180D01*
X39530537Y51800494D01*
X39451185Y51897185D01*
X39354494Y51976537D01*
X39244180Y52035502D01*
X39124482Y52071812D01*
X39000000Y52084072D01*
X37200000Y52084072D01*
X37075518Y52071812D01*
X36955820Y52035502D01*
X36845506Y51976537D01*
X36748815Y51897185D01*
X36669463Y51800494D01*
X36610498Y51690180D01*
X36604944Y51671873D01*
X36538505Y51738312D01*
X36287095Y51906299D01*
X36007743Y52022011D01*
X35711184Y52081000D01*
X35408816Y52081000D01*
X35112257Y52022011D01*
X34832905Y51906299D01*
X34581495Y51738312D01*
X34515056Y51671873D01*
X34509502Y51690180D01*
X34450537Y51800494D01*
X34371185Y51897185D01*
X34274494Y51976537D01*
X34164180Y52035502D01*
X34044482Y52071812D01*
X33920000Y52084072D01*
X32120000Y52084072D01*
X31995518Y52071812D01*
X31875820Y52035502D01*
X31765506Y51976537D01*
X31668815Y51897185D01*
X31589463Y51800494D01*
X31530498Y51690180D01*
X31524944Y51671873D01*
X31458505Y51738312D01*
X31207095Y51906299D01*
X30927743Y52022011D01*
X30631184Y52081000D01*
X30328816Y52081000D01*
X30032257Y52022011D01*
X29752905Y51906299D01*
X29501495Y51738312D01*
X29435056Y51671873D01*
X29429502Y51690180D01*
X29370537Y51800494D01*
X29291185Y51897185D01*
X29194494Y51976537D01*
X29084180Y52035502D01*
X28964482Y52071812D01*
X28840000Y52084072D01*
X27040000Y52084072D01*
X26915518Y52071812D01*
X26795820Y52035502D01*
X26685506Y51976537D01*
X26588815Y51897185D01*
X26509463Y51800494D01*
X26450498Y51690180D01*
X26444944Y51671873D01*
X26378505Y51738312D01*
X26127095Y51906299D01*
X25847743Y52022011D01*
X25551184Y52081000D01*
X25248816Y52081000D01*
X24952257Y52022011D01*
X24672905Y51906299D01*
X24421495Y51738312D01*
X24355056Y51671873D01*
X24349502Y51690180D01*
X24290537Y51800494D01*
X24211185Y51897185D01*
X24114494Y51976537D01*
X24004180Y52035502D01*
X23884482Y52071812D01*
X23760000Y52084072D01*
X21960000Y52084072D01*
X21835518Y52071812D01*
X21715820Y52035502D01*
X21605506Y51976537D01*
X21508815Y51897185D01*
X21429463Y51800494D01*
X21370498Y51690180D01*
X21364944Y51671873D01*
X21298505Y51738312D01*
X21047095Y51906299D01*
X20767743Y52022011D01*
X20471184Y52081000D01*
X20168816Y52081000D01*
X19872257Y52022011D01*
X19592905Y51906299D01*
X19341495Y51738312D01*
X19275056Y51671873D01*
X19269502Y51690180D01*
X19210537Y51800494D01*
X19131185Y51897185D01*
X19034494Y51976537D01*
X18924180Y52035502D01*
X18804482Y52071812D01*
X18680000Y52084072D01*
X16880000Y52084072D01*
X16755518Y52071812D01*
X16635820Y52035502D01*
X16525506Y51976537D01*
X16428815Y51897185D01*
X16349463Y51800494D01*
X16290498Y51690180D01*
X16284944Y51671873D01*
X16218505Y51738312D01*
X15967095Y51906299D01*
X15687743Y52022011D01*
X15391184Y52081000D01*
X15088816Y52081000D01*
X14792257Y52022011D01*
X14512905Y51906299D01*
X14261495Y51738312D01*
X14195056Y51671873D01*
X14189502Y51690180D01*
X14130537Y51800494D01*
X14051185Y51897185D01*
X13954494Y51976537D01*
X13844180Y52035502D01*
X13724482Y52071812D01*
X13600000Y52084072D01*
X11800000Y52084072D01*
X11675518Y52071812D01*
X11555820Y52035502D01*
X11445506Y51976537D01*
X11348815Y51897185D01*
X11269463Y51800494D01*
X11210498Y51690180D01*
X11204944Y51671873D01*
X11138505Y51738312D01*
X10887095Y51906299D01*
X10607743Y52022011D01*
X10311184Y52081000D01*
X10008816Y52081000D01*
X9712257Y52022011D01*
X9432905Y51906299D01*
X9181495Y51738312D01*
X9115056Y51671873D01*
X9109502Y51690180D01*
X9050537Y51800494D01*
X8971185Y51897185D01*
X8874494Y51976537D01*
X8764180Y52035502D01*
X8644482Y52071812D01*
X8520000Y52084072D01*
X6720000Y52084072D01*
X6595518Y52071812D01*
X6475820Y52035502D01*
X6365506Y51976537D01*
X6268815Y51897185D01*
X6189463Y51800494D01*
X6130498Y51690180D01*
X6124944Y51671873D01*
X6058505Y51738312D01*
X5807095Y51906299D01*
X5527743Y52022011D01*
X5231184Y52081000D01*
X4928816Y52081000D01*
X4632257Y52022011D01*
X4352905Y51906299D01*
X4101495Y51738312D01*
X4035056Y51671873D01*
X4029502Y51690180D01*
X3970537Y51800494D01*
X3891185Y51897185D01*
X3794494Y51976537D01*
X3684180Y52035502D01*
X3564482Y52071812D01*
X3440000Y52084072D01*
X1640000Y52084072D01*
X1515518Y52071812D01*
X1395820Y52035502D01*
X1285506Y51976537D01*
X1188815Y51897185D01*
X1109463Y51800494D01*
X1050498Y51690180D01*
X1014188Y51570482D01*
X1001928Y51446000D01*
X1001928Y49646000D01*
X1014188Y49521518D01*
X1050498Y49401820D01*
X1109463Y49291506D01*
X1188815Y49194815D01*
X1285506Y49115463D01*
X1395820Y49056498D01*
X1515518Y49020188D01*
X1640000Y49007928D01*
X2241271Y49007928D01*
X5532205Y45716992D01*
X5555999Y45687999D01*
X5584992Y45664205D01*
X5584996Y45664201D01*
X5633987Y45623996D01*
X5671724Y45593026D01*
X5803753Y45522454D01*
X5947014Y45478997D01*
X6058667Y45468000D01*
X6058676Y45468000D01*
X6095999Y45464324D01*
X6133322Y45468000D01*
X8687957Y45468000D01*
X8791363Y45313241D01*
X8991241Y45113363D01*
X9226273Y44956320D01*
X9487426Y44848147D01*
X9764665Y44793000D01*
X10047335Y44793000D01*
X10324574Y44848147D01*
X10585727Y44956320D01*
X10820759Y45113363D01*
X11020637Y45313241D01*
X11064023Y45378174D01*
X16478221Y39963975D01*
X16420574Y39987853D01*
X16143335Y40043000D01*
X15860665Y40043000D01*
X15583426Y39987853D01*
X15322273Y39879680D01*
X15087241Y39722637D01*
X14887363Y39522759D01*
X14730320Y39287727D01*
X14622147Y39026574D01*
X14567000Y38749335D01*
X14567000Y38466665D01*
X14622147Y38189426D01*
X14730320Y37928273D01*
X14887363Y37693241D01*
X15087241Y37493363D01*
X15322273Y37336320D01*
X15583426Y37228147D01*
X15860665Y37173000D01*
X16143335Y37173000D01*
X16420574Y37228147D01*
X16681727Y37336320D01*
X16916759Y37493363D01*
X17116637Y37693241D01*
X17273680Y37928273D01*
X17381853Y38189426D01*
X17437000Y38466665D01*
X17437000Y38749335D01*
X17381853Y39026574D01*
X17314227Y39189839D01*
X17322656Y39185333D01*
X17346751Y39172454D01*
X17490012Y39128997D01*
X17601665Y39118000D01*
X17601675Y39118000D01*
X17638998Y39114324D01*
X17676321Y39118000D01*
X17708017Y39118000D01*
X17670147Y39026574D01*
X17615000Y38749335D01*
X17615000Y38466665D01*
X17670147Y38189426D01*
X17778320Y37928273D01*
X17935363Y37693241D01*
X18135241Y37493363D01*
X18370273Y37336320D01*
X18631426Y37228147D01*
X18908665Y37173000D01*
X19191335Y37173000D01*
X19468574Y37228147D01*
X19729727Y37336320D01*
X19964759Y37493363D01*
X20164637Y37693241D01*
X20321680Y37928273D01*
X20429853Y38189426D01*
X20485000Y38466665D01*
X20485000Y38749335D01*
X20429853Y39026574D01*
X20391983Y39118000D01*
X20756017Y39118000D01*
X20718147Y39026574D01*
X20663000Y38749335D01*
X20663000Y38466665D01*
X20718147Y38189426D01*
X20826320Y37928273D01*
X20983363Y37693241D01*
X21183241Y37493363D01*
X21418273Y37336320D01*
X21679426Y37228147D01*
X21956665Y37173000D01*
X22239335Y37173000D01*
X22516574Y37228147D01*
X22777727Y37336320D01*
X23012759Y37493363D01*
X23212637Y37693241D01*
X23369680Y37928273D01*
X23477853Y38189426D01*
X23533000Y38466665D01*
X23533000Y38749335D01*
X23477853Y39026574D01*
X23439983Y39118000D01*
X23804017Y39118000D01*
X23766147Y39026574D01*
X23711000Y38749335D01*
X23711000Y38466665D01*
X23766147Y38189426D01*
X23874320Y37928273D01*
X24031363Y37693241D01*
X24231241Y37493363D01*
X24466273Y37336320D01*
X24727426Y37228147D01*
X25004665Y37173000D01*
X25287335Y37173000D01*
X25564574Y37228147D01*
X25825727Y37336320D01*
X26060759Y37493363D01*
X26260637Y37693241D01*
X26348564Y37824834D01*
X26363453Y37775752D01*
X26434025Y37643723D01*
X26528998Y37527998D01*
X26558000Y37504197D01*
X27090199Y36971997D01*
X27113998Y36942998D01*
X27142996Y36919200D01*
X27229722Y36848025D01*
X27260289Y36831687D01*
X27260273Y36831680D01*
X27025241Y36674637D01*
X26825363Y36474759D01*
X26670000Y36242241D01*
X26514637Y36474759D01*
X26314759Y36674637D01*
X26079727Y36831680D01*
X25818574Y36939853D01*
X25541335Y36995000D01*
X25258665Y36995000D01*
X24981426Y36939853D01*
X24720273Y36831680D01*
X24485241Y36674637D01*
X24285363Y36474759D01*
X24130000Y36242241D01*
X23974637Y36474759D01*
X23774759Y36674637D01*
X23539727Y36831680D01*
X23278574Y36939853D01*
X23001335Y36995000D01*
X22718665Y36995000D01*
X22441426Y36939853D01*
X22180273Y36831680D01*
X21945241Y36674637D01*
X21745363Y36474759D01*
X21590000Y36242241D01*
X21434637Y36474759D01*
X21234759Y36674637D01*
X20999727Y36831680D01*
X20738574Y36939853D01*
X20461335Y36995000D01*
X20178665Y36995000D01*
X19901426Y36939853D01*
X19640273Y36831680D01*
X19405241Y36674637D01*
X19205363Y36474759D01*
X19050000Y36242241D01*
X18894637Y36474759D01*
X18694759Y36674637D01*
X18459727Y36831680D01*
X18198574Y36939853D01*
X17921335Y36995000D01*
X17638665Y36995000D01*
X17361426Y36939853D01*
X17100273Y36831680D01*
X16865241Y36674637D01*
X16665363Y36474759D01*
X16510000Y36242241D01*
X16354637Y36474759D01*
X16154759Y36674637D01*
X15919727Y36831680D01*
X15658574Y36939853D01*
X15381335Y36995000D01*
X15098665Y36995000D01*
X14821426Y36939853D01*
X14560273Y36831680D01*
X14325241Y36674637D01*
X14125363Y36474759D01*
X13970000Y36242241D01*
X13814637Y36474759D01*
X13614759Y36674637D01*
X13379727Y36831680D01*
X13118574Y36939853D01*
X12841335Y36995000D01*
X12558665Y36995000D01*
X12281426Y36939853D01*
X12020273Y36831680D01*
X11785241Y36674637D01*
X11585363Y36474759D01*
X11430000Y36242241D01*
X11274637Y36474759D01*
X11074759Y36674637D01*
X10839727Y36831680D01*
X10578574Y36939853D01*
X10301335Y36995000D01*
X10018665Y36995000D01*
X9741426Y36939853D01*
X9480273Y36831680D01*
X9245241Y36674637D01*
X9045363Y36474759D01*
X8890000Y36242241D01*
X8734637Y36474759D01*
X8534759Y36674637D01*
X8299727Y36831680D01*
X8038574Y36939853D01*
X7761335Y36995000D01*
X7478665Y36995000D01*
X7201426Y36939853D01*
X6940273Y36831680D01*
X6705241Y36674637D01*
X6505363Y36474759D01*
X6350000Y36242241D01*
X6194637Y36474759D01*
X5994759Y36674637D01*
X5759727Y36831680D01*
X5498574Y36939853D01*
X5221335Y36995000D01*
X4938665Y36995000D01*
X4661426Y36939853D01*
X4400273Y36831680D01*
X4165241Y36674637D01*
X3965363Y36474759D01*
X3808320Y36239727D01*
X3803933Y36229135D01*
X3692385Y36415131D01*
X3503414Y36623519D01*
X3277420Y36791037D01*
X3023087Y36911246D01*
X2889039Y36951904D01*
X2667000Y36829915D01*
X2667000Y35687000D01*
X2687000Y35687000D01*
X2687000Y35433000D01*
X2667000Y35433000D01*
X2667000Y34290085D01*
X2889039Y34168096D01*
X3023087Y34208754D01*
X3277420Y34328963D01*
X3503414Y34496481D01*
X3692385Y34704869D01*
X3803933Y34890865D01*
X3808320Y34880273D01*
X3965363Y34645241D01*
X4165241Y34445363D01*
X4400273Y34288320D01*
X4661426Y34180147D01*
X4938665Y34125000D01*
X5221335Y34125000D01*
X5498574Y34180147D01*
X5759727Y34288320D01*
X5994759Y34445363D01*
X6194637Y34645241D01*
X6350000Y34877759D01*
X6505363Y34645241D01*
X6705241Y34445363D01*
X6940273Y34288320D01*
X7201426Y34180147D01*
X7478665Y34125000D01*
X7761335Y34125000D01*
X7943887Y34161312D01*
X11374200Y30730998D01*
X11397999Y30701999D01*
X11513724Y30607026D01*
X11645753Y30536454D01*
X11789014Y30492997D01*
X11900667Y30482000D01*
X11900676Y30482000D01*
X11937999Y30478324D01*
X11975322Y30482000D01*
X50485199Y30482000D01*
X53838200Y27128998D01*
X53861998Y27100000D01*
X53977723Y27005027D01*
X54109752Y26934455D01*
X54253013Y26890998D01*
X54329883Y26883427D01*
X54309647Y26834574D01*
X54271873Y26644675D01*
X51559003Y23931804D01*
X51529999Y23908001D01*
X51482993Y23850723D01*
X51435026Y23792276D01*
X51387587Y23703525D01*
X51364454Y23660246D01*
X51320997Y23516985D01*
X51310023Y23405571D01*
X51241414Y23302889D01*
X51170932Y23132729D01*
X51135000Y22952089D01*
X51135000Y22767911D01*
X51170932Y22587271D01*
X51241414Y22417111D01*
X51343738Y22263972D01*
X51473972Y22133738D01*
X51627111Y22031414D01*
X51797271Y21960932D01*
X51977911Y21925000D01*
X52162089Y21925000D01*
X52342729Y21960932D01*
X52512889Y22031414D01*
X52666028Y22133738D01*
X52796262Y22263972D01*
X52898586Y22417111D01*
X52969068Y22587271D01*
X53005000Y22767911D01*
X53005000Y22952089D01*
X52969068Y23132729D01*
X52951630Y23174829D01*
X54956630Y25179829D01*
X55007259Y25146000D01*
X54774741Y24990637D01*
X54574863Y24790759D01*
X54417820Y24555727D01*
X54309647Y24294574D01*
X54254500Y24017335D01*
X54254500Y23734665D01*
X54309647Y23457426D01*
X54417820Y23196273D01*
X54574863Y22961241D01*
X54774741Y22761363D01*
X55007259Y22606000D01*
X54774741Y22450637D01*
X54574863Y22250759D01*
X54417820Y22015727D01*
X54309647Y21754574D01*
X54254500Y21477335D01*
X54254500Y21194665D01*
X54309647Y20917426D01*
X54417820Y20656273D01*
X54574863Y20421241D01*
X54774741Y20221363D01*
X55007259Y20066000D01*
X54774741Y19910637D01*
X54574863Y19710759D01*
X54417820Y19475727D01*
X54309647Y19214574D01*
X54254500Y18937335D01*
X54254500Y18654665D01*
X54309647Y18377426D01*
X54417820Y18116273D01*
X54574863Y17881241D01*
X54774741Y17681363D01*
X55009773Y17524320D01*
X55270926Y17416147D01*
X55548165Y17361000D01*
X55830835Y17361000D01*
X56108074Y17416147D01*
X56369227Y17524320D01*
X56604259Y17681363D01*
X56804137Y17881241D01*
X56921774Y18057298D01*
X58622903Y18057298D01*
X58694486Y17813329D01*
X58949996Y17692429D01*
X59224184Y17623700D01*
X59506512Y17609783D01*
X59786130Y17651213D01*
X60052292Y17746397D01*
X60177514Y17813329D01*
X60249097Y18057298D01*
X59436000Y18870395D01*
X58622903Y18057298D01*
X56921774Y18057298D01*
X56961180Y18116273D01*
X57069353Y18377426D01*
X57124500Y18654665D01*
X57124500Y18937335D01*
X57116116Y18979488D01*
X57995783Y18979488D01*
X58037213Y18699870D01*
X58132397Y18433708D01*
X58199329Y18308486D01*
X58443298Y18236903D01*
X59256395Y19050000D01*
X59615605Y19050000D01*
X60428702Y18236903D01*
X60672671Y18308486D01*
X60793571Y18563996D01*
X60862300Y18838184D01*
X60876217Y19120512D01*
X60834787Y19400130D01*
X60739603Y19666292D01*
X60672671Y19791514D01*
X60428702Y19863097D01*
X59615605Y19050000D01*
X59256395Y19050000D01*
X58443298Y19863097D01*
X58199329Y19791514D01*
X58078429Y19536004D01*
X58009700Y19261816D01*
X57995783Y18979488D01*
X57116116Y18979488D01*
X57069353Y19214574D01*
X56961180Y19475727D01*
X56804137Y19710759D01*
X56604259Y19910637D01*
X56406610Y20042702D01*
X58622903Y20042702D01*
X59436000Y19229605D01*
X60249097Y20042702D01*
X60177514Y20286671D01*
X59922004Y20407571D01*
X59647816Y20476300D01*
X59365488Y20490217D01*
X59085870Y20448787D01*
X58819708Y20353603D01*
X58694486Y20286671D01*
X58622903Y20042702D01*
X56406610Y20042702D01*
X56371741Y20066000D01*
X56604259Y20221363D01*
X56804137Y20421241D01*
X56907543Y20576000D01*
X59144678Y20576000D01*
X59182000Y20572324D01*
X59219322Y20576000D01*
X59219333Y20576000D01*
X59330986Y20586997D01*
X59474247Y20630454D01*
X59606276Y20701026D01*
X59722001Y20795999D01*
X59745804Y20825003D01*
X62069565Y23148763D01*
X62194863Y22961241D01*
X62194900Y22961204D01*
X61673497Y22439800D01*
X61644499Y22416002D01*
X61620701Y22387004D01*
X61620700Y22387003D01*
X61549525Y22300277D01*
X61478953Y22168247D01*
X61461587Y22110997D01*
X61439873Y22039411D01*
X61435497Y22024986D01*
X61420823Y21876001D01*
X61424500Y21838669D01*
X61424499Y19958324D01*
X61420823Y19921001D01*
X61424499Y19883679D01*
X61424499Y19883669D01*
X61435496Y19772016D01*
X61475459Y19640273D01*
X61478953Y19628755D01*
X61549525Y19496725D01*
X61587433Y19450535D01*
X61644498Y19381000D01*
X61673501Y19357197D01*
X61910812Y19119887D01*
X61874500Y18937335D01*
X61874500Y18654665D01*
X61929647Y18377426D01*
X62037820Y18116273D01*
X62194863Y17881241D01*
X62394741Y17681363D01*
X62629773Y17524320D01*
X62890926Y17416147D01*
X63168165Y17361000D01*
X63450835Y17361000D01*
X63728074Y17416147D01*
X63989227Y17524320D01*
X64224259Y17681363D01*
X64424137Y17881241D01*
X64581180Y18116273D01*
X64652867Y18289341D01*
X64681972Y18260236D01*
X64835111Y18157912D01*
X65005271Y18087430D01*
X65185911Y18051498D01*
X65304674Y18051498D01*
X65319512Y18046997D01*
X65431165Y18036000D01*
X65431175Y18036000D01*
X65468498Y18032324D01*
X65505821Y18036000D01*
X67555822Y18036000D01*
X67680525Y17849368D01*
X67887368Y17642525D01*
X68061760Y17526000D01*
X67887368Y17409475D01*
X67680525Y17202632D01*
X67518010Y16959411D01*
X67406068Y16689158D01*
X67349000Y16402260D01*
X67349000Y16109740D01*
X67406068Y15822842D01*
X67518010Y15552589D01*
X67680525Y15309368D01*
X67887368Y15102525D01*
X68061760Y14986000D01*
X67887368Y14869475D01*
X67680525Y14662632D01*
X67518010Y14419411D01*
X67406068Y14149158D01*
X67349000Y13862260D01*
X67349000Y13569740D01*
X67406068Y13282842D01*
X67518010Y13012589D01*
X67680525Y12769368D01*
X67887368Y12562525D01*
X68130589Y12400010D01*
X68400842Y12288068D01*
X68687740Y12231000D01*
X68980260Y12231000D01*
X69267158Y12288068D01*
X69537411Y12400010D01*
X69780632Y12562525D01*
X69987475Y12769368D01*
X70104000Y12943760D01*
X70220525Y12769368D01*
X70427368Y12562525D01*
X70670589Y12400010D01*
X70940842Y12288068D01*
X71227740Y12231000D01*
X71520260Y12231000D01*
X71807158Y12288068D01*
X72077411Y12400010D01*
X72320632Y12562525D01*
X72527475Y12769368D01*
X72689990Y13012589D01*
X72801932Y13282842D01*
X72859000Y13569740D01*
X72859000Y13862260D01*
X72801932Y14149158D01*
X72689990Y14419411D01*
X72527475Y14662632D01*
X72320632Y14869475D01*
X72146240Y14986000D01*
X72320632Y15102525D01*
X72527475Y15309368D01*
X72689990Y15552589D01*
X72801932Y15822842D01*
X72859000Y16109740D01*
X72859000Y16402260D01*
X72801932Y16689158D01*
X72689990Y16959411D01*
X72527475Y17202632D01*
X72320632Y17409475D01*
X72146240Y17526000D01*
X72320632Y17642525D01*
X72527475Y17849368D01*
X72689990Y18092589D01*
X72801932Y18362842D01*
X72859000Y18649740D01*
X72859000Y18942260D01*
X72801932Y19229158D01*
X72689990Y19499411D01*
X72527475Y19742632D01*
X72320632Y19949475D01*
X72146240Y20066000D01*
X72320632Y20182525D01*
X72527475Y20389368D01*
X72689990Y20632589D01*
X72801932Y20902842D01*
X72859000Y21189740D01*
X72859000Y21482260D01*
X72801932Y21769158D01*
X72689990Y22039411D01*
X72527475Y22282632D01*
X72320632Y22489475D01*
X72146240Y22606000D01*
X72320632Y22722525D01*
X72527475Y22929368D01*
X72689990Y23172589D01*
X72801932Y23442842D01*
X72859000Y23729740D01*
X72859000Y24022260D01*
X72801932Y24309158D01*
X72689990Y24579411D01*
X72527475Y24822632D01*
X72320632Y25029475D01*
X72138466Y25151195D01*
X72255355Y25220822D01*
X72471588Y25415731D01*
X72645641Y25649080D01*
X72770825Y25911901D01*
X72815476Y26059110D01*
X72694155Y26289000D01*
X71501000Y26289000D01*
X71501000Y26269000D01*
X71247000Y26269000D01*
X71247000Y26289000D01*
X71227000Y26289000D01*
X71227000Y26543000D01*
X71247000Y26543000D01*
X71247000Y28829000D01*
X71501000Y28829000D01*
X71501000Y26543000D01*
X72694155Y26543000D01*
X72815476Y26772890D01*
X72770825Y26920099D01*
X72645641Y27182920D01*
X72471588Y27416269D01*
X72255355Y27611178D01*
X72129745Y27686000D01*
X72255355Y27760822D01*
X72471588Y27955731D01*
X72645641Y28189080D01*
X72770825Y28451901D01*
X72815476Y28599110D01*
X72694155Y28829000D01*
X71501000Y28829000D01*
X71247000Y28829000D01*
X71227000Y28829000D01*
X71227000Y29083000D01*
X71247000Y29083000D01*
X71247000Y29103000D01*
X71501000Y29103000D01*
X71501000Y29083000D01*
X72694155Y29083000D01*
X72815476Y29312890D01*
X72770825Y29460099D01*
X72645641Y29722920D01*
X72471588Y29956269D01*
X72255355Y30151178D01*
X72138466Y30220805D01*
X72320632Y30342525D01*
X72527475Y30549368D01*
X72689990Y30792589D01*
X72801932Y31062842D01*
X72859000Y31349740D01*
X72859000Y31642260D01*
X72801932Y31929158D01*
X72689990Y32199411D01*
X72527475Y32442632D01*
X72320632Y32649475D01*
X72146240Y32766000D01*
X72320632Y32882525D01*
X72527475Y33089368D01*
X72689990Y33332589D01*
X72801932Y33602842D01*
X72859000Y33889740D01*
X72859000Y34182260D01*
X72801932Y34469158D01*
X72689990Y34739411D01*
X72527475Y34982632D01*
X72320632Y35189475D01*
X72146240Y35306000D01*
X72320632Y35422525D01*
X72527475Y35629368D01*
X72689990Y35872589D01*
X72801932Y36142842D01*
X72859000Y36429740D01*
X72859000Y36722260D01*
X72801932Y37009158D01*
X72689990Y37279411D01*
X72527475Y37522632D01*
X72320632Y37729475D01*
X72077411Y37891990D01*
X71807158Y38003932D01*
X71520260Y38061000D01*
X71227740Y38061000D01*
X70940842Y38003932D01*
X70670589Y37891990D01*
X70427368Y37729475D01*
X70295513Y37597620D01*
X70273502Y37670180D01*
X70214537Y37780494D01*
X70135185Y37877185D01*
X70038494Y37956537D01*
X69928180Y38015502D01*
X69808482Y38051812D01*
X69684000Y38064072D01*
X67984000Y38064072D01*
X67859518Y38051812D01*
X67739820Y38015502D01*
X67629506Y37956537D01*
X67532815Y37877185D01*
X67453463Y37780494D01*
X67394498Y37670180D01*
X67358188Y37550482D01*
X67345928Y37426000D01*
X67345928Y35921001D01*
X64579493Y35921001D01*
X64660746Y36092913D01*
X64701404Y36226961D01*
X64579415Y36449000D01*
X63436500Y36449000D01*
X63436500Y36429000D01*
X63182500Y36429000D01*
X63182500Y36449000D01*
X62039585Y36449000D01*
X61917596Y36226961D01*
X61958254Y36092913D01*
X62039507Y35921001D01*
X60057043Y35921001D01*
X60019720Y35924677D01*
X59982397Y35921001D01*
X59982388Y35921001D01*
X59870735Y35910004D01*
X59747392Y35872589D01*
X59727474Y35866547D01*
X59595444Y35795975D01*
X59515789Y35730603D01*
X59479720Y35701002D01*
X59455922Y35672004D01*
X58416996Y34633078D01*
X58387993Y34609275D01*
X58349794Y34562729D01*
X58293020Y34493550D01*
X58231272Y34378028D01*
X58222448Y34361520D01*
X58178991Y34218259D01*
X58177691Y34205058D01*
X58099408Y34087899D01*
X58028926Y33917739D01*
X57992994Y33737099D01*
X57992994Y33552921D01*
X58028926Y33372281D01*
X58099408Y33202121D01*
X58201732Y33048982D01*
X58331966Y32918748D01*
X58485105Y32816424D01*
X58655265Y32745942D01*
X58835905Y32710010D01*
X59020083Y32710010D01*
X59200723Y32745942D01*
X59370883Y32816424D01*
X59524022Y32918748D01*
X59541824Y32936550D01*
X59671271Y32882932D01*
X59851911Y32847000D01*
X60036089Y32847000D01*
X60216729Y32882932D01*
X60386889Y32953414D01*
X60489535Y33022000D01*
X61590332Y33022000D01*
X61644498Y32955998D01*
X61673501Y32932196D01*
X62194900Y32410796D01*
X62194863Y32410759D01*
X62037820Y32175727D01*
X61929647Y31914574D01*
X61874500Y31637335D01*
X61874500Y31354665D01*
X61929647Y31077426D01*
X62037820Y30816273D01*
X62194863Y30581241D01*
X62394741Y30381363D01*
X62627259Y30226000D01*
X62394741Y30070637D01*
X62194863Y29870759D01*
X62037820Y29635727D01*
X61929647Y29374574D01*
X61874500Y29097335D01*
X61874500Y28814665D01*
X61929647Y28537426D01*
X62037820Y28276273D01*
X62194863Y28041241D01*
X62394741Y27841363D01*
X62627259Y27686000D01*
X62394741Y27530637D01*
X62194863Y27330759D01*
X62037820Y27095727D01*
X61929647Y26834574D01*
X61874500Y26557335D01*
X61874500Y26274665D01*
X61929647Y25997426D01*
X62037820Y25736273D01*
X62194863Y25501241D01*
X62194900Y25501204D01*
X61673501Y24979804D01*
X61644498Y24956002D01*
X61600425Y24902298D01*
X61549525Y24840277D01*
X61500306Y24748195D01*
X61478953Y24708247D01*
X61478739Y24707541D01*
X58867199Y22096000D01*
X56907543Y22096000D01*
X56804137Y22250759D01*
X56604259Y22450637D01*
X56371741Y22606000D01*
X56604259Y22761363D01*
X56804137Y22961241D01*
X56836921Y23010306D01*
X56982313Y23054411D01*
X57136059Y23136589D01*
X57270817Y23247183D01*
X57298534Y23280956D01*
X59259561Y25241983D01*
X59294665Y25235000D01*
X59577335Y25235000D01*
X59854574Y25290147D01*
X60115727Y25398320D01*
X60350759Y25555363D01*
X60550637Y25755241D01*
X60707680Y25990273D01*
X60815853Y26251426D01*
X60871000Y26528665D01*
X60871000Y26811335D01*
X60815853Y27088574D01*
X60707680Y27349727D01*
X60550637Y27584759D01*
X60350759Y27784637D01*
X60115727Y27941680D01*
X59854574Y28049853D01*
X59577335Y28105000D01*
X59576116Y28105000D01*
X59554687Y28212729D01*
X59484205Y28382889D01*
X59449891Y28434243D01*
X59502586Y28513107D01*
X59573068Y28683267D01*
X59609000Y28863907D01*
X59609000Y29048085D01*
X59573068Y29228725D01*
X59502586Y29398885D01*
X59400262Y29552024D01*
X59270028Y29682258D01*
X59116889Y29784582D01*
X58946729Y29855064D01*
X58825649Y29879149D01*
X58112799Y30591999D01*
X58088996Y30621002D01*
X57973271Y30715975D01*
X57841242Y30786547D01*
X57697981Y30830004D01*
X57586328Y30841001D01*
X57586317Y30841001D01*
X57548995Y30844677D01*
X57511673Y30841001D01*
X56971423Y30841001D01*
X57069353Y31077426D01*
X57124500Y31354665D01*
X57124500Y31637335D01*
X57069353Y31914574D01*
X56961180Y32175727D01*
X56804137Y32410759D01*
X56604259Y32610637D01*
X56371741Y32766000D01*
X56604259Y32921363D01*
X56804137Y33121241D01*
X56961180Y33356273D01*
X57069353Y33617426D01*
X57124500Y33894665D01*
X57124500Y34177335D01*
X57069353Y34454574D01*
X56961180Y34715727D01*
X56804137Y34950759D01*
X56605539Y35149357D01*
X56613982Y35150188D01*
X56733680Y35186498D01*
X56843994Y35245463D01*
X56940685Y35324815D01*
X57020037Y35421506D01*
X57079002Y35531820D01*
X57115312Y35651518D01*
X57127572Y35776000D01*
X57127572Y36668089D01*
X57739000Y36668089D01*
X57739000Y36483911D01*
X57774932Y36303271D01*
X57845414Y36133111D01*
X57947738Y35979972D01*
X58077972Y35849738D01*
X58231111Y35747414D01*
X58401271Y35676932D01*
X58581911Y35641000D01*
X58766089Y35641000D01*
X58946729Y35676932D01*
X59116889Y35747414D01*
X59270028Y35849738D01*
X59400262Y35979972D01*
X59502586Y36133111D01*
X59573068Y36303271D01*
X59597153Y36424351D01*
X60304801Y37131999D01*
X61992715Y37131999D01*
X61958254Y37059087D01*
X61917596Y36925039D01*
X62039585Y36703000D01*
X63182500Y36703000D01*
X63182500Y36723000D01*
X63436500Y36723000D01*
X63436500Y36703000D01*
X64218964Y36703000D01*
X64243271Y36692932D01*
X64423911Y36657000D01*
X64608089Y36657000D01*
X64788729Y36692932D01*
X64958889Y36763414D01*
X65112028Y36865738D01*
X65242262Y36995972D01*
X65344586Y37149111D01*
X65415068Y37319271D01*
X65451000Y37499911D01*
X65451000Y37684089D01*
X65415068Y37864729D01*
X65344586Y38034889D01*
X65242262Y38188028D01*
X65112028Y38318262D01*
X64958889Y38420586D01*
X64788729Y38491068D01*
X64650531Y38518558D01*
X64640277Y38526973D01*
X64577359Y38560604D01*
X64687727Y38606320D01*
X64922759Y38763363D01*
X65044694Y38885298D01*
X70814903Y38885298D01*
X70886486Y38641329D01*
X71141996Y38520429D01*
X71416184Y38451700D01*
X71698512Y38437783D01*
X71978130Y38479213D01*
X72244292Y38574397D01*
X72369514Y38641329D01*
X72441097Y38885298D01*
X73100903Y38885298D01*
X73172486Y38641329D01*
X73427996Y38520429D01*
X73702184Y38451700D01*
X73984512Y38437783D01*
X74264130Y38479213D01*
X74530292Y38574397D01*
X74655514Y38641329D01*
X74727097Y38885298D01*
X73914000Y39698395D01*
X73100903Y38885298D01*
X72441097Y38885298D01*
X71628000Y39698395D01*
X70814903Y38885298D01*
X65044694Y38885298D01*
X65122637Y38963241D01*
X65279680Y39198273D01*
X65387853Y39459426D01*
X65443000Y39736665D01*
X65443000Y39807488D01*
X70187783Y39807488D01*
X70229213Y39527870D01*
X70324397Y39261708D01*
X70391329Y39136486D01*
X70635298Y39064903D01*
X71448395Y39878000D01*
X71807605Y39878000D01*
X72620702Y39064903D01*
X72771000Y39109002D01*
X72921298Y39064903D01*
X73734395Y39878000D01*
X74093605Y39878000D01*
X74906702Y39064903D01*
X75150671Y39136486D01*
X75271571Y39391996D01*
X75340300Y39666184D01*
X75354217Y39948512D01*
X75312787Y40228130D01*
X75217603Y40494292D01*
X75150671Y40619514D01*
X74906702Y40691097D01*
X74093605Y39878000D01*
X73734395Y39878000D01*
X72921298Y40691097D01*
X72771000Y40646998D01*
X72620702Y40691097D01*
X71807605Y39878000D01*
X71448395Y39878000D01*
X70635298Y40691097D01*
X70391329Y40619514D01*
X70270429Y40364004D01*
X70201700Y40089816D01*
X70187783Y39807488D01*
X65443000Y39807488D01*
X65443000Y40019335D01*
X65387853Y40296574D01*
X65279680Y40557727D01*
X65122637Y40792759D01*
X65044694Y40870702D01*
X70814903Y40870702D01*
X71628000Y40057605D01*
X72441097Y40870702D01*
X73100903Y40870702D01*
X73914000Y40057605D01*
X74727097Y40870702D01*
X74655514Y41114671D01*
X74400004Y41235571D01*
X74125816Y41304300D01*
X73843488Y41318217D01*
X73563870Y41276787D01*
X73297708Y41181603D01*
X73172486Y41114671D01*
X73100903Y40870702D01*
X72441097Y40870702D01*
X72369514Y41114671D01*
X72114004Y41235571D01*
X71839816Y41304300D01*
X71557488Y41318217D01*
X71277870Y41276787D01*
X71011708Y41181603D01*
X70886486Y41114671D01*
X70814903Y40870702D01*
X65044694Y40870702D01*
X64922759Y40992637D01*
X64687727Y41149680D01*
X64426574Y41257853D01*
X64149335Y41313000D01*
X63866665Y41313000D01*
X63589426Y41257853D01*
X63328273Y41149680D01*
X63093241Y40992637D01*
X62893363Y40792759D01*
X62807284Y40663932D01*
X62714702Y40691097D01*
X61901605Y39878000D01*
X62714702Y39064903D01*
X62807284Y39092068D01*
X62893363Y38963241D01*
X63093241Y38763363D01*
X63259909Y38651999D01*
X62466645Y38651999D01*
X62535097Y38885298D01*
X61722000Y39698395D01*
X60908903Y38885298D01*
X60977355Y38651999D01*
X60027324Y38651999D01*
X59989999Y38655675D01*
X59952674Y38651999D01*
X59952666Y38651999D01*
X59841013Y38641002D01*
X59697752Y38597545D01*
X59565723Y38526973D01*
X59449998Y38432000D01*
X59426200Y38403002D01*
X58522351Y37499153D01*
X58401271Y37475068D01*
X58231111Y37404586D01*
X58077972Y37302262D01*
X57947738Y37172028D01*
X57845414Y37018889D01*
X57774932Y36848729D01*
X57739000Y36668089D01*
X57127572Y36668089D01*
X57127572Y37376000D01*
X57115312Y37500482D01*
X57079002Y37620180D01*
X57020037Y37730494D01*
X56940685Y37827185D01*
X56843994Y37906537D01*
X56733680Y37965502D01*
X56613982Y38001812D01*
X56489500Y38014072D01*
X54889500Y38014072D01*
X54765018Y38001812D01*
X54645320Y37965502D01*
X54535006Y37906537D01*
X54438315Y37827185D01*
X54358963Y37730494D01*
X54299998Y37620180D01*
X54263688Y37500482D01*
X54251428Y37376000D01*
X54251428Y36530230D01*
X52916198Y35194999D01*
X52238072Y35194999D01*
X52238072Y36360000D01*
X52225812Y36484482D01*
X52189502Y36604180D01*
X52130537Y36714494D01*
X52051185Y36811185D01*
X51954494Y36890537D01*
X51844180Y36949502D01*
X51724482Y36985812D01*
X51600000Y36998072D01*
X50539214Y36998072D01*
X50544000Y37046667D01*
X50544000Y37046676D01*
X50547676Y37083999D01*
X50544000Y37121322D01*
X50544000Y37165000D01*
X50638089Y37165000D01*
X50818729Y37200932D01*
X50988889Y37271414D01*
X51142028Y37373738D01*
X51272262Y37503972D01*
X51374586Y37657111D01*
X51445068Y37827271D01*
X51469153Y37948351D01*
X51898100Y38377298D01*
X53288903Y38377298D01*
X53360486Y38133329D01*
X53615996Y38012429D01*
X53890184Y37943700D01*
X54172512Y37929783D01*
X54452130Y37971213D01*
X54718292Y38066397D01*
X54843514Y38133329D01*
X54915097Y38377298D01*
X54102000Y39190395D01*
X53288903Y38377298D01*
X51898100Y38377298D01*
X52073004Y38552202D01*
X52102001Y38575999D01*
X52164373Y38651999D01*
X52196974Y38691723D01*
X52267546Y38823753D01*
X52272649Y38840575D01*
X52311003Y38967014D01*
X52322000Y39078667D01*
X52322000Y39078677D01*
X52325676Y39116000D01*
X52322000Y39153322D01*
X52322000Y39299488D01*
X52661783Y39299488D01*
X52703213Y39019870D01*
X52798397Y38753708D01*
X52865329Y38628486D01*
X53109298Y38556903D01*
X53922395Y39370000D01*
X54281605Y39370000D01*
X55094702Y38556903D01*
X55338671Y38628486D01*
X55459571Y38883996D01*
X55514334Y39102469D01*
X55607363Y38963241D01*
X55807241Y38763363D01*
X56042273Y38606320D01*
X56303426Y38498147D01*
X56580665Y38443000D01*
X56863335Y38443000D01*
X57140574Y38498147D01*
X57401727Y38606320D01*
X57636759Y38763363D01*
X57836637Y38963241D01*
X57993680Y39198273D01*
X58101853Y39459426D01*
X58157000Y39736665D01*
X58157000Y39807488D01*
X60281783Y39807488D01*
X60323213Y39527870D01*
X60418397Y39261708D01*
X60485329Y39136486D01*
X60729298Y39064903D01*
X61542395Y39878000D01*
X60729298Y40691097D01*
X60485329Y40619514D01*
X60364429Y40364004D01*
X60295700Y40089816D01*
X60281783Y39807488D01*
X58157000Y39807488D01*
X58157000Y40019335D01*
X58101853Y40296574D01*
X57993680Y40557727D01*
X57836637Y40792759D01*
X57758694Y40870702D01*
X60908903Y40870702D01*
X61722000Y40057605D01*
X62535097Y40870702D01*
X62463514Y41114671D01*
X62208004Y41235571D01*
X61933816Y41304300D01*
X61651488Y41318217D01*
X61371870Y41276787D01*
X61105708Y41181603D01*
X60980486Y41114671D01*
X60908903Y40870702D01*
X57758694Y40870702D01*
X57636759Y40992637D01*
X57401727Y41149680D01*
X57140574Y41257853D01*
X56863335Y41313000D01*
X56580665Y41313000D01*
X56303426Y41257853D01*
X56042273Y41149680D01*
X55807241Y40992637D01*
X55607363Y40792759D01*
X55450320Y40557727D01*
X55342147Y40296574D01*
X55307174Y40120756D01*
X55094702Y40183097D01*
X54281605Y39370000D01*
X53922395Y39370000D01*
X53109298Y40183097D01*
X52865329Y40111514D01*
X52744429Y39856004D01*
X52675700Y39581816D01*
X52661783Y39299488D01*
X52322000Y39299488D01*
X52322000Y40362702D01*
X53288903Y40362702D01*
X54102000Y39549605D01*
X54915097Y40362702D01*
X54843514Y40606671D01*
X54588004Y40727571D01*
X54313816Y40796300D01*
X54031488Y40810217D01*
X53751870Y40768787D01*
X53485708Y40673603D01*
X53360486Y40606671D01*
X53288903Y40362702D01*
X52322000Y40362702D01*
X52322000Y41087199D01*
X58721836Y47487034D01*
X58735820Y47453273D01*
X58892863Y47218241D01*
X59092741Y47018363D01*
X59325259Y46863000D01*
X59092741Y46707637D01*
X58892863Y46507759D01*
X58735820Y46272727D01*
X58627647Y46011574D01*
X58572500Y45734335D01*
X58572500Y45451665D01*
X58627647Y45174426D01*
X58735820Y44913273D01*
X58892863Y44678241D01*
X59092741Y44478363D01*
X59325259Y44323000D01*
X59092741Y44167637D01*
X58892863Y43967759D01*
X58735820Y43732727D01*
X58627647Y43471574D01*
X58572500Y43194335D01*
X58572500Y42911665D01*
X58627647Y42634426D01*
X58735820Y42373273D01*
X58892863Y42138241D01*
X59092741Y41938363D01*
X59327773Y41781320D01*
X59588926Y41673147D01*
X59866165Y41618000D01*
X60148835Y41618000D01*
X60426074Y41673147D01*
X60687227Y41781320D01*
X60922259Y41938363D01*
X61122137Y42138241D01*
X61279180Y42373273D01*
X61387353Y42634426D01*
X61442500Y42911665D01*
X61442500Y43194335D01*
X61387353Y43471574D01*
X61279180Y43732727D01*
X61122137Y43967759D01*
X60922259Y44167637D01*
X60689741Y44323000D01*
X60922259Y44478363D01*
X61122137Y44678241D01*
X61279180Y44913273D01*
X61387353Y45174426D01*
X61442500Y45451665D01*
X61442500Y45734335D01*
X61387353Y46011574D01*
X61279180Y46272727D01*
X61122137Y46507759D01*
X60922259Y46707637D01*
X60689741Y46863000D01*
X60922259Y47018363D01*
X61122137Y47218241D01*
X61279180Y47453273D01*
X61387353Y47714426D01*
X61442500Y47991665D01*
X61442500Y48274335D01*
X61387353Y48551574D01*
X61375786Y48579500D01*
X62874897Y48579500D01*
X63444010Y48010386D01*
X63444010Y47948249D01*
X63483784Y47748290D01*
X63561805Y47559932D01*
X63675073Y47390414D01*
X63819236Y47246251D01*
X63988754Y47132983D01*
X64177112Y47054962D01*
X64377071Y47015188D01*
X64580949Y47015188D01*
X64780908Y47054962D01*
X64969266Y47132983D01*
X65138784Y47246251D01*
X65282947Y47390414D01*
X65396215Y47559932D01*
X65474236Y47748290D01*
X65514010Y47948249D01*
X65514010Y48152127D01*
X65474236Y48352086D01*
X65396215Y48540444D01*
X65282947Y48709962D01*
X65138784Y48854125D01*
X64969266Y48967393D01*
X64780908Y49045414D01*
X64580949Y49085188D01*
X64518812Y49085188D01*
X63753502Y49850497D01*
X63729699Y49879501D01*
X63613974Y49974474D01*
X63481945Y50045046D01*
X63338684Y50088503D01*
X63227031Y50099500D01*
X63227020Y50099500D01*
X63189698Y50103176D01*
X63152376Y50099500D01*
X61323181Y50099500D01*
X61387353Y50254426D01*
X61442500Y50531665D01*
X61442500Y50814335D01*
X61387353Y51091574D01*
X61279180Y51352727D01*
X61122137Y51587759D01*
X60926561Y51783335D01*
X62573000Y51783335D01*
X62573000Y51500665D01*
X62628147Y51223426D01*
X62736320Y50962273D01*
X62893363Y50727241D01*
X63093241Y50527363D01*
X63328273Y50370320D01*
X63589426Y50262147D01*
X63866665Y50207000D01*
X64149335Y50207000D01*
X64426574Y50262147D01*
X64687727Y50370320D01*
X64922759Y50527363D01*
X65122637Y50727241D01*
X65279680Y50962273D01*
X65387853Y51223426D01*
X65443000Y51500665D01*
X65443000Y51783335D01*
X65387853Y52060574D01*
X65279680Y52321727D01*
X65122637Y52556759D01*
X64922759Y52756637D01*
X64687727Y52913680D01*
X64426574Y53021853D01*
X64149335Y53077000D01*
X63866665Y53077000D01*
X63589426Y53021853D01*
X63328273Y52913680D01*
X63093241Y52756637D01*
X62893363Y52556759D01*
X62736320Y52321727D01*
X62628147Y52060574D01*
X62573000Y51783335D01*
X60926561Y51783335D01*
X60922259Y51787637D01*
X60689741Y51943000D01*
X60922259Y52098363D01*
X61122137Y52298241D01*
X61279180Y52533273D01*
X61387353Y52794426D01*
X61442500Y53071665D01*
X61442500Y53354335D01*
X61387353Y53631574D01*
X61279180Y53892727D01*
X61122137Y54127759D01*
X60922259Y54327637D01*
X60767500Y54431043D01*
X60767500Y54534957D01*
X60922259Y54638363D01*
X61122137Y54838241D01*
X61279180Y55073273D01*
X61387353Y55334426D01*
X61442500Y55611665D01*
X61442500Y55649298D01*
X63194903Y55649298D01*
X63266486Y55405329D01*
X63521996Y55284429D01*
X63796184Y55215700D01*
X64078512Y55201783D01*
X64358130Y55243213D01*
X64624292Y55338397D01*
X64749514Y55405329D01*
X64821097Y55649298D01*
X64008000Y56462395D01*
X63194903Y55649298D01*
X61442500Y55649298D01*
X61442500Y55894335D01*
X61387353Y56171574D01*
X61279180Y56432727D01*
X61186464Y56571488D01*
X62567783Y56571488D01*
X62609213Y56291870D01*
X62704397Y56025708D01*
X62771329Y55900486D01*
X63015298Y55828903D01*
X63828395Y56642000D01*
X64187605Y56642000D01*
X65000702Y55828903D01*
X65223707Y55894335D01*
X66192500Y55894335D01*
X66192500Y55611665D01*
X66247647Y55334426D01*
X66355820Y55073273D01*
X66512863Y54838241D01*
X66712741Y54638363D01*
X66945259Y54483000D01*
X66712741Y54327637D01*
X66512863Y54127759D01*
X66355820Y53892727D01*
X66247647Y53631574D01*
X66192500Y53354335D01*
X66192500Y53071665D01*
X66247647Y52794426D01*
X66355820Y52533273D01*
X66512863Y52298241D01*
X66712741Y52098363D01*
X66867501Y51994956D01*
X66867500Y51891044D01*
X66712741Y51787637D01*
X66512863Y51587759D01*
X66355820Y51352727D01*
X66247647Y51091574D01*
X66192500Y50814335D01*
X66192500Y50531665D01*
X66247647Y50254426D01*
X66355820Y49993273D01*
X66512863Y49758241D01*
X66712741Y49558363D01*
X66945259Y49403000D01*
X66712741Y49247637D01*
X66512863Y49047759D01*
X66355820Y48812727D01*
X66247647Y48551574D01*
X66192500Y48274335D01*
X66192500Y47991665D01*
X66247647Y47714426D01*
X66355820Y47453273D01*
X66512863Y47218241D01*
X66712741Y47018363D01*
X66945259Y46863000D01*
X66712741Y46707637D01*
X66512863Y46507759D01*
X66355820Y46272727D01*
X66247647Y46011574D01*
X66192500Y45734335D01*
X66192500Y45451665D01*
X66247647Y45174426D01*
X66355820Y44913273D01*
X66512863Y44678241D01*
X66712741Y44478363D01*
X66945259Y44323000D01*
X66712741Y44167637D01*
X66512863Y43967759D01*
X66355820Y43732727D01*
X66247647Y43471574D01*
X66192500Y43194335D01*
X66192500Y42911665D01*
X66247647Y42634426D01*
X66355820Y42373273D01*
X66512863Y42138241D01*
X66712741Y41938363D01*
X66947773Y41781320D01*
X67208926Y41673147D01*
X67486165Y41618000D01*
X67768835Y41618000D01*
X68046074Y41673147D01*
X68307227Y41781320D01*
X68542259Y41938363D01*
X68742137Y42138241D01*
X68899180Y42373273D01*
X69007353Y42634426D01*
X69062500Y42911665D01*
X69062500Y43194335D01*
X69007353Y43471574D01*
X68899180Y43732727D01*
X68742137Y43967759D01*
X68542259Y44167637D01*
X68381500Y44275053D01*
X74765000Y44275053D01*
X74765000Y43824947D01*
X74852811Y43383490D01*
X75025059Y42967647D01*
X75275125Y42593397D01*
X75593397Y42275125D01*
X75967647Y42025059D01*
X76383490Y41852811D01*
X76824947Y41765000D01*
X77275053Y41765000D01*
X77716510Y41852811D01*
X78132353Y42025059D01*
X78506603Y42275125D01*
X78824875Y42593397D01*
X79074941Y42967647D01*
X79247189Y43383490D01*
X79335000Y43824947D01*
X79335000Y44275053D01*
X79247189Y44716510D01*
X79074941Y45132353D01*
X78824875Y45506603D01*
X78506603Y45824875D01*
X78132353Y46074941D01*
X77716510Y46247189D01*
X77275053Y46335000D01*
X76824947Y46335000D01*
X76383490Y46247189D01*
X75967647Y46074941D01*
X75593397Y45824875D01*
X75275125Y45506603D01*
X75025059Y45132353D01*
X74852811Y44716510D01*
X74765000Y44275053D01*
X68381500Y44275053D01*
X68309741Y44323000D01*
X68542259Y44478363D01*
X68742137Y44678241D01*
X68899180Y44913273D01*
X69007353Y45174426D01*
X69062500Y45451665D01*
X69062500Y45734335D01*
X69007353Y46011574D01*
X68899180Y46272727D01*
X68742137Y46507759D01*
X68542259Y46707637D01*
X68309741Y46863000D01*
X68542259Y47018363D01*
X68742137Y47218241D01*
X68899180Y47453273D01*
X68934106Y47537592D01*
X70153000Y47537592D01*
X70153000Y47262408D01*
X70206686Y46992510D01*
X70311995Y46738273D01*
X70464880Y46509465D01*
X70659465Y46314880D01*
X70888273Y46161995D01*
X71142510Y46056686D01*
X71412408Y46003000D01*
X71687592Y46003000D01*
X71957490Y46056686D01*
X72211727Y46161995D01*
X72440535Y46314880D01*
X72560090Y46434435D01*
X73264040Y46434435D01*
X73331020Y46194344D01*
X73580048Y46077244D01*
X73847135Y46010977D01*
X74122017Y45998090D01*
X74394133Y46039078D01*
X74653023Y46132364D01*
X74768980Y46194344D01*
X74835960Y46434435D01*
X74050000Y47220395D01*
X73264040Y46434435D01*
X72560090Y46434435D01*
X72635120Y46509465D01*
X72788005Y46738273D01*
X72799242Y46765401D01*
X72844344Y46681020D01*
X73084435Y46614040D01*
X73870395Y47400000D01*
X74229605Y47400000D01*
X75015565Y46614040D01*
X75255656Y46681020D01*
X75372756Y46930048D01*
X75439023Y47197135D01*
X75451910Y47472017D01*
X75410922Y47744133D01*
X75317636Y48003023D01*
X75255656Y48118980D01*
X75015565Y48185960D01*
X74229605Y47400000D01*
X73870395Y47400000D01*
X73084435Y48185960D01*
X72844344Y48118980D01*
X72801782Y48028467D01*
X72788005Y48061727D01*
X72635120Y48290535D01*
X72440535Y48485120D01*
X72211727Y48638005D01*
X71957490Y48743314D01*
X71687592Y48797000D01*
X71412408Y48797000D01*
X71142510Y48743314D01*
X70888273Y48638005D01*
X70659465Y48485120D01*
X70464880Y48290535D01*
X70311995Y48061727D01*
X70206686Y47807490D01*
X70153000Y47537592D01*
X68934106Y47537592D01*
X69007353Y47714426D01*
X69062500Y47991665D01*
X69062500Y48274335D01*
X69007353Y48551574D01*
X68899180Y48812727D01*
X68742137Y49047759D01*
X68542259Y49247637D01*
X68309741Y49403000D01*
X68542259Y49558363D01*
X68742137Y49758241D01*
X68899180Y49993273D01*
X69007353Y50254426D01*
X69062500Y50531665D01*
X69062500Y50814335D01*
X69007353Y51091574D01*
X68899180Y51352727D01*
X68742137Y51587759D01*
X68542259Y51787637D01*
X68387500Y51891043D01*
X68387500Y51994957D01*
X68542259Y52098363D01*
X68742137Y52298241D01*
X68899180Y52533273D01*
X69007353Y52794426D01*
X69062500Y53071665D01*
X69062500Y53354335D01*
X69007353Y53631574D01*
X68899180Y53892727D01*
X68742137Y54127759D01*
X68542259Y54327637D01*
X68527361Y54337592D01*
X70153000Y54337592D01*
X70153000Y54062408D01*
X70206686Y53792510D01*
X70311995Y53538273D01*
X70464880Y53309465D01*
X70659465Y53114880D01*
X70888273Y52961995D01*
X71142510Y52856686D01*
X71412408Y52803000D01*
X71687592Y52803000D01*
X71957490Y52856686D01*
X72211727Y52961995D01*
X72440535Y53114880D01*
X72635120Y53309465D01*
X72788005Y53538273D01*
X72800000Y53567231D01*
X72811995Y53538273D01*
X72964880Y53309465D01*
X73124345Y53150000D01*
X72964880Y52990535D01*
X72811995Y52761727D01*
X72706686Y52507490D01*
X72653000Y52237592D01*
X72653000Y51962408D01*
X72706686Y51692510D01*
X72811995Y51438273D01*
X72964880Y51209465D01*
X73159465Y51014880D01*
X73388273Y50861995D01*
X73537941Y50800000D01*
X73388273Y50738005D01*
X73159465Y50585120D01*
X72964880Y50390535D01*
X72811995Y50161727D01*
X72706686Y49907490D01*
X72653000Y49637592D01*
X72653000Y49362408D01*
X72706686Y49092510D01*
X72811995Y48838273D01*
X72964880Y48609465D01*
X73159465Y48414880D01*
X73326001Y48303604D01*
X74050000Y47579605D01*
X74773999Y48303604D01*
X74940535Y48414880D01*
X75135120Y48609465D01*
X75288005Y48838273D01*
X75393314Y49092510D01*
X75447000Y49362408D01*
X75447000Y49637592D01*
X75393314Y49907490D01*
X75288005Y50161727D01*
X75135120Y50390535D01*
X74940535Y50585120D01*
X74711727Y50738005D01*
X74562059Y50800000D01*
X74711727Y50861995D01*
X74940535Y51014880D01*
X75135120Y51209465D01*
X75288005Y51438273D01*
X75393314Y51692510D01*
X75447000Y51962408D01*
X75447000Y52237592D01*
X75393314Y52507490D01*
X75288005Y52761727D01*
X75135120Y52990535D01*
X74975655Y53150000D01*
X75135120Y53309465D01*
X75288005Y53538273D01*
X75393314Y53792510D01*
X75447000Y54062408D01*
X75447000Y54337592D01*
X75393314Y54607490D01*
X75288005Y54861727D01*
X75135120Y55090535D01*
X74940535Y55285120D01*
X74711727Y55438005D01*
X74457490Y55543314D01*
X74187592Y55597000D01*
X73912408Y55597000D01*
X73642510Y55543314D01*
X73388273Y55438005D01*
X73159465Y55285120D01*
X72964880Y55090535D01*
X72811995Y54861727D01*
X72800000Y54832769D01*
X72788005Y54861727D01*
X72635120Y55090535D01*
X72440535Y55285120D01*
X72211727Y55438005D01*
X71957490Y55543314D01*
X71687592Y55597000D01*
X71412408Y55597000D01*
X71142510Y55543314D01*
X70888273Y55438005D01*
X70659465Y55285120D01*
X70464880Y55090535D01*
X70311995Y54861727D01*
X70206686Y54607490D01*
X70153000Y54337592D01*
X68527361Y54337592D01*
X68309741Y54483000D01*
X68542259Y54638363D01*
X68742137Y54838241D01*
X68899180Y55073273D01*
X69007353Y55334426D01*
X69062500Y55611665D01*
X69062500Y55894335D01*
X69007353Y56171574D01*
X68899180Y56432727D01*
X68742137Y56667759D01*
X68542259Y56867637D01*
X68307227Y57024680D01*
X68296635Y57029067D01*
X68482631Y57140615D01*
X68691019Y57329586D01*
X68858537Y57555580D01*
X68978746Y57809913D01*
X69019404Y57943961D01*
X68897415Y58166000D01*
X67754500Y58166000D01*
X67754500Y58146000D01*
X67500500Y58146000D01*
X67500500Y58166000D01*
X66357585Y58166000D01*
X66235596Y57943961D01*
X66276254Y57809913D01*
X66396463Y57555580D01*
X66563981Y57329586D01*
X66772369Y57140615D01*
X66958365Y57029067D01*
X66947773Y57024680D01*
X66712741Y56867637D01*
X66512863Y56667759D01*
X66355820Y56432727D01*
X66247647Y56171574D01*
X66192500Y55894335D01*
X65223707Y55894335D01*
X65244671Y55900486D01*
X65365571Y56155996D01*
X65434300Y56430184D01*
X65448217Y56712512D01*
X65406787Y56992130D01*
X65311603Y57258292D01*
X65244671Y57383514D01*
X65000702Y57455097D01*
X64187605Y56642000D01*
X63828395Y56642000D01*
X63015298Y57455097D01*
X62771329Y57383514D01*
X62650429Y57128004D01*
X62581700Y56853816D01*
X62567783Y56571488D01*
X61186464Y56571488D01*
X61122137Y56667759D01*
X60923539Y56866357D01*
X60931982Y56867188D01*
X61051680Y56903498D01*
X61161994Y56962463D01*
X61258685Y57041815D01*
X61338037Y57138506D01*
X61397002Y57248820D01*
X61433312Y57368518D01*
X61445572Y57493000D01*
X61445572Y57634702D01*
X63194903Y57634702D01*
X64008000Y56821605D01*
X64821097Y57634702D01*
X64749514Y57878671D01*
X64494004Y57999571D01*
X64219816Y58068300D01*
X63937488Y58082217D01*
X63657870Y58040787D01*
X63391708Y57945603D01*
X63266486Y57878671D01*
X63194903Y57634702D01*
X61445572Y57634702D01*
X61445572Y59093000D01*
X61433312Y59217482D01*
X61397002Y59337180D01*
X61370907Y59386000D01*
X66706882Y59386000D01*
X66563981Y59256414D01*
X66396463Y59030420D01*
X66276254Y58776087D01*
X66235596Y58642039D01*
X66357585Y58420000D01*
X67500500Y58420000D01*
X67500500Y58440000D01*
X67754500Y58440000D01*
X67754500Y58420000D01*
X68897415Y58420000D01*
X69019404Y58642039D01*
X68978746Y58776087D01*
X68858537Y59030420D01*
X68691019Y59256414D01*
X68548118Y59386000D01*
X75684877Y59386000D01*
X75593397Y59324875D01*
X75275125Y59006603D01*
X75025059Y58632353D01*
X74852811Y58216510D01*
X74765000Y57775053D01*
X74765000Y57324947D01*
X74852811Y56883490D01*
X75025059Y56467647D01*
X75275125Y56093397D01*
X75593397Y55775125D01*
X75967647Y55525059D01*
X76383490Y55352811D01*
X76824947Y55265000D01*
X77275053Y55265000D01*
X77716510Y55352811D01*
X78132353Y55525059D01*
X78506603Y55775125D01*
X78824875Y56093397D01*
X79074941Y56467647D01*
X79247189Y56883490D01*
X79335000Y57324947D01*
X79335000Y57775053D01*
X79247189Y58216510D01*
X79074941Y58632353D01*
X78824875Y59006603D01*
X78506603Y59324875D01*
X78415123Y59386000D01*
X78646647Y59386000D01*
X78740956Y59395289D01*
X78903542Y59379347D01*
X79183018Y59294969D01*
X79440780Y59157915D01*
X79667015Y58973401D01*
X79853103Y58748460D01*
X79991956Y58491658D01*
X80078282Y58212781D01*
X80096365Y58040731D01*
X80087000Y57945646D01*
X80087000Y51266365D01*
X80047189Y51466510D01*
X79874941Y51882353D01*
X79624875Y52256603D01*
X79306603Y52574875D01*
X78932353Y52824941D01*
X78516510Y52997189D01*
X78075053Y53085000D01*
X77624947Y53085000D01*
X77183490Y52997189D01*
X76767647Y52824941D01*
X76393397Y52574875D01*
X76075125Y52256603D01*
X75825059Y51882353D01*
X75652811Y51466510D01*
X75565000Y51025053D01*
X75565000Y50574947D01*
X75652811Y50133490D01*
X75825059Y49717647D01*
X76075125Y49343397D01*
X76393397Y49025125D01*
X76767647Y48775059D01*
X77183490Y48602811D01*
X77624947Y48515000D01*
X78075053Y48515000D01*
X78516510Y48602811D01*
X78932353Y48775059D01*
X79306603Y49025125D01*
X79624875Y49343397D01*
X79874941Y49717647D01*
X80047189Y50133490D01*
X80087000Y50333635D01*
X80087000Y40705412D01*
X80028637Y40792759D01*
X79828759Y40992637D01*
X79593727Y41149680D01*
X79332574Y41257853D01*
X79055335Y41313000D01*
X78772665Y41313000D01*
X78495426Y41257853D01*
X78234273Y41149680D01*
X77999241Y40992637D01*
X77799363Y40792759D01*
X77642320Y40557727D01*
X77534147Y40296574D01*
X77479000Y40019335D01*
X77479000Y39736665D01*
X77534147Y39459426D01*
X77642320Y39198273D01*
X77799363Y38963241D01*
X77999241Y38763363D01*
X78234273Y38606320D01*
X78495426Y38498147D01*
X78772665Y38443000D01*
X79055335Y38443000D01*
X79332574Y38498147D01*
X79593727Y38606320D01*
X79828759Y38763363D01*
X80028637Y38963241D01*
X80087000Y39050588D01*
X80087001Y685000D01*
X14218381Y685000D01*
X685000Y14218380D01*
X685000Y20461335D01*
X1105000Y20461335D01*
X1105000Y20178665D01*
X1160147Y19901426D01*
X1268320Y19640273D01*
X1425363Y19405241D01*
X1625241Y19205363D01*
X1860273Y19048320D01*
X2121426Y18940147D01*
X2398665Y18885000D01*
X2681335Y18885000D01*
X2958574Y18940147D01*
X3219727Y19048320D01*
X3454759Y19205363D01*
X3654637Y19405241D01*
X3810000Y19637759D01*
X3965363Y19405241D01*
X4165241Y19205363D01*
X4400273Y19048320D01*
X4661426Y18940147D01*
X4938665Y18885000D01*
X5221335Y18885000D01*
X5498574Y18940147D01*
X5759727Y19048320D01*
X5994759Y19205363D01*
X6194637Y19405241D01*
X6350000Y19637759D01*
X6505363Y19405241D01*
X6705241Y19205363D01*
X6940273Y19048320D01*
X7201426Y18940147D01*
X7478665Y18885000D01*
X7761335Y18885000D01*
X8038574Y18940147D01*
X8299727Y19048320D01*
X8534759Y19205363D01*
X8734637Y19405241D01*
X8890000Y19637759D01*
X9025001Y19435715D01*
X9025000Y17902284D01*
X8888320Y17697727D01*
X8780147Y17436574D01*
X8725000Y17159335D01*
X8725000Y16876665D01*
X8780147Y16599426D01*
X8888320Y16338273D01*
X9045363Y16103241D01*
X9245241Y15903363D01*
X9480273Y15746320D01*
X9741426Y15638147D01*
X10018665Y15583000D01*
X10301335Y15583000D01*
X10578574Y15638147D01*
X10839727Y15746320D01*
X11074759Y15903363D01*
X11196694Y16025298D01*
X16966903Y16025298D01*
X17038486Y15781329D01*
X17293996Y15660429D01*
X17568184Y15591700D01*
X17850512Y15577783D01*
X18130130Y15619213D01*
X18396292Y15714397D01*
X18521514Y15781329D01*
X18593097Y16025298D01*
X17780000Y16838395D01*
X16966903Y16025298D01*
X11196694Y16025298D01*
X11274637Y16103241D01*
X11431680Y16338273D01*
X11539853Y16599426D01*
X11595000Y16876665D01*
X11595000Y16947488D01*
X16339783Y16947488D01*
X16381213Y16667870D01*
X16476397Y16401708D01*
X16543329Y16276486D01*
X16787298Y16204903D01*
X17600395Y17018000D01*
X17959605Y17018000D01*
X18772702Y16204903D01*
X19016671Y16276486D01*
X19137571Y16531996D01*
X19206300Y16806184D01*
X19220217Y17088512D01*
X19178787Y17368130D01*
X19083603Y17634292D01*
X19016671Y17759514D01*
X18772702Y17831097D01*
X17959605Y17018000D01*
X17600395Y17018000D01*
X16787298Y17831097D01*
X16543329Y17759514D01*
X16422429Y17504004D01*
X16353700Y17229816D01*
X16339783Y16947488D01*
X11595000Y16947488D01*
X11595000Y17159335D01*
X11539853Y17436574D01*
X11431680Y17697727D01*
X11295000Y17902284D01*
X11295000Y19435716D01*
X11430000Y19637759D01*
X11585363Y19405241D01*
X11785241Y19205363D01*
X12020273Y19048320D01*
X12281426Y18940147D01*
X12558665Y18885000D01*
X12841335Y18885000D01*
X13118574Y18940147D01*
X13379727Y19048320D01*
X13614759Y19205363D01*
X13814637Y19405241D01*
X13970000Y19637759D01*
X14125363Y19405241D01*
X14325241Y19205363D01*
X14560273Y19048320D01*
X14821426Y18940147D01*
X15098665Y18885000D01*
X15381335Y18885000D01*
X15563887Y18921312D01*
X15801197Y18684002D01*
X15825000Y18654998D01*
X15940725Y18560025D01*
X16072754Y18489453D01*
X16216015Y18445996D01*
X16327668Y18434999D01*
X16327677Y18434999D01*
X16365000Y18431323D01*
X16402323Y18434999D01*
X17552786Y18434999D01*
X17429870Y18416787D01*
X17163708Y18321603D01*
X17038486Y18254671D01*
X16966903Y18010702D01*
X17780000Y17197605D01*
X18593097Y18010702D01*
X18521514Y18254671D01*
X18266004Y18375571D01*
X18028921Y18434999D01*
X18828787Y18434999D01*
X19029798Y18233987D01*
X19053598Y18204987D01*
X19169323Y18110014D01*
X19301352Y18039442D01*
X19444613Y17995985D01*
X19556266Y17984988D01*
X19556275Y17984988D01*
X19593598Y17981312D01*
X19630923Y17984988D01*
X21182387Y17984988D01*
X21383403Y17783971D01*
X21407197Y17754978D01*
X21436190Y17731184D01*
X21436195Y17731179D01*
X21522921Y17660005D01*
X21654951Y17589432D01*
X21798211Y17545975D01*
X21947197Y17531301D01*
X21984539Y17534979D01*
X23535986Y17534977D01*
X23736999Y17333964D01*
X23760798Y17304965D01*
X23876523Y17209992D01*
X24008552Y17139420D01*
X24151813Y17095963D01*
X24263466Y17084966D01*
X24263475Y17084966D01*
X24300798Y17081290D01*
X24338123Y17084966D01*
X25889587Y17084966D01*
X26090599Y16883953D01*
X26114398Y16854954D01*
X26230123Y16759981D01*
X26362152Y16689409D01*
X26505413Y16645952D01*
X26617066Y16634955D01*
X26617075Y16634955D01*
X26654398Y16631279D01*
X26691723Y16634955D01*
X28243188Y16634955D01*
X31165144Y13712998D01*
X31188943Y13683999D01*
X31217941Y13660201D01*
X31304668Y13589026D01*
X31436697Y13518454D01*
X31579958Y13474997D01*
X31728944Y13460323D01*
X31766277Y13464000D01*
X49326685Y13464000D01*
X54811499Y7979185D01*
X54668589Y7919990D01*
X54425368Y7757475D01*
X54218525Y7550632D01*
X54102000Y7376240D01*
X53985475Y7550632D01*
X53778632Y7757475D01*
X53535411Y7919990D01*
X53265158Y8031932D01*
X52978260Y8089000D01*
X52685740Y8089000D01*
X52398842Y8031932D01*
X52128589Y7919990D01*
X51885368Y7757475D01*
X51678525Y7550632D01*
X51562000Y7376240D01*
X51445475Y7550632D01*
X51238632Y7757475D01*
X50995411Y7919990D01*
X50725158Y8031932D01*
X50438260Y8089000D01*
X50145740Y8089000D01*
X49858842Y8031932D01*
X49588589Y7919990D01*
X49345368Y7757475D01*
X49138525Y7550632D01*
X49016805Y7368466D01*
X48947178Y7485355D01*
X48752269Y7701588D01*
X48518920Y7875641D01*
X48256099Y8000825D01*
X48108890Y8045476D01*
X47879000Y7924155D01*
X47879000Y6731000D01*
X47899000Y6731000D01*
X47899000Y6477000D01*
X47879000Y6477000D01*
X47879000Y6457000D01*
X47625000Y6457000D01*
X47625000Y6477000D01*
X47605000Y6477000D01*
X47605000Y6731000D01*
X47625000Y6731000D01*
X47625000Y7924155D01*
X47395110Y8045476D01*
X47247901Y8000825D01*
X46985080Y7875641D01*
X46751731Y7701588D01*
X46556822Y7485355D01*
X46487195Y7368466D01*
X46365475Y7550632D01*
X46158632Y7757475D01*
X45915411Y7919990D01*
X45645158Y8031932D01*
X45358260Y8089000D01*
X45065740Y8089000D01*
X44778842Y8031932D01*
X44508589Y7919990D01*
X44265368Y7757475D01*
X44058525Y7550632D01*
X43942000Y7376240D01*
X43825475Y7550632D01*
X43618632Y7757475D01*
X43375411Y7919990D01*
X43105158Y8031932D01*
X42818260Y8089000D01*
X42525740Y8089000D01*
X42238842Y8031932D01*
X41968589Y7919990D01*
X41725368Y7757475D01*
X41518525Y7550632D01*
X41402000Y7376240D01*
X41285475Y7550632D01*
X41078632Y7757475D01*
X40835411Y7919990D01*
X40565158Y8031932D01*
X40278260Y8089000D01*
X39985740Y8089000D01*
X39716999Y8035544D01*
X39716999Y10281466D01*
X39785585Y10384112D01*
X39856067Y10554272D01*
X39891999Y10734912D01*
X39891999Y10919090D01*
X39856067Y11099730D01*
X39785585Y11269890D01*
X39683261Y11423029D01*
X39553027Y11553263D01*
X39399888Y11655587D01*
X39229728Y11726069D01*
X39049088Y11762001D01*
X38864910Y11762001D01*
X38684270Y11726069D01*
X38514110Y11655587D01*
X38360971Y11553263D01*
X38230737Y11423029D01*
X38128413Y11269890D01*
X38057931Y11099730D01*
X38021999Y10919090D01*
X38021999Y10734912D01*
X38057931Y10554272D01*
X38128413Y10384112D01*
X38197000Y10281464D01*
X38196999Y7960753D01*
X38025158Y8031932D01*
X37738260Y8089000D01*
X37445740Y8089000D01*
X37158842Y8031932D01*
X36888589Y7919990D01*
X36763435Y7836365D01*
X34361888Y10237911D01*
X34427068Y10395271D01*
X34463000Y10575911D01*
X34463000Y10760089D01*
X34427068Y10940729D01*
X34356586Y11110889D01*
X34254262Y11264028D01*
X34124028Y11394262D01*
X33970889Y11496586D01*
X33800729Y11567068D01*
X33679649Y11591153D01*
X33283804Y11986997D01*
X33260002Y12016000D01*
X33144277Y12110973D01*
X33012248Y12181545D01*
X32868987Y12225002D01*
X32757334Y12235999D01*
X32757323Y12235999D01*
X32720001Y12239675D01*
X32682679Y12235999D01*
X22852325Y12235999D01*
X22815002Y12239675D01*
X22777679Y12235999D01*
X22777670Y12235999D01*
X22666017Y12225002D01*
X22540106Y12186808D01*
X22522756Y12181545D01*
X22390726Y12110973D01*
X22307086Y12042331D01*
X22275002Y12016000D01*
X22251204Y11987002D01*
X18872301Y8608098D01*
X18730889Y8702586D01*
X18560729Y8773068D01*
X18380089Y8809000D01*
X18195911Y8809000D01*
X18015271Y8773068D01*
X17845111Y8702586D01*
X17801414Y8673388D01*
X12353153Y14121648D01*
X12329068Y14242729D01*
X12258586Y14412889D01*
X12156262Y14566028D01*
X12026028Y14696262D01*
X11872889Y14798586D01*
X11702729Y14869068D01*
X11522089Y14905000D01*
X11337911Y14905000D01*
X11157271Y14869068D01*
X10987111Y14798586D01*
X10833972Y14696262D01*
X10703738Y14566028D01*
X10601414Y14412889D01*
X10530932Y14242729D01*
X10495000Y14062089D01*
X10495000Y13877911D01*
X10530932Y13697271D01*
X10601414Y13527111D01*
X10703738Y13373972D01*
X10833972Y13243738D01*
X10987111Y13141414D01*
X11157271Y13070932D01*
X11278352Y13046847D01*
X16470649Y7854549D01*
X16325368Y7757475D01*
X16118525Y7550632D01*
X15956010Y7307411D01*
X15940891Y7270910D01*
X9578652Y13633147D01*
X9554567Y13754228D01*
X9484085Y13924388D01*
X9381761Y14077527D01*
X9251527Y14207761D01*
X9098388Y14310085D01*
X8928228Y14380567D01*
X8747588Y14416499D01*
X8563410Y14416499D01*
X8382770Y14380567D01*
X8212610Y14310085D01*
X8059471Y14207761D01*
X7929237Y14077527D01*
X7826913Y13924388D01*
X7756431Y13754228D01*
X7720499Y13573588D01*
X7720499Y13389410D01*
X7756431Y13208770D01*
X7826913Y13038610D01*
X7929237Y12885471D01*
X8059471Y12755237D01*
X8212610Y12652913D01*
X8382770Y12582431D01*
X8503851Y12558346D01*
X16091704Y4970491D01*
X15956010Y4767411D01*
X15844068Y4497158D01*
X15787000Y4210260D01*
X15787000Y3917740D01*
X15844068Y3630842D01*
X15956010Y3360589D01*
X16118525Y3117368D01*
X16325368Y2910525D01*
X16568589Y2748010D01*
X16838842Y2636068D01*
X17125740Y2579000D01*
X17418260Y2579000D01*
X17705158Y2636068D01*
X17975411Y2748010D01*
X18218632Y2910525D01*
X18425475Y3117368D01*
X18542000Y3291760D01*
X18658525Y3117368D01*
X18865368Y2910525D01*
X19108589Y2748010D01*
X19378842Y2636068D01*
X19665740Y2579000D01*
X19958260Y2579000D01*
X20245158Y2636068D01*
X20515411Y2748010D01*
X20758632Y2910525D01*
X20965475Y3117368D01*
X21082000Y3291760D01*
X21198525Y3117368D01*
X21405368Y2910525D01*
X21648589Y2748010D01*
X21918842Y2636068D01*
X22205740Y2579000D01*
X22498260Y2579000D01*
X22785158Y2636068D01*
X23055411Y2748010D01*
X23298632Y2910525D01*
X23505475Y3117368D01*
X23622000Y3291760D01*
X23738525Y3117368D01*
X23945368Y2910525D01*
X24188589Y2748010D01*
X24458842Y2636068D01*
X24745740Y2579000D01*
X25038260Y2579000D01*
X25325158Y2636068D01*
X25595411Y2748010D01*
X25838632Y2910525D01*
X26045475Y3117368D01*
X26162000Y3291760D01*
X26278525Y3117368D01*
X26485368Y2910525D01*
X26728589Y2748010D01*
X26998842Y2636068D01*
X27285740Y2579000D01*
X27578260Y2579000D01*
X27865158Y2636068D01*
X28135411Y2748010D01*
X28378632Y2910525D01*
X28585475Y3117368D01*
X28702000Y3291760D01*
X28818525Y3117368D01*
X29025368Y2910525D01*
X29268589Y2748010D01*
X29538842Y2636068D01*
X29825740Y2579000D01*
X30118260Y2579000D01*
X30405158Y2636068D01*
X30675411Y2748010D01*
X30918632Y2910525D01*
X31125475Y3117368D01*
X31242000Y3291760D01*
X31358525Y3117368D01*
X31565368Y2910525D01*
X31808589Y2748010D01*
X32078842Y2636068D01*
X32365740Y2579000D01*
X32658260Y2579000D01*
X32945158Y2636068D01*
X33215411Y2748010D01*
X33458632Y2910525D01*
X33665475Y3117368D01*
X33782000Y3291760D01*
X33898525Y3117368D01*
X34105368Y2910525D01*
X34348589Y2748010D01*
X34618842Y2636068D01*
X34905740Y2579000D01*
X35198260Y2579000D01*
X35485158Y2636068D01*
X35755411Y2748010D01*
X35998632Y2910525D01*
X36205475Y3117368D01*
X36322000Y3291760D01*
X36438525Y3117368D01*
X36645368Y2910525D01*
X36888589Y2748010D01*
X37158842Y2636068D01*
X37445740Y2579000D01*
X37738260Y2579000D01*
X38025158Y2636068D01*
X38295411Y2748010D01*
X38538632Y2910525D01*
X38745475Y3117368D01*
X38862000Y3291760D01*
X38978525Y3117368D01*
X39185368Y2910525D01*
X39428589Y2748010D01*
X39698842Y2636068D01*
X39985740Y2579000D01*
X40278260Y2579000D01*
X40565158Y2636068D01*
X40835411Y2748010D01*
X41078632Y2910525D01*
X41285475Y3117368D01*
X41402000Y3291760D01*
X41518525Y3117368D01*
X41725368Y2910525D01*
X41968589Y2748010D01*
X42238842Y2636068D01*
X42525740Y2579000D01*
X42818260Y2579000D01*
X43105158Y2636068D01*
X43375411Y2748010D01*
X43618632Y2910525D01*
X43825475Y3117368D01*
X43942000Y3291760D01*
X44058525Y3117368D01*
X44265368Y2910525D01*
X44508589Y2748010D01*
X44778842Y2636068D01*
X45065740Y2579000D01*
X45358260Y2579000D01*
X45645158Y2636068D01*
X45915411Y2748010D01*
X46158632Y2910525D01*
X46365475Y3117368D01*
X46482000Y3291760D01*
X46598525Y3117368D01*
X46805368Y2910525D01*
X47048589Y2748010D01*
X47318842Y2636068D01*
X47605740Y2579000D01*
X47898260Y2579000D01*
X48185158Y2636068D01*
X48455411Y2748010D01*
X48698632Y2910525D01*
X48905475Y3117368D01*
X49027195Y3299534D01*
X49096822Y3182645D01*
X49291731Y2966412D01*
X49525080Y2792359D01*
X49787901Y2667175D01*
X49935110Y2622524D01*
X50165000Y2743845D01*
X50165000Y3937000D01*
X50145000Y3937000D01*
X50145000Y4191000D01*
X50165000Y4191000D01*
X50165000Y4211000D01*
X50419000Y4211000D01*
X50419000Y4191000D01*
X50439000Y4191000D01*
X50439000Y3937000D01*
X50419000Y3937000D01*
X50419000Y2743845D01*
X50648890Y2622524D01*
X50796099Y2667175D01*
X51058920Y2792359D01*
X51292269Y2966412D01*
X51487178Y3182645D01*
X51556805Y3299534D01*
X51678525Y3117368D01*
X51885368Y2910525D01*
X52128589Y2748010D01*
X52398842Y2636068D01*
X52685740Y2579000D01*
X52978260Y2579000D01*
X53265158Y2636068D01*
X53535411Y2748010D01*
X53778632Y2910525D01*
X53985475Y3117368D01*
X54102000Y3291760D01*
X54218525Y3117368D01*
X54425368Y2910525D01*
X54668589Y2748010D01*
X54938842Y2636068D01*
X55225740Y2579000D01*
X55518260Y2579000D01*
X55805158Y2636068D01*
X56075411Y2748010D01*
X56318632Y2910525D01*
X56525475Y3117368D01*
X56642000Y3291760D01*
X56758525Y3117368D01*
X56965368Y2910525D01*
X57208589Y2748010D01*
X57478842Y2636068D01*
X57765740Y2579000D01*
X58058260Y2579000D01*
X58345158Y2636068D01*
X58615411Y2748010D01*
X58858632Y2910525D01*
X59065475Y3117368D01*
X59182000Y3291760D01*
X59298525Y3117368D01*
X59505368Y2910525D01*
X59748589Y2748010D01*
X60018842Y2636068D01*
X60305740Y2579000D01*
X60598260Y2579000D01*
X60885158Y2636068D01*
X61155411Y2748010D01*
X61398632Y2910525D01*
X61605475Y3117368D01*
X61722000Y3291760D01*
X61838525Y3117368D01*
X62045368Y2910525D01*
X62288589Y2748010D01*
X62558842Y2636068D01*
X62845740Y2579000D01*
X63138260Y2579000D01*
X63425158Y2636068D01*
X63695411Y2748010D01*
X63938632Y2910525D01*
X64145475Y3117368D01*
X64262000Y3291760D01*
X64378525Y3117368D01*
X64585368Y2910525D01*
X64828589Y2748010D01*
X65098842Y2636068D01*
X65385740Y2579000D01*
X65678260Y2579000D01*
X65965158Y2636068D01*
X66235411Y2748010D01*
X66478632Y2910525D01*
X66685475Y3117368D01*
X66802000Y3291760D01*
X66918525Y3117368D01*
X67125368Y2910525D01*
X67368589Y2748010D01*
X67638842Y2636068D01*
X67925740Y2579000D01*
X68218260Y2579000D01*
X68505158Y2636068D01*
X68775411Y2748010D01*
X69018632Y2910525D01*
X69225475Y3117368D01*
X69342000Y3291760D01*
X69458525Y3117368D01*
X69665368Y2910525D01*
X69908589Y2748010D01*
X70178842Y2636068D01*
X70465740Y2579000D01*
X70758260Y2579000D01*
X71045158Y2636068D01*
X71315411Y2748010D01*
X71558632Y2910525D01*
X71765475Y3117368D01*
X71882000Y3291760D01*
X71998525Y3117368D01*
X72205368Y2910525D01*
X72448589Y2748010D01*
X72718842Y2636068D01*
X73005740Y2579000D01*
X73298260Y2579000D01*
X73585158Y2636068D01*
X73855411Y2748010D01*
X74098632Y2910525D01*
X74305475Y3117368D01*
X74422000Y3291760D01*
X74538525Y3117368D01*
X74745368Y2910525D01*
X74988589Y2748010D01*
X75258842Y2636068D01*
X75545740Y2579000D01*
X75838260Y2579000D01*
X76125158Y2636068D01*
X76395411Y2748010D01*
X76638632Y2910525D01*
X76845475Y3117368D01*
X76962000Y3291760D01*
X77078525Y3117368D01*
X77285368Y2910525D01*
X77528589Y2748010D01*
X77798842Y2636068D01*
X78085740Y2579000D01*
X78378260Y2579000D01*
X78665158Y2636068D01*
X78935411Y2748010D01*
X79178632Y2910525D01*
X79385475Y3117368D01*
X79547990Y3360589D01*
X79659932Y3630842D01*
X79717000Y3917740D01*
X79717000Y4210260D01*
X79659932Y4497158D01*
X79547990Y4767411D01*
X79385475Y5010632D01*
X79253620Y5142487D01*
X79326180Y5164498D01*
X79436494Y5223463D01*
X79533185Y5302815D01*
X79612537Y5399506D01*
X79671502Y5509820D01*
X79707812Y5629518D01*
X79720072Y5754000D01*
X79720072Y7454000D01*
X79707812Y7578482D01*
X79671502Y7698180D01*
X79612537Y7808494D01*
X79533185Y7905185D01*
X79436494Y7984537D01*
X79326180Y8043502D01*
X79206482Y8079812D01*
X79082000Y8092072D01*
X77818731Y8092072D01*
X74223804Y11686997D01*
X74200001Y11716001D01*
X74084276Y11810974D01*
X73952247Y11881546D01*
X73808986Y11925003D01*
X73697333Y11936000D01*
X73697322Y11936000D01*
X73660000Y11939676D01*
X73622678Y11936000D01*
X68106597Y11936000D01*
X68011477Y12014063D01*
X67879448Y12084635D01*
X67736187Y12128092D01*
X67624534Y12139089D01*
X67624523Y12139089D01*
X67587201Y12142765D01*
X67549879Y12139089D01*
X66151713Y12139089D01*
X65500686Y12790117D01*
X65476892Y12819110D01*
X65447899Y12842904D01*
X65447894Y12842909D01*
X65361167Y12914083D01*
X65229137Y12984656D01*
X65085877Y13028112D01*
X64936891Y13042786D01*
X64899559Y13039109D01*
X58901691Y13039111D01*
X53153916Y18786885D01*
X53153911Y18786891D01*
X52466499Y19474306D01*
X52255686Y19685119D01*
X52231883Y19714123D01*
X52220404Y19723543D01*
X52211002Y19735000D01*
X52136308Y19796300D01*
X52179853Y19901426D01*
X52235000Y20178665D01*
X52235000Y20461335D01*
X52179853Y20738574D01*
X52071680Y20999727D01*
X51914637Y21234759D01*
X51714759Y21434637D01*
X51479727Y21591680D01*
X51218574Y21699853D01*
X50941335Y21755000D01*
X50658665Y21755000D01*
X50476114Y21718688D01*
X47605001Y24589800D01*
X47605001Y26995466D01*
X47673587Y27098112D01*
X47744069Y27268272D01*
X47780001Y27448912D01*
X47780001Y27633090D01*
X47744069Y27813730D01*
X47673587Y27983890D01*
X47571263Y28137029D01*
X47441029Y28267263D01*
X47287890Y28369587D01*
X47117730Y28440069D01*
X46937090Y28476001D01*
X46752912Y28476001D01*
X46572272Y28440069D01*
X46402112Y28369587D01*
X46248973Y28267263D01*
X46118739Y28137029D01*
X46016415Y27983890D01*
X45945933Y27813730D01*
X45910001Y27633090D01*
X45910001Y27448912D01*
X45945933Y27268272D01*
X46016415Y27098112D01*
X46085001Y26995465D01*
X46085002Y24312331D01*
X46081325Y24274999D01*
X46085002Y24237666D01*
X46094326Y24143005D01*
X46095999Y24126014D01*
X46139455Y23982753D01*
X46210027Y23850723D01*
X46257993Y23792277D01*
X46305001Y23734998D01*
X46333999Y23711200D01*
X48290198Y21755000D01*
X48118665Y21755000D01*
X47936114Y21718688D01*
X45354999Y24299802D01*
X45354999Y27031464D01*
X45423585Y27134110D01*
X45494067Y27304270D01*
X45529999Y27484910D01*
X45529999Y27669088D01*
X45494067Y27849728D01*
X45423585Y28019888D01*
X45321261Y28173027D01*
X45191027Y28303261D01*
X45037888Y28405585D01*
X44867728Y28476067D01*
X44687088Y28511999D01*
X44502910Y28511999D01*
X44322270Y28476067D01*
X44152110Y28405585D01*
X43998971Y28303261D01*
X43868737Y28173027D01*
X43766413Y28019888D01*
X43695931Y27849728D01*
X43659999Y27669088D01*
X43659999Y27484910D01*
X43695931Y27304270D01*
X43766413Y27134110D01*
X43834999Y27031463D01*
X43835000Y24022333D01*
X43831323Y23985001D01*
X43835000Y23947668D01*
X43845997Y23836015D01*
X43858439Y23795000D01*
X43889453Y23692755D01*
X43960025Y23560725D01*
X44031200Y23473999D01*
X44054999Y23445000D01*
X44083997Y23421202D01*
X45750199Y21755000D01*
X45578665Y21755000D01*
X45301426Y21699853D01*
X45040273Y21591680D01*
X44805241Y21434637D01*
X44605363Y21234759D01*
X44450000Y21002241D01*
X44294637Y21234759D01*
X44094759Y21434637D01*
X43859727Y21591680D01*
X43598574Y21699853D01*
X43321335Y21755000D01*
X43038665Y21755000D01*
X42761426Y21699853D01*
X42500273Y21591680D01*
X42265241Y21434637D01*
X42265204Y21434600D01*
X41743804Y21955999D01*
X41720002Y21985002D01*
X41604277Y22079975D01*
X41472248Y22150547D01*
X41328987Y22194004D01*
X41217334Y22205001D01*
X41217323Y22205001D01*
X41180001Y22208677D01*
X41142679Y22205001D01*
X34182326Y22205001D01*
X34145001Y22208677D01*
X34107676Y22205001D01*
X34107668Y22205001D01*
X33996015Y22194004D01*
X33852754Y22150547D01*
X33720725Y22079975D01*
X33605000Y21985002D01*
X33581202Y21956004D01*
X33343886Y21718688D01*
X33161335Y21755000D01*
X32878665Y21755000D01*
X32601426Y21699853D01*
X32510000Y21661983D01*
X32510000Y23330678D01*
X32513676Y23368001D01*
X32510000Y23405324D01*
X32510000Y23405333D01*
X32499003Y23516986D01*
X32455546Y23660247D01*
X32384974Y23792276D01*
X32356070Y23827496D01*
X32313799Y23879004D01*
X32313795Y23879008D01*
X32290001Y23908001D01*
X32261009Y23931794D01*
X28101153Y28091648D01*
X28077068Y28212729D01*
X28006586Y28382889D01*
X27904262Y28536028D01*
X27774028Y28666262D01*
X27620889Y28768586D01*
X27450729Y28839068D01*
X27270089Y28875000D01*
X27085911Y28875000D01*
X26905271Y28839068D01*
X26735111Y28768586D01*
X26670004Y28725083D01*
X26604897Y28768586D01*
X26434737Y28839068D01*
X26254097Y28875000D01*
X26069919Y28875000D01*
X25889279Y28839068D01*
X25719119Y28768586D01*
X25634998Y28712378D01*
X25550876Y28768586D01*
X25380716Y28839068D01*
X25200076Y28875000D01*
X25015898Y28875000D01*
X24835258Y28839068D01*
X24665098Y28768586D01*
X24618994Y28737780D01*
X24572889Y28768586D01*
X24402729Y28839068D01*
X24222089Y28875000D01*
X24037911Y28875000D01*
X23857271Y28839068D01*
X23687111Y28768586D01*
X23533972Y28666262D01*
X23403738Y28536028D01*
X23301414Y28382889D01*
X23230932Y28212729D01*
X23195000Y28032089D01*
X23195000Y27847911D01*
X23230932Y27667271D01*
X23301414Y27497111D01*
X23370000Y27394464D01*
X23370001Y21661983D01*
X23278574Y21699853D01*
X23001335Y21755000D01*
X22718665Y21755000D01*
X22441426Y21699853D01*
X22180273Y21591680D01*
X21945241Y21434637D01*
X21745363Y21234759D01*
X21590000Y21002241D01*
X21434637Y21234759D01*
X21234759Y21434637D01*
X20999727Y21591680D01*
X20738574Y21699853D01*
X20461335Y21755000D01*
X20178665Y21755000D01*
X19901426Y21699853D01*
X19640273Y21591680D01*
X19405241Y21434637D01*
X19205363Y21234759D01*
X19050000Y21002241D01*
X18894637Y21234759D01*
X18694759Y21434637D01*
X18459727Y21591680D01*
X18198574Y21699853D01*
X17921335Y21755000D01*
X17638665Y21755000D01*
X17361426Y21699853D01*
X17100273Y21591680D01*
X16865241Y21434637D01*
X16665363Y21234759D01*
X16510000Y21002241D01*
X16354637Y21234759D01*
X16154759Y21434637D01*
X15919727Y21591680D01*
X15658574Y21699853D01*
X15381335Y21755000D01*
X15098665Y21755000D01*
X14821426Y21699853D01*
X14560273Y21591680D01*
X14325241Y21434637D01*
X14125363Y21234759D01*
X13970000Y21002241D01*
X13814637Y21234759D01*
X13614759Y21434637D01*
X13379727Y21591680D01*
X13118574Y21699853D01*
X12841335Y21755000D01*
X12558665Y21755000D01*
X12281426Y21699853D01*
X12020273Y21591680D01*
X11785241Y21434637D01*
X11585363Y21234759D01*
X11430000Y21002241D01*
X11274637Y21234759D01*
X11074759Y21434637D01*
X10839727Y21591680D01*
X10578574Y21699853D01*
X10301335Y21755000D01*
X10018665Y21755000D01*
X9741426Y21699853D01*
X9480273Y21591680D01*
X9245241Y21434637D01*
X9045363Y21234759D01*
X8890000Y21002241D01*
X8734637Y21234759D01*
X8534759Y21434637D01*
X8299727Y21591680D01*
X8038574Y21699853D01*
X7761335Y21755000D01*
X7478665Y21755000D01*
X7201426Y21699853D01*
X6940273Y21591680D01*
X6705241Y21434637D01*
X6505363Y21234759D01*
X6350000Y21002241D01*
X6194637Y21234759D01*
X5994759Y21434637D01*
X5759727Y21591680D01*
X5498574Y21699853D01*
X5221335Y21755000D01*
X4938665Y21755000D01*
X4661426Y21699853D01*
X4400273Y21591680D01*
X4165241Y21434637D01*
X3965363Y21234759D01*
X3810000Y21002241D01*
X3654637Y21234759D01*
X3454759Y21434637D01*
X3219727Y21591680D01*
X2958574Y21699853D01*
X2681335Y21755000D01*
X2398665Y21755000D01*
X2121426Y21699853D01*
X1860273Y21591680D01*
X1625241Y21434637D01*
X1425363Y21234759D01*
X1268320Y20999727D01*
X1160147Y20738574D01*
X1105000Y20461335D01*
X685000Y20461335D01*
X685000Y35210960D01*
X1148091Y35210960D01*
X1242930Y34946119D01*
X1387615Y34704869D01*
X1576586Y34496481D01*
X1802580Y34328963D01*
X2056913Y34208754D01*
X2190961Y34168096D01*
X2413000Y34290085D01*
X2413000Y35433000D01*
X1269376Y35433000D01*
X1148091Y35210960D01*
X685000Y35210960D01*
X685000Y35909040D01*
X1148091Y35909040D01*
X1269376Y35687000D01*
X2413000Y35687000D01*
X2413000Y36829915D01*
X2190961Y36951904D01*
X2056913Y36911246D01*
X1802580Y36791037D01*
X1576586Y36623519D01*
X1387615Y36415131D01*
X1242930Y36173881D01*
X1148091Y35909040D01*
X685000Y35909040D01*
X685000Y37869298D01*
X1218903Y37869298D01*
X1290486Y37625329D01*
X1545996Y37504429D01*
X1820184Y37435700D01*
X2102512Y37421783D01*
X2382130Y37463213D01*
X2648292Y37558397D01*
X2773514Y37625329D01*
X2845097Y37869298D01*
X2032000Y38682395D01*
X1218903Y37869298D01*
X685000Y37869298D01*
X685000Y38367059D01*
X728397Y38245708D01*
X795329Y38120486D01*
X1039298Y38048903D01*
X1852395Y38862000D01*
X2211605Y38862000D01*
X3024702Y38048903D01*
X3268671Y38120486D01*
X3389571Y38375996D01*
X3458300Y38650184D01*
X3472217Y38932512D01*
X3461724Y39003335D01*
X5597000Y39003335D01*
X5597000Y38720665D01*
X5652147Y38443426D01*
X5760320Y38182273D01*
X5917363Y37947241D01*
X6117241Y37747363D01*
X6352273Y37590320D01*
X6613426Y37482147D01*
X6890665Y37427000D01*
X7173335Y37427000D01*
X7450574Y37482147D01*
X7711727Y37590320D01*
X7946759Y37747363D01*
X8146637Y37947241D01*
X8303680Y38182273D01*
X8411853Y38443426D01*
X8467000Y38720665D01*
X8467000Y38749335D01*
X8471000Y38749335D01*
X8471000Y38466665D01*
X8526147Y38189426D01*
X8634320Y37928273D01*
X8791363Y37693241D01*
X8991241Y37493363D01*
X9226273Y37336320D01*
X9487426Y37228147D01*
X9764665Y37173000D01*
X10047335Y37173000D01*
X10324574Y37228147D01*
X10585727Y37336320D01*
X10820759Y37493363D01*
X11020637Y37693241D01*
X11177680Y37928273D01*
X11285853Y38189426D01*
X11341000Y38466665D01*
X11341000Y38749335D01*
X11519000Y38749335D01*
X11519000Y38466665D01*
X11574147Y38189426D01*
X11682320Y37928273D01*
X11839363Y37693241D01*
X12039241Y37493363D01*
X12274273Y37336320D01*
X12535426Y37228147D01*
X12812665Y37173000D01*
X13095335Y37173000D01*
X13372574Y37228147D01*
X13633727Y37336320D01*
X13868759Y37493363D01*
X14068637Y37693241D01*
X14225680Y37928273D01*
X14333853Y38189426D01*
X14389000Y38466665D01*
X14389000Y38749335D01*
X14333853Y39026574D01*
X14225680Y39287727D01*
X14068637Y39522759D01*
X13868759Y39722637D01*
X13633727Y39879680D01*
X13372574Y39987853D01*
X13095335Y40043000D01*
X12812665Y40043000D01*
X12535426Y39987853D01*
X12274273Y39879680D01*
X12039241Y39722637D01*
X11839363Y39522759D01*
X11682320Y39287727D01*
X11574147Y39026574D01*
X11519000Y38749335D01*
X11341000Y38749335D01*
X11285853Y39026574D01*
X11177680Y39287727D01*
X11020637Y39522759D01*
X10820759Y39722637D01*
X10585727Y39879680D01*
X10324574Y39987853D01*
X10047335Y40043000D01*
X9764665Y40043000D01*
X9487426Y39987853D01*
X9226273Y39879680D01*
X8991241Y39722637D01*
X8791363Y39522759D01*
X8634320Y39287727D01*
X8526147Y39026574D01*
X8471000Y38749335D01*
X8467000Y38749335D01*
X8467000Y39003335D01*
X8411853Y39280574D01*
X8303680Y39541727D01*
X8146637Y39776759D01*
X7946759Y39976637D01*
X7711727Y40133680D01*
X7450574Y40241853D01*
X7173335Y40297000D01*
X6890665Y40297000D01*
X6613426Y40241853D01*
X6352273Y40133680D01*
X6117241Y39976637D01*
X5917363Y39776759D01*
X5760320Y39541727D01*
X5652147Y39280574D01*
X5597000Y39003335D01*
X3461724Y39003335D01*
X3430787Y39212130D01*
X3335603Y39478292D01*
X3268671Y39603514D01*
X3024702Y39675097D01*
X2211605Y38862000D01*
X1852395Y38862000D01*
X1039298Y39675097D01*
X795329Y39603514D01*
X685000Y39370345D01*
X685000Y39854702D01*
X1218903Y39854702D01*
X2032000Y39041605D01*
X2845097Y39854702D01*
X2773514Y40098671D01*
X2518004Y40219571D01*
X2243816Y40288300D01*
X1961488Y40302217D01*
X1681870Y40260787D01*
X1415708Y40165603D01*
X1290486Y40098671D01*
X1218903Y39854702D01*
X685000Y39854702D01*
X685000Y53950891D01*
X42246519Y53950891D01*
X42367186Y53721000D01*
X43561000Y53721000D01*
X43561000Y54914155D01*
X43331110Y55035476D01*
X43183901Y54990825D01*
X42921080Y54865641D01*
X42687731Y54691588D01*
X42492822Y54475355D01*
X42343843Y54225252D01*
X42246519Y53950891D01*
X685000Y53950891D01*
X685000Y57945647D01*
X675711Y58039956D01*
X691653Y58202542D01*
X776031Y58482018D01*
X913085Y58739780D01*
X1097599Y58966015D01*
X1322540Y59152103D01*
X1579342Y59290956D01*
X1858219Y59377282D01*
X2030268Y59395365D01*
X2125353Y59386000D01*
%TA.AperFunction,Conductor*%
D25*
G36*
X2125353Y59386000D02*
G01*
X58644093Y59386000D01*
X58617998Y59337180D01*
X58581688Y59217482D01*
X58569428Y59093000D01*
X58569428Y57493000D01*
X58581688Y57368518D01*
X58617998Y57248820D01*
X58676963Y57138506D01*
X58756315Y57041815D01*
X58853006Y56962463D01*
X58963320Y56903498D01*
X59083018Y56867188D01*
X59091461Y56866357D01*
X58892863Y56667759D01*
X58735820Y56432727D01*
X58627647Y56171574D01*
X58572500Y55894335D01*
X58572500Y55611665D01*
X58627647Y55334426D01*
X58735820Y55073273D01*
X58892863Y54838241D01*
X59092741Y54638363D01*
X59247501Y54534956D01*
X59247500Y54431044D01*
X59092741Y54327637D01*
X58892863Y54127759D01*
X58735820Y53892727D01*
X58627647Y53631574D01*
X58572500Y53354335D01*
X58572500Y53071665D01*
X58627647Y52794426D01*
X58735820Y52533273D01*
X58892863Y52298241D01*
X59092741Y52098363D01*
X59325259Y51943000D01*
X59092741Y51787637D01*
X58892863Y51587759D01*
X58735820Y51352727D01*
X58627647Y51091574D01*
X58572500Y50814335D01*
X58572500Y50531665D01*
X58608812Y50349114D01*
X55512782Y47253084D01*
X55481853Y47408574D01*
X55373680Y47669727D01*
X55216637Y47904759D01*
X55016759Y48104637D01*
X54781727Y48261680D01*
X54520574Y48369853D01*
X54243335Y48425000D01*
X54071804Y48425000D01*
X54315792Y48668988D01*
X54561079Y48668988D01*
X54598401Y48665312D01*
X54635723Y48668988D01*
X54635734Y48668988D01*
X54747387Y48679985D01*
X54890648Y48723442D01*
X55022677Y48794014D01*
X55138402Y48888987D01*
X55162204Y48917990D01*
X55895050Y49650835D01*
X55954842Y49626068D01*
X56241740Y49569000D01*
X56534260Y49569000D01*
X56821158Y49626068D01*
X57091411Y49738010D01*
X57334632Y49900525D01*
X57541475Y50107368D01*
X57703990Y50350589D01*
X57815932Y50620842D01*
X57873000Y50907740D01*
X57873000Y51200260D01*
X57815932Y51487158D01*
X57703990Y51757411D01*
X57541475Y52000632D01*
X57334632Y52207475D01*
X57160240Y52324000D01*
X57334632Y52440525D01*
X57541475Y52647368D01*
X57703990Y52890589D01*
X57815932Y53160842D01*
X57873000Y53447740D01*
X57873000Y53740260D01*
X57815932Y54027158D01*
X57703990Y54297411D01*
X57541475Y54540632D01*
X57334632Y54747475D01*
X57091411Y54909990D01*
X56821158Y55021932D01*
X56534260Y55079000D01*
X56241740Y55079000D01*
X55954842Y55021932D01*
X55684589Y54909990D01*
X55441368Y54747475D01*
X55234525Y54540632D01*
X55118000Y54366240D01*
X55001475Y54540632D01*
X54794632Y54747475D01*
X54551411Y54909990D01*
X54281158Y55021932D01*
X53994260Y55079000D01*
X53701740Y55079000D01*
X53414842Y55021932D01*
X53144589Y54909990D01*
X52901368Y54747475D01*
X52694525Y54540632D01*
X52578000Y54366240D01*
X52461475Y54540632D01*
X52254632Y54747475D01*
X52011411Y54909990D01*
X51741158Y55021932D01*
X51454260Y55079000D01*
X51161740Y55079000D01*
X50874842Y55021932D01*
X50604589Y54909990D01*
X50361368Y54747475D01*
X50154525Y54540632D01*
X50038000Y54366240D01*
X49921475Y54540632D01*
X49714632Y54747475D01*
X49471411Y54909990D01*
X49201158Y55021932D01*
X48914260Y55079000D01*
X48621740Y55079000D01*
X48334842Y55021932D01*
X48064589Y54909990D01*
X47821368Y54747475D01*
X47614525Y54540632D01*
X47498000Y54366240D01*
X47381475Y54540632D01*
X47174632Y54747475D01*
X46931411Y54909990D01*
X46661158Y55021932D01*
X46374260Y55079000D01*
X46081740Y55079000D01*
X45794842Y55021932D01*
X45524589Y54909990D01*
X45281368Y54747475D01*
X45074525Y54540632D01*
X44952805Y54358466D01*
X44883178Y54475355D01*
X44688269Y54691588D01*
X44454920Y54865641D01*
X44192099Y54990825D01*
X44044890Y55035476D01*
X43815000Y54914155D01*
X43815000Y53721000D01*
X43835000Y53721000D01*
X43835000Y53467000D01*
X43815000Y53467000D01*
X43815000Y53447000D01*
X43561000Y53447000D01*
X43561000Y53467000D01*
X42367186Y53467000D01*
X42246519Y53237109D01*
X42343843Y52962748D01*
X42492822Y52712645D01*
X42669626Y52516498D01*
X42593820Y52493502D01*
X42483506Y52434537D01*
X42386815Y52355185D01*
X42307463Y52258494D01*
X42248498Y52148180D01*
X42212188Y52028482D01*
X42199928Y51904000D01*
X42199928Y50204000D01*
X42212188Y50079518D01*
X42248498Y49959820D01*
X42307463Y49849506D01*
X42386815Y49752815D01*
X42483506Y49673463D01*
X42593820Y49614498D01*
X42713518Y49578188D01*
X42838000Y49565928D01*
X42928000Y49565928D01*
X42928001Y39136799D01*
X40638000Y41426799D01*
X40638000Y49011000D01*
X40791184Y49011000D01*
X41087743Y49069989D01*
X41367095Y49185701D01*
X41618505Y49353688D01*
X41832312Y49567495D01*
X42000299Y49818905D01*
X42116011Y50098257D01*
X42175000Y50394816D01*
X42175000Y50697184D01*
X42116011Y50993743D01*
X42000299Y51273095D01*
X41832312Y51524505D01*
X41618505Y51738312D01*
X41367095Y51906299D01*
X41087743Y52022011D01*
X40791184Y52081000D01*
X40488816Y52081000D01*
X40192257Y52022011D01*
X39912905Y51906299D01*
X39661495Y51738312D01*
X39595056Y51671873D01*
X39589502Y51690180D01*
X39530537Y51800494D01*
X39451185Y51897185D01*
X39354494Y51976537D01*
X39244180Y52035502D01*
X39124482Y52071812D01*
X39000000Y52084072D01*
X37200000Y52084072D01*
X37075518Y52071812D01*
X36955820Y52035502D01*
X36845506Y51976537D01*
X36748815Y51897185D01*
X36669463Y51800494D01*
X36610498Y51690180D01*
X36604944Y51671873D01*
X36538505Y51738312D01*
X36287095Y51906299D01*
X36007743Y52022011D01*
X35711184Y52081000D01*
X35408816Y52081000D01*
X35112257Y52022011D01*
X34832905Y51906299D01*
X34581495Y51738312D01*
X34515056Y51671873D01*
X34509502Y51690180D01*
X34450537Y51800494D01*
X34371185Y51897185D01*
X34274494Y51976537D01*
X34164180Y52035502D01*
X34044482Y52071812D01*
X33920000Y52084072D01*
X32120000Y52084072D01*
X31995518Y52071812D01*
X31875820Y52035502D01*
X31765506Y51976537D01*
X31668815Y51897185D01*
X31589463Y51800494D01*
X31530498Y51690180D01*
X31524944Y51671873D01*
X31458505Y51738312D01*
X31207095Y51906299D01*
X30927743Y52022011D01*
X30631184Y52081000D01*
X30328816Y52081000D01*
X30032257Y52022011D01*
X29752905Y51906299D01*
X29501495Y51738312D01*
X29435056Y51671873D01*
X29429502Y51690180D01*
X29370537Y51800494D01*
X29291185Y51897185D01*
X29194494Y51976537D01*
X29084180Y52035502D01*
X28964482Y52071812D01*
X28840000Y52084072D01*
X27040000Y52084072D01*
X26915518Y52071812D01*
X26795820Y52035502D01*
X26685506Y51976537D01*
X26588815Y51897185D01*
X26509463Y51800494D01*
X26450498Y51690180D01*
X26444944Y51671873D01*
X26378505Y51738312D01*
X26127095Y51906299D01*
X25847743Y52022011D01*
X25551184Y52081000D01*
X25248816Y52081000D01*
X24952257Y52022011D01*
X24672905Y51906299D01*
X24421495Y51738312D01*
X24355056Y51671873D01*
X24349502Y51690180D01*
X24290537Y51800494D01*
X24211185Y51897185D01*
X24114494Y51976537D01*
X24004180Y52035502D01*
X23884482Y52071812D01*
X23760000Y52084072D01*
X21960000Y52084072D01*
X21835518Y52071812D01*
X21715820Y52035502D01*
X21605506Y51976537D01*
X21508815Y51897185D01*
X21429463Y51800494D01*
X21370498Y51690180D01*
X21364944Y51671873D01*
X21298505Y51738312D01*
X21047095Y51906299D01*
X20767743Y52022011D01*
X20471184Y52081000D01*
X20168816Y52081000D01*
X19872257Y52022011D01*
X19592905Y51906299D01*
X19341495Y51738312D01*
X19275056Y51671873D01*
X19269502Y51690180D01*
X19210537Y51800494D01*
X19131185Y51897185D01*
X19034494Y51976537D01*
X18924180Y52035502D01*
X18804482Y52071812D01*
X18680000Y52084072D01*
X16880000Y52084072D01*
X16755518Y52071812D01*
X16635820Y52035502D01*
X16525506Y51976537D01*
X16428815Y51897185D01*
X16349463Y51800494D01*
X16290498Y51690180D01*
X16284944Y51671873D01*
X16218505Y51738312D01*
X15967095Y51906299D01*
X15687743Y52022011D01*
X15391184Y52081000D01*
X15088816Y52081000D01*
X14792257Y52022011D01*
X14512905Y51906299D01*
X14261495Y51738312D01*
X14195056Y51671873D01*
X14189502Y51690180D01*
X14130537Y51800494D01*
X14051185Y51897185D01*
X13954494Y51976537D01*
X13844180Y52035502D01*
X13724482Y52071812D01*
X13600000Y52084072D01*
X11800000Y52084072D01*
X11675518Y52071812D01*
X11555820Y52035502D01*
X11445506Y51976537D01*
X11348815Y51897185D01*
X11269463Y51800494D01*
X11210498Y51690180D01*
X11204944Y51671873D01*
X11138505Y51738312D01*
X10887095Y51906299D01*
X10607743Y52022011D01*
X10311184Y52081000D01*
X10008816Y52081000D01*
X9712257Y52022011D01*
X9432905Y51906299D01*
X9181495Y51738312D01*
X9115056Y51671873D01*
X9109502Y51690180D01*
X9050537Y51800494D01*
X8971185Y51897185D01*
X8874494Y51976537D01*
X8764180Y52035502D01*
X8644482Y52071812D01*
X8520000Y52084072D01*
X6720000Y52084072D01*
X6595518Y52071812D01*
X6475820Y52035502D01*
X6365506Y51976537D01*
X6268815Y51897185D01*
X6189463Y51800494D01*
X6130498Y51690180D01*
X6124944Y51671873D01*
X6058505Y51738312D01*
X5807095Y51906299D01*
X5527743Y52022011D01*
X5231184Y52081000D01*
X4928816Y52081000D01*
X4632257Y52022011D01*
X4352905Y51906299D01*
X4101495Y51738312D01*
X4035056Y51671873D01*
X4029502Y51690180D01*
X3970537Y51800494D01*
X3891185Y51897185D01*
X3794494Y51976537D01*
X3684180Y52035502D01*
X3564482Y52071812D01*
X3440000Y52084072D01*
X1640000Y52084072D01*
X1515518Y52071812D01*
X1395820Y52035502D01*
X1285506Y51976537D01*
X1188815Y51897185D01*
X1109463Y51800494D01*
X1050498Y51690180D01*
X1014188Y51570482D01*
X1001928Y51446000D01*
X1001928Y49646000D01*
X1014188Y49521518D01*
X1050498Y49401820D01*
X1109463Y49291506D01*
X1188815Y49194815D01*
X1285506Y49115463D01*
X1395820Y49056498D01*
X1515518Y49020188D01*
X1640000Y49007928D01*
X2241271Y49007928D01*
X5532205Y45716992D01*
X5555999Y45687999D01*
X5584992Y45664205D01*
X5584996Y45664201D01*
X5633987Y45623996D01*
X5671724Y45593026D01*
X5803753Y45522454D01*
X5947014Y45478997D01*
X6058667Y45468000D01*
X6058676Y45468000D01*
X6095999Y45464324D01*
X6133322Y45468000D01*
X8687957Y45468000D01*
X8791363Y45313241D01*
X8991241Y45113363D01*
X9226273Y44956320D01*
X9487426Y44848147D01*
X9764665Y44793000D01*
X10047335Y44793000D01*
X10324574Y44848147D01*
X10585727Y44956320D01*
X10820759Y45113363D01*
X11020637Y45313241D01*
X11064023Y45378174D01*
X16478221Y39963975D01*
X16420574Y39987853D01*
X16143335Y40043000D01*
X15860665Y40043000D01*
X15583426Y39987853D01*
X15322273Y39879680D01*
X15087241Y39722637D01*
X14887363Y39522759D01*
X14730320Y39287727D01*
X14622147Y39026574D01*
X14567000Y38749335D01*
X14567000Y38466665D01*
X14622147Y38189426D01*
X14730320Y37928273D01*
X14887363Y37693241D01*
X15087241Y37493363D01*
X15322273Y37336320D01*
X15583426Y37228147D01*
X15860665Y37173000D01*
X16143335Y37173000D01*
X16420574Y37228147D01*
X16681727Y37336320D01*
X16916759Y37493363D01*
X17116637Y37693241D01*
X17273680Y37928273D01*
X17381853Y38189426D01*
X17437000Y38466665D01*
X17437000Y38749335D01*
X17381853Y39026574D01*
X17314227Y39189839D01*
X17322656Y39185333D01*
X17346751Y39172454D01*
X17490012Y39128997D01*
X17601665Y39118000D01*
X17601675Y39118000D01*
X17638998Y39114324D01*
X17676321Y39118000D01*
X17708017Y39118000D01*
X17670147Y39026574D01*
X17615000Y38749335D01*
X17615000Y38466665D01*
X17670147Y38189426D01*
X17778320Y37928273D01*
X17935363Y37693241D01*
X18135241Y37493363D01*
X18370273Y37336320D01*
X18631426Y37228147D01*
X18908665Y37173000D01*
X19191335Y37173000D01*
X19468574Y37228147D01*
X19729727Y37336320D01*
X19964759Y37493363D01*
X20164637Y37693241D01*
X20321680Y37928273D01*
X20429853Y38189426D01*
X20485000Y38466665D01*
X20485000Y38749335D01*
X20429853Y39026574D01*
X20391983Y39118000D01*
X20756017Y39118000D01*
X20718147Y39026574D01*
X20663000Y38749335D01*
X20663000Y38466665D01*
X20718147Y38189426D01*
X20826320Y37928273D01*
X20983363Y37693241D01*
X21183241Y37493363D01*
X21418273Y37336320D01*
X21679426Y37228147D01*
X21956665Y37173000D01*
X22239335Y37173000D01*
X22516574Y37228147D01*
X22777727Y37336320D01*
X23012759Y37493363D01*
X23212637Y37693241D01*
X23369680Y37928273D01*
X23477853Y38189426D01*
X23533000Y38466665D01*
X23533000Y38749335D01*
X23477853Y39026574D01*
X23439983Y39118000D01*
X23804017Y39118000D01*
X23766147Y39026574D01*
X23711000Y38749335D01*
X23711000Y38466665D01*
X23766147Y38189426D01*
X23874320Y37928273D01*
X24031363Y37693241D01*
X24231241Y37493363D01*
X24466273Y37336320D01*
X24727426Y37228147D01*
X25004665Y37173000D01*
X25287335Y37173000D01*
X25564574Y37228147D01*
X25825727Y37336320D01*
X26060759Y37493363D01*
X26260637Y37693241D01*
X26348564Y37824834D01*
X26363453Y37775752D01*
X26434025Y37643723D01*
X26528998Y37527998D01*
X26558000Y37504197D01*
X27090199Y36971997D01*
X27113998Y36942998D01*
X27142996Y36919200D01*
X27229722Y36848025D01*
X27260289Y36831687D01*
X27260273Y36831680D01*
X27025241Y36674637D01*
X26825363Y36474759D01*
X26670000Y36242241D01*
X26514637Y36474759D01*
X26314759Y36674637D01*
X26079727Y36831680D01*
X25818574Y36939853D01*
X25541335Y36995000D01*
X25258665Y36995000D01*
X24981426Y36939853D01*
X24720273Y36831680D01*
X24485241Y36674637D01*
X24285363Y36474759D01*
X24130000Y36242241D01*
X23974637Y36474759D01*
X23774759Y36674637D01*
X23539727Y36831680D01*
X23278574Y36939853D01*
X23001335Y36995000D01*
X22718665Y36995000D01*
X22441426Y36939853D01*
X22180273Y36831680D01*
X21945241Y36674637D01*
X21745363Y36474759D01*
X21590000Y36242241D01*
X21434637Y36474759D01*
X21234759Y36674637D01*
X20999727Y36831680D01*
X20738574Y36939853D01*
X20461335Y36995000D01*
X20178665Y36995000D01*
X19901426Y36939853D01*
X19640273Y36831680D01*
X19405241Y36674637D01*
X19205363Y36474759D01*
X19050000Y36242241D01*
X18894637Y36474759D01*
X18694759Y36674637D01*
X18459727Y36831680D01*
X18198574Y36939853D01*
X17921335Y36995000D01*
X17638665Y36995000D01*
X17361426Y36939853D01*
X17100273Y36831680D01*
X16865241Y36674637D01*
X16665363Y36474759D01*
X16510000Y36242241D01*
X16354637Y36474759D01*
X16154759Y36674637D01*
X15919727Y36831680D01*
X15658574Y36939853D01*
X15381335Y36995000D01*
X15098665Y36995000D01*
X14821426Y36939853D01*
X14560273Y36831680D01*
X14325241Y36674637D01*
X14125363Y36474759D01*
X13970000Y36242241D01*
X13814637Y36474759D01*
X13614759Y36674637D01*
X13379727Y36831680D01*
X13118574Y36939853D01*
X12841335Y36995000D01*
X12558665Y36995000D01*
X12281426Y36939853D01*
X12020273Y36831680D01*
X11785241Y36674637D01*
X11585363Y36474759D01*
X11430000Y36242241D01*
X11274637Y36474759D01*
X11074759Y36674637D01*
X10839727Y36831680D01*
X10578574Y36939853D01*
X10301335Y36995000D01*
X10018665Y36995000D01*
X9741426Y36939853D01*
X9480273Y36831680D01*
X9245241Y36674637D01*
X9045363Y36474759D01*
X8890000Y36242241D01*
X8734637Y36474759D01*
X8534759Y36674637D01*
X8299727Y36831680D01*
X8038574Y36939853D01*
X7761335Y36995000D01*
X7478665Y36995000D01*
X7201426Y36939853D01*
X6940273Y36831680D01*
X6705241Y36674637D01*
X6505363Y36474759D01*
X6350000Y36242241D01*
X6194637Y36474759D01*
X5994759Y36674637D01*
X5759727Y36831680D01*
X5498574Y36939853D01*
X5221335Y36995000D01*
X4938665Y36995000D01*
X4661426Y36939853D01*
X4400273Y36831680D01*
X4165241Y36674637D01*
X3965363Y36474759D01*
X3808320Y36239727D01*
X3803933Y36229135D01*
X3692385Y36415131D01*
X3503414Y36623519D01*
X3277420Y36791037D01*
X3023087Y36911246D01*
X2889039Y36951904D01*
X2667000Y36829915D01*
X2667000Y35687000D01*
X2687000Y35687000D01*
X2687000Y35433000D01*
X2667000Y35433000D01*
X2667000Y34290085D01*
X2889039Y34168096D01*
X3023087Y34208754D01*
X3277420Y34328963D01*
X3503414Y34496481D01*
X3692385Y34704869D01*
X3803933Y34890865D01*
X3808320Y34880273D01*
X3965363Y34645241D01*
X4165241Y34445363D01*
X4400273Y34288320D01*
X4661426Y34180147D01*
X4938665Y34125000D01*
X5221335Y34125000D01*
X5498574Y34180147D01*
X5759727Y34288320D01*
X5994759Y34445363D01*
X6194637Y34645241D01*
X6350000Y34877759D01*
X6505363Y34645241D01*
X6705241Y34445363D01*
X6940273Y34288320D01*
X7201426Y34180147D01*
X7478665Y34125000D01*
X7761335Y34125000D01*
X7943887Y34161312D01*
X11374200Y30730998D01*
X11397999Y30701999D01*
X11513724Y30607026D01*
X11645753Y30536454D01*
X11789014Y30492997D01*
X11900667Y30482000D01*
X11900676Y30482000D01*
X11937999Y30478324D01*
X11975322Y30482000D01*
X50485199Y30482000D01*
X53838200Y27128998D01*
X53861998Y27100000D01*
X53977723Y27005027D01*
X54109752Y26934455D01*
X54253013Y26890998D01*
X54329883Y26883427D01*
X54309647Y26834574D01*
X54271873Y26644675D01*
X51559003Y23931804D01*
X51529999Y23908001D01*
X51482993Y23850723D01*
X51435026Y23792276D01*
X51387587Y23703525D01*
X51364454Y23660246D01*
X51320997Y23516985D01*
X51310023Y23405571D01*
X51241414Y23302889D01*
X51170932Y23132729D01*
X51135000Y22952089D01*
X51135000Y22767911D01*
X51170932Y22587271D01*
X51241414Y22417111D01*
X51343738Y22263972D01*
X51473972Y22133738D01*
X51627111Y22031414D01*
X51797271Y21960932D01*
X51977911Y21925000D01*
X52162089Y21925000D01*
X52342729Y21960932D01*
X52512889Y22031414D01*
X52666028Y22133738D01*
X52796262Y22263972D01*
X52898586Y22417111D01*
X52969068Y22587271D01*
X53005000Y22767911D01*
X53005000Y22952089D01*
X52969068Y23132729D01*
X52951630Y23174829D01*
X54956630Y25179829D01*
X55007259Y25146000D01*
X54774741Y24990637D01*
X54574863Y24790759D01*
X54417820Y24555727D01*
X54309647Y24294574D01*
X54254500Y24017335D01*
X54254500Y23734665D01*
X54309647Y23457426D01*
X54417820Y23196273D01*
X54574863Y22961241D01*
X54774741Y22761363D01*
X55007259Y22606000D01*
X54774741Y22450637D01*
X54574863Y22250759D01*
X54417820Y22015727D01*
X54309647Y21754574D01*
X54254500Y21477335D01*
X54254500Y21194665D01*
X54309647Y20917426D01*
X54417820Y20656273D01*
X54574863Y20421241D01*
X54774741Y20221363D01*
X55007259Y20066000D01*
X54774741Y19910637D01*
X54574863Y19710759D01*
X54417820Y19475727D01*
X54309647Y19214574D01*
X54254500Y18937335D01*
X54254500Y18654665D01*
X54309647Y18377426D01*
X54417820Y18116273D01*
X54574863Y17881241D01*
X54774741Y17681363D01*
X55009773Y17524320D01*
X55270926Y17416147D01*
X55548165Y17361000D01*
X55830835Y17361000D01*
X56108074Y17416147D01*
X56369227Y17524320D01*
X56604259Y17681363D01*
X56804137Y17881241D01*
X56921774Y18057298D01*
X58622903Y18057298D01*
X58694486Y17813329D01*
X58949996Y17692429D01*
X59224184Y17623700D01*
X59506512Y17609783D01*
X59786130Y17651213D01*
X60052292Y17746397D01*
X60177514Y17813329D01*
X60249097Y18057298D01*
X59436000Y18870395D01*
X58622903Y18057298D01*
X56921774Y18057298D01*
X56961180Y18116273D01*
X57069353Y18377426D01*
X57124500Y18654665D01*
X57124500Y18937335D01*
X57116116Y18979488D01*
X57995783Y18979488D01*
X58037213Y18699870D01*
X58132397Y18433708D01*
X58199329Y18308486D01*
X58443298Y18236903D01*
X59256395Y19050000D01*
X59615605Y19050000D01*
X60428702Y18236903D01*
X60672671Y18308486D01*
X60793571Y18563996D01*
X60862300Y18838184D01*
X60876217Y19120512D01*
X60834787Y19400130D01*
X60739603Y19666292D01*
X60672671Y19791514D01*
X60428702Y19863097D01*
X59615605Y19050000D01*
X59256395Y19050000D01*
X58443298Y19863097D01*
X58199329Y19791514D01*
X58078429Y19536004D01*
X58009700Y19261816D01*
X57995783Y18979488D01*
X57116116Y18979488D01*
X57069353Y19214574D01*
X56961180Y19475727D01*
X56804137Y19710759D01*
X56604259Y19910637D01*
X56406610Y20042702D01*
X58622903Y20042702D01*
X59436000Y19229605D01*
X60249097Y20042702D01*
X60177514Y20286671D01*
X59922004Y20407571D01*
X59647816Y20476300D01*
X59365488Y20490217D01*
X59085870Y20448787D01*
X58819708Y20353603D01*
X58694486Y20286671D01*
X58622903Y20042702D01*
X56406610Y20042702D01*
X56371741Y20066000D01*
X56604259Y20221363D01*
X56804137Y20421241D01*
X56907543Y20576000D01*
X59144678Y20576000D01*
X59182000Y20572324D01*
X59219322Y20576000D01*
X59219333Y20576000D01*
X59330986Y20586997D01*
X59474247Y20630454D01*
X59606276Y20701026D01*
X59722001Y20795999D01*
X59745804Y20825003D01*
X62069565Y23148763D01*
X62194863Y22961241D01*
X62194900Y22961204D01*
X61673497Y22439800D01*
X61644499Y22416002D01*
X61620701Y22387004D01*
X61620700Y22387003D01*
X61549525Y22300277D01*
X61478953Y22168247D01*
X61461587Y22110997D01*
X61439873Y22039411D01*
X61435497Y22024986D01*
X61420823Y21876001D01*
X61424500Y21838669D01*
X61424499Y19958324D01*
X61420823Y19921001D01*
X61424499Y19883679D01*
X61424499Y19883669D01*
X61435496Y19772016D01*
X61475459Y19640273D01*
X61478953Y19628755D01*
X61549525Y19496725D01*
X61587433Y19450535D01*
X61644498Y19381000D01*
X61673501Y19357197D01*
X61910812Y19119887D01*
X61874500Y18937335D01*
X61874500Y18654665D01*
X61929647Y18377426D01*
X62037820Y18116273D01*
X62194863Y17881241D01*
X62394741Y17681363D01*
X62629773Y17524320D01*
X62890926Y17416147D01*
X63168165Y17361000D01*
X63450835Y17361000D01*
X63728074Y17416147D01*
X63989227Y17524320D01*
X64224259Y17681363D01*
X64424137Y17881241D01*
X64581180Y18116273D01*
X64652867Y18289341D01*
X64681972Y18260236D01*
X64835111Y18157912D01*
X65005271Y18087430D01*
X65185911Y18051498D01*
X65304674Y18051498D01*
X65319512Y18046997D01*
X65431165Y18036000D01*
X65431175Y18036000D01*
X65468498Y18032324D01*
X65505821Y18036000D01*
X67555822Y18036000D01*
X67680525Y17849368D01*
X67887368Y17642525D01*
X68061760Y17526000D01*
X67887368Y17409475D01*
X67680525Y17202632D01*
X67518010Y16959411D01*
X67406068Y16689158D01*
X67349000Y16402260D01*
X67349000Y16109740D01*
X67406068Y15822842D01*
X67518010Y15552589D01*
X67680525Y15309368D01*
X67887368Y15102525D01*
X68061760Y14986000D01*
X67887368Y14869475D01*
X67680525Y14662632D01*
X67518010Y14419411D01*
X67406068Y14149158D01*
X67349000Y13862260D01*
X67349000Y13569740D01*
X67406068Y13282842D01*
X67518010Y13012589D01*
X67680525Y12769368D01*
X67887368Y12562525D01*
X68130589Y12400010D01*
X68400842Y12288068D01*
X68687740Y12231000D01*
X68980260Y12231000D01*
X69267158Y12288068D01*
X69537411Y12400010D01*
X69780632Y12562525D01*
X69987475Y12769368D01*
X70104000Y12943760D01*
X70220525Y12769368D01*
X70427368Y12562525D01*
X70670589Y12400010D01*
X70940842Y12288068D01*
X71227740Y12231000D01*
X71520260Y12231000D01*
X71807158Y12288068D01*
X72077411Y12400010D01*
X72320632Y12562525D01*
X72527475Y12769368D01*
X72689990Y13012589D01*
X72801932Y13282842D01*
X72859000Y13569740D01*
X72859000Y13862260D01*
X72801932Y14149158D01*
X72689990Y14419411D01*
X72527475Y14662632D01*
X72320632Y14869475D01*
X72146240Y14986000D01*
X72320632Y15102525D01*
X72527475Y15309368D01*
X72689990Y15552589D01*
X72801932Y15822842D01*
X72859000Y16109740D01*
X72859000Y16402260D01*
X72801932Y16689158D01*
X72689990Y16959411D01*
X72527475Y17202632D01*
X72320632Y17409475D01*
X72146240Y17526000D01*
X72320632Y17642525D01*
X72527475Y17849368D01*
X72689990Y18092589D01*
X72801932Y18362842D01*
X72859000Y18649740D01*
X72859000Y18942260D01*
X72801932Y19229158D01*
X72689990Y19499411D01*
X72527475Y19742632D01*
X72320632Y19949475D01*
X72146240Y20066000D01*
X72320632Y20182525D01*
X72527475Y20389368D01*
X72689990Y20632589D01*
X72801932Y20902842D01*
X72859000Y21189740D01*
X72859000Y21482260D01*
X72801932Y21769158D01*
X72689990Y22039411D01*
X72527475Y22282632D01*
X72320632Y22489475D01*
X72146240Y22606000D01*
X72320632Y22722525D01*
X72527475Y22929368D01*
X72689990Y23172589D01*
X72801932Y23442842D01*
X72859000Y23729740D01*
X72859000Y24022260D01*
X72801932Y24309158D01*
X72689990Y24579411D01*
X72527475Y24822632D01*
X72320632Y25029475D01*
X72138466Y25151195D01*
X72255355Y25220822D01*
X72471588Y25415731D01*
X72645641Y25649080D01*
X72770825Y25911901D01*
X72815476Y26059110D01*
X72694155Y26289000D01*
X71501000Y26289000D01*
X71501000Y26269000D01*
X71247000Y26269000D01*
X71247000Y26289000D01*
X71227000Y26289000D01*
X71227000Y26543000D01*
X71247000Y26543000D01*
X71247000Y28829000D01*
X71501000Y28829000D01*
X71501000Y26543000D01*
X72694155Y26543000D01*
X72815476Y26772890D01*
X72770825Y26920099D01*
X72645641Y27182920D01*
X72471588Y27416269D01*
X72255355Y27611178D01*
X72129745Y27686000D01*
X72255355Y27760822D01*
X72471588Y27955731D01*
X72645641Y28189080D01*
X72770825Y28451901D01*
X72815476Y28599110D01*
X72694155Y28829000D01*
X71501000Y28829000D01*
X71247000Y28829000D01*
X71227000Y28829000D01*
X71227000Y29083000D01*
X71247000Y29083000D01*
X71247000Y29103000D01*
X71501000Y29103000D01*
X71501000Y29083000D01*
X72694155Y29083000D01*
X72815476Y29312890D01*
X72770825Y29460099D01*
X72645641Y29722920D01*
X72471588Y29956269D01*
X72255355Y30151178D01*
X72138466Y30220805D01*
X72320632Y30342525D01*
X72527475Y30549368D01*
X72689990Y30792589D01*
X72801932Y31062842D01*
X72859000Y31349740D01*
X72859000Y31642260D01*
X72801932Y31929158D01*
X72689990Y32199411D01*
X72527475Y32442632D01*
X72320632Y32649475D01*
X72146240Y32766000D01*
X72320632Y32882525D01*
X72527475Y33089368D01*
X72689990Y33332589D01*
X72801932Y33602842D01*
X72859000Y33889740D01*
X72859000Y34182260D01*
X72801932Y34469158D01*
X72689990Y34739411D01*
X72527475Y34982632D01*
X72320632Y35189475D01*
X72146240Y35306000D01*
X72320632Y35422525D01*
X72527475Y35629368D01*
X72689990Y35872589D01*
X72801932Y36142842D01*
X72859000Y36429740D01*
X72859000Y36722260D01*
X72801932Y37009158D01*
X72689990Y37279411D01*
X72527475Y37522632D01*
X72320632Y37729475D01*
X72077411Y37891990D01*
X71807158Y38003932D01*
X71520260Y38061000D01*
X71227740Y38061000D01*
X70940842Y38003932D01*
X70670589Y37891990D01*
X70427368Y37729475D01*
X70295513Y37597620D01*
X70273502Y37670180D01*
X70214537Y37780494D01*
X70135185Y37877185D01*
X70038494Y37956537D01*
X69928180Y38015502D01*
X69808482Y38051812D01*
X69684000Y38064072D01*
X67984000Y38064072D01*
X67859518Y38051812D01*
X67739820Y38015502D01*
X67629506Y37956537D01*
X67532815Y37877185D01*
X67453463Y37780494D01*
X67394498Y37670180D01*
X67358188Y37550482D01*
X67345928Y37426000D01*
X67345928Y35921001D01*
X64579493Y35921001D01*
X64660746Y36092913D01*
X64701404Y36226961D01*
X64579415Y36449000D01*
X63436500Y36449000D01*
X63436500Y36429000D01*
X63182500Y36429000D01*
X63182500Y36449000D01*
X62039585Y36449000D01*
X61917596Y36226961D01*
X61958254Y36092913D01*
X62039507Y35921001D01*
X60057043Y35921001D01*
X60019720Y35924677D01*
X59982397Y35921001D01*
X59982388Y35921001D01*
X59870735Y35910004D01*
X59747392Y35872589D01*
X59727474Y35866547D01*
X59595444Y35795975D01*
X59515789Y35730603D01*
X59479720Y35701002D01*
X59455922Y35672004D01*
X58416996Y34633078D01*
X58387993Y34609275D01*
X58349794Y34562729D01*
X58293020Y34493550D01*
X58231272Y34378028D01*
X58222448Y34361520D01*
X58178991Y34218259D01*
X58177691Y34205058D01*
X58099408Y34087899D01*
X58028926Y33917739D01*
X57992994Y33737099D01*
X57992994Y33552921D01*
X58028926Y33372281D01*
X58099408Y33202121D01*
X58201732Y33048982D01*
X58331966Y32918748D01*
X58485105Y32816424D01*
X58655265Y32745942D01*
X58835905Y32710010D01*
X59020083Y32710010D01*
X59200723Y32745942D01*
X59370883Y32816424D01*
X59524022Y32918748D01*
X59541824Y32936550D01*
X59671271Y32882932D01*
X59851911Y32847000D01*
X60036089Y32847000D01*
X60216729Y32882932D01*
X60386889Y32953414D01*
X60489535Y33022000D01*
X61590332Y33022000D01*
X61644498Y32955998D01*
X61673501Y32932196D01*
X62194900Y32410796D01*
X62194863Y32410759D01*
X62037820Y32175727D01*
X61929647Y31914574D01*
X61874500Y31637335D01*
X61874500Y31354665D01*
X61929647Y31077426D01*
X62037820Y30816273D01*
X62194863Y30581241D01*
X62394741Y30381363D01*
X62627259Y30226000D01*
X62394741Y30070637D01*
X62194863Y29870759D01*
X62037820Y29635727D01*
X61929647Y29374574D01*
X61874500Y29097335D01*
X61874500Y28814665D01*
X61929647Y28537426D01*
X62037820Y28276273D01*
X62194863Y28041241D01*
X62394741Y27841363D01*
X62627259Y27686000D01*
X62394741Y27530637D01*
X62194863Y27330759D01*
X62037820Y27095727D01*
X61929647Y26834574D01*
X61874500Y26557335D01*
X61874500Y26274665D01*
X61929647Y25997426D01*
X62037820Y25736273D01*
X62194863Y25501241D01*
X62194900Y25501204D01*
X61673501Y24979804D01*
X61644498Y24956002D01*
X61600425Y24902298D01*
X61549525Y24840277D01*
X61500306Y24748195D01*
X61478953Y24708247D01*
X61478739Y24707541D01*
X58867199Y22096000D01*
X56907543Y22096000D01*
X56804137Y22250759D01*
X56604259Y22450637D01*
X56371741Y22606000D01*
X56604259Y22761363D01*
X56804137Y22961241D01*
X56836921Y23010306D01*
X56982313Y23054411D01*
X57136059Y23136589D01*
X57270817Y23247183D01*
X57298534Y23280956D01*
X59259561Y25241983D01*
X59294665Y25235000D01*
X59577335Y25235000D01*
X59854574Y25290147D01*
X60115727Y25398320D01*
X60350759Y25555363D01*
X60550637Y25755241D01*
X60707680Y25990273D01*
X60815853Y26251426D01*
X60871000Y26528665D01*
X60871000Y26811335D01*
X60815853Y27088574D01*
X60707680Y27349727D01*
X60550637Y27584759D01*
X60350759Y27784637D01*
X60115727Y27941680D01*
X59854574Y28049853D01*
X59577335Y28105000D01*
X59576116Y28105000D01*
X59554687Y28212729D01*
X59484205Y28382889D01*
X59449891Y28434243D01*
X59502586Y28513107D01*
X59573068Y28683267D01*
X59609000Y28863907D01*
X59609000Y29048085D01*
X59573068Y29228725D01*
X59502586Y29398885D01*
X59400262Y29552024D01*
X59270028Y29682258D01*
X59116889Y29784582D01*
X58946729Y29855064D01*
X58825649Y29879149D01*
X58112799Y30591999D01*
X58088996Y30621002D01*
X57973271Y30715975D01*
X57841242Y30786547D01*
X57697981Y30830004D01*
X57586328Y30841001D01*
X57586317Y30841001D01*
X57548995Y30844677D01*
X57511673Y30841001D01*
X56971423Y30841001D01*
X57069353Y31077426D01*
X57124500Y31354665D01*
X57124500Y31637335D01*
X57069353Y31914574D01*
X56961180Y32175727D01*
X56804137Y32410759D01*
X56604259Y32610637D01*
X56371741Y32766000D01*
X56604259Y32921363D01*
X56804137Y33121241D01*
X56961180Y33356273D01*
X57069353Y33617426D01*
X57124500Y33894665D01*
X57124500Y34177335D01*
X57069353Y34454574D01*
X56961180Y34715727D01*
X56804137Y34950759D01*
X56605539Y35149357D01*
X56613982Y35150188D01*
X56733680Y35186498D01*
X56843994Y35245463D01*
X56940685Y35324815D01*
X57020037Y35421506D01*
X57079002Y35531820D01*
X57115312Y35651518D01*
X57127572Y35776000D01*
X57127572Y36668089D01*
X57739000Y36668089D01*
X57739000Y36483911D01*
X57774932Y36303271D01*
X57845414Y36133111D01*
X57947738Y35979972D01*
X58077972Y35849738D01*
X58231111Y35747414D01*
X58401271Y35676932D01*
X58581911Y35641000D01*
X58766089Y35641000D01*
X58946729Y35676932D01*
X59116889Y35747414D01*
X59270028Y35849738D01*
X59400262Y35979972D01*
X59502586Y36133111D01*
X59573068Y36303271D01*
X59597153Y36424351D01*
X60304801Y37131999D01*
X61992715Y37131999D01*
X61958254Y37059087D01*
X61917596Y36925039D01*
X62039585Y36703000D01*
X63182500Y36703000D01*
X63182500Y36723000D01*
X63436500Y36723000D01*
X63436500Y36703000D01*
X64218964Y36703000D01*
X64243271Y36692932D01*
X64423911Y36657000D01*
X64608089Y36657000D01*
X64788729Y36692932D01*
X64958889Y36763414D01*
X65112028Y36865738D01*
X65242262Y36995972D01*
X65344586Y37149111D01*
X65415068Y37319271D01*
X65451000Y37499911D01*
X65451000Y37684089D01*
X65415068Y37864729D01*
X65344586Y38034889D01*
X65242262Y38188028D01*
X65112028Y38318262D01*
X64958889Y38420586D01*
X64788729Y38491068D01*
X64650531Y38518558D01*
X64640277Y38526973D01*
X64577359Y38560604D01*
X64687727Y38606320D01*
X64922759Y38763363D01*
X65044694Y38885298D01*
X70814903Y38885298D01*
X70886486Y38641329D01*
X71141996Y38520429D01*
X71416184Y38451700D01*
X71698512Y38437783D01*
X71978130Y38479213D01*
X72244292Y38574397D01*
X72369514Y38641329D01*
X72441097Y38885298D01*
X73100903Y38885298D01*
X73172486Y38641329D01*
X73427996Y38520429D01*
X73702184Y38451700D01*
X73984512Y38437783D01*
X74264130Y38479213D01*
X74530292Y38574397D01*
X74655514Y38641329D01*
X74727097Y38885298D01*
X73914000Y39698395D01*
X73100903Y38885298D01*
X72441097Y38885298D01*
X71628000Y39698395D01*
X70814903Y38885298D01*
X65044694Y38885298D01*
X65122637Y38963241D01*
X65279680Y39198273D01*
X65387853Y39459426D01*
X65443000Y39736665D01*
X65443000Y39807488D01*
X70187783Y39807488D01*
X70229213Y39527870D01*
X70324397Y39261708D01*
X70391329Y39136486D01*
X70635298Y39064903D01*
X71448395Y39878000D01*
X71807605Y39878000D01*
X72620702Y39064903D01*
X72771000Y39109002D01*
X72921298Y39064903D01*
X73734395Y39878000D01*
X74093605Y39878000D01*
X74906702Y39064903D01*
X75150671Y39136486D01*
X75271571Y39391996D01*
X75340300Y39666184D01*
X75354217Y39948512D01*
X75312787Y40228130D01*
X75217603Y40494292D01*
X75150671Y40619514D01*
X74906702Y40691097D01*
X74093605Y39878000D01*
X73734395Y39878000D01*
X72921298Y40691097D01*
X72771000Y40646998D01*
X72620702Y40691097D01*
X71807605Y39878000D01*
X71448395Y39878000D01*
X70635298Y40691097D01*
X70391329Y40619514D01*
X70270429Y40364004D01*
X70201700Y40089816D01*
X70187783Y39807488D01*
X65443000Y39807488D01*
X65443000Y40019335D01*
X65387853Y40296574D01*
X65279680Y40557727D01*
X65122637Y40792759D01*
X65044694Y40870702D01*
X70814903Y40870702D01*
X71628000Y40057605D01*
X72441097Y40870702D01*
X73100903Y40870702D01*
X73914000Y40057605D01*
X74727097Y40870702D01*
X74655514Y41114671D01*
X74400004Y41235571D01*
X74125816Y41304300D01*
X73843488Y41318217D01*
X73563870Y41276787D01*
X73297708Y41181603D01*
X73172486Y41114671D01*
X73100903Y40870702D01*
X72441097Y40870702D01*
X72369514Y41114671D01*
X72114004Y41235571D01*
X71839816Y41304300D01*
X71557488Y41318217D01*
X71277870Y41276787D01*
X71011708Y41181603D01*
X70886486Y41114671D01*
X70814903Y40870702D01*
X65044694Y40870702D01*
X64922759Y40992637D01*
X64687727Y41149680D01*
X64426574Y41257853D01*
X64149335Y41313000D01*
X63866665Y41313000D01*
X63589426Y41257853D01*
X63328273Y41149680D01*
X63093241Y40992637D01*
X62893363Y40792759D01*
X62807284Y40663932D01*
X62714702Y40691097D01*
X61901605Y39878000D01*
X62714702Y39064903D01*
X62807284Y39092068D01*
X62893363Y38963241D01*
X63093241Y38763363D01*
X63259909Y38651999D01*
X62466645Y38651999D01*
X62535097Y38885298D01*
X61722000Y39698395D01*
X60908903Y38885298D01*
X60977355Y38651999D01*
X60027324Y38651999D01*
X59989999Y38655675D01*
X59952674Y38651999D01*
X59952666Y38651999D01*
X59841013Y38641002D01*
X59697752Y38597545D01*
X59565723Y38526973D01*
X59449998Y38432000D01*
X59426200Y38403002D01*
X58522351Y37499153D01*
X58401271Y37475068D01*
X58231111Y37404586D01*
X58077972Y37302262D01*
X57947738Y37172028D01*
X57845414Y37018889D01*
X57774932Y36848729D01*
X57739000Y36668089D01*
X57127572Y36668089D01*
X57127572Y37376000D01*
X57115312Y37500482D01*
X57079002Y37620180D01*
X57020037Y37730494D01*
X56940685Y37827185D01*
X56843994Y37906537D01*
X56733680Y37965502D01*
X56613982Y38001812D01*
X56489500Y38014072D01*
X54889500Y38014072D01*
X54765018Y38001812D01*
X54645320Y37965502D01*
X54535006Y37906537D01*
X54438315Y37827185D01*
X54358963Y37730494D01*
X54299998Y37620180D01*
X54263688Y37500482D01*
X54251428Y37376000D01*
X54251428Y36530230D01*
X52916198Y35194999D01*
X52238072Y35194999D01*
X52238072Y36360000D01*
X52225812Y36484482D01*
X52189502Y36604180D01*
X52130537Y36714494D01*
X52051185Y36811185D01*
X51954494Y36890537D01*
X51844180Y36949502D01*
X51724482Y36985812D01*
X51600000Y36998072D01*
X50539214Y36998072D01*
X50544000Y37046667D01*
X50544000Y37046676D01*
X50547676Y37083999D01*
X50544000Y37121322D01*
X50544000Y37165000D01*
X50638089Y37165000D01*
X50818729Y37200932D01*
X50988889Y37271414D01*
X51142028Y37373738D01*
X51272262Y37503972D01*
X51374586Y37657111D01*
X51445068Y37827271D01*
X51469153Y37948351D01*
X51898100Y38377298D01*
X53288903Y38377298D01*
X53360486Y38133329D01*
X53615996Y38012429D01*
X53890184Y37943700D01*
X54172512Y37929783D01*
X54452130Y37971213D01*
X54718292Y38066397D01*
X54843514Y38133329D01*
X54915097Y38377298D01*
X54102000Y39190395D01*
X53288903Y38377298D01*
X51898100Y38377298D01*
X52073004Y38552202D01*
X52102001Y38575999D01*
X52164373Y38651999D01*
X52196974Y38691723D01*
X52267546Y38823753D01*
X52272649Y38840575D01*
X52311003Y38967014D01*
X52322000Y39078667D01*
X52322000Y39078677D01*
X52325676Y39116000D01*
X52322000Y39153322D01*
X52322000Y39299488D01*
X52661783Y39299488D01*
X52703213Y39019870D01*
X52798397Y38753708D01*
X52865329Y38628486D01*
X53109298Y38556903D01*
X53922395Y39370000D01*
X54281605Y39370000D01*
X55094702Y38556903D01*
X55338671Y38628486D01*
X55459571Y38883996D01*
X55514334Y39102469D01*
X55607363Y38963241D01*
X55807241Y38763363D01*
X56042273Y38606320D01*
X56303426Y38498147D01*
X56580665Y38443000D01*
X56863335Y38443000D01*
X57140574Y38498147D01*
X57401727Y38606320D01*
X57636759Y38763363D01*
X57836637Y38963241D01*
X57993680Y39198273D01*
X58101853Y39459426D01*
X58157000Y39736665D01*
X58157000Y39807488D01*
X60281783Y39807488D01*
X60323213Y39527870D01*
X60418397Y39261708D01*
X60485329Y39136486D01*
X60729298Y39064903D01*
X61542395Y39878000D01*
X60729298Y40691097D01*
X60485329Y40619514D01*
X60364429Y40364004D01*
X60295700Y40089816D01*
X60281783Y39807488D01*
X58157000Y39807488D01*
X58157000Y40019335D01*
X58101853Y40296574D01*
X57993680Y40557727D01*
X57836637Y40792759D01*
X57758694Y40870702D01*
X60908903Y40870702D01*
X61722000Y40057605D01*
X62535097Y40870702D01*
X62463514Y41114671D01*
X62208004Y41235571D01*
X61933816Y41304300D01*
X61651488Y41318217D01*
X61371870Y41276787D01*
X61105708Y41181603D01*
X60980486Y41114671D01*
X60908903Y40870702D01*
X57758694Y40870702D01*
X57636759Y40992637D01*
X57401727Y41149680D01*
X57140574Y41257853D01*
X56863335Y41313000D01*
X56580665Y41313000D01*
X56303426Y41257853D01*
X56042273Y41149680D01*
X55807241Y40992637D01*
X55607363Y40792759D01*
X55450320Y40557727D01*
X55342147Y40296574D01*
X55307174Y40120756D01*
X55094702Y40183097D01*
X54281605Y39370000D01*
X53922395Y39370000D01*
X53109298Y40183097D01*
X52865329Y40111514D01*
X52744429Y39856004D01*
X52675700Y39581816D01*
X52661783Y39299488D01*
X52322000Y39299488D01*
X52322000Y40362702D01*
X53288903Y40362702D01*
X54102000Y39549605D01*
X54915097Y40362702D01*
X54843514Y40606671D01*
X54588004Y40727571D01*
X54313816Y40796300D01*
X54031488Y40810217D01*
X53751870Y40768787D01*
X53485708Y40673603D01*
X53360486Y40606671D01*
X53288903Y40362702D01*
X52322000Y40362702D01*
X52322000Y41087199D01*
X58721836Y47487034D01*
X58735820Y47453273D01*
X58892863Y47218241D01*
X59092741Y47018363D01*
X59325259Y46863000D01*
X59092741Y46707637D01*
X58892863Y46507759D01*
X58735820Y46272727D01*
X58627647Y46011574D01*
X58572500Y45734335D01*
X58572500Y45451665D01*
X58627647Y45174426D01*
X58735820Y44913273D01*
X58892863Y44678241D01*
X59092741Y44478363D01*
X59325259Y44323000D01*
X59092741Y44167637D01*
X58892863Y43967759D01*
X58735820Y43732727D01*
X58627647Y43471574D01*
X58572500Y43194335D01*
X58572500Y42911665D01*
X58627647Y42634426D01*
X58735820Y42373273D01*
X58892863Y42138241D01*
X59092741Y41938363D01*
X59327773Y41781320D01*
X59588926Y41673147D01*
X59866165Y41618000D01*
X60148835Y41618000D01*
X60426074Y41673147D01*
X60687227Y41781320D01*
X60922259Y41938363D01*
X61122137Y42138241D01*
X61279180Y42373273D01*
X61387353Y42634426D01*
X61442500Y42911665D01*
X61442500Y43194335D01*
X61387353Y43471574D01*
X61279180Y43732727D01*
X61122137Y43967759D01*
X60922259Y44167637D01*
X60689741Y44323000D01*
X60922259Y44478363D01*
X61122137Y44678241D01*
X61279180Y44913273D01*
X61387353Y45174426D01*
X61442500Y45451665D01*
X61442500Y45734335D01*
X61387353Y46011574D01*
X61279180Y46272727D01*
X61122137Y46507759D01*
X60922259Y46707637D01*
X60689741Y46863000D01*
X60922259Y47018363D01*
X61122137Y47218241D01*
X61279180Y47453273D01*
X61387353Y47714426D01*
X61442500Y47991665D01*
X61442500Y48274335D01*
X61387353Y48551574D01*
X61375786Y48579500D01*
X62874897Y48579500D01*
X63444010Y48010386D01*
X63444010Y47948249D01*
X63483784Y47748290D01*
X63561805Y47559932D01*
X63675073Y47390414D01*
X63819236Y47246251D01*
X63988754Y47132983D01*
X64177112Y47054962D01*
X64377071Y47015188D01*
X64580949Y47015188D01*
X64780908Y47054962D01*
X64969266Y47132983D01*
X65138784Y47246251D01*
X65282947Y47390414D01*
X65396215Y47559932D01*
X65474236Y47748290D01*
X65514010Y47948249D01*
X65514010Y48152127D01*
X65474236Y48352086D01*
X65396215Y48540444D01*
X65282947Y48709962D01*
X65138784Y48854125D01*
X64969266Y48967393D01*
X64780908Y49045414D01*
X64580949Y49085188D01*
X64518812Y49085188D01*
X63753502Y49850497D01*
X63729699Y49879501D01*
X63613974Y49974474D01*
X63481945Y50045046D01*
X63338684Y50088503D01*
X63227031Y50099500D01*
X63227020Y50099500D01*
X63189698Y50103176D01*
X63152376Y50099500D01*
X61323181Y50099500D01*
X61387353Y50254426D01*
X61442500Y50531665D01*
X61442500Y50814335D01*
X61387353Y51091574D01*
X61279180Y51352727D01*
X61122137Y51587759D01*
X60926561Y51783335D01*
X62573000Y51783335D01*
X62573000Y51500665D01*
X62628147Y51223426D01*
X62736320Y50962273D01*
X62893363Y50727241D01*
X63093241Y50527363D01*
X63328273Y50370320D01*
X63589426Y50262147D01*
X63866665Y50207000D01*
X64149335Y50207000D01*
X64426574Y50262147D01*
X64687727Y50370320D01*
X64922759Y50527363D01*
X65122637Y50727241D01*
X65279680Y50962273D01*
X65387853Y51223426D01*
X65443000Y51500665D01*
X65443000Y51783335D01*
X65387853Y52060574D01*
X65279680Y52321727D01*
X65122637Y52556759D01*
X64922759Y52756637D01*
X64687727Y52913680D01*
X64426574Y53021853D01*
X64149335Y53077000D01*
X63866665Y53077000D01*
X63589426Y53021853D01*
X63328273Y52913680D01*
X63093241Y52756637D01*
X62893363Y52556759D01*
X62736320Y52321727D01*
X62628147Y52060574D01*
X62573000Y51783335D01*
X60926561Y51783335D01*
X60922259Y51787637D01*
X60689741Y51943000D01*
X60922259Y52098363D01*
X61122137Y52298241D01*
X61279180Y52533273D01*
X61387353Y52794426D01*
X61442500Y53071665D01*
X61442500Y53354335D01*
X61387353Y53631574D01*
X61279180Y53892727D01*
X61122137Y54127759D01*
X60922259Y54327637D01*
X60767500Y54431043D01*
X60767500Y54534957D01*
X60922259Y54638363D01*
X61122137Y54838241D01*
X61279180Y55073273D01*
X61387353Y55334426D01*
X61442500Y55611665D01*
X61442500Y55649298D01*
X63194903Y55649298D01*
X63266486Y55405329D01*
X63521996Y55284429D01*
X63796184Y55215700D01*
X64078512Y55201783D01*
X64358130Y55243213D01*
X64624292Y55338397D01*
X64749514Y55405329D01*
X64821097Y55649298D01*
X64008000Y56462395D01*
X63194903Y55649298D01*
X61442500Y55649298D01*
X61442500Y55894335D01*
X61387353Y56171574D01*
X61279180Y56432727D01*
X61186464Y56571488D01*
X62567783Y56571488D01*
X62609213Y56291870D01*
X62704397Y56025708D01*
X62771329Y55900486D01*
X63015298Y55828903D01*
X63828395Y56642000D01*
X64187605Y56642000D01*
X65000702Y55828903D01*
X65223707Y55894335D01*
X66192500Y55894335D01*
X66192500Y55611665D01*
X66247647Y55334426D01*
X66355820Y55073273D01*
X66512863Y54838241D01*
X66712741Y54638363D01*
X66945259Y54483000D01*
X66712741Y54327637D01*
X66512863Y54127759D01*
X66355820Y53892727D01*
X66247647Y53631574D01*
X66192500Y53354335D01*
X66192500Y53071665D01*
X66247647Y52794426D01*
X66355820Y52533273D01*
X66512863Y52298241D01*
X66712741Y52098363D01*
X66867501Y51994956D01*
X66867500Y51891044D01*
X66712741Y51787637D01*
X66512863Y51587759D01*
X66355820Y51352727D01*
X66247647Y51091574D01*
X66192500Y50814335D01*
X66192500Y50531665D01*
X66247647Y50254426D01*
X66355820Y49993273D01*
X66512863Y49758241D01*
X66712741Y49558363D01*
X66945259Y49403000D01*
X66712741Y49247637D01*
X66512863Y49047759D01*
X66355820Y48812727D01*
X66247647Y48551574D01*
X66192500Y48274335D01*
X66192500Y47991665D01*
X66247647Y47714426D01*
X66355820Y47453273D01*
X66512863Y47218241D01*
X66712741Y47018363D01*
X66945259Y46863000D01*
X66712741Y46707637D01*
X66512863Y46507759D01*
X66355820Y46272727D01*
X66247647Y46011574D01*
X66192500Y45734335D01*
X66192500Y45451665D01*
X66247647Y45174426D01*
X66355820Y44913273D01*
X66512863Y44678241D01*
X66712741Y44478363D01*
X66945259Y44323000D01*
X66712741Y44167637D01*
X66512863Y43967759D01*
X66355820Y43732727D01*
X66247647Y43471574D01*
X66192500Y43194335D01*
X66192500Y42911665D01*
X66247647Y42634426D01*
X66355820Y42373273D01*
X66512863Y42138241D01*
X66712741Y41938363D01*
X66947773Y41781320D01*
X67208926Y41673147D01*
X67486165Y41618000D01*
X67768835Y41618000D01*
X68046074Y41673147D01*
X68307227Y41781320D01*
X68542259Y41938363D01*
X68742137Y42138241D01*
X68899180Y42373273D01*
X69007353Y42634426D01*
X69062500Y42911665D01*
X69062500Y43194335D01*
X69007353Y43471574D01*
X68899180Y43732727D01*
X68742137Y43967759D01*
X68542259Y44167637D01*
X68381500Y44275053D01*
X74765000Y44275053D01*
X74765000Y43824947D01*
X74852811Y43383490D01*
X75025059Y42967647D01*
X75275125Y42593397D01*
X75593397Y42275125D01*
X75967647Y42025059D01*
X76383490Y41852811D01*
X76824947Y41765000D01*
X77275053Y41765000D01*
X77716510Y41852811D01*
X78132353Y42025059D01*
X78506603Y42275125D01*
X78824875Y42593397D01*
X79074941Y42967647D01*
X79247189Y43383490D01*
X79335000Y43824947D01*
X79335000Y44275053D01*
X79247189Y44716510D01*
X79074941Y45132353D01*
X78824875Y45506603D01*
X78506603Y45824875D01*
X78132353Y46074941D01*
X77716510Y46247189D01*
X77275053Y46335000D01*
X76824947Y46335000D01*
X76383490Y46247189D01*
X75967647Y46074941D01*
X75593397Y45824875D01*
X75275125Y45506603D01*
X75025059Y45132353D01*
X74852811Y44716510D01*
X74765000Y44275053D01*
X68381500Y44275053D01*
X68309741Y44323000D01*
X68542259Y44478363D01*
X68742137Y44678241D01*
X68899180Y44913273D01*
X69007353Y45174426D01*
X69062500Y45451665D01*
X69062500Y45734335D01*
X69007353Y46011574D01*
X68899180Y46272727D01*
X68742137Y46507759D01*
X68542259Y46707637D01*
X68309741Y46863000D01*
X68542259Y47018363D01*
X68742137Y47218241D01*
X68899180Y47453273D01*
X68934106Y47537592D01*
X70153000Y47537592D01*
X70153000Y47262408D01*
X70206686Y46992510D01*
X70311995Y46738273D01*
X70464880Y46509465D01*
X70659465Y46314880D01*
X70888273Y46161995D01*
X71142510Y46056686D01*
X71412408Y46003000D01*
X71687592Y46003000D01*
X71957490Y46056686D01*
X72211727Y46161995D01*
X72440535Y46314880D01*
X72560090Y46434435D01*
X73264040Y46434435D01*
X73331020Y46194344D01*
X73580048Y46077244D01*
X73847135Y46010977D01*
X74122017Y45998090D01*
X74394133Y46039078D01*
X74653023Y46132364D01*
X74768980Y46194344D01*
X74835960Y46434435D01*
X74050000Y47220395D01*
X73264040Y46434435D01*
X72560090Y46434435D01*
X72635120Y46509465D01*
X72788005Y46738273D01*
X72799242Y46765401D01*
X72844344Y46681020D01*
X73084435Y46614040D01*
X73870395Y47400000D01*
X74229605Y47400000D01*
X75015565Y46614040D01*
X75255656Y46681020D01*
X75372756Y46930048D01*
X75439023Y47197135D01*
X75451910Y47472017D01*
X75410922Y47744133D01*
X75317636Y48003023D01*
X75255656Y48118980D01*
X75015565Y48185960D01*
X74229605Y47400000D01*
X73870395Y47400000D01*
X73084435Y48185960D01*
X72844344Y48118980D01*
X72801782Y48028467D01*
X72788005Y48061727D01*
X72635120Y48290535D01*
X72440535Y48485120D01*
X72211727Y48638005D01*
X71957490Y48743314D01*
X71687592Y48797000D01*
X71412408Y48797000D01*
X71142510Y48743314D01*
X70888273Y48638005D01*
X70659465Y48485120D01*
X70464880Y48290535D01*
X70311995Y48061727D01*
X70206686Y47807490D01*
X70153000Y47537592D01*
X68934106Y47537592D01*
X69007353Y47714426D01*
X69062500Y47991665D01*
X69062500Y48274335D01*
X69007353Y48551574D01*
X68899180Y48812727D01*
X68742137Y49047759D01*
X68542259Y49247637D01*
X68309741Y49403000D01*
X68542259Y49558363D01*
X68742137Y49758241D01*
X68899180Y49993273D01*
X69007353Y50254426D01*
X69062500Y50531665D01*
X69062500Y50814335D01*
X69007353Y51091574D01*
X68899180Y51352727D01*
X68742137Y51587759D01*
X68542259Y51787637D01*
X68387500Y51891043D01*
X68387500Y51994957D01*
X68542259Y52098363D01*
X68742137Y52298241D01*
X68899180Y52533273D01*
X69007353Y52794426D01*
X69062500Y53071665D01*
X69062500Y53354335D01*
X69007353Y53631574D01*
X68899180Y53892727D01*
X68742137Y54127759D01*
X68542259Y54327637D01*
X68527361Y54337592D01*
X70153000Y54337592D01*
X70153000Y54062408D01*
X70206686Y53792510D01*
X70311995Y53538273D01*
X70464880Y53309465D01*
X70659465Y53114880D01*
X70888273Y52961995D01*
X71142510Y52856686D01*
X71412408Y52803000D01*
X71687592Y52803000D01*
X71957490Y52856686D01*
X72211727Y52961995D01*
X72440535Y53114880D01*
X72635120Y53309465D01*
X72788005Y53538273D01*
X72800000Y53567231D01*
X72811995Y53538273D01*
X72964880Y53309465D01*
X73124345Y53150000D01*
X72964880Y52990535D01*
X72811995Y52761727D01*
X72706686Y52507490D01*
X72653000Y52237592D01*
X72653000Y51962408D01*
X72706686Y51692510D01*
X72811995Y51438273D01*
X72964880Y51209465D01*
X73159465Y51014880D01*
X73388273Y50861995D01*
X73537941Y50800000D01*
X73388273Y50738005D01*
X73159465Y50585120D01*
X72964880Y50390535D01*
X72811995Y50161727D01*
X72706686Y49907490D01*
X72653000Y49637592D01*
X72653000Y49362408D01*
X72706686Y49092510D01*
X72811995Y48838273D01*
X72964880Y48609465D01*
X73159465Y48414880D01*
X73326001Y48303604D01*
X74050000Y47579605D01*
X74773999Y48303604D01*
X74940535Y48414880D01*
X75135120Y48609465D01*
X75288005Y48838273D01*
X75393314Y49092510D01*
X75447000Y49362408D01*
X75447000Y49637592D01*
X75393314Y49907490D01*
X75288005Y50161727D01*
X75135120Y50390535D01*
X74940535Y50585120D01*
X74711727Y50738005D01*
X74562059Y50800000D01*
X74711727Y50861995D01*
X74940535Y51014880D01*
X75135120Y51209465D01*
X75288005Y51438273D01*
X75393314Y51692510D01*
X75447000Y51962408D01*
X75447000Y52237592D01*
X75393314Y52507490D01*
X75288005Y52761727D01*
X75135120Y52990535D01*
X74975655Y53150000D01*
X75135120Y53309465D01*
X75288005Y53538273D01*
X75393314Y53792510D01*
X75447000Y54062408D01*
X75447000Y54337592D01*
X75393314Y54607490D01*
X75288005Y54861727D01*
X75135120Y55090535D01*
X74940535Y55285120D01*
X74711727Y55438005D01*
X74457490Y55543314D01*
X74187592Y55597000D01*
X73912408Y55597000D01*
X73642510Y55543314D01*
X73388273Y55438005D01*
X73159465Y55285120D01*
X72964880Y55090535D01*
X72811995Y54861727D01*
X72800000Y54832769D01*
X72788005Y54861727D01*
X72635120Y55090535D01*
X72440535Y55285120D01*
X72211727Y55438005D01*
X71957490Y55543314D01*
X71687592Y55597000D01*
X71412408Y55597000D01*
X71142510Y55543314D01*
X70888273Y55438005D01*
X70659465Y55285120D01*
X70464880Y55090535D01*
X70311995Y54861727D01*
X70206686Y54607490D01*
X70153000Y54337592D01*
X68527361Y54337592D01*
X68309741Y54483000D01*
X68542259Y54638363D01*
X68742137Y54838241D01*
X68899180Y55073273D01*
X69007353Y55334426D01*
X69062500Y55611665D01*
X69062500Y55894335D01*
X69007353Y56171574D01*
X68899180Y56432727D01*
X68742137Y56667759D01*
X68542259Y56867637D01*
X68307227Y57024680D01*
X68296635Y57029067D01*
X68482631Y57140615D01*
X68691019Y57329586D01*
X68858537Y57555580D01*
X68978746Y57809913D01*
X69019404Y57943961D01*
X68897415Y58166000D01*
X67754500Y58166000D01*
X67754500Y58146000D01*
X67500500Y58146000D01*
X67500500Y58166000D01*
X66357585Y58166000D01*
X66235596Y57943961D01*
X66276254Y57809913D01*
X66396463Y57555580D01*
X66563981Y57329586D01*
X66772369Y57140615D01*
X66958365Y57029067D01*
X66947773Y57024680D01*
X66712741Y56867637D01*
X66512863Y56667759D01*
X66355820Y56432727D01*
X66247647Y56171574D01*
X66192500Y55894335D01*
X65223707Y55894335D01*
X65244671Y55900486D01*
X65365571Y56155996D01*
X65434300Y56430184D01*
X65448217Y56712512D01*
X65406787Y56992130D01*
X65311603Y57258292D01*
X65244671Y57383514D01*
X65000702Y57455097D01*
X64187605Y56642000D01*
X63828395Y56642000D01*
X63015298Y57455097D01*
X62771329Y57383514D01*
X62650429Y57128004D01*
X62581700Y56853816D01*
X62567783Y56571488D01*
X61186464Y56571488D01*
X61122137Y56667759D01*
X60923539Y56866357D01*
X60931982Y56867188D01*
X61051680Y56903498D01*
X61161994Y56962463D01*
X61258685Y57041815D01*
X61338037Y57138506D01*
X61397002Y57248820D01*
X61433312Y57368518D01*
X61445572Y57493000D01*
X61445572Y57634702D01*
X63194903Y57634702D01*
X64008000Y56821605D01*
X64821097Y57634702D01*
X64749514Y57878671D01*
X64494004Y57999571D01*
X64219816Y58068300D01*
X63937488Y58082217D01*
X63657870Y58040787D01*
X63391708Y57945603D01*
X63266486Y57878671D01*
X63194903Y57634702D01*
X61445572Y57634702D01*
X61445572Y59093000D01*
X61433312Y59217482D01*
X61397002Y59337180D01*
X61370907Y59386000D01*
X66706882Y59386000D01*
X66563981Y59256414D01*
X66396463Y59030420D01*
X66276254Y58776087D01*
X66235596Y58642039D01*
X66357585Y58420000D01*
X67500500Y58420000D01*
X67500500Y58440000D01*
X67754500Y58440000D01*
X67754500Y58420000D01*
X68897415Y58420000D01*
X69019404Y58642039D01*
X68978746Y58776087D01*
X68858537Y59030420D01*
X68691019Y59256414D01*
X68548118Y59386000D01*
X75684877Y59386000D01*
X75593397Y59324875D01*
X75275125Y59006603D01*
X75025059Y58632353D01*
X74852811Y58216510D01*
X74765000Y57775053D01*
X74765000Y57324947D01*
X74852811Y56883490D01*
X75025059Y56467647D01*
X75275125Y56093397D01*
X75593397Y55775125D01*
X75967647Y55525059D01*
X76383490Y55352811D01*
X76824947Y55265000D01*
X77275053Y55265000D01*
X77716510Y55352811D01*
X78132353Y55525059D01*
X78506603Y55775125D01*
X78824875Y56093397D01*
X79074941Y56467647D01*
X79247189Y56883490D01*
X79335000Y57324947D01*
X79335000Y57775053D01*
X79247189Y58216510D01*
X79074941Y58632353D01*
X78824875Y59006603D01*
X78506603Y59324875D01*
X78415123Y59386000D01*
X78646647Y59386000D01*
X78740956Y59395289D01*
X78903542Y59379347D01*
X79183018Y59294969D01*
X79440780Y59157915D01*
X79667015Y58973401D01*
X79853103Y58748460D01*
X79991956Y58491658D01*
X80078282Y58212781D01*
X80096365Y58040731D01*
X80087000Y57945646D01*
X80087000Y51266365D01*
X80047189Y51466510D01*
X79874941Y51882353D01*
X79624875Y52256603D01*
X79306603Y52574875D01*
X78932353Y52824941D01*
X78516510Y52997189D01*
X78075053Y53085000D01*
X77624947Y53085000D01*
X77183490Y52997189D01*
X76767647Y52824941D01*
X76393397Y52574875D01*
X76075125Y52256603D01*
X75825059Y51882353D01*
X75652811Y51466510D01*
X75565000Y51025053D01*
X75565000Y50574947D01*
X75652811Y50133490D01*
X75825059Y49717647D01*
X76075125Y49343397D01*
X76393397Y49025125D01*
X76767647Y48775059D01*
X77183490Y48602811D01*
X77624947Y48515000D01*
X78075053Y48515000D01*
X78516510Y48602811D01*
X78932353Y48775059D01*
X79306603Y49025125D01*
X79624875Y49343397D01*
X79874941Y49717647D01*
X80047189Y50133490D01*
X80087000Y50333635D01*
X80087000Y40705412D01*
X80028637Y40792759D01*
X79828759Y40992637D01*
X79593727Y41149680D01*
X79332574Y41257853D01*
X79055335Y41313000D01*
X78772665Y41313000D01*
X78495426Y41257853D01*
X78234273Y41149680D01*
X77999241Y40992637D01*
X77799363Y40792759D01*
X77642320Y40557727D01*
X77534147Y40296574D01*
X77479000Y40019335D01*
X77479000Y39736665D01*
X77534147Y39459426D01*
X77642320Y39198273D01*
X77799363Y38963241D01*
X77999241Y38763363D01*
X78234273Y38606320D01*
X78495426Y38498147D01*
X78772665Y38443000D01*
X79055335Y38443000D01*
X79332574Y38498147D01*
X79593727Y38606320D01*
X79828759Y38763363D01*
X80028637Y38963241D01*
X80087000Y39050588D01*
X80087001Y685000D01*
X14218381Y685000D01*
X685000Y14218380D01*
X685000Y20461335D01*
X1105000Y20461335D01*
X1105000Y20178665D01*
X1160147Y19901426D01*
X1268320Y19640273D01*
X1425363Y19405241D01*
X1625241Y19205363D01*
X1860273Y19048320D01*
X2121426Y18940147D01*
X2398665Y18885000D01*
X2681335Y18885000D01*
X2958574Y18940147D01*
X3219727Y19048320D01*
X3454759Y19205363D01*
X3654637Y19405241D01*
X3810000Y19637759D01*
X3965363Y19405241D01*
X4165241Y19205363D01*
X4400273Y19048320D01*
X4661426Y18940147D01*
X4938665Y18885000D01*
X5221335Y18885000D01*
X5498574Y18940147D01*
X5759727Y19048320D01*
X5994759Y19205363D01*
X6194637Y19405241D01*
X6350000Y19637759D01*
X6505363Y19405241D01*
X6705241Y19205363D01*
X6940273Y19048320D01*
X7201426Y18940147D01*
X7478665Y18885000D01*
X7761335Y18885000D01*
X8038574Y18940147D01*
X8299727Y19048320D01*
X8534759Y19205363D01*
X8734637Y19405241D01*
X8890000Y19637759D01*
X9025001Y19435715D01*
X9025000Y17902284D01*
X8888320Y17697727D01*
X8780147Y17436574D01*
X8725000Y17159335D01*
X8725000Y16876665D01*
X8780147Y16599426D01*
X8888320Y16338273D01*
X9045363Y16103241D01*
X9245241Y15903363D01*
X9480273Y15746320D01*
X9741426Y15638147D01*
X10018665Y15583000D01*
X10301335Y15583000D01*
X10578574Y15638147D01*
X10839727Y15746320D01*
X11074759Y15903363D01*
X11196694Y16025298D01*
X16966903Y16025298D01*
X17038486Y15781329D01*
X17293996Y15660429D01*
X17568184Y15591700D01*
X17850512Y15577783D01*
X18130130Y15619213D01*
X18396292Y15714397D01*
X18521514Y15781329D01*
X18593097Y16025298D01*
X17780000Y16838395D01*
X16966903Y16025298D01*
X11196694Y16025298D01*
X11274637Y16103241D01*
X11431680Y16338273D01*
X11539853Y16599426D01*
X11595000Y16876665D01*
X11595000Y16947488D01*
X16339783Y16947488D01*
X16381213Y16667870D01*
X16476397Y16401708D01*
X16543329Y16276486D01*
X16787298Y16204903D01*
X17600395Y17018000D01*
X17959605Y17018000D01*
X18772702Y16204903D01*
X19016671Y16276486D01*
X19137571Y16531996D01*
X19206300Y16806184D01*
X19220217Y17088512D01*
X19178787Y17368130D01*
X19083603Y17634292D01*
X19016671Y17759514D01*
X18772702Y17831097D01*
X17959605Y17018000D01*
X17600395Y17018000D01*
X16787298Y17831097D01*
X16543329Y17759514D01*
X16422429Y17504004D01*
X16353700Y17229816D01*
X16339783Y16947488D01*
X11595000Y16947488D01*
X11595000Y17159335D01*
X11539853Y17436574D01*
X11431680Y17697727D01*
X11295000Y17902284D01*
X11295000Y19435716D01*
X11430000Y19637759D01*
X11585363Y19405241D01*
X11785241Y19205363D01*
X12020273Y19048320D01*
X12281426Y18940147D01*
X12558665Y18885000D01*
X12841335Y18885000D01*
X13118574Y18940147D01*
X13379727Y19048320D01*
X13614759Y19205363D01*
X13814637Y19405241D01*
X13970000Y19637759D01*
X14125363Y19405241D01*
X14325241Y19205363D01*
X14560273Y19048320D01*
X14821426Y18940147D01*
X15098665Y18885000D01*
X15381335Y18885000D01*
X15563887Y18921312D01*
X15801197Y18684002D01*
X15825000Y18654998D01*
X15940725Y18560025D01*
X16072754Y18489453D01*
X16216015Y18445996D01*
X16327668Y18434999D01*
X16327677Y18434999D01*
X16365000Y18431323D01*
X16402323Y18434999D01*
X17552786Y18434999D01*
X17429870Y18416787D01*
X17163708Y18321603D01*
X17038486Y18254671D01*
X16966903Y18010702D01*
X17780000Y17197605D01*
X18593097Y18010702D01*
X18521514Y18254671D01*
X18266004Y18375571D01*
X18028921Y18434999D01*
X18828787Y18434999D01*
X19029798Y18233987D01*
X19053598Y18204987D01*
X19169323Y18110014D01*
X19301352Y18039442D01*
X19444613Y17995985D01*
X19556266Y17984988D01*
X19556275Y17984988D01*
X19593598Y17981312D01*
X19630923Y17984988D01*
X21182387Y17984988D01*
X21383403Y17783971D01*
X21407197Y17754978D01*
X21436190Y17731184D01*
X21436195Y17731179D01*
X21522921Y17660005D01*
X21654951Y17589432D01*
X21798211Y17545975D01*
X21947197Y17531301D01*
X21984539Y17534979D01*
X23535986Y17534977D01*
X23736999Y17333964D01*
X23760798Y17304965D01*
X23876523Y17209992D01*
X24008552Y17139420D01*
X24151813Y17095963D01*
X24263466Y17084966D01*
X24263475Y17084966D01*
X24300798Y17081290D01*
X24338123Y17084966D01*
X25889587Y17084966D01*
X26090599Y16883953D01*
X26114398Y16854954D01*
X26230123Y16759981D01*
X26362152Y16689409D01*
X26505413Y16645952D01*
X26617066Y16634955D01*
X26617075Y16634955D01*
X26654398Y16631279D01*
X26691723Y16634955D01*
X28243188Y16634955D01*
X31165144Y13712998D01*
X31188943Y13683999D01*
X31217941Y13660201D01*
X31304668Y13589026D01*
X31436697Y13518454D01*
X31579958Y13474997D01*
X31728944Y13460323D01*
X31766277Y13464000D01*
X49326685Y13464000D01*
X54811499Y7979185D01*
X54668589Y7919990D01*
X54425368Y7757475D01*
X54218525Y7550632D01*
X54102000Y7376240D01*
X53985475Y7550632D01*
X53778632Y7757475D01*
X53535411Y7919990D01*
X53265158Y8031932D01*
X52978260Y8089000D01*
X52685740Y8089000D01*
X52398842Y8031932D01*
X52128589Y7919990D01*
X51885368Y7757475D01*
X51678525Y7550632D01*
X51562000Y7376240D01*
X51445475Y7550632D01*
X51238632Y7757475D01*
X50995411Y7919990D01*
X50725158Y8031932D01*
X50438260Y8089000D01*
X50145740Y8089000D01*
X49858842Y8031932D01*
X49588589Y7919990D01*
X49345368Y7757475D01*
X49138525Y7550632D01*
X49016805Y7368466D01*
X48947178Y7485355D01*
X48752269Y7701588D01*
X48518920Y7875641D01*
X48256099Y8000825D01*
X48108890Y8045476D01*
X47879000Y7924155D01*
X47879000Y6731000D01*
X47899000Y6731000D01*
X47899000Y6477000D01*
X47879000Y6477000D01*
X47879000Y6457000D01*
X47625000Y6457000D01*
X47625000Y6477000D01*
X47605000Y6477000D01*
X47605000Y6731000D01*
X47625000Y6731000D01*
X47625000Y7924155D01*
X47395110Y8045476D01*
X47247901Y8000825D01*
X46985080Y7875641D01*
X46751731Y7701588D01*
X46556822Y7485355D01*
X46487195Y7368466D01*
X46365475Y7550632D01*
X46158632Y7757475D01*
X45915411Y7919990D01*
X45645158Y8031932D01*
X45358260Y8089000D01*
X45065740Y8089000D01*
X44778842Y8031932D01*
X44508589Y7919990D01*
X44265368Y7757475D01*
X44058525Y7550632D01*
X43942000Y7376240D01*
X43825475Y7550632D01*
X43618632Y7757475D01*
X43375411Y7919990D01*
X43105158Y8031932D01*
X42818260Y8089000D01*
X42525740Y8089000D01*
X42238842Y8031932D01*
X41968589Y7919990D01*
X41725368Y7757475D01*
X41518525Y7550632D01*
X41402000Y7376240D01*
X41285475Y7550632D01*
X41078632Y7757475D01*
X40835411Y7919990D01*
X40565158Y8031932D01*
X40278260Y8089000D01*
X39985740Y8089000D01*
X39716999Y8035544D01*
X39716999Y10281466D01*
X39785585Y10384112D01*
X39856067Y10554272D01*
X39891999Y10734912D01*
X39891999Y10919090D01*
X39856067Y11099730D01*
X39785585Y11269890D01*
X39683261Y11423029D01*
X39553027Y11553263D01*
X39399888Y11655587D01*
X39229728Y11726069D01*
X39049088Y11762001D01*
X38864910Y11762001D01*
X38684270Y11726069D01*
X38514110Y11655587D01*
X38360971Y11553263D01*
X38230737Y11423029D01*
X38128413Y11269890D01*
X38057931Y11099730D01*
X38021999Y10919090D01*
X38021999Y10734912D01*
X38057931Y10554272D01*
X38128413Y10384112D01*
X38197000Y10281464D01*
X38196999Y7960753D01*
X38025158Y8031932D01*
X37738260Y8089000D01*
X37445740Y8089000D01*
X37158842Y8031932D01*
X36888589Y7919990D01*
X36763435Y7836365D01*
X34361888Y10237911D01*
X34427068Y10395271D01*
X34463000Y10575911D01*
X34463000Y10760089D01*
X34427068Y10940729D01*
X34356586Y11110889D01*
X34254262Y11264028D01*
X34124028Y11394262D01*
X33970889Y11496586D01*
X33800729Y11567068D01*
X33679649Y11591153D01*
X33283804Y11986997D01*
X33260002Y12016000D01*
X33144277Y12110973D01*
X33012248Y12181545D01*
X32868987Y12225002D01*
X32757334Y12235999D01*
X32757323Y12235999D01*
X32720001Y12239675D01*
X32682679Y12235999D01*
X22852325Y12235999D01*
X22815002Y12239675D01*
X22777679Y12235999D01*
X22777670Y12235999D01*
X22666017Y12225002D01*
X22540106Y12186808D01*
X22522756Y12181545D01*
X22390726Y12110973D01*
X22307086Y12042331D01*
X22275002Y12016000D01*
X22251204Y11987002D01*
X18872301Y8608098D01*
X18730889Y8702586D01*
X18560729Y8773068D01*
X18380089Y8809000D01*
X18195911Y8809000D01*
X18015271Y8773068D01*
X17845111Y8702586D01*
X17801414Y8673388D01*
X12353153Y14121648D01*
X12329068Y14242729D01*
X12258586Y14412889D01*
X12156262Y14566028D01*
X12026028Y14696262D01*
X11872889Y14798586D01*
X11702729Y14869068D01*
X11522089Y14905000D01*
X11337911Y14905000D01*
X11157271Y14869068D01*
X10987111Y14798586D01*
X10833972Y14696262D01*
X10703738Y14566028D01*
X10601414Y14412889D01*
X10530932Y14242729D01*
X10495000Y14062089D01*
X10495000Y13877911D01*
X10530932Y13697271D01*
X10601414Y13527111D01*
X10703738Y13373972D01*
X10833972Y13243738D01*
X10987111Y13141414D01*
X11157271Y13070932D01*
X11278352Y13046847D01*
X16470649Y7854549D01*
X16325368Y7757475D01*
X16118525Y7550632D01*
X15956010Y7307411D01*
X15940891Y7270910D01*
X9578652Y13633147D01*
X9554567Y13754228D01*
X9484085Y13924388D01*
X9381761Y14077527D01*
X9251527Y14207761D01*
X9098388Y14310085D01*
X8928228Y14380567D01*
X8747588Y14416499D01*
X8563410Y14416499D01*
X8382770Y14380567D01*
X8212610Y14310085D01*
X8059471Y14207761D01*
X7929237Y14077527D01*
X7826913Y13924388D01*
X7756431Y13754228D01*
X7720499Y13573588D01*
X7720499Y13389410D01*
X7756431Y13208770D01*
X7826913Y13038610D01*
X7929237Y12885471D01*
X8059471Y12755237D01*
X8212610Y12652913D01*
X8382770Y12582431D01*
X8503851Y12558346D01*
X16091704Y4970491D01*
X15956010Y4767411D01*
X15844068Y4497158D01*
X15787000Y4210260D01*
X15787000Y3917740D01*
X15844068Y3630842D01*
X15956010Y3360589D01*
X16118525Y3117368D01*
X16325368Y2910525D01*
X16568589Y2748010D01*
X16838842Y2636068D01*
X17125740Y2579000D01*
X17418260Y2579000D01*
X17705158Y2636068D01*
X17975411Y2748010D01*
X18218632Y2910525D01*
X18425475Y3117368D01*
X18542000Y3291760D01*
X18658525Y3117368D01*
X18865368Y2910525D01*
X19108589Y2748010D01*
X19378842Y2636068D01*
X19665740Y2579000D01*
X19958260Y2579000D01*
X20245158Y2636068D01*
X20515411Y2748010D01*
X20758632Y2910525D01*
X20965475Y3117368D01*
X21082000Y3291760D01*
X21198525Y3117368D01*
X21405368Y2910525D01*
X21648589Y2748010D01*
X21918842Y2636068D01*
X22205740Y2579000D01*
X22498260Y2579000D01*
X22785158Y2636068D01*
X23055411Y2748010D01*
X23298632Y2910525D01*
X23505475Y3117368D01*
X23622000Y3291760D01*
X23738525Y3117368D01*
X23945368Y2910525D01*
X24188589Y2748010D01*
X24458842Y2636068D01*
X24745740Y2579000D01*
X25038260Y2579000D01*
X25325158Y2636068D01*
X25595411Y2748010D01*
X25838632Y2910525D01*
X26045475Y3117368D01*
X26162000Y3291760D01*
X26278525Y3117368D01*
X26485368Y2910525D01*
X26728589Y2748010D01*
X26998842Y2636068D01*
X27285740Y2579000D01*
X27578260Y2579000D01*
X27865158Y2636068D01*
X28135411Y2748010D01*
X28378632Y2910525D01*
X28585475Y3117368D01*
X28702000Y3291760D01*
X28818525Y3117368D01*
X29025368Y2910525D01*
X29268589Y2748010D01*
X29538842Y2636068D01*
X29825740Y2579000D01*
X30118260Y2579000D01*
X30405158Y2636068D01*
X30675411Y2748010D01*
X30918632Y2910525D01*
X31125475Y3117368D01*
X31242000Y3291760D01*
X31358525Y3117368D01*
X31565368Y2910525D01*
X31808589Y2748010D01*
X32078842Y2636068D01*
X32365740Y2579000D01*
X32658260Y2579000D01*
X32945158Y2636068D01*
X33215411Y2748010D01*
X33458632Y2910525D01*
X33665475Y3117368D01*
X33782000Y3291760D01*
X33898525Y3117368D01*
X34105368Y2910525D01*
X34348589Y2748010D01*
X34618842Y2636068D01*
X34905740Y2579000D01*
X35198260Y2579000D01*
X35485158Y2636068D01*
X35755411Y2748010D01*
X35998632Y2910525D01*
X36205475Y3117368D01*
X36322000Y3291760D01*
X36438525Y3117368D01*
X36645368Y2910525D01*
X36888589Y2748010D01*
X37158842Y2636068D01*
X37445740Y2579000D01*
X37738260Y2579000D01*
X38025158Y2636068D01*
X38295411Y2748010D01*
X38538632Y2910525D01*
X38745475Y3117368D01*
X38862000Y3291760D01*
X38978525Y3117368D01*
X39185368Y2910525D01*
X39428589Y2748010D01*
X39698842Y2636068D01*
X39985740Y2579000D01*
X40278260Y2579000D01*
X40565158Y2636068D01*
X40835411Y2748010D01*
X41078632Y2910525D01*
X41285475Y3117368D01*
X41402000Y3291760D01*
X41518525Y3117368D01*
X41725368Y2910525D01*
X41968589Y2748010D01*
X42238842Y2636068D01*
X42525740Y2579000D01*
X42818260Y2579000D01*
X43105158Y2636068D01*
X43375411Y2748010D01*
X43618632Y2910525D01*
X43825475Y3117368D01*
X43942000Y3291760D01*
X44058525Y3117368D01*
X44265368Y2910525D01*
X44508589Y2748010D01*
X44778842Y2636068D01*
X45065740Y2579000D01*
X45358260Y2579000D01*
X45645158Y2636068D01*
X45915411Y2748010D01*
X46158632Y2910525D01*
X46365475Y3117368D01*
X46482000Y3291760D01*
X46598525Y3117368D01*
X46805368Y2910525D01*
X47048589Y2748010D01*
X47318842Y2636068D01*
X47605740Y2579000D01*
X47898260Y2579000D01*
X48185158Y2636068D01*
X48455411Y2748010D01*
X48698632Y2910525D01*
X48905475Y3117368D01*
X49027195Y3299534D01*
X49096822Y3182645D01*
X49291731Y2966412D01*
X49525080Y2792359D01*
X49787901Y2667175D01*
X49935110Y2622524D01*
X50165000Y2743845D01*
X50165000Y3937000D01*
X50145000Y3937000D01*
X50145000Y4191000D01*
X50165000Y4191000D01*
X50165000Y4211000D01*
X50419000Y4211000D01*
X50419000Y4191000D01*
X50439000Y4191000D01*
X50439000Y3937000D01*
X50419000Y3937000D01*
X50419000Y2743845D01*
X50648890Y2622524D01*
X50796099Y2667175D01*
X51058920Y2792359D01*
X51292269Y2966412D01*
X51487178Y3182645D01*
X51556805Y3299534D01*
X51678525Y3117368D01*
X51885368Y2910525D01*
X52128589Y2748010D01*
X52398842Y2636068D01*
X52685740Y2579000D01*
X52978260Y2579000D01*
X53265158Y2636068D01*
X53535411Y2748010D01*
X53778632Y2910525D01*
X53985475Y3117368D01*
X54102000Y3291760D01*
X54218525Y3117368D01*
X54425368Y2910525D01*
X54668589Y2748010D01*
X54938842Y2636068D01*
X55225740Y2579000D01*
X55518260Y2579000D01*
X55805158Y2636068D01*
X56075411Y2748010D01*
X56318632Y2910525D01*
X56525475Y3117368D01*
X56642000Y3291760D01*
X56758525Y3117368D01*
X56965368Y2910525D01*
X57208589Y2748010D01*
X57478842Y2636068D01*
X57765740Y2579000D01*
X58058260Y2579000D01*
X58345158Y2636068D01*
X58615411Y2748010D01*
X58858632Y2910525D01*
X59065475Y3117368D01*
X59182000Y3291760D01*
X59298525Y3117368D01*
X59505368Y2910525D01*
X59748589Y2748010D01*
X60018842Y2636068D01*
X60305740Y2579000D01*
X60598260Y2579000D01*
X60885158Y2636068D01*
X61155411Y2748010D01*
X61398632Y2910525D01*
X61605475Y3117368D01*
X61722000Y3291760D01*
X61838525Y3117368D01*
X62045368Y2910525D01*
X62288589Y2748010D01*
X62558842Y2636068D01*
X62845740Y2579000D01*
X63138260Y2579000D01*
X63425158Y2636068D01*
X63695411Y2748010D01*
X63938632Y2910525D01*
X64145475Y3117368D01*
X64262000Y3291760D01*
X64378525Y3117368D01*
X64585368Y2910525D01*
X64828589Y2748010D01*
X65098842Y2636068D01*
X65385740Y2579000D01*
X65678260Y2579000D01*
X65965158Y2636068D01*
X66235411Y2748010D01*
X66478632Y2910525D01*
X66685475Y3117368D01*
X66802000Y3291760D01*
X66918525Y3117368D01*
X67125368Y2910525D01*
X67368589Y2748010D01*
X67638842Y2636068D01*
X67925740Y2579000D01*
X68218260Y2579000D01*
X68505158Y2636068D01*
X68775411Y2748010D01*
X69018632Y2910525D01*
X69225475Y3117368D01*
X69342000Y3291760D01*
X69458525Y3117368D01*
X69665368Y2910525D01*
X69908589Y2748010D01*
X70178842Y2636068D01*
X70465740Y2579000D01*
X70758260Y2579000D01*
X71045158Y2636068D01*
X71315411Y2748010D01*
X71558632Y2910525D01*
X71765475Y3117368D01*
X71882000Y3291760D01*
X71998525Y3117368D01*
X72205368Y2910525D01*
X72448589Y2748010D01*
X72718842Y2636068D01*
X73005740Y2579000D01*
X73298260Y2579000D01*
X73585158Y2636068D01*
X73855411Y2748010D01*
X74098632Y2910525D01*
X74305475Y3117368D01*
X74422000Y3291760D01*
X74538525Y3117368D01*
X74745368Y2910525D01*
X74988589Y2748010D01*
X75258842Y2636068D01*
X75545740Y2579000D01*
X75838260Y2579000D01*
X76125158Y2636068D01*
X76395411Y2748010D01*
X76638632Y2910525D01*
X76845475Y3117368D01*
X76962000Y3291760D01*
X77078525Y3117368D01*
X77285368Y2910525D01*
X77528589Y2748010D01*
X77798842Y2636068D01*
X78085740Y2579000D01*
X78378260Y2579000D01*
X78665158Y2636068D01*
X78935411Y2748010D01*
X79178632Y2910525D01*
X79385475Y3117368D01*
X79547990Y3360589D01*
X79659932Y3630842D01*
X79717000Y3917740D01*
X79717000Y4210260D01*
X79659932Y4497158D01*
X79547990Y4767411D01*
X79385475Y5010632D01*
X79253620Y5142487D01*
X79326180Y5164498D01*
X79436494Y5223463D01*
X79533185Y5302815D01*
X79612537Y5399506D01*
X79671502Y5509820D01*
X79707812Y5629518D01*
X79720072Y5754000D01*
X79720072Y7454000D01*
X79707812Y7578482D01*
X79671502Y7698180D01*
X79612537Y7808494D01*
X79533185Y7905185D01*
X79436494Y7984537D01*
X79326180Y8043502D01*
X79206482Y8079812D01*
X79082000Y8092072D01*
X77818731Y8092072D01*
X74223804Y11686997D01*
X74200001Y11716001D01*
X74084276Y11810974D01*
X73952247Y11881546D01*
X73808986Y11925003D01*
X73697333Y11936000D01*
X73697322Y11936000D01*
X73660000Y11939676D01*
X73622678Y11936000D01*
X68106597Y11936000D01*
X68011477Y12014063D01*
X67879448Y12084635D01*
X67736187Y12128092D01*
X67624534Y12139089D01*
X67624523Y12139089D01*
X67587201Y12142765D01*
X67549879Y12139089D01*
X66151713Y12139089D01*
X65500686Y12790117D01*
X65476892Y12819110D01*
X65447899Y12842904D01*
X65447894Y12842909D01*
X65361167Y12914083D01*
X65229137Y12984656D01*
X65085877Y13028112D01*
X64936891Y13042786D01*
X64899559Y13039109D01*
X58901691Y13039111D01*
X53153916Y18786885D01*
X53153911Y18786891D01*
X52466499Y19474306D01*
X52255686Y19685119D01*
X52231883Y19714123D01*
X52220404Y19723543D01*
X52211002Y19735000D01*
X52136308Y19796300D01*
X52179853Y19901426D01*
X52235000Y20178665D01*
X52235000Y20461335D01*
X52179853Y20738574D01*
X52071680Y20999727D01*
X51914637Y21234759D01*
X51714759Y21434637D01*
X51479727Y21591680D01*
X51218574Y21699853D01*
X50941335Y21755000D01*
X50658665Y21755000D01*
X50476114Y21718688D01*
X47605001Y24589800D01*
X47605001Y26995466D01*
X47673587Y27098112D01*
X47744069Y27268272D01*
X47780001Y27448912D01*
X47780001Y27633090D01*
X47744069Y27813730D01*
X47673587Y27983890D01*
X47571263Y28137029D01*
X47441029Y28267263D01*
X47287890Y28369587D01*
X47117730Y28440069D01*
X46937090Y28476001D01*
X46752912Y28476001D01*
X46572272Y28440069D01*
X46402112Y28369587D01*
X46248973Y28267263D01*
X46118739Y28137029D01*
X46016415Y27983890D01*
X45945933Y27813730D01*
X45910001Y27633090D01*
X45910001Y27448912D01*
X45945933Y27268272D01*
X46016415Y27098112D01*
X46085001Y26995465D01*
X46085002Y24312331D01*
X46081325Y24274999D01*
X46085002Y24237666D01*
X46094326Y24143005D01*
X46095999Y24126014D01*
X46139455Y23982753D01*
X46210027Y23850723D01*
X46257993Y23792277D01*
X46305001Y23734998D01*
X46333999Y23711200D01*
X48290198Y21755000D01*
X48118665Y21755000D01*
X47936114Y21718688D01*
X45354999Y24299802D01*
X45354999Y27031464D01*
X45423585Y27134110D01*
X45494067Y27304270D01*
X45529999Y27484910D01*
X45529999Y27669088D01*
X45494067Y27849728D01*
X45423585Y28019888D01*
X45321261Y28173027D01*
X45191027Y28303261D01*
X45037888Y28405585D01*
X44867728Y28476067D01*
X44687088Y28511999D01*
X44502910Y28511999D01*
X44322270Y28476067D01*
X44152110Y28405585D01*
X43998971Y28303261D01*
X43868737Y28173027D01*
X43766413Y28019888D01*
X43695931Y27849728D01*
X43659999Y27669088D01*
X43659999Y27484910D01*
X43695931Y27304270D01*
X43766413Y27134110D01*
X43834999Y27031463D01*
X43835000Y24022333D01*
X43831323Y23985001D01*
X43835000Y23947668D01*
X43845997Y23836015D01*
X43858439Y23795000D01*
X43889453Y23692755D01*
X43960025Y23560725D01*
X44031200Y23473999D01*
X44054999Y23445000D01*
X44083997Y23421202D01*
X45750199Y21755000D01*
X45578665Y21755000D01*
X45301426Y21699853D01*
X45040273Y21591680D01*
X44805241Y21434637D01*
X44605363Y21234759D01*
X44450000Y21002241D01*
X44294637Y21234759D01*
X44094759Y21434637D01*
X43859727Y21591680D01*
X43598574Y21699853D01*
X43321335Y21755000D01*
X43038665Y21755000D01*
X42761426Y21699853D01*
X42500273Y21591680D01*
X42265241Y21434637D01*
X42265204Y21434600D01*
X41743804Y21955999D01*
X41720002Y21985002D01*
X41604277Y22079975D01*
X41472248Y22150547D01*
X41328987Y22194004D01*
X41217334Y22205001D01*
X41217323Y22205001D01*
X41180001Y22208677D01*
X41142679Y22205001D01*
X34182326Y22205001D01*
X34145001Y22208677D01*
X34107676Y22205001D01*
X34107668Y22205001D01*
X33996015Y22194004D01*
X33852754Y22150547D01*
X33720725Y22079975D01*
X33605000Y21985002D01*
X33581202Y21956004D01*
X33343886Y21718688D01*
X33161335Y21755000D01*
X32878665Y21755000D01*
X32601426Y21699853D01*
X32510000Y21661983D01*
X32510000Y23330678D01*
X32513676Y23368001D01*
X32510000Y23405324D01*
X32510000Y23405333D01*
X32499003Y23516986D01*
X32455546Y23660247D01*
X32384974Y23792276D01*
X32356070Y23827496D01*
X32313799Y23879004D01*
X32313795Y23879008D01*
X32290001Y23908001D01*
X32261009Y23931794D01*
X28101153Y28091648D01*
X28077068Y28212729D01*
X28006586Y28382889D01*
X27904262Y28536028D01*
X27774028Y28666262D01*
X27620889Y28768586D01*
X27450729Y28839068D01*
X27270089Y28875000D01*
X27085911Y28875000D01*
X26905271Y28839068D01*
X26735111Y28768586D01*
X26670004Y28725083D01*
X26604897Y28768586D01*
X26434737Y28839068D01*
X26254097Y28875000D01*
X26069919Y28875000D01*
X25889279Y28839068D01*
X25719119Y28768586D01*
X25634998Y28712378D01*
X25550876Y28768586D01*
X25380716Y28839068D01*
X25200076Y28875000D01*
X25015898Y28875000D01*
X24835258Y28839068D01*
X24665098Y28768586D01*
X24618994Y28737780D01*
X24572889Y28768586D01*
X24402729Y28839068D01*
X24222089Y28875000D01*
X24037911Y28875000D01*
X23857271Y28839068D01*
X23687111Y28768586D01*
X23533972Y28666262D01*
X23403738Y28536028D01*
X23301414Y28382889D01*
X23230932Y28212729D01*
X23195000Y28032089D01*
X23195000Y27847911D01*
X23230932Y27667271D01*
X23301414Y27497111D01*
X23370000Y27394464D01*
X23370001Y21661983D01*
X23278574Y21699853D01*
X23001335Y21755000D01*
X22718665Y21755000D01*
X22441426Y21699853D01*
X22180273Y21591680D01*
X21945241Y21434637D01*
X21745363Y21234759D01*
X21590000Y21002241D01*
X21434637Y21234759D01*
X21234759Y21434637D01*
X20999727Y21591680D01*
X20738574Y21699853D01*
X20461335Y21755000D01*
X20178665Y21755000D01*
X19901426Y21699853D01*
X19640273Y21591680D01*
X19405241Y21434637D01*
X19205363Y21234759D01*
X19050000Y21002241D01*
X18894637Y21234759D01*
X18694759Y21434637D01*
X18459727Y21591680D01*
X18198574Y21699853D01*
X17921335Y21755000D01*
X17638665Y21755000D01*
X17361426Y21699853D01*
X17100273Y21591680D01*
X16865241Y21434637D01*
X16665363Y21234759D01*
X16510000Y21002241D01*
X16354637Y21234759D01*
X16154759Y21434637D01*
X15919727Y21591680D01*
X15658574Y21699853D01*
X15381335Y21755000D01*
X15098665Y21755000D01*
X14821426Y21699853D01*
X14560273Y21591680D01*
X14325241Y21434637D01*
X14125363Y21234759D01*
X13970000Y21002241D01*
X13814637Y21234759D01*
X13614759Y21434637D01*
X13379727Y21591680D01*
X13118574Y21699853D01*
X12841335Y21755000D01*
X12558665Y21755000D01*
X12281426Y21699853D01*
X12020273Y21591680D01*
X11785241Y21434637D01*
X11585363Y21234759D01*
X11430000Y21002241D01*
X11274637Y21234759D01*
X11074759Y21434637D01*
X10839727Y21591680D01*
X10578574Y21699853D01*
X10301335Y21755000D01*
X10018665Y21755000D01*
X9741426Y21699853D01*
X9480273Y21591680D01*
X9245241Y21434637D01*
X9045363Y21234759D01*
X8890000Y21002241D01*
X8734637Y21234759D01*
X8534759Y21434637D01*
X8299727Y21591680D01*
X8038574Y21699853D01*
X7761335Y21755000D01*
X7478665Y21755000D01*
X7201426Y21699853D01*
X6940273Y21591680D01*
X6705241Y21434637D01*
X6505363Y21234759D01*
X6350000Y21002241D01*
X6194637Y21234759D01*
X5994759Y21434637D01*
X5759727Y21591680D01*
X5498574Y21699853D01*
X5221335Y21755000D01*
X4938665Y21755000D01*
X4661426Y21699853D01*
X4400273Y21591680D01*
X4165241Y21434637D01*
X3965363Y21234759D01*
X3810000Y21002241D01*
X3654637Y21234759D01*
X3454759Y21434637D01*
X3219727Y21591680D01*
X2958574Y21699853D01*
X2681335Y21755000D01*
X2398665Y21755000D01*
X2121426Y21699853D01*
X1860273Y21591680D01*
X1625241Y21434637D01*
X1425363Y21234759D01*
X1268320Y20999727D01*
X1160147Y20738574D01*
X1105000Y20461335D01*
X685000Y20461335D01*
X685000Y35210960D01*
X1148091Y35210960D01*
X1242930Y34946119D01*
X1387615Y34704869D01*
X1576586Y34496481D01*
X1802580Y34328963D01*
X2056913Y34208754D01*
X2190961Y34168096D01*
X2413000Y34290085D01*
X2413000Y35433000D01*
X1269376Y35433000D01*
X1148091Y35210960D01*
X685000Y35210960D01*
X685000Y35909040D01*
X1148091Y35909040D01*
X1269376Y35687000D01*
X2413000Y35687000D01*
X2413000Y36829915D01*
X2190961Y36951904D01*
X2056913Y36911246D01*
X1802580Y36791037D01*
X1576586Y36623519D01*
X1387615Y36415131D01*
X1242930Y36173881D01*
X1148091Y35909040D01*
X685000Y35909040D01*
X685000Y37869298D01*
X1218903Y37869298D01*
X1290486Y37625329D01*
X1545996Y37504429D01*
X1820184Y37435700D01*
X2102512Y37421783D01*
X2382130Y37463213D01*
X2648292Y37558397D01*
X2773514Y37625329D01*
X2845097Y37869298D01*
X2032000Y38682395D01*
X1218903Y37869298D01*
X685000Y37869298D01*
X685000Y38367059D01*
X728397Y38245708D01*
X795329Y38120486D01*
X1039298Y38048903D01*
X1852395Y38862000D01*
X2211605Y38862000D01*
X3024702Y38048903D01*
X3268671Y38120486D01*
X3389571Y38375996D01*
X3458300Y38650184D01*
X3472217Y38932512D01*
X3461724Y39003335D01*
X5597000Y39003335D01*
X5597000Y38720665D01*
X5652147Y38443426D01*
X5760320Y38182273D01*
X5917363Y37947241D01*
X6117241Y37747363D01*
X6352273Y37590320D01*
X6613426Y37482147D01*
X6890665Y37427000D01*
X7173335Y37427000D01*
X7450574Y37482147D01*
X7711727Y37590320D01*
X7946759Y37747363D01*
X8146637Y37947241D01*
X8303680Y38182273D01*
X8411853Y38443426D01*
X8467000Y38720665D01*
X8467000Y38749335D01*
X8471000Y38749335D01*
X8471000Y38466665D01*
X8526147Y38189426D01*
X8634320Y37928273D01*
X8791363Y37693241D01*
X8991241Y37493363D01*
X9226273Y37336320D01*
X9487426Y37228147D01*
X9764665Y37173000D01*
X10047335Y37173000D01*
X10324574Y37228147D01*
X10585727Y37336320D01*
X10820759Y37493363D01*
X11020637Y37693241D01*
X11177680Y37928273D01*
X11285853Y38189426D01*
X11341000Y38466665D01*
X11341000Y38749335D01*
X11519000Y38749335D01*
X11519000Y38466665D01*
X11574147Y38189426D01*
X11682320Y37928273D01*
X11839363Y37693241D01*
X12039241Y37493363D01*
X12274273Y37336320D01*
X12535426Y37228147D01*
X12812665Y37173000D01*
X13095335Y37173000D01*
X13372574Y37228147D01*
X13633727Y37336320D01*
X13868759Y37493363D01*
X14068637Y37693241D01*
X14225680Y37928273D01*
X14333853Y38189426D01*
X14389000Y38466665D01*
X14389000Y38749335D01*
X14333853Y39026574D01*
X14225680Y39287727D01*
X14068637Y39522759D01*
X13868759Y39722637D01*
X13633727Y39879680D01*
X13372574Y39987853D01*
X13095335Y40043000D01*
X12812665Y40043000D01*
X12535426Y39987853D01*
X12274273Y39879680D01*
X12039241Y39722637D01*
X11839363Y39522759D01*
X11682320Y39287727D01*
X11574147Y39026574D01*
X11519000Y38749335D01*
X11341000Y38749335D01*
X11285853Y39026574D01*
X11177680Y39287727D01*
X11020637Y39522759D01*
X10820759Y39722637D01*
X10585727Y39879680D01*
X10324574Y39987853D01*
X10047335Y40043000D01*
X9764665Y40043000D01*
X9487426Y39987853D01*
X9226273Y39879680D01*
X8991241Y39722637D01*
X8791363Y39522759D01*
X8634320Y39287727D01*
X8526147Y39026574D01*
X8471000Y38749335D01*
X8467000Y38749335D01*
X8467000Y39003335D01*
X8411853Y39280574D01*
X8303680Y39541727D01*
X8146637Y39776759D01*
X7946759Y39976637D01*
X7711727Y40133680D01*
X7450574Y40241853D01*
X7173335Y40297000D01*
X6890665Y40297000D01*
X6613426Y40241853D01*
X6352273Y40133680D01*
X6117241Y39976637D01*
X5917363Y39776759D01*
X5760320Y39541727D01*
X5652147Y39280574D01*
X5597000Y39003335D01*
X3461724Y39003335D01*
X3430787Y39212130D01*
X3335603Y39478292D01*
X3268671Y39603514D01*
X3024702Y39675097D01*
X2211605Y38862000D01*
X1852395Y38862000D01*
X1039298Y39675097D01*
X795329Y39603514D01*
X685000Y39370345D01*
X685000Y39854702D01*
X1218903Y39854702D01*
X2032000Y39041605D01*
X2845097Y39854702D01*
X2773514Y40098671D01*
X2518004Y40219571D01*
X2243816Y40288300D01*
X1961488Y40302217D01*
X1681870Y40260787D01*
X1415708Y40165603D01*
X1290486Y40098671D01*
X1218903Y39854702D01*
X685000Y39854702D01*
X685000Y53950891D01*
X42246519Y53950891D01*
X42367186Y53721000D01*
X43561000Y53721000D01*
X43561000Y54914155D01*
X43331110Y55035476D01*
X43183901Y54990825D01*
X42921080Y54865641D01*
X42687731Y54691588D01*
X42492822Y54475355D01*
X42343843Y54225252D01*
X42246519Y53950891D01*
X685000Y53950891D01*
X685000Y57945647D01*
X675711Y58039956D01*
X691653Y58202542D01*
X776031Y58482018D01*
X913085Y58739780D01*
X1097599Y58966015D01*
X1322540Y59152103D01*
X1579342Y59290956D01*
X1858219Y59377282D01*
X2030268Y59395365D01*
X2125353Y59386000D01*
G37*
%TD.AperFunction*%
%TD*%
M02*
