%TF.GenerationSoftware,KiCad,Pcbnew,(5.1.10-1-10_14)*%
%TF.CreationDate,2021-10-31T16:46:36+01:00*%
%TF.ProjectId,io_board,696f5f62-6f61-4726-942e-6b696361645f,rev?*%
%TF.SameCoordinates,Original*%
%TF.FileFunction,Soldermask,Top*%
%TF.FilePolarity,Negative*%
%FSLAX46Y46*%
G04 Gerber Fmt 4.6, Leading zero omitted, Abs format (unit mm)*
G04 Created by KiCad (PCBNEW (5.1.10-1-10_14)) date 2021-10-31 16:46:36*
%MOMM*%
%LPD*%
G01*
G04 APERTURE LIST*
%ADD10C,1.800000*%
%ADD11R,1.800000X1.800000*%
%ADD12O,1.600000X1.600000*%
%ADD13C,1.600000*%
%ADD14O,1.700000X1.700000*%
%ADD15R,1.700000X1.700000*%
%ADD16R,1.600000X1.600000*%
%ADD17C,3.300000*%
%ADD18C,1.524000*%
G04 APERTURE END LIST*
D10*
%TO.C,D6*%
X15240000Y50546000D03*
D11*
X12700000Y50546000D03*
%TD*%
D10*
%TO.C,D8*%
X5080000Y50546000D03*
D11*
X2540000Y50546000D03*
%TD*%
D10*
%TO.C,D7*%
X10160000Y50546000D03*
D11*
X7620000Y50546000D03*
%TD*%
D10*
%TO.C,D5*%
X20320000Y50546000D03*
D11*
X17780000Y50546000D03*
%TD*%
D10*
%TO.C,D4*%
X25400000Y50546000D03*
D11*
X22860000Y50546000D03*
%TD*%
D10*
%TO.C,D3*%
X30480000Y50546000D03*
D11*
X27940000Y50546000D03*
%TD*%
D10*
%TO.C,D2*%
X35560000Y50546000D03*
D11*
X33020000Y50546000D03*
%TD*%
D10*
%TO.C,D1*%
X40640000Y50546000D03*
D11*
X38100000Y50546000D03*
%TD*%
D12*
%TO.C,R12*%
X9906000Y38608000D03*
D13*
X9906000Y46228000D03*
%TD*%
D12*
%TO.C,R11*%
X12954000Y38608000D03*
D13*
X12954000Y46228000D03*
%TD*%
D12*
%TO.C,R10*%
X16002000Y38608000D03*
D13*
X16002000Y46228000D03*
%TD*%
D12*
%TO.C,R9*%
X19050000Y38608000D03*
D13*
X19050000Y46228000D03*
%TD*%
D12*
%TO.C,R8*%
X22098000Y38608000D03*
D13*
X22098000Y46228000D03*
%TD*%
D12*
%TO.C,R7*%
X25146000Y38608000D03*
D13*
X25146000Y46228000D03*
%TD*%
D12*
%TO.C,R6*%
X28194000Y38608000D03*
D13*
X28194000Y46228000D03*
%TD*%
D12*
%TO.C,R5*%
X31242000Y38608000D03*
D13*
X31242000Y46228000D03*
%TD*%
D12*
%TO.C,R4*%
X59436000Y26670000D03*
D13*
X59436000Y19050000D03*
%TD*%
D12*
%TO.C,R3*%
X10160000Y17018000D03*
D13*
X17780000Y17018000D03*
%TD*%
D12*
%TO.C,R2*%
X64008000Y39878000D03*
D13*
X71628000Y39878000D03*
%TD*%
D12*
%TO.C,R1*%
X54102000Y46990000D03*
D13*
X54102000Y39370000D03*
%TD*%
D14*
%TO.C,J2*%
X56388000Y53594000D03*
X56388000Y51054000D03*
X53848000Y53594000D03*
X53848000Y51054000D03*
X51308000Y53594000D03*
X51308000Y51054000D03*
X48768000Y53594000D03*
X48768000Y51054000D03*
X46228000Y53594000D03*
X46228000Y51054000D03*
X43688000Y53594000D03*
D15*
X43688000Y51054000D03*
%TD*%
D13*
%TO.C,C4*%
X7032000Y38862000D03*
X2032000Y38862000D03*
%TD*%
%TO.C,C3*%
X78914000Y39878000D03*
X73914000Y39878000D03*
%TD*%
%TO.C,C2*%
X64008000Y51642000D03*
X64008000Y56642000D03*
%TD*%
%TO.C,C1*%
X56722000Y39878000D03*
X61722000Y39878000D03*
%TD*%
D12*
%TO.C,U1*%
X63309500Y36576000D03*
X55689500Y18796000D03*
X63309500Y34036000D03*
X55689500Y21336000D03*
X63309500Y31496000D03*
X55689500Y23876000D03*
X63309500Y28956000D03*
X55689500Y26416000D03*
X63309500Y26416000D03*
X55689500Y28956000D03*
X63309500Y23876000D03*
X55689500Y31496000D03*
X63309500Y21336000D03*
X55689500Y34036000D03*
X63309500Y18796000D03*
D16*
X55689500Y36576000D03*
%TD*%
D12*
%TO.C,U3*%
X67627500Y58293000D03*
X60007500Y43053000D03*
X67627500Y55753000D03*
X60007500Y45593000D03*
X67627500Y53213000D03*
X60007500Y48133000D03*
X67627500Y50673000D03*
X60007500Y50673000D03*
X67627500Y48133000D03*
X60007500Y53213000D03*
X67627500Y45593000D03*
X60007500Y55753000D03*
X67627500Y43053000D03*
D16*
X60007500Y58293000D03*
%TD*%
D12*
%TO.C,U2*%
X50800000Y20320000D03*
X2540000Y35560000D03*
X48260000Y20320000D03*
X5080000Y35560000D03*
X45720000Y20320000D03*
X7620000Y35560000D03*
X43180000Y20320000D03*
X10160000Y35560000D03*
X40640000Y20320000D03*
X12700000Y35560000D03*
X38100000Y20320000D03*
X15240000Y35560000D03*
X35560000Y20320000D03*
X17780000Y35560000D03*
X33020000Y20320000D03*
X20320000Y35560000D03*
X30480000Y20320000D03*
X22860000Y35560000D03*
X27940000Y20320000D03*
X25400000Y35560000D03*
X25400000Y20320000D03*
X27940000Y35560000D03*
X22860000Y20320000D03*
X30480000Y35560000D03*
X20320000Y20320000D03*
X33020000Y35560000D03*
X17780000Y20320000D03*
X35560000Y35560000D03*
X15240000Y20320000D03*
X38100000Y35560000D03*
X12700000Y20320000D03*
X40640000Y35560000D03*
X10160000Y20320000D03*
X43180000Y35560000D03*
X7620000Y20320000D03*
X45720000Y35560000D03*
X5080000Y20320000D03*
X48260000Y35560000D03*
X2540000Y20320000D03*
D16*
X50800000Y35560000D03*
%TD*%
D14*
%TO.C,J4*%
X71374000Y13716000D03*
X68834000Y13716000D03*
X71374000Y16256000D03*
X68834000Y16256000D03*
X71374000Y18796000D03*
X68834000Y18796000D03*
X71374000Y21336000D03*
X68834000Y21336000D03*
X71374000Y23876000D03*
X68834000Y23876000D03*
X71374000Y26416000D03*
X68834000Y26416000D03*
X71374000Y28956000D03*
X68834000Y28956000D03*
X71374000Y31496000D03*
X68834000Y31496000D03*
X71374000Y34036000D03*
X68834000Y34036000D03*
X71374000Y36576000D03*
D15*
X68834000Y36576000D03*
%TD*%
D17*
%TO.C,J3*%
X77850000Y50800000D03*
D18*
X74050000Y52100000D03*
X74050000Y49500000D03*
X71550000Y54200000D03*
X74050000Y54200000D03*
X71550000Y47400000D03*
X74050000Y47400000D03*
D17*
X77050000Y44050000D03*
X77050000Y57550000D03*
%TD*%
D14*
%TO.C,J1*%
X17272000Y4064000D03*
X17272000Y6604000D03*
X19812000Y4064000D03*
X19812000Y6604000D03*
X22352000Y4064000D03*
X22352000Y6604000D03*
X24892000Y4064000D03*
X24892000Y6604000D03*
X27432000Y4064000D03*
X27432000Y6604000D03*
X29972000Y4064000D03*
X29972000Y6604000D03*
X32512000Y4064000D03*
X32512000Y6604000D03*
X35052000Y4064000D03*
X35052000Y6604000D03*
X37592000Y4064000D03*
X37592000Y6604000D03*
X40132000Y4064000D03*
X40132000Y6604000D03*
X42672000Y4064000D03*
X42672000Y6604000D03*
X45212000Y4064000D03*
X45212000Y6604000D03*
X47752000Y4064000D03*
X47752000Y6604000D03*
X50292000Y4064000D03*
X50292000Y6604000D03*
X52832000Y4064000D03*
X52832000Y6604000D03*
X55372000Y4064000D03*
X55372000Y6604000D03*
X57912000Y4064000D03*
X57912000Y6604000D03*
X60452000Y4064000D03*
X60452000Y6604000D03*
X62992000Y4064000D03*
X62992000Y6604000D03*
X65532000Y4064000D03*
X65532000Y6604000D03*
X68072000Y4064000D03*
X68072000Y6604000D03*
X70612000Y4064000D03*
X70612000Y6604000D03*
X73152000Y4064000D03*
X73152000Y6604000D03*
X75692000Y4064000D03*
X75692000Y6604000D03*
X78232000Y4064000D03*
D15*
X78232000Y6604000D03*
%TD*%
M02*
