G04 #@! TF.GenerationSoftware,KiCad,Pcbnew,(5.1.6-0-10_14)*
G04 #@! TF.CreationDate,2021-03-04T13:25:14+01:00*
G04 #@! TF.ProjectId,backplane,6261636b-706c-4616-9e65-2e6b69636164,rev?*
G04 #@! TF.SameCoordinates,Original*
G04 #@! TF.FileFunction,Legend,Bot*
G04 #@! TF.FilePolarity,Positive*
%FSLAX46Y46*%
G04 Gerber Fmt 4.6, Leading zero omitted, Abs format (unit mm)*
G04 Created by KiCad (PCBNEW (5.1.6-0-10_14)) date 2021-03-04 13:25:14*
%MOMM*%
%LPD*%
G01*
G04 APERTURE LIST*
%ADD10C,0.300000*%
%ADD11C,0.200000*%
%ADD12C,0.120000*%
%ADD13C,0.010000*%
%ADD14C,0.150000*%
G04 APERTURE END LIST*
D10*
X40826142Y-79867142D02*
X40540428Y-79962380D01*
X40445190Y-80057619D01*
X40349952Y-80248095D01*
X40349952Y-80533809D01*
X40445190Y-80724285D01*
X40540428Y-80819523D01*
X40730904Y-80914761D01*
X41492809Y-80914761D01*
X41492809Y-78914761D01*
X40826142Y-78914761D01*
X40635666Y-79010000D01*
X40540428Y-79105238D01*
X40445190Y-79295714D01*
X40445190Y-79486190D01*
X40540428Y-79676666D01*
X40635666Y-79771904D01*
X40826142Y-79867142D01*
X41492809Y-79867142D01*
X39588047Y-80343333D02*
X38635666Y-80343333D01*
X39778523Y-80914761D02*
X39111857Y-78914761D01*
X38445190Y-80914761D01*
X36635666Y-80724285D02*
X36730904Y-80819523D01*
X37016619Y-80914761D01*
X37207095Y-80914761D01*
X37492809Y-80819523D01*
X37683285Y-80629047D01*
X37778523Y-80438571D01*
X37873761Y-80057619D01*
X37873761Y-79771904D01*
X37778523Y-79390952D01*
X37683285Y-79200476D01*
X37492809Y-79010000D01*
X37207095Y-78914761D01*
X37016619Y-78914761D01*
X36730904Y-79010000D01*
X36635666Y-79105238D01*
X35778523Y-80914761D02*
X35778523Y-78914761D01*
X34635666Y-80914761D02*
X35492809Y-79771904D01*
X34635666Y-78914761D02*
X35778523Y-80057619D01*
X33778523Y-80914761D02*
X33778523Y-78914761D01*
X33016619Y-78914761D01*
X32826142Y-79010000D01*
X32730904Y-79105238D01*
X32635666Y-79295714D01*
X32635666Y-79581428D01*
X32730904Y-79771904D01*
X32826142Y-79867142D01*
X33016619Y-79962380D01*
X33778523Y-79962380D01*
X30826142Y-80914761D02*
X31778523Y-80914761D01*
X31778523Y-78914761D01*
X30254714Y-80343333D02*
X29302333Y-80343333D01*
X30445190Y-80914761D02*
X29778523Y-78914761D01*
X29111857Y-80914761D01*
X28445190Y-80914761D02*
X28445190Y-78914761D01*
X27302333Y-80914761D01*
X27302333Y-78914761D01*
X26349952Y-79867142D02*
X25683285Y-79867142D01*
X25397571Y-80914761D02*
X26349952Y-80914761D01*
X26349952Y-78914761D01*
X25397571Y-78914761D01*
D11*
X9807964Y-80434571D02*
X10218678Y-79720285D01*
X10665107Y-80434571D02*
X10477607Y-78934571D01*
X9906178Y-78934571D01*
X9772250Y-79006000D01*
X9709750Y-79077428D01*
X9656178Y-79220285D01*
X9682964Y-79434571D01*
X9772250Y-79577428D01*
X9852607Y-79648857D01*
X10004392Y-79720285D01*
X10575821Y-79720285D01*
X9066892Y-79648857D02*
X8566892Y-79648857D01*
X8450821Y-80434571D02*
X9165107Y-80434571D01*
X8977607Y-78934571D01*
X8263321Y-78934571D01*
X7834750Y-78934571D02*
X7522250Y-80434571D01*
X6834750Y-78934571D01*
X6504392Y-80291714D02*
X6441892Y-80363142D01*
X6522250Y-80434571D01*
X6584750Y-80363142D01*
X6504392Y-80291714D01*
X6522250Y-80434571D01*
X3879392Y-80434571D02*
X4736535Y-80434571D01*
X4307964Y-80434571D02*
X4120464Y-78934571D01*
X4290107Y-79148857D01*
X4450821Y-79291714D01*
X4602607Y-79363142D01*
X3218678Y-80291714D02*
X3156178Y-80363142D01*
X3236535Y-80434571D01*
X3299035Y-80363142D01*
X3218678Y-80291714D01*
X3236535Y-80434571D01*
X2049035Y-78934571D02*
X1906178Y-78934571D01*
X1772250Y-79006000D01*
X1709750Y-79077428D01*
X1656178Y-79220285D01*
X1620464Y-79506000D01*
X1665107Y-79863142D01*
X1772250Y-80148857D01*
X1861535Y-80291714D01*
X1941892Y-80363142D01*
X2093678Y-80434571D01*
X2236535Y-80434571D01*
X2370464Y-80363142D01*
X2432964Y-80291714D01*
X2486535Y-80148857D01*
X2522250Y-79863142D01*
X2477607Y-79506000D01*
X2370464Y-79220285D01*
X2281178Y-79077428D01*
X2200821Y-79006000D01*
X2049035Y-78934571D01*
D12*
G04 #@! TO.C,C2*
X14372000Y-86392936D02*
X14372000Y-87597064D01*
X12552000Y-86392936D02*
X12552000Y-87597064D01*
G04 #@! TO.C,C5*
X55023936Y-74062000D02*
X56228064Y-74062000D01*
X55023936Y-72242000D02*
X56228064Y-72242000D01*
G04 #@! TO.C,C4*
X70263936Y-76157500D02*
X71468064Y-76157500D01*
X70263936Y-74337500D02*
X71468064Y-74337500D01*
D13*
G04 #@! TO.C,G\u002A\u002A\u002A*
G36*
X32243613Y-74564875D02*
G01*
X32550340Y-74871792D01*
X32635428Y-74957003D01*
X32734890Y-75056730D01*
X32843769Y-75165994D01*
X32957109Y-75279818D01*
X33069951Y-75393224D01*
X33177339Y-75501233D01*
X33240688Y-75565000D01*
X33325560Y-75650147D01*
X33405057Y-75729296D01*
X33476974Y-75800298D01*
X33539110Y-75861005D01*
X33589261Y-75909269D01*
X33625225Y-75942941D01*
X33644799Y-75959873D01*
X33647096Y-75961346D01*
X33649231Y-75951805D01*
X33651281Y-75921596D01*
X33653244Y-75871215D01*
X33655116Y-75801160D01*
X33656893Y-75711928D01*
X33658572Y-75604016D01*
X33660149Y-75477924D01*
X33661621Y-75334147D01*
X33662985Y-75173183D01*
X33664236Y-74995530D01*
X33665372Y-74801686D01*
X33666389Y-74592147D01*
X33667283Y-74367411D01*
X33668051Y-74127976D01*
X33668690Y-73874340D01*
X33669196Y-73606999D01*
X33669566Y-73326452D01*
X33669796Y-73033195D01*
X33669882Y-72727726D01*
X33669883Y-72699033D01*
X33669883Y-69426667D01*
X32230911Y-69426667D01*
X32243613Y-74564875D01*
G37*
X32243613Y-74564875D02*
X32550340Y-74871792D01*
X32635428Y-74957003D01*
X32734890Y-75056730D01*
X32843769Y-75165994D01*
X32957109Y-75279818D01*
X33069951Y-75393224D01*
X33177339Y-75501233D01*
X33240688Y-75565000D01*
X33325560Y-75650147D01*
X33405057Y-75729296D01*
X33476974Y-75800298D01*
X33539110Y-75861005D01*
X33589261Y-75909269D01*
X33625225Y-75942941D01*
X33644799Y-75959873D01*
X33647096Y-75961346D01*
X33649231Y-75951805D01*
X33651281Y-75921596D01*
X33653244Y-75871215D01*
X33655116Y-75801160D01*
X33656893Y-75711928D01*
X33658572Y-75604016D01*
X33660149Y-75477924D01*
X33661621Y-75334147D01*
X33662985Y-75173183D01*
X33664236Y-74995530D01*
X33665372Y-74801686D01*
X33666389Y-74592147D01*
X33667283Y-74367411D01*
X33668051Y-74127976D01*
X33668690Y-73874340D01*
X33669196Y-73606999D01*
X33669566Y-73326452D01*
X33669796Y-73033195D01*
X33669882Y-72727726D01*
X33669883Y-72699033D01*
X33669883Y-69426667D01*
X32230911Y-69426667D01*
X32243613Y-74564875D01*
G36*
X1964551Y-69426793D02*
G01*
X1751835Y-69427205D01*
X1581322Y-69427951D01*
X1449309Y-69429082D01*
X1352094Y-69430647D01*
X1285976Y-69432694D01*
X1247252Y-69435275D01*
X1232221Y-69438437D01*
X1232030Y-69439896D01*
X1242803Y-69450754D01*
X1272206Y-69480178D01*
X1319344Y-69527273D01*
X1383321Y-69591146D01*
X1463242Y-69670904D01*
X1558210Y-69765654D01*
X1667331Y-69874502D01*
X1789707Y-69996556D01*
X1924444Y-70130921D01*
X2070645Y-70276704D01*
X2227415Y-70433013D01*
X2393858Y-70598953D01*
X2569079Y-70773632D01*
X2752180Y-70956157D01*
X2942268Y-71145633D01*
X3138446Y-71341168D01*
X3339818Y-71541869D01*
X3354561Y-71556562D01*
X5465105Y-73660000D01*
X3354561Y-75763437D01*
X3152848Y-75964477D01*
X2956265Y-76160416D01*
X2765706Y-76350360D01*
X2582069Y-76533417D01*
X2406249Y-76708694D01*
X2239141Y-76875297D01*
X2081641Y-77032332D01*
X1934645Y-77178907D01*
X1799049Y-77314127D01*
X1675749Y-77437101D01*
X1565639Y-77546934D01*
X1469617Y-77642734D01*
X1388578Y-77723607D01*
X1323418Y-77788659D01*
X1275031Y-77836997D01*
X1244315Y-77867729D01*
X1232165Y-77879961D01*
X1232030Y-77880104D01*
X1238513Y-77883517D01*
X1267190Y-77886329D01*
X1321766Y-77888587D01*
X1405944Y-77890341D01*
X1523427Y-77891642D01*
X1677919Y-77892538D01*
X1873123Y-77893078D01*
X2112743Y-77893314D01*
X2222322Y-77893333D01*
X3224601Y-77893333D01*
X4114544Y-77012271D01*
X4268406Y-76859924D01*
X4433549Y-76696369D01*
X4606532Y-76525016D01*
X4783914Y-76349277D01*
X4962251Y-76172563D01*
X5138102Y-75998284D01*
X5308024Y-75829852D01*
X5468576Y-75670678D01*
X5616315Y-75524172D01*
X5745865Y-75395667D01*
X5881540Y-75261102D01*
X6024245Y-75119645D01*
X6170784Y-74974455D01*
X6317965Y-74828696D01*
X6462592Y-74685529D01*
X6601471Y-74548115D01*
X6731408Y-74419617D01*
X6849210Y-74303196D01*
X6951680Y-74202014D01*
X6981688Y-74172407D01*
X7078593Y-74076486D01*
X7169213Y-73986139D01*
X7251670Y-73903285D01*
X7324082Y-73829843D01*
X7384572Y-73767733D01*
X7431261Y-73718873D01*
X7462268Y-73685183D01*
X7475715Y-73668581D01*
X7476133Y-73667460D01*
X7466483Y-73656121D01*
X7438172Y-73626296D01*
X7392153Y-73578943D01*
X7329381Y-73515018D01*
X7250809Y-73435478D01*
X7157393Y-73341279D01*
X7050085Y-73233377D01*
X6929841Y-73112730D01*
X6797615Y-72980295D01*
X6654361Y-72837026D01*
X6501032Y-72683882D01*
X6338585Y-72521818D01*
X6167972Y-72351792D01*
X5990148Y-72174759D01*
X5806067Y-71991677D01*
X5618875Y-71805677D01*
X5425200Y-71613321D01*
X5234250Y-71423655D01*
X5047167Y-71237816D01*
X4865096Y-71056941D01*
X4689179Y-70882167D01*
X4520561Y-70714630D01*
X4360385Y-70555466D01*
X4209795Y-70405813D01*
X4069934Y-70266807D01*
X3941947Y-70139584D01*
X3826976Y-70025281D01*
X3726166Y-69925035D01*
X3640659Y-69839981D01*
X3571601Y-69771258D01*
X3520133Y-69720000D01*
X3493958Y-69693896D01*
X3226299Y-69426667D01*
X2223171Y-69426667D01*
X1964551Y-69426793D01*
G37*
X1964551Y-69426793D02*
X1751835Y-69427205D01*
X1581322Y-69427951D01*
X1449309Y-69429082D01*
X1352094Y-69430647D01*
X1285976Y-69432694D01*
X1247252Y-69435275D01*
X1232221Y-69438437D01*
X1232030Y-69439896D01*
X1242803Y-69450754D01*
X1272206Y-69480178D01*
X1319344Y-69527273D01*
X1383321Y-69591146D01*
X1463242Y-69670904D01*
X1558210Y-69765654D01*
X1667331Y-69874502D01*
X1789707Y-69996556D01*
X1924444Y-70130921D01*
X2070645Y-70276704D01*
X2227415Y-70433013D01*
X2393858Y-70598953D01*
X2569079Y-70773632D01*
X2752180Y-70956157D01*
X2942268Y-71145633D01*
X3138446Y-71341168D01*
X3339818Y-71541869D01*
X3354561Y-71556562D01*
X5465105Y-73660000D01*
X3354561Y-75763437D01*
X3152848Y-75964477D01*
X2956265Y-76160416D01*
X2765706Y-76350360D01*
X2582069Y-76533417D01*
X2406249Y-76708694D01*
X2239141Y-76875297D01*
X2081641Y-77032332D01*
X1934645Y-77178907D01*
X1799049Y-77314127D01*
X1675749Y-77437101D01*
X1565639Y-77546934D01*
X1469617Y-77642734D01*
X1388578Y-77723607D01*
X1323418Y-77788659D01*
X1275031Y-77836997D01*
X1244315Y-77867729D01*
X1232165Y-77879961D01*
X1232030Y-77880104D01*
X1238513Y-77883517D01*
X1267190Y-77886329D01*
X1321766Y-77888587D01*
X1405944Y-77890341D01*
X1523427Y-77891642D01*
X1677919Y-77892538D01*
X1873123Y-77893078D01*
X2112743Y-77893314D01*
X2222322Y-77893333D01*
X3224601Y-77893333D01*
X4114544Y-77012271D01*
X4268406Y-76859924D01*
X4433549Y-76696369D01*
X4606532Y-76525016D01*
X4783914Y-76349277D01*
X4962251Y-76172563D01*
X5138102Y-75998284D01*
X5308024Y-75829852D01*
X5468576Y-75670678D01*
X5616315Y-75524172D01*
X5745865Y-75395667D01*
X5881540Y-75261102D01*
X6024245Y-75119645D01*
X6170784Y-74974455D01*
X6317965Y-74828696D01*
X6462592Y-74685529D01*
X6601471Y-74548115D01*
X6731408Y-74419617D01*
X6849210Y-74303196D01*
X6951680Y-74202014D01*
X6981688Y-74172407D01*
X7078593Y-74076486D01*
X7169213Y-73986139D01*
X7251670Y-73903285D01*
X7324082Y-73829843D01*
X7384572Y-73767733D01*
X7431261Y-73718873D01*
X7462268Y-73685183D01*
X7475715Y-73668581D01*
X7476133Y-73667460D01*
X7466483Y-73656121D01*
X7438172Y-73626296D01*
X7392153Y-73578943D01*
X7329381Y-73515018D01*
X7250809Y-73435478D01*
X7157393Y-73341279D01*
X7050085Y-73233377D01*
X6929841Y-73112730D01*
X6797615Y-72980295D01*
X6654361Y-72837026D01*
X6501032Y-72683882D01*
X6338585Y-72521818D01*
X6167972Y-72351792D01*
X5990148Y-72174759D01*
X5806067Y-71991677D01*
X5618875Y-71805677D01*
X5425200Y-71613321D01*
X5234250Y-71423655D01*
X5047167Y-71237816D01*
X4865096Y-71056941D01*
X4689179Y-70882167D01*
X4520561Y-70714630D01*
X4360385Y-70555466D01*
X4209795Y-70405813D01*
X4069934Y-70266807D01*
X3941947Y-70139584D01*
X3826976Y-70025281D01*
X3726166Y-69925035D01*
X3640659Y-69839981D01*
X3571601Y-69771258D01*
X3520133Y-69720000D01*
X3493958Y-69693896D01*
X3226299Y-69426667D01*
X2223171Y-69426667D01*
X1964551Y-69426793D01*
G36*
X8095925Y-69427473D02*
G01*
X7957777Y-69430200D01*
X7837682Y-69434841D01*
X7749114Y-69441321D01*
X7743993Y-69441893D01*
X7554697Y-69465772D01*
X7394006Y-69491176D01*
X7244373Y-69521545D01*
X7088249Y-69560321D01*
X6963139Y-69595044D01*
X6768322Y-69658269D01*
X6559822Y-69740119D01*
X6340793Y-69839307D01*
X6232444Y-69892903D01*
X6098188Y-69966290D01*
X5952483Y-70055041D01*
X5801553Y-70154740D01*
X5651621Y-70260973D01*
X5508910Y-70369324D01*
X5379643Y-70475378D01*
X5270043Y-70574722D01*
X5266421Y-70578235D01*
X5164506Y-70677386D01*
X5226916Y-70737297D01*
X5264147Y-70773172D01*
X5315627Y-70822976D01*
X5378864Y-70884281D01*
X5451365Y-70954660D01*
X5530638Y-71031686D01*
X5614190Y-71112933D01*
X5699527Y-71195973D01*
X5784159Y-71278380D01*
X5865591Y-71357726D01*
X5941331Y-71431585D01*
X6008886Y-71497529D01*
X6065764Y-71553132D01*
X6109473Y-71595967D01*
X6137518Y-71623607D01*
X6146633Y-71632757D01*
X6159106Y-71644586D01*
X6171470Y-71649563D01*
X6187786Y-71645447D01*
X6212111Y-71629995D01*
X6248506Y-71600965D01*
X6301030Y-71556115D01*
X6328651Y-71532216D01*
X6514058Y-71384343D01*
X6708008Y-71255094D01*
X6914461Y-71142016D01*
X7084411Y-71064437D01*
X7175814Y-71026928D01*
X7256839Y-70995511D01*
X7320086Y-70972922D01*
X7358159Y-70961895D01*
X7363499Y-70961250D01*
X7400010Y-70956374D01*
X7405853Y-70953312D01*
X7434970Y-70942147D01*
X7497094Y-70926308D01*
X7578926Y-70908721D01*
X7667168Y-70892308D01*
X7724571Y-70883236D01*
X7942136Y-70861515D01*
X8177078Y-70854524D01*
X8411398Y-70862268D01*
X8615732Y-70883087D01*
X8858540Y-70928845D01*
X9093314Y-70995179D01*
X9319440Y-71081733D01*
X9536303Y-71188154D01*
X9743288Y-71314089D01*
X9939782Y-71459183D01*
X10125171Y-71623083D01*
X10298839Y-71805435D01*
X10375501Y-71896502D01*
X10563780Y-72156804D01*
X10720249Y-72433285D01*
X10844871Y-72725867D01*
X10937608Y-73034473D01*
X10953699Y-73104375D01*
X10963494Y-73163349D01*
X10971528Y-73239986D01*
X10977799Y-73330793D01*
X10982308Y-73432280D01*
X10985055Y-73540955D01*
X10986040Y-73653328D01*
X10985263Y-73765907D01*
X10982724Y-73875200D01*
X10978423Y-73977717D01*
X10972359Y-74069967D01*
X10964534Y-74148457D01*
X10954947Y-74209698D01*
X10953699Y-74215625D01*
X10881243Y-74489559D01*
X10786351Y-74746699D01*
X10667596Y-74989424D01*
X10523548Y-75220116D01*
X10352777Y-75441154D01*
X10153856Y-75654921D01*
X10007166Y-75792542D01*
X9865665Y-75909448D01*
X9712705Y-76018678D01*
X9552394Y-76117998D01*
X9388839Y-76205177D01*
X9226145Y-76277982D01*
X9068420Y-76334183D01*
X8955276Y-76364223D01*
X8894769Y-76378879D01*
X8836654Y-76394330D01*
X8724655Y-76418978D01*
X8583438Y-76440371D01*
X8433382Y-76455711D01*
X8353740Y-76460588D01*
X8269139Y-76465126D01*
X8204081Y-76470154D01*
X8176396Y-76473871D01*
X8152173Y-76485597D01*
X8110900Y-76510345D01*
X8061076Y-76542991D01*
X8056030Y-76546438D01*
X8011345Y-76576739D01*
X7944334Y-76621728D01*
X7859630Y-76678324D01*
X7761868Y-76743447D01*
X7655681Y-76814016D01*
X7545702Y-76886951D01*
X7436567Y-76959172D01*
X7332908Y-77027597D01*
X7263748Y-77073125D01*
X7091873Y-77186318D01*
X6941257Y-77285947D01*
X6812816Y-77371393D01*
X6707467Y-77442041D01*
X6626127Y-77497274D01*
X6569711Y-77536475D01*
X6539137Y-77559027D01*
X6533554Y-77564442D01*
X6552190Y-77577797D01*
X6602588Y-77600572D01*
X6676485Y-77629684D01*
X6765615Y-77662049D01*
X6861715Y-77694582D01*
X6956522Y-77724199D01*
X6980039Y-77731070D01*
X7158783Y-77779076D01*
X7328546Y-77816633D01*
X7508094Y-77847354D01*
X7716194Y-77874850D01*
X7743993Y-77878107D01*
X7818923Y-77883972D01*
X7923461Y-77888463D01*
X8046352Y-77891515D01*
X8176343Y-77893061D01*
X8302180Y-77893037D01*
X8412608Y-77891377D01*
X8496375Y-77888015D01*
X8542226Y-77882886D01*
X8542734Y-77882750D01*
X8598093Y-77874125D01*
X8634117Y-77872329D01*
X8682388Y-77868235D01*
X8761200Y-77857651D01*
X8855958Y-77842874D01*
X8952069Y-77826197D01*
X9034936Y-77809915D01*
X9045029Y-77807714D01*
X9304308Y-77740774D01*
X9566286Y-77655075D01*
X9825847Y-77552761D01*
X10077877Y-77435976D01*
X10317261Y-77306864D01*
X10482073Y-77205417D01*
X10765638Y-77004432D01*
X11029089Y-76784693D01*
X11271987Y-76546873D01*
X11493892Y-76291648D01*
X11694365Y-76019693D01*
X11872968Y-75731684D01*
X12029261Y-75428295D01*
X12162805Y-75110202D01*
X12273161Y-74778081D01*
X12359889Y-74432605D01*
X12391880Y-74268542D01*
X12400549Y-74205533D01*
X12407713Y-74124714D01*
X12413374Y-74029432D01*
X12417531Y-73923033D01*
X12420185Y-73808864D01*
X12421335Y-73690271D01*
X12420982Y-73570602D01*
X12419126Y-73453203D01*
X12415766Y-73341420D01*
X12410903Y-73238601D01*
X12404537Y-73148091D01*
X12396668Y-73073239D01*
X12391856Y-73040875D01*
X12316689Y-72683565D01*
X12215307Y-72338802D01*
X12088175Y-72007401D01*
X11935760Y-71690178D01*
X11758527Y-71387950D01*
X11556941Y-71101533D01*
X11331468Y-70831743D01*
X11082573Y-70579396D01*
X10892542Y-70411805D01*
X10674053Y-70242551D01*
X10441697Y-70086368D01*
X10197868Y-69944312D01*
X9944960Y-69817440D01*
X9685364Y-69706807D01*
X9421474Y-69613470D01*
X9155683Y-69538484D01*
X8890383Y-69482906D01*
X8734970Y-69459635D01*
X8647831Y-69448542D01*
X8563579Y-69437764D01*
X8559577Y-69437250D01*
X8483953Y-69431550D01*
X8372487Y-69428072D01*
X8238653Y-69426738D01*
X8095925Y-69427473D01*
G37*
X8095925Y-69427473D02*
X7957777Y-69430200D01*
X7837682Y-69434841D01*
X7749114Y-69441321D01*
X7743993Y-69441893D01*
X7554697Y-69465772D01*
X7394006Y-69491176D01*
X7244373Y-69521545D01*
X7088249Y-69560321D01*
X6963139Y-69595044D01*
X6768322Y-69658269D01*
X6559822Y-69740119D01*
X6340793Y-69839307D01*
X6232444Y-69892903D01*
X6098188Y-69966290D01*
X5952483Y-70055041D01*
X5801553Y-70154740D01*
X5651621Y-70260973D01*
X5508910Y-70369324D01*
X5379643Y-70475378D01*
X5270043Y-70574722D01*
X5266421Y-70578235D01*
X5164506Y-70677386D01*
X5226916Y-70737297D01*
X5264147Y-70773172D01*
X5315627Y-70822976D01*
X5378864Y-70884281D01*
X5451365Y-70954660D01*
X5530638Y-71031686D01*
X5614190Y-71112933D01*
X5699527Y-71195973D01*
X5784159Y-71278380D01*
X5865591Y-71357726D01*
X5941331Y-71431585D01*
X6008886Y-71497529D01*
X6065764Y-71553132D01*
X6109473Y-71595967D01*
X6137518Y-71623607D01*
X6146633Y-71632757D01*
X6159106Y-71644586D01*
X6171470Y-71649563D01*
X6187786Y-71645447D01*
X6212111Y-71629995D01*
X6248506Y-71600965D01*
X6301030Y-71556115D01*
X6328651Y-71532216D01*
X6514058Y-71384343D01*
X6708008Y-71255094D01*
X6914461Y-71142016D01*
X7084411Y-71064437D01*
X7175814Y-71026928D01*
X7256839Y-70995511D01*
X7320086Y-70972922D01*
X7358159Y-70961895D01*
X7363499Y-70961250D01*
X7400010Y-70956374D01*
X7405853Y-70953312D01*
X7434970Y-70942147D01*
X7497094Y-70926308D01*
X7578926Y-70908721D01*
X7667168Y-70892308D01*
X7724571Y-70883236D01*
X7942136Y-70861515D01*
X8177078Y-70854524D01*
X8411398Y-70862268D01*
X8615732Y-70883087D01*
X8858540Y-70928845D01*
X9093314Y-70995179D01*
X9319440Y-71081733D01*
X9536303Y-71188154D01*
X9743288Y-71314089D01*
X9939782Y-71459183D01*
X10125171Y-71623083D01*
X10298839Y-71805435D01*
X10375501Y-71896502D01*
X10563780Y-72156804D01*
X10720249Y-72433285D01*
X10844871Y-72725867D01*
X10937608Y-73034473D01*
X10953699Y-73104375D01*
X10963494Y-73163349D01*
X10971528Y-73239986D01*
X10977799Y-73330793D01*
X10982308Y-73432280D01*
X10985055Y-73540955D01*
X10986040Y-73653328D01*
X10985263Y-73765907D01*
X10982724Y-73875200D01*
X10978423Y-73977717D01*
X10972359Y-74069967D01*
X10964534Y-74148457D01*
X10954947Y-74209698D01*
X10953699Y-74215625D01*
X10881243Y-74489559D01*
X10786351Y-74746699D01*
X10667596Y-74989424D01*
X10523548Y-75220116D01*
X10352777Y-75441154D01*
X10153856Y-75654921D01*
X10007166Y-75792542D01*
X9865665Y-75909448D01*
X9712705Y-76018678D01*
X9552394Y-76117998D01*
X9388839Y-76205177D01*
X9226145Y-76277982D01*
X9068420Y-76334183D01*
X8955276Y-76364223D01*
X8894769Y-76378879D01*
X8836654Y-76394330D01*
X8724655Y-76418978D01*
X8583438Y-76440371D01*
X8433382Y-76455711D01*
X8353740Y-76460588D01*
X8269139Y-76465126D01*
X8204081Y-76470154D01*
X8176396Y-76473871D01*
X8152173Y-76485597D01*
X8110900Y-76510345D01*
X8061076Y-76542991D01*
X8056030Y-76546438D01*
X8011345Y-76576739D01*
X7944334Y-76621728D01*
X7859630Y-76678324D01*
X7761868Y-76743447D01*
X7655681Y-76814016D01*
X7545702Y-76886951D01*
X7436567Y-76959172D01*
X7332908Y-77027597D01*
X7263748Y-77073125D01*
X7091873Y-77186318D01*
X6941257Y-77285947D01*
X6812816Y-77371393D01*
X6707467Y-77442041D01*
X6626127Y-77497274D01*
X6569711Y-77536475D01*
X6539137Y-77559027D01*
X6533554Y-77564442D01*
X6552190Y-77577797D01*
X6602588Y-77600572D01*
X6676485Y-77629684D01*
X6765615Y-77662049D01*
X6861715Y-77694582D01*
X6956522Y-77724199D01*
X6980039Y-77731070D01*
X7158783Y-77779076D01*
X7328546Y-77816633D01*
X7508094Y-77847354D01*
X7716194Y-77874850D01*
X7743993Y-77878107D01*
X7818923Y-77883972D01*
X7923461Y-77888463D01*
X8046352Y-77891515D01*
X8176343Y-77893061D01*
X8302180Y-77893037D01*
X8412608Y-77891377D01*
X8496375Y-77888015D01*
X8542226Y-77882886D01*
X8542734Y-77882750D01*
X8598093Y-77874125D01*
X8634117Y-77872329D01*
X8682388Y-77868235D01*
X8761200Y-77857651D01*
X8855958Y-77842874D01*
X8952069Y-77826197D01*
X9034936Y-77809915D01*
X9045029Y-77807714D01*
X9304308Y-77740774D01*
X9566286Y-77655075D01*
X9825847Y-77552761D01*
X10077877Y-77435976D01*
X10317261Y-77306864D01*
X10482073Y-77205417D01*
X10765638Y-77004432D01*
X11029089Y-76784693D01*
X11271987Y-76546873D01*
X11493892Y-76291648D01*
X11694365Y-76019693D01*
X11872968Y-75731684D01*
X12029261Y-75428295D01*
X12162805Y-75110202D01*
X12273161Y-74778081D01*
X12359889Y-74432605D01*
X12391880Y-74268542D01*
X12400549Y-74205533D01*
X12407713Y-74124714D01*
X12413374Y-74029432D01*
X12417531Y-73923033D01*
X12420185Y-73808864D01*
X12421335Y-73690271D01*
X12420982Y-73570602D01*
X12419126Y-73453203D01*
X12415766Y-73341420D01*
X12410903Y-73238601D01*
X12404537Y-73148091D01*
X12396668Y-73073239D01*
X12391856Y-73040875D01*
X12316689Y-72683565D01*
X12215307Y-72338802D01*
X12088175Y-72007401D01*
X11935760Y-71690178D01*
X11758527Y-71387950D01*
X11556941Y-71101533D01*
X11331468Y-70831743D01*
X11082573Y-70579396D01*
X10892542Y-70411805D01*
X10674053Y-70242551D01*
X10441697Y-70086368D01*
X10197868Y-69944312D01*
X9944960Y-69817440D01*
X9685364Y-69706807D01*
X9421474Y-69613470D01*
X9155683Y-69538484D01*
X8890383Y-69482906D01*
X8734970Y-69459635D01*
X8647831Y-69448542D01*
X8563579Y-69437764D01*
X8559577Y-69437250D01*
X8483953Y-69431550D01*
X8372487Y-69428072D01*
X8238653Y-69426738D01*
X8095925Y-69427473D01*
G36*
X14074179Y-73660000D02*
G01*
X14074196Y-73958116D01*
X14074244Y-74250821D01*
X14074323Y-74537405D01*
X14074431Y-74817160D01*
X14074568Y-75089377D01*
X14074733Y-75353348D01*
X14074923Y-75608365D01*
X14075139Y-75853719D01*
X14075379Y-76088702D01*
X14075643Y-76312605D01*
X14075928Y-76524719D01*
X14076233Y-76724337D01*
X14076559Y-76910750D01*
X14076903Y-77083249D01*
X14077265Y-77241126D01*
X14077643Y-77383673D01*
X14078036Y-77510181D01*
X14078444Y-77619941D01*
X14078864Y-77712246D01*
X14079297Y-77786386D01*
X14079740Y-77841653D01*
X14080194Y-77877339D01*
X14080656Y-77892736D01*
X14080767Y-77893333D01*
X14092822Y-77884224D01*
X14122650Y-77858803D01*
X14166997Y-77819928D01*
X14222606Y-77770459D01*
X14286223Y-77713255D01*
X14300670Y-77700187D01*
X14331313Y-77672539D01*
X14382228Y-77626723D01*
X14452362Y-77563685D01*
X14540663Y-77484368D01*
X14646078Y-77389718D01*
X14767554Y-77280677D01*
X14904039Y-77158191D01*
X15054481Y-77023204D01*
X15217826Y-76876660D01*
X15393022Y-76719504D01*
X15579016Y-76552679D01*
X15774756Y-76377131D01*
X15979189Y-76193803D01*
X16191262Y-76003640D01*
X16409924Y-75807586D01*
X16634120Y-75606586D01*
X16862799Y-75401583D01*
X16969754Y-75305708D01*
X17210256Y-75090123D01*
X17452275Y-74873174D01*
X17694378Y-74656148D01*
X17935131Y-74440329D01*
X18173102Y-74227002D01*
X18406857Y-74017452D01*
X18634962Y-73812963D01*
X18855986Y-73614821D01*
X19068494Y-73424311D01*
X19271053Y-73242716D01*
X19462231Y-73071323D01*
X19640593Y-72911416D01*
X19804707Y-72764280D01*
X19953139Y-72631199D01*
X20084456Y-72513459D01*
X20197225Y-72412345D01*
X20284636Y-72333962D01*
X21143751Y-71563549D01*
X21131113Y-69428299D01*
X18552311Y-71742587D01*
X18316803Y-71953936D01*
X18085526Y-72161483D01*
X17859489Y-72364325D01*
X17639698Y-72561558D01*
X17427162Y-72752275D01*
X17222890Y-72935574D01*
X17027889Y-73110549D01*
X16843167Y-73276296D01*
X16669733Y-73431910D01*
X16508595Y-73576487D01*
X16360760Y-73709123D01*
X16227238Y-73828912D01*
X16109036Y-73934950D01*
X16007161Y-74026334D01*
X15922623Y-74102157D01*
X15856430Y-74161516D01*
X15809589Y-74203507D01*
X15784243Y-74226208D01*
X15719015Y-74284570D01*
X15657787Y-74339357D01*
X15605183Y-74386433D01*
X15565825Y-74421659D01*
X15547714Y-74437875D01*
X15542611Y-74442171D01*
X15537886Y-74445052D01*
X15533523Y-74445740D01*
X15529504Y-74443458D01*
X15525814Y-74437429D01*
X15522435Y-74426876D01*
X15519351Y-74411021D01*
X15516545Y-74389087D01*
X15514001Y-74360298D01*
X15511700Y-74323875D01*
X15509628Y-74279042D01*
X15507766Y-74225022D01*
X15506099Y-74161037D01*
X15504609Y-74086310D01*
X15503280Y-74000065D01*
X15502095Y-73901523D01*
X15501037Y-73789908D01*
X15500090Y-73664443D01*
X15499236Y-73524350D01*
X15498460Y-73368852D01*
X15497744Y-73197173D01*
X15497072Y-73008534D01*
X15496426Y-72802158D01*
X15495791Y-72577270D01*
X15495148Y-72333090D01*
X15494483Y-72068843D01*
X15494197Y-71953437D01*
X15487944Y-69426667D01*
X14074179Y-69426667D01*
X14074179Y-73660000D01*
G37*
X14074179Y-73660000D02*
X14074196Y-73958116D01*
X14074244Y-74250821D01*
X14074323Y-74537405D01*
X14074431Y-74817160D01*
X14074568Y-75089377D01*
X14074733Y-75353348D01*
X14074923Y-75608365D01*
X14075139Y-75853719D01*
X14075379Y-76088702D01*
X14075643Y-76312605D01*
X14075928Y-76524719D01*
X14076233Y-76724337D01*
X14076559Y-76910750D01*
X14076903Y-77083249D01*
X14077265Y-77241126D01*
X14077643Y-77383673D01*
X14078036Y-77510181D01*
X14078444Y-77619941D01*
X14078864Y-77712246D01*
X14079297Y-77786386D01*
X14079740Y-77841653D01*
X14080194Y-77877339D01*
X14080656Y-77892736D01*
X14080767Y-77893333D01*
X14092822Y-77884224D01*
X14122650Y-77858803D01*
X14166997Y-77819928D01*
X14222606Y-77770459D01*
X14286223Y-77713255D01*
X14300670Y-77700187D01*
X14331313Y-77672539D01*
X14382228Y-77626723D01*
X14452362Y-77563685D01*
X14540663Y-77484368D01*
X14646078Y-77389718D01*
X14767554Y-77280677D01*
X14904039Y-77158191D01*
X15054481Y-77023204D01*
X15217826Y-76876660D01*
X15393022Y-76719504D01*
X15579016Y-76552679D01*
X15774756Y-76377131D01*
X15979189Y-76193803D01*
X16191262Y-76003640D01*
X16409924Y-75807586D01*
X16634120Y-75606586D01*
X16862799Y-75401583D01*
X16969754Y-75305708D01*
X17210256Y-75090123D01*
X17452275Y-74873174D01*
X17694378Y-74656148D01*
X17935131Y-74440329D01*
X18173102Y-74227002D01*
X18406857Y-74017452D01*
X18634962Y-73812963D01*
X18855986Y-73614821D01*
X19068494Y-73424311D01*
X19271053Y-73242716D01*
X19462231Y-73071323D01*
X19640593Y-72911416D01*
X19804707Y-72764280D01*
X19953139Y-72631199D01*
X20084456Y-72513459D01*
X20197225Y-72412345D01*
X20284636Y-72333962D01*
X21143751Y-71563549D01*
X21131113Y-69428299D01*
X18552311Y-71742587D01*
X18316803Y-71953936D01*
X18085526Y-72161483D01*
X17859489Y-72364325D01*
X17639698Y-72561558D01*
X17427162Y-72752275D01*
X17222890Y-72935574D01*
X17027889Y-73110549D01*
X16843167Y-73276296D01*
X16669733Y-73431910D01*
X16508595Y-73576487D01*
X16360760Y-73709123D01*
X16227238Y-73828912D01*
X16109036Y-73934950D01*
X16007161Y-74026334D01*
X15922623Y-74102157D01*
X15856430Y-74161516D01*
X15809589Y-74203507D01*
X15784243Y-74226208D01*
X15719015Y-74284570D01*
X15657787Y-74339357D01*
X15605183Y-74386433D01*
X15565825Y-74421659D01*
X15547714Y-74437875D01*
X15542611Y-74442171D01*
X15537886Y-74445052D01*
X15533523Y-74445740D01*
X15529504Y-74443458D01*
X15525814Y-74437429D01*
X15522435Y-74426876D01*
X15519351Y-74411021D01*
X15516545Y-74389087D01*
X15514001Y-74360298D01*
X15511700Y-74323875D01*
X15509628Y-74279042D01*
X15507766Y-74225022D01*
X15506099Y-74161037D01*
X15504609Y-74086310D01*
X15503280Y-74000065D01*
X15502095Y-73901523D01*
X15501037Y-73789908D01*
X15500090Y-73664443D01*
X15499236Y-73524350D01*
X15498460Y-73368852D01*
X15497744Y-73197173D01*
X15497072Y-73008534D01*
X15496426Y-72802158D01*
X15495791Y-72577270D01*
X15495148Y-72333090D01*
X15494483Y-72068843D01*
X15494197Y-71953437D01*
X15487944Y-69426667D01*
X14074179Y-69426667D01*
X14074179Y-73660000D01*
G36*
X19370297Y-76475629D02*
G01*
X19210782Y-76476264D01*
X19067743Y-76477246D01*
X18948523Y-76478577D01*
X18860462Y-76480253D01*
X18810903Y-76482276D01*
X18802813Y-76483444D01*
X18795810Y-76494821D01*
X18779486Y-76524821D01*
X18754893Y-76571368D01*
X18723085Y-76632387D01*
X18685115Y-76705801D01*
X18642038Y-76789535D01*
X18594906Y-76881514D01*
X18544773Y-76979661D01*
X18492693Y-77081900D01*
X18439719Y-77186157D01*
X18386906Y-77290355D01*
X18335305Y-77392419D01*
X18285971Y-77490272D01*
X18239958Y-77581840D01*
X18198319Y-77665046D01*
X18162107Y-77737815D01*
X18132377Y-77798070D01*
X18110181Y-77843737D01*
X18096573Y-77872740D01*
X18092539Y-77882846D01*
X18117021Y-77886009D01*
X18189207Y-77888640D01*
X18307206Y-77890712D01*
X18469126Y-77892201D01*
X18673075Y-77893081D01*
X18886289Y-77893333D01*
X19079059Y-77893075D01*
X19254935Y-77892344D01*
X19408047Y-77891204D01*
X19532522Y-77889717D01*
X19622492Y-77887948D01*
X19672087Y-77885959D01*
X19680039Y-77884746D01*
X19685070Y-77873190D01*
X19699598Y-77842654D01*
X19722775Y-77794862D01*
X19753754Y-77731536D01*
X19791686Y-77654397D01*
X19835724Y-77565170D01*
X19885020Y-77465575D01*
X19938726Y-77357336D01*
X19995994Y-77242175D01*
X20025109Y-77183720D01*
X20083630Y-77065831D01*
X20138684Y-76954030D01*
X20189454Y-76850039D01*
X20235121Y-76755576D01*
X20274866Y-76672362D01*
X20307872Y-76602117D01*
X20333318Y-76546560D01*
X20350387Y-76507410D01*
X20358261Y-76486389D01*
X20358509Y-76483224D01*
X20331499Y-76481033D01*
X20262229Y-76479199D01*
X20158040Y-76477721D01*
X20026276Y-76476597D01*
X19874277Y-76475827D01*
X19709387Y-76475410D01*
X19538946Y-76475344D01*
X19370297Y-76475629D01*
G37*
X19370297Y-76475629D02*
X19210782Y-76476264D01*
X19067743Y-76477246D01*
X18948523Y-76478577D01*
X18860462Y-76480253D01*
X18810903Y-76482276D01*
X18802813Y-76483444D01*
X18795810Y-76494821D01*
X18779486Y-76524821D01*
X18754893Y-76571368D01*
X18723085Y-76632387D01*
X18685115Y-76705801D01*
X18642038Y-76789535D01*
X18594906Y-76881514D01*
X18544773Y-76979661D01*
X18492693Y-77081900D01*
X18439719Y-77186157D01*
X18386906Y-77290355D01*
X18335305Y-77392419D01*
X18285971Y-77490272D01*
X18239958Y-77581840D01*
X18198319Y-77665046D01*
X18162107Y-77737815D01*
X18132377Y-77798070D01*
X18110181Y-77843737D01*
X18096573Y-77872740D01*
X18092539Y-77882846D01*
X18117021Y-77886009D01*
X18189207Y-77888640D01*
X18307206Y-77890712D01*
X18469126Y-77892201D01*
X18673075Y-77893081D01*
X18886289Y-77893333D01*
X19079059Y-77893075D01*
X19254935Y-77892344D01*
X19408047Y-77891204D01*
X19532522Y-77889717D01*
X19622492Y-77887948D01*
X19672087Y-77885959D01*
X19680039Y-77884746D01*
X19685070Y-77873190D01*
X19699598Y-77842654D01*
X19722775Y-77794862D01*
X19753754Y-77731536D01*
X19791686Y-77654397D01*
X19835724Y-77565170D01*
X19885020Y-77465575D01*
X19938726Y-77357336D01*
X19995994Y-77242175D01*
X20025109Y-77183720D01*
X20083630Y-77065831D01*
X20138684Y-76954030D01*
X20189454Y-76850039D01*
X20235121Y-76755576D01*
X20274866Y-76672362D01*
X20307872Y-76602117D01*
X20333318Y-76546560D01*
X20350387Y-76507410D01*
X20358261Y-76486389D01*
X20358509Y-76483224D01*
X20331499Y-76481033D01*
X20262229Y-76479199D01*
X20158040Y-76477721D01*
X20026276Y-76476597D01*
X19874277Y-76475827D01*
X19709387Y-76475410D01*
X19538946Y-76475344D01*
X19370297Y-76475629D01*
G36*
X22329831Y-69454967D02*
G01*
X22313235Y-69483741D01*
X22287536Y-69530856D01*
X22253341Y-69595130D01*
X22211259Y-69675382D01*
X22161898Y-69770429D01*
X22105867Y-69879091D01*
X22043774Y-70000186D01*
X21976226Y-70132533D01*
X21903833Y-70274950D01*
X21827202Y-70426256D01*
X21746942Y-70585268D01*
X21663661Y-70750806D01*
X21617536Y-70842715D01*
X21515328Y-71046549D01*
X21404497Y-71267570D01*
X21286782Y-71502313D01*
X21163919Y-71747317D01*
X21037644Y-71999117D01*
X20909695Y-72254251D01*
X20781807Y-72509255D01*
X20655719Y-72760667D01*
X20533166Y-73005023D01*
X20415886Y-73238860D01*
X20305615Y-73458715D01*
X20209963Y-73649417D01*
X20125322Y-73818255D01*
X20043591Y-73981476D01*
X19965368Y-74137873D01*
X19891252Y-74286242D01*
X19821842Y-74425377D01*
X19757737Y-74554073D01*
X19699536Y-74671126D01*
X19647837Y-74775329D01*
X19603241Y-74865478D01*
X19566345Y-74940368D01*
X19537748Y-74998794D01*
X19518050Y-75039550D01*
X19507849Y-75061431D01*
X19506496Y-75064937D01*
X19516961Y-75068762D01*
X19551147Y-75071827D01*
X19613152Y-75074201D01*
X19707076Y-75075952D01*
X19837017Y-75077148D01*
X20007076Y-75077858D01*
X20221350Y-75078150D01*
X20298484Y-75078167D01*
X20518264Y-75078096D01*
X20693536Y-75077807D01*
X20829404Y-75077181D01*
X20930969Y-75076101D01*
X21003333Y-75074449D01*
X21051599Y-75072109D01*
X21080869Y-75068962D01*
X21096244Y-75064892D01*
X21102827Y-75059780D01*
X21102918Y-75059646D01*
X21109587Y-75047073D01*
X21125906Y-75015105D01*
X21151218Y-74965049D01*
X21184868Y-74898215D01*
X21226201Y-74815912D01*
X21274561Y-74719447D01*
X21329292Y-74610132D01*
X21389740Y-74489273D01*
X21455248Y-74358181D01*
X21525161Y-74218163D01*
X21598824Y-74070529D01*
X21675581Y-73916588D01*
X21717662Y-73832148D01*
X21795668Y-73675943D01*
X21871018Y-73525739D01*
X21943058Y-73382808D01*
X22011130Y-73248421D01*
X22074579Y-73123853D01*
X22132749Y-73010373D01*
X22184984Y-72909255D01*
X22230628Y-72821771D01*
X22269025Y-72749192D01*
X22299520Y-72692792D01*
X22321455Y-72653841D01*
X22334176Y-72633613D01*
X22337037Y-72630940D01*
X22349909Y-72644419D01*
X22368445Y-72672975D01*
X22389005Y-72710891D01*
X22392550Y-72718083D01*
X22403704Y-72740671D01*
X22424698Y-72782774D01*
X22454938Y-72843213D01*
X22493831Y-72920809D01*
X22540783Y-73014386D01*
X22595202Y-73122763D01*
X22656493Y-73244762D01*
X22724063Y-73379205D01*
X22797320Y-73524914D01*
X22875668Y-73680709D01*
X22958516Y-73845413D01*
X23045270Y-74017847D01*
X23135336Y-74196833D01*
X23228121Y-74381191D01*
X23323031Y-74569744D01*
X23419474Y-74761312D01*
X23516856Y-74954718D01*
X23614583Y-75148783D01*
X23712062Y-75342329D01*
X23808700Y-75534176D01*
X23903903Y-75723148D01*
X23997078Y-75908064D01*
X24087632Y-76087746D01*
X24174971Y-76261017D01*
X24258501Y-76426697D01*
X24337630Y-76583608D01*
X24411764Y-76730572D01*
X24480310Y-76866410D01*
X24542674Y-76989944D01*
X24598263Y-77099994D01*
X24646483Y-77195383D01*
X24686741Y-77274933D01*
X24718444Y-77337464D01*
X24719878Y-77340287D01*
X25000644Y-77893199D01*
X25788193Y-77893266D01*
X25980180Y-77893088D01*
X26155250Y-77892554D01*
X26307509Y-77891709D01*
X26431062Y-77890601D01*
X26520018Y-77889279D01*
X26568482Y-77887790D01*
X26575742Y-77886921D01*
X26570654Y-77875933D01*
X26555828Y-77845564D01*
X26531920Y-77797127D01*
X26499585Y-77731939D01*
X26459480Y-77651313D01*
X26412261Y-77556566D01*
X26358584Y-77449011D01*
X26299104Y-77329965D01*
X26234478Y-77200741D01*
X26165361Y-77062656D01*
X26092410Y-76917023D01*
X26016280Y-76765158D01*
X25991032Y-76714817D01*
X25903391Y-76540094D01*
X25807006Y-76347940D01*
X25703515Y-76141621D01*
X25594557Y-75924403D01*
X25481770Y-75699553D01*
X25366792Y-75470337D01*
X25251262Y-75240021D01*
X25136819Y-75011871D01*
X25025101Y-74789155D01*
X24917747Y-74575139D01*
X24816394Y-74373088D01*
X24753333Y-74247375D01*
X24670201Y-74081624D01*
X24577932Y-73897617D01*
X24477751Y-73697797D01*
X24370883Y-73484606D01*
X24258551Y-73260488D01*
X24141981Y-73027887D01*
X24022396Y-72789245D01*
X23901020Y-72547005D01*
X23779079Y-72303612D01*
X23657795Y-72061508D01*
X23538394Y-71823136D01*
X23422100Y-71590940D01*
X23310136Y-71367362D01*
X23226022Y-71199375D01*
X23131538Y-71010797D01*
X23039725Y-70827809D01*
X22951129Y-70651483D01*
X22866293Y-70482894D01*
X22785761Y-70323113D01*
X22710078Y-70173215D01*
X22639787Y-70034271D01*
X22575433Y-69907355D01*
X22517560Y-69793540D01*
X22466712Y-69693899D01*
X22423433Y-69609505D01*
X22388267Y-69541431D01*
X22361759Y-69490749D01*
X22344452Y-69458534D01*
X22336890Y-69445857D01*
X22336716Y-69445715D01*
X22329831Y-69454967D01*
G37*
X22329831Y-69454967D02*
X22313235Y-69483741D01*
X22287536Y-69530856D01*
X22253341Y-69595130D01*
X22211259Y-69675382D01*
X22161898Y-69770429D01*
X22105867Y-69879091D01*
X22043774Y-70000186D01*
X21976226Y-70132533D01*
X21903833Y-70274950D01*
X21827202Y-70426256D01*
X21746942Y-70585268D01*
X21663661Y-70750806D01*
X21617536Y-70842715D01*
X21515328Y-71046549D01*
X21404497Y-71267570D01*
X21286782Y-71502313D01*
X21163919Y-71747317D01*
X21037644Y-71999117D01*
X20909695Y-72254251D01*
X20781807Y-72509255D01*
X20655719Y-72760667D01*
X20533166Y-73005023D01*
X20415886Y-73238860D01*
X20305615Y-73458715D01*
X20209963Y-73649417D01*
X20125322Y-73818255D01*
X20043591Y-73981476D01*
X19965368Y-74137873D01*
X19891252Y-74286242D01*
X19821842Y-74425377D01*
X19757737Y-74554073D01*
X19699536Y-74671126D01*
X19647837Y-74775329D01*
X19603241Y-74865478D01*
X19566345Y-74940368D01*
X19537748Y-74998794D01*
X19518050Y-75039550D01*
X19507849Y-75061431D01*
X19506496Y-75064937D01*
X19516961Y-75068762D01*
X19551147Y-75071827D01*
X19613152Y-75074201D01*
X19707076Y-75075952D01*
X19837017Y-75077148D01*
X20007076Y-75077858D01*
X20221350Y-75078150D01*
X20298484Y-75078167D01*
X20518264Y-75078096D01*
X20693536Y-75077807D01*
X20829404Y-75077181D01*
X20930969Y-75076101D01*
X21003333Y-75074449D01*
X21051599Y-75072109D01*
X21080869Y-75068962D01*
X21096244Y-75064892D01*
X21102827Y-75059780D01*
X21102918Y-75059646D01*
X21109587Y-75047073D01*
X21125906Y-75015105D01*
X21151218Y-74965049D01*
X21184868Y-74898215D01*
X21226201Y-74815912D01*
X21274561Y-74719447D01*
X21329292Y-74610132D01*
X21389740Y-74489273D01*
X21455248Y-74358181D01*
X21525161Y-74218163D01*
X21598824Y-74070529D01*
X21675581Y-73916588D01*
X21717662Y-73832148D01*
X21795668Y-73675943D01*
X21871018Y-73525739D01*
X21943058Y-73382808D01*
X22011130Y-73248421D01*
X22074579Y-73123853D01*
X22132749Y-73010373D01*
X22184984Y-72909255D01*
X22230628Y-72821771D01*
X22269025Y-72749192D01*
X22299520Y-72692792D01*
X22321455Y-72653841D01*
X22334176Y-72633613D01*
X22337037Y-72630940D01*
X22349909Y-72644419D01*
X22368445Y-72672975D01*
X22389005Y-72710891D01*
X22392550Y-72718083D01*
X22403704Y-72740671D01*
X22424698Y-72782774D01*
X22454938Y-72843213D01*
X22493831Y-72920809D01*
X22540783Y-73014386D01*
X22595202Y-73122763D01*
X22656493Y-73244762D01*
X22724063Y-73379205D01*
X22797320Y-73524914D01*
X22875668Y-73680709D01*
X22958516Y-73845413D01*
X23045270Y-74017847D01*
X23135336Y-74196833D01*
X23228121Y-74381191D01*
X23323031Y-74569744D01*
X23419474Y-74761312D01*
X23516856Y-74954718D01*
X23614583Y-75148783D01*
X23712062Y-75342329D01*
X23808700Y-75534176D01*
X23903903Y-75723148D01*
X23997078Y-75908064D01*
X24087632Y-76087746D01*
X24174971Y-76261017D01*
X24258501Y-76426697D01*
X24337630Y-76583608D01*
X24411764Y-76730572D01*
X24480310Y-76866410D01*
X24542674Y-76989944D01*
X24598263Y-77099994D01*
X24646483Y-77195383D01*
X24686741Y-77274933D01*
X24718444Y-77337464D01*
X24719878Y-77340287D01*
X25000644Y-77893199D01*
X25788193Y-77893266D01*
X25980180Y-77893088D01*
X26155250Y-77892554D01*
X26307509Y-77891709D01*
X26431062Y-77890601D01*
X26520018Y-77889279D01*
X26568482Y-77887790D01*
X26575742Y-77886921D01*
X26570654Y-77875933D01*
X26555828Y-77845564D01*
X26531920Y-77797127D01*
X26499585Y-77731939D01*
X26459480Y-77651313D01*
X26412261Y-77556566D01*
X26358584Y-77449011D01*
X26299104Y-77329965D01*
X26234478Y-77200741D01*
X26165361Y-77062656D01*
X26092410Y-76917023D01*
X26016280Y-76765158D01*
X25991032Y-76714817D01*
X25903391Y-76540094D01*
X25807006Y-76347940D01*
X25703515Y-76141621D01*
X25594557Y-75924403D01*
X25481770Y-75699553D01*
X25366792Y-75470337D01*
X25251262Y-75240021D01*
X25136819Y-75011871D01*
X25025101Y-74789155D01*
X24917747Y-74575139D01*
X24816394Y-74373088D01*
X24753333Y-74247375D01*
X24670201Y-74081624D01*
X24577932Y-73897617D01*
X24477751Y-73697797D01*
X24370883Y-73484606D01*
X24258551Y-73260488D01*
X24141981Y-73027887D01*
X24022396Y-72789245D01*
X23901020Y-72547005D01*
X23779079Y-72303612D01*
X23657795Y-72061508D01*
X23538394Y-71823136D01*
X23422100Y-71590940D01*
X23310136Y-71367362D01*
X23226022Y-71199375D01*
X23131538Y-71010797D01*
X23039725Y-70827809D01*
X22951129Y-70651483D01*
X22866293Y-70482894D01*
X22785761Y-70323113D01*
X22710078Y-70173215D01*
X22639787Y-70034271D01*
X22575433Y-69907355D01*
X22517560Y-69793540D01*
X22466712Y-69693899D01*
X22423433Y-69609505D01*
X22388267Y-69541431D01*
X22361759Y-69490749D01*
X22344452Y-69458534D01*
X22336890Y-69445857D01*
X22336716Y-69445715D01*
X22329831Y-69454967D01*
G36*
X31148405Y-76476727D02*
G01*
X30869000Y-76476917D01*
X30546566Y-76477247D01*
X30178001Y-76477692D01*
X30129739Y-76477753D01*
X28002011Y-76480458D01*
X27995634Y-77186896D01*
X27989258Y-77893333D01*
X30817168Y-77893333D01*
X31187249Y-77893256D01*
X31543195Y-77893031D01*
X31881897Y-77892667D01*
X32200244Y-77892176D01*
X32495125Y-77891567D01*
X32763432Y-77890849D01*
X33002053Y-77890032D01*
X33207879Y-77889127D01*
X33377799Y-77888144D01*
X33508703Y-77887091D01*
X33597481Y-77885980D01*
X33641023Y-77884819D01*
X33645078Y-77884337D01*
X33635625Y-77873333D01*
X33608305Y-77844439D01*
X33564673Y-77799240D01*
X33506287Y-77739323D01*
X33434703Y-77666272D01*
X33351477Y-77581675D01*
X33258166Y-77487118D01*
X33156327Y-77384185D01*
X33047516Y-77274464D01*
X32967343Y-77193774D01*
X32854131Y-77079888D01*
X32746390Y-76971441D01*
X32645722Y-76870047D01*
X32553728Y-76777325D01*
X32472011Y-76694890D01*
X32402172Y-76624358D01*
X32345812Y-76567346D01*
X32304535Y-76525470D01*
X32279940Y-76500348D01*
X32273537Y-76493628D01*
X32268647Y-76490362D01*
X32257934Y-76487509D01*
X32238298Y-76485048D01*
X32206636Y-76482956D01*
X32159850Y-76481209D01*
X32094839Y-76479785D01*
X32008501Y-76478660D01*
X31897737Y-76477812D01*
X31759446Y-76477217D01*
X31590527Y-76476854D01*
X31387880Y-76476698D01*
X31148405Y-76476727D01*
G37*
X31148405Y-76476727D02*
X30869000Y-76476917D01*
X30546566Y-76477247D01*
X30178001Y-76477692D01*
X30129739Y-76477753D01*
X28002011Y-76480458D01*
X27995634Y-77186896D01*
X27989258Y-77893333D01*
X30817168Y-77893333D01*
X31187249Y-77893256D01*
X31543195Y-77893031D01*
X31881897Y-77892667D01*
X32200244Y-77892176D01*
X32495125Y-77891567D01*
X32763432Y-77890849D01*
X33002053Y-77890032D01*
X33207879Y-77889127D01*
X33377799Y-77888144D01*
X33508703Y-77887091D01*
X33597481Y-77885980D01*
X33641023Y-77884819D01*
X33645078Y-77884337D01*
X33635625Y-77873333D01*
X33608305Y-77844439D01*
X33564673Y-77799240D01*
X33506287Y-77739323D01*
X33434703Y-77666272D01*
X33351477Y-77581675D01*
X33258166Y-77487118D01*
X33156327Y-77384185D01*
X33047516Y-77274464D01*
X32967343Y-77193774D01*
X32854131Y-77079888D01*
X32746390Y-76971441D01*
X32645722Y-76870047D01*
X32553728Y-76777325D01*
X32472011Y-76694890D01*
X32402172Y-76624358D01*
X32345812Y-76567346D01*
X32304535Y-76525470D01*
X32279940Y-76500348D01*
X32273537Y-76493628D01*
X32268647Y-76490362D01*
X32257934Y-76487509D01*
X32238298Y-76485048D01*
X32206636Y-76482956D01*
X32159850Y-76481209D01*
X32094839Y-76479785D01*
X32008501Y-76478660D01*
X31897737Y-76477812D01*
X31759446Y-76477217D01*
X31590527Y-76476854D01*
X31387880Y-76476698D01*
X31148405Y-76476727D01*
G36*
X39581830Y-69426165D02*
G01*
X39291312Y-69426435D01*
X39005728Y-69426875D01*
X38729272Y-69427485D01*
X38466141Y-69428263D01*
X38220530Y-69429205D01*
X37996634Y-69430311D01*
X37798649Y-69431579D01*
X37630769Y-69433006D01*
X37497191Y-69434592D01*
X37402110Y-69436334D01*
X37349722Y-69438231D01*
X37342737Y-69438859D01*
X37089264Y-69482929D01*
X36851109Y-69543631D01*
X36626115Y-69621839D01*
X36412125Y-69718423D01*
X36206981Y-69834256D01*
X36008525Y-69970207D01*
X35986904Y-69986508D01*
X35765936Y-70172247D01*
X35566875Y-70376263D01*
X35390244Y-70597732D01*
X35236559Y-70835833D01*
X35106343Y-71089744D01*
X35000113Y-71358643D01*
X34918391Y-71641707D01*
X34905728Y-71696792D01*
X34896185Y-71753793D01*
X34888308Y-71828522D01*
X34882099Y-71917552D01*
X34877561Y-72017457D01*
X34874697Y-72124809D01*
X34873509Y-72236182D01*
X34873998Y-72348149D01*
X34876169Y-72457283D01*
X34880022Y-72560157D01*
X34885561Y-72653345D01*
X34892787Y-72733420D01*
X34901704Y-72796955D01*
X34904937Y-72813333D01*
X34974775Y-73083184D01*
X35063529Y-73334824D01*
X35171949Y-73569739D01*
X35300783Y-73789415D01*
X35450783Y-73995336D01*
X35571972Y-74135554D01*
X35755088Y-74319991D01*
X35944324Y-74483724D01*
X36140303Y-74627088D01*
X36343648Y-74750415D01*
X36554979Y-74854038D01*
X36774919Y-74938292D01*
X37004091Y-75003508D01*
X37243116Y-75050020D01*
X37292621Y-75057171D01*
X37326139Y-75061479D01*
X37361274Y-75065155D01*
X37402049Y-75068249D01*
X37452487Y-75070811D01*
X37516610Y-75072890D01*
X37598440Y-75074537D01*
X37702001Y-75075802D01*
X37831315Y-75076735D01*
X37990404Y-75077385D01*
X38183291Y-75077804D01*
X38413998Y-75078040D01*
X38686549Y-75078144D01*
X38981317Y-75078167D01*
X40515976Y-75078167D01*
X40515976Y-77893333D01*
X41929843Y-77893333D01*
X41929843Y-73660553D01*
X39740830Y-73657631D01*
X37551816Y-73654708D01*
X37412766Y-73626888D01*
X37242245Y-73581629D01*
X37082976Y-73517336D01*
X36935738Y-73435664D01*
X36801315Y-73338268D01*
X36680488Y-73226804D01*
X36574037Y-73102927D01*
X36482746Y-72968293D01*
X36407394Y-72824557D01*
X36348765Y-72673374D01*
X36307639Y-72516401D01*
X36284798Y-72355292D01*
X36281024Y-72191704D01*
X36297098Y-72027290D01*
X36333802Y-71863708D01*
X36391917Y-71702611D01*
X36449192Y-71585927D01*
X36535106Y-71450980D01*
X36638528Y-71324763D01*
X36756826Y-71209336D01*
X36887371Y-71106757D01*
X37027532Y-71019086D01*
X37174679Y-70948381D01*
X37326182Y-70896702D01*
X37331401Y-70895298D01*
X37372143Y-70885124D01*
X37414958Y-70876410D01*
X37463849Y-70869043D01*
X37522816Y-70862911D01*
X37595861Y-70857900D01*
X37686985Y-70853897D01*
X37800190Y-70850789D01*
X37939478Y-70848463D01*
X38108849Y-70846806D01*
X38312306Y-70845705D01*
X38553850Y-70845047D01*
X38837482Y-70844718D01*
X39124850Y-70844611D01*
X40528379Y-70844390D01*
X41222910Y-70145753D01*
X41337266Y-70030695D01*
X41445978Y-69921265D01*
X41547489Y-69819034D01*
X41640242Y-69725571D01*
X41722680Y-69642449D01*
X41793246Y-69571236D01*
X41850383Y-69513504D01*
X41892534Y-69470823D01*
X41918142Y-69444762D01*
X41925709Y-69436891D01*
X41903235Y-69434972D01*
X41835348Y-69433246D01*
X41726246Y-69431710D01*
X41580122Y-69430363D01*
X41401173Y-69429203D01*
X41193593Y-69428228D01*
X40961579Y-69427436D01*
X40709326Y-69426826D01*
X40441029Y-69426396D01*
X40160884Y-69426144D01*
X39873085Y-69426067D01*
X39581830Y-69426165D01*
G37*
X39581830Y-69426165D02*
X39291312Y-69426435D01*
X39005728Y-69426875D01*
X38729272Y-69427485D01*
X38466141Y-69428263D01*
X38220530Y-69429205D01*
X37996634Y-69430311D01*
X37798649Y-69431579D01*
X37630769Y-69433006D01*
X37497191Y-69434592D01*
X37402110Y-69436334D01*
X37349722Y-69438231D01*
X37342737Y-69438859D01*
X37089264Y-69482929D01*
X36851109Y-69543631D01*
X36626115Y-69621839D01*
X36412125Y-69718423D01*
X36206981Y-69834256D01*
X36008525Y-69970207D01*
X35986904Y-69986508D01*
X35765936Y-70172247D01*
X35566875Y-70376263D01*
X35390244Y-70597732D01*
X35236559Y-70835833D01*
X35106343Y-71089744D01*
X35000113Y-71358643D01*
X34918391Y-71641707D01*
X34905728Y-71696792D01*
X34896185Y-71753793D01*
X34888308Y-71828522D01*
X34882099Y-71917552D01*
X34877561Y-72017457D01*
X34874697Y-72124809D01*
X34873509Y-72236182D01*
X34873998Y-72348149D01*
X34876169Y-72457283D01*
X34880022Y-72560157D01*
X34885561Y-72653345D01*
X34892787Y-72733420D01*
X34901704Y-72796955D01*
X34904937Y-72813333D01*
X34974775Y-73083184D01*
X35063529Y-73334824D01*
X35171949Y-73569739D01*
X35300783Y-73789415D01*
X35450783Y-73995336D01*
X35571972Y-74135554D01*
X35755088Y-74319991D01*
X35944324Y-74483724D01*
X36140303Y-74627088D01*
X36343648Y-74750415D01*
X36554979Y-74854038D01*
X36774919Y-74938292D01*
X37004091Y-75003508D01*
X37243116Y-75050020D01*
X37292621Y-75057171D01*
X37326139Y-75061479D01*
X37361274Y-75065155D01*
X37402049Y-75068249D01*
X37452487Y-75070811D01*
X37516610Y-75072890D01*
X37598440Y-75074537D01*
X37702001Y-75075802D01*
X37831315Y-75076735D01*
X37990404Y-75077385D01*
X38183291Y-75077804D01*
X38413998Y-75078040D01*
X38686549Y-75078144D01*
X38981317Y-75078167D01*
X40515976Y-75078167D01*
X40515976Y-77893333D01*
X41929843Y-77893333D01*
X41929843Y-73660553D01*
X39740830Y-73657631D01*
X37551816Y-73654708D01*
X37412766Y-73626888D01*
X37242245Y-73581629D01*
X37082976Y-73517336D01*
X36935738Y-73435664D01*
X36801315Y-73338268D01*
X36680488Y-73226804D01*
X36574037Y-73102927D01*
X36482746Y-72968293D01*
X36407394Y-72824557D01*
X36348765Y-72673374D01*
X36307639Y-72516401D01*
X36284798Y-72355292D01*
X36281024Y-72191704D01*
X36297098Y-72027290D01*
X36333802Y-71863708D01*
X36391917Y-71702611D01*
X36449192Y-71585927D01*
X36535106Y-71450980D01*
X36638528Y-71324763D01*
X36756826Y-71209336D01*
X36887371Y-71106757D01*
X37027532Y-71019086D01*
X37174679Y-70948381D01*
X37326182Y-70896702D01*
X37331401Y-70895298D01*
X37372143Y-70885124D01*
X37414958Y-70876410D01*
X37463849Y-70869043D01*
X37522816Y-70862911D01*
X37595861Y-70857900D01*
X37686985Y-70853897D01*
X37800190Y-70850789D01*
X37939478Y-70848463D01*
X38108849Y-70846806D01*
X38312306Y-70845705D01*
X38553850Y-70845047D01*
X38837482Y-70844718D01*
X39124850Y-70844611D01*
X40528379Y-70844390D01*
X41222910Y-70145753D01*
X41337266Y-70030695D01*
X41445978Y-69921265D01*
X41547489Y-69819034D01*
X41640242Y-69725571D01*
X41722680Y-69642449D01*
X41793246Y-69571236D01*
X41850383Y-69513504D01*
X41892534Y-69470823D01*
X41918142Y-69444762D01*
X41925709Y-69436891D01*
X41903235Y-69434972D01*
X41835348Y-69433246D01*
X41726246Y-69431710D01*
X41580122Y-69430363D01*
X41401173Y-69429203D01*
X41193593Y-69428228D01*
X40961579Y-69427436D01*
X40709326Y-69426826D01*
X40441029Y-69426396D01*
X40160884Y-69426144D01*
X39873085Y-69426067D01*
X39581830Y-69426165D01*
D12*
G04 #@! TO.C,R14*
X88765748Y-38279000D02*
X89288252Y-38279000D01*
X88765748Y-39699000D02*
X89288252Y-39699000D01*
G04 #@! TO.C,C14*
X96614064Y-93705000D02*
X95409936Y-93705000D01*
X96614064Y-95525000D02*
X95409936Y-95525000D01*
G04 #@! TO.C,R13*
X58853000Y-86606748D02*
X58853000Y-87129252D01*
X60273000Y-86606748D02*
X60273000Y-87129252D01*
G04 #@! TO.C,R12*
X53773000Y-86606748D02*
X53773000Y-87129252D01*
X55193000Y-86606748D02*
X55193000Y-87129252D01*
G04 #@! TO.C,R11*
X48693000Y-86606748D02*
X48693000Y-87129252D01*
X50113000Y-86606748D02*
X50113000Y-87129252D01*
G04 #@! TO.C,R10*
X43613000Y-86606748D02*
X43613000Y-87129252D01*
X45033000Y-86606748D02*
X45033000Y-87129252D01*
G04 #@! TO.C,R8*
X88765748Y-52399000D02*
X89288252Y-52399000D01*
X88765748Y-50979000D02*
X89288252Y-50979000D01*
G04 #@! TO.C,R7*
X88765748Y-65099000D02*
X89288252Y-65099000D01*
X88765748Y-63679000D02*
X89288252Y-63679000D01*
G04 #@! TO.C,R6*
X88756748Y-62559000D02*
X89279252Y-62559000D01*
X88756748Y-61139000D02*
X89279252Y-61139000D01*
G04 #@! TO.C,R5*
X88765748Y-60019000D02*
X89288252Y-60019000D01*
X88765748Y-58599000D02*
X89288252Y-58599000D01*
G04 #@! TO.C,R4*
X88756748Y-57479000D02*
X89279252Y-57479000D01*
X88756748Y-56059000D02*
X89279252Y-56059000D01*
G04 #@! TO.C,R3*
X88765748Y-54939000D02*
X89288252Y-54939000D01*
X88765748Y-53519000D02*
X89288252Y-53519000D01*
G04 #@! TO.C,R1*
X88765748Y-49859000D02*
X89288252Y-49859000D01*
X88765748Y-48439000D02*
X89288252Y-48439000D01*
G04 #@! TO.C,C2*
D14*
X11999142Y-86828333D02*
X12046761Y-86780714D01*
X12094380Y-86637857D01*
X12094380Y-86542619D01*
X12046761Y-86399761D01*
X11951523Y-86304523D01*
X11856285Y-86256904D01*
X11665809Y-86209285D01*
X11522952Y-86209285D01*
X11332476Y-86256904D01*
X11237238Y-86304523D01*
X11142000Y-86399761D01*
X11094380Y-86542619D01*
X11094380Y-86637857D01*
X11142000Y-86780714D01*
X11189619Y-86828333D01*
X11189619Y-87209285D02*
X11142000Y-87256904D01*
X11094380Y-87352142D01*
X11094380Y-87590238D01*
X11142000Y-87685476D01*
X11189619Y-87733095D01*
X11284857Y-87780714D01*
X11380095Y-87780714D01*
X11522952Y-87733095D01*
X12094380Y-87161666D01*
X12094380Y-87780714D01*
G04 #@! TO.C,C5*
X55792666Y-75329142D02*
X55840285Y-75376761D01*
X55983142Y-75424380D01*
X56078380Y-75424380D01*
X56221238Y-75376761D01*
X56316476Y-75281523D01*
X56364095Y-75186285D01*
X56411714Y-74995809D01*
X56411714Y-74852952D01*
X56364095Y-74662476D01*
X56316476Y-74567238D01*
X56221238Y-74472000D01*
X56078380Y-74424380D01*
X55983142Y-74424380D01*
X55840285Y-74472000D01*
X55792666Y-74519619D01*
X54887904Y-74424380D02*
X55364095Y-74424380D01*
X55411714Y-74900571D01*
X55364095Y-74852952D01*
X55268857Y-74805333D01*
X55030761Y-74805333D01*
X54935523Y-74852952D01*
X54887904Y-74900571D01*
X54840285Y-74995809D01*
X54840285Y-75233904D01*
X54887904Y-75329142D01*
X54935523Y-75376761D01*
X55030761Y-75424380D01*
X55268857Y-75424380D01*
X55364095Y-75376761D01*
X55411714Y-75329142D01*
G04 #@! TO.C,C4*
X71032666Y-77424642D02*
X71080285Y-77472261D01*
X71223142Y-77519880D01*
X71318380Y-77519880D01*
X71461238Y-77472261D01*
X71556476Y-77377023D01*
X71604095Y-77281785D01*
X71651714Y-77091309D01*
X71651714Y-76948452D01*
X71604095Y-76757976D01*
X71556476Y-76662738D01*
X71461238Y-76567500D01*
X71318380Y-76519880D01*
X71223142Y-76519880D01*
X71080285Y-76567500D01*
X71032666Y-76615119D01*
X70175523Y-76853214D02*
X70175523Y-77519880D01*
X70413619Y-76472261D02*
X70651714Y-77186547D01*
X70032666Y-77186547D01*
G04 #@! TO.C,R14*
X89669857Y-41091380D02*
X90003190Y-40615190D01*
X90241285Y-41091380D02*
X90241285Y-40091380D01*
X89860333Y-40091380D01*
X89765095Y-40139000D01*
X89717476Y-40186619D01*
X89669857Y-40281857D01*
X89669857Y-40424714D01*
X89717476Y-40519952D01*
X89765095Y-40567571D01*
X89860333Y-40615190D01*
X90241285Y-40615190D01*
X88717476Y-41091380D02*
X89288904Y-41091380D01*
X89003190Y-41091380D02*
X89003190Y-40091380D01*
X89098428Y-40234238D01*
X89193666Y-40329476D01*
X89288904Y-40377095D01*
X87860333Y-40424714D02*
X87860333Y-41091380D01*
X88098428Y-40043761D02*
X88336523Y-40758047D01*
X87717476Y-40758047D01*
G04 #@! TO.C,C14*
X96654857Y-93152142D02*
X96702476Y-93199761D01*
X96845333Y-93247380D01*
X96940571Y-93247380D01*
X97083428Y-93199761D01*
X97178666Y-93104523D01*
X97226285Y-93009285D01*
X97273904Y-92818809D01*
X97273904Y-92675952D01*
X97226285Y-92485476D01*
X97178666Y-92390238D01*
X97083428Y-92295000D01*
X96940571Y-92247380D01*
X96845333Y-92247380D01*
X96702476Y-92295000D01*
X96654857Y-92342619D01*
X95702476Y-93247380D02*
X96273904Y-93247380D01*
X95988190Y-93247380D02*
X95988190Y-92247380D01*
X96083428Y-92390238D01*
X96178666Y-92485476D01*
X96273904Y-92533095D01*
X94845333Y-92580714D02*
X94845333Y-93247380D01*
X95083428Y-92199761D02*
X95321523Y-92914047D01*
X94702476Y-92914047D01*
G04 #@! TO.C,R13*
X59888380Y-86225142D02*
X59412190Y-85891809D01*
X59888380Y-85653714D02*
X58888380Y-85653714D01*
X58888380Y-86034666D01*
X58936000Y-86129904D01*
X58983619Y-86177523D01*
X59078857Y-86225142D01*
X59221714Y-86225142D01*
X59316952Y-86177523D01*
X59364571Y-86129904D01*
X59412190Y-86034666D01*
X59412190Y-85653714D01*
X59888380Y-87177523D02*
X59888380Y-86606095D01*
X59888380Y-86891809D02*
X58888380Y-86891809D01*
X59031238Y-86796571D01*
X59126476Y-86701333D01*
X59174095Y-86606095D01*
X58888380Y-87510857D02*
X58888380Y-88129904D01*
X59269333Y-87796571D01*
X59269333Y-87939428D01*
X59316952Y-88034666D01*
X59364571Y-88082285D01*
X59459809Y-88129904D01*
X59697904Y-88129904D01*
X59793142Y-88082285D01*
X59840761Y-88034666D01*
X59888380Y-87939428D01*
X59888380Y-87653714D01*
X59840761Y-87558476D01*
X59793142Y-87510857D01*
G04 #@! TO.C,R12*
X54935380Y-86225142D02*
X54459190Y-85891809D01*
X54935380Y-85653714D02*
X53935380Y-85653714D01*
X53935380Y-86034666D01*
X53983000Y-86129904D01*
X54030619Y-86177523D01*
X54125857Y-86225142D01*
X54268714Y-86225142D01*
X54363952Y-86177523D01*
X54411571Y-86129904D01*
X54459190Y-86034666D01*
X54459190Y-85653714D01*
X54935380Y-87177523D02*
X54935380Y-86606095D01*
X54935380Y-86891809D02*
X53935380Y-86891809D01*
X54078238Y-86796571D01*
X54173476Y-86701333D01*
X54221095Y-86606095D01*
X54030619Y-87558476D02*
X53983000Y-87606095D01*
X53935380Y-87701333D01*
X53935380Y-87939428D01*
X53983000Y-88034666D01*
X54030619Y-88082285D01*
X54125857Y-88129904D01*
X54221095Y-88129904D01*
X54363952Y-88082285D01*
X54935380Y-87510857D01*
X54935380Y-88129904D01*
G04 #@! TO.C,R11*
X49855380Y-86225142D02*
X49379190Y-85891809D01*
X49855380Y-85653714D02*
X48855380Y-85653714D01*
X48855380Y-86034666D01*
X48903000Y-86129904D01*
X48950619Y-86177523D01*
X49045857Y-86225142D01*
X49188714Y-86225142D01*
X49283952Y-86177523D01*
X49331571Y-86129904D01*
X49379190Y-86034666D01*
X49379190Y-85653714D01*
X49855380Y-87177523D02*
X49855380Y-86606095D01*
X49855380Y-86891809D02*
X48855380Y-86891809D01*
X48998238Y-86796571D01*
X49093476Y-86701333D01*
X49141095Y-86606095D01*
X49855380Y-88129904D02*
X49855380Y-87558476D01*
X49855380Y-87844190D02*
X48855380Y-87844190D01*
X48998238Y-87748952D01*
X49093476Y-87653714D01*
X49141095Y-87558476D01*
G04 #@! TO.C,R10*
X44775380Y-86225142D02*
X44299190Y-85891809D01*
X44775380Y-85653714D02*
X43775380Y-85653714D01*
X43775380Y-86034666D01*
X43823000Y-86129904D01*
X43870619Y-86177523D01*
X43965857Y-86225142D01*
X44108714Y-86225142D01*
X44203952Y-86177523D01*
X44251571Y-86129904D01*
X44299190Y-86034666D01*
X44299190Y-85653714D01*
X44775380Y-87177523D02*
X44775380Y-86606095D01*
X44775380Y-86891809D02*
X43775380Y-86891809D01*
X43918238Y-86796571D01*
X44013476Y-86701333D01*
X44061095Y-86606095D01*
X43775380Y-87796571D02*
X43775380Y-87891809D01*
X43823000Y-87987047D01*
X43870619Y-88034666D01*
X43965857Y-88082285D01*
X44156333Y-88129904D01*
X44394428Y-88129904D01*
X44584904Y-88082285D01*
X44680142Y-88034666D01*
X44727761Y-87987047D01*
X44775380Y-87891809D01*
X44775380Y-87796571D01*
X44727761Y-87701333D01*
X44680142Y-87653714D01*
X44584904Y-87606095D01*
X44394428Y-87558476D01*
X44156333Y-87558476D01*
X43965857Y-87606095D01*
X43870619Y-87653714D01*
X43823000Y-87701333D01*
X43775380Y-87796571D01*
G04 #@! TO.C,R8*
X89193666Y-53791380D02*
X89527000Y-53315190D01*
X89765095Y-53791380D02*
X89765095Y-52791380D01*
X89384142Y-52791380D01*
X89288904Y-52839000D01*
X89241285Y-52886619D01*
X89193666Y-52981857D01*
X89193666Y-53124714D01*
X89241285Y-53219952D01*
X89288904Y-53267571D01*
X89384142Y-53315190D01*
X89765095Y-53315190D01*
X88622238Y-53219952D02*
X88717476Y-53172333D01*
X88765095Y-53124714D01*
X88812714Y-53029476D01*
X88812714Y-52981857D01*
X88765095Y-52886619D01*
X88717476Y-52839000D01*
X88622238Y-52791380D01*
X88431761Y-52791380D01*
X88336523Y-52839000D01*
X88288904Y-52886619D01*
X88241285Y-52981857D01*
X88241285Y-53029476D01*
X88288904Y-53124714D01*
X88336523Y-53172333D01*
X88431761Y-53219952D01*
X88622238Y-53219952D01*
X88717476Y-53267571D01*
X88765095Y-53315190D01*
X88812714Y-53410428D01*
X88812714Y-53600904D01*
X88765095Y-53696142D01*
X88717476Y-53743761D01*
X88622238Y-53791380D01*
X88431761Y-53791380D01*
X88336523Y-53743761D01*
X88288904Y-53696142D01*
X88241285Y-53600904D01*
X88241285Y-53410428D01*
X88288904Y-53315190D01*
X88336523Y-53267571D01*
X88431761Y-53219952D01*
G04 #@! TO.C,R7*
X89193666Y-66491380D02*
X89527000Y-66015190D01*
X89765095Y-66491380D02*
X89765095Y-65491380D01*
X89384142Y-65491380D01*
X89288904Y-65539000D01*
X89241285Y-65586619D01*
X89193666Y-65681857D01*
X89193666Y-65824714D01*
X89241285Y-65919952D01*
X89288904Y-65967571D01*
X89384142Y-66015190D01*
X89765095Y-66015190D01*
X88860333Y-65491380D02*
X88193666Y-65491380D01*
X88622238Y-66491380D01*
G04 #@! TO.C,R6*
X89184666Y-63951380D02*
X89518000Y-63475190D01*
X89756095Y-63951380D02*
X89756095Y-62951380D01*
X89375142Y-62951380D01*
X89279904Y-62999000D01*
X89232285Y-63046619D01*
X89184666Y-63141857D01*
X89184666Y-63284714D01*
X89232285Y-63379952D01*
X89279904Y-63427571D01*
X89375142Y-63475190D01*
X89756095Y-63475190D01*
X88327523Y-62951380D02*
X88518000Y-62951380D01*
X88613238Y-62999000D01*
X88660857Y-63046619D01*
X88756095Y-63189476D01*
X88803714Y-63379952D01*
X88803714Y-63760904D01*
X88756095Y-63856142D01*
X88708476Y-63903761D01*
X88613238Y-63951380D01*
X88422761Y-63951380D01*
X88327523Y-63903761D01*
X88279904Y-63856142D01*
X88232285Y-63760904D01*
X88232285Y-63522809D01*
X88279904Y-63427571D01*
X88327523Y-63379952D01*
X88422761Y-63332333D01*
X88613238Y-63332333D01*
X88708476Y-63379952D01*
X88756095Y-63427571D01*
X88803714Y-63522809D01*
G04 #@! TO.C,R5*
X89193666Y-61411380D02*
X89527000Y-60935190D01*
X89765095Y-61411380D02*
X89765095Y-60411380D01*
X89384142Y-60411380D01*
X89288904Y-60459000D01*
X89241285Y-60506619D01*
X89193666Y-60601857D01*
X89193666Y-60744714D01*
X89241285Y-60839952D01*
X89288904Y-60887571D01*
X89384142Y-60935190D01*
X89765095Y-60935190D01*
X88288904Y-60411380D02*
X88765095Y-60411380D01*
X88812714Y-60887571D01*
X88765095Y-60839952D01*
X88669857Y-60792333D01*
X88431761Y-60792333D01*
X88336523Y-60839952D01*
X88288904Y-60887571D01*
X88241285Y-60982809D01*
X88241285Y-61220904D01*
X88288904Y-61316142D01*
X88336523Y-61363761D01*
X88431761Y-61411380D01*
X88669857Y-61411380D01*
X88765095Y-61363761D01*
X88812714Y-61316142D01*
G04 #@! TO.C,R4*
X89184666Y-58871380D02*
X89518000Y-58395190D01*
X89756095Y-58871380D02*
X89756095Y-57871380D01*
X89375142Y-57871380D01*
X89279904Y-57919000D01*
X89232285Y-57966619D01*
X89184666Y-58061857D01*
X89184666Y-58204714D01*
X89232285Y-58299952D01*
X89279904Y-58347571D01*
X89375142Y-58395190D01*
X89756095Y-58395190D01*
X88327523Y-58204714D02*
X88327523Y-58871380D01*
X88565619Y-57823761D02*
X88803714Y-58538047D01*
X88184666Y-58538047D01*
G04 #@! TO.C,R3*
X89193666Y-56331380D02*
X89527000Y-55855190D01*
X89765095Y-56331380D02*
X89765095Y-55331380D01*
X89384142Y-55331380D01*
X89288904Y-55379000D01*
X89241285Y-55426619D01*
X89193666Y-55521857D01*
X89193666Y-55664714D01*
X89241285Y-55759952D01*
X89288904Y-55807571D01*
X89384142Y-55855190D01*
X89765095Y-55855190D01*
X88860333Y-55331380D02*
X88241285Y-55331380D01*
X88574619Y-55712333D01*
X88431761Y-55712333D01*
X88336523Y-55759952D01*
X88288904Y-55807571D01*
X88241285Y-55902809D01*
X88241285Y-56140904D01*
X88288904Y-56236142D01*
X88336523Y-56283761D01*
X88431761Y-56331380D01*
X88717476Y-56331380D01*
X88812714Y-56283761D01*
X88860333Y-56236142D01*
G04 #@! TO.C,R1*
X89193666Y-51251380D02*
X89527000Y-50775190D01*
X89765095Y-51251380D02*
X89765095Y-50251380D01*
X89384142Y-50251380D01*
X89288904Y-50299000D01*
X89241285Y-50346619D01*
X89193666Y-50441857D01*
X89193666Y-50584714D01*
X89241285Y-50679952D01*
X89288904Y-50727571D01*
X89384142Y-50775190D01*
X89765095Y-50775190D01*
X88241285Y-51251380D02*
X88812714Y-51251380D01*
X88527000Y-51251380D02*
X88527000Y-50251380D01*
X88622238Y-50394238D01*
X88717476Y-50489476D01*
X88812714Y-50537095D01*
G04 #@! TD*
M02*
