G04 #@! TF.GenerationSoftware,KiCad,Pcbnew,(5.1.6-0-10_14)*
G04 #@! TF.CreationDate,2021-03-04T13:25:14+01:00*
G04 #@! TF.ProjectId,backplane,6261636b-706c-4616-9e65-2e6b69636164,rev?*
G04 #@! TF.SameCoordinates,Original*
G04 #@! TF.FileFunction,Soldermask,Top*
G04 #@! TF.FilePolarity,Negative*
%FSLAX46Y46*%
G04 Gerber Fmt 4.6, Leading zero omitted, Abs format (unit mm)*
G04 Created by KiCad (PCBNEW (5.1.6-0-10_14)) date 2021-03-04 13:25:14*
%MOMM*%
%LPD*%
G01*
G04 APERTURE LIST*
%ADD10C,6.500000*%
%ADD11O,1.800000X1.800000*%
%ADD12R,1.800000X1.800000*%
%ADD13C,1.700000*%
%ADD14R,1.700000X1.700000*%
%ADD15R,2.000000X1.300000*%
%ADD16O,2.000000X1.300000*%
%ADD17R,2.000000X1.600000*%
%ADD18C,1.550000*%
%ADD19R,1.450000X0.500000*%
%ADD20O,1.700000X1.700000*%
%ADD21C,2.100000*%
%ADD22R,1.500000X1.100000*%
%ADD23R,1.500000X1.300000*%
G04 APERTURE END LIST*
D10*
G04 #@! TO.C,H4*
X96139000Y-83312000D03*
G04 #@! TD*
G04 #@! TO.C,H3*
X10795000Y-3810000D03*
G04 #@! TD*
G04 #@! TO.C,H2*
X4064000Y-95948500D03*
G04 #@! TD*
G04 #@! TO.C,H1*
X86677500Y-3810000D03*
G04 #@! TD*
G04 #@! TO.C,R18*
G36*
G01*
X43897500Y-75090762D02*
X43897500Y-74134238D01*
G75*
G02*
X44169238Y-73862500I271738J0D01*
G01*
X44875762Y-73862500D01*
G75*
G02*
X45147500Y-74134238I0J-271738D01*
G01*
X45147500Y-75090762D01*
G75*
G02*
X44875762Y-75362500I-271738J0D01*
G01*
X44169238Y-75362500D01*
G75*
G02*
X43897500Y-75090762I0J271738D01*
G01*
G37*
G36*
G01*
X41847500Y-75090762D02*
X41847500Y-74134238D01*
G75*
G02*
X42119238Y-73862500I271738J0D01*
G01*
X42825762Y-73862500D01*
G75*
G02*
X43097500Y-74134238I0J-271738D01*
G01*
X43097500Y-75090762D01*
G75*
G02*
X42825762Y-75362500I-271738J0D01*
G01*
X42119238Y-75362500D01*
G75*
G02*
X41847500Y-75090762I0J271738D01*
G01*
G37*
G04 #@! TD*
G04 #@! TO.C,R17*
G36*
G01*
X43897500Y-77313262D02*
X43897500Y-76356738D01*
G75*
G02*
X44169238Y-76085000I271738J0D01*
G01*
X44875762Y-76085000D01*
G75*
G02*
X45147500Y-76356738I0J-271738D01*
G01*
X45147500Y-77313262D01*
G75*
G02*
X44875762Y-77585000I-271738J0D01*
G01*
X44169238Y-77585000D01*
G75*
G02*
X43897500Y-77313262I0J271738D01*
G01*
G37*
G36*
G01*
X41847500Y-77313262D02*
X41847500Y-76356738D01*
G75*
G02*
X42119238Y-76085000I271738J0D01*
G01*
X42825762Y-76085000D01*
G75*
G02*
X43097500Y-76356738I0J-271738D01*
G01*
X43097500Y-77313262D01*
G75*
G02*
X42825762Y-77585000I-271738J0D01*
G01*
X42119238Y-77585000D01*
G75*
G02*
X41847500Y-77313262I0J271738D01*
G01*
G37*
G04 #@! TD*
G04 #@! TO.C,D7*
G36*
G01*
X31324500Y-29434262D02*
X31324500Y-28477738D01*
G75*
G02*
X31596238Y-28206000I271738J0D01*
G01*
X32302762Y-28206000D01*
G75*
G02*
X32574500Y-28477738I0J-271738D01*
G01*
X32574500Y-29434262D01*
G75*
G02*
X32302762Y-29706000I-271738J0D01*
G01*
X31596238Y-29706000D01*
G75*
G02*
X31324500Y-29434262I0J271738D01*
G01*
G37*
G36*
G01*
X29274500Y-29434262D02*
X29274500Y-28477738D01*
G75*
G02*
X29546238Y-28206000I271738J0D01*
G01*
X30252762Y-28206000D01*
G75*
G02*
X30524500Y-28477738I0J-271738D01*
G01*
X30524500Y-29434262D01*
G75*
G02*
X30252762Y-29706000I-271738J0D01*
G01*
X29546238Y-29706000D01*
G75*
G02*
X29274500Y-29434262I0J271738D01*
G01*
G37*
G04 #@! TD*
G04 #@! TO.C,D6*
G36*
G01*
X49358500Y-29497762D02*
X49358500Y-28541238D01*
G75*
G02*
X49630238Y-28269500I271738J0D01*
G01*
X50336762Y-28269500D01*
G75*
G02*
X50608500Y-28541238I0J-271738D01*
G01*
X50608500Y-29497762D01*
G75*
G02*
X50336762Y-29769500I-271738J0D01*
G01*
X49630238Y-29769500D01*
G75*
G02*
X49358500Y-29497762I0J271738D01*
G01*
G37*
G36*
G01*
X47308500Y-29497762D02*
X47308500Y-28541238D01*
G75*
G02*
X47580238Y-28269500I271738J0D01*
G01*
X48286762Y-28269500D01*
G75*
G02*
X48558500Y-28541238I0J-271738D01*
G01*
X48558500Y-29497762D01*
G75*
G02*
X48286762Y-29769500I-271738J0D01*
G01*
X47580238Y-29769500D01*
G75*
G02*
X47308500Y-29497762I0J271738D01*
G01*
G37*
G04 #@! TD*
G04 #@! TO.C,D5*
G36*
G01*
X11855500Y-28731738D02*
X11855500Y-29688262D01*
G75*
G02*
X11583762Y-29960000I-271738J0D01*
G01*
X10877238Y-29960000D01*
G75*
G02*
X10605500Y-29688262I0J271738D01*
G01*
X10605500Y-28731738D01*
G75*
G02*
X10877238Y-28460000I271738J0D01*
G01*
X11583762Y-28460000D01*
G75*
G02*
X11855500Y-28731738I0J-271738D01*
G01*
G37*
G36*
G01*
X13905500Y-28731738D02*
X13905500Y-29688262D01*
G75*
G02*
X13633762Y-29960000I-271738J0D01*
G01*
X12927238Y-29960000D01*
G75*
G02*
X12655500Y-29688262I0J271738D01*
G01*
X12655500Y-28731738D01*
G75*
G02*
X12927238Y-28460000I271738J0D01*
G01*
X13633762Y-28460000D01*
G75*
G02*
X13905500Y-28731738I0J-271738D01*
G01*
G37*
G04 #@! TD*
G04 #@! TO.C,D4*
G36*
G01*
X66821000Y-29307262D02*
X66821000Y-28350738D01*
G75*
G02*
X67092738Y-28079000I271738J0D01*
G01*
X67799262Y-28079000D01*
G75*
G02*
X68071000Y-28350738I0J-271738D01*
G01*
X68071000Y-29307262D01*
G75*
G02*
X67799262Y-29579000I-271738J0D01*
G01*
X67092738Y-29579000D01*
G75*
G02*
X66821000Y-29307262I0J271738D01*
G01*
G37*
G36*
G01*
X64771000Y-29307262D02*
X64771000Y-28350738D01*
G75*
G02*
X65042738Y-28079000I271738J0D01*
G01*
X65749262Y-28079000D01*
G75*
G02*
X66021000Y-28350738I0J-271738D01*
G01*
X66021000Y-29307262D01*
G75*
G02*
X65749262Y-29579000I-271738J0D01*
G01*
X65042738Y-29579000D01*
G75*
G02*
X64771000Y-29307262I0J271738D01*
G01*
G37*
G04 #@! TD*
G04 #@! TO.C,D3*
G36*
G01*
X89490500Y-29243762D02*
X89490500Y-28287238D01*
G75*
G02*
X89762238Y-28015500I271738J0D01*
G01*
X90468762Y-28015500D01*
G75*
G02*
X90740500Y-28287238I0J-271738D01*
G01*
X90740500Y-29243762D01*
G75*
G02*
X90468762Y-29515500I-271738J0D01*
G01*
X89762238Y-29515500D01*
G75*
G02*
X89490500Y-29243762I0J271738D01*
G01*
G37*
G36*
G01*
X87440500Y-29243762D02*
X87440500Y-28287238D01*
G75*
G02*
X87712238Y-28015500I271738J0D01*
G01*
X88418762Y-28015500D01*
G75*
G02*
X88690500Y-28287238I0J-271738D01*
G01*
X88690500Y-29243762D01*
G75*
G02*
X88418762Y-29515500I-271738J0D01*
G01*
X87712238Y-29515500D01*
G75*
G02*
X87440500Y-29243762I0J271738D01*
G01*
G37*
G04 #@! TD*
G04 #@! TO.C,D2*
G36*
G01*
X16774000Y-28672262D02*
X16774000Y-27715738D01*
G75*
G02*
X17045738Y-27444000I271738J0D01*
G01*
X17752262Y-27444000D01*
G75*
G02*
X18024000Y-27715738I0J-271738D01*
G01*
X18024000Y-28672262D01*
G75*
G02*
X17752262Y-28944000I-271738J0D01*
G01*
X17045738Y-28944000D01*
G75*
G02*
X16774000Y-28672262I0J271738D01*
G01*
G37*
G36*
G01*
X14724000Y-28672262D02*
X14724000Y-27715738D01*
G75*
G02*
X14995738Y-27444000I271738J0D01*
G01*
X15702262Y-27444000D01*
G75*
G02*
X15974000Y-27715738I0J-271738D01*
G01*
X15974000Y-28672262D01*
G75*
G02*
X15702262Y-28944000I-271738J0D01*
G01*
X14995738Y-28944000D01*
G75*
G02*
X14724000Y-28672262I0J271738D01*
G01*
G37*
G04 #@! TD*
D11*
G04 #@! TO.C,J2*
X47434500Y-74485500D03*
X47434500Y-71945500D03*
X49974500Y-74485500D03*
D12*
X49974500Y-71945500D03*
G04 #@! TD*
G04 #@! TO.C,U1*
G36*
G01*
X54150000Y-71702000D02*
X53800000Y-71702000D01*
G75*
G02*
X53625000Y-71527000I0J175000D01*
G01*
X53625000Y-69827000D01*
G75*
G02*
X53800000Y-69652000I175000J0D01*
G01*
X54150000Y-69652000D01*
G75*
G02*
X54325000Y-69827000I0J-175000D01*
G01*
X54325000Y-71527000D01*
G75*
G02*
X54150000Y-71702000I-175000J0D01*
G01*
G37*
G36*
G01*
X55420000Y-71702000D02*
X55070000Y-71702000D01*
G75*
G02*
X54895000Y-71527000I0J175000D01*
G01*
X54895000Y-69827000D01*
G75*
G02*
X55070000Y-69652000I175000J0D01*
G01*
X55420000Y-69652000D01*
G75*
G02*
X55595000Y-69827000I0J-175000D01*
G01*
X55595000Y-71527000D01*
G75*
G02*
X55420000Y-71702000I-175000J0D01*
G01*
G37*
G36*
G01*
X56690000Y-71702000D02*
X56340000Y-71702000D01*
G75*
G02*
X56165000Y-71527000I0J175000D01*
G01*
X56165000Y-69827000D01*
G75*
G02*
X56340000Y-69652000I175000J0D01*
G01*
X56690000Y-69652000D01*
G75*
G02*
X56865000Y-69827000I0J-175000D01*
G01*
X56865000Y-71527000D01*
G75*
G02*
X56690000Y-71702000I-175000J0D01*
G01*
G37*
G36*
G01*
X57960000Y-71702000D02*
X57610000Y-71702000D01*
G75*
G02*
X57435000Y-71527000I0J175000D01*
G01*
X57435000Y-69827000D01*
G75*
G02*
X57610000Y-69652000I175000J0D01*
G01*
X57960000Y-69652000D01*
G75*
G02*
X58135000Y-69827000I0J-175000D01*
G01*
X58135000Y-71527000D01*
G75*
G02*
X57960000Y-71702000I-175000J0D01*
G01*
G37*
G36*
G01*
X59230000Y-71702000D02*
X58880000Y-71702000D01*
G75*
G02*
X58705000Y-71527000I0J175000D01*
G01*
X58705000Y-69827000D01*
G75*
G02*
X58880000Y-69652000I175000J0D01*
G01*
X59230000Y-69652000D01*
G75*
G02*
X59405000Y-69827000I0J-175000D01*
G01*
X59405000Y-71527000D01*
G75*
G02*
X59230000Y-71702000I-175000J0D01*
G01*
G37*
G36*
G01*
X60500000Y-71702000D02*
X60150000Y-71702000D01*
G75*
G02*
X59975000Y-71527000I0J175000D01*
G01*
X59975000Y-69827000D01*
G75*
G02*
X60150000Y-69652000I175000J0D01*
G01*
X60500000Y-69652000D01*
G75*
G02*
X60675000Y-69827000I0J-175000D01*
G01*
X60675000Y-71527000D01*
G75*
G02*
X60500000Y-71702000I-175000J0D01*
G01*
G37*
G36*
G01*
X61770000Y-71702000D02*
X61420000Y-71702000D01*
G75*
G02*
X61245000Y-71527000I0J175000D01*
G01*
X61245000Y-69827000D01*
G75*
G02*
X61420000Y-69652000I175000J0D01*
G01*
X61770000Y-69652000D01*
G75*
G02*
X61945000Y-69827000I0J-175000D01*
G01*
X61945000Y-71527000D01*
G75*
G02*
X61770000Y-71702000I-175000J0D01*
G01*
G37*
G36*
G01*
X63040000Y-71702000D02*
X62690000Y-71702000D01*
G75*
G02*
X62515000Y-71527000I0J175000D01*
G01*
X62515000Y-69827000D01*
G75*
G02*
X62690000Y-69652000I175000J0D01*
G01*
X63040000Y-69652000D01*
G75*
G02*
X63215000Y-69827000I0J-175000D01*
G01*
X63215000Y-71527000D01*
G75*
G02*
X63040000Y-71702000I-175000J0D01*
G01*
G37*
G36*
G01*
X63040000Y-76652000D02*
X62690000Y-76652000D01*
G75*
G02*
X62515000Y-76477000I0J175000D01*
G01*
X62515000Y-74777000D01*
G75*
G02*
X62690000Y-74602000I175000J0D01*
G01*
X63040000Y-74602000D01*
G75*
G02*
X63215000Y-74777000I0J-175000D01*
G01*
X63215000Y-76477000D01*
G75*
G02*
X63040000Y-76652000I-175000J0D01*
G01*
G37*
G36*
G01*
X61770000Y-76652000D02*
X61420000Y-76652000D01*
G75*
G02*
X61245000Y-76477000I0J175000D01*
G01*
X61245000Y-74777000D01*
G75*
G02*
X61420000Y-74602000I175000J0D01*
G01*
X61770000Y-74602000D01*
G75*
G02*
X61945000Y-74777000I0J-175000D01*
G01*
X61945000Y-76477000D01*
G75*
G02*
X61770000Y-76652000I-175000J0D01*
G01*
G37*
G36*
G01*
X60500000Y-76652000D02*
X60150000Y-76652000D01*
G75*
G02*
X59975000Y-76477000I0J175000D01*
G01*
X59975000Y-74777000D01*
G75*
G02*
X60150000Y-74602000I175000J0D01*
G01*
X60500000Y-74602000D01*
G75*
G02*
X60675000Y-74777000I0J-175000D01*
G01*
X60675000Y-76477000D01*
G75*
G02*
X60500000Y-76652000I-175000J0D01*
G01*
G37*
G36*
G01*
X59230000Y-76652000D02*
X58880000Y-76652000D01*
G75*
G02*
X58705000Y-76477000I0J175000D01*
G01*
X58705000Y-74777000D01*
G75*
G02*
X58880000Y-74602000I175000J0D01*
G01*
X59230000Y-74602000D01*
G75*
G02*
X59405000Y-74777000I0J-175000D01*
G01*
X59405000Y-76477000D01*
G75*
G02*
X59230000Y-76652000I-175000J0D01*
G01*
G37*
G36*
G01*
X57960000Y-76652000D02*
X57610000Y-76652000D01*
G75*
G02*
X57435000Y-76477000I0J175000D01*
G01*
X57435000Y-74777000D01*
G75*
G02*
X57610000Y-74602000I175000J0D01*
G01*
X57960000Y-74602000D01*
G75*
G02*
X58135000Y-74777000I0J-175000D01*
G01*
X58135000Y-76477000D01*
G75*
G02*
X57960000Y-76652000I-175000J0D01*
G01*
G37*
G36*
G01*
X56690000Y-76652000D02*
X56340000Y-76652000D01*
G75*
G02*
X56165000Y-76477000I0J175000D01*
G01*
X56165000Y-74777000D01*
G75*
G02*
X56340000Y-74602000I175000J0D01*
G01*
X56690000Y-74602000D01*
G75*
G02*
X56865000Y-74777000I0J-175000D01*
G01*
X56865000Y-76477000D01*
G75*
G02*
X56690000Y-76652000I-175000J0D01*
G01*
G37*
G36*
G01*
X55420000Y-76652000D02*
X55070000Y-76652000D01*
G75*
G02*
X54895000Y-76477000I0J175000D01*
G01*
X54895000Y-74777000D01*
G75*
G02*
X55070000Y-74602000I175000J0D01*
G01*
X55420000Y-74602000D01*
G75*
G02*
X55595000Y-74777000I0J-175000D01*
G01*
X55595000Y-76477000D01*
G75*
G02*
X55420000Y-76652000I-175000J0D01*
G01*
G37*
G36*
G01*
X54150000Y-76652000D02*
X53800000Y-76652000D01*
G75*
G02*
X53625000Y-76477000I0J175000D01*
G01*
X53625000Y-74777000D01*
G75*
G02*
X53800000Y-74602000I175000J0D01*
G01*
X54150000Y-74602000D01*
G75*
G02*
X54325000Y-74777000I0J-175000D01*
G01*
X54325000Y-76477000D01*
G75*
G02*
X54150000Y-76652000I-175000J0D01*
G01*
G37*
G04 #@! TD*
G04 #@! TO.C,R16*
G36*
G01*
X64799738Y-88284000D02*
X65756262Y-88284000D01*
G75*
G02*
X66028000Y-88555738I0J-271738D01*
G01*
X66028000Y-89262262D01*
G75*
G02*
X65756262Y-89534000I-271738J0D01*
G01*
X64799738Y-89534000D01*
G75*
G02*
X64528000Y-89262262I0J271738D01*
G01*
X64528000Y-88555738D01*
G75*
G02*
X64799738Y-88284000I271738J0D01*
G01*
G37*
G36*
G01*
X64799738Y-86234000D02*
X65756262Y-86234000D01*
G75*
G02*
X66028000Y-86505738I0J-271738D01*
G01*
X66028000Y-87212262D01*
G75*
G02*
X65756262Y-87484000I-271738J0D01*
G01*
X64799738Y-87484000D01*
G75*
G02*
X64528000Y-87212262I0J271738D01*
G01*
X64528000Y-86505738D01*
G75*
G02*
X64799738Y-86234000I271738J0D01*
G01*
G37*
G04 #@! TD*
G04 #@! TO.C,R15*
G36*
G01*
X83976738Y-36849000D02*
X84933262Y-36849000D01*
G75*
G02*
X85205000Y-37120738I0J-271738D01*
G01*
X85205000Y-37827262D01*
G75*
G02*
X84933262Y-38099000I-271738J0D01*
G01*
X83976738Y-38099000D01*
G75*
G02*
X83705000Y-37827262I0J271738D01*
G01*
X83705000Y-37120738D01*
G75*
G02*
X83976738Y-36849000I271738J0D01*
G01*
G37*
G36*
G01*
X83976738Y-34799000D02*
X84933262Y-34799000D01*
G75*
G02*
X85205000Y-35070738I0J-271738D01*
G01*
X85205000Y-35777262D01*
G75*
G02*
X84933262Y-36049000I-271738J0D01*
G01*
X83976738Y-36049000D01*
G75*
G02*
X83705000Y-35777262I0J271738D01*
G01*
X83705000Y-35070738D01*
G75*
G02*
X83976738Y-34799000I271738J0D01*
G01*
G37*
G04 #@! TD*
D13*
G04 #@! TO.C,X1*
X76962000Y-80327500D03*
X76962000Y-72707500D03*
X69342000Y-72707500D03*
D14*
X69342000Y-80327500D03*
G04 #@! TD*
D15*
G04 #@! TO.C,J1*
X1493000Y-84031500D03*
X1493000Y-89831500D03*
D16*
X1493000Y-90431500D03*
X1493000Y-83431500D03*
D17*
X1493000Y-85931500D03*
D18*
X4193000Y-89431500D03*
D19*
X4193000Y-86931500D03*
X4193000Y-87581500D03*
X4193000Y-88231500D03*
X4193000Y-85631500D03*
X4193000Y-86281500D03*
D18*
X4193000Y-84431500D03*
D17*
X1493000Y-87931500D03*
G04 #@! TD*
G04 #@! TO.C,C3*
G36*
G01*
X79860544Y-33491000D02*
X81175456Y-33491000D01*
G75*
G02*
X81443000Y-33758544I0J-267544D01*
G01*
X81443000Y-34748456D01*
G75*
G02*
X81175456Y-35016000I-267544J0D01*
G01*
X79860544Y-35016000D01*
G75*
G02*
X79593000Y-34748456I0J267544D01*
G01*
X79593000Y-33758544D01*
G75*
G02*
X79860544Y-33491000I267544J0D01*
G01*
G37*
G36*
G01*
X79860544Y-30516000D02*
X81175456Y-30516000D01*
G75*
G02*
X81443000Y-30783544I0J-267544D01*
G01*
X81443000Y-31773456D01*
G75*
G02*
X81175456Y-32041000I-267544J0D01*
G01*
X79860544Y-32041000D01*
G75*
G02*
X79593000Y-31773456I0J267544D01*
G01*
X79593000Y-30783544D01*
G75*
G02*
X79860544Y-30516000I267544J0D01*
G01*
G37*
G04 #@! TD*
D20*
G04 #@! TO.C,U4*
X97663000Y-97155000D03*
X69723000Y-89535000D03*
X95123000Y-97155000D03*
X72263000Y-89535000D03*
X92583000Y-97155000D03*
X74803000Y-89535000D03*
X90043000Y-97155000D03*
X77343000Y-89535000D03*
X87503000Y-97155000D03*
X79883000Y-89535000D03*
X84963000Y-97155000D03*
X82423000Y-89535000D03*
X82423000Y-97155000D03*
X84963000Y-89535000D03*
X79883000Y-97155000D03*
X87503000Y-89535000D03*
X77343000Y-97155000D03*
X90043000Y-89535000D03*
X74803000Y-97155000D03*
X92583000Y-89535000D03*
X72263000Y-97155000D03*
X95123000Y-89535000D03*
X69723000Y-97155000D03*
D14*
X97663000Y-89535000D03*
G04 #@! TD*
G04 #@! TO.C,LED4*
G36*
G01*
X60195056Y-83628400D02*
X58880144Y-83628400D01*
G75*
G02*
X58612600Y-83360856I0J267544D01*
G01*
X58612600Y-82370944D01*
G75*
G02*
X58880144Y-82103400I267544J0D01*
G01*
X60195056Y-82103400D01*
G75*
G02*
X60462600Y-82370944I0J-267544D01*
G01*
X60462600Y-83360856D01*
G75*
G02*
X60195056Y-83628400I-267544J0D01*
G01*
G37*
G36*
G01*
X60195056Y-86603400D02*
X58880144Y-86603400D01*
G75*
G02*
X58612600Y-86335856I0J267544D01*
G01*
X58612600Y-85345944D01*
G75*
G02*
X58880144Y-85078400I267544J0D01*
G01*
X60195056Y-85078400D01*
G75*
G02*
X60462600Y-85345944I0J-267544D01*
G01*
X60462600Y-86335856D01*
G75*
G02*
X60195056Y-86603400I-267544J0D01*
G01*
G37*
G04 #@! TD*
G04 #@! TO.C,LED3*
G36*
G01*
X55115056Y-83628400D02*
X53800144Y-83628400D01*
G75*
G02*
X53532600Y-83360856I0J267544D01*
G01*
X53532600Y-82370944D01*
G75*
G02*
X53800144Y-82103400I267544J0D01*
G01*
X55115056Y-82103400D01*
G75*
G02*
X55382600Y-82370944I0J-267544D01*
G01*
X55382600Y-83360856D01*
G75*
G02*
X55115056Y-83628400I-267544J0D01*
G01*
G37*
G36*
G01*
X55115056Y-86603400D02*
X53800144Y-86603400D01*
G75*
G02*
X53532600Y-86335856I0J267544D01*
G01*
X53532600Y-85345944D01*
G75*
G02*
X53800144Y-85078400I267544J0D01*
G01*
X55115056Y-85078400D01*
G75*
G02*
X55382600Y-85345944I0J-267544D01*
G01*
X55382600Y-86335856D01*
G75*
G02*
X55115056Y-86603400I-267544J0D01*
G01*
G37*
G04 #@! TD*
G04 #@! TO.C,LED2*
G36*
G01*
X50035056Y-83628400D02*
X48720144Y-83628400D01*
G75*
G02*
X48452600Y-83360856I0J267544D01*
G01*
X48452600Y-82370944D01*
G75*
G02*
X48720144Y-82103400I267544J0D01*
G01*
X50035056Y-82103400D01*
G75*
G02*
X50302600Y-82370944I0J-267544D01*
G01*
X50302600Y-83360856D01*
G75*
G02*
X50035056Y-83628400I-267544J0D01*
G01*
G37*
G36*
G01*
X50035056Y-86603400D02*
X48720144Y-86603400D01*
G75*
G02*
X48452600Y-86335856I0J267544D01*
G01*
X48452600Y-85345944D01*
G75*
G02*
X48720144Y-85078400I267544J0D01*
G01*
X50035056Y-85078400D01*
G75*
G02*
X50302600Y-85345944I0J-267544D01*
G01*
X50302600Y-86335856D01*
G75*
G02*
X50035056Y-86603400I-267544J0D01*
G01*
G37*
G04 #@! TD*
G04 #@! TO.C,LED1*
G36*
G01*
X44980456Y-83603000D02*
X43665544Y-83603000D01*
G75*
G02*
X43398000Y-83335456I0J267544D01*
G01*
X43398000Y-82345544D01*
G75*
G02*
X43665544Y-82078000I267544J0D01*
G01*
X44980456Y-82078000D01*
G75*
G02*
X45248000Y-82345544I0J-267544D01*
G01*
X45248000Y-83335456D01*
G75*
G02*
X44980456Y-83603000I-267544J0D01*
G01*
G37*
G36*
G01*
X44980456Y-86578000D02*
X43665544Y-86578000D01*
G75*
G02*
X43398000Y-86310456I0J267544D01*
G01*
X43398000Y-85320544D01*
G75*
G02*
X43665544Y-85053000I267544J0D01*
G01*
X44980456Y-85053000D01*
G75*
G02*
X45248000Y-85320544I0J-267544D01*
G01*
X45248000Y-86310456D01*
G75*
G02*
X44980456Y-86578000I-267544J0D01*
G01*
G37*
G04 #@! TD*
G04 #@! TO.C,R9*
G36*
G01*
X30372000Y-88108262D02*
X30372000Y-87151738D01*
G75*
G02*
X30643738Y-86880000I271738J0D01*
G01*
X31350262Y-86880000D01*
G75*
G02*
X31622000Y-87151738I0J-271738D01*
G01*
X31622000Y-88108262D01*
G75*
G02*
X31350262Y-88380000I-271738J0D01*
G01*
X30643738Y-88380000D01*
G75*
G02*
X30372000Y-88108262I0J271738D01*
G01*
G37*
G36*
G01*
X28322000Y-88108262D02*
X28322000Y-87151738D01*
G75*
G02*
X28593738Y-86880000I271738J0D01*
G01*
X29300262Y-86880000D01*
G75*
G02*
X29572000Y-87151738I0J-271738D01*
G01*
X29572000Y-88108262D01*
G75*
G02*
X29300262Y-88380000I-271738J0D01*
G01*
X28593738Y-88380000D01*
G75*
G02*
X28322000Y-88108262I0J271738D01*
G01*
G37*
G04 #@! TD*
G04 #@! TO.C,D1*
G36*
G01*
X24167000Y-86972544D02*
X24167000Y-88287456D01*
G75*
G02*
X23899456Y-88555000I-267544J0D01*
G01*
X22909544Y-88555000D01*
G75*
G02*
X22642000Y-88287456I0J267544D01*
G01*
X22642000Y-86972544D01*
G75*
G02*
X22909544Y-86705000I267544J0D01*
G01*
X23899456Y-86705000D01*
G75*
G02*
X24167000Y-86972544I0J-267544D01*
G01*
G37*
G36*
G01*
X27142000Y-86972544D02*
X27142000Y-88287456D01*
G75*
G02*
X26874456Y-88555000I-267544J0D01*
G01*
X25884544Y-88555000D01*
G75*
G02*
X25617000Y-88287456I0J267544D01*
G01*
X25617000Y-86972544D01*
G75*
G02*
X25884544Y-86705000I267544J0D01*
G01*
X26874456Y-86705000D01*
G75*
G02*
X27142000Y-86972544I0J-267544D01*
G01*
G37*
G04 #@! TD*
D21*
G04 #@! TO.C,RESET1*
X54333000Y-95885000D03*
X54333000Y-91385000D03*
X60833000Y-95885000D03*
X60833000Y-91385000D03*
G04 #@! TD*
G04 #@! TO.C,NMI1*
X42649000Y-95885000D03*
X42649000Y-91385000D03*
X49149000Y-95885000D03*
X49149000Y-91385000D03*
G04 #@! TD*
D22*
G04 #@! TO.C,U3*
X64305000Y-96581000D03*
X64305000Y-94681000D03*
X66505000Y-94681000D03*
D23*
X66505000Y-96401000D03*
G04 #@! TD*
D22*
G04 #@! TO.C,U2*
X64305000Y-92644000D03*
X64305000Y-90744000D03*
X66505000Y-90744000D03*
D23*
X66505000Y-92464000D03*
G04 #@! TD*
D13*
G04 #@! TO.C,C13*
X10668000Y-88225000D03*
D14*
X10668000Y-85725000D03*
G04 #@! TD*
D13*
G04 #@! TO.C,SW1*
X29511000Y-95783000D03*
X27011000Y-95783000D03*
X24511000Y-95783000D03*
X29511000Y-92583000D03*
X27011000Y-92583000D03*
D14*
X24511000Y-92583000D03*
G04 #@! TD*
G04 #@! TO.C,C11*
G36*
G01*
X72412456Y-31914000D02*
X71097544Y-31914000D01*
G75*
G02*
X70830000Y-31646456I0J267544D01*
G01*
X70830000Y-30656544D01*
G75*
G02*
X71097544Y-30389000I267544J0D01*
G01*
X72412456Y-30389000D01*
G75*
G02*
X72680000Y-30656544I0J-267544D01*
G01*
X72680000Y-31646456D01*
G75*
G02*
X72412456Y-31914000I-267544J0D01*
G01*
G37*
G36*
G01*
X72412456Y-34889000D02*
X71097544Y-34889000D01*
G75*
G02*
X70830000Y-34621456I0J267544D01*
G01*
X70830000Y-33631544D01*
G75*
G02*
X71097544Y-33364000I267544J0D01*
G01*
X72412456Y-33364000D01*
G75*
G02*
X72680000Y-33631544I0J-267544D01*
G01*
X72680000Y-34621456D01*
G75*
G02*
X72412456Y-34889000I-267544J0D01*
G01*
G37*
G04 #@! TD*
G04 #@! TO.C,C10*
G36*
G01*
X27073456Y-31914000D02*
X25758544Y-31914000D01*
G75*
G02*
X25491000Y-31646456I0J267544D01*
G01*
X25491000Y-30656544D01*
G75*
G02*
X25758544Y-30389000I267544J0D01*
G01*
X27073456Y-30389000D01*
G75*
G02*
X27341000Y-30656544I0J-267544D01*
G01*
X27341000Y-31646456D01*
G75*
G02*
X27073456Y-31914000I-267544J0D01*
G01*
G37*
G36*
G01*
X27073456Y-34889000D02*
X25758544Y-34889000D01*
G75*
G02*
X25491000Y-34621456I0J267544D01*
G01*
X25491000Y-33631544D01*
G75*
G02*
X25758544Y-33364000I267544J0D01*
G01*
X27073456Y-33364000D01*
G75*
G02*
X27341000Y-33631544I0J-267544D01*
G01*
X27341000Y-34621456D01*
G75*
G02*
X27073456Y-34889000I-267544J0D01*
G01*
G37*
G04 #@! TD*
G04 #@! TO.C,C9*
G36*
G01*
X61699544Y-33491000D02*
X63014456Y-33491000D01*
G75*
G02*
X63282000Y-33758544I0J-267544D01*
G01*
X63282000Y-34748456D01*
G75*
G02*
X63014456Y-35016000I-267544J0D01*
G01*
X61699544Y-35016000D01*
G75*
G02*
X61432000Y-34748456I0J267544D01*
G01*
X61432000Y-33758544D01*
G75*
G02*
X61699544Y-33491000I267544J0D01*
G01*
G37*
G36*
G01*
X61699544Y-30516000D02*
X63014456Y-30516000D01*
G75*
G02*
X63282000Y-30783544I0J-267544D01*
G01*
X63282000Y-31773456D01*
G75*
G02*
X63014456Y-32041000I-267544J0D01*
G01*
X61699544Y-32041000D01*
G75*
G02*
X61432000Y-31773456I0J267544D01*
G01*
X61432000Y-30783544D01*
G75*
G02*
X61699544Y-30516000I267544J0D01*
G01*
G37*
G04 #@! TD*
G04 #@! TO.C,C8*
G36*
G01*
X17122544Y-33364000D02*
X18437456Y-33364000D01*
G75*
G02*
X18705000Y-33631544I0J-267544D01*
G01*
X18705000Y-34621456D01*
G75*
G02*
X18437456Y-34889000I-267544J0D01*
G01*
X17122544Y-34889000D01*
G75*
G02*
X16855000Y-34621456I0J267544D01*
G01*
X16855000Y-33631544D01*
G75*
G02*
X17122544Y-33364000I267544J0D01*
G01*
G37*
G36*
G01*
X17122544Y-30389000D02*
X18437456Y-30389000D01*
G75*
G02*
X18705000Y-30656544I0J-267544D01*
G01*
X18705000Y-31646456D01*
G75*
G02*
X18437456Y-31914000I-267544J0D01*
G01*
X17122544Y-31914000D01*
G75*
G02*
X16855000Y-31646456I0J267544D01*
G01*
X16855000Y-30656544D01*
G75*
G02*
X17122544Y-30389000I267544J0D01*
G01*
G37*
G04 #@! TD*
G04 #@! TO.C,C7*
G36*
G01*
X9039456Y-31914000D02*
X7724544Y-31914000D01*
G75*
G02*
X7457000Y-31646456I0J267544D01*
G01*
X7457000Y-30656544D01*
G75*
G02*
X7724544Y-30389000I267544J0D01*
G01*
X9039456Y-30389000D01*
G75*
G02*
X9307000Y-30656544I0J-267544D01*
G01*
X9307000Y-31646456D01*
G75*
G02*
X9039456Y-31914000I-267544J0D01*
G01*
G37*
G36*
G01*
X9039456Y-34889000D02*
X7724544Y-34889000D01*
G75*
G02*
X7457000Y-34621456I0J267544D01*
G01*
X7457000Y-33631544D01*
G75*
G02*
X7724544Y-33364000I267544J0D01*
G01*
X9039456Y-33364000D01*
G75*
G02*
X9307000Y-33631544I0J-267544D01*
G01*
X9307000Y-34621456D01*
G75*
G02*
X9039456Y-34889000I-267544J0D01*
G01*
G37*
G04 #@! TD*
G04 #@! TO.C,C6*
G36*
G01*
X36471456Y-32041000D02*
X35156544Y-32041000D01*
G75*
G02*
X34889000Y-31773456I0J267544D01*
G01*
X34889000Y-30783544D01*
G75*
G02*
X35156544Y-30516000I267544J0D01*
G01*
X36471456Y-30516000D01*
G75*
G02*
X36739000Y-30783544I0J-267544D01*
G01*
X36739000Y-31773456D01*
G75*
G02*
X36471456Y-32041000I-267544J0D01*
G01*
G37*
G36*
G01*
X36471456Y-35016000D02*
X35156544Y-35016000D01*
G75*
G02*
X34889000Y-34748456I0J267544D01*
G01*
X34889000Y-33758544D01*
G75*
G02*
X35156544Y-33491000I267544J0D01*
G01*
X36471456Y-33491000D01*
G75*
G02*
X36739000Y-33758544I0J-267544D01*
G01*
X36739000Y-34748456D01*
G75*
G02*
X36471456Y-35016000I-267544J0D01*
G01*
G37*
G04 #@! TD*
G04 #@! TO.C,C14*
G36*
G01*
X53190544Y-33491000D02*
X54505456Y-33491000D01*
G75*
G02*
X54773000Y-33758544I0J-267544D01*
G01*
X54773000Y-34748456D01*
G75*
G02*
X54505456Y-35016000I-267544J0D01*
G01*
X53190544Y-35016000D01*
G75*
G02*
X52923000Y-34748456I0J267544D01*
G01*
X52923000Y-33758544D01*
G75*
G02*
X53190544Y-33491000I267544J0D01*
G01*
G37*
G36*
G01*
X53190544Y-30516000D02*
X54505456Y-30516000D01*
G75*
G02*
X54773000Y-30783544I0J-267544D01*
G01*
X54773000Y-31773456D01*
G75*
G02*
X54505456Y-32041000I-267544J0D01*
G01*
X53190544Y-32041000D01*
G75*
G02*
X52923000Y-31773456I0J267544D01*
G01*
X52923000Y-30783544D01*
G75*
G02*
X53190544Y-30516000I267544J0D01*
G01*
G37*
G04 #@! TD*
G04 #@! TO.C,C13*
G36*
G01*
X43665544Y-33364000D02*
X44980456Y-33364000D01*
G75*
G02*
X45248000Y-33631544I0J-267544D01*
G01*
X45248000Y-34621456D01*
G75*
G02*
X44980456Y-34889000I-267544J0D01*
G01*
X43665544Y-34889000D01*
G75*
G02*
X43398000Y-34621456I0J267544D01*
G01*
X43398000Y-33631544D01*
G75*
G02*
X43665544Y-33364000I267544J0D01*
G01*
G37*
G36*
G01*
X43665544Y-30389000D02*
X44980456Y-30389000D01*
G75*
G02*
X45248000Y-30656544I0J-267544D01*
G01*
X45248000Y-31646456D01*
G75*
G02*
X44980456Y-31914000I-267544J0D01*
G01*
X43665544Y-31914000D01*
G75*
G02*
X43398000Y-31646456I0J267544D01*
G01*
X43398000Y-30656544D01*
G75*
G02*
X43665544Y-30389000I267544J0D01*
G01*
G37*
G04 #@! TD*
D11*
G04 #@! TO.C,SLOT5*
X2837000Y-64389000D03*
X5377000Y-64389000D03*
X2837000Y-61849000D03*
X5377000Y-61849000D03*
X2837000Y-59309000D03*
X5377000Y-59309000D03*
X2837000Y-56769000D03*
X5377000Y-56769000D03*
X2837000Y-54229000D03*
X5377000Y-54229000D03*
X2837000Y-51689000D03*
X5377000Y-51689000D03*
X2837000Y-49149000D03*
X5377000Y-49149000D03*
X2837000Y-46609000D03*
X5377000Y-46609000D03*
X2837000Y-44069000D03*
X5377000Y-44069000D03*
X2837000Y-41529000D03*
X5377000Y-41529000D03*
X2837000Y-38989000D03*
X5377000Y-38989000D03*
X2837000Y-36449000D03*
X5377000Y-36449000D03*
X2837000Y-33909000D03*
X5377000Y-33909000D03*
X2837000Y-31369000D03*
X5377000Y-31369000D03*
X2837000Y-28829000D03*
X5377000Y-28829000D03*
X2837000Y-26289000D03*
X5377000Y-26289000D03*
X2837000Y-23749000D03*
X5377000Y-23749000D03*
X2837000Y-21209000D03*
X5377000Y-21209000D03*
X2837000Y-18669000D03*
X5377000Y-18669000D03*
X2837000Y-16129000D03*
X5377000Y-16129000D03*
X2837000Y-13589000D03*
X5377000Y-13589000D03*
X2837000Y-11049000D03*
X5377000Y-11049000D03*
X2837000Y-8509000D03*
X5377000Y-8509000D03*
X2837000Y-5969000D03*
X5377000Y-5969000D03*
X2837000Y-3429000D03*
D12*
X5377000Y-3429000D03*
G04 #@! TD*
D11*
G04 #@! TO.C,SLOT4*
X20837000Y-64389000D03*
X23377000Y-64389000D03*
X20837000Y-61849000D03*
X23377000Y-61849000D03*
X20837000Y-59309000D03*
X23377000Y-59309000D03*
X20837000Y-56769000D03*
X23377000Y-56769000D03*
X20837000Y-54229000D03*
X23377000Y-54229000D03*
X20837000Y-51689000D03*
X23377000Y-51689000D03*
X20837000Y-49149000D03*
X23377000Y-49149000D03*
X20837000Y-46609000D03*
X23377000Y-46609000D03*
X20837000Y-44069000D03*
X23377000Y-44069000D03*
X20837000Y-41529000D03*
X23377000Y-41529000D03*
X20837000Y-38989000D03*
X23377000Y-38989000D03*
X20837000Y-36449000D03*
X23377000Y-36449000D03*
X20837000Y-33909000D03*
X23377000Y-33909000D03*
X20837000Y-31369000D03*
X23377000Y-31369000D03*
X20837000Y-28829000D03*
X23377000Y-28829000D03*
X20837000Y-26289000D03*
X23377000Y-26289000D03*
X20837000Y-23749000D03*
X23377000Y-23749000D03*
X20837000Y-21209000D03*
X23377000Y-21209000D03*
X20837000Y-18669000D03*
X23377000Y-18669000D03*
X20837000Y-16129000D03*
X23377000Y-16129000D03*
X20837000Y-13589000D03*
X23377000Y-13589000D03*
X20837000Y-11049000D03*
X23377000Y-11049000D03*
X20837000Y-8509000D03*
X23377000Y-8509000D03*
X20837000Y-5969000D03*
X23377000Y-5969000D03*
X20837000Y-3429000D03*
D12*
X23377000Y-3429000D03*
G04 #@! TD*
D11*
G04 #@! TO.C,SLOT3*
X38837000Y-64389000D03*
X41377000Y-64389000D03*
X38837000Y-61849000D03*
X41377000Y-61849000D03*
X38837000Y-59309000D03*
X41377000Y-59309000D03*
X38837000Y-56769000D03*
X41377000Y-56769000D03*
X38837000Y-54229000D03*
X41377000Y-54229000D03*
X38837000Y-51689000D03*
X41377000Y-51689000D03*
X38837000Y-49149000D03*
X41377000Y-49149000D03*
X38837000Y-46609000D03*
X41377000Y-46609000D03*
X38837000Y-44069000D03*
X41377000Y-44069000D03*
X38837000Y-41529000D03*
X41377000Y-41529000D03*
X38837000Y-38989000D03*
X41377000Y-38989000D03*
X38837000Y-36449000D03*
X41377000Y-36449000D03*
X38837000Y-33909000D03*
X41377000Y-33909000D03*
X38837000Y-31369000D03*
X41377000Y-31369000D03*
X38837000Y-28829000D03*
X41377000Y-28829000D03*
X38837000Y-26289000D03*
X41377000Y-26289000D03*
X38837000Y-23749000D03*
X41377000Y-23749000D03*
X38837000Y-21209000D03*
X41377000Y-21209000D03*
X38837000Y-18669000D03*
X41377000Y-18669000D03*
X38837000Y-16129000D03*
X41377000Y-16129000D03*
X38837000Y-13589000D03*
X41377000Y-13589000D03*
X38837000Y-11049000D03*
X41377000Y-11049000D03*
X38837000Y-8509000D03*
X41377000Y-8509000D03*
X38837000Y-5969000D03*
X41377000Y-5969000D03*
X38837000Y-3429000D03*
D12*
X41377000Y-3429000D03*
G04 #@! TD*
D11*
G04 #@! TO.C,SLOT2*
X56837000Y-64389000D03*
X59377000Y-64389000D03*
X56837000Y-61849000D03*
X59377000Y-61849000D03*
X56837000Y-59309000D03*
X59377000Y-59309000D03*
X56837000Y-56769000D03*
X59377000Y-56769000D03*
X56837000Y-54229000D03*
X59377000Y-54229000D03*
X56837000Y-51689000D03*
X59377000Y-51689000D03*
X56837000Y-49149000D03*
X59377000Y-49149000D03*
X56837000Y-46609000D03*
X59377000Y-46609000D03*
X56837000Y-44069000D03*
X59377000Y-44069000D03*
X56837000Y-41529000D03*
X59377000Y-41529000D03*
X56837000Y-38989000D03*
X59377000Y-38989000D03*
X56837000Y-36449000D03*
X59377000Y-36449000D03*
X56837000Y-33909000D03*
X59377000Y-33909000D03*
X56837000Y-31369000D03*
X59377000Y-31369000D03*
X56837000Y-28829000D03*
X59377000Y-28829000D03*
X56837000Y-26289000D03*
X59377000Y-26289000D03*
X56837000Y-23749000D03*
X59377000Y-23749000D03*
X56837000Y-21209000D03*
X59377000Y-21209000D03*
X56837000Y-18669000D03*
X59377000Y-18669000D03*
X56837000Y-16129000D03*
X59377000Y-16129000D03*
X56837000Y-13589000D03*
X59377000Y-13589000D03*
X56837000Y-11049000D03*
X59377000Y-11049000D03*
X56837000Y-8509000D03*
X59377000Y-8509000D03*
X56837000Y-5969000D03*
X59377000Y-5969000D03*
X56837000Y-3429000D03*
D12*
X59377000Y-3429000D03*
G04 #@! TD*
D11*
G04 #@! TO.C,SLOT1*
X74837000Y-64389000D03*
X77377000Y-64389000D03*
X74837000Y-61849000D03*
X77377000Y-61849000D03*
X74837000Y-59309000D03*
X77377000Y-59309000D03*
X74837000Y-56769000D03*
X77377000Y-56769000D03*
X74837000Y-54229000D03*
X77377000Y-54229000D03*
X74837000Y-51689000D03*
X77377000Y-51689000D03*
X74837000Y-49149000D03*
X77377000Y-49149000D03*
X74837000Y-46609000D03*
X77377000Y-46609000D03*
X74837000Y-44069000D03*
X77377000Y-44069000D03*
X74837000Y-41529000D03*
X77377000Y-41529000D03*
X74837000Y-38989000D03*
X77377000Y-38989000D03*
X74837000Y-36449000D03*
X77377000Y-36449000D03*
X74837000Y-33909000D03*
X77377000Y-33909000D03*
X74837000Y-31369000D03*
X77377000Y-31369000D03*
X74837000Y-28829000D03*
X77377000Y-28829000D03*
X74837000Y-26289000D03*
X77377000Y-26289000D03*
X74837000Y-23749000D03*
X77377000Y-23749000D03*
X74837000Y-21209000D03*
X77377000Y-21209000D03*
X74837000Y-18669000D03*
X77377000Y-18669000D03*
X74837000Y-16129000D03*
X77377000Y-16129000D03*
X74837000Y-13589000D03*
X77377000Y-13589000D03*
X74837000Y-11049000D03*
X77377000Y-11049000D03*
X74837000Y-8509000D03*
X77377000Y-8509000D03*
X74837000Y-5969000D03*
X77377000Y-5969000D03*
X74837000Y-3429000D03*
D12*
X77377000Y-3429000D03*
G04 #@! TD*
G04 #@! TO.C,R2*
G36*
G01*
X86076262Y-29699000D02*
X85119738Y-29699000D01*
G75*
G02*
X84848000Y-29427262I0J271738D01*
G01*
X84848000Y-28720738D01*
G75*
G02*
X85119738Y-28449000I271738J0D01*
G01*
X86076262Y-28449000D01*
G75*
G02*
X86348000Y-28720738I0J-271738D01*
G01*
X86348000Y-29427262D01*
G75*
G02*
X86076262Y-29699000I-271738J0D01*
G01*
G37*
G36*
G01*
X86076262Y-31749000D02*
X85119738Y-31749000D01*
G75*
G02*
X84848000Y-31477262I0J271738D01*
G01*
X84848000Y-30770738D01*
G75*
G02*
X85119738Y-30499000I271738J0D01*
G01*
X86076262Y-30499000D01*
G75*
G02*
X86348000Y-30770738I0J-271738D01*
G01*
X86348000Y-31477262D01*
G75*
G02*
X86076262Y-31749000I-271738J0D01*
G01*
G37*
G04 #@! TD*
G04 #@! TO.C,C1*
G36*
G01*
X90446456Y-31914000D02*
X89131544Y-31914000D01*
G75*
G02*
X88864000Y-31646456I0J267544D01*
G01*
X88864000Y-30656544D01*
G75*
G02*
X89131544Y-30389000I267544J0D01*
G01*
X90446456Y-30389000D01*
G75*
G02*
X90714000Y-30656544I0J-267544D01*
G01*
X90714000Y-31646456D01*
G75*
G02*
X90446456Y-31914000I-267544J0D01*
G01*
G37*
G36*
G01*
X90446456Y-34889000D02*
X89131544Y-34889000D01*
G75*
G02*
X88864000Y-34621456I0J267544D01*
G01*
X88864000Y-33631544D01*
G75*
G02*
X89131544Y-33364000I267544J0D01*
G01*
X90446456Y-33364000D01*
G75*
G02*
X90714000Y-33631544I0J-267544D01*
G01*
X90714000Y-34621456D01*
G75*
G02*
X90446456Y-34889000I-267544J0D01*
G01*
G37*
G04 #@! TD*
D11*
G04 #@! TO.C,SLOT0*
X92837000Y-64389000D03*
X95377000Y-64389000D03*
X92837000Y-61849000D03*
X95377000Y-61849000D03*
X92837000Y-59309000D03*
X95377000Y-59309000D03*
X92837000Y-56769000D03*
X95377000Y-56769000D03*
X92837000Y-54229000D03*
X95377000Y-54229000D03*
X92837000Y-51689000D03*
X95377000Y-51689000D03*
X92837000Y-49149000D03*
X95377000Y-49149000D03*
X92837000Y-46609000D03*
X95377000Y-46609000D03*
X92837000Y-44069000D03*
X95377000Y-44069000D03*
X92837000Y-41529000D03*
X95377000Y-41529000D03*
X92837000Y-38989000D03*
X95377000Y-38989000D03*
X92837000Y-36449000D03*
X95377000Y-36449000D03*
X92837000Y-33909000D03*
X95377000Y-33909000D03*
X92837000Y-31369000D03*
X95377000Y-31369000D03*
X92837000Y-28829000D03*
X95377000Y-28829000D03*
X92837000Y-26289000D03*
X95377000Y-26289000D03*
X92837000Y-23749000D03*
X95377000Y-23749000D03*
X92837000Y-21209000D03*
X95377000Y-21209000D03*
X92837000Y-18669000D03*
X95377000Y-18669000D03*
X92837000Y-16129000D03*
X95377000Y-16129000D03*
X92837000Y-13589000D03*
X95377000Y-13589000D03*
X92837000Y-11049000D03*
X95377000Y-11049000D03*
X92837000Y-8509000D03*
X95377000Y-8509000D03*
X92837000Y-5969000D03*
X95377000Y-5969000D03*
X92837000Y-3429000D03*
D12*
X95377000Y-3429000D03*
G04 #@! TD*
M02*
