G04 #@! TF.GenerationSoftware,KiCad,Pcbnew,(5.1.6-0-10_14)*
G04 #@! TF.CreationDate,2021-03-04T13:25:14+01:00*
G04 #@! TF.ProjectId,backplane,6261636b-706c-4616-9e65-2e6b69636164,rev?*
G04 #@! TF.SameCoordinates,Original*
G04 #@! TF.FileFunction,Paste,Top*
G04 #@! TF.FilePolarity,Positive*
%FSLAX46Y46*%
G04 Gerber Fmt 4.6, Leading zero omitted, Abs format (unit mm)*
G04 Created by KiCad (PCBNEW (5.1.6-0-10_14)) date 2021-03-04 13:25:14*
%MOMM*%
%LPD*%
G01*
G04 APERTURE LIST*
%ADD10R,1.900000X1.500000*%
%ADD11R,1.350000X0.400000*%
%ADD12R,1.400000X1.000000*%
%ADD13R,1.400000X1.200000*%
G04 APERTURE END LIST*
G04 #@! TO.C,R18*
G36*
G01*
X43947500Y-75062501D02*
X43947500Y-74162499D01*
G75*
G02*
X44197499Y-73912500I249999J0D01*
G01*
X44847501Y-73912500D01*
G75*
G02*
X45097500Y-74162499I0J-249999D01*
G01*
X45097500Y-75062501D01*
G75*
G02*
X44847501Y-75312500I-249999J0D01*
G01*
X44197499Y-75312500D01*
G75*
G02*
X43947500Y-75062501I0J249999D01*
G01*
G37*
G36*
G01*
X41897500Y-75062501D02*
X41897500Y-74162499D01*
G75*
G02*
X42147499Y-73912500I249999J0D01*
G01*
X42797501Y-73912500D01*
G75*
G02*
X43047500Y-74162499I0J-249999D01*
G01*
X43047500Y-75062501D01*
G75*
G02*
X42797501Y-75312500I-249999J0D01*
G01*
X42147499Y-75312500D01*
G75*
G02*
X41897500Y-75062501I0J249999D01*
G01*
G37*
G04 #@! TD*
G04 #@! TO.C,R17*
G36*
G01*
X43947500Y-77285001D02*
X43947500Y-76384999D01*
G75*
G02*
X44197499Y-76135000I249999J0D01*
G01*
X44847501Y-76135000D01*
G75*
G02*
X45097500Y-76384999I0J-249999D01*
G01*
X45097500Y-77285001D01*
G75*
G02*
X44847501Y-77535000I-249999J0D01*
G01*
X44197499Y-77535000D01*
G75*
G02*
X43947500Y-77285001I0J249999D01*
G01*
G37*
G36*
G01*
X41897500Y-77285001D02*
X41897500Y-76384999D01*
G75*
G02*
X42147499Y-76135000I249999J0D01*
G01*
X42797501Y-76135000D01*
G75*
G02*
X43047500Y-76384999I0J-249999D01*
G01*
X43047500Y-77285001D01*
G75*
G02*
X42797501Y-77535000I-249999J0D01*
G01*
X42147499Y-77535000D01*
G75*
G02*
X41897500Y-77285001I0J249999D01*
G01*
G37*
G04 #@! TD*
G04 #@! TO.C,D7*
G36*
G01*
X31374500Y-29406001D02*
X31374500Y-28505999D01*
G75*
G02*
X31624499Y-28256000I249999J0D01*
G01*
X32274501Y-28256000D01*
G75*
G02*
X32524500Y-28505999I0J-249999D01*
G01*
X32524500Y-29406001D01*
G75*
G02*
X32274501Y-29656000I-249999J0D01*
G01*
X31624499Y-29656000D01*
G75*
G02*
X31374500Y-29406001I0J249999D01*
G01*
G37*
G36*
G01*
X29324500Y-29406001D02*
X29324500Y-28505999D01*
G75*
G02*
X29574499Y-28256000I249999J0D01*
G01*
X30224501Y-28256000D01*
G75*
G02*
X30474500Y-28505999I0J-249999D01*
G01*
X30474500Y-29406001D01*
G75*
G02*
X30224501Y-29656000I-249999J0D01*
G01*
X29574499Y-29656000D01*
G75*
G02*
X29324500Y-29406001I0J249999D01*
G01*
G37*
G04 #@! TD*
G04 #@! TO.C,D6*
G36*
G01*
X49408500Y-29469501D02*
X49408500Y-28569499D01*
G75*
G02*
X49658499Y-28319500I249999J0D01*
G01*
X50308501Y-28319500D01*
G75*
G02*
X50558500Y-28569499I0J-249999D01*
G01*
X50558500Y-29469501D01*
G75*
G02*
X50308501Y-29719500I-249999J0D01*
G01*
X49658499Y-29719500D01*
G75*
G02*
X49408500Y-29469501I0J249999D01*
G01*
G37*
G36*
G01*
X47358500Y-29469501D02*
X47358500Y-28569499D01*
G75*
G02*
X47608499Y-28319500I249999J0D01*
G01*
X48258501Y-28319500D01*
G75*
G02*
X48508500Y-28569499I0J-249999D01*
G01*
X48508500Y-29469501D01*
G75*
G02*
X48258501Y-29719500I-249999J0D01*
G01*
X47608499Y-29719500D01*
G75*
G02*
X47358500Y-29469501I0J249999D01*
G01*
G37*
G04 #@! TD*
G04 #@! TO.C,D5*
G36*
G01*
X11805500Y-28759999D02*
X11805500Y-29660001D01*
G75*
G02*
X11555501Y-29910000I-249999J0D01*
G01*
X10905499Y-29910000D01*
G75*
G02*
X10655500Y-29660001I0J249999D01*
G01*
X10655500Y-28759999D01*
G75*
G02*
X10905499Y-28510000I249999J0D01*
G01*
X11555501Y-28510000D01*
G75*
G02*
X11805500Y-28759999I0J-249999D01*
G01*
G37*
G36*
G01*
X13855500Y-28759999D02*
X13855500Y-29660001D01*
G75*
G02*
X13605501Y-29910000I-249999J0D01*
G01*
X12955499Y-29910000D01*
G75*
G02*
X12705500Y-29660001I0J249999D01*
G01*
X12705500Y-28759999D01*
G75*
G02*
X12955499Y-28510000I249999J0D01*
G01*
X13605501Y-28510000D01*
G75*
G02*
X13855500Y-28759999I0J-249999D01*
G01*
G37*
G04 #@! TD*
G04 #@! TO.C,D4*
G36*
G01*
X66871000Y-29279001D02*
X66871000Y-28378999D01*
G75*
G02*
X67120999Y-28129000I249999J0D01*
G01*
X67771001Y-28129000D01*
G75*
G02*
X68021000Y-28378999I0J-249999D01*
G01*
X68021000Y-29279001D01*
G75*
G02*
X67771001Y-29529000I-249999J0D01*
G01*
X67120999Y-29529000D01*
G75*
G02*
X66871000Y-29279001I0J249999D01*
G01*
G37*
G36*
G01*
X64821000Y-29279001D02*
X64821000Y-28378999D01*
G75*
G02*
X65070999Y-28129000I249999J0D01*
G01*
X65721001Y-28129000D01*
G75*
G02*
X65971000Y-28378999I0J-249999D01*
G01*
X65971000Y-29279001D01*
G75*
G02*
X65721001Y-29529000I-249999J0D01*
G01*
X65070999Y-29529000D01*
G75*
G02*
X64821000Y-29279001I0J249999D01*
G01*
G37*
G04 #@! TD*
G04 #@! TO.C,D3*
G36*
G01*
X89540500Y-29215501D02*
X89540500Y-28315499D01*
G75*
G02*
X89790499Y-28065500I249999J0D01*
G01*
X90440501Y-28065500D01*
G75*
G02*
X90690500Y-28315499I0J-249999D01*
G01*
X90690500Y-29215501D01*
G75*
G02*
X90440501Y-29465500I-249999J0D01*
G01*
X89790499Y-29465500D01*
G75*
G02*
X89540500Y-29215501I0J249999D01*
G01*
G37*
G36*
G01*
X87490500Y-29215501D02*
X87490500Y-28315499D01*
G75*
G02*
X87740499Y-28065500I249999J0D01*
G01*
X88390501Y-28065500D01*
G75*
G02*
X88640500Y-28315499I0J-249999D01*
G01*
X88640500Y-29215501D01*
G75*
G02*
X88390501Y-29465500I-249999J0D01*
G01*
X87740499Y-29465500D01*
G75*
G02*
X87490500Y-29215501I0J249999D01*
G01*
G37*
G04 #@! TD*
G04 #@! TO.C,D2*
G36*
G01*
X16824000Y-28644001D02*
X16824000Y-27743999D01*
G75*
G02*
X17073999Y-27494000I249999J0D01*
G01*
X17724001Y-27494000D01*
G75*
G02*
X17974000Y-27743999I0J-249999D01*
G01*
X17974000Y-28644001D01*
G75*
G02*
X17724001Y-28894000I-249999J0D01*
G01*
X17073999Y-28894000D01*
G75*
G02*
X16824000Y-28644001I0J249999D01*
G01*
G37*
G36*
G01*
X14774000Y-28644001D02*
X14774000Y-27743999D01*
G75*
G02*
X15023999Y-27494000I249999J0D01*
G01*
X15674001Y-27494000D01*
G75*
G02*
X15924000Y-27743999I0J-249999D01*
G01*
X15924000Y-28644001D01*
G75*
G02*
X15674001Y-28894000I-249999J0D01*
G01*
X15023999Y-28894000D01*
G75*
G02*
X14774000Y-28644001I0J249999D01*
G01*
G37*
G04 #@! TD*
G04 #@! TO.C,U1*
G36*
G01*
X54125000Y-71652000D02*
X53825000Y-71652000D01*
G75*
G02*
X53675000Y-71502000I0J150000D01*
G01*
X53675000Y-69852000D01*
G75*
G02*
X53825000Y-69702000I150000J0D01*
G01*
X54125000Y-69702000D01*
G75*
G02*
X54275000Y-69852000I0J-150000D01*
G01*
X54275000Y-71502000D01*
G75*
G02*
X54125000Y-71652000I-150000J0D01*
G01*
G37*
G36*
G01*
X55395000Y-71652000D02*
X55095000Y-71652000D01*
G75*
G02*
X54945000Y-71502000I0J150000D01*
G01*
X54945000Y-69852000D01*
G75*
G02*
X55095000Y-69702000I150000J0D01*
G01*
X55395000Y-69702000D01*
G75*
G02*
X55545000Y-69852000I0J-150000D01*
G01*
X55545000Y-71502000D01*
G75*
G02*
X55395000Y-71652000I-150000J0D01*
G01*
G37*
G36*
G01*
X56665000Y-71652000D02*
X56365000Y-71652000D01*
G75*
G02*
X56215000Y-71502000I0J150000D01*
G01*
X56215000Y-69852000D01*
G75*
G02*
X56365000Y-69702000I150000J0D01*
G01*
X56665000Y-69702000D01*
G75*
G02*
X56815000Y-69852000I0J-150000D01*
G01*
X56815000Y-71502000D01*
G75*
G02*
X56665000Y-71652000I-150000J0D01*
G01*
G37*
G36*
G01*
X57935000Y-71652000D02*
X57635000Y-71652000D01*
G75*
G02*
X57485000Y-71502000I0J150000D01*
G01*
X57485000Y-69852000D01*
G75*
G02*
X57635000Y-69702000I150000J0D01*
G01*
X57935000Y-69702000D01*
G75*
G02*
X58085000Y-69852000I0J-150000D01*
G01*
X58085000Y-71502000D01*
G75*
G02*
X57935000Y-71652000I-150000J0D01*
G01*
G37*
G36*
G01*
X59205000Y-71652000D02*
X58905000Y-71652000D01*
G75*
G02*
X58755000Y-71502000I0J150000D01*
G01*
X58755000Y-69852000D01*
G75*
G02*
X58905000Y-69702000I150000J0D01*
G01*
X59205000Y-69702000D01*
G75*
G02*
X59355000Y-69852000I0J-150000D01*
G01*
X59355000Y-71502000D01*
G75*
G02*
X59205000Y-71652000I-150000J0D01*
G01*
G37*
G36*
G01*
X60475000Y-71652000D02*
X60175000Y-71652000D01*
G75*
G02*
X60025000Y-71502000I0J150000D01*
G01*
X60025000Y-69852000D01*
G75*
G02*
X60175000Y-69702000I150000J0D01*
G01*
X60475000Y-69702000D01*
G75*
G02*
X60625000Y-69852000I0J-150000D01*
G01*
X60625000Y-71502000D01*
G75*
G02*
X60475000Y-71652000I-150000J0D01*
G01*
G37*
G36*
G01*
X61745000Y-71652000D02*
X61445000Y-71652000D01*
G75*
G02*
X61295000Y-71502000I0J150000D01*
G01*
X61295000Y-69852000D01*
G75*
G02*
X61445000Y-69702000I150000J0D01*
G01*
X61745000Y-69702000D01*
G75*
G02*
X61895000Y-69852000I0J-150000D01*
G01*
X61895000Y-71502000D01*
G75*
G02*
X61745000Y-71652000I-150000J0D01*
G01*
G37*
G36*
G01*
X63015000Y-71652000D02*
X62715000Y-71652000D01*
G75*
G02*
X62565000Y-71502000I0J150000D01*
G01*
X62565000Y-69852000D01*
G75*
G02*
X62715000Y-69702000I150000J0D01*
G01*
X63015000Y-69702000D01*
G75*
G02*
X63165000Y-69852000I0J-150000D01*
G01*
X63165000Y-71502000D01*
G75*
G02*
X63015000Y-71652000I-150000J0D01*
G01*
G37*
G36*
G01*
X63015000Y-76602000D02*
X62715000Y-76602000D01*
G75*
G02*
X62565000Y-76452000I0J150000D01*
G01*
X62565000Y-74802000D01*
G75*
G02*
X62715000Y-74652000I150000J0D01*
G01*
X63015000Y-74652000D01*
G75*
G02*
X63165000Y-74802000I0J-150000D01*
G01*
X63165000Y-76452000D01*
G75*
G02*
X63015000Y-76602000I-150000J0D01*
G01*
G37*
G36*
G01*
X61745000Y-76602000D02*
X61445000Y-76602000D01*
G75*
G02*
X61295000Y-76452000I0J150000D01*
G01*
X61295000Y-74802000D01*
G75*
G02*
X61445000Y-74652000I150000J0D01*
G01*
X61745000Y-74652000D01*
G75*
G02*
X61895000Y-74802000I0J-150000D01*
G01*
X61895000Y-76452000D01*
G75*
G02*
X61745000Y-76602000I-150000J0D01*
G01*
G37*
G36*
G01*
X60475000Y-76602000D02*
X60175000Y-76602000D01*
G75*
G02*
X60025000Y-76452000I0J150000D01*
G01*
X60025000Y-74802000D01*
G75*
G02*
X60175000Y-74652000I150000J0D01*
G01*
X60475000Y-74652000D01*
G75*
G02*
X60625000Y-74802000I0J-150000D01*
G01*
X60625000Y-76452000D01*
G75*
G02*
X60475000Y-76602000I-150000J0D01*
G01*
G37*
G36*
G01*
X59205000Y-76602000D02*
X58905000Y-76602000D01*
G75*
G02*
X58755000Y-76452000I0J150000D01*
G01*
X58755000Y-74802000D01*
G75*
G02*
X58905000Y-74652000I150000J0D01*
G01*
X59205000Y-74652000D01*
G75*
G02*
X59355000Y-74802000I0J-150000D01*
G01*
X59355000Y-76452000D01*
G75*
G02*
X59205000Y-76602000I-150000J0D01*
G01*
G37*
G36*
G01*
X57935000Y-76602000D02*
X57635000Y-76602000D01*
G75*
G02*
X57485000Y-76452000I0J150000D01*
G01*
X57485000Y-74802000D01*
G75*
G02*
X57635000Y-74652000I150000J0D01*
G01*
X57935000Y-74652000D01*
G75*
G02*
X58085000Y-74802000I0J-150000D01*
G01*
X58085000Y-76452000D01*
G75*
G02*
X57935000Y-76602000I-150000J0D01*
G01*
G37*
G36*
G01*
X56665000Y-76602000D02*
X56365000Y-76602000D01*
G75*
G02*
X56215000Y-76452000I0J150000D01*
G01*
X56215000Y-74802000D01*
G75*
G02*
X56365000Y-74652000I150000J0D01*
G01*
X56665000Y-74652000D01*
G75*
G02*
X56815000Y-74802000I0J-150000D01*
G01*
X56815000Y-76452000D01*
G75*
G02*
X56665000Y-76602000I-150000J0D01*
G01*
G37*
G36*
G01*
X55395000Y-76602000D02*
X55095000Y-76602000D01*
G75*
G02*
X54945000Y-76452000I0J150000D01*
G01*
X54945000Y-74802000D01*
G75*
G02*
X55095000Y-74652000I150000J0D01*
G01*
X55395000Y-74652000D01*
G75*
G02*
X55545000Y-74802000I0J-150000D01*
G01*
X55545000Y-76452000D01*
G75*
G02*
X55395000Y-76602000I-150000J0D01*
G01*
G37*
G36*
G01*
X54125000Y-76602000D02*
X53825000Y-76602000D01*
G75*
G02*
X53675000Y-76452000I0J150000D01*
G01*
X53675000Y-74802000D01*
G75*
G02*
X53825000Y-74652000I150000J0D01*
G01*
X54125000Y-74652000D01*
G75*
G02*
X54275000Y-74802000I0J-150000D01*
G01*
X54275000Y-76452000D01*
G75*
G02*
X54125000Y-76602000I-150000J0D01*
G01*
G37*
G04 #@! TD*
G04 #@! TO.C,R16*
G36*
G01*
X64827999Y-88334000D02*
X65728001Y-88334000D01*
G75*
G02*
X65978000Y-88583999I0J-249999D01*
G01*
X65978000Y-89234001D01*
G75*
G02*
X65728001Y-89484000I-249999J0D01*
G01*
X64827999Y-89484000D01*
G75*
G02*
X64578000Y-89234001I0J249999D01*
G01*
X64578000Y-88583999D01*
G75*
G02*
X64827999Y-88334000I249999J0D01*
G01*
G37*
G36*
G01*
X64827999Y-86284000D02*
X65728001Y-86284000D01*
G75*
G02*
X65978000Y-86533999I0J-249999D01*
G01*
X65978000Y-87184001D01*
G75*
G02*
X65728001Y-87434000I-249999J0D01*
G01*
X64827999Y-87434000D01*
G75*
G02*
X64578000Y-87184001I0J249999D01*
G01*
X64578000Y-86533999D01*
G75*
G02*
X64827999Y-86284000I249999J0D01*
G01*
G37*
G04 #@! TD*
G04 #@! TO.C,R15*
G36*
G01*
X84004999Y-36899000D02*
X84905001Y-36899000D01*
G75*
G02*
X85155000Y-37148999I0J-249999D01*
G01*
X85155000Y-37799001D01*
G75*
G02*
X84905001Y-38049000I-249999J0D01*
G01*
X84004999Y-38049000D01*
G75*
G02*
X83755000Y-37799001I0J249999D01*
G01*
X83755000Y-37148999D01*
G75*
G02*
X84004999Y-36899000I249999J0D01*
G01*
G37*
G36*
G01*
X84004999Y-34849000D02*
X84905001Y-34849000D01*
G75*
G02*
X85155000Y-35098999I0J-249999D01*
G01*
X85155000Y-35749001D01*
G75*
G02*
X84905001Y-35999000I-249999J0D01*
G01*
X84004999Y-35999000D01*
G75*
G02*
X83755000Y-35749001I0J249999D01*
G01*
X83755000Y-35098999D01*
G75*
G02*
X84004999Y-34849000I249999J0D01*
G01*
G37*
G04 #@! TD*
D10*
G04 #@! TO.C,J1*
X1493000Y-85931500D03*
D11*
X4193000Y-86931500D03*
X4193000Y-87581500D03*
X4193000Y-88231500D03*
X4193000Y-85631500D03*
X4193000Y-86281500D03*
D10*
X1493000Y-87931500D03*
G04 #@! TD*
G04 #@! TO.C,C3*
G36*
G01*
X79893000Y-33541000D02*
X81143000Y-33541000D01*
G75*
G02*
X81393000Y-33791000I0J-250000D01*
G01*
X81393000Y-34716000D01*
G75*
G02*
X81143000Y-34966000I-250000J0D01*
G01*
X79893000Y-34966000D01*
G75*
G02*
X79643000Y-34716000I0J250000D01*
G01*
X79643000Y-33791000D01*
G75*
G02*
X79893000Y-33541000I250000J0D01*
G01*
G37*
G36*
G01*
X79893000Y-30566000D02*
X81143000Y-30566000D01*
G75*
G02*
X81393000Y-30816000I0J-250000D01*
G01*
X81393000Y-31741000D01*
G75*
G02*
X81143000Y-31991000I-250000J0D01*
G01*
X79893000Y-31991000D01*
G75*
G02*
X79643000Y-31741000I0J250000D01*
G01*
X79643000Y-30816000D01*
G75*
G02*
X79893000Y-30566000I250000J0D01*
G01*
G37*
G04 #@! TD*
G04 #@! TO.C,LED4*
G36*
G01*
X60162600Y-83578400D02*
X58912600Y-83578400D01*
G75*
G02*
X58662600Y-83328400I0J250000D01*
G01*
X58662600Y-82403400D01*
G75*
G02*
X58912600Y-82153400I250000J0D01*
G01*
X60162600Y-82153400D01*
G75*
G02*
X60412600Y-82403400I0J-250000D01*
G01*
X60412600Y-83328400D01*
G75*
G02*
X60162600Y-83578400I-250000J0D01*
G01*
G37*
G36*
G01*
X60162600Y-86553400D02*
X58912600Y-86553400D01*
G75*
G02*
X58662600Y-86303400I0J250000D01*
G01*
X58662600Y-85378400D01*
G75*
G02*
X58912600Y-85128400I250000J0D01*
G01*
X60162600Y-85128400D01*
G75*
G02*
X60412600Y-85378400I0J-250000D01*
G01*
X60412600Y-86303400D01*
G75*
G02*
X60162600Y-86553400I-250000J0D01*
G01*
G37*
G04 #@! TD*
G04 #@! TO.C,LED3*
G36*
G01*
X55082600Y-83578400D02*
X53832600Y-83578400D01*
G75*
G02*
X53582600Y-83328400I0J250000D01*
G01*
X53582600Y-82403400D01*
G75*
G02*
X53832600Y-82153400I250000J0D01*
G01*
X55082600Y-82153400D01*
G75*
G02*
X55332600Y-82403400I0J-250000D01*
G01*
X55332600Y-83328400D01*
G75*
G02*
X55082600Y-83578400I-250000J0D01*
G01*
G37*
G36*
G01*
X55082600Y-86553400D02*
X53832600Y-86553400D01*
G75*
G02*
X53582600Y-86303400I0J250000D01*
G01*
X53582600Y-85378400D01*
G75*
G02*
X53832600Y-85128400I250000J0D01*
G01*
X55082600Y-85128400D01*
G75*
G02*
X55332600Y-85378400I0J-250000D01*
G01*
X55332600Y-86303400D01*
G75*
G02*
X55082600Y-86553400I-250000J0D01*
G01*
G37*
G04 #@! TD*
G04 #@! TO.C,LED2*
G36*
G01*
X50002600Y-83578400D02*
X48752600Y-83578400D01*
G75*
G02*
X48502600Y-83328400I0J250000D01*
G01*
X48502600Y-82403400D01*
G75*
G02*
X48752600Y-82153400I250000J0D01*
G01*
X50002600Y-82153400D01*
G75*
G02*
X50252600Y-82403400I0J-250000D01*
G01*
X50252600Y-83328400D01*
G75*
G02*
X50002600Y-83578400I-250000J0D01*
G01*
G37*
G36*
G01*
X50002600Y-86553400D02*
X48752600Y-86553400D01*
G75*
G02*
X48502600Y-86303400I0J250000D01*
G01*
X48502600Y-85378400D01*
G75*
G02*
X48752600Y-85128400I250000J0D01*
G01*
X50002600Y-85128400D01*
G75*
G02*
X50252600Y-85378400I0J-250000D01*
G01*
X50252600Y-86303400D01*
G75*
G02*
X50002600Y-86553400I-250000J0D01*
G01*
G37*
G04 #@! TD*
G04 #@! TO.C,LED1*
G36*
G01*
X44948000Y-83553000D02*
X43698000Y-83553000D01*
G75*
G02*
X43448000Y-83303000I0J250000D01*
G01*
X43448000Y-82378000D01*
G75*
G02*
X43698000Y-82128000I250000J0D01*
G01*
X44948000Y-82128000D01*
G75*
G02*
X45198000Y-82378000I0J-250000D01*
G01*
X45198000Y-83303000D01*
G75*
G02*
X44948000Y-83553000I-250000J0D01*
G01*
G37*
G36*
G01*
X44948000Y-86528000D02*
X43698000Y-86528000D01*
G75*
G02*
X43448000Y-86278000I0J250000D01*
G01*
X43448000Y-85353000D01*
G75*
G02*
X43698000Y-85103000I250000J0D01*
G01*
X44948000Y-85103000D01*
G75*
G02*
X45198000Y-85353000I0J-250000D01*
G01*
X45198000Y-86278000D01*
G75*
G02*
X44948000Y-86528000I-250000J0D01*
G01*
G37*
G04 #@! TD*
G04 #@! TO.C,R9*
G36*
G01*
X30422000Y-88080001D02*
X30422000Y-87179999D01*
G75*
G02*
X30671999Y-86930000I249999J0D01*
G01*
X31322001Y-86930000D01*
G75*
G02*
X31572000Y-87179999I0J-249999D01*
G01*
X31572000Y-88080001D01*
G75*
G02*
X31322001Y-88330000I-249999J0D01*
G01*
X30671999Y-88330000D01*
G75*
G02*
X30422000Y-88080001I0J249999D01*
G01*
G37*
G36*
G01*
X28372000Y-88080001D02*
X28372000Y-87179999D01*
G75*
G02*
X28621999Y-86930000I249999J0D01*
G01*
X29272001Y-86930000D01*
G75*
G02*
X29522000Y-87179999I0J-249999D01*
G01*
X29522000Y-88080001D01*
G75*
G02*
X29272001Y-88330000I-249999J0D01*
G01*
X28621999Y-88330000D01*
G75*
G02*
X28372000Y-88080001I0J249999D01*
G01*
G37*
G04 #@! TD*
G04 #@! TO.C,D1*
G36*
G01*
X24117000Y-87005000D02*
X24117000Y-88255000D01*
G75*
G02*
X23867000Y-88505000I-250000J0D01*
G01*
X22942000Y-88505000D01*
G75*
G02*
X22692000Y-88255000I0J250000D01*
G01*
X22692000Y-87005000D01*
G75*
G02*
X22942000Y-86755000I250000J0D01*
G01*
X23867000Y-86755000D01*
G75*
G02*
X24117000Y-87005000I0J-250000D01*
G01*
G37*
G36*
G01*
X27092000Y-87005000D02*
X27092000Y-88255000D01*
G75*
G02*
X26842000Y-88505000I-250000J0D01*
G01*
X25917000Y-88505000D01*
G75*
G02*
X25667000Y-88255000I0J250000D01*
G01*
X25667000Y-87005000D01*
G75*
G02*
X25917000Y-86755000I250000J0D01*
G01*
X26842000Y-86755000D01*
G75*
G02*
X27092000Y-87005000I0J-250000D01*
G01*
G37*
G04 #@! TD*
D12*
G04 #@! TO.C,U3*
X64305000Y-96581000D03*
X64305000Y-94681000D03*
X66505000Y-94681000D03*
D13*
X66505000Y-96401000D03*
G04 #@! TD*
D12*
G04 #@! TO.C,U2*
X64305000Y-92644000D03*
X64305000Y-90744000D03*
X66505000Y-90744000D03*
D13*
X66505000Y-92464000D03*
G04 #@! TD*
G04 #@! TO.C,C11*
G36*
G01*
X72380000Y-31864000D02*
X71130000Y-31864000D01*
G75*
G02*
X70880000Y-31614000I0J250000D01*
G01*
X70880000Y-30689000D01*
G75*
G02*
X71130000Y-30439000I250000J0D01*
G01*
X72380000Y-30439000D01*
G75*
G02*
X72630000Y-30689000I0J-250000D01*
G01*
X72630000Y-31614000D01*
G75*
G02*
X72380000Y-31864000I-250000J0D01*
G01*
G37*
G36*
G01*
X72380000Y-34839000D02*
X71130000Y-34839000D01*
G75*
G02*
X70880000Y-34589000I0J250000D01*
G01*
X70880000Y-33664000D01*
G75*
G02*
X71130000Y-33414000I250000J0D01*
G01*
X72380000Y-33414000D01*
G75*
G02*
X72630000Y-33664000I0J-250000D01*
G01*
X72630000Y-34589000D01*
G75*
G02*
X72380000Y-34839000I-250000J0D01*
G01*
G37*
G04 #@! TD*
G04 #@! TO.C,C10*
G36*
G01*
X27041000Y-31864000D02*
X25791000Y-31864000D01*
G75*
G02*
X25541000Y-31614000I0J250000D01*
G01*
X25541000Y-30689000D01*
G75*
G02*
X25791000Y-30439000I250000J0D01*
G01*
X27041000Y-30439000D01*
G75*
G02*
X27291000Y-30689000I0J-250000D01*
G01*
X27291000Y-31614000D01*
G75*
G02*
X27041000Y-31864000I-250000J0D01*
G01*
G37*
G36*
G01*
X27041000Y-34839000D02*
X25791000Y-34839000D01*
G75*
G02*
X25541000Y-34589000I0J250000D01*
G01*
X25541000Y-33664000D01*
G75*
G02*
X25791000Y-33414000I250000J0D01*
G01*
X27041000Y-33414000D01*
G75*
G02*
X27291000Y-33664000I0J-250000D01*
G01*
X27291000Y-34589000D01*
G75*
G02*
X27041000Y-34839000I-250000J0D01*
G01*
G37*
G04 #@! TD*
G04 #@! TO.C,C9*
G36*
G01*
X61732000Y-33541000D02*
X62982000Y-33541000D01*
G75*
G02*
X63232000Y-33791000I0J-250000D01*
G01*
X63232000Y-34716000D01*
G75*
G02*
X62982000Y-34966000I-250000J0D01*
G01*
X61732000Y-34966000D01*
G75*
G02*
X61482000Y-34716000I0J250000D01*
G01*
X61482000Y-33791000D01*
G75*
G02*
X61732000Y-33541000I250000J0D01*
G01*
G37*
G36*
G01*
X61732000Y-30566000D02*
X62982000Y-30566000D01*
G75*
G02*
X63232000Y-30816000I0J-250000D01*
G01*
X63232000Y-31741000D01*
G75*
G02*
X62982000Y-31991000I-250000J0D01*
G01*
X61732000Y-31991000D01*
G75*
G02*
X61482000Y-31741000I0J250000D01*
G01*
X61482000Y-30816000D01*
G75*
G02*
X61732000Y-30566000I250000J0D01*
G01*
G37*
G04 #@! TD*
G04 #@! TO.C,C8*
G36*
G01*
X17155000Y-33414000D02*
X18405000Y-33414000D01*
G75*
G02*
X18655000Y-33664000I0J-250000D01*
G01*
X18655000Y-34589000D01*
G75*
G02*
X18405000Y-34839000I-250000J0D01*
G01*
X17155000Y-34839000D01*
G75*
G02*
X16905000Y-34589000I0J250000D01*
G01*
X16905000Y-33664000D01*
G75*
G02*
X17155000Y-33414000I250000J0D01*
G01*
G37*
G36*
G01*
X17155000Y-30439000D02*
X18405000Y-30439000D01*
G75*
G02*
X18655000Y-30689000I0J-250000D01*
G01*
X18655000Y-31614000D01*
G75*
G02*
X18405000Y-31864000I-250000J0D01*
G01*
X17155000Y-31864000D01*
G75*
G02*
X16905000Y-31614000I0J250000D01*
G01*
X16905000Y-30689000D01*
G75*
G02*
X17155000Y-30439000I250000J0D01*
G01*
G37*
G04 #@! TD*
G04 #@! TO.C,C7*
G36*
G01*
X9007000Y-31864000D02*
X7757000Y-31864000D01*
G75*
G02*
X7507000Y-31614000I0J250000D01*
G01*
X7507000Y-30689000D01*
G75*
G02*
X7757000Y-30439000I250000J0D01*
G01*
X9007000Y-30439000D01*
G75*
G02*
X9257000Y-30689000I0J-250000D01*
G01*
X9257000Y-31614000D01*
G75*
G02*
X9007000Y-31864000I-250000J0D01*
G01*
G37*
G36*
G01*
X9007000Y-34839000D02*
X7757000Y-34839000D01*
G75*
G02*
X7507000Y-34589000I0J250000D01*
G01*
X7507000Y-33664000D01*
G75*
G02*
X7757000Y-33414000I250000J0D01*
G01*
X9007000Y-33414000D01*
G75*
G02*
X9257000Y-33664000I0J-250000D01*
G01*
X9257000Y-34589000D01*
G75*
G02*
X9007000Y-34839000I-250000J0D01*
G01*
G37*
G04 #@! TD*
G04 #@! TO.C,C6*
G36*
G01*
X36439000Y-31991000D02*
X35189000Y-31991000D01*
G75*
G02*
X34939000Y-31741000I0J250000D01*
G01*
X34939000Y-30816000D01*
G75*
G02*
X35189000Y-30566000I250000J0D01*
G01*
X36439000Y-30566000D01*
G75*
G02*
X36689000Y-30816000I0J-250000D01*
G01*
X36689000Y-31741000D01*
G75*
G02*
X36439000Y-31991000I-250000J0D01*
G01*
G37*
G36*
G01*
X36439000Y-34966000D02*
X35189000Y-34966000D01*
G75*
G02*
X34939000Y-34716000I0J250000D01*
G01*
X34939000Y-33791000D01*
G75*
G02*
X35189000Y-33541000I250000J0D01*
G01*
X36439000Y-33541000D01*
G75*
G02*
X36689000Y-33791000I0J-250000D01*
G01*
X36689000Y-34716000D01*
G75*
G02*
X36439000Y-34966000I-250000J0D01*
G01*
G37*
G04 #@! TD*
G04 #@! TO.C,C14*
G36*
G01*
X53223000Y-33541000D02*
X54473000Y-33541000D01*
G75*
G02*
X54723000Y-33791000I0J-250000D01*
G01*
X54723000Y-34716000D01*
G75*
G02*
X54473000Y-34966000I-250000J0D01*
G01*
X53223000Y-34966000D01*
G75*
G02*
X52973000Y-34716000I0J250000D01*
G01*
X52973000Y-33791000D01*
G75*
G02*
X53223000Y-33541000I250000J0D01*
G01*
G37*
G36*
G01*
X53223000Y-30566000D02*
X54473000Y-30566000D01*
G75*
G02*
X54723000Y-30816000I0J-250000D01*
G01*
X54723000Y-31741000D01*
G75*
G02*
X54473000Y-31991000I-250000J0D01*
G01*
X53223000Y-31991000D01*
G75*
G02*
X52973000Y-31741000I0J250000D01*
G01*
X52973000Y-30816000D01*
G75*
G02*
X53223000Y-30566000I250000J0D01*
G01*
G37*
G04 #@! TD*
G04 #@! TO.C,C13*
G36*
G01*
X43698000Y-33414000D02*
X44948000Y-33414000D01*
G75*
G02*
X45198000Y-33664000I0J-250000D01*
G01*
X45198000Y-34589000D01*
G75*
G02*
X44948000Y-34839000I-250000J0D01*
G01*
X43698000Y-34839000D01*
G75*
G02*
X43448000Y-34589000I0J250000D01*
G01*
X43448000Y-33664000D01*
G75*
G02*
X43698000Y-33414000I250000J0D01*
G01*
G37*
G36*
G01*
X43698000Y-30439000D02*
X44948000Y-30439000D01*
G75*
G02*
X45198000Y-30689000I0J-250000D01*
G01*
X45198000Y-31614000D01*
G75*
G02*
X44948000Y-31864000I-250000J0D01*
G01*
X43698000Y-31864000D01*
G75*
G02*
X43448000Y-31614000I0J250000D01*
G01*
X43448000Y-30689000D01*
G75*
G02*
X43698000Y-30439000I250000J0D01*
G01*
G37*
G04 #@! TD*
G04 #@! TO.C,R2*
G36*
G01*
X86048001Y-29649000D02*
X85147999Y-29649000D01*
G75*
G02*
X84898000Y-29399001I0J249999D01*
G01*
X84898000Y-28748999D01*
G75*
G02*
X85147999Y-28499000I249999J0D01*
G01*
X86048001Y-28499000D01*
G75*
G02*
X86298000Y-28748999I0J-249999D01*
G01*
X86298000Y-29399001D01*
G75*
G02*
X86048001Y-29649000I-249999J0D01*
G01*
G37*
G36*
G01*
X86048001Y-31699000D02*
X85147999Y-31699000D01*
G75*
G02*
X84898000Y-31449001I0J249999D01*
G01*
X84898000Y-30798999D01*
G75*
G02*
X85147999Y-30549000I249999J0D01*
G01*
X86048001Y-30549000D01*
G75*
G02*
X86298000Y-30798999I0J-249999D01*
G01*
X86298000Y-31449001D01*
G75*
G02*
X86048001Y-31699000I-249999J0D01*
G01*
G37*
G04 #@! TD*
G04 #@! TO.C,C1*
G36*
G01*
X90414000Y-31864000D02*
X89164000Y-31864000D01*
G75*
G02*
X88914000Y-31614000I0J250000D01*
G01*
X88914000Y-30689000D01*
G75*
G02*
X89164000Y-30439000I250000J0D01*
G01*
X90414000Y-30439000D01*
G75*
G02*
X90664000Y-30689000I0J-250000D01*
G01*
X90664000Y-31614000D01*
G75*
G02*
X90414000Y-31864000I-250000J0D01*
G01*
G37*
G36*
G01*
X90414000Y-34839000D02*
X89164000Y-34839000D01*
G75*
G02*
X88914000Y-34589000I0J250000D01*
G01*
X88914000Y-33664000D01*
G75*
G02*
X89164000Y-33414000I250000J0D01*
G01*
X90414000Y-33414000D01*
G75*
G02*
X90664000Y-33664000I0J-250000D01*
G01*
X90664000Y-34589000D01*
G75*
G02*
X90414000Y-34839000I-250000J0D01*
G01*
G37*
G04 #@! TD*
M02*
