G04 #@! TF.GenerationSoftware,KiCad,Pcbnew,(5.0.2)-1*
G04 #@! TF.CreationDate,2019-09-20T08:48:42-04:00*
G04 #@! TF.ProjectId,Z80_CPU,5a38305f-4350-4552-9e6b-696361645f70,rev?*
G04 #@! TF.SameCoordinates,Original*
G04 #@! TF.FileFunction,Copper,L2,Bot*
G04 #@! TF.FilePolarity,Positive*
%FSLAX46Y46*%
G04 Gerber Fmt 4.6, Leading zero omitted, Abs format (unit mm)*
G04 Created by KiCad (PCBNEW (5.0.2)-1) date 9/20/2019 8:48:42 AM*
%MOMM*%
%LPD*%
G01*
G04 APERTURE LIST*
G04 #@! TA.AperFunction,ComponentPad*
%ADD10R,1.700000X1.700000*%
G04 #@! TD*
G04 #@! TA.AperFunction,ComponentPad*
%ADD11O,1.700000X1.700000*%
G04 #@! TD*
G04 #@! TA.AperFunction,ComponentPad*
%ADD12R,1.800000X1.800000*%
G04 #@! TD*
G04 #@! TA.AperFunction,ComponentPad*
%ADD13C,1.800000*%
G04 #@! TD*
G04 #@! TA.AperFunction,ComponentPad*
%ADD14C,1.700000*%
G04 #@! TD*
G04 #@! TA.AperFunction,ComponentPad*
%ADD15C,3.500000*%
G04 #@! TD*
G04 #@! TA.AperFunction,ComponentPad*
%ADD16R,1.600000X1.600000*%
G04 #@! TD*
G04 #@! TA.AperFunction,ComponentPad*
%ADD17O,1.600000X1.600000*%
G04 #@! TD*
G04 #@! TA.AperFunction,ComponentPad*
%ADD18C,1.600000*%
G04 #@! TD*
G04 #@! TA.AperFunction,ComponentPad*
%ADD19C,1.500000*%
G04 #@! TD*
G04 APERTURE END LIST*
D10*
G04 #@! TO.P,BRD1,1*
G04 #@! TO.N,GND*
X174036001Y-52336001D03*
D11*
G04 #@! TO.P,BRD1,2*
G04 #@! TO.N,/S_D_RTS1*
X174036001Y-54876001D03*
G04 #@! TO.P,BRD1,3*
G04 #@! TO.N,+5V*
X174036001Y-57416001D03*
G04 #@! TO.P,BRD1,4*
G04 #@! TO.N,/SER_D2F1*
X174036001Y-59956001D03*
G04 #@! TO.P,BRD1,5*
G04 #@! TO.N,/SER_F2D1*
X174036001Y-62496001D03*
G04 #@! TO.P,BRD1,6*
G04 #@! TO.N,/S_D_CTS1*
X174036001Y-65036001D03*
G04 #@! TD*
D12*
G04 #@! TO.P,D1,1*
G04 #@! TO.N,Net-(D1-Pad1)*
X155886001Y-65036001D03*
D13*
G04 #@! TO.P,D1,2*
G04 #@! TO.N,+5V*
X158426001Y-65036001D03*
G04 #@! TD*
D11*
G04 #@! TO.P,J1,8*
G04 #@! TO.N,Net-(J1-Pad8)*
X114300000Y-22860000D03*
G04 #@! TO.P,J1,7*
G04 #@! TO.N,Net-(J1-Pad7)*
X114300000Y-25400000D03*
G04 #@! TO.P,J1,6*
G04 #@! TO.N,Net-(J1-Pad6)*
X114300000Y-27940000D03*
G04 #@! TO.P,J1,5*
G04 #@! TO.N,Net-(J1-Pad5)*
X114300000Y-30480000D03*
G04 #@! TO.P,J1,4*
G04 #@! TO.N,Net-(J1-Pad4)*
X114300000Y-33020000D03*
G04 #@! TO.P,J1,3*
G04 #@! TO.N,Net-(J1-Pad3)*
X114300000Y-35560000D03*
G04 #@! TO.P,J1,2*
G04 #@! TO.N,Net-(J1-Pad2)*
X114300000Y-38100000D03*
D10*
G04 #@! TO.P,J1,1*
G04 #@! TO.N,Net-(J1-Pad1)*
X114300000Y-40640000D03*
G04 #@! TD*
G04 #@! TO.P,J2,1*
G04 #@! TO.N,Net-(J2-Pad1)*
X139700000Y-40640000D03*
D11*
G04 #@! TO.P,J2,2*
G04 #@! TO.N,Net-(J2-Pad2)*
X139700000Y-38100000D03*
G04 #@! TO.P,J2,3*
G04 #@! TO.N,Net-(J2-Pad3)*
X139700000Y-35560000D03*
G04 #@! TO.P,J2,4*
G04 #@! TO.N,Net-(J2-Pad4)*
X139700000Y-33020000D03*
G04 #@! TO.P,J2,5*
G04 #@! TO.N,Net-(J2-Pad5)*
X139700000Y-30480000D03*
G04 #@! TO.P,J2,6*
G04 #@! TO.N,Net-(J2-Pad6)*
X139700000Y-27940000D03*
G04 #@! TO.P,J2,7*
G04 #@! TO.N,Net-(J2-Pad7)*
X139700000Y-25400000D03*
G04 #@! TO.P,J2,8*
G04 #@! TO.N,Net-(J2-Pad8)*
X139700000Y-22860000D03*
G04 #@! TD*
D10*
G04 #@! TO.P,J3,1*
G04 #@! TO.N,Net-(J3-Pad1)*
X86360000Y-40640000D03*
D11*
G04 #@! TO.P,J3,2*
G04 #@! TO.N,Net-(J3-Pad2)*
X86360000Y-38100000D03*
G04 #@! TO.P,J3,3*
G04 #@! TO.N,Net-(J3-Pad3)*
X86360000Y-35560000D03*
G04 #@! TO.P,J3,4*
G04 #@! TO.N,Net-(J3-Pad4)*
X86360000Y-33020000D03*
G04 #@! TO.P,J3,5*
G04 #@! TO.N,Net-(J3-Pad5)*
X86360000Y-30480000D03*
G04 #@! TO.P,J3,6*
G04 #@! TO.N,Net-(J3-Pad6)*
X86360000Y-27940000D03*
G04 #@! TO.P,J3,7*
G04 #@! TO.N,Net-(J3-Pad7)*
X86360000Y-25400000D03*
G04 #@! TO.P,J3,8*
G04 #@! TO.N,Net-(J3-Pad8)*
X86360000Y-22860000D03*
G04 #@! TD*
G04 #@! TO.P,J4,8*
G04 #@! TO.N,Net-(J4-Pad8)*
X111760000Y-22860000D03*
G04 #@! TO.P,J4,7*
G04 #@! TO.N,Net-(J4-Pad7)*
X111760000Y-25400000D03*
G04 #@! TO.P,J4,6*
G04 #@! TO.N,Net-(J4-Pad6)*
X111760000Y-27940000D03*
G04 #@! TO.P,J4,5*
G04 #@! TO.N,Net-(J4-Pad5)*
X111760000Y-30480000D03*
G04 #@! TO.P,J4,4*
G04 #@! TO.N,Net-(J4-Pad4)*
X111760000Y-33020000D03*
G04 #@! TO.P,J4,3*
G04 #@! TO.N,Net-(J4-Pad3)*
X111760000Y-35560000D03*
G04 #@! TO.P,J4,2*
G04 #@! TO.N,Net-(J4-Pad2)*
X111760000Y-38100000D03*
D10*
G04 #@! TO.P,J4,1*
G04 #@! TO.N,Net-(J4-Pad1)*
X111760000Y-40640000D03*
G04 #@! TD*
G04 #@! TO.P,J5,1*
G04 #@! TO.N,Net-(J5-Pad1)*
X152786001Y-65586001D03*
D11*
G04 #@! TO.P,J5,2*
G04 #@! TO.N,Net-(J5-Pad2)*
X152786001Y-68126001D03*
G04 #@! TO.P,J5,3*
G04 #@! TO.N,Net-(C1-Pad1)*
X152786001Y-70666001D03*
G04 #@! TO.P,J5,4*
G04 #@! TO.N,GND*
X152786001Y-73206001D03*
G04 #@! TD*
D10*
G04 #@! TO.P,J6,1*
G04 #@! TO.N,+5V*
X15240000Y-71120000D03*
D14*
G04 #@! TO.P,J6,2*
G04 #@! TO.N,/USB-DM*
X15240000Y-68620000D03*
G04 #@! TO.P,J6,3*
G04 #@! TO.N,/USB-DP*
X13240000Y-68620000D03*
G04 #@! TO.P,J6,4*
G04 #@! TO.N,GND*
X13240000Y-71120000D03*
D15*
G04 #@! TO.P,J6,5*
G04 #@! TO.N,Net-(J6-Pad5)*
X10530000Y-75890000D03*
X10530000Y-63850000D03*
G04 #@! TD*
D16*
G04 #@! TO.P,U1,1*
G04 #@! TO.N,/CPUA11*
X5080000Y-7620000D03*
D17*
G04 #@! TO.P,U1,21*
G04 #@! TO.N,/~CPURD*
X20320000Y-55880000D03*
G04 #@! TO.P,U1,2*
G04 #@! TO.N,/CPUA12*
X5080000Y-10160000D03*
G04 #@! TO.P,U1,22*
G04 #@! TO.N,/~CPUWR*
X20320000Y-53340000D03*
G04 #@! TO.P,U1,3*
G04 #@! TO.N,/CPUA13*
X5080000Y-12700000D03*
G04 #@! TO.P,U1,23*
G04 #@! TO.N,/~BUSACK*
X20320000Y-50800000D03*
G04 #@! TO.P,U1,4*
G04 #@! TO.N,/CPUA14*
X5080000Y-15240000D03*
G04 #@! TO.P,U1,24*
G04 #@! TO.N,/~WAIT*
X20320000Y-48260000D03*
G04 #@! TO.P,U1,5*
G04 #@! TO.N,/CPUA15*
X5080000Y-17780000D03*
G04 #@! TO.P,U1,25*
G04 #@! TO.N,/~BUSRQ*
X20320000Y-45720000D03*
G04 #@! TO.P,U1,6*
G04 #@! TO.N,/CPUCLK*
X5080000Y-20320000D03*
G04 #@! TO.P,U1,26*
G04 #@! TO.N,/~CPURST*
X20320000Y-43180000D03*
G04 #@! TO.P,U1,7*
G04 #@! TO.N,/CPUD4*
X5080000Y-22860000D03*
G04 #@! TO.P,U1,27*
G04 #@! TO.N,/~M1*
X20320000Y-40640000D03*
G04 #@! TO.P,U1,8*
G04 #@! TO.N,/CPUD3*
X5080000Y-25400000D03*
G04 #@! TO.P,U1,28*
G04 #@! TO.N,/RFSH*
X20320000Y-38100000D03*
G04 #@! TO.P,U1,9*
G04 #@! TO.N,/CPUD5*
X5080000Y-27940000D03*
G04 #@! TO.P,U1,29*
G04 #@! TO.N,GND*
X20320000Y-35560000D03*
G04 #@! TO.P,U1,10*
G04 #@! TO.N,/CPUD6*
X5080000Y-30480000D03*
G04 #@! TO.P,U1,30*
G04 #@! TO.N,/CPUA0*
X20320000Y-33020000D03*
G04 #@! TO.P,U1,11*
G04 #@! TO.N,+5V*
X5080000Y-33020000D03*
G04 #@! TO.P,U1,31*
G04 #@! TO.N,/CPUA1*
X20320000Y-30480000D03*
G04 #@! TO.P,U1,12*
G04 #@! TO.N,/CPUD2*
X5080000Y-35560000D03*
G04 #@! TO.P,U1,32*
G04 #@! TO.N,/CPUA2*
X20320000Y-27940000D03*
G04 #@! TO.P,U1,13*
G04 #@! TO.N,/CPUD7*
X5080000Y-38100000D03*
G04 #@! TO.P,U1,33*
G04 #@! TO.N,/CPUA3*
X20320000Y-25400000D03*
G04 #@! TO.P,U1,14*
G04 #@! TO.N,/CPUD0*
X5080000Y-40640000D03*
G04 #@! TO.P,U1,34*
G04 #@! TO.N,/CPUA4*
X20320000Y-22860000D03*
G04 #@! TO.P,U1,15*
G04 #@! TO.N,/CPUD1*
X5080000Y-43180000D03*
G04 #@! TO.P,U1,35*
G04 #@! TO.N,/CPUA5*
X20320000Y-20320000D03*
G04 #@! TO.P,U1,16*
G04 #@! TO.N,/~INT*
X5080000Y-45720000D03*
G04 #@! TO.P,U1,36*
G04 #@! TO.N,/CPUA6*
X20320000Y-17780000D03*
G04 #@! TO.P,U1,17*
G04 #@! TO.N,/~NMI*
X5080000Y-48260000D03*
G04 #@! TO.P,U1,37*
G04 #@! TO.N,/CPUA7*
X20320000Y-15240000D03*
G04 #@! TO.P,U1,18*
G04 #@! TO.N,/~HALT*
X5080000Y-50800000D03*
G04 #@! TO.P,U1,38*
G04 #@! TO.N,/CPUA8*
X20320000Y-12700000D03*
G04 #@! TO.P,U1,19*
G04 #@! TO.N,/~MREQ*
X5080000Y-53340000D03*
G04 #@! TO.P,U1,39*
G04 #@! TO.N,/CPUA9*
X20320000Y-10160000D03*
G04 #@! TO.P,U1,20*
G04 #@! TO.N,/~IORQ*
X5080000Y-55880000D03*
G04 #@! TO.P,U1,40*
G04 #@! TO.N,/CPUA10*
X20320000Y-7620000D03*
G04 #@! TD*
D16*
G04 #@! TO.P,U2,1*
G04 #@! TO.N,/CPUD2*
X119380000Y-7620000D03*
D17*
G04 #@! TO.P,U2,21*
G04 #@! TO.N,N/C*
X134620000Y-55880000D03*
G04 #@! TO.P,U2,2*
G04 #@! TO.N,/CPUD7*
X119380000Y-10160000D03*
G04 #@! TO.P,U2,22*
G04 #@! TO.N,/PIO1INT_O*
X134620000Y-53340000D03*
G04 #@! TO.P,U2,3*
G04 #@! TO.N,/CPUD6*
X119380000Y-12700000D03*
G04 #@! TO.P,U2,23*
G04 #@! TO.N,/~INT*
X134620000Y-50800000D03*
G04 #@! TO.P,U2,4*
G04 #@! TO.N,/~PIOCS1*
X119380000Y-15240000D03*
G04 #@! TO.P,U2,24*
G04 #@! TO.N,/CTCINT_O*
X134620000Y-48260000D03*
G04 #@! TO.P,U2,5*
G04 #@! TO.N,/CPUA1*
X119380000Y-17780000D03*
G04 #@! TO.P,U2,25*
G04 #@! TO.N,/CPUCLK*
X134620000Y-45720000D03*
G04 #@! TO.P,U2,6*
G04 #@! TO.N,/CPUA0*
X119380000Y-20320000D03*
G04 #@! TO.P,U2,26*
G04 #@! TO.N,+5V*
X134620000Y-43180000D03*
G04 #@! TO.P,U2,7*
G04 #@! TO.N,Net-(J1-Pad8)*
X119380000Y-22860000D03*
G04 #@! TO.P,U2,27*
G04 #@! TO.N,Net-(J2-Pad1)*
X134620000Y-40640000D03*
G04 #@! TO.P,U2,8*
G04 #@! TO.N,Net-(J1-Pad7)*
X119380000Y-25400000D03*
G04 #@! TO.P,U2,28*
G04 #@! TO.N,Net-(J2-Pad2)*
X134620000Y-38100000D03*
G04 #@! TO.P,U2,9*
G04 #@! TO.N,Net-(J1-Pad6)*
X119380000Y-27940000D03*
G04 #@! TO.P,U2,29*
G04 #@! TO.N,Net-(J2-Pad3)*
X134620000Y-35560000D03*
G04 #@! TO.P,U2,10*
G04 #@! TO.N,Net-(J1-Pad5)*
X119380000Y-30480000D03*
G04 #@! TO.P,U2,30*
G04 #@! TO.N,Net-(J2-Pad4)*
X134620000Y-33020000D03*
G04 #@! TO.P,U2,11*
G04 #@! TO.N,GND*
X119380000Y-33020000D03*
G04 #@! TO.P,U2,31*
G04 #@! TO.N,Net-(J2-Pad5)*
X134620000Y-30480000D03*
G04 #@! TO.P,U2,12*
G04 #@! TO.N,Net-(J1-Pad4)*
X119380000Y-35560000D03*
G04 #@! TO.P,U2,32*
G04 #@! TO.N,Net-(J2-Pad6)*
X134620000Y-27940000D03*
G04 #@! TO.P,U2,13*
G04 #@! TO.N,Net-(J1-Pad3)*
X119380000Y-38100000D03*
G04 #@! TO.P,U2,33*
G04 #@! TO.N,Net-(J2-Pad7)*
X134620000Y-25400000D03*
G04 #@! TO.P,U2,14*
G04 #@! TO.N,Net-(J1-Pad2)*
X119380000Y-40640000D03*
G04 #@! TO.P,U2,34*
G04 #@! TO.N,Net-(J2-Pad8)*
X134620000Y-22860000D03*
G04 #@! TO.P,U2,15*
G04 #@! TO.N,Net-(J1-Pad1)*
X119380000Y-43180000D03*
G04 #@! TO.P,U2,35*
G04 #@! TO.N,/~CPURD*
X134620000Y-20320000D03*
G04 #@! TO.P,U2,16*
G04 #@! TO.N,N/C*
X119380000Y-45720000D03*
G04 #@! TO.P,U2,36*
G04 #@! TO.N,/~IORQ*
X134620000Y-17780000D03*
G04 #@! TO.P,U2,17*
G04 #@! TO.N,N/C*
X119380000Y-48260000D03*
G04 #@! TO.P,U2,37*
G04 #@! TO.N,/~M1*
X134620000Y-15240000D03*
G04 #@! TO.P,U2,18*
G04 #@! TO.N,N/C*
X119380000Y-50800000D03*
G04 #@! TO.P,U2,38*
G04 #@! TO.N,/CPUD5*
X134620000Y-12700000D03*
G04 #@! TO.P,U2,19*
G04 #@! TO.N,/CPUD0*
X119380000Y-53340000D03*
G04 #@! TO.P,U2,39*
G04 #@! TO.N,/CPUD4*
X134620000Y-10160000D03*
G04 #@! TO.P,U2,20*
G04 #@! TO.N,/CPUD1*
X119380000Y-55880000D03*
G04 #@! TO.P,U2,40*
G04 #@! TO.N,/CPUD3*
X134620000Y-7620000D03*
G04 #@! TD*
G04 #@! TO.P,U3,40*
G04 #@! TO.N,/CPUD0*
X160020000Y-7620000D03*
G04 #@! TO.P,U3,20*
G04 #@! TO.N,/CPUCLK*
X144780000Y-55880000D03*
G04 #@! TO.P,U3,39*
G04 #@! TO.N,/CPUD2*
X160020000Y-10160000D03*
G04 #@! TO.P,U3,19*
G04 #@! TO.N,N/C*
X144780000Y-53340000D03*
G04 #@! TO.P,U3,38*
G04 #@! TO.N,/CPUD4*
X160020000Y-12700000D03*
G04 #@! TO.P,U3,18*
G04 #@! TO.N,N/C*
X144780000Y-50800000D03*
G04 #@! TO.P,U3,37*
G04 #@! TO.N,/CPUD6*
X160020000Y-15240000D03*
G04 #@! TO.P,U3,17*
G04 #@! TO.N,/S_D_RTS1*
X144780000Y-48260000D03*
G04 #@! TO.P,U3,36*
G04 #@! TO.N,/~IORQ*
X160020000Y-17780000D03*
G04 #@! TO.P,U3,16*
G04 #@! TO.N,N/C*
X144780000Y-45720000D03*
G04 #@! TO.P,U3,35*
G04 #@! TO.N,/~DARTCS*
X160020000Y-20320000D03*
G04 #@! TO.P,U3,15*
G04 #@! TO.N,/SER_D2P*
X144780000Y-43180000D03*
G04 #@! TO.P,U3,34*
G04 #@! TO.N,/CPUA0*
X160020000Y-22860000D03*
G04 #@! TO.P,U3,14*
G04 #@! TO.N,/UARTCLK*
X144780000Y-40640000D03*
G04 #@! TO.P,U3,33*
G04 #@! TO.N,/CPUA1*
X160020000Y-25400000D03*
G04 #@! TO.P,U3,13*
G04 #@! TO.N,/UARTCLK*
X144780000Y-38100000D03*
G04 #@! TO.P,U3,32*
G04 #@! TO.N,/~CPURD*
X160020000Y-27940000D03*
G04 #@! TO.P,U3,12*
G04 #@! TO.N,/SER_P2D*
X144780000Y-35560000D03*
G04 #@! TO.P,U3,31*
G04 #@! TO.N,GND*
X160020000Y-30480000D03*
G04 #@! TO.P,U3,11*
G04 #@! TO.N,N/C*
X144780000Y-33020000D03*
G04 #@! TO.P,U3,30*
X160020000Y-33020000D03*
G04 #@! TO.P,U3,10*
X144780000Y-30480000D03*
G04 #@! TO.P,U3,29*
X160020000Y-35560000D03*
G04 #@! TO.P,U3,9*
G04 #@! TO.N,VCC*
X144780000Y-27940000D03*
G04 #@! TO.P,U3,28*
G04 #@! TO.N,/SER_F2D1*
X160020000Y-38100000D03*
G04 #@! TO.P,U3,8*
G04 #@! TO.N,/~M1*
X144780000Y-25400000D03*
G04 #@! TO.P,U3,27*
G04 #@! TO.N,/UARTCLK*
X160020000Y-40640000D03*
G04 #@! TO.P,U3,7*
G04 #@! TO.N,/DINT_O*
X144780000Y-22860000D03*
G04 #@! TO.P,U3,26*
G04 #@! TO.N,/SER_D2F1*
X160020000Y-43180000D03*
G04 #@! TO.P,U3,6*
G04 #@! TO.N,Net-(R2-Pad2)*
X144780000Y-20320000D03*
G04 #@! TO.P,U3,25*
G04 #@! TO.N,N/C*
X160020000Y-45720000D03*
G04 #@! TO.P,U3,5*
G04 #@! TO.N,/~INT*
X144780000Y-17780000D03*
G04 #@! TO.P,U3,24*
G04 #@! TO.N,N/C*
X160020000Y-48260000D03*
G04 #@! TO.P,U3,4*
G04 #@! TO.N,/CPUD7*
X144780000Y-15240000D03*
G04 #@! TO.P,U3,23*
G04 #@! TO.N,N/C*
X160020000Y-50800000D03*
G04 #@! TO.P,U3,3*
G04 #@! TO.N,/CPUD5*
X144780000Y-12700000D03*
G04 #@! TO.P,U3,22*
G04 #@! TO.N,N/C*
X160020000Y-53340000D03*
G04 #@! TO.P,U3,2*
G04 #@! TO.N,/CPUD3*
X144780000Y-10160000D03*
G04 #@! TO.P,U3,21*
G04 #@! TO.N,/~WRMRST*
X160020000Y-55880000D03*
D16*
G04 #@! TO.P,U3,1*
G04 #@! TO.N,/CPUD1*
X144780000Y-7620000D03*
G04 #@! TD*
G04 #@! TO.P,U4,1*
G04 #@! TO.N,N/C*
X25400000Y-7620000D03*
D17*
G04 #@! TO.P,U4,15*
G04 #@! TO.N,/CPUD3*
X40640000Y-40640000D03*
G04 #@! TO.P,U4,2*
G04 #@! TO.N,/CPUA12*
X25400000Y-10160000D03*
G04 #@! TO.P,U4,16*
G04 #@! TO.N,/CPUD4*
X40640000Y-38100000D03*
G04 #@! TO.P,U4,3*
G04 #@! TO.N,/CPUA7*
X25400000Y-12700000D03*
G04 #@! TO.P,U4,17*
G04 #@! TO.N,/CPUD5*
X40640000Y-35560000D03*
G04 #@! TO.P,U4,4*
G04 #@! TO.N,/CPUA6*
X25400000Y-15240000D03*
G04 #@! TO.P,U4,18*
G04 #@! TO.N,/CPUD6*
X40640000Y-33020000D03*
G04 #@! TO.P,U4,5*
G04 #@! TO.N,/CPUA5*
X25400000Y-17780000D03*
G04 #@! TO.P,U4,19*
G04 #@! TO.N,/CPUD7*
X40640000Y-30480000D03*
G04 #@! TO.P,U4,6*
G04 #@! TO.N,/CPUA4*
X25400000Y-20320000D03*
G04 #@! TO.P,U4,20*
G04 #@! TO.N,/~EECS*
X40640000Y-27940000D03*
G04 #@! TO.P,U4,7*
G04 #@! TO.N,/CPUA3*
X25400000Y-22860000D03*
G04 #@! TO.P,U4,21*
G04 #@! TO.N,/CPUA10*
X40640000Y-25400000D03*
G04 #@! TO.P,U4,8*
G04 #@! TO.N,/CPUA2*
X25400000Y-25400000D03*
G04 #@! TO.P,U4,22*
G04 #@! TO.N,/~MEMRD*
X40640000Y-22860000D03*
G04 #@! TO.P,U4,9*
G04 #@! TO.N,/CPUA1*
X25400000Y-27940000D03*
G04 #@! TO.P,U4,23*
G04 #@! TO.N,/CPUA11*
X40640000Y-20320000D03*
G04 #@! TO.P,U4,10*
G04 #@! TO.N,/CPUA0*
X25400000Y-30480000D03*
G04 #@! TO.P,U4,24*
G04 #@! TO.N,/CPUA9*
X40640000Y-17780000D03*
G04 #@! TO.P,U4,11*
G04 #@! TO.N,/CPUD0*
X25400000Y-33020000D03*
G04 #@! TO.P,U4,25*
G04 #@! TO.N,/CPUA8*
X40640000Y-15240000D03*
G04 #@! TO.P,U4,12*
G04 #@! TO.N,/CPUD1*
X25400000Y-35560000D03*
G04 #@! TO.P,U4,26*
G04 #@! TO.N,N/C*
X40640000Y-12700000D03*
G04 #@! TO.P,U4,13*
G04 #@! TO.N,/CPUD2*
X25400000Y-38100000D03*
G04 #@! TO.P,U4,27*
G04 #@! TO.N,/~MEMWR*
X40640000Y-10160000D03*
G04 #@! TO.P,U4,14*
G04 #@! TO.N,GND*
X25400000Y-40640000D03*
G04 #@! TO.P,U4,28*
G04 #@! TO.N,+5V*
X40640000Y-7620000D03*
G04 #@! TD*
G04 #@! TO.P,U5,28*
G04 #@! TO.N,/CPUD3*
X180340000Y-7620000D03*
G04 #@! TO.P,U5,14*
G04 #@! TO.N,/~M1*
X165100000Y-40640000D03*
G04 #@! TO.P,U5,27*
G04 #@! TO.N,/CPUD2*
X180340000Y-10160000D03*
G04 #@! TO.P,U5,13*
G04 #@! TO.N,/DINT_O*
X165100000Y-38100000D03*
G04 #@! TO.P,U5,26*
G04 #@! TO.N,/CPUD1*
X180340000Y-12700000D03*
G04 #@! TO.P,U5,12*
G04 #@! TO.N,/~INT*
X165100000Y-35560000D03*
G04 #@! TO.P,U5,25*
G04 #@! TO.N,/CPUD0*
X180340000Y-15240000D03*
G04 #@! TO.P,U5,11*
G04 #@! TO.N,/CTCINT_O*
X165100000Y-33020000D03*
G04 #@! TO.P,U5,24*
G04 #@! TO.N,VCC*
X180340000Y-17780000D03*
G04 #@! TO.P,U5,10*
G04 #@! TO.N,/~IORQ*
X165100000Y-30480000D03*
G04 #@! TO.P,U5,23*
G04 #@! TO.N,N/C*
X180340000Y-20320000D03*
G04 #@! TO.P,U5,9*
X165100000Y-27940000D03*
G04 #@! TO.P,U5,22*
X180340000Y-22860000D03*
G04 #@! TO.P,U5,8*
X165100000Y-25400000D03*
G04 #@! TO.P,U5,21*
X180340000Y-25400000D03*
G04 #@! TO.P,U5,7*
X165100000Y-22860000D03*
G04 #@! TO.P,U5,20*
X180340000Y-27940000D03*
G04 #@! TO.P,U5,6*
G04 #@! TO.N,/~CPURD*
X165100000Y-20320000D03*
G04 #@! TO.P,U5,19*
G04 #@! TO.N,Net-(R3-Pad2)*
X180340000Y-30480000D03*
G04 #@! TO.P,U5,5*
G04 #@! TO.N,GND*
X165100000Y-17780000D03*
G04 #@! TO.P,U5,18*
G04 #@! TO.N,Net-(R3-Pad2)*
X180340000Y-33020000D03*
G04 #@! TO.P,U5,4*
G04 #@! TO.N,/CPUD7*
X165100000Y-15240000D03*
G04 #@! TO.P,U5,17*
G04 #@! TO.N,/~WRMRST*
X180340000Y-35560000D03*
G04 #@! TO.P,U5,3*
G04 #@! TO.N,/CPUD6*
X165100000Y-12700000D03*
G04 #@! TO.P,U5,16*
G04 #@! TO.N,/~CTCCS*
X180340000Y-38100000D03*
G04 #@! TO.P,U5,2*
G04 #@! TO.N,/CPUD5*
X165100000Y-10160000D03*
G04 #@! TO.P,U5,15*
G04 #@! TO.N,/CPUCLK*
X180340000Y-40640000D03*
D16*
G04 #@! TO.P,U5,1*
G04 #@! TO.N,/CPUD4*
X165100000Y-7620000D03*
G04 #@! TD*
D17*
G04 #@! TO.P,U6,40*
G04 #@! TO.N,/CPUD3*
X106680000Y-7620000D03*
G04 #@! TO.P,U6,20*
G04 #@! TO.N,/CPUD1*
X91440000Y-55880000D03*
G04 #@! TO.P,U6,39*
G04 #@! TO.N,/CPUD4*
X106680000Y-10160000D03*
G04 #@! TO.P,U6,19*
G04 #@! TO.N,/CPUD0*
X91440000Y-53340000D03*
G04 #@! TO.P,U6,38*
G04 #@! TO.N,/CPUD5*
X106680000Y-12700000D03*
G04 #@! TO.P,U6,18*
G04 #@! TO.N,N/C*
X91440000Y-50800000D03*
G04 #@! TO.P,U6,37*
G04 #@! TO.N,/~M1*
X106680000Y-15240000D03*
G04 #@! TO.P,U6,17*
G04 #@! TO.N,N/C*
X91440000Y-48260000D03*
G04 #@! TO.P,U6,36*
G04 #@! TO.N,/~IORQ*
X106680000Y-17780000D03*
G04 #@! TO.P,U6,16*
G04 #@! TO.N,N/C*
X91440000Y-45720000D03*
G04 #@! TO.P,U6,35*
G04 #@! TO.N,/~CPURD*
X106680000Y-20320000D03*
G04 #@! TO.P,U6,15*
G04 #@! TO.N,Net-(J3-Pad1)*
X91440000Y-43180000D03*
G04 #@! TO.P,U6,34*
G04 #@! TO.N,Net-(J4-Pad8)*
X106680000Y-22860000D03*
G04 #@! TO.P,U6,14*
G04 #@! TO.N,Net-(J3-Pad2)*
X91440000Y-40640000D03*
G04 #@! TO.P,U6,33*
G04 #@! TO.N,Net-(J4-Pad7)*
X106680000Y-25400000D03*
G04 #@! TO.P,U6,13*
G04 #@! TO.N,Net-(J3-Pad3)*
X91440000Y-38100000D03*
G04 #@! TO.P,U6,32*
G04 #@! TO.N,Net-(J4-Pad6)*
X106680000Y-27940000D03*
G04 #@! TO.P,U6,12*
G04 #@! TO.N,Net-(J3-Pad4)*
X91440000Y-35560000D03*
G04 #@! TO.P,U6,31*
G04 #@! TO.N,Net-(J4-Pad5)*
X106680000Y-30480000D03*
G04 #@! TO.P,U6,11*
G04 #@! TO.N,GND*
X91440000Y-33020000D03*
G04 #@! TO.P,U6,30*
G04 #@! TO.N,Net-(J4-Pad4)*
X106680000Y-33020000D03*
G04 #@! TO.P,U6,10*
G04 #@! TO.N,Net-(J3-Pad5)*
X91440000Y-30480000D03*
G04 #@! TO.P,U6,29*
G04 #@! TO.N,Net-(J4-Pad3)*
X106680000Y-35560000D03*
G04 #@! TO.P,U6,9*
G04 #@! TO.N,Net-(J3-Pad6)*
X91440000Y-27940000D03*
G04 #@! TO.P,U6,28*
G04 #@! TO.N,Net-(J4-Pad2)*
X106680000Y-38100000D03*
G04 #@! TO.P,U6,8*
G04 #@! TO.N,Net-(J3-Pad7)*
X91440000Y-25400000D03*
G04 #@! TO.P,U6,27*
G04 #@! TO.N,Net-(J4-Pad1)*
X106680000Y-40640000D03*
G04 #@! TO.P,U6,7*
G04 #@! TO.N,Net-(J3-Pad8)*
X91440000Y-22860000D03*
G04 #@! TO.P,U6,26*
G04 #@! TO.N,+5V*
X106680000Y-43180000D03*
G04 #@! TO.P,U6,6*
G04 #@! TO.N,/CPUA0*
X91440000Y-20320000D03*
G04 #@! TO.P,U6,25*
G04 #@! TO.N,/CPUCLK*
X106680000Y-45720000D03*
G04 #@! TO.P,U6,5*
G04 #@! TO.N,/CPUA1*
X91440000Y-17780000D03*
G04 #@! TO.P,U6,24*
G04 #@! TO.N,/PIO1INT_O*
X106680000Y-48260000D03*
G04 #@! TO.P,U6,4*
G04 #@! TO.N,/~PIOCS2*
X91440000Y-15240000D03*
G04 #@! TO.P,U6,23*
G04 #@! TO.N,/~INT*
X106680000Y-50800000D03*
G04 #@! TO.P,U6,3*
G04 #@! TO.N,/CPUD6*
X91440000Y-12700000D03*
G04 #@! TO.P,U6,22*
G04 #@! TO.N,N/C*
X106680000Y-53340000D03*
G04 #@! TO.P,U6,2*
G04 #@! TO.N,/CPUD7*
X91440000Y-10160000D03*
G04 #@! TO.P,U6,21*
G04 #@! TO.N,N/C*
X106680000Y-55880000D03*
D16*
G04 #@! TO.P,U6,1*
G04 #@! TO.N,/CPUD2*
X91440000Y-7620000D03*
G04 #@! TD*
G04 #@! TO.P,U7,1*
G04 #@! TO.N,/SRAMA14*
X45720000Y-7620000D03*
D17*
G04 #@! TO.P,U7,15*
G04 #@! TO.N,/CPUD3*
X60960000Y-40640000D03*
G04 #@! TO.P,U7,2*
G04 #@! TO.N,/CPUA12*
X45720000Y-10160000D03*
G04 #@! TO.P,U7,16*
G04 #@! TO.N,/CPUD4*
X60960000Y-38100000D03*
G04 #@! TO.P,U7,3*
G04 #@! TO.N,/CPUA7*
X45720000Y-12700000D03*
G04 #@! TO.P,U7,17*
G04 #@! TO.N,/CPUD5*
X60960000Y-35560000D03*
G04 #@! TO.P,U7,4*
G04 #@! TO.N,/CPUA6*
X45720000Y-15240000D03*
G04 #@! TO.P,U7,18*
G04 #@! TO.N,/CPUD6*
X60960000Y-33020000D03*
G04 #@! TO.P,U7,5*
G04 #@! TO.N,/CPUA5*
X45720000Y-17780000D03*
G04 #@! TO.P,U7,19*
G04 #@! TO.N,/CPUD7*
X60960000Y-30480000D03*
G04 #@! TO.P,U7,6*
G04 #@! TO.N,/CPUA4*
X45720000Y-20320000D03*
G04 #@! TO.P,U7,20*
G04 #@! TO.N,/~SRAMCS0*
X60960000Y-27940000D03*
G04 #@! TO.P,U7,7*
G04 #@! TO.N,/CPUA3*
X45720000Y-22860000D03*
G04 #@! TO.P,U7,21*
G04 #@! TO.N,/CPUA10*
X60960000Y-25400000D03*
G04 #@! TO.P,U7,8*
G04 #@! TO.N,/CPUA2*
X45720000Y-25400000D03*
G04 #@! TO.P,U7,22*
G04 #@! TO.N,/~MEMWR*
X60960000Y-22860000D03*
G04 #@! TO.P,U7,9*
G04 #@! TO.N,/CPUA1*
X45720000Y-27940000D03*
G04 #@! TO.P,U7,23*
G04 #@! TO.N,/CPUA11*
X60960000Y-20320000D03*
G04 #@! TO.P,U7,10*
G04 #@! TO.N,/CPUA0*
X45720000Y-30480000D03*
G04 #@! TO.P,U7,24*
G04 #@! TO.N,/CPUA9*
X60960000Y-17780000D03*
G04 #@! TO.P,U7,11*
G04 #@! TO.N,/CPUD0*
X45720000Y-33020000D03*
G04 #@! TO.P,U7,25*
G04 #@! TO.N,/CPUA8*
X60960000Y-15240000D03*
G04 #@! TO.P,U7,12*
G04 #@! TO.N,/CPUD1*
X45720000Y-35560000D03*
G04 #@! TO.P,U7,26*
G04 #@! TO.N,/SRAMA13*
X60960000Y-12700000D03*
G04 #@! TO.P,U7,13*
G04 #@! TO.N,/CPUD2*
X45720000Y-38100000D03*
G04 #@! TO.P,U7,27*
G04 #@! TO.N,/~MEMRD*
X60960000Y-10160000D03*
G04 #@! TO.P,U7,14*
G04 #@! TO.N,GND*
X45720000Y-40640000D03*
G04 #@! TO.P,U7,28*
G04 #@! TO.N,VCC*
X60960000Y-7620000D03*
G04 #@! TD*
G04 #@! TO.P,U9,28*
G04 #@! TO.N,VCC*
X81280000Y-7620000D03*
G04 #@! TO.P,U9,14*
G04 #@! TO.N,GND*
X66040000Y-40640000D03*
G04 #@! TO.P,U9,27*
G04 #@! TO.N,/~MEMRD*
X81280000Y-10160000D03*
G04 #@! TO.P,U9,13*
G04 #@! TO.N,/CPUD2*
X66040000Y-38100000D03*
G04 #@! TO.P,U9,26*
G04 #@! TO.N,/SRAMA13*
X81280000Y-12700000D03*
G04 #@! TO.P,U9,12*
G04 #@! TO.N,/CPUD1*
X66040000Y-35560000D03*
G04 #@! TO.P,U9,25*
G04 #@! TO.N,/CPUA8*
X81280000Y-15240000D03*
G04 #@! TO.P,U9,11*
G04 #@! TO.N,/CPUD0*
X66040000Y-33020000D03*
G04 #@! TO.P,U9,24*
G04 #@! TO.N,/CPUA9*
X81280000Y-17780000D03*
G04 #@! TO.P,U9,10*
G04 #@! TO.N,/CPUA0*
X66040000Y-30480000D03*
G04 #@! TO.P,U9,23*
G04 #@! TO.N,/CPUA11*
X81280000Y-20320000D03*
G04 #@! TO.P,U9,9*
G04 #@! TO.N,/CPUA1*
X66040000Y-27940000D03*
G04 #@! TO.P,U9,22*
G04 #@! TO.N,/~MEMWR*
X81280000Y-22860000D03*
G04 #@! TO.P,U9,8*
G04 #@! TO.N,/CPUA2*
X66040000Y-25400000D03*
G04 #@! TO.P,U9,21*
G04 #@! TO.N,/CPUA10*
X81280000Y-25400000D03*
G04 #@! TO.P,U9,7*
G04 #@! TO.N,/CPUA3*
X66040000Y-22860000D03*
G04 #@! TO.P,U9,20*
G04 #@! TO.N,/~SRAMCS1*
X81280000Y-27940000D03*
G04 #@! TO.P,U9,6*
G04 #@! TO.N,/CPUA4*
X66040000Y-20320000D03*
G04 #@! TO.P,U9,19*
G04 #@! TO.N,/CPUD7*
X81280000Y-30480000D03*
G04 #@! TO.P,U9,5*
G04 #@! TO.N,/CPUA5*
X66040000Y-17780000D03*
G04 #@! TO.P,U9,18*
G04 #@! TO.N,/CPUD6*
X81280000Y-33020000D03*
G04 #@! TO.P,U9,4*
G04 #@! TO.N,/CPUA6*
X66040000Y-15240000D03*
G04 #@! TO.P,U9,17*
G04 #@! TO.N,/CPUD5*
X81280000Y-35560000D03*
G04 #@! TO.P,U9,3*
G04 #@! TO.N,/CPUA7*
X66040000Y-12700000D03*
G04 #@! TO.P,U9,16*
G04 #@! TO.N,/CPUD4*
X81280000Y-38100000D03*
G04 #@! TO.P,U9,2*
G04 #@! TO.N,/CPUA12*
X66040000Y-10160000D03*
G04 #@! TO.P,U9,15*
G04 #@! TO.N,/CPUD3*
X81280000Y-40640000D03*
D16*
G04 #@! TO.P,U9,1*
G04 #@! TO.N,/SRAMA14*
X66040000Y-7620000D03*
G04 #@! TD*
G04 #@! TO.P,U10,1*
G04 #@! TO.N,N/C*
X38100000Y-68580000D03*
D18*
G04 #@! TO.P,U10,14*
G04 #@! TO.N,+5V*
X30480000Y-68580000D03*
G04 #@! TO.P,U10,8*
G04 #@! TO.N,Net-(U10-Pad8)*
X30480000Y-53340000D03*
G04 #@! TO.P,U10,7*
G04 #@! TO.N,GND*
X38100000Y-53340000D03*
G04 #@! TD*
D19*
G04 #@! TO.P,Y1,1*
G04 #@! TO.N,Net-(C7-Pad2)*
X68580000Y-55880000D03*
G04 #@! TO.P,Y1,2*
G04 #@! TO.N,Net-(C8-Pad2)*
X68580000Y-50980000D03*
G04 #@! TD*
M02*
