<?xml version="1.0" encoding="UTF-8"?>
<svg width="280" height="286" overflow="hidden" inkscape:version="1.0 (4035a4f, 2020-05-01)" sodipodi:docname="e8-buffer.svg" version="1.1" xmlns="http://www.w3.org/2000/svg" xmlns:cc="http://creativecommons.org/ns#" xmlns:dc="http://purl.org/dc/elements/1.1/" xmlns:inkscape="http://www.inkscape.org/namespaces/inkscape" xmlns:rdf="http://www.w3.org/1999/02/22-rdf-syntax-ns#" xmlns:sodipodi="http://sodipodi.sourceforge.net/DTD/sodipodi-0.dtd">
 <style>text {
   font-family: sans-serif;
   font-size: 14px;
   line-height: 0%;
  }
  g.small text {
   font-size: 12px;
  }
  g#arrow-labels {
   text-anchor: end;
  }
  g#box-labels text {
   text-anchor: middle;
  }
 </style>
 <metadata>
  <rdf:RDF>
   <cc:Work rdf:about="">
    <dc:format>image/svg+xml</dc:format>
    <dc:type rdf:resource="http://purl.org/dc/dcmitype/StillImage"/>
    <dc:title/>
   </cc:Work>
  </rdf:RDF>
 </metadata>
 <sodipodi:namedview bordercolor="#666666" borderopacity="1" gridtolerance="10" guidetolerance="10" inkscape:current-layer="g3301" inkscape:cx="73.881121" inkscape:cy="119.46224" inkscape:document-rotation="0" inkscape:pageopacity="0" inkscape:pageshadow="2" inkscape:window-height="1395" inkscape:window-maximized="1" inkscape:window-width="2560" inkscape:window-x="0" inkscape:window-y="23" inkscape:zoom="3.109776" objecttolerance="10" pagecolor="#ffffff" showgrid="false"/>
 <defs>
  <pattern id="Wavy" width="30.066020" height="5.1805778" inkscape:collect="always" inkscape:stockid="Wavy" patternUnits="userSpaceOnUse">
   <path d="m7.597 0.061c-2.518-0.248-4.941 0.241-7.607 1.727v1.273c2.783-1.63 5.183-2.009 7.482-1.781 2.298 0.228 4.497 1.081 6.781 1.938 4.567 1.713 9.551 3.458 15.813-0.157l-4e-3 -1.273c-6.44 3.709-10.816 1.982-15.371 0.273-2.278-0.854-4.576-1.75-7.094-2z"/>
  </pattern>
 </defs>
 <g inkscape:groupmode="layer" inkscape:label="Background" opacity=".4">
  <g transform="translate(-500,-217)" clip-path="url(#clip0)" fill="#fff">
   <rect x="501" y="218" width="278" height="284"/>
   <rect x="578" y="409" width="76" height="29"/>
   <rect x="578" y="341" width="76" height="30"/>
   <rect x="501" y="226" width="153" height="30"/>
   <rect x="501" y="466" width="153" height="30"/>
  </g>
 </g>
 <g stroke="#000" stroke-miterlimit="8" stroke-width="1.3333" inkscape:groupmode="layer" inkscape:label="Chart" opacity=".8">
  <rect x="183.5" y="24.5" width="77" height="240" fill="#fff"/>
  <rect transform="translate(-500,-217)" x="683.5" y="352.5" width="77" height="68" fill="url(#Wavy)"/>
 </g>
 <g inkscape:groupmode="layer" inkscape:label="Arrows">
  <path d="m154.5 135.41h15.733v0.666h-15.733zm14.4-3.667 8 4-8 4z" inkscape:connector-curvature="0"/>
  <path d="m154.5 205.17h15.733v0.666h-15.733zm14.4-3.667 8 4-8 4z" inkscape:connector-curvature="0"/>
  <path transform="translate(-500,-217)" d="m654.5 481.17h15.733v0.666h-15.733zm14.4-3.667 8 4-8 4z" inkscape:connector-curvature="0"/>
  <path d="m154.5 25.539h15.733v0.666h-15.733zm14.4-3.667 8 4-8 4z" inkscape:connector-curvature="0"/>
 </g>
 <g inkscape:groupmode="layer" inkscape:label="Text">
  <g id="box-labels" transform="translate(220 80)">
   <g class="small">
    <text><tspan x="0" y="0" sodipodi:role="line">text before</tspan></text>
    <text><tspan x="0" y="12" sodipodi:role="line">point</tspan></text>
    <text><tspan x="0" y="150" sodipodi:role="line">text after</tspan></text>
    <text><tspan x="0" y="162" sodipodi:role="line">point</tspan></text>
   </g>
  </g>
  <g id="arrow-labels" transform="translate(28)">
   <text x="124" y="209.96471">point</text>
   <text x="124" y="140.34303">gap</text>
   <text x="124" y="29.964699">beginning of buffer</text>
   <text x="124" y="267.5318">end of buffer</text>
  </g>
 </g>
</svg>