<?xml version="1.0" encoding="UTF-8" standalone="no"?>
<svg
   width="65.498543mm"
   height="13.758334mm"
   viewBox="0 0 232.08145 48.750003"
   id="svg2"
   version="1.1"
   inkscape:version="1.1 (c4e8f9e, 2021-05-24)"
   sodipodi:docname="logo.svg"
   inkscape:export-filename="/Users/jonathan/Documents/planck-6502/logo-mini.png"
   inkscape:export-xdpi="50.71497"
   inkscape:export-ydpi="50.71497"
   xmlns:inkscape="http://www.inkscape.org/namespaces/inkscape"
   xmlns:sodipodi="http://sodipodi.sourceforge.net/DTD/sodipodi-0.dtd"
   xmlns="http://www.w3.org/2000/svg"
   xmlns:svg="http://www.w3.org/2000/svg"
   xmlns:rdf="http://www.w3.org/1999/02/22-rdf-syntax-ns#"
   xmlns:cc="http://creativecommons.org/ns#"
   xmlns:dc="http://purl.org/dc/elements/1.1/">
  <defs
     id="defs4" />
  <sodipodi:namedview
     id="base"
     pagecolor="#ffffff"
     bordercolor="#666666"
     borderopacity="1.0"
     inkscape:pageopacity="0.0"
     inkscape:pageshadow="2"
     inkscape:zoom="1.1895209"
     inkscape:cx="237.07024"
     inkscape:cy="52.9625"
     inkscape:document-units="px"
     inkscape:current-layer="layer1"
     showgrid="false"
     inkscape:window-width="1389"
     inkscape:window-height="830"
     inkscape:window-x="0"
     inkscape:window-y="25"
     inkscape:window-maximized="0"
     showguides="true"
     inkscape:guide-bbox="true"
     inkscape:document-rotation="0"
     inkscape:pagecheckerboard="0"
     units="px"
     fit-margin-top="0"
     fit-margin-left="0"
     fit-margin-right="0"
     fit-margin-bottom="0">
    <sodipodi:guide
       position="-79.92827,-259.79696"
       orientation="0,1"
       id="guide3367" />
  </sodipodi:namedview>
  <metadata
     id="metadata7">
    <rdf:RDF>
      <cc:Work
         rdf:about="">
        <dc:format>image/svg+xml</dc:format>
        <dc:type
           rdf:resource="http://purl.org/dc/dcmitype/StillImage" />
      </cc:Work>
    </rdf:RDF>
  </metadata>
  <g
     inkscape:label="Layer 1"
     inkscape:groupmode="layer"
     id="layer1"
     transform="translate(-120.21041,-135.26722)">
    <path
       id="flowRoot4136"
       style="font-style:normal;font-variant:normal;font-weight:normal;font-stretch:normal;line-height:0.01%;font-family:Dosis;-inkscape-font-specification:'Dosis, Normal';text-align:start;letter-spacing:0px;word-spacing:0px;writing-mode:lr-tb;text-anchor:start;fill:#000000;fill-opacity:1;stroke:none;stroke-width:0.896761px;stroke-linecap:butt;stroke-linejoin:miter;stroke-opacity:1"
       d="M 186.21484 0 C 182.65982 0 179.29788 0.71098732 176.19531 2.0683594 C 173.02811 3.4257314 170.31344 5.2353928 167.92188 7.6269531 C 165.59495 9.9538766 163.72065 12.66892 162.36328 15.771484 C 161.00591 18.938686 160.29492 22.300447 160.29492 25.855469 C 160.29492 29.345854 161.00591 32.641392 162.36328 35.808594 C 163.72065 38.975795 165.59495 41.690471 167.92188 44.082031 C 170.31344 46.408955 173.02811 48.283253 176.19531 49.640625 C 179.29788 50.997997 182.65982 51.708984 186.21484 51.708984 C 189.76987 51.708984 193.12986 51.06245 196.23242 49.705078 L 186.21484 43.048828 C 183.82328 43.048828 181.6252 42.596137 179.49219 41.755859 C 177.42381 40.850945 175.61378 39.621778 174.0625 38.005859 C 172.44658 36.454577 171.21937 34.644548 170.31445 32.576172 C 169.40954 30.443159 168.95703 28.247029 168.95703 25.855469 C 168.95703 23.463908 169.40954 21.265826 170.31445 19.132812 C 171.21937 17.064436 172.44676 15.254407 173.99805 13.703125 C 175.54933 12.087206 177.35917 10.85804 179.49219 9.953125 C 181.56056 9.1128471 183.82328 8.6621094 186.21484 8.6621094 C 190.86869 8.6621094 194.94144 10.27756 198.36719 13.638672 L 204.50586 7.6269531 C 202.1143 5.2353928 199.33499 3.3612783 196.23242 2.0039062 C 193.12986 0.6465342 189.76987 0 186.21484 0 z M 216.41602 0 L 194.05273 22.298828 L 190.43164 25.919922 L 194.05273 29.474609 L 216.41602 51.708984 L 228.56836 51.708984 L 202.71289 25.855469 L 228.56836 0 L 216.41602 0 z M 45.505859 0.1640625 L 45.505859 1.5859375 L 45.505859 40.173828 L 54.103516 31.513672 L 54.103516 1.5859375 L 54.103516 0.1640625 L 45.505859 0.1640625 z M 107.32227 0.171875 L 81.466797 51.882812 L 91.033203 51.882812 L 95.429688 43.220703 L 99.695312 34.6875 L 107.32227 19.498047 L 114.88477 34.6875 L 124.58008 34.6875 L 107.32227 0.171875 z M 114.62305 0.171875 L 114.62305 13.228516 L 157.60742 51.882812 L 157.60742 51.816406 L 157.60742 51.751953 L 157.60742 0.171875 L 149.01172 0.171875 L 149.01172 31.132812 L 114.62305 0.171875 z M 0 0.29101562 L 8.5976562 8.9511719 L 25.855469 8.9511719 C 28.1824 8.9511719 30.184673 9.7920949 31.865234 11.472656 C 33.610433 13.153218 34.451172 15.221897 34.451172 17.548828 C 34.451172 19.940396 33.545796 21.944439 31.865234 23.625 C 30.184673 25.305561 28.1824 26.144531 25.855469 26.144531 L 8.5976562 26.144531 L 0 26.144531 L 0 52 L 8.5976562 52 L 8.5976562 34.806641 L 25.855469 34.806641 C 30.573968 34.806641 34.644737 33.126748 38.005859 29.765625 C 41.431619 26.404502 43.048828 22.267327 43.048828 17.548828 C 43.048828 12.830329 41.366982 8.7577909 38.005859 5.3320312 C 34.644737 1.9709085 30.573968 0.29101562 25.855469 0.29101562 L 0 0.29101562 z M 54.103516 43.212891 L 45.505859 51.873047 L 79.957031 51.873047 L 79.957031 43.212891 L 54.103516 43.212891 z M 119.2793 43.285156 L 123.54492 51.882812 L 133.17578 51.882812 L 128.8457 43.285156 L 119.2793 43.285156 z "
       transform="matrix(0.9375,0,0,0.9375,120.21041,135.26722)" />
    <text
       xml:space="preserve"
       style="font-style:normal;font-weight:normal;font-size:25.7434px;line-height:1.25;font-family:sans-serif;fill:#000000;fill-opacity:1;stroke:none;stroke-width:0.643584"
       x="-185.4243"
       y="353.19287"
       id="text1214"
       transform="rotate(-90)"><tspan
         sodipodi:role="line"
         id="tspan1212"
         style="font-style:normal;font-variant:normal;font-weight:normal;font-stretch:normal;font-size:25.7434px;font-family:'3270 Condensed';-inkscape-font-specification:'3270 Condensed, Normal';font-variant-ligatures:normal;font-variant-caps:normal;font-variant-numeric:normal;font-variant-east-asian:normal;fill:#000000;fill-opacity:1;stroke-width:0.643584"
         x="-185.4243"
         y="353.19287">6502</tspan></text>
  </g>
</svg>
