G75*
%MOIN*%
%OFA0B0*%
%FSLAX25Y25*%
%IPPOS*%
%LPD*%
%AMOC8*
5,1,8,0,0,1.08239X$1,22.5*
%
%ADD10OC8,0.04800*%
%ADD11C,0.04800*%
%ADD12C,0.04800*%
%ADD13C,0.06000*%
%ADD14OC8,0.06000*%
%ADD15OC8,0.06200*%
%ADD16C,0.06200*%
%ADD17OC8,0.05315*%
%ADD18C,0.00500*%
%ADD19C,0.03000*%
%ADD20C,0.04000*%
%ADD21C,0.01200*%
D10*
X0069500Y0037333D03*
X0099500Y0037333D03*
X0099500Y0077333D03*
X0069500Y0077333D03*
X0074500Y0107333D03*
X0094500Y0107333D03*
X0164500Y0187333D03*
X0184500Y0187333D03*
X0184500Y0204833D03*
X0164500Y0204833D03*
X0164500Y0232333D03*
X0144500Y0232333D03*
X0119500Y0232333D03*
X0099500Y0232333D03*
X0087000Y0232333D03*
X0087000Y0222333D03*
X0087000Y0242333D03*
X0087000Y0252333D03*
X0077000Y0252333D03*
X0064500Y0252333D03*
X0054500Y0252333D03*
X0047000Y0242333D03*
X0047000Y0232333D03*
X0047000Y0222333D03*
X0054500Y0292333D03*
X0064500Y0292333D03*
X0064500Y0302333D03*
X0054500Y0302333D03*
X0189500Y0232333D03*
X0209500Y0232333D03*
X0234500Y0232333D03*
X0254500Y0232333D03*
X0279500Y0232333D03*
X0299500Y0232333D03*
X0324500Y0222333D03*
X0344500Y0222333D03*
X0339500Y0197333D03*
X0309500Y0197333D03*
X0309500Y0157333D03*
X0339500Y0157333D03*
X0334500Y0107333D03*
X0334500Y0097333D03*
X0314500Y0107333D03*
X0259500Y0127333D03*
X0259500Y0147333D03*
X0334500Y0057333D03*
D11*
X0352100Y0057333D02*
X0356900Y0057333D01*
X0356900Y0047333D02*
X0352100Y0047333D01*
X0352100Y0037333D02*
X0356900Y0037333D01*
X0356900Y0027333D02*
X0352100Y0027333D01*
X0352100Y0017333D02*
X0356900Y0017333D01*
X0296900Y0017333D02*
X0292100Y0017333D01*
X0292100Y0027333D02*
X0296900Y0027333D01*
X0296900Y0037333D02*
X0292100Y0037333D01*
X0292100Y0047333D02*
X0296900Y0047333D01*
X0296900Y0057333D02*
X0292100Y0057333D01*
X0292100Y0067333D02*
X0296900Y0067333D01*
X0296900Y0077333D02*
X0292100Y0077333D01*
X0292100Y0087333D02*
X0296900Y0087333D01*
X0296900Y0097333D02*
X0292100Y0097333D01*
X0292100Y0107333D02*
X0296900Y0107333D01*
X0296900Y0117333D02*
X0292100Y0117333D01*
X0292100Y0127333D02*
X0296900Y0127333D01*
X0296900Y0137333D02*
X0292100Y0137333D01*
X0292100Y0147333D02*
X0296900Y0147333D01*
X0296900Y0157333D02*
X0292100Y0157333D01*
X0292100Y0167333D02*
X0296900Y0167333D01*
X0296900Y0177333D02*
X0292100Y0177333D01*
X0292100Y0187333D02*
X0296900Y0187333D01*
X0296900Y0197333D02*
X0292100Y0197333D01*
X0292100Y0207333D02*
X0296900Y0207333D01*
X0274500Y0209933D02*
X0274500Y0214733D01*
X0264500Y0214733D02*
X0264500Y0209933D01*
X0254500Y0209933D02*
X0254500Y0214733D01*
X0244500Y0214733D02*
X0244500Y0209933D01*
X0234500Y0209933D02*
X0234500Y0214733D01*
X0224500Y0214733D02*
X0224500Y0209933D01*
X0214500Y0209933D02*
X0214500Y0214733D01*
X0204500Y0214733D02*
X0204500Y0209933D01*
X0204500Y0184733D02*
X0204500Y0179933D01*
X0214500Y0179933D02*
X0214500Y0184733D01*
X0224500Y0184733D02*
X0224500Y0179933D01*
X0234500Y0179933D02*
X0234500Y0184733D01*
X0244500Y0184733D02*
X0244500Y0179933D01*
X0254500Y0179933D02*
X0254500Y0184733D01*
X0264500Y0184733D02*
X0264500Y0179933D01*
X0274500Y0179933D02*
X0274500Y0184733D01*
X0272100Y0147333D02*
X0276900Y0147333D01*
X0276900Y0137333D02*
X0272100Y0137333D01*
X0272100Y0127333D02*
X0276900Y0127333D01*
X0276900Y0117333D02*
X0272100Y0117333D01*
X0272100Y0107333D02*
X0276900Y0107333D01*
X0276900Y0097333D02*
X0272100Y0097333D01*
X0272100Y0087333D02*
X0276900Y0087333D01*
X0276900Y0077333D02*
X0272100Y0077333D01*
X0272100Y0067333D02*
X0276900Y0067333D01*
X0276900Y0057333D02*
X0272100Y0057333D01*
X0272100Y0047333D02*
X0276900Y0047333D01*
X0276900Y0037333D02*
X0272100Y0037333D01*
X0272100Y0027333D02*
X0276900Y0027333D01*
X0276900Y0017333D02*
X0272100Y0017333D01*
X0216900Y0017333D02*
X0212100Y0017333D01*
X0212100Y0027333D02*
X0216900Y0027333D01*
X0216900Y0037333D02*
X0212100Y0037333D01*
X0212100Y0047333D02*
X0216900Y0047333D01*
X0216900Y0057333D02*
X0212100Y0057333D01*
X0196900Y0057333D02*
X0192100Y0057333D01*
X0192100Y0047333D02*
X0196900Y0047333D01*
X0196900Y0037333D02*
X0192100Y0037333D01*
X0192100Y0027333D02*
X0196900Y0027333D01*
X0196900Y0017333D02*
X0192100Y0017333D01*
X0136900Y0017333D02*
X0132100Y0017333D01*
X0132100Y0027333D02*
X0136900Y0027333D01*
X0136900Y0037333D02*
X0132100Y0037333D01*
X0132100Y0047333D02*
X0136900Y0047333D01*
X0136900Y0057333D02*
X0132100Y0057333D01*
X0116900Y0057333D02*
X0112100Y0057333D01*
X0112100Y0047333D02*
X0116900Y0047333D01*
X0116900Y0037333D02*
X0112100Y0037333D01*
X0112100Y0027333D02*
X0116900Y0027333D01*
X0116900Y0017333D02*
X0112100Y0017333D01*
X0056900Y0017333D02*
X0052100Y0017333D01*
X0052100Y0027333D02*
X0056900Y0027333D01*
X0056900Y0037333D02*
X0052100Y0037333D01*
X0052100Y0047333D02*
X0056900Y0047333D01*
X0056900Y0057333D02*
X0052100Y0057333D01*
X0052100Y0067333D02*
X0056900Y0067333D01*
X0056900Y0077333D02*
X0052100Y0077333D01*
X0052100Y0087333D02*
X0056900Y0087333D01*
X0067100Y0087333D02*
X0071900Y0087333D01*
X0056900Y0097333D02*
X0052100Y0097333D01*
X0052100Y0107333D02*
X0056900Y0107333D01*
X0056900Y0117333D02*
X0052100Y0117333D01*
X0052100Y0127333D02*
X0056900Y0127333D01*
X0056900Y0137333D02*
X0052100Y0137333D01*
X0052100Y0147333D02*
X0056900Y0147333D01*
X0056900Y0157333D02*
X0052100Y0157333D01*
X0052100Y0167333D02*
X0056900Y0167333D01*
X0056900Y0177333D02*
X0052100Y0177333D01*
X0052100Y0187333D02*
X0056900Y0187333D01*
X0056900Y0197333D02*
X0052100Y0197333D01*
X0052100Y0207333D02*
X0056900Y0207333D01*
X0097100Y0242333D02*
X0101900Y0242333D01*
X0101900Y0252333D02*
X0097100Y0252333D01*
X0097100Y0262333D02*
X0101900Y0262333D01*
X0101900Y0272333D02*
X0097100Y0272333D01*
X0097100Y0282333D02*
X0101900Y0282333D01*
X0101900Y0292333D02*
X0097100Y0292333D01*
X0097100Y0302333D02*
X0101900Y0302333D01*
X0127100Y0302333D02*
X0131900Y0302333D01*
X0131900Y0292333D02*
X0127100Y0292333D01*
X0127100Y0282333D02*
X0131900Y0282333D01*
X0131900Y0272333D02*
X0127100Y0272333D01*
X0127100Y0262333D02*
X0131900Y0262333D01*
X0131900Y0252333D02*
X0127100Y0252333D01*
X0127100Y0242333D02*
X0131900Y0242333D01*
X0142100Y0242333D02*
X0146900Y0242333D01*
X0146900Y0252333D02*
X0142100Y0252333D01*
X0142100Y0262333D02*
X0146900Y0262333D01*
X0146900Y0272333D02*
X0142100Y0272333D01*
X0142100Y0282333D02*
X0146900Y0282333D01*
X0146900Y0292333D02*
X0142100Y0292333D01*
X0142100Y0302333D02*
X0146900Y0302333D01*
X0172100Y0302333D02*
X0176900Y0302333D01*
X0187100Y0302333D02*
X0191900Y0302333D01*
X0191900Y0292333D02*
X0187100Y0292333D01*
X0176900Y0292333D02*
X0172100Y0292333D01*
X0172100Y0282333D02*
X0176900Y0282333D01*
X0187100Y0282333D02*
X0191900Y0282333D01*
X0191900Y0272333D02*
X0187100Y0272333D01*
X0176900Y0272333D02*
X0172100Y0272333D01*
X0172100Y0262333D02*
X0176900Y0262333D01*
X0187100Y0262333D02*
X0191900Y0262333D01*
X0191900Y0252333D02*
X0187100Y0252333D01*
X0176900Y0252333D02*
X0172100Y0252333D01*
X0172100Y0242333D02*
X0176900Y0242333D01*
X0187100Y0242333D02*
X0191900Y0242333D01*
X0217100Y0242333D02*
X0221900Y0242333D01*
X0232100Y0242333D02*
X0236900Y0242333D01*
X0236900Y0252333D02*
X0232100Y0252333D01*
X0221900Y0252333D02*
X0217100Y0252333D01*
X0217100Y0262333D02*
X0221900Y0262333D01*
X0232100Y0262333D02*
X0236900Y0262333D01*
X0236900Y0272333D02*
X0232100Y0272333D01*
X0221900Y0272333D02*
X0217100Y0272333D01*
X0217100Y0282333D02*
X0221900Y0282333D01*
X0232100Y0282333D02*
X0236900Y0282333D01*
X0236900Y0292333D02*
X0232100Y0292333D01*
X0221900Y0292333D02*
X0217100Y0292333D01*
X0217100Y0302333D02*
X0221900Y0302333D01*
X0232100Y0302333D02*
X0236900Y0302333D01*
X0262100Y0302333D02*
X0266900Y0302333D01*
X0266900Y0292333D02*
X0262100Y0292333D01*
X0262100Y0282333D02*
X0266900Y0282333D01*
X0266900Y0272333D02*
X0262100Y0272333D01*
X0262100Y0262333D02*
X0266900Y0262333D01*
X0266900Y0252333D02*
X0262100Y0252333D01*
X0262100Y0242333D02*
X0266900Y0242333D01*
X0277100Y0242333D02*
X0281900Y0242333D01*
X0281900Y0252333D02*
X0277100Y0252333D01*
X0277100Y0262333D02*
X0281900Y0262333D01*
X0281900Y0272333D02*
X0277100Y0272333D01*
X0277100Y0282333D02*
X0281900Y0282333D01*
X0281900Y0292333D02*
X0277100Y0292333D01*
X0277100Y0302333D02*
X0281900Y0302333D01*
X0307100Y0302333D02*
X0311900Y0302333D01*
X0311900Y0292333D02*
X0307100Y0292333D01*
X0307100Y0282333D02*
X0311900Y0282333D01*
X0311900Y0272333D02*
X0307100Y0272333D01*
X0307100Y0262333D02*
X0311900Y0262333D01*
X0311900Y0252333D02*
X0307100Y0252333D01*
X0307100Y0242333D02*
X0311900Y0242333D01*
X0322100Y0242333D02*
X0326900Y0242333D01*
X0326900Y0232333D02*
X0322100Y0232333D01*
X0322100Y0252333D02*
X0326900Y0252333D01*
X0326900Y0262333D02*
X0322100Y0262333D01*
X0322100Y0272333D02*
X0326900Y0272333D01*
X0326900Y0282333D02*
X0322100Y0282333D01*
X0322100Y0292333D02*
X0326900Y0292333D01*
X0326900Y0302333D02*
X0322100Y0302333D01*
X0352100Y0302333D02*
X0356900Y0302333D01*
X0356900Y0292333D02*
X0352100Y0292333D01*
X0352100Y0282333D02*
X0356900Y0282333D01*
X0356900Y0272333D02*
X0352100Y0272333D01*
X0352100Y0262333D02*
X0356900Y0262333D01*
X0356900Y0252333D02*
X0352100Y0252333D01*
X0352100Y0242333D02*
X0356900Y0242333D01*
X0356900Y0232333D02*
X0352100Y0232333D01*
X0352100Y0207333D02*
X0356900Y0207333D01*
X0356900Y0197333D02*
X0352100Y0197333D01*
X0352100Y0187333D02*
X0356900Y0187333D01*
X0356900Y0177333D02*
X0352100Y0177333D01*
X0352100Y0167333D02*
X0356900Y0167333D01*
X0356900Y0157333D02*
X0352100Y0157333D01*
X0352100Y0147333D02*
X0356900Y0147333D01*
X0356900Y0137333D02*
X0352100Y0137333D01*
X0352100Y0127333D02*
X0356900Y0127333D01*
X0356900Y0117333D02*
X0352100Y0117333D01*
X0352100Y0107333D02*
X0356900Y0107333D01*
X0356900Y0097333D02*
X0352100Y0097333D01*
X0352100Y0087333D02*
X0356900Y0087333D01*
X0356900Y0077333D02*
X0352100Y0077333D01*
X0352100Y0067333D02*
X0356900Y0067333D01*
X0216900Y0067333D02*
X0212100Y0067333D01*
X0212100Y0077333D02*
X0216900Y0077333D01*
X0216900Y0087333D02*
X0212100Y0087333D01*
X0212100Y0097333D02*
X0216900Y0097333D01*
X0216900Y0107333D02*
X0212100Y0107333D01*
X0212100Y0117333D02*
X0216900Y0117333D01*
X0216900Y0127333D02*
X0212100Y0127333D01*
X0196900Y0127333D02*
X0192100Y0127333D01*
X0192100Y0117333D02*
X0196900Y0117333D01*
X0196900Y0107333D02*
X0192100Y0107333D01*
X0192100Y0097333D02*
X0196900Y0097333D01*
X0196900Y0087333D02*
X0192100Y0087333D01*
X0192100Y0077333D02*
X0196900Y0077333D01*
X0196900Y0067333D02*
X0192100Y0067333D01*
X0136900Y0067333D02*
X0132100Y0067333D01*
X0132100Y0077333D02*
X0136900Y0077333D01*
X0136900Y0087333D02*
X0132100Y0087333D01*
X0132100Y0097333D02*
X0136900Y0097333D01*
X0136900Y0107333D02*
X0132100Y0107333D01*
X0132100Y0117333D02*
X0136900Y0117333D01*
X0136900Y0127333D02*
X0132100Y0127333D01*
X0116900Y0127333D02*
X0112100Y0127333D01*
X0112100Y0117333D02*
X0116900Y0117333D01*
X0116900Y0107333D02*
X0112100Y0107333D01*
X0112100Y0097333D02*
X0116900Y0097333D01*
X0116900Y0087333D02*
X0112100Y0087333D01*
X0101900Y0087333D02*
X0097100Y0087333D01*
X0112100Y0077333D02*
X0116900Y0077333D01*
X0116900Y0067333D02*
X0112100Y0067333D01*
X0112100Y0137333D02*
X0116900Y0137333D01*
X0116900Y0147333D02*
X0112100Y0147333D01*
X0112100Y0157333D02*
X0116900Y0157333D01*
X0116900Y0167333D02*
X0112100Y0167333D01*
X0112100Y0177333D02*
X0116900Y0177333D01*
X0116900Y0187333D02*
X0112100Y0187333D01*
X0112100Y0197333D02*
X0116900Y0197333D01*
X0116900Y0207333D02*
X0112100Y0207333D01*
X0132100Y0167333D02*
X0136900Y0167333D01*
X0136900Y0157333D02*
X0132100Y0157333D01*
X0132100Y0147333D02*
X0136900Y0147333D01*
X0136900Y0137333D02*
X0132100Y0137333D01*
X0192100Y0137333D02*
X0196900Y0137333D01*
X0196900Y0147333D02*
X0192100Y0147333D01*
X0192100Y0157333D02*
X0196900Y0157333D01*
X0196900Y0167333D02*
X0192100Y0167333D01*
X0212100Y0147333D02*
X0216900Y0147333D01*
X0216900Y0137333D02*
X0212100Y0137333D01*
D12*
X0082000Y0272833D03*
X0082000Y0291833D03*
D13*
X0365600Y0278133D02*
X0365600Y0272133D01*
X0383400Y0272133D02*
X0383400Y0278133D01*
X0383400Y0252533D02*
X0383400Y0246533D01*
X0383400Y0238133D02*
X0383400Y0232133D01*
X0365600Y0232133D02*
X0365600Y0238133D01*
X0365600Y0246533D02*
X0365600Y0252533D01*
X0365600Y0212533D02*
X0365600Y0206533D01*
X0383400Y0206533D02*
X0383400Y0212533D01*
X0382500Y0087255D02*
X0376500Y0087255D01*
X0376500Y0077412D02*
X0382500Y0077412D01*
D14*
X0379500Y0134833D03*
X0369500Y0134833D03*
X0369500Y0144833D03*
X0379500Y0144833D03*
X0379500Y0154833D03*
X0369500Y0154833D03*
X0369500Y0164833D03*
X0379500Y0164833D03*
X0379500Y0174833D03*
X0369500Y0174833D03*
X0369500Y0184833D03*
X0379500Y0184833D03*
X0024500Y0184833D03*
X0024500Y0174833D03*
X0024500Y0164833D03*
X0024500Y0154833D03*
X0024500Y0144833D03*
X0024500Y0134833D03*
X0024500Y0124833D03*
X0014500Y0124833D03*
X0014500Y0134833D03*
X0014500Y0144833D03*
X0014500Y0154833D03*
X0014500Y0164833D03*
X0014500Y0174833D03*
X0014500Y0184833D03*
X0014500Y0194833D03*
X0024500Y0194833D03*
X0024500Y0204833D03*
X0014500Y0204833D03*
X0014500Y0214833D03*
X0024500Y0214833D03*
X0024500Y0224833D03*
X0014500Y0224833D03*
X0014500Y0234833D03*
X0024500Y0234833D03*
X0024500Y0244833D03*
X0014500Y0244833D03*
X0014500Y0254833D03*
X0024500Y0254833D03*
X0024500Y0114833D03*
X0024500Y0104833D03*
X0024500Y0094833D03*
X0024500Y0084833D03*
X0024500Y0074833D03*
X0024500Y0064833D03*
X0014500Y0064833D03*
X0014500Y0074833D03*
X0014500Y0084833D03*
X0014500Y0094833D03*
X0014500Y0104833D03*
X0014500Y0114833D03*
D15*
X0144500Y0197333D03*
D16*
X0144500Y0207333D03*
D17*
X0234459Y0167320D03*
X0244459Y0167320D03*
X0254459Y0167320D03*
D18*
X0244459Y0167320D02*
X0234459Y0167320D01*
D19*
X0254459Y0167320D02*
X0254500Y0166083D01*
X0259500Y0161083D01*
X0259500Y0147333D01*
X0274500Y0147333D02*
X0274500Y0137333D01*
X0264500Y0132333D02*
X0264500Y0172333D01*
X0264500Y0132333D02*
X0259500Y0127333D01*
X0214500Y0147333D02*
X0213250Y0148583D01*
X0213250Y0173583D01*
X0209500Y0177333D01*
X0209500Y0207333D01*
X0204500Y0212333D01*
X0184500Y0204833D02*
X0184500Y0226083D01*
X0189500Y0231083D01*
X0189500Y0232333D01*
X0189500Y0242333D01*
X0174500Y0242333D02*
X0174500Y0252333D01*
X0164500Y0232333D02*
X0164500Y0204833D01*
X0184500Y0204833D02*
X0184500Y0187333D01*
X0192000Y0183583D02*
X0192000Y0169833D01*
X0194500Y0167333D01*
X0144500Y0207333D02*
X0144500Y0232333D01*
X0119500Y0232333D02*
X0119500Y0292333D01*
X0129500Y0302333D01*
X0099500Y0242333D02*
X0099500Y0232333D01*
X0087000Y0242333D02*
X0074500Y0229833D01*
X0074500Y0107333D01*
X0085750Y0107333D02*
X0085750Y0038583D01*
X0099500Y0037333D02*
X0112625Y0050458D01*
X0113250Y0049833D01*
X0113250Y0048583D01*
X0114500Y0047333D01*
X0112625Y0050458D02*
X0114500Y0052333D01*
X0114500Y0057333D01*
X0069500Y0047333D02*
X0069500Y0037333D01*
X0069500Y0047333D02*
X0054500Y0047333D01*
X0014500Y0047333D02*
X0014500Y0064833D01*
X0008250Y0071083D01*
X0008250Y0158583D01*
X0014500Y0164833D01*
X0014500Y0174833D01*
X0014500Y0184833D01*
X0014500Y0194833D01*
X0014500Y0204833D01*
X0014500Y0206083D01*
X0008250Y0212333D01*
X0008250Y0247333D01*
X0014500Y0253583D01*
X0014500Y0254833D01*
X0014500Y0262333D01*
X0054500Y0302333D01*
X0015750Y0164833D02*
X0014500Y0164833D01*
X0015750Y0164833D02*
X0015750Y0163583D01*
X0024500Y0154833D01*
X0024500Y0153583D01*
X0030750Y0147333D01*
X0030750Y0108583D01*
X0037000Y0102333D01*
X0234500Y0232333D02*
X0234500Y0242333D01*
X0279500Y0242333D02*
X0279500Y0232333D01*
X0324500Y0232333D02*
X0324500Y0222333D01*
X0340750Y0218583D02*
X0340750Y0198583D01*
X0339500Y0197333D01*
X0314500Y0192333D02*
X0309500Y0197333D01*
X0314500Y0192333D02*
X0314500Y0107333D01*
X0369500Y0134833D02*
X0369500Y0078583D01*
X0379500Y0078583D01*
X0379500Y0077412D01*
X0379500Y0087255D02*
X0379500Y0087333D01*
X0385750Y0093583D01*
X0385750Y0148583D01*
X0379500Y0154833D01*
X0340750Y0218583D02*
X0344500Y0222333D01*
X0234500Y0292333D02*
X0234500Y0302333D01*
D20*
X0243250Y0272333D03*
X0204500Y0267333D03*
X0182000Y0279833D03*
X0199500Y0293583D03*
X0182000Y0299833D03*
X0164500Y0263583D03*
X0139500Y0287333D03*
X0199500Y0247333D03*
X0175750Y0221083D03*
X0150750Y0229833D03*
X0110750Y0221083D03*
X0104500Y0209833D03*
X0098250Y0202333D03*
X0094500Y0198583D03*
X0087000Y0196083D03*
X0094500Y0184833D03*
X0119500Y0162333D03*
X0124500Y0162333D03*
X0125750Y0173583D03*
X0130750Y0183583D03*
X0140750Y0179833D03*
X0152000Y0181083D03*
X0158250Y0187333D03*
X0158250Y0192333D03*
X0168250Y0183583D03*
X0159500Y0172333D03*
X0179500Y0196083D03*
X0192000Y0183583D03*
X0199500Y0191083D03*
X0197000Y0203583D03*
X0220750Y0188583D03*
X0225750Y0196083D03*
X0240750Y0192333D03*
X0253250Y0199833D03*
X0258250Y0199833D03*
X0280750Y0184833D03*
X0288250Y0173583D03*
X0264500Y0172333D03*
X0239500Y0173583D03*
X0208250Y0154833D03*
X0205750Y0159833D03*
X0189500Y0162333D03*
X0209500Y0142333D03*
X0182000Y0134833D03*
X0155750Y0116083D03*
X0147000Y0112333D03*
X0159500Y0104833D03*
X0165750Y0104833D03*
X0169500Y0082333D03*
X0202000Y0091083D03*
X0223250Y0076083D03*
X0233250Y0068583D03*
X0242000Y0072333D03*
X0245750Y0088583D03*
X0242000Y0052333D03*
X0265750Y0032333D03*
X0283250Y0037333D03*
X0239500Y0012333D03*
X0184500Y0029833D03*
X0182000Y0022333D03*
X0120750Y0073583D03*
X0108250Y0083583D03*
X0099500Y0102333D03*
X0099500Y0111083D03*
X0085750Y0107333D03*
X0067000Y0118583D03*
X0059500Y0132333D03*
X0079500Y0147333D03*
X0099500Y0133583D03*
X0124500Y0106083D03*
X0143250Y0132333D03*
X0139500Y0142333D03*
X0094500Y0211083D03*
X0079500Y0221083D03*
X0060750Y0218583D03*
X0043250Y0214833D03*
X0035750Y0182333D03*
X0038250Y0159833D03*
X0048250Y0153583D03*
X0037000Y0102333D03*
X0044500Y0093583D03*
X0019500Y0071083D03*
X0014500Y0047333D03*
X0040750Y0042333D03*
X0075750Y0056083D03*
X0085750Y0038583D03*
X0089500Y0027333D03*
X0079500Y0018583D03*
X0075750Y0023583D03*
X0302000Y0143583D03*
X0330750Y0138583D03*
X0333250Y0261083D03*
X0290750Y0296083D03*
X0068250Y0277333D03*
X0067000Y0261083D03*
X0039500Y0261083D03*
D21*
X0033250Y0029833D02*
X0052000Y0011083D01*
X0108250Y0011083D01*
X0108250Y0019833D01*
X0110750Y0022333D01*
X0168250Y0022333D01*
X0168250Y0043583D01*
X0172000Y0047333D01*
X0183250Y0047333D01*
X0183250Y0046083D01*
X0192000Y0037333D01*
X0194500Y0037333D01*
X0190750Y0042333D02*
X0245750Y0042333D01*
X0245750Y0088583D01*
X0249500Y0083583D02*
X0270750Y0062333D01*
X0300750Y0062333D01*
X0300750Y0091083D01*
X0294500Y0097333D01*
X0280750Y0081083D02*
X0280750Y0184833D01*
X0288250Y0173583D02*
X0288250Y0273583D01*
X0279500Y0282333D01*
X0270750Y0287333D02*
X0270750Y0217333D01*
X0269500Y0216083D01*
X0269500Y0151083D01*
X0268250Y0149833D01*
X0268250Y0093583D01*
X0274500Y0087333D01*
X0280750Y0081083D02*
X0294500Y0067333D01*
X0294500Y0057333D02*
X0305750Y0057333D01*
X0305750Y0154833D01*
X0304500Y0156083D01*
X0304500Y0228583D01*
X0315750Y0239833D01*
X0315750Y0272333D01*
X0320750Y0277333D01*
X0330750Y0277333D01*
X0330750Y0304833D01*
X0325750Y0309833D01*
X0199500Y0309833D01*
X0199500Y0293583D01*
X0189500Y0302333D02*
X0182000Y0294833D01*
X0182000Y0279833D01*
X0180750Y0276083D02*
X0174500Y0282333D01*
X0168250Y0286083D02*
X0174500Y0292333D01*
X0179500Y0297333D02*
X0153250Y0297333D01*
X0153250Y0302333D01*
X0148250Y0307333D01*
X0135750Y0307333D01*
X0135750Y0288583D01*
X0129500Y0282333D01*
X0123250Y0286083D02*
X0129500Y0292333D01*
X0123250Y0286083D02*
X0123250Y0258583D01*
X0129500Y0252333D01*
X0138250Y0246083D02*
X0138250Y0286083D01*
X0139500Y0287333D01*
X0144500Y0302333D02*
X0164500Y0282333D01*
X0164500Y0263583D01*
X0159500Y0258583D01*
X0159500Y0193583D01*
X0158250Y0192333D01*
X0154500Y0188583D02*
X0143250Y0177333D01*
X0143250Y0156083D01*
X0134500Y0147333D01*
X0139500Y0142333D02*
X0140750Y0141083D01*
X0140750Y0134833D01*
X0139500Y0133583D01*
X0139500Y0131083D01*
X0140750Y0129833D01*
X0140750Y0103583D01*
X0134500Y0097333D01*
X0128250Y0102333D02*
X0128250Y0063583D01*
X0134500Y0057333D01*
X0130750Y0052333D02*
X0185750Y0052333D01*
X0185750Y0047333D01*
X0190750Y0042333D01*
X0194500Y0047333D02*
X0165750Y0076083D01*
X0165750Y0093583D01*
X0147000Y0112333D01*
X0152000Y0112333D02*
X0152000Y0181083D01*
X0155750Y0184833D02*
X0155750Y0116083D01*
X0152000Y0112333D02*
X0159500Y0104833D01*
X0165750Y0104833D02*
X0165750Y0166083D01*
X0159500Y0172333D01*
X0155750Y0184833D02*
X0158250Y0187333D01*
X0154500Y0188583D02*
X0154500Y0252333D01*
X0144500Y0262333D01*
X0144500Y0252333D02*
X0138250Y0246083D01*
X0138250Y0242333D01*
X0134500Y0238583D01*
X0134500Y0177333D01*
X0119500Y0162333D01*
X0114500Y0157333D02*
X0120750Y0151083D01*
X0120750Y0121083D01*
X0134500Y0107333D01*
X0128250Y0102333D02*
X0124500Y0106083D01*
X0120750Y0111083D02*
X0120750Y0073583D01*
X0114500Y0077333D02*
X0108250Y0071083D01*
X0108250Y0064833D01*
X0110750Y0062333D01*
X0125750Y0062333D01*
X0125750Y0057333D01*
X0130750Y0052333D01*
X0114500Y0027333D02*
X0097000Y0027333D01*
X0097000Y0024833D01*
X0094500Y0022333D01*
X0082000Y0022333D01*
X0082000Y0144833D01*
X0087000Y0149833D01*
X0087000Y0196083D01*
X0094500Y0198583D02*
X0094500Y0204833D01*
X0110750Y0221083D01*
X0105750Y0222333D02*
X0094500Y0211083D01*
X0090750Y0209833D02*
X0090750Y0119833D01*
X0099500Y0111083D01*
X0099500Y0102333D02*
X0093250Y0096083D01*
X0093250Y0031083D01*
X0089500Y0027333D01*
X0079500Y0018583D02*
X0079500Y0147333D01*
X0067000Y0142333D02*
X0067000Y0118583D01*
X0070750Y0109833D02*
X0069500Y0108583D01*
X0069500Y0087333D01*
X0054500Y0077333D02*
X0060750Y0071083D01*
X0060750Y0131083D01*
X0059500Y0132333D01*
X0054500Y0137333D02*
X0040750Y0123583D01*
X0040750Y0042333D01*
X0048250Y0034833D02*
X0050750Y0032333D01*
X0075750Y0032333D01*
X0075750Y0023583D01*
X0048250Y0034833D02*
X0048250Y0091083D01*
X0054500Y0097333D01*
X0044500Y0093583D02*
X0044500Y0107333D01*
X0054500Y0117333D01*
X0070750Y0109833D02*
X0070750Y0274833D01*
X0068250Y0277333D01*
X0077000Y0267333D02*
X0077000Y0252333D01*
X0067000Y0261083D02*
X0059500Y0253583D01*
X0059500Y0251083D01*
X0060750Y0249833D01*
X0060750Y0218583D01*
X0060750Y0163583D01*
X0054500Y0157333D01*
X0048250Y0153583D02*
X0048250Y0191083D01*
X0054500Y0197333D01*
X0035750Y0182333D02*
X0034500Y0183583D01*
X0034500Y0234833D01*
X0024500Y0244833D01*
X0039500Y0261083D02*
X0039500Y0161083D01*
X0038250Y0159833D01*
X0032000Y0161083D02*
X0050750Y0142333D01*
X0067000Y0142333D01*
X0099500Y0133583D02*
X0099500Y0179833D01*
X0094500Y0184833D01*
X0103250Y0197333D02*
X0103250Y0091083D01*
X0099500Y0087333D01*
X0108250Y0083583D02*
X0108250Y0121083D01*
X0108250Y0206083D01*
X0104500Y0209833D01*
X0098250Y0202333D02*
X0103250Y0197333D01*
X0114500Y0197333D02*
X0125750Y0186083D01*
X0125750Y0173583D01*
X0134500Y0167333D02*
X0137000Y0169833D01*
X0137000Y0182333D01*
X0150750Y0196083D01*
X0150750Y0229833D01*
X0168250Y0239833D02*
X0168250Y0286083D01*
X0179500Y0297333D02*
X0182000Y0299833D01*
X0195750Y0309833D02*
X0195750Y0278583D01*
X0189500Y0272333D01*
X0180750Y0276083D02*
X0180750Y0226083D01*
X0175750Y0221083D01*
X0172000Y0236083D02*
X0168250Y0239833D01*
X0172000Y0236083D02*
X0172000Y0144833D01*
X0182000Y0134833D01*
X0188250Y0133583D02*
X0188250Y0103583D01*
X0194500Y0097333D01*
X0202000Y0091083D02*
X0202000Y0161083D01*
X0203250Y0162333D01*
X0203250Y0181083D01*
X0204500Y0182333D01*
X0199500Y0178583D02*
X0200750Y0177333D01*
X0200750Y0164833D01*
X0199500Y0163583D01*
X0199500Y0162333D01*
X0194500Y0157333D01*
X0189500Y0162333D02*
X0188250Y0163583D01*
X0188250Y0184833D01*
X0200750Y0197333D01*
X0200750Y0207333D01*
X0199500Y0208583D01*
X0199500Y0247333D01*
X0195750Y0256083D02*
X0189500Y0262333D01*
X0195750Y0256083D02*
X0195750Y0204833D01*
X0197000Y0203583D01*
X0199500Y0191083D02*
X0199500Y0178583D01*
X0214500Y0182333D02*
X0217000Y0179833D01*
X0217000Y0153583D01*
X0220750Y0149833D01*
X0220750Y0134833D01*
X0218250Y0132333D01*
X0208250Y0132333D01*
X0208250Y0103583D01*
X0214500Y0097333D01*
X0214500Y0107333D02*
X0225750Y0118583D01*
X0225750Y0181083D01*
X0224500Y0182333D01*
X0219500Y0187333D02*
X0219500Y0171083D01*
X0223250Y0167333D01*
X0223250Y0126083D01*
X0214500Y0117333D01*
X0188250Y0133583D02*
X0179500Y0142333D01*
X0179500Y0196083D01*
X0168250Y0183583D02*
X0169500Y0182333D01*
X0169500Y0102333D01*
X0194500Y0077333D01*
X0194500Y0067333D02*
X0205750Y0078583D01*
X0205750Y0152333D01*
X0204500Y0153583D01*
X0204500Y0158583D01*
X0205750Y0159833D01*
X0208250Y0154833D02*
X0208250Y0143583D01*
X0209500Y0142333D01*
X0239500Y0173583D02*
X0239500Y0186083D01*
X0237000Y0188583D01*
X0237000Y0209833D01*
X0234500Y0212333D01*
X0225750Y0196083D02*
X0214500Y0207333D01*
X0214500Y0212333D01*
X0239500Y0193583D02*
X0239500Y0238583D01*
X0243250Y0242333D01*
X0243250Y0272333D01*
X0249500Y0277333D02*
X0249500Y0083583D01*
X0242000Y0072333D02*
X0227000Y0057333D01*
X0214500Y0057333D01*
X0210750Y0052333D02*
X0242000Y0052333D01*
X0233250Y0068583D02*
X0229500Y0072333D01*
X0229500Y0238583D01*
X0228250Y0239833D01*
X0228250Y0253583D01*
X0219500Y0262333D01*
X0228250Y0256083D02*
X0234500Y0262333D01*
X0234500Y0272333D01*
X0230750Y0277333D02*
X0249500Y0277333D01*
X0264500Y0272333D02*
X0264500Y0262333D01*
X0264500Y0252333D01*
X0273250Y0256083D02*
X0279500Y0262333D01*
X0283250Y0267333D02*
X0273250Y0267333D01*
X0273250Y0304833D01*
X0275750Y0307333D01*
X0324500Y0307333D01*
X0324500Y0302333D01*
X0318250Y0297333D02*
X0318250Y0288583D01*
X0324500Y0282333D01*
X0324500Y0272333D02*
X0318250Y0266083D01*
X0318250Y0109833D01*
X0319500Y0108583D01*
X0319500Y0052333D01*
X0294500Y0027333D01*
X0294500Y0017333D02*
X0322000Y0044833D01*
X0322000Y0134833D01*
X0330750Y0143583D01*
X0330750Y0258583D01*
X0333250Y0261083D01*
X0332000Y0264833D02*
X0329500Y0262333D01*
X0324500Y0262333D01*
X0332000Y0264833D02*
X0337000Y0264833D01*
X0337000Y0201083D01*
X0334500Y0198583D01*
X0334500Y0168583D01*
X0345750Y0157333D01*
X0345750Y0036083D01*
X0354500Y0027333D01*
X0360750Y0023583D02*
X0354500Y0017333D01*
X0360750Y0023583D02*
X0360750Y0212333D01*
X0348250Y0224833D01*
X0348250Y0266083D01*
X0354500Y0272333D01*
X0318250Y0297333D02*
X0305750Y0297333D01*
X0303250Y0299833D01*
X0303250Y0302333D01*
X0279500Y0302333D01*
X0290750Y0296083D02*
X0290750Y0211083D01*
X0294500Y0207333D01*
X0274500Y0212333D02*
X0273250Y0213583D01*
X0273250Y0256083D01*
X0279500Y0252333D02*
X0285750Y0258583D01*
X0285750Y0264833D01*
X0283250Y0267333D01*
X0270750Y0287333D02*
X0230750Y0287333D01*
X0228250Y0289833D01*
X0228250Y0292333D01*
X0219500Y0292333D01*
X0219500Y0282333D02*
X0228250Y0282333D01*
X0228250Y0279833D01*
X0230750Y0277333D01*
X0228250Y0256083D02*
X0228250Y0253583D01*
X0219500Y0252333D02*
X0204500Y0267333D01*
X0195750Y0309833D02*
X0128250Y0309833D01*
X0114500Y0296083D01*
X0114500Y0227333D01*
X0120750Y0227333D01*
X0124500Y0231083D01*
X0124500Y0237333D01*
X0129500Y0242333D01*
X0105750Y0222333D02*
X0105750Y0312333D01*
X0353250Y0312333D01*
X0360750Y0304833D01*
X0360750Y0239833D01*
X0364500Y0236083D01*
X0365600Y0235133D01*
X0354500Y0207333D02*
X0348250Y0201083D01*
X0348250Y0153583D01*
X0354500Y0147333D01*
X0354500Y0137333D01*
X0339500Y0147333D02*
X0339500Y0157333D01*
X0339500Y0147333D02*
X0330750Y0138583D01*
X0302000Y0143583D02*
X0302000Y0169833D01*
X0294500Y0177333D01*
X0264500Y0182333D02*
X0258250Y0188583D01*
X0258250Y0199833D01*
X0253250Y0199833D02*
X0259500Y0206083D01*
X0259500Y0237333D01*
X0264500Y0242333D01*
X0239500Y0193583D02*
X0240750Y0192333D01*
X0220750Y0188583D02*
X0219500Y0187333D01*
X0140750Y0179833D02*
X0140750Y0162333D01*
X0130750Y0162333D01*
X0128250Y0159833D01*
X0128250Y0133583D01*
X0134500Y0127333D01*
X0125750Y0126083D02*
X0134500Y0117333D01*
X0125750Y0126083D02*
X0125750Y0161083D01*
X0124500Y0162333D01*
X0130750Y0183583D02*
X0130750Y0191083D01*
X0114500Y0207333D01*
X0090750Y0209833D02*
X0079500Y0221083D01*
X0047000Y0222333D02*
X0043250Y0218583D01*
X0043250Y0214833D01*
X0032000Y0217333D02*
X0032000Y0161083D01*
X0024500Y0134833D02*
X0019500Y0129833D01*
X0019500Y0071083D01*
X0033250Y0086083D02*
X0033250Y0029833D01*
X0060750Y0071083D02*
X0075750Y0056083D01*
X0033250Y0086083D02*
X0024500Y0094833D01*
X0108250Y0121083D02*
X0114500Y0127333D01*
X0114500Y0117333D02*
X0120750Y0111083D01*
X0143250Y0096083D02*
X0134500Y0087333D01*
X0143250Y0096083D02*
X0143250Y0132333D01*
X0169500Y0082333D02*
X0194500Y0057333D01*
X0208250Y0057333D01*
X0208250Y0054833D01*
X0210750Y0052333D01*
X0214500Y0037333D02*
X0239500Y0012333D01*
X0262000Y0008583D02*
X0262000Y0053583D01*
X0270750Y0062333D01*
X0268250Y0052333D02*
X0268250Y0032333D01*
X0265750Y0032333D01*
X0268250Y0032333D02*
X0274500Y0032333D01*
X0274500Y0027333D01*
X0283250Y0028583D02*
X0283250Y0037333D01*
X0283250Y0028583D02*
X0294500Y0017333D01*
X0294500Y0037333D02*
X0279500Y0052333D01*
X0268250Y0052333D01*
X0223250Y0076083D02*
X0214500Y0067333D01*
X0178250Y0044833D02*
X0178250Y0021083D01*
X0190750Y0008583D01*
X0262000Y0008583D01*
X0194500Y0017333D02*
X0188250Y0023583D01*
X0188250Y0026083D01*
X0184500Y0029833D01*
X0180750Y0032333D02*
X0183250Y0034833D01*
X0188250Y0034833D01*
X0188250Y0033583D01*
X0194500Y0027333D01*
X0182000Y0022333D02*
X0180750Y0023583D01*
X0180750Y0032333D01*
X0170750Y0042333D02*
X0173250Y0044833D01*
X0178250Y0044833D01*
X0170750Y0042333D02*
X0170750Y0011083D01*
X0120750Y0011083D01*
X0114500Y0017333D01*
X0032000Y0217333D02*
X0024500Y0224833D01*
X0054500Y0252333D02*
X0062000Y0259833D01*
X0062000Y0289833D01*
X0064500Y0292333D01*
X0069500Y0297333D01*
X0069500Y0302333D01*
X0093250Y0302333D01*
X0093250Y0268583D01*
X0099500Y0262333D01*
X0082000Y0272333D02*
X0082000Y0272833D01*
X0082000Y0272333D02*
X0077000Y0267333D01*
X0099500Y0282333D02*
X0099500Y0292333D01*
X0099500Y0302333D02*
X0093250Y0302333D01*
M02*
