%TF.GenerationSoftware,KiCad,Pcbnew,(5.1.10-1-10_14)*%
%TF.CreationDate,2021-08-31T23:49:44+02:00*%
%TF.ProjectId,serial_board,73657269-616c-45f6-926f-6172642e6b69,rev?*%
%TF.SameCoordinates,Original*%
%TF.FileFunction,Copper,L2,Bot*%
%TF.FilePolarity,Positive*%
%FSLAX46Y46*%
G04 Gerber Fmt 4.6, Leading zero omitted, Abs format (unit mm)*
G04 Created by KiCad (PCBNEW (5.1.10-1-10_14)) date 2021-08-31 23:49:44*
%MOMM*%
%LPD*%
G01*
G04 APERTURE LIST*
%TA.AperFunction,ComponentPad*%
%ADD10C,1.800000*%
%TD*%
%TA.AperFunction,ComponentPad*%
%ADD11R,1.800000X1.800000*%
%TD*%
%TA.AperFunction,ComponentPad*%
%ADD12O,1.400000X1.400000*%
%TD*%
%TA.AperFunction,ComponentPad*%
%ADD13C,1.400000*%
%TD*%
%TA.AperFunction,ComponentPad*%
%ADD14C,1.600000*%
%TD*%
%TA.AperFunction,ComponentPad*%
%ADD15R,1.600000X1.600000*%
%TD*%
%TA.AperFunction,ComponentPad*%
%ADD16O,1.600000X1.600000*%
%TD*%
%TA.AperFunction,ComponentPad*%
%ADD17O,1.700000X1.700000*%
%TD*%
%TA.AperFunction,ComponentPad*%
%ADD18R,1.700000X1.700000*%
%TD*%
%TA.AperFunction,ViaPad*%
%ADD19C,0.600000*%
%TD*%
%TA.AperFunction,Conductor*%
%ADD20C,1.000000*%
%TD*%
%TA.AperFunction,Conductor*%
%ADD21C,0.250000*%
%TD*%
%TA.AperFunction,Conductor*%
%ADD22C,0.254000*%
%TD*%
%TA.AperFunction,Conductor*%
%ADD23C,0.100000*%
%TD*%
G04 APERTURE END LIST*
D10*
%TO.P,D2,2*%
%TO.N,/RX*%
X20320000Y47752000D03*
D11*
%TO.P,D2,1*%
%TO.N,Net-(D2-Pad1)*%
X22860000Y47752000D03*
%TD*%
D10*
%TO.P,D1,2*%
%TO.N,/TX*%
X12446000Y47752000D03*
D11*
%TO.P,D1,1*%
%TO.N,Net-(D1-Pad1)*%
X14986000Y47752000D03*
%TD*%
D12*
%TO.P,R4,2*%
%TO.N,/~DSR~*%
X70358000Y36322000D03*
D13*
%TO.P,R4,1*%
%TO.N,GND*%
X75438000Y36322000D03*
%TD*%
D12*
%TO.P,R3,2*%
%TO.N,+5V*%
X56388000Y11684000D03*
D13*
%TO.P,R3,1*%
%TO.N,Net-(R3-Pad1)*%
X51308000Y11684000D03*
%TD*%
D12*
%TO.P,R2,2*%
%TO.N,Net-(D2-Pad1)*%
X18796000Y38608000D03*
D13*
%TO.P,R2,1*%
%TO.N,GND*%
X23876000Y38608000D03*
%TD*%
D12*
%TO.P,R1,2*%
%TO.N,Net-(D1-Pad1)*%
X10922000Y38608000D03*
D13*
%TO.P,R1,1*%
%TO.N,GND*%
X16002000Y38608000D03*
%TD*%
D14*
%TO.P,C2,2*%
%TO.N,GND*%
X70438000Y32512000D03*
%TO.P,C2,1*%
%TO.N,+5V*%
X75438000Y32512000D03*
%TD*%
%TO.P,C1,2*%
%TO.N,GND*%
X14478000Y19892000D03*
%TO.P,C1,1*%
%TO.N,+5V*%
X14478000Y24892000D03*
%TD*%
%TO.P,X1,4*%
%TO.N,GND*%
X26543000Y17145000D03*
%TO.P,X1,5*%
%TO.N,Net-(U1-Pad6)*%
X26543000Y24765000D03*
%TO.P,X1,8*%
%TO.N,+5V*%
X18923000Y24765000D03*
D15*
%TO.P,X1,1*%
%TO.N,Net-(X1-Pad1)*%
X18923000Y17145000D03*
%TD*%
D16*
%TO.P,U1,28*%
%TO.N,R~W~*%
X42545000Y29591000D03*
%TO.P,U1,14*%
%TO.N,A1*%
X75565000Y14351000D03*
%TO.P,U1,27*%
%TO.N,CLK*%
X45085000Y29591000D03*
%TO.P,U1,13*%
%TO.N,A0*%
X73025000Y14351000D03*
%TO.P,U1,26*%
%TO.N,~SLOT_IRQ~*%
X47625000Y29591000D03*
%TO.P,U1,12*%
%TO.N,/RX*%
X70485000Y14351000D03*
%TO.P,U1,25*%
%TO.N,D7*%
X50165000Y29591000D03*
%TO.P,U1,11*%
%TO.N,/~DTR~*%
X67945000Y14351000D03*
%TO.P,U1,24*%
%TO.N,D6*%
X52705000Y29591000D03*
%TO.P,U1,10*%
%TO.N,/TX*%
X65405000Y14351000D03*
%TO.P,U1,23*%
%TO.N,D5*%
X55245000Y29591000D03*
%TO.P,U1,9*%
%TO.N,GND*%
X62865000Y14351000D03*
%TO.P,U1,22*%
%TO.N,D4*%
X57785000Y29591000D03*
%TO.P,U1,8*%
%TO.N,/~RTS~*%
X60325000Y14351000D03*
%TO.P,U1,21*%
%TO.N,D3*%
X60325000Y29591000D03*
%TO.P,U1,7*%
%TO.N,Net-(U1-Pad7)*%
X57785000Y14351000D03*
%TO.P,U1,20*%
%TO.N,D2*%
X62865000Y29591000D03*
%TO.P,U1,6*%
%TO.N,Net-(U1-Pad6)*%
X55245000Y14351000D03*
%TO.P,U1,19*%
%TO.N,D1*%
X65405000Y29591000D03*
%TO.P,U1,5*%
%TO.N,Net-(U1-Pad5)*%
X52705000Y14351000D03*
%TO.P,U1,18*%
%TO.N,D0*%
X67945000Y29591000D03*
%TO.P,U1,4*%
%TO.N,~RESET~*%
X50165000Y14351000D03*
%TO.P,U1,17*%
%TO.N,/~DSR~*%
X70485000Y29591000D03*
%TO.P,U1,3*%
%TO.N,~SLOT_SEL~*%
X47625000Y14351000D03*
%TO.P,U1,16*%
%TO.N,GND*%
X73025000Y29591000D03*
%TO.P,U1,2*%
%TO.N,Net-(R3-Pad1)*%
X45085000Y14351000D03*
%TO.P,U1,15*%
%TO.N,+5V*%
X75565000Y29591000D03*
D15*
%TO.P,U1,1*%
%TO.N,GND*%
X42545000Y14351000D03*
%TD*%
D17*
%TO.P,J2,6*%
%TO.N,GND*%
X39370000Y40513000D03*
%TO.P,J2,5*%
%TO.N,/~RTS~*%
X39370000Y43053000D03*
%TO.P,J2,4*%
%TO.N,+5V*%
X39370000Y45593000D03*
%TO.P,J2,3*%
%TO.N,/RX*%
X39370000Y48133000D03*
%TO.P,J2,2*%
%TO.N,/TX*%
X39370000Y50673000D03*
D18*
%TO.P,J2,1*%
%TO.N,/~DSR~*%
X39370000Y53213000D03*
%TD*%
D17*
%TO.P,J1,50*%
%TO.N,~NMI~*%
X17272000Y4064000D03*
%TO.P,J1,49*%
%TO.N,~RESET~*%
X17272000Y6604000D03*
%TO.P,J1,48*%
%TO.N,~SLOT_IRQ~*%
X19812000Y4064000D03*
%TO.P,J1,47*%
%TO.N,SYNC*%
X19812000Y6604000D03*
%TO.P,J1,46*%
%TO.N,EX3*%
X22352000Y4064000D03*
%TO.P,J1,45*%
%TO.N,~IRQ~*%
X22352000Y6604000D03*
%TO.P,J1,44*%
%TO.N,EX2*%
X24892000Y4064000D03*
%TO.P,J1,43*%
%TO.N,R~W~*%
X24892000Y6604000D03*
%TO.P,J1,42*%
%TO.N,CLK_12M*%
X27432000Y4064000D03*
%TO.P,J1,41*%
%TO.N,CLK*%
X27432000Y6604000D03*
%TO.P,J1,40*%
%TO.N,LED4*%
X29972000Y4064000D03*
%TO.P,J1,39*%
%TO.N,BE*%
X29972000Y6604000D03*
%TO.P,J1,38*%
%TO.N,LED3*%
X32512000Y4064000D03*
%TO.P,J1,37*%
%TO.N,RDY*%
X32512000Y6604000D03*
%TO.P,J1,36*%
%TO.N,LED2*%
X35052000Y4064000D03*
%TO.P,J1,35*%
%TO.N,A15*%
X35052000Y6604000D03*
%TO.P,J1,34*%
%TO.N,LED1*%
X37592000Y4064000D03*
%TO.P,J1,33*%
%TO.N,A14*%
X37592000Y6604000D03*
%TO.P,J1,32*%
%TO.N,~SLOT_SEL~*%
X40132000Y4064000D03*
%TO.P,J1,31*%
%TO.N,A13*%
X40132000Y6604000D03*
%TO.P,J1,30*%
%TO.N,~INH~*%
X42672000Y4064000D03*
%TO.P,J1,29*%
%TO.N,A12*%
X42672000Y6604000D03*
%TO.P,J1,28*%
%TO.N,~SSEL~*%
X45212000Y4064000D03*
%TO.P,J1,27*%
%TO.N,A11*%
X45212000Y6604000D03*
%TO.P,J1,26*%
%TO.N,GND*%
X47752000Y4064000D03*
%TO.P,J1,25*%
%TO.N,+5V*%
X47752000Y6604000D03*
%TO.P,J1,24*%
X50292000Y4064000D03*
%TO.P,J1,23*%
%TO.N,GND*%
X50292000Y6604000D03*
%TO.P,J1,22*%
%TO.N,~SLOW~*%
X52832000Y4064000D03*
%TO.P,J1,21*%
%TO.N,A10*%
X52832000Y6604000D03*
%TO.P,J1,20*%
%TO.N,EX1*%
X55372000Y4064000D03*
%TO.P,J1,19*%
%TO.N,A9*%
X55372000Y6604000D03*
%TO.P,J1,18*%
%TO.N,EX0*%
X57912000Y4064000D03*
%TO.P,J1,17*%
%TO.N,A8*%
X57912000Y6604000D03*
%TO.P,J1,16*%
%TO.N,D7*%
X60452000Y4064000D03*
%TO.P,J1,15*%
%TO.N,A7*%
X60452000Y6604000D03*
%TO.P,J1,14*%
%TO.N,D6*%
X62992000Y4064000D03*
%TO.P,J1,13*%
%TO.N,A6*%
X62992000Y6604000D03*
%TO.P,J1,12*%
%TO.N,D5*%
X65532000Y4064000D03*
%TO.P,J1,11*%
%TO.N,A5*%
X65532000Y6604000D03*
%TO.P,J1,10*%
%TO.N,D4*%
X68072000Y4064000D03*
%TO.P,J1,9*%
%TO.N,A4*%
X68072000Y6604000D03*
%TO.P,J1,8*%
%TO.N,D3*%
X70612000Y4064000D03*
%TO.P,J1,7*%
%TO.N,A3*%
X70612000Y6604000D03*
%TO.P,J1,6*%
%TO.N,D2*%
X73152000Y4064000D03*
%TO.P,J1,5*%
%TO.N,A2*%
X73152000Y6604000D03*
%TO.P,J1,4*%
%TO.N,D1*%
X75692000Y4064000D03*
%TO.P,J1,3*%
%TO.N,A1*%
X75692000Y6604000D03*
%TO.P,J1,2*%
%TO.N,D0*%
X78232000Y4064000D03*
D18*
%TO.P,J1,1*%
%TO.N,A0*%
X78232000Y6604000D03*
%TD*%
D19*
%TO.N,A0*%
X75438000Y8128000D03*
%TO.N,~RESET~*%
X43942000Y7874000D03*
%TO.N,~SLOT_IRQ~*%
X41656000Y28067000D03*
%TO.N,Net-(U1-Pad6)*%
X41529000Y19177000D03*
X36322000Y21209000D03*
%TO.N,/RX*%
X46355000Y48133000D03*
%TD*%
D20*
%TO.N,GND*%
X50292000Y6604000D02*
X47752000Y4064000D01*
%TO.N,+5V*%
X75565000Y32385000D02*
X75565000Y29591000D01*
X75438000Y32512000D02*
X75565000Y32385000D01*
X14605000Y24765000D02*
X18923000Y24765000D01*
X14478000Y24892000D02*
X14605000Y24765000D01*
D21*
%TO.N,A0*%
X76708000Y8128000D02*
X75438000Y8128000D01*
X78232000Y6604000D02*
X76708000Y8128000D01*
%TO.N,~RESET~*%
X43942000Y8128000D02*
X43942000Y8128000D01*
X17272000Y6604000D02*
X18542000Y7874000D01*
X18542000Y7874000D02*
X43942000Y7874000D01*
%TO.N,~SLOT_IRQ~*%
X46101000Y28067000D02*
X47625000Y29591000D01*
X41656000Y28067000D02*
X46101000Y28067000D01*
%TO.N,Net-(U1-Pad6)*%
X41529000Y19177000D02*
X38354000Y19177000D01*
X38354000Y19177000D02*
X36322000Y21209000D01*
X36322000Y21209000D02*
X36322000Y21209000D01*
%TO.N,/TX*%
X40005000Y50038000D02*
X39370000Y50673000D01*
%TO.N,/RX*%
X46355000Y48133000D02*
X39370000Y48133000D01*
%TD*%
D22*
%TO.N,GND*%
X2125353Y59386000D02*
X78646647Y59386000D01*
X78740956Y59395289D01*
X78903542Y59379347D01*
X79183018Y59294969D01*
X79440780Y59157915D01*
X79667015Y58973401D01*
X79853103Y58748460D01*
X79991956Y58491658D01*
X80078282Y58212781D01*
X80096365Y58040731D01*
X80087000Y57945646D01*
X80087001Y685000D01*
X14218381Y685000D01*
X8153121Y6750260D01*
X15787000Y6750260D01*
X15787000Y6457740D01*
X15844068Y6170842D01*
X15956010Y5900589D01*
X16118525Y5657368D01*
X16325368Y5450525D01*
X16499760Y5334000D01*
X16325368Y5217475D01*
X16118525Y5010632D01*
X15956010Y4767411D01*
X15844068Y4497158D01*
X15787000Y4210260D01*
X15787000Y3917740D01*
X15844068Y3630842D01*
X15956010Y3360589D01*
X16118525Y3117368D01*
X16325368Y2910525D01*
X16568589Y2748010D01*
X16838842Y2636068D01*
X17125740Y2579000D01*
X17418260Y2579000D01*
X17705158Y2636068D01*
X17975411Y2748010D01*
X18218632Y2910525D01*
X18425475Y3117368D01*
X18542000Y3291760D01*
X18658525Y3117368D01*
X18865368Y2910525D01*
X19108589Y2748010D01*
X19378842Y2636068D01*
X19665740Y2579000D01*
X19958260Y2579000D01*
X20245158Y2636068D01*
X20515411Y2748010D01*
X20758632Y2910525D01*
X20965475Y3117368D01*
X21082000Y3291760D01*
X21198525Y3117368D01*
X21405368Y2910525D01*
X21648589Y2748010D01*
X21918842Y2636068D01*
X22205740Y2579000D01*
X22498260Y2579000D01*
X22785158Y2636068D01*
X23055411Y2748010D01*
X23298632Y2910525D01*
X23505475Y3117368D01*
X23622000Y3291760D01*
X23738525Y3117368D01*
X23945368Y2910525D01*
X24188589Y2748010D01*
X24458842Y2636068D01*
X24745740Y2579000D01*
X25038260Y2579000D01*
X25325158Y2636068D01*
X25595411Y2748010D01*
X25838632Y2910525D01*
X26045475Y3117368D01*
X26162000Y3291760D01*
X26278525Y3117368D01*
X26485368Y2910525D01*
X26728589Y2748010D01*
X26998842Y2636068D01*
X27285740Y2579000D01*
X27578260Y2579000D01*
X27865158Y2636068D01*
X28135411Y2748010D01*
X28378632Y2910525D01*
X28585475Y3117368D01*
X28702000Y3291760D01*
X28818525Y3117368D01*
X29025368Y2910525D01*
X29268589Y2748010D01*
X29538842Y2636068D01*
X29825740Y2579000D01*
X30118260Y2579000D01*
X30405158Y2636068D01*
X30675411Y2748010D01*
X30918632Y2910525D01*
X31125475Y3117368D01*
X31242000Y3291760D01*
X31358525Y3117368D01*
X31565368Y2910525D01*
X31808589Y2748010D01*
X32078842Y2636068D01*
X32365740Y2579000D01*
X32658260Y2579000D01*
X32945158Y2636068D01*
X33215411Y2748010D01*
X33458632Y2910525D01*
X33665475Y3117368D01*
X33782000Y3291760D01*
X33898525Y3117368D01*
X34105368Y2910525D01*
X34348589Y2748010D01*
X34618842Y2636068D01*
X34905740Y2579000D01*
X35198260Y2579000D01*
X35485158Y2636068D01*
X35755411Y2748010D01*
X35998632Y2910525D01*
X36205475Y3117368D01*
X36322000Y3291760D01*
X36438525Y3117368D01*
X36645368Y2910525D01*
X36888589Y2748010D01*
X37158842Y2636068D01*
X37445740Y2579000D01*
X37738260Y2579000D01*
X38025158Y2636068D01*
X38295411Y2748010D01*
X38538632Y2910525D01*
X38745475Y3117368D01*
X38862000Y3291760D01*
X38978525Y3117368D01*
X39185368Y2910525D01*
X39428589Y2748010D01*
X39698842Y2636068D01*
X39985740Y2579000D01*
X40278260Y2579000D01*
X40565158Y2636068D01*
X40835411Y2748010D01*
X41078632Y2910525D01*
X41285475Y3117368D01*
X41402000Y3291760D01*
X41518525Y3117368D01*
X41725368Y2910525D01*
X41968589Y2748010D01*
X42238842Y2636068D01*
X42525740Y2579000D01*
X42818260Y2579000D01*
X43105158Y2636068D01*
X43375411Y2748010D01*
X43618632Y2910525D01*
X43825475Y3117368D01*
X43942000Y3291760D01*
X44058525Y3117368D01*
X44265368Y2910525D01*
X44508589Y2748010D01*
X44778842Y2636068D01*
X45065740Y2579000D01*
X45358260Y2579000D01*
X45645158Y2636068D01*
X45915411Y2748010D01*
X46158632Y2910525D01*
X46365475Y3117368D01*
X46487195Y3299534D01*
X46556822Y3182645D01*
X46751731Y2966412D01*
X46985080Y2792359D01*
X47247901Y2667175D01*
X47395110Y2622524D01*
X47625000Y2743845D01*
X47625000Y3937000D01*
X47605000Y3937000D01*
X47605000Y4191000D01*
X47625000Y4191000D01*
X47625000Y4211000D01*
X47879000Y4211000D01*
X47879000Y4191000D01*
X47899000Y4191000D01*
X47899000Y3937000D01*
X47879000Y3937000D01*
X47879000Y2743845D01*
X48108890Y2622524D01*
X48256099Y2667175D01*
X48518920Y2792359D01*
X48752269Y2966412D01*
X48947178Y3182645D01*
X49016805Y3299534D01*
X49138525Y3117368D01*
X49345368Y2910525D01*
X49588589Y2748010D01*
X49858842Y2636068D01*
X50145740Y2579000D01*
X50438260Y2579000D01*
X50725158Y2636068D01*
X50995411Y2748010D01*
X51238632Y2910525D01*
X51445475Y3117368D01*
X51562000Y3291760D01*
X51678525Y3117368D01*
X51885368Y2910525D01*
X52128589Y2748010D01*
X52398842Y2636068D01*
X52685740Y2579000D01*
X52978260Y2579000D01*
X53265158Y2636068D01*
X53535411Y2748010D01*
X53778632Y2910525D01*
X53985475Y3117368D01*
X54102000Y3291760D01*
X54218525Y3117368D01*
X54425368Y2910525D01*
X54668589Y2748010D01*
X54938842Y2636068D01*
X55225740Y2579000D01*
X55518260Y2579000D01*
X55805158Y2636068D01*
X56075411Y2748010D01*
X56318632Y2910525D01*
X56525475Y3117368D01*
X56642000Y3291760D01*
X56758525Y3117368D01*
X56965368Y2910525D01*
X57208589Y2748010D01*
X57478842Y2636068D01*
X57765740Y2579000D01*
X58058260Y2579000D01*
X58345158Y2636068D01*
X58615411Y2748010D01*
X58858632Y2910525D01*
X59065475Y3117368D01*
X59182000Y3291760D01*
X59298525Y3117368D01*
X59505368Y2910525D01*
X59748589Y2748010D01*
X60018842Y2636068D01*
X60305740Y2579000D01*
X60598260Y2579000D01*
X60885158Y2636068D01*
X61155411Y2748010D01*
X61398632Y2910525D01*
X61605475Y3117368D01*
X61722000Y3291760D01*
X61838525Y3117368D01*
X62045368Y2910525D01*
X62288589Y2748010D01*
X62558842Y2636068D01*
X62845740Y2579000D01*
X63138260Y2579000D01*
X63425158Y2636068D01*
X63695411Y2748010D01*
X63938632Y2910525D01*
X64145475Y3117368D01*
X64262000Y3291760D01*
X64378525Y3117368D01*
X64585368Y2910525D01*
X64828589Y2748010D01*
X65098842Y2636068D01*
X65385740Y2579000D01*
X65678260Y2579000D01*
X65965158Y2636068D01*
X66235411Y2748010D01*
X66478632Y2910525D01*
X66685475Y3117368D01*
X66802000Y3291760D01*
X66918525Y3117368D01*
X67125368Y2910525D01*
X67368589Y2748010D01*
X67638842Y2636068D01*
X67925740Y2579000D01*
X68218260Y2579000D01*
X68505158Y2636068D01*
X68775411Y2748010D01*
X69018632Y2910525D01*
X69225475Y3117368D01*
X69342000Y3291760D01*
X69458525Y3117368D01*
X69665368Y2910525D01*
X69908589Y2748010D01*
X70178842Y2636068D01*
X70465740Y2579000D01*
X70758260Y2579000D01*
X71045158Y2636068D01*
X71315411Y2748010D01*
X71558632Y2910525D01*
X71765475Y3117368D01*
X71882000Y3291760D01*
X71998525Y3117368D01*
X72205368Y2910525D01*
X72448589Y2748010D01*
X72718842Y2636068D01*
X73005740Y2579000D01*
X73298260Y2579000D01*
X73585158Y2636068D01*
X73855411Y2748010D01*
X74098632Y2910525D01*
X74305475Y3117368D01*
X74422000Y3291760D01*
X74538525Y3117368D01*
X74745368Y2910525D01*
X74988589Y2748010D01*
X75258842Y2636068D01*
X75545740Y2579000D01*
X75838260Y2579000D01*
X76125158Y2636068D01*
X76395411Y2748010D01*
X76638632Y2910525D01*
X76845475Y3117368D01*
X76962000Y3291760D01*
X77078525Y3117368D01*
X77285368Y2910525D01*
X77528589Y2748010D01*
X77798842Y2636068D01*
X78085740Y2579000D01*
X78378260Y2579000D01*
X78665158Y2636068D01*
X78935411Y2748010D01*
X79178632Y2910525D01*
X79385475Y3117368D01*
X79547990Y3360589D01*
X79659932Y3630842D01*
X79717000Y3917740D01*
X79717000Y4210260D01*
X79659932Y4497158D01*
X79547990Y4767411D01*
X79385475Y5010632D01*
X79253620Y5142487D01*
X79326180Y5164498D01*
X79436494Y5223463D01*
X79533185Y5302815D01*
X79612537Y5399506D01*
X79671502Y5509820D01*
X79707812Y5629518D01*
X79720072Y5754000D01*
X79720072Y7454000D01*
X79707812Y7578482D01*
X79671502Y7698180D01*
X79612537Y7808494D01*
X79533185Y7905185D01*
X79436494Y7984537D01*
X79326180Y8043502D01*
X79206482Y8079812D01*
X79082000Y8092072D01*
X77818730Y8092072D01*
X77271803Y8638998D01*
X77248001Y8668001D01*
X77132276Y8762974D01*
X77000247Y8833546D01*
X76856986Y8877003D01*
X76745333Y8888000D01*
X76745322Y8888000D01*
X76708000Y8891676D01*
X76670678Y8888000D01*
X75983535Y8888000D01*
X75880889Y8956586D01*
X75710729Y9027068D01*
X75530089Y9063000D01*
X75345911Y9063000D01*
X75165271Y9027068D01*
X74995111Y8956586D01*
X74841972Y8854262D01*
X74711738Y8724028D01*
X74609414Y8570889D01*
X74538932Y8400729D01*
X74503000Y8220089D01*
X74503000Y8035911D01*
X74538932Y7855271D01*
X74609414Y7685111D01*
X74634885Y7646992D01*
X74538525Y7550632D01*
X74422000Y7376240D01*
X74305475Y7550632D01*
X74098632Y7757475D01*
X73855411Y7919990D01*
X73585158Y8031932D01*
X73298260Y8089000D01*
X73005740Y8089000D01*
X72718842Y8031932D01*
X72448589Y7919990D01*
X72205368Y7757475D01*
X71998525Y7550632D01*
X71882000Y7376240D01*
X71765475Y7550632D01*
X71558632Y7757475D01*
X71315411Y7919990D01*
X71045158Y8031932D01*
X70758260Y8089000D01*
X70465740Y8089000D01*
X70178842Y8031932D01*
X69908589Y7919990D01*
X69665368Y7757475D01*
X69458525Y7550632D01*
X69342000Y7376240D01*
X69225475Y7550632D01*
X69018632Y7757475D01*
X68775411Y7919990D01*
X68505158Y8031932D01*
X68218260Y8089000D01*
X67925740Y8089000D01*
X67638842Y8031932D01*
X67368589Y7919990D01*
X67125368Y7757475D01*
X66918525Y7550632D01*
X66802000Y7376240D01*
X66685475Y7550632D01*
X66478632Y7757475D01*
X66235411Y7919990D01*
X65965158Y8031932D01*
X65678260Y8089000D01*
X65385740Y8089000D01*
X65098842Y8031932D01*
X64828589Y7919990D01*
X64585368Y7757475D01*
X64378525Y7550632D01*
X64262000Y7376240D01*
X64145475Y7550632D01*
X63938632Y7757475D01*
X63695411Y7919990D01*
X63425158Y8031932D01*
X63138260Y8089000D01*
X62845740Y8089000D01*
X62558842Y8031932D01*
X62288589Y7919990D01*
X62045368Y7757475D01*
X61838525Y7550632D01*
X61722000Y7376240D01*
X61605475Y7550632D01*
X61398632Y7757475D01*
X61155411Y7919990D01*
X60885158Y8031932D01*
X60598260Y8089000D01*
X60305740Y8089000D01*
X60018842Y8031932D01*
X59748589Y7919990D01*
X59505368Y7757475D01*
X59298525Y7550632D01*
X59182000Y7376240D01*
X59065475Y7550632D01*
X58858632Y7757475D01*
X58615411Y7919990D01*
X58345158Y8031932D01*
X58058260Y8089000D01*
X57765740Y8089000D01*
X57478842Y8031932D01*
X57208589Y7919990D01*
X56965368Y7757475D01*
X56758525Y7550632D01*
X56642000Y7376240D01*
X56525475Y7550632D01*
X56318632Y7757475D01*
X56075411Y7919990D01*
X55805158Y8031932D01*
X55518260Y8089000D01*
X55225740Y8089000D01*
X54938842Y8031932D01*
X54668589Y7919990D01*
X54425368Y7757475D01*
X54218525Y7550632D01*
X54102000Y7376240D01*
X53985475Y7550632D01*
X53778632Y7757475D01*
X53535411Y7919990D01*
X53265158Y8031932D01*
X52978260Y8089000D01*
X52685740Y8089000D01*
X52398842Y8031932D01*
X52128589Y7919990D01*
X51885368Y7757475D01*
X51678525Y7550632D01*
X51556805Y7368466D01*
X51487178Y7485355D01*
X51292269Y7701588D01*
X51058920Y7875641D01*
X50796099Y8000825D01*
X50648890Y8045476D01*
X50419000Y7924155D01*
X50419000Y6731000D01*
X50439000Y6731000D01*
X50439000Y6477000D01*
X50419000Y6477000D01*
X50419000Y6457000D01*
X50165000Y6457000D01*
X50165000Y6477000D01*
X50145000Y6477000D01*
X50145000Y6731000D01*
X50165000Y6731000D01*
X50165000Y7924155D01*
X49935110Y8045476D01*
X49787901Y8000825D01*
X49525080Y7875641D01*
X49291731Y7701588D01*
X49096822Y7485355D01*
X49027195Y7368466D01*
X48905475Y7550632D01*
X48698632Y7757475D01*
X48455411Y7919990D01*
X48185158Y8031932D01*
X47898260Y8089000D01*
X47605740Y8089000D01*
X47318842Y8031932D01*
X47048589Y7919990D01*
X46805368Y7757475D01*
X46598525Y7550632D01*
X46482000Y7376240D01*
X46365475Y7550632D01*
X46158632Y7757475D01*
X45915411Y7919990D01*
X45645158Y8031932D01*
X45358260Y8089000D01*
X45065740Y8089000D01*
X44860665Y8048208D01*
X44841068Y8146729D01*
X44770586Y8316889D01*
X44668262Y8470028D01*
X44538028Y8600262D01*
X44537065Y8600906D01*
X44482001Y8668001D01*
X44366276Y8762974D01*
X44234247Y8833546D01*
X44090986Y8877003D01*
X43979333Y8888000D01*
X43904667Y8888000D01*
X43793014Y8877003D01*
X43649753Y8833546D01*
X43517724Y8762974D01*
X43401999Y8668001D01*
X43374095Y8634000D01*
X18579322Y8634000D01*
X18541999Y8637676D01*
X18504676Y8634000D01*
X18504667Y8634000D01*
X18393014Y8623003D01*
X18249753Y8579546D01*
X18117724Y8508974D01*
X18001999Y8414001D01*
X17978201Y8385003D01*
X17638408Y8045210D01*
X17418260Y8089000D01*
X17125740Y8089000D01*
X16838842Y8031932D01*
X16568589Y7919990D01*
X16325368Y7757475D01*
X16118525Y7550632D01*
X15956010Y7307411D01*
X15844068Y7037158D01*
X15787000Y6750260D01*
X8153121Y6750260D01*
X3087895Y11815486D01*
X49973000Y11815486D01*
X49973000Y11552514D01*
X50024304Y11294595D01*
X50124939Y11051641D01*
X50271038Y10832987D01*
X50456987Y10647038D01*
X50675641Y10500939D01*
X50918595Y10400304D01*
X51176514Y10349000D01*
X51439486Y10349000D01*
X51697405Y10400304D01*
X51940359Y10500939D01*
X52159013Y10647038D01*
X52344962Y10832987D01*
X52491061Y11051641D01*
X52591696Y11294595D01*
X52643000Y11552514D01*
X52643000Y11815486D01*
X55053000Y11815486D01*
X55053000Y11552514D01*
X55104304Y11294595D01*
X55204939Y11051641D01*
X55351038Y10832987D01*
X55536987Y10647038D01*
X55755641Y10500939D01*
X55998595Y10400304D01*
X56256514Y10349000D01*
X56519486Y10349000D01*
X56777405Y10400304D01*
X57020359Y10500939D01*
X57239013Y10647038D01*
X57424962Y10832987D01*
X57571061Y11051641D01*
X57671696Y11294595D01*
X57723000Y11552514D01*
X57723000Y11815486D01*
X57671696Y12073405D01*
X57571061Y12316359D01*
X57424962Y12535013D01*
X57239013Y12720962D01*
X57020359Y12867061D01*
X56777405Y12967696D01*
X56519486Y13019000D01*
X56256514Y13019000D01*
X55998595Y12967696D01*
X55755641Y12867061D01*
X55536987Y12720962D01*
X55351038Y12535013D01*
X55204939Y12316359D01*
X55104304Y12073405D01*
X55053000Y11815486D01*
X52643000Y11815486D01*
X52591696Y12073405D01*
X52491061Y12316359D01*
X52344962Y12535013D01*
X52159013Y12720962D01*
X51940359Y12867061D01*
X51697405Y12967696D01*
X51439486Y13019000D01*
X51176514Y13019000D01*
X50918595Y12967696D01*
X50675641Y12867061D01*
X50456987Y12720962D01*
X50271038Y12535013D01*
X50124939Y12316359D01*
X50024304Y12073405D01*
X49973000Y11815486D01*
X3087895Y11815486D01*
X1352381Y13551000D01*
X41106928Y13551000D01*
X41119188Y13426518D01*
X41155498Y13306820D01*
X41214463Y13196506D01*
X41293815Y13099815D01*
X41390506Y13020463D01*
X41500820Y12961498D01*
X41620518Y12925188D01*
X41745000Y12912928D01*
X42259250Y12916000D01*
X42418000Y13074750D01*
X42418000Y14224000D01*
X41268750Y14224000D01*
X41110000Y14065250D01*
X41106928Y13551000D01*
X1352381Y13551000D01*
X685000Y14218380D01*
X685000Y15151000D01*
X41106928Y15151000D01*
X41110000Y14636750D01*
X41268750Y14478000D01*
X42418000Y14478000D01*
X42418000Y15627250D01*
X42672000Y15627250D01*
X42672000Y14478000D01*
X42692000Y14478000D01*
X42692000Y14224000D01*
X42672000Y14224000D01*
X42672000Y13074750D01*
X42830750Y12916000D01*
X43345000Y12912928D01*
X43469482Y12925188D01*
X43589180Y12961498D01*
X43699494Y13020463D01*
X43796185Y13099815D01*
X43875537Y13196506D01*
X43934502Y13306820D01*
X43970812Y13426518D01*
X43971643Y13434961D01*
X44170241Y13236363D01*
X44405273Y13079320D01*
X44666426Y12971147D01*
X44943665Y12916000D01*
X45226335Y12916000D01*
X45503574Y12971147D01*
X45764727Y13079320D01*
X45999759Y13236363D01*
X46199637Y13436241D01*
X46355000Y13668759D01*
X46510363Y13436241D01*
X46710241Y13236363D01*
X46945273Y13079320D01*
X47206426Y12971147D01*
X47483665Y12916000D01*
X47766335Y12916000D01*
X48043574Y12971147D01*
X48304727Y13079320D01*
X48539759Y13236363D01*
X48739637Y13436241D01*
X48895000Y13668759D01*
X49050363Y13436241D01*
X49250241Y13236363D01*
X49485273Y13079320D01*
X49746426Y12971147D01*
X50023665Y12916000D01*
X50306335Y12916000D01*
X50583574Y12971147D01*
X50844727Y13079320D01*
X51079759Y13236363D01*
X51279637Y13436241D01*
X51435000Y13668759D01*
X51590363Y13436241D01*
X51790241Y13236363D01*
X52025273Y13079320D01*
X52286426Y12971147D01*
X52563665Y12916000D01*
X52846335Y12916000D01*
X53123574Y12971147D01*
X53384727Y13079320D01*
X53619759Y13236363D01*
X53819637Y13436241D01*
X53975000Y13668759D01*
X54130363Y13436241D01*
X54330241Y13236363D01*
X54565273Y13079320D01*
X54826426Y12971147D01*
X55103665Y12916000D01*
X55386335Y12916000D01*
X55663574Y12971147D01*
X55924727Y13079320D01*
X56159759Y13236363D01*
X56359637Y13436241D01*
X56515000Y13668759D01*
X56670363Y13436241D01*
X56870241Y13236363D01*
X57105273Y13079320D01*
X57366426Y12971147D01*
X57643665Y12916000D01*
X57926335Y12916000D01*
X58203574Y12971147D01*
X58464727Y13079320D01*
X58699759Y13236363D01*
X58899637Y13436241D01*
X59055000Y13668759D01*
X59210363Y13436241D01*
X59410241Y13236363D01*
X59645273Y13079320D01*
X59906426Y12971147D01*
X60183665Y12916000D01*
X60466335Y12916000D01*
X60743574Y12971147D01*
X61004727Y13079320D01*
X61239759Y13236363D01*
X61439637Y13436241D01*
X61596680Y13671273D01*
X61601067Y13681865D01*
X61712615Y13495869D01*
X61901586Y13287481D01*
X62127580Y13119963D01*
X62381913Y12999754D01*
X62515961Y12959096D01*
X62738000Y13081085D01*
X62738000Y14224000D01*
X62718000Y14224000D01*
X62718000Y14478000D01*
X62738000Y14478000D01*
X62738000Y15620915D01*
X62992000Y15620915D01*
X62992000Y14478000D01*
X63012000Y14478000D01*
X63012000Y14224000D01*
X62992000Y14224000D01*
X62992000Y13081085D01*
X63214039Y12959096D01*
X63348087Y12999754D01*
X63602420Y13119963D01*
X63828414Y13287481D01*
X64017385Y13495869D01*
X64128933Y13681865D01*
X64133320Y13671273D01*
X64290363Y13436241D01*
X64490241Y13236363D01*
X64725273Y13079320D01*
X64986426Y12971147D01*
X65263665Y12916000D01*
X65546335Y12916000D01*
X65823574Y12971147D01*
X66084727Y13079320D01*
X66319759Y13236363D01*
X66519637Y13436241D01*
X66675000Y13668759D01*
X66830363Y13436241D01*
X67030241Y13236363D01*
X67265273Y13079320D01*
X67526426Y12971147D01*
X67803665Y12916000D01*
X68086335Y12916000D01*
X68363574Y12971147D01*
X68624727Y13079320D01*
X68859759Y13236363D01*
X69059637Y13436241D01*
X69215000Y13668759D01*
X69370363Y13436241D01*
X69570241Y13236363D01*
X69805273Y13079320D01*
X70066426Y12971147D01*
X70343665Y12916000D01*
X70626335Y12916000D01*
X70903574Y12971147D01*
X71164727Y13079320D01*
X71399759Y13236363D01*
X71599637Y13436241D01*
X71755000Y13668759D01*
X71910363Y13436241D01*
X72110241Y13236363D01*
X72345273Y13079320D01*
X72606426Y12971147D01*
X72883665Y12916000D01*
X73166335Y12916000D01*
X73443574Y12971147D01*
X73704727Y13079320D01*
X73939759Y13236363D01*
X74139637Y13436241D01*
X74295000Y13668759D01*
X74450363Y13436241D01*
X74650241Y13236363D01*
X74885273Y13079320D01*
X75146426Y12971147D01*
X75423665Y12916000D01*
X75706335Y12916000D01*
X75983574Y12971147D01*
X76244727Y13079320D01*
X76479759Y13236363D01*
X76679637Y13436241D01*
X76836680Y13671273D01*
X76944853Y13932426D01*
X77000000Y14209665D01*
X77000000Y14492335D01*
X76944853Y14769574D01*
X76836680Y15030727D01*
X76679637Y15265759D01*
X76479759Y15465637D01*
X76244727Y15622680D01*
X75983574Y15730853D01*
X75706335Y15786000D01*
X75423665Y15786000D01*
X75146426Y15730853D01*
X74885273Y15622680D01*
X74650241Y15465637D01*
X74450363Y15265759D01*
X74295000Y15033241D01*
X74139637Y15265759D01*
X73939759Y15465637D01*
X73704727Y15622680D01*
X73443574Y15730853D01*
X73166335Y15786000D01*
X72883665Y15786000D01*
X72606426Y15730853D01*
X72345273Y15622680D01*
X72110241Y15465637D01*
X71910363Y15265759D01*
X71755000Y15033241D01*
X71599637Y15265759D01*
X71399759Y15465637D01*
X71164727Y15622680D01*
X70903574Y15730853D01*
X70626335Y15786000D01*
X70343665Y15786000D01*
X70066426Y15730853D01*
X69805273Y15622680D01*
X69570241Y15465637D01*
X69370363Y15265759D01*
X69215000Y15033241D01*
X69059637Y15265759D01*
X68859759Y15465637D01*
X68624727Y15622680D01*
X68363574Y15730853D01*
X68086335Y15786000D01*
X67803665Y15786000D01*
X67526426Y15730853D01*
X67265273Y15622680D01*
X67030241Y15465637D01*
X66830363Y15265759D01*
X66675000Y15033241D01*
X66519637Y15265759D01*
X66319759Y15465637D01*
X66084727Y15622680D01*
X65823574Y15730853D01*
X65546335Y15786000D01*
X65263665Y15786000D01*
X64986426Y15730853D01*
X64725273Y15622680D01*
X64490241Y15465637D01*
X64290363Y15265759D01*
X64133320Y15030727D01*
X64128933Y15020135D01*
X64017385Y15206131D01*
X63828414Y15414519D01*
X63602420Y15582037D01*
X63348087Y15702246D01*
X63214039Y15742904D01*
X62992000Y15620915D01*
X62738000Y15620915D01*
X62515961Y15742904D01*
X62381913Y15702246D01*
X62127580Y15582037D01*
X61901586Y15414519D01*
X61712615Y15206131D01*
X61601067Y15020135D01*
X61596680Y15030727D01*
X61439637Y15265759D01*
X61239759Y15465637D01*
X61004727Y15622680D01*
X60743574Y15730853D01*
X60466335Y15786000D01*
X60183665Y15786000D01*
X59906426Y15730853D01*
X59645273Y15622680D01*
X59410241Y15465637D01*
X59210363Y15265759D01*
X59055000Y15033241D01*
X58899637Y15265759D01*
X58699759Y15465637D01*
X58464727Y15622680D01*
X58203574Y15730853D01*
X57926335Y15786000D01*
X57643665Y15786000D01*
X57366426Y15730853D01*
X57105273Y15622680D01*
X56870241Y15465637D01*
X56670363Y15265759D01*
X56515000Y15033241D01*
X56359637Y15265759D01*
X56159759Y15465637D01*
X55924727Y15622680D01*
X55663574Y15730853D01*
X55386335Y15786000D01*
X55103665Y15786000D01*
X54826426Y15730853D01*
X54565273Y15622680D01*
X54330241Y15465637D01*
X54130363Y15265759D01*
X53975000Y15033241D01*
X53819637Y15265759D01*
X53619759Y15465637D01*
X53384727Y15622680D01*
X53123574Y15730853D01*
X52846335Y15786000D01*
X52563665Y15786000D01*
X52286426Y15730853D01*
X52025273Y15622680D01*
X51790241Y15465637D01*
X51590363Y15265759D01*
X51435000Y15033241D01*
X51279637Y15265759D01*
X51079759Y15465637D01*
X50844727Y15622680D01*
X50583574Y15730853D01*
X50306335Y15786000D01*
X50023665Y15786000D01*
X49746426Y15730853D01*
X49485273Y15622680D01*
X49250241Y15465637D01*
X49050363Y15265759D01*
X48895000Y15033241D01*
X48739637Y15265759D01*
X48539759Y15465637D01*
X48304727Y15622680D01*
X48043574Y15730853D01*
X47766335Y15786000D01*
X47483665Y15786000D01*
X47206426Y15730853D01*
X46945273Y15622680D01*
X46710241Y15465637D01*
X46510363Y15265759D01*
X46355000Y15033241D01*
X46199637Y15265759D01*
X45999759Y15465637D01*
X45764727Y15622680D01*
X45503574Y15730853D01*
X45226335Y15786000D01*
X44943665Y15786000D01*
X44666426Y15730853D01*
X44405273Y15622680D01*
X44170241Y15465637D01*
X43971643Y15267039D01*
X43970812Y15275482D01*
X43934502Y15395180D01*
X43875537Y15505494D01*
X43796185Y15602185D01*
X43699494Y15681537D01*
X43589180Y15740502D01*
X43469482Y15776812D01*
X43345000Y15789072D01*
X42830750Y15786000D01*
X42672000Y15627250D01*
X42418000Y15627250D01*
X42259250Y15786000D01*
X41745000Y15789072D01*
X41620518Y15776812D01*
X41500820Y15740502D01*
X41390506Y15681537D01*
X41293815Y15602185D01*
X41214463Y15505494D01*
X41155498Y15395180D01*
X41119188Y15275482D01*
X41106928Y15151000D01*
X685000Y15151000D01*
X685000Y17945000D01*
X17484928Y17945000D01*
X17484928Y16345000D01*
X17497188Y16220518D01*
X17533498Y16100820D01*
X17592463Y15990506D01*
X17671815Y15893815D01*
X17768506Y15814463D01*
X17878820Y15755498D01*
X17998518Y15719188D01*
X18123000Y15706928D01*
X19723000Y15706928D01*
X19847482Y15719188D01*
X19967180Y15755498D01*
X20077494Y15814463D01*
X20174185Y15893815D01*
X20253537Y15990506D01*
X20312502Y16100820D01*
X20328117Y16152298D01*
X25729903Y16152298D01*
X25801486Y15908329D01*
X26056996Y15787429D01*
X26331184Y15718700D01*
X26613512Y15704783D01*
X26893130Y15746213D01*
X27159292Y15841397D01*
X27284514Y15908329D01*
X27356097Y16152298D01*
X26543000Y16965395D01*
X25729903Y16152298D01*
X20328117Y16152298D01*
X20348812Y16220518D01*
X20361072Y16345000D01*
X20361072Y17074488D01*
X25102783Y17074488D01*
X25144213Y16794870D01*
X25239397Y16528708D01*
X25306329Y16403486D01*
X25550298Y16331903D01*
X26363395Y17145000D01*
X26722605Y17145000D01*
X27535702Y16331903D01*
X27779671Y16403486D01*
X27900571Y16658996D01*
X27969300Y16933184D01*
X27983217Y17215512D01*
X27941787Y17495130D01*
X27846603Y17761292D01*
X27779671Y17886514D01*
X27535702Y17958097D01*
X26722605Y17145000D01*
X26363395Y17145000D01*
X25550298Y17958097D01*
X25306329Y17886514D01*
X25185429Y17631004D01*
X25116700Y17356816D01*
X25102783Y17074488D01*
X20361072Y17074488D01*
X20361072Y17945000D01*
X20348812Y18069482D01*
X20328118Y18137702D01*
X25729903Y18137702D01*
X26543000Y17324605D01*
X27356097Y18137702D01*
X27284514Y18381671D01*
X27029004Y18502571D01*
X26754816Y18571300D01*
X26472488Y18585217D01*
X26192870Y18543787D01*
X25926708Y18448603D01*
X25801486Y18381671D01*
X25729903Y18137702D01*
X20328118Y18137702D01*
X20312502Y18189180D01*
X20253537Y18299494D01*
X20174185Y18396185D01*
X20077494Y18475537D01*
X19967180Y18534502D01*
X19847482Y18570812D01*
X19723000Y18583072D01*
X18123000Y18583072D01*
X17998518Y18570812D01*
X17878820Y18534502D01*
X17768506Y18475537D01*
X17671815Y18396185D01*
X17592463Y18299494D01*
X17533498Y18189180D01*
X17497188Y18069482D01*
X17484928Y17945000D01*
X685000Y17945000D01*
X685000Y18899298D01*
X13664903Y18899298D01*
X13736486Y18655329D01*
X13991996Y18534429D01*
X14266184Y18465700D01*
X14548512Y18451783D01*
X14828130Y18493213D01*
X15094292Y18588397D01*
X15219514Y18655329D01*
X15291097Y18899298D01*
X14478000Y19712395D01*
X13664903Y18899298D01*
X685000Y18899298D01*
X685000Y19821488D01*
X13037783Y19821488D01*
X13079213Y19541870D01*
X13174397Y19275708D01*
X13241329Y19150486D01*
X13485298Y19078903D01*
X14298395Y19892000D01*
X14657605Y19892000D01*
X15470702Y19078903D01*
X15714671Y19150486D01*
X15835571Y19405996D01*
X15904300Y19680184D01*
X15918217Y19962512D01*
X15876787Y20242130D01*
X15781603Y20508292D01*
X15714671Y20633514D01*
X15470702Y20705097D01*
X14657605Y19892000D01*
X14298395Y19892000D01*
X13485298Y20705097D01*
X13241329Y20633514D01*
X13120429Y20378004D01*
X13051700Y20103816D01*
X13037783Y19821488D01*
X685000Y19821488D01*
X685000Y20884702D01*
X13664903Y20884702D01*
X14478000Y20071605D01*
X15291097Y20884702D01*
X15219514Y21128671D01*
X14964004Y21249571D01*
X14758478Y21301089D01*
X35387000Y21301089D01*
X35387000Y21116911D01*
X35422932Y20936271D01*
X35493414Y20766111D01*
X35595738Y20612972D01*
X35725972Y20482738D01*
X35879111Y20380414D01*
X36049271Y20309932D01*
X36170352Y20285847D01*
X37790201Y18665997D01*
X37813999Y18636999D01*
X37842997Y18613201D01*
X37929723Y18542026D01*
X38003538Y18502571D01*
X38061753Y18471454D01*
X38205014Y18427997D01*
X38316667Y18417000D01*
X38316677Y18417000D01*
X38354000Y18413324D01*
X38391323Y18417000D01*
X40983465Y18417000D01*
X41086111Y18348414D01*
X41256271Y18277932D01*
X41436911Y18242000D01*
X41621089Y18242000D01*
X41801729Y18277932D01*
X41971889Y18348414D01*
X42125028Y18450738D01*
X42255262Y18580972D01*
X42357586Y18734111D01*
X42428068Y18904271D01*
X42464000Y19084911D01*
X42464000Y19269089D01*
X42428068Y19449729D01*
X42357586Y19619889D01*
X42255262Y19773028D01*
X42125028Y19903262D01*
X41971889Y20005586D01*
X41801729Y20076068D01*
X41621089Y20112000D01*
X41436911Y20112000D01*
X41256271Y20076068D01*
X41086111Y20005586D01*
X40983465Y19937000D01*
X38668802Y19937000D01*
X37245153Y21360648D01*
X37221068Y21481729D01*
X37150586Y21651889D01*
X37048262Y21805028D01*
X36918028Y21935262D01*
X36764889Y22037586D01*
X36594729Y22108068D01*
X36414089Y22144000D01*
X36229911Y22144000D01*
X36049271Y22108068D01*
X35879111Y22037586D01*
X35725972Y21935262D01*
X35595738Y21805028D01*
X35493414Y21651889D01*
X35422932Y21481729D01*
X35387000Y21301089D01*
X14758478Y21301089D01*
X14689816Y21318300D01*
X14407488Y21332217D01*
X14127870Y21290787D01*
X13861708Y21195603D01*
X13736486Y21128671D01*
X13664903Y20884702D01*
X685000Y20884702D01*
X685000Y25033335D01*
X13043000Y25033335D01*
X13043000Y24750665D01*
X13098147Y24473426D01*
X13206320Y24212273D01*
X13363363Y23977241D01*
X13563241Y23777363D01*
X13798273Y23620320D01*
X14059426Y23512147D01*
X14336665Y23457000D01*
X14619335Y23457000D01*
X14896574Y23512147D01*
X15157727Y23620320D01*
X15172214Y23630000D01*
X18038716Y23630000D01*
X18243273Y23493320D01*
X18504426Y23385147D01*
X18781665Y23330000D01*
X19064335Y23330000D01*
X19341574Y23385147D01*
X19602727Y23493320D01*
X19837759Y23650363D01*
X20037637Y23850241D01*
X20194680Y24085273D01*
X20302853Y24346426D01*
X20358000Y24623665D01*
X20358000Y24906335D01*
X25108000Y24906335D01*
X25108000Y24623665D01*
X25163147Y24346426D01*
X25271320Y24085273D01*
X25428363Y23850241D01*
X25628241Y23650363D01*
X25863273Y23493320D01*
X26124426Y23385147D01*
X26401665Y23330000D01*
X26684335Y23330000D01*
X26961574Y23385147D01*
X27222727Y23493320D01*
X27457759Y23650363D01*
X27657637Y23850241D01*
X27814680Y24085273D01*
X27922853Y24346426D01*
X27978000Y24623665D01*
X27978000Y24906335D01*
X27922853Y25183574D01*
X27814680Y25444727D01*
X27657637Y25679759D01*
X27457759Y25879637D01*
X27222727Y26036680D01*
X26961574Y26144853D01*
X26684335Y26200000D01*
X26401665Y26200000D01*
X26124426Y26144853D01*
X25863273Y26036680D01*
X25628241Y25879637D01*
X25428363Y25679759D01*
X25271320Y25444727D01*
X25163147Y25183574D01*
X25108000Y24906335D01*
X20358000Y24906335D01*
X20302853Y25183574D01*
X20194680Y25444727D01*
X20037637Y25679759D01*
X19837759Y25879637D01*
X19602727Y26036680D01*
X19341574Y26144853D01*
X19064335Y26200000D01*
X18781665Y26200000D01*
X18504426Y26144853D01*
X18243273Y26036680D01*
X18038716Y25900000D01*
X15499396Y25900000D01*
X15392759Y26006637D01*
X15157727Y26163680D01*
X14896574Y26271853D01*
X14619335Y26327000D01*
X14336665Y26327000D01*
X14059426Y26271853D01*
X13798273Y26163680D01*
X13563241Y26006637D01*
X13363363Y25806759D01*
X13206320Y25571727D01*
X13098147Y25310574D01*
X13043000Y25033335D01*
X685000Y25033335D01*
X685000Y28159089D01*
X40721000Y28159089D01*
X40721000Y27974911D01*
X40756932Y27794271D01*
X40827414Y27624111D01*
X40929738Y27470972D01*
X41059972Y27340738D01*
X41213111Y27238414D01*
X41383271Y27167932D01*
X41563911Y27132000D01*
X41748089Y27132000D01*
X41928729Y27167932D01*
X42098889Y27238414D01*
X42201535Y27307000D01*
X46063678Y27307000D01*
X46101000Y27303324D01*
X46138322Y27307000D01*
X46138333Y27307000D01*
X46249986Y27317997D01*
X46393247Y27361454D01*
X46525276Y27432026D01*
X46641001Y27526999D01*
X46664803Y27556002D01*
X47301114Y28192312D01*
X47483665Y28156000D01*
X47766335Y28156000D01*
X48043574Y28211147D01*
X48304727Y28319320D01*
X48539759Y28476363D01*
X48739637Y28676241D01*
X48895000Y28908759D01*
X49050363Y28676241D01*
X49250241Y28476363D01*
X49485273Y28319320D01*
X49746426Y28211147D01*
X50023665Y28156000D01*
X50306335Y28156000D01*
X50583574Y28211147D01*
X50844727Y28319320D01*
X51079759Y28476363D01*
X51279637Y28676241D01*
X51435000Y28908759D01*
X51590363Y28676241D01*
X51790241Y28476363D01*
X52025273Y28319320D01*
X52286426Y28211147D01*
X52563665Y28156000D01*
X52846335Y28156000D01*
X53123574Y28211147D01*
X53384727Y28319320D01*
X53619759Y28476363D01*
X53819637Y28676241D01*
X53975000Y28908759D01*
X54130363Y28676241D01*
X54330241Y28476363D01*
X54565273Y28319320D01*
X54826426Y28211147D01*
X55103665Y28156000D01*
X55386335Y28156000D01*
X55663574Y28211147D01*
X55924727Y28319320D01*
X56159759Y28476363D01*
X56359637Y28676241D01*
X56515000Y28908759D01*
X56670363Y28676241D01*
X56870241Y28476363D01*
X57105273Y28319320D01*
X57366426Y28211147D01*
X57643665Y28156000D01*
X57926335Y28156000D01*
X58203574Y28211147D01*
X58464727Y28319320D01*
X58699759Y28476363D01*
X58899637Y28676241D01*
X59055000Y28908759D01*
X59210363Y28676241D01*
X59410241Y28476363D01*
X59645273Y28319320D01*
X59906426Y28211147D01*
X60183665Y28156000D01*
X60466335Y28156000D01*
X60743574Y28211147D01*
X61004727Y28319320D01*
X61239759Y28476363D01*
X61439637Y28676241D01*
X61595000Y28908759D01*
X61750363Y28676241D01*
X61950241Y28476363D01*
X62185273Y28319320D01*
X62446426Y28211147D01*
X62723665Y28156000D01*
X63006335Y28156000D01*
X63283574Y28211147D01*
X63544727Y28319320D01*
X63779759Y28476363D01*
X63979637Y28676241D01*
X64135000Y28908759D01*
X64290363Y28676241D01*
X64490241Y28476363D01*
X64725273Y28319320D01*
X64986426Y28211147D01*
X65263665Y28156000D01*
X65546335Y28156000D01*
X65823574Y28211147D01*
X66084727Y28319320D01*
X66319759Y28476363D01*
X66519637Y28676241D01*
X66675000Y28908759D01*
X66830363Y28676241D01*
X67030241Y28476363D01*
X67265273Y28319320D01*
X67526426Y28211147D01*
X67803665Y28156000D01*
X68086335Y28156000D01*
X68363574Y28211147D01*
X68624727Y28319320D01*
X68859759Y28476363D01*
X69059637Y28676241D01*
X69215000Y28908759D01*
X69370363Y28676241D01*
X69570241Y28476363D01*
X69805273Y28319320D01*
X70066426Y28211147D01*
X70343665Y28156000D01*
X70626335Y28156000D01*
X70903574Y28211147D01*
X71164727Y28319320D01*
X71399759Y28476363D01*
X71599637Y28676241D01*
X71756680Y28911273D01*
X71761067Y28921865D01*
X71872615Y28735869D01*
X72061586Y28527481D01*
X72287580Y28359963D01*
X72541913Y28239754D01*
X72675961Y28199096D01*
X72898000Y28321085D01*
X72898000Y29464000D01*
X72878000Y29464000D01*
X72878000Y29718000D01*
X72898000Y29718000D01*
X72898000Y30860915D01*
X73152000Y30860915D01*
X73152000Y29718000D01*
X73172000Y29718000D01*
X73172000Y29464000D01*
X73152000Y29464000D01*
X73152000Y28321085D01*
X73374039Y28199096D01*
X73508087Y28239754D01*
X73762420Y28359963D01*
X73988414Y28527481D01*
X74177385Y28735869D01*
X74288933Y28921865D01*
X74293320Y28911273D01*
X74450363Y28676241D01*
X74650241Y28476363D01*
X74885273Y28319320D01*
X75146426Y28211147D01*
X75423665Y28156000D01*
X75706335Y28156000D01*
X75983574Y28211147D01*
X76244727Y28319320D01*
X76479759Y28476363D01*
X76679637Y28676241D01*
X76836680Y28911273D01*
X76944853Y29172426D01*
X77000000Y29449665D01*
X77000000Y29732335D01*
X76944853Y30009574D01*
X76836680Y30270727D01*
X76700000Y30475284D01*
X76700000Y31817786D01*
X76709680Y31832273D01*
X76817853Y32093426D01*
X76873000Y32370665D01*
X76873000Y32653335D01*
X76817853Y32930574D01*
X76709680Y33191727D01*
X76552637Y33426759D01*
X76352759Y33626637D01*
X76117727Y33783680D01*
X75856574Y33891853D01*
X75579335Y33947000D01*
X75296665Y33947000D01*
X75019426Y33891853D01*
X74758273Y33783680D01*
X74523241Y33626637D01*
X74323363Y33426759D01*
X74166320Y33191727D01*
X74058147Y32930574D01*
X74003000Y32653335D01*
X74003000Y32370665D01*
X74058147Y32093426D01*
X74166320Y31832273D01*
X74323363Y31597241D01*
X74430000Y31490604D01*
X74430001Y30475285D01*
X74293320Y30270727D01*
X74288933Y30260135D01*
X74177385Y30446131D01*
X73988414Y30654519D01*
X73762420Y30822037D01*
X73508087Y30942246D01*
X73374039Y30982904D01*
X73152000Y30860915D01*
X72898000Y30860915D01*
X72675961Y30982904D01*
X72541913Y30942246D01*
X72287580Y30822037D01*
X72061586Y30654519D01*
X71872615Y30446131D01*
X71761067Y30260135D01*
X71756680Y30270727D01*
X71599637Y30505759D01*
X71399759Y30705637D01*
X71164727Y30862680D01*
X70903574Y30970853D01*
X70626335Y31026000D01*
X70343665Y31026000D01*
X70066426Y30970853D01*
X69805273Y30862680D01*
X69570241Y30705637D01*
X69370363Y30505759D01*
X69215000Y30273241D01*
X69059637Y30505759D01*
X68859759Y30705637D01*
X68624727Y30862680D01*
X68363574Y30970853D01*
X68086335Y31026000D01*
X67803665Y31026000D01*
X67526426Y30970853D01*
X67265273Y30862680D01*
X67030241Y30705637D01*
X66830363Y30505759D01*
X66675000Y30273241D01*
X66519637Y30505759D01*
X66319759Y30705637D01*
X66084727Y30862680D01*
X65823574Y30970853D01*
X65546335Y31026000D01*
X65263665Y31026000D01*
X64986426Y30970853D01*
X64725273Y30862680D01*
X64490241Y30705637D01*
X64290363Y30505759D01*
X64135000Y30273241D01*
X63979637Y30505759D01*
X63779759Y30705637D01*
X63544727Y30862680D01*
X63283574Y30970853D01*
X63006335Y31026000D01*
X62723665Y31026000D01*
X62446426Y30970853D01*
X62185273Y30862680D01*
X61950241Y30705637D01*
X61750363Y30505759D01*
X61595000Y30273241D01*
X61439637Y30505759D01*
X61239759Y30705637D01*
X61004727Y30862680D01*
X60743574Y30970853D01*
X60466335Y31026000D01*
X60183665Y31026000D01*
X59906426Y30970853D01*
X59645273Y30862680D01*
X59410241Y30705637D01*
X59210363Y30505759D01*
X59055000Y30273241D01*
X58899637Y30505759D01*
X58699759Y30705637D01*
X58464727Y30862680D01*
X58203574Y30970853D01*
X57926335Y31026000D01*
X57643665Y31026000D01*
X57366426Y30970853D01*
X57105273Y30862680D01*
X56870241Y30705637D01*
X56670363Y30505759D01*
X56515000Y30273241D01*
X56359637Y30505759D01*
X56159759Y30705637D01*
X55924727Y30862680D01*
X55663574Y30970853D01*
X55386335Y31026000D01*
X55103665Y31026000D01*
X54826426Y30970853D01*
X54565273Y30862680D01*
X54330241Y30705637D01*
X54130363Y30505759D01*
X53975000Y30273241D01*
X53819637Y30505759D01*
X53619759Y30705637D01*
X53384727Y30862680D01*
X53123574Y30970853D01*
X52846335Y31026000D01*
X52563665Y31026000D01*
X52286426Y30970853D01*
X52025273Y30862680D01*
X51790241Y30705637D01*
X51590363Y30505759D01*
X51435000Y30273241D01*
X51279637Y30505759D01*
X51079759Y30705637D01*
X50844727Y30862680D01*
X50583574Y30970853D01*
X50306335Y31026000D01*
X50023665Y31026000D01*
X49746426Y30970853D01*
X49485273Y30862680D01*
X49250241Y30705637D01*
X49050363Y30505759D01*
X48895000Y30273241D01*
X48739637Y30505759D01*
X48539759Y30705637D01*
X48304727Y30862680D01*
X48043574Y30970853D01*
X47766335Y31026000D01*
X47483665Y31026000D01*
X47206426Y30970853D01*
X46945273Y30862680D01*
X46710241Y30705637D01*
X46510363Y30505759D01*
X46355000Y30273241D01*
X46199637Y30505759D01*
X45999759Y30705637D01*
X45764727Y30862680D01*
X45503574Y30970853D01*
X45226335Y31026000D01*
X44943665Y31026000D01*
X44666426Y30970853D01*
X44405273Y30862680D01*
X44170241Y30705637D01*
X43970363Y30505759D01*
X43815000Y30273241D01*
X43659637Y30505759D01*
X43459759Y30705637D01*
X43224727Y30862680D01*
X42963574Y30970853D01*
X42686335Y31026000D01*
X42403665Y31026000D01*
X42126426Y30970853D01*
X41865273Y30862680D01*
X41630241Y30705637D01*
X41430363Y30505759D01*
X41273320Y30270727D01*
X41165147Y30009574D01*
X41110000Y29732335D01*
X41110000Y29449665D01*
X41165147Y29172426D01*
X41270049Y28919170D01*
X41213111Y28895586D01*
X41059972Y28793262D01*
X40929738Y28663028D01*
X40827414Y28509889D01*
X40756932Y28339729D01*
X40721000Y28159089D01*
X685000Y28159089D01*
X685000Y31519298D01*
X69624903Y31519298D01*
X69696486Y31275329D01*
X69951996Y31154429D01*
X70226184Y31085700D01*
X70508512Y31071783D01*
X70788130Y31113213D01*
X71054292Y31208397D01*
X71179514Y31275329D01*
X71251097Y31519298D01*
X70438000Y32332395D01*
X69624903Y31519298D01*
X685000Y31519298D01*
X685000Y32441488D01*
X68997783Y32441488D01*
X69039213Y32161870D01*
X69134397Y31895708D01*
X69201329Y31770486D01*
X69445298Y31698903D01*
X70258395Y32512000D01*
X70617605Y32512000D01*
X71430702Y31698903D01*
X71674671Y31770486D01*
X71795571Y32025996D01*
X71864300Y32300184D01*
X71878217Y32582512D01*
X71836787Y32862130D01*
X71741603Y33128292D01*
X71674671Y33253514D01*
X71430702Y33325097D01*
X70617605Y32512000D01*
X70258395Y32512000D01*
X69445298Y33325097D01*
X69201329Y33253514D01*
X69080429Y32998004D01*
X69011700Y32723816D01*
X68997783Y32441488D01*
X685000Y32441488D01*
X685000Y33504702D01*
X69624903Y33504702D01*
X70438000Y32691605D01*
X71251097Y33504702D01*
X71179514Y33748671D01*
X70924004Y33869571D01*
X70649816Y33938300D01*
X70367488Y33952217D01*
X70087870Y33910787D01*
X69821708Y33815603D01*
X69696486Y33748671D01*
X69624903Y33504702D01*
X685000Y33504702D01*
X685000Y36453486D01*
X69023000Y36453486D01*
X69023000Y36190514D01*
X69074304Y35932595D01*
X69174939Y35689641D01*
X69321038Y35470987D01*
X69506987Y35285038D01*
X69725641Y35138939D01*
X69968595Y35038304D01*
X70226514Y34987000D01*
X70489486Y34987000D01*
X70747405Y35038304D01*
X70990359Y35138939D01*
X71209013Y35285038D01*
X71324706Y35400731D01*
X74696336Y35400731D01*
X74755797Y35166963D01*
X74994242Y35056066D01*
X75249740Y34993817D01*
X75512473Y34982610D01*
X75772344Y35022875D01*
X76019366Y35113065D01*
X76120203Y35166963D01*
X76179664Y35400731D01*
X75438000Y36142395D01*
X74696336Y35400731D01*
X71324706Y35400731D01*
X71394962Y35470987D01*
X71541061Y35689641D01*
X71641696Y35932595D01*
X71693000Y36190514D01*
X71693000Y36247527D01*
X74098610Y36247527D01*
X74138875Y35987656D01*
X74229065Y35740634D01*
X74282963Y35639797D01*
X74516731Y35580336D01*
X75258395Y36322000D01*
X75617605Y36322000D01*
X76359269Y35580336D01*
X76593037Y35639797D01*
X76703934Y35878242D01*
X76766183Y36133740D01*
X76777390Y36396473D01*
X76737125Y36656344D01*
X76646935Y36903366D01*
X76593037Y37004203D01*
X76359269Y37063664D01*
X75617605Y36322000D01*
X75258395Y36322000D01*
X74516731Y37063664D01*
X74282963Y37004203D01*
X74172066Y36765758D01*
X74109817Y36510260D01*
X74098610Y36247527D01*
X71693000Y36247527D01*
X71693000Y36453486D01*
X71641696Y36711405D01*
X71541061Y36954359D01*
X71394962Y37173013D01*
X71324706Y37243269D01*
X74696336Y37243269D01*
X75438000Y36501605D01*
X76179664Y37243269D01*
X76120203Y37477037D01*
X75881758Y37587934D01*
X75626260Y37650183D01*
X75363527Y37661390D01*
X75103656Y37621125D01*
X74856634Y37530935D01*
X74755797Y37477037D01*
X74696336Y37243269D01*
X71324706Y37243269D01*
X71209013Y37358962D01*
X70990359Y37505061D01*
X70747405Y37605696D01*
X70489486Y37657000D01*
X70226514Y37657000D01*
X69968595Y37605696D01*
X69725641Y37505061D01*
X69506987Y37358962D01*
X69321038Y37173013D01*
X69174939Y36954359D01*
X69074304Y36711405D01*
X69023000Y36453486D01*
X685000Y36453486D01*
X685000Y38739486D01*
X9587000Y38739486D01*
X9587000Y38476514D01*
X9638304Y38218595D01*
X9738939Y37975641D01*
X9885038Y37756987D01*
X10070987Y37571038D01*
X10289641Y37424939D01*
X10532595Y37324304D01*
X10790514Y37273000D01*
X11053486Y37273000D01*
X11311405Y37324304D01*
X11554359Y37424939D01*
X11773013Y37571038D01*
X11888706Y37686731D01*
X15260336Y37686731D01*
X15319797Y37452963D01*
X15558242Y37342066D01*
X15813740Y37279817D01*
X16076473Y37268610D01*
X16336344Y37308875D01*
X16583366Y37399065D01*
X16684203Y37452963D01*
X16743664Y37686731D01*
X16002000Y38428395D01*
X15260336Y37686731D01*
X11888706Y37686731D01*
X11958962Y37756987D01*
X12105061Y37975641D01*
X12205696Y38218595D01*
X12257000Y38476514D01*
X12257000Y38533527D01*
X14662610Y38533527D01*
X14702875Y38273656D01*
X14793065Y38026634D01*
X14846963Y37925797D01*
X15080731Y37866336D01*
X15822395Y38608000D01*
X16181605Y38608000D01*
X16923269Y37866336D01*
X17157037Y37925797D01*
X17267934Y38164242D01*
X17330183Y38419740D01*
X17341390Y38682473D01*
X17332557Y38739486D01*
X17461000Y38739486D01*
X17461000Y38476514D01*
X17512304Y38218595D01*
X17612939Y37975641D01*
X17759038Y37756987D01*
X17944987Y37571038D01*
X18163641Y37424939D01*
X18406595Y37324304D01*
X18664514Y37273000D01*
X18927486Y37273000D01*
X19185405Y37324304D01*
X19428359Y37424939D01*
X19647013Y37571038D01*
X19762706Y37686731D01*
X23134336Y37686731D01*
X23193797Y37452963D01*
X23432242Y37342066D01*
X23687740Y37279817D01*
X23950473Y37268610D01*
X24210344Y37308875D01*
X24457366Y37399065D01*
X24558203Y37452963D01*
X24617664Y37686731D01*
X23876000Y38428395D01*
X23134336Y37686731D01*
X19762706Y37686731D01*
X19832962Y37756987D01*
X19979061Y37975641D01*
X20079696Y38218595D01*
X20131000Y38476514D01*
X20131000Y38533527D01*
X22536610Y38533527D01*
X22576875Y38273656D01*
X22667065Y38026634D01*
X22720963Y37925797D01*
X22954731Y37866336D01*
X23696395Y38608000D01*
X24055605Y38608000D01*
X24797269Y37866336D01*
X25031037Y37925797D01*
X25141934Y38164242D01*
X25204183Y38419740D01*
X25215390Y38682473D01*
X25175125Y38942344D01*
X25084935Y39189366D01*
X25031037Y39290203D01*
X24797269Y39349664D01*
X24055605Y38608000D01*
X23696395Y38608000D01*
X22954731Y39349664D01*
X22720963Y39290203D01*
X22610066Y39051758D01*
X22547817Y38796260D01*
X22536610Y38533527D01*
X20131000Y38533527D01*
X20131000Y38739486D01*
X20079696Y38997405D01*
X19979061Y39240359D01*
X19832962Y39459013D01*
X19762706Y39529269D01*
X23134336Y39529269D01*
X23876000Y38787605D01*
X24617664Y39529269D01*
X24558203Y39763037D01*
X24319758Y39873934D01*
X24064260Y39936183D01*
X23801527Y39947390D01*
X23541656Y39907125D01*
X23294634Y39816935D01*
X23193797Y39763037D01*
X23134336Y39529269D01*
X19762706Y39529269D01*
X19647013Y39644962D01*
X19428359Y39791061D01*
X19185405Y39891696D01*
X18927486Y39943000D01*
X18664514Y39943000D01*
X18406595Y39891696D01*
X18163641Y39791061D01*
X17944987Y39644962D01*
X17759038Y39459013D01*
X17612939Y39240359D01*
X17512304Y38997405D01*
X17461000Y38739486D01*
X17332557Y38739486D01*
X17301125Y38942344D01*
X17210935Y39189366D01*
X17157037Y39290203D01*
X16923269Y39349664D01*
X16181605Y38608000D01*
X15822395Y38608000D01*
X15080731Y39349664D01*
X14846963Y39290203D01*
X14736066Y39051758D01*
X14673817Y38796260D01*
X14662610Y38533527D01*
X12257000Y38533527D01*
X12257000Y38739486D01*
X12205696Y38997405D01*
X12105061Y39240359D01*
X11958962Y39459013D01*
X11888706Y39529269D01*
X15260336Y39529269D01*
X16002000Y38787605D01*
X16743664Y39529269D01*
X16684203Y39763037D01*
X16445758Y39873934D01*
X16190260Y39936183D01*
X15927527Y39947390D01*
X15667656Y39907125D01*
X15420634Y39816935D01*
X15319797Y39763037D01*
X15260336Y39529269D01*
X11888706Y39529269D01*
X11773013Y39644962D01*
X11554359Y39791061D01*
X11311405Y39891696D01*
X11053486Y39943000D01*
X10790514Y39943000D01*
X10532595Y39891696D01*
X10289641Y39791061D01*
X10070987Y39644962D01*
X9885038Y39459013D01*
X9738939Y39240359D01*
X9638304Y38997405D01*
X9587000Y38739486D01*
X685000Y38739486D01*
X685000Y40156110D01*
X37928524Y40156110D01*
X37973175Y40008901D01*
X38098359Y39746080D01*
X38272412Y39512731D01*
X38488645Y39317822D01*
X38738748Y39168843D01*
X39013109Y39071519D01*
X39243000Y39192186D01*
X39243000Y40386000D01*
X39497000Y40386000D01*
X39497000Y39192186D01*
X39726891Y39071519D01*
X40001252Y39168843D01*
X40251355Y39317822D01*
X40467588Y39512731D01*
X40641641Y39746080D01*
X40766825Y40008901D01*
X40811476Y40156110D01*
X40690155Y40386000D01*
X39497000Y40386000D01*
X39243000Y40386000D01*
X38049845Y40386000D01*
X37928524Y40156110D01*
X685000Y40156110D01*
X685000Y47903184D01*
X10911000Y47903184D01*
X10911000Y47600816D01*
X10969989Y47304257D01*
X11085701Y47024905D01*
X11253688Y46773495D01*
X11467495Y46559688D01*
X11718905Y46391701D01*
X11998257Y46275989D01*
X12294816Y46217000D01*
X12597184Y46217000D01*
X12893743Y46275989D01*
X13173095Y46391701D01*
X13424505Y46559688D01*
X13490944Y46626127D01*
X13496498Y46607820D01*
X13555463Y46497506D01*
X13634815Y46400815D01*
X13731506Y46321463D01*
X13841820Y46262498D01*
X13961518Y46226188D01*
X14086000Y46213928D01*
X15886000Y46213928D01*
X16010482Y46226188D01*
X16130180Y46262498D01*
X16240494Y46321463D01*
X16337185Y46400815D01*
X16416537Y46497506D01*
X16475502Y46607820D01*
X16511812Y46727518D01*
X16524072Y46852000D01*
X16524072Y47903184D01*
X18785000Y47903184D01*
X18785000Y47600816D01*
X18843989Y47304257D01*
X18959701Y47024905D01*
X19127688Y46773495D01*
X19341495Y46559688D01*
X19592905Y46391701D01*
X19872257Y46275989D01*
X20168816Y46217000D01*
X20471184Y46217000D01*
X20767743Y46275989D01*
X21047095Y46391701D01*
X21298505Y46559688D01*
X21364944Y46626127D01*
X21370498Y46607820D01*
X21429463Y46497506D01*
X21508815Y46400815D01*
X21605506Y46321463D01*
X21715820Y46262498D01*
X21835518Y46226188D01*
X21960000Y46213928D01*
X23760000Y46213928D01*
X23884482Y46226188D01*
X24004180Y46262498D01*
X24114494Y46321463D01*
X24211185Y46400815D01*
X24290537Y46497506D01*
X24349502Y46607820D01*
X24385812Y46727518D01*
X24398072Y46852000D01*
X24398072Y48652000D01*
X24385812Y48776482D01*
X24349502Y48896180D01*
X24290537Y49006494D01*
X24211185Y49103185D01*
X24114494Y49182537D01*
X24004180Y49241502D01*
X23884482Y49277812D01*
X23760000Y49290072D01*
X21960000Y49290072D01*
X21835518Y49277812D01*
X21715820Y49241502D01*
X21605506Y49182537D01*
X21508815Y49103185D01*
X21429463Y49006494D01*
X21370498Y48896180D01*
X21364944Y48877873D01*
X21298505Y48944312D01*
X21047095Y49112299D01*
X20767743Y49228011D01*
X20471184Y49287000D01*
X20168816Y49287000D01*
X19872257Y49228011D01*
X19592905Y49112299D01*
X19341495Y48944312D01*
X19127688Y48730505D01*
X18959701Y48479095D01*
X18843989Y48199743D01*
X18785000Y47903184D01*
X16524072Y47903184D01*
X16524072Y48652000D01*
X16511812Y48776482D01*
X16475502Y48896180D01*
X16416537Y49006494D01*
X16337185Y49103185D01*
X16240494Y49182537D01*
X16130180Y49241502D01*
X16010482Y49277812D01*
X15886000Y49290072D01*
X14086000Y49290072D01*
X13961518Y49277812D01*
X13841820Y49241502D01*
X13731506Y49182537D01*
X13634815Y49103185D01*
X13555463Y49006494D01*
X13496498Y48896180D01*
X13490944Y48877873D01*
X13424505Y48944312D01*
X13173095Y49112299D01*
X12893743Y49228011D01*
X12597184Y49287000D01*
X12294816Y49287000D01*
X11998257Y49228011D01*
X11718905Y49112299D01*
X11467495Y48944312D01*
X11253688Y48730505D01*
X11085701Y48479095D01*
X10969989Y48199743D01*
X10911000Y47903184D01*
X685000Y47903184D01*
X685000Y54063000D01*
X37881928Y54063000D01*
X37881928Y52363000D01*
X37894188Y52238518D01*
X37930498Y52118820D01*
X37989463Y52008506D01*
X38068815Y51911815D01*
X38165506Y51832463D01*
X38275820Y51773498D01*
X38348380Y51751487D01*
X38216525Y51619632D01*
X38054010Y51376411D01*
X37942068Y51106158D01*
X37885000Y50819260D01*
X37885000Y50526740D01*
X37942068Y50239842D01*
X38054010Y49969589D01*
X38216525Y49726368D01*
X38423368Y49519525D01*
X38597760Y49403000D01*
X38423368Y49286475D01*
X38216525Y49079632D01*
X38054010Y48836411D01*
X37942068Y48566158D01*
X37885000Y48279260D01*
X37885000Y47986740D01*
X37942068Y47699842D01*
X38054010Y47429589D01*
X38216525Y47186368D01*
X38423368Y46979525D01*
X38597760Y46863000D01*
X38423368Y46746475D01*
X38216525Y46539632D01*
X38054010Y46296411D01*
X37942068Y46026158D01*
X37885000Y45739260D01*
X37885000Y45446740D01*
X37942068Y45159842D01*
X38054010Y44889589D01*
X38216525Y44646368D01*
X38423368Y44439525D01*
X38597760Y44323000D01*
X38423368Y44206475D01*
X38216525Y43999632D01*
X38054010Y43756411D01*
X37942068Y43486158D01*
X37885000Y43199260D01*
X37885000Y42906740D01*
X37942068Y42619842D01*
X38054010Y42349589D01*
X38216525Y42106368D01*
X38423368Y41899525D01*
X38605534Y41777805D01*
X38488645Y41708178D01*
X38272412Y41513269D01*
X38098359Y41279920D01*
X37973175Y41017099D01*
X37928524Y40869890D01*
X38049845Y40640000D01*
X39243000Y40640000D01*
X39243000Y40660000D01*
X39497000Y40660000D01*
X39497000Y40640000D01*
X40690155Y40640000D01*
X40811476Y40869890D01*
X40766825Y41017099D01*
X40641641Y41279920D01*
X40467588Y41513269D01*
X40251355Y41708178D01*
X40134466Y41777805D01*
X40316632Y41899525D01*
X40523475Y42106368D01*
X40685990Y42349589D01*
X40797932Y42619842D01*
X40855000Y42906740D01*
X40855000Y43199260D01*
X40797932Y43486158D01*
X40685990Y43756411D01*
X40523475Y43999632D01*
X40316632Y44206475D01*
X40142240Y44323000D01*
X40316632Y44439525D01*
X40523475Y44646368D01*
X40685990Y44889589D01*
X40797932Y45159842D01*
X40855000Y45446740D01*
X40855000Y45739260D01*
X40797932Y46026158D01*
X40685990Y46296411D01*
X40523475Y46539632D01*
X40316632Y46746475D01*
X40142240Y46863000D01*
X40316632Y46979525D01*
X40523475Y47186368D01*
X40648178Y47373000D01*
X45809465Y47373000D01*
X45912111Y47304414D01*
X46082271Y47233932D01*
X46262911Y47198000D01*
X46447089Y47198000D01*
X46627729Y47233932D01*
X46797889Y47304414D01*
X46951028Y47406738D01*
X47081262Y47536972D01*
X47183586Y47690111D01*
X47254068Y47860271D01*
X47290000Y48040911D01*
X47290000Y48225089D01*
X47254068Y48405729D01*
X47183586Y48575889D01*
X47081262Y48729028D01*
X46951028Y48859262D01*
X46797889Y48961586D01*
X46627729Y49032068D01*
X46447089Y49068000D01*
X46262911Y49068000D01*
X46082271Y49032068D01*
X45912111Y48961586D01*
X45809465Y48893000D01*
X40648178Y48893000D01*
X40523475Y49079632D01*
X40316632Y49286475D01*
X40263252Y49322142D01*
X40297246Y49332454D01*
X40429276Y49403026D01*
X40545001Y49497999D01*
X40639974Y49613724D01*
X40710546Y49745754D01*
X40754003Y49889014D01*
X40768677Y50038000D01*
X40758236Y50144007D01*
X40797932Y50239842D01*
X40855000Y50526740D01*
X40855000Y50819260D01*
X40797932Y51106158D01*
X40685990Y51376411D01*
X40523475Y51619632D01*
X40391620Y51751487D01*
X40464180Y51773498D01*
X40574494Y51832463D01*
X40671185Y51911815D01*
X40750537Y52008506D01*
X40809502Y52118820D01*
X40845812Y52238518D01*
X40858072Y52363000D01*
X40858072Y54063000D01*
X40845812Y54187482D01*
X40809502Y54307180D01*
X40750537Y54417494D01*
X40671185Y54514185D01*
X40574494Y54593537D01*
X40464180Y54652502D01*
X40344482Y54688812D01*
X40220000Y54701072D01*
X38520000Y54701072D01*
X38395518Y54688812D01*
X38275820Y54652502D01*
X38165506Y54593537D01*
X38068815Y54514185D01*
X37989463Y54417494D01*
X37930498Y54307180D01*
X37894188Y54187482D01*
X37881928Y54063000D01*
X685000Y54063000D01*
X685000Y57945647D01*
X675711Y58039956D01*
X691653Y58202542D01*
X776031Y58482018D01*
X913085Y58739780D01*
X1097599Y58966015D01*
X1322540Y59152103D01*
X1579342Y59290956D01*
X1858219Y59377282D01*
X2030268Y59395365D01*
X2125353Y59386000D01*
%TA.AperFunction,Conductor*%
D23*
G36*
X2125353Y59386000D02*
G01*
X78646647Y59386000D01*
X78740956Y59395289D01*
X78903542Y59379347D01*
X79183018Y59294969D01*
X79440780Y59157915D01*
X79667015Y58973401D01*
X79853103Y58748460D01*
X79991956Y58491658D01*
X80078282Y58212781D01*
X80096365Y58040731D01*
X80087000Y57945646D01*
X80087001Y685000D01*
X14218381Y685000D01*
X8153121Y6750260D01*
X15787000Y6750260D01*
X15787000Y6457740D01*
X15844068Y6170842D01*
X15956010Y5900589D01*
X16118525Y5657368D01*
X16325368Y5450525D01*
X16499760Y5334000D01*
X16325368Y5217475D01*
X16118525Y5010632D01*
X15956010Y4767411D01*
X15844068Y4497158D01*
X15787000Y4210260D01*
X15787000Y3917740D01*
X15844068Y3630842D01*
X15956010Y3360589D01*
X16118525Y3117368D01*
X16325368Y2910525D01*
X16568589Y2748010D01*
X16838842Y2636068D01*
X17125740Y2579000D01*
X17418260Y2579000D01*
X17705158Y2636068D01*
X17975411Y2748010D01*
X18218632Y2910525D01*
X18425475Y3117368D01*
X18542000Y3291760D01*
X18658525Y3117368D01*
X18865368Y2910525D01*
X19108589Y2748010D01*
X19378842Y2636068D01*
X19665740Y2579000D01*
X19958260Y2579000D01*
X20245158Y2636068D01*
X20515411Y2748010D01*
X20758632Y2910525D01*
X20965475Y3117368D01*
X21082000Y3291760D01*
X21198525Y3117368D01*
X21405368Y2910525D01*
X21648589Y2748010D01*
X21918842Y2636068D01*
X22205740Y2579000D01*
X22498260Y2579000D01*
X22785158Y2636068D01*
X23055411Y2748010D01*
X23298632Y2910525D01*
X23505475Y3117368D01*
X23622000Y3291760D01*
X23738525Y3117368D01*
X23945368Y2910525D01*
X24188589Y2748010D01*
X24458842Y2636068D01*
X24745740Y2579000D01*
X25038260Y2579000D01*
X25325158Y2636068D01*
X25595411Y2748010D01*
X25838632Y2910525D01*
X26045475Y3117368D01*
X26162000Y3291760D01*
X26278525Y3117368D01*
X26485368Y2910525D01*
X26728589Y2748010D01*
X26998842Y2636068D01*
X27285740Y2579000D01*
X27578260Y2579000D01*
X27865158Y2636068D01*
X28135411Y2748010D01*
X28378632Y2910525D01*
X28585475Y3117368D01*
X28702000Y3291760D01*
X28818525Y3117368D01*
X29025368Y2910525D01*
X29268589Y2748010D01*
X29538842Y2636068D01*
X29825740Y2579000D01*
X30118260Y2579000D01*
X30405158Y2636068D01*
X30675411Y2748010D01*
X30918632Y2910525D01*
X31125475Y3117368D01*
X31242000Y3291760D01*
X31358525Y3117368D01*
X31565368Y2910525D01*
X31808589Y2748010D01*
X32078842Y2636068D01*
X32365740Y2579000D01*
X32658260Y2579000D01*
X32945158Y2636068D01*
X33215411Y2748010D01*
X33458632Y2910525D01*
X33665475Y3117368D01*
X33782000Y3291760D01*
X33898525Y3117368D01*
X34105368Y2910525D01*
X34348589Y2748010D01*
X34618842Y2636068D01*
X34905740Y2579000D01*
X35198260Y2579000D01*
X35485158Y2636068D01*
X35755411Y2748010D01*
X35998632Y2910525D01*
X36205475Y3117368D01*
X36322000Y3291760D01*
X36438525Y3117368D01*
X36645368Y2910525D01*
X36888589Y2748010D01*
X37158842Y2636068D01*
X37445740Y2579000D01*
X37738260Y2579000D01*
X38025158Y2636068D01*
X38295411Y2748010D01*
X38538632Y2910525D01*
X38745475Y3117368D01*
X38862000Y3291760D01*
X38978525Y3117368D01*
X39185368Y2910525D01*
X39428589Y2748010D01*
X39698842Y2636068D01*
X39985740Y2579000D01*
X40278260Y2579000D01*
X40565158Y2636068D01*
X40835411Y2748010D01*
X41078632Y2910525D01*
X41285475Y3117368D01*
X41402000Y3291760D01*
X41518525Y3117368D01*
X41725368Y2910525D01*
X41968589Y2748010D01*
X42238842Y2636068D01*
X42525740Y2579000D01*
X42818260Y2579000D01*
X43105158Y2636068D01*
X43375411Y2748010D01*
X43618632Y2910525D01*
X43825475Y3117368D01*
X43942000Y3291760D01*
X44058525Y3117368D01*
X44265368Y2910525D01*
X44508589Y2748010D01*
X44778842Y2636068D01*
X45065740Y2579000D01*
X45358260Y2579000D01*
X45645158Y2636068D01*
X45915411Y2748010D01*
X46158632Y2910525D01*
X46365475Y3117368D01*
X46487195Y3299534D01*
X46556822Y3182645D01*
X46751731Y2966412D01*
X46985080Y2792359D01*
X47247901Y2667175D01*
X47395110Y2622524D01*
X47625000Y2743845D01*
X47625000Y3937000D01*
X47605000Y3937000D01*
X47605000Y4191000D01*
X47625000Y4191000D01*
X47625000Y4211000D01*
X47879000Y4211000D01*
X47879000Y4191000D01*
X47899000Y4191000D01*
X47899000Y3937000D01*
X47879000Y3937000D01*
X47879000Y2743845D01*
X48108890Y2622524D01*
X48256099Y2667175D01*
X48518920Y2792359D01*
X48752269Y2966412D01*
X48947178Y3182645D01*
X49016805Y3299534D01*
X49138525Y3117368D01*
X49345368Y2910525D01*
X49588589Y2748010D01*
X49858842Y2636068D01*
X50145740Y2579000D01*
X50438260Y2579000D01*
X50725158Y2636068D01*
X50995411Y2748010D01*
X51238632Y2910525D01*
X51445475Y3117368D01*
X51562000Y3291760D01*
X51678525Y3117368D01*
X51885368Y2910525D01*
X52128589Y2748010D01*
X52398842Y2636068D01*
X52685740Y2579000D01*
X52978260Y2579000D01*
X53265158Y2636068D01*
X53535411Y2748010D01*
X53778632Y2910525D01*
X53985475Y3117368D01*
X54102000Y3291760D01*
X54218525Y3117368D01*
X54425368Y2910525D01*
X54668589Y2748010D01*
X54938842Y2636068D01*
X55225740Y2579000D01*
X55518260Y2579000D01*
X55805158Y2636068D01*
X56075411Y2748010D01*
X56318632Y2910525D01*
X56525475Y3117368D01*
X56642000Y3291760D01*
X56758525Y3117368D01*
X56965368Y2910525D01*
X57208589Y2748010D01*
X57478842Y2636068D01*
X57765740Y2579000D01*
X58058260Y2579000D01*
X58345158Y2636068D01*
X58615411Y2748010D01*
X58858632Y2910525D01*
X59065475Y3117368D01*
X59182000Y3291760D01*
X59298525Y3117368D01*
X59505368Y2910525D01*
X59748589Y2748010D01*
X60018842Y2636068D01*
X60305740Y2579000D01*
X60598260Y2579000D01*
X60885158Y2636068D01*
X61155411Y2748010D01*
X61398632Y2910525D01*
X61605475Y3117368D01*
X61722000Y3291760D01*
X61838525Y3117368D01*
X62045368Y2910525D01*
X62288589Y2748010D01*
X62558842Y2636068D01*
X62845740Y2579000D01*
X63138260Y2579000D01*
X63425158Y2636068D01*
X63695411Y2748010D01*
X63938632Y2910525D01*
X64145475Y3117368D01*
X64262000Y3291760D01*
X64378525Y3117368D01*
X64585368Y2910525D01*
X64828589Y2748010D01*
X65098842Y2636068D01*
X65385740Y2579000D01*
X65678260Y2579000D01*
X65965158Y2636068D01*
X66235411Y2748010D01*
X66478632Y2910525D01*
X66685475Y3117368D01*
X66802000Y3291760D01*
X66918525Y3117368D01*
X67125368Y2910525D01*
X67368589Y2748010D01*
X67638842Y2636068D01*
X67925740Y2579000D01*
X68218260Y2579000D01*
X68505158Y2636068D01*
X68775411Y2748010D01*
X69018632Y2910525D01*
X69225475Y3117368D01*
X69342000Y3291760D01*
X69458525Y3117368D01*
X69665368Y2910525D01*
X69908589Y2748010D01*
X70178842Y2636068D01*
X70465740Y2579000D01*
X70758260Y2579000D01*
X71045158Y2636068D01*
X71315411Y2748010D01*
X71558632Y2910525D01*
X71765475Y3117368D01*
X71882000Y3291760D01*
X71998525Y3117368D01*
X72205368Y2910525D01*
X72448589Y2748010D01*
X72718842Y2636068D01*
X73005740Y2579000D01*
X73298260Y2579000D01*
X73585158Y2636068D01*
X73855411Y2748010D01*
X74098632Y2910525D01*
X74305475Y3117368D01*
X74422000Y3291760D01*
X74538525Y3117368D01*
X74745368Y2910525D01*
X74988589Y2748010D01*
X75258842Y2636068D01*
X75545740Y2579000D01*
X75838260Y2579000D01*
X76125158Y2636068D01*
X76395411Y2748010D01*
X76638632Y2910525D01*
X76845475Y3117368D01*
X76962000Y3291760D01*
X77078525Y3117368D01*
X77285368Y2910525D01*
X77528589Y2748010D01*
X77798842Y2636068D01*
X78085740Y2579000D01*
X78378260Y2579000D01*
X78665158Y2636068D01*
X78935411Y2748010D01*
X79178632Y2910525D01*
X79385475Y3117368D01*
X79547990Y3360589D01*
X79659932Y3630842D01*
X79717000Y3917740D01*
X79717000Y4210260D01*
X79659932Y4497158D01*
X79547990Y4767411D01*
X79385475Y5010632D01*
X79253620Y5142487D01*
X79326180Y5164498D01*
X79436494Y5223463D01*
X79533185Y5302815D01*
X79612537Y5399506D01*
X79671502Y5509820D01*
X79707812Y5629518D01*
X79720072Y5754000D01*
X79720072Y7454000D01*
X79707812Y7578482D01*
X79671502Y7698180D01*
X79612537Y7808494D01*
X79533185Y7905185D01*
X79436494Y7984537D01*
X79326180Y8043502D01*
X79206482Y8079812D01*
X79082000Y8092072D01*
X77818730Y8092072D01*
X77271803Y8638998D01*
X77248001Y8668001D01*
X77132276Y8762974D01*
X77000247Y8833546D01*
X76856986Y8877003D01*
X76745333Y8888000D01*
X76745322Y8888000D01*
X76708000Y8891676D01*
X76670678Y8888000D01*
X75983535Y8888000D01*
X75880889Y8956586D01*
X75710729Y9027068D01*
X75530089Y9063000D01*
X75345911Y9063000D01*
X75165271Y9027068D01*
X74995111Y8956586D01*
X74841972Y8854262D01*
X74711738Y8724028D01*
X74609414Y8570889D01*
X74538932Y8400729D01*
X74503000Y8220089D01*
X74503000Y8035911D01*
X74538932Y7855271D01*
X74609414Y7685111D01*
X74634885Y7646992D01*
X74538525Y7550632D01*
X74422000Y7376240D01*
X74305475Y7550632D01*
X74098632Y7757475D01*
X73855411Y7919990D01*
X73585158Y8031932D01*
X73298260Y8089000D01*
X73005740Y8089000D01*
X72718842Y8031932D01*
X72448589Y7919990D01*
X72205368Y7757475D01*
X71998525Y7550632D01*
X71882000Y7376240D01*
X71765475Y7550632D01*
X71558632Y7757475D01*
X71315411Y7919990D01*
X71045158Y8031932D01*
X70758260Y8089000D01*
X70465740Y8089000D01*
X70178842Y8031932D01*
X69908589Y7919990D01*
X69665368Y7757475D01*
X69458525Y7550632D01*
X69342000Y7376240D01*
X69225475Y7550632D01*
X69018632Y7757475D01*
X68775411Y7919990D01*
X68505158Y8031932D01*
X68218260Y8089000D01*
X67925740Y8089000D01*
X67638842Y8031932D01*
X67368589Y7919990D01*
X67125368Y7757475D01*
X66918525Y7550632D01*
X66802000Y7376240D01*
X66685475Y7550632D01*
X66478632Y7757475D01*
X66235411Y7919990D01*
X65965158Y8031932D01*
X65678260Y8089000D01*
X65385740Y8089000D01*
X65098842Y8031932D01*
X64828589Y7919990D01*
X64585368Y7757475D01*
X64378525Y7550632D01*
X64262000Y7376240D01*
X64145475Y7550632D01*
X63938632Y7757475D01*
X63695411Y7919990D01*
X63425158Y8031932D01*
X63138260Y8089000D01*
X62845740Y8089000D01*
X62558842Y8031932D01*
X62288589Y7919990D01*
X62045368Y7757475D01*
X61838525Y7550632D01*
X61722000Y7376240D01*
X61605475Y7550632D01*
X61398632Y7757475D01*
X61155411Y7919990D01*
X60885158Y8031932D01*
X60598260Y8089000D01*
X60305740Y8089000D01*
X60018842Y8031932D01*
X59748589Y7919990D01*
X59505368Y7757475D01*
X59298525Y7550632D01*
X59182000Y7376240D01*
X59065475Y7550632D01*
X58858632Y7757475D01*
X58615411Y7919990D01*
X58345158Y8031932D01*
X58058260Y8089000D01*
X57765740Y8089000D01*
X57478842Y8031932D01*
X57208589Y7919990D01*
X56965368Y7757475D01*
X56758525Y7550632D01*
X56642000Y7376240D01*
X56525475Y7550632D01*
X56318632Y7757475D01*
X56075411Y7919990D01*
X55805158Y8031932D01*
X55518260Y8089000D01*
X55225740Y8089000D01*
X54938842Y8031932D01*
X54668589Y7919990D01*
X54425368Y7757475D01*
X54218525Y7550632D01*
X54102000Y7376240D01*
X53985475Y7550632D01*
X53778632Y7757475D01*
X53535411Y7919990D01*
X53265158Y8031932D01*
X52978260Y8089000D01*
X52685740Y8089000D01*
X52398842Y8031932D01*
X52128589Y7919990D01*
X51885368Y7757475D01*
X51678525Y7550632D01*
X51556805Y7368466D01*
X51487178Y7485355D01*
X51292269Y7701588D01*
X51058920Y7875641D01*
X50796099Y8000825D01*
X50648890Y8045476D01*
X50419000Y7924155D01*
X50419000Y6731000D01*
X50439000Y6731000D01*
X50439000Y6477000D01*
X50419000Y6477000D01*
X50419000Y6457000D01*
X50165000Y6457000D01*
X50165000Y6477000D01*
X50145000Y6477000D01*
X50145000Y6731000D01*
X50165000Y6731000D01*
X50165000Y7924155D01*
X49935110Y8045476D01*
X49787901Y8000825D01*
X49525080Y7875641D01*
X49291731Y7701588D01*
X49096822Y7485355D01*
X49027195Y7368466D01*
X48905475Y7550632D01*
X48698632Y7757475D01*
X48455411Y7919990D01*
X48185158Y8031932D01*
X47898260Y8089000D01*
X47605740Y8089000D01*
X47318842Y8031932D01*
X47048589Y7919990D01*
X46805368Y7757475D01*
X46598525Y7550632D01*
X46482000Y7376240D01*
X46365475Y7550632D01*
X46158632Y7757475D01*
X45915411Y7919990D01*
X45645158Y8031932D01*
X45358260Y8089000D01*
X45065740Y8089000D01*
X44860665Y8048208D01*
X44841068Y8146729D01*
X44770586Y8316889D01*
X44668262Y8470028D01*
X44538028Y8600262D01*
X44537065Y8600906D01*
X44482001Y8668001D01*
X44366276Y8762974D01*
X44234247Y8833546D01*
X44090986Y8877003D01*
X43979333Y8888000D01*
X43904667Y8888000D01*
X43793014Y8877003D01*
X43649753Y8833546D01*
X43517724Y8762974D01*
X43401999Y8668001D01*
X43374095Y8634000D01*
X18579322Y8634000D01*
X18541999Y8637676D01*
X18504676Y8634000D01*
X18504667Y8634000D01*
X18393014Y8623003D01*
X18249753Y8579546D01*
X18117724Y8508974D01*
X18001999Y8414001D01*
X17978201Y8385003D01*
X17638408Y8045210D01*
X17418260Y8089000D01*
X17125740Y8089000D01*
X16838842Y8031932D01*
X16568589Y7919990D01*
X16325368Y7757475D01*
X16118525Y7550632D01*
X15956010Y7307411D01*
X15844068Y7037158D01*
X15787000Y6750260D01*
X8153121Y6750260D01*
X3087895Y11815486D01*
X49973000Y11815486D01*
X49973000Y11552514D01*
X50024304Y11294595D01*
X50124939Y11051641D01*
X50271038Y10832987D01*
X50456987Y10647038D01*
X50675641Y10500939D01*
X50918595Y10400304D01*
X51176514Y10349000D01*
X51439486Y10349000D01*
X51697405Y10400304D01*
X51940359Y10500939D01*
X52159013Y10647038D01*
X52344962Y10832987D01*
X52491061Y11051641D01*
X52591696Y11294595D01*
X52643000Y11552514D01*
X52643000Y11815486D01*
X55053000Y11815486D01*
X55053000Y11552514D01*
X55104304Y11294595D01*
X55204939Y11051641D01*
X55351038Y10832987D01*
X55536987Y10647038D01*
X55755641Y10500939D01*
X55998595Y10400304D01*
X56256514Y10349000D01*
X56519486Y10349000D01*
X56777405Y10400304D01*
X57020359Y10500939D01*
X57239013Y10647038D01*
X57424962Y10832987D01*
X57571061Y11051641D01*
X57671696Y11294595D01*
X57723000Y11552514D01*
X57723000Y11815486D01*
X57671696Y12073405D01*
X57571061Y12316359D01*
X57424962Y12535013D01*
X57239013Y12720962D01*
X57020359Y12867061D01*
X56777405Y12967696D01*
X56519486Y13019000D01*
X56256514Y13019000D01*
X55998595Y12967696D01*
X55755641Y12867061D01*
X55536987Y12720962D01*
X55351038Y12535013D01*
X55204939Y12316359D01*
X55104304Y12073405D01*
X55053000Y11815486D01*
X52643000Y11815486D01*
X52591696Y12073405D01*
X52491061Y12316359D01*
X52344962Y12535013D01*
X52159013Y12720962D01*
X51940359Y12867061D01*
X51697405Y12967696D01*
X51439486Y13019000D01*
X51176514Y13019000D01*
X50918595Y12967696D01*
X50675641Y12867061D01*
X50456987Y12720962D01*
X50271038Y12535013D01*
X50124939Y12316359D01*
X50024304Y12073405D01*
X49973000Y11815486D01*
X3087895Y11815486D01*
X1352381Y13551000D01*
X41106928Y13551000D01*
X41119188Y13426518D01*
X41155498Y13306820D01*
X41214463Y13196506D01*
X41293815Y13099815D01*
X41390506Y13020463D01*
X41500820Y12961498D01*
X41620518Y12925188D01*
X41745000Y12912928D01*
X42259250Y12916000D01*
X42418000Y13074750D01*
X42418000Y14224000D01*
X41268750Y14224000D01*
X41110000Y14065250D01*
X41106928Y13551000D01*
X1352381Y13551000D01*
X685000Y14218380D01*
X685000Y15151000D01*
X41106928Y15151000D01*
X41110000Y14636750D01*
X41268750Y14478000D01*
X42418000Y14478000D01*
X42418000Y15627250D01*
X42672000Y15627250D01*
X42672000Y14478000D01*
X42692000Y14478000D01*
X42692000Y14224000D01*
X42672000Y14224000D01*
X42672000Y13074750D01*
X42830750Y12916000D01*
X43345000Y12912928D01*
X43469482Y12925188D01*
X43589180Y12961498D01*
X43699494Y13020463D01*
X43796185Y13099815D01*
X43875537Y13196506D01*
X43934502Y13306820D01*
X43970812Y13426518D01*
X43971643Y13434961D01*
X44170241Y13236363D01*
X44405273Y13079320D01*
X44666426Y12971147D01*
X44943665Y12916000D01*
X45226335Y12916000D01*
X45503574Y12971147D01*
X45764727Y13079320D01*
X45999759Y13236363D01*
X46199637Y13436241D01*
X46355000Y13668759D01*
X46510363Y13436241D01*
X46710241Y13236363D01*
X46945273Y13079320D01*
X47206426Y12971147D01*
X47483665Y12916000D01*
X47766335Y12916000D01*
X48043574Y12971147D01*
X48304727Y13079320D01*
X48539759Y13236363D01*
X48739637Y13436241D01*
X48895000Y13668759D01*
X49050363Y13436241D01*
X49250241Y13236363D01*
X49485273Y13079320D01*
X49746426Y12971147D01*
X50023665Y12916000D01*
X50306335Y12916000D01*
X50583574Y12971147D01*
X50844727Y13079320D01*
X51079759Y13236363D01*
X51279637Y13436241D01*
X51435000Y13668759D01*
X51590363Y13436241D01*
X51790241Y13236363D01*
X52025273Y13079320D01*
X52286426Y12971147D01*
X52563665Y12916000D01*
X52846335Y12916000D01*
X53123574Y12971147D01*
X53384727Y13079320D01*
X53619759Y13236363D01*
X53819637Y13436241D01*
X53975000Y13668759D01*
X54130363Y13436241D01*
X54330241Y13236363D01*
X54565273Y13079320D01*
X54826426Y12971147D01*
X55103665Y12916000D01*
X55386335Y12916000D01*
X55663574Y12971147D01*
X55924727Y13079320D01*
X56159759Y13236363D01*
X56359637Y13436241D01*
X56515000Y13668759D01*
X56670363Y13436241D01*
X56870241Y13236363D01*
X57105273Y13079320D01*
X57366426Y12971147D01*
X57643665Y12916000D01*
X57926335Y12916000D01*
X58203574Y12971147D01*
X58464727Y13079320D01*
X58699759Y13236363D01*
X58899637Y13436241D01*
X59055000Y13668759D01*
X59210363Y13436241D01*
X59410241Y13236363D01*
X59645273Y13079320D01*
X59906426Y12971147D01*
X60183665Y12916000D01*
X60466335Y12916000D01*
X60743574Y12971147D01*
X61004727Y13079320D01*
X61239759Y13236363D01*
X61439637Y13436241D01*
X61596680Y13671273D01*
X61601067Y13681865D01*
X61712615Y13495869D01*
X61901586Y13287481D01*
X62127580Y13119963D01*
X62381913Y12999754D01*
X62515961Y12959096D01*
X62738000Y13081085D01*
X62738000Y14224000D01*
X62718000Y14224000D01*
X62718000Y14478000D01*
X62738000Y14478000D01*
X62738000Y15620915D01*
X62992000Y15620915D01*
X62992000Y14478000D01*
X63012000Y14478000D01*
X63012000Y14224000D01*
X62992000Y14224000D01*
X62992000Y13081085D01*
X63214039Y12959096D01*
X63348087Y12999754D01*
X63602420Y13119963D01*
X63828414Y13287481D01*
X64017385Y13495869D01*
X64128933Y13681865D01*
X64133320Y13671273D01*
X64290363Y13436241D01*
X64490241Y13236363D01*
X64725273Y13079320D01*
X64986426Y12971147D01*
X65263665Y12916000D01*
X65546335Y12916000D01*
X65823574Y12971147D01*
X66084727Y13079320D01*
X66319759Y13236363D01*
X66519637Y13436241D01*
X66675000Y13668759D01*
X66830363Y13436241D01*
X67030241Y13236363D01*
X67265273Y13079320D01*
X67526426Y12971147D01*
X67803665Y12916000D01*
X68086335Y12916000D01*
X68363574Y12971147D01*
X68624727Y13079320D01*
X68859759Y13236363D01*
X69059637Y13436241D01*
X69215000Y13668759D01*
X69370363Y13436241D01*
X69570241Y13236363D01*
X69805273Y13079320D01*
X70066426Y12971147D01*
X70343665Y12916000D01*
X70626335Y12916000D01*
X70903574Y12971147D01*
X71164727Y13079320D01*
X71399759Y13236363D01*
X71599637Y13436241D01*
X71755000Y13668759D01*
X71910363Y13436241D01*
X72110241Y13236363D01*
X72345273Y13079320D01*
X72606426Y12971147D01*
X72883665Y12916000D01*
X73166335Y12916000D01*
X73443574Y12971147D01*
X73704727Y13079320D01*
X73939759Y13236363D01*
X74139637Y13436241D01*
X74295000Y13668759D01*
X74450363Y13436241D01*
X74650241Y13236363D01*
X74885273Y13079320D01*
X75146426Y12971147D01*
X75423665Y12916000D01*
X75706335Y12916000D01*
X75983574Y12971147D01*
X76244727Y13079320D01*
X76479759Y13236363D01*
X76679637Y13436241D01*
X76836680Y13671273D01*
X76944853Y13932426D01*
X77000000Y14209665D01*
X77000000Y14492335D01*
X76944853Y14769574D01*
X76836680Y15030727D01*
X76679637Y15265759D01*
X76479759Y15465637D01*
X76244727Y15622680D01*
X75983574Y15730853D01*
X75706335Y15786000D01*
X75423665Y15786000D01*
X75146426Y15730853D01*
X74885273Y15622680D01*
X74650241Y15465637D01*
X74450363Y15265759D01*
X74295000Y15033241D01*
X74139637Y15265759D01*
X73939759Y15465637D01*
X73704727Y15622680D01*
X73443574Y15730853D01*
X73166335Y15786000D01*
X72883665Y15786000D01*
X72606426Y15730853D01*
X72345273Y15622680D01*
X72110241Y15465637D01*
X71910363Y15265759D01*
X71755000Y15033241D01*
X71599637Y15265759D01*
X71399759Y15465637D01*
X71164727Y15622680D01*
X70903574Y15730853D01*
X70626335Y15786000D01*
X70343665Y15786000D01*
X70066426Y15730853D01*
X69805273Y15622680D01*
X69570241Y15465637D01*
X69370363Y15265759D01*
X69215000Y15033241D01*
X69059637Y15265759D01*
X68859759Y15465637D01*
X68624727Y15622680D01*
X68363574Y15730853D01*
X68086335Y15786000D01*
X67803665Y15786000D01*
X67526426Y15730853D01*
X67265273Y15622680D01*
X67030241Y15465637D01*
X66830363Y15265759D01*
X66675000Y15033241D01*
X66519637Y15265759D01*
X66319759Y15465637D01*
X66084727Y15622680D01*
X65823574Y15730853D01*
X65546335Y15786000D01*
X65263665Y15786000D01*
X64986426Y15730853D01*
X64725273Y15622680D01*
X64490241Y15465637D01*
X64290363Y15265759D01*
X64133320Y15030727D01*
X64128933Y15020135D01*
X64017385Y15206131D01*
X63828414Y15414519D01*
X63602420Y15582037D01*
X63348087Y15702246D01*
X63214039Y15742904D01*
X62992000Y15620915D01*
X62738000Y15620915D01*
X62515961Y15742904D01*
X62381913Y15702246D01*
X62127580Y15582037D01*
X61901586Y15414519D01*
X61712615Y15206131D01*
X61601067Y15020135D01*
X61596680Y15030727D01*
X61439637Y15265759D01*
X61239759Y15465637D01*
X61004727Y15622680D01*
X60743574Y15730853D01*
X60466335Y15786000D01*
X60183665Y15786000D01*
X59906426Y15730853D01*
X59645273Y15622680D01*
X59410241Y15465637D01*
X59210363Y15265759D01*
X59055000Y15033241D01*
X58899637Y15265759D01*
X58699759Y15465637D01*
X58464727Y15622680D01*
X58203574Y15730853D01*
X57926335Y15786000D01*
X57643665Y15786000D01*
X57366426Y15730853D01*
X57105273Y15622680D01*
X56870241Y15465637D01*
X56670363Y15265759D01*
X56515000Y15033241D01*
X56359637Y15265759D01*
X56159759Y15465637D01*
X55924727Y15622680D01*
X55663574Y15730853D01*
X55386335Y15786000D01*
X55103665Y15786000D01*
X54826426Y15730853D01*
X54565273Y15622680D01*
X54330241Y15465637D01*
X54130363Y15265759D01*
X53975000Y15033241D01*
X53819637Y15265759D01*
X53619759Y15465637D01*
X53384727Y15622680D01*
X53123574Y15730853D01*
X52846335Y15786000D01*
X52563665Y15786000D01*
X52286426Y15730853D01*
X52025273Y15622680D01*
X51790241Y15465637D01*
X51590363Y15265759D01*
X51435000Y15033241D01*
X51279637Y15265759D01*
X51079759Y15465637D01*
X50844727Y15622680D01*
X50583574Y15730853D01*
X50306335Y15786000D01*
X50023665Y15786000D01*
X49746426Y15730853D01*
X49485273Y15622680D01*
X49250241Y15465637D01*
X49050363Y15265759D01*
X48895000Y15033241D01*
X48739637Y15265759D01*
X48539759Y15465637D01*
X48304727Y15622680D01*
X48043574Y15730853D01*
X47766335Y15786000D01*
X47483665Y15786000D01*
X47206426Y15730853D01*
X46945273Y15622680D01*
X46710241Y15465637D01*
X46510363Y15265759D01*
X46355000Y15033241D01*
X46199637Y15265759D01*
X45999759Y15465637D01*
X45764727Y15622680D01*
X45503574Y15730853D01*
X45226335Y15786000D01*
X44943665Y15786000D01*
X44666426Y15730853D01*
X44405273Y15622680D01*
X44170241Y15465637D01*
X43971643Y15267039D01*
X43970812Y15275482D01*
X43934502Y15395180D01*
X43875537Y15505494D01*
X43796185Y15602185D01*
X43699494Y15681537D01*
X43589180Y15740502D01*
X43469482Y15776812D01*
X43345000Y15789072D01*
X42830750Y15786000D01*
X42672000Y15627250D01*
X42418000Y15627250D01*
X42259250Y15786000D01*
X41745000Y15789072D01*
X41620518Y15776812D01*
X41500820Y15740502D01*
X41390506Y15681537D01*
X41293815Y15602185D01*
X41214463Y15505494D01*
X41155498Y15395180D01*
X41119188Y15275482D01*
X41106928Y15151000D01*
X685000Y15151000D01*
X685000Y17945000D01*
X17484928Y17945000D01*
X17484928Y16345000D01*
X17497188Y16220518D01*
X17533498Y16100820D01*
X17592463Y15990506D01*
X17671815Y15893815D01*
X17768506Y15814463D01*
X17878820Y15755498D01*
X17998518Y15719188D01*
X18123000Y15706928D01*
X19723000Y15706928D01*
X19847482Y15719188D01*
X19967180Y15755498D01*
X20077494Y15814463D01*
X20174185Y15893815D01*
X20253537Y15990506D01*
X20312502Y16100820D01*
X20328117Y16152298D01*
X25729903Y16152298D01*
X25801486Y15908329D01*
X26056996Y15787429D01*
X26331184Y15718700D01*
X26613512Y15704783D01*
X26893130Y15746213D01*
X27159292Y15841397D01*
X27284514Y15908329D01*
X27356097Y16152298D01*
X26543000Y16965395D01*
X25729903Y16152298D01*
X20328117Y16152298D01*
X20348812Y16220518D01*
X20361072Y16345000D01*
X20361072Y17074488D01*
X25102783Y17074488D01*
X25144213Y16794870D01*
X25239397Y16528708D01*
X25306329Y16403486D01*
X25550298Y16331903D01*
X26363395Y17145000D01*
X26722605Y17145000D01*
X27535702Y16331903D01*
X27779671Y16403486D01*
X27900571Y16658996D01*
X27969300Y16933184D01*
X27983217Y17215512D01*
X27941787Y17495130D01*
X27846603Y17761292D01*
X27779671Y17886514D01*
X27535702Y17958097D01*
X26722605Y17145000D01*
X26363395Y17145000D01*
X25550298Y17958097D01*
X25306329Y17886514D01*
X25185429Y17631004D01*
X25116700Y17356816D01*
X25102783Y17074488D01*
X20361072Y17074488D01*
X20361072Y17945000D01*
X20348812Y18069482D01*
X20328118Y18137702D01*
X25729903Y18137702D01*
X26543000Y17324605D01*
X27356097Y18137702D01*
X27284514Y18381671D01*
X27029004Y18502571D01*
X26754816Y18571300D01*
X26472488Y18585217D01*
X26192870Y18543787D01*
X25926708Y18448603D01*
X25801486Y18381671D01*
X25729903Y18137702D01*
X20328118Y18137702D01*
X20312502Y18189180D01*
X20253537Y18299494D01*
X20174185Y18396185D01*
X20077494Y18475537D01*
X19967180Y18534502D01*
X19847482Y18570812D01*
X19723000Y18583072D01*
X18123000Y18583072D01*
X17998518Y18570812D01*
X17878820Y18534502D01*
X17768506Y18475537D01*
X17671815Y18396185D01*
X17592463Y18299494D01*
X17533498Y18189180D01*
X17497188Y18069482D01*
X17484928Y17945000D01*
X685000Y17945000D01*
X685000Y18899298D01*
X13664903Y18899298D01*
X13736486Y18655329D01*
X13991996Y18534429D01*
X14266184Y18465700D01*
X14548512Y18451783D01*
X14828130Y18493213D01*
X15094292Y18588397D01*
X15219514Y18655329D01*
X15291097Y18899298D01*
X14478000Y19712395D01*
X13664903Y18899298D01*
X685000Y18899298D01*
X685000Y19821488D01*
X13037783Y19821488D01*
X13079213Y19541870D01*
X13174397Y19275708D01*
X13241329Y19150486D01*
X13485298Y19078903D01*
X14298395Y19892000D01*
X14657605Y19892000D01*
X15470702Y19078903D01*
X15714671Y19150486D01*
X15835571Y19405996D01*
X15904300Y19680184D01*
X15918217Y19962512D01*
X15876787Y20242130D01*
X15781603Y20508292D01*
X15714671Y20633514D01*
X15470702Y20705097D01*
X14657605Y19892000D01*
X14298395Y19892000D01*
X13485298Y20705097D01*
X13241329Y20633514D01*
X13120429Y20378004D01*
X13051700Y20103816D01*
X13037783Y19821488D01*
X685000Y19821488D01*
X685000Y20884702D01*
X13664903Y20884702D01*
X14478000Y20071605D01*
X15291097Y20884702D01*
X15219514Y21128671D01*
X14964004Y21249571D01*
X14758478Y21301089D01*
X35387000Y21301089D01*
X35387000Y21116911D01*
X35422932Y20936271D01*
X35493414Y20766111D01*
X35595738Y20612972D01*
X35725972Y20482738D01*
X35879111Y20380414D01*
X36049271Y20309932D01*
X36170352Y20285847D01*
X37790201Y18665997D01*
X37813999Y18636999D01*
X37842997Y18613201D01*
X37929723Y18542026D01*
X38003538Y18502571D01*
X38061753Y18471454D01*
X38205014Y18427997D01*
X38316667Y18417000D01*
X38316677Y18417000D01*
X38354000Y18413324D01*
X38391323Y18417000D01*
X40983465Y18417000D01*
X41086111Y18348414D01*
X41256271Y18277932D01*
X41436911Y18242000D01*
X41621089Y18242000D01*
X41801729Y18277932D01*
X41971889Y18348414D01*
X42125028Y18450738D01*
X42255262Y18580972D01*
X42357586Y18734111D01*
X42428068Y18904271D01*
X42464000Y19084911D01*
X42464000Y19269089D01*
X42428068Y19449729D01*
X42357586Y19619889D01*
X42255262Y19773028D01*
X42125028Y19903262D01*
X41971889Y20005586D01*
X41801729Y20076068D01*
X41621089Y20112000D01*
X41436911Y20112000D01*
X41256271Y20076068D01*
X41086111Y20005586D01*
X40983465Y19937000D01*
X38668802Y19937000D01*
X37245153Y21360648D01*
X37221068Y21481729D01*
X37150586Y21651889D01*
X37048262Y21805028D01*
X36918028Y21935262D01*
X36764889Y22037586D01*
X36594729Y22108068D01*
X36414089Y22144000D01*
X36229911Y22144000D01*
X36049271Y22108068D01*
X35879111Y22037586D01*
X35725972Y21935262D01*
X35595738Y21805028D01*
X35493414Y21651889D01*
X35422932Y21481729D01*
X35387000Y21301089D01*
X14758478Y21301089D01*
X14689816Y21318300D01*
X14407488Y21332217D01*
X14127870Y21290787D01*
X13861708Y21195603D01*
X13736486Y21128671D01*
X13664903Y20884702D01*
X685000Y20884702D01*
X685000Y25033335D01*
X13043000Y25033335D01*
X13043000Y24750665D01*
X13098147Y24473426D01*
X13206320Y24212273D01*
X13363363Y23977241D01*
X13563241Y23777363D01*
X13798273Y23620320D01*
X14059426Y23512147D01*
X14336665Y23457000D01*
X14619335Y23457000D01*
X14896574Y23512147D01*
X15157727Y23620320D01*
X15172214Y23630000D01*
X18038716Y23630000D01*
X18243273Y23493320D01*
X18504426Y23385147D01*
X18781665Y23330000D01*
X19064335Y23330000D01*
X19341574Y23385147D01*
X19602727Y23493320D01*
X19837759Y23650363D01*
X20037637Y23850241D01*
X20194680Y24085273D01*
X20302853Y24346426D01*
X20358000Y24623665D01*
X20358000Y24906335D01*
X25108000Y24906335D01*
X25108000Y24623665D01*
X25163147Y24346426D01*
X25271320Y24085273D01*
X25428363Y23850241D01*
X25628241Y23650363D01*
X25863273Y23493320D01*
X26124426Y23385147D01*
X26401665Y23330000D01*
X26684335Y23330000D01*
X26961574Y23385147D01*
X27222727Y23493320D01*
X27457759Y23650363D01*
X27657637Y23850241D01*
X27814680Y24085273D01*
X27922853Y24346426D01*
X27978000Y24623665D01*
X27978000Y24906335D01*
X27922853Y25183574D01*
X27814680Y25444727D01*
X27657637Y25679759D01*
X27457759Y25879637D01*
X27222727Y26036680D01*
X26961574Y26144853D01*
X26684335Y26200000D01*
X26401665Y26200000D01*
X26124426Y26144853D01*
X25863273Y26036680D01*
X25628241Y25879637D01*
X25428363Y25679759D01*
X25271320Y25444727D01*
X25163147Y25183574D01*
X25108000Y24906335D01*
X20358000Y24906335D01*
X20302853Y25183574D01*
X20194680Y25444727D01*
X20037637Y25679759D01*
X19837759Y25879637D01*
X19602727Y26036680D01*
X19341574Y26144853D01*
X19064335Y26200000D01*
X18781665Y26200000D01*
X18504426Y26144853D01*
X18243273Y26036680D01*
X18038716Y25900000D01*
X15499396Y25900000D01*
X15392759Y26006637D01*
X15157727Y26163680D01*
X14896574Y26271853D01*
X14619335Y26327000D01*
X14336665Y26327000D01*
X14059426Y26271853D01*
X13798273Y26163680D01*
X13563241Y26006637D01*
X13363363Y25806759D01*
X13206320Y25571727D01*
X13098147Y25310574D01*
X13043000Y25033335D01*
X685000Y25033335D01*
X685000Y28159089D01*
X40721000Y28159089D01*
X40721000Y27974911D01*
X40756932Y27794271D01*
X40827414Y27624111D01*
X40929738Y27470972D01*
X41059972Y27340738D01*
X41213111Y27238414D01*
X41383271Y27167932D01*
X41563911Y27132000D01*
X41748089Y27132000D01*
X41928729Y27167932D01*
X42098889Y27238414D01*
X42201535Y27307000D01*
X46063678Y27307000D01*
X46101000Y27303324D01*
X46138322Y27307000D01*
X46138333Y27307000D01*
X46249986Y27317997D01*
X46393247Y27361454D01*
X46525276Y27432026D01*
X46641001Y27526999D01*
X46664803Y27556002D01*
X47301114Y28192312D01*
X47483665Y28156000D01*
X47766335Y28156000D01*
X48043574Y28211147D01*
X48304727Y28319320D01*
X48539759Y28476363D01*
X48739637Y28676241D01*
X48895000Y28908759D01*
X49050363Y28676241D01*
X49250241Y28476363D01*
X49485273Y28319320D01*
X49746426Y28211147D01*
X50023665Y28156000D01*
X50306335Y28156000D01*
X50583574Y28211147D01*
X50844727Y28319320D01*
X51079759Y28476363D01*
X51279637Y28676241D01*
X51435000Y28908759D01*
X51590363Y28676241D01*
X51790241Y28476363D01*
X52025273Y28319320D01*
X52286426Y28211147D01*
X52563665Y28156000D01*
X52846335Y28156000D01*
X53123574Y28211147D01*
X53384727Y28319320D01*
X53619759Y28476363D01*
X53819637Y28676241D01*
X53975000Y28908759D01*
X54130363Y28676241D01*
X54330241Y28476363D01*
X54565273Y28319320D01*
X54826426Y28211147D01*
X55103665Y28156000D01*
X55386335Y28156000D01*
X55663574Y28211147D01*
X55924727Y28319320D01*
X56159759Y28476363D01*
X56359637Y28676241D01*
X56515000Y28908759D01*
X56670363Y28676241D01*
X56870241Y28476363D01*
X57105273Y28319320D01*
X57366426Y28211147D01*
X57643665Y28156000D01*
X57926335Y28156000D01*
X58203574Y28211147D01*
X58464727Y28319320D01*
X58699759Y28476363D01*
X58899637Y28676241D01*
X59055000Y28908759D01*
X59210363Y28676241D01*
X59410241Y28476363D01*
X59645273Y28319320D01*
X59906426Y28211147D01*
X60183665Y28156000D01*
X60466335Y28156000D01*
X60743574Y28211147D01*
X61004727Y28319320D01*
X61239759Y28476363D01*
X61439637Y28676241D01*
X61595000Y28908759D01*
X61750363Y28676241D01*
X61950241Y28476363D01*
X62185273Y28319320D01*
X62446426Y28211147D01*
X62723665Y28156000D01*
X63006335Y28156000D01*
X63283574Y28211147D01*
X63544727Y28319320D01*
X63779759Y28476363D01*
X63979637Y28676241D01*
X64135000Y28908759D01*
X64290363Y28676241D01*
X64490241Y28476363D01*
X64725273Y28319320D01*
X64986426Y28211147D01*
X65263665Y28156000D01*
X65546335Y28156000D01*
X65823574Y28211147D01*
X66084727Y28319320D01*
X66319759Y28476363D01*
X66519637Y28676241D01*
X66675000Y28908759D01*
X66830363Y28676241D01*
X67030241Y28476363D01*
X67265273Y28319320D01*
X67526426Y28211147D01*
X67803665Y28156000D01*
X68086335Y28156000D01*
X68363574Y28211147D01*
X68624727Y28319320D01*
X68859759Y28476363D01*
X69059637Y28676241D01*
X69215000Y28908759D01*
X69370363Y28676241D01*
X69570241Y28476363D01*
X69805273Y28319320D01*
X70066426Y28211147D01*
X70343665Y28156000D01*
X70626335Y28156000D01*
X70903574Y28211147D01*
X71164727Y28319320D01*
X71399759Y28476363D01*
X71599637Y28676241D01*
X71756680Y28911273D01*
X71761067Y28921865D01*
X71872615Y28735869D01*
X72061586Y28527481D01*
X72287580Y28359963D01*
X72541913Y28239754D01*
X72675961Y28199096D01*
X72898000Y28321085D01*
X72898000Y29464000D01*
X72878000Y29464000D01*
X72878000Y29718000D01*
X72898000Y29718000D01*
X72898000Y30860915D01*
X73152000Y30860915D01*
X73152000Y29718000D01*
X73172000Y29718000D01*
X73172000Y29464000D01*
X73152000Y29464000D01*
X73152000Y28321085D01*
X73374039Y28199096D01*
X73508087Y28239754D01*
X73762420Y28359963D01*
X73988414Y28527481D01*
X74177385Y28735869D01*
X74288933Y28921865D01*
X74293320Y28911273D01*
X74450363Y28676241D01*
X74650241Y28476363D01*
X74885273Y28319320D01*
X75146426Y28211147D01*
X75423665Y28156000D01*
X75706335Y28156000D01*
X75983574Y28211147D01*
X76244727Y28319320D01*
X76479759Y28476363D01*
X76679637Y28676241D01*
X76836680Y28911273D01*
X76944853Y29172426D01*
X77000000Y29449665D01*
X77000000Y29732335D01*
X76944853Y30009574D01*
X76836680Y30270727D01*
X76700000Y30475284D01*
X76700000Y31817786D01*
X76709680Y31832273D01*
X76817853Y32093426D01*
X76873000Y32370665D01*
X76873000Y32653335D01*
X76817853Y32930574D01*
X76709680Y33191727D01*
X76552637Y33426759D01*
X76352759Y33626637D01*
X76117727Y33783680D01*
X75856574Y33891853D01*
X75579335Y33947000D01*
X75296665Y33947000D01*
X75019426Y33891853D01*
X74758273Y33783680D01*
X74523241Y33626637D01*
X74323363Y33426759D01*
X74166320Y33191727D01*
X74058147Y32930574D01*
X74003000Y32653335D01*
X74003000Y32370665D01*
X74058147Y32093426D01*
X74166320Y31832273D01*
X74323363Y31597241D01*
X74430000Y31490604D01*
X74430001Y30475285D01*
X74293320Y30270727D01*
X74288933Y30260135D01*
X74177385Y30446131D01*
X73988414Y30654519D01*
X73762420Y30822037D01*
X73508087Y30942246D01*
X73374039Y30982904D01*
X73152000Y30860915D01*
X72898000Y30860915D01*
X72675961Y30982904D01*
X72541913Y30942246D01*
X72287580Y30822037D01*
X72061586Y30654519D01*
X71872615Y30446131D01*
X71761067Y30260135D01*
X71756680Y30270727D01*
X71599637Y30505759D01*
X71399759Y30705637D01*
X71164727Y30862680D01*
X70903574Y30970853D01*
X70626335Y31026000D01*
X70343665Y31026000D01*
X70066426Y30970853D01*
X69805273Y30862680D01*
X69570241Y30705637D01*
X69370363Y30505759D01*
X69215000Y30273241D01*
X69059637Y30505759D01*
X68859759Y30705637D01*
X68624727Y30862680D01*
X68363574Y30970853D01*
X68086335Y31026000D01*
X67803665Y31026000D01*
X67526426Y30970853D01*
X67265273Y30862680D01*
X67030241Y30705637D01*
X66830363Y30505759D01*
X66675000Y30273241D01*
X66519637Y30505759D01*
X66319759Y30705637D01*
X66084727Y30862680D01*
X65823574Y30970853D01*
X65546335Y31026000D01*
X65263665Y31026000D01*
X64986426Y30970853D01*
X64725273Y30862680D01*
X64490241Y30705637D01*
X64290363Y30505759D01*
X64135000Y30273241D01*
X63979637Y30505759D01*
X63779759Y30705637D01*
X63544727Y30862680D01*
X63283574Y30970853D01*
X63006335Y31026000D01*
X62723665Y31026000D01*
X62446426Y30970853D01*
X62185273Y30862680D01*
X61950241Y30705637D01*
X61750363Y30505759D01*
X61595000Y30273241D01*
X61439637Y30505759D01*
X61239759Y30705637D01*
X61004727Y30862680D01*
X60743574Y30970853D01*
X60466335Y31026000D01*
X60183665Y31026000D01*
X59906426Y30970853D01*
X59645273Y30862680D01*
X59410241Y30705637D01*
X59210363Y30505759D01*
X59055000Y30273241D01*
X58899637Y30505759D01*
X58699759Y30705637D01*
X58464727Y30862680D01*
X58203574Y30970853D01*
X57926335Y31026000D01*
X57643665Y31026000D01*
X57366426Y30970853D01*
X57105273Y30862680D01*
X56870241Y30705637D01*
X56670363Y30505759D01*
X56515000Y30273241D01*
X56359637Y30505759D01*
X56159759Y30705637D01*
X55924727Y30862680D01*
X55663574Y30970853D01*
X55386335Y31026000D01*
X55103665Y31026000D01*
X54826426Y30970853D01*
X54565273Y30862680D01*
X54330241Y30705637D01*
X54130363Y30505759D01*
X53975000Y30273241D01*
X53819637Y30505759D01*
X53619759Y30705637D01*
X53384727Y30862680D01*
X53123574Y30970853D01*
X52846335Y31026000D01*
X52563665Y31026000D01*
X52286426Y30970853D01*
X52025273Y30862680D01*
X51790241Y30705637D01*
X51590363Y30505759D01*
X51435000Y30273241D01*
X51279637Y30505759D01*
X51079759Y30705637D01*
X50844727Y30862680D01*
X50583574Y30970853D01*
X50306335Y31026000D01*
X50023665Y31026000D01*
X49746426Y30970853D01*
X49485273Y30862680D01*
X49250241Y30705637D01*
X49050363Y30505759D01*
X48895000Y30273241D01*
X48739637Y30505759D01*
X48539759Y30705637D01*
X48304727Y30862680D01*
X48043574Y30970853D01*
X47766335Y31026000D01*
X47483665Y31026000D01*
X47206426Y30970853D01*
X46945273Y30862680D01*
X46710241Y30705637D01*
X46510363Y30505759D01*
X46355000Y30273241D01*
X46199637Y30505759D01*
X45999759Y30705637D01*
X45764727Y30862680D01*
X45503574Y30970853D01*
X45226335Y31026000D01*
X44943665Y31026000D01*
X44666426Y30970853D01*
X44405273Y30862680D01*
X44170241Y30705637D01*
X43970363Y30505759D01*
X43815000Y30273241D01*
X43659637Y30505759D01*
X43459759Y30705637D01*
X43224727Y30862680D01*
X42963574Y30970853D01*
X42686335Y31026000D01*
X42403665Y31026000D01*
X42126426Y30970853D01*
X41865273Y30862680D01*
X41630241Y30705637D01*
X41430363Y30505759D01*
X41273320Y30270727D01*
X41165147Y30009574D01*
X41110000Y29732335D01*
X41110000Y29449665D01*
X41165147Y29172426D01*
X41270049Y28919170D01*
X41213111Y28895586D01*
X41059972Y28793262D01*
X40929738Y28663028D01*
X40827414Y28509889D01*
X40756932Y28339729D01*
X40721000Y28159089D01*
X685000Y28159089D01*
X685000Y31519298D01*
X69624903Y31519298D01*
X69696486Y31275329D01*
X69951996Y31154429D01*
X70226184Y31085700D01*
X70508512Y31071783D01*
X70788130Y31113213D01*
X71054292Y31208397D01*
X71179514Y31275329D01*
X71251097Y31519298D01*
X70438000Y32332395D01*
X69624903Y31519298D01*
X685000Y31519298D01*
X685000Y32441488D01*
X68997783Y32441488D01*
X69039213Y32161870D01*
X69134397Y31895708D01*
X69201329Y31770486D01*
X69445298Y31698903D01*
X70258395Y32512000D01*
X70617605Y32512000D01*
X71430702Y31698903D01*
X71674671Y31770486D01*
X71795571Y32025996D01*
X71864300Y32300184D01*
X71878217Y32582512D01*
X71836787Y32862130D01*
X71741603Y33128292D01*
X71674671Y33253514D01*
X71430702Y33325097D01*
X70617605Y32512000D01*
X70258395Y32512000D01*
X69445298Y33325097D01*
X69201329Y33253514D01*
X69080429Y32998004D01*
X69011700Y32723816D01*
X68997783Y32441488D01*
X685000Y32441488D01*
X685000Y33504702D01*
X69624903Y33504702D01*
X70438000Y32691605D01*
X71251097Y33504702D01*
X71179514Y33748671D01*
X70924004Y33869571D01*
X70649816Y33938300D01*
X70367488Y33952217D01*
X70087870Y33910787D01*
X69821708Y33815603D01*
X69696486Y33748671D01*
X69624903Y33504702D01*
X685000Y33504702D01*
X685000Y36453486D01*
X69023000Y36453486D01*
X69023000Y36190514D01*
X69074304Y35932595D01*
X69174939Y35689641D01*
X69321038Y35470987D01*
X69506987Y35285038D01*
X69725641Y35138939D01*
X69968595Y35038304D01*
X70226514Y34987000D01*
X70489486Y34987000D01*
X70747405Y35038304D01*
X70990359Y35138939D01*
X71209013Y35285038D01*
X71324706Y35400731D01*
X74696336Y35400731D01*
X74755797Y35166963D01*
X74994242Y35056066D01*
X75249740Y34993817D01*
X75512473Y34982610D01*
X75772344Y35022875D01*
X76019366Y35113065D01*
X76120203Y35166963D01*
X76179664Y35400731D01*
X75438000Y36142395D01*
X74696336Y35400731D01*
X71324706Y35400731D01*
X71394962Y35470987D01*
X71541061Y35689641D01*
X71641696Y35932595D01*
X71693000Y36190514D01*
X71693000Y36247527D01*
X74098610Y36247527D01*
X74138875Y35987656D01*
X74229065Y35740634D01*
X74282963Y35639797D01*
X74516731Y35580336D01*
X75258395Y36322000D01*
X75617605Y36322000D01*
X76359269Y35580336D01*
X76593037Y35639797D01*
X76703934Y35878242D01*
X76766183Y36133740D01*
X76777390Y36396473D01*
X76737125Y36656344D01*
X76646935Y36903366D01*
X76593037Y37004203D01*
X76359269Y37063664D01*
X75617605Y36322000D01*
X75258395Y36322000D01*
X74516731Y37063664D01*
X74282963Y37004203D01*
X74172066Y36765758D01*
X74109817Y36510260D01*
X74098610Y36247527D01*
X71693000Y36247527D01*
X71693000Y36453486D01*
X71641696Y36711405D01*
X71541061Y36954359D01*
X71394962Y37173013D01*
X71324706Y37243269D01*
X74696336Y37243269D01*
X75438000Y36501605D01*
X76179664Y37243269D01*
X76120203Y37477037D01*
X75881758Y37587934D01*
X75626260Y37650183D01*
X75363527Y37661390D01*
X75103656Y37621125D01*
X74856634Y37530935D01*
X74755797Y37477037D01*
X74696336Y37243269D01*
X71324706Y37243269D01*
X71209013Y37358962D01*
X70990359Y37505061D01*
X70747405Y37605696D01*
X70489486Y37657000D01*
X70226514Y37657000D01*
X69968595Y37605696D01*
X69725641Y37505061D01*
X69506987Y37358962D01*
X69321038Y37173013D01*
X69174939Y36954359D01*
X69074304Y36711405D01*
X69023000Y36453486D01*
X685000Y36453486D01*
X685000Y38739486D01*
X9587000Y38739486D01*
X9587000Y38476514D01*
X9638304Y38218595D01*
X9738939Y37975641D01*
X9885038Y37756987D01*
X10070987Y37571038D01*
X10289641Y37424939D01*
X10532595Y37324304D01*
X10790514Y37273000D01*
X11053486Y37273000D01*
X11311405Y37324304D01*
X11554359Y37424939D01*
X11773013Y37571038D01*
X11888706Y37686731D01*
X15260336Y37686731D01*
X15319797Y37452963D01*
X15558242Y37342066D01*
X15813740Y37279817D01*
X16076473Y37268610D01*
X16336344Y37308875D01*
X16583366Y37399065D01*
X16684203Y37452963D01*
X16743664Y37686731D01*
X16002000Y38428395D01*
X15260336Y37686731D01*
X11888706Y37686731D01*
X11958962Y37756987D01*
X12105061Y37975641D01*
X12205696Y38218595D01*
X12257000Y38476514D01*
X12257000Y38533527D01*
X14662610Y38533527D01*
X14702875Y38273656D01*
X14793065Y38026634D01*
X14846963Y37925797D01*
X15080731Y37866336D01*
X15822395Y38608000D01*
X16181605Y38608000D01*
X16923269Y37866336D01*
X17157037Y37925797D01*
X17267934Y38164242D01*
X17330183Y38419740D01*
X17341390Y38682473D01*
X17332557Y38739486D01*
X17461000Y38739486D01*
X17461000Y38476514D01*
X17512304Y38218595D01*
X17612939Y37975641D01*
X17759038Y37756987D01*
X17944987Y37571038D01*
X18163641Y37424939D01*
X18406595Y37324304D01*
X18664514Y37273000D01*
X18927486Y37273000D01*
X19185405Y37324304D01*
X19428359Y37424939D01*
X19647013Y37571038D01*
X19762706Y37686731D01*
X23134336Y37686731D01*
X23193797Y37452963D01*
X23432242Y37342066D01*
X23687740Y37279817D01*
X23950473Y37268610D01*
X24210344Y37308875D01*
X24457366Y37399065D01*
X24558203Y37452963D01*
X24617664Y37686731D01*
X23876000Y38428395D01*
X23134336Y37686731D01*
X19762706Y37686731D01*
X19832962Y37756987D01*
X19979061Y37975641D01*
X20079696Y38218595D01*
X20131000Y38476514D01*
X20131000Y38533527D01*
X22536610Y38533527D01*
X22576875Y38273656D01*
X22667065Y38026634D01*
X22720963Y37925797D01*
X22954731Y37866336D01*
X23696395Y38608000D01*
X24055605Y38608000D01*
X24797269Y37866336D01*
X25031037Y37925797D01*
X25141934Y38164242D01*
X25204183Y38419740D01*
X25215390Y38682473D01*
X25175125Y38942344D01*
X25084935Y39189366D01*
X25031037Y39290203D01*
X24797269Y39349664D01*
X24055605Y38608000D01*
X23696395Y38608000D01*
X22954731Y39349664D01*
X22720963Y39290203D01*
X22610066Y39051758D01*
X22547817Y38796260D01*
X22536610Y38533527D01*
X20131000Y38533527D01*
X20131000Y38739486D01*
X20079696Y38997405D01*
X19979061Y39240359D01*
X19832962Y39459013D01*
X19762706Y39529269D01*
X23134336Y39529269D01*
X23876000Y38787605D01*
X24617664Y39529269D01*
X24558203Y39763037D01*
X24319758Y39873934D01*
X24064260Y39936183D01*
X23801527Y39947390D01*
X23541656Y39907125D01*
X23294634Y39816935D01*
X23193797Y39763037D01*
X23134336Y39529269D01*
X19762706Y39529269D01*
X19647013Y39644962D01*
X19428359Y39791061D01*
X19185405Y39891696D01*
X18927486Y39943000D01*
X18664514Y39943000D01*
X18406595Y39891696D01*
X18163641Y39791061D01*
X17944987Y39644962D01*
X17759038Y39459013D01*
X17612939Y39240359D01*
X17512304Y38997405D01*
X17461000Y38739486D01*
X17332557Y38739486D01*
X17301125Y38942344D01*
X17210935Y39189366D01*
X17157037Y39290203D01*
X16923269Y39349664D01*
X16181605Y38608000D01*
X15822395Y38608000D01*
X15080731Y39349664D01*
X14846963Y39290203D01*
X14736066Y39051758D01*
X14673817Y38796260D01*
X14662610Y38533527D01*
X12257000Y38533527D01*
X12257000Y38739486D01*
X12205696Y38997405D01*
X12105061Y39240359D01*
X11958962Y39459013D01*
X11888706Y39529269D01*
X15260336Y39529269D01*
X16002000Y38787605D01*
X16743664Y39529269D01*
X16684203Y39763037D01*
X16445758Y39873934D01*
X16190260Y39936183D01*
X15927527Y39947390D01*
X15667656Y39907125D01*
X15420634Y39816935D01*
X15319797Y39763037D01*
X15260336Y39529269D01*
X11888706Y39529269D01*
X11773013Y39644962D01*
X11554359Y39791061D01*
X11311405Y39891696D01*
X11053486Y39943000D01*
X10790514Y39943000D01*
X10532595Y39891696D01*
X10289641Y39791061D01*
X10070987Y39644962D01*
X9885038Y39459013D01*
X9738939Y39240359D01*
X9638304Y38997405D01*
X9587000Y38739486D01*
X685000Y38739486D01*
X685000Y40156110D01*
X37928524Y40156110D01*
X37973175Y40008901D01*
X38098359Y39746080D01*
X38272412Y39512731D01*
X38488645Y39317822D01*
X38738748Y39168843D01*
X39013109Y39071519D01*
X39243000Y39192186D01*
X39243000Y40386000D01*
X39497000Y40386000D01*
X39497000Y39192186D01*
X39726891Y39071519D01*
X40001252Y39168843D01*
X40251355Y39317822D01*
X40467588Y39512731D01*
X40641641Y39746080D01*
X40766825Y40008901D01*
X40811476Y40156110D01*
X40690155Y40386000D01*
X39497000Y40386000D01*
X39243000Y40386000D01*
X38049845Y40386000D01*
X37928524Y40156110D01*
X685000Y40156110D01*
X685000Y47903184D01*
X10911000Y47903184D01*
X10911000Y47600816D01*
X10969989Y47304257D01*
X11085701Y47024905D01*
X11253688Y46773495D01*
X11467495Y46559688D01*
X11718905Y46391701D01*
X11998257Y46275989D01*
X12294816Y46217000D01*
X12597184Y46217000D01*
X12893743Y46275989D01*
X13173095Y46391701D01*
X13424505Y46559688D01*
X13490944Y46626127D01*
X13496498Y46607820D01*
X13555463Y46497506D01*
X13634815Y46400815D01*
X13731506Y46321463D01*
X13841820Y46262498D01*
X13961518Y46226188D01*
X14086000Y46213928D01*
X15886000Y46213928D01*
X16010482Y46226188D01*
X16130180Y46262498D01*
X16240494Y46321463D01*
X16337185Y46400815D01*
X16416537Y46497506D01*
X16475502Y46607820D01*
X16511812Y46727518D01*
X16524072Y46852000D01*
X16524072Y47903184D01*
X18785000Y47903184D01*
X18785000Y47600816D01*
X18843989Y47304257D01*
X18959701Y47024905D01*
X19127688Y46773495D01*
X19341495Y46559688D01*
X19592905Y46391701D01*
X19872257Y46275989D01*
X20168816Y46217000D01*
X20471184Y46217000D01*
X20767743Y46275989D01*
X21047095Y46391701D01*
X21298505Y46559688D01*
X21364944Y46626127D01*
X21370498Y46607820D01*
X21429463Y46497506D01*
X21508815Y46400815D01*
X21605506Y46321463D01*
X21715820Y46262498D01*
X21835518Y46226188D01*
X21960000Y46213928D01*
X23760000Y46213928D01*
X23884482Y46226188D01*
X24004180Y46262498D01*
X24114494Y46321463D01*
X24211185Y46400815D01*
X24290537Y46497506D01*
X24349502Y46607820D01*
X24385812Y46727518D01*
X24398072Y46852000D01*
X24398072Y48652000D01*
X24385812Y48776482D01*
X24349502Y48896180D01*
X24290537Y49006494D01*
X24211185Y49103185D01*
X24114494Y49182537D01*
X24004180Y49241502D01*
X23884482Y49277812D01*
X23760000Y49290072D01*
X21960000Y49290072D01*
X21835518Y49277812D01*
X21715820Y49241502D01*
X21605506Y49182537D01*
X21508815Y49103185D01*
X21429463Y49006494D01*
X21370498Y48896180D01*
X21364944Y48877873D01*
X21298505Y48944312D01*
X21047095Y49112299D01*
X20767743Y49228011D01*
X20471184Y49287000D01*
X20168816Y49287000D01*
X19872257Y49228011D01*
X19592905Y49112299D01*
X19341495Y48944312D01*
X19127688Y48730505D01*
X18959701Y48479095D01*
X18843989Y48199743D01*
X18785000Y47903184D01*
X16524072Y47903184D01*
X16524072Y48652000D01*
X16511812Y48776482D01*
X16475502Y48896180D01*
X16416537Y49006494D01*
X16337185Y49103185D01*
X16240494Y49182537D01*
X16130180Y49241502D01*
X16010482Y49277812D01*
X15886000Y49290072D01*
X14086000Y49290072D01*
X13961518Y49277812D01*
X13841820Y49241502D01*
X13731506Y49182537D01*
X13634815Y49103185D01*
X13555463Y49006494D01*
X13496498Y48896180D01*
X13490944Y48877873D01*
X13424505Y48944312D01*
X13173095Y49112299D01*
X12893743Y49228011D01*
X12597184Y49287000D01*
X12294816Y49287000D01*
X11998257Y49228011D01*
X11718905Y49112299D01*
X11467495Y48944312D01*
X11253688Y48730505D01*
X11085701Y48479095D01*
X10969989Y48199743D01*
X10911000Y47903184D01*
X685000Y47903184D01*
X685000Y54063000D01*
X37881928Y54063000D01*
X37881928Y52363000D01*
X37894188Y52238518D01*
X37930498Y52118820D01*
X37989463Y52008506D01*
X38068815Y51911815D01*
X38165506Y51832463D01*
X38275820Y51773498D01*
X38348380Y51751487D01*
X38216525Y51619632D01*
X38054010Y51376411D01*
X37942068Y51106158D01*
X37885000Y50819260D01*
X37885000Y50526740D01*
X37942068Y50239842D01*
X38054010Y49969589D01*
X38216525Y49726368D01*
X38423368Y49519525D01*
X38597760Y49403000D01*
X38423368Y49286475D01*
X38216525Y49079632D01*
X38054010Y48836411D01*
X37942068Y48566158D01*
X37885000Y48279260D01*
X37885000Y47986740D01*
X37942068Y47699842D01*
X38054010Y47429589D01*
X38216525Y47186368D01*
X38423368Y46979525D01*
X38597760Y46863000D01*
X38423368Y46746475D01*
X38216525Y46539632D01*
X38054010Y46296411D01*
X37942068Y46026158D01*
X37885000Y45739260D01*
X37885000Y45446740D01*
X37942068Y45159842D01*
X38054010Y44889589D01*
X38216525Y44646368D01*
X38423368Y44439525D01*
X38597760Y44323000D01*
X38423368Y44206475D01*
X38216525Y43999632D01*
X38054010Y43756411D01*
X37942068Y43486158D01*
X37885000Y43199260D01*
X37885000Y42906740D01*
X37942068Y42619842D01*
X38054010Y42349589D01*
X38216525Y42106368D01*
X38423368Y41899525D01*
X38605534Y41777805D01*
X38488645Y41708178D01*
X38272412Y41513269D01*
X38098359Y41279920D01*
X37973175Y41017099D01*
X37928524Y40869890D01*
X38049845Y40640000D01*
X39243000Y40640000D01*
X39243000Y40660000D01*
X39497000Y40660000D01*
X39497000Y40640000D01*
X40690155Y40640000D01*
X40811476Y40869890D01*
X40766825Y41017099D01*
X40641641Y41279920D01*
X40467588Y41513269D01*
X40251355Y41708178D01*
X40134466Y41777805D01*
X40316632Y41899525D01*
X40523475Y42106368D01*
X40685990Y42349589D01*
X40797932Y42619842D01*
X40855000Y42906740D01*
X40855000Y43199260D01*
X40797932Y43486158D01*
X40685990Y43756411D01*
X40523475Y43999632D01*
X40316632Y44206475D01*
X40142240Y44323000D01*
X40316632Y44439525D01*
X40523475Y44646368D01*
X40685990Y44889589D01*
X40797932Y45159842D01*
X40855000Y45446740D01*
X40855000Y45739260D01*
X40797932Y46026158D01*
X40685990Y46296411D01*
X40523475Y46539632D01*
X40316632Y46746475D01*
X40142240Y46863000D01*
X40316632Y46979525D01*
X40523475Y47186368D01*
X40648178Y47373000D01*
X45809465Y47373000D01*
X45912111Y47304414D01*
X46082271Y47233932D01*
X46262911Y47198000D01*
X46447089Y47198000D01*
X46627729Y47233932D01*
X46797889Y47304414D01*
X46951028Y47406738D01*
X47081262Y47536972D01*
X47183586Y47690111D01*
X47254068Y47860271D01*
X47290000Y48040911D01*
X47290000Y48225089D01*
X47254068Y48405729D01*
X47183586Y48575889D01*
X47081262Y48729028D01*
X46951028Y48859262D01*
X46797889Y48961586D01*
X46627729Y49032068D01*
X46447089Y49068000D01*
X46262911Y49068000D01*
X46082271Y49032068D01*
X45912111Y48961586D01*
X45809465Y48893000D01*
X40648178Y48893000D01*
X40523475Y49079632D01*
X40316632Y49286475D01*
X40263252Y49322142D01*
X40297246Y49332454D01*
X40429276Y49403026D01*
X40545001Y49497999D01*
X40639974Y49613724D01*
X40710546Y49745754D01*
X40754003Y49889014D01*
X40768677Y50038000D01*
X40758236Y50144007D01*
X40797932Y50239842D01*
X40855000Y50526740D01*
X40855000Y50819260D01*
X40797932Y51106158D01*
X40685990Y51376411D01*
X40523475Y51619632D01*
X40391620Y51751487D01*
X40464180Y51773498D01*
X40574494Y51832463D01*
X40671185Y51911815D01*
X40750537Y52008506D01*
X40809502Y52118820D01*
X40845812Y52238518D01*
X40858072Y52363000D01*
X40858072Y54063000D01*
X40845812Y54187482D01*
X40809502Y54307180D01*
X40750537Y54417494D01*
X40671185Y54514185D01*
X40574494Y54593537D01*
X40464180Y54652502D01*
X40344482Y54688812D01*
X40220000Y54701072D01*
X38520000Y54701072D01*
X38395518Y54688812D01*
X38275820Y54652502D01*
X38165506Y54593537D01*
X38068815Y54514185D01*
X37989463Y54417494D01*
X37930498Y54307180D01*
X37894188Y54187482D01*
X37881928Y54063000D01*
X685000Y54063000D01*
X685000Y57945647D01*
X675711Y58039956D01*
X691653Y58202542D01*
X776031Y58482018D01*
X913085Y58739780D01*
X1097599Y58966015D01*
X1322540Y59152103D01*
X1579342Y59290956D01*
X1858219Y59377282D01*
X2030268Y59395365D01*
X2125353Y59386000D01*
G37*
%TD.AperFunction*%
%TD*%
M02*
