%TF.GenerationSoftware,KiCad,Pcbnew,(5.1.10-1-10_14)*%
%TF.CreationDate,2021-08-31T23:49:44+02:00*%
%TF.ProjectId,serial_board,73657269-616c-45f6-926f-6172642e6b69,rev?*%
%TF.SameCoordinates,Original*%
%TF.FileFunction,Soldermask,Bot*%
%TF.FilePolarity,Negative*%
%FSLAX46Y46*%
G04 Gerber Fmt 4.6, Leading zero omitted, Abs format (unit mm)*
G04 Created by KiCad (PCBNEW (5.1.10-1-10_14)) date 2021-08-31 23:49:44*
%MOMM*%
%LPD*%
G01*
G04 APERTURE LIST*
%ADD10C,1.800000*%
%ADD11R,1.800000X1.800000*%
%ADD12O,1.400000X1.400000*%
%ADD13C,1.400000*%
%ADD14C,1.600000*%
%ADD15R,1.600000X1.600000*%
%ADD16O,1.600000X1.600000*%
%ADD17O,1.700000X1.700000*%
%ADD18R,1.700000X1.700000*%
G04 APERTURE END LIST*
D10*
%TO.C,D2*%
X20320000Y47752000D03*
D11*
X22860000Y47752000D03*
%TD*%
D10*
%TO.C,D1*%
X12446000Y47752000D03*
D11*
X14986000Y47752000D03*
%TD*%
D12*
%TO.C,R4*%
X70358000Y36322000D03*
D13*
X75438000Y36322000D03*
%TD*%
D12*
%TO.C,R3*%
X56388000Y11684000D03*
D13*
X51308000Y11684000D03*
%TD*%
D12*
%TO.C,R2*%
X18796000Y38608000D03*
D13*
X23876000Y38608000D03*
%TD*%
D12*
%TO.C,R1*%
X10922000Y38608000D03*
D13*
X16002000Y38608000D03*
%TD*%
D14*
%TO.C,C2*%
X70438000Y32512000D03*
X75438000Y32512000D03*
%TD*%
%TO.C,C1*%
X14478000Y19892000D03*
X14478000Y24892000D03*
%TD*%
%TO.C,X1*%
X26543000Y17145000D03*
X26543000Y24765000D03*
X18923000Y24765000D03*
D15*
X18923000Y17145000D03*
%TD*%
D16*
%TO.C,U1*%
X42545000Y29591000D03*
X75565000Y14351000D03*
X45085000Y29591000D03*
X73025000Y14351000D03*
X47625000Y29591000D03*
X70485000Y14351000D03*
X50165000Y29591000D03*
X67945000Y14351000D03*
X52705000Y29591000D03*
X65405000Y14351000D03*
X55245000Y29591000D03*
X62865000Y14351000D03*
X57785000Y29591000D03*
X60325000Y14351000D03*
X60325000Y29591000D03*
X57785000Y14351000D03*
X62865000Y29591000D03*
X55245000Y14351000D03*
X65405000Y29591000D03*
X52705000Y14351000D03*
X67945000Y29591000D03*
X50165000Y14351000D03*
X70485000Y29591000D03*
X47625000Y14351000D03*
X73025000Y29591000D03*
X45085000Y14351000D03*
X75565000Y29591000D03*
D15*
X42545000Y14351000D03*
%TD*%
D17*
%TO.C,J2*%
X39370000Y40513000D03*
X39370000Y43053000D03*
X39370000Y45593000D03*
X39370000Y48133000D03*
X39370000Y50673000D03*
D18*
X39370000Y53213000D03*
%TD*%
D17*
%TO.C,J1*%
X17272000Y4064000D03*
X17272000Y6604000D03*
X19812000Y4064000D03*
X19812000Y6604000D03*
X22352000Y4064000D03*
X22352000Y6604000D03*
X24892000Y4064000D03*
X24892000Y6604000D03*
X27432000Y4064000D03*
X27432000Y6604000D03*
X29972000Y4064000D03*
X29972000Y6604000D03*
X32512000Y4064000D03*
X32512000Y6604000D03*
X35052000Y4064000D03*
X35052000Y6604000D03*
X37592000Y4064000D03*
X37592000Y6604000D03*
X40132000Y4064000D03*
X40132000Y6604000D03*
X42672000Y4064000D03*
X42672000Y6604000D03*
X45212000Y4064000D03*
X45212000Y6604000D03*
X47752000Y4064000D03*
X47752000Y6604000D03*
X50292000Y4064000D03*
X50292000Y6604000D03*
X52832000Y4064000D03*
X52832000Y6604000D03*
X55372000Y4064000D03*
X55372000Y6604000D03*
X57912000Y4064000D03*
X57912000Y6604000D03*
X60452000Y4064000D03*
X60452000Y6604000D03*
X62992000Y4064000D03*
X62992000Y6604000D03*
X65532000Y4064000D03*
X65532000Y6604000D03*
X68072000Y4064000D03*
X68072000Y6604000D03*
X70612000Y4064000D03*
X70612000Y6604000D03*
X73152000Y4064000D03*
X73152000Y6604000D03*
X75692000Y4064000D03*
X75692000Y6604000D03*
X78232000Y4064000D03*
D18*
X78232000Y6604000D03*
%TD*%
M02*
