%TF.GenerationSoftware,KiCad,Pcbnew,(5.1.10-1-10_14)*%
%TF.CreationDate,2021-08-31T23:49:44+02:00*%
%TF.ProjectId,serial_board,73657269-616c-45f6-926f-6172642e6b69,rev?*%
%TF.SameCoordinates,Original*%
%TF.FileFunction,Copper,L1,Top*%
%TF.FilePolarity,Positive*%
%FSLAX46Y46*%
G04 Gerber Fmt 4.6, Leading zero omitted, Abs format (unit mm)*
G04 Created by KiCad (PCBNEW (5.1.10-1-10_14)) date 2021-08-31 23:49:44*
%MOMM*%
%LPD*%
G01*
G04 APERTURE LIST*
%TA.AperFunction,ComponentPad*%
%ADD10C,1.800000*%
%TD*%
%TA.AperFunction,ComponentPad*%
%ADD11R,1.800000X1.800000*%
%TD*%
%TA.AperFunction,ComponentPad*%
%ADD12O,1.400000X1.400000*%
%TD*%
%TA.AperFunction,ComponentPad*%
%ADD13C,1.400000*%
%TD*%
%TA.AperFunction,ComponentPad*%
%ADD14C,1.600000*%
%TD*%
%TA.AperFunction,ComponentPad*%
%ADD15R,1.600000X1.600000*%
%TD*%
%TA.AperFunction,ComponentPad*%
%ADD16O,1.600000X1.600000*%
%TD*%
%TA.AperFunction,ComponentPad*%
%ADD17O,1.700000X1.700000*%
%TD*%
%TA.AperFunction,ComponentPad*%
%ADD18R,1.700000X1.700000*%
%TD*%
%TA.AperFunction,ViaPad*%
%ADD19C,0.600000*%
%TD*%
%TA.AperFunction,Conductor*%
%ADD20C,1.000000*%
%TD*%
%TA.AperFunction,Conductor*%
%ADD21C,0.250000*%
%TD*%
%TA.AperFunction,Conductor*%
%ADD22C,0.254000*%
%TD*%
%TA.AperFunction,Conductor*%
%ADD23C,0.100000*%
%TD*%
G04 APERTURE END LIST*
D10*
%TO.P,D2,2*%
%TO.N,/RX*%
X20320000Y47752000D03*
D11*
%TO.P,D2,1*%
%TO.N,Net-(D2-Pad1)*%
X22860000Y47752000D03*
%TD*%
D10*
%TO.P,D1,2*%
%TO.N,/TX*%
X12446000Y47752000D03*
D11*
%TO.P,D1,1*%
%TO.N,Net-(D1-Pad1)*%
X14986000Y47752000D03*
%TD*%
D12*
%TO.P,R4,2*%
%TO.N,/~DSR~*%
X70358000Y36322000D03*
D13*
%TO.P,R4,1*%
%TO.N,GND*%
X75438000Y36322000D03*
%TD*%
D12*
%TO.P,R3,2*%
%TO.N,+5V*%
X56388000Y11684000D03*
D13*
%TO.P,R3,1*%
%TO.N,Net-(R3-Pad1)*%
X51308000Y11684000D03*
%TD*%
D12*
%TO.P,R2,2*%
%TO.N,Net-(D2-Pad1)*%
X18796000Y38608000D03*
D13*
%TO.P,R2,1*%
%TO.N,GND*%
X23876000Y38608000D03*
%TD*%
D12*
%TO.P,R1,2*%
%TO.N,Net-(D1-Pad1)*%
X10922000Y38608000D03*
D13*
%TO.P,R1,1*%
%TO.N,GND*%
X16002000Y38608000D03*
%TD*%
D14*
%TO.P,C2,2*%
%TO.N,GND*%
X70438000Y32512000D03*
%TO.P,C2,1*%
%TO.N,+5V*%
X75438000Y32512000D03*
%TD*%
%TO.P,C1,2*%
%TO.N,GND*%
X14478000Y19892000D03*
%TO.P,C1,1*%
%TO.N,+5V*%
X14478000Y24892000D03*
%TD*%
%TO.P,X1,4*%
%TO.N,GND*%
X26543000Y17145000D03*
%TO.P,X1,5*%
%TO.N,Net-(U1-Pad6)*%
X26543000Y24765000D03*
%TO.P,X1,8*%
%TO.N,+5V*%
X18923000Y24765000D03*
D15*
%TO.P,X1,1*%
%TO.N,Net-(X1-Pad1)*%
X18923000Y17145000D03*
%TD*%
D16*
%TO.P,U1,28*%
%TO.N,R~W~*%
X42545000Y29591000D03*
%TO.P,U1,14*%
%TO.N,A1*%
X75565000Y14351000D03*
%TO.P,U1,27*%
%TO.N,CLK*%
X45085000Y29591000D03*
%TO.P,U1,13*%
%TO.N,A0*%
X73025000Y14351000D03*
%TO.P,U1,26*%
%TO.N,~SLOT_IRQ~*%
X47625000Y29591000D03*
%TO.P,U1,12*%
%TO.N,/RX*%
X70485000Y14351000D03*
%TO.P,U1,25*%
%TO.N,D7*%
X50165000Y29591000D03*
%TO.P,U1,11*%
%TO.N,/~DTR~*%
X67945000Y14351000D03*
%TO.P,U1,24*%
%TO.N,D6*%
X52705000Y29591000D03*
%TO.P,U1,10*%
%TO.N,/TX*%
X65405000Y14351000D03*
%TO.P,U1,23*%
%TO.N,D5*%
X55245000Y29591000D03*
%TO.P,U1,9*%
%TO.N,GND*%
X62865000Y14351000D03*
%TO.P,U1,22*%
%TO.N,D4*%
X57785000Y29591000D03*
%TO.P,U1,8*%
%TO.N,/~RTS~*%
X60325000Y14351000D03*
%TO.P,U1,21*%
%TO.N,D3*%
X60325000Y29591000D03*
%TO.P,U1,7*%
%TO.N,Net-(U1-Pad7)*%
X57785000Y14351000D03*
%TO.P,U1,20*%
%TO.N,D2*%
X62865000Y29591000D03*
%TO.P,U1,6*%
%TO.N,Net-(U1-Pad6)*%
X55245000Y14351000D03*
%TO.P,U1,19*%
%TO.N,D1*%
X65405000Y29591000D03*
%TO.P,U1,5*%
%TO.N,Net-(U1-Pad5)*%
X52705000Y14351000D03*
%TO.P,U1,18*%
%TO.N,D0*%
X67945000Y29591000D03*
%TO.P,U1,4*%
%TO.N,~RESET~*%
X50165000Y14351000D03*
%TO.P,U1,17*%
%TO.N,/~DSR~*%
X70485000Y29591000D03*
%TO.P,U1,3*%
%TO.N,~SLOT_SEL~*%
X47625000Y14351000D03*
%TO.P,U1,16*%
%TO.N,GND*%
X73025000Y29591000D03*
%TO.P,U1,2*%
%TO.N,Net-(R3-Pad1)*%
X45085000Y14351000D03*
%TO.P,U1,15*%
%TO.N,+5V*%
X75565000Y29591000D03*
D15*
%TO.P,U1,1*%
%TO.N,GND*%
X42545000Y14351000D03*
%TD*%
D17*
%TO.P,J2,6*%
%TO.N,GND*%
X39370000Y40513000D03*
%TO.P,J2,5*%
%TO.N,/~RTS~*%
X39370000Y43053000D03*
%TO.P,J2,4*%
%TO.N,+5V*%
X39370000Y45593000D03*
%TO.P,J2,3*%
%TO.N,/RX*%
X39370000Y48133000D03*
%TO.P,J2,2*%
%TO.N,/TX*%
X39370000Y50673000D03*
D18*
%TO.P,J2,1*%
%TO.N,/~DSR~*%
X39370000Y53213000D03*
%TD*%
D17*
%TO.P,J1,50*%
%TO.N,~NMI~*%
X17272000Y4064000D03*
%TO.P,J1,49*%
%TO.N,~RESET~*%
X17272000Y6604000D03*
%TO.P,J1,48*%
%TO.N,~SLOT_IRQ~*%
X19812000Y4064000D03*
%TO.P,J1,47*%
%TO.N,SYNC*%
X19812000Y6604000D03*
%TO.P,J1,46*%
%TO.N,EX3*%
X22352000Y4064000D03*
%TO.P,J1,45*%
%TO.N,~IRQ~*%
X22352000Y6604000D03*
%TO.P,J1,44*%
%TO.N,EX2*%
X24892000Y4064000D03*
%TO.P,J1,43*%
%TO.N,R~W~*%
X24892000Y6604000D03*
%TO.P,J1,42*%
%TO.N,CLK_12M*%
X27432000Y4064000D03*
%TO.P,J1,41*%
%TO.N,CLK*%
X27432000Y6604000D03*
%TO.P,J1,40*%
%TO.N,LED4*%
X29972000Y4064000D03*
%TO.P,J1,39*%
%TO.N,BE*%
X29972000Y6604000D03*
%TO.P,J1,38*%
%TO.N,LED3*%
X32512000Y4064000D03*
%TO.P,J1,37*%
%TO.N,RDY*%
X32512000Y6604000D03*
%TO.P,J1,36*%
%TO.N,LED2*%
X35052000Y4064000D03*
%TO.P,J1,35*%
%TO.N,A15*%
X35052000Y6604000D03*
%TO.P,J1,34*%
%TO.N,LED1*%
X37592000Y4064000D03*
%TO.P,J1,33*%
%TO.N,A14*%
X37592000Y6604000D03*
%TO.P,J1,32*%
%TO.N,~SLOT_SEL~*%
X40132000Y4064000D03*
%TO.P,J1,31*%
%TO.N,A13*%
X40132000Y6604000D03*
%TO.P,J1,30*%
%TO.N,~INH~*%
X42672000Y4064000D03*
%TO.P,J1,29*%
%TO.N,A12*%
X42672000Y6604000D03*
%TO.P,J1,28*%
%TO.N,~SSEL~*%
X45212000Y4064000D03*
%TO.P,J1,27*%
%TO.N,A11*%
X45212000Y6604000D03*
%TO.P,J1,26*%
%TO.N,GND*%
X47752000Y4064000D03*
%TO.P,J1,25*%
%TO.N,+5V*%
X47752000Y6604000D03*
%TO.P,J1,24*%
X50292000Y4064000D03*
%TO.P,J1,23*%
%TO.N,GND*%
X50292000Y6604000D03*
%TO.P,J1,22*%
%TO.N,~SLOW~*%
X52832000Y4064000D03*
%TO.P,J1,21*%
%TO.N,A10*%
X52832000Y6604000D03*
%TO.P,J1,20*%
%TO.N,EX1*%
X55372000Y4064000D03*
%TO.P,J1,19*%
%TO.N,A9*%
X55372000Y6604000D03*
%TO.P,J1,18*%
%TO.N,EX0*%
X57912000Y4064000D03*
%TO.P,J1,17*%
%TO.N,A8*%
X57912000Y6604000D03*
%TO.P,J1,16*%
%TO.N,D7*%
X60452000Y4064000D03*
%TO.P,J1,15*%
%TO.N,A7*%
X60452000Y6604000D03*
%TO.P,J1,14*%
%TO.N,D6*%
X62992000Y4064000D03*
%TO.P,J1,13*%
%TO.N,A6*%
X62992000Y6604000D03*
%TO.P,J1,12*%
%TO.N,D5*%
X65532000Y4064000D03*
%TO.P,J1,11*%
%TO.N,A5*%
X65532000Y6604000D03*
%TO.P,J1,10*%
%TO.N,D4*%
X68072000Y4064000D03*
%TO.P,J1,9*%
%TO.N,A4*%
X68072000Y6604000D03*
%TO.P,J1,8*%
%TO.N,D3*%
X70612000Y4064000D03*
%TO.P,J1,7*%
%TO.N,A3*%
X70612000Y6604000D03*
%TO.P,J1,6*%
%TO.N,D2*%
X73152000Y4064000D03*
%TO.P,J1,5*%
%TO.N,A2*%
X73152000Y6604000D03*
%TO.P,J1,4*%
%TO.N,D1*%
X75692000Y4064000D03*
%TO.P,J1,3*%
%TO.N,A1*%
X75692000Y6604000D03*
%TO.P,J1,2*%
%TO.N,D0*%
X78232000Y4064000D03*
D18*
%TO.P,J1,1*%
%TO.N,A0*%
X78232000Y6604000D03*
%TD*%
D19*
%TO.N,A0*%
X75438000Y8128000D03*
%TO.N,~RESET~*%
X43942000Y7874000D03*
%TO.N,~SLOT_IRQ~*%
X41656000Y28067000D03*
%TO.N,Net-(U1-Pad6)*%
X41529000Y19177000D03*
X36322000Y21209000D03*
%TO.N,/RX*%
X46355000Y48133000D03*
%TD*%
D20*
%TO.N,+5V*%
X50292000Y4064000D02*
X47752000Y6604000D01*
D21*
%TO.N,D7*%
X56659999Y13810999D02*
X56659999Y23096001D01*
X56659999Y23096001D02*
X50165000Y29591000D01*
X59276999Y11193999D02*
X56659999Y13810999D01*
X59276999Y5239001D02*
X59276999Y11193999D01*
X60452000Y4064000D02*
X59276999Y5239001D01*
%TO.N,D6*%
X61816999Y11193999D02*
X59199999Y13810999D01*
X61816999Y5239001D02*
X61816999Y11193999D01*
X59199999Y23096001D02*
X52705000Y29591000D01*
X59199999Y13810999D02*
X59199999Y23096001D01*
X62992000Y4064000D02*
X61816999Y5239001D01*
%TO.N,D5*%
X65532000Y4064000D02*
X64356999Y5239001D01*
X64356999Y11193999D02*
X61450001Y14100997D01*
X64356999Y5239001D02*
X64356999Y11193999D01*
X61450001Y14100997D02*
X61450001Y23385999D01*
X61450001Y23385999D02*
X55245000Y29591000D01*
%TO.N,D4*%
X63990001Y23385999D02*
X57785000Y29591000D01*
X63990001Y14100997D02*
X63990001Y23385999D01*
X66896999Y11193999D02*
X63990001Y14100997D01*
X66896999Y5239001D02*
X66896999Y11193999D01*
X68072000Y4064000D02*
X66896999Y5239001D01*
%TO.N,D3*%
X66530001Y23385999D02*
X60325000Y29591000D01*
X66530001Y14100997D02*
X66530001Y23385999D01*
X69436999Y11193999D02*
X66530001Y14100997D01*
X69436999Y5239001D02*
X69436999Y11193999D01*
X70612000Y4064000D02*
X69436999Y5239001D01*
%TO.N,D2*%
X69070001Y14100997D02*
X69070001Y23385999D01*
X71976999Y11193999D02*
X69070001Y14100997D01*
X71976999Y5239001D02*
X71976999Y11193999D01*
X69070001Y23385999D02*
X62865000Y29591000D01*
X73152000Y4064000D02*
X71976999Y5239001D01*
%TO.N,D1*%
X74516999Y5239001D02*
X74516999Y10825591D01*
X75692000Y4064000D02*
X74516999Y5239001D01*
X71610001Y23385999D02*
X65405000Y29591000D01*
X74516999Y10825591D02*
X71610001Y13732589D01*
X71610001Y13732589D02*
X71610001Y23385999D01*
%TO.N,A1*%
X76364999Y7276999D02*
X75692000Y6604000D01*
X76364999Y13551001D02*
X76364999Y7276999D01*
X75565000Y14351000D02*
X76364999Y13551001D01*
%TO.N,D0*%
X77056999Y20479001D02*
X67945000Y29591000D01*
X77056999Y5239001D02*
X77056999Y20479001D01*
X78232000Y4064000D02*
X77056999Y5239001D01*
%TO.N,A0*%
X75438000Y10541000D02*
X75438000Y10541000D01*
X75438000Y11938000D02*
X75438000Y8128000D01*
X73025000Y14351000D02*
X75438000Y11938000D01*
%TO.N,CLK*%
X45085000Y24257000D02*
X27432000Y6604000D01*
X45085000Y29591000D02*
X45085000Y24257000D01*
%TO.N,~RESET~*%
X50165000Y14351000D02*
X43942000Y8128000D01*
X43942000Y8128000D02*
X43942000Y7874000D01*
%TO.N,~SLOT_IRQ~*%
X23716999Y6229997D02*
X23716999Y7460999D01*
X21176999Y5428999D02*
X22916001Y5428999D01*
X22916001Y5428999D02*
X23716999Y6229997D01*
X19812000Y4064000D02*
X21176999Y5428999D01*
X23716999Y7460999D02*
X41656000Y25400000D01*
X41656000Y25400000D02*
X41656000Y28067000D01*
X41656000Y28067000D02*
X41656000Y28067000D01*
%TO.N,R~W~*%
X42545000Y24257000D02*
X24892000Y6604000D01*
X42545000Y29591000D02*
X42545000Y24257000D01*
%TO.N,~SLOT_SEL~*%
X41307001Y8033001D02*
X47625000Y14351000D01*
X41307001Y5239001D02*
X41307001Y8033001D01*
X40132000Y4064000D02*
X41307001Y5239001D01*
%TO.N,Net-(U1-Pad6)*%
X55245000Y14351000D02*
X50419000Y19177000D01*
X50419000Y19177000D02*
X41529000Y19177000D01*
X41529000Y19177000D02*
X41402000Y19177000D01*
X30099000Y21209000D02*
X26543000Y24765000D01*
X36322000Y21209000D02*
X30099000Y21209000D01*
%TO.N,Net-(D1-Pad1)*%
X14986000Y42672000D02*
X10922000Y38608000D01*
X14986000Y47752000D02*
X14986000Y42672000D01*
%TO.N,Net-(D2-Pad1)*%
X22860000Y42672000D02*
X18796000Y38608000D01*
X22860000Y47752000D02*
X22860000Y42672000D01*
%TO.N,Net-(R3-Pad1)*%
X46210001Y15476001D02*
X45085000Y14351000D01*
X51290001Y14891001D02*
X50705001Y15476001D01*
X50705001Y15476001D02*
X46210001Y15476001D01*
X51290001Y12073999D02*
X51290001Y14891001D01*
X51680000Y11684000D02*
X51290001Y12073999D01*
%TO.N,/TX*%
X58910001Y31132999D02*
X39370000Y50673000D01*
X58910001Y29340997D02*
X58910001Y31132999D01*
X65405000Y22845998D02*
X58910001Y29340997D01*
X65405000Y14351000D02*
X65405000Y22845998D01*
X15367000Y50673000D02*
X12446000Y47752000D01*
X39370000Y50673000D02*
X15367000Y50673000D01*
%TO.N,/RX*%
X63990001Y29340997D02*
X63990001Y30497999D01*
X70485000Y22845998D02*
X63990001Y29340997D01*
X70485000Y14351000D02*
X70485000Y22845998D01*
X63990001Y30497999D02*
X46355000Y48133000D01*
X46355000Y48133000D02*
X46355000Y48133000D01*
X21550999Y48982999D02*
X20320000Y47752000D01*
X38520001Y48982999D02*
X21550999Y48982999D01*
X39370000Y48133000D02*
X38520001Y48982999D01*
%TO.N,/~RTS~*%
X43448002Y43053000D02*
X39370000Y43053000D01*
X53830001Y32671001D02*
X53378751Y33122251D01*
X53378751Y33122251D02*
X43448002Y43053000D01*
X60325000Y14351000D02*
X60325000Y22845998D01*
X53830001Y29340997D02*
X53830001Y32671001D01*
X60325000Y22845998D02*
X53830001Y29340997D01*
%TO.N,/~DSR~*%
X39370000Y53213000D02*
X39370000Y52412002D01*
X70358000Y36322000D02*
X67056000Y33020000D01*
X70485000Y29591000D02*
X67056000Y33020000D01*
X40470000Y53213000D02*
X39370000Y53213000D01*
X44661000Y49022000D02*
X40470000Y53213000D01*
X46482000Y49022000D02*
X44661000Y49022000D01*
X62484000Y33020000D02*
X46482000Y49022000D01*
X67056000Y33020000D02*
X62484000Y33020000D01*
%TD*%
D22*
%TO.N,+5V*%
X2125353Y59386000D02*
X78646647Y59386000D01*
X78740956Y59395289D01*
X78903542Y59379347D01*
X79183018Y59294969D01*
X79440780Y59157915D01*
X79667015Y58973401D01*
X79853103Y58748460D01*
X79991956Y58491658D01*
X80078282Y58212781D01*
X80096365Y58040731D01*
X80087000Y57945646D01*
X80087001Y685000D01*
X14218381Y685000D01*
X685000Y14218380D01*
X685000Y17945000D01*
X17484928Y17945000D01*
X17484928Y16345000D01*
X17497188Y16220518D01*
X17533498Y16100820D01*
X17592463Y15990506D01*
X17671815Y15893815D01*
X17768506Y15814463D01*
X17878820Y15755498D01*
X17998518Y15719188D01*
X18123000Y15706928D01*
X19723000Y15706928D01*
X19847482Y15719188D01*
X19967180Y15755498D01*
X20077494Y15814463D01*
X20174185Y15893815D01*
X20253537Y15990506D01*
X20312502Y16100820D01*
X20348812Y16220518D01*
X20361072Y16345000D01*
X20361072Y17286335D01*
X25108000Y17286335D01*
X25108000Y17003665D01*
X25163147Y16726426D01*
X25271320Y16465273D01*
X25428363Y16230241D01*
X25628241Y16030363D01*
X25863273Y15873320D01*
X26124426Y15765147D01*
X26401665Y15710000D01*
X26684335Y15710000D01*
X26961574Y15765147D01*
X27222727Y15873320D01*
X27457759Y16030363D01*
X27657637Y16230241D01*
X27814680Y16465273D01*
X27922853Y16726426D01*
X27978000Y17003665D01*
X27978000Y17286335D01*
X27922853Y17563574D01*
X27814680Y17824727D01*
X27657637Y18059759D01*
X27457759Y18259637D01*
X27222727Y18416680D01*
X26961574Y18524853D01*
X26684335Y18580000D01*
X26401665Y18580000D01*
X26124426Y18524853D01*
X25863273Y18416680D01*
X25628241Y18259637D01*
X25428363Y18059759D01*
X25271320Y17824727D01*
X25163147Y17563574D01*
X25108000Y17286335D01*
X20361072Y17286335D01*
X20361072Y17945000D01*
X20348812Y18069482D01*
X20312502Y18189180D01*
X20253537Y18299494D01*
X20174185Y18396185D01*
X20077494Y18475537D01*
X19967180Y18534502D01*
X19847482Y18570812D01*
X19723000Y18583072D01*
X18123000Y18583072D01*
X17998518Y18570812D01*
X17878820Y18534502D01*
X17768506Y18475537D01*
X17671815Y18396185D01*
X17592463Y18299494D01*
X17533498Y18189180D01*
X17497188Y18069482D01*
X17484928Y17945000D01*
X685000Y17945000D01*
X685000Y20033335D01*
X13043000Y20033335D01*
X13043000Y19750665D01*
X13098147Y19473426D01*
X13206320Y19212273D01*
X13363363Y18977241D01*
X13563241Y18777363D01*
X13798273Y18620320D01*
X14059426Y18512147D01*
X14336665Y18457000D01*
X14619335Y18457000D01*
X14896574Y18512147D01*
X15157727Y18620320D01*
X15392759Y18777363D01*
X15592637Y18977241D01*
X15749680Y19212273D01*
X15857853Y19473426D01*
X15913000Y19750665D01*
X15913000Y20033335D01*
X15857853Y20310574D01*
X15749680Y20571727D01*
X15592637Y20806759D01*
X15392759Y21006637D01*
X15157727Y21163680D01*
X14896574Y21271853D01*
X14619335Y21327000D01*
X14336665Y21327000D01*
X14059426Y21271853D01*
X13798273Y21163680D01*
X13563241Y21006637D01*
X13363363Y20806759D01*
X13206320Y20571727D01*
X13098147Y20310574D01*
X13043000Y20033335D01*
X685000Y20033335D01*
X685000Y23899298D01*
X13664903Y23899298D01*
X13736486Y23655329D01*
X13991996Y23534429D01*
X14266184Y23465700D01*
X14548512Y23451783D01*
X14828130Y23493213D01*
X15094292Y23588397D01*
X15219514Y23655329D01*
X15253833Y23772298D01*
X18109903Y23772298D01*
X18181486Y23528329D01*
X18436996Y23407429D01*
X18711184Y23338700D01*
X18993512Y23324783D01*
X19273130Y23366213D01*
X19539292Y23461397D01*
X19664514Y23528329D01*
X19736097Y23772298D01*
X18923000Y24585395D01*
X18109903Y23772298D01*
X15253833Y23772298D01*
X15291097Y23899298D01*
X14478000Y24712395D01*
X13664903Y23899298D01*
X685000Y23899298D01*
X685000Y24821488D01*
X13037783Y24821488D01*
X13079213Y24541870D01*
X13174397Y24275708D01*
X13241329Y24150486D01*
X13485298Y24078903D01*
X14298395Y24892000D01*
X14657605Y24892000D01*
X15470702Y24078903D01*
X15714671Y24150486D01*
X15835571Y24405996D01*
X15904300Y24680184D01*
X15905005Y24694488D01*
X17482783Y24694488D01*
X17524213Y24414870D01*
X17619397Y24148708D01*
X17686329Y24023486D01*
X17930298Y23951903D01*
X18743395Y24765000D01*
X19102605Y24765000D01*
X19915702Y23951903D01*
X20159671Y24023486D01*
X20280571Y24278996D01*
X20349300Y24553184D01*
X20363217Y24835512D01*
X20321787Y25115130D01*
X20226603Y25381292D01*
X20159671Y25506514D01*
X19915702Y25578097D01*
X19102605Y24765000D01*
X18743395Y24765000D01*
X17930298Y25578097D01*
X17686329Y25506514D01*
X17565429Y25251004D01*
X17496700Y24976816D01*
X17482783Y24694488D01*
X15905005Y24694488D01*
X15918217Y24962512D01*
X15876787Y25242130D01*
X15781603Y25508292D01*
X15714671Y25633514D01*
X15470702Y25705097D01*
X14657605Y24892000D01*
X14298395Y24892000D01*
X13485298Y25705097D01*
X13241329Y25633514D01*
X13120429Y25378004D01*
X13051700Y25103816D01*
X13037783Y24821488D01*
X685000Y24821488D01*
X685000Y25884702D01*
X13664903Y25884702D01*
X14478000Y25071605D01*
X15164097Y25757702D01*
X18109903Y25757702D01*
X18923000Y24944605D01*
X19736097Y25757702D01*
X19664514Y26001671D01*
X19409004Y26122571D01*
X19134816Y26191300D01*
X18852488Y26205217D01*
X18572870Y26163787D01*
X18306708Y26068603D01*
X18181486Y26001671D01*
X18109903Y25757702D01*
X15164097Y25757702D01*
X15291097Y25884702D01*
X15219514Y26128671D01*
X14964004Y26249571D01*
X14689816Y26318300D01*
X14407488Y26332217D01*
X14127870Y26290787D01*
X13861708Y26195603D01*
X13736486Y26128671D01*
X13664903Y25884702D01*
X685000Y25884702D01*
X685000Y38739486D01*
X9587000Y38739486D01*
X9587000Y38476514D01*
X9638304Y38218595D01*
X9738939Y37975641D01*
X9885038Y37756987D01*
X10070987Y37571038D01*
X10289641Y37424939D01*
X10532595Y37324304D01*
X10790514Y37273000D01*
X11053486Y37273000D01*
X11311405Y37324304D01*
X11554359Y37424939D01*
X11773013Y37571038D01*
X11958962Y37756987D01*
X12105061Y37975641D01*
X12205696Y38218595D01*
X12257000Y38476514D01*
X12257000Y38739486D01*
X14667000Y38739486D01*
X14667000Y38476514D01*
X14718304Y38218595D01*
X14818939Y37975641D01*
X14965038Y37756987D01*
X15150987Y37571038D01*
X15369641Y37424939D01*
X15612595Y37324304D01*
X15870514Y37273000D01*
X16133486Y37273000D01*
X16391405Y37324304D01*
X16634359Y37424939D01*
X16853013Y37571038D01*
X17038962Y37756987D01*
X17185061Y37975641D01*
X17285696Y38218595D01*
X17337000Y38476514D01*
X17337000Y38739486D01*
X17285696Y38997405D01*
X17185061Y39240359D01*
X17038962Y39459013D01*
X16853013Y39644962D01*
X16634359Y39791061D01*
X16391405Y39891696D01*
X16133486Y39943000D01*
X15870514Y39943000D01*
X15612595Y39891696D01*
X15369641Y39791061D01*
X15150987Y39644962D01*
X14965038Y39459013D01*
X14818939Y39240359D01*
X14718304Y38997405D01*
X14667000Y38739486D01*
X12257000Y38739486D01*
X12235645Y38846844D01*
X15497003Y42108201D01*
X15526001Y42131999D01*
X15552332Y42164083D01*
X15620974Y42247723D01*
X15691546Y42379753D01*
X15703156Y42418026D01*
X15735003Y42523014D01*
X15746000Y42634667D01*
X15746000Y42634677D01*
X15749676Y42672000D01*
X15746000Y42709323D01*
X15746000Y46213928D01*
X15886000Y46213928D01*
X16010482Y46226188D01*
X16130180Y46262498D01*
X16240494Y46321463D01*
X16337185Y46400815D01*
X16416537Y46497506D01*
X16475502Y46607820D01*
X16511812Y46727518D01*
X16524072Y46852000D01*
X16524072Y48652000D01*
X16511812Y48776482D01*
X16475502Y48896180D01*
X16416537Y49006494D01*
X16337185Y49103185D01*
X16240494Y49182537D01*
X16130180Y49241502D01*
X16010482Y49277812D01*
X15886000Y49290072D01*
X15058874Y49290072D01*
X15681802Y49913000D01*
X38091822Y49913000D01*
X38205413Y49742999D01*
X21588321Y49742999D01*
X21550998Y49746675D01*
X21513675Y49742999D01*
X21513666Y49742999D01*
X21402013Y49732002D01*
X21258752Y49688545D01*
X21126723Y49617973D01*
X21126721Y49617972D01*
X21126722Y49617972D01*
X21039995Y49546798D01*
X21039991Y49546794D01*
X21010998Y49523000D01*
X20987204Y49494007D01*
X20728929Y49235732D01*
X20471184Y49287000D01*
X20168816Y49287000D01*
X19872257Y49228011D01*
X19592905Y49112299D01*
X19341495Y48944312D01*
X19127688Y48730505D01*
X18959701Y48479095D01*
X18843989Y48199743D01*
X18785000Y47903184D01*
X18785000Y47600816D01*
X18843989Y47304257D01*
X18959701Y47024905D01*
X19127688Y46773495D01*
X19341495Y46559688D01*
X19592905Y46391701D01*
X19872257Y46275989D01*
X20168816Y46217000D01*
X20471184Y46217000D01*
X20767743Y46275989D01*
X21047095Y46391701D01*
X21298505Y46559688D01*
X21364944Y46626127D01*
X21370498Y46607820D01*
X21429463Y46497506D01*
X21508815Y46400815D01*
X21605506Y46321463D01*
X21715820Y46262498D01*
X21835518Y46226188D01*
X21960000Y46213928D01*
X22100000Y46213928D01*
X22100001Y42986803D01*
X19034844Y39921645D01*
X18927486Y39943000D01*
X18664514Y39943000D01*
X18406595Y39891696D01*
X18163641Y39791061D01*
X17944987Y39644962D01*
X17759038Y39459013D01*
X17612939Y39240359D01*
X17512304Y38997405D01*
X17461000Y38739486D01*
X17461000Y38476514D01*
X17512304Y38218595D01*
X17612939Y37975641D01*
X17759038Y37756987D01*
X17944987Y37571038D01*
X18163641Y37424939D01*
X18406595Y37324304D01*
X18664514Y37273000D01*
X18927486Y37273000D01*
X19185405Y37324304D01*
X19428359Y37424939D01*
X19647013Y37571038D01*
X19832962Y37756987D01*
X19979061Y37975641D01*
X20079696Y38218595D01*
X20131000Y38476514D01*
X20131000Y38739486D01*
X22541000Y38739486D01*
X22541000Y38476514D01*
X22592304Y38218595D01*
X22692939Y37975641D01*
X22839038Y37756987D01*
X23024987Y37571038D01*
X23243641Y37424939D01*
X23486595Y37324304D01*
X23744514Y37273000D01*
X24007486Y37273000D01*
X24265405Y37324304D01*
X24508359Y37424939D01*
X24727013Y37571038D01*
X24912962Y37756987D01*
X25059061Y37975641D01*
X25159696Y38218595D01*
X25211000Y38476514D01*
X25211000Y38739486D01*
X25159696Y38997405D01*
X25059061Y39240359D01*
X24912962Y39459013D01*
X24727013Y39644962D01*
X24508359Y39791061D01*
X24265405Y39891696D01*
X24007486Y39943000D01*
X23744514Y39943000D01*
X23486595Y39891696D01*
X23243641Y39791061D01*
X23024987Y39644962D01*
X22839038Y39459013D01*
X22692939Y39240359D01*
X22592304Y38997405D01*
X22541000Y38739486D01*
X20131000Y38739486D01*
X20109645Y38846844D01*
X23371003Y42108201D01*
X23400001Y42131999D01*
X23426332Y42164083D01*
X23494974Y42247723D01*
X23565546Y42379753D01*
X23577156Y42418026D01*
X23609003Y42523014D01*
X23620000Y42634667D01*
X23620000Y42634677D01*
X23623676Y42672000D01*
X23620000Y42709323D01*
X23620000Y46213928D01*
X23760000Y46213928D01*
X23884482Y46226188D01*
X24004180Y46262498D01*
X24114494Y46321463D01*
X24211185Y46400815D01*
X24290537Y46497506D01*
X24349502Y46607820D01*
X24385812Y46727518D01*
X24398072Y46852000D01*
X24398072Y48222999D01*
X37885000Y48222999D01*
X37885000Y47986740D01*
X37942068Y47699842D01*
X38054010Y47429589D01*
X38216525Y47186368D01*
X38423368Y46979525D01*
X38605534Y46857805D01*
X38488645Y46788178D01*
X38272412Y46593269D01*
X38098359Y46359920D01*
X37973175Y46097099D01*
X37928524Y45949890D01*
X38049845Y45720000D01*
X39243000Y45720000D01*
X39243000Y45740000D01*
X39497000Y45740000D01*
X39497000Y45720000D01*
X40690155Y45720000D01*
X40811476Y45949890D01*
X40766825Y46097099D01*
X40641641Y46359920D01*
X40467588Y46593269D01*
X40251355Y46788178D01*
X40134466Y46857805D01*
X40316632Y46979525D01*
X40523475Y47186368D01*
X40685990Y47429589D01*
X40797932Y47699842D01*
X40855000Y47986740D01*
X40855000Y48113199D01*
X57946136Y31022061D01*
X57926335Y31026000D01*
X57643665Y31026000D01*
X57366426Y30970853D01*
X57105273Y30862680D01*
X56870241Y30705637D01*
X56670363Y30505759D01*
X56515000Y30273241D01*
X56359637Y30505759D01*
X56159759Y30705637D01*
X55924727Y30862680D01*
X55663574Y30970853D01*
X55386335Y31026000D01*
X55103665Y31026000D01*
X54826426Y30970853D01*
X54590001Y30872923D01*
X54590001Y32633678D01*
X54593677Y32671001D01*
X54590001Y32708324D01*
X54590001Y32708334D01*
X54579004Y32819987D01*
X54535547Y32963248D01*
X54464975Y33095277D01*
X54370002Y33211002D01*
X54340998Y33234805D01*
X53942555Y33633248D01*
X53942550Y33633254D01*
X44011806Y43563997D01*
X43988003Y43593001D01*
X43872278Y43687974D01*
X43740249Y43758546D01*
X43596988Y43802003D01*
X43485335Y43813000D01*
X43485324Y43813000D01*
X43448002Y43816676D01*
X43410680Y43813000D01*
X40648178Y43813000D01*
X40523475Y43999632D01*
X40316632Y44206475D01*
X40134466Y44328195D01*
X40251355Y44397822D01*
X40467588Y44592731D01*
X40641641Y44826080D01*
X40766825Y45088901D01*
X40811476Y45236110D01*
X40690155Y45466000D01*
X39497000Y45466000D01*
X39497000Y45446000D01*
X39243000Y45446000D01*
X39243000Y45466000D01*
X38049845Y45466000D01*
X37928524Y45236110D01*
X37973175Y45088901D01*
X38098359Y44826080D01*
X38272412Y44592731D01*
X38488645Y44397822D01*
X38605534Y44328195D01*
X38423368Y44206475D01*
X38216525Y43999632D01*
X38054010Y43756411D01*
X37942068Y43486158D01*
X37885000Y43199260D01*
X37885000Y42906740D01*
X37942068Y42619842D01*
X38054010Y42349589D01*
X38216525Y42106368D01*
X38423368Y41899525D01*
X38597760Y41783000D01*
X38423368Y41666475D01*
X38216525Y41459632D01*
X38054010Y41216411D01*
X37942068Y40946158D01*
X37885000Y40659260D01*
X37885000Y40366740D01*
X37942068Y40079842D01*
X38054010Y39809589D01*
X38216525Y39566368D01*
X38423368Y39359525D01*
X38666589Y39197010D01*
X38936842Y39085068D01*
X39223740Y39028000D01*
X39516260Y39028000D01*
X39803158Y39085068D01*
X40073411Y39197010D01*
X40316632Y39359525D01*
X40523475Y39566368D01*
X40685990Y39809589D01*
X40797932Y40079842D01*
X40855000Y40366740D01*
X40855000Y40659260D01*
X40797932Y40946158D01*
X40685990Y41216411D01*
X40523475Y41459632D01*
X40316632Y41666475D01*
X40142240Y41783000D01*
X40316632Y41899525D01*
X40523475Y42106368D01*
X40648178Y42293000D01*
X43133201Y42293000D01*
X52867748Y32558452D01*
X52867754Y32558447D01*
X53070002Y32356199D01*
X53070001Y30981509D01*
X52846335Y31026000D01*
X52563665Y31026000D01*
X52286426Y30970853D01*
X52025273Y30862680D01*
X51790241Y30705637D01*
X51590363Y30505759D01*
X51435000Y30273241D01*
X51279637Y30505759D01*
X51079759Y30705637D01*
X50844727Y30862680D01*
X50583574Y30970853D01*
X50306335Y31026000D01*
X50023665Y31026000D01*
X49746426Y30970853D01*
X49485273Y30862680D01*
X49250241Y30705637D01*
X49050363Y30505759D01*
X48895000Y30273241D01*
X48739637Y30505759D01*
X48539759Y30705637D01*
X48304727Y30862680D01*
X48043574Y30970853D01*
X47766335Y31026000D01*
X47483665Y31026000D01*
X47206426Y30970853D01*
X46945273Y30862680D01*
X46710241Y30705637D01*
X46510363Y30505759D01*
X46355000Y30273241D01*
X46199637Y30505759D01*
X45999759Y30705637D01*
X45764727Y30862680D01*
X45503574Y30970853D01*
X45226335Y31026000D01*
X44943665Y31026000D01*
X44666426Y30970853D01*
X44405273Y30862680D01*
X44170241Y30705637D01*
X43970363Y30505759D01*
X43815000Y30273241D01*
X43659637Y30505759D01*
X43459759Y30705637D01*
X43224727Y30862680D01*
X42963574Y30970853D01*
X42686335Y31026000D01*
X42403665Y31026000D01*
X42126426Y30970853D01*
X41865273Y30862680D01*
X41630241Y30705637D01*
X41430363Y30505759D01*
X41273320Y30270727D01*
X41165147Y30009574D01*
X41110000Y29732335D01*
X41110000Y29449665D01*
X41165147Y29172426D01*
X41270049Y28919170D01*
X41213111Y28895586D01*
X41059972Y28793262D01*
X40929738Y28663028D01*
X40827414Y28509889D01*
X40756932Y28339729D01*
X40721000Y28159089D01*
X40721000Y27974911D01*
X40756932Y27794271D01*
X40827414Y27624111D01*
X40896001Y27521463D01*
X40896000Y25714802D01*
X37017244Y21836046D01*
X36918028Y21935262D01*
X36764889Y22037586D01*
X36594729Y22108068D01*
X36414089Y22144000D01*
X36229911Y22144000D01*
X36049271Y22108068D01*
X35879111Y22037586D01*
X35776465Y21969000D01*
X30413803Y21969000D01*
X27941688Y24441114D01*
X27978000Y24623665D01*
X27978000Y24906335D01*
X27922853Y25183574D01*
X27814680Y25444727D01*
X27657637Y25679759D01*
X27457759Y25879637D01*
X27222727Y26036680D01*
X26961574Y26144853D01*
X26684335Y26200000D01*
X26401665Y26200000D01*
X26124426Y26144853D01*
X25863273Y26036680D01*
X25628241Y25879637D01*
X25428363Y25679759D01*
X25271320Y25444727D01*
X25163147Y25183574D01*
X25108000Y24906335D01*
X25108000Y24623665D01*
X25163147Y24346426D01*
X25271320Y24085273D01*
X25428363Y23850241D01*
X25628241Y23650363D01*
X25863273Y23493320D01*
X26124426Y23385147D01*
X26401665Y23330000D01*
X26684335Y23330000D01*
X26866886Y23366312D01*
X29535205Y20697992D01*
X29558999Y20668999D01*
X29587992Y20645205D01*
X29587996Y20645201D01*
X29608972Y20627987D01*
X29674724Y20574026D01*
X29806753Y20503454D01*
X29950014Y20459997D01*
X30061667Y20449000D01*
X30061676Y20449000D01*
X30098999Y20445324D01*
X30136322Y20449000D01*
X35630198Y20449000D01*
X23205997Y8024798D01*
X23176999Y8001000D01*
X23153201Y7972002D01*
X23153200Y7972001D01*
X23091000Y7896210D01*
X23055411Y7919990D01*
X22785158Y8031932D01*
X22498260Y8089000D01*
X22205740Y8089000D01*
X21918842Y8031932D01*
X21648589Y7919990D01*
X21405368Y7757475D01*
X21198525Y7550632D01*
X21082000Y7376240D01*
X20965475Y7550632D01*
X20758632Y7757475D01*
X20515411Y7919990D01*
X20245158Y8031932D01*
X19958260Y8089000D01*
X19665740Y8089000D01*
X19378842Y8031932D01*
X19108589Y7919990D01*
X18865368Y7757475D01*
X18658525Y7550632D01*
X18542000Y7376240D01*
X18425475Y7550632D01*
X18218632Y7757475D01*
X17975411Y7919990D01*
X17705158Y8031932D01*
X17418260Y8089000D01*
X17125740Y8089000D01*
X16838842Y8031932D01*
X16568589Y7919990D01*
X16325368Y7757475D01*
X16118525Y7550632D01*
X15956010Y7307411D01*
X15844068Y7037158D01*
X15787000Y6750260D01*
X15787000Y6457740D01*
X15844068Y6170842D01*
X15956010Y5900589D01*
X16118525Y5657368D01*
X16325368Y5450525D01*
X16499760Y5334000D01*
X16325368Y5217475D01*
X16118525Y5010632D01*
X15956010Y4767411D01*
X15844068Y4497158D01*
X15787000Y4210260D01*
X15787000Y3917740D01*
X15844068Y3630842D01*
X15956010Y3360589D01*
X16118525Y3117368D01*
X16325368Y2910525D01*
X16568589Y2748010D01*
X16838842Y2636068D01*
X17125740Y2579000D01*
X17418260Y2579000D01*
X17705158Y2636068D01*
X17975411Y2748010D01*
X18218632Y2910525D01*
X18425475Y3117368D01*
X18542000Y3291760D01*
X18658525Y3117368D01*
X18865368Y2910525D01*
X19108589Y2748010D01*
X19378842Y2636068D01*
X19665740Y2579000D01*
X19958260Y2579000D01*
X20245158Y2636068D01*
X20515411Y2748010D01*
X20758632Y2910525D01*
X20965475Y3117368D01*
X21082000Y3291760D01*
X21198525Y3117368D01*
X21405368Y2910525D01*
X21648589Y2748010D01*
X21918842Y2636068D01*
X22205740Y2579000D01*
X22498260Y2579000D01*
X22785158Y2636068D01*
X23055411Y2748010D01*
X23298632Y2910525D01*
X23505475Y3117368D01*
X23622000Y3291760D01*
X23738525Y3117368D01*
X23945368Y2910525D01*
X24188589Y2748010D01*
X24458842Y2636068D01*
X24745740Y2579000D01*
X25038260Y2579000D01*
X25325158Y2636068D01*
X25595411Y2748010D01*
X25838632Y2910525D01*
X26045475Y3117368D01*
X26162000Y3291760D01*
X26278525Y3117368D01*
X26485368Y2910525D01*
X26728589Y2748010D01*
X26998842Y2636068D01*
X27285740Y2579000D01*
X27578260Y2579000D01*
X27865158Y2636068D01*
X28135411Y2748010D01*
X28378632Y2910525D01*
X28585475Y3117368D01*
X28702000Y3291760D01*
X28818525Y3117368D01*
X29025368Y2910525D01*
X29268589Y2748010D01*
X29538842Y2636068D01*
X29825740Y2579000D01*
X30118260Y2579000D01*
X30405158Y2636068D01*
X30675411Y2748010D01*
X30918632Y2910525D01*
X31125475Y3117368D01*
X31242000Y3291760D01*
X31358525Y3117368D01*
X31565368Y2910525D01*
X31808589Y2748010D01*
X32078842Y2636068D01*
X32365740Y2579000D01*
X32658260Y2579000D01*
X32945158Y2636068D01*
X33215411Y2748010D01*
X33458632Y2910525D01*
X33665475Y3117368D01*
X33782000Y3291760D01*
X33898525Y3117368D01*
X34105368Y2910525D01*
X34348589Y2748010D01*
X34618842Y2636068D01*
X34905740Y2579000D01*
X35198260Y2579000D01*
X35485158Y2636068D01*
X35755411Y2748010D01*
X35998632Y2910525D01*
X36205475Y3117368D01*
X36322000Y3291760D01*
X36438525Y3117368D01*
X36645368Y2910525D01*
X36888589Y2748010D01*
X37158842Y2636068D01*
X37445740Y2579000D01*
X37738260Y2579000D01*
X38025158Y2636068D01*
X38295411Y2748010D01*
X38538632Y2910525D01*
X38745475Y3117368D01*
X38862000Y3291760D01*
X38978525Y3117368D01*
X39185368Y2910525D01*
X39428589Y2748010D01*
X39698842Y2636068D01*
X39985740Y2579000D01*
X40278260Y2579000D01*
X40565158Y2636068D01*
X40835411Y2748010D01*
X41078632Y2910525D01*
X41285475Y3117368D01*
X41402000Y3291760D01*
X41518525Y3117368D01*
X41725368Y2910525D01*
X41968589Y2748010D01*
X42238842Y2636068D01*
X42525740Y2579000D01*
X42818260Y2579000D01*
X43105158Y2636068D01*
X43375411Y2748010D01*
X43618632Y2910525D01*
X43825475Y3117368D01*
X43942000Y3291760D01*
X44058525Y3117368D01*
X44265368Y2910525D01*
X44508589Y2748010D01*
X44778842Y2636068D01*
X45065740Y2579000D01*
X45358260Y2579000D01*
X45645158Y2636068D01*
X45915411Y2748010D01*
X46158632Y2910525D01*
X46365475Y3117368D01*
X46482000Y3291760D01*
X46598525Y3117368D01*
X46805368Y2910525D01*
X47048589Y2748010D01*
X47318842Y2636068D01*
X47605740Y2579000D01*
X47898260Y2579000D01*
X48185158Y2636068D01*
X48455411Y2748010D01*
X48698632Y2910525D01*
X48905475Y3117368D01*
X49027195Y3299534D01*
X49096822Y3182645D01*
X49291731Y2966412D01*
X49525080Y2792359D01*
X49787901Y2667175D01*
X49935110Y2622524D01*
X50165000Y2743845D01*
X50165000Y3937000D01*
X50145000Y3937000D01*
X50145000Y4191000D01*
X50165000Y4191000D01*
X50165000Y4211000D01*
X50419000Y4211000D01*
X50419000Y4191000D01*
X50439000Y4191000D01*
X50439000Y3937000D01*
X50419000Y3937000D01*
X50419000Y2743845D01*
X50648890Y2622524D01*
X50796099Y2667175D01*
X51058920Y2792359D01*
X51292269Y2966412D01*
X51487178Y3182645D01*
X51556805Y3299534D01*
X51678525Y3117368D01*
X51885368Y2910525D01*
X52128589Y2748010D01*
X52398842Y2636068D01*
X52685740Y2579000D01*
X52978260Y2579000D01*
X53265158Y2636068D01*
X53535411Y2748010D01*
X53778632Y2910525D01*
X53985475Y3117368D01*
X54102000Y3291760D01*
X54218525Y3117368D01*
X54425368Y2910525D01*
X54668589Y2748010D01*
X54938842Y2636068D01*
X55225740Y2579000D01*
X55518260Y2579000D01*
X55805158Y2636068D01*
X56075411Y2748010D01*
X56318632Y2910525D01*
X56525475Y3117368D01*
X56642000Y3291760D01*
X56758525Y3117368D01*
X56965368Y2910525D01*
X57208589Y2748010D01*
X57478842Y2636068D01*
X57765740Y2579000D01*
X58058260Y2579000D01*
X58345158Y2636068D01*
X58615411Y2748010D01*
X58858632Y2910525D01*
X59065475Y3117368D01*
X59182000Y3291760D01*
X59298525Y3117368D01*
X59505368Y2910525D01*
X59748589Y2748010D01*
X60018842Y2636068D01*
X60305740Y2579000D01*
X60598260Y2579000D01*
X60885158Y2636068D01*
X61155411Y2748010D01*
X61398632Y2910525D01*
X61605475Y3117368D01*
X61722000Y3291760D01*
X61838525Y3117368D01*
X62045368Y2910525D01*
X62288589Y2748010D01*
X62558842Y2636068D01*
X62845740Y2579000D01*
X63138260Y2579000D01*
X63425158Y2636068D01*
X63695411Y2748010D01*
X63938632Y2910525D01*
X64145475Y3117368D01*
X64262000Y3291760D01*
X64378525Y3117368D01*
X64585368Y2910525D01*
X64828589Y2748010D01*
X65098842Y2636068D01*
X65385740Y2579000D01*
X65678260Y2579000D01*
X65965158Y2636068D01*
X66235411Y2748010D01*
X66478632Y2910525D01*
X66685475Y3117368D01*
X66802000Y3291760D01*
X66918525Y3117368D01*
X67125368Y2910525D01*
X67368589Y2748010D01*
X67638842Y2636068D01*
X67925740Y2579000D01*
X68218260Y2579000D01*
X68505158Y2636068D01*
X68775411Y2748010D01*
X69018632Y2910525D01*
X69225475Y3117368D01*
X69342000Y3291760D01*
X69458525Y3117368D01*
X69665368Y2910525D01*
X69908589Y2748010D01*
X70178842Y2636068D01*
X70465740Y2579000D01*
X70758260Y2579000D01*
X71045158Y2636068D01*
X71315411Y2748010D01*
X71558632Y2910525D01*
X71765475Y3117368D01*
X71882000Y3291760D01*
X71998525Y3117368D01*
X72205368Y2910525D01*
X72448589Y2748010D01*
X72718842Y2636068D01*
X73005740Y2579000D01*
X73298260Y2579000D01*
X73585158Y2636068D01*
X73855411Y2748010D01*
X74098632Y2910525D01*
X74305475Y3117368D01*
X74422000Y3291760D01*
X74538525Y3117368D01*
X74745368Y2910525D01*
X74988589Y2748010D01*
X75258842Y2636068D01*
X75545740Y2579000D01*
X75838260Y2579000D01*
X76125158Y2636068D01*
X76395411Y2748010D01*
X76638632Y2910525D01*
X76845475Y3117368D01*
X76962000Y3291760D01*
X77078525Y3117368D01*
X77285368Y2910525D01*
X77528589Y2748010D01*
X77798842Y2636068D01*
X78085740Y2579000D01*
X78378260Y2579000D01*
X78665158Y2636068D01*
X78935411Y2748010D01*
X79178632Y2910525D01*
X79385475Y3117368D01*
X79547990Y3360589D01*
X79659932Y3630842D01*
X79717000Y3917740D01*
X79717000Y4210260D01*
X79659932Y4497158D01*
X79547990Y4767411D01*
X79385475Y5010632D01*
X79253620Y5142487D01*
X79326180Y5164498D01*
X79436494Y5223463D01*
X79533185Y5302815D01*
X79612537Y5399506D01*
X79671502Y5509820D01*
X79707812Y5629518D01*
X79720072Y5754000D01*
X79720072Y7454000D01*
X79707812Y7578482D01*
X79671502Y7698180D01*
X79612537Y7808494D01*
X79533185Y7905185D01*
X79436494Y7984537D01*
X79326180Y8043502D01*
X79206482Y8079812D01*
X79082000Y8092072D01*
X77816999Y8092072D01*
X77816999Y20441668D01*
X77820676Y20479001D01*
X77806002Y20627987D01*
X77762545Y20771248D01*
X77691973Y20903277D01*
X77620798Y20990004D01*
X77597000Y21019002D01*
X77568002Y21042800D01*
X70454801Y28156000D01*
X70626335Y28156000D01*
X70903574Y28211147D01*
X71164727Y28319320D01*
X71399759Y28476363D01*
X71599637Y28676241D01*
X71755000Y28908759D01*
X71910363Y28676241D01*
X72110241Y28476363D01*
X72345273Y28319320D01*
X72606426Y28211147D01*
X72883665Y28156000D01*
X73166335Y28156000D01*
X73443574Y28211147D01*
X73704727Y28319320D01*
X73939759Y28476363D01*
X74139637Y28676241D01*
X74296680Y28911273D01*
X74301067Y28921865D01*
X74412615Y28735869D01*
X74601586Y28527481D01*
X74827580Y28359963D01*
X75081913Y28239754D01*
X75215961Y28199096D01*
X75438000Y28321085D01*
X75438000Y29464000D01*
X75692000Y29464000D01*
X75692000Y28321085D01*
X75914039Y28199096D01*
X76048087Y28239754D01*
X76302420Y28359963D01*
X76528414Y28527481D01*
X76717385Y28735869D01*
X76862070Y28977119D01*
X76956909Y29241960D01*
X76835624Y29464000D01*
X75692000Y29464000D01*
X75438000Y29464000D01*
X75418000Y29464000D01*
X75418000Y29718000D01*
X75438000Y29718000D01*
X75438000Y30860915D01*
X75692000Y30860915D01*
X75692000Y29718000D01*
X76835624Y29718000D01*
X76956909Y29940040D01*
X76862070Y30204881D01*
X76717385Y30446131D01*
X76528414Y30654519D01*
X76302420Y30822037D01*
X76048087Y30942246D01*
X75914039Y30982904D01*
X75692000Y30860915D01*
X75438000Y30860915D01*
X75215961Y30982904D01*
X75081913Y30942246D01*
X74827580Y30822037D01*
X74601586Y30654519D01*
X74412615Y30446131D01*
X74301067Y30260135D01*
X74296680Y30270727D01*
X74139637Y30505759D01*
X73939759Y30705637D01*
X73704727Y30862680D01*
X73443574Y30970853D01*
X73166335Y31026000D01*
X72883665Y31026000D01*
X72606426Y30970853D01*
X72345273Y30862680D01*
X72110241Y30705637D01*
X71910363Y30505759D01*
X71755000Y30273241D01*
X71599637Y30505759D01*
X71399759Y30705637D01*
X71164727Y30862680D01*
X70903574Y30970853D01*
X70626335Y31026000D01*
X70343665Y31026000D01*
X70161114Y30989688D01*
X70018109Y31132692D01*
X70019426Y31132147D01*
X70296665Y31077000D01*
X70579335Y31077000D01*
X70856574Y31132147D01*
X71117727Y31240320D01*
X71352759Y31397363D01*
X71474694Y31519298D01*
X74624903Y31519298D01*
X74696486Y31275329D01*
X74951996Y31154429D01*
X75226184Y31085700D01*
X75508512Y31071783D01*
X75788130Y31113213D01*
X76054292Y31208397D01*
X76179514Y31275329D01*
X76251097Y31519298D01*
X75438000Y32332395D01*
X74624903Y31519298D01*
X71474694Y31519298D01*
X71552637Y31597241D01*
X71709680Y31832273D01*
X71817853Y32093426D01*
X71873000Y32370665D01*
X71873000Y32441488D01*
X73997783Y32441488D01*
X74039213Y32161870D01*
X74134397Y31895708D01*
X74201329Y31770486D01*
X74445298Y31698903D01*
X75258395Y32512000D01*
X75617605Y32512000D01*
X76430702Y31698903D01*
X76674671Y31770486D01*
X76795571Y32025996D01*
X76864300Y32300184D01*
X76878217Y32582512D01*
X76836787Y32862130D01*
X76741603Y33128292D01*
X76674671Y33253514D01*
X76430702Y33325097D01*
X75617605Y32512000D01*
X75258395Y32512000D01*
X74445298Y33325097D01*
X74201329Y33253514D01*
X74080429Y32998004D01*
X74011700Y32723816D01*
X73997783Y32441488D01*
X71873000Y32441488D01*
X71873000Y32653335D01*
X71817853Y32930574D01*
X71709680Y33191727D01*
X71552637Y33426759D01*
X71474694Y33504702D01*
X74624903Y33504702D01*
X75438000Y32691605D01*
X76251097Y33504702D01*
X76179514Y33748671D01*
X75924004Y33869571D01*
X75649816Y33938300D01*
X75367488Y33952217D01*
X75087870Y33910787D01*
X74821708Y33815603D01*
X74696486Y33748671D01*
X74624903Y33504702D01*
X71474694Y33504702D01*
X71352759Y33626637D01*
X71117727Y33783680D01*
X70856574Y33891853D01*
X70579335Y33947000D01*
X70296665Y33947000D01*
X70019426Y33891853D01*
X69758273Y33783680D01*
X69523241Y33626637D01*
X69323363Y33426759D01*
X69166320Y33191727D01*
X69058147Y32930574D01*
X69003000Y32653335D01*
X69003000Y32370665D01*
X69058147Y32093426D01*
X69058693Y32092109D01*
X68130801Y33020000D01*
X70119157Y35008355D01*
X70226514Y34987000D01*
X70489486Y34987000D01*
X70747405Y35038304D01*
X70990359Y35138939D01*
X71209013Y35285038D01*
X71394962Y35470987D01*
X71541061Y35689641D01*
X71641696Y35932595D01*
X71693000Y36190514D01*
X71693000Y36453486D01*
X74103000Y36453486D01*
X74103000Y36190514D01*
X74154304Y35932595D01*
X74254939Y35689641D01*
X74401038Y35470987D01*
X74586987Y35285038D01*
X74805641Y35138939D01*
X75048595Y35038304D01*
X75306514Y34987000D01*
X75569486Y34987000D01*
X75827405Y35038304D01*
X76070359Y35138939D01*
X76289013Y35285038D01*
X76474962Y35470987D01*
X76621061Y35689641D01*
X76721696Y35932595D01*
X76773000Y36190514D01*
X76773000Y36453486D01*
X76721696Y36711405D01*
X76621061Y36954359D01*
X76474962Y37173013D01*
X76289013Y37358962D01*
X76070359Y37505061D01*
X75827405Y37605696D01*
X75569486Y37657000D01*
X75306514Y37657000D01*
X75048595Y37605696D01*
X74805641Y37505061D01*
X74586987Y37358962D01*
X74401038Y37173013D01*
X74254939Y36954359D01*
X74154304Y36711405D01*
X74103000Y36453486D01*
X71693000Y36453486D01*
X71641696Y36711405D01*
X71541061Y36954359D01*
X71394962Y37173013D01*
X71209013Y37358962D01*
X70990359Y37505061D01*
X70747405Y37605696D01*
X70489486Y37657000D01*
X70226514Y37657000D01*
X69968595Y37605696D01*
X69725641Y37505061D01*
X69506987Y37358962D01*
X69321038Y37173013D01*
X69174939Y36954359D01*
X69074304Y36711405D01*
X69023000Y36453486D01*
X69023000Y36190514D01*
X69044355Y36083157D01*
X66741199Y33780000D01*
X62798803Y33780000D01*
X47045804Y49532997D01*
X47022001Y49562001D01*
X46906276Y49656974D01*
X46774247Y49727546D01*
X46630986Y49771003D01*
X46519333Y49782000D01*
X46519322Y49782000D01*
X46482000Y49785676D01*
X46444678Y49782000D01*
X44975802Y49782000D01*
X41033804Y53723997D01*
X41010001Y53753001D01*
X40894276Y53847974D01*
X40858072Y53867326D01*
X40858072Y54063000D01*
X40845812Y54187482D01*
X40809502Y54307180D01*
X40750537Y54417494D01*
X40671185Y54514185D01*
X40574494Y54593537D01*
X40464180Y54652502D01*
X40344482Y54688812D01*
X40220000Y54701072D01*
X38520000Y54701072D01*
X38395518Y54688812D01*
X38275820Y54652502D01*
X38165506Y54593537D01*
X38068815Y54514185D01*
X37989463Y54417494D01*
X37930498Y54307180D01*
X37894188Y54187482D01*
X37881928Y54063000D01*
X37881928Y52363000D01*
X37894188Y52238518D01*
X37930498Y52118820D01*
X37989463Y52008506D01*
X38068815Y51911815D01*
X38165506Y51832463D01*
X38275820Y51773498D01*
X38348380Y51751487D01*
X38216525Y51619632D01*
X38091822Y51433000D01*
X15404323Y51433000D01*
X15367000Y51436676D01*
X15329677Y51433000D01*
X15329667Y51433000D01*
X15218014Y51422003D01*
X15074753Y51378546D01*
X14942724Y51307974D01*
X14826999Y51213001D01*
X14803201Y51184003D01*
X12854930Y49235731D01*
X12597184Y49287000D01*
X12294816Y49287000D01*
X11998257Y49228011D01*
X11718905Y49112299D01*
X11467495Y48944312D01*
X11253688Y48730505D01*
X11085701Y48479095D01*
X10969989Y48199743D01*
X10911000Y47903184D01*
X10911000Y47600816D01*
X10969989Y47304257D01*
X11085701Y47024905D01*
X11253688Y46773495D01*
X11467495Y46559688D01*
X11718905Y46391701D01*
X11998257Y46275989D01*
X12294816Y46217000D01*
X12597184Y46217000D01*
X12893743Y46275989D01*
X13173095Y46391701D01*
X13424505Y46559688D01*
X13490944Y46626127D01*
X13496498Y46607820D01*
X13555463Y46497506D01*
X13634815Y46400815D01*
X13731506Y46321463D01*
X13841820Y46262498D01*
X13961518Y46226188D01*
X14086000Y46213928D01*
X14226000Y46213928D01*
X14226001Y42986803D01*
X11160844Y39921645D01*
X11053486Y39943000D01*
X10790514Y39943000D01*
X10532595Y39891696D01*
X10289641Y39791061D01*
X10070987Y39644962D01*
X9885038Y39459013D01*
X9738939Y39240359D01*
X9638304Y38997405D01*
X9587000Y38739486D01*
X685000Y38739486D01*
X685000Y57945647D01*
X675711Y58039956D01*
X691653Y58202542D01*
X776031Y58482018D01*
X913085Y58739780D01*
X1097599Y58966015D01*
X1322540Y59152103D01*
X1579342Y59290956D01*
X1858219Y59377282D01*
X2030268Y59395365D01*
X2125353Y59386000D01*
%TA.AperFunction,Conductor*%
D23*
G36*
X2125353Y59386000D02*
G01*
X78646647Y59386000D01*
X78740956Y59395289D01*
X78903542Y59379347D01*
X79183018Y59294969D01*
X79440780Y59157915D01*
X79667015Y58973401D01*
X79853103Y58748460D01*
X79991956Y58491658D01*
X80078282Y58212781D01*
X80096365Y58040731D01*
X80087000Y57945646D01*
X80087001Y685000D01*
X14218381Y685000D01*
X685000Y14218380D01*
X685000Y17945000D01*
X17484928Y17945000D01*
X17484928Y16345000D01*
X17497188Y16220518D01*
X17533498Y16100820D01*
X17592463Y15990506D01*
X17671815Y15893815D01*
X17768506Y15814463D01*
X17878820Y15755498D01*
X17998518Y15719188D01*
X18123000Y15706928D01*
X19723000Y15706928D01*
X19847482Y15719188D01*
X19967180Y15755498D01*
X20077494Y15814463D01*
X20174185Y15893815D01*
X20253537Y15990506D01*
X20312502Y16100820D01*
X20348812Y16220518D01*
X20361072Y16345000D01*
X20361072Y17286335D01*
X25108000Y17286335D01*
X25108000Y17003665D01*
X25163147Y16726426D01*
X25271320Y16465273D01*
X25428363Y16230241D01*
X25628241Y16030363D01*
X25863273Y15873320D01*
X26124426Y15765147D01*
X26401665Y15710000D01*
X26684335Y15710000D01*
X26961574Y15765147D01*
X27222727Y15873320D01*
X27457759Y16030363D01*
X27657637Y16230241D01*
X27814680Y16465273D01*
X27922853Y16726426D01*
X27978000Y17003665D01*
X27978000Y17286335D01*
X27922853Y17563574D01*
X27814680Y17824727D01*
X27657637Y18059759D01*
X27457759Y18259637D01*
X27222727Y18416680D01*
X26961574Y18524853D01*
X26684335Y18580000D01*
X26401665Y18580000D01*
X26124426Y18524853D01*
X25863273Y18416680D01*
X25628241Y18259637D01*
X25428363Y18059759D01*
X25271320Y17824727D01*
X25163147Y17563574D01*
X25108000Y17286335D01*
X20361072Y17286335D01*
X20361072Y17945000D01*
X20348812Y18069482D01*
X20312502Y18189180D01*
X20253537Y18299494D01*
X20174185Y18396185D01*
X20077494Y18475537D01*
X19967180Y18534502D01*
X19847482Y18570812D01*
X19723000Y18583072D01*
X18123000Y18583072D01*
X17998518Y18570812D01*
X17878820Y18534502D01*
X17768506Y18475537D01*
X17671815Y18396185D01*
X17592463Y18299494D01*
X17533498Y18189180D01*
X17497188Y18069482D01*
X17484928Y17945000D01*
X685000Y17945000D01*
X685000Y20033335D01*
X13043000Y20033335D01*
X13043000Y19750665D01*
X13098147Y19473426D01*
X13206320Y19212273D01*
X13363363Y18977241D01*
X13563241Y18777363D01*
X13798273Y18620320D01*
X14059426Y18512147D01*
X14336665Y18457000D01*
X14619335Y18457000D01*
X14896574Y18512147D01*
X15157727Y18620320D01*
X15392759Y18777363D01*
X15592637Y18977241D01*
X15749680Y19212273D01*
X15857853Y19473426D01*
X15913000Y19750665D01*
X15913000Y20033335D01*
X15857853Y20310574D01*
X15749680Y20571727D01*
X15592637Y20806759D01*
X15392759Y21006637D01*
X15157727Y21163680D01*
X14896574Y21271853D01*
X14619335Y21327000D01*
X14336665Y21327000D01*
X14059426Y21271853D01*
X13798273Y21163680D01*
X13563241Y21006637D01*
X13363363Y20806759D01*
X13206320Y20571727D01*
X13098147Y20310574D01*
X13043000Y20033335D01*
X685000Y20033335D01*
X685000Y23899298D01*
X13664903Y23899298D01*
X13736486Y23655329D01*
X13991996Y23534429D01*
X14266184Y23465700D01*
X14548512Y23451783D01*
X14828130Y23493213D01*
X15094292Y23588397D01*
X15219514Y23655329D01*
X15253833Y23772298D01*
X18109903Y23772298D01*
X18181486Y23528329D01*
X18436996Y23407429D01*
X18711184Y23338700D01*
X18993512Y23324783D01*
X19273130Y23366213D01*
X19539292Y23461397D01*
X19664514Y23528329D01*
X19736097Y23772298D01*
X18923000Y24585395D01*
X18109903Y23772298D01*
X15253833Y23772298D01*
X15291097Y23899298D01*
X14478000Y24712395D01*
X13664903Y23899298D01*
X685000Y23899298D01*
X685000Y24821488D01*
X13037783Y24821488D01*
X13079213Y24541870D01*
X13174397Y24275708D01*
X13241329Y24150486D01*
X13485298Y24078903D01*
X14298395Y24892000D01*
X14657605Y24892000D01*
X15470702Y24078903D01*
X15714671Y24150486D01*
X15835571Y24405996D01*
X15904300Y24680184D01*
X15905005Y24694488D01*
X17482783Y24694488D01*
X17524213Y24414870D01*
X17619397Y24148708D01*
X17686329Y24023486D01*
X17930298Y23951903D01*
X18743395Y24765000D01*
X19102605Y24765000D01*
X19915702Y23951903D01*
X20159671Y24023486D01*
X20280571Y24278996D01*
X20349300Y24553184D01*
X20363217Y24835512D01*
X20321787Y25115130D01*
X20226603Y25381292D01*
X20159671Y25506514D01*
X19915702Y25578097D01*
X19102605Y24765000D01*
X18743395Y24765000D01*
X17930298Y25578097D01*
X17686329Y25506514D01*
X17565429Y25251004D01*
X17496700Y24976816D01*
X17482783Y24694488D01*
X15905005Y24694488D01*
X15918217Y24962512D01*
X15876787Y25242130D01*
X15781603Y25508292D01*
X15714671Y25633514D01*
X15470702Y25705097D01*
X14657605Y24892000D01*
X14298395Y24892000D01*
X13485298Y25705097D01*
X13241329Y25633514D01*
X13120429Y25378004D01*
X13051700Y25103816D01*
X13037783Y24821488D01*
X685000Y24821488D01*
X685000Y25884702D01*
X13664903Y25884702D01*
X14478000Y25071605D01*
X15164097Y25757702D01*
X18109903Y25757702D01*
X18923000Y24944605D01*
X19736097Y25757702D01*
X19664514Y26001671D01*
X19409004Y26122571D01*
X19134816Y26191300D01*
X18852488Y26205217D01*
X18572870Y26163787D01*
X18306708Y26068603D01*
X18181486Y26001671D01*
X18109903Y25757702D01*
X15164097Y25757702D01*
X15291097Y25884702D01*
X15219514Y26128671D01*
X14964004Y26249571D01*
X14689816Y26318300D01*
X14407488Y26332217D01*
X14127870Y26290787D01*
X13861708Y26195603D01*
X13736486Y26128671D01*
X13664903Y25884702D01*
X685000Y25884702D01*
X685000Y38739486D01*
X9587000Y38739486D01*
X9587000Y38476514D01*
X9638304Y38218595D01*
X9738939Y37975641D01*
X9885038Y37756987D01*
X10070987Y37571038D01*
X10289641Y37424939D01*
X10532595Y37324304D01*
X10790514Y37273000D01*
X11053486Y37273000D01*
X11311405Y37324304D01*
X11554359Y37424939D01*
X11773013Y37571038D01*
X11958962Y37756987D01*
X12105061Y37975641D01*
X12205696Y38218595D01*
X12257000Y38476514D01*
X12257000Y38739486D01*
X14667000Y38739486D01*
X14667000Y38476514D01*
X14718304Y38218595D01*
X14818939Y37975641D01*
X14965038Y37756987D01*
X15150987Y37571038D01*
X15369641Y37424939D01*
X15612595Y37324304D01*
X15870514Y37273000D01*
X16133486Y37273000D01*
X16391405Y37324304D01*
X16634359Y37424939D01*
X16853013Y37571038D01*
X17038962Y37756987D01*
X17185061Y37975641D01*
X17285696Y38218595D01*
X17337000Y38476514D01*
X17337000Y38739486D01*
X17285696Y38997405D01*
X17185061Y39240359D01*
X17038962Y39459013D01*
X16853013Y39644962D01*
X16634359Y39791061D01*
X16391405Y39891696D01*
X16133486Y39943000D01*
X15870514Y39943000D01*
X15612595Y39891696D01*
X15369641Y39791061D01*
X15150987Y39644962D01*
X14965038Y39459013D01*
X14818939Y39240359D01*
X14718304Y38997405D01*
X14667000Y38739486D01*
X12257000Y38739486D01*
X12235645Y38846844D01*
X15497003Y42108201D01*
X15526001Y42131999D01*
X15552332Y42164083D01*
X15620974Y42247723D01*
X15691546Y42379753D01*
X15703156Y42418026D01*
X15735003Y42523014D01*
X15746000Y42634667D01*
X15746000Y42634677D01*
X15749676Y42672000D01*
X15746000Y42709323D01*
X15746000Y46213928D01*
X15886000Y46213928D01*
X16010482Y46226188D01*
X16130180Y46262498D01*
X16240494Y46321463D01*
X16337185Y46400815D01*
X16416537Y46497506D01*
X16475502Y46607820D01*
X16511812Y46727518D01*
X16524072Y46852000D01*
X16524072Y48652000D01*
X16511812Y48776482D01*
X16475502Y48896180D01*
X16416537Y49006494D01*
X16337185Y49103185D01*
X16240494Y49182537D01*
X16130180Y49241502D01*
X16010482Y49277812D01*
X15886000Y49290072D01*
X15058874Y49290072D01*
X15681802Y49913000D01*
X38091822Y49913000D01*
X38205413Y49742999D01*
X21588321Y49742999D01*
X21550998Y49746675D01*
X21513675Y49742999D01*
X21513666Y49742999D01*
X21402013Y49732002D01*
X21258752Y49688545D01*
X21126723Y49617973D01*
X21126721Y49617972D01*
X21126722Y49617972D01*
X21039995Y49546798D01*
X21039991Y49546794D01*
X21010998Y49523000D01*
X20987204Y49494007D01*
X20728929Y49235732D01*
X20471184Y49287000D01*
X20168816Y49287000D01*
X19872257Y49228011D01*
X19592905Y49112299D01*
X19341495Y48944312D01*
X19127688Y48730505D01*
X18959701Y48479095D01*
X18843989Y48199743D01*
X18785000Y47903184D01*
X18785000Y47600816D01*
X18843989Y47304257D01*
X18959701Y47024905D01*
X19127688Y46773495D01*
X19341495Y46559688D01*
X19592905Y46391701D01*
X19872257Y46275989D01*
X20168816Y46217000D01*
X20471184Y46217000D01*
X20767743Y46275989D01*
X21047095Y46391701D01*
X21298505Y46559688D01*
X21364944Y46626127D01*
X21370498Y46607820D01*
X21429463Y46497506D01*
X21508815Y46400815D01*
X21605506Y46321463D01*
X21715820Y46262498D01*
X21835518Y46226188D01*
X21960000Y46213928D01*
X22100000Y46213928D01*
X22100001Y42986803D01*
X19034844Y39921645D01*
X18927486Y39943000D01*
X18664514Y39943000D01*
X18406595Y39891696D01*
X18163641Y39791061D01*
X17944987Y39644962D01*
X17759038Y39459013D01*
X17612939Y39240359D01*
X17512304Y38997405D01*
X17461000Y38739486D01*
X17461000Y38476514D01*
X17512304Y38218595D01*
X17612939Y37975641D01*
X17759038Y37756987D01*
X17944987Y37571038D01*
X18163641Y37424939D01*
X18406595Y37324304D01*
X18664514Y37273000D01*
X18927486Y37273000D01*
X19185405Y37324304D01*
X19428359Y37424939D01*
X19647013Y37571038D01*
X19832962Y37756987D01*
X19979061Y37975641D01*
X20079696Y38218595D01*
X20131000Y38476514D01*
X20131000Y38739486D01*
X22541000Y38739486D01*
X22541000Y38476514D01*
X22592304Y38218595D01*
X22692939Y37975641D01*
X22839038Y37756987D01*
X23024987Y37571038D01*
X23243641Y37424939D01*
X23486595Y37324304D01*
X23744514Y37273000D01*
X24007486Y37273000D01*
X24265405Y37324304D01*
X24508359Y37424939D01*
X24727013Y37571038D01*
X24912962Y37756987D01*
X25059061Y37975641D01*
X25159696Y38218595D01*
X25211000Y38476514D01*
X25211000Y38739486D01*
X25159696Y38997405D01*
X25059061Y39240359D01*
X24912962Y39459013D01*
X24727013Y39644962D01*
X24508359Y39791061D01*
X24265405Y39891696D01*
X24007486Y39943000D01*
X23744514Y39943000D01*
X23486595Y39891696D01*
X23243641Y39791061D01*
X23024987Y39644962D01*
X22839038Y39459013D01*
X22692939Y39240359D01*
X22592304Y38997405D01*
X22541000Y38739486D01*
X20131000Y38739486D01*
X20109645Y38846844D01*
X23371003Y42108201D01*
X23400001Y42131999D01*
X23426332Y42164083D01*
X23494974Y42247723D01*
X23565546Y42379753D01*
X23577156Y42418026D01*
X23609003Y42523014D01*
X23620000Y42634667D01*
X23620000Y42634677D01*
X23623676Y42672000D01*
X23620000Y42709323D01*
X23620000Y46213928D01*
X23760000Y46213928D01*
X23884482Y46226188D01*
X24004180Y46262498D01*
X24114494Y46321463D01*
X24211185Y46400815D01*
X24290537Y46497506D01*
X24349502Y46607820D01*
X24385812Y46727518D01*
X24398072Y46852000D01*
X24398072Y48222999D01*
X37885000Y48222999D01*
X37885000Y47986740D01*
X37942068Y47699842D01*
X38054010Y47429589D01*
X38216525Y47186368D01*
X38423368Y46979525D01*
X38605534Y46857805D01*
X38488645Y46788178D01*
X38272412Y46593269D01*
X38098359Y46359920D01*
X37973175Y46097099D01*
X37928524Y45949890D01*
X38049845Y45720000D01*
X39243000Y45720000D01*
X39243000Y45740000D01*
X39497000Y45740000D01*
X39497000Y45720000D01*
X40690155Y45720000D01*
X40811476Y45949890D01*
X40766825Y46097099D01*
X40641641Y46359920D01*
X40467588Y46593269D01*
X40251355Y46788178D01*
X40134466Y46857805D01*
X40316632Y46979525D01*
X40523475Y47186368D01*
X40685990Y47429589D01*
X40797932Y47699842D01*
X40855000Y47986740D01*
X40855000Y48113199D01*
X57946136Y31022061D01*
X57926335Y31026000D01*
X57643665Y31026000D01*
X57366426Y30970853D01*
X57105273Y30862680D01*
X56870241Y30705637D01*
X56670363Y30505759D01*
X56515000Y30273241D01*
X56359637Y30505759D01*
X56159759Y30705637D01*
X55924727Y30862680D01*
X55663574Y30970853D01*
X55386335Y31026000D01*
X55103665Y31026000D01*
X54826426Y30970853D01*
X54590001Y30872923D01*
X54590001Y32633678D01*
X54593677Y32671001D01*
X54590001Y32708324D01*
X54590001Y32708334D01*
X54579004Y32819987D01*
X54535547Y32963248D01*
X54464975Y33095277D01*
X54370002Y33211002D01*
X54340998Y33234805D01*
X53942555Y33633248D01*
X53942550Y33633254D01*
X44011806Y43563997D01*
X43988003Y43593001D01*
X43872278Y43687974D01*
X43740249Y43758546D01*
X43596988Y43802003D01*
X43485335Y43813000D01*
X43485324Y43813000D01*
X43448002Y43816676D01*
X43410680Y43813000D01*
X40648178Y43813000D01*
X40523475Y43999632D01*
X40316632Y44206475D01*
X40134466Y44328195D01*
X40251355Y44397822D01*
X40467588Y44592731D01*
X40641641Y44826080D01*
X40766825Y45088901D01*
X40811476Y45236110D01*
X40690155Y45466000D01*
X39497000Y45466000D01*
X39497000Y45446000D01*
X39243000Y45446000D01*
X39243000Y45466000D01*
X38049845Y45466000D01*
X37928524Y45236110D01*
X37973175Y45088901D01*
X38098359Y44826080D01*
X38272412Y44592731D01*
X38488645Y44397822D01*
X38605534Y44328195D01*
X38423368Y44206475D01*
X38216525Y43999632D01*
X38054010Y43756411D01*
X37942068Y43486158D01*
X37885000Y43199260D01*
X37885000Y42906740D01*
X37942068Y42619842D01*
X38054010Y42349589D01*
X38216525Y42106368D01*
X38423368Y41899525D01*
X38597760Y41783000D01*
X38423368Y41666475D01*
X38216525Y41459632D01*
X38054010Y41216411D01*
X37942068Y40946158D01*
X37885000Y40659260D01*
X37885000Y40366740D01*
X37942068Y40079842D01*
X38054010Y39809589D01*
X38216525Y39566368D01*
X38423368Y39359525D01*
X38666589Y39197010D01*
X38936842Y39085068D01*
X39223740Y39028000D01*
X39516260Y39028000D01*
X39803158Y39085068D01*
X40073411Y39197010D01*
X40316632Y39359525D01*
X40523475Y39566368D01*
X40685990Y39809589D01*
X40797932Y40079842D01*
X40855000Y40366740D01*
X40855000Y40659260D01*
X40797932Y40946158D01*
X40685990Y41216411D01*
X40523475Y41459632D01*
X40316632Y41666475D01*
X40142240Y41783000D01*
X40316632Y41899525D01*
X40523475Y42106368D01*
X40648178Y42293000D01*
X43133201Y42293000D01*
X52867748Y32558452D01*
X52867754Y32558447D01*
X53070002Y32356199D01*
X53070001Y30981509D01*
X52846335Y31026000D01*
X52563665Y31026000D01*
X52286426Y30970853D01*
X52025273Y30862680D01*
X51790241Y30705637D01*
X51590363Y30505759D01*
X51435000Y30273241D01*
X51279637Y30505759D01*
X51079759Y30705637D01*
X50844727Y30862680D01*
X50583574Y30970853D01*
X50306335Y31026000D01*
X50023665Y31026000D01*
X49746426Y30970853D01*
X49485273Y30862680D01*
X49250241Y30705637D01*
X49050363Y30505759D01*
X48895000Y30273241D01*
X48739637Y30505759D01*
X48539759Y30705637D01*
X48304727Y30862680D01*
X48043574Y30970853D01*
X47766335Y31026000D01*
X47483665Y31026000D01*
X47206426Y30970853D01*
X46945273Y30862680D01*
X46710241Y30705637D01*
X46510363Y30505759D01*
X46355000Y30273241D01*
X46199637Y30505759D01*
X45999759Y30705637D01*
X45764727Y30862680D01*
X45503574Y30970853D01*
X45226335Y31026000D01*
X44943665Y31026000D01*
X44666426Y30970853D01*
X44405273Y30862680D01*
X44170241Y30705637D01*
X43970363Y30505759D01*
X43815000Y30273241D01*
X43659637Y30505759D01*
X43459759Y30705637D01*
X43224727Y30862680D01*
X42963574Y30970853D01*
X42686335Y31026000D01*
X42403665Y31026000D01*
X42126426Y30970853D01*
X41865273Y30862680D01*
X41630241Y30705637D01*
X41430363Y30505759D01*
X41273320Y30270727D01*
X41165147Y30009574D01*
X41110000Y29732335D01*
X41110000Y29449665D01*
X41165147Y29172426D01*
X41270049Y28919170D01*
X41213111Y28895586D01*
X41059972Y28793262D01*
X40929738Y28663028D01*
X40827414Y28509889D01*
X40756932Y28339729D01*
X40721000Y28159089D01*
X40721000Y27974911D01*
X40756932Y27794271D01*
X40827414Y27624111D01*
X40896001Y27521463D01*
X40896000Y25714802D01*
X37017244Y21836046D01*
X36918028Y21935262D01*
X36764889Y22037586D01*
X36594729Y22108068D01*
X36414089Y22144000D01*
X36229911Y22144000D01*
X36049271Y22108068D01*
X35879111Y22037586D01*
X35776465Y21969000D01*
X30413803Y21969000D01*
X27941688Y24441114D01*
X27978000Y24623665D01*
X27978000Y24906335D01*
X27922853Y25183574D01*
X27814680Y25444727D01*
X27657637Y25679759D01*
X27457759Y25879637D01*
X27222727Y26036680D01*
X26961574Y26144853D01*
X26684335Y26200000D01*
X26401665Y26200000D01*
X26124426Y26144853D01*
X25863273Y26036680D01*
X25628241Y25879637D01*
X25428363Y25679759D01*
X25271320Y25444727D01*
X25163147Y25183574D01*
X25108000Y24906335D01*
X25108000Y24623665D01*
X25163147Y24346426D01*
X25271320Y24085273D01*
X25428363Y23850241D01*
X25628241Y23650363D01*
X25863273Y23493320D01*
X26124426Y23385147D01*
X26401665Y23330000D01*
X26684335Y23330000D01*
X26866886Y23366312D01*
X29535205Y20697992D01*
X29558999Y20668999D01*
X29587992Y20645205D01*
X29587996Y20645201D01*
X29608972Y20627987D01*
X29674724Y20574026D01*
X29806753Y20503454D01*
X29950014Y20459997D01*
X30061667Y20449000D01*
X30061676Y20449000D01*
X30098999Y20445324D01*
X30136322Y20449000D01*
X35630198Y20449000D01*
X23205997Y8024798D01*
X23176999Y8001000D01*
X23153201Y7972002D01*
X23153200Y7972001D01*
X23091000Y7896210D01*
X23055411Y7919990D01*
X22785158Y8031932D01*
X22498260Y8089000D01*
X22205740Y8089000D01*
X21918842Y8031932D01*
X21648589Y7919990D01*
X21405368Y7757475D01*
X21198525Y7550632D01*
X21082000Y7376240D01*
X20965475Y7550632D01*
X20758632Y7757475D01*
X20515411Y7919990D01*
X20245158Y8031932D01*
X19958260Y8089000D01*
X19665740Y8089000D01*
X19378842Y8031932D01*
X19108589Y7919990D01*
X18865368Y7757475D01*
X18658525Y7550632D01*
X18542000Y7376240D01*
X18425475Y7550632D01*
X18218632Y7757475D01*
X17975411Y7919990D01*
X17705158Y8031932D01*
X17418260Y8089000D01*
X17125740Y8089000D01*
X16838842Y8031932D01*
X16568589Y7919990D01*
X16325368Y7757475D01*
X16118525Y7550632D01*
X15956010Y7307411D01*
X15844068Y7037158D01*
X15787000Y6750260D01*
X15787000Y6457740D01*
X15844068Y6170842D01*
X15956010Y5900589D01*
X16118525Y5657368D01*
X16325368Y5450525D01*
X16499760Y5334000D01*
X16325368Y5217475D01*
X16118525Y5010632D01*
X15956010Y4767411D01*
X15844068Y4497158D01*
X15787000Y4210260D01*
X15787000Y3917740D01*
X15844068Y3630842D01*
X15956010Y3360589D01*
X16118525Y3117368D01*
X16325368Y2910525D01*
X16568589Y2748010D01*
X16838842Y2636068D01*
X17125740Y2579000D01*
X17418260Y2579000D01*
X17705158Y2636068D01*
X17975411Y2748010D01*
X18218632Y2910525D01*
X18425475Y3117368D01*
X18542000Y3291760D01*
X18658525Y3117368D01*
X18865368Y2910525D01*
X19108589Y2748010D01*
X19378842Y2636068D01*
X19665740Y2579000D01*
X19958260Y2579000D01*
X20245158Y2636068D01*
X20515411Y2748010D01*
X20758632Y2910525D01*
X20965475Y3117368D01*
X21082000Y3291760D01*
X21198525Y3117368D01*
X21405368Y2910525D01*
X21648589Y2748010D01*
X21918842Y2636068D01*
X22205740Y2579000D01*
X22498260Y2579000D01*
X22785158Y2636068D01*
X23055411Y2748010D01*
X23298632Y2910525D01*
X23505475Y3117368D01*
X23622000Y3291760D01*
X23738525Y3117368D01*
X23945368Y2910525D01*
X24188589Y2748010D01*
X24458842Y2636068D01*
X24745740Y2579000D01*
X25038260Y2579000D01*
X25325158Y2636068D01*
X25595411Y2748010D01*
X25838632Y2910525D01*
X26045475Y3117368D01*
X26162000Y3291760D01*
X26278525Y3117368D01*
X26485368Y2910525D01*
X26728589Y2748010D01*
X26998842Y2636068D01*
X27285740Y2579000D01*
X27578260Y2579000D01*
X27865158Y2636068D01*
X28135411Y2748010D01*
X28378632Y2910525D01*
X28585475Y3117368D01*
X28702000Y3291760D01*
X28818525Y3117368D01*
X29025368Y2910525D01*
X29268589Y2748010D01*
X29538842Y2636068D01*
X29825740Y2579000D01*
X30118260Y2579000D01*
X30405158Y2636068D01*
X30675411Y2748010D01*
X30918632Y2910525D01*
X31125475Y3117368D01*
X31242000Y3291760D01*
X31358525Y3117368D01*
X31565368Y2910525D01*
X31808589Y2748010D01*
X32078842Y2636068D01*
X32365740Y2579000D01*
X32658260Y2579000D01*
X32945158Y2636068D01*
X33215411Y2748010D01*
X33458632Y2910525D01*
X33665475Y3117368D01*
X33782000Y3291760D01*
X33898525Y3117368D01*
X34105368Y2910525D01*
X34348589Y2748010D01*
X34618842Y2636068D01*
X34905740Y2579000D01*
X35198260Y2579000D01*
X35485158Y2636068D01*
X35755411Y2748010D01*
X35998632Y2910525D01*
X36205475Y3117368D01*
X36322000Y3291760D01*
X36438525Y3117368D01*
X36645368Y2910525D01*
X36888589Y2748010D01*
X37158842Y2636068D01*
X37445740Y2579000D01*
X37738260Y2579000D01*
X38025158Y2636068D01*
X38295411Y2748010D01*
X38538632Y2910525D01*
X38745475Y3117368D01*
X38862000Y3291760D01*
X38978525Y3117368D01*
X39185368Y2910525D01*
X39428589Y2748010D01*
X39698842Y2636068D01*
X39985740Y2579000D01*
X40278260Y2579000D01*
X40565158Y2636068D01*
X40835411Y2748010D01*
X41078632Y2910525D01*
X41285475Y3117368D01*
X41402000Y3291760D01*
X41518525Y3117368D01*
X41725368Y2910525D01*
X41968589Y2748010D01*
X42238842Y2636068D01*
X42525740Y2579000D01*
X42818260Y2579000D01*
X43105158Y2636068D01*
X43375411Y2748010D01*
X43618632Y2910525D01*
X43825475Y3117368D01*
X43942000Y3291760D01*
X44058525Y3117368D01*
X44265368Y2910525D01*
X44508589Y2748010D01*
X44778842Y2636068D01*
X45065740Y2579000D01*
X45358260Y2579000D01*
X45645158Y2636068D01*
X45915411Y2748010D01*
X46158632Y2910525D01*
X46365475Y3117368D01*
X46482000Y3291760D01*
X46598525Y3117368D01*
X46805368Y2910525D01*
X47048589Y2748010D01*
X47318842Y2636068D01*
X47605740Y2579000D01*
X47898260Y2579000D01*
X48185158Y2636068D01*
X48455411Y2748010D01*
X48698632Y2910525D01*
X48905475Y3117368D01*
X49027195Y3299534D01*
X49096822Y3182645D01*
X49291731Y2966412D01*
X49525080Y2792359D01*
X49787901Y2667175D01*
X49935110Y2622524D01*
X50165000Y2743845D01*
X50165000Y3937000D01*
X50145000Y3937000D01*
X50145000Y4191000D01*
X50165000Y4191000D01*
X50165000Y4211000D01*
X50419000Y4211000D01*
X50419000Y4191000D01*
X50439000Y4191000D01*
X50439000Y3937000D01*
X50419000Y3937000D01*
X50419000Y2743845D01*
X50648890Y2622524D01*
X50796099Y2667175D01*
X51058920Y2792359D01*
X51292269Y2966412D01*
X51487178Y3182645D01*
X51556805Y3299534D01*
X51678525Y3117368D01*
X51885368Y2910525D01*
X52128589Y2748010D01*
X52398842Y2636068D01*
X52685740Y2579000D01*
X52978260Y2579000D01*
X53265158Y2636068D01*
X53535411Y2748010D01*
X53778632Y2910525D01*
X53985475Y3117368D01*
X54102000Y3291760D01*
X54218525Y3117368D01*
X54425368Y2910525D01*
X54668589Y2748010D01*
X54938842Y2636068D01*
X55225740Y2579000D01*
X55518260Y2579000D01*
X55805158Y2636068D01*
X56075411Y2748010D01*
X56318632Y2910525D01*
X56525475Y3117368D01*
X56642000Y3291760D01*
X56758525Y3117368D01*
X56965368Y2910525D01*
X57208589Y2748010D01*
X57478842Y2636068D01*
X57765740Y2579000D01*
X58058260Y2579000D01*
X58345158Y2636068D01*
X58615411Y2748010D01*
X58858632Y2910525D01*
X59065475Y3117368D01*
X59182000Y3291760D01*
X59298525Y3117368D01*
X59505368Y2910525D01*
X59748589Y2748010D01*
X60018842Y2636068D01*
X60305740Y2579000D01*
X60598260Y2579000D01*
X60885158Y2636068D01*
X61155411Y2748010D01*
X61398632Y2910525D01*
X61605475Y3117368D01*
X61722000Y3291760D01*
X61838525Y3117368D01*
X62045368Y2910525D01*
X62288589Y2748010D01*
X62558842Y2636068D01*
X62845740Y2579000D01*
X63138260Y2579000D01*
X63425158Y2636068D01*
X63695411Y2748010D01*
X63938632Y2910525D01*
X64145475Y3117368D01*
X64262000Y3291760D01*
X64378525Y3117368D01*
X64585368Y2910525D01*
X64828589Y2748010D01*
X65098842Y2636068D01*
X65385740Y2579000D01*
X65678260Y2579000D01*
X65965158Y2636068D01*
X66235411Y2748010D01*
X66478632Y2910525D01*
X66685475Y3117368D01*
X66802000Y3291760D01*
X66918525Y3117368D01*
X67125368Y2910525D01*
X67368589Y2748010D01*
X67638842Y2636068D01*
X67925740Y2579000D01*
X68218260Y2579000D01*
X68505158Y2636068D01*
X68775411Y2748010D01*
X69018632Y2910525D01*
X69225475Y3117368D01*
X69342000Y3291760D01*
X69458525Y3117368D01*
X69665368Y2910525D01*
X69908589Y2748010D01*
X70178842Y2636068D01*
X70465740Y2579000D01*
X70758260Y2579000D01*
X71045158Y2636068D01*
X71315411Y2748010D01*
X71558632Y2910525D01*
X71765475Y3117368D01*
X71882000Y3291760D01*
X71998525Y3117368D01*
X72205368Y2910525D01*
X72448589Y2748010D01*
X72718842Y2636068D01*
X73005740Y2579000D01*
X73298260Y2579000D01*
X73585158Y2636068D01*
X73855411Y2748010D01*
X74098632Y2910525D01*
X74305475Y3117368D01*
X74422000Y3291760D01*
X74538525Y3117368D01*
X74745368Y2910525D01*
X74988589Y2748010D01*
X75258842Y2636068D01*
X75545740Y2579000D01*
X75838260Y2579000D01*
X76125158Y2636068D01*
X76395411Y2748010D01*
X76638632Y2910525D01*
X76845475Y3117368D01*
X76962000Y3291760D01*
X77078525Y3117368D01*
X77285368Y2910525D01*
X77528589Y2748010D01*
X77798842Y2636068D01*
X78085740Y2579000D01*
X78378260Y2579000D01*
X78665158Y2636068D01*
X78935411Y2748010D01*
X79178632Y2910525D01*
X79385475Y3117368D01*
X79547990Y3360589D01*
X79659932Y3630842D01*
X79717000Y3917740D01*
X79717000Y4210260D01*
X79659932Y4497158D01*
X79547990Y4767411D01*
X79385475Y5010632D01*
X79253620Y5142487D01*
X79326180Y5164498D01*
X79436494Y5223463D01*
X79533185Y5302815D01*
X79612537Y5399506D01*
X79671502Y5509820D01*
X79707812Y5629518D01*
X79720072Y5754000D01*
X79720072Y7454000D01*
X79707812Y7578482D01*
X79671502Y7698180D01*
X79612537Y7808494D01*
X79533185Y7905185D01*
X79436494Y7984537D01*
X79326180Y8043502D01*
X79206482Y8079812D01*
X79082000Y8092072D01*
X77816999Y8092072D01*
X77816999Y20441668D01*
X77820676Y20479001D01*
X77806002Y20627987D01*
X77762545Y20771248D01*
X77691973Y20903277D01*
X77620798Y20990004D01*
X77597000Y21019002D01*
X77568002Y21042800D01*
X70454801Y28156000D01*
X70626335Y28156000D01*
X70903574Y28211147D01*
X71164727Y28319320D01*
X71399759Y28476363D01*
X71599637Y28676241D01*
X71755000Y28908759D01*
X71910363Y28676241D01*
X72110241Y28476363D01*
X72345273Y28319320D01*
X72606426Y28211147D01*
X72883665Y28156000D01*
X73166335Y28156000D01*
X73443574Y28211147D01*
X73704727Y28319320D01*
X73939759Y28476363D01*
X74139637Y28676241D01*
X74296680Y28911273D01*
X74301067Y28921865D01*
X74412615Y28735869D01*
X74601586Y28527481D01*
X74827580Y28359963D01*
X75081913Y28239754D01*
X75215961Y28199096D01*
X75438000Y28321085D01*
X75438000Y29464000D01*
X75692000Y29464000D01*
X75692000Y28321085D01*
X75914039Y28199096D01*
X76048087Y28239754D01*
X76302420Y28359963D01*
X76528414Y28527481D01*
X76717385Y28735869D01*
X76862070Y28977119D01*
X76956909Y29241960D01*
X76835624Y29464000D01*
X75692000Y29464000D01*
X75438000Y29464000D01*
X75418000Y29464000D01*
X75418000Y29718000D01*
X75438000Y29718000D01*
X75438000Y30860915D01*
X75692000Y30860915D01*
X75692000Y29718000D01*
X76835624Y29718000D01*
X76956909Y29940040D01*
X76862070Y30204881D01*
X76717385Y30446131D01*
X76528414Y30654519D01*
X76302420Y30822037D01*
X76048087Y30942246D01*
X75914039Y30982904D01*
X75692000Y30860915D01*
X75438000Y30860915D01*
X75215961Y30982904D01*
X75081913Y30942246D01*
X74827580Y30822037D01*
X74601586Y30654519D01*
X74412615Y30446131D01*
X74301067Y30260135D01*
X74296680Y30270727D01*
X74139637Y30505759D01*
X73939759Y30705637D01*
X73704727Y30862680D01*
X73443574Y30970853D01*
X73166335Y31026000D01*
X72883665Y31026000D01*
X72606426Y30970853D01*
X72345273Y30862680D01*
X72110241Y30705637D01*
X71910363Y30505759D01*
X71755000Y30273241D01*
X71599637Y30505759D01*
X71399759Y30705637D01*
X71164727Y30862680D01*
X70903574Y30970853D01*
X70626335Y31026000D01*
X70343665Y31026000D01*
X70161114Y30989688D01*
X70018109Y31132692D01*
X70019426Y31132147D01*
X70296665Y31077000D01*
X70579335Y31077000D01*
X70856574Y31132147D01*
X71117727Y31240320D01*
X71352759Y31397363D01*
X71474694Y31519298D01*
X74624903Y31519298D01*
X74696486Y31275329D01*
X74951996Y31154429D01*
X75226184Y31085700D01*
X75508512Y31071783D01*
X75788130Y31113213D01*
X76054292Y31208397D01*
X76179514Y31275329D01*
X76251097Y31519298D01*
X75438000Y32332395D01*
X74624903Y31519298D01*
X71474694Y31519298D01*
X71552637Y31597241D01*
X71709680Y31832273D01*
X71817853Y32093426D01*
X71873000Y32370665D01*
X71873000Y32441488D01*
X73997783Y32441488D01*
X74039213Y32161870D01*
X74134397Y31895708D01*
X74201329Y31770486D01*
X74445298Y31698903D01*
X75258395Y32512000D01*
X75617605Y32512000D01*
X76430702Y31698903D01*
X76674671Y31770486D01*
X76795571Y32025996D01*
X76864300Y32300184D01*
X76878217Y32582512D01*
X76836787Y32862130D01*
X76741603Y33128292D01*
X76674671Y33253514D01*
X76430702Y33325097D01*
X75617605Y32512000D01*
X75258395Y32512000D01*
X74445298Y33325097D01*
X74201329Y33253514D01*
X74080429Y32998004D01*
X74011700Y32723816D01*
X73997783Y32441488D01*
X71873000Y32441488D01*
X71873000Y32653335D01*
X71817853Y32930574D01*
X71709680Y33191727D01*
X71552637Y33426759D01*
X71474694Y33504702D01*
X74624903Y33504702D01*
X75438000Y32691605D01*
X76251097Y33504702D01*
X76179514Y33748671D01*
X75924004Y33869571D01*
X75649816Y33938300D01*
X75367488Y33952217D01*
X75087870Y33910787D01*
X74821708Y33815603D01*
X74696486Y33748671D01*
X74624903Y33504702D01*
X71474694Y33504702D01*
X71352759Y33626637D01*
X71117727Y33783680D01*
X70856574Y33891853D01*
X70579335Y33947000D01*
X70296665Y33947000D01*
X70019426Y33891853D01*
X69758273Y33783680D01*
X69523241Y33626637D01*
X69323363Y33426759D01*
X69166320Y33191727D01*
X69058147Y32930574D01*
X69003000Y32653335D01*
X69003000Y32370665D01*
X69058147Y32093426D01*
X69058693Y32092109D01*
X68130801Y33020000D01*
X70119157Y35008355D01*
X70226514Y34987000D01*
X70489486Y34987000D01*
X70747405Y35038304D01*
X70990359Y35138939D01*
X71209013Y35285038D01*
X71394962Y35470987D01*
X71541061Y35689641D01*
X71641696Y35932595D01*
X71693000Y36190514D01*
X71693000Y36453486D01*
X74103000Y36453486D01*
X74103000Y36190514D01*
X74154304Y35932595D01*
X74254939Y35689641D01*
X74401038Y35470987D01*
X74586987Y35285038D01*
X74805641Y35138939D01*
X75048595Y35038304D01*
X75306514Y34987000D01*
X75569486Y34987000D01*
X75827405Y35038304D01*
X76070359Y35138939D01*
X76289013Y35285038D01*
X76474962Y35470987D01*
X76621061Y35689641D01*
X76721696Y35932595D01*
X76773000Y36190514D01*
X76773000Y36453486D01*
X76721696Y36711405D01*
X76621061Y36954359D01*
X76474962Y37173013D01*
X76289013Y37358962D01*
X76070359Y37505061D01*
X75827405Y37605696D01*
X75569486Y37657000D01*
X75306514Y37657000D01*
X75048595Y37605696D01*
X74805641Y37505061D01*
X74586987Y37358962D01*
X74401038Y37173013D01*
X74254939Y36954359D01*
X74154304Y36711405D01*
X74103000Y36453486D01*
X71693000Y36453486D01*
X71641696Y36711405D01*
X71541061Y36954359D01*
X71394962Y37173013D01*
X71209013Y37358962D01*
X70990359Y37505061D01*
X70747405Y37605696D01*
X70489486Y37657000D01*
X70226514Y37657000D01*
X69968595Y37605696D01*
X69725641Y37505061D01*
X69506987Y37358962D01*
X69321038Y37173013D01*
X69174939Y36954359D01*
X69074304Y36711405D01*
X69023000Y36453486D01*
X69023000Y36190514D01*
X69044355Y36083157D01*
X66741199Y33780000D01*
X62798803Y33780000D01*
X47045804Y49532997D01*
X47022001Y49562001D01*
X46906276Y49656974D01*
X46774247Y49727546D01*
X46630986Y49771003D01*
X46519333Y49782000D01*
X46519322Y49782000D01*
X46482000Y49785676D01*
X46444678Y49782000D01*
X44975802Y49782000D01*
X41033804Y53723997D01*
X41010001Y53753001D01*
X40894276Y53847974D01*
X40858072Y53867326D01*
X40858072Y54063000D01*
X40845812Y54187482D01*
X40809502Y54307180D01*
X40750537Y54417494D01*
X40671185Y54514185D01*
X40574494Y54593537D01*
X40464180Y54652502D01*
X40344482Y54688812D01*
X40220000Y54701072D01*
X38520000Y54701072D01*
X38395518Y54688812D01*
X38275820Y54652502D01*
X38165506Y54593537D01*
X38068815Y54514185D01*
X37989463Y54417494D01*
X37930498Y54307180D01*
X37894188Y54187482D01*
X37881928Y54063000D01*
X37881928Y52363000D01*
X37894188Y52238518D01*
X37930498Y52118820D01*
X37989463Y52008506D01*
X38068815Y51911815D01*
X38165506Y51832463D01*
X38275820Y51773498D01*
X38348380Y51751487D01*
X38216525Y51619632D01*
X38091822Y51433000D01*
X15404323Y51433000D01*
X15367000Y51436676D01*
X15329677Y51433000D01*
X15329667Y51433000D01*
X15218014Y51422003D01*
X15074753Y51378546D01*
X14942724Y51307974D01*
X14826999Y51213001D01*
X14803201Y51184003D01*
X12854930Y49235731D01*
X12597184Y49287000D01*
X12294816Y49287000D01*
X11998257Y49228011D01*
X11718905Y49112299D01*
X11467495Y48944312D01*
X11253688Y48730505D01*
X11085701Y48479095D01*
X10969989Y48199743D01*
X10911000Y47903184D01*
X10911000Y47600816D01*
X10969989Y47304257D01*
X11085701Y47024905D01*
X11253688Y46773495D01*
X11467495Y46559688D01*
X11718905Y46391701D01*
X11998257Y46275989D01*
X12294816Y46217000D01*
X12597184Y46217000D01*
X12893743Y46275989D01*
X13173095Y46391701D01*
X13424505Y46559688D01*
X13490944Y46626127D01*
X13496498Y46607820D01*
X13555463Y46497506D01*
X13634815Y46400815D01*
X13731506Y46321463D01*
X13841820Y46262498D01*
X13961518Y46226188D01*
X14086000Y46213928D01*
X14226000Y46213928D01*
X14226001Y42986803D01*
X11160844Y39921645D01*
X11053486Y39943000D01*
X10790514Y39943000D01*
X10532595Y39891696D01*
X10289641Y39791061D01*
X10070987Y39644962D01*
X9885038Y39459013D01*
X9738939Y39240359D01*
X9638304Y38997405D01*
X9587000Y38739486D01*
X685000Y38739486D01*
X685000Y57945647D01*
X675711Y58039956D01*
X691653Y58202542D01*
X776031Y58482018D01*
X913085Y58739780D01*
X1097599Y58966015D01*
X1322540Y59152103D01*
X1579342Y59290956D01*
X1858219Y59377282D01*
X2030268Y59395365D01*
X2125353Y59386000D01*
G37*
%TD.AperFunction*%
D22*
X54130363Y13436241D02*
X54330241Y13236363D01*
X54565273Y13079320D01*
X54826426Y12971147D01*
X55103665Y12916000D01*
X55386335Y12916000D01*
X55663574Y12971147D01*
X55924727Y13079320D01*
X56159759Y13236363D01*
X56159796Y13236400D01*
X56377197Y13019000D01*
X56260998Y13019000D01*
X56260998Y12854202D01*
X56054670Y12976722D01*
X55808877Y12886853D01*
X55585340Y12750759D01*
X55392649Y12573670D01*
X55238208Y12362392D01*
X55127953Y12125044D01*
X55095284Y12017329D01*
X55218626Y11811000D01*
X56261000Y11811000D01*
X56261000Y11831000D01*
X56515000Y11831000D01*
X56515000Y11811000D01*
X56535000Y11811000D01*
X56535000Y11557000D01*
X56515000Y11557000D01*
X56515000Y10513799D01*
X56721330Y10391278D01*
X56967123Y10481147D01*
X57190660Y10617241D01*
X57383351Y10794330D01*
X57537792Y11005608D01*
X57648047Y11242956D01*
X57680716Y11350671D01*
X57557375Y11556998D01*
X57723000Y11556998D01*
X57723000Y11673196D01*
X58517000Y10879196D01*
X58516999Y7960753D01*
X58345158Y8031932D01*
X58058260Y8089000D01*
X57765740Y8089000D01*
X57478842Y8031932D01*
X57208589Y7919990D01*
X56965368Y7757475D01*
X56758525Y7550632D01*
X56642000Y7376240D01*
X56525475Y7550632D01*
X56318632Y7757475D01*
X56075411Y7919990D01*
X55805158Y8031932D01*
X55518260Y8089000D01*
X55225740Y8089000D01*
X54938842Y8031932D01*
X54668589Y7919990D01*
X54425368Y7757475D01*
X54218525Y7550632D01*
X54102000Y7376240D01*
X53985475Y7550632D01*
X53778632Y7757475D01*
X53535411Y7919990D01*
X53265158Y8031932D01*
X52978260Y8089000D01*
X52685740Y8089000D01*
X52398842Y8031932D01*
X52128589Y7919990D01*
X51885368Y7757475D01*
X51678525Y7550632D01*
X51562000Y7376240D01*
X51445475Y7550632D01*
X51238632Y7757475D01*
X50995411Y7919990D01*
X50725158Y8031932D01*
X50438260Y8089000D01*
X50145740Y8089000D01*
X49858842Y8031932D01*
X49588589Y7919990D01*
X49345368Y7757475D01*
X49138525Y7550632D01*
X49016805Y7368466D01*
X48947178Y7485355D01*
X48752269Y7701588D01*
X48518920Y7875641D01*
X48256099Y8000825D01*
X48108890Y8045476D01*
X47879000Y7924155D01*
X47879000Y6731000D01*
X47899000Y6731000D01*
X47899000Y6477000D01*
X47879000Y6477000D01*
X47879000Y6457000D01*
X47625000Y6457000D01*
X47625000Y6477000D01*
X47605000Y6477000D01*
X47605000Y6731000D01*
X47625000Y6731000D01*
X47625000Y7924155D01*
X47395110Y8045476D01*
X47247901Y8000825D01*
X46985080Y7875641D01*
X46751731Y7701588D01*
X46556822Y7485355D01*
X46487195Y7368466D01*
X46365475Y7550632D01*
X46158632Y7757475D01*
X45915411Y7919990D01*
X45645158Y8031932D01*
X45358260Y8089000D01*
X45065740Y8089000D01*
X44955965Y8067164D01*
X49841114Y12952312D01*
X50023665Y12916000D01*
X50306335Y12916000D01*
X50530001Y12960491D01*
X50530001Y12769748D01*
X50456987Y12720962D01*
X50271038Y12535013D01*
X50124939Y12316359D01*
X50024304Y12073405D01*
X49973000Y11815486D01*
X49973000Y11552514D01*
X50024304Y11294595D01*
X50124939Y11051641D01*
X50271038Y10832987D01*
X50456987Y10647038D01*
X50675641Y10500939D01*
X50918595Y10400304D01*
X51176514Y10349000D01*
X51439486Y10349000D01*
X51697405Y10400304D01*
X51940359Y10500939D01*
X52159013Y10647038D01*
X52344962Y10832987D01*
X52491061Y11051641D01*
X52591696Y11294595D01*
X52602850Y11350671D01*
X55095284Y11350671D01*
X55127953Y11242956D01*
X55238208Y11005608D01*
X55392649Y10794330D01*
X55585340Y10617241D01*
X55808877Y10481147D01*
X56054670Y10391278D01*
X56261000Y10513799D01*
X56261000Y11557000D01*
X55218626Y11557000D01*
X55095284Y11350671D01*
X52602850Y11350671D01*
X52643000Y11552514D01*
X52643000Y11815486D01*
X52591696Y12073405D01*
X52491061Y12316359D01*
X52344962Y12535013D01*
X52159013Y12720962D01*
X52050001Y12793801D01*
X52050001Y13069077D01*
X52286426Y12971147D01*
X52563665Y12916000D01*
X52846335Y12916000D01*
X53123574Y12971147D01*
X53384727Y13079320D01*
X53619759Y13236363D01*
X53819637Y13436241D01*
X53975000Y13668759D01*
X54130363Y13436241D01*
%TA.AperFunction,Conductor*%
D23*
G36*
X54130363Y13436241D02*
G01*
X54330241Y13236363D01*
X54565273Y13079320D01*
X54826426Y12971147D01*
X55103665Y12916000D01*
X55386335Y12916000D01*
X55663574Y12971147D01*
X55924727Y13079320D01*
X56159759Y13236363D01*
X56159796Y13236400D01*
X56377197Y13019000D01*
X56260998Y13019000D01*
X56260998Y12854202D01*
X56054670Y12976722D01*
X55808877Y12886853D01*
X55585340Y12750759D01*
X55392649Y12573670D01*
X55238208Y12362392D01*
X55127953Y12125044D01*
X55095284Y12017329D01*
X55218626Y11811000D01*
X56261000Y11811000D01*
X56261000Y11831000D01*
X56515000Y11831000D01*
X56515000Y11811000D01*
X56535000Y11811000D01*
X56535000Y11557000D01*
X56515000Y11557000D01*
X56515000Y10513799D01*
X56721330Y10391278D01*
X56967123Y10481147D01*
X57190660Y10617241D01*
X57383351Y10794330D01*
X57537792Y11005608D01*
X57648047Y11242956D01*
X57680716Y11350671D01*
X57557375Y11556998D01*
X57723000Y11556998D01*
X57723000Y11673196D01*
X58517000Y10879196D01*
X58516999Y7960753D01*
X58345158Y8031932D01*
X58058260Y8089000D01*
X57765740Y8089000D01*
X57478842Y8031932D01*
X57208589Y7919990D01*
X56965368Y7757475D01*
X56758525Y7550632D01*
X56642000Y7376240D01*
X56525475Y7550632D01*
X56318632Y7757475D01*
X56075411Y7919990D01*
X55805158Y8031932D01*
X55518260Y8089000D01*
X55225740Y8089000D01*
X54938842Y8031932D01*
X54668589Y7919990D01*
X54425368Y7757475D01*
X54218525Y7550632D01*
X54102000Y7376240D01*
X53985475Y7550632D01*
X53778632Y7757475D01*
X53535411Y7919990D01*
X53265158Y8031932D01*
X52978260Y8089000D01*
X52685740Y8089000D01*
X52398842Y8031932D01*
X52128589Y7919990D01*
X51885368Y7757475D01*
X51678525Y7550632D01*
X51562000Y7376240D01*
X51445475Y7550632D01*
X51238632Y7757475D01*
X50995411Y7919990D01*
X50725158Y8031932D01*
X50438260Y8089000D01*
X50145740Y8089000D01*
X49858842Y8031932D01*
X49588589Y7919990D01*
X49345368Y7757475D01*
X49138525Y7550632D01*
X49016805Y7368466D01*
X48947178Y7485355D01*
X48752269Y7701588D01*
X48518920Y7875641D01*
X48256099Y8000825D01*
X48108890Y8045476D01*
X47879000Y7924155D01*
X47879000Y6731000D01*
X47899000Y6731000D01*
X47899000Y6477000D01*
X47879000Y6477000D01*
X47879000Y6457000D01*
X47625000Y6457000D01*
X47625000Y6477000D01*
X47605000Y6477000D01*
X47605000Y6731000D01*
X47625000Y6731000D01*
X47625000Y7924155D01*
X47395110Y8045476D01*
X47247901Y8000825D01*
X46985080Y7875641D01*
X46751731Y7701588D01*
X46556822Y7485355D01*
X46487195Y7368466D01*
X46365475Y7550632D01*
X46158632Y7757475D01*
X45915411Y7919990D01*
X45645158Y8031932D01*
X45358260Y8089000D01*
X45065740Y8089000D01*
X44955965Y8067164D01*
X49841114Y12952312D01*
X50023665Y12916000D01*
X50306335Y12916000D01*
X50530001Y12960491D01*
X50530001Y12769748D01*
X50456987Y12720962D01*
X50271038Y12535013D01*
X50124939Y12316359D01*
X50024304Y12073405D01*
X49973000Y11815486D01*
X49973000Y11552514D01*
X50024304Y11294595D01*
X50124939Y11051641D01*
X50271038Y10832987D01*
X50456987Y10647038D01*
X50675641Y10500939D01*
X50918595Y10400304D01*
X51176514Y10349000D01*
X51439486Y10349000D01*
X51697405Y10400304D01*
X51940359Y10500939D01*
X52159013Y10647038D01*
X52344962Y10832987D01*
X52491061Y11051641D01*
X52591696Y11294595D01*
X52602850Y11350671D01*
X55095284Y11350671D01*
X55127953Y11242956D01*
X55238208Y11005608D01*
X55392649Y10794330D01*
X55585340Y10617241D01*
X55808877Y10481147D01*
X56054670Y10391278D01*
X56261000Y10513799D01*
X56261000Y11557000D01*
X55218626Y11557000D01*
X55095284Y11350671D01*
X52602850Y11350671D01*
X52643000Y11552514D01*
X52643000Y11815486D01*
X52591696Y12073405D01*
X52491061Y12316359D01*
X52344962Y12535013D01*
X52159013Y12720962D01*
X52050001Y12793801D01*
X52050001Y13069077D01*
X52286426Y12971147D01*
X52563665Y12916000D01*
X52846335Y12916000D01*
X53123574Y12971147D01*
X53384727Y13079320D01*
X53619759Y13236363D01*
X53819637Y13436241D01*
X53975000Y13668759D01*
X54130363Y13436241D01*
G37*
%TD.AperFunction*%
%TD*%
M02*
