%TF.GenerationSoftware,KiCad,Pcbnew,(5.1.10-1-10_14)*%
%TF.CreationDate,2021-08-30T23:36:35+02:00*%
%TF.ProjectId,ram_board,72616d5f-626f-4617-9264-2e6b69636164,rev?*%
%TF.SameCoordinates,Original*%
%TF.FileFunction,Copper,L1,Top*%
%TF.FilePolarity,Positive*%
%FSLAX46Y46*%
G04 Gerber Fmt 4.6, Leading zero omitted, Abs format (unit mm)*
G04 Created by KiCad (PCBNEW (5.1.10-1-10_14)) date 2021-08-30 23:36:35*
%MOMM*%
%LPD*%
G01*
G04 APERTURE LIST*
%TA.AperFunction,ComponentPad*%
%ADD10C,1.600000*%
%TD*%
%TA.AperFunction,ComponentPad*%
%ADD11O,1.600000X1.600000*%
%TD*%
%TA.AperFunction,ComponentPad*%
%ADD12R,1.600000X1.600000*%
%TD*%
%TA.AperFunction,ComponentPad*%
%ADD13O,1.400000X1.400000*%
%TD*%
%TA.AperFunction,ComponentPad*%
%ADD14C,1.400000*%
%TD*%
%TA.AperFunction,ComponentPad*%
%ADD15O,1.700000X1.700000*%
%TD*%
%TA.AperFunction,ComponentPad*%
%ADD16R,1.700000X1.700000*%
%TD*%
%TA.AperFunction,ViaPad*%
%ADD17C,0.800000*%
%TD*%
%TA.AperFunction,ViaPad*%
%ADD18C,0.600000*%
%TD*%
%TA.AperFunction,Conductor*%
%ADD19C,0.250000*%
%TD*%
%TA.AperFunction,Conductor*%
%ADD20C,1.000000*%
%TD*%
%TA.AperFunction,Conductor*%
%ADD21C,0.500000*%
%TD*%
%TA.AperFunction,Conductor*%
%ADD22C,0.254000*%
%TD*%
%TA.AperFunction,Conductor*%
%ADD23C,0.100000*%
%TD*%
G04 APERTURE END LIST*
D10*
%TO.P,C5,2*%
%TO.N,GND*%
X67738000Y46736000D03*
%TO.P,C5,1*%
%TO.N,+5V*%
X62738000Y46736000D03*
%TD*%
D11*
%TO.P,U5,20*%
%TO.N,+5V*%
X30226000Y22352000D03*
%TO.P,U5,10*%
%TO.N,GND*%
X53086000Y14732000D03*
%TO.P,U5,19*%
%TO.N,~INH~*%
X32766000Y22352000D03*
%TO.P,U5,9*%
%TO.N,Net-(U3-Pad41)*%
X50546000Y14732000D03*
%TO.P,U5,18*%
%TO.N,Net-(U4-Pad9)*%
X35306000Y22352000D03*
%TO.P,U5,8*%
%TO.N,Net-(U4-Pad5)*%
X48006000Y14732000D03*
%TO.P,U5,17*%
%TO.N,GND*%
X37846000Y22352000D03*
%TO.P,U5,7*%
%TO.N,Net-(U4-Pad4)*%
X45466000Y14732000D03*
%TO.P,U5,16*%
%TO.N,Net-(U5-Pad16)*%
X40386000Y22352000D03*
%TO.P,U5,6*%
%TO.N,Net-(U3-Pad40)*%
X42926000Y14732000D03*
%TO.P,U5,15*%
%TO.N,Net-(U5-Pad15)*%
X42926000Y22352000D03*
%TO.P,U5,5*%
%TO.N,Net-(U3-Pad39)*%
X40386000Y14732000D03*
%TO.P,U5,14*%
%TO.N,Net-(U4-Pad7)*%
X45466000Y22352000D03*
%TO.P,U5,4*%
%TO.N,Net-(U4-Pad3)*%
X37846000Y14732000D03*
%TO.P,U5,13*%
%TO.N,Net-(U4-Pad6)*%
X48006000Y22352000D03*
%TO.P,U5,3*%
%TO.N,Net-(U4-Pad2)*%
X35306000Y14732000D03*
%TO.P,U5,12*%
%TO.N,Net-(U5-Pad12)*%
X50546000Y22352000D03*
%TO.P,U5,2*%
%TO.N,Net-(U3-Pad38)*%
X32766000Y14732000D03*
%TO.P,U5,11*%
%TO.N,Net-(R1-Pad1)*%
X53086000Y22352000D03*
D12*
%TO.P,U5,1*%
%TO.N,~RESET~*%
X30226000Y14732000D03*
%TD*%
D11*
%TO.P,U4,20*%
%TO.N,+5V*%
X5080000Y42672000D03*
%TO.P,U4,10*%
%TO.N,GND*%
X27940000Y35052000D03*
%TO.P,U4,19*%
%TO.N,~SLOT_SEL~*%
X7620000Y42672000D03*
%TO.P,U4,9*%
%TO.N,Net-(U4-Pad9)*%
X25400000Y35052000D03*
%TO.P,U4,18*%
%TO.N,D0*%
X10160000Y42672000D03*
%TO.P,U4,8*%
%TO.N,Net-(R1-Pad1)*%
X22860000Y35052000D03*
%TO.P,U4,17*%
%TO.N,D1*%
X12700000Y42672000D03*
%TO.P,U4,7*%
%TO.N,Net-(U4-Pad7)*%
X20320000Y35052000D03*
%TO.P,U4,16*%
%TO.N,D2*%
X15240000Y42672000D03*
%TO.P,U4,6*%
%TO.N,Net-(U4-Pad6)*%
X17780000Y35052000D03*
%TO.P,U4,15*%
%TO.N,D3*%
X17780000Y42672000D03*
%TO.P,U4,5*%
%TO.N,Net-(U4-Pad5)*%
X15240000Y35052000D03*
%TO.P,U4,14*%
%TO.N,D4*%
X20320000Y42672000D03*
%TO.P,U4,4*%
%TO.N,Net-(U4-Pad4)*%
X12700000Y35052000D03*
%TO.P,U4,13*%
%TO.N,D5*%
X22860000Y42672000D03*
%TO.P,U4,3*%
%TO.N,Net-(U4-Pad3)*%
X10160000Y35052000D03*
%TO.P,U4,12*%
%TO.N,Net-(U1-Pad11)*%
X25400000Y42672000D03*
%TO.P,U4,2*%
%TO.N,Net-(U4-Pad2)*%
X7620000Y35052000D03*
%TO.P,U4,11*%
%TO.N,D7*%
X27940000Y42672000D03*
D12*
%TO.P,U4,1*%
%TO.N,R~W~*%
X5080000Y35052000D03*
%TD*%
%TO.P,U3,44*%
%TO.N,Net-(U3-Pad44)*%
%TA.AperFunction,SMDPad,CuDef*%
G36*
G01*
X71508500Y33783000D02*
X71783500Y33783000D01*
G75*
G02*
X71921000Y33645500I0J-137500D01*
G01*
X71921000Y32395500D01*
G75*
G02*
X71783500Y32258000I-137500J0D01*
G01*
X71508500Y32258000D01*
G75*
G02*
X71371000Y32395500I0J137500D01*
G01*
X71371000Y33645500D01*
G75*
G02*
X71508500Y33783000I137500J0D01*
G01*
G37*
%TD.AperFunction*%
%TO.P,U3,43*%
%TO.N,Net-(U3-Pad43)*%
%TA.AperFunction,SMDPad,CuDef*%
G36*
G01*
X70708500Y33783000D02*
X70983500Y33783000D01*
G75*
G02*
X71121000Y33645500I0J-137500D01*
G01*
X71121000Y32395500D01*
G75*
G02*
X70983500Y32258000I-137500J0D01*
G01*
X70708500Y32258000D01*
G75*
G02*
X70571000Y32395500I0J137500D01*
G01*
X70571000Y33645500D01*
G75*
G02*
X70708500Y33783000I137500J0D01*
G01*
G37*
%TD.AperFunction*%
%TO.P,U3,42*%
%TO.N,Net-(U3-Pad42)*%
%TA.AperFunction,SMDPad,CuDef*%
G36*
G01*
X69908500Y33783000D02*
X70183500Y33783000D01*
G75*
G02*
X70321000Y33645500I0J-137500D01*
G01*
X70321000Y32395500D01*
G75*
G02*
X70183500Y32258000I-137500J0D01*
G01*
X69908500Y32258000D01*
G75*
G02*
X69771000Y32395500I0J137500D01*
G01*
X69771000Y33645500D01*
G75*
G02*
X69908500Y33783000I137500J0D01*
G01*
G37*
%TD.AperFunction*%
%TO.P,U3,41*%
%TO.N,Net-(U3-Pad41)*%
%TA.AperFunction,SMDPad,CuDef*%
G36*
G01*
X69108500Y33783000D02*
X69383500Y33783000D01*
G75*
G02*
X69521000Y33645500I0J-137500D01*
G01*
X69521000Y32395500D01*
G75*
G02*
X69383500Y32258000I-137500J0D01*
G01*
X69108500Y32258000D01*
G75*
G02*
X68971000Y32395500I0J137500D01*
G01*
X68971000Y33645500D01*
G75*
G02*
X69108500Y33783000I137500J0D01*
G01*
G37*
%TD.AperFunction*%
%TO.P,U3,40*%
%TO.N,Net-(U3-Pad40)*%
%TA.AperFunction,SMDPad,CuDef*%
G36*
G01*
X68308500Y33783000D02*
X68583500Y33783000D01*
G75*
G02*
X68721000Y33645500I0J-137500D01*
G01*
X68721000Y32395500D01*
G75*
G02*
X68583500Y32258000I-137500J0D01*
G01*
X68308500Y32258000D01*
G75*
G02*
X68171000Y32395500I0J137500D01*
G01*
X68171000Y33645500D01*
G75*
G02*
X68308500Y33783000I137500J0D01*
G01*
G37*
%TD.AperFunction*%
%TO.P,U3,39*%
%TO.N,Net-(U3-Pad39)*%
%TA.AperFunction,SMDPad,CuDef*%
G36*
G01*
X67508500Y33783000D02*
X67783500Y33783000D01*
G75*
G02*
X67921000Y33645500I0J-137500D01*
G01*
X67921000Y32395500D01*
G75*
G02*
X67783500Y32258000I-137500J0D01*
G01*
X67508500Y32258000D01*
G75*
G02*
X67371000Y32395500I0J137500D01*
G01*
X67371000Y33645500D01*
G75*
G02*
X67508500Y33783000I137500J0D01*
G01*
G37*
%TD.AperFunction*%
%TO.P,U3,38*%
%TO.N,Net-(U3-Pad38)*%
%TA.AperFunction,SMDPad,CuDef*%
G36*
G01*
X66708500Y33783000D02*
X66983500Y33783000D01*
G75*
G02*
X67121000Y33645500I0J-137500D01*
G01*
X67121000Y32395500D01*
G75*
G02*
X66983500Y32258000I-137500J0D01*
G01*
X66708500Y32258000D01*
G75*
G02*
X66571000Y32395500I0J137500D01*
G01*
X66571000Y33645500D01*
G75*
G02*
X66708500Y33783000I137500J0D01*
G01*
G37*
%TD.AperFunction*%
%TO.P,U3,37*%
%TO.N,Net-(U1-Pad8)*%
%TA.AperFunction,SMDPad,CuDef*%
G36*
G01*
X65908500Y33783000D02*
X66183500Y33783000D01*
G75*
G02*
X66321000Y33645500I0J-137500D01*
G01*
X66321000Y32395500D01*
G75*
G02*
X66183500Y32258000I-137500J0D01*
G01*
X65908500Y32258000D01*
G75*
G02*
X65771000Y32395500I0J137500D01*
G01*
X65771000Y33645500D01*
G75*
G02*
X65908500Y33783000I137500J0D01*
G01*
G37*
%TD.AperFunction*%
%TO.P,U3,36*%
%TO.N,D7*%
%TA.AperFunction,SMDPad,CuDef*%
G36*
G01*
X65108500Y33783000D02*
X65383500Y33783000D01*
G75*
G02*
X65521000Y33645500I0J-137500D01*
G01*
X65521000Y32395500D01*
G75*
G02*
X65383500Y32258000I-137500J0D01*
G01*
X65108500Y32258000D01*
G75*
G02*
X64971000Y32395500I0J137500D01*
G01*
X64971000Y33645500D01*
G75*
G02*
X65108500Y33783000I137500J0D01*
G01*
G37*
%TD.AperFunction*%
%TO.P,U3,35*%
%TO.N,D6*%
%TA.AperFunction,SMDPad,CuDef*%
G36*
G01*
X64308500Y33783000D02*
X64583500Y33783000D01*
G75*
G02*
X64721000Y33645500I0J-137500D01*
G01*
X64721000Y32395500D01*
G75*
G02*
X64583500Y32258000I-137500J0D01*
G01*
X64308500Y32258000D01*
G75*
G02*
X64171000Y32395500I0J137500D01*
G01*
X64171000Y33645500D01*
G75*
G02*
X64308500Y33783000I137500J0D01*
G01*
G37*
%TD.AperFunction*%
%TO.P,U3,34*%
%TO.N,GND*%
%TA.AperFunction,SMDPad,CuDef*%
G36*
G01*
X63508500Y33783000D02*
X63783500Y33783000D01*
G75*
G02*
X63921000Y33645500I0J-137500D01*
G01*
X63921000Y32395500D01*
G75*
G02*
X63783500Y32258000I-137500J0D01*
G01*
X63508500Y32258000D01*
G75*
G02*
X63371000Y32395500I0J137500D01*
G01*
X63371000Y33645500D01*
G75*
G02*
X63508500Y33783000I137500J0D01*
G01*
G37*
%TD.AperFunction*%
%TO.P,U3,33*%
%TO.N,+5V*%
%TA.AperFunction,SMDPad,CuDef*%
G36*
G01*
X62708500Y33783000D02*
X62983500Y33783000D01*
G75*
G02*
X63121000Y33645500I0J-137500D01*
G01*
X63121000Y32395500D01*
G75*
G02*
X62983500Y32258000I-137500J0D01*
G01*
X62708500Y32258000D01*
G75*
G02*
X62571000Y32395500I0J137500D01*
G01*
X62571000Y33645500D01*
G75*
G02*
X62708500Y33783000I137500J0D01*
G01*
G37*
%TD.AperFunction*%
%TO.P,U3,32*%
%TO.N,D5*%
%TA.AperFunction,SMDPad,CuDef*%
G36*
G01*
X61908500Y33783000D02*
X62183500Y33783000D01*
G75*
G02*
X62321000Y33645500I0J-137500D01*
G01*
X62321000Y32395500D01*
G75*
G02*
X62183500Y32258000I-137500J0D01*
G01*
X61908500Y32258000D01*
G75*
G02*
X61771000Y32395500I0J137500D01*
G01*
X61771000Y33645500D01*
G75*
G02*
X61908500Y33783000I137500J0D01*
G01*
G37*
%TD.AperFunction*%
%TO.P,U3,31*%
%TO.N,D4*%
%TA.AperFunction,SMDPad,CuDef*%
G36*
G01*
X61108500Y33783000D02*
X61383500Y33783000D01*
G75*
G02*
X61521000Y33645500I0J-137500D01*
G01*
X61521000Y32395500D01*
G75*
G02*
X61383500Y32258000I-137500J0D01*
G01*
X61108500Y32258000D01*
G75*
G02*
X60971000Y32395500I0J137500D01*
G01*
X60971000Y33645500D01*
G75*
G02*
X61108500Y33783000I137500J0D01*
G01*
G37*
%TD.AperFunction*%
%TO.P,U3,30*%
%TO.N,A14*%
%TA.AperFunction,SMDPad,CuDef*%
G36*
G01*
X60308500Y33783000D02*
X60583500Y33783000D01*
G75*
G02*
X60721000Y33645500I0J-137500D01*
G01*
X60721000Y32395500D01*
G75*
G02*
X60583500Y32258000I-137500J0D01*
G01*
X60308500Y32258000D01*
G75*
G02*
X60171000Y32395500I0J137500D01*
G01*
X60171000Y33645500D01*
G75*
G02*
X60308500Y33783000I137500J0D01*
G01*
G37*
%TD.AperFunction*%
%TO.P,U3,29*%
%TO.N,A13*%
%TA.AperFunction,SMDPad,CuDef*%
G36*
G01*
X59508500Y33783000D02*
X59783500Y33783000D01*
G75*
G02*
X59921000Y33645500I0J-137500D01*
G01*
X59921000Y32395500D01*
G75*
G02*
X59783500Y32258000I-137500J0D01*
G01*
X59508500Y32258000D01*
G75*
G02*
X59371000Y32395500I0J137500D01*
G01*
X59371000Y33645500D01*
G75*
G02*
X59508500Y33783000I137500J0D01*
G01*
G37*
%TD.AperFunction*%
%TO.P,U3,28*%
%TO.N,A12*%
%TA.AperFunction,SMDPad,CuDef*%
G36*
G01*
X58708500Y33783000D02*
X58983500Y33783000D01*
G75*
G02*
X59121000Y33645500I0J-137500D01*
G01*
X59121000Y32395500D01*
G75*
G02*
X58983500Y32258000I-137500J0D01*
G01*
X58708500Y32258000D01*
G75*
G02*
X58571000Y32395500I0J137500D01*
G01*
X58571000Y33645500D01*
G75*
G02*
X58708500Y33783000I137500J0D01*
G01*
G37*
%TD.AperFunction*%
%TO.P,U3,27*%
%TO.N,A11*%
%TA.AperFunction,SMDPad,CuDef*%
G36*
G01*
X57908500Y33783000D02*
X58183500Y33783000D01*
G75*
G02*
X58321000Y33645500I0J-137500D01*
G01*
X58321000Y32395500D01*
G75*
G02*
X58183500Y32258000I-137500J0D01*
G01*
X57908500Y32258000D01*
G75*
G02*
X57771000Y32395500I0J137500D01*
G01*
X57771000Y33645500D01*
G75*
G02*
X57908500Y33783000I137500J0D01*
G01*
G37*
%TD.AperFunction*%
%TO.P,U3,26*%
%TO.N,A10*%
%TA.AperFunction,SMDPad,CuDef*%
G36*
G01*
X57108500Y33783000D02*
X57383500Y33783000D01*
G75*
G02*
X57521000Y33645500I0J-137500D01*
G01*
X57521000Y32395500D01*
G75*
G02*
X57383500Y32258000I-137500J0D01*
G01*
X57108500Y32258000D01*
G75*
G02*
X56971000Y32395500I0J137500D01*
G01*
X56971000Y33645500D01*
G75*
G02*
X57108500Y33783000I137500J0D01*
G01*
G37*
%TD.AperFunction*%
%TO.P,U3,25*%
%TO.N,Net-(U3-Pad25)*%
%TA.AperFunction,SMDPad,CuDef*%
G36*
G01*
X56308500Y33783000D02*
X56583500Y33783000D01*
G75*
G02*
X56721000Y33645500I0J-137500D01*
G01*
X56721000Y32395500D01*
G75*
G02*
X56583500Y32258000I-137500J0D01*
G01*
X56308500Y32258000D01*
G75*
G02*
X56171000Y32395500I0J137500D01*
G01*
X56171000Y33645500D01*
G75*
G02*
X56308500Y33783000I137500J0D01*
G01*
G37*
%TD.AperFunction*%
%TO.P,U3,24*%
%TO.N,Net-(U3-Pad24)*%
%TA.AperFunction,SMDPad,CuDef*%
G36*
G01*
X55508500Y33783000D02*
X55783500Y33783000D01*
G75*
G02*
X55921000Y33645500I0J-137500D01*
G01*
X55921000Y32395500D01*
G75*
G02*
X55783500Y32258000I-137500J0D01*
G01*
X55508500Y32258000D01*
G75*
G02*
X55371000Y32395500I0J137500D01*
G01*
X55371000Y33645500D01*
G75*
G02*
X55508500Y33783000I137500J0D01*
G01*
G37*
%TD.AperFunction*%
%TO.P,U3,23*%
%TO.N,Net-(U3-Pad23)*%
%TA.AperFunction,SMDPad,CuDef*%
G36*
G01*
X54708500Y33783000D02*
X54983500Y33783000D01*
G75*
G02*
X55121000Y33645500I0J-137500D01*
G01*
X55121000Y32395500D01*
G75*
G02*
X54983500Y32258000I-137500J0D01*
G01*
X54708500Y32258000D01*
G75*
G02*
X54571000Y32395500I0J137500D01*
G01*
X54571000Y33645500D01*
G75*
G02*
X54708500Y33783000I137500J0D01*
G01*
G37*
%TD.AperFunction*%
%TO.P,U3,22*%
%TO.N,Net-(U3-Pad22)*%
%TA.AperFunction,SMDPad,CuDef*%
G36*
G01*
X54708500Y44958000D02*
X54983500Y44958000D01*
G75*
G02*
X55121000Y44820500I0J-137500D01*
G01*
X55121000Y43570500D01*
G75*
G02*
X54983500Y43433000I-137500J0D01*
G01*
X54708500Y43433000D01*
G75*
G02*
X54571000Y43570500I0J137500D01*
G01*
X54571000Y44820500D01*
G75*
G02*
X54708500Y44958000I137500J0D01*
G01*
G37*
%TD.AperFunction*%
%TO.P,U3,21*%
%TO.N,Net-(U3-Pad21)*%
%TA.AperFunction,SMDPad,CuDef*%
G36*
G01*
X55508500Y44958000D02*
X55783500Y44958000D01*
G75*
G02*
X55921000Y44820500I0J-137500D01*
G01*
X55921000Y43570500D01*
G75*
G02*
X55783500Y43433000I-137500J0D01*
G01*
X55508500Y43433000D01*
G75*
G02*
X55371000Y43570500I0J137500D01*
G01*
X55371000Y44820500D01*
G75*
G02*
X55508500Y44958000I137500J0D01*
G01*
G37*
%TD.AperFunction*%
%TO.P,U3,20*%
%TO.N,A9*%
%TA.AperFunction,SMDPad,CuDef*%
G36*
G01*
X56308500Y44958000D02*
X56583500Y44958000D01*
G75*
G02*
X56721000Y44820500I0J-137500D01*
G01*
X56721000Y43570500D01*
G75*
G02*
X56583500Y43433000I-137500J0D01*
G01*
X56308500Y43433000D01*
G75*
G02*
X56171000Y43570500I0J137500D01*
G01*
X56171000Y44820500D01*
G75*
G02*
X56308500Y44958000I137500J0D01*
G01*
G37*
%TD.AperFunction*%
%TO.P,U3,19*%
%TO.N,A8*%
%TA.AperFunction,SMDPad,CuDef*%
G36*
G01*
X57108500Y44958000D02*
X57383500Y44958000D01*
G75*
G02*
X57521000Y44820500I0J-137500D01*
G01*
X57521000Y43570500D01*
G75*
G02*
X57383500Y43433000I-137500J0D01*
G01*
X57108500Y43433000D01*
G75*
G02*
X56971000Y43570500I0J137500D01*
G01*
X56971000Y44820500D01*
G75*
G02*
X57108500Y44958000I137500J0D01*
G01*
G37*
%TD.AperFunction*%
%TO.P,U3,18*%
%TO.N,A7*%
%TA.AperFunction,SMDPad,CuDef*%
G36*
G01*
X57908500Y44958000D02*
X58183500Y44958000D01*
G75*
G02*
X58321000Y44820500I0J-137500D01*
G01*
X58321000Y43570500D01*
G75*
G02*
X58183500Y43433000I-137500J0D01*
G01*
X57908500Y43433000D01*
G75*
G02*
X57771000Y43570500I0J137500D01*
G01*
X57771000Y44820500D01*
G75*
G02*
X57908500Y44958000I137500J0D01*
G01*
G37*
%TD.AperFunction*%
%TO.P,U3,17*%
%TO.N,A6*%
%TA.AperFunction,SMDPad,CuDef*%
G36*
G01*
X58708500Y44958000D02*
X58983500Y44958000D01*
G75*
G02*
X59121000Y44820500I0J-137500D01*
G01*
X59121000Y43570500D01*
G75*
G02*
X58983500Y43433000I-137500J0D01*
G01*
X58708500Y43433000D01*
G75*
G02*
X58571000Y43570500I0J137500D01*
G01*
X58571000Y44820500D01*
G75*
G02*
X58708500Y44958000I137500J0D01*
G01*
G37*
%TD.AperFunction*%
%TO.P,U3,16*%
%TO.N,A5*%
%TA.AperFunction,SMDPad,CuDef*%
G36*
G01*
X59508500Y44958000D02*
X59783500Y44958000D01*
G75*
G02*
X59921000Y44820500I0J-137500D01*
G01*
X59921000Y43570500D01*
G75*
G02*
X59783500Y43433000I-137500J0D01*
G01*
X59508500Y43433000D01*
G75*
G02*
X59371000Y43570500I0J137500D01*
G01*
X59371000Y44820500D01*
G75*
G02*
X59508500Y44958000I137500J0D01*
G01*
G37*
%TD.AperFunction*%
%TO.P,U3,15*%
%TO.N,Net-(U1-Pad6)*%
%TA.AperFunction,SMDPad,CuDef*%
G36*
G01*
X60308500Y44958000D02*
X60583500Y44958000D01*
G75*
G02*
X60721000Y44820500I0J-137500D01*
G01*
X60721000Y43570500D01*
G75*
G02*
X60583500Y43433000I-137500J0D01*
G01*
X60308500Y43433000D01*
G75*
G02*
X60171000Y43570500I0J137500D01*
G01*
X60171000Y44820500D01*
G75*
G02*
X60308500Y44958000I137500J0D01*
G01*
G37*
%TD.AperFunction*%
%TO.P,U3,14*%
%TO.N,D3*%
%TA.AperFunction,SMDPad,CuDef*%
G36*
G01*
X61108500Y44958000D02*
X61383500Y44958000D01*
G75*
G02*
X61521000Y44820500I0J-137500D01*
G01*
X61521000Y43570500D01*
G75*
G02*
X61383500Y43433000I-137500J0D01*
G01*
X61108500Y43433000D01*
G75*
G02*
X60971000Y43570500I0J137500D01*
G01*
X60971000Y44820500D01*
G75*
G02*
X61108500Y44958000I137500J0D01*
G01*
G37*
%TD.AperFunction*%
%TO.P,U3,13*%
%TO.N,D2*%
%TA.AperFunction,SMDPad,CuDef*%
G36*
G01*
X61908500Y44958000D02*
X62183500Y44958000D01*
G75*
G02*
X62321000Y44820500I0J-137500D01*
G01*
X62321000Y43570500D01*
G75*
G02*
X62183500Y43433000I-137500J0D01*
G01*
X61908500Y43433000D01*
G75*
G02*
X61771000Y43570500I0J137500D01*
G01*
X61771000Y44820500D01*
G75*
G02*
X61908500Y44958000I137500J0D01*
G01*
G37*
%TD.AperFunction*%
%TO.P,U3,12*%
%TO.N,GND*%
%TA.AperFunction,SMDPad,CuDef*%
G36*
G01*
X62708500Y44958000D02*
X62983500Y44958000D01*
G75*
G02*
X63121000Y44820500I0J-137500D01*
G01*
X63121000Y43570500D01*
G75*
G02*
X62983500Y43433000I-137500J0D01*
G01*
X62708500Y43433000D01*
G75*
G02*
X62571000Y43570500I0J137500D01*
G01*
X62571000Y44820500D01*
G75*
G02*
X62708500Y44958000I137500J0D01*
G01*
G37*
%TD.AperFunction*%
%TO.P,U3,11*%
%TO.N,+5V*%
%TA.AperFunction,SMDPad,CuDef*%
G36*
G01*
X63508500Y44958000D02*
X63783500Y44958000D01*
G75*
G02*
X63921000Y44820500I0J-137500D01*
G01*
X63921000Y43570500D01*
G75*
G02*
X63783500Y43433000I-137500J0D01*
G01*
X63508500Y43433000D01*
G75*
G02*
X63371000Y43570500I0J137500D01*
G01*
X63371000Y44820500D01*
G75*
G02*
X63508500Y44958000I137500J0D01*
G01*
G37*
%TD.AperFunction*%
%TO.P,U3,10*%
%TO.N,D1*%
%TA.AperFunction,SMDPad,CuDef*%
G36*
G01*
X64308500Y44958000D02*
X64583500Y44958000D01*
G75*
G02*
X64721000Y44820500I0J-137500D01*
G01*
X64721000Y43570500D01*
G75*
G02*
X64583500Y43433000I-137500J0D01*
G01*
X64308500Y43433000D01*
G75*
G02*
X64171000Y43570500I0J137500D01*
G01*
X64171000Y44820500D01*
G75*
G02*
X64308500Y44958000I137500J0D01*
G01*
G37*
%TD.AperFunction*%
%TO.P,U3,9*%
%TO.N,D0*%
%TA.AperFunction,SMDPad,CuDef*%
G36*
G01*
X65108500Y44958000D02*
X65383500Y44958000D01*
G75*
G02*
X65521000Y44820500I0J-137500D01*
G01*
X65521000Y43570500D01*
G75*
G02*
X65383500Y43433000I-137500J0D01*
G01*
X65108500Y43433000D01*
G75*
G02*
X64971000Y43570500I0J137500D01*
G01*
X64971000Y44820500D01*
G75*
G02*
X65108500Y44958000I137500J0D01*
G01*
G37*
%TD.AperFunction*%
%TO.P,U3,8*%
%TO.N,~INH~*%
%TA.AperFunction,SMDPad,CuDef*%
G36*
G01*
X65908500Y44958000D02*
X66183500Y44958000D01*
G75*
G02*
X66321000Y44820500I0J-137500D01*
G01*
X66321000Y43570500D01*
G75*
G02*
X66183500Y43433000I-137500J0D01*
G01*
X65908500Y43433000D01*
G75*
G02*
X65771000Y43570500I0J137500D01*
G01*
X65771000Y44820500D01*
G75*
G02*
X65908500Y44958000I137500J0D01*
G01*
G37*
%TD.AperFunction*%
%TO.P,U3,7*%
%TO.N,A4*%
%TA.AperFunction,SMDPad,CuDef*%
G36*
G01*
X66708500Y44958000D02*
X66983500Y44958000D01*
G75*
G02*
X67121000Y44820500I0J-137500D01*
G01*
X67121000Y43570500D01*
G75*
G02*
X66983500Y43433000I-137500J0D01*
G01*
X66708500Y43433000D01*
G75*
G02*
X66571000Y43570500I0J137500D01*
G01*
X66571000Y44820500D01*
G75*
G02*
X66708500Y44958000I137500J0D01*
G01*
G37*
%TD.AperFunction*%
%TO.P,U3,6*%
%TO.N,A3*%
%TA.AperFunction,SMDPad,CuDef*%
G36*
G01*
X67508500Y44958000D02*
X67783500Y44958000D01*
G75*
G02*
X67921000Y44820500I0J-137500D01*
G01*
X67921000Y43570500D01*
G75*
G02*
X67783500Y43433000I-137500J0D01*
G01*
X67508500Y43433000D01*
G75*
G02*
X67371000Y43570500I0J137500D01*
G01*
X67371000Y44820500D01*
G75*
G02*
X67508500Y44958000I137500J0D01*
G01*
G37*
%TD.AperFunction*%
%TO.P,U3,5*%
%TO.N,A2*%
%TA.AperFunction,SMDPad,CuDef*%
G36*
G01*
X68308500Y44958000D02*
X68583500Y44958000D01*
G75*
G02*
X68721000Y44820500I0J-137500D01*
G01*
X68721000Y43570500D01*
G75*
G02*
X68583500Y43433000I-137500J0D01*
G01*
X68308500Y43433000D01*
G75*
G02*
X68171000Y43570500I0J137500D01*
G01*
X68171000Y44820500D01*
G75*
G02*
X68308500Y44958000I137500J0D01*
G01*
G37*
%TD.AperFunction*%
%TO.P,U3,4*%
%TO.N,A1*%
%TA.AperFunction,SMDPad,CuDef*%
G36*
G01*
X69108500Y44958000D02*
X69383500Y44958000D01*
G75*
G02*
X69521000Y44820500I0J-137500D01*
G01*
X69521000Y43570500D01*
G75*
G02*
X69383500Y43433000I-137500J0D01*
G01*
X69108500Y43433000D01*
G75*
G02*
X68971000Y43570500I0J137500D01*
G01*
X68971000Y44820500D01*
G75*
G02*
X69108500Y44958000I137500J0D01*
G01*
G37*
%TD.AperFunction*%
%TO.P,U3,3*%
%TO.N,A0*%
%TA.AperFunction,SMDPad,CuDef*%
G36*
G01*
X69908500Y44958000D02*
X70183500Y44958000D01*
G75*
G02*
X70321000Y44820500I0J-137500D01*
G01*
X70321000Y43570500D01*
G75*
G02*
X70183500Y43433000I-137500J0D01*
G01*
X69908500Y43433000D01*
G75*
G02*
X69771000Y43570500I0J137500D01*
G01*
X69771000Y44820500D01*
G75*
G02*
X69908500Y44958000I137500J0D01*
G01*
G37*
%TD.AperFunction*%
%TO.P,U3,2*%
%TO.N,Net-(U3-Pad2)*%
%TA.AperFunction,SMDPad,CuDef*%
G36*
G01*
X70708500Y44958000D02*
X70983500Y44958000D01*
G75*
G02*
X71121000Y44820500I0J-137500D01*
G01*
X71121000Y43570500D01*
G75*
G02*
X70983500Y43433000I-137500J0D01*
G01*
X70708500Y43433000D01*
G75*
G02*
X70571000Y43570500I0J137500D01*
G01*
X70571000Y44820500D01*
G75*
G02*
X70708500Y44958000I137500J0D01*
G01*
G37*
%TD.AperFunction*%
%TO.P,U3,1*%
%TO.N,Net-(U3-Pad1)*%
%TA.AperFunction,SMDPad,CuDef*%
G36*
G01*
X71508500Y44958000D02*
X71783500Y44958000D01*
G75*
G02*
X71921000Y44820500I0J-137500D01*
G01*
X71921000Y43570500D01*
G75*
G02*
X71783500Y43433000I-137500J0D01*
G01*
X71508500Y43433000D01*
G75*
G02*
X71371000Y43570500I0J137500D01*
G01*
X71371000Y44820500D01*
G75*
G02*
X71508500Y44958000I137500J0D01*
G01*
G37*
%TD.AperFunction*%
%TD*%
D11*
%TO.P,U1,14*%
%TO.N,+5V*%
X8382000Y22352000D03*
%TO.P,U1,7*%
%TO.N,GND*%
X23622000Y14732000D03*
%TO.P,U1,13*%
%TO.N,~SLOT_SEL~*%
X10922000Y22352000D03*
%TO.P,U1,6*%
%TO.N,Net-(U1-Pad6)*%
X21082000Y14732000D03*
%TO.P,U1,12*%
%TO.N,~SLOT_SEL~*%
X13462000Y22352000D03*
%TO.P,U1,5*%
%TO.N,CLK*%
X18542000Y14732000D03*
%TO.P,U1,11*%
%TO.N,Net-(U1-Pad11)*%
X16002000Y22352000D03*
%TO.P,U1,4*%
%TO.N,Net-(U1-Pad3)*%
X16002000Y14732000D03*
%TO.P,U1,10*%
%TO.N,A15*%
X18542000Y22352000D03*
%TO.P,U1,3*%
%TO.N,Net-(U1-Pad3)*%
X13462000Y14732000D03*
%TO.P,U1,9*%
%TO.N,~SSEL~*%
X21082000Y22352000D03*
%TO.P,U1,2*%
%TO.N,R~W~*%
X10922000Y14732000D03*
%TO.P,U1,8*%
%TO.N,Net-(U1-Pad8)*%
X23622000Y22352000D03*
D12*
%TO.P,U1,1*%
%TO.N,R~W~*%
X8382000Y14732000D03*
%TD*%
D13*
%TO.P,R1,2*%
%TO.N,GND*%
X27940000Y32258000D03*
D14*
%TO.P,R1,1*%
%TO.N,Net-(R1-Pad1)*%
X22860000Y32258000D03*
%TD*%
D10*
%TO.P,C4,2*%
%TO.N,GND*%
X35226000Y25146000D03*
%TO.P,C4,1*%
%TO.N,+5V*%
X30226000Y25146000D03*
%TD*%
%TO.P,C3,2*%
%TO.N,GND*%
X10080000Y45466000D03*
%TO.P,C3,1*%
%TO.N,+5V*%
X5080000Y45466000D03*
%TD*%
%TO.P,C2,2*%
%TO.N,GND*%
X67992000Y30480000D03*
%TO.P,C2,1*%
%TO.N,+5V*%
X62992000Y30480000D03*
%TD*%
%TO.P,C1,2*%
%TO.N,GND*%
X13382000Y25146000D03*
%TO.P,C1,1*%
%TO.N,+5V*%
X8382000Y25146000D03*
%TD*%
D15*
%TO.P,J1,50*%
%TO.N,~NMI~*%
X17272000Y4064000D03*
%TO.P,J1,49*%
%TO.N,~RESET~*%
X17272000Y6604000D03*
%TO.P,J1,48*%
%TO.N,~SLOT_IRQ~*%
X19812000Y4064000D03*
%TO.P,J1,47*%
%TO.N,SYNC*%
X19812000Y6604000D03*
%TO.P,J1,46*%
%TO.N,EX3*%
X22352000Y4064000D03*
%TO.P,J1,45*%
%TO.N,~IRQ~*%
X22352000Y6604000D03*
%TO.P,J1,44*%
%TO.N,EX2*%
X24892000Y4064000D03*
%TO.P,J1,43*%
%TO.N,R~W~*%
X24892000Y6604000D03*
%TO.P,J1,42*%
%TO.N,CLK_12M*%
X27432000Y4064000D03*
%TO.P,J1,41*%
%TO.N,CLK*%
X27432000Y6604000D03*
%TO.P,J1,40*%
%TO.N,LED4*%
X29972000Y4064000D03*
%TO.P,J1,39*%
%TO.N,BE*%
X29972000Y6604000D03*
%TO.P,J1,38*%
%TO.N,LED3*%
X32512000Y4064000D03*
%TO.P,J1,37*%
%TO.N,RDY*%
X32512000Y6604000D03*
%TO.P,J1,36*%
%TO.N,LED2*%
X35052000Y4064000D03*
%TO.P,J1,35*%
%TO.N,A15*%
X35052000Y6604000D03*
%TO.P,J1,34*%
%TO.N,LED1*%
X37592000Y4064000D03*
%TO.P,J1,33*%
%TO.N,A14*%
X37592000Y6604000D03*
%TO.P,J1,32*%
%TO.N,~SLOT_SEL~*%
X40132000Y4064000D03*
%TO.P,J1,31*%
%TO.N,A13*%
X40132000Y6604000D03*
%TO.P,J1,30*%
%TO.N,~INH~*%
X42672000Y4064000D03*
%TO.P,J1,29*%
%TO.N,A12*%
X42672000Y6604000D03*
%TO.P,J1,28*%
%TO.N,~SSEL~*%
X45212000Y4064000D03*
%TO.P,J1,27*%
%TO.N,A11*%
X45212000Y6604000D03*
%TO.P,J1,26*%
%TO.N,GND*%
X47752000Y4064000D03*
%TO.P,J1,25*%
%TO.N,+5V*%
X47752000Y6604000D03*
%TO.P,J1,24*%
X50292000Y4064000D03*
%TO.P,J1,23*%
%TO.N,GND*%
X50292000Y6604000D03*
%TO.P,J1,22*%
%TO.N,~SLOW~*%
X52832000Y4064000D03*
%TO.P,J1,21*%
%TO.N,A10*%
X52832000Y6604000D03*
%TO.P,J1,20*%
%TO.N,EX1*%
X55372000Y4064000D03*
%TO.P,J1,19*%
%TO.N,A9*%
X55372000Y6604000D03*
%TO.P,J1,18*%
%TO.N,EX0*%
X57912000Y4064000D03*
%TO.P,J1,17*%
%TO.N,A8*%
X57912000Y6604000D03*
%TO.P,J1,16*%
%TO.N,D7*%
X60452000Y4064000D03*
%TO.P,J1,15*%
%TO.N,A7*%
X60452000Y6604000D03*
%TO.P,J1,14*%
%TO.N,D6*%
X62992000Y4064000D03*
%TO.P,J1,13*%
%TO.N,A6*%
X62992000Y6604000D03*
%TO.P,J1,12*%
%TO.N,D5*%
X65532000Y4064000D03*
%TO.P,J1,11*%
%TO.N,A5*%
X65532000Y6604000D03*
%TO.P,J1,10*%
%TO.N,D4*%
X68072000Y4064000D03*
%TO.P,J1,9*%
%TO.N,A4*%
X68072000Y6604000D03*
%TO.P,J1,8*%
%TO.N,D3*%
X70612000Y4064000D03*
%TO.P,J1,7*%
%TO.N,A3*%
X70612000Y6604000D03*
%TO.P,J1,6*%
%TO.N,D2*%
X73152000Y4064000D03*
%TO.P,J1,5*%
%TO.N,A2*%
X73152000Y6604000D03*
%TO.P,J1,4*%
%TO.N,D1*%
X75692000Y4064000D03*
%TO.P,J1,3*%
%TO.N,A1*%
X75692000Y6604000D03*
%TO.P,J1,2*%
%TO.N,D0*%
X78232000Y4064000D03*
D16*
%TO.P,J1,1*%
%TO.N,A0*%
X78232000Y6604000D03*
%TD*%
D17*
%TO.N,A14*%
X43942000Y5334000D03*
D18*
%TO.N,A13*%
X44196000Y24637994D03*
X41910000Y7874000D03*
X39116000Y20320000D03*
%TO.N,A11*%
X49792100Y16727010D03*
X49087490Y12663010D03*
D17*
%TO.N,GND*%
X62771010Y42680600D03*
X63696010Y31724659D03*
%TO.N,+5V*%
X63646000Y40024000D03*
X62738000Y34798000D03*
X66040000Y48006000D03*
D18*
%TO.N,A10*%
X54429988Y12663010D03*
X53848000Y17780000D03*
%TO.N,A9*%
X57404000Y36983083D03*
X56200051Y15681949D03*
%TO.N,A8*%
X57845949Y15052051D03*
X58419597Y36983075D03*
%TO.N,D7*%
X61976000Y17018000D03*
X65338949Y22545051D03*
%TO.N,A7*%
X59436000Y37533096D03*
X58820644Y16534746D03*
%TO.N,D6*%
X66170653Y20132207D03*
X64262000Y18288000D03*
%TO.N,A6*%
X60452000Y37846000D03*
X59461833Y31015803D03*
%TO.N,A5*%
X61646478Y37760112D03*
X60253602Y31130347D03*
%TO.N,D4*%
X68775800Y9320000D03*
%TO.N,A4*%
X65591021Y38862000D03*
X60801373Y29645627D03*
%TO.N,D3*%
X68002627Y34879190D03*
X69342000Y31242000D03*
%TO.N,A3*%
X66802000Y37846000D03*
X66548000Y29717992D03*
%TO.N,D2*%
X73406000Y9652000D03*
X69342000Y34798000D03*
X71628000Y31241998D03*
%TO.N,A2*%
X72390000Y34798000D03*
X72644000Y30226000D03*
%TO.N,D1*%
X70568860Y35104460D03*
X72398863Y31709985D03*
%TO.N,A1*%
X75857624Y9370287D03*
D17*
%TO.N,~RESET~*%
X26556900Y14633600D03*
X20246000Y8993800D03*
D18*
%TO.N,~INH~*%
X38862000Y46482000D03*
X32766000Y40132000D03*
X32766000Y29210000D03*
D17*
%TO.N,Net-(U1-Pad6)*%
X23113988Y17780000D03*
X26924000Y43644957D03*
D18*
X20748835Y27830521D03*
%TO.N,Net-(U1-Pad11)*%
X20320000Y28702000D03*
%TO.N,Net-(U1-Pad8)*%
X55626000Y37338000D03*
X53407751Y35624351D03*
X25146000Y30734008D03*
X21508407Y27579386D03*
%TO.N,Net-(U3-Pad41)*%
X51776207Y12663010D03*
X62784454Y18974556D03*
X67564000Y21844002D03*
%TO.N,Net-(U3-Pad40)*%
X55880000Y12192000D03*
X63011988Y18079734D03*
X65866742Y21298864D03*
%TO.N,Net-(U3-Pad39)*%
X55354700Y31230700D03*
X66552616Y35023420D03*
X48260000Y16627010D03*
X64379010Y34582317D03*
X55589970Y35949377D03*
%TO.N,Net-(U3-Pad38)*%
X45720000Y16510000D03*
X58671010Y22630538D03*
X65278000Y23368000D03*
%TO.N,Net-(U4-Pad9)*%
X22374905Y29150548D03*
D17*
%TO.N,Net-(U4-Pad2)*%
X11229900Y32047100D03*
%TD*%
D19*
%TO.N,A15*%
X23295507Y16800993D02*
X22512005Y16800993D01*
X22512005Y16800993D02*
X18542000Y20770998D01*
X35052000Y6604000D02*
X33876700Y7779300D01*
X33876700Y7779300D02*
X32317200Y7779300D01*
X32317200Y7779300D02*
X23295507Y16800993D01*
X18542000Y20770998D02*
X18542000Y22352000D01*
%TO.N,A14*%
X59746022Y23116939D02*
X59746022Y20843787D01*
X53445575Y13388012D02*
X51428205Y13388012D01*
X59276350Y30276282D02*
X59276350Y23586611D01*
X50836999Y12796806D02*
X50836999Y11351299D01*
X59161831Y31640805D02*
X58836831Y31315805D01*
X59828805Y31640805D02*
X59161831Y31640805D01*
X58836831Y31315805D02*
X58836831Y30715801D01*
X51428205Y13388012D02*
X50836999Y12796806D01*
X59276350Y23586611D02*
X59746022Y23116939D01*
X50836999Y11351299D02*
X46387400Y6901700D01*
X46387400Y6901700D02*
X46387400Y6055200D01*
X45666200Y5334000D02*
X43942000Y5334000D01*
X46387400Y6055200D02*
X45666200Y5334000D01*
X54254976Y14197412D02*
X53445575Y13388012D01*
X58836831Y30715801D02*
X59276350Y30276282D01*
X60446000Y33020500D02*
X60446000Y32258000D01*
X60446000Y32258000D02*
X59828805Y31640805D01*
X59746022Y20843787D02*
X54254976Y15352741D01*
X54254976Y15352741D02*
X54254976Y14197412D01*
%TO.N,A13*%
X41511001Y14481997D02*
X41511001Y17924999D01*
X41511001Y17924999D02*
X39116000Y20320000D01*
X41910000Y7874000D02*
X41910000Y14082998D01*
X41910000Y14082998D02*
X41511001Y14481997D01*
X59646000Y33020500D02*
X59646000Y33783000D01*
X59320990Y34108010D02*
X53666016Y34108010D01*
X59646000Y33783000D02*
X59320990Y34108010D01*
X53666016Y34108010D02*
X44196000Y24637994D01*
%TO.N,A12*%
X52545999Y15857001D02*
X51671001Y14982003D01*
X51241805Y13838023D02*
X51010781Y13606999D01*
X48472918Y13606999D02*
X42672000Y7806081D01*
X51010781Y13606999D02*
X48472918Y13606999D01*
X56135023Y17869199D02*
X54122825Y15857001D01*
X51671001Y14982003D02*
X51671001Y14191999D01*
X58386820Y31502205D02*
X58386820Y30529401D01*
X56135023Y18320323D02*
X56135023Y17869199D01*
X58826339Y23400211D02*
X59296011Y22930539D01*
X58846000Y31961385D02*
X58386820Y31502205D01*
X58826339Y30089882D02*
X58826339Y23400211D01*
X58386820Y30529401D02*
X58826339Y30089882D01*
X51671001Y14191999D02*
X51317025Y13838023D01*
X58846000Y33020500D02*
X58846000Y31961385D01*
X59296011Y21481311D02*
X56135023Y18320323D01*
X54122825Y15857001D02*
X52545999Y15857001D01*
X51317025Y13838023D02*
X51241805Y13838023D01*
X59296011Y22930539D02*
X59296011Y21481311D01*
X42672000Y7806081D02*
X42672000Y6604000D01*
%TO.N,A11*%
X49087490Y10479490D02*
X49087490Y12663010D01*
X45212000Y6604000D02*
X49087490Y10479490D01*
X57936809Y30343001D02*
X58046000Y30233810D01*
X58046000Y30233810D02*
X58046000Y21504122D01*
X53750025Y16757023D02*
X50246377Y16757023D01*
X58046000Y21504122D02*
X54727001Y18185123D01*
X50216364Y16727010D02*
X49792100Y16727010D01*
X57936809Y32911309D02*
X57936809Y30343001D01*
X58046000Y33020500D02*
X57936809Y32911309D01*
X50246377Y16757023D02*
X50216364Y16727010D01*
X54727001Y17733999D02*
X53750025Y16757023D01*
X54727001Y18185123D02*
X54727001Y17733999D01*
%TO.N,GND*%
X62846000Y42755590D02*
X62771010Y42680600D01*
D20*
X47752000Y4064000D02*
X50292000Y6604000D01*
D19*
X63646000Y33020500D02*
X63646000Y31774669D01*
X63646000Y31774669D02*
X63696010Y31724659D01*
D21*
X62771010Y44120510D02*
X62846000Y44195500D01*
X62771010Y42680600D02*
X62771010Y44120510D01*
%TO.N,+5V*%
X63646000Y44195500D02*
X63646000Y40024000D01*
X63646000Y40024000D02*
X63646000Y40024000D01*
X62846000Y34690000D02*
X62846000Y33020500D01*
X62738000Y34798000D02*
X62846000Y34690000D01*
X62846000Y33020500D02*
X62846000Y30626000D01*
X62846000Y30626000D02*
X62992000Y30480000D01*
X63646000Y44988866D02*
X63226856Y45408010D01*
X63646000Y44195500D02*
X63646000Y44988866D01*
X63226856Y46247144D02*
X63226856Y45485144D01*
X62738000Y46736000D02*
X63226856Y46247144D01*
D19*
%TO.N,A10*%
X52832000Y11065022D02*
X54429988Y12663010D01*
X52832000Y6604000D02*
X52832000Y11065022D01*
X53848000Y18034000D02*
X53848000Y17780000D01*
X57246000Y33020500D02*
X57246000Y21432000D01*
X57246000Y21432000D02*
X53848000Y18034000D01*
%TO.N,A9*%
X56446000Y37941083D02*
X57404000Y36983083D01*
X56446000Y44195500D02*
X56446000Y37941083D01*
X55372000Y11626996D02*
X55154998Y11843998D01*
X55154998Y14636896D02*
X56200051Y15681949D01*
X55372000Y6604000D02*
X55372000Y11626996D01*
X55154998Y11843998D02*
X55154998Y14636896D01*
%TO.N,A8*%
X57912000Y6604000D02*
X57912000Y14986000D01*
X57912000Y14986000D02*
X57845949Y15052051D01*
X57246000Y44195500D02*
X57246000Y40453004D01*
X58719596Y38979408D02*
X58719596Y37283074D01*
X57246000Y40453004D02*
X58719596Y38979408D01*
X58719596Y37283074D02*
X58419597Y36983075D01*
%TO.N,D7*%
X60452000Y4064000D02*
X61722000Y5334000D01*
X61722000Y5334000D02*
X61722000Y16764000D01*
X61722000Y16764000D02*
X61976000Y17018000D01*
X65246000Y34640331D02*
X63876320Y36010011D01*
X63876320Y36010011D02*
X59017379Y36010011D01*
X49205300Y42672000D02*
X27940000Y42672000D01*
X59017379Y36010011D02*
X58915422Y35908054D01*
X58915422Y35908054D02*
X56764533Y35908054D01*
X55164301Y36712999D02*
X49205300Y42672000D01*
X56764533Y35908054D02*
X55959588Y36712999D01*
X65246000Y33020500D02*
X65246000Y34640331D01*
X55959588Y36712999D02*
X55164301Y36712999D01*
X64967035Y29426002D02*
X64652998Y29111965D01*
X64652998Y29111965D02*
X64652998Y22806738D01*
X64914685Y22545051D02*
X65338949Y22545051D01*
X65246000Y31084411D02*
X64967035Y30805446D01*
X64967035Y30805446D02*
X64967035Y29426002D01*
X64652998Y22806738D02*
X64914685Y22545051D01*
X65246000Y33020500D02*
X65246000Y31084411D01*
%TO.N,A7*%
X60452000Y6604000D02*
X58820644Y8235356D01*
X58820644Y8235356D02*
X58820644Y16534746D01*
X59241013Y37728083D02*
X59436000Y37533096D01*
X58046000Y44195500D02*
X58046000Y42575415D01*
X59241013Y41380402D02*
X59241013Y37728083D01*
X58046000Y42575415D02*
X59241013Y41380402D01*
%TO.N,D6*%
X62992000Y4064000D02*
X64262000Y5334000D01*
X64262000Y5334000D02*
X64262000Y18288000D01*
X63948981Y22291621D02*
X66108395Y20132207D01*
X64446000Y29541378D02*
X63948981Y29044359D01*
X63948981Y29044359D02*
X63948981Y22291621D01*
X64446000Y33020500D02*
X64446000Y29541378D01*
X66108395Y20132207D02*
X66170653Y20132207D01*
%TO.N,A6*%
X63636998Y7248998D02*
X63636998Y19195014D01*
X63636998Y19195014D02*
X60197324Y22634688D01*
X60197324Y22634688D02*
X60197324Y28527936D01*
X60197324Y28527936D02*
X59726361Y28998899D01*
X59726361Y28998899D02*
X59726361Y30751275D01*
X62992000Y6604000D02*
X63636998Y7248998D01*
X59726361Y30751275D02*
X59461833Y31015803D01*
X59691024Y38606977D02*
X60452000Y37846000D01*
X58846000Y42411826D02*
X59691024Y41566802D01*
X58846000Y44195500D02*
X58846000Y42411826D01*
X59691024Y41566802D02*
X59691024Y38606977D01*
%TO.N,D5*%
X68372100Y5239300D02*
X66707300Y5239300D01*
X66745035Y18533200D02*
X69512700Y15765535D01*
X63355200Y22029037D02*
X66745035Y18639202D01*
X63355200Y28451798D02*
X63355200Y22029037D01*
X69247400Y6114600D02*
X68372100Y5239300D01*
X69512700Y15765535D02*
X69512700Y8653000D01*
X61866999Y32841499D02*
X61866999Y29939999D01*
X66745035Y18639202D02*
X66745035Y18533200D01*
X61866999Y29939999D02*
X63355200Y28451798D01*
X69512700Y8653000D02*
X69247400Y8387700D01*
X66707300Y5239300D02*
X66381999Y4913999D01*
X66381999Y4913999D02*
X65532000Y4064000D01*
X62046000Y33020500D02*
X61866999Y32841499D01*
X69247400Y8387700D02*
X69247400Y6114600D01*
X60820968Y35008032D02*
X62046000Y33783000D01*
X62046000Y33783000D02*
X62046000Y33020500D01*
X54552009Y36000401D02*
X55544378Y35008032D01*
X54552009Y36254401D02*
X54552009Y36000401D01*
X22860000Y42672000D02*
X23985001Y41546999D01*
X23985001Y41546999D02*
X49259411Y41546999D01*
X55544378Y35008032D02*
X60820968Y35008032D01*
X49259411Y41546999D02*
X54552009Y36254401D01*
%TO.N,A5*%
X60176372Y29345635D02*
X60176372Y31053117D01*
X65395002Y6740998D02*
X65395002Y18073421D01*
X60647335Y22821088D02*
X60647335Y28874672D01*
X60176372Y31053117D02*
X60253602Y31130347D01*
X65395002Y18073421D02*
X60647335Y22821088D01*
X60647335Y28874672D02*
X60176372Y29345635D01*
X65532000Y6604000D02*
X65395002Y6740998D01*
X60141035Y41753202D02*
X60141035Y39265555D01*
X59646000Y42248237D02*
X60141035Y41753202D01*
X59646000Y44195500D02*
X59646000Y42248237D01*
X60141035Y39265555D02*
X61646478Y37760112D01*
%TO.N,D4*%
X62265599Y22482227D02*
X62265599Y28904988D01*
X62265599Y28904988D02*
X61416988Y29753599D01*
X61416988Y29753599D02*
X61416988Y32849512D01*
X61416988Y32849512D02*
X61246000Y33020500D01*
X66295024Y18452802D02*
X62265599Y22482227D01*
X68775800Y9320000D02*
X66295024Y11800776D01*
X66295024Y11800776D02*
X66295024Y18452802D01*
X60470979Y34558021D02*
X61246000Y33783000D01*
X20320000Y42672000D02*
X21895012Y41096988D01*
X55357978Y34558021D02*
X60470979Y34558021D01*
X48819012Y41096988D02*
X55357978Y34558021D01*
X21895012Y41096988D02*
X48819012Y41096988D01*
X61246000Y33783000D02*
X61246000Y33020500D01*
%TO.N,A4*%
X66846000Y40116979D02*
X65591021Y38862000D01*
X66846000Y44195500D02*
X66846000Y40116979D01*
X61101373Y23010042D02*
X61101372Y29345628D01*
X68072000Y6604000D02*
X65845013Y8830987D01*
X65845013Y8830987D02*
X65845013Y18266402D01*
X65845013Y18266402D02*
X61101373Y23010042D01*
X61101372Y29345628D02*
X60801373Y29645627D01*
%TO.N,D3*%
X67147850Y35733967D02*
X68002627Y34879190D01*
X61246000Y40353767D02*
X65865800Y35733967D01*
X65865800Y35733967D02*
X67147850Y35733967D01*
X61246000Y44195500D02*
X61246000Y40353767D01*
X61246000Y44195500D02*
X61246000Y44958000D01*
X19477967Y44369967D02*
X17780000Y42672000D01*
X54330522Y45733021D02*
X52967468Y44369967D01*
X61246000Y44958000D02*
X60470979Y45733021D01*
X60470979Y45733021D02*
X54330522Y45733021D01*
X52967468Y44369967D02*
X19477967Y44369967D01*
X66938998Y22831172D02*
X69342000Y25234174D01*
X70612000Y4064000D02*
X71819500Y5271500D01*
X71819500Y5271500D02*
X71819500Y16663496D01*
X71819500Y16663496D02*
X66938998Y21543998D01*
X66938998Y21543998D02*
X66938998Y22831172D01*
X69342000Y25234174D02*
X69342000Y31242000D01*
%TO.N,A3*%
X67646000Y38690000D02*
X66802000Y37846000D01*
X67646000Y44195500D02*
X67646000Y38690000D01*
X66488987Y23017572D02*
X66847999Y23376584D01*
X66847999Y23376584D02*
X66847999Y29417993D01*
X70612000Y17234585D02*
X66488987Y21357598D01*
X66488987Y21357598D02*
X66488987Y23017572D01*
X70612000Y6604000D02*
X70612000Y17234585D01*
X66847999Y29417993D02*
X66548000Y29717992D01*
%TO.N,D2*%
X67956022Y36183978D02*
X66052200Y36183978D01*
X66052200Y36183978D02*
X62046000Y40190178D01*
X69342000Y34798000D02*
X67956022Y36183978D01*
X62046000Y40190178D02*
X62046000Y44195500D01*
X52781068Y44819978D02*
X17387978Y44819978D01*
X54144122Y46183032D02*
X52781068Y44819978D01*
X60820968Y46183032D02*
X54144122Y46183032D01*
X62046000Y44195500D02*
X62046000Y44958000D01*
X62046000Y44958000D02*
X60820968Y46183032D01*
X17387978Y44819978D02*
X15240000Y42672000D01*
X73406000Y9652000D02*
X73406000Y30389004D01*
X72853005Y30941999D02*
X71927999Y30941999D01*
X71927999Y30941999D02*
X71628000Y31241998D01*
X73406000Y30389004D02*
X72853005Y30941999D01*
%TO.N,A2*%
X72390000Y35052000D02*
X72390000Y34798000D01*
X68446000Y38996000D02*
X72390000Y35052000D01*
X68446000Y44195500D02*
X68446000Y38996000D01*
X72302001Y29884001D02*
X72644000Y30226000D01*
X73152000Y6604000D02*
X72302001Y7453999D01*
X72302001Y7453999D02*
X72302001Y29884001D01*
%TO.N,D1*%
X66238600Y36633989D02*
X69039331Y36633989D01*
X64446000Y43282586D02*
X64516000Y43212586D01*
X64446000Y44195500D02*
X64446000Y43282586D01*
X69039331Y36633989D02*
X70568860Y35104460D01*
X64516000Y38356589D02*
X66238600Y36633989D01*
X64516000Y43212586D02*
X64516000Y38356589D01*
X60985453Y46633043D02*
X53957722Y46633043D01*
X64446000Y46693002D02*
X63278001Y47861001D01*
X64446000Y44195500D02*
X64446000Y46693002D01*
X63278001Y47861001D02*
X62213411Y47861001D01*
X53957722Y46633043D02*
X52594668Y45269989D01*
X52594668Y45269989D02*
X15297989Y45269989D01*
X62213411Y47861001D02*
X60985453Y46633043D01*
X15297989Y45269989D02*
X12700000Y42672000D01*
X72823127Y31709985D02*
X72398863Y31709985D01*
X74516700Y5239300D02*
X74516700Y30016412D01*
X75692000Y4064000D02*
X74516700Y5239300D01*
X74516700Y30016412D02*
X72823127Y31709985D01*
%TO.N,A1*%
X69246000Y39598643D02*
X75857624Y32987019D01*
X75857624Y32987019D02*
X75857624Y9370287D01*
X69246000Y44195500D02*
X69246000Y39598643D01*
%TO.N,D0*%
X65246000Y44195500D02*
X65246000Y46529413D01*
X10959999Y43471999D02*
X10160000Y42672000D01*
X13208000Y45720000D02*
X10959999Y43471999D01*
X65246000Y46529413D02*
X63464401Y48311012D01*
X60720678Y47083054D02*
X53771322Y47083054D01*
X61948636Y48311012D02*
X60720678Y47083054D01*
X53771322Y47083054D02*
X52408268Y45720000D01*
X63464401Y48311012D02*
X61948636Y48311012D01*
X52408268Y45720000D02*
X13208000Y45720000D01*
X65246000Y44195500D02*
X65246000Y43433000D01*
X64966011Y38542989D02*
X66425000Y37084000D01*
X76919100Y7383807D02*
X76919100Y5376900D01*
X71256999Y35489323D02*
X71256999Y34842301D01*
X69662322Y37084000D02*
X71256999Y35489323D01*
X76919100Y5376900D02*
X77382001Y4913999D01*
X71256999Y34842301D02*
X74987989Y31111311D01*
X74987989Y9314918D02*
X76919100Y7383807D01*
X64966011Y43153011D02*
X64966011Y38542989D01*
X74987989Y31111311D02*
X74987989Y9314918D01*
X65246000Y43433000D02*
X64966011Y43153011D01*
X66425000Y37084000D02*
X69662322Y37084000D01*
X77382001Y4913999D02*
X78232000Y4064000D01*
%TO.N,A0*%
X70046000Y39446900D02*
X70046000Y44195500D01*
X78232000Y7779300D02*
X76454000Y9557300D01*
X76454000Y33038900D02*
X70046000Y39446900D01*
X78232000Y6604000D02*
X78232000Y7779300D01*
X76454000Y9557300D02*
X76454000Y33038900D01*
%TO.N,CLK*%
X18542000Y14732000D02*
X18542000Y13606700D01*
X27432000Y6604000D02*
X26256700Y6604000D01*
X26256700Y6604000D02*
X26256700Y6914000D01*
X26256700Y6914000D02*
X19564000Y13606700D01*
X19564000Y13606700D02*
X18542000Y13606700D01*
%TO.N,~RESET~*%
X29100700Y14732000D02*
X26655300Y14732000D01*
X26655300Y14732000D02*
X26556900Y14633600D01*
X30226000Y14732000D02*
X29100700Y14732000D01*
X17272000Y6604000D02*
X18447300Y6604000D01*
X18447300Y6604000D02*
X18447300Y7195100D01*
X18447300Y7195100D02*
X20246000Y8993800D01*
%TO.N,R~W~*%
X10922000Y14732000D02*
X12047300Y14732000D01*
X24892000Y6604000D02*
X23716700Y6604000D01*
X23716700Y6604000D02*
X23716700Y6971300D01*
X23716700Y6971300D02*
X17081300Y13606700D01*
X17081300Y13606700D02*
X12891200Y13606700D01*
X12891200Y13606700D02*
X12047300Y14450600D01*
X12047300Y14450600D02*
X12047300Y14732000D01*
X9572600Y14732000D02*
X10922000Y14732000D01*
X8382000Y14732000D02*
X9572600Y14732000D01*
X9572600Y14732000D02*
X9572600Y29434100D01*
X9572600Y29434100D02*
X5080000Y33926700D01*
X5080000Y35052000D02*
X5080000Y33926700D01*
%TO.N,~SLOT_SEL~*%
X10922000Y22352000D02*
X13462000Y22352000D01*
X7620000Y42672000D02*
X7620000Y41546700D01*
X10922000Y22352000D02*
X10922000Y30221100D01*
X10922000Y30221100D02*
X8745300Y32397800D01*
X8745300Y32397800D02*
X8745300Y40421400D01*
X8745300Y40421400D02*
X7620000Y41546700D01*
X16259200Y21226700D02*
X15431200Y21226700D01*
X22352000Y15133900D02*
X16259200Y21226700D01*
X15431200Y21226700D02*
X14305900Y22352000D01*
X24008400Y12707700D02*
X22352000Y14364100D01*
X22352000Y14364100D02*
X22352000Y15133900D01*
X31242000Y6173000D02*
X31242000Y7076600D01*
X25610900Y12707700D02*
X24008400Y12707700D01*
X14305900Y22352000D02*
X13462000Y22352000D01*
X38956700Y4064000D02*
X38956700Y4362500D01*
X40132000Y4064000D02*
X38956700Y4064000D01*
X31986400Y5428600D02*
X31242000Y6173000D01*
X38956700Y4362500D02*
X37890600Y5428600D01*
X31242000Y7076600D02*
X25610900Y12707700D01*
X37890600Y5428600D02*
X31986400Y5428600D01*
%TO.N,~INH~*%
X39116000Y16002000D02*
X33565999Y21552001D01*
X41284995Y11129705D02*
X39116000Y13298700D01*
X41284995Y7574003D02*
X41284995Y11129705D01*
X33565999Y21552001D02*
X32766000Y22352000D01*
X41402000Y5334000D02*
X41402000Y7456998D01*
X42672000Y4064000D02*
X41402000Y5334000D01*
X39116000Y13298700D02*
X39116000Y16002000D01*
X41402000Y7456998D02*
X41284995Y7574003D01*
X53549857Y47498000D02*
X53340000Y47498000D01*
X53340000Y47498000D02*
X52324000Y46482000D01*
X53584922Y47533065D02*
X53549857Y47498000D01*
X66046000Y44195500D02*
X66046000Y46365824D01*
X63497825Y48913999D02*
X61867999Y48913999D01*
X61867999Y48913999D02*
X60487065Y47533065D01*
X60487065Y47533065D02*
X53584922Y47533065D01*
X66046000Y46365824D02*
X63497825Y48913999D01*
X52324000Y46482000D02*
X38862000Y46482000D01*
X32766000Y40132000D02*
X32766000Y29210000D01*
%TO.N,~SSEL~*%
X23355900Y20078100D02*
X21082000Y22352000D01*
X26984800Y20078100D02*
X23355900Y20078100D01*
X31351400Y15711500D02*
X26984800Y20078100D01*
X41496700Y3573100D02*
X41496700Y4363500D01*
X43193800Y2853800D02*
X42216000Y2853800D01*
X31351400Y14554900D02*
X31351400Y15711500D01*
X45212000Y4064000D02*
X44404000Y4064000D01*
X41496700Y4363500D02*
X40431600Y5428600D01*
X38862000Y6173000D02*
X38862000Y7044300D01*
X40431600Y5428600D02*
X39606400Y5428600D01*
X42216000Y2853800D02*
X41496700Y3573100D01*
X39606400Y5428600D02*
X38862000Y6173000D01*
X44404000Y4064000D02*
X43193800Y2853800D01*
X38862000Y7044300D02*
X31351400Y14554900D01*
%TO.N,Net-(R1-Pad1)*%
X22860000Y32258000D02*
X22860000Y35052000D01*
X27268996Y27686000D02*
X22860000Y32094996D01*
X43667863Y23911550D02*
X39893414Y27686000D01*
X39893414Y27686000D02*
X27268996Y27686000D01*
X51526450Y23911550D02*
X43667863Y23911550D01*
X22860000Y32094996D02*
X22860000Y32258000D01*
X53086000Y22352000D02*
X51526450Y23911550D01*
%TO.N,Net-(U1-Pad6)*%
X54516922Y45283010D02*
X53153868Y43919956D01*
X60120990Y45283010D02*
X54516922Y45283010D01*
X53153868Y43919956D02*
X27198999Y43919956D01*
X60446000Y44958000D02*
X60120990Y45283010D01*
X27198999Y43919956D02*
X26924000Y43644957D01*
X60446000Y44195500D02*
X60446000Y44958000D01*
X19667001Y21226987D02*
X19667001Y26748687D01*
X19667001Y26748687D02*
X20748835Y27830521D01*
X23113988Y17780000D02*
X19667001Y21226987D01*
%TO.N,Net-(U1-Pad11)*%
X16002000Y22352000D02*
X16002000Y24384000D01*
X16002000Y24384000D02*
X20320000Y28702000D01*
%TO.N,Net-(U1-Pad3)*%
X13462000Y14732000D02*
X16002000Y14732000D01*
%TO.N,Net-(U1-Pad8)*%
X53407751Y35624351D02*
X46231400Y28448000D01*
X46231400Y28448000D02*
X27686000Y28448000D01*
X23622000Y22352000D02*
X23622000Y25465793D01*
X23622000Y25465793D02*
X21508407Y27579386D01*
X27686000Y28448000D02*
X25399992Y30734008D01*
X25399992Y30734008D02*
X25146000Y30734008D01*
X58729022Y36358065D02*
X57030199Y36358065D01*
X66046000Y33020500D02*
X66046000Y34476742D01*
X58830979Y36460022D02*
X58729022Y36358065D01*
X64062720Y36460022D02*
X58830979Y36460022D01*
X66046000Y34476742D02*
X64062720Y36460022D01*
X56050264Y37338000D02*
X55626000Y37338000D01*
X57030199Y36358065D02*
X56050264Y37338000D01*
%TO.N,Net-(U3-Pad41)*%
X69246000Y32258000D02*
X70626000Y30878000D01*
X70626000Y24906002D02*
X67564000Y21844002D01*
X69246000Y33020500D02*
X69246000Y32258000D01*
X70626000Y30878000D02*
X70626000Y24906002D01*
X53356984Y12663010D02*
X54704986Y14011011D01*
X58513202Y18974556D02*
X62784454Y18974556D01*
X54704986Y14011011D02*
X54704986Y15166340D01*
X54704986Y15166340D02*
X58513202Y18974556D01*
X51776207Y12663010D02*
X53356984Y12663010D01*
%TO.N,Net-(U3-Pad40)*%
X59481734Y18079734D02*
X63011988Y18079734D01*
X55880000Y14478000D02*
X59481734Y18079734D01*
X55880000Y12192000D02*
X55880000Y14478000D01*
X65963951Y21396073D02*
X65866742Y21298864D01*
X65963951Y29329108D02*
X65963951Y21396073D01*
X65922998Y29370061D02*
X65963951Y29329108D01*
X67315496Y31664500D02*
X65922998Y30272002D01*
X68446000Y32258000D02*
X67852500Y31664500D01*
X65922998Y30272002D02*
X65922998Y29370061D01*
X67852500Y31664500D02*
X67315496Y31664500D01*
X68446000Y33020500D02*
X68446000Y32258000D01*
%TO.N,Net-(U3-Pad39)*%
X67646000Y33930036D02*
X66552616Y35023420D01*
X67646000Y33020500D02*
X67646000Y33930036D01*
X50331050Y17740950D02*
X49733038Y17740950D01*
X49373940Y17740950D02*
X48260000Y16627010D01*
X50331050Y17740950D02*
X49373940Y17740950D01*
X54392998Y21802898D02*
X50331050Y17740950D01*
X54392998Y30268998D02*
X54392998Y21802898D01*
X55354700Y31230700D02*
X54392998Y30268998D01*
X64379010Y34582317D02*
X63402351Y35558976D01*
X59202755Y35558976D02*
X59101822Y35458043D01*
X59101822Y35458043D02*
X56081304Y35458043D01*
X63402351Y35558976D02*
X59202755Y35558976D01*
X56081304Y35458043D02*
X55589970Y35949377D01*
%TO.N,Net-(U3-Pad38)*%
X66846000Y33020500D02*
X66846000Y33657034D01*
X53936425Y16307012D02*
X55685012Y18055599D01*
X58671010Y21492721D02*
X58671010Y22630538D01*
X46652264Y16002000D02*
X52054587Y16002000D01*
X45720000Y16510000D02*
X46144264Y16510000D01*
X46144264Y16510000D02*
X46652264Y16002000D01*
X55685012Y18055599D02*
X55685012Y18506723D01*
X52054587Y16002000D02*
X52359599Y16307012D01*
X55685012Y18506723D02*
X58671010Y21492721D01*
X52359599Y16307012D02*
X53936425Y16307012D01*
X65323997Y23413997D02*
X65278000Y23368000D01*
X65417046Y30402461D02*
X65417046Y29239602D01*
X65323997Y29146553D02*
X65323997Y23413997D01*
X65417046Y29239602D02*
X65323997Y29146553D01*
X66846000Y31831415D02*
X65417046Y30402461D01*
X66846000Y33020500D02*
X66846000Y31831415D01*
%TO.N,Net-(U4-Pad9)*%
X26304008Y25401024D02*
X22554484Y29150548D01*
X22554484Y29150548D02*
X22374905Y29150548D01*
X34180999Y23477001D02*
X29593586Y23477001D01*
X35306000Y22352000D02*
X34180999Y23477001D01*
X27669563Y25401024D02*
X26304008Y25401024D01*
X29593586Y23477001D02*
X27669563Y25401024D01*
%TO.N,Net-(U4-Pad7)*%
X39707014Y27235989D02*
X27082596Y27235989D01*
X23085586Y31232999D02*
X22434801Y31232999D01*
X45466000Y22352000D02*
X44591003Y22352000D01*
X22434801Y31232999D02*
X20320000Y33347800D01*
X44591003Y22352000D02*
X39707014Y27235989D01*
X27082596Y27235989D02*
X23085586Y31232999D01*
X20320000Y33347800D02*
X20320000Y35052000D01*
%TO.N,Net-(U4-Pad6)*%
X22049012Y30782988D02*
X22899186Y30782988D01*
X26896196Y26785978D02*
X37582722Y26785978D01*
X22899186Y30782988D02*
X26896196Y26785978D01*
X47206001Y21552001D02*
X48006000Y22352000D01*
X41630300Y22738400D02*
X41630300Y21982400D01*
X41630300Y21982400D02*
X42386000Y21226700D01*
X42386000Y21226700D02*
X46880700Y21226700D01*
X46880700Y21226700D02*
X47206001Y21552001D01*
X17780000Y35052000D02*
X22049012Y30782988D01*
X37582722Y26785978D02*
X41630300Y22738400D01*
%TO.N,Net-(U4-Pad5)*%
X26709796Y26335967D02*
X35638433Y26335967D01*
X45990290Y15857300D02*
X47115590Y14732000D01*
X45257800Y15857300D02*
X45990290Y15857300D01*
X39214700Y21900400D02*
X45257800Y15857300D01*
X15240000Y35052000D02*
X16894867Y33397133D01*
X21859790Y30332977D02*
X22712786Y30332977D01*
X22712786Y30332977D02*
X26709796Y26335967D01*
X16894867Y33397133D02*
X18795634Y33397133D01*
X47115590Y14732000D02*
X48006000Y14732000D01*
X18795634Y33397133D02*
X21859790Y30332977D01*
X35638433Y26335967D02*
X39214700Y22759700D01*
X39214700Y22759700D02*
X39214700Y21900400D01*
%TO.N,Net-(U4-Pad4)*%
X18609234Y32947122D02*
X21673390Y29882966D01*
X28291208Y25851035D02*
X29100999Y25041243D01*
X39416002Y20945002D02*
X44666001Y15695003D01*
X21673390Y29882966D02*
X22526386Y29882966D01*
X29100999Y25041243D02*
X29100999Y24605999D01*
X44666001Y15695003D02*
X44666001Y15531999D01*
X35228801Y24020999D02*
X36576000Y22673800D01*
X36576000Y22673800D02*
X36576000Y22024500D01*
X37655498Y20945002D02*
X39416002Y20945002D01*
X44666001Y15531999D02*
X45466000Y14732000D01*
X22526386Y29882966D02*
X26558317Y25851035D01*
X12700000Y35052000D02*
X14804878Y32947122D01*
X26558317Y25851035D02*
X28291208Y25851035D01*
X29100999Y24605999D02*
X29685999Y24020999D01*
X36576000Y22024500D02*
X37655498Y20945002D01*
X29685999Y24020999D02*
X35228801Y24020999D01*
X14804878Y32947122D02*
X18609234Y32947122D01*
%TO.N,Net-(U4-Pad3)*%
X35096100Y15857300D02*
X22427853Y28525547D01*
X22074904Y28525547D02*
X18103340Y32497111D01*
X36720700Y15857300D02*
X35096100Y15857300D01*
X12714889Y32497111D02*
X10160000Y35052000D01*
X22427853Y28525547D02*
X22074904Y28525547D01*
X37846000Y14732000D02*
X36720700Y15857300D01*
X18103340Y32497111D02*
X12714889Y32497111D01*
%TO.N,Net-(U4-Pad2)*%
X34506001Y15695015D02*
X22125480Y28075536D01*
X21888504Y28075536D02*
X17916940Y32047100D01*
X22125480Y28075536D02*
X21888504Y28075536D01*
X34506001Y15531999D02*
X34506001Y15695015D01*
X17916940Y32047100D02*
X11229900Y32047100D01*
X35306000Y14732000D02*
X34506001Y15531999D01*
%TD*%
D22*
%TO.N,+5V*%
X2125353Y59386000D02*
X78646647Y59386000D01*
X78740956Y59395289D01*
X78903542Y59379347D01*
X79183018Y59294969D01*
X79440780Y59157915D01*
X79667015Y58973401D01*
X79853103Y58748460D01*
X79991956Y58491658D01*
X80078282Y58212781D01*
X80096365Y58040731D01*
X80087000Y57945646D01*
X80087001Y685000D01*
X14218381Y685000D01*
X685000Y14218380D01*
X685000Y22002960D01*
X6990091Y22002960D01*
X7084930Y21738119D01*
X7229615Y21496869D01*
X7418586Y21288481D01*
X7644580Y21120963D01*
X7898913Y21000754D01*
X8032961Y20960096D01*
X8255000Y21082085D01*
X8255000Y22225000D01*
X7111376Y22225000D01*
X6990091Y22002960D01*
X685000Y22002960D01*
X685000Y25075488D01*
X6941783Y25075488D01*
X6983213Y24795870D01*
X7078397Y24529708D01*
X7145329Y24404486D01*
X7389298Y24332903D01*
X8202395Y25146000D01*
X7389298Y25959097D01*
X7145329Y25887514D01*
X7024429Y25632004D01*
X6955700Y25357816D01*
X6941783Y25075488D01*
X685000Y25075488D01*
X685000Y35852000D01*
X3641928Y35852000D01*
X3641928Y34252000D01*
X3654188Y34127518D01*
X3690498Y34007820D01*
X3749463Y33897506D01*
X3828815Y33800815D01*
X3925506Y33721463D01*
X4035820Y33662498D01*
X4155518Y33626188D01*
X4280000Y33613928D01*
X4385425Y33613928D01*
X4445026Y33502424D01*
X4481382Y33458125D01*
X4540000Y33386699D01*
X4568998Y33362901D01*
X8812601Y29119297D01*
X8812601Y26517459D01*
X8593816Y26572300D01*
X8311488Y26586217D01*
X8031870Y26544787D01*
X7765708Y26449603D01*
X7640486Y26382671D01*
X7568903Y26138702D01*
X8382000Y25325605D01*
X8396143Y25339748D01*
X8575748Y25160143D01*
X8561605Y25146000D01*
X8575748Y25131858D01*
X8396143Y24952253D01*
X8382000Y24966395D01*
X7568903Y24153298D01*
X7640486Y23909329D01*
X7895996Y23788429D01*
X8170184Y23719700D01*
X8254998Y23715519D01*
X8254998Y23621916D01*
X8032961Y23743904D01*
X7898913Y23703246D01*
X7644580Y23583037D01*
X7418586Y23415519D01*
X7229615Y23207131D01*
X7084930Y22965881D01*
X6990091Y22701040D01*
X7111376Y22479000D01*
X8255000Y22479000D01*
X8255000Y22499000D01*
X8509000Y22499000D01*
X8509000Y22479000D01*
X8529000Y22479000D01*
X8529000Y22225000D01*
X8509000Y22225000D01*
X8509000Y21082085D01*
X8731039Y20960096D01*
X8812600Y20984834D01*
X8812600Y16170072D01*
X7582000Y16170072D01*
X7457518Y16157812D01*
X7337820Y16121502D01*
X7227506Y16062537D01*
X7130815Y15983185D01*
X7051463Y15886494D01*
X6992498Y15776180D01*
X6956188Y15656482D01*
X6943928Y15532000D01*
X6943928Y13932000D01*
X6956188Y13807518D01*
X6992498Y13687820D01*
X7051463Y13577506D01*
X7130815Y13480815D01*
X7227506Y13401463D01*
X7337820Y13342498D01*
X7457518Y13306188D01*
X7582000Y13293928D01*
X9182000Y13293928D01*
X9306482Y13306188D01*
X9426180Y13342498D01*
X9536494Y13401463D01*
X9633185Y13480815D01*
X9712537Y13577506D01*
X9771502Y13687820D01*
X9807812Y13807518D01*
X9808643Y13815961D01*
X10007241Y13617363D01*
X10242273Y13460320D01*
X10503426Y13352147D01*
X10780665Y13297000D01*
X11063335Y13297000D01*
X11340574Y13352147D01*
X11601727Y13460320D01*
X11818162Y13604937D01*
X12327400Y13095698D01*
X12351199Y13066699D01*
X12466924Y12971726D01*
X12598953Y12901154D01*
X12742214Y12857697D01*
X12853867Y12846700D01*
X12853877Y12846700D01*
X12891200Y12843024D01*
X12928523Y12846700D01*
X16766499Y12846700D01*
X19723643Y9889556D01*
X19586226Y9797737D01*
X19442063Y9653574D01*
X19328795Y9484056D01*
X19250774Y9295698D01*
X19211000Y9095739D01*
X19211000Y9033602D01*
X18048531Y7871133D01*
X17975411Y7919990D01*
X17705158Y8031932D01*
X17418260Y8089000D01*
X17125740Y8089000D01*
X16838842Y8031932D01*
X16568589Y7919990D01*
X16325368Y7757475D01*
X16118525Y7550632D01*
X15956010Y7307411D01*
X15844068Y7037158D01*
X15787000Y6750260D01*
X15787000Y6457740D01*
X15844068Y6170842D01*
X15956010Y5900589D01*
X16118525Y5657368D01*
X16325368Y5450525D01*
X16499760Y5334000D01*
X16325368Y5217475D01*
X16118525Y5010632D01*
X15956010Y4767411D01*
X15844068Y4497158D01*
X15787000Y4210260D01*
X15787000Y3917740D01*
X15844068Y3630842D01*
X15956010Y3360589D01*
X16118525Y3117368D01*
X16325368Y2910525D01*
X16568589Y2748010D01*
X16838842Y2636068D01*
X17125740Y2579000D01*
X17418260Y2579000D01*
X17705158Y2636068D01*
X17975411Y2748010D01*
X18218632Y2910525D01*
X18425475Y3117368D01*
X18542000Y3291760D01*
X18658525Y3117368D01*
X18865368Y2910525D01*
X19108589Y2748010D01*
X19378842Y2636068D01*
X19665740Y2579000D01*
X19958260Y2579000D01*
X20245158Y2636068D01*
X20515411Y2748010D01*
X20758632Y2910525D01*
X20965475Y3117368D01*
X21082000Y3291760D01*
X21198525Y3117368D01*
X21405368Y2910525D01*
X21648589Y2748010D01*
X21918842Y2636068D01*
X22205740Y2579000D01*
X22498260Y2579000D01*
X22785158Y2636068D01*
X23055411Y2748010D01*
X23298632Y2910525D01*
X23505475Y3117368D01*
X23622000Y3291760D01*
X23738525Y3117368D01*
X23945368Y2910525D01*
X24188589Y2748010D01*
X24458842Y2636068D01*
X24745740Y2579000D01*
X25038260Y2579000D01*
X25325158Y2636068D01*
X25595411Y2748010D01*
X25838632Y2910525D01*
X26045475Y3117368D01*
X26162000Y3291760D01*
X26278525Y3117368D01*
X26485368Y2910525D01*
X26728589Y2748010D01*
X26998842Y2636068D01*
X27285740Y2579000D01*
X27578260Y2579000D01*
X27865158Y2636068D01*
X28135411Y2748010D01*
X28378632Y2910525D01*
X28585475Y3117368D01*
X28702000Y3291760D01*
X28818525Y3117368D01*
X29025368Y2910525D01*
X29268589Y2748010D01*
X29538842Y2636068D01*
X29825740Y2579000D01*
X30118260Y2579000D01*
X30405158Y2636068D01*
X30675411Y2748010D01*
X30918632Y2910525D01*
X31125475Y3117368D01*
X31242000Y3291760D01*
X31358525Y3117368D01*
X31565368Y2910525D01*
X31808589Y2748010D01*
X32078842Y2636068D01*
X32365740Y2579000D01*
X32658260Y2579000D01*
X32945158Y2636068D01*
X33215411Y2748010D01*
X33458632Y2910525D01*
X33665475Y3117368D01*
X33782000Y3291760D01*
X33898525Y3117368D01*
X34105368Y2910525D01*
X34348589Y2748010D01*
X34618842Y2636068D01*
X34905740Y2579000D01*
X35198260Y2579000D01*
X35485158Y2636068D01*
X35755411Y2748010D01*
X35998632Y2910525D01*
X36205475Y3117368D01*
X36322000Y3291760D01*
X36438525Y3117368D01*
X36645368Y2910525D01*
X36888589Y2748010D01*
X37158842Y2636068D01*
X37445740Y2579000D01*
X37738260Y2579000D01*
X38025158Y2636068D01*
X38295411Y2748010D01*
X38538632Y2910525D01*
X38745475Y3117368D01*
X38862000Y3291760D01*
X38978525Y3117368D01*
X39185368Y2910525D01*
X39428589Y2748010D01*
X39698842Y2636068D01*
X39985740Y2579000D01*
X40278260Y2579000D01*
X40565158Y2636068D01*
X40835411Y2748010D01*
X41078632Y2910525D01*
X41081553Y2913446D01*
X41652201Y2342798D01*
X41675999Y2313799D01*
X41791724Y2218826D01*
X41923753Y2148254D01*
X42067014Y2104797D01*
X42178667Y2093800D01*
X42178677Y2093800D01*
X42216000Y2090124D01*
X42253323Y2093800D01*
X43156478Y2093800D01*
X43193800Y2090124D01*
X43231122Y2093800D01*
X43231133Y2093800D01*
X43342786Y2104797D01*
X43486047Y2148254D01*
X43618076Y2218826D01*
X43733801Y2313799D01*
X43757604Y2342803D01*
X44301310Y2886509D01*
X44508589Y2748010D01*
X44778842Y2636068D01*
X45065740Y2579000D01*
X45358260Y2579000D01*
X45645158Y2636068D01*
X45915411Y2748010D01*
X46158632Y2910525D01*
X46365475Y3117368D01*
X46482000Y3291760D01*
X46598525Y3117368D01*
X46805368Y2910525D01*
X47048589Y2748010D01*
X47318842Y2636068D01*
X47605740Y2579000D01*
X47898260Y2579000D01*
X48185158Y2636068D01*
X48455411Y2748010D01*
X48698632Y2910525D01*
X48905475Y3117368D01*
X49027195Y3299534D01*
X49096822Y3182645D01*
X49291731Y2966412D01*
X49525080Y2792359D01*
X49787901Y2667175D01*
X49935110Y2622524D01*
X50165000Y2743845D01*
X50165000Y3937000D01*
X50145000Y3937000D01*
X50145000Y4191000D01*
X50165000Y4191000D01*
X50165000Y4211000D01*
X50419000Y4211000D01*
X50419000Y4191000D01*
X50439000Y4191000D01*
X50439000Y3937000D01*
X50419000Y3937000D01*
X50419000Y2743845D01*
X50648890Y2622524D01*
X50796099Y2667175D01*
X51058920Y2792359D01*
X51292269Y2966412D01*
X51487178Y3182645D01*
X51556805Y3299534D01*
X51678525Y3117368D01*
X51885368Y2910525D01*
X52128589Y2748010D01*
X52398842Y2636068D01*
X52685740Y2579000D01*
X52978260Y2579000D01*
X53265158Y2636068D01*
X53535411Y2748010D01*
X53778632Y2910525D01*
X53985475Y3117368D01*
X54102000Y3291760D01*
X54218525Y3117368D01*
X54425368Y2910525D01*
X54668589Y2748010D01*
X54938842Y2636068D01*
X55225740Y2579000D01*
X55518260Y2579000D01*
X55805158Y2636068D01*
X56075411Y2748010D01*
X56318632Y2910525D01*
X56525475Y3117368D01*
X56642000Y3291760D01*
X56758525Y3117368D01*
X56965368Y2910525D01*
X57208589Y2748010D01*
X57478842Y2636068D01*
X57765740Y2579000D01*
X58058260Y2579000D01*
X58345158Y2636068D01*
X58615411Y2748010D01*
X58858632Y2910525D01*
X59065475Y3117368D01*
X59182000Y3291760D01*
X59298525Y3117368D01*
X59505368Y2910525D01*
X59748589Y2748010D01*
X60018842Y2636068D01*
X60305740Y2579000D01*
X60598260Y2579000D01*
X60885158Y2636068D01*
X61155411Y2748010D01*
X61398632Y2910525D01*
X61605475Y3117368D01*
X61722000Y3291760D01*
X61838525Y3117368D01*
X62045368Y2910525D01*
X62288589Y2748010D01*
X62558842Y2636068D01*
X62845740Y2579000D01*
X63138260Y2579000D01*
X63425158Y2636068D01*
X63695411Y2748010D01*
X63938632Y2910525D01*
X64145475Y3117368D01*
X64262000Y3291760D01*
X64378525Y3117368D01*
X64585368Y2910525D01*
X64828589Y2748010D01*
X65098842Y2636068D01*
X65385740Y2579000D01*
X65678260Y2579000D01*
X65965158Y2636068D01*
X66235411Y2748010D01*
X66478632Y2910525D01*
X66685475Y3117368D01*
X66802000Y3291760D01*
X66918525Y3117368D01*
X67125368Y2910525D01*
X67368589Y2748010D01*
X67638842Y2636068D01*
X67925740Y2579000D01*
X68218260Y2579000D01*
X68505158Y2636068D01*
X68775411Y2748010D01*
X69018632Y2910525D01*
X69225475Y3117368D01*
X69342000Y3291760D01*
X69458525Y3117368D01*
X69665368Y2910525D01*
X69908589Y2748010D01*
X70178842Y2636068D01*
X70465740Y2579000D01*
X70758260Y2579000D01*
X71045158Y2636068D01*
X71315411Y2748010D01*
X71558632Y2910525D01*
X71765475Y3117368D01*
X71882000Y3291760D01*
X71998525Y3117368D01*
X72205368Y2910525D01*
X72448589Y2748010D01*
X72718842Y2636068D01*
X73005740Y2579000D01*
X73298260Y2579000D01*
X73585158Y2636068D01*
X73855411Y2748010D01*
X74098632Y2910525D01*
X74305475Y3117368D01*
X74422000Y3291760D01*
X74538525Y3117368D01*
X74745368Y2910525D01*
X74988589Y2748010D01*
X75258842Y2636068D01*
X75545740Y2579000D01*
X75838260Y2579000D01*
X76125158Y2636068D01*
X76395411Y2748010D01*
X76638632Y2910525D01*
X76845475Y3117368D01*
X76962000Y3291760D01*
X77078525Y3117368D01*
X77285368Y2910525D01*
X77528589Y2748010D01*
X77798842Y2636068D01*
X78085740Y2579000D01*
X78378260Y2579000D01*
X78665158Y2636068D01*
X78935411Y2748010D01*
X79178632Y2910525D01*
X79385475Y3117368D01*
X79547990Y3360589D01*
X79659932Y3630842D01*
X79717000Y3917740D01*
X79717000Y4210260D01*
X79659932Y4497158D01*
X79547990Y4767411D01*
X79385475Y5010632D01*
X79253620Y5142487D01*
X79326180Y5164498D01*
X79436494Y5223463D01*
X79533185Y5302815D01*
X79612537Y5399506D01*
X79671502Y5509820D01*
X79707812Y5629518D01*
X79720072Y5754000D01*
X79720072Y7454000D01*
X79707812Y7578482D01*
X79671502Y7698180D01*
X79612537Y7808494D01*
X79533185Y7905185D01*
X79436494Y7984537D01*
X79326180Y8043502D01*
X79206482Y8079812D01*
X79082000Y8092072D01*
X78926575Y8092072D01*
X78866974Y8203576D01*
X78772001Y8319301D01*
X78743003Y8343099D01*
X77214000Y9872101D01*
X77214000Y33001567D01*
X77217677Y33038900D01*
X77203003Y33187886D01*
X77159546Y33331147D01*
X77088974Y33463176D01*
X77020770Y33546283D01*
X76994001Y33578901D01*
X76965003Y33602699D01*
X70806000Y39761701D01*
X70806000Y42794928D01*
X70983500Y42794928D01*
X71134807Y42809830D01*
X71246000Y42843560D01*
X71357193Y42809830D01*
X71508500Y42794928D01*
X71783500Y42794928D01*
X71934807Y42809830D01*
X72080299Y42853965D01*
X72214385Y42925635D01*
X72331912Y43022088D01*
X72428365Y43139615D01*
X72500035Y43273701D01*
X72544170Y43419193D01*
X72559072Y43570500D01*
X72559072Y44820500D01*
X72544170Y44971807D01*
X72500035Y45117299D01*
X72428365Y45251385D01*
X72331912Y45368912D01*
X72214385Y45465365D01*
X72080299Y45537035D01*
X71934807Y45581170D01*
X71783500Y45596072D01*
X71508500Y45596072D01*
X71357193Y45581170D01*
X71246000Y45547440D01*
X71134807Y45581170D01*
X70983500Y45596072D01*
X70708500Y45596072D01*
X70557193Y45581170D01*
X70446000Y45547440D01*
X70334807Y45581170D01*
X70183500Y45596072D01*
X69908500Y45596072D01*
X69757193Y45581170D01*
X69646000Y45547440D01*
X69534807Y45581170D01*
X69383500Y45596072D01*
X69108500Y45596072D01*
X68957193Y45581170D01*
X68846000Y45547440D01*
X68734807Y45581170D01*
X68610873Y45593376D01*
X68652759Y45621363D01*
X68852637Y45821241D01*
X69009680Y46056273D01*
X69117853Y46317426D01*
X69173000Y46594665D01*
X69173000Y46877335D01*
X69117853Y47154574D01*
X69009680Y47415727D01*
X68852637Y47650759D01*
X68652759Y47850637D01*
X68417727Y48007680D01*
X68156574Y48115853D01*
X67879335Y48171000D01*
X67596665Y48171000D01*
X67319426Y48115853D01*
X67058273Y48007680D01*
X66823241Y47850637D01*
X66623363Y47650759D01*
X66466320Y47415727D01*
X66358147Y47154574D01*
X66353817Y47132808D01*
X64061629Y49424996D01*
X64037826Y49454000D01*
X63922101Y49548973D01*
X63790072Y49619545D01*
X63646811Y49663002D01*
X63535158Y49673999D01*
X63535147Y49673999D01*
X63497825Y49677675D01*
X63460503Y49673999D01*
X61905332Y49673999D01*
X61867999Y49677676D01*
X61830666Y49673999D01*
X61719013Y49663002D01*
X61575752Y49619545D01*
X61443723Y49548973D01*
X61327998Y49454000D01*
X61304200Y49425002D01*
X60172264Y48293065D01*
X53622244Y48293065D01*
X53584921Y48296741D01*
X53547599Y48293065D01*
X53547589Y48293065D01*
X53435936Y48282068D01*
X53361674Y48259541D01*
X53340000Y48261676D01*
X53302677Y48258000D01*
X53302667Y48258000D01*
X53191014Y48247003D01*
X53047753Y48203546D01*
X52915723Y48132974D01*
X52867711Y48093571D01*
X52799999Y48038001D01*
X52776201Y48009003D01*
X52009199Y47242000D01*
X39407535Y47242000D01*
X39304889Y47310586D01*
X39134729Y47381068D01*
X38954089Y47417000D01*
X38769911Y47417000D01*
X38589271Y47381068D01*
X38419111Y47310586D01*
X38265972Y47208262D01*
X38135738Y47078028D01*
X38033414Y46924889D01*
X37962932Y46754729D01*
X37927000Y46574089D01*
X37927000Y46480000D01*
X13245333Y46480000D01*
X13208000Y46483677D01*
X13170667Y46480000D01*
X13059014Y46469003D01*
X12915753Y46425546D01*
X12783724Y46354974D01*
X12667999Y46260001D01*
X12644201Y46231003D01*
X11459307Y45046109D01*
X11459853Y45047426D01*
X11515000Y45324665D01*
X11515000Y45607335D01*
X11459853Y45884574D01*
X11351680Y46145727D01*
X11194637Y46380759D01*
X10994759Y46580637D01*
X10759727Y46737680D01*
X10498574Y46845853D01*
X10221335Y46901000D01*
X9938665Y46901000D01*
X9661426Y46845853D01*
X9400273Y46737680D01*
X9165241Y46580637D01*
X8965363Y46380759D01*
X8808320Y46145727D01*
X8700147Y45884574D01*
X8645000Y45607335D01*
X8645000Y45324665D01*
X8700147Y45047426D01*
X8808320Y44786273D01*
X8965363Y44551241D01*
X9165241Y44351363D01*
X9400273Y44194320D01*
X9661426Y44086147D01*
X9787629Y44061043D01*
X9741426Y44051853D01*
X9480273Y43943680D01*
X9245241Y43786637D01*
X9045363Y43586759D01*
X8890000Y43354241D01*
X8734637Y43586759D01*
X8534759Y43786637D01*
X8299727Y43943680D01*
X8038574Y44051853D01*
X7761335Y44107000D01*
X7478665Y44107000D01*
X7201426Y44051853D01*
X6940273Y43943680D01*
X6705241Y43786637D01*
X6505363Y43586759D01*
X6348320Y43351727D01*
X6343933Y43341135D01*
X6232385Y43527131D01*
X6043414Y43735519D01*
X5817420Y43903037D01*
X5563087Y44023246D01*
X5429039Y44063904D01*
X5207002Y43941916D01*
X5207002Y44034153D01*
X5430130Y44067213D01*
X5696292Y44162397D01*
X5821514Y44229329D01*
X5893097Y44473298D01*
X5080000Y45286395D01*
X4266903Y44473298D01*
X4338486Y44229329D01*
X4593996Y44108429D01*
X4868184Y44039700D01*
X4952998Y44035519D01*
X4952998Y43941916D01*
X4730961Y44063904D01*
X4596913Y44023246D01*
X4342580Y43903037D01*
X4116586Y43735519D01*
X3927615Y43527131D01*
X3782930Y43285881D01*
X3688091Y43021040D01*
X3809376Y42799000D01*
X4953000Y42799000D01*
X4953000Y42819000D01*
X5207000Y42819000D01*
X5207000Y42799000D01*
X5227000Y42799000D01*
X5227000Y42545000D01*
X5207000Y42545000D01*
X5207000Y41402085D01*
X5429039Y41280096D01*
X5563087Y41320754D01*
X5817420Y41440963D01*
X6043414Y41608481D01*
X6232385Y41816869D01*
X6343933Y42002865D01*
X6348320Y41992273D01*
X6505363Y41757241D01*
X6705241Y41557363D01*
X6865843Y41450052D01*
X6870998Y41397714D01*
X6884180Y41354258D01*
X6914454Y41254454D01*
X6985026Y41122424D01*
X7046387Y41047656D01*
X7080000Y41006699D01*
X7108998Y40982901D01*
X7985301Y40106597D01*
X7985301Y36442450D01*
X7761335Y36487000D01*
X7478665Y36487000D01*
X7201426Y36431853D01*
X6940273Y36323680D01*
X6705241Y36166637D01*
X6506643Y35968039D01*
X6505812Y35976482D01*
X6469502Y36096180D01*
X6410537Y36206494D01*
X6331185Y36303185D01*
X6234494Y36382537D01*
X6124180Y36441502D01*
X6004482Y36477812D01*
X5880000Y36490072D01*
X4280000Y36490072D01*
X4155518Y36477812D01*
X4035820Y36441502D01*
X3925506Y36382537D01*
X3828815Y36303185D01*
X3749463Y36206494D01*
X3690498Y36096180D01*
X3654188Y35976482D01*
X3641928Y35852000D01*
X685000Y35852000D01*
X685000Y42322960D01*
X3688091Y42322960D01*
X3782930Y42058119D01*
X3927615Y41816869D01*
X4116586Y41608481D01*
X4342580Y41440963D01*
X4596913Y41320754D01*
X4730961Y41280096D01*
X4953000Y41402085D01*
X4953000Y42545000D01*
X3809376Y42545000D01*
X3688091Y42322960D01*
X685000Y42322960D01*
X685000Y45395488D01*
X3639783Y45395488D01*
X3681213Y45115870D01*
X3776397Y44849708D01*
X3843329Y44724486D01*
X4087298Y44652903D01*
X4900395Y45466000D01*
X5259605Y45466000D01*
X6072702Y44652903D01*
X6316671Y44724486D01*
X6437571Y44979996D01*
X6506300Y45254184D01*
X6520217Y45536512D01*
X6478787Y45816130D01*
X6383603Y46082292D01*
X6316671Y46207514D01*
X6072702Y46279097D01*
X5259605Y45466000D01*
X4900395Y45466000D01*
X4087298Y46279097D01*
X3843329Y46207514D01*
X3722429Y45952004D01*
X3653700Y45677816D01*
X3639783Y45395488D01*
X685000Y45395488D01*
X685000Y46458702D01*
X4266903Y46458702D01*
X5080000Y45645605D01*
X5893097Y46458702D01*
X5821514Y46702671D01*
X5566004Y46823571D01*
X5291816Y46892300D01*
X5009488Y46906217D01*
X4729870Y46864787D01*
X4463708Y46769603D01*
X4338486Y46702671D01*
X4266903Y46458702D01*
X685000Y46458702D01*
X685000Y57945647D01*
X675711Y58039956D01*
X691653Y58202542D01*
X776031Y58482018D01*
X913085Y58739780D01*
X1097599Y58966015D01*
X1322540Y59152103D01*
X1579342Y59290956D01*
X1858219Y59377282D01*
X2030268Y59395365D01*
X2125353Y59386000D01*
%TA.AperFunction,Conductor*%
D23*
G36*
X2125353Y59386000D02*
G01*
X78646647Y59386000D01*
X78740956Y59395289D01*
X78903542Y59379347D01*
X79183018Y59294969D01*
X79440780Y59157915D01*
X79667015Y58973401D01*
X79853103Y58748460D01*
X79991956Y58491658D01*
X80078282Y58212781D01*
X80096365Y58040731D01*
X80087000Y57945646D01*
X80087001Y685000D01*
X14218381Y685000D01*
X685000Y14218380D01*
X685000Y22002960D01*
X6990091Y22002960D01*
X7084930Y21738119D01*
X7229615Y21496869D01*
X7418586Y21288481D01*
X7644580Y21120963D01*
X7898913Y21000754D01*
X8032961Y20960096D01*
X8255000Y21082085D01*
X8255000Y22225000D01*
X7111376Y22225000D01*
X6990091Y22002960D01*
X685000Y22002960D01*
X685000Y25075488D01*
X6941783Y25075488D01*
X6983213Y24795870D01*
X7078397Y24529708D01*
X7145329Y24404486D01*
X7389298Y24332903D01*
X8202395Y25146000D01*
X7389298Y25959097D01*
X7145329Y25887514D01*
X7024429Y25632004D01*
X6955700Y25357816D01*
X6941783Y25075488D01*
X685000Y25075488D01*
X685000Y35852000D01*
X3641928Y35852000D01*
X3641928Y34252000D01*
X3654188Y34127518D01*
X3690498Y34007820D01*
X3749463Y33897506D01*
X3828815Y33800815D01*
X3925506Y33721463D01*
X4035820Y33662498D01*
X4155518Y33626188D01*
X4280000Y33613928D01*
X4385425Y33613928D01*
X4445026Y33502424D01*
X4481382Y33458125D01*
X4540000Y33386699D01*
X4568998Y33362901D01*
X8812601Y29119297D01*
X8812601Y26517459D01*
X8593816Y26572300D01*
X8311488Y26586217D01*
X8031870Y26544787D01*
X7765708Y26449603D01*
X7640486Y26382671D01*
X7568903Y26138702D01*
X8382000Y25325605D01*
X8396143Y25339748D01*
X8575748Y25160143D01*
X8561605Y25146000D01*
X8575748Y25131858D01*
X8396143Y24952253D01*
X8382000Y24966395D01*
X7568903Y24153298D01*
X7640486Y23909329D01*
X7895996Y23788429D01*
X8170184Y23719700D01*
X8254998Y23715519D01*
X8254998Y23621916D01*
X8032961Y23743904D01*
X7898913Y23703246D01*
X7644580Y23583037D01*
X7418586Y23415519D01*
X7229615Y23207131D01*
X7084930Y22965881D01*
X6990091Y22701040D01*
X7111376Y22479000D01*
X8255000Y22479000D01*
X8255000Y22499000D01*
X8509000Y22499000D01*
X8509000Y22479000D01*
X8529000Y22479000D01*
X8529000Y22225000D01*
X8509000Y22225000D01*
X8509000Y21082085D01*
X8731039Y20960096D01*
X8812600Y20984834D01*
X8812600Y16170072D01*
X7582000Y16170072D01*
X7457518Y16157812D01*
X7337820Y16121502D01*
X7227506Y16062537D01*
X7130815Y15983185D01*
X7051463Y15886494D01*
X6992498Y15776180D01*
X6956188Y15656482D01*
X6943928Y15532000D01*
X6943928Y13932000D01*
X6956188Y13807518D01*
X6992498Y13687820D01*
X7051463Y13577506D01*
X7130815Y13480815D01*
X7227506Y13401463D01*
X7337820Y13342498D01*
X7457518Y13306188D01*
X7582000Y13293928D01*
X9182000Y13293928D01*
X9306482Y13306188D01*
X9426180Y13342498D01*
X9536494Y13401463D01*
X9633185Y13480815D01*
X9712537Y13577506D01*
X9771502Y13687820D01*
X9807812Y13807518D01*
X9808643Y13815961D01*
X10007241Y13617363D01*
X10242273Y13460320D01*
X10503426Y13352147D01*
X10780665Y13297000D01*
X11063335Y13297000D01*
X11340574Y13352147D01*
X11601727Y13460320D01*
X11818162Y13604937D01*
X12327400Y13095698D01*
X12351199Y13066699D01*
X12466924Y12971726D01*
X12598953Y12901154D01*
X12742214Y12857697D01*
X12853867Y12846700D01*
X12853877Y12846700D01*
X12891200Y12843024D01*
X12928523Y12846700D01*
X16766499Y12846700D01*
X19723643Y9889556D01*
X19586226Y9797737D01*
X19442063Y9653574D01*
X19328795Y9484056D01*
X19250774Y9295698D01*
X19211000Y9095739D01*
X19211000Y9033602D01*
X18048531Y7871133D01*
X17975411Y7919990D01*
X17705158Y8031932D01*
X17418260Y8089000D01*
X17125740Y8089000D01*
X16838842Y8031932D01*
X16568589Y7919990D01*
X16325368Y7757475D01*
X16118525Y7550632D01*
X15956010Y7307411D01*
X15844068Y7037158D01*
X15787000Y6750260D01*
X15787000Y6457740D01*
X15844068Y6170842D01*
X15956010Y5900589D01*
X16118525Y5657368D01*
X16325368Y5450525D01*
X16499760Y5334000D01*
X16325368Y5217475D01*
X16118525Y5010632D01*
X15956010Y4767411D01*
X15844068Y4497158D01*
X15787000Y4210260D01*
X15787000Y3917740D01*
X15844068Y3630842D01*
X15956010Y3360589D01*
X16118525Y3117368D01*
X16325368Y2910525D01*
X16568589Y2748010D01*
X16838842Y2636068D01*
X17125740Y2579000D01*
X17418260Y2579000D01*
X17705158Y2636068D01*
X17975411Y2748010D01*
X18218632Y2910525D01*
X18425475Y3117368D01*
X18542000Y3291760D01*
X18658525Y3117368D01*
X18865368Y2910525D01*
X19108589Y2748010D01*
X19378842Y2636068D01*
X19665740Y2579000D01*
X19958260Y2579000D01*
X20245158Y2636068D01*
X20515411Y2748010D01*
X20758632Y2910525D01*
X20965475Y3117368D01*
X21082000Y3291760D01*
X21198525Y3117368D01*
X21405368Y2910525D01*
X21648589Y2748010D01*
X21918842Y2636068D01*
X22205740Y2579000D01*
X22498260Y2579000D01*
X22785158Y2636068D01*
X23055411Y2748010D01*
X23298632Y2910525D01*
X23505475Y3117368D01*
X23622000Y3291760D01*
X23738525Y3117368D01*
X23945368Y2910525D01*
X24188589Y2748010D01*
X24458842Y2636068D01*
X24745740Y2579000D01*
X25038260Y2579000D01*
X25325158Y2636068D01*
X25595411Y2748010D01*
X25838632Y2910525D01*
X26045475Y3117368D01*
X26162000Y3291760D01*
X26278525Y3117368D01*
X26485368Y2910525D01*
X26728589Y2748010D01*
X26998842Y2636068D01*
X27285740Y2579000D01*
X27578260Y2579000D01*
X27865158Y2636068D01*
X28135411Y2748010D01*
X28378632Y2910525D01*
X28585475Y3117368D01*
X28702000Y3291760D01*
X28818525Y3117368D01*
X29025368Y2910525D01*
X29268589Y2748010D01*
X29538842Y2636068D01*
X29825740Y2579000D01*
X30118260Y2579000D01*
X30405158Y2636068D01*
X30675411Y2748010D01*
X30918632Y2910525D01*
X31125475Y3117368D01*
X31242000Y3291760D01*
X31358525Y3117368D01*
X31565368Y2910525D01*
X31808589Y2748010D01*
X32078842Y2636068D01*
X32365740Y2579000D01*
X32658260Y2579000D01*
X32945158Y2636068D01*
X33215411Y2748010D01*
X33458632Y2910525D01*
X33665475Y3117368D01*
X33782000Y3291760D01*
X33898525Y3117368D01*
X34105368Y2910525D01*
X34348589Y2748010D01*
X34618842Y2636068D01*
X34905740Y2579000D01*
X35198260Y2579000D01*
X35485158Y2636068D01*
X35755411Y2748010D01*
X35998632Y2910525D01*
X36205475Y3117368D01*
X36322000Y3291760D01*
X36438525Y3117368D01*
X36645368Y2910525D01*
X36888589Y2748010D01*
X37158842Y2636068D01*
X37445740Y2579000D01*
X37738260Y2579000D01*
X38025158Y2636068D01*
X38295411Y2748010D01*
X38538632Y2910525D01*
X38745475Y3117368D01*
X38862000Y3291760D01*
X38978525Y3117368D01*
X39185368Y2910525D01*
X39428589Y2748010D01*
X39698842Y2636068D01*
X39985740Y2579000D01*
X40278260Y2579000D01*
X40565158Y2636068D01*
X40835411Y2748010D01*
X41078632Y2910525D01*
X41081553Y2913446D01*
X41652201Y2342798D01*
X41675999Y2313799D01*
X41791724Y2218826D01*
X41923753Y2148254D01*
X42067014Y2104797D01*
X42178667Y2093800D01*
X42178677Y2093800D01*
X42216000Y2090124D01*
X42253323Y2093800D01*
X43156478Y2093800D01*
X43193800Y2090124D01*
X43231122Y2093800D01*
X43231133Y2093800D01*
X43342786Y2104797D01*
X43486047Y2148254D01*
X43618076Y2218826D01*
X43733801Y2313799D01*
X43757604Y2342803D01*
X44301310Y2886509D01*
X44508589Y2748010D01*
X44778842Y2636068D01*
X45065740Y2579000D01*
X45358260Y2579000D01*
X45645158Y2636068D01*
X45915411Y2748010D01*
X46158632Y2910525D01*
X46365475Y3117368D01*
X46482000Y3291760D01*
X46598525Y3117368D01*
X46805368Y2910525D01*
X47048589Y2748010D01*
X47318842Y2636068D01*
X47605740Y2579000D01*
X47898260Y2579000D01*
X48185158Y2636068D01*
X48455411Y2748010D01*
X48698632Y2910525D01*
X48905475Y3117368D01*
X49027195Y3299534D01*
X49096822Y3182645D01*
X49291731Y2966412D01*
X49525080Y2792359D01*
X49787901Y2667175D01*
X49935110Y2622524D01*
X50165000Y2743845D01*
X50165000Y3937000D01*
X50145000Y3937000D01*
X50145000Y4191000D01*
X50165000Y4191000D01*
X50165000Y4211000D01*
X50419000Y4211000D01*
X50419000Y4191000D01*
X50439000Y4191000D01*
X50439000Y3937000D01*
X50419000Y3937000D01*
X50419000Y2743845D01*
X50648890Y2622524D01*
X50796099Y2667175D01*
X51058920Y2792359D01*
X51292269Y2966412D01*
X51487178Y3182645D01*
X51556805Y3299534D01*
X51678525Y3117368D01*
X51885368Y2910525D01*
X52128589Y2748010D01*
X52398842Y2636068D01*
X52685740Y2579000D01*
X52978260Y2579000D01*
X53265158Y2636068D01*
X53535411Y2748010D01*
X53778632Y2910525D01*
X53985475Y3117368D01*
X54102000Y3291760D01*
X54218525Y3117368D01*
X54425368Y2910525D01*
X54668589Y2748010D01*
X54938842Y2636068D01*
X55225740Y2579000D01*
X55518260Y2579000D01*
X55805158Y2636068D01*
X56075411Y2748010D01*
X56318632Y2910525D01*
X56525475Y3117368D01*
X56642000Y3291760D01*
X56758525Y3117368D01*
X56965368Y2910525D01*
X57208589Y2748010D01*
X57478842Y2636068D01*
X57765740Y2579000D01*
X58058260Y2579000D01*
X58345158Y2636068D01*
X58615411Y2748010D01*
X58858632Y2910525D01*
X59065475Y3117368D01*
X59182000Y3291760D01*
X59298525Y3117368D01*
X59505368Y2910525D01*
X59748589Y2748010D01*
X60018842Y2636068D01*
X60305740Y2579000D01*
X60598260Y2579000D01*
X60885158Y2636068D01*
X61155411Y2748010D01*
X61398632Y2910525D01*
X61605475Y3117368D01*
X61722000Y3291760D01*
X61838525Y3117368D01*
X62045368Y2910525D01*
X62288589Y2748010D01*
X62558842Y2636068D01*
X62845740Y2579000D01*
X63138260Y2579000D01*
X63425158Y2636068D01*
X63695411Y2748010D01*
X63938632Y2910525D01*
X64145475Y3117368D01*
X64262000Y3291760D01*
X64378525Y3117368D01*
X64585368Y2910525D01*
X64828589Y2748010D01*
X65098842Y2636068D01*
X65385740Y2579000D01*
X65678260Y2579000D01*
X65965158Y2636068D01*
X66235411Y2748010D01*
X66478632Y2910525D01*
X66685475Y3117368D01*
X66802000Y3291760D01*
X66918525Y3117368D01*
X67125368Y2910525D01*
X67368589Y2748010D01*
X67638842Y2636068D01*
X67925740Y2579000D01*
X68218260Y2579000D01*
X68505158Y2636068D01*
X68775411Y2748010D01*
X69018632Y2910525D01*
X69225475Y3117368D01*
X69342000Y3291760D01*
X69458525Y3117368D01*
X69665368Y2910525D01*
X69908589Y2748010D01*
X70178842Y2636068D01*
X70465740Y2579000D01*
X70758260Y2579000D01*
X71045158Y2636068D01*
X71315411Y2748010D01*
X71558632Y2910525D01*
X71765475Y3117368D01*
X71882000Y3291760D01*
X71998525Y3117368D01*
X72205368Y2910525D01*
X72448589Y2748010D01*
X72718842Y2636068D01*
X73005740Y2579000D01*
X73298260Y2579000D01*
X73585158Y2636068D01*
X73855411Y2748010D01*
X74098632Y2910525D01*
X74305475Y3117368D01*
X74422000Y3291760D01*
X74538525Y3117368D01*
X74745368Y2910525D01*
X74988589Y2748010D01*
X75258842Y2636068D01*
X75545740Y2579000D01*
X75838260Y2579000D01*
X76125158Y2636068D01*
X76395411Y2748010D01*
X76638632Y2910525D01*
X76845475Y3117368D01*
X76962000Y3291760D01*
X77078525Y3117368D01*
X77285368Y2910525D01*
X77528589Y2748010D01*
X77798842Y2636068D01*
X78085740Y2579000D01*
X78378260Y2579000D01*
X78665158Y2636068D01*
X78935411Y2748010D01*
X79178632Y2910525D01*
X79385475Y3117368D01*
X79547990Y3360589D01*
X79659932Y3630842D01*
X79717000Y3917740D01*
X79717000Y4210260D01*
X79659932Y4497158D01*
X79547990Y4767411D01*
X79385475Y5010632D01*
X79253620Y5142487D01*
X79326180Y5164498D01*
X79436494Y5223463D01*
X79533185Y5302815D01*
X79612537Y5399506D01*
X79671502Y5509820D01*
X79707812Y5629518D01*
X79720072Y5754000D01*
X79720072Y7454000D01*
X79707812Y7578482D01*
X79671502Y7698180D01*
X79612537Y7808494D01*
X79533185Y7905185D01*
X79436494Y7984537D01*
X79326180Y8043502D01*
X79206482Y8079812D01*
X79082000Y8092072D01*
X78926575Y8092072D01*
X78866974Y8203576D01*
X78772001Y8319301D01*
X78743003Y8343099D01*
X77214000Y9872101D01*
X77214000Y33001567D01*
X77217677Y33038900D01*
X77203003Y33187886D01*
X77159546Y33331147D01*
X77088974Y33463176D01*
X77020770Y33546283D01*
X76994001Y33578901D01*
X76965003Y33602699D01*
X70806000Y39761701D01*
X70806000Y42794928D01*
X70983500Y42794928D01*
X71134807Y42809830D01*
X71246000Y42843560D01*
X71357193Y42809830D01*
X71508500Y42794928D01*
X71783500Y42794928D01*
X71934807Y42809830D01*
X72080299Y42853965D01*
X72214385Y42925635D01*
X72331912Y43022088D01*
X72428365Y43139615D01*
X72500035Y43273701D01*
X72544170Y43419193D01*
X72559072Y43570500D01*
X72559072Y44820500D01*
X72544170Y44971807D01*
X72500035Y45117299D01*
X72428365Y45251385D01*
X72331912Y45368912D01*
X72214385Y45465365D01*
X72080299Y45537035D01*
X71934807Y45581170D01*
X71783500Y45596072D01*
X71508500Y45596072D01*
X71357193Y45581170D01*
X71246000Y45547440D01*
X71134807Y45581170D01*
X70983500Y45596072D01*
X70708500Y45596072D01*
X70557193Y45581170D01*
X70446000Y45547440D01*
X70334807Y45581170D01*
X70183500Y45596072D01*
X69908500Y45596072D01*
X69757193Y45581170D01*
X69646000Y45547440D01*
X69534807Y45581170D01*
X69383500Y45596072D01*
X69108500Y45596072D01*
X68957193Y45581170D01*
X68846000Y45547440D01*
X68734807Y45581170D01*
X68610873Y45593376D01*
X68652759Y45621363D01*
X68852637Y45821241D01*
X69009680Y46056273D01*
X69117853Y46317426D01*
X69173000Y46594665D01*
X69173000Y46877335D01*
X69117853Y47154574D01*
X69009680Y47415727D01*
X68852637Y47650759D01*
X68652759Y47850637D01*
X68417727Y48007680D01*
X68156574Y48115853D01*
X67879335Y48171000D01*
X67596665Y48171000D01*
X67319426Y48115853D01*
X67058273Y48007680D01*
X66823241Y47850637D01*
X66623363Y47650759D01*
X66466320Y47415727D01*
X66358147Y47154574D01*
X66353817Y47132808D01*
X64061629Y49424996D01*
X64037826Y49454000D01*
X63922101Y49548973D01*
X63790072Y49619545D01*
X63646811Y49663002D01*
X63535158Y49673999D01*
X63535147Y49673999D01*
X63497825Y49677675D01*
X63460503Y49673999D01*
X61905332Y49673999D01*
X61867999Y49677676D01*
X61830666Y49673999D01*
X61719013Y49663002D01*
X61575752Y49619545D01*
X61443723Y49548973D01*
X61327998Y49454000D01*
X61304200Y49425002D01*
X60172264Y48293065D01*
X53622244Y48293065D01*
X53584921Y48296741D01*
X53547599Y48293065D01*
X53547589Y48293065D01*
X53435936Y48282068D01*
X53361674Y48259541D01*
X53340000Y48261676D01*
X53302677Y48258000D01*
X53302667Y48258000D01*
X53191014Y48247003D01*
X53047753Y48203546D01*
X52915723Y48132974D01*
X52867711Y48093571D01*
X52799999Y48038001D01*
X52776201Y48009003D01*
X52009199Y47242000D01*
X39407535Y47242000D01*
X39304889Y47310586D01*
X39134729Y47381068D01*
X38954089Y47417000D01*
X38769911Y47417000D01*
X38589271Y47381068D01*
X38419111Y47310586D01*
X38265972Y47208262D01*
X38135738Y47078028D01*
X38033414Y46924889D01*
X37962932Y46754729D01*
X37927000Y46574089D01*
X37927000Y46480000D01*
X13245333Y46480000D01*
X13208000Y46483677D01*
X13170667Y46480000D01*
X13059014Y46469003D01*
X12915753Y46425546D01*
X12783724Y46354974D01*
X12667999Y46260001D01*
X12644201Y46231003D01*
X11459307Y45046109D01*
X11459853Y45047426D01*
X11515000Y45324665D01*
X11515000Y45607335D01*
X11459853Y45884574D01*
X11351680Y46145727D01*
X11194637Y46380759D01*
X10994759Y46580637D01*
X10759727Y46737680D01*
X10498574Y46845853D01*
X10221335Y46901000D01*
X9938665Y46901000D01*
X9661426Y46845853D01*
X9400273Y46737680D01*
X9165241Y46580637D01*
X8965363Y46380759D01*
X8808320Y46145727D01*
X8700147Y45884574D01*
X8645000Y45607335D01*
X8645000Y45324665D01*
X8700147Y45047426D01*
X8808320Y44786273D01*
X8965363Y44551241D01*
X9165241Y44351363D01*
X9400273Y44194320D01*
X9661426Y44086147D01*
X9787629Y44061043D01*
X9741426Y44051853D01*
X9480273Y43943680D01*
X9245241Y43786637D01*
X9045363Y43586759D01*
X8890000Y43354241D01*
X8734637Y43586759D01*
X8534759Y43786637D01*
X8299727Y43943680D01*
X8038574Y44051853D01*
X7761335Y44107000D01*
X7478665Y44107000D01*
X7201426Y44051853D01*
X6940273Y43943680D01*
X6705241Y43786637D01*
X6505363Y43586759D01*
X6348320Y43351727D01*
X6343933Y43341135D01*
X6232385Y43527131D01*
X6043414Y43735519D01*
X5817420Y43903037D01*
X5563087Y44023246D01*
X5429039Y44063904D01*
X5207002Y43941916D01*
X5207002Y44034153D01*
X5430130Y44067213D01*
X5696292Y44162397D01*
X5821514Y44229329D01*
X5893097Y44473298D01*
X5080000Y45286395D01*
X4266903Y44473298D01*
X4338486Y44229329D01*
X4593996Y44108429D01*
X4868184Y44039700D01*
X4952998Y44035519D01*
X4952998Y43941916D01*
X4730961Y44063904D01*
X4596913Y44023246D01*
X4342580Y43903037D01*
X4116586Y43735519D01*
X3927615Y43527131D01*
X3782930Y43285881D01*
X3688091Y43021040D01*
X3809376Y42799000D01*
X4953000Y42799000D01*
X4953000Y42819000D01*
X5207000Y42819000D01*
X5207000Y42799000D01*
X5227000Y42799000D01*
X5227000Y42545000D01*
X5207000Y42545000D01*
X5207000Y41402085D01*
X5429039Y41280096D01*
X5563087Y41320754D01*
X5817420Y41440963D01*
X6043414Y41608481D01*
X6232385Y41816869D01*
X6343933Y42002865D01*
X6348320Y41992273D01*
X6505363Y41757241D01*
X6705241Y41557363D01*
X6865843Y41450052D01*
X6870998Y41397714D01*
X6884180Y41354258D01*
X6914454Y41254454D01*
X6985026Y41122424D01*
X7046387Y41047656D01*
X7080000Y41006699D01*
X7108998Y40982901D01*
X7985301Y40106597D01*
X7985301Y36442450D01*
X7761335Y36487000D01*
X7478665Y36487000D01*
X7201426Y36431853D01*
X6940273Y36323680D01*
X6705241Y36166637D01*
X6506643Y35968039D01*
X6505812Y35976482D01*
X6469502Y36096180D01*
X6410537Y36206494D01*
X6331185Y36303185D01*
X6234494Y36382537D01*
X6124180Y36441502D01*
X6004482Y36477812D01*
X5880000Y36490072D01*
X4280000Y36490072D01*
X4155518Y36477812D01*
X4035820Y36441502D01*
X3925506Y36382537D01*
X3828815Y36303185D01*
X3749463Y36206494D01*
X3690498Y36096180D01*
X3654188Y35976482D01*
X3641928Y35852000D01*
X685000Y35852000D01*
X685000Y42322960D01*
X3688091Y42322960D01*
X3782930Y42058119D01*
X3927615Y41816869D01*
X4116586Y41608481D01*
X4342580Y41440963D01*
X4596913Y41320754D01*
X4730961Y41280096D01*
X4953000Y41402085D01*
X4953000Y42545000D01*
X3809376Y42545000D01*
X3688091Y42322960D01*
X685000Y42322960D01*
X685000Y45395488D01*
X3639783Y45395488D01*
X3681213Y45115870D01*
X3776397Y44849708D01*
X3843329Y44724486D01*
X4087298Y44652903D01*
X4900395Y45466000D01*
X5259605Y45466000D01*
X6072702Y44652903D01*
X6316671Y44724486D01*
X6437571Y44979996D01*
X6506300Y45254184D01*
X6520217Y45536512D01*
X6478787Y45816130D01*
X6383603Y46082292D01*
X6316671Y46207514D01*
X6072702Y46279097D01*
X5259605Y45466000D01*
X4900395Y45466000D01*
X4087298Y46279097D01*
X3843329Y46207514D01*
X3722429Y45952004D01*
X3653700Y45677816D01*
X3639783Y45395488D01*
X685000Y45395488D01*
X685000Y46458702D01*
X4266903Y46458702D01*
X5080000Y45645605D01*
X5893097Y46458702D01*
X5821514Y46702671D01*
X5566004Y46823571D01*
X5291816Y46892300D01*
X5009488Y46906217D01*
X4729870Y46864787D01*
X4463708Y46769603D01*
X4338486Y46702671D01*
X4266903Y46458702D01*
X685000Y46458702D01*
X685000Y57945647D01*
X675711Y58039956D01*
X691653Y58202542D01*
X776031Y58482018D01*
X913085Y58739780D01*
X1097599Y58966015D01*
X1322540Y59152103D01*
X1579342Y59290956D01*
X1858219Y59377282D01*
X2030268Y59395365D01*
X2125353Y59386000D01*
G37*
%TD.AperFunction*%
D22*
X47879000Y6731000D02*
X47899000Y6731000D01*
X47899000Y6477000D01*
X47879000Y6477000D01*
X47879000Y6457000D01*
X47625000Y6457000D01*
X47625000Y6477000D01*
X47605000Y6477000D01*
X47605000Y6731000D01*
X47625000Y6731000D01*
X47625000Y6751000D01*
X47879000Y6751000D01*
X47879000Y6731000D01*
%TA.AperFunction,Conductor*%
D23*
G36*
X47879000Y6731000D02*
G01*
X47899000Y6731000D01*
X47899000Y6477000D01*
X47879000Y6477000D01*
X47879000Y6457000D01*
X47625000Y6457000D01*
X47625000Y6477000D01*
X47605000Y6477000D01*
X47605000Y6731000D01*
X47625000Y6731000D01*
X47625000Y6751000D01*
X47879000Y6751000D01*
X47879000Y6731000D01*
G37*
%TD.AperFunction*%
D22*
X30353000Y22479000D02*
X30373000Y22479000D01*
X30373000Y22225000D01*
X30353000Y22225000D01*
X30353000Y22205000D01*
X30099000Y22205000D01*
X30099000Y22225000D01*
X30079000Y22225000D01*
X30079000Y22479000D01*
X30099000Y22479000D01*
X30099000Y22499000D01*
X30353000Y22499000D01*
X30353000Y22479000D01*
%TA.AperFunction,Conductor*%
D23*
G36*
X30353000Y22479000D02*
G01*
X30373000Y22479000D01*
X30373000Y22225000D01*
X30353000Y22225000D01*
X30353000Y22205000D01*
X30099000Y22205000D01*
X30099000Y22225000D01*
X30079000Y22225000D01*
X30079000Y22479000D01*
X30099000Y22479000D01*
X30099000Y22499000D01*
X30353000Y22499000D01*
X30353000Y22479000D01*
G37*
%TD.AperFunction*%
D22*
X30419748Y25160143D02*
X30405605Y25146000D01*
X30419748Y25131858D01*
X30240143Y24952253D01*
X30226000Y24966395D01*
X30211858Y24952253D01*
X30032253Y25131858D01*
X30046395Y25146000D01*
X30032253Y25160143D01*
X30211858Y25339748D01*
X30226000Y25325605D01*
X30240143Y25339748D01*
X30419748Y25160143D01*
%TA.AperFunction,Conductor*%
D23*
G36*
X30419748Y25160143D02*
G01*
X30405605Y25146000D01*
X30419748Y25131858D01*
X30240143Y24952253D01*
X30226000Y24966395D01*
X30211858Y24952253D01*
X30032253Y25131858D01*
X30046395Y25146000D01*
X30032253Y25160143D01*
X30211858Y25339748D01*
X30226000Y25325605D01*
X30240143Y25339748D01*
X30419748Y25160143D01*
G37*
%TD.AperFunction*%
D22*
X63185748Y30494143D02*
X63171605Y30480000D01*
X63185748Y30465858D01*
X63006143Y30286253D01*
X62992000Y30300395D01*
X62977858Y30286253D01*
X62798253Y30465858D01*
X62812395Y30480000D01*
X62798253Y30494143D01*
X62977858Y30673748D01*
X62992000Y30659605D01*
X63006143Y30673748D01*
X63185748Y30494143D01*
%TA.AperFunction,Conductor*%
D23*
G36*
X63185748Y30494143D02*
G01*
X63171605Y30480000D01*
X63185748Y30465858D01*
X63006143Y30286253D01*
X62992000Y30300395D01*
X62977858Y30286253D01*
X62798253Y30465858D01*
X62812395Y30480000D01*
X62798253Y30494143D01*
X62977858Y30673748D01*
X62992000Y30659605D01*
X63006143Y30673748D01*
X63185748Y30494143D01*
G37*
%TD.AperFunction*%
D22*
X63455858Y34430667D02*
X63458741Y34416171D01*
X63357193Y34406170D01*
X63305702Y34390550D01*
X63248595Y34408184D01*
X63131750Y34418000D01*
X62973000Y34259250D01*
X62973000Y34204509D01*
X62960088Y34193912D01*
X62863635Y34076385D01*
X62846000Y34043392D01*
X62828365Y34076385D01*
X62731912Y34193912D01*
X62719000Y34204509D01*
X62719000Y34259250D01*
X62560250Y34418000D01*
X62491572Y34412230D01*
X62104826Y34798976D01*
X63087550Y34798976D01*
X63455858Y34430667D01*
%TA.AperFunction,Conductor*%
D23*
G36*
X63455858Y34430667D02*
G01*
X63458741Y34416171D01*
X63357193Y34406170D01*
X63305702Y34390550D01*
X63248595Y34408184D01*
X63131750Y34418000D01*
X62973000Y34259250D01*
X62973000Y34204509D01*
X62960088Y34193912D01*
X62863635Y34076385D01*
X62846000Y34043392D01*
X62828365Y34076385D01*
X62731912Y34193912D01*
X62719000Y34204509D01*
X62719000Y34259250D01*
X62560250Y34418000D01*
X62491572Y34412230D01*
X62104826Y34798976D01*
X63087550Y34798976D01*
X63455858Y34430667D01*
G37*
%TD.AperFunction*%
D22*
X63756001Y39554979D02*
X62806000Y40504979D01*
X62806000Y41645600D01*
X62872949Y41645600D01*
X63072908Y41685374D01*
X63261266Y41763395D01*
X63430784Y41876663D01*
X63574947Y42020826D01*
X63688215Y42190344D01*
X63756000Y42353991D01*
X63756001Y39554979D01*
%TA.AperFunction,Conductor*%
D23*
G36*
X63756001Y39554979D02*
G01*
X62806000Y40504979D01*
X62806000Y41645600D01*
X62872949Y41645600D01*
X63072908Y41685374D01*
X63261266Y41763395D01*
X63430784Y41876663D01*
X63574947Y42020826D01*
X63688215Y42190344D01*
X63756000Y42353991D01*
X63756001Y39554979D01*
G37*
%TD.AperFunction*%
D22*
X62931748Y46750143D02*
X62917605Y46736000D01*
X62931748Y46721858D01*
X62752143Y46542253D01*
X62738000Y46556395D01*
X62723858Y46542253D01*
X62544253Y46721858D01*
X62558395Y46736000D01*
X62544253Y46750143D01*
X62723858Y46929748D01*
X62738000Y46915605D01*
X62752143Y46929748D01*
X62931748Y46750143D01*
%TA.AperFunction,Conductor*%
D23*
G36*
X62931748Y46750143D02*
G01*
X62917605Y46736000D01*
X62931748Y46721858D01*
X62752143Y46542253D01*
X62738000Y46556395D01*
X62723858Y46542253D01*
X62544253Y46721858D01*
X62558395Y46736000D01*
X62544253Y46750143D01*
X62723858Y46929748D01*
X62738000Y46915605D01*
X62752143Y46929748D01*
X62931748Y46750143D01*
G37*
%TD.AperFunction*%
%TD*%
M02*
