M48
; DRILL file {KiCad (5.1.10-1-10_14)} date Monday, August 30, 2021 at 11:36:37 PM
; FORMAT={-:-/ absolute / inch / decimal}
; #@! TF.CreationDate,2021-08-30T23:36:37+02:00
; #@! TF.GenerationSoftware,Kicad,Pcbnew,(5.1.10-1-10_14)
FMAT,2
INCH
T1C0.0118
T2C0.0157
T3C0.0276
T4C0.0315
T5C0.0394
%
G90
G05
T1
X0.8Y1.13
X0.8169Y1.0957
X0.8468Y1.0858
X0.8809Y1.1477
X0.99Y1.21
X1.29Y1.58
X1.29Y1.15
X1.53Y1.83
X1.54Y0.8
X1.65Y0.31
X1.74Y0.97
X1.8Y0.65
X1.9Y0.6546
X1.9326Y0.4985
X1.9603Y0.6585
X2.0384Y0.4985
X2.1027Y1.4025
X2.12Y0.7
X2.1429Y0.4985
X2.1793Y1.2296
X2.1886Y1.4153
X2.19Y1.47
X2.2Y0.48
X2.2126Y0.6174
X2.26Y1.456
X2.2774Y0.5926
X2.3Y1.456
X2.3099Y0.891
X2.3158Y0.651
X2.34Y1.4777
X2.341Y1.2211
X2.3722Y1.2256
X2.38Y1.49
X2.3938Y1.1672
X2.427Y1.4866
X2.44Y0.67
X2.4718Y0.747
X2.4808Y0.7118
X2.53Y0.72
X2.5346Y1.3615
X2.57Y0.92
X2.5724Y0.8876
X2.5823Y1.53
X2.5932Y0.8385
X2.6051Y0.7926
X2.62Y1.17
X2.6202Y1.3789
X2.63Y1.49
X2.66Y0.86
X2.6773Y1.3732
X2.7077Y0.3669
X2.73Y1.37
X2.73Y1.23
X2.7783Y1.3821
X2.82Y1.23
X2.85Y1.37
X2.8503Y1.2484
X2.86Y1.19
X2.89Y0.38
X2.9865Y0.3689
T2
X0.4421Y1.2617
X0.7971Y0.3541
X0.91Y0.7
X1.0455Y0.5761
X1.06Y1.7183
X1.73Y0.21
X2.47Y1.37
X2.4713Y1.6803
X2.5057Y1.5757
X2.5077Y1.249
X2.6Y1.89
T3
X0.9Y1.27
X1.1Y1.27
T4
X0.2Y1.79
X0.2Y1.68
X0.2Y1.38
X0.3Y1.68
X0.3Y1.38
X0.33Y0.99
X0.33Y0.88
X0.33Y0.58
X0.3969Y1.79
X0.4Y1.68
X0.4Y1.38
X0.43Y0.88
X0.43Y0.58
X0.5Y1.68
X0.5Y1.38
X0.5269Y0.99
X0.53Y0.88
X0.53Y0.58
X0.6Y1.68
X0.6Y1.38
X0.63Y0.88
X0.63Y0.58
X0.7Y1.68
X0.7Y1.38
X0.73Y0.88
X0.73Y0.58
X0.8Y1.68
X0.8Y1.38
X0.83Y0.88
X0.83Y0.58
X0.9Y1.68
X0.9Y1.38
X0.93Y0.88
X0.93Y0.58
X1.0Y1.68
X1.0Y1.38
X1.1Y1.68
X1.1Y1.38
X1.19Y0.99
X1.19Y0.88
X1.19Y0.58
X1.29Y0.88
X1.29Y0.58
X1.3869Y0.99
X1.39Y0.88
X1.39Y0.58
X1.49Y0.88
X1.49Y0.58
X1.59Y0.88
X1.59Y0.58
X1.69Y0.88
X1.69Y0.58
X1.79Y0.88
X1.79Y0.58
X1.89Y0.88
X1.89Y0.58
X1.99Y0.88
X1.99Y0.58
X2.09Y0.88
X2.09Y0.58
X2.47Y1.84
X2.48Y1.2
X2.6669Y1.84
X2.6769Y1.2
T5
X0.68Y0.26
X0.68Y0.16
X0.78Y0.26
X0.78Y0.16
X0.88Y0.26
X0.88Y0.16
X0.98Y0.26
X0.98Y0.16
X1.08Y0.26
X1.08Y0.16
X1.18Y0.26
X1.18Y0.16
X1.28Y0.26
X1.28Y0.16
X1.38Y0.26
X1.38Y0.16
X1.48Y0.26
X1.48Y0.16
X1.58Y0.26
X1.58Y0.16
X1.68Y0.26
X1.68Y0.16
X1.78Y0.26
X1.78Y0.16
X1.88Y0.26
X1.88Y0.16
X1.98Y0.26
X1.98Y0.16
X2.08Y0.26
X2.08Y0.16
X2.18Y0.26
X2.18Y0.16
X2.28Y0.26
X2.28Y0.16
X2.38Y0.26
X2.38Y0.16
X2.48Y0.26
X2.48Y0.16
X2.58Y0.26
X2.58Y0.16
X2.68Y0.26
X2.68Y0.16
X2.78Y0.26
X2.78Y0.16
X2.88Y0.26
X2.88Y0.16
X2.98Y0.26
X2.98Y0.16
X3.08Y0.26
X3.08Y0.16
T0
M30
