%TF.GenerationSoftware,KiCad,Pcbnew,(5.1.10-1-10_14)*%
%TF.CreationDate,2021-08-30T23:36:35+02:00*%
%TF.ProjectId,ram_board,72616d5f-626f-4617-9264-2e6b69636164,rev?*%
%TF.SameCoordinates,Original*%
%TF.FileFunction,Soldermask,Top*%
%TF.FilePolarity,Negative*%
%FSLAX46Y46*%
G04 Gerber Fmt 4.6, Leading zero omitted, Abs format (unit mm)*
G04 Created by KiCad (PCBNEW (5.1.10-1-10_14)) date 2021-08-30 23:36:35*
%MOMM*%
%LPD*%
G01*
G04 APERTURE LIST*
%ADD10C,1.600000*%
%ADD11O,1.600000X1.600000*%
%ADD12R,1.600000X1.600000*%
%ADD13O,1.400000X1.400000*%
%ADD14C,1.400000*%
%ADD15O,1.700000X1.700000*%
%ADD16R,1.700000X1.700000*%
G04 APERTURE END LIST*
D10*
%TO.C,C5*%
X67738000Y46736000D03*
X62738000Y46736000D03*
%TD*%
D11*
%TO.C,U5*%
X30226000Y22352000D03*
X53086000Y14732000D03*
X32766000Y22352000D03*
X50546000Y14732000D03*
X35306000Y22352000D03*
X48006000Y14732000D03*
X37846000Y22352000D03*
X45466000Y14732000D03*
X40386000Y22352000D03*
X42926000Y14732000D03*
X42926000Y22352000D03*
X40386000Y14732000D03*
X45466000Y22352000D03*
X37846000Y14732000D03*
X48006000Y22352000D03*
X35306000Y14732000D03*
X50546000Y22352000D03*
X32766000Y14732000D03*
X53086000Y22352000D03*
D12*
X30226000Y14732000D03*
%TD*%
D11*
%TO.C,U4*%
X5080000Y42672000D03*
X27940000Y35052000D03*
X7620000Y42672000D03*
X25400000Y35052000D03*
X10160000Y42672000D03*
X22860000Y35052000D03*
X12700000Y42672000D03*
X20320000Y35052000D03*
X15240000Y42672000D03*
X17780000Y35052000D03*
X17780000Y42672000D03*
X15240000Y35052000D03*
X20320000Y42672000D03*
X12700000Y35052000D03*
X22860000Y42672000D03*
X10160000Y35052000D03*
X25400000Y42672000D03*
X7620000Y35052000D03*
X27940000Y42672000D03*
D12*
X5080000Y35052000D03*
%TD*%
%TO.C,U3*%
G36*
G01*
X71508500Y33783000D02*
X71783500Y33783000D01*
G75*
G02*
X71921000Y33645500I0J-137500D01*
G01*
X71921000Y32395500D01*
G75*
G02*
X71783500Y32258000I-137500J0D01*
G01*
X71508500Y32258000D01*
G75*
G02*
X71371000Y32395500I0J137500D01*
G01*
X71371000Y33645500D01*
G75*
G02*
X71508500Y33783000I137500J0D01*
G01*
G37*
G36*
G01*
X70708500Y33783000D02*
X70983500Y33783000D01*
G75*
G02*
X71121000Y33645500I0J-137500D01*
G01*
X71121000Y32395500D01*
G75*
G02*
X70983500Y32258000I-137500J0D01*
G01*
X70708500Y32258000D01*
G75*
G02*
X70571000Y32395500I0J137500D01*
G01*
X70571000Y33645500D01*
G75*
G02*
X70708500Y33783000I137500J0D01*
G01*
G37*
G36*
G01*
X69908500Y33783000D02*
X70183500Y33783000D01*
G75*
G02*
X70321000Y33645500I0J-137500D01*
G01*
X70321000Y32395500D01*
G75*
G02*
X70183500Y32258000I-137500J0D01*
G01*
X69908500Y32258000D01*
G75*
G02*
X69771000Y32395500I0J137500D01*
G01*
X69771000Y33645500D01*
G75*
G02*
X69908500Y33783000I137500J0D01*
G01*
G37*
G36*
G01*
X69108500Y33783000D02*
X69383500Y33783000D01*
G75*
G02*
X69521000Y33645500I0J-137500D01*
G01*
X69521000Y32395500D01*
G75*
G02*
X69383500Y32258000I-137500J0D01*
G01*
X69108500Y32258000D01*
G75*
G02*
X68971000Y32395500I0J137500D01*
G01*
X68971000Y33645500D01*
G75*
G02*
X69108500Y33783000I137500J0D01*
G01*
G37*
G36*
G01*
X68308500Y33783000D02*
X68583500Y33783000D01*
G75*
G02*
X68721000Y33645500I0J-137500D01*
G01*
X68721000Y32395500D01*
G75*
G02*
X68583500Y32258000I-137500J0D01*
G01*
X68308500Y32258000D01*
G75*
G02*
X68171000Y32395500I0J137500D01*
G01*
X68171000Y33645500D01*
G75*
G02*
X68308500Y33783000I137500J0D01*
G01*
G37*
G36*
G01*
X67508500Y33783000D02*
X67783500Y33783000D01*
G75*
G02*
X67921000Y33645500I0J-137500D01*
G01*
X67921000Y32395500D01*
G75*
G02*
X67783500Y32258000I-137500J0D01*
G01*
X67508500Y32258000D01*
G75*
G02*
X67371000Y32395500I0J137500D01*
G01*
X67371000Y33645500D01*
G75*
G02*
X67508500Y33783000I137500J0D01*
G01*
G37*
G36*
G01*
X66708500Y33783000D02*
X66983500Y33783000D01*
G75*
G02*
X67121000Y33645500I0J-137500D01*
G01*
X67121000Y32395500D01*
G75*
G02*
X66983500Y32258000I-137500J0D01*
G01*
X66708500Y32258000D01*
G75*
G02*
X66571000Y32395500I0J137500D01*
G01*
X66571000Y33645500D01*
G75*
G02*
X66708500Y33783000I137500J0D01*
G01*
G37*
G36*
G01*
X65908500Y33783000D02*
X66183500Y33783000D01*
G75*
G02*
X66321000Y33645500I0J-137500D01*
G01*
X66321000Y32395500D01*
G75*
G02*
X66183500Y32258000I-137500J0D01*
G01*
X65908500Y32258000D01*
G75*
G02*
X65771000Y32395500I0J137500D01*
G01*
X65771000Y33645500D01*
G75*
G02*
X65908500Y33783000I137500J0D01*
G01*
G37*
G36*
G01*
X65108500Y33783000D02*
X65383500Y33783000D01*
G75*
G02*
X65521000Y33645500I0J-137500D01*
G01*
X65521000Y32395500D01*
G75*
G02*
X65383500Y32258000I-137500J0D01*
G01*
X65108500Y32258000D01*
G75*
G02*
X64971000Y32395500I0J137500D01*
G01*
X64971000Y33645500D01*
G75*
G02*
X65108500Y33783000I137500J0D01*
G01*
G37*
G36*
G01*
X64308500Y33783000D02*
X64583500Y33783000D01*
G75*
G02*
X64721000Y33645500I0J-137500D01*
G01*
X64721000Y32395500D01*
G75*
G02*
X64583500Y32258000I-137500J0D01*
G01*
X64308500Y32258000D01*
G75*
G02*
X64171000Y32395500I0J137500D01*
G01*
X64171000Y33645500D01*
G75*
G02*
X64308500Y33783000I137500J0D01*
G01*
G37*
G36*
G01*
X63508500Y33783000D02*
X63783500Y33783000D01*
G75*
G02*
X63921000Y33645500I0J-137500D01*
G01*
X63921000Y32395500D01*
G75*
G02*
X63783500Y32258000I-137500J0D01*
G01*
X63508500Y32258000D01*
G75*
G02*
X63371000Y32395500I0J137500D01*
G01*
X63371000Y33645500D01*
G75*
G02*
X63508500Y33783000I137500J0D01*
G01*
G37*
G36*
G01*
X62708500Y33783000D02*
X62983500Y33783000D01*
G75*
G02*
X63121000Y33645500I0J-137500D01*
G01*
X63121000Y32395500D01*
G75*
G02*
X62983500Y32258000I-137500J0D01*
G01*
X62708500Y32258000D01*
G75*
G02*
X62571000Y32395500I0J137500D01*
G01*
X62571000Y33645500D01*
G75*
G02*
X62708500Y33783000I137500J0D01*
G01*
G37*
G36*
G01*
X61908500Y33783000D02*
X62183500Y33783000D01*
G75*
G02*
X62321000Y33645500I0J-137500D01*
G01*
X62321000Y32395500D01*
G75*
G02*
X62183500Y32258000I-137500J0D01*
G01*
X61908500Y32258000D01*
G75*
G02*
X61771000Y32395500I0J137500D01*
G01*
X61771000Y33645500D01*
G75*
G02*
X61908500Y33783000I137500J0D01*
G01*
G37*
G36*
G01*
X61108500Y33783000D02*
X61383500Y33783000D01*
G75*
G02*
X61521000Y33645500I0J-137500D01*
G01*
X61521000Y32395500D01*
G75*
G02*
X61383500Y32258000I-137500J0D01*
G01*
X61108500Y32258000D01*
G75*
G02*
X60971000Y32395500I0J137500D01*
G01*
X60971000Y33645500D01*
G75*
G02*
X61108500Y33783000I137500J0D01*
G01*
G37*
G36*
G01*
X60308500Y33783000D02*
X60583500Y33783000D01*
G75*
G02*
X60721000Y33645500I0J-137500D01*
G01*
X60721000Y32395500D01*
G75*
G02*
X60583500Y32258000I-137500J0D01*
G01*
X60308500Y32258000D01*
G75*
G02*
X60171000Y32395500I0J137500D01*
G01*
X60171000Y33645500D01*
G75*
G02*
X60308500Y33783000I137500J0D01*
G01*
G37*
G36*
G01*
X59508500Y33783000D02*
X59783500Y33783000D01*
G75*
G02*
X59921000Y33645500I0J-137500D01*
G01*
X59921000Y32395500D01*
G75*
G02*
X59783500Y32258000I-137500J0D01*
G01*
X59508500Y32258000D01*
G75*
G02*
X59371000Y32395500I0J137500D01*
G01*
X59371000Y33645500D01*
G75*
G02*
X59508500Y33783000I137500J0D01*
G01*
G37*
G36*
G01*
X58708500Y33783000D02*
X58983500Y33783000D01*
G75*
G02*
X59121000Y33645500I0J-137500D01*
G01*
X59121000Y32395500D01*
G75*
G02*
X58983500Y32258000I-137500J0D01*
G01*
X58708500Y32258000D01*
G75*
G02*
X58571000Y32395500I0J137500D01*
G01*
X58571000Y33645500D01*
G75*
G02*
X58708500Y33783000I137500J0D01*
G01*
G37*
G36*
G01*
X57908500Y33783000D02*
X58183500Y33783000D01*
G75*
G02*
X58321000Y33645500I0J-137500D01*
G01*
X58321000Y32395500D01*
G75*
G02*
X58183500Y32258000I-137500J0D01*
G01*
X57908500Y32258000D01*
G75*
G02*
X57771000Y32395500I0J137500D01*
G01*
X57771000Y33645500D01*
G75*
G02*
X57908500Y33783000I137500J0D01*
G01*
G37*
G36*
G01*
X57108500Y33783000D02*
X57383500Y33783000D01*
G75*
G02*
X57521000Y33645500I0J-137500D01*
G01*
X57521000Y32395500D01*
G75*
G02*
X57383500Y32258000I-137500J0D01*
G01*
X57108500Y32258000D01*
G75*
G02*
X56971000Y32395500I0J137500D01*
G01*
X56971000Y33645500D01*
G75*
G02*
X57108500Y33783000I137500J0D01*
G01*
G37*
G36*
G01*
X56308500Y33783000D02*
X56583500Y33783000D01*
G75*
G02*
X56721000Y33645500I0J-137500D01*
G01*
X56721000Y32395500D01*
G75*
G02*
X56583500Y32258000I-137500J0D01*
G01*
X56308500Y32258000D01*
G75*
G02*
X56171000Y32395500I0J137500D01*
G01*
X56171000Y33645500D01*
G75*
G02*
X56308500Y33783000I137500J0D01*
G01*
G37*
G36*
G01*
X55508500Y33783000D02*
X55783500Y33783000D01*
G75*
G02*
X55921000Y33645500I0J-137500D01*
G01*
X55921000Y32395500D01*
G75*
G02*
X55783500Y32258000I-137500J0D01*
G01*
X55508500Y32258000D01*
G75*
G02*
X55371000Y32395500I0J137500D01*
G01*
X55371000Y33645500D01*
G75*
G02*
X55508500Y33783000I137500J0D01*
G01*
G37*
G36*
G01*
X54708500Y33783000D02*
X54983500Y33783000D01*
G75*
G02*
X55121000Y33645500I0J-137500D01*
G01*
X55121000Y32395500D01*
G75*
G02*
X54983500Y32258000I-137500J0D01*
G01*
X54708500Y32258000D01*
G75*
G02*
X54571000Y32395500I0J137500D01*
G01*
X54571000Y33645500D01*
G75*
G02*
X54708500Y33783000I137500J0D01*
G01*
G37*
G36*
G01*
X54708500Y44958000D02*
X54983500Y44958000D01*
G75*
G02*
X55121000Y44820500I0J-137500D01*
G01*
X55121000Y43570500D01*
G75*
G02*
X54983500Y43433000I-137500J0D01*
G01*
X54708500Y43433000D01*
G75*
G02*
X54571000Y43570500I0J137500D01*
G01*
X54571000Y44820500D01*
G75*
G02*
X54708500Y44958000I137500J0D01*
G01*
G37*
G36*
G01*
X55508500Y44958000D02*
X55783500Y44958000D01*
G75*
G02*
X55921000Y44820500I0J-137500D01*
G01*
X55921000Y43570500D01*
G75*
G02*
X55783500Y43433000I-137500J0D01*
G01*
X55508500Y43433000D01*
G75*
G02*
X55371000Y43570500I0J137500D01*
G01*
X55371000Y44820500D01*
G75*
G02*
X55508500Y44958000I137500J0D01*
G01*
G37*
G36*
G01*
X56308500Y44958000D02*
X56583500Y44958000D01*
G75*
G02*
X56721000Y44820500I0J-137500D01*
G01*
X56721000Y43570500D01*
G75*
G02*
X56583500Y43433000I-137500J0D01*
G01*
X56308500Y43433000D01*
G75*
G02*
X56171000Y43570500I0J137500D01*
G01*
X56171000Y44820500D01*
G75*
G02*
X56308500Y44958000I137500J0D01*
G01*
G37*
G36*
G01*
X57108500Y44958000D02*
X57383500Y44958000D01*
G75*
G02*
X57521000Y44820500I0J-137500D01*
G01*
X57521000Y43570500D01*
G75*
G02*
X57383500Y43433000I-137500J0D01*
G01*
X57108500Y43433000D01*
G75*
G02*
X56971000Y43570500I0J137500D01*
G01*
X56971000Y44820500D01*
G75*
G02*
X57108500Y44958000I137500J0D01*
G01*
G37*
G36*
G01*
X57908500Y44958000D02*
X58183500Y44958000D01*
G75*
G02*
X58321000Y44820500I0J-137500D01*
G01*
X58321000Y43570500D01*
G75*
G02*
X58183500Y43433000I-137500J0D01*
G01*
X57908500Y43433000D01*
G75*
G02*
X57771000Y43570500I0J137500D01*
G01*
X57771000Y44820500D01*
G75*
G02*
X57908500Y44958000I137500J0D01*
G01*
G37*
G36*
G01*
X58708500Y44958000D02*
X58983500Y44958000D01*
G75*
G02*
X59121000Y44820500I0J-137500D01*
G01*
X59121000Y43570500D01*
G75*
G02*
X58983500Y43433000I-137500J0D01*
G01*
X58708500Y43433000D01*
G75*
G02*
X58571000Y43570500I0J137500D01*
G01*
X58571000Y44820500D01*
G75*
G02*
X58708500Y44958000I137500J0D01*
G01*
G37*
G36*
G01*
X59508500Y44958000D02*
X59783500Y44958000D01*
G75*
G02*
X59921000Y44820500I0J-137500D01*
G01*
X59921000Y43570500D01*
G75*
G02*
X59783500Y43433000I-137500J0D01*
G01*
X59508500Y43433000D01*
G75*
G02*
X59371000Y43570500I0J137500D01*
G01*
X59371000Y44820500D01*
G75*
G02*
X59508500Y44958000I137500J0D01*
G01*
G37*
G36*
G01*
X60308500Y44958000D02*
X60583500Y44958000D01*
G75*
G02*
X60721000Y44820500I0J-137500D01*
G01*
X60721000Y43570500D01*
G75*
G02*
X60583500Y43433000I-137500J0D01*
G01*
X60308500Y43433000D01*
G75*
G02*
X60171000Y43570500I0J137500D01*
G01*
X60171000Y44820500D01*
G75*
G02*
X60308500Y44958000I137500J0D01*
G01*
G37*
G36*
G01*
X61108500Y44958000D02*
X61383500Y44958000D01*
G75*
G02*
X61521000Y44820500I0J-137500D01*
G01*
X61521000Y43570500D01*
G75*
G02*
X61383500Y43433000I-137500J0D01*
G01*
X61108500Y43433000D01*
G75*
G02*
X60971000Y43570500I0J137500D01*
G01*
X60971000Y44820500D01*
G75*
G02*
X61108500Y44958000I137500J0D01*
G01*
G37*
G36*
G01*
X61908500Y44958000D02*
X62183500Y44958000D01*
G75*
G02*
X62321000Y44820500I0J-137500D01*
G01*
X62321000Y43570500D01*
G75*
G02*
X62183500Y43433000I-137500J0D01*
G01*
X61908500Y43433000D01*
G75*
G02*
X61771000Y43570500I0J137500D01*
G01*
X61771000Y44820500D01*
G75*
G02*
X61908500Y44958000I137500J0D01*
G01*
G37*
G36*
G01*
X62708500Y44958000D02*
X62983500Y44958000D01*
G75*
G02*
X63121000Y44820500I0J-137500D01*
G01*
X63121000Y43570500D01*
G75*
G02*
X62983500Y43433000I-137500J0D01*
G01*
X62708500Y43433000D01*
G75*
G02*
X62571000Y43570500I0J137500D01*
G01*
X62571000Y44820500D01*
G75*
G02*
X62708500Y44958000I137500J0D01*
G01*
G37*
G36*
G01*
X63508500Y44958000D02*
X63783500Y44958000D01*
G75*
G02*
X63921000Y44820500I0J-137500D01*
G01*
X63921000Y43570500D01*
G75*
G02*
X63783500Y43433000I-137500J0D01*
G01*
X63508500Y43433000D01*
G75*
G02*
X63371000Y43570500I0J137500D01*
G01*
X63371000Y44820500D01*
G75*
G02*
X63508500Y44958000I137500J0D01*
G01*
G37*
G36*
G01*
X64308500Y44958000D02*
X64583500Y44958000D01*
G75*
G02*
X64721000Y44820500I0J-137500D01*
G01*
X64721000Y43570500D01*
G75*
G02*
X64583500Y43433000I-137500J0D01*
G01*
X64308500Y43433000D01*
G75*
G02*
X64171000Y43570500I0J137500D01*
G01*
X64171000Y44820500D01*
G75*
G02*
X64308500Y44958000I137500J0D01*
G01*
G37*
G36*
G01*
X65108500Y44958000D02*
X65383500Y44958000D01*
G75*
G02*
X65521000Y44820500I0J-137500D01*
G01*
X65521000Y43570500D01*
G75*
G02*
X65383500Y43433000I-137500J0D01*
G01*
X65108500Y43433000D01*
G75*
G02*
X64971000Y43570500I0J137500D01*
G01*
X64971000Y44820500D01*
G75*
G02*
X65108500Y44958000I137500J0D01*
G01*
G37*
G36*
G01*
X65908500Y44958000D02*
X66183500Y44958000D01*
G75*
G02*
X66321000Y44820500I0J-137500D01*
G01*
X66321000Y43570500D01*
G75*
G02*
X66183500Y43433000I-137500J0D01*
G01*
X65908500Y43433000D01*
G75*
G02*
X65771000Y43570500I0J137500D01*
G01*
X65771000Y44820500D01*
G75*
G02*
X65908500Y44958000I137500J0D01*
G01*
G37*
G36*
G01*
X66708500Y44958000D02*
X66983500Y44958000D01*
G75*
G02*
X67121000Y44820500I0J-137500D01*
G01*
X67121000Y43570500D01*
G75*
G02*
X66983500Y43433000I-137500J0D01*
G01*
X66708500Y43433000D01*
G75*
G02*
X66571000Y43570500I0J137500D01*
G01*
X66571000Y44820500D01*
G75*
G02*
X66708500Y44958000I137500J0D01*
G01*
G37*
G36*
G01*
X67508500Y44958000D02*
X67783500Y44958000D01*
G75*
G02*
X67921000Y44820500I0J-137500D01*
G01*
X67921000Y43570500D01*
G75*
G02*
X67783500Y43433000I-137500J0D01*
G01*
X67508500Y43433000D01*
G75*
G02*
X67371000Y43570500I0J137500D01*
G01*
X67371000Y44820500D01*
G75*
G02*
X67508500Y44958000I137500J0D01*
G01*
G37*
G36*
G01*
X68308500Y44958000D02*
X68583500Y44958000D01*
G75*
G02*
X68721000Y44820500I0J-137500D01*
G01*
X68721000Y43570500D01*
G75*
G02*
X68583500Y43433000I-137500J0D01*
G01*
X68308500Y43433000D01*
G75*
G02*
X68171000Y43570500I0J137500D01*
G01*
X68171000Y44820500D01*
G75*
G02*
X68308500Y44958000I137500J0D01*
G01*
G37*
G36*
G01*
X69108500Y44958000D02*
X69383500Y44958000D01*
G75*
G02*
X69521000Y44820500I0J-137500D01*
G01*
X69521000Y43570500D01*
G75*
G02*
X69383500Y43433000I-137500J0D01*
G01*
X69108500Y43433000D01*
G75*
G02*
X68971000Y43570500I0J137500D01*
G01*
X68971000Y44820500D01*
G75*
G02*
X69108500Y44958000I137500J0D01*
G01*
G37*
G36*
G01*
X69908500Y44958000D02*
X70183500Y44958000D01*
G75*
G02*
X70321000Y44820500I0J-137500D01*
G01*
X70321000Y43570500D01*
G75*
G02*
X70183500Y43433000I-137500J0D01*
G01*
X69908500Y43433000D01*
G75*
G02*
X69771000Y43570500I0J137500D01*
G01*
X69771000Y44820500D01*
G75*
G02*
X69908500Y44958000I137500J0D01*
G01*
G37*
G36*
G01*
X70708500Y44958000D02*
X70983500Y44958000D01*
G75*
G02*
X71121000Y44820500I0J-137500D01*
G01*
X71121000Y43570500D01*
G75*
G02*
X70983500Y43433000I-137500J0D01*
G01*
X70708500Y43433000D01*
G75*
G02*
X70571000Y43570500I0J137500D01*
G01*
X70571000Y44820500D01*
G75*
G02*
X70708500Y44958000I137500J0D01*
G01*
G37*
G36*
G01*
X71508500Y44958000D02*
X71783500Y44958000D01*
G75*
G02*
X71921000Y44820500I0J-137500D01*
G01*
X71921000Y43570500D01*
G75*
G02*
X71783500Y43433000I-137500J0D01*
G01*
X71508500Y43433000D01*
G75*
G02*
X71371000Y43570500I0J137500D01*
G01*
X71371000Y44820500D01*
G75*
G02*
X71508500Y44958000I137500J0D01*
G01*
G37*
%TD*%
D11*
%TO.C,U1*%
X8382000Y22352000D03*
X23622000Y14732000D03*
X10922000Y22352000D03*
X21082000Y14732000D03*
X13462000Y22352000D03*
X18542000Y14732000D03*
X16002000Y22352000D03*
X16002000Y14732000D03*
X18542000Y22352000D03*
X13462000Y14732000D03*
X21082000Y22352000D03*
X10922000Y14732000D03*
X23622000Y22352000D03*
D12*
X8382000Y14732000D03*
%TD*%
D13*
%TO.C,R1*%
X27940000Y32258000D03*
D14*
X22860000Y32258000D03*
%TD*%
D10*
%TO.C,C4*%
X35226000Y25146000D03*
X30226000Y25146000D03*
%TD*%
%TO.C,C3*%
X10080000Y45466000D03*
X5080000Y45466000D03*
%TD*%
%TO.C,C2*%
X67992000Y30480000D03*
X62992000Y30480000D03*
%TD*%
%TO.C,C1*%
X13382000Y25146000D03*
X8382000Y25146000D03*
%TD*%
D15*
%TO.C,J1*%
X17272000Y4064000D03*
X17272000Y6604000D03*
X19812000Y4064000D03*
X19812000Y6604000D03*
X22352000Y4064000D03*
X22352000Y6604000D03*
X24892000Y4064000D03*
X24892000Y6604000D03*
X27432000Y4064000D03*
X27432000Y6604000D03*
X29972000Y4064000D03*
X29972000Y6604000D03*
X32512000Y4064000D03*
X32512000Y6604000D03*
X35052000Y4064000D03*
X35052000Y6604000D03*
X37592000Y4064000D03*
X37592000Y6604000D03*
X40132000Y4064000D03*
X40132000Y6604000D03*
X42672000Y4064000D03*
X42672000Y6604000D03*
X45212000Y4064000D03*
X45212000Y6604000D03*
X47752000Y4064000D03*
X47752000Y6604000D03*
X50292000Y4064000D03*
X50292000Y6604000D03*
X52832000Y4064000D03*
X52832000Y6604000D03*
X55372000Y4064000D03*
X55372000Y6604000D03*
X57912000Y4064000D03*
X57912000Y6604000D03*
X60452000Y4064000D03*
X60452000Y6604000D03*
X62992000Y4064000D03*
X62992000Y6604000D03*
X65532000Y4064000D03*
X65532000Y6604000D03*
X68072000Y4064000D03*
X68072000Y6604000D03*
X70612000Y4064000D03*
X70612000Y6604000D03*
X73152000Y4064000D03*
X73152000Y6604000D03*
X75692000Y4064000D03*
X75692000Y6604000D03*
X78232000Y4064000D03*
D16*
X78232000Y6604000D03*
%TD*%
M02*
