%TF.GenerationSoftware,KiCad,Pcbnew,(5.1.10-1-10_14)*%
%TF.CreationDate,2021-08-30T23:36:35+02:00*%
%TF.ProjectId,ram_board,72616d5f-626f-4617-9264-2e6b69636164,rev?*%
%TF.SameCoordinates,Original*%
%TF.FileFunction,Legend,Bot*%
%TF.FilePolarity,Positive*%
%FSLAX46Y46*%
G04 Gerber Fmt 4.6, Leading zero omitted, Abs format (unit mm)*
G04 Created by KiCad (PCBNEW (5.1.10-1-10_14)) date 2021-08-30 23:36:35*
%MOMM*%
%LPD*%
G01*
G04 APERTURE LIST*
%ADD10C,0.300000*%
%ADD11C,0.010000*%
G04 APERTURE END LIST*
D10*
X75817619Y50149238D02*
X76484285Y51101619D01*
X76960476Y50149238D02*
X76960476Y52149238D01*
X76198571Y52149238D01*
X76008095Y52054000D01*
X75912857Y51958761D01*
X75817619Y51768285D01*
X75817619Y51482571D01*
X75912857Y51292095D01*
X76008095Y51196857D01*
X76198571Y51101619D01*
X76960476Y51101619D01*
X75055714Y50720666D02*
X74103333Y50720666D01*
X75246190Y50149238D02*
X74579523Y52149238D01*
X73912857Y50149238D01*
X73246190Y50149238D02*
X73246190Y52149238D01*
X72579523Y50720666D01*
X71912857Y52149238D01*
X71912857Y50149238D01*
X68770000Y51196857D02*
X68484285Y51101619D01*
X68389047Y51006380D01*
X68293809Y50815904D01*
X68293809Y50530190D01*
X68389047Y50339714D01*
X68484285Y50244476D01*
X68674761Y50149238D01*
X69436666Y50149238D01*
X69436666Y52149238D01*
X68770000Y52149238D01*
X68579523Y52054000D01*
X68484285Y51958761D01*
X68389047Y51768285D01*
X68389047Y51577809D01*
X68484285Y51387333D01*
X68579523Y51292095D01*
X68770000Y51196857D01*
X69436666Y51196857D01*
X67055714Y52149238D02*
X66674761Y52149238D01*
X66484285Y52054000D01*
X66293809Y51863523D01*
X66198571Y51482571D01*
X66198571Y50815904D01*
X66293809Y50434952D01*
X66484285Y50244476D01*
X66674761Y50149238D01*
X67055714Y50149238D01*
X67246190Y50244476D01*
X67436666Y50434952D01*
X67531904Y50815904D01*
X67531904Y51482571D01*
X67436666Y51863523D01*
X67246190Y52054000D01*
X67055714Y52149238D01*
X65436666Y50720666D02*
X64484285Y50720666D01*
X65627142Y50149238D02*
X64960476Y52149238D01*
X64293809Y50149238D01*
X62484285Y50149238D02*
X63150952Y51101619D01*
X63627142Y50149238D02*
X63627142Y52149238D01*
X62865238Y52149238D01*
X62674761Y52054000D01*
X62579523Y51958761D01*
X62484285Y51768285D01*
X62484285Y51482571D01*
X62579523Y51292095D01*
X62674761Y51196857D01*
X62865238Y51101619D01*
X63627142Y51101619D01*
X61627142Y50149238D02*
X61627142Y52149238D01*
X61150952Y52149238D01*
X60865238Y52054000D01*
X60674761Y51863523D01*
X60579523Y51673047D01*
X60484285Y51292095D01*
X60484285Y51006380D01*
X60579523Y50625428D01*
X60674761Y50434952D01*
X60865238Y50244476D01*
X61150952Y50149238D01*
X61627142Y50149238D01*
X58389047Y52149238D02*
X57722380Y50149238D01*
X57055714Y52149238D01*
X55341428Y50149238D02*
X56484285Y50149238D01*
X55912857Y50149238D02*
X55912857Y52149238D01*
X56103333Y51863523D01*
X56293809Y51673047D01*
X56484285Y51577809D01*
X54484285Y50339714D02*
X54389047Y50244476D01*
X54484285Y50149238D01*
X54579523Y50244476D01*
X54484285Y50339714D01*
X54484285Y50149238D01*
X53150952Y52149238D02*
X52960476Y52149238D01*
X52770000Y52054000D01*
X52674761Y51958761D01*
X52579523Y51768285D01*
X52484285Y51387333D01*
X52484285Y50911142D01*
X52579523Y50530190D01*
X52674761Y50339714D01*
X52770000Y50244476D01*
X52960476Y50149238D01*
X53150952Y50149238D01*
X53341428Y50244476D01*
X53436666Y50339714D01*
X53531904Y50530190D01*
X53627142Y50911142D01*
X53627142Y51387333D01*
X53531904Y51768285D01*
X53436666Y51958761D01*
X53341428Y52054000D01*
X53150952Y52149238D01*
D11*
%TO.C,G\u002A\u002A\u002A*%
G36*
X75588709Y58848562D02*
G01*
X75328601Y58848525D01*
X75098092Y58848367D01*
X74895032Y58847981D01*
X74717270Y58847259D01*
X74562654Y58846093D01*
X74429035Y58844375D01*
X74314260Y58841999D01*
X74216180Y58838856D01*
X74132644Y58834840D01*
X74061500Y58829841D01*
X74000599Y58823753D01*
X73947789Y58816469D01*
X73900919Y58807880D01*
X73857838Y58797879D01*
X73816397Y58786358D01*
X73774443Y58773211D01*
X73729827Y58758328D01*
X73720284Y58755096D01*
X73512001Y58668185D01*
X73315691Y58554043D01*
X73134228Y58415668D01*
X72970489Y58256059D01*
X72827348Y58078214D01*
X72707680Y57885132D01*
X72614363Y57679811D01*
X72574646Y57560466D01*
X72523798Y57331642D01*
X72501643Y57098746D01*
X72507829Y56866007D01*
X72542005Y56637651D01*
X72603817Y56417907D01*
X72685905Y56224761D01*
X72801362Y56029222D01*
X72942433Y55847794D01*
X73105354Y55683771D01*
X73286364Y55540447D01*
X73481698Y55421116D01*
X73687594Y55329071D01*
X73723965Y55316173D01*
X73774153Y55299436D01*
X73821305Y55284990D01*
X73868110Y55272668D01*
X73917256Y55262300D01*
X73971431Y55253719D01*
X74033323Y55246757D01*
X74105622Y55241245D01*
X74191015Y55237014D01*
X74292190Y55233897D01*
X74411837Y55231725D01*
X74552643Y55230331D01*
X74717297Y55229545D01*
X74908487Y55229199D01*
X75114642Y55229125D01*
X76120625Y55229125D01*
X76120625Y53419375D01*
X77025500Y53419375D01*
X77025500Y56133038D01*
X74144188Y56141938D01*
X74039855Y56177422D01*
X73891720Y56243991D01*
X73754422Y56337673D01*
X73633190Y56454332D01*
X73547612Y56567026D01*
X73473236Y56709771D01*
X73427478Y56862644D01*
X73410542Y57021604D01*
X73422632Y57182607D01*
X73463955Y57341611D01*
X73503534Y57435750D01*
X73553075Y57516971D01*
X73622989Y57604190D01*
X73705425Y57689541D01*
X73792531Y57765158D01*
X73876455Y57823171D01*
X73906063Y57839054D01*
X73944511Y57857672D01*
X73978994Y57873661D01*
X74012170Y57887238D01*
X74046697Y57898618D01*
X74085232Y57908016D01*
X74130433Y57915648D01*
X74184957Y57921730D01*
X74251462Y57926478D01*
X74332606Y57930106D01*
X74431047Y57932831D01*
X74549441Y57934869D01*
X74690448Y57936434D01*
X74856723Y57937742D01*
X75050926Y57939010D01*
X75145479Y57939608D01*
X76130895Y57945874D01*
X76582062Y58397250D01*
X77033228Y58848625D01*
X75588709Y58848562D01*
G37*
X75588709Y58848562D02*
X75328601Y58848525D01*
X75098092Y58848367D01*
X74895032Y58847981D01*
X74717270Y58847259D01*
X74562654Y58846093D01*
X74429035Y58844375D01*
X74314260Y58841999D01*
X74216180Y58838856D01*
X74132644Y58834840D01*
X74061500Y58829841D01*
X74000599Y58823753D01*
X73947789Y58816469D01*
X73900919Y58807880D01*
X73857838Y58797879D01*
X73816397Y58786358D01*
X73774443Y58773211D01*
X73729827Y58758328D01*
X73720284Y58755096D01*
X73512001Y58668185D01*
X73315691Y58554043D01*
X73134228Y58415668D01*
X72970489Y58256059D01*
X72827348Y58078214D01*
X72707680Y57885132D01*
X72614363Y57679811D01*
X72574646Y57560466D01*
X72523798Y57331642D01*
X72501643Y57098746D01*
X72507829Y56866007D01*
X72542005Y56637651D01*
X72603817Y56417907D01*
X72685905Y56224761D01*
X72801362Y56029222D01*
X72942433Y55847794D01*
X73105354Y55683771D01*
X73286364Y55540447D01*
X73481698Y55421116D01*
X73687594Y55329071D01*
X73723965Y55316173D01*
X73774153Y55299436D01*
X73821305Y55284990D01*
X73868110Y55272668D01*
X73917256Y55262300D01*
X73971431Y55253719D01*
X74033323Y55246757D01*
X74105622Y55241245D01*
X74191015Y55237014D01*
X74292190Y55233897D01*
X74411837Y55231725D01*
X74552643Y55230331D01*
X74717297Y55229545D01*
X74908487Y55229199D01*
X75114642Y55229125D01*
X76120625Y55229125D01*
X76120625Y53419375D01*
X77025500Y53419375D01*
X77025500Y56133038D01*
X74144188Y56141938D01*
X74039855Y56177422D01*
X73891720Y56243991D01*
X73754422Y56337673D01*
X73633190Y56454332D01*
X73547612Y56567026D01*
X73473236Y56709771D01*
X73427478Y56862644D01*
X73410542Y57021604D01*
X73422632Y57182607D01*
X73463955Y57341611D01*
X73503534Y57435750D01*
X73553075Y57516971D01*
X73622989Y57604190D01*
X73705425Y57689541D01*
X73792531Y57765158D01*
X73876455Y57823171D01*
X73906063Y57839054D01*
X73944511Y57857672D01*
X73978994Y57873661D01*
X74012170Y57887238D01*
X74046697Y57898618D01*
X74085232Y57908016D01*
X74130433Y57915648D01*
X74184957Y57921730D01*
X74251462Y57926478D01*
X74332606Y57930106D01*
X74431047Y57932831D01*
X74549441Y57934869D01*
X74690448Y57936434D01*
X74856723Y57937742D01*
X75050926Y57939010D01*
X75145479Y57939608D01*
X76130895Y57945874D01*
X76582062Y58397250D01*
X77033228Y58848625D01*
X75588709Y58848562D01*
G36*
X68103750Y53419375D02*
G01*
X71725881Y53419375D01*
X71284034Y53871538D01*
X70842188Y54323700D01*
X68103750Y54324250D01*
X68103750Y53419375D01*
G37*
X68103750Y53419375D02*
X71725881Y53419375D01*
X71284034Y53871538D01*
X70842188Y54323700D01*
X68103750Y54324250D01*
X68103750Y53419375D01*
G36*
X63578269Y57054727D02*
G01*
X63466217Y56830823D01*
X63358160Y56614748D01*
X63254945Y56408205D01*
X63157419Y56212894D01*
X63066430Y56030517D01*
X62982823Y55862775D01*
X62907446Y55711369D01*
X62841145Y55578000D01*
X62784768Y55464369D01*
X62739162Y55372177D01*
X62705173Y55303126D01*
X62683647Y55258917D01*
X62675433Y55241251D01*
X62675376Y55241032D01*
X62690406Y55238141D01*
X62733438Y55235503D01*
X62800722Y55233207D01*
X62888511Y55231340D01*
X62993056Y55229990D01*
X63110609Y55229245D01*
X63182522Y55229125D01*
X63690543Y55229125D01*
X64083353Y56014938D01*
X64156719Y56161418D01*
X64225912Y56299012D01*
X64289628Y56425163D01*
X64346560Y56537312D01*
X64395404Y56632902D01*
X64434856Y56709376D01*
X64463609Y56764176D01*
X64480358Y56794744D01*
X64484176Y56800410D01*
X64492178Y56786460D01*
X64513509Y56745861D01*
X64547289Y56680354D01*
X64592635Y56591682D01*
X64648665Y56481588D01*
X64714497Y56351812D01*
X64789249Y56204098D01*
X64872040Y56040187D01*
X64961987Y55861822D01*
X65058208Y55670745D01*
X65159822Y55468698D01*
X65265947Y55257422D01*
X65340063Y55109722D01*
X66187937Y53419375D01*
X67198894Y53419375D01*
X65839590Y56137946D01*
X64480286Y58856516D01*
X63578269Y57054727D01*
G37*
X63578269Y57054727D02*
X63466217Y56830823D01*
X63358160Y56614748D01*
X63254945Y56408205D01*
X63157419Y56212894D01*
X63066430Y56030517D01*
X62982823Y55862775D01*
X62907446Y55711369D01*
X62841145Y55578000D01*
X62784768Y55464369D01*
X62739162Y55372177D01*
X62705173Y55303126D01*
X62683647Y55258917D01*
X62675433Y55241251D01*
X62675376Y55241032D01*
X62690406Y55238141D01*
X62733438Y55235503D01*
X62800722Y55233207D01*
X62888511Y55231340D01*
X62993056Y55229990D01*
X63110609Y55229245D01*
X63182522Y55229125D01*
X63690543Y55229125D01*
X64083353Y56014938D01*
X64156719Y56161418D01*
X64225912Y56299012D01*
X64289628Y56425163D01*
X64346560Y56537312D01*
X64395404Y56632902D01*
X64434856Y56709376D01*
X64463609Y56764176D01*
X64480358Y56794744D01*
X64484176Y56800410D01*
X64492178Y56786460D01*
X64513509Y56745861D01*
X64547289Y56680354D01*
X64592635Y56591682D01*
X64648665Y56481588D01*
X64714497Y56351812D01*
X64789249Y56204098D01*
X64872040Y56040187D01*
X64961987Y55861822D01*
X65058208Y55670745D01*
X65159822Y55468698D01*
X65265947Y55257422D01*
X65340063Y55109722D01*
X66187937Y53419375D01*
X67198894Y53419375D01*
X65839590Y56137946D01*
X64480286Y58856516D01*
X63578269Y57054727D01*
G36*
X61995679Y53882220D02*
G01*
X61940060Y53773140D01*
X61889408Y53673185D01*
X61845464Y53585839D01*
X61809969Y53514588D01*
X61784666Y53462917D01*
X61771294Y53434310D01*
X61769625Y53429783D01*
X61784872Y53427246D01*
X61828096Y53424933D01*
X61895528Y53422921D01*
X61983395Y53421288D01*
X62087926Y53420112D01*
X62205351Y53419472D01*
X62273786Y53419375D01*
X62777947Y53419375D01*
X63004000Y53871813D01*
X63230053Y54324250D01*
X62221733Y54324250D01*
X61995679Y53882220D01*
G37*
X61995679Y53882220D02*
X61940060Y53773140D01*
X61889408Y53673185D01*
X61845464Y53585839D01*
X61809969Y53514588D01*
X61784666Y53462917D01*
X61771294Y53434310D01*
X61769625Y53429783D01*
X61784872Y53427246D01*
X61828096Y53424933D01*
X61895528Y53422921D01*
X61983395Y53421288D01*
X62087926Y53420112D01*
X62205351Y53419472D01*
X62273786Y53419375D01*
X62777947Y53419375D01*
X63004000Y53871813D01*
X63230053Y54324250D01*
X62221733Y54324250D01*
X61995679Y53882220D01*
G36*
X63686532Y58821469D02*
G01*
X63670795Y58807255D01*
X63632771Y58773008D01*
X63573787Y58719920D01*
X63495168Y58649183D01*
X63398240Y58561990D01*
X63284329Y58459534D01*
X63154761Y58343006D01*
X63010862Y58213599D01*
X62853956Y58072505D01*
X62685372Y57920917D01*
X62506433Y57760027D01*
X62318466Y57591027D01*
X62122797Y57415109D01*
X61920751Y57233467D01*
X61880750Y57197506D01*
X60110688Y55606235D01*
X60106644Y57227430D01*
X60102601Y58848625D01*
X59197875Y58848625D01*
X59197875Y56134000D01*
X59197898Y55843003D01*
X59197965Y55560688D01*
X59198074Y55288683D01*
X59198221Y55028611D01*
X59198406Y54782098D01*
X59198625Y54550768D01*
X59198877Y54336248D01*
X59199158Y54140162D01*
X59199467Y53964135D01*
X59199800Y53809792D01*
X59200157Y53678759D01*
X59200533Y53572660D01*
X59200928Y53493121D01*
X59201338Y53441766D01*
X59201761Y53420221D01*
X59201844Y53419632D01*
X59213888Y53430086D01*
X59248281Y53460637D01*
X59303762Y53510154D01*
X59379071Y53577506D01*
X59472947Y53661561D01*
X59584129Y53761190D01*
X59711356Y53875261D01*
X59853366Y54002642D01*
X60008900Y54142204D01*
X60176696Y54292816D01*
X60355494Y54453345D01*
X60544031Y54622663D01*
X60741049Y54799636D01*
X60945284Y54983135D01*
X61071125Y55096220D01*
X61286558Y55289817D01*
X61500062Y55481666D01*
X61710004Y55670297D01*
X61914747Y55854242D01*
X62112656Y56032031D01*
X62302094Y56202195D01*
X62481428Y56363266D01*
X62649021Y56513776D01*
X62803237Y56652253D01*
X62942441Y56777231D01*
X63064997Y56887240D01*
X63169270Y56980812D01*
X63253625Y57056476D01*
X63316425Y57112765D01*
X63328965Y57123995D01*
X63721491Y57475438D01*
X63721871Y58164799D01*
X63722250Y58854159D01*
X63686532Y58821469D01*
G37*
X63686532Y58821469D02*
X63670795Y58807255D01*
X63632771Y58773008D01*
X63573787Y58719920D01*
X63495168Y58649183D01*
X63398240Y58561990D01*
X63284329Y58459534D01*
X63154761Y58343006D01*
X63010862Y58213599D01*
X62853956Y58072505D01*
X62685372Y57920917D01*
X62506433Y57760027D01*
X62318466Y57591027D01*
X62122797Y57415109D01*
X61920751Y57233467D01*
X61880750Y57197506D01*
X60110688Y55606235D01*
X60106644Y57227430D01*
X60102601Y58848625D01*
X59197875Y58848625D01*
X59197875Y56134000D01*
X59197898Y55843003D01*
X59197965Y55560688D01*
X59198074Y55288683D01*
X59198221Y55028611D01*
X59198406Y54782098D01*
X59198625Y54550768D01*
X59198877Y54336248D01*
X59199158Y54140162D01*
X59199467Y53964135D01*
X59199800Y53809792D01*
X59200157Y53678759D01*
X59200533Y53572660D01*
X59200928Y53493121D01*
X59201338Y53441766D01*
X59201761Y53420221D01*
X59201844Y53419632D01*
X59213888Y53430086D01*
X59248281Y53460637D01*
X59303762Y53510154D01*
X59379071Y53577506D01*
X59472947Y53661561D01*
X59584129Y53761190D01*
X59711356Y53875261D01*
X59853366Y54002642D01*
X60008900Y54142204D01*
X60176696Y54292816D01*
X60355494Y54453345D01*
X60544031Y54622663D01*
X60741049Y54799636D01*
X60945284Y54983135D01*
X61071125Y55096220D01*
X61286558Y55289817D01*
X61500062Y55481666D01*
X61710004Y55670297D01*
X61914747Y55854242D01*
X62112656Y56032031D01*
X62302094Y56202195D01*
X62481428Y56363266D01*
X62649021Y56513776D01*
X62803237Y56652253D01*
X62942441Y56777231D01*
X63064997Y56887240D01*
X63169270Y56980812D01*
X63253625Y57056476D01*
X63316425Y57112765D01*
X63328965Y57123995D01*
X63721491Y57475438D01*
X63721871Y58164799D01*
X63722250Y58854159D01*
X63686532Y58821469D01*
G36*
X55242682Y58839742D02*
G01*
X55106475Y58832154D01*
X54989877Y58819496D01*
X54951313Y58813127D01*
X54669231Y58744718D01*
X54395501Y58647094D01*
X54133529Y58521935D01*
X53886720Y58370922D01*
X53658478Y58195736D01*
X53604781Y58148417D01*
X53496498Y58050315D01*
X53573031Y57971927D01*
X53607910Y57937020D01*
X53661009Y57884916D01*
X53727525Y57820280D01*
X53802653Y57747776D01*
X53881589Y57672068D01*
X53899396Y57655057D01*
X54149228Y57416576D01*
X54232771Y57492201D01*
X54404778Y57627146D01*
X54596327Y57739888D01*
X54802354Y57828285D01*
X55017792Y57890198D01*
X55237577Y57923485D01*
X55256907Y57924970D01*
X55511006Y57928935D01*
X55752215Y57904112D01*
X55980221Y57850610D01*
X56194710Y57768541D01*
X56395368Y57658016D01*
X56581881Y57519145D01*
X56689430Y57419706D01*
X56850283Y57237255D01*
X56985597Y57037882D01*
X57093689Y56824472D01*
X57172878Y56599909D01*
X57177550Y56582903D01*
X57192690Y56524104D01*
X57203686Y56472432D01*
X57211189Y56420887D01*
X57215853Y56362469D01*
X57218328Y56290177D01*
X57219267Y56197009D01*
X57219366Y56134000D01*
X57218995Y56026291D01*
X57217450Y55943325D01*
X57214076Y55878104D01*
X57208223Y55823626D01*
X57199238Y55772890D01*
X57186469Y55718895D01*
X57177550Y55685098D01*
X57131140Y55541609D01*
X57069113Y55391810D01*
X56997347Y55248641D01*
X56926448Y55131958D01*
X56825361Y55000543D01*
X56702397Y54868730D01*
X56565725Y54743946D01*
X56423513Y54633619D01*
X56283930Y54545177D01*
X56276875Y54541304D01*
X56138505Y54475701D01*
X55986040Y54420154D01*
X55829085Y54377290D01*
X55677244Y54349739D01*
X55541560Y54340125D01*
X55438295Y54340125D01*
X54912378Y53991849D01*
X54797031Y53915203D01*
X54690263Y53843757D01*
X54594918Y53779450D01*
X54513840Y53724224D01*
X54449872Y53680018D01*
X54405858Y53648775D01*
X54384641Y53632433D01*
X54383137Y53630693D01*
X54395750Y53619887D01*
X54433595Y53602895D01*
X54491159Y53581455D01*
X54562929Y53557305D01*
X54643392Y53532182D01*
X54727034Y53507824D01*
X54808342Y53485968D01*
X54881804Y53468351D01*
X54927500Y53459133D01*
X55007851Y53448128D01*
X55110473Y53439032D01*
X55227617Y53432062D01*
X55351532Y53427430D01*
X55474466Y53425353D01*
X55588669Y53426046D01*
X55686389Y53429723D01*
X55756666Y53436143D01*
X55963681Y53471822D01*
X56157774Y53521012D01*
X56349016Y53586877D01*
X56547477Y53672580D01*
X56618188Y53706701D01*
X56878922Y53852419D01*
X57117773Y54021051D01*
X57334356Y54212213D01*
X57528286Y54425525D01*
X57699179Y54660604D01*
X57846651Y54917070D01*
X57855899Y54935438D01*
X57975543Y55206986D01*
X58063647Y55479367D01*
X58120419Y55753528D01*
X58146069Y56030419D01*
X58144789Y56245125D01*
X58115680Y56541436D01*
X58057291Y56825483D01*
X57969606Y57097301D01*
X57852611Y57356923D01*
X57706291Y57604380D01*
X57530632Y57839707D01*
X57352105Y58036448D01*
X57135298Y58233418D01*
X56899271Y58405792D01*
X56646284Y58552355D01*
X56378596Y58671893D01*
X56098467Y58763191D01*
X55923373Y58804311D01*
X55815327Y58820925D01*
X55684821Y58832852D01*
X55540268Y58840015D01*
X55390084Y58842337D01*
X55242682Y58839742D01*
G37*
X55242682Y58839742D02*
X55106475Y58832154D01*
X54989877Y58819496D01*
X54951313Y58813127D01*
X54669231Y58744718D01*
X54395501Y58647094D01*
X54133529Y58521935D01*
X53886720Y58370922D01*
X53658478Y58195736D01*
X53604781Y58148417D01*
X53496498Y58050315D01*
X53573031Y57971927D01*
X53607910Y57937020D01*
X53661009Y57884916D01*
X53727525Y57820280D01*
X53802653Y57747776D01*
X53881589Y57672068D01*
X53899396Y57655057D01*
X54149228Y57416576D01*
X54232771Y57492201D01*
X54404778Y57627146D01*
X54596327Y57739888D01*
X54802354Y57828285D01*
X55017792Y57890198D01*
X55237577Y57923485D01*
X55256907Y57924970D01*
X55511006Y57928935D01*
X55752215Y57904112D01*
X55980221Y57850610D01*
X56194710Y57768541D01*
X56395368Y57658016D01*
X56581881Y57519145D01*
X56689430Y57419706D01*
X56850283Y57237255D01*
X56985597Y57037882D01*
X57093689Y56824472D01*
X57172878Y56599909D01*
X57177550Y56582903D01*
X57192690Y56524104D01*
X57203686Y56472432D01*
X57211189Y56420887D01*
X57215853Y56362469D01*
X57218328Y56290177D01*
X57219267Y56197009D01*
X57219366Y56134000D01*
X57218995Y56026291D01*
X57217450Y55943325D01*
X57214076Y55878104D01*
X57208223Y55823626D01*
X57199238Y55772890D01*
X57186469Y55718895D01*
X57177550Y55685098D01*
X57131140Y55541609D01*
X57069113Y55391810D01*
X56997347Y55248641D01*
X56926448Y55131958D01*
X56825361Y55000543D01*
X56702397Y54868730D01*
X56565725Y54743946D01*
X56423513Y54633619D01*
X56283930Y54545177D01*
X56276875Y54541304D01*
X56138505Y54475701D01*
X55986040Y54420154D01*
X55829085Y54377290D01*
X55677244Y54349739D01*
X55541560Y54340125D01*
X55438295Y54340125D01*
X54912378Y53991849D01*
X54797031Y53915203D01*
X54690263Y53843757D01*
X54594918Y53779450D01*
X54513840Y53724224D01*
X54449872Y53680018D01*
X54405858Y53648775D01*
X54384641Y53632433D01*
X54383137Y53630693D01*
X54395750Y53619887D01*
X54433595Y53602895D01*
X54491159Y53581455D01*
X54562929Y53557305D01*
X54643392Y53532182D01*
X54727034Y53507824D01*
X54808342Y53485968D01*
X54881804Y53468351D01*
X54927500Y53459133D01*
X55007851Y53448128D01*
X55110473Y53439032D01*
X55227617Y53432062D01*
X55351532Y53427430D01*
X55474466Y53425353D01*
X55588669Y53426046D01*
X55686389Y53429723D01*
X55756666Y53436143D01*
X55963681Y53471822D01*
X56157774Y53521012D01*
X56349016Y53586877D01*
X56547477Y53672580D01*
X56618188Y53706701D01*
X56878922Y53852419D01*
X57117773Y54021051D01*
X57334356Y54212213D01*
X57528286Y54425525D01*
X57699179Y54660604D01*
X57846651Y54917070D01*
X57855899Y54935438D01*
X57975543Y55206986D01*
X58063647Y55479367D01*
X58120419Y55753528D01*
X58146069Y56030419D01*
X58144789Y56245125D01*
X58115680Y56541436D01*
X58057291Y56825483D01*
X57969606Y57097301D01*
X57852611Y57356923D01*
X57706291Y57604380D01*
X57530632Y57839707D01*
X57352105Y58036448D01*
X57135298Y58233418D01*
X56899271Y58405792D01*
X56646284Y58552355D01*
X56378596Y58671893D01*
X56098467Y58763191D01*
X55923373Y58804311D01*
X55815327Y58820925D01*
X55684821Y58832852D01*
X55540268Y58840015D01*
X55390084Y58842337D01*
X55242682Y58839742D01*
G36*
X52324000Y57491313D02*
G01*
X53681243Y56134000D01*
X52324000Y54776688D01*
X50966758Y53419375D01*
X51609660Y53419388D01*
X52252563Y53419400D01*
X53609875Y54764794D01*
X53783001Y54936499D01*
X53949798Y55102122D01*
X54108883Y55260280D01*
X54258872Y55409587D01*
X54398380Y55548660D01*
X54526025Y55676115D01*
X54640421Y55790567D01*
X54740186Y55890632D01*
X54823934Y55974926D01*
X54890283Y56042064D01*
X54937848Y56090663D01*
X54965245Y56119338D01*
X54971720Y56126911D01*
X54961240Y56139998D01*
X54929543Y56174020D01*
X54877999Y56227597D01*
X54807977Y56299352D01*
X54720847Y56387903D01*
X54617978Y56491873D01*
X54500739Y56609882D01*
X54370501Y56740552D01*
X54228632Y56882502D01*
X54076503Y57034354D01*
X53915483Y57194730D01*
X53746941Y57362248D01*
X53612001Y57496130D01*
X52247750Y58848625D01*
X50966758Y58848625D01*
X52324000Y57491313D01*
G37*
X52324000Y57491313D02*
X53681243Y56134000D01*
X52324000Y54776688D01*
X50966758Y53419375D01*
X51609660Y53419388D01*
X52252563Y53419400D01*
X53609875Y54764794D01*
X53783001Y54936499D01*
X53949798Y55102122D01*
X54108883Y55260280D01*
X54258872Y55409587D01*
X54398380Y55548660D01*
X54526025Y55676115D01*
X54640421Y55790567D01*
X54740186Y55890632D01*
X54823934Y55974926D01*
X54890283Y56042064D01*
X54937848Y56090663D01*
X54965245Y56119338D01*
X54971720Y56126911D01*
X54961240Y56139998D01*
X54929543Y56174020D01*
X54877999Y56227597D01*
X54807977Y56299352D01*
X54720847Y56387903D01*
X54617978Y56491873D01*
X54500739Y56609882D01*
X54370501Y56740552D01*
X54228632Y56882502D01*
X54076503Y57034354D01*
X53915483Y57194730D01*
X53746941Y57362248D01*
X53612001Y57496130D01*
X52247750Y58848625D01*
X50966758Y58848625D01*
X52324000Y57491313D01*
G36*
X70818375Y55569341D02*
G01*
X71264213Y55113483D01*
X71361772Y55014090D01*
X71452672Y54922169D01*
X71534480Y54840130D01*
X71604761Y54770385D01*
X71661081Y54715343D01*
X71701006Y54677414D01*
X71722101Y54659009D01*
X71724588Y54657625D01*
X71726612Y54673291D01*
X71728517Y54719449D01*
X71730294Y54794842D01*
X71731934Y54898213D01*
X71733429Y55028304D01*
X71734770Y55183859D01*
X71735948Y55363620D01*
X71736954Y55566329D01*
X71737780Y55790730D01*
X71738417Y56035565D01*
X71738856Y56299576D01*
X71739089Y56581507D01*
X71739125Y56753125D01*
X71739125Y58848625D01*
X70818375Y58848625D01*
X70818375Y55569341D01*
G37*
X70818375Y55569341D02*
X71264213Y55113483D01*
X71361772Y55014090D01*
X71452672Y54922169D01*
X71534480Y54840130D01*
X71604761Y54770385D01*
X71661081Y54715343D01*
X71701006Y54677414D01*
X71722101Y54659009D01*
X71724588Y54657625D01*
X71726612Y54673291D01*
X71728517Y54719449D01*
X71730294Y54794842D01*
X71731934Y54898213D01*
X71733429Y55028304D01*
X71734770Y55183859D01*
X71735948Y55363620D01*
X71736954Y55566329D01*
X71737780Y55790730D01*
X71738417Y56035565D01*
X71738856Y56299576D01*
X71739089Y56581507D01*
X71739125Y56753125D01*
X71739125Y58848625D01*
X70818375Y58848625D01*
X70818375Y55569341D01*
%TD*%
M02*
