G04 #@! TF.GenerationSoftware,KiCad,Pcbnew,(5.0.2)-1*
G04 #@! TF.CreationDate,2019-11-20T10:40:07-05:00*
G04 #@! TF.ProjectId,Z80_CPU,5a38305f-4350-4552-9e6b-696361645f70,1*
G04 #@! TF.SameCoordinates,Original*
G04 #@! TF.FileFunction,Paste,Bot*
G04 #@! TF.FilePolarity,Positive*
%FSLAX46Y46*%
G04 Gerber Fmt 4.6, Leading zero omitted, Abs format (unit mm)*
G04 Created by KiCad (PCBNEW (5.0.2)-1) date 11/20/2019 10:40:07 AM*
%MOMM*%
%LPD*%
G01*
G04 APERTURE LIST*
%ADD10C,0.100000*%
%ADD11C,1.150000*%
G04 APERTURE END LIST*
D10*
G04 #@! TO.C,R10*
G36*
X69065505Y-1079204D02*
X69089773Y-1082804D01*
X69113572Y-1088765D01*
X69136671Y-1097030D01*
X69158850Y-1107520D01*
X69179893Y-1120132D01*
X69199599Y-1134747D01*
X69217777Y-1151223D01*
X69234253Y-1169401D01*
X69248868Y-1189107D01*
X69261480Y-1210150D01*
X69271970Y-1232329D01*
X69280235Y-1255428D01*
X69286196Y-1279227D01*
X69289796Y-1303495D01*
X69291000Y-1327999D01*
X69291000Y-2228001D01*
X69289796Y-2252505D01*
X69286196Y-2276773D01*
X69280235Y-2300572D01*
X69271970Y-2323671D01*
X69261480Y-2345850D01*
X69248868Y-2366893D01*
X69234253Y-2386599D01*
X69217777Y-2404777D01*
X69199599Y-2421253D01*
X69179893Y-2435868D01*
X69158850Y-2448480D01*
X69136671Y-2458970D01*
X69113572Y-2467235D01*
X69089773Y-2473196D01*
X69065505Y-2476796D01*
X69041001Y-2478000D01*
X68390999Y-2478000D01*
X68366495Y-2476796D01*
X68342227Y-2473196D01*
X68318428Y-2467235D01*
X68295329Y-2458970D01*
X68273150Y-2448480D01*
X68252107Y-2435868D01*
X68232401Y-2421253D01*
X68214223Y-2404777D01*
X68197747Y-2386599D01*
X68183132Y-2366893D01*
X68170520Y-2345850D01*
X68160030Y-2323671D01*
X68151765Y-2300572D01*
X68145804Y-2276773D01*
X68142204Y-2252505D01*
X68141000Y-2228001D01*
X68141000Y-1327999D01*
X68142204Y-1303495D01*
X68145804Y-1279227D01*
X68151765Y-1255428D01*
X68160030Y-1232329D01*
X68170520Y-1210150D01*
X68183132Y-1189107D01*
X68197747Y-1169401D01*
X68214223Y-1151223D01*
X68232401Y-1134747D01*
X68252107Y-1120132D01*
X68273150Y-1107520D01*
X68295329Y-1097030D01*
X68318428Y-1088765D01*
X68342227Y-1082804D01*
X68366495Y-1079204D01*
X68390999Y-1078000D01*
X69041001Y-1078000D01*
X69065505Y-1079204D01*
X69065505Y-1079204D01*
G37*
D11*
X68716000Y-1778000D03*
D10*
G36*
X67015505Y-1079204D02*
X67039773Y-1082804D01*
X67063572Y-1088765D01*
X67086671Y-1097030D01*
X67108850Y-1107520D01*
X67129893Y-1120132D01*
X67149599Y-1134747D01*
X67167777Y-1151223D01*
X67184253Y-1169401D01*
X67198868Y-1189107D01*
X67211480Y-1210150D01*
X67221970Y-1232329D01*
X67230235Y-1255428D01*
X67236196Y-1279227D01*
X67239796Y-1303495D01*
X67241000Y-1327999D01*
X67241000Y-2228001D01*
X67239796Y-2252505D01*
X67236196Y-2276773D01*
X67230235Y-2300572D01*
X67221970Y-2323671D01*
X67211480Y-2345850D01*
X67198868Y-2366893D01*
X67184253Y-2386599D01*
X67167777Y-2404777D01*
X67149599Y-2421253D01*
X67129893Y-2435868D01*
X67108850Y-2448480D01*
X67086671Y-2458970D01*
X67063572Y-2467235D01*
X67039773Y-2473196D01*
X67015505Y-2476796D01*
X66991001Y-2478000D01*
X66340999Y-2478000D01*
X66316495Y-2476796D01*
X66292227Y-2473196D01*
X66268428Y-2467235D01*
X66245329Y-2458970D01*
X66223150Y-2448480D01*
X66202107Y-2435868D01*
X66182401Y-2421253D01*
X66164223Y-2404777D01*
X66147747Y-2386599D01*
X66133132Y-2366893D01*
X66120520Y-2345850D01*
X66110030Y-2323671D01*
X66101765Y-2300572D01*
X66095804Y-2276773D01*
X66092204Y-2252505D01*
X66091000Y-2228001D01*
X66091000Y-1327999D01*
X66092204Y-1303495D01*
X66095804Y-1279227D01*
X66101765Y-1255428D01*
X66110030Y-1232329D01*
X66120520Y-1210150D01*
X66133132Y-1189107D01*
X66147747Y-1169401D01*
X66164223Y-1151223D01*
X66182401Y-1134747D01*
X66202107Y-1120132D01*
X66223150Y-1107520D01*
X66245329Y-1097030D01*
X66268428Y-1088765D01*
X66292227Y-1082804D01*
X66316495Y-1079204D01*
X66340999Y-1078000D01*
X66991001Y-1078000D01*
X67015505Y-1079204D01*
X67015505Y-1079204D01*
G37*
D11*
X66666000Y-1778000D03*
G04 #@! TD*
D10*
G04 #@! TO.C,L1*
G36*
X85056505Y-48711204D02*
X85080773Y-48714804D01*
X85104572Y-48720765D01*
X85127671Y-48729030D01*
X85149850Y-48739520D01*
X85170893Y-48752132D01*
X85190599Y-48766747D01*
X85208777Y-48783223D01*
X85225253Y-48801401D01*
X85239868Y-48821107D01*
X85252480Y-48842150D01*
X85262970Y-48864329D01*
X85271235Y-48887428D01*
X85277196Y-48911227D01*
X85280796Y-48935495D01*
X85282000Y-48959999D01*
X85282000Y-49610001D01*
X85280796Y-49634505D01*
X85277196Y-49658773D01*
X85271235Y-49682572D01*
X85262970Y-49705671D01*
X85252480Y-49727850D01*
X85239868Y-49748893D01*
X85225253Y-49768599D01*
X85208777Y-49786777D01*
X85190599Y-49803253D01*
X85170893Y-49817868D01*
X85149850Y-49830480D01*
X85127671Y-49840970D01*
X85104572Y-49849235D01*
X85080773Y-49855196D01*
X85056505Y-49858796D01*
X85032001Y-49860000D01*
X84131999Y-49860000D01*
X84107495Y-49858796D01*
X84083227Y-49855196D01*
X84059428Y-49849235D01*
X84036329Y-49840970D01*
X84014150Y-49830480D01*
X83993107Y-49817868D01*
X83973401Y-49803253D01*
X83955223Y-49786777D01*
X83938747Y-49768599D01*
X83924132Y-49748893D01*
X83911520Y-49727850D01*
X83901030Y-49705671D01*
X83892765Y-49682572D01*
X83886804Y-49658773D01*
X83883204Y-49634505D01*
X83882000Y-49610001D01*
X83882000Y-48959999D01*
X83883204Y-48935495D01*
X83886804Y-48911227D01*
X83892765Y-48887428D01*
X83901030Y-48864329D01*
X83911520Y-48842150D01*
X83924132Y-48821107D01*
X83938747Y-48801401D01*
X83955223Y-48783223D01*
X83973401Y-48766747D01*
X83993107Y-48752132D01*
X84014150Y-48739520D01*
X84036329Y-48729030D01*
X84059428Y-48720765D01*
X84083227Y-48714804D01*
X84107495Y-48711204D01*
X84131999Y-48710000D01*
X85032001Y-48710000D01*
X85056505Y-48711204D01*
X85056505Y-48711204D01*
G37*
D11*
X84582000Y-49285000D03*
D10*
G36*
X85056505Y-46661204D02*
X85080773Y-46664804D01*
X85104572Y-46670765D01*
X85127671Y-46679030D01*
X85149850Y-46689520D01*
X85170893Y-46702132D01*
X85190599Y-46716747D01*
X85208777Y-46733223D01*
X85225253Y-46751401D01*
X85239868Y-46771107D01*
X85252480Y-46792150D01*
X85262970Y-46814329D01*
X85271235Y-46837428D01*
X85277196Y-46861227D01*
X85280796Y-46885495D01*
X85282000Y-46909999D01*
X85282000Y-47560001D01*
X85280796Y-47584505D01*
X85277196Y-47608773D01*
X85271235Y-47632572D01*
X85262970Y-47655671D01*
X85252480Y-47677850D01*
X85239868Y-47698893D01*
X85225253Y-47718599D01*
X85208777Y-47736777D01*
X85190599Y-47753253D01*
X85170893Y-47767868D01*
X85149850Y-47780480D01*
X85127671Y-47790970D01*
X85104572Y-47799235D01*
X85080773Y-47805196D01*
X85056505Y-47808796D01*
X85032001Y-47810000D01*
X84131999Y-47810000D01*
X84107495Y-47808796D01*
X84083227Y-47805196D01*
X84059428Y-47799235D01*
X84036329Y-47790970D01*
X84014150Y-47780480D01*
X83993107Y-47767868D01*
X83973401Y-47753253D01*
X83955223Y-47736777D01*
X83938747Y-47718599D01*
X83924132Y-47698893D01*
X83911520Y-47677850D01*
X83901030Y-47655671D01*
X83892765Y-47632572D01*
X83886804Y-47608773D01*
X83883204Y-47584505D01*
X83882000Y-47560001D01*
X83882000Y-46909999D01*
X83883204Y-46885495D01*
X83886804Y-46861227D01*
X83892765Y-46837428D01*
X83901030Y-46814329D01*
X83911520Y-46792150D01*
X83924132Y-46771107D01*
X83938747Y-46751401D01*
X83955223Y-46733223D01*
X83973401Y-46716747D01*
X83993107Y-46702132D01*
X84014150Y-46689520D01*
X84036329Y-46679030D01*
X84059428Y-46670765D01*
X84083227Y-46664804D01*
X84107495Y-46661204D01*
X84131999Y-46660000D01*
X85032001Y-46660000D01*
X85056505Y-46661204D01*
X85056505Y-46661204D01*
G37*
D11*
X84582000Y-47235000D03*
G04 #@! TD*
D10*
G04 #@! TO.C,C13*
G36*
X57744505Y-57086204D02*
X57768773Y-57089804D01*
X57792572Y-57095765D01*
X57815671Y-57104030D01*
X57837850Y-57114520D01*
X57858893Y-57127132D01*
X57878599Y-57141747D01*
X57896777Y-57158223D01*
X57913253Y-57176401D01*
X57927868Y-57196107D01*
X57940480Y-57217150D01*
X57950970Y-57239329D01*
X57959235Y-57262428D01*
X57965196Y-57286227D01*
X57968796Y-57310495D01*
X57970000Y-57334999D01*
X57970000Y-58235001D01*
X57968796Y-58259505D01*
X57965196Y-58283773D01*
X57959235Y-58307572D01*
X57950970Y-58330671D01*
X57940480Y-58352850D01*
X57927868Y-58373893D01*
X57913253Y-58393599D01*
X57896777Y-58411777D01*
X57878599Y-58428253D01*
X57858893Y-58442868D01*
X57837850Y-58455480D01*
X57815671Y-58465970D01*
X57792572Y-58474235D01*
X57768773Y-58480196D01*
X57744505Y-58483796D01*
X57720001Y-58485000D01*
X57069999Y-58485000D01*
X57045495Y-58483796D01*
X57021227Y-58480196D01*
X56997428Y-58474235D01*
X56974329Y-58465970D01*
X56952150Y-58455480D01*
X56931107Y-58442868D01*
X56911401Y-58428253D01*
X56893223Y-58411777D01*
X56876747Y-58393599D01*
X56862132Y-58373893D01*
X56849520Y-58352850D01*
X56839030Y-58330671D01*
X56830765Y-58307572D01*
X56824804Y-58283773D01*
X56821204Y-58259505D01*
X56820000Y-58235001D01*
X56820000Y-57334999D01*
X56821204Y-57310495D01*
X56824804Y-57286227D01*
X56830765Y-57262428D01*
X56839030Y-57239329D01*
X56849520Y-57217150D01*
X56862132Y-57196107D01*
X56876747Y-57176401D01*
X56893223Y-57158223D01*
X56911401Y-57141747D01*
X56931107Y-57127132D01*
X56952150Y-57114520D01*
X56974329Y-57104030D01*
X56997428Y-57095765D01*
X57021227Y-57089804D01*
X57045495Y-57086204D01*
X57069999Y-57085000D01*
X57720001Y-57085000D01*
X57744505Y-57086204D01*
X57744505Y-57086204D01*
G37*
D11*
X57395000Y-57785000D03*
D10*
G36*
X59794505Y-57086204D02*
X59818773Y-57089804D01*
X59842572Y-57095765D01*
X59865671Y-57104030D01*
X59887850Y-57114520D01*
X59908893Y-57127132D01*
X59928599Y-57141747D01*
X59946777Y-57158223D01*
X59963253Y-57176401D01*
X59977868Y-57196107D01*
X59990480Y-57217150D01*
X60000970Y-57239329D01*
X60009235Y-57262428D01*
X60015196Y-57286227D01*
X60018796Y-57310495D01*
X60020000Y-57334999D01*
X60020000Y-58235001D01*
X60018796Y-58259505D01*
X60015196Y-58283773D01*
X60009235Y-58307572D01*
X60000970Y-58330671D01*
X59990480Y-58352850D01*
X59977868Y-58373893D01*
X59963253Y-58393599D01*
X59946777Y-58411777D01*
X59928599Y-58428253D01*
X59908893Y-58442868D01*
X59887850Y-58455480D01*
X59865671Y-58465970D01*
X59842572Y-58474235D01*
X59818773Y-58480196D01*
X59794505Y-58483796D01*
X59770001Y-58485000D01*
X59119999Y-58485000D01*
X59095495Y-58483796D01*
X59071227Y-58480196D01*
X59047428Y-58474235D01*
X59024329Y-58465970D01*
X59002150Y-58455480D01*
X58981107Y-58442868D01*
X58961401Y-58428253D01*
X58943223Y-58411777D01*
X58926747Y-58393599D01*
X58912132Y-58373893D01*
X58899520Y-58352850D01*
X58889030Y-58330671D01*
X58880765Y-58307572D01*
X58874804Y-58283773D01*
X58871204Y-58259505D01*
X58870000Y-58235001D01*
X58870000Y-57334999D01*
X58871204Y-57310495D01*
X58874804Y-57286227D01*
X58880765Y-57262428D01*
X58889030Y-57239329D01*
X58899520Y-57217150D01*
X58912132Y-57196107D01*
X58926747Y-57176401D01*
X58943223Y-57158223D01*
X58961401Y-57141747D01*
X58981107Y-57127132D01*
X59002150Y-57114520D01*
X59024329Y-57104030D01*
X59047428Y-57095765D01*
X59071227Y-57089804D01*
X59095495Y-57086204D01*
X59119999Y-57085000D01*
X59770001Y-57085000D01*
X59794505Y-57086204D01*
X59794505Y-57086204D01*
G37*
D11*
X59445000Y-57785000D03*
G04 #@! TD*
D10*
G04 #@! TO.C,C10*
G36*
X71714505Y-57721204D02*
X71738773Y-57724804D01*
X71762572Y-57730765D01*
X71785671Y-57739030D01*
X71807850Y-57749520D01*
X71828893Y-57762132D01*
X71848599Y-57776747D01*
X71866777Y-57793223D01*
X71883253Y-57811401D01*
X71897868Y-57831107D01*
X71910480Y-57852150D01*
X71920970Y-57874329D01*
X71929235Y-57897428D01*
X71935196Y-57921227D01*
X71938796Y-57945495D01*
X71940000Y-57969999D01*
X71940000Y-58870001D01*
X71938796Y-58894505D01*
X71935196Y-58918773D01*
X71929235Y-58942572D01*
X71920970Y-58965671D01*
X71910480Y-58987850D01*
X71897868Y-59008893D01*
X71883253Y-59028599D01*
X71866777Y-59046777D01*
X71848599Y-59063253D01*
X71828893Y-59077868D01*
X71807850Y-59090480D01*
X71785671Y-59100970D01*
X71762572Y-59109235D01*
X71738773Y-59115196D01*
X71714505Y-59118796D01*
X71690001Y-59120000D01*
X71039999Y-59120000D01*
X71015495Y-59118796D01*
X70991227Y-59115196D01*
X70967428Y-59109235D01*
X70944329Y-59100970D01*
X70922150Y-59090480D01*
X70901107Y-59077868D01*
X70881401Y-59063253D01*
X70863223Y-59046777D01*
X70846747Y-59028599D01*
X70832132Y-59008893D01*
X70819520Y-58987850D01*
X70809030Y-58965671D01*
X70800765Y-58942572D01*
X70794804Y-58918773D01*
X70791204Y-58894505D01*
X70790000Y-58870001D01*
X70790000Y-57969999D01*
X70791204Y-57945495D01*
X70794804Y-57921227D01*
X70800765Y-57897428D01*
X70809030Y-57874329D01*
X70819520Y-57852150D01*
X70832132Y-57831107D01*
X70846747Y-57811401D01*
X70863223Y-57793223D01*
X70881401Y-57776747D01*
X70901107Y-57762132D01*
X70922150Y-57749520D01*
X70944329Y-57739030D01*
X70967428Y-57730765D01*
X70991227Y-57724804D01*
X71015495Y-57721204D01*
X71039999Y-57720000D01*
X71690001Y-57720000D01*
X71714505Y-57721204D01*
X71714505Y-57721204D01*
G37*
D11*
X71365000Y-58420000D03*
D10*
G36*
X73764505Y-57721204D02*
X73788773Y-57724804D01*
X73812572Y-57730765D01*
X73835671Y-57739030D01*
X73857850Y-57749520D01*
X73878893Y-57762132D01*
X73898599Y-57776747D01*
X73916777Y-57793223D01*
X73933253Y-57811401D01*
X73947868Y-57831107D01*
X73960480Y-57852150D01*
X73970970Y-57874329D01*
X73979235Y-57897428D01*
X73985196Y-57921227D01*
X73988796Y-57945495D01*
X73990000Y-57969999D01*
X73990000Y-58870001D01*
X73988796Y-58894505D01*
X73985196Y-58918773D01*
X73979235Y-58942572D01*
X73970970Y-58965671D01*
X73960480Y-58987850D01*
X73947868Y-59008893D01*
X73933253Y-59028599D01*
X73916777Y-59046777D01*
X73898599Y-59063253D01*
X73878893Y-59077868D01*
X73857850Y-59090480D01*
X73835671Y-59100970D01*
X73812572Y-59109235D01*
X73788773Y-59115196D01*
X73764505Y-59118796D01*
X73740001Y-59120000D01*
X73089999Y-59120000D01*
X73065495Y-59118796D01*
X73041227Y-59115196D01*
X73017428Y-59109235D01*
X72994329Y-59100970D01*
X72972150Y-59090480D01*
X72951107Y-59077868D01*
X72931401Y-59063253D01*
X72913223Y-59046777D01*
X72896747Y-59028599D01*
X72882132Y-59008893D01*
X72869520Y-58987850D01*
X72859030Y-58965671D01*
X72850765Y-58942572D01*
X72844804Y-58918773D01*
X72841204Y-58894505D01*
X72840000Y-58870001D01*
X72840000Y-57969999D01*
X72841204Y-57945495D01*
X72844804Y-57921227D01*
X72850765Y-57897428D01*
X72859030Y-57874329D01*
X72869520Y-57852150D01*
X72882132Y-57831107D01*
X72896747Y-57811401D01*
X72913223Y-57793223D01*
X72931401Y-57776747D01*
X72951107Y-57762132D01*
X72972150Y-57749520D01*
X72994329Y-57739030D01*
X73017428Y-57730765D01*
X73041227Y-57724804D01*
X73065495Y-57721204D01*
X73089999Y-57720000D01*
X73740001Y-57720000D01*
X73764505Y-57721204D01*
X73764505Y-57721204D01*
G37*
D11*
X73415000Y-58420000D03*
G04 #@! TD*
D10*
G04 #@! TO.C,C4*
G36*
X72349505Y-42481204D02*
X72373773Y-42484804D01*
X72397572Y-42490765D01*
X72420671Y-42499030D01*
X72442850Y-42509520D01*
X72463893Y-42522132D01*
X72483599Y-42536747D01*
X72501777Y-42553223D01*
X72518253Y-42571401D01*
X72532868Y-42591107D01*
X72545480Y-42612150D01*
X72555970Y-42634329D01*
X72564235Y-42657428D01*
X72570196Y-42681227D01*
X72573796Y-42705495D01*
X72575000Y-42729999D01*
X72575000Y-43630001D01*
X72573796Y-43654505D01*
X72570196Y-43678773D01*
X72564235Y-43702572D01*
X72555970Y-43725671D01*
X72545480Y-43747850D01*
X72532868Y-43768893D01*
X72518253Y-43788599D01*
X72501777Y-43806777D01*
X72483599Y-43823253D01*
X72463893Y-43837868D01*
X72442850Y-43850480D01*
X72420671Y-43860970D01*
X72397572Y-43869235D01*
X72373773Y-43875196D01*
X72349505Y-43878796D01*
X72325001Y-43880000D01*
X71674999Y-43880000D01*
X71650495Y-43878796D01*
X71626227Y-43875196D01*
X71602428Y-43869235D01*
X71579329Y-43860970D01*
X71557150Y-43850480D01*
X71536107Y-43837868D01*
X71516401Y-43823253D01*
X71498223Y-43806777D01*
X71481747Y-43788599D01*
X71467132Y-43768893D01*
X71454520Y-43747850D01*
X71444030Y-43725671D01*
X71435765Y-43702572D01*
X71429804Y-43678773D01*
X71426204Y-43654505D01*
X71425000Y-43630001D01*
X71425000Y-42729999D01*
X71426204Y-42705495D01*
X71429804Y-42681227D01*
X71435765Y-42657428D01*
X71444030Y-42634329D01*
X71454520Y-42612150D01*
X71467132Y-42591107D01*
X71481747Y-42571401D01*
X71498223Y-42553223D01*
X71516401Y-42536747D01*
X71536107Y-42522132D01*
X71557150Y-42509520D01*
X71579329Y-42499030D01*
X71602428Y-42490765D01*
X71626227Y-42484804D01*
X71650495Y-42481204D01*
X71674999Y-42480000D01*
X72325001Y-42480000D01*
X72349505Y-42481204D01*
X72349505Y-42481204D01*
G37*
D11*
X72000000Y-43180000D03*
D10*
G36*
X74399505Y-42481204D02*
X74423773Y-42484804D01*
X74447572Y-42490765D01*
X74470671Y-42499030D01*
X74492850Y-42509520D01*
X74513893Y-42522132D01*
X74533599Y-42536747D01*
X74551777Y-42553223D01*
X74568253Y-42571401D01*
X74582868Y-42591107D01*
X74595480Y-42612150D01*
X74605970Y-42634329D01*
X74614235Y-42657428D01*
X74620196Y-42681227D01*
X74623796Y-42705495D01*
X74625000Y-42729999D01*
X74625000Y-43630001D01*
X74623796Y-43654505D01*
X74620196Y-43678773D01*
X74614235Y-43702572D01*
X74605970Y-43725671D01*
X74595480Y-43747850D01*
X74582868Y-43768893D01*
X74568253Y-43788599D01*
X74551777Y-43806777D01*
X74533599Y-43823253D01*
X74513893Y-43837868D01*
X74492850Y-43850480D01*
X74470671Y-43860970D01*
X74447572Y-43869235D01*
X74423773Y-43875196D01*
X74399505Y-43878796D01*
X74375001Y-43880000D01*
X73724999Y-43880000D01*
X73700495Y-43878796D01*
X73676227Y-43875196D01*
X73652428Y-43869235D01*
X73629329Y-43860970D01*
X73607150Y-43850480D01*
X73586107Y-43837868D01*
X73566401Y-43823253D01*
X73548223Y-43806777D01*
X73531747Y-43788599D01*
X73517132Y-43768893D01*
X73504520Y-43747850D01*
X73494030Y-43725671D01*
X73485765Y-43702572D01*
X73479804Y-43678773D01*
X73476204Y-43654505D01*
X73475000Y-43630001D01*
X73475000Y-42729999D01*
X73476204Y-42705495D01*
X73479804Y-42681227D01*
X73485765Y-42657428D01*
X73494030Y-42634329D01*
X73504520Y-42612150D01*
X73517132Y-42591107D01*
X73531747Y-42571401D01*
X73548223Y-42553223D01*
X73566401Y-42536747D01*
X73586107Y-42522132D01*
X73607150Y-42509520D01*
X73629329Y-42499030D01*
X73652428Y-42490765D01*
X73676227Y-42484804D01*
X73700495Y-42481204D01*
X73724999Y-42480000D01*
X74375001Y-42480000D01*
X74399505Y-42481204D01*
X74399505Y-42481204D01*
G37*
D11*
X74050000Y-43180000D03*
G04 #@! TD*
D10*
G04 #@! TO.C,C7*
G36*
X83024505Y-46661204D02*
X83048773Y-46664804D01*
X83072572Y-46670765D01*
X83095671Y-46679030D01*
X83117850Y-46689520D01*
X83138893Y-46702132D01*
X83158599Y-46716747D01*
X83176777Y-46733223D01*
X83193253Y-46751401D01*
X83207868Y-46771107D01*
X83220480Y-46792150D01*
X83230970Y-46814329D01*
X83239235Y-46837428D01*
X83245196Y-46861227D01*
X83248796Y-46885495D01*
X83250000Y-46909999D01*
X83250000Y-47560001D01*
X83248796Y-47584505D01*
X83245196Y-47608773D01*
X83239235Y-47632572D01*
X83230970Y-47655671D01*
X83220480Y-47677850D01*
X83207868Y-47698893D01*
X83193253Y-47718599D01*
X83176777Y-47736777D01*
X83158599Y-47753253D01*
X83138893Y-47767868D01*
X83117850Y-47780480D01*
X83095671Y-47790970D01*
X83072572Y-47799235D01*
X83048773Y-47805196D01*
X83024505Y-47808796D01*
X83000001Y-47810000D01*
X82099999Y-47810000D01*
X82075495Y-47808796D01*
X82051227Y-47805196D01*
X82027428Y-47799235D01*
X82004329Y-47790970D01*
X81982150Y-47780480D01*
X81961107Y-47767868D01*
X81941401Y-47753253D01*
X81923223Y-47736777D01*
X81906747Y-47718599D01*
X81892132Y-47698893D01*
X81879520Y-47677850D01*
X81869030Y-47655671D01*
X81860765Y-47632572D01*
X81854804Y-47608773D01*
X81851204Y-47584505D01*
X81850000Y-47560001D01*
X81850000Y-46909999D01*
X81851204Y-46885495D01*
X81854804Y-46861227D01*
X81860765Y-46837428D01*
X81869030Y-46814329D01*
X81879520Y-46792150D01*
X81892132Y-46771107D01*
X81906747Y-46751401D01*
X81923223Y-46733223D01*
X81941401Y-46716747D01*
X81961107Y-46702132D01*
X81982150Y-46689520D01*
X82004329Y-46679030D01*
X82027428Y-46670765D01*
X82051227Y-46664804D01*
X82075495Y-46661204D01*
X82099999Y-46660000D01*
X83000001Y-46660000D01*
X83024505Y-46661204D01*
X83024505Y-46661204D01*
G37*
D11*
X82550000Y-47235000D03*
D10*
G36*
X83024505Y-48711204D02*
X83048773Y-48714804D01*
X83072572Y-48720765D01*
X83095671Y-48729030D01*
X83117850Y-48739520D01*
X83138893Y-48752132D01*
X83158599Y-48766747D01*
X83176777Y-48783223D01*
X83193253Y-48801401D01*
X83207868Y-48821107D01*
X83220480Y-48842150D01*
X83230970Y-48864329D01*
X83239235Y-48887428D01*
X83245196Y-48911227D01*
X83248796Y-48935495D01*
X83250000Y-48959999D01*
X83250000Y-49610001D01*
X83248796Y-49634505D01*
X83245196Y-49658773D01*
X83239235Y-49682572D01*
X83230970Y-49705671D01*
X83220480Y-49727850D01*
X83207868Y-49748893D01*
X83193253Y-49768599D01*
X83176777Y-49786777D01*
X83158599Y-49803253D01*
X83138893Y-49817868D01*
X83117850Y-49830480D01*
X83095671Y-49840970D01*
X83072572Y-49849235D01*
X83048773Y-49855196D01*
X83024505Y-49858796D01*
X83000001Y-49860000D01*
X82099999Y-49860000D01*
X82075495Y-49858796D01*
X82051227Y-49855196D01*
X82027428Y-49849235D01*
X82004329Y-49840970D01*
X81982150Y-49830480D01*
X81961107Y-49817868D01*
X81941401Y-49803253D01*
X81923223Y-49786777D01*
X81906747Y-49768599D01*
X81892132Y-49748893D01*
X81879520Y-49727850D01*
X81869030Y-49705671D01*
X81860765Y-49682572D01*
X81854804Y-49658773D01*
X81851204Y-49634505D01*
X81850000Y-49610001D01*
X81850000Y-48959999D01*
X81851204Y-48935495D01*
X81854804Y-48911227D01*
X81860765Y-48887428D01*
X81869030Y-48864329D01*
X81879520Y-48842150D01*
X81892132Y-48821107D01*
X81906747Y-48801401D01*
X81923223Y-48783223D01*
X81941401Y-48766747D01*
X81961107Y-48752132D01*
X81982150Y-48739520D01*
X82004329Y-48729030D01*
X82027428Y-48720765D01*
X82051227Y-48714804D01*
X82075495Y-48711204D01*
X82099999Y-48710000D01*
X83000001Y-48710000D01*
X83024505Y-48711204D01*
X83024505Y-48711204D01*
G37*
D11*
X82550000Y-49285000D03*
G04 #@! TD*
D10*
G04 #@! TO.C,C8*
G36*
X79214505Y-51886204D02*
X79238773Y-51889804D01*
X79262572Y-51895765D01*
X79285671Y-51904030D01*
X79307850Y-51914520D01*
X79328893Y-51927132D01*
X79348599Y-51941747D01*
X79366777Y-51958223D01*
X79383253Y-51976401D01*
X79397868Y-51996107D01*
X79410480Y-52017150D01*
X79420970Y-52039329D01*
X79429235Y-52062428D01*
X79435196Y-52086227D01*
X79438796Y-52110495D01*
X79440000Y-52134999D01*
X79440000Y-52785001D01*
X79438796Y-52809505D01*
X79435196Y-52833773D01*
X79429235Y-52857572D01*
X79420970Y-52880671D01*
X79410480Y-52902850D01*
X79397868Y-52923893D01*
X79383253Y-52943599D01*
X79366777Y-52961777D01*
X79348599Y-52978253D01*
X79328893Y-52992868D01*
X79307850Y-53005480D01*
X79285671Y-53015970D01*
X79262572Y-53024235D01*
X79238773Y-53030196D01*
X79214505Y-53033796D01*
X79190001Y-53035000D01*
X78289999Y-53035000D01*
X78265495Y-53033796D01*
X78241227Y-53030196D01*
X78217428Y-53024235D01*
X78194329Y-53015970D01*
X78172150Y-53005480D01*
X78151107Y-52992868D01*
X78131401Y-52978253D01*
X78113223Y-52961777D01*
X78096747Y-52943599D01*
X78082132Y-52923893D01*
X78069520Y-52902850D01*
X78059030Y-52880671D01*
X78050765Y-52857572D01*
X78044804Y-52833773D01*
X78041204Y-52809505D01*
X78040000Y-52785001D01*
X78040000Y-52134999D01*
X78041204Y-52110495D01*
X78044804Y-52086227D01*
X78050765Y-52062428D01*
X78059030Y-52039329D01*
X78069520Y-52017150D01*
X78082132Y-51996107D01*
X78096747Y-51976401D01*
X78113223Y-51958223D01*
X78131401Y-51941747D01*
X78151107Y-51927132D01*
X78172150Y-51914520D01*
X78194329Y-51904030D01*
X78217428Y-51895765D01*
X78241227Y-51889804D01*
X78265495Y-51886204D01*
X78289999Y-51885000D01*
X79190001Y-51885000D01*
X79214505Y-51886204D01*
X79214505Y-51886204D01*
G37*
D11*
X78740000Y-52460000D03*
D10*
G36*
X79214505Y-49836204D02*
X79238773Y-49839804D01*
X79262572Y-49845765D01*
X79285671Y-49854030D01*
X79307850Y-49864520D01*
X79328893Y-49877132D01*
X79348599Y-49891747D01*
X79366777Y-49908223D01*
X79383253Y-49926401D01*
X79397868Y-49946107D01*
X79410480Y-49967150D01*
X79420970Y-49989329D01*
X79429235Y-50012428D01*
X79435196Y-50036227D01*
X79438796Y-50060495D01*
X79440000Y-50084999D01*
X79440000Y-50735001D01*
X79438796Y-50759505D01*
X79435196Y-50783773D01*
X79429235Y-50807572D01*
X79420970Y-50830671D01*
X79410480Y-50852850D01*
X79397868Y-50873893D01*
X79383253Y-50893599D01*
X79366777Y-50911777D01*
X79348599Y-50928253D01*
X79328893Y-50942868D01*
X79307850Y-50955480D01*
X79285671Y-50965970D01*
X79262572Y-50974235D01*
X79238773Y-50980196D01*
X79214505Y-50983796D01*
X79190001Y-50985000D01*
X78289999Y-50985000D01*
X78265495Y-50983796D01*
X78241227Y-50980196D01*
X78217428Y-50974235D01*
X78194329Y-50965970D01*
X78172150Y-50955480D01*
X78151107Y-50942868D01*
X78131401Y-50928253D01*
X78113223Y-50911777D01*
X78096747Y-50893599D01*
X78082132Y-50873893D01*
X78069520Y-50852850D01*
X78059030Y-50830671D01*
X78050765Y-50807572D01*
X78044804Y-50783773D01*
X78041204Y-50759505D01*
X78040000Y-50735001D01*
X78040000Y-50084999D01*
X78041204Y-50060495D01*
X78044804Y-50036227D01*
X78050765Y-50012428D01*
X78059030Y-49989329D01*
X78069520Y-49967150D01*
X78082132Y-49946107D01*
X78096747Y-49926401D01*
X78113223Y-49908223D01*
X78131401Y-49891747D01*
X78151107Y-49877132D01*
X78172150Y-49864520D01*
X78194329Y-49854030D01*
X78217428Y-49845765D01*
X78241227Y-49839804D01*
X78265495Y-49836204D01*
X78289999Y-49835000D01*
X79190001Y-49835000D01*
X79214505Y-49836204D01*
X79214505Y-49836204D01*
G37*
D11*
X78740000Y-50410000D03*
G04 #@! TD*
D10*
G04 #@! TO.C,C16*
G36*
X17957005Y-68960704D02*
X17981273Y-68964304D01*
X18005072Y-68970265D01*
X18028171Y-68978530D01*
X18050350Y-68989020D01*
X18071393Y-69001632D01*
X18091099Y-69016247D01*
X18109277Y-69032723D01*
X18125753Y-69050901D01*
X18140368Y-69070607D01*
X18152980Y-69091650D01*
X18163470Y-69113829D01*
X18171735Y-69136928D01*
X18177696Y-69160727D01*
X18181296Y-69184995D01*
X18182500Y-69209499D01*
X18182500Y-70109501D01*
X18181296Y-70134005D01*
X18177696Y-70158273D01*
X18171735Y-70182072D01*
X18163470Y-70205171D01*
X18152980Y-70227350D01*
X18140368Y-70248393D01*
X18125753Y-70268099D01*
X18109277Y-70286277D01*
X18091099Y-70302753D01*
X18071393Y-70317368D01*
X18050350Y-70329980D01*
X18028171Y-70340470D01*
X18005072Y-70348735D01*
X17981273Y-70354696D01*
X17957005Y-70358296D01*
X17932501Y-70359500D01*
X17282499Y-70359500D01*
X17257995Y-70358296D01*
X17233727Y-70354696D01*
X17209928Y-70348735D01*
X17186829Y-70340470D01*
X17164650Y-70329980D01*
X17143607Y-70317368D01*
X17123901Y-70302753D01*
X17105723Y-70286277D01*
X17089247Y-70268099D01*
X17074632Y-70248393D01*
X17062020Y-70227350D01*
X17051530Y-70205171D01*
X17043265Y-70182072D01*
X17037304Y-70158273D01*
X17033704Y-70134005D01*
X17032500Y-70109501D01*
X17032500Y-69209499D01*
X17033704Y-69184995D01*
X17037304Y-69160727D01*
X17043265Y-69136928D01*
X17051530Y-69113829D01*
X17062020Y-69091650D01*
X17074632Y-69070607D01*
X17089247Y-69050901D01*
X17105723Y-69032723D01*
X17123901Y-69016247D01*
X17143607Y-69001632D01*
X17164650Y-68989020D01*
X17186829Y-68978530D01*
X17209928Y-68970265D01*
X17233727Y-68964304D01*
X17257995Y-68960704D01*
X17282499Y-68959500D01*
X17932501Y-68959500D01*
X17957005Y-68960704D01*
X17957005Y-68960704D01*
G37*
D11*
X17607500Y-69659500D03*
D10*
G36*
X15907005Y-68960704D02*
X15931273Y-68964304D01*
X15955072Y-68970265D01*
X15978171Y-68978530D01*
X16000350Y-68989020D01*
X16021393Y-69001632D01*
X16041099Y-69016247D01*
X16059277Y-69032723D01*
X16075753Y-69050901D01*
X16090368Y-69070607D01*
X16102980Y-69091650D01*
X16113470Y-69113829D01*
X16121735Y-69136928D01*
X16127696Y-69160727D01*
X16131296Y-69184995D01*
X16132500Y-69209499D01*
X16132500Y-70109501D01*
X16131296Y-70134005D01*
X16127696Y-70158273D01*
X16121735Y-70182072D01*
X16113470Y-70205171D01*
X16102980Y-70227350D01*
X16090368Y-70248393D01*
X16075753Y-70268099D01*
X16059277Y-70286277D01*
X16041099Y-70302753D01*
X16021393Y-70317368D01*
X16000350Y-70329980D01*
X15978171Y-70340470D01*
X15955072Y-70348735D01*
X15931273Y-70354696D01*
X15907005Y-70358296D01*
X15882501Y-70359500D01*
X15232499Y-70359500D01*
X15207995Y-70358296D01*
X15183727Y-70354696D01*
X15159928Y-70348735D01*
X15136829Y-70340470D01*
X15114650Y-70329980D01*
X15093607Y-70317368D01*
X15073901Y-70302753D01*
X15055723Y-70286277D01*
X15039247Y-70268099D01*
X15024632Y-70248393D01*
X15012020Y-70227350D01*
X15001530Y-70205171D01*
X14993265Y-70182072D01*
X14987304Y-70158273D01*
X14983704Y-70134005D01*
X14982500Y-70109501D01*
X14982500Y-69209499D01*
X14983704Y-69184995D01*
X14987304Y-69160727D01*
X14993265Y-69136928D01*
X15001530Y-69113829D01*
X15012020Y-69091650D01*
X15024632Y-69070607D01*
X15039247Y-69050901D01*
X15055723Y-69032723D01*
X15073901Y-69016247D01*
X15093607Y-69001632D01*
X15114650Y-68989020D01*
X15136829Y-68978530D01*
X15159928Y-68970265D01*
X15183727Y-68964304D01*
X15207995Y-68960704D01*
X15232499Y-68959500D01*
X15882501Y-68959500D01*
X15907005Y-68960704D01*
X15907005Y-68960704D01*
G37*
D11*
X15557500Y-69659500D03*
G04 #@! TD*
D10*
G04 #@! TO.C,C12*
G36*
X64094505Y-57721204D02*
X64118773Y-57724804D01*
X64142572Y-57730765D01*
X64165671Y-57739030D01*
X64187850Y-57749520D01*
X64208893Y-57762132D01*
X64228599Y-57776747D01*
X64246777Y-57793223D01*
X64263253Y-57811401D01*
X64277868Y-57831107D01*
X64290480Y-57852150D01*
X64300970Y-57874329D01*
X64309235Y-57897428D01*
X64315196Y-57921227D01*
X64318796Y-57945495D01*
X64320000Y-57969999D01*
X64320000Y-58870001D01*
X64318796Y-58894505D01*
X64315196Y-58918773D01*
X64309235Y-58942572D01*
X64300970Y-58965671D01*
X64290480Y-58987850D01*
X64277868Y-59008893D01*
X64263253Y-59028599D01*
X64246777Y-59046777D01*
X64228599Y-59063253D01*
X64208893Y-59077868D01*
X64187850Y-59090480D01*
X64165671Y-59100970D01*
X64142572Y-59109235D01*
X64118773Y-59115196D01*
X64094505Y-59118796D01*
X64070001Y-59120000D01*
X63419999Y-59120000D01*
X63395495Y-59118796D01*
X63371227Y-59115196D01*
X63347428Y-59109235D01*
X63324329Y-59100970D01*
X63302150Y-59090480D01*
X63281107Y-59077868D01*
X63261401Y-59063253D01*
X63243223Y-59046777D01*
X63226747Y-59028599D01*
X63212132Y-59008893D01*
X63199520Y-58987850D01*
X63189030Y-58965671D01*
X63180765Y-58942572D01*
X63174804Y-58918773D01*
X63171204Y-58894505D01*
X63170000Y-58870001D01*
X63170000Y-57969999D01*
X63171204Y-57945495D01*
X63174804Y-57921227D01*
X63180765Y-57897428D01*
X63189030Y-57874329D01*
X63199520Y-57852150D01*
X63212132Y-57831107D01*
X63226747Y-57811401D01*
X63243223Y-57793223D01*
X63261401Y-57776747D01*
X63281107Y-57762132D01*
X63302150Y-57749520D01*
X63324329Y-57739030D01*
X63347428Y-57730765D01*
X63371227Y-57724804D01*
X63395495Y-57721204D01*
X63419999Y-57720000D01*
X64070001Y-57720000D01*
X64094505Y-57721204D01*
X64094505Y-57721204D01*
G37*
D11*
X63745000Y-58420000D03*
D10*
G36*
X66144505Y-57721204D02*
X66168773Y-57724804D01*
X66192572Y-57730765D01*
X66215671Y-57739030D01*
X66237850Y-57749520D01*
X66258893Y-57762132D01*
X66278599Y-57776747D01*
X66296777Y-57793223D01*
X66313253Y-57811401D01*
X66327868Y-57831107D01*
X66340480Y-57852150D01*
X66350970Y-57874329D01*
X66359235Y-57897428D01*
X66365196Y-57921227D01*
X66368796Y-57945495D01*
X66370000Y-57969999D01*
X66370000Y-58870001D01*
X66368796Y-58894505D01*
X66365196Y-58918773D01*
X66359235Y-58942572D01*
X66350970Y-58965671D01*
X66340480Y-58987850D01*
X66327868Y-59008893D01*
X66313253Y-59028599D01*
X66296777Y-59046777D01*
X66278599Y-59063253D01*
X66258893Y-59077868D01*
X66237850Y-59090480D01*
X66215671Y-59100970D01*
X66192572Y-59109235D01*
X66168773Y-59115196D01*
X66144505Y-59118796D01*
X66120001Y-59120000D01*
X65469999Y-59120000D01*
X65445495Y-59118796D01*
X65421227Y-59115196D01*
X65397428Y-59109235D01*
X65374329Y-59100970D01*
X65352150Y-59090480D01*
X65331107Y-59077868D01*
X65311401Y-59063253D01*
X65293223Y-59046777D01*
X65276747Y-59028599D01*
X65262132Y-59008893D01*
X65249520Y-58987850D01*
X65239030Y-58965671D01*
X65230765Y-58942572D01*
X65224804Y-58918773D01*
X65221204Y-58894505D01*
X65220000Y-58870001D01*
X65220000Y-57969999D01*
X65221204Y-57945495D01*
X65224804Y-57921227D01*
X65230765Y-57897428D01*
X65239030Y-57874329D01*
X65249520Y-57852150D01*
X65262132Y-57831107D01*
X65276747Y-57811401D01*
X65293223Y-57793223D01*
X65311401Y-57776747D01*
X65331107Y-57762132D01*
X65352150Y-57749520D01*
X65374329Y-57739030D01*
X65397428Y-57730765D01*
X65421227Y-57724804D01*
X65445495Y-57721204D01*
X65469999Y-57720000D01*
X66120001Y-57720000D01*
X66144505Y-57721204D01*
X66144505Y-57721204D01*
G37*
D11*
X65795000Y-58420000D03*
G04 #@! TD*
D10*
G04 #@! TO.C,C15*
G36*
X14709505Y-46926204D02*
X14733773Y-46929804D01*
X14757572Y-46935765D01*
X14780671Y-46944030D01*
X14802850Y-46954520D01*
X14823893Y-46967132D01*
X14843599Y-46981747D01*
X14861777Y-46998223D01*
X14878253Y-47016401D01*
X14892868Y-47036107D01*
X14905480Y-47057150D01*
X14915970Y-47079329D01*
X14924235Y-47102428D01*
X14930196Y-47126227D01*
X14933796Y-47150495D01*
X14935000Y-47174999D01*
X14935000Y-48075001D01*
X14933796Y-48099505D01*
X14930196Y-48123773D01*
X14924235Y-48147572D01*
X14915970Y-48170671D01*
X14905480Y-48192850D01*
X14892868Y-48213893D01*
X14878253Y-48233599D01*
X14861777Y-48251777D01*
X14843599Y-48268253D01*
X14823893Y-48282868D01*
X14802850Y-48295480D01*
X14780671Y-48305970D01*
X14757572Y-48314235D01*
X14733773Y-48320196D01*
X14709505Y-48323796D01*
X14685001Y-48325000D01*
X14034999Y-48325000D01*
X14010495Y-48323796D01*
X13986227Y-48320196D01*
X13962428Y-48314235D01*
X13939329Y-48305970D01*
X13917150Y-48295480D01*
X13896107Y-48282868D01*
X13876401Y-48268253D01*
X13858223Y-48251777D01*
X13841747Y-48233599D01*
X13827132Y-48213893D01*
X13814520Y-48192850D01*
X13804030Y-48170671D01*
X13795765Y-48147572D01*
X13789804Y-48123773D01*
X13786204Y-48099505D01*
X13785000Y-48075001D01*
X13785000Y-47174999D01*
X13786204Y-47150495D01*
X13789804Y-47126227D01*
X13795765Y-47102428D01*
X13804030Y-47079329D01*
X13814520Y-47057150D01*
X13827132Y-47036107D01*
X13841747Y-47016401D01*
X13858223Y-46998223D01*
X13876401Y-46981747D01*
X13896107Y-46967132D01*
X13917150Y-46954520D01*
X13939329Y-46944030D01*
X13962428Y-46935765D01*
X13986227Y-46929804D01*
X14010495Y-46926204D01*
X14034999Y-46925000D01*
X14685001Y-46925000D01*
X14709505Y-46926204D01*
X14709505Y-46926204D01*
G37*
D11*
X14360000Y-47625000D03*
D10*
G36*
X12659505Y-46926204D02*
X12683773Y-46929804D01*
X12707572Y-46935765D01*
X12730671Y-46944030D01*
X12752850Y-46954520D01*
X12773893Y-46967132D01*
X12793599Y-46981747D01*
X12811777Y-46998223D01*
X12828253Y-47016401D01*
X12842868Y-47036107D01*
X12855480Y-47057150D01*
X12865970Y-47079329D01*
X12874235Y-47102428D01*
X12880196Y-47126227D01*
X12883796Y-47150495D01*
X12885000Y-47174999D01*
X12885000Y-48075001D01*
X12883796Y-48099505D01*
X12880196Y-48123773D01*
X12874235Y-48147572D01*
X12865970Y-48170671D01*
X12855480Y-48192850D01*
X12842868Y-48213893D01*
X12828253Y-48233599D01*
X12811777Y-48251777D01*
X12793599Y-48268253D01*
X12773893Y-48282868D01*
X12752850Y-48295480D01*
X12730671Y-48305970D01*
X12707572Y-48314235D01*
X12683773Y-48320196D01*
X12659505Y-48323796D01*
X12635001Y-48325000D01*
X11984999Y-48325000D01*
X11960495Y-48323796D01*
X11936227Y-48320196D01*
X11912428Y-48314235D01*
X11889329Y-48305970D01*
X11867150Y-48295480D01*
X11846107Y-48282868D01*
X11826401Y-48268253D01*
X11808223Y-48251777D01*
X11791747Y-48233599D01*
X11777132Y-48213893D01*
X11764520Y-48192850D01*
X11754030Y-48170671D01*
X11745765Y-48147572D01*
X11739804Y-48123773D01*
X11736204Y-48099505D01*
X11735000Y-48075001D01*
X11735000Y-47174999D01*
X11736204Y-47150495D01*
X11739804Y-47126227D01*
X11745765Y-47102428D01*
X11754030Y-47079329D01*
X11764520Y-47057150D01*
X11777132Y-47036107D01*
X11791747Y-47016401D01*
X11808223Y-46998223D01*
X11826401Y-46981747D01*
X11846107Y-46967132D01*
X11867150Y-46954520D01*
X11889329Y-46944030D01*
X11912428Y-46935765D01*
X11936227Y-46929804D01*
X11960495Y-46926204D01*
X11984999Y-46925000D01*
X12635001Y-46925000D01*
X12659505Y-46926204D01*
X12659505Y-46926204D01*
G37*
D11*
X12310000Y-47625000D03*
G04 #@! TD*
D10*
G04 #@! TO.C,C14*
G36*
X78699505Y-65976204D02*
X78723773Y-65979804D01*
X78747572Y-65985765D01*
X78770671Y-65994030D01*
X78792850Y-66004520D01*
X78813893Y-66017132D01*
X78833599Y-66031747D01*
X78851777Y-66048223D01*
X78868253Y-66066401D01*
X78882868Y-66086107D01*
X78895480Y-66107150D01*
X78905970Y-66129329D01*
X78914235Y-66152428D01*
X78920196Y-66176227D01*
X78923796Y-66200495D01*
X78925000Y-66224999D01*
X78925000Y-67125001D01*
X78923796Y-67149505D01*
X78920196Y-67173773D01*
X78914235Y-67197572D01*
X78905970Y-67220671D01*
X78895480Y-67242850D01*
X78882868Y-67263893D01*
X78868253Y-67283599D01*
X78851777Y-67301777D01*
X78833599Y-67318253D01*
X78813893Y-67332868D01*
X78792850Y-67345480D01*
X78770671Y-67355970D01*
X78747572Y-67364235D01*
X78723773Y-67370196D01*
X78699505Y-67373796D01*
X78675001Y-67375000D01*
X78024999Y-67375000D01*
X78000495Y-67373796D01*
X77976227Y-67370196D01*
X77952428Y-67364235D01*
X77929329Y-67355970D01*
X77907150Y-67345480D01*
X77886107Y-67332868D01*
X77866401Y-67318253D01*
X77848223Y-67301777D01*
X77831747Y-67283599D01*
X77817132Y-67263893D01*
X77804520Y-67242850D01*
X77794030Y-67220671D01*
X77785765Y-67197572D01*
X77779804Y-67173773D01*
X77776204Y-67149505D01*
X77775000Y-67125001D01*
X77775000Y-66224999D01*
X77776204Y-66200495D01*
X77779804Y-66176227D01*
X77785765Y-66152428D01*
X77794030Y-66129329D01*
X77804520Y-66107150D01*
X77817132Y-66086107D01*
X77831747Y-66066401D01*
X77848223Y-66048223D01*
X77866401Y-66031747D01*
X77886107Y-66017132D01*
X77907150Y-66004520D01*
X77929329Y-65994030D01*
X77952428Y-65985765D01*
X77976227Y-65979804D01*
X78000495Y-65976204D01*
X78024999Y-65975000D01*
X78675001Y-65975000D01*
X78699505Y-65976204D01*
X78699505Y-65976204D01*
G37*
D11*
X78350000Y-66675000D03*
D10*
G36*
X80749505Y-65976204D02*
X80773773Y-65979804D01*
X80797572Y-65985765D01*
X80820671Y-65994030D01*
X80842850Y-66004520D01*
X80863893Y-66017132D01*
X80883599Y-66031747D01*
X80901777Y-66048223D01*
X80918253Y-66066401D01*
X80932868Y-66086107D01*
X80945480Y-66107150D01*
X80955970Y-66129329D01*
X80964235Y-66152428D01*
X80970196Y-66176227D01*
X80973796Y-66200495D01*
X80975000Y-66224999D01*
X80975000Y-67125001D01*
X80973796Y-67149505D01*
X80970196Y-67173773D01*
X80964235Y-67197572D01*
X80955970Y-67220671D01*
X80945480Y-67242850D01*
X80932868Y-67263893D01*
X80918253Y-67283599D01*
X80901777Y-67301777D01*
X80883599Y-67318253D01*
X80863893Y-67332868D01*
X80842850Y-67345480D01*
X80820671Y-67355970D01*
X80797572Y-67364235D01*
X80773773Y-67370196D01*
X80749505Y-67373796D01*
X80725001Y-67375000D01*
X80074999Y-67375000D01*
X80050495Y-67373796D01*
X80026227Y-67370196D01*
X80002428Y-67364235D01*
X79979329Y-67355970D01*
X79957150Y-67345480D01*
X79936107Y-67332868D01*
X79916401Y-67318253D01*
X79898223Y-67301777D01*
X79881747Y-67283599D01*
X79867132Y-67263893D01*
X79854520Y-67242850D01*
X79844030Y-67220671D01*
X79835765Y-67197572D01*
X79829804Y-67173773D01*
X79826204Y-67149505D01*
X79825000Y-67125001D01*
X79825000Y-66224999D01*
X79826204Y-66200495D01*
X79829804Y-66176227D01*
X79835765Y-66152428D01*
X79844030Y-66129329D01*
X79854520Y-66107150D01*
X79867132Y-66086107D01*
X79881747Y-66066401D01*
X79898223Y-66048223D01*
X79916401Y-66031747D01*
X79936107Y-66017132D01*
X79957150Y-66004520D01*
X79979329Y-65994030D01*
X80002428Y-65985765D01*
X80026227Y-65979804D01*
X80050495Y-65976204D01*
X80074999Y-65975000D01*
X80725001Y-65975000D01*
X80749505Y-65976204D01*
X80749505Y-65976204D01*
G37*
D11*
X80400000Y-66675000D03*
G04 #@! TD*
D10*
G04 #@! TO.C,C6*
G36*
X66779505Y-42481204D02*
X66803773Y-42484804D01*
X66827572Y-42490765D01*
X66850671Y-42499030D01*
X66872850Y-42509520D01*
X66893893Y-42522132D01*
X66913599Y-42536747D01*
X66931777Y-42553223D01*
X66948253Y-42571401D01*
X66962868Y-42591107D01*
X66975480Y-42612150D01*
X66985970Y-42634329D01*
X66994235Y-42657428D01*
X67000196Y-42681227D01*
X67003796Y-42705495D01*
X67005000Y-42729999D01*
X67005000Y-43630001D01*
X67003796Y-43654505D01*
X67000196Y-43678773D01*
X66994235Y-43702572D01*
X66985970Y-43725671D01*
X66975480Y-43747850D01*
X66962868Y-43768893D01*
X66948253Y-43788599D01*
X66931777Y-43806777D01*
X66913599Y-43823253D01*
X66893893Y-43837868D01*
X66872850Y-43850480D01*
X66850671Y-43860970D01*
X66827572Y-43869235D01*
X66803773Y-43875196D01*
X66779505Y-43878796D01*
X66755001Y-43880000D01*
X66104999Y-43880000D01*
X66080495Y-43878796D01*
X66056227Y-43875196D01*
X66032428Y-43869235D01*
X66009329Y-43860970D01*
X65987150Y-43850480D01*
X65966107Y-43837868D01*
X65946401Y-43823253D01*
X65928223Y-43806777D01*
X65911747Y-43788599D01*
X65897132Y-43768893D01*
X65884520Y-43747850D01*
X65874030Y-43725671D01*
X65865765Y-43702572D01*
X65859804Y-43678773D01*
X65856204Y-43654505D01*
X65855000Y-43630001D01*
X65855000Y-42729999D01*
X65856204Y-42705495D01*
X65859804Y-42681227D01*
X65865765Y-42657428D01*
X65874030Y-42634329D01*
X65884520Y-42612150D01*
X65897132Y-42591107D01*
X65911747Y-42571401D01*
X65928223Y-42553223D01*
X65946401Y-42536747D01*
X65966107Y-42522132D01*
X65987150Y-42509520D01*
X66009329Y-42499030D01*
X66032428Y-42490765D01*
X66056227Y-42484804D01*
X66080495Y-42481204D01*
X66104999Y-42480000D01*
X66755001Y-42480000D01*
X66779505Y-42481204D01*
X66779505Y-42481204D01*
G37*
D11*
X66430000Y-43180000D03*
D10*
G36*
X64729505Y-42481204D02*
X64753773Y-42484804D01*
X64777572Y-42490765D01*
X64800671Y-42499030D01*
X64822850Y-42509520D01*
X64843893Y-42522132D01*
X64863599Y-42536747D01*
X64881777Y-42553223D01*
X64898253Y-42571401D01*
X64912868Y-42591107D01*
X64925480Y-42612150D01*
X64935970Y-42634329D01*
X64944235Y-42657428D01*
X64950196Y-42681227D01*
X64953796Y-42705495D01*
X64955000Y-42729999D01*
X64955000Y-43630001D01*
X64953796Y-43654505D01*
X64950196Y-43678773D01*
X64944235Y-43702572D01*
X64935970Y-43725671D01*
X64925480Y-43747850D01*
X64912868Y-43768893D01*
X64898253Y-43788599D01*
X64881777Y-43806777D01*
X64863599Y-43823253D01*
X64843893Y-43837868D01*
X64822850Y-43850480D01*
X64800671Y-43860970D01*
X64777572Y-43869235D01*
X64753773Y-43875196D01*
X64729505Y-43878796D01*
X64705001Y-43880000D01*
X64054999Y-43880000D01*
X64030495Y-43878796D01*
X64006227Y-43875196D01*
X63982428Y-43869235D01*
X63959329Y-43860970D01*
X63937150Y-43850480D01*
X63916107Y-43837868D01*
X63896401Y-43823253D01*
X63878223Y-43806777D01*
X63861747Y-43788599D01*
X63847132Y-43768893D01*
X63834520Y-43747850D01*
X63824030Y-43725671D01*
X63815765Y-43702572D01*
X63809804Y-43678773D01*
X63806204Y-43654505D01*
X63805000Y-43630001D01*
X63805000Y-42729999D01*
X63806204Y-42705495D01*
X63809804Y-42681227D01*
X63815765Y-42657428D01*
X63824030Y-42634329D01*
X63834520Y-42612150D01*
X63847132Y-42591107D01*
X63861747Y-42571401D01*
X63878223Y-42553223D01*
X63896401Y-42536747D01*
X63916107Y-42522132D01*
X63937150Y-42509520D01*
X63959329Y-42499030D01*
X63982428Y-42490765D01*
X64006227Y-42484804D01*
X64030495Y-42481204D01*
X64054999Y-42480000D01*
X64705001Y-42480000D01*
X64729505Y-42481204D01*
X64729505Y-42481204D01*
G37*
D11*
X64380000Y-43180000D03*
G04 #@! TD*
D10*
G04 #@! TO.C,C2*
G36*
X43919505Y-18986204D02*
X43943773Y-18989804D01*
X43967572Y-18995765D01*
X43990671Y-19004030D01*
X44012850Y-19014520D01*
X44033893Y-19027132D01*
X44053599Y-19041747D01*
X44071777Y-19058223D01*
X44088253Y-19076401D01*
X44102868Y-19096107D01*
X44115480Y-19117150D01*
X44125970Y-19139329D01*
X44134235Y-19162428D01*
X44140196Y-19186227D01*
X44143796Y-19210495D01*
X44145000Y-19234999D01*
X44145000Y-20135001D01*
X44143796Y-20159505D01*
X44140196Y-20183773D01*
X44134235Y-20207572D01*
X44125970Y-20230671D01*
X44115480Y-20252850D01*
X44102868Y-20273893D01*
X44088253Y-20293599D01*
X44071777Y-20311777D01*
X44053599Y-20328253D01*
X44033893Y-20342868D01*
X44012850Y-20355480D01*
X43990671Y-20365970D01*
X43967572Y-20374235D01*
X43943773Y-20380196D01*
X43919505Y-20383796D01*
X43895001Y-20385000D01*
X43244999Y-20385000D01*
X43220495Y-20383796D01*
X43196227Y-20380196D01*
X43172428Y-20374235D01*
X43149329Y-20365970D01*
X43127150Y-20355480D01*
X43106107Y-20342868D01*
X43086401Y-20328253D01*
X43068223Y-20311777D01*
X43051747Y-20293599D01*
X43037132Y-20273893D01*
X43024520Y-20252850D01*
X43014030Y-20230671D01*
X43005765Y-20207572D01*
X42999804Y-20183773D01*
X42996204Y-20159505D01*
X42995000Y-20135001D01*
X42995000Y-19234999D01*
X42996204Y-19210495D01*
X42999804Y-19186227D01*
X43005765Y-19162428D01*
X43014030Y-19139329D01*
X43024520Y-19117150D01*
X43037132Y-19096107D01*
X43051747Y-19076401D01*
X43068223Y-19058223D01*
X43086401Y-19041747D01*
X43106107Y-19027132D01*
X43127150Y-19014520D01*
X43149329Y-19004030D01*
X43172428Y-18995765D01*
X43196227Y-18989804D01*
X43220495Y-18986204D01*
X43244999Y-18985000D01*
X43895001Y-18985000D01*
X43919505Y-18986204D01*
X43919505Y-18986204D01*
G37*
D11*
X43570000Y-19685000D03*
D10*
G36*
X41869505Y-18986204D02*
X41893773Y-18989804D01*
X41917572Y-18995765D01*
X41940671Y-19004030D01*
X41962850Y-19014520D01*
X41983893Y-19027132D01*
X42003599Y-19041747D01*
X42021777Y-19058223D01*
X42038253Y-19076401D01*
X42052868Y-19096107D01*
X42065480Y-19117150D01*
X42075970Y-19139329D01*
X42084235Y-19162428D01*
X42090196Y-19186227D01*
X42093796Y-19210495D01*
X42095000Y-19234999D01*
X42095000Y-20135001D01*
X42093796Y-20159505D01*
X42090196Y-20183773D01*
X42084235Y-20207572D01*
X42075970Y-20230671D01*
X42065480Y-20252850D01*
X42052868Y-20273893D01*
X42038253Y-20293599D01*
X42021777Y-20311777D01*
X42003599Y-20328253D01*
X41983893Y-20342868D01*
X41962850Y-20355480D01*
X41940671Y-20365970D01*
X41917572Y-20374235D01*
X41893773Y-20380196D01*
X41869505Y-20383796D01*
X41845001Y-20385000D01*
X41194999Y-20385000D01*
X41170495Y-20383796D01*
X41146227Y-20380196D01*
X41122428Y-20374235D01*
X41099329Y-20365970D01*
X41077150Y-20355480D01*
X41056107Y-20342868D01*
X41036401Y-20328253D01*
X41018223Y-20311777D01*
X41001747Y-20293599D01*
X40987132Y-20273893D01*
X40974520Y-20252850D01*
X40964030Y-20230671D01*
X40955765Y-20207572D01*
X40949804Y-20183773D01*
X40946204Y-20159505D01*
X40945000Y-20135001D01*
X40945000Y-19234999D01*
X40946204Y-19210495D01*
X40949804Y-19186227D01*
X40955765Y-19162428D01*
X40964030Y-19139329D01*
X40974520Y-19117150D01*
X40987132Y-19096107D01*
X41001747Y-19076401D01*
X41018223Y-19058223D01*
X41036401Y-19041747D01*
X41056107Y-19027132D01*
X41077150Y-19014520D01*
X41099329Y-19004030D01*
X41122428Y-18995765D01*
X41146227Y-18989804D01*
X41170495Y-18986204D01*
X41194999Y-18985000D01*
X41845001Y-18985000D01*
X41869505Y-18986204D01*
X41869505Y-18986204D01*
G37*
D11*
X41520000Y-19685000D03*
G04 #@! TD*
D10*
G04 #@! TO.C,C3*
G36*
X83659505Y-30151204D02*
X83683773Y-30154804D01*
X83707572Y-30160765D01*
X83730671Y-30169030D01*
X83752850Y-30179520D01*
X83773893Y-30192132D01*
X83793599Y-30206747D01*
X83811777Y-30223223D01*
X83828253Y-30241401D01*
X83842868Y-30261107D01*
X83855480Y-30282150D01*
X83865970Y-30304329D01*
X83874235Y-30327428D01*
X83880196Y-30351227D01*
X83883796Y-30375495D01*
X83885000Y-30399999D01*
X83885000Y-31050001D01*
X83883796Y-31074505D01*
X83880196Y-31098773D01*
X83874235Y-31122572D01*
X83865970Y-31145671D01*
X83855480Y-31167850D01*
X83842868Y-31188893D01*
X83828253Y-31208599D01*
X83811777Y-31226777D01*
X83793599Y-31243253D01*
X83773893Y-31257868D01*
X83752850Y-31270480D01*
X83730671Y-31280970D01*
X83707572Y-31289235D01*
X83683773Y-31295196D01*
X83659505Y-31298796D01*
X83635001Y-31300000D01*
X82734999Y-31300000D01*
X82710495Y-31298796D01*
X82686227Y-31295196D01*
X82662428Y-31289235D01*
X82639329Y-31280970D01*
X82617150Y-31270480D01*
X82596107Y-31257868D01*
X82576401Y-31243253D01*
X82558223Y-31226777D01*
X82541747Y-31208599D01*
X82527132Y-31188893D01*
X82514520Y-31167850D01*
X82504030Y-31145671D01*
X82495765Y-31122572D01*
X82489804Y-31098773D01*
X82486204Y-31074505D01*
X82485000Y-31050001D01*
X82485000Y-30399999D01*
X82486204Y-30375495D01*
X82489804Y-30351227D01*
X82495765Y-30327428D01*
X82504030Y-30304329D01*
X82514520Y-30282150D01*
X82527132Y-30261107D01*
X82541747Y-30241401D01*
X82558223Y-30223223D01*
X82576401Y-30206747D01*
X82596107Y-30192132D01*
X82617150Y-30179520D01*
X82639329Y-30169030D01*
X82662428Y-30160765D01*
X82686227Y-30154804D01*
X82710495Y-30151204D01*
X82734999Y-30150000D01*
X83635001Y-30150000D01*
X83659505Y-30151204D01*
X83659505Y-30151204D01*
G37*
D11*
X83185000Y-30725000D03*
D10*
G36*
X83659505Y-32201204D02*
X83683773Y-32204804D01*
X83707572Y-32210765D01*
X83730671Y-32219030D01*
X83752850Y-32229520D01*
X83773893Y-32242132D01*
X83793599Y-32256747D01*
X83811777Y-32273223D01*
X83828253Y-32291401D01*
X83842868Y-32311107D01*
X83855480Y-32332150D01*
X83865970Y-32354329D01*
X83874235Y-32377428D01*
X83880196Y-32401227D01*
X83883796Y-32425495D01*
X83885000Y-32449999D01*
X83885000Y-33100001D01*
X83883796Y-33124505D01*
X83880196Y-33148773D01*
X83874235Y-33172572D01*
X83865970Y-33195671D01*
X83855480Y-33217850D01*
X83842868Y-33238893D01*
X83828253Y-33258599D01*
X83811777Y-33276777D01*
X83793599Y-33293253D01*
X83773893Y-33307868D01*
X83752850Y-33320480D01*
X83730671Y-33330970D01*
X83707572Y-33339235D01*
X83683773Y-33345196D01*
X83659505Y-33348796D01*
X83635001Y-33350000D01*
X82734999Y-33350000D01*
X82710495Y-33348796D01*
X82686227Y-33345196D01*
X82662428Y-33339235D01*
X82639329Y-33330970D01*
X82617150Y-33320480D01*
X82596107Y-33307868D01*
X82576401Y-33293253D01*
X82558223Y-33276777D01*
X82541747Y-33258599D01*
X82527132Y-33238893D01*
X82514520Y-33217850D01*
X82504030Y-33195671D01*
X82495765Y-33172572D01*
X82489804Y-33148773D01*
X82486204Y-33124505D01*
X82485000Y-33100001D01*
X82485000Y-32449999D01*
X82486204Y-32425495D01*
X82489804Y-32401227D01*
X82495765Y-32377428D01*
X82504030Y-32354329D01*
X82514520Y-32332150D01*
X82527132Y-32311107D01*
X82541747Y-32291401D01*
X82558223Y-32273223D01*
X82576401Y-32256747D01*
X82596107Y-32242132D01*
X82617150Y-32229520D01*
X82639329Y-32219030D01*
X82662428Y-32210765D01*
X82686227Y-32204804D01*
X82710495Y-32201204D01*
X82734999Y-32200000D01*
X83635001Y-32200000D01*
X83659505Y-32201204D01*
X83659505Y-32201204D01*
G37*
D11*
X83185000Y-32775000D03*
G04 #@! TD*
D10*
G04 #@! TO.C,C1*
G36*
X71925325Y-14233864D02*
X71949593Y-14237464D01*
X71973392Y-14243425D01*
X71996491Y-14251690D01*
X72018670Y-14262180D01*
X72039713Y-14274792D01*
X72059419Y-14289407D01*
X72077597Y-14305883D01*
X72094073Y-14324061D01*
X72108688Y-14343767D01*
X72121300Y-14364810D01*
X72131790Y-14386989D01*
X72140055Y-14410088D01*
X72146016Y-14433887D01*
X72149616Y-14458155D01*
X72150820Y-14482659D01*
X72150820Y-15382661D01*
X72149616Y-15407165D01*
X72146016Y-15431433D01*
X72140055Y-15455232D01*
X72131790Y-15478331D01*
X72121300Y-15500510D01*
X72108688Y-15521553D01*
X72094073Y-15541259D01*
X72077597Y-15559437D01*
X72059419Y-15575913D01*
X72039713Y-15590528D01*
X72018670Y-15603140D01*
X71996491Y-15613630D01*
X71973392Y-15621895D01*
X71949593Y-15627856D01*
X71925325Y-15631456D01*
X71900821Y-15632660D01*
X71250819Y-15632660D01*
X71226315Y-15631456D01*
X71202047Y-15627856D01*
X71178248Y-15621895D01*
X71155149Y-15613630D01*
X71132970Y-15603140D01*
X71111927Y-15590528D01*
X71092221Y-15575913D01*
X71074043Y-15559437D01*
X71057567Y-15541259D01*
X71042952Y-15521553D01*
X71030340Y-15500510D01*
X71019850Y-15478331D01*
X71011585Y-15455232D01*
X71005624Y-15431433D01*
X71002024Y-15407165D01*
X71000820Y-15382661D01*
X71000820Y-14482659D01*
X71002024Y-14458155D01*
X71005624Y-14433887D01*
X71011585Y-14410088D01*
X71019850Y-14386989D01*
X71030340Y-14364810D01*
X71042952Y-14343767D01*
X71057567Y-14324061D01*
X71074043Y-14305883D01*
X71092221Y-14289407D01*
X71111927Y-14274792D01*
X71132970Y-14262180D01*
X71155149Y-14251690D01*
X71178248Y-14243425D01*
X71202047Y-14237464D01*
X71226315Y-14233864D01*
X71250819Y-14232660D01*
X71900821Y-14232660D01*
X71925325Y-14233864D01*
X71925325Y-14233864D01*
G37*
D11*
X71575820Y-14932660D03*
D10*
G36*
X73975325Y-14233864D02*
X73999593Y-14237464D01*
X74023392Y-14243425D01*
X74046491Y-14251690D01*
X74068670Y-14262180D01*
X74089713Y-14274792D01*
X74109419Y-14289407D01*
X74127597Y-14305883D01*
X74144073Y-14324061D01*
X74158688Y-14343767D01*
X74171300Y-14364810D01*
X74181790Y-14386989D01*
X74190055Y-14410088D01*
X74196016Y-14433887D01*
X74199616Y-14458155D01*
X74200820Y-14482659D01*
X74200820Y-15382661D01*
X74199616Y-15407165D01*
X74196016Y-15431433D01*
X74190055Y-15455232D01*
X74181790Y-15478331D01*
X74171300Y-15500510D01*
X74158688Y-15521553D01*
X74144073Y-15541259D01*
X74127597Y-15559437D01*
X74109419Y-15575913D01*
X74089713Y-15590528D01*
X74068670Y-15603140D01*
X74046491Y-15613630D01*
X74023392Y-15621895D01*
X73999593Y-15627856D01*
X73975325Y-15631456D01*
X73950821Y-15632660D01*
X73300819Y-15632660D01*
X73276315Y-15631456D01*
X73252047Y-15627856D01*
X73228248Y-15621895D01*
X73205149Y-15613630D01*
X73182970Y-15603140D01*
X73161927Y-15590528D01*
X73142221Y-15575913D01*
X73124043Y-15559437D01*
X73107567Y-15541259D01*
X73092952Y-15521553D01*
X73080340Y-15500510D01*
X73069850Y-15478331D01*
X73061585Y-15455232D01*
X73055624Y-15431433D01*
X73052024Y-15407165D01*
X73050820Y-15382661D01*
X73050820Y-14482659D01*
X73052024Y-14458155D01*
X73055624Y-14433887D01*
X73061585Y-14410088D01*
X73069850Y-14386989D01*
X73080340Y-14364810D01*
X73092952Y-14343767D01*
X73107567Y-14324061D01*
X73124043Y-14305883D01*
X73142221Y-14289407D01*
X73161927Y-14274792D01*
X73182970Y-14262180D01*
X73205149Y-14251690D01*
X73228248Y-14243425D01*
X73252047Y-14237464D01*
X73276315Y-14233864D01*
X73300819Y-14232660D01*
X73950821Y-14232660D01*
X73975325Y-14233864D01*
X73975325Y-14233864D01*
G37*
D11*
X73625820Y-14932660D03*
G04 #@! TD*
D10*
G04 #@! TO.C,C5*
G36*
X70589505Y-42481204D02*
X70613773Y-42484804D01*
X70637572Y-42490765D01*
X70660671Y-42499030D01*
X70682850Y-42509520D01*
X70703893Y-42522132D01*
X70723599Y-42536747D01*
X70741777Y-42553223D01*
X70758253Y-42571401D01*
X70772868Y-42591107D01*
X70785480Y-42612150D01*
X70795970Y-42634329D01*
X70804235Y-42657428D01*
X70810196Y-42681227D01*
X70813796Y-42705495D01*
X70815000Y-42729999D01*
X70815000Y-43630001D01*
X70813796Y-43654505D01*
X70810196Y-43678773D01*
X70804235Y-43702572D01*
X70795970Y-43725671D01*
X70785480Y-43747850D01*
X70772868Y-43768893D01*
X70758253Y-43788599D01*
X70741777Y-43806777D01*
X70723599Y-43823253D01*
X70703893Y-43837868D01*
X70682850Y-43850480D01*
X70660671Y-43860970D01*
X70637572Y-43869235D01*
X70613773Y-43875196D01*
X70589505Y-43878796D01*
X70565001Y-43880000D01*
X69914999Y-43880000D01*
X69890495Y-43878796D01*
X69866227Y-43875196D01*
X69842428Y-43869235D01*
X69819329Y-43860970D01*
X69797150Y-43850480D01*
X69776107Y-43837868D01*
X69756401Y-43823253D01*
X69738223Y-43806777D01*
X69721747Y-43788599D01*
X69707132Y-43768893D01*
X69694520Y-43747850D01*
X69684030Y-43725671D01*
X69675765Y-43702572D01*
X69669804Y-43678773D01*
X69666204Y-43654505D01*
X69665000Y-43630001D01*
X69665000Y-42729999D01*
X69666204Y-42705495D01*
X69669804Y-42681227D01*
X69675765Y-42657428D01*
X69684030Y-42634329D01*
X69694520Y-42612150D01*
X69707132Y-42591107D01*
X69721747Y-42571401D01*
X69738223Y-42553223D01*
X69756401Y-42536747D01*
X69776107Y-42522132D01*
X69797150Y-42509520D01*
X69819329Y-42499030D01*
X69842428Y-42490765D01*
X69866227Y-42484804D01*
X69890495Y-42481204D01*
X69914999Y-42480000D01*
X70565001Y-42480000D01*
X70589505Y-42481204D01*
X70589505Y-42481204D01*
G37*
D11*
X70240000Y-43180000D03*
D10*
G36*
X68539505Y-42481204D02*
X68563773Y-42484804D01*
X68587572Y-42490765D01*
X68610671Y-42499030D01*
X68632850Y-42509520D01*
X68653893Y-42522132D01*
X68673599Y-42536747D01*
X68691777Y-42553223D01*
X68708253Y-42571401D01*
X68722868Y-42591107D01*
X68735480Y-42612150D01*
X68745970Y-42634329D01*
X68754235Y-42657428D01*
X68760196Y-42681227D01*
X68763796Y-42705495D01*
X68765000Y-42729999D01*
X68765000Y-43630001D01*
X68763796Y-43654505D01*
X68760196Y-43678773D01*
X68754235Y-43702572D01*
X68745970Y-43725671D01*
X68735480Y-43747850D01*
X68722868Y-43768893D01*
X68708253Y-43788599D01*
X68691777Y-43806777D01*
X68673599Y-43823253D01*
X68653893Y-43837868D01*
X68632850Y-43850480D01*
X68610671Y-43860970D01*
X68587572Y-43869235D01*
X68563773Y-43875196D01*
X68539505Y-43878796D01*
X68515001Y-43880000D01*
X67864999Y-43880000D01*
X67840495Y-43878796D01*
X67816227Y-43875196D01*
X67792428Y-43869235D01*
X67769329Y-43860970D01*
X67747150Y-43850480D01*
X67726107Y-43837868D01*
X67706401Y-43823253D01*
X67688223Y-43806777D01*
X67671747Y-43788599D01*
X67657132Y-43768893D01*
X67644520Y-43747850D01*
X67634030Y-43725671D01*
X67625765Y-43702572D01*
X67619804Y-43678773D01*
X67616204Y-43654505D01*
X67615000Y-43630001D01*
X67615000Y-42729999D01*
X67616204Y-42705495D01*
X67619804Y-42681227D01*
X67625765Y-42657428D01*
X67634030Y-42634329D01*
X67644520Y-42612150D01*
X67657132Y-42591107D01*
X67671747Y-42571401D01*
X67688223Y-42553223D01*
X67706401Y-42536747D01*
X67726107Y-42522132D01*
X67747150Y-42509520D01*
X67769329Y-42499030D01*
X67792428Y-42490765D01*
X67816227Y-42484804D01*
X67840495Y-42481204D01*
X67864999Y-42480000D01*
X68515001Y-42480000D01*
X68539505Y-42481204D01*
X68539505Y-42481204D01*
G37*
D11*
X68190000Y-43180000D03*
G04 #@! TD*
D10*
G04 #@! TO.C,C11*
G36*
X67904505Y-57721204D02*
X67928773Y-57724804D01*
X67952572Y-57730765D01*
X67975671Y-57739030D01*
X67997850Y-57749520D01*
X68018893Y-57762132D01*
X68038599Y-57776747D01*
X68056777Y-57793223D01*
X68073253Y-57811401D01*
X68087868Y-57831107D01*
X68100480Y-57852150D01*
X68110970Y-57874329D01*
X68119235Y-57897428D01*
X68125196Y-57921227D01*
X68128796Y-57945495D01*
X68130000Y-57969999D01*
X68130000Y-58870001D01*
X68128796Y-58894505D01*
X68125196Y-58918773D01*
X68119235Y-58942572D01*
X68110970Y-58965671D01*
X68100480Y-58987850D01*
X68087868Y-59008893D01*
X68073253Y-59028599D01*
X68056777Y-59046777D01*
X68038599Y-59063253D01*
X68018893Y-59077868D01*
X67997850Y-59090480D01*
X67975671Y-59100970D01*
X67952572Y-59109235D01*
X67928773Y-59115196D01*
X67904505Y-59118796D01*
X67880001Y-59120000D01*
X67229999Y-59120000D01*
X67205495Y-59118796D01*
X67181227Y-59115196D01*
X67157428Y-59109235D01*
X67134329Y-59100970D01*
X67112150Y-59090480D01*
X67091107Y-59077868D01*
X67071401Y-59063253D01*
X67053223Y-59046777D01*
X67036747Y-59028599D01*
X67022132Y-59008893D01*
X67009520Y-58987850D01*
X66999030Y-58965671D01*
X66990765Y-58942572D01*
X66984804Y-58918773D01*
X66981204Y-58894505D01*
X66980000Y-58870001D01*
X66980000Y-57969999D01*
X66981204Y-57945495D01*
X66984804Y-57921227D01*
X66990765Y-57897428D01*
X66999030Y-57874329D01*
X67009520Y-57852150D01*
X67022132Y-57831107D01*
X67036747Y-57811401D01*
X67053223Y-57793223D01*
X67071401Y-57776747D01*
X67091107Y-57762132D01*
X67112150Y-57749520D01*
X67134329Y-57739030D01*
X67157428Y-57730765D01*
X67181227Y-57724804D01*
X67205495Y-57721204D01*
X67229999Y-57720000D01*
X67880001Y-57720000D01*
X67904505Y-57721204D01*
X67904505Y-57721204D01*
G37*
D11*
X67555000Y-58420000D03*
D10*
G36*
X69954505Y-57721204D02*
X69978773Y-57724804D01*
X70002572Y-57730765D01*
X70025671Y-57739030D01*
X70047850Y-57749520D01*
X70068893Y-57762132D01*
X70088599Y-57776747D01*
X70106777Y-57793223D01*
X70123253Y-57811401D01*
X70137868Y-57831107D01*
X70150480Y-57852150D01*
X70160970Y-57874329D01*
X70169235Y-57897428D01*
X70175196Y-57921227D01*
X70178796Y-57945495D01*
X70180000Y-57969999D01*
X70180000Y-58870001D01*
X70178796Y-58894505D01*
X70175196Y-58918773D01*
X70169235Y-58942572D01*
X70160970Y-58965671D01*
X70150480Y-58987850D01*
X70137868Y-59008893D01*
X70123253Y-59028599D01*
X70106777Y-59046777D01*
X70088599Y-59063253D01*
X70068893Y-59077868D01*
X70047850Y-59090480D01*
X70025671Y-59100970D01*
X70002572Y-59109235D01*
X69978773Y-59115196D01*
X69954505Y-59118796D01*
X69930001Y-59120000D01*
X69279999Y-59120000D01*
X69255495Y-59118796D01*
X69231227Y-59115196D01*
X69207428Y-59109235D01*
X69184329Y-59100970D01*
X69162150Y-59090480D01*
X69141107Y-59077868D01*
X69121401Y-59063253D01*
X69103223Y-59046777D01*
X69086747Y-59028599D01*
X69072132Y-59008893D01*
X69059520Y-58987850D01*
X69049030Y-58965671D01*
X69040765Y-58942572D01*
X69034804Y-58918773D01*
X69031204Y-58894505D01*
X69030000Y-58870001D01*
X69030000Y-57969999D01*
X69031204Y-57945495D01*
X69034804Y-57921227D01*
X69040765Y-57897428D01*
X69049030Y-57874329D01*
X69059520Y-57852150D01*
X69072132Y-57831107D01*
X69086747Y-57811401D01*
X69103223Y-57793223D01*
X69121401Y-57776747D01*
X69141107Y-57762132D01*
X69162150Y-57749520D01*
X69184329Y-57739030D01*
X69207428Y-57730765D01*
X69231227Y-57724804D01*
X69255495Y-57721204D01*
X69279999Y-57720000D01*
X69930001Y-57720000D01*
X69954505Y-57721204D01*
X69954505Y-57721204D01*
G37*
D11*
X69605000Y-58420000D03*
G04 #@! TD*
D10*
G04 #@! TO.C,R6*
G36*
X57744505Y-59626204D02*
X57768773Y-59629804D01*
X57792572Y-59635765D01*
X57815671Y-59644030D01*
X57837850Y-59654520D01*
X57858893Y-59667132D01*
X57878599Y-59681747D01*
X57896777Y-59698223D01*
X57913253Y-59716401D01*
X57927868Y-59736107D01*
X57940480Y-59757150D01*
X57950970Y-59779329D01*
X57959235Y-59802428D01*
X57965196Y-59826227D01*
X57968796Y-59850495D01*
X57970000Y-59874999D01*
X57970000Y-60775001D01*
X57968796Y-60799505D01*
X57965196Y-60823773D01*
X57959235Y-60847572D01*
X57950970Y-60870671D01*
X57940480Y-60892850D01*
X57927868Y-60913893D01*
X57913253Y-60933599D01*
X57896777Y-60951777D01*
X57878599Y-60968253D01*
X57858893Y-60982868D01*
X57837850Y-60995480D01*
X57815671Y-61005970D01*
X57792572Y-61014235D01*
X57768773Y-61020196D01*
X57744505Y-61023796D01*
X57720001Y-61025000D01*
X57069999Y-61025000D01*
X57045495Y-61023796D01*
X57021227Y-61020196D01*
X56997428Y-61014235D01*
X56974329Y-61005970D01*
X56952150Y-60995480D01*
X56931107Y-60982868D01*
X56911401Y-60968253D01*
X56893223Y-60951777D01*
X56876747Y-60933599D01*
X56862132Y-60913893D01*
X56849520Y-60892850D01*
X56839030Y-60870671D01*
X56830765Y-60847572D01*
X56824804Y-60823773D01*
X56821204Y-60799505D01*
X56820000Y-60775001D01*
X56820000Y-59874999D01*
X56821204Y-59850495D01*
X56824804Y-59826227D01*
X56830765Y-59802428D01*
X56839030Y-59779329D01*
X56849520Y-59757150D01*
X56862132Y-59736107D01*
X56876747Y-59716401D01*
X56893223Y-59698223D01*
X56911401Y-59681747D01*
X56931107Y-59667132D01*
X56952150Y-59654520D01*
X56974329Y-59644030D01*
X56997428Y-59635765D01*
X57021227Y-59629804D01*
X57045495Y-59626204D01*
X57069999Y-59625000D01*
X57720001Y-59625000D01*
X57744505Y-59626204D01*
X57744505Y-59626204D01*
G37*
D11*
X57395000Y-60325000D03*
D10*
G36*
X59794505Y-59626204D02*
X59818773Y-59629804D01*
X59842572Y-59635765D01*
X59865671Y-59644030D01*
X59887850Y-59654520D01*
X59908893Y-59667132D01*
X59928599Y-59681747D01*
X59946777Y-59698223D01*
X59963253Y-59716401D01*
X59977868Y-59736107D01*
X59990480Y-59757150D01*
X60000970Y-59779329D01*
X60009235Y-59802428D01*
X60015196Y-59826227D01*
X60018796Y-59850495D01*
X60020000Y-59874999D01*
X60020000Y-60775001D01*
X60018796Y-60799505D01*
X60015196Y-60823773D01*
X60009235Y-60847572D01*
X60000970Y-60870671D01*
X59990480Y-60892850D01*
X59977868Y-60913893D01*
X59963253Y-60933599D01*
X59946777Y-60951777D01*
X59928599Y-60968253D01*
X59908893Y-60982868D01*
X59887850Y-60995480D01*
X59865671Y-61005970D01*
X59842572Y-61014235D01*
X59818773Y-61020196D01*
X59794505Y-61023796D01*
X59770001Y-61025000D01*
X59119999Y-61025000D01*
X59095495Y-61023796D01*
X59071227Y-61020196D01*
X59047428Y-61014235D01*
X59024329Y-61005970D01*
X59002150Y-60995480D01*
X58981107Y-60982868D01*
X58961401Y-60968253D01*
X58943223Y-60951777D01*
X58926747Y-60933599D01*
X58912132Y-60913893D01*
X58899520Y-60892850D01*
X58889030Y-60870671D01*
X58880765Y-60847572D01*
X58874804Y-60823773D01*
X58871204Y-60799505D01*
X58870000Y-60775001D01*
X58870000Y-59874999D01*
X58871204Y-59850495D01*
X58874804Y-59826227D01*
X58880765Y-59802428D01*
X58889030Y-59779329D01*
X58899520Y-59757150D01*
X58912132Y-59736107D01*
X58926747Y-59716401D01*
X58943223Y-59698223D01*
X58961401Y-59681747D01*
X58981107Y-59667132D01*
X59002150Y-59654520D01*
X59024329Y-59644030D01*
X59047428Y-59635765D01*
X59071227Y-59629804D01*
X59095495Y-59626204D01*
X59119999Y-59625000D01*
X59770001Y-59625000D01*
X59794505Y-59626204D01*
X59794505Y-59626204D01*
G37*
D11*
X59445000Y-60325000D03*
G04 #@! TD*
D10*
G04 #@! TO.C,R7*
G36*
X85049505Y-81216204D02*
X85073773Y-81219804D01*
X85097572Y-81225765D01*
X85120671Y-81234030D01*
X85142850Y-81244520D01*
X85163893Y-81257132D01*
X85183599Y-81271747D01*
X85201777Y-81288223D01*
X85218253Y-81306401D01*
X85232868Y-81326107D01*
X85245480Y-81347150D01*
X85255970Y-81369329D01*
X85264235Y-81392428D01*
X85270196Y-81416227D01*
X85273796Y-81440495D01*
X85275000Y-81464999D01*
X85275000Y-82365001D01*
X85273796Y-82389505D01*
X85270196Y-82413773D01*
X85264235Y-82437572D01*
X85255970Y-82460671D01*
X85245480Y-82482850D01*
X85232868Y-82503893D01*
X85218253Y-82523599D01*
X85201777Y-82541777D01*
X85183599Y-82558253D01*
X85163893Y-82572868D01*
X85142850Y-82585480D01*
X85120671Y-82595970D01*
X85097572Y-82604235D01*
X85073773Y-82610196D01*
X85049505Y-82613796D01*
X85025001Y-82615000D01*
X84374999Y-82615000D01*
X84350495Y-82613796D01*
X84326227Y-82610196D01*
X84302428Y-82604235D01*
X84279329Y-82595970D01*
X84257150Y-82585480D01*
X84236107Y-82572868D01*
X84216401Y-82558253D01*
X84198223Y-82541777D01*
X84181747Y-82523599D01*
X84167132Y-82503893D01*
X84154520Y-82482850D01*
X84144030Y-82460671D01*
X84135765Y-82437572D01*
X84129804Y-82413773D01*
X84126204Y-82389505D01*
X84125000Y-82365001D01*
X84125000Y-81464999D01*
X84126204Y-81440495D01*
X84129804Y-81416227D01*
X84135765Y-81392428D01*
X84144030Y-81369329D01*
X84154520Y-81347150D01*
X84167132Y-81326107D01*
X84181747Y-81306401D01*
X84198223Y-81288223D01*
X84216401Y-81271747D01*
X84236107Y-81257132D01*
X84257150Y-81244520D01*
X84279329Y-81234030D01*
X84302428Y-81225765D01*
X84326227Y-81219804D01*
X84350495Y-81216204D01*
X84374999Y-81215000D01*
X85025001Y-81215000D01*
X85049505Y-81216204D01*
X85049505Y-81216204D01*
G37*
D11*
X84700000Y-81915000D03*
D10*
G36*
X87099505Y-81216204D02*
X87123773Y-81219804D01*
X87147572Y-81225765D01*
X87170671Y-81234030D01*
X87192850Y-81244520D01*
X87213893Y-81257132D01*
X87233599Y-81271747D01*
X87251777Y-81288223D01*
X87268253Y-81306401D01*
X87282868Y-81326107D01*
X87295480Y-81347150D01*
X87305970Y-81369329D01*
X87314235Y-81392428D01*
X87320196Y-81416227D01*
X87323796Y-81440495D01*
X87325000Y-81464999D01*
X87325000Y-82365001D01*
X87323796Y-82389505D01*
X87320196Y-82413773D01*
X87314235Y-82437572D01*
X87305970Y-82460671D01*
X87295480Y-82482850D01*
X87282868Y-82503893D01*
X87268253Y-82523599D01*
X87251777Y-82541777D01*
X87233599Y-82558253D01*
X87213893Y-82572868D01*
X87192850Y-82585480D01*
X87170671Y-82595970D01*
X87147572Y-82604235D01*
X87123773Y-82610196D01*
X87099505Y-82613796D01*
X87075001Y-82615000D01*
X86424999Y-82615000D01*
X86400495Y-82613796D01*
X86376227Y-82610196D01*
X86352428Y-82604235D01*
X86329329Y-82595970D01*
X86307150Y-82585480D01*
X86286107Y-82572868D01*
X86266401Y-82558253D01*
X86248223Y-82541777D01*
X86231747Y-82523599D01*
X86217132Y-82503893D01*
X86204520Y-82482850D01*
X86194030Y-82460671D01*
X86185765Y-82437572D01*
X86179804Y-82413773D01*
X86176204Y-82389505D01*
X86175000Y-82365001D01*
X86175000Y-81464999D01*
X86176204Y-81440495D01*
X86179804Y-81416227D01*
X86185765Y-81392428D01*
X86194030Y-81369329D01*
X86204520Y-81347150D01*
X86217132Y-81326107D01*
X86231747Y-81306401D01*
X86248223Y-81288223D01*
X86266401Y-81271747D01*
X86286107Y-81257132D01*
X86307150Y-81244520D01*
X86329329Y-81234030D01*
X86352428Y-81225765D01*
X86376227Y-81219804D01*
X86400495Y-81216204D01*
X86424999Y-81215000D01*
X87075001Y-81215000D01*
X87099505Y-81216204D01*
X87099505Y-81216204D01*
G37*
D11*
X86750000Y-81915000D03*
G04 #@! TD*
D10*
G04 #@! TO.C,R3*
G36*
X83024505Y-17469204D02*
X83048773Y-17472804D01*
X83072572Y-17478765D01*
X83095671Y-17487030D01*
X83117850Y-17497520D01*
X83138893Y-17510132D01*
X83158599Y-17524747D01*
X83176777Y-17541223D01*
X83193253Y-17559401D01*
X83207868Y-17579107D01*
X83220480Y-17600150D01*
X83230970Y-17622329D01*
X83239235Y-17645428D01*
X83245196Y-17669227D01*
X83248796Y-17693495D01*
X83250000Y-17717999D01*
X83250000Y-18368001D01*
X83248796Y-18392505D01*
X83245196Y-18416773D01*
X83239235Y-18440572D01*
X83230970Y-18463671D01*
X83220480Y-18485850D01*
X83207868Y-18506893D01*
X83193253Y-18526599D01*
X83176777Y-18544777D01*
X83158599Y-18561253D01*
X83138893Y-18575868D01*
X83117850Y-18588480D01*
X83095671Y-18598970D01*
X83072572Y-18607235D01*
X83048773Y-18613196D01*
X83024505Y-18616796D01*
X83000001Y-18618000D01*
X82099999Y-18618000D01*
X82075495Y-18616796D01*
X82051227Y-18613196D01*
X82027428Y-18607235D01*
X82004329Y-18598970D01*
X81982150Y-18588480D01*
X81961107Y-18575868D01*
X81941401Y-18561253D01*
X81923223Y-18544777D01*
X81906747Y-18526599D01*
X81892132Y-18506893D01*
X81879520Y-18485850D01*
X81869030Y-18463671D01*
X81860765Y-18440572D01*
X81854804Y-18416773D01*
X81851204Y-18392505D01*
X81850000Y-18368001D01*
X81850000Y-17717999D01*
X81851204Y-17693495D01*
X81854804Y-17669227D01*
X81860765Y-17645428D01*
X81869030Y-17622329D01*
X81879520Y-17600150D01*
X81892132Y-17579107D01*
X81906747Y-17559401D01*
X81923223Y-17541223D01*
X81941401Y-17524747D01*
X81961107Y-17510132D01*
X81982150Y-17497520D01*
X82004329Y-17487030D01*
X82027428Y-17478765D01*
X82051227Y-17472804D01*
X82075495Y-17469204D01*
X82099999Y-17468000D01*
X83000001Y-17468000D01*
X83024505Y-17469204D01*
X83024505Y-17469204D01*
G37*
D11*
X82550000Y-18043000D03*
D10*
G36*
X83024505Y-15419204D02*
X83048773Y-15422804D01*
X83072572Y-15428765D01*
X83095671Y-15437030D01*
X83117850Y-15447520D01*
X83138893Y-15460132D01*
X83158599Y-15474747D01*
X83176777Y-15491223D01*
X83193253Y-15509401D01*
X83207868Y-15529107D01*
X83220480Y-15550150D01*
X83230970Y-15572329D01*
X83239235Y-15595428D01*
X83245196Y-15619227D01*
X83248796Y-15643495D01*
X83250000Y-15667999D01*
X83250000Y-16318001D01*
X83248796Y-16342505D01*
X83245196Y-16366773D01*
X83239235Y-16390572D01*
X83230970Y-16413671D01*
X83220480Y-16435850D01*
X83207868Y-16456893D01*
X83193253Y-16476599D01*
X83176777Y-16494777D01*
X83158599Y-16511253D01*
X83138893Y-16525868D01*
X83117850Y-16538480D01*
X83095671Y-16548970D01*
X83072572Y-16557235D01*
X83048773Y-16563196D01*
X83024505Y-16566796D01*
X83000001Y-16568000D01*
X82099999Y-16568000D01*
X82075495Y-16566796D01*
X82051227Y-16563196D01*
X82027428Y-16557235D01*
X82004329Y-16548970D01*
X81982150Y-16538480D01*
X81961107Y-16525868D01*
X81941401Y-16511253D01*
X81923223Y-16494777D01*
X81906747Y-16476599D01*
X81892132Y-16456893D01*
X81879520Y-16435850D01*
X81869030Y-16413671D01*
X81860765Y-16390572D01*
X81854804Y-16366773D01*
X81851204Y-16342505D01*
X81850000Y-16318001D01*
X81850000Y-15667999D01*
X81851204Y-15643495D01*
X81854804Y-15619227D01*
X81860765Y-15595428D01*
X81869030Y-15572329D01*
X81879520Y-15550150D01*
X81892132Y-15529107D01*
X81906747Y-15509401D01*
X81923223Y-15491223D01*
X81941401Y-15474747D01*
X81961107Y-15460132D01*
X81982150Y-15447520D01*
X82004329Y-15437030D01*
X82027428Y-15428765D01*
X82051227Y-15422804D01*
X82075495Y-15419204D01*
X82099999Y-15418000D01*
X83000001Y-15418000D01*
X83024505Y-15419204D01*
X83024505Y-15419204D01*
G37*
D11*
X82550000Y-15993000D03*
G04 #@! TD*
D10*
G04 #@! TO.C,R2*
G36*
X85564505Y-15419204D02*
X85588773Y-15422804D01*
X85612572Y-15428765D01*
X85635671Y-15437030D01*
X85657850Y-15447520D01*
X85678893Y-15460132D01*
X85698599Y-15474747D01*
X85716777Y-15491223D01*
X85733253Y-15509401D01*
X85747868Y-15529107D01*
X85760480Y-15550150D01*
X85770970Y-15572329D01*
X85779235Y-15595428D01*
X85785196Y-15619227D01*
X85788796Y-15643495D01*
X85790000Y-15667999D01*
X85790000Y-16318001D01*
X85788796Y-16342505D01*
X85785196Y-16366773D01*
X85779235Y-16390572D01*
X85770970Y-16413671D01*
X85760480Y-16435850D01*
X85747868Y-16456893D01*
X85733253Y-16476599D01*
X85716777Y-16494777D01*
X85698599Y-16511253D01*
X85678893Y-16525868D01*
X85657850Y-16538480D01*
X85635671Y-16548970D01*
X85612572Y-16557235D01*
X85588773Y-16563196D01*
X85564505Y-16566796D01*
X85540001Y-16568000D01*
X84639999Y-16568000D01*
X84615495Y-16566796D01*
X84591227Y-16563196D01*
X84567428Y-16557235D01*
X84544329Y-16548970D01*
X84522150Y-16538480D01*
X84501107Y-16525868D01*
X84481401Y-16511253D01*
X84463223Y-16494777D01*
X84446747Y-16476599D01*
X84432132Y-16456893D01*
X84419520Y-16435850D01*
X84409030Y-16413671D01*
X84400765Y-16390572D01*
X84394804Y-16366773D01*
X84391204Y-16342505D01*
X84390000Y-16318001D01*
X84390000Y-15667999D01*
X84391204Y-15643495D01*
X84394804Y-15619227D01*
X84400765Y-15595428D01*
X84409030Y-15572329D01*
X84419520Y-15550150D01*
X84432132Y-15529107D01*
X84446747Y-15509401D01*
X84463223Y-15491223D01*
X84481401Y-15474747D01*
X84501107Y-15460132D01*
X84522150Y-15447520D01*
X84544329Y-15437030D01*
X84567428Y-15428765D01*
X84591227Y-15422804D01*
X84615495Y-15419204D01*
X84639999Y-15418000D01*
X85540001Y-15418000D01*
X85564505Y-15419204D01*
X85564505Y-15419204D01*
G37*
D11*
X85090000Y-15993000D03*
D10*
G36*
X85564505Y-17469204D02*
X85588773Y-17472804D01*
X85612572Y-17478765D01*
X85635671Y-17487030D01*
X85657850Y-17497520D01*
X85678893Y-17510132D01*
X85698599Y-17524747D01*
X85716777Y-17541223D01*
X85733253Y-17559401D01*
X85747868Y-17579107D01*
X85760480Y-17600150D01*
X85770970Y-17622329D01*
X85779235Y-17645428D01*
X85785196Y-17669227D01*
X85788796Y-17693495D01*
X85790000Y-17717999D01*
X85790000Y-18368001D01*
X85788796Y-18392505D01*
X85785196Y-18416773D01*
X85779235Y-18440572D01*
X85770970Y-18463671D01*
X85760480Y-18485850D01*
X85747868Y-18506893D01*
X85733253Y-18526599D01*
X85716777Y-18544777D01*
X85698599Y-18561253D01*
X85678893Y-18575868D01*
X85657850Y-18588480D01*
X85635671Y-18598970D01*
X85612572Y-18607235D01*
X85588773Y-18613196D01*
X85564505Y-18616796D01*
X85540001Y-18618000D01*
X84639999Y-18618000D01*
X84615495Y-18616796D01*
X84591227Y-18613196D01*
X84567428Y-18607235D01*
X84544329Y-18598970D01*
X84522150Y-18588480D01*
X84501107Y-18575868D01*
X84481401Y-18561253D01*
X84463223Y-18544777D01*
X84446747Y-18526599D01*
X84432132Y-18506893D01*
X84419520Y-18485850D01*
X84409030Y-18463671D01*
X84400765Y-18440572D01*
X84394804Y-18416773D01*
X84391204Y-18392505D01*
X84390000Y-18368001D01*
X84390000Y-17717999D01*
X84391204Y-17693495D01*
X84394804Y-17669227D01*
X84400765Y-17645428D01*
X84409030Y-17622329D01*
X84419520Y-17600150D01*
X84432132Y-17579107D01*
X84446747Y-17559401D01*
X84463223Y-17541223D01*
X84481401Y-17524747D01*
X84501107Y-17510132D01*
X84522150Y-17497520D01*
X84544329Y-17487030D01*
X84567428Y-17478765D01*
X84591227Y-17472804D01*
X84615495Y-17469204D01*
X84639999Y-17468000D01*
X85540001Y-17468000D01*
X85564505Y-17469204D01*
X85564505Y-17469204D01*
G37*
D11*
X85090000Y-18043000D03*
G04 #@! TD*
D10*
G04 #@! TO.C,R1*
G36*
X88104505Y-17469204D02*
X88128773Y-17472804D01*
X88152572Y-17478765D01*
X88175671Y-17487030D01*
X88197850Y-17497520D01*
X88218893Y-17510132D01*
X88238599Y-17524747D01*
X88256777Y-17541223D01*
X88273253Y-17559401D01*
X88287868Y-17579107D01*
X88300480Y-17600150D01*
X88310970Y-17622329D01*
X88319235Y-17645428D01*
X88325196Y-17669227D01*
X88328796Y-17693495D01*
X88330000Y-17717999D01*
X88330000Y-18368001D01*
X88328796Y-18392505D01*
X88325196Y-18416773D01*
X88319235Y-18440572D01*
X88310970Y-18463671D01*
X88300480Y-18485850D01*
X88287868Y-18506893D01*
X88273253Y-18526599D01*
X88256777Y-18544777D01*
X88238599Y-18561253D01*
X88218893Y-18575868D01*
X88197850Y-18588480D01*
X88175671Y-18598970D01*
X88152572Y-18607235D01*
X88128773Y-18613196D01*
X88104505Y-18616796D01*
X88080001Y-18618000D01*
X87179999Y-18618000D01*
X87155495Y-18616796D01*
X87131227Y-18613196D01*
X87107428Y-18607235D01*
X87084329Y-18598970D01*
X87062150Y-18588480D01*
X87041107Y-18575868D01*
X87021401Y-18561253D01*
X87003223Y-18544777D01*
X86986747Y-18526599D01*
X86972132Y-18506893D01*
X86959520Y-18485850D01*
X86949030Y-18463671D01*
X86940765Y-18440572D01*
X86934804Y-18416773D01*
X86931204Y-18392505D01*
X86930000Y-18368001D01*
X86930000Y-17717999D01*
X86931204Y-17693495D01*
X86934804Y-17669227D01*
X86940765Y-17645428D01*
X86949030Y-17622329D01*
X86959520Y-17600150D01*
X86972132Y-17579107D01*
X86986747Y-17559401D01*
X87003223Y-17541223D01*
X87021401Y-17524747D01*
X87041107Y-17510132D01*
X87062150Y-17497520D01*
X87084329Y-17487030D01*
X87107428Y-17478765D01*
X87131227Y-17472804D01*
X87155495Y-17469204D01*
X87179999Y-17468000D01*
X88080001Y-17468000D01*
X88104505Y-17469204D01*
X88104505Y-17469204D01*
G37*
D11*
X87630000Y-18043000D03*
D10*
G36*
X88104505Y-15419204D02*
X88128773Y-15422804D01*
X88152572Y-15428765D01*
X88175671Y-15437030D01*
X88197850Y-15447520D01*
X88218893Y-15460132D01*
X88238599Y-15474747D01*
X88256777Y-15491223D01*
X88273253Y-15509401D01*
X88287868Y-15529107D01*
X88300480Y-15550150D01*
X88310970Y-15572329D01*
X88319235Y-15595428D01*
X88325196Y-15619227D01*
X88328796Y-15643495D01*
X88330000Y-15667999D01*
X88330000Y-16318001D01*
X88328796Y-16342505D01*
X88325196Y-16366773D01*
X88319235Y-16390572D01*
X88310970Y-16413671D01*
X88300480Y-16435850D01*
X88287868Y-16456893D01*
X88273253Y-16476599D01*
X88256777Y-16494777D01*
X88238599Y-16511253D01*
X88218893Y-16525868D01*
X88197850Y-16538480D01*
X88175671Y-16548970D01*
X88152572Y-16557235D01*
X88128773Y-16563196D01*
X88104505Y-16566796D01*
X88080001Y-16568000D01*
X87179999Y-16568000D01*
X87155495Y-16566796D01*
X87131227Y-16563196D01*
X87107428Y-16557235D01*
X87084329Y-16548970D01*
X87062150Y-16538480D01*
X87041107Y-16525868D01*
X87021401Y-16511253D01*
X87003223Y-16494777D01*
X86986747Y-16476599D01*
X86972132Y-16456893D01*
X86959520Y-16435850D01*
X86949030Y-16413671D01*
X86940765Y-16390572D01*
X86934804Y-16366773D01*
X86931204Y-16342505D01*
X86930000Y-16318001D01*
X86930000Y-15667999D01*
X86931204Y-15643495D01*
X86934804Y-15619227D01*
X86940765Y-15595428D01*
X86949030Y-15572329D01*
X86959520Y-15550150D01*
X86972132Y-15529107D01*
X86986747Y-15509401D01*
X87003223Y-15491223D01*
X87021401Y-15474747D01*
X87041107Y-15460132D01*
X87062150Y-15447520D01*
X87084329Y-15437030D01*
X87107428Y-15428765D01*
X87131227Y-15422804D01*
X87155495Y-15419204D01*
X87179999Y-15418000D01*
X88080001Y-15418000D01*
X88104505Y-15419204D01*
X88104505Y-15419204D01*
G37*
D11*
X87630000Y-15993000D03*
G04 #@! TD*
D10*
G04 #@! TO.C,C9*
G36*
X87462505Y-51371204D02*
X87486773Y-51374804D01*
X87510572Y-51380765D01*
X87533671Y-51389030D01*
X87555850Y-51399520D01*
X87576893Y-51412132D01*
X87596599Y-51426747D01*
X87614777Y-51443223D01*
X87631253Y-51461401D01*
X87645868Y-51481107D01*
X87658480Y-51502150D01*
X87668970Y-51524329D01*
X87677235Y-51547428D01*
X87683196Y-51571227D01*
X87686796Y-51595495D01*
X87688000Y-51619999D01*
X87688000Y-52520001D01*
X87686796Y-52544505D01*
X87683196Y-52568773D01*
X87677235Y-52592572D01*
X87668970Y-52615671D01*
X87658480Y-52637850D01*
X87645868Y-52658893D01*
X87631253Y-52678599D01*
X87614777Y-52696777D01*
X87596599Y-52713253D01*
X87576893Y-52727868D01*
X87555850Y-52740480D01*
X87533671Y-52750970D01*
X87510572Y-52759235D01*
X87486773Y-52765196D01*
X87462505Y-52768796D01*
X87438001Y-52770000D01*
X86787999Y-52770000D01*
X86763495Y-52768796D01*
X86739227Y-52765196D01*
X86715428Y-52759235D01*
X86692329Y-52750970D01*
X86670150Y-52740480D01*
X86649107Y-52727868D01*
X86629401Y-52713253D01*
X86611223Y-52696777D01*
X86594747Y-52678599D01*
X86580132Y-52658893D01*
X86567520Y-52637850D01*
X86557030Y-52615671D01*
X86548765Y-52592572D01*
X86542804Y-52568773D01*
X86539204Y-52544505D01*
X86538000Y-52520001D01*
X86538000Y-51619999D01*
X86539204Y-51595495D01*
X86542804Y-51571227D01*
X86548765Y-51547428D01*
X86557030Y-51524329D01*
X86567520Y-51502150D01*
X86580132Y-51481107D01*
X86594747Y-51461401D01*
X86611223Y-51443223D01*
X86629401Y-51426747D01*
X86649107Y-51412132D01*
X86670150Y-51399520D01*
X86692329Y-51389030D01*
X86715428Y-51380765D01*
X86739227Y-51374804D01*
X86763495Y-51371204D01*
X86787999Y-51370000D01*
X87438001Y-51370000D01*
X87462505Y-51371204D01*
X87462505Y-51371204D01*
G37*
D11*
X87113000Y-52070000D03*
D10*
G36*
X89512505Y-51371204D02*
X89536773Y-51374804D01*
X89560572Y-51380765D01*
X89583671Y-51389030D01*
X89605850Y-51399520D01*
X89626893Y-51412132D01*
X89646599Y-51426747D01*
X89664777Y-51443223D01*
X89681253Y-51461401D01*
X89695868Y-51481107D01*
X89708480Y-51502150D01*
X89718970Y-51524329D01*
X89727235Y-51547428D01*
X89733196Y-51571227D01*
X89736796Y-51595495D01*
X89738000Y-51619999D01*
X89738000Y-52520001D01*
X89736796Y-52544505D01*
X89733196Y-52568773D01*
X89727235Y-52592572D01*
X89718970Y-52615671D01*
X89708480Y-52637850D01*
X89695868Y-52658893D01*
X89681253Y-52678599D01*
X89664777Y-52696777D01*
X89646599Y-52713253D01*
X89626893Y-52727868D01*
X89605850Y-52740480D01*
X89583671Y-52750970D01*
X89560572Y-52759235D01*
X89536773Y-52765196D01*
X89512505Y-52768796D01*
X89488001Y-52770000D01*
X88837999Y-52770000D01*
X88813495Y-52768796D01*
X88789227Y-52765196D01*
X88765428Y-52759235D01*
X88742329Y-52750970D01*
X88720150Y-52740480D01*
X88699107Y-52727868D01*
X88679401Y-52713253D01*
X88661223Y-52696777D01*
X88644747Y-52678599D01*
X88630132Y-52658893D01*
X88617520Y-52637850D01*
X88607030Y-52615671D01*
X88598765Y-52592572D01*
X88592804Y-52568773D01*
X88589204Y-52544505D01*
X88588000Y-52520001D01*
X88588000Y-51619999D01*
X88589204Y-51595495D01*
X88592804Y-51571227D01*
X88598765Y-51547428D01*
X88607030Y-51524329D01*
X88617520Y-51502150D01*
X88630132Y-51481107D01*
X88644747Y-51461401D01*
X88661223Y-51443223D01*
X88679401Y-51426747D01*
X88699107Y-51412132D01*
X88720150Y-51399520D01*
X88742329Y-51389030D01*
X88765428Y-51380765D01*
X88789227Y-51374804D01*
X88813495Y-51371204D01*
X88837999Y-51370000D01*
X89488001Y-51370000D01*
X89512505Y-51371204D01*
X89512505Y-51371204D01*
G37*
D11*
X89163000Y-52070000D03*
G04 #@! TD*
D10*
G04 #@! TO.C,R4*
G36*
X89512505Y-47561204D02*
X89536773Y-47564804D01*
X89560572Y-47570765D01*
X89583671Y-47579030D01*
X89605850Y-47589520D01*
X89626893Y-47602132D01*
X89646599Y-47616747D01*
X89664777Y-47633223D01*
X89681253Y-47651401D01*
X89695868Y-47671107D01*
X89708480Y-47692150D01*
X89718970Y-47714329D01*
X89727235Y-47737428D01*
X89733196Y-47761227D01*
X89736796Y-47785495D01*
X89738000Y-47809999D01*
X89738000Y-48710001D01*
X89736796Y-48734505D01*
X89733196Y-48758773D01*
X89727235Y-48782572D01*
X89718970Y-48805671D01*
X89708480Y-48827850D01*
X89695868Y-48848893D01*
X89681253Y-48868599D01*
X89664777Y-48886777D01*
X89646599Y-48903253D01*
X89626893Y-48917868D01*
X89605850Y-48930480D01*
X89583671Y-48940970D01*
X89560572Y-48949235D01*
X89536773Y-48955196D01*
X89512505Y-48958796D01*
X89488001Y-48960000D01*
X88837999Y-48960000D01*
X88813495Y-48958796D01*
X88789227Y-48955196D01*
X88765428Y-48949235D01*
X88742329Y-48940970D01*
X88720150Y-48930480D01*
X88699107Y-48917868D01*
X88679401Y-48903253D01*
X88661223Y-48886777D01*
X88644747Y-48868599D01*
X88630132Y-48848893D01*
X88617520Y-48827850D01*
X88607030Y-48805671D01*
X88598765Y-48782572D01*
X88592804Y-48758773D01*
X88589204Y-48734505D01*
X88588000Y-48710001D01*
X88588000Y-47809999D01*
X88589204Y-47785495D01*
X88592804Y-47761227D01*
X88598765Y-47737428D01*
X88607030Y-47714329D01*
X88617520Y-47692150D01*
X88630132Y-47671107D01*
X88644747Y-47651401D01*
X88661223Y-47633223D01*
X88679401Y-47616747D01*
X88699107Y-47602132D01*
X88720150Y-47589520D01*
X88742329Y-47579030D01*
X88765428Y-47570765D01*
X88789227Y-47564804D01*
X88813495Y-47561204D01*
X88837999Y-47560000D01*
X89488001Y-47560000D01*
X89512505Y-47561204D01*
X89512505Y-47561204D01*
G37*
D11*
X89163000Y-48260000D03*
D10*
G36*
X87462505Y-47561204D02*
X87486773Y-47564804D01*
X87510572Y-47570765D01*
X87533671Y-47579030D01*
X87555850Y-47589520D01*
X87576893Y-47602132D01*
X87596599Y-47616747D01*
X87614777Y-47633223D01*
X87631253Y-47651401D01*
X87645868Y-47671107D01*
X87658480Y-47692150D01*
X87668970Y-47714329D01*
X87677235Y-47737428D01*
X87683196Y-47761227D01*
X87686796Y-47785495D01*
X87688000Y-47809999D01*
X87688000Y-48710001D01*
X87686796Y-48734505D01*
X87683196Y-48758773D01*
X87677235Y-48782572D01*
X87668970Y-48805671D01*
X87658480Y-48827850D01*
X87645868Y-48848893D01*
X87631253Y-48868599D01*
X87614777Y-48886777D01*
X87596599Y-48903253D01*
X87576893Y-48917868D01*
X87555850Y-48930480D01*
X87533671Y-48940970D01*
X87510572Y-48949235D01*
X87486773Y-48955196D01*
X87462505Y-48958796D01*
X87438001Y-48960000D01*
X86787999Y-48960000D01*
X86763495Y-48958796D01*
X86739227Y-48955196D01*
X86715428Y-48949235D01*
X86692329Y-48940970D01*
X86670150Y-48930480D01*
X86649107Y-48917868D01*
X86629401Y-48903253D01*
X86611223Y-48886777D01*
X86594747Y-48868599D01*
X86580132Y-48848893D01*
X86567520Y-48827850D01*
X86557030Y-48805671D01*
X86548765Y-48782572D01*
X86542804Y-48758773D01*
X86539204Y-48734505D01*
X86538000Y-48710001D01*
X86538000Y-47809999D01*
X86539204Y-47785495D01*
X86542804Y-47761227D01*
X86548765Y-47737428D01*
X86557030Y-47714329D01*
X86567520Y-47692150D01*
X86580132Y-47671107D01*
X86594747Y-47651401D01*
X86611223Y-47633223D01*
X86629401Y-47616747D01*
X86649107Y-47602132D01*
X86670150Y-47589520D01*
X86692329Y-47579030D01*
X86715428Y-47570765D01*
X86739227Y-47564804D01*
X86763495Y-47561204D01*
X86787999Y-47560000D01*
X87438001Y-47560000D01*
X87462505Y-47561204D01*
X87462505Y-47561204D01*
G37*
D11*
X87113000Y-48260000D03*
G04 #@! TD*
D10*
G04 #@! TO.C,R5*
G36*
X89512505Y-49593204D02*
X89536773Y-49596804D01*
X89560572Y-49602765D01*
X89583671Y-49611030D01*
X89605850Y-49621520D01*
X89626893Y-49634132D01*
X89646599Y-49648747D01*
X89664777Y-49665223D01*
X89681253Y-49683401D01*
X89695868Y-49703107D01*
X89708480Y-49724150D01*
X89718970Y-49746329D01*
X89727235Y-49769428D01*
X89733196Y-49793227D01*
X89736796Y-49817495D01*
X89738000Y-49841999D01*
X89738000Y-50742001D01*
X89736796Y-50766505D01*
X89733196Y-50790773D01*
X89727235Y-50814572D01*
X89718970Y-50837671D01*
X89708480Y-50859850D01*
X89695868Y-50880893D01*
X89681253Y-50900599D01*
X89664777Y-50918777D01*
X89646599Y-50935253D01*
X89626893Y-50949868D01*
X89605850Y-50962480D01*
X89583671Y-50972970D01*
X89560572Y-50981235D01*
X89536773Y-50987196D01*
X89512505Y-50990796D01*
X89488001Y-50992000D01*
X88837999Y-50992000D01*
X88813495Y-50990796D01*
X88789227Y-50987196D01*
X88765428Y-50981235D01*
X88742329Y-50972970D01*
X88720150Y-50962480D01*
X88699107Y-50949868D01*
X88679401Y-50935253D01*
X88661223Y-50918777D01*
X88644747Y-50900599D01*
X88630132Y-50880893D01*
X88617520Y-50859850D01*
X88607030Y-50837671D01*
X88598765Y-50814572D01*
X88592804Y-50790773D01*
X88589204Y-50766505D01*
X88588000Y-50742001D01*
X88588000Y-49841999D01*
X88589204Y-49817495D01*
X88592804Y-49793227D01*
X88598765Y-49769428D01*
X88607030Y-49746329D01*
X88617520Y-49724150D01*
X88630132Y-49703107D01*
X88644747Y-49683401D01*
X88661223Y-49665223D01*
X88679401Y-49648747D01*
X88699107Y-49634132D01*
X88720150Y-49621520D01*
X88742329Y-49611030D01*
X88765428Y-49602765D01*
X88789227Y-49596804D01*
X88813495Y-49593204D01*
X88837999Y-49592000D01*
X89488001Y-49592000D01*
X89512505Y-49593204D01*
X89512505Y-49593204D01*
G37*
D11*
X89163000Y-50292000D03*
D10*
G36*
X87462505Y-49593204D02*
X87486773Y-49596804D01*
X87510572Y-49602765D01*
X87533671Y-49611030D01*
X87555850Y-49621520D01*
X87576893Y-49634132D01*
X87596599Y-49648747D01*
X87614777Y-49665223D01*
X87631253Y-49683401D01*
X87645868Y-49703107D01*
X87658480Y-49724150D01*
X87668970Y-49746329D01*
X87677235Y-49769428D01*
X87683196Y-49793227D01*
X87686796Y-49817495D01*
X87688000Y-49841999D01*
X87688000Y-50742001D01*
X87686796Y-50766505D01*
X87683196Y-50790773D01*
X87677235Y-50814572D01*
X87668970Y-50837671D01*
X87658480Y-50859850D01*
X87645868Y-50880893D01*
X87631253Y-50900599D01*
X87614777Y-50918777D01*
X87596599Y-50935253D01*
X87576893Y-50949868D01*
X87555850Y-50962480D01*
X87533671Y-50972970D01*
X87510572Y-50981235D01*
X87486773Y-50987196D01*
X87462505Y-50990796D01*
X87438001Y-50992000D01*
X86787999Y-50992000D01*
X86763495Y-50990796D01*
X86739227Y-50987196D01*
X86715428Y-50981235D01*
X86692329Y-50972970D01*
X86670150Y-50962480D01*
X86649107Y-50949868D01*
X86629401Y-50935253D01*
X86611223Y-50918777D01*
X86594747Y-50900599D01*
X86580132Y-50880893D01*
X86567520Y-50859850D01*
X86557030Y-50837671D01*
X86548765Y-50814572D01*
X86542804Y-50790773D01*
X86539204Y-50766505D01*
X86538000Y-50742001D01*
X86538000Y-49841999D01*
X86539204Y-49817495D01*
X86542804Y-49793227D01*
X86548765Y-49769428D01*
X86557030Y-49746329D01*
X86567520Y-49724150D01*
X86580132Y-49703107D01*
X86594747Y-49683401D01*
X86611223Y-49665223D01*
X86629401Y-49648747D01*
X86649107Y-49634132D01*
X86670150Y-49621520D01*
X86692329Y-49611030D01*
X86715428Y-49602765D01*
X86739227Y-49596804D01*
X86763495Y-49593204D01*
X86787999Y-49592000D01*
X87438001Y-49592000D01*
X87462505Y-49593204D01*
X87462505Y-49593204D01*
G37*
D11*
X87113000Y-50292000D03*
G04 #@! TD*
M02*
