G04 #@! TF.GenerationSoftware,KiCad,Pcbnew,(5.0.2)-1*
G04 #@! TF.CreationDate,2019-09-25T20:03:45-04:00*
G04 #@! TF.ProjectId,Z80_CPU,5a38305f-4350-4552-9e6b-696361645f70,1*
G04 #@! TF.SameCoordinates,Original*
G04 #@! TF.FileFunction,Legend,Bot*
G04 #@! TF.FilePolarity,Positive*
%FSLAX46Y46*%
G04 Gerber Fmt 4.6, Leading zero omitted, Abs format (unit mm)*
G04 Created by KiCad (PCBNEW (5.0.2)-1) date 9/25/2019 8:03:45 PM*
%MOMM*%
%LPD*%
G01*
G04 APERTURE LIST*
%ADD10C,0.120000*%
%ADD11C,0.254000*%
%ADD12C,0.150000*%
G04 APERTURE END LIST*
D10*
G04 #@! TO.C,L1*
X85292000Y-48521252D02*
X85292000Y-47998748D01*
X83872000Y-48521252D02*
X83872000Y-47998748D01*
G04 #@! TO.C,C1*
X58158748Y-58495000D02*
X58681252Y-58495000D01*
X58158748Y-57075000D02*
X58681252Y-57075000D01*
G04 #@! TO.C,C2*
X72128748Y-59130000D02*
X72651252Y-59130000D01*
X72128748Y-57710000D02*
X72651252Y-57710000D01*
G04 #@! TO.C,C3*
X72763748Y-43890000D02*
X73286252Y-43890000D01*
X72763748Y-42470000D02*
X73286252Y-42470000D01*
G04 #@! TO.C,C4*
X81840000Y-48521252D02*
X81840000Y-47998748D01*
X83260000Y-48521252D02*
X83260000Y-47998748D01*
G04 #@! TO.C,C5*
X79450000Y-51173748D02*
X79450000Y-51696252D01*
X78030000Y-51173748D02*
X78030000Y-51696252D01*
G04 #@! TO.C,C6*
X16843752Y-68949500D02*
X16321248Y-68949500D01*
X16843752Y-70369500D02*
X16321248Y-70369500D01*
G04 #@! TO.C,C9*
X65031252Y-59130000D02*
X64508748Y-59130000D01*
X65031252Y-57710000D02*
X64508748Y-57710000D01*
G04 #@! TO.C,C10*
X13596252Y-46915000D02*
X13073748Y-46915000D01*
X13596252Y-48335000D02*
X13073748Y-48335000D01*
G04 #@! TO.C,C11*
X79636252Y-67385000D02*
X79113748Y-67385000D01*
X79636252Y-65965000D02*
X79113748Y-65965000D01*
G04 #@! TO.C,C12*
X65666252Y-42470000D02*
X65143748Y-42470000D01*
X65666252Y-43890000D02*
X65143748Y-43890000D01*
G04 #@! TO.C,C13*
X42283748Y-18975000D02*
X42806252Y-18975000D01*
X42283748Y-20395000D02*
X42806252Y-20395000D01*
G04 #@! TO.C,C14*
X82475000Y-31488748D02*
X82475000Y-32011252D01*
X83895000Y-31488748D02*
X83895000Y-32011252D01*
G04 #@! TO.C,C15*
X72862072Y-15642660D02*
X72339568Y-15642660D01*
X72862072Y-14222660D02*
X72339568Y-14222660D01*
G04 #@! TO.C,C17*
X68953748Y-42470000D02*
X69476252Y-42470000D01*
X68953748Y-43890000D02*
X69476252Y-43890000D01*
G04 #@! TO.C,C18*
X68318748Y-59130000D02*
X68841252Y-59130000D01*
X68318748Y-57710000D02*
X68841252Y-57710000D01*
G04 #@! TO.C,R4*
X58681252Y-61035000D02*
X58158748Y-61035000D01*
X58681252Y-59615000D02*
X58158748Y-59615000D01*
G04 #@! TO.C,R7*
X85986252Y-82625000D02*
X85463748Y-82625000D01*
X85986252Y-81205000D02*
X85463748Y-81205000D01*
G04 #@! TO.C,R1*
X79636252Y-8180000D02*
X79113748Y-8180000D01*
X79636252Y-9600000D02*
X79113748Y-9600000D01*
G04 #@! TO.C,R2*
X79636252Y-7060000D02*
X79113748Y-7060000D01*
X79636252Y-5640000D02*
X79113748Y-5640000D01*
G04 #@! TO.C,R3*
X79636252Y-3100000D02*
X79113748Y-3100000D01*
X79636252Y-4520000D02*
X79113748Y-4520000D01*
G04 #@! TO.C,C16*
X87876748Y-52780000D02*
X88399252Y-52780000D01*
X87876748Y-51360000D02*
X88399252Y-51360000D01*
G04 #@! TO.C,R8*
X88399252Y-47550000D02*
X87876748Y-47550000D01*
X88399252Y-48970000D02*
X87876748Y-48970000D01*
G04 #@! TO.C,R9*
X87876748Y-49582000D02*
X88399252Y-49582000D01*
X87876748Y-51002000D02*
X88399252Y-51002000D01*
G04 #@! TO.C,L1*
D11*
X85322833Y-46351976D02*
X85988071Y-46351976D01*
X85988071Y-44954976D01*
X84125404Y-46351976D02*
X84923690Y-46351976D01*
X84524547Y-46351976D02*
X84524547Y-44954976D01*
X84657595Y-45154547D01*
X84790642Y-45287595D01*
X84923690Y-45354119D01*
G04 #@! TO.C,C1*
X58652833Y-56378928D02*
X58719357Y-56445452D01*
X58918928Y-56511976D01*
X59051976Y-56511976D01*
X59251547Y-56445452D01*
X59384595Y-56312404D01*
X59451119Y-56179357D01*
X59517642Y-55913261D01*
X59517642Y-55713690D01*
X59451119Y-55447595D01*
X59384595Y-55314547D01*
X59251547Y-55181500D01*
X59051976Y-55114976D01*
X58918928Y-55114976D01*
X58719357Y-55181500D01*
X58652833Y-55248023D01*
X57322357Y-56511976D02*
X58120642Y-56511976D01*
X57721500Y-56511976D02*
X57721500Y-55114976D01*
X57854547Y-55314547D01*
X57987595Y-55447595D01*
X58120642Y-55514119D01*
G04 #@! TO.C,C2*
X72622833Y-57013928D02*
X72689357Y-57080452D01*
X72888928Y-57146976D01*
X73021976Y-57146976D01*
X73221547Y-57080452D01*
X73354595Y-56947404D01*
X73421119Y-56814357D01*
X73487642Y-56548261D01*
X73487642Y-56348690D01*
X73421119Y-56082595D01*
X73354595Y-55949547D01*
X73221547Y-55816500D01*
X73021976Y-55749976D01*
X72888928Y-55749976D01*
X72689357Y-55816500D01*
X72622833Y-55883023D01*
X72090642Y-55883023D02*
X72024119Y-55816500D01*
X71891071Y-55749976D01*
X71558452Y-55749976D01*
X71425404Y-55816500D01*
X71358880Y-55883023D01*
X71292357Y-56016071D01*
X71292357Y-56149119D01*
X71358880Y-56348690D01*
X72157166Y-57146976D01*
X71292357Y-57146976D01*
G04 #@! TO.C,C3*
X73257833Y-41773928D02*
X73324357Y-41840452D01*
X73523928Y-41906976D01*
X73656976Y-41906976D01*
X73856547Y-41840452D01*
X73989595Y-41707404D01*
X74056119Y-41574357D01*
X74122642Y-41308261D01*
X74122642Y-41108690D01*
X74056119Y-40842595D01*
X73989595Y-40709547D01*
X73856547Y-40576500D01*
X73656976Y-40509976D01*
X73523928Y-40509976D01*
X73324357Y-40576500D01*
X73257833Y-40643023D01*
X72792166Y-40509976D02*
X71927357Y-40509976D01*
X72393023Y-41042166D01*
X72193452Y-41042166D01*
X72060404Y-41108690D01*
X71993880Y-41175214D01*
X71927357Y-41308261D01*
X71927357Y-41640880D01*
X71993880Y-41773928D01*
X72060404Y-41840452D01*
X72193452Y-41906976D01*
X72592595Y-41906976D01*
X72725642Y-41840452D01*
X72792166Y-41773928D01*
G04 #@! TO.C,C4*
X82782833Y-46218928D02*
X82849357Y-46285452D01*
X83048928Y-46351976D01*
X83181976Y-46351976D01*
X83381547Y-46285452D01*
X83514595Y-46152404D01*
X83581119Y-46019357D01*
X83647642Y-45753261D01*
X83647642Y-45553690D01*
X83581119Y-45287595D01*
X83514595Y-45154547D01*
X83381547Y-45021500D01*
X83181976Y-44954976D01*
X83048928Y-44954976D01*
X82849357Y-45021500D01*
X82782833Y-45088023D01*
X81585404Y-45420642D02*
X81585404Y-46351976D01*
X81918023Y-44888452D02*
X82250642Y-45886309D01*
X81385833Y-45886309D01*
G04 #@! TO.C,C5*
X78972833Y-54473928D02*
X79039357Y-54540452D01*
X79238928Y-54606976D01*
X79371976Y-54606976D01*
X79571547Y-54540452D01*
X79704595Y-54407404D01*
X79771119Y-54274357D01*
X79837642Y-54008261D01*
X79837642Y-53808690D01*
X79771119Y-53542595D01*
X79704595Y-53409547D01*
X79571547Y-53276500D01*
X79371976Y-53209976D01*
X79238928Y-53209976D01*
X79039357Y-53276500D01*
X78972833Y-53343023D01*
X77708880Y-53209976D02*
X78374119Y-53209976D01*
X78440642Y-53875214D01*
X78374119Y-53808690D01*
X78241071Y-53742166D01*
X77908452Y-53742166D01*
X77775404Y-53808690D01*
X77708880Y-53875214D01*
X77642357Y-54008261D01*
X77642357Y-54340880D01*
X77708880Y-54473928D01*
X77775404Y-54540452D01*
X77908452Y-54606976D01*
X78241071Y-54606976D01*
X78374119Y-54540452D01*
X78440642Y-54473928D01*
G04 #@! TO.C,C6*
X16815333Y-72063428D02*
X16881857Y-72129952D01*
X17081428Y-72196476D01*
X17214476Y-72196476D01*
X17414047Y-72129952D01*
X17547095Y-71996904D01*
X17613619Y-71863857D01*
X17680142Y-71597761D01*
X17680142Y-71398190D01*
X17613619Y-71132095D01*
X17547095Y-70999047D01*
X17414047Y-70866000D01*
X17214476Y-70799476D01*
X17081428Y-70799476D01*
X16881857Y-70866000D01*
X16815333Y-70932523D01*
X15617904Y-70799476D02*
X15884000Y-70799476D01*
X16017047Y-70866000D01*
X16083571Y-70932523D01*
X16216619Y-71132095D01*
X16283142Y-71398190D01*
X16283142Y-71930380D01*
X16216619Y-72063428D01*
X16150095Y-72129952D01*
X16017047Y-72196476D01*
X15750952Y-72196476D01*
X15617904Y-72129952D01*
X15551380Y-72063428D01*
X15484857Y-71930380D01*
X15484857Y-71597761D01*
X15551380Y-71464714D01*
X15617904Y-71398190D01*
X15750952Y-71331666D01*
X16017047Y-71331666D01*
X16150095Y-71398190D01*
X16216619Y-71464714D01*
X16283142Y-71597761D01*
G04 #@! TO.C,C9*
X65002833Y-57268928D02*
X65069357Y-57335452D01*
X65268928Y-57401976D01*
X65401976Y-57401976D01*
X65601547Y-57335452D01*
X65734595Y-57202404D01*
X65801119Y-57069357D01*
X65867642Y-56803261D01*
X65867642Y-56603690D01*
X65801119Y-56337595D01*
X65734595Y-56204547D01*
X65601547Y-56071500D01*
X65401976Y-56004976D01*
X65268928Y-56004976D01*
X65069357Y-56071500D01*
X65002833Y-56138023D01*
X64337595Y-57401976D02*
X64071500Y-57401976D01*
X63938452Y-57335452D01*
X63871928Y-57268928D01*
X63738880Y-57069357D01*
X63672357Y-56803261D01*
X63672357Y-56271071D01*
X63738880Y-56138023D01*
X63805404Y-56071500D01*
X63938452Y-56004976D01*
X64204547Y-56004976D01*
X64337595Y-56071500D01*
X64404119Y-56138023D01*
X64470642Y-56271071D01*
X64470642Y-56603690D01*
X64404119Y-56736738D01*
X64337595Y-56803261D01*
X64204547Y-56869785D01*
X63938452Y-56869785D01*
X63805404Y-56803261D01*
X63738880Y-56736738D01*
X63672357Y-56603690D01*
G04 #@! TO.C,C10*
X14233071Y-50028928D02*
X14299595Y-50095452D01*
X14499166Y-50161976D01*
X14632214Y-50161976D01*
X14831785Y-50095452D01*
X14964833Y-49962404D01*
X15031357Y-49829357D01*
X15097880Y-49563261D01*
X15097880Y-49363690D01*
X15031357Y-49097595D01*
X14964833Y-48964547D01*
X14831785Y-48831500D01*
X14632214Y-48764976D01*
X14499166Y-48764976D01*
X14299595Y-48831500D01*
X14233071Y-48898023D01*
X12902595Y-50161976D02*
X13700880Y-50161976D01*
X13301738Y-50161976D02*
X13301738Y-48764976D01*
X13434785Y-48964547D01*
X13567833Y-49097595D01*
X13700880Y-49164119D01*
X12037785Y-48764976D02*
X11904738Y-48764976D01*
X11771690Y-48831500D01*
X11705166Y-48898023D01*
X11638642Y-49031071D01*
X11572119Y-49297166D01*
X11572119Y-49629785D01*
X11638642Y-49895880D01*
X11705166Y-50028928D01*
X11771690Y-50095452D01*
X11904738Y-50161976D01*
X12037785Y-50161976D01*
X12170833Y-50095452D01*
X12237357Y-50028928D01*
X12303880Y-49895880D01*
X12370404Y-49629785D01*
X12370404Y-49297166D01*
X12303880Y-49031071D01*
X12237357Y-48898023D01*
X12170833Y-48831500D01*
X12037785Y-48764976D01*
G04 #@! TO.C,C11*
X80273071Y-65523928D02*
X80339595Y-65590452D01*
X80539166Y-65656976D01*
X80672214Y-65656976D01*
X80871785Y-65590452D01*
X81004833Y-65457404D01*
X81071357Y-65324357D01*
X81137880Y-65058261D01*
X81137880Y-64858690D01*
X81071357Y-64592595D01*
X81004833Y-64459547D01*
X80871785Y-64326500D01*
X80672214Y-64259976D01*
X80539166Y-64259976D01*
X80339595Y-64326500D01*
X80273071Y-64393023D01*
X78942595Y-65656976D02*
X79740880Y-65656976D01*
X79341738Y-65656976D02*
X79341738Y-64259976D01*
X79474785Y-64459547D01*
X79607833Y-64592595D01*
X79740880Y-64659119D01*
X77612119Y-65656976D02*
X78410404Y-65656976D01*
X78011261Y-65656976D02*
X78011261Y-64259976D01*
X78144309Y-64459547D01*
X78277357Y-64592595D01*
X78410404Y-64659119D01*
G04 #@! TO.C,C12*
X66303071Y-41773928D02*
X66369595Y-41840452D01*
X66569166Y-41906976D01*
X66702214Y-41906976D01*
X66901785Y-41840452D01*
X67034833Y-41707404D01*
X67101357Y-41574357D01*
X67167880Y-41308261D01*
X67167880Y-41108690D01*
X67101357Y-40842595D01*
X67034833Y-40709547D01*
X66901785Y-40576500D01*
X66702214Y-40509976D01*
X66569166Y-40509976D01*
X66369595Y-40576500D01*
X66303071Y-40643023D01*
X64972595Y-41906976D02*
X65770880Y-41906976D01*
X65371738Y-41906976D02*
X65371738Y-40509976D01*
X65504785Y-40709547D01*
X65637833Y-40842595D01*
X65770880Y-40909119D01*
X64440404Y-40643023D02*
X64373880Y-40576500D01*
X64240833Y-40509976D01*
X63908214Y-40509976D01*
X63775166Y-40576500D01*
X63708642Y-40643023D01*
X63642119Y-40776071D01*
X63642119Y-40909119D01*
X63708642Y-41108690D01*
X64506928Y-41906976D01*
X63642119Y-41906976D01*
G04 #@! TO.C,C13*
X43443071Y-18278928D02*
X43509595Y-18345452D01*
X43709166Y-18411976D01*
X43842214Y-18411976D01*
X44041785Y-18345452D01*
X44174833Y-18212404D01*
X44241357Y-18079357D01*
X44307880Y-17813261D01*
X44307880Y-17613690D01*
X44241357Y-17347595D01*
X44174833Y-17214547D01*
X44041785Y-17081500D01*
X43842214Y-17014976D01*
X43709166Y-17014976D01*
X43509595Y-17081500D01*
X43443071Y-17148023D01*
X42112595Y-18411976D02*
X42910880Y-18411976D01*
X42511738Y-18411976D02*
X42511738Y-17014976D01*
X42644785Y-17214547D01*
X42777833Y-17347595D01*
X42910880Y-17414119D01*
X41646928Y-17014976D02*
X40782119Y-17014976D01*
X41247785Y-17547166D01*
X41048214Y-17547166D01*
X40915166Y-17613690D01*
X40848642Y-17680214D01*
X40782119Y-17813261D01*
X40782119Y-18145880D01*
X40848642Y-18278928D01*
X40915166Y-18345452D01*
X41048214Y-18411976D01*
X41447357Y-18411976D01*
X41580404Y-18345452D01*
X41646928Y-18278928D01*
G04 #@! TO.C,C14*
X84083071Y-34788928D02*
X84149595Y-34855452D01*
X84349166Y-34921976D01*
X84482214Y-34921976D01*
X84681785Y-34855452D01*
X84814833Y-34722404D01*
X84881357Y-34589357D01*
X84947880Y-34323261D01*
X84947880Y-34123690D01*
X84881357Y-33857595D01*
X84814833Y-33724547D01*
X84681785Y-33591500D01*
X84482214Y-33524976D01*
X84349166Y-33524976D01*
X84149595Y-33591500D01*
X84083071Y-33658023D01*
X82752595Y-34921976D02*
X83550880Y-34921976D01*
X83151738Y-34921976D02*
X83151738Y-33524976D01*
X83284785Y-33724547D01*
X83417833Y-33857595D01*
X83550880Y-33924119D01*
X81555166Y-33990642D02*
X81555166Y-34921976D01*
X81887785Y-33458452D02*
X82220404Y-34456309D01*
X81355595Y-34456309D01*
G04 #@! TO.C,C15*
X74641891Y-15830731D02*
X74575367Y-15897255D01*
X74508843Y-16096826D01*
X74508843Y-16229874D01*
X74575367Y-16429445D01*
X74708415Y-16562493D01*
X74841462Y-16629017D01*
X75107558Y-16695540D01*
X75307129Y-16695540D01*
X75573224Y-16629017D01*
X75706272Y-16562493D01*
X75839320Y-16429445D01*
X75905843Y-16229874D01*
X75905843Y-16096826D01*
X75839320Y-15897255D01*
X75772796Y-15830731D01*
X74508843Y-14500255D02*
X74508843Y-15298540D01*
X74508843Y-14899398D02*
X75905843Y-14899398D01*
X75706272Y-15032445D01*
X75573224Y-15165493D01*
X75506700Y-15298540D01*
X75905843Y-13236302D02*
X75905843Y-13901540D01*
X75240605Y-13968064D01*
X75307129Y-13901540D01*
X75373653Y-13768493D01*
X75373653Y-13435874D01*
X75307129Y-13302826D01*
X75240605Y-13236302D01*
X75107558Y-13169779D01*
X74774939Y-13169779D01*
X74641891Y-13236302D01*
X74575367Y-13302826D01*
X74508843Y-13435874D01*
X74508843Y-13768493D01*
X74575367Y-13901540D01*
X74641891Y-13968064D01*
G04 #@! TO.C,C17*
X70113071Y-41773928D02*
X70179595Y-41840452D01*
X70379166Y-41906976D01*
X70512214Y-41906976D01*
X70711785Y-41840452D01*
X70844833Y-41707404D01*
X70911357Y-41574357D01*
X70977880Y-41308261D01*
X70977880Y-41108690D01*
X70911357Y-40842595D01*
X70844833Y-40709547D01*
X70711785Y-40576500D01*
X70512214Y-40509976D01*
X70379166Y-40509976D01*
X70179595Y-40576500D01*
X70113071Y-40643023D01*
X68782595Y-41906976D02*
X69580880Y-41906976D01*
X69181738Y-41906976D02*
X69181738Y-40509976D01*
X69314785Y-40709547D01*
X69447833Y-40842595D01*
X69580880Y-40909119D01*
X68316928Y-40509976D02*
X67385595Y-40509976D01*
X67984309Y-41906976D01*
G04 #@! TO.C,C18*
X69478071Y-57013928D02*
X69544595Y-57080452D01*
X69744166Y-57146976D01*
X69877214Y-57146976D01*
X70076785Y-57080452D01*
X70209833Y-56947404D01*
X70276357Y-56814357D01*
X70342880Y-56548261D01*
X70342880Y-56348690D01*
X70276357Y-56082595D01*
X70209833Y-55949547D01*
X70076785Y-55816500D01*
X69877214Y-55749976D01*
X69744166Y-55749976D01*
X69544595Y-55816500D01*
X69478071Y-55883023D01*
X68147595Y-57146976D02*
X68945880Y-57146976D01*
X68546738Y-57146976D02*
X68546738Y-55749976D01*
X68679785Y-55949547D01*
X68812833Y-56082595D01*
X68945880Y-56149119D01*
X67349309Y-56348690D02*
X67482357Y-56282166D01*
X67548880Y-56215642D01*
X67615404Y-56082595D01*
X67615404Y-56016071D01*
X67548880Y-55883023D01*
X67482357Y-55816500D01*
X67349309Y-55749976D01*
X67083214Y-55749976D01*
X66950166Y-55816500D01*
X66883642Y-55883023D01*
X66817119Y-56016071D01*
X66817119Y-56082595D01*
X66883642Y-56215642D01*
X66950166Y-56282166D01*
X67083214Y-56348690D01*
X67349309Y-56348690D01*
X67482357Y-56415214D01*
X67548880Y-56481738D01*
X67615404Y-56614785D01*
X67615404Y-56880880D01*
X67548880Y-57013928D01*
X67482357Y-57080452D01*
X67349309Y-57146976D01*
X67083214Y-57146976D01*
X66950166Y-57080452D01*
X66883642Y-57013928D01*
X66817119Y-56880880D01*
X66817119Y-56614785D01*
X66883642Y-56481738D01*
X66950166Y-56415214D01*
X67083214Y-56348690D01*
G04 #@! TO.C,R4*
X58652833Y-62861976D02*
X59118500Y-62196738D01*
X59451119Y-62861976D02*
X59451119Y-61464976D01*
X58918928Y-61464976D01*
X58785880Y-61531500D01*
X58719357Y-61598023D01*
X58652833Y-61731071D01*
X58652833Y-61930642D01*
X58719357Y-62063690D01*
X58785880Y-62130214D01*
X58918928Y-62196738D01*
X59451119Y-62196738D01*
X57455404Y-61930642D02*
X57455404Y-62861976D01*
X57788023Y-61398452D02*
X58120642Y-62396309D01*
X57255833Y-62396309D01*
G04 #@! TO.C,R7*
X85957833Y-80641976D02*
X86423500Y-79976738D01*
X86756119Y-80641976D02*
X86756119Y-79244976D01*
X86223928Y-79244976D01*
X86090880Y-79311500D01*
X86024357Y-79378023D01*
X85957833Y-79511071D01*
X85957833Y-79710642D01*
X86024357Y-79843690D01*
X86090880Y-79910214D01*
X86223928Y-79976738D01*
X86756119Y-79976738D01*
X85492166Y-79244976D02*
X84560833Y-79244976D01*
X85159547Y-80641976D01*
G04 #@! TO.C,R1*
D12*
X79541666Y-7692380D02*
X79875000Y-7216190D01*
X80113095Y-7692380D02*
X80113095Y-6692380D01*
X79732142Y-6692380D01*
X79636904Y-6740000D01*
X79589285Y-6787619D01*
X79541666Y-6882857D01*
X79541666Y-7025714D01*
X79589285Y-7120952D01*
X79636904Y-7168571D01*
X79732142Y-7216190D01*
X80113095Y-7216190D01*
X78589285Y-7692380D02*
X79160714Y-7692380D01*
X78875000Y-7692380D02*
X78875000Y-6692380D01*
X78970238Y-6835238D01*
X79065476Y-6930476D01*
X79160714Y-6978095D01*
G04 #@! TO.C,R2*
X79541666Y-5152380D02*
X79875000Y-4676190D01*
X80113095Y-5152380D02*
X80113095Y-4152380D01*
X79732142Y-4152380D01*
X79636904Y-4200000D01*
X79589285Y-4247619D01*
X79541666Y-4342857D01*
X79541666Y-4485714D01*
X79589285Y-4580952D01*
X79636904Y-4628571D01*
X79732142Y-4676190D01*
X80113095Y-4676190D01*
X79160714Y-4247619D02*
X79113095Y-4200000D01*
X79017857Y-4152380D01*
X78779761Y-4152380D01*
X78684523Y-4200000D01*
X78636904Y-4247619D01*
X78589285Y-4342857D01*
X78589285Y-4438095D01*
X78636904Y-4580952D01*
X79208333Y-5152380D01*
X78589285Y-5152380D01*
G04 #@! TO.C,R3*
X79541666Y-2612380D02*
X79875000Y-2136190D01*
X80113095Y-2612380D02*
X80113095Y-1612380D01*
X79732142Y-1612380D01*
X79636904Y-1660000D01*
X79589285Y-1707619D01*
X79541666Y-1802857D01*
X79541666Y-1945714D01*
X79589285Y-2040952D01*
X79636904Y-2088571D01*
X79732142Y-2136190D01*
X80113095Y-2136190D01*
X79208333Y-1612380D02*
X78589285Y-1612380D01*
X78922619Y-1993333D01*
X78779761Y-1993333D01*
X78684523Y-2040952D01*
X78636904Y-2088571D01*
X78589285Y-2183809D01*
X78589285Y-2421904D01*
X78636904Y-2517142D01*
X78684523Y-2564761D01*
X78779761Y-2612380D01*
X79065476Y-2612380D01*
X79160714Y-2564761D01*
X79208333Y-2517142D01*
G04 #@! TO.C,C16*
X91035142Y-51427142D02*
X91082761Y-51379523D01*
X91130380Y-51236666D01*
X91130380Y-51141428D01*
X91082761Y-50998571D01*
X90987523Y-50903333D01*
X90892285Y-50855714D01*
X90701809Y-50808095D01*
X90558952Y-50808095D01*
X90368476Y-50855714D01*
X90273238Y-50903333D01*
X90178000Y-50998571D01*
X90130380Y-51141428D01*
X90130380Y-51236666D01*
X90178000Y-51379523D01*
X90225619Y-51427142D01*
X91130380Y-52379523D02*
X91130380Y-51808095D01*
X91130380Y-52093809D02*
X90130380Y-52093809D01*
X90273238Y-51998571D01*
X90368476Y-51903333D01*
X90416095Y-51808095D01*
X90130380Y-53236666D02*
X90130380Y-53046190D01*
X90178000Y-52950952D01*
X90225619Y-52903333D01*
X90368476Y-52808095D01*
X90558952Y-52760476D01*
X90939904Y-52760476D01*
X91035142Y-52808095D01*
X91082761Y-52855714D01*
X91130380Y-52950952D01*
X91130380Y-53141428D01*
X91082761Y-53236666D01*
X91035142Y-53284285D01*
X90939904Y-53331904D01*
X90701809Y-53331904D01*
X90606571Y-53284285D01*
X90558952Y-53236666D01*
X90511333Y-53141428D01*
X90511333Y-52950952D01*
X90558952Y-52855714D01*
X90606571Y-52808095D01*
X90701809Y-52760476D01*
G04 #@! TO.C,R8*
X88304666Y-47188380D02*
X88638000Y-46712190D01*
X88876095Y-47188380D02*
X88876095Y-46188380D01*
X88495142Y-46188380D01*
X88399904Y-46236000D01*
X88352285Y-46283619D01*
X88304666Y-46378857D01*
X88304666Y-46521714D01*
X88352285Y-46616952D01*
X88399904Y-46664571D01*
X88495142Y-46712190D01*
X88876095Y-46712190D01*
X87733238Y-46616952D02*
X87828476Y-46569333D01*
X87876095Y-46521714D01*
X87923714Y-46426476D01*
X87923714Y-46378857D01*
X87876095Y-46283619D01*
X87828476Y-46236000D01*
X87733238Y-46188380D01*
X87542761Y-46188380D01*
X87447523Y-46236000D01*
X87399904Y-46283619D01*
X87352285Y-46378857D01*
X87352285Y-46426476D01*
X87399904Y-46521714D01*
X87447523Y-46569333D01*
X87542761Y-46616952D01*
X87733238Y-46616952D01*
X87828476Y-46664571D01*
X87876095Y-46712190D01*
X87923714Y-46807428D01*
X87923714Y-46997904D01*
X87876095Y-47093142D01*
X87828476Y-47140761D01*
X87733238Y-47188380D01*
X87542761Y-47188380D01*
X87447523Y-47140761D01*
X87399904Y-47093142D01*
X87352285Y-46997904D01*
X87352285Y-46807428D01*
X87399904Y-46712190D01*
X87447523Y-46664571D01*
X87542761Y-46616952D01*
G04 #@! TO.C,R9*
X91098666Y-50744380D02*
X91432000Y-50268190D01*
X91670095Y-50744380D02*
X91670095Y-49744380D01*
X91289142Y-49744380D01*
X91193904Y-49792000D01*
X91146285Y-49839619D01*
X91098666Y-49934857D01*
X91098666Y-50077714D01*
X91146285Y-50172952D01*
X91193904Y-50220571D01*
X91289142Y-50268190D01*
X91670095Y-50268190D01*
X90622476Y-50744380D02*
X90432000Y-50744380D01*
X90336761Y-50696761D01*
X90289142Y-50649142D01*
X90193904Y-50506285D01*
X90146285Y-50315809D01*
X90146285Y-49934857D01*
X90193904Y-49839619D01*
X90241523Y-49792000D01*
X90336761Y-49744380D01*
X90527238Y-49744380D01*
X90622476Y-49792000D01*
X90670095Y-49839619D01*
X90717714Y-49934857D01*
X90717714Y-50172952D01*
X90670095Y-50268190D01*
X90622476Y-50315809D01*
X90527238Y-50363428D01*
X90336761Y-50363428D01*
X90241523Y-50315809D01*
X90193904Y-50268190D01*
X90146285Y-50172952D01*
G04 #@! TD*
M02*
