G04 #@! TF.GenerationSoftware,KiCad,Pcbnew,(5.0.2)-1*
G04 #@! TF.CreationDate,2019-10-04T18:50:56-04:00*
G04 #@! TF.ProjectId,Z80_CPU,5a38305f-4350-4552-9e6b-696361645f70,1*
G04 #@! TF.SameCoordinates,Original*
G04 #@! TF.FileFunction,Legend,Bot*
G04 #@! TF.FilePolarity,Positive*
%FSLAX46Y46*%
G04 Gerber Fmt 4.6, Leading zero omitted, Abs format (unit mm)*
G04 Created by KiCad (PCBNEW (5.0.2)-1) date 10/4/2019 6:50:56 PM*
%MOMM*%
%LPD*%
G01*
G04 APERTURE LIST*
%ADD10C,0.793750*%
%ADD11C,0.120000*%
%ADD12C,0.254000*%
G04 APERTURE END LIST*
D10*
X71591714Y-91098309D02*
X72650047Y-89586404D01*
X73406000Y-91098309D02*
X73406000Y-87923309D01*
X72196476Y-87923309D01*
X71894095Y-88074500D01*
X71742904Y-88225690D01*
X71591714Y-88528071D01*
X71591714Y-88981642D01*
X71742904Y-89284023D01*
X71894095Y-89435214D01*
X72196476Y-89586404D01*
X73406000Y-89586404D01*
X70231000Y-89435214D02*
X69172666Y-89435214D01*
X68719095Y-91098309D02*
X70231000Y-91098309D01*
X70231000Y-87923309D01*
X68719095Y-87923309D01*
X67811952Y-87923309D02*
X66753619Y-91098309D01*
X65695285Y-87923309D01*
X62369095Y-88225690D02*
X62217904Y-88074500D01*
X61915523Y-87923309D01*
X61159571Y-87923309D01*
X60857190Y-88074500D01*
X60706000Y-88225690D01*
X60554809Y-88528071D01*
X60554809Y-88830452D01*
X60706000Y-89284023D01*
X62520285Y-91098309D01*
X60554809Y-91098309D01*
D11*
G04 #@! TO.C,L1*
X85292000Y-48521252D02*
X85292000Y-47998748D01*
X83872000Y-48521252D02*
X83872000Y-47998748D01*
G04 #@! TO.C,C1*
X58158748Y-58495000D02*
X58681252Y-58495000D01*
X58158748Y-57075000D02*
X58681252Y-57075000D01*
G04 #@! TO.C,C2*
X72128748Y-59130000D02*
X72651252Y-59130000D01*
X72128748Y-57710000D02*
X72651252Y-57710000D01*
G04 #@! TO.C,C3*
X72763748Y-43890000D02*
X73286252Y-43890000D01*
X72763748Y-42470000D02*
X73286252Y-42470000D01*
G04 #@! TO.C,C4*
X81840000Y-48521252D02*
X81840000Y-47998748D01*
X83260000Y-48521252D02*
X83260000Y-47998748D01*
G04 #@! TO.C,C5*
X79450000Y-51173748D02*
X79450000Y-51696252D01*
X78030000Y-51173748D02*
X78030000Y-51696252D01*
G04 #@! TO.C,C6*
X16843752Y-68949500D02*
X16321248Y-68949500D01*
X16843752Y-70369500D02*
X16321248Y-70369500D01*
G04 #@! TO.C,C9*
X65031252Y-59130000D02*
X64508748Y-59130000D01*
X65031252Y-57710000D02*
X64508748Y-57710000D01*
G04 #@! TO.C,C10*
X13596252Y-46915000D02*
X13073748Y-46915000D01*
X13596252Y-48335000D02*
X13073748Y-48335000D01*
G04 #@! TO.C,C11*
X79636252Y-67385000D02*
X79113748Y-67385000D01*
X79636252Y-65965000D02*
X79113748Y-65965000D01*
G04 #@! TO.C,C12*
X65666252Y-42470000D02*
X65143748Y-42470000D01*
X65666252Y-43890000D02*
X65143748Y-43890000D01*
G04 #@! TO.C,C13*
X42283748Y-18975000D02*
X42806252Y-18975000D01*
X42283748Y-20395000D02*
X42806252Y-20395000D01*
G04 #@! TO.C,C14*
X82475000Y-31488748D02*
X82475000Y-32011252D01*
X83895000Y-31488748D02*
X83895000Y-32011252D01*
G04 #@! TO.C,C15*
X72862072Y-15642660D02*
X72339568Y-15642660D01*
X72862072Y-14222660D02*
X72339568Y-14222660D01*
G04 #@! TO.C,C17*
X68953748Y-42470000D02*
X69476252Y-42470000D01*
X68953748Y-43890000D02*
X69476252Y-43890000D01*
G04 #@! TO.C,C18*
X68318748Y-59130000D02*
X68841252Y-59130000D01*
X68318748Y-57710000D02*
X68841252Y-57710000D01*
G04 #@! TO.C,R4*
X58681252Y-61035000D02*
X58158748Y-61035000D01*
X58681252Y-59615000D02*
X58158748Y-59615000D01*
G04 #@! TO.C,R7*
X85986252Y-82625000D02*
X85463748Y-82625000D01*
X85986252Y-81205000D02*
X85463748Y-81205000D01*
G04 #@! TO.C,R1*
X79636252Y-8180000D02*
X79113748Y-8180000D01*
X79636252Y-9600000D02*
X79113748Y-9600000D01*
G04 #@! TO.C,R2*
X79636252Y-7060000D02*
X79113748Y-7060000D01*
X79636252Y-5640000D02*
X79113748Y-5640000D01*
G04 #@! TO.C,R3*
X79636252Y-3100000D02*
X79113748Y-3100000D01*
X79636252Y-4520000D02*
X79113748Y-4520000D01*
G04 #@! TO.C,C16*
X87876748Y-52780000D02*
X88399252Y-52780000D01*
X87876748Y-51360000D02*
X88399252Y-51360000D01*
G04 #@! TO.C,R8*
X88399252Y-47550000D02*
X87876748Y-47550000D01*
X88399252Y-48970000D02*
X87876748Y-48970000D01*
G04 #@! TO.C,R9*
X87876748Y-49582000D02*
X88399252Y-49582000D01*
X87876748Y-51002000D02*
X88399252Y-51002000D01*
G04 #@! TO.C,L1*
D12*
X85213976Y-44958000D02*
X85213976Y-44232285D01*
X83816976Y-44232285D01*
X85213976Y-46264285D02*
X85213976Y-45393428D01*
X85213976Y-45828857D02*
X83816976Y-45828857D01*
X84016547Y-45683714D01*
X84149595Y-45538571D01*
X84216119Y-45393428D01*
G04 #@! TO.C,C1*
X58674000Y-56124928D02*
X58746571Y-56191452D01*
X58964285Y-56257976D01*
X59109428Y-56257976D01*
X59327142Y-56191452D01*
X59472285Y-56058404D01*
X59544857Y-55925357D01*
X59617428Y-55659261D01*
X59617428Y-55459690D01*
X59544857Y-55193595D01*
X59472285Y-55060547D01*
X59327142Y-54927500D01*
X59109428Y-54860976D01*
X58964285Y-54860976D01*
X58746571Y-54927500D01*
X58674000Y-54994023D01*
X57222571Y-56257976D02*
X58093428Y-56257976D01*
X57658000Y-56257976D02*
X57658000Y-54860976D01*
X57803142Y-55060547D01*
X57948285Y-55193595D01*
X58093428Y-55260119D01*
G04 #@! TO.C,C2*
X75682928Y-58420000D02*
X75749452Y-58347428D01*
X75815976Y-58129714D01*
X75815976Y-57984571D01*
X75749452Y-57766857D01*
X75616404Y-57621714D01*
X75483357Y-57549142D01*
X75217261Y-57476571D01*
X75017690Y-57476571D01*
X74751595Y-57549142D01*
X74618547Y-57621714D01*
X74485500Y-57766857D01*
X74418976Y-57984571D01*
X74418976Y-58129714D01*
X74485500Y-58347428D01*
X74552023Y-58420000D01*
X74552023Y-59000571D02*
X74485500Y-59073142D01*
X74418976Y-59218285D01*
X74418976Y-59581142D01*
X74485500Y-59726285D01*
X74552023Y-59798857D01*
X74685071Y-59871428D01*
X74818119Y-59871428D01*
X75017690Y-59798857D01*
X75815976Y-58928000D01*
X75815976Y-59871428D01*
G04 #@! TO.C,C3*
X76454000Y-43678928D02*
X76526571Y-43745452D01*
X76744285Y-43811976D01*
X76889428Y-43811976D01*
X77107142Y-43745452D01*
X77252285Y-43612404D01*
X77324857Y-43479357D01*
X77397428Y-43213261D01*
X77397428Y-43013690D01*
X77324857Y-42747595D01*
X77252285Y-42614547D01*
X77107142Y-42481500D01*
X76889428Y-42414976D01*
X76744285Y-42414976D01*
X76526571Y-42481500D01*
X76454000Y-42548023D01*
X75946000Y-42414976D02*
X75002571Y-42414976D01*
X75510571Y-42947166D01*
X75292857Y-42947166D01*
X75147714Y-43013690D01*
X75075142Y-43080214D01*
X75002571Y-43213261D01*
X75002571Y-43545880D01*
X75075142Y-43678928D01*
X75147714Y-43745452D01*
X75292857Y-43811976D01*
X75728285Y-43811976D01*
X75873428Y-43745452D01*
X75946000Y-43678928D01*
G04 #@! TO.C,C4*
X83048928Y-44704000D02*
X83115452Y-44631428D01*
X83181976Y-44413714D01*
X83181976Y-44268571D01*
X83115452Y-44050857D01*
X82982404Y-43905714D01*
X82849357Y-43833142D01*
X82583261Y-43760571D01*
X82383690Y-43760571D01*
X82117595Y-43833142D01*
X81984547Y-43905714D01*
X81851500Y-44050857D01*
X81784976Y-44268571D01*
X81784976Y-44413714D01*
X81851500Y-44631428D01*
X81918023Y-44704000D01*
X82250642Y-46010285D02*
X83181976Y-46010285D01*
X81718452Y-45647428D02*
X82716309Y-45284571D01*
X82716309Y-46228000D01*
G04 #@! TO.C,C5*
X76708000Y-53076928D02*
X76780571Y-53143452D01*
X76998285Y-53209976D01*
X77143428Y-53209976D01*
X77361142Y-53143452D01*
X77506285Y-53010404D01*
X77578857Y-52877357D01*
X77651428Y-52611261D01*
X77651428Y-52411690D01*
X77578857Y-52145595D01*
X77506285Y-52012547D01*
X77361142Y-51879500D01*
X77143428Y-51812976D01*
X76998285Y-51812976D01*
X76780571Y-51879500D01*
X76708000Y-51946023D01*
X75329142Y-51812976D02*
X76054857Y-51812976D01*
X76127428Y-52478214D01*
X76054857Y-52411690D01*
X75909714Y-52345166D01*
X75546857Y-52345166D01*
X75401714Y-52411690D01*
X75329142Y-52478214D01*
X75256571Y-52611261D01*
X75256571Y-52943880D01*
X75329142Y-53076928D01*
X75401714Y-53143452D01*
X75546857Y-53209976D01*
X75909714Y-53209976D01*
X76054857Y-53143452D01*
X76127428Y-53076928D01*
G04 #@! TO.C,C6*
X16836500Y-68062928D02*
X16909071Y-68129452D01*
X17126785Y-68195976D01*
X17271928Y-68195976D01*
X17489642Y-68129452D01*
X17634785Y-67996404D01*
X17707357Y-67863357D01*
X17779928Y-67597261D01*
X17779928Y-67397690D01*
X17707357Y-67131595D01*
X17634785Y-66998547D01*
X17489642Y-66865500D01*
X17271928Y-66798976D01*
X17126785Y-66798976D01*
X16909071Y-66865500D01*
X16836500Y-66932023D01*
X15530214Y-66798976D02*
X15820500Y-66798976D01*
X15965642Y-66865500D01*
X16038214Y-66932023D01*
X16183357Y-67131595D01*
X16255928Y-67397690D01*
X16255928Y-67929880D01*
X16183357Y-68062928D01*
X16110785Y-68129452D01*
X15965642Y-68195976D01*
X15675357Y-68195976D01*
X15530214Y-68129452D01*
X15457642Y-68062928D01*
X15385071Y-67929880D01*
X15385071Y-67597261D01*
X15457642Y-67464214D01*
X15530214Y-67397690D01*
X15675357Y-67331166D01*
X15965642Y-67331166D01*
X16110785Y-67397690D01*
X16183357Y-67464214D01*
X16255928Y-67597261D01*
G04 #@! TO.C,C9*
X65024000Y-57394928D02*
X65096571Y-57461452D01*
X65314285Y-57527976D01*
X65459428Y-57527976D01*
X65677142Y-57461452D01*
X65822285Y-57328404D01*
X65894857Y-57195357D01*
X65967428Y-56929261D01*
X65967428Y-56729690D01*
X65894857Y-56463595D01*
X65822285Y-56330547D01*
X65677142Y-56197500D01*
X65459428Y-56130976D01*
X65314285Y-56130976D01*
X65096571Y-56197500D01*
X65024000Y-56264023D01*
X64298285Y-57527976D02*
X64008000Y-57527976D01*
X63862857Y-57461452D01*
X63790285Y-57394928D01*
X63645142Y-57195357D01*
X63572571Y-56929261D01*
X63572571Y-56397071D01*
X63645142Y-56264023D01*
X63717714Y-56197500D01*
X63862857Y-56130976D01*
X64153142Y-56130976D01*
X64298285Y-56197500D01*
X64370857Y-56264023D01*
X64443428Y-56397071D01*
X64443428Y-56729690D01*
X64370857Y-56862738D01*
X64298285Y-56929261D01*
X64153142Y-56995785D01*
X63862857Y-56995785D01*
X63717714Y-56929261D01*
X63645142Y-56862738D01*
X63572571Y-56729690D01*
G04 #@! TO.C,C10*
X14187714Y-45964928D02*
X14260285Y-46031452D01*
X14478000Y-46097976D01*
X14623142Y-46097976D01*
X14840857Y-46031452D01*
X14986000Y-45898404D01*
X15058571Y-45765357D01*
X15131142Y-45499261D01*
X15131142Y-45299690D01*
X15058571Y-45033595D01*
X14986000Y-44900547D01*
X14840857Y-44767500D01*
X14623142Y-44700976D01*
X14478000Y-44700976D01*
X14260285Y-44767500D01*
X14187714Y-44834023D01*
X12736285Y-46097976D02*
X13607142Y-46097976D01*
X13171714Y-46097976D02*
X13171714Y-44700976D01*
X13316857Y-44900547D01*
X13462000Y-45033595D01*
X13607142Y-45100119D01*
X11792857Y-44700976D02*
X11647714Y-44700976D01*
X11502571Y-44767500D01*
X11430000Y-44834023D01*
X11357428Y-44967071D01*
X11284857Y-45233166D01*
X11284857Y-45565785D01*
X11357428Y-45831880D01*
X11430000Y-45964928D01*
X11502571Y-46031452D01*
X11647714Y-46097976D01*
X11792857Y-46097976D01*
X11938000Y-46031452D01*
X12010571Y-45964928D01*
X12083142Y-45831880D01*
X12155714Y-45565785D01*
X12155714Y-45233166D01*
X12083142Y-44967071D01*
X12010571Y-44834023D01*
X11938000Y-44767500D01*
X11792857Y-44700976D01*
G04 #@! TO.C,C11*
X80354714Y-65268928D02*
X80427285Y-65335452D01*
X80645000Y-65401976D01*
X80790142Y-65401976D01*
X81007857Y-65335452D01*
X81153000Y-65202404D01*
X81225571Y-65069357D01*
X81298142Y-64803261D01*
X81298142Y-64603690D01*
X81225571Y-64337595D01*
X81153000Y-64204547D01*
X81007857Y-64071500D01*
X80790142Y-64004976D01*
X80645000Y-64004976D01*
X80427285Y-64071500D01*
X80354714Y-64138023D01*
X78903285Y-65401976D02*
X79774142Y-65401976D01*
X79338714Y-65401976D02*
X79338714Y-64004976D01*
X79483857Y-64204547D01*
X79629000Y-64337595D01*
X79774142Y-64404119D01*
X77451857Y-65401976D02*
X78322714Y-65401976D01*
X77887285Y-65401976D02*
X77887285Y-64004976D01*
X78032428Y-64204547D01*
X78177571Y-64337595D01*
X78322714Y-64404119D01*
G04 #@! TO.C,C12*
X66257714Y-41646928D02*
X66330285Y-41713452D01*
X66548000Y-41779976D01*
X66693142Y-41779976D01*
X66910857Y-41713452D01*
X67056000Y-41580404D01*
X67128571Y-41447357D01*
X67201142Y-41181261D01*
X67201142Y-40981690D01*
X67128571Y-40715595D01*
X67056000Y-40582547D01*
X66910857Y-40449500D01*
X66693142Y-40382976D01*
X66548000Y-40382976D01*
X66330285Y-40449500D01*
X66257714Y-40516023D01*
X64806285Y-41779976D02*
X65677142Y-41779976D01*
X65241714Y-41779976D02*
X65241714Y-40382976D01*
X65386857Y-40582547D01*
X65532000Y-40715595D01*
X65677142Y-40782119D01*
X64225714Y-40516023D02*
X64153142Y-40449500D01*
X64008000Y-40382976D01*
X63645142Y-40382976D01*
X63500000Y-40449500D01*
X63427428Y-40516023D01*
X63354857Y-40649071D01*
X63354857Y-40782119D01*
X63427428Y-40981690D01*
X64298285Y-41779976D01*
X63354857Y-41779976D01*
G04 #@! TO.C,C13*
X43524714Y-18278928D02*
X43597285Y-18345452D01*
X43815000Y-18411976D01*
X43960142Y-18411976D01*
X44177857Y-18345452D01*
X44323000Y-18212404D01*
X44395571Y-18079357D01*
X44468142Y-17813261D01*
X44468142Y-17613690D01*
X44395571Y-17347595D01*
X44323000Y-17214547D01*
X44177857Y-17081500D01*
X43960142Y-17014976D01*
X43815000Y-17014976D01*
X43597285Y-17081500D01*
X43524714Y-17148023D01*
X42073285Y-18411976D02*
X42944142Y-18411976D01*
X42508714Y-18411976D02*
X42508714Y-17014976D01*
X42653857Y-17214547D01*
X42799000Y-17347595D01*
X42944142Y-17414119D01*
X41565285Y-17014976D02*
X40621857Y-17014976D01*
X41129857Y-17547166D01*
X40912142Y-17547166D01*
X40767000Y-17613690D01*
X40694428Y-17680214D01*
X40621857Y-17813261D01*
X40621857Y-18145880D01*
X40694428Y-18278928D01*
X40767000Y-18345452D01*
X40912142Y-18411976D01*
X41347571Y-18411976D01*
X41492714Y-18345452D01*
X41565285Y-18278928D01*
G04 #@! TO.C,C14*
X81778928Y-30770285D02*
X81845452Y-30697714D01*
X81911976Y-30480000D01*
X81911976Y-30334857D01*
X81845452Y-30117142D01*
X81712404Y-29972000D01*
X81579357Y-29899428D01*
X81313261Y-29826857D01*
X81113690Y-29826857D01*
X80847595Y-29899428D01*
X80714547Y-29972000D01*
X80581500Y-30117142D01*
X80514976Y-30334857D01*
X80514976Y-30480000D01*
X80581500Y-30697714D01*
X80648023Y-30770285D01*
X81911976Y-32221714D02*
X81911976Y-31350857D01*
X81911976Y-31786285D02*
X80514976Y-31786285D01*
X80714547Y-31641142D01*
X80847595Y-31496000D01*
X80914119Y-31350857D01*
X80980642Y-33528000D02*
X81911976Y-33528000D01*
X80448452Y-33165142D02*
X81446309Y-32802285D01*
X81446309Y-33745714D01*
G04 #@! TO.C,C15*
X75147714Y-17262928D02*
X75220285Y-17329452D01*
X75438000Y-17395976D01*
X75583142Y-17395976D01*
X75800857Y-17329452D01*
X75946000Y-17196404D01*
X76018571Y-17063357D01*
X76091142Y-16797261D01*
X76091142Y-16597690D01*
X76018571Y-16331595D01*
X75946000Y-16198547D01*
X75800857Y-16065500D01*
X75583142Y-15998976D01*
X75438000Y-15998976D01*
X75220285Y-16065500D01*
X75147714Y-16132023D01*
X73696285Y-17395976D02*
X74567142Y-17395976D01*
X74131714Y-17395976D02*
X74131714Y-15998976D01*
X74276857Y-16198547D01*
X74422000Y-16331595D01*
X74567142Y-16398119D01*
X72317428Y-15998976D02*
X73043142Y-15998976D01*
X73115714Y-16664214D01*
X73043142Y-16597690D01*
X72898000Y-16531166D01*
X72535142Y-16531166D01*
X72390000Y-16597690D01*
X72317428Y-16664214D01*
X72244857Y-16797261D01*
X72244857Y-17129880D01*
X72317428Y-17262928D01*
X72390000Y-17329452D01*
X72535142Y-17395976D01*
X72898000Y-17395976D01*
X73043142Y-17329452D01*
X73115714Y-17262928D01*
G04 #@! TO.C,C17*
X70194714Y-46472928D02*
X70267285Y-46539452D01*
X70485000Y-46605976D01*
X70630142Y-46605976D01*
X70847857Y-46539452D01*
X70993000Y-46406404D01*
X71065571Y-46273357D01*
X71138142Y-46007261D01*
X71138142Y-45807690D01*
X71065571Y-45541595D01*
X70993000Y-45408547D01*
X70847857Y-45275500D01*
X70630142Y-45208976D01*
X70485000Y-45208976D01*
X70267285Y-45275500D01*
X70194714Y-45342023D01*
X68743285Y-46605976D02*
X69614142Y-46605976D01*
X69178714Y-46605976D02*
X69178714Y-45208976D01*
X69323857Y-45408547D01*
X69469000Y-45541595D01*
X69614142Y-45608119D01*
X68235285Y-45208976D02*
X67219285Y-45208976D01*
X67872428Y-46605976D01*
G04 #@! TO.C,C18*
X69559714Y-55870928D02*
X69632285Y-55937452D01*
X69850000Y-56003976D01*
X69995142Y-56003976D01*
X70212857Y-55937452D01*
X70358000Y-55804404D01*
X70430571Y-55671357D01*
X70503142Y-55405261D01*
X70503142Y-55205690D01*
X70430571Y-54939595D01*
X70358000Y-54806547D01*
X70212857Y-54673500D01*
X69995142Y-54606976D01*
X69850000Y-54606976D01*
X69632285Y-54673500D01*
X69559714Y-54740023D01*
X68108285Y-56003976D02*
X68979142Y-56003976D01*
X68543714Y-56003976D02*
X68543714Y-54606976D01*
X68688857Y-54806547D01*
X68834000Y-54939595D01*
X68979142Y-55006119D01*
X67237428Y-55205690D02*
X67382571Y-55139166D01*
X67455142Y-55072642D01*
X67527714Y-54939595D01*
X67527714Y-54873071D01*
X67455142Y-54740023D01*
X67382571Y-54673500D01*
X67237428Y-54606976D01*
X66947142Y-54606976D01*
X66802000Y-54673500D01*
X66729428Y-54740023D01*
X66656857Y-54873071D01*
X66656857Y-54939595D01*
X66729428Y-55072642D01*
X66802000Y-55139166D01*
X66947142Y-55205690D01*
X67237428Y-55205690D01*
X67382571Y-55272214D01*
X67455142Y-55338738D01*
X67527714Y-55471785D01*
X67527714Y-55737880D01*
X67455142Y-55870928D01*
X67382571Y-55937452D01*
X67237428Y-56003976D01*
X66947142Y-56003976D01*
X66802000Y-55937452D01*
X66729428Y-55870928D01*
X66656857Y-55737880D01*
X66656857Y-55471785D01*
X66729428Y-55338738D01*
X66802000Y-55272214D01*
X66947142Y-55205690D01*
G04 #@! TO.C,R4*
X58674000Y-62861976D02*
X59182000Y-62196738D01*
X59544857Y-62861976D02*
X59544857Y-61464976D01*
X58964285Y-61464976D01*
X58819142Y-61531500D01*
X58746571Y-61598023D01*
X58674000Y-61731071D01*
X58674000Y-61930642D01*
X58746571Y-62063690D01*
X58819142Y-62130214D01*
X58964285Y-62196738D01*
X59544857Y-62196738D01*
X57367714Y-61930642D02*
X57367714Y-62861976D01*
X57730571Y-61398452D02*
X58093428Y-62396309D01*
X57150000Y-62396309D01*
G04 #@! TO.C,R7*
X84074000Y-84705976D02*
X84582000Y-84040738D01*
X84944857Y-84705976D02*
X84944857Y-83308976D01*
X84364285Y-83308976D01*
X84219142Y-83375500D01*
X84146571Y-83442023D01*
X84074000Y-83575071D01*
X84074000Y-83774642D01*
X84146571Y-83907690D01*
X84219142Y-83974214D01*
X84364285Y-84040738D01*
X84944857Y-84040738D01*
X83566000Y-83308976D02*
X82550000Y-83308976D01*
X83203142Y-84705976D01*
G04 #@! TO.C,R1*
X79502000Y-11553976D02*
X80010000Y-10888738D01*
X80372857Y-11553976D02*
X80372857Y-10156976D01*
X79792285Y-10156976D01*
X79647142Y-10223500D01*
X79574571Y-10290023D01*
X79502000Y-10423071D01*
X79502000Y-10622642D01*
X79574571Y-10755690D01*
X79647142Y-10822214D01*
X79792285Y-10888738D01*
X80372857Y-10888738D01*
X78050571Y-11553976D02*
X78921428Y-11553976D01*
X78486000Y-11553976D02*
X78486000Y-10156976D01*
X78631142Y-10356547D01*
X78776285Y-10489595D01*
X78921428Y-10556119D01*
G04 #@! TO.C,R2*
X82927976Y-6096000D02*
X82262738Y-5588000D01*
X82927976Y-5225142D02*
X81530976Y-5225142D01*
X81530976Y-5805714D01*
X81597500Y-5950857D01*
X81664023Y-6023428D01*
X81797071Y-6096000D01*
X81996642Y-6096000D01*
X82129690Y-6023428D01*
X82196214Y-5950857D01*
X82262738Y-5805714D01*
X82262738Y-5225142D01*
X81664023Y-6676571D02*
X81597500Y-6749142D01*
X81530976Y-6894285D01*
X81530976Y-7257142D01*
X81597500Y-7402285D01*
X81664023Y-7474857D01*
X81797071Y-7547428D01*
X81930119Y-7547428D01*
X82129690Y-7474857D01*
X82927976Y-6604000D01*
X82927976Y-7547428D01*
G04 #@! TO.C,R3*
X81788000Y-2663976D02*
X82296000Y-1998738D01*
X82658857Y-2663976D02*
X82658857Y-1266976D01*
X82078285Y-1266976D01*
X81933142Y-1333500D01*
X81860571Y-1400023D01*
X81788000Y-1533071D01*
X81788000Y-1732642D01*
X81860571Y-1865690D01*
X81933142Y-1932214D01*
X82078285Y-1998738D01*
X82658857Y-1998738D01*
X81280000Y-1266976D02*
X80336571Y-1266976D01*
X80844571Y-1799166D01*
X80626857Y-1799166D01*
X80481714Y-1865690D01*
X80409142Y-1932214D01*
X80336571Y-2065261D01*
X80336571Y-2397880D01*
X80409142Y-2530928D01*
X80481714Y-2597452D01*
X80626857Y-2663976D01*
X81062285Y-2663976D01*
X81207428Y-2597452D01*
X81280000Y-2530928D01*
G04 #@! TO.C,C16*
X89371714Y-54854928D02*
X89444285Y-54921452D01*
X89662000Y-54987976D01*
X89807142Y-54987976D01*
X90024857Y-54921452D01*
X90170000Y-54788404D01*
X90242571Y-54655357D01*
X90315142Y-54389261D01*
X90315142Y-54189690D01*
X90242571Y-53923595D01*
X90170000Y-53790547D01*
X90024857Y-53657500D01*
X89807142Y-53590976D01*
X89662000Y-53590976D01*
X89444285Y-53657500D01*
X89371714Y-53724023D01*
X87920285Y-54987976D02*
X88791142Y-54987976D01*
X88355714Y-54987976D02*
X88355714Y-53590976D01*
X88500857Y-53790547D01*
X88646000Y-53923595D01*
X88791142Y-53990119D01*
X86614000Y-53590976D02*
X86904285Y-53590976D01*
X87049428Y-53657500D01*
X87122000Y-53724023D01*
X87267142Y-53923595D01*
X87339714Y-54189690D01*
X87339714Y-54721880D01*
X87267142Y-54854928D01*
X87194571Y-54921452D01*
X87049428Y-54987976D01*
X86759142Y-54987976D01*
X86614000Y-54921452D01*
X86541428Y-54854928D01*
X86468857Y-54721880D01*
X86468857Y-54389261D01*
X86541428Y-54256214D01*
X86614000Y-54189690D01*
X86759142Y-54123166D01*
X87049428Y-54123166D01*
X87194571Y-54189690D01*
X87267142Y-54256214D01*
X87339714Y-54389261D01*
G04 #@! TO.C,R8*
X88392000Y-47367976D02*
X88900000Y-46702738D01*
X89262857Y-47367976D02*
X89262857Y-45970976D01*
X88682285Y-45970976D01*
X88537142Y-46037500D01*
X88464571Y-46104023D01*
X88392000Y-46237071D01*
X88392000Y-46436642D01*
X88464571Y-46569690D01*
X88537142Y-46636214D01*
X88682285Y-46702738D01*
X89262857Y-46702738D01*
X87521142Y-46569690D02*
X87666285Y-46503166D01*
X87738857Y-46436642D01*
X87811428Y-46303595D01*
X87811428Y-46237071D01*
X87738857Y-46104023D01*
X87666285Y-46037500D01*
X87521142Y-45970976D01*
X87230857Y-45970976D01*
X87085714Y-46037500D01*
X87013142Y-46104023D01*
X86940571Y-46237071D01*
X86940571Y-46303595D01*
X87013142Y-46436642D01*
X87085714Y-46503166D01*
X87230857Y-46569690D01*
X87521142Y-46569690D01*
X87666285Y-46636214D01*
X87738857Y-46702738D01*
X87811428Y-46835785D01*
X87811428Y-47101880D01*
X87738857Y-47234928D01*
X87666285Y-47301452D01*
X87521142Y-47367976D01*
X87230857Y-47367976D01*
X87085714Y-47301452D01*
X87013142Y-47234928D01*
X86940571Y-47101880D01*
X86940571Y-46835785D01*
X87013142Y-46702738D01*
X87085714Y-46636214D01*
X87230857Y-46569690D01*
G04 #@! TO.C,R9*
X91563976Y-50038000D02*
X90898738Y-49530000D01*
X91563976Y-49167142D02*
X90166976Y-49167142D01*
X90166976Y-49747714D01*
X90233500Y-49892857D01*
X90300023Y-49965428D01*
X90433071Y-50038000D01*
X90632642Y-50038000D01*
X90765690Y-49965428D01*
X90832214Y-49892857D01*
X90898738Y-49747714D01*
X90898738Y-49167142D01*
X91563976Y-50763714D02*
X91563976Y-51054000D01*
X91497452Y-51199142D01*
X91430928Y-51271714D01*
X91231357Y-51416857D01*
X90965261Y-51489428D01*
X90433071Y-51489428D01*
X90300023Y-51416857D01*
X90233500Y-51344285D01*
X90166976Y-51199142D01*
X90166976Y-50908857D01*
X90233500Y-50763714D01*
X90300023Y-50691142D01*
X90433071Y-50618571D01*
X90765690Y-50618571D01*
X90898738Y-50691142D01*
X90965261Y-50763714D01*
X91031785Y-50908857D01*
X91031785Y-51199142D01*
X90965261Y-51344285D01*
X90898738Y-51416857D01*
X90765690Y-51489428D01*
G04 #@! TD*
M02*
