G04 #@! TF.GenerationSoftware,KiCad,Pcbnew,(5.0.2)-1*
G04 #@! TF.CreationDate,2019-09-21T20:53:57-04:00*
G04 #@! TF.ProjectId,Z80_CPU,5a38305f-4350-4552-9e6b-696361645f70,rev?*
G04 #@! TF.SameCoordinates,Original*
G04 #@! TF.FileFunction,Legend,Top*
G04 #@! TF.FilePolarity,Positive*
%FSLAX46Y46*%
G04 Gerber Fmt 4.6, Leading zero omitted, Abs format (unit mm)*
G04 Created by KiCad (PCBNEW (5.0.2)-1) date 9/21/2019 8:53:57 PM*
%MOMM*%
%LPD*%
G01*
G04 APERTURE LIST*
%ADD10C,0.317500*%
%ADD11C,0.381000*%
%ADD12C,0.793750*%
%ADD13C,0.635000*%
%ADD14C,0.120000*%
%ADD15C,0.254000*%
%ADD16C,0.150000*%
G04 APERTURE END LIST*
D10*
X87187767Y-23653750D02*
X87066815Y-23581178D01*
X86885386Y-23581178D01*
X86703958Y-23653750D01*
X86583005Y-23798892D01*
X86522529Y-23944035D01*
X86462053Y-24234321D01*
X86462053Y-24452035D01*
X86522529Y-24742321D01*
X86583005Y-24887464D01*
X86703958Y-25032607D01*
X86885386Y-25105178D01*
X87006339Y-25105178D01*
X87187767Y-25032607D01*
X87248244Y-24960035D01*
X87248244Y-24452035D01*
X87006339Y-24452035D01*
X87792529Y-25105178D02*
X87792529Y-23581178D01*
X88518244Y-25105178D01*
X88518244Y-23581178D01*
X89123005Y-25105178D02*
X89123005Y-23581178D01*
X89425386Y-23581178D01*
X89606815Y-23653750D01*
X89727767Y-23798892D01*
X89788244Y-23944035D01*
X89848720Y-24234321D01*
X89848720Y-24452035D01*
X89788244Y-24742321D01*
X89727767Y-24887464D01*
X89606815Y-25032607D01*
X89425386Y-25105178D01*
X89123005Y-25105178D01*
X87732053Y-27128107D02*
X88699672Y-27128107D01*
X88215863Y-27708678D02*
X88215863Y-26547535D01*
X89123005Y-26184678D02*
X89546339Y-27708678D01*
X89969672Y-26184678D01*
X86703958Y-30312178D02*
X86703958Y-28788178D01*
X87187767Y-28788178D01*
X87308720Y-28860750D01*
X87369196Y-28933321D01*
X87429672Y-29078464D01*
X87429672Y-29296178D01*
X87369196Y-29441321D01*
X87308720Y-29513892D01*
X87187767Y-29586464D01*
X86703958Y-29586464D01*
X87853005Y-28788178D02*
X88699672Y-28788178D01*
X88155386Y-30312178D01*
X89243958Y-30312178D02*
X89485863Y-30312178D01*
X89606815Y-30239607D01*
X89667291Y-30167035D01*
X89788244Y-29949321D01*
X89848720Y-29659035D01*
X89848720Y-29078464D01*
X89788244Y-28933321D01*
X89727767Y-28860750D01*
X89606815Y-28788178D01*
X89364910Y-28788178D01*
X89243958Y-28860750D01*
X89183482Y-28933321D01*
X89123005Y-29078464D01*
X89123005Y-29441321D01*
X89183482Y-29586464D01*
X89243958Y-29659035D01*
X89364910Y-29731607D01*
X89606815Y-29731607D01*
X89727767Y-29659035D01*
X89788244Y-29586464D01*
X89848720Y-29441321D01*
X86703958Y-32915678D02*
X86703958Y-31391678D01*
X87187767Y-31391678D01*
X87308720Y-31464250D01*
X87369196Y-31536821D01*
X87429672Y-31681964D01*
X87429672Y-31899678D01*
X87369196Y-32044821D01*
X87308720Y-32117392D01*
X87187767Y-32189964D01*
X86703958Y-32189964D01*
X87853005Y-31391678D02*
X88699672Y-31391678D01*
X88155386Y-32915678D01*
X89364910Y-32044821D02*
X89243958Y-31972250D01*
X89183482Y-31899678D01*
X89123005Y-31754535D01*
X89123005Y-31681964D01*
X89183482Y-31536821D01*
X89243958Y-31464250D01*
X89364910Y-31391678D01*
X89606815Y-31391678D01*
X89727767Y-31464250D01*
X89788244Y-31536821D01*
X89848720Y-31681964D01*
X89848720Y-31754535D01*
X89788244Y-31899678D01*
X89727767Y-31972250D01*
X89606815Y-32044821D01*
X89364910Y-32044821D01*
X89243958Y-32117392D01*
X89183482Y-32189964D01*
X89123005Y-32335107D01*
X89123005Y-32625392D01*
X89183482Y-32770535D01*
X89243958Y-32843107D01*
X89364910Y-32915678D01*
X89606815Y-32915678D01*
X89727767Y-32843107D01*
X89788244Y-32770535D01*
X89848720Y-32625392D01*
X89848720Y-32335107D01*
X89788244Y-32189964D01*
X89727767Y-32117392D01*
X89606815Y-32044821D01*
X86703958Y-35519178D02*
X86703958Y-33995178D01*
X87187767Y-33995178D01*
X87308720Y-34067750D01*
X87369196Y-34140321D01*
X87429672Y-34285464D01*
X87429672Y-34503178D01*
X87369196Y-34648321D01*
X87308720Y-34720892D01*
X87187767Y-34793464D01*
X86703958Y-34793464D01*
X87853005Y-33995178D02*
X88699672Y-33995178D01*
X88155386Y-35519178D01*
X89062529Y-33995178D02*
X89909196Y-33995178D01*
X89364910Y-35519178D01*
X86703958Y-38122678D02*
X86703958Y-36598678D01*
X87187767Y-36598678D01*
X87308720Y-36671250D01*
X87369196Y-36743821D01*
X87429672Y-36888964D01*
X87429672Y-37106678D01*
X87369196Y-37251821D01*
X87308720Y-37324392D01*
X87187767Y-37396964D01*
X86703958Y-37396964D01*
X87853005Y-36598678D02*
X88699672Y-36598678D01*
X88155386Y-38122678D01*
X89727767Y-36598678D02*
X89485863Y-36598678D01*
X89364910Y-36671250D01*
X89304434Y-36743821D01*
X89183482Y-36961535D01*
X89123005Y-37251821D01*
X89123005Y-37832392D01*
X89183482Y-37977535D01*
X89243958Y-38050107D01*
X89364910Y-38122678D01*
X89606815Y-38122678D01*
X89727767Y-38050107D01*
X89788244Y-37977535D01*
X89848720Y-37832392D01*
X89848720Y-37469535D01*
X89788244Y-37324392D01*
X89727767Y-37251821D01*
X89606815Y-37179250D01*
X89364910Y-37179250D01*
X89243958Y-37251821D01*
X89183482Y-37324392D01*
X89123005Y-37469535D01*
D11*
X50956935Y-58703028D02*
X50956935Y-57179028D01*
X51537507Y-57179028D01*
X51682650Y-57251600D01*
X51755221Y-57324171D01*
X51827792Y-57469314D01*
X51827792Y-57687028D01*
X51755221Y-57832171D01*
X51682650Y-57904742D01*
X51537507Y-57977314D01*
X50956935Y-57977314D01*
X53351792Y-58703028D02*
X52843792Y-57977314D01*
X52480935Y-58703028D02*
X52480935Y-57179028D01*
X53061507Y-57179028D01*
X53206650Y-57251600D01*
X53279221Y-57324171D01*
X53351792Y-57469314D01*
X53351792Y-57687028D01*
X53279221Y-57832171D01*
X53206650Y-57904742D01*
X53061507Y-57977314D01*
X52480935Y-57977314D01*
X54295221Y-57179028D02*
X54585507Y-57179028D01*
X54730650Y-57251600D01*
X54875792Y-57396742D01*
X54948364Y-57687028D01*
X54948364Y-58195028D01*
X54875792Y-58485314D01*
X54730650Y-58630457D01*
X54585507Y-58703028D01*
X54295221Y-58703028D01*
X54150078Y-58630457D01*
X54004935Y-58485314D01*
X53932364Y-58195028D01*
X53932364Y-57687028D01*
X54004935Y-57396742D01*
X54150078Y-57251600D01*
X54295221Y-57179028D01*
X56399792Y-57251600D02*
X56254650Y-57179028D01*
X56036935Y-57179028D01*
X55819221Y-57251600D01*
X55674078Y-57396742D01*
X55601507Y-57541885D01*
X55528935Y-57832171D01*
X55528935Y-58049885D01*
X55601507Y-58340171D01*
X55674078Y-58485314D01*
X55819221Y-58630457D01*
X56036935Y-58703028D01*
X56182078Y-58703028D01*
X56399792Y-58630457D01*
X56472364Y-58557885D01*
X56472364Y-58049885D01*
X56182078Y-58049885D01*
X49100921Y-46685200D02*
X48955778Y-46612628D01*
X48738064Y-46612628D01*
X48520350Y-46685200D01*
X48375207Y-46830342D01*
X48302635Y-46975485D01*
X48230064Y-47265771D01*
X48230064Y-47483485D01*
X48302635Y-47773771D01*
X48375207Y-47918914D01*
X48520350Y-48064057D01*
X48738064Y-48136628D01*
X48883207Y-48136628D01*
X49100921Y-48064057D01*
X49173492Y-47991485D01*
X49173492Y-47483485D01*
X48883207Y-47483485D01*
X49826635Y-48136628D02*
X49826635Y-46612628D01*
X50697492Y-48136628D01*
X50697492Y-46612628D01*
X51423207Y-48136628D02*
X51423207Y-46612628D01*
X51786064Y-46612628D01*
X52003778Y-46685200D01*
X52148921Y-46830342D01*
X52221492Y-46975485D01*
X52294064Y-47265771D01*
X52294064Y-47483485D01*
X52221492Y-47773771D01*
X52148921Y-47918914D01*
X52003778Y-48064057D01*
X51786064Y-48136628D01*
X51423207Y-48136628D01*
X49681492Y-50803628D02*
X49173492Y-50077914D01*
X48810635Y-50803628D02*
X48810635Y-49279628D01*
X49391207Y-49279628D01*
X49536350Y-49352200D01*
X49608921Y-49424771D01*
X49681492Y-49569914D01*
X49681492Y-49787628D01*
X49608921Y-49932771D01*
X49536350Y-50005342D01*
X49391207Y-50077914D01*
X48810635Y-50077914D01*
X50262064Y-50731057D02*
X50479778Y-50803628D01*
X50842635Y-50803628D01*
X50987778Y-50731057D01*
X51060350Y-50658485D01*
X51132921Y-50513342D01*
X51132921Y-50368200D01*
X51060350Y-50223057D01*
X50987778Y-50150485D01*
X50842635Y-50077914D01*
X50552350Y-50005342D01*
X50407207Y-49932771D01*
X50334635Y-49860200D01*
X50262064Y-49715057D01*
X50262064Y-49569914D01*
X50334635Y-49424771D01*
X50407207Y-49352200D01*
X50552350Y-49279628D01*
X50915207Y-49279628D01*
X51132921Y-49352200D01*
X51568350Y-49279628D02*
X52439207Y-49279628D01*
X52003778Y-50803628D02*
X52003778Y-49279628D01*
X48157492Y-53398057D02*
X48375207Y-53470628D01*
X48738064Y-53470628D01*
X48883207Y-53398057D01*
X48955778Y-53325485D01*
X49028350Y-53180342D01*
X49028350Y-53035200D01*
X48955778Y-52890057D01*
X48883207Y-52817485D01*
X48738064Y-52744914D01*
X48447778Y-52672342D01*
X48302635Y-52599771D01*
X48230064Y-52527200D01*
X48157492Y-52382057D01*
X48157492Y-52236914D01*
X48230064Y-52091771D01*
X48302635Y-52019200D01*
X48447778Y-51946628D01*
X48810635Y-51946628D01*
X49028350Y-52019200D01*
X49536350Y-51946628D02*
X49899207Y-53470628D01*
X50189492Y-52382057D01*
X50479778Y-53470628D01*
X50842635Y-51946628D01*
X52294064Y-53325485D02*
X52221492Y-53398057D01*
X52003778Y-53470628D01*
X51858635Y-53470628D01*
X51640921Y-53398057D01*
X51495778Y-53252914D01*
X51423207Y-53107771D01*
X51350635Y-52817485D01*
X51350635Y-52599771D01*
X51423207Y-52309485D01*
X51495778Y-52164342D01*
X51640921Y-52019200D01*
X51858635Y-51946628D01*
X52003778Y-51946628D01*
X52221492Y-52019200D01*
X52294064Y-52091771D01*
X48157492Y-56065057D02*
X48375207Y-56137628D01*
X48738064Y-56137628D01*
X48883207Y-56065057D01*
X48955778Y-55992485D01*
X49028350Y-55847342D01*
X49028350Y-55702200D01*
X48955778Y-55557057D01*
X48883207Y-55484485D01*
X48738064Y-55411914D01*
X48447778Y-55339342D01*
X48302635Y-55266771D01*
X48230064Y-55194200D01*
X48157492Y-55049057D01*
X48157492Y-54903914D01*
X48230064Y-54758771D01*
X48302635Y-54686200D01*
X48447778Y-54613628D01*
X48810635Y-54613628D01*
X49028350Y-54686200D01*
X49536350Y-54613628D02*
X49899207Y-56137628D01*
X50189492Y-55049057D01*
X50479778Y-56137628D01*
X50842635Y-54613628D01*
X51423207Y-56137628D02*
X51423207Y-54613628D01*
X51786064Y-54613628D01*
X52003778Y-54686200D01*
X52148921Y-54831342D01*
X52221492Y-54976485D01*
X52294064Y-55266771D01*
X52294064Y-55484485D01*
X52221492Y-55774771D01*
X52148921Y-55919914D01*
X52003778Y-56065057D01*
X51786064Y-56137628D01*
X51423207Y-56137628D01*
D12*
X71696942Y-21937284D02*
X72301704Y-21937284D01*
X72604085Y-22088475D01*
X72906466Y-22390855D01*
X73057657Y-22995617D01*
X73057657Y-24053951D01*
X72906466Y-24658713D01*
X72604085Y-24961094D01*
X72301704Y-25112284D01*
X71696942Y-25112284D01*
X71394561Y-24961094D01*
X71092180Y-24658713D01*
X70940990Y-24053951D01*
X70940990Y-22995617D01*
X71092180Y-22390855D01*
X71394561Y-22088475D01*
X71696942Y-21937284D01*
X74418371Y-25112284D02*
X74418371Y-21937284D01*
X75627895Y-21937284D01*
X75930276Y-22088475D01*
X76081466Y-22239665D01*
X76232657Y-22542046D01*
X76232657Y-22995617D01*
X76081466Y-23297998D01*
X75930276Y-23449189D01*
X75627895Y-23600379D01*
X74418371Y-23600379D01*
X77139800Y-21937284D02*
X78954085Y-21937284D01*
X78046942Y-25112284D02*
X78046942Y-21937284D01*
X80012419Y-24809903D02*
X80163609Y-24961094D01*
X80012419Y-25112284D01*
X79861228Y-24961094D01*
X80012419Y-24809903D01*
X80012419Y-25112284D01*
X72150514Y-27493534D02*
X72755276Y-27493534D01*
X73057657Y-27644725D01*
X73360038Y-27947105D01*
X73511228Y-28551867D01*
X73511228Y-29610201D01*
X73360038Y-30214963D01*
X73057657Y-30517344D01*
X72755276Y-30668534D01*
X72150514Y-30668534D01*
X71848133Y-30517344D01*
X71545752Y-30214963D01*
X71394561Y-29610201D01*
X71394561Y-28551867D01*
X71545752Y-27947105D01*
X71848133Y-27644725D01*
X72150514Y-27493534D01*
X74720752Y-30517344D02*
X75174323Y-30668534D01*
X75930276Y-30668534D01*
X76232657Y-30517344D01*
X76383847Y-30366153D01*
X76535038Y-30063772D01*
X76535038Y-29761391D01*
X76383847Y-29459010D01*
X76232657Y-29307820D01*
X75930276Y-29156629D01*
X75325514Y-29005439D01*
X75023133Y-28854248D01*
X74871942Y-28703058D01*
X74720752Y-28400677D01*
X74720752Y-28098296D01*
X74871942Y-27795915D01*
X75023133Y-27644725D01*
X75325514Y-27493534D01*
X76081466Y-27493534D01*
X76535038Y-27644725D01*
X79710038Y-30366153D02*
X79558847Y-30517344D01*
X79105276Y-30668534D01*
X78802895Y-30668534D01*
X78349323Y-30517344D01*
X78046942Y-30214963D01*
X77895752Y-29912582D01*
X77744561Y-29307820D01*
X77744561Y-28854248D01*
X77895752Y-28249486D01*
X78046942Y-27947105D01*
X78349323Y-27644725D01*
X78802895Y-27493534D01*
X79105276Y-27493534D01*
X79558847Y-27644725D01*
X79710038Y-27795915D01*
X14579599Y-91631709D02*
X14277219Y-91480519D01*
X14126028Y-91178138D01*
X14126028Y-88456709D01*
X17149838Y-91631709D02*
X17149838Y-89968614D01*
X16998647Y-89666233D01*
X16696266Y-89515042D01*
X16091504Y-89515042D01*
X15789123Y-89666233D01*
X17149838Y-91480519D02*
X16847457Y-91631709D01*
X16091504Y-91631709D01*
X15789123Y-91480519D01*
X15637933Y-91178138D01*
X15637933Y-90875757D01*
X15789123Y-90573376D01*
X16091504Y-90422185D01*
X16847457Y-90422185D01*
X17149838Y-90270995D01*
X18661742Y-89515042D02*
X18661742Y-91631709D01*
X18661742Y-89817423D02*
X18812933Y-89666233D01*
X19115314Y-89515042D01*
X19568885Y-89515042D01*
X19871266Y-89666233D01*
X20022457Y-89968614D01*
X20022457Y-91631709D01*
X22895076Y-91631709D02*
X22895076Y-88456709D01*
X22895076Y-91480519D02*
X22592695Y-91631709D01*
X21987933Y-91631709D01*
X21685552Y-91480519D01*
X21534361Y-91329328D01*
X21383171Y-91026947D01*
X21383171Y-90119804D01*
X21534361Y-89817423D01*
X21685552Y-89666233D01*
X21987933Y-89515042D01*
X22592695Y-89515042D01*
X22895076Y-89666233D01*
X24406980Y-90422185D02*
X26826028Y-90422185D01*
X28337933Y-91631709D02*
X28337933Y-88456709D01*
X28337933Y-89666233D02*
X28640314Y-89515042D01*
X29245076Y-89515042D01*
X29547457Y-89666233D01*
X29698647Y-89817423D01*
X29849838Y-90119804D01*
X29849838Y-91026947D01*
X29698647Y-91329328D01*
X29547457Y-91480519D01*
X29245076Y-91631709D01*
X28640314Y-91631709D01*
X28337933Y-91480519D01*
X31664123Y-91631709D02*
X31361742Y-91480519D01*
X31210552Y-91329328D01*
X31059361Y-91026947D01*
X31059361Y-90119804D01*
X31210552Y-89817423D01*
X31361742Y-89666233D01*
X31664123Y-89515042D01*
X32117695Y-89515042D01*
X32420076Y-89666233D01*
X32571266Y-89817423D01*
X32722457Y-90119804D01*
X32722457Y-91026947D01*
X32571266Y-91329328D01*
X32420076Y-91480519D01*
X32117695Y-91631709D01*
X31664123Y-91631709D01*
X35443885Y-91631709D02*
X35443885Y-89968614D01*
X35292695Y-89666233D01*
X34990314Y-89515042D01*
X34385552Y-89515042D01*
X34083171Y-89666233D01*
X35443885Y-91480519D02*
X35141504Y-91631709D01*
X34385552Y-91631709D01*
X34083171Y-91480519D01*
X33931980Y-91178138D01*
X33931980Y-90875757D01*
X34083171Y-90573376D01*
X34385552Y-90422185D01*
X35141504Y-90422185D01*
X35443885Y-90270995D01*
X36955790Y-91631709D02*
X36955790Y-89515042D01*
X36955790Y-90119804D02*
X37106980Y-89817423D01*
X37258171Y-89666233D01*
X37560552Y-89515042D01*
X37862933Y-89515042D01*
X40281980Y-91631709D02*
X40281980Y-88456709D01*
X40281980Y-91480519D02*
X39979599Y-91631709D01*
X39374838Y-91631709D01*
X39072457Y-91480519D01*
X38921266Y-91329328D01*
X38770076Y-91026947D01*
X38770076Y-90119804D01*
X38921266Y-89817423D01*
X39072457Y-89666233D01*
X39374838Y-89515042D01*
X39979599Y-89515042D01*
X40281980Y-89666233D01*
X41642695Y-91480519D02*
X41945076Y-91631709D01*
X42549838Y-91631709D01*
X42852219Y-91480519D01*
X43003409Y-91178138D01*
X43003409Y-91026947D01*
X42852219Y-90724566D01*
X42549838Y-90573376D01*
X42096266Y-90573376D01*
X41793885Y-90422185D01*
X41642695Y-90119804D01*
X41642695Y-89968614D01*
X41793885Y-89666233D01*
X42096266Y-89515042D01*
X42549838Y-89515042D01*
X42852219Y-89666233D01*
X44364123Y-91329328D02*
X44515314Y-91480519D01*
X44364123Y-91631709D01*
X44212933Y-91480519D01*
X44364123Y-91329328D01*
X44364123Y-91631709D01*
X47236742Y-91480519D02*
X46934361Y-91631709D01*
X46329600Y-91631709D01*
X46027219Y-91480519D01*
X45876028Y-91329328D01*
X45724838Y-91026947D01*
X45724838Y-90119804D01*
X45876028Y-89817423D01*
X46027219Y-89666233D01*
X46329600Y-89515042D01*
X46934361Y-89515042D01*
X47236742Y-89666233D01*
X49051028Y-91631709D02*
X48748647Y-91480519D01*
X48597457Y-91329328D01*
X48446266Y-91026947D01*
X48446266Y-90119804D01*
X48597457Y-89817423D01*
X48748647Y-89666233D01*
X49051028Y-89515042D01*
X49504600Y-89515042D01*
X49806980Y-89666233D01*
X49958171Y-89817423D01*
X50109361Y-90119804D01*
X50109361Y-91026947D01*
X49958171Y-91329328D01*
X49806980Y-91480519D01*
X49504600Y-91631709D01*
X49051028Y-91631709D01*
X51470076Y-91631709D02*
X51470076Y-89515042D01*
X51470076Y-89817423D02*
X51621266Y-89666233D01*
X51923647Y-89515042D01*
X52377219Y-89515042D01*
X52679600Y-89666233D01*
X52830790Y-89968614D01*
X52830790Y-91631709D01*
X52830790Y-89968614D02*
X52981980Y-89666233D01*
X53284361Y-89515042D01*
X53737933Y-89515042D01*
X54040314Y-89666233D01*
X54191504Y-89968614D01*
X54191504Y-91631709D01*
X57971266Y-88305519D02*
X55249838Y-92387661D01*
X58727219Y-88456709D02*
X60843885Y-88456709D01*
X58727219Y-91631709D01*
X60843885Y-91631709D01*
X62506980Y-89817423D02*
X62204600Y-89666233D01*
X62053409Y-89515042D01*
X61902219Y-89212661D01*
X61902219Y-89061471D01*
X62053409Y-88759090D01*
X62204600Y-88607900D01*
X62506980Y-88456709D01*
X63111742Y-88456709D01*
X63414123Y-88607900D01*
X63565314Y-88759090D01*
X63716504Y-89061471D01*
X63716504Y-89212661D01*
X63565314Y-89515042D01*
X63414123Y-89666233D01*
X63111742Y-89817423D01*
X62506980Y-89817423D01*
X62204600Y-89968614D01*
X62053409Y-90119804D01*
X61902219Y-90422185D01*
X61902219Y-91026947D01*
X62053409Y-91329328D01*
X62204600Y-91480519D01*
X62506980Y-91631709D01*
X63111742Y-91631709D01*
X63414123Y-91480519D01*
X63565314Y-91329328D01*
X63716504Y-91026947D01*
X63716504Y-90422185D01*
X63565314Y-90119804D01*
X63414123Y-89968614D01*
X63111742Y-89817423D01*
X65681980Y-88456709D02*
X65984361Y-88456709D01*
X66286742Y-88607900D01*
X66437933Y-88759090D01*
X66589123Y-89061471D01*
X66740314Y-89666233D01*
X66740314Y-90422185D01*
X66589123Y-91026947D01*
X66437933Y-91329328D01*
X66286742Y-91480519D01*
X65984361Y-91631709D01*
X65681980Y-91631709D01*
X65379600Y-91480519D01*
X65228409Y-91329328D01*
X65077219Y-91026947D01*
X64926028Y-90422185D01*
X64926028Y-89666233D01*
X65077219Y-89061471D01*
X65228409Y-88759090D01*
X65379600Y-88607900D01*
X65681980Y-88456709D01*
X67345076Y-91934090D02*
X69764123Y-91934090D01*
X70520076Y-91631709D02*
X70520076Y-88456709D01*
X71729600Y-88456709D01*
X72031980Y-88607900D01*
X72183171Y-88759090D01*
X72334361Y-89061471D01*
X72334361Y-89515042D01*
X72183171Y-89817423D01*
X72031980Y-89968614D01*
X71729600Y-90119804D01*
X70520076Y-90119804D01*
X73543885Y-91480519D02*
X73997457Y-91631709D01*
X74753409Y-91631709D01*
X75055790Y-91480519D01*
X75206980Y-91329328D01*
X75358171Y-91026947D01*
X75358171Y-90724566D01*
X75206980Y-90422185D01*
X75055790Y-90270995D01*
X74753409Y-90119804D01*
X74148647Y-89968614D01*
X73846266Y-89817423D01*
X73695076Y-89666233D01*
X73543885Y-89363852D01*
X73543885Y-89061471D01*
X73695076Y-88759090D01*
X73846266Y-88607900D01*
X74148647Y-88456709D01*
X74904600Y-88456709D01*
X75358171Y-88607900D01*
X77323647Y-88456709D02*
X77928409Y-88456709D01*
X78230790Y-88607900D01*
X78533171Y-88910280D01*
X78684361Y-89515042D01*
X78684361Y-90573376D01*
X78533171Y-91178138D01*
X78230790Y-91480519D01*
X77928409Y-91631709D01*
X77323647Y-91631709D01*
X77021266Y-91480519D01*
X76718885Y-91178138D01*
X76567695Y-90573376D01*
X76567695Y-89515042D01*
X76718885Y-88910280D01*
X77021266Y-88607900D01*
X77323647Y-88456709D01*
X81859361Y-91329328D02*
X81708171Y-91480519D01*
X81254600Y-91631709D01*
X80952219Y-91631709D01*
X80498647Y-91480519D01*
X80196266Y-91178138D01*
X80045076Y-90875757D01*
X79893885Y-90270995D01*
X79893885Y-89817423D01*
X80045076Y-89212661D01*
X80196266Y-88910280D01*
X80498647Y-88607900D01*
X80952219Y-88456709D01*
X81254600Y-88456709D01*
X81708171Y-88607900D01*
X81859361Y-88759090D01*
D11*
X57344128Y-41990735D02*
X55820128Y-41990735D01*
X55965271Y-41337592D02*
X55892700Y-41265021D01*
X55820128Y-41119878D01*
X55820128Y-40757021D01*
X55892700Y-40611878D01*
X55965271Y-40539307D01*
X56110414Y-40466735D01*
X56255557Y-40466735D01*
X56473271Y-40539307D01*
X57344128Y-41410164D01*
X57344128Y-40466735D01*
X57198985Y-38942735D02*
X57271557Y-39015307D01*
X57344128Y-39233021D01*
X57344128Y-39378164D01*
X57271557Y-39595878D01*
X57126414Y-39741021D01*
X56981271Y-39813592D01*
X56690985Y-39886164D01*
X56473271Y-39886164D01*
X56182985Y-39813592D01*
X56037842Y-39741021D01*
X55892700Y-39595878D01*
X55820128Y-39378164D01*
X55820128Y-39233021D01*
X55892700Y-39015307D01*
X55965271Y-38942735D01*
X49227921Y-33274000D02*
X49082778Y-33201428D01*
X48865064Y-33201428D01*
X48647350Y-33274000D01*
X48502207Y-33419142D01*
X48429635Y-33564285D01*
X48357064Y-33854571D01*
X48357064Y-34072285D01*
X48429635Y-34362571D01*
X48502207Y-34507714D01*
X48647350Y-34652857D01*
X48865064Y-34725428D01*
X49010207Y-34725428D01*
X49227921Y-34652857D01*
X49300492Y-34580285D01*
X49300492Y-34072285D01*
X49010207Y-34072285D01*
X49953635Y-34725428D02*
X49953635Y-33201428D01*
X50824492Y-34725428D01*
X50824492Y-33201428D01*
X51550207Y-34725428D02*
X51550207Y-33201428D01*
X51913064Y-33201428D01*
X52130778Y-33274000D01*
X52275921Y-33419142D01*
X52348492Y-33564285D01*
X52421064Y-33854571D01*
X52421064Y-34072285D01*
X52348492Y-34362571D01*
X52275921Y-34507714D01*
X52130778Y-34652857D01*
X51913064Y-34725428D01*
X51550207Y-34725428D01*
X49881064Y-36811857D02*
X51042207Y-36811857D01*
X50461635Y-37392428D02*
X50461635Y-36231285D01*
X51550207Y-35868428D02*
X52058207Y-37392428D01*
X52566207Y-35868428D01*
X48719921Y-39986857D02*
X48937635Y-40059428D01*
X49300492Y-40059428D01*
X49445635Y-39986857D01*
X49518207Y-39914285D01*
X49590778Y-39769142D01*
X49590778Y-39624000D01*
X49518207Y-39478857D01*
X49445635Y-39406285D01*
X49300492Y-39333714D01*
X49010207Y-39261142D01*
X48865064Y-39188571D01*
X48792492Y-39116000D01*
X48719921Y-38970857D01*
X48719921Y-38825714D01*
X48792492Y-38680571D01*
X48865064Y-38608000D01*
X49010207Y-38535428D01*
X49373064Y-38535428D01*
X49590778Y-38608000D01*
X50243921Y-40059428D02*
X50243921Y-38535428D01*
X50606778Y-38535428D01*
X50824492Y-38608000D01*
X50969635Y-38753142D01*
X51042207Y-38898285D01*
X51114778Y-39188571D01*
X51114778Y-39406285D01*
X51042207Y-39696571D01*
X50969635Y-39841714D01*
X50824492Y-39986857D01*
X50606778Y-40059428D01*
X50243921Y-40059428D01*
X51695350Y-39624000D02*
X52421064Y-39624000D01*
X51550207Y-40059428D02*
X52058207Y-38535428D01*
X52566207Y-40059428D01*
X48792492Y-42653857D02*
X49010207Y-42726428D01*
X49373064Y-42726428D01*
X49518207Y-42653857D01*
X49590778Y-42581285D01*
X49663350Y-42436142D01*
X49663350Y-42291000D01*
X49590778Y-42145857D01*
X49518207Y-42073285D01*
X49373064Y-42000714D01*
X49082778Y-41928142D01*
X48937635Y-41855571D01*
X48865064Y-41783000D01*
X48792492Y-41637857D01*
X48792492Y-41492714D01*
X48865064Y-41347571D01*
X48937635Y-41275000D01*
X49082778Y-41202428D01*
X49445635Y-41202428D01*
X49663350Y-41275000D01*
X51187350Y-42581285D02*
X51114778Y-42653857D01*
X50897064Y-42726428D01*
X50751921Y-42726428D01*
X50534207Y-42653857D01*
X50389064Y-42508714D01*
X50316492Y-42363571D01*
X50243921Y-42073285D01*
X50243921Y-41855571D01*
X50316492Y-41565285D01*
X50389064Y-41420142D01*
X50534207Y-41275000D01*
X50751921Y-41202428D01*
X50897064Y-41202428D01*
X51114778Y-41275000D01*
X51187350Y-41347571D01*
X52566207Y-42726428D02*
X51840492Y-42726428D01*
X51840492Y-41202428D01*
D12*
X50133552Y-79884209D02*
X52099028Y-79884209D01*
X51040695Y-81093733D01*
X51494266Y-81093733D01*
X51796647Y-81244923D01*
X51947838Y-81396114D01*
X52099028Y-81698495D01*
X52099028Y-82454447D01*
X51947838Y-82756828D01*
X51796647Y-82908019D01*
X51494266Y-83059209D01*
X50587123Y-83059209D01*
X50284742Y-82908019D01*
X50133552Y-82756828D01*
X53006171Y-79884209D02*
X54064504Y-83059209D01*
X55122838Y-79884209D01*
D13*
X70034452Y-41070590D02*
X72574452Y-41070590D01*
X72574452Y-42038209D01*
X72453500Y-42280114D01*
X72332547Y-42401066D01*
X72090642Y-42522019D01*
X71727785Y-42522019D01*
X71485880Y-42401066D01*
X71364928Y-42280114D01*
X71243976Y-42038209D01*
X71243976Y-41070590D01*
X70155404Y-43489638D02*
X70034452Y-43852495D01*
X70034452Y-44457257D01*
X70155404Y-44699161D01*
X70276357Y-44820114D01*
X70518261Y-44941066D01*
X70760166Y-44941066D01*
X71002071Y-44820114D01*
X71123023Y-44699161D01*
X71243976Y-44457257D01*
X71364928Y-43973447D01*
X71485880Y-43731542D01*
X71606833Y-43610590D01*
X71848738Y-43489638D01*
X72090642Y-43489638D01*
X72332547Y-43610590D01*
X72453500Y-43731542D01*
X72574452Y-43973447D01*
X72574452Y-44578209D01*
X72453500Y-44941066D01*
X70034452Y-46392495D02*
X70155404Y-46150590D01*
X70276357Y-46029638D01*
X70518261Y-45908685D01*
X71243976Y-45908685D01*
X71485880Y-46029638D01*
X71606833Y-46150590D01*
X71727785Y-46392495D01*
X71727785Y-46755352D01*
X71606833Y-46997257D01*
X71485880Y-47118209D01*
X71243976Y-47239161D01*
X70518261Y-47239161D01*
X70276357Y-47118209D01*
X70155404Y-46997257D01*
X70034452Y-46755352D01*
X70034452Y-46392495D01*
X70276357Y-49779161D02*
X70155404Y-49658209D01*
X70034452Y-49295352D01*
X70034452Y-49053447D01*
X70155404Y-48690590D01*
X70397309Y-48448685D01*
X70639214Y-48327733D01*
X71123023Y-48206780D01*
X71485880Y-48206780D01*
X71969690Y-48327733D01*
X72211595Y-48448685D01*
X72453500Y-48690590D01*
X72574452Y-49053447D01*
X72574452Y-49295352D01*
X72453500Y-49658209D01*
X72332547Y-49779161D01*
D12*
X38757980Y-23743557D02*
X38606790Y-24197128D01*
X38606790Y-24953080D01*
X38757980Y-25255461D01*
X38909171Y-25406652D01*
X39211552Y-25557842D01*
X39513933Y-25557842D01*
X39816314Y-25406652D01*
X39967504Y-25255461D01*
X40118695Y-24953080D01*
X40269885Y-24348319D01*
X40421076Y-24045938D01*
X40572266Y-23894747D01*
X40874647Y-23743557D01*
X41177028Y-23743557D01*
X41479409Y-23894747D01*
X41630600Y-24045938D01*
X41781790Y-24348319D01*
X41781790Y-25104271D01*
X41630600Y-25557842D01*
X38606790Y-28732842D02*
X40118695Y-27674509D01*
X38606790Y-26918557D02*
X41781790Y-26918557D01*
X41781790Y-28128080D01*
X41630600Y-28430461D01*
X41479409Y-28581652D01*
X41177028Y-28732842D01*
X40723457Y-28732842D01*
X40421076Y-28581652D01*
X40269885Y-28430461D01*
X40118695Y-28128080D01*
X40118695Y-26918557D01*
X39513933Y-29942366D02*
X39513933Y-31454271D01*
X38606790Y-29639985D02*
X41781790Y-30698319D01*
X38606790Y-31756652D01*
X38606790Y-32814985D02*
X41781790Y-32814985D01*
X39513933Y-33873319D01*
X41781790Y-34931652D01*
X38606790Y-34931652D01*
X19074190Y-35452957D02*
X19074190Y-37569623D01*
X15899190Y-35452957D01*
X15899190Y-37569623D01*
X17713476Y-39232719D02*
X17864666Y-38930338D01*
X18015857Y-38779147D01*
X18318238Y-38627957D01*
X18469428Y-38627957D01*
X18771809Y-38779147D01*
X18923000Y-38930338D01*
X19074190Y-39232719D01*
X19074190Y-39837480D01*
X18923000Y-40139861D01*
X18771809Y-40291052D01*
X18469428Y-40442242D01*
X18318238Y-40442242D01*
X18015857Y-40291052D01*
X17864666Y-40139861D01*
X17713476Y-39837480D01*
X17713476Y-39232719D01*
X17562285Y-38930338D01*
X17411095Y-38779147D01*
X17108714Y-38627957D01*
X16503952Y-38627957D01*
X16201571Y-38779147D01*
X16050380Y-38930338D01*
X15899190Y-39232719D01*
X15899190Y-39837480D01*
X16050380Y-40139861D01*
X16201571Y-40291052D01*
X16503952Y-40442242D01*
X17108714Y-40442242D01*
X17411095Y-40291052D01*
X17562285Y-40139861D01*
X17713476Y-39837480D01*
X19074190Y-42407719D02*
X19074190Y-42710100D01*
X18923000Y-43012480D01*
X18771809Y-43163671D01*
X18469428Y-43314861D01*
X17864666Y-43466052D01*
X17108714Y-43466052D01*
X16503952Y-43314861D01*
X16201571Y-43163671D01*
X16050380Y-43012480D01*
X15899190Y-42710100D01*
X15899190Y-42407719D01*
X16050380Y-42105338D01*
X16201571Y-41954147D01*
X16503952Y-41802957D01*
X17108714Y-41651766D01*
X17864666Y-41651766D01*
X18469428Y-41802957D01*
X18771809Y-41954147D01*
X18923000Y-42105338D01*
X19074190Y-42407719D01*
X85414152Y-55030309D02*
X85414152Y-57600547D01*
X85565342Y-57902928D01*
X85716533Y-58054119D01*
X86018914Y-58205309D01*
X86623676Y-58205309D01*
X86926057Y-58054119D01*
X87077247Y-57902928D01*
X87228438Y-57600547D01*
X87228438Y-55030309D01*
X88589152Y-58054119D02*
X89042723Y-58205309D01*
X89798676Y-58205309D01*
X90101057Y-58054119D01*
X90252247Y-57902928D01*
X90403438Y-57600547D01*
X90403438Y-57298166D01*
X90252247Y-56995785D01*
X90101057Y-56844595D01*
X89798676Y-56693404D01*
X89193914Y-56542214D01*
X88891533Y-56391023D01*
X88740342Y-56239833D01*
X88589152Y-55937452D01*
X88589152Y-55635071D01*
X88740342Y-55332690D01*
X88891533Y-55181500D01*
X89193914Y-55030309D01*
X89949866Y-55030309D01*
X90403438Y-55181500D01*
X92822485Y-56542214D02*
X93276057Y-56693404D01*
X93427247Y-56844595D01*
X93578438Y-57146976D01*
X93578438Y-57600547D01*
X93427247Y-57902928D01*
X93276057Y-58054119D01*
X92973676Y-58205309D01*
X91764152Y-58205309D01*
X91764152Y-55030309D01*
X92822485Y-55030309D01*
X93124866Y-55181500D01*
X93276057Y-55332690D01*
X93427247Y-55635071D01*
X93427247Y-55937452D01*
X93276057Y-56239833D01*
X93124866Y-56391023D01*
X92822485Y-56542214D01*
X91764152Y-56542214D01*
D14*
G04 #@! TO.C,U2*
X40370000Y-13275000D02*
G75*
G02X38370000Y-13275000I-1000000J0D01*
G01*
X38370000Y-13275000D02*
X32910000Y-13275000D01*
X32910000Y-13275000D02*
X32910000Y-54035000D01*
X32910000Y-54035000D02*
X45830000Y-54035000D01*
X45830000Y-54035000D02*
X45830000Y-13275000D01*
X45830000Y-13275000D02*
X40370000Y-13275000D01*
G04 #@! TO.C,C7*
X82811252Y-45645000D02*
X82288748Y-45645000D01*
X82811252Y-47065000D02*
X82288748Y-47065000D01*
G04 #@! TO.C,C8*
X82811252Y-52780000D02*
X82288748Y-52780000D01*
X82811252Y-51360000D02*
X82288748Y-51360000D01*
G04 #@! TO.C,D1*
X95875000Y-76545000D02*
G75*
G02X95875000Y-79665000I0J-1560000D01*
G01*
X92015000Y-79665000D02*
X95875000Y-79665000D01*
X92015000Y-76545000D02*
X95875000Y-76545000D01*
X92015000Y-79665000D02*
X92015000Y-76545000D01*
X92015000Y-76145000D02*
X93135000Y-76145000D01*
X93135000Y-76145000D02*
X93135000Y-76545000D01*
X93135000Y-76545000D02*
X92015000Y-76545000D01*
X92015000Y-76545000D02*
X92015000Y-76145000D01*
X91885000Y-79375000D02*
X92015000Y-79375000D01*
X92015000Y-79375000D02*
X92015000Y-79375000D01*
X92015000Y-79375000D02*
X91885000Y-79375000D01*
X91885000Y-79375000D02*
X91885000Y-79375000D01*
X91885000Y-76835000D02*
X92015000Y-76835000D01*
X92015000Y-76835000D02*
X92015000Y-76835000D01*
X92015000Y-76835000D02*
X91885000Y-76835000D01*
X91885000Y-76835000D02*
X91885000Y-76835000D01*
G04 #@! TO.C,H2*
X52645000Y-56575000D02*
X55305000Y-56575000D01*
X52645000Y-48895000D02*
X52645000Y-56575000D01*
X55305000Y-48895000D02*
X55305000Y-56575000D01*
X52645000Y-48895000D02*
X55305000Y-48895000D01*
X52645000Y-47625000D02*
X52645000Y-46295000D01*
X52645000Y-46295000D02*
X53975000Y-46295000D01*
G04 #@! TO.C,J1*
X82660000Y-60495000D02*
X78400000Y-60495000D01*
X78400000Y-60495000D02*
X78400000Y-72815000D01*
X78400000Y-72815000D02*
X82660000Y-72815000D01*
X86760000Y-60495000D02*
X95120000Y-60495000D01*
X95120000Y-60495000D02*
X95120000Y-72815000D01*
X95120000Y-72815000D02*
X86760000Y-72815000D01*
X78180000Y-65405000D02*
X77680000Y-64905000D01*
X77680000Y-64905000D02*
X77680000Y-65905000D01*
X77680000Y-65905000D02*
X78180000Y-65405000D01*
G04 #@! TO.C,R5*
X75445252Y-68378000D02*
X74922748Y-68378000D01*
X75445252Y-69798000D02*
X74922748Y-69798000D01*
G04 #@! TO.C,R6*
X75445252Y-72084000D02*
X74922748Y-72084000D01*
X75445252Y-70664000D02*
X74922748Y-70664000D01*
G04 #@! TO.C,U1*
X17510000Y-15815000D02*
G75*
G02X15510000Y-15815000I-1000000J0D01*
G01*
X15510000Y-15815000D02*
X10050000Y-15815000D01*
X10050000Y-15815000D02*
X10050000Y-66735000D01*
X10050000Y-66735000D02*
X22970000Y-66735000D01*
X22970000Y-66735000D02*
X22970000Y-15815000D01*
X22970000Y-15815000D02*
X17510000Y-15815000D01*
G04 #@! TO.C,U4*
X64590000Y-38610000D02*
X63890000Y-38610000D01*
X63890000Y-38610000D02*
X63890000Y-39310000D01*
X77410000Y-38610000D02*
X78110000Y-38610000D01*
X78110000Y-38610000D02*
X78110000Y-39310000D01*
X64590000Y-52830000D02*
X63890000Y-52830000D01*
X63890000Y-52830000D02*
X63890000Y-52130000D01*
X77410000Y-52830000D02*
X78110000Y-52830000D01*
X78110000Y-52830000D02*
X78110000Y-52130000D01*
X63890000Y-39310000D02*
X62600000Y-39310000D01*
G04 #@! TO.C,U3*
X86142000Y-31862000D02*
X86142000Y-19712000D01*
X65992000Y-32612000D02*
X85392000Y-32612000D01*
X65242000Y-20462000D02*
X65242000Y-31862000D01*
X86142000Y-19712000D02*
X65992000Y-19712000D01*
X65992000Y-19712000D02*
G75*
G03X65242000Y-20462000I0J-750000D01*
G01*
X65242000Y-31862000D02*
G75*
G03X65992000Y-32612000I750000J0D01*
G01*
X85392000Y-32612000D02*
G75*
G03X86142000Y-31862000I0J750000D01*
G01*
G04 #@! TO.C,H1*
X52645000Y-43240000D02*
X55305000Y-43240000D01*
X52645000Y-35560000D02*
X52645000Y-43240000D01*
X55305000Y-35560000D02*
X55305000Y-43240000D01*
X52645000Y-35560000D02*
X55305000Y-35560000D01*
X52645000Y-34290000D02*
X52645000Y-32960000D01*
X52645000Y-32960000D02*
X53975000Y-32960000D01*
G04 #@! TO.C,Y1*
X83080000Y-50445000D02*
X89980000Y-50445000D01*
X89980000Y-50445000D02*
X89980000Y-47985000D01*
X89980000Y-47985000D02*
X83080000Y-47985000D01*
X83080000Y-47985000D02*
X83080000Y-50445000D01*
X83080000Y-49565000D02*
X82180000Y-50165000D01*
X82180000Y-50165000D02*
X81980000Y-50165000D01*
X83080000Y-48865000D02*
X82180000Y-48265000D01*
X82180000Y-48265000D02*
X81980000Y-48265000D01*
G04 #@! TO.C,BT1*
X27914329Y-73705281D02*
G75*
G02X50360000Y-70160000I11495671J45281D01*
G01*
X50358246Y-70133616D02*
G75*
G03X51110000Y-70660000I751754J273616D01*
G01*
X27914329Y-73614719D02*
G75*
G03X50360000Y-77160000I11495671J-45281D01*
G01*
X50358246Y-77186384D02*
G75*
G02X51110000Y-76660000I751754J-273616D01*
G01*
X56810000Y-76660000D02*
X51110000Y-76660000D01*
X56810000Y-70660000D02*
X56810000Y-76660000D01*
X56810000Y-70660000D02*
X51110000Y-70660000D01*
G04 #@! TO.C,H3*
X90351300Y-38502900D02*
X93011300Y-38502900D01*
X90351300Y-25742900D02*
X90351300Y-38502900D01*
X93011300Y-25742900D02*
X93011300Y-38502900D01*
X90351300Y-25742900D02*
X93011300Y-25742900D01*
X90351300Y-24472900D02*
X90351300Y-23142900D01*
X90351300Y-23142900D02*
X91681300Y-23142900D01*
G04 #@! TO.C,U2*
D15*
X30685619Y-11299976D02*
X30685619Y-12430880D01*
X30752142Y-12563928D01*
X30818666Y-12630452D01*
X30951714Y-12696976D01*
X31217809Y-12696976D01*
X31350857Y-12630452D01*
X31417380Y-12563928D01*
X31483904Y-12430880D01*
X31483904Y-11299976D01*
X32082619Y-11433023D02*
X32149142Y-11366500D01*
X32282190Y-11299976D01*
X32614809Y-11299976D01*
X32747857Y-11366500D01*
X32814380Y-11433023D01*
X32880904Y-11566071D01*
X32880904Y-11699119D01*
X32814380Y-11898690D01*
X32016095Y-12696976D01*
X32880904Y-12696976D01*
G04 #@! TO.C,C7*
X85492166Y-46853928D02*
X85425642Y-46920452D01*
X85226071Y-46986976D01*
X85093023Y-46986976D01*
X84893452Y-46920452D01*
X84760404Y-46787404D01*
X84693880Y-46654357D01*
X84627357Y-46388261D01*
X84627357Y-46188690D01*
X84693880Y-45922595D01*
X84760404Y-45789547D01*
X84893452Y-45656500D01*
X85093023Y-45589976D01*
X85226071Y-45589976D01*
X85425642Y-45656500D01*
X85492166Y-45723023D01*
X85957833Y-45589976D02*
X86889166Y-45589976D01*
X86290452Y-46986976D01*
G04 #@! TO.C,C8*
X85492166Y-52568928D02*
X85425642Y-52635452D01*
X85226071Y-52701976D01*
X85093023Y-52701976D01*
X84893452Y-52635452D01*
X84760404Y-52502404D01*
X84693880Y-52369357D01*
X84627357Y-52103261D01*
X84627357Y-51903690D01*
X84693880Y-51637595D01*
X84760404Y-51504547D01*
X84893452Y-51371500D01*
X85093023Y-51304976D01*
X85226071Y-51304976D01*
X85425642Y-51371500D01*
X85492166Y-51438023D01*
X86290452Y-51903690D02*
X86157404Y-51837166D01*
X86090880Y-51770642D01*
X86024357Y-51637595D01*
X86024357Y-51571071D01*
X86090880Y-51438023D01*
X86157404Y-51371500D01*
X86290452Y-51304976D01*
X86556547Y-51304976D01*
X86689595Y-51371500D01*
X86756119Y-51438023D01*
X86822642Y-51571071D01*
X86822642Y-51637595D01*
X86756119Y-51770642D01*
X86689595Y-51837166D01*
X86556547Y-51903690D01*
X86290452Y-51903690D01*
X86157404Y-51970214D01*
X86090880Y-52036738D01*
X86024357Y-52169785D01*
X86024357Y-52435880D01*
X86090880Y-52568928D01*
X86157404Y-52635452D01*
X86290452Y-52701976D01*
X86556547Y-52701976D01*
X86689595Y-52635452D01*
X86756119Y-52568928D01*
X86822642Y-52435880D01*
X86822642Y-52169785D01*
X86756119Y-52036738D01*
X86689595Y-51970214D01*
X86556547Y-51903690D01*
G04 #@! TO.C,D1*
X92313880Y-81911976D02*
X92313880Y-80514976D01*
X92646500Y-80514976D01*
X92846071Y-80581500D01*
X92979119Y-80714547D01*
X93045642Y-80847595D01*
X93112166Y-81113690D01*
X93112166Y-81313261D01*
X93045642Y-81579357D01*
X92979119Y-81712404D01*
X92846071Y-81845452D01*
X92646500Y-81911976D01*
X92313880Y-81911976D01*
X94442642Y-81911976D02*
X93644357Y-81911976D01*
X94043500Y-81911976D02*
X94043500Y-80514976D01*
X93910452Y-80714547D01*
X93777404Y-80847595D01*
X93644357Y-80914119D01*
G04 #@! TO.C,H2*
X52910619Y-45716976D02*
X52910619Y-44319976D01*
X52910619Y-44985214D02*
X53708904Y-44985214D01*
X53708904Y-45716976D02*
X53708904Y-44319976D01*
X54307619Y-44453023D02*
X54374142Y-44386500D01*
X54507190Y-44319976D01*
X54839809Y-44319976D01*
X54972857Y-44386500D01*
X55039380Y-44453023D01*
X55105904Y-44586071D01*
X55105904Y-44719119D01*
X55039380Y-44918690D01*
X54241095Y-45716976D01*
X55105904Y-45716976D01*
G04 #@! TO.C,J1*
X78274333Y-58924976D02*
X78274333Y-59922833D01*
X78207809Y-60122404D01*
X78074761Y-60255452D01*
X77875190Y-60321976D01*
X77742142Y-60321976D01*
X79671333Y-60321976D02*
X78873047Y-60321976D01*
X79272190Y-60321976D02*
X79272190Y-58924976D01*
X79139142Y-59124547D01*
X79006095Y-59257595D01*
X78873047Y-59324119D01*
G04 #@! TO.C,R5*
X75954466Y-68081676D02*
X75488800Y-67416438D01*
X75156180Y-68081676D02*
X75156180Y-66684676D01*
X75688371Y-66684676D01*
X75821419Y-66751200D01*
X75887942Y-66817723D01*
X75954466Y-66950771D01*
X75954466Y-67150342D01*
X75887942Y-67283390D01*
X75821419Y-67349914D01*
X75688371Y-67416438D01*
X75156180Y-67416438D01*
X77218419Y-66684676D02*
X76553180Y-66684676D01*
X76486657Y-67349914D01*
X76553180Y-67283390D01*
X76686228Y-67216866D01*
X77018847Y-67216866D01*
X77151895Y-67283390D01*
X77218419Y-67349914D01*
X77284942Y-67482961D01*
X77284942Y-67815580D01*
X77218419Y-67948628D01*
X77151895Y-68015152D01*
X77018847Y-68081676D01*
X76686228Y-68081676D01*
X76553180Y-68015152D01*
X76486657Y-67948628D01*
G04 #@! TO.C,R6*
X75929066Y-73898276D02*
X75463400Y-73233038D01*
X75130780Y-73898276D02*
X75130780Y-72501276D01*
X75662971Y-72501276D01*
X75796019Y-72567800D01*
X75862542Y-72634323D01*
X75929066Y-72767371D01*
X75929066Y-72966942D01*
X75862542Y-73099990D01*
X75796019Y-73166514D01*
X75662971Y-73233038D01*
X75130780Y-73233038D01*
X77126495Y-72501276D02*
X76860400Y-72501276D01*
X76727352Y-72567800D01*
X76660828Y-72634323D01*
X76527780Y-72833895D01*
X76461257Y-73099990D01*
X76461257Y-73632180D01*
X76527780Y-73765228D01*
X76594304Y-73831752D01*
X76727352Y-73898276D01*
X76993447Y-73898276D01*
X77126495Y-73831752D01*
X77193019Y-73765228D01*
X77259542Y-73632180D01*
X77259542Y-73299561D01*
X77193019Y-73166514D01*
X77126495Y-73099990D01*
X76993447Y-73033466D01*
X76727352Y-73033466D01*
X76594304Y-73099990D01*
X76527780Y-73166514D01*
X76461257Y-73299561D01*
G04 #@! TO.C,U1*
X7825619Y-13839976D02*
X7825619Y-14970880D01*
X7892142Y-15103928D01*
X7958666Y-15170452D01*
X8091714Y-15236976D01*
X8357809Y-15236976D01*
X8490857Y-15170452D01*
X8557380Y-15103928D01*
X8623904Y-14970880D01*
X8623904Y-13839976D01*
X10020904Y-15236976D02*
X9222619Y-15236976D01*
X9621761Y-15236976D02*
X9621761Y-13839976D01*
X9488714Y-14039547D01*
X9355666Y-14172595D01*
X9222619Y-14239119D01*
G04 #@! TO.C,U4*
X61165619Y-36064976D02*
X61165619Y-37195880D01*
X61232142Y-37328928D01*
X61298666Y-37395452D01*
X61431714Y-37461976D01*
X61697809Y-37461976D01*
X61830857Y-37395452D01*
X61897380Y-37328928D01*
X61963904Y-37195880D01*
X61963904Y-36064976D01*
X63227857Y-36530642D02*
X63227857Y-37461976D01*
X62895238Y-35998452D02*
X62562619Y-36996309D01*
X63427428Y-36996309D01*
G04 #@! TO.C,U3*
X82184119Y-17662676D02*
X82184119Y-18793580D01*
X82250642Y-18926628D01*
X82317166Y-18993152D01*
X82450214Y-19059676D01*
X82716309Y-19059676D01*
X82849357Y-18993152D01*
X82915880Y-18926628D01*
X82982404Y-18793580D01*
X82982404Y-17662676D01*
X83514595Y-17662676D02*
X84379404Y-17662676D01*
X83913738Y-18194866D01*
X84113309Y-18194866D01*
X84246357Y-18261390D01*
X84312880Y-18327914D01*
X84379404Y-18460961D01*
X84379404Y-18793580D01*
X84312880Y-18926628D01*
X84246357Y-18993152D01*
X84113309Y-19059676D01*
X83714166Y-19059676D01*
X83581119Y-18993152D01*
X83514595Y-18926628D01*
G04 #@! TO.C,H1*
X52910619Y-32591976D02*
X52910619Y-31194976D01*
X52910619Y-31860214D02*
X53708904Y-31860214D01*
X53708904Y-32591976D02*
X53708904Y-31194976D01*
X55105904Y-32591976D02*
X54307619Y-32591976D01*
X54706761Y-32591976D02*
X54706761Y-31194976D01*
X54573714Y-31394547D01*
X54440666Y-31527595D01*
X54307619Y-31594119D01*
G04 #@! TO.C,Y1*
X88869761Y-46956738D02*
X88869761Y-47621976D01*
X88404095Y-46224976D02*
X88869761Y-46956738D01*
X89335428Y-46224976D01*
X90532857Y-47621976D02*
X89734571Y-47621976D01*
X90133714Y-47621976D02*
X90133714Y-46224976D01*
X90000666Y-46424547D01*
X89867619Y-46557595D01*
X89734571Y-46624119D01*
G04 #@! TO.C,BT1*
X53512357Y-77860214D02*
X53711928Y-77926738D01*
X53778452Y-77993261D01*
X53844976Y-78126309D01*
X53844976Y-78325880D01*
X53778452Y-78458928D01*
X53711928Y-78525452D01*
X53578880Y-78591976D01*
X53046690Y-78591976D01*
X53046690Y-77194976D01*
X53512357Y-77194976D01*
X53645404Y-77261500D01*
X53711928Y-77328023D01*
X53778452Y-77461071D01*
X53778452Y-77594119D01*
X53711928Y-77727166D01*
X53645404Y-77793690D01*
X53512357Y-77860214D01*
X53046690Y-77860214D01*
X54244119Y-77194976D02*
X55042404Y-77194976D01*
X54643261Y-78591976D02*
X54643261Y-77194976D01*
X56239833Y-78591976D02*
X55441547Y-78591976D01*
X55840690Y-78591976D02*
X55840690Y-77194976D01*
X55707642Y-77394547D01*
X55574595Y-77527595D01*
X55441547Y-77594119D01*
D16*
X51288571Y-73767142D02*
X52431428Y-73767142D01*
X51860000Y-74338571D02*
X51860000Y-73195714D01*
G04 #@! TO.C,H3*
X90919395Y-22595280D02*
X90919395Y-21595280D01*
X90919395Y-22071471D02*
X91490823Y-22071471D01*
X91490823Y-22595280D02*
X91490823Y-21595280D01*
X91871776Y-21595280D02*
X92490823Y-21595280D01*
X92157490Y-21976233D01*
X92300347Y-21976233D01*
X92395585Y-22023852D01*
X92443204Y-22071471D01*
X92490823Y-22166709D01*
X92490823Y-22404804D01*
X92443204Y-22500042D01*
X92395585Y-22547661D01*
X92300347Y-22595280D01*
X92014633Y-22595280D01*
X91919395Y-22547661D01*
X91871776Y-22500042D01*
G04 #@! TD*
M02*
