G04 #@! TF.GenerationSoftware,KiCad,Pcbnew,(5.0.2)-1*
G04 #@! TF.CreationDate,2019-09-24T20:54:29-04:00*
G04 #@! TF.ProjectId,Z80_CPU,5a38305f-4350-4552-9e6b-696361645f70,rev?*
G04 #@! TF.SameCoordinates,Original*
G04 #@! TF.FileFunction,Paste,Bot*
G04 #@! TF.FilePolarity,Positive*
%FSLAX46Y46*%
G04 Gerber Fmt 4.6, Leading zero omitted, Abs format (unit mm)*
G04 Created by KiCad (PCBNEW (5.0.2)-1) date 9/24/2019 8:54:29 PM*
%MOMM*%
%LPD*%
G01*
G04 APERTURE LIST*
%ADD10C,0.100000*%
%ADD11C,1.150000*%
G04 APERTURE END LIST*
D10*
G04 #@! TO.C,C1*
G36*
X57744505Y-57086204D02*
X57768773Y-57089804D01*
X57792572Y-57095765D01*
X57815671Y-57104030D01*
X57837850Y-57114520D01*
X57858893Y-57127132D01*
X57878599Y-57141747D01*
X57896777Y-57158223D01*
X57913253Y-57176401D01*
X57927868Y-57196107D01*
X57940480Y-57217150D01*
X57950970Y-57239329D01*
X57959235Y-57262428D01*
X57965196Y-57286227D01*
X57968796Y-57310495D01*
X57970000Y-57334999D01*
X57970000Y-58235001D01*
X57968796Y-58259505D01*
X57965196Y-58283773D01*
X57959235Y-58307572D01*
X57950970Y-58330671D01*
X57940480Y-58352850D01*
X57927868Y-58373893D01*
X57913253Y-58393599D01*
X57896777Y-58411777D01*
X57878599Y-58428253D01*
X57858893Y-58442868D01*
X57837850Y-58455480D01*
X57815671Y-58465970D01*
X57792572Y-58474235D01*
X57768773Y-58480196D01*
X57744505Y-58483796D01*
X57720001Y-58485000D01*
X57069999Y-58485000D01*
X57045495Y-58483796D01*
X57021227Y-58480196D01*
X56997428Y-58474235D01*
X56974329Y-58465970D01*
X56952150Y-58455480D01*
X56931107Y-58442868D01*
X56911401Y-58428253D01*
X56893223Y-58411777D01*
X56876747Y-58393599D01*
X56862132Y-58373893D01*
X56849520Y-58352850D01*
X56839030Y-58330671D01*
X56830765Y-58307572D01*
X56824804Y-58283773D01*
X56821204Y-58259505D01*
X56820000Y-58235001D01*
X56820000Y-57334999D01*
X56821204Y-57310495D01*
X56824804Y-57286227D01*
X56830765Y-57262428D01*
X56839030Y-57239329D01*
X56849520Y-57217150D01*
X56862132Y-57196107D01*
X56876747Y-57176401D01*
X56893223Y-57158223D01*
X56911401Y-57141747D01*
X56931107Y-57127132D01*
X56952150Y-57114520D01*
X56974329Y-57104030D01*
X56997428Y-57095765D01*
X57021227Y-57089804D01*
X57045495Y-57086204D01*
X57069999Y-57085000D01*
X57720001Y-57085000D01*
X57744505Y-57086204D01*
X57744505Y-57086204D01*
G37*
D11*
X57395000Y-57785000D03*
D10*
G36*
X59794505Y-57086204D02*
X59818773Y-57089804D01*
X59842572Y-57095765D01*
X59865671Y-57104030D01*
X59887850Y-57114520D01*
X59908893Y-57127132D01*
X59928599Y-57141747D01*
X59946777Y-57158223D01*
X59963253Y-57176401D01*
X59977868Y-57196107D01*
X59990480Y-57217150D01*
X60000970Y-57239329D01*
X60009235Y-57262428D01*
X60015196Y-57286227D01*
X60018796Y-57310495D01*
X60020000Y-57334999D01*
X60020000Y-58235001D01*
X60018796Y-58259505D01*
X60015196Y-58283773D01*
X60009235Y-58307572D01*
X60000970Y-58330671D01*
X59990480Y-58352850D01*
X59977868Y-58373893D01*
X59963253Y-58393599D01*
X59946777Y-58411777D01*
X59928599Y-58428253D01*
X59908893Y-58442868D01*
X59887850Y-58455480D01*
X59865671Y-58465970D01*
X59842572Y-58474235D01*
X59818773Y-58480196D01*
X59794505Y-58483796D01*
X59770001Y-58485000D01*
X59119999Y-58485000D01*
X59095495Y-58483796D01*
X59071227Y-58480196D01*
X59047428Y-58474235D01*
X59024329Y-58465970D01*
X59002150Y-58455480D01*
X58981107Y-58442868D01*
X58961401Y-58428253D01*
X58943223Y-58411777D01*
X58926747Y-58393599D01*
X58912132Y-58373893D01*
X58899520Y-58352850D01*
X58889030Y-58330671D01*
X58880765Y-58307572D01*
X58874804Y-58283773D01*
X58871204Y-58259505D01*
X58870000Y-58235001D01*
X58870000Y-57334999D01*
X58871204Y-57310495D01*
X58874804Y-57286227D01*
X58880765Y-57262428D01*
X58889030Y-57239329D01*
X58899520Y-57217150D01*
X58912132Y-57196107D01*
X58926747Y-57176401D01*
X58943223Y-57158223D01*
X58961401Y-57141747D01*
X58981107Y-57127132D01*
X59002150Y-57114520D01*
X59024329Y-57104030D01*
X59047428Y-57095765D01*
X59071227Y-57089804D01*
X59095495Y-57086204D01*
X59119999Y-57085000D01*
X59770001Y-57085000D01*
X59794505Y-57086204D01*
X59794505Y-57086204D01*
G37*
D11*
X59445000Y-57785000D03*
G04 #@! TD*
D10*
G04 #@! TO.C,C2*
G36*
X71714505Y-57721204D02*
X71738773Y-57724804D01*
X71762572Y-57730765D01*
X71785671Y-57739030D01*
X71807850Y-57749520D01*
X71828893Y-57762132D01*
X71848599Y-57776747D01*
X71866777Y-57793223D01*
X71883253Y-57811401D01*
X71897868Y-57831107D01*
X71910480Y-57852150D01*
X71920970Y-57874329D01*
X71929235Y-57897428D01*
X71935196Y-57921227D01*
X71938796Y-57945495D01*
X71940000Y-57969999D01*
X71940000Y-58870001D01*
X71938796Y-58894505D01*
X71935196Y-58918773D01*
X71929235Y-58942572D01*
X71920970Y-58965671D01*
X71910480Y-58987850D01*
X71897868Y-59008893D01*
X71883253Y-59028599D01*
X71866777Y-59046777D01*
X71848599Y-59063253D01*
X71828893Y-59077868D01*
X71807850Y-59090480D01*
X71785671Y-59100970D01*
X71762572Y-59109235D01*
X71738773Y-59115196D01*
X71714505Y-59118796D01*
X71690001Y-59120000D01*
X71039999Y-59120000D01*
X71015495Y-59118796D01*
X70991227Y-59115196D01*
X70967428Y-59109235D01*
X70944329Y-59100970D01*
X70922150Y-59090480D01*
X70901107Y-59077868D01*
X70881401Y-59063253D01*
X70863223Y-59046777D01*
X70846747Y-59028599D01*
X70832132Y-59008893D01*
X70819520Y-58987850D01*
X70809030Y-58965671D01*
X70800765Y-58942572D01*
X70794804Y-58918773D01*
X70791204Y-58894505D01*
X70790000Y-58870001D01*
X70790000Y-57969999D01*
X70791204Y-57945495D01*
X70794804Y-57921227D01*
X70800765Y-57897428D01*
X70809030Y-57874329D01*
X70819520Y-57852150D01*
X70832132Y-57831107D01*
X70846747Y-57811401D01*
X70863223Y-57793223D01*
X70881401Y-57776747D01*
X70901107Y-57762132D01*
X70922150Y-57749520D01*
X70944329Y-57739030D01*
X70967428Y-57730765D01*
X70991227Y-57724804D01*
X71015495Y-57721204D01*
X71039999Y-57720000D01*
X71690001Y-57720000D01*
X71714505Y-57721204D01*
X71714505Y-57721204D01*
G37*
D11*
X71365000Y-58420000D03*
D10*
G36*
X73764505Y-57721204D02*
X73788773Y-57724804D01*
X73812572Y-57730765D01*
X73835671Y-57739030D01*
X73857850Y-57749520D01*
X73878893Y-57762132D01*
X73898599Y-57776747D01*
X73916777Y-57793223D01*
X73933253Y-57811401D01*
X73947868Y-57831107D01*
X73960480Y-57852150D01*
X73970970Y-57874329D01*
X73979235Y-57897428D01*
X73985196Y-57921227D01*
X73988796Y-57945495D01*
X73990000Y-57969999D01*
X73990000Y-58870001D01*
X73988796Y-58894505D01*
X73985196Y-58918773D01*
X73979235Y-58942572D01*
X73970970Y-58965671D01*
X73960480Y-58987850D01*
X73947868Y-59008893D01*
X73933253Y-59028599D01*
X73916777Y-59046777D01*
X73898599Y-59063253D01*
X73878893Y-59077868D01*
X73857850Y-59090480D01*
X73835671Y-59100970D01*
X73812572Y-59109235D01*
X73788773Y-59115196D01*
X73764505Y-59118796D01*
X73740001Y-59120000D01*
X73089999Y-59120000D01*
X73065495Y-59118796D01*
X73041227Y-59115196D01*
X73017428Y-59109235D01*
X72994329Y-59100970D01*
X72972150Y-59090480D01*
X72951107Y-59077868D01*
X72931401Y-59063253D01*
X72913223Y-59046777D01*
X72896747Y-59028599D01*
X72882132Y-59008893D01*
X72869520Y-58987850D01*
X72859030Y-58965671D01*
X72850765Y-58942572D01*
X72844804Y-58918773D01*
X72841204Y-58894505D01*
X72840000Y-58870001D01*
X72840000Y-57969999D01*
X72841204Y-57945495D01*
X72844804Y-57921227D01*
X72850765Y-57897428D01*
X72859030Y-57874329D01*
X72869520Y-57852150D01*
X72882132Y-57831107D01*
X72896747Y-57811401D01*
X72913223Y-57793223D01*
X72931401Y-57776747D01*
X72951107Y-57762132D01*
X72972150Y-57749520D01*
X72994329Y-57739030D01*
X73017428Y-57730765D01*
X73041227Y-57724804D01*
X73065495Y-57721204D01*
X73089999Y-57720000D01*
X73740001Y-57720000D01*
X73764505Y-57721204D01*
X73764505Y-57721204D01*
G37*
D11*
X73415000Y-58420000D03*
G04 #@! TD*
D10*
G04 #@! TO.C,C3*
G36*
X72349505Y-42481204D02*
X72373773Y-42484804D01*
X72397572Y-42490765D01*
X72420671Y-42499030D01*
X72442850Y-42509520D01*
X72463893Y-42522132D01*
X72483599Y-42536747D01*
X72501777Y-42553223D01*
X72518253Y-42571401D01*
X72532868Y-42591107D01*
X72545480Y-42612150D01*
X72555970Y-42634329D01*
X72564235Y-42657428D01*
X72570196Y-42681227D01*
X72573796Y-42705495D01*
X72575000Y-42729999D01*
X72575000Y-43630001D01*
X72573796Y-43654505D01*
X72570196Y-43678773D01*
X72564235Y-43702572D01*
X72555970Y-43725671D01*
X72545480Y-43747850D01*
X72532868Y-43768893D01*
X72518253Y-43788599D01*
X72501777Y-43806777D01*
X72483599Y-43823253D01*
X72463893Y-43837868D01*
X72442850Y-43850480D01*
X72420671Y-43860970D01*
X72397572Y-43869235D01*
X72373773Y-43875196D01*
X72349505Y-43878796D01*
X72325001Y-43880000D01*
X71674999Y-43880000D01*
X71650495Y-43878796D01*
X71626227Y-43875196D01*
X71602428Y-43869235D01*
X71579329Y-43860970D01*
X71557150Y-43850480D01*
X71536107Y-43837868D01*
X71516401Y-43823253D01*
X71498223Y-43806777D01*
X71481747Y-43788599D01*
X71467132Y-43768893D01*
X71454520Y-43747850D01*
X71444030Y-43725671D01*
X71435765Y-43702572D01*
X71429804Y-43678773D01*
X71426204Y-43654505D01*
X71425000Y-43630001D01*
X71425000Y-42729999D01*
X71426204Y-42705495D01*
X71429804Y-42681227D01*
X71435765Y-42657428D01*
X71444030Y-42634329D01*
X71454520Y-42612150D01*
X71467132Y-42591107D01*
X71481747Y-42571401D01*
X71498223Y-42553223D01*
X71516401Y-42536747D01*
X71536107Y-42522132D01*
X71557150Y-42509520D01*
X71579329Y-42499030D01*
X71602428Y-42490765D01*
X71626227Y-42484804D01*
X71650495Y-42481204D01*
X71674999Y-42480000D01*
X72325001Y-42480000D01*
X72349505Y-42481204D01*
X72349505Y-42481204D01*
G37*
D11*
X72000000Y-43180000D03*
D10*
G36*
X74399505Y-42481204D02*
X74423773Y-42484804D01*
X74447572Y-42490765D01*
X74470671Y-42499030D01*
X74492850Y-42509520D01*
X74513893Y-42522132D01*
X74533599Y-42536747D01*
X74551777Y-42553223D01*
X74568253Y-42571401D01*
X74582868Y-42591107D01*
X74595480Y-42612150D01*
X74605970Y-42634329D01*
X74614235Y-42657428D01*
X74620196Y-42681227D01*
X74623796Y-42705495D01*
X74625000Y-42729999D01*
X74625000Y-43630001D01*
X74623796Y-43654505D01*
X74620196Y-43678773D01*
X74614235Y-43702572D01*
X74605970Y-43725671D01*
X74595480Y-43747850D01*
X74582868Y-43768893D01*
X74568253Y-43788599D01*
X74551777Y-43806777D01*
X74533599Y-43823253D01*
X74513893Y-43837868D01*
X74492850Y-43850480D01*
X74470671Y-43860970D01*
X74447572Y-43869235D01*
X74423773Y-43875196D01*
X74399505Y-43878796D01*
X74375001Y-43880000D01*
X73724999Y-43880000D01*
X73700495Y-43878796D01*
X73676227Y-43875196D01*
X73652428Y-43869235D01*
X73629329Y-43860970D01*
X73607150Y-43850480D01*
X73586107Y-43837868D01*
X73566401Y-43823253D01*
X73548223Y-43806777D01*
X73531747Y-43788599D01*
X73517132Y-43768893D01*
X73504520Y-43747850D01*
X73494030Y-43725671D01*
X73485765Y-43702572D01*
X73479804Y-43678773D01*
X73476204Y-43654505D01*
X73475000Y-43630001D01*
X73475000Y-42729999D01*
X73476204Y-42705495D01*
X73479804Y-42681227D01*
X73485765Y-42657428D01*
X73494030Y-42634329D01*
X73504520Y-42612150D01*
X73517132Y-42591107D01*
X73531747Y-42571401D01*
X73548223Y-42553223D01*
X73566401Y-42536747D01*
X73586107Y-42522132D01*
X73607150Y-42509520D01*
X73629329Y-42499030D01*
X73652428Y-42490765D01*
X73676227Y-42484804D01*
X73700495Y-42481204D01*
X73724999Y-42480000D01*
X74375001Y-42480000D01*
X74399505Y-42481204D01*
X74399505Y-42481204D01*
G37*
D11*
X74050000Y-43180000D03*
G04 #@! TD*
D10*
G04 #@! TO.C,C4*
G36*
X84228650Y-47845933D02*
X84252918Y-47849533D01*
X84276717Y-47855494D01*
X84299816Y-47863759D01*
X84321995Y-47874249D01*
X84343038Y-47886861D01*
X84362744Y-47901476D01*
X84380922Y-47917952D01*
X84397398Y-47936130D01*
X84412013Y-47955836D01*
X84424625Y-47976879D01*
X84435115Y-47999058D01*
X84443380Y-48022157D01*
X84449341Y-48045956D01*
X84452941Y-48070224D01*
X84454145Y-48094728D01*
X84454145Y-48994730D01*
X84452941Y-49019234D01*
X84449341Y-49043502D01*
X84443380Y-49067301D01*
X84435115Y-49090400D01*
X84424625Y-49112579D01*
X84412013Y-49133622D01*
X84397398Y-49153328D01*
X84380922Y-49171506D01*
X84362744Y-49187982D01*
X84343038Y-49202597D01*
X84321995Y-49215209D01*
X84299816Y-49225699D01*
X84276717Y-49233964D01*
X84252918Y-49239925D01*
X84228650Y-49243525D01*
X84204146Y-49244729D01*
X83554144Y-49244729D01*
X83529640Y-49243525D01*
X83505372Y-49239925D01*
X83481573Y-49233964D01*
X83458474Y-49225699D01*
X83436295Y-49215209D01*
X83415252Y-49202597D01*
X83395546Y-49187982D01*
X83377368Y-49171506D01*
X83360892Y-49153328D01*
X83346277Y-49133622D01*
X83333665Y-49112579D01*
X83323175Y-49090400D01*
X83314910Y-49067301D01*
X83308949Y-49043502D01*
X83305349Y-49019234D01*
X83304145Y-48994730D01*
X83304145Y-48094728D01*
X83305349Y-48070224D01*
X83308949Y-48045956D01*
X83314910Y-48022157D01*
X83323175Y-47999058D01*
X83333665Y-47976879D01*
X83346277Y-47955836D01*
X83360892Y-47936130D01*
X83377368Y-47917952D01*
X83395546Y-47901476D01*
X83415252Y-47886861D01*
X83436295Y-47874249D01*
X83458474Y-47863759D01*
X83481573Y-47855494D01*
X83505372Y-47849533D01*
X83529640Y-47845933D01*
X83554144Y-47844729D01*
X84204146Y-47844729D01*
X84228650Y-47845933D01*
X84228650Y-47845933D01*
G37*
D11*
X83879145Y-48544729D03*
D10*
G36*
X82178650Y-47845933D02*
X82202918Y-47849533D01*
X82226717Y-47855494D01*
X82249816Y-47863759D01*
X82271995Y-47874249D01*
X82293038Y-47886861D01*
X82312744Y-47901476D01*
X82330922Y-47917952D01*
X82347398Y-47936130D01*
X82362013Y-47955836D01*
X82374625Y-47976879D01*
X82385115Y-47999058D01*
X82393380Y-48022157D01*
X82399341Y-48045956D01*
X82402941Y-48070224D01*
X82404145Y-48094728D01*
X82404145Y-48994730D01*
X82402941Y-49019234D01*
X82399341Y-49043502D01*
X82393380Y-49067301D01*
X82385115Y-49090400D01*
X82374625Y-49112579D01*
X82362013Y-49133622D01*
X82347398Y-49153328D01*
X82330922Y-49171506D01*
X82312744Y-49187982D01*
X82293038Y-49202597D01*
X82271995Y-49215209D01*
X82249816Y-49225699D01*
X82226717Y-49233964D01*
X82202918Y-49239925D01*
X82178650Y-49243525D01*
X82154146Y-49244729D01*
X81504144Y-49244729D01*
X81479640Y-49243525D01*
X81455372Y-49239925D01*
X81431573Y-49233964D01*
X81408474Y-49225699D01*
X81386295Y-49215209D01*
X81365252Y-49202597D01*
X81345546Y-49187982D01*
X81327368Y-49171506D01*
X81310892Y-49153328D01*
X81296277Y-49133622D01*
X81283665Y-49112579D01*
X81273175Y-49090400D01*
X81264910Y-49067301D01*
X81258949Y-49043502D01*
X81255349Y-49019234D01*
X81254145Y-48994730D01*
X81254145Y-48094728D01*
X81255349Y-48070224D01*
X81258949Y-48045956D01*
X81264910Y-48022157D01*
X81273175Y-47999058D01*
X81283665Y-47976879D01*
X81296277Y-47955836D01*
X81310892Y-47936130D01*
X81327368Y-47917952D01*
X81345546Y-47901476D01*
X81365252Y-47886861D01*
X81386295Y-47874249D01*
X81408474Y-47863759D01*
X81431573Y-47855494D01*
X81455372Y-47849533D01*
X81479640Y-47845933D01*
X81504144Y-47844729D01*
X82154146Y-47844729D01*
X82178650Y-47845933D01*
X82178650Y-47845933D01*
G37*
D11*
X81829145Y-48544729D03*
G04 #@! TD*
D10*
G04 #@! TO.C,C5*
G36*
X79214505Y-51886204D02*
X79238773Y-51889804D01*
X79262572Y-51895765D01*
X79285671Y-51904030D01*
X79307850Y-51914520D01*
X79328893Y-51927132D01*
X79348599Y-51941747D01*
X79366777Y-51958223D01*
X79383253Y-51976401D01*
X79397868Y-51996107D01*
X79410480Y-52017150D01*
X79420970Y-52039329D01*
X79429235Y-52062428D01*
X79435196Y-52086227D01*
X79438796Y-52110495D01*
X79440000Y-52134999D01*
X79440000Y-52785001D01*
X79438796Y-52809505D01*
X79435196Y-52833773D01*
X79429235Y-52857572D01*
X79420970Y-52880671D01*
X79410480Y-52902850D01*
X79397868Y-52923893D01*
X79383253Y-52943599D01*
X79366777Y-52961777D01*
X79348599Y-52978253D01*
X79328893Y-52992868D01*
X79307850Y-53005480D01*
X79285671Y-53015970D01*
X79262572Y-53024235D01*
X79238773Y-53030196D01*
X79214505Y-53033796D01*
X79190001Y-53035000D01*
X78289999Y-53035000D01*
X78265495Y-53033796D01*
X78241227Y-53030196D01*
X78217428Y-53024235D01*
X78194329Y-53015970D01*
X78172150Y-53005480D01*
X78151107Y-52992868D01*
X78131401Y-52978253D01*
X78113223Y-52961777D01*
X78096747Y-52943599D01*
X78082132Y-52923893D01*
X78069520Y-52902850D01*
X78059030Y-52880671D01*
X78050765Y-52857572D01*
X78044804Y-52833773D01*
X78041204Y-52809505D01*
X78040000Y-52785001D01*
X78040000Y-52134999D01*
X78041204Y-52110495D01*
X78044804Y-52086227D01*
X78050765Y-52062428D01*
X78059030Y-52039329D01*
X78069520Y-52017150D01*
X78082132Y-51996107D01*
X78096747Y-51976401D01*
X78113223Y-51958223D01*
X78131401Y-51941747D01*
X78151107Y-51927132D01*
X78172150Y-51914520D01*
X78194329Y-51904030D01*
X78217428Y-51895765D01*
X78241227Y-51889804D01*
X78265495Y-51886204D01*
X78289999Y-51885000D01*
X79190001Y-51885000D01*
X79214505Y-51886204D01*
X79214505Y-51886204D01*
G37*
D11*
X78740000Y-52460000D03*
D10*
G36*
X79214505Y-49836204D02*
X79238773Y-49839804D01*
X79262572Y-49845765D01*
X79285671Y-49854030D01*
X79307850Y-49864520D01*
X79328893Y-49877132D01*
X79348599Y-49891747D01*
X79366777Y-49908223D01*
X79383253Y-49926401D01*
X79397868Y-49946107D01*
X79410480Y-49967150D01*
X79420970Y-49989329D01*
X79429235Y-50012428D01*
X79435196Y-50036227D01*
X79438796Y-50060495D01*
X79440000Y-50084999D01*
X79440000Y-50735001D01*
X79438796Y-50759505D01*
X79435196Y-50783773D01*
X79429235Y-50807572D01*
X79420970Y-50830671D01*
X79410480Y-50852850D01*
X79397868Y-50873893D01*
X79383253Y-50893599D01*
X79366777Y-50911777D01*
X79348599Y-50928253D01*
X79328893Y-50942868D01*
X79307850Y-50955480D01*
X79285671Y-50965970D01*
X79262572Y-50974235D01*
X79238773Y-50980196D01*
X79214505Y-50983796D01*
X79190001Y-50985000D01*
X78289999Y-50985000D01*
X78265495Y-50983796D01*
X78241227Y-50980196D01*
X78217428Y-50974235D01*
X78194329Y-50965970D01*
X78172150Y-50955480D01*
X78151107Y-50942868D01*
X78131401Y-50928253D01*
X78113223Y-50911777D01*
X78096747Y-50893599D01*
X78082132Y-50873893D01*
X78069520Y-50852850D01*
X78059030Y-50830671D01*
X78050765Y-50807572D01*
X78044804Y-50783773D01*
X78041204Y-50759505D01*
X78040000Y-50735001D01*
X78040000Y-50084999D01*
X78041204Y-50060495D01*
X78044804Y-50036227D01*
X78050765Y-50012428D01*
X78059030Y-49989329D01*
X78069520Y-49967150D01*
X78082132Y-49946107D01*
X78096747Y-49926401D01*
X78113223Y-49908223D01*
X78131401Y-49891747D01*
X78151107Y-49877132D01*
X78172150Y-49864520D01*
X78194329Y-49854030D01*
X78217428Y-49845765D01*
X78241227Y-49839804D01*
X78265495Y-49836204D01*
X78289999Y-49835000D01*
X79190001Y-49835000D01*
X79214505Y-49836204D01*
X79214505Y-49836204D01*
G37*
D11*
X78740000Y-50410000D03*
G04 #@! TD*
D10*
G04 #@! TO.C,C6*
G36*
X17957005Y-68960704D02*
X17981273Y-68964304D01*
X18005072Y-68970265D01*
X18028171Y-68978530D01*
X18050350Y-68989020D01*
X18071393Y-69001632D01*
X18091099Y-69016247D01*
X18109277Y-69032723D01*
X18125753Y-69050901D01*
X18140368Y-69070607D01*
X18152980Y-69091650D01*
X18163470Y-69113829D01*
X18171735Y-69136928D01*
X18177696Y-69160727D01*
X18181296Y-69184995D01*
X18182500Y-69209499D01*
X18182500Y-70109501D01*
X18181296Y-70134005D01*
X18177696Y-70158273D01*
X18171735Y-70182072D01*
X18163470Y-70205171D01*
X18152980Y-70227350D01*
X18140368Y-70248393D01*
X18125753Y-70268099D01*
X18109277Y-70286277D01*
X18091099Y-70302753D01*
X18071393Y-70317368D01*
X18050350Y-70329980D01*
X18028171Y-70340470D01*
X18005072Y-70348735D01*
X17981273Y-70354696D01*
X17957005Y-70358296D01*
X17932501Y-70359500D01*
X17282499Y-70359500D01*
X17257995Y-70358296D01*
X17233727Y-70354696D01*
X17209928Y-70348735D01*
X17186829Y-70340470D01*
X17164650Y-70329980D01*
X17143607Y-70317368D01*
X17123901Y-70302753D01*
X17105723Y-70286277D01*
X17089247Y-70268099D01*
X17074632Y-70248393D01*
X17062020Y-70227350D01*
X17051530Y-70205171D01*
X17043265Y-70182072D01*
X17037304Y-70158273D01*
X17033704Y-70134005D01*
X17032500Y-70109501D01*
X17032500Y-69209499D01*
X17033704Y-69184995D01*
X17037304Y-69160727D01*
X17043265Y-69136928D01*
X17051530Y-69113829D01*
X17062020Y-69091650D01*
X17074632Y-69070607D01*
X17089247Y-69050901D01*
X17105723Y-69032723D01*
X17123901Y-69016247D01*
X17143607Y-69001632D01*
X17164650Y-68989020D01*
X17186829Y-68978530D01*
X17209928Y-68970265D01*
X17233727Y-68964304D01*
X17257995Y-68960704D01*
X17282499Y-68959500D01*
X17932501Y-68959500D01*
X17957005Y-68960704D01*
X17957005Y-68960704D01*
G37*
D11*
X17607500Y-69659500D03*
D10*
G36*
X15907005Y-68960704D02*
X15931273Y-68964304D01*
X15955072Y-68970265D01*
X15978171Y-68978530D01*
X16000350Y-68989020D01*
X16021393Y-69001632D01*
X16041099Y-69016247D01*
X16059277Y-69032723D01*
X16075753Y-69050901D01*
X16090368Y-69070607D01*
X16102980Y-69091650D01*
X16113470Y-69113829D01*
X16121735Y-69136928D01*
X16127696Y-69160727D01*
X16131296Y-69184995D01*
X16132500Y-69209499D01*
X16132500Y-70109501D01*
X16131296Y-70134005D01*
X16127696Y-70158273D01*
X16121735Y-70182072D01*
X16113470Y-70205171D01*
X16102980Y-70227350D01*
X16090368Y-70248393D01*
X16075753Y-70268099D01*
X16059277Y-70286277D01*
X16041099Y-70302753D01*
X16021393Y-70317368D01*
X16000350Y-70329980D01*
X15978171Y-70340470D01*
X15955072Y-70348735D01*
X15931273Y-70354696D01*
X15907005Y-70358296D01*
X15882501Y-70359500D01*
X15232499Y-70359500D01*
X15207995Y-70358296D01*
X15183727Y-70354696D01*
X15159928Y-70348735D01*
X15136829Y-70340470D01*
X15114650Y-70329980D01*
X15093607Y-70317368D01*
X15073901Y-70302753D01*
X15055723Y-70286277D01*
X15039247Y-70268099D01*
X15024632Y-70248393D01*
X15012020Y-70227350D01*
X15001530Y-70205171D01*
X14993265Y-70182072D01*
X14987304Y-70158273D01*
X14983704Y-70134005D01*
X14982500Y-70109501D01*
X14982500Y-69209499D01*
X14983704Y-69184995D01*
X14987304Y-69160727D01*
X14993265Y-69136928D01*
X15001530Y-69113829D01*
X15012020Y-69091650D01*
X15024632Y-69070607D01*
X15039247Y-69050901D01*
X15055723Y-69032723D01*
X15073901Y-69016247D01*
X15093607Y-69001632D01*
X15114650Y-68989020D01*
X15136829Y-68978530D01*
X15159928Y-68970265D01*
X15183727Y-68964304D01*
X15207995Y-68960704D01*
X15232499Y-68959500D01*
X15882501Y-68959500D01*
X15907005Y-68960704D01*
X15907005Y-68960704D01*
G37*
D11*
X15557500Y-69659500D03*
G04 #@! TD*
D10*
G04 #@! TO.C,C9*
G36*
X64094505Y-57721204D02*
X64118773Y-57724804D01*
X64142572Y-57730765D01*
X64165671Y-57739030D01*
X64187850Y-57749520D01*
X64208893Y-57762132D01*
X64228599Y-57776747D01*
X64246777Y-57793223D01*
X64263253Y-57811401D01*
X64277868Y-57831107D01*
X64290480Y-57852150D01*
X64300970Y-57874329D01*
X64309235Y-57897428D01*
X64315196Y-57921227D01*
X64318796Y-57945495D01*
X64320000Y-57969999D01*
X64320000Y-58870001D01*
X64318796Y-58894505D01*
X64315196Y-58918773D01*
X64309235Y-58942572D01*
X64300970Y-58965671D01*
X64290480Y-58987850D01*
X64277868Y-59008893D01*
X64263253Y-59028599D01*
X64246777Y-59046777D01*
X64228599Y-59063253D01*
X64208893Y-59077868D01*
X64187850Y-59090480D01*
X64165671Y-59100970D01*
X64142572Y-59109235D01*
X64118773Y-59115196D01*
X64094505Y-59118796D01*
X64070001Y-59120000D01*
X63419999Y-59120000D01*
X63395495Y-59118796D01*
X63371227Y-59115196D01*
X63347428Y-59109235D01*
X63324329Y-59100970D01*
X63302150Y-59090480D01*
X63281107Y-59077868D01*
X63261401Y-59063253D01*
X63243223Y-59046777D01*
X63226747Y-59028599D01*
X63212132Y-59008893D01*
X63199520Y-58987850D01*
X63189030Y-58965671D01*
X63180765Y-58942572D01*
X63174804Y-58918773D01*
X63171204Y-58894505D01*
X63170000Y-58870001D01*
X63170000Y-57969999D01*
X63171204Y-57945495D01*
X63174804Y-57921227D01*
X63180765Y-57897428D01*
X63189030Y-57874329D01*
X63199520Y-57852150D01*
X63212132Y-57831107D01*
X63226747Y-57811401D01*
X63243223Y-57793223D01*
X63261401Y-57776747D01*
X63281107Y-57762132D01*
X63302150Y-57749520D01*
X63324329Y-57739030D01*
X63347428Y-57730765D01*
X63371227Y-57724804D01*
X63395495Y-57721204D01*
X63419999Y-57720000D01*
X64070001Y-57720000D01*
X64094505Y-57721204D01*
X64094505Y-57721204D01*
G37*
D11*
X63745000Y-58420000D03*
D10*
G36*
X66144505Y-57721204D02*
X66168773Y-57724804D01*
X66192572Y-57730765D01*
X66215671Y-57739030D01*
X66237850Y-57749520D01*
X66258893Y-57762132D01*
X66278599Y-57776747D01*
X66296777Y-57793223D01*
X66313253Y-57811401D01*
X66327868Y-57831107D01*
X66340480Y-57852150D01*
X66350970Y-57874329D01*
X66359235Y-57897428D01*
X66365196Y-57921227D01*
X66368796Y-57945495D01*
X66370000Y-57969999D01*
X66370000Y-58870001D01*
X66368796Y-58894505D01*
X66365196Y-58918773D01*
X66359235Y-58942572D01*
X66350970Y-58965671D01*
X66340480Y-58987850D01*
X66327868Y-59008893D01*
X66313253Y-59028599D01*
X66296777Y-59046777D01*
X66278599Y-59063253D01*
X66258893Y-59077868D01*
X66237850Y-59090480D01*
X66215671Y-59100970D01*
X66192572Y-59109235D01*
X66168773Y-59115196D01*
X66144505Y-59118796D01*
X66120001Y-59120000D01*
X65469999Y-59120000D01*
X65445495Y-59118796D01*
X65421227Y-59115196D01*
X65397428Y-59109235D01*
X65374329Y-59100970D01*
X65352150Y-59090480D01*
X65331107Y-59077868D01*
X65311401Y-59063253D01*
X65293223Y-59046777D01*
X65276747Y-59028599D01*
X65262132Y-59008893D01*
X65249520Y-58987850D01*
X65239030Y-58965671D01*
X65230765Y-58942572D01*
X65224804Y-58918773D01*
X65221204Y-58894505D01*
X65220000Y-58870001D01*
X65220000Y-57969999D01*
X65221204Y-57945495D01*
X65224804Y-57921227D01*
X65230765Y-57897428D01*
X65239030Y-57874329D01*
X65249520Y-57852150D01*
X65262132Y-57831107D01*
X65276747Y-57811401D01*
X65293223Y-57793223D01*
X65311401Y-57776747D01*
X65331107Y-57762132D01*
X65352150Y-57749520D01*
X65374329Y-57739030D01*
X65397428Y-57730765D01*
X65421227Y-57724804D01*
X65445495Y-57721204D01*
X65469999Y-57720000D01*
X66120001Y-57720000D01*
X66144505Y-57721204D01*
X66144505Y-57721204D01*
G37*
D11*
X65795000Y-58420000D03*
G04 #@! TD*
D10*
G04 #@! TO.C,C10*
G36*
X14709505Y-46926204D02*
X14733773Y-46929804D01*
X14757572Y-46935765D01*
X14780671Y-46944030D01*
X14802850Y-46954520D01*
X14823893Y-46967132D01*
X14843599Y-46981747D01*
X14861777Y-46998223D01*
X14878253Y-47016401D01*
X14892868Y-47036107D01*
X14905480Y-47057150D01*
X14915970Y-47079329D01*
X14924235Y-47102428D01*
X14930196Y-47126227D01*
X14933796Y-47150495D01*
X14935000Y-47174999D01*
X14935000Y-48075001D01*
X14933796Y-48099505D01*
X14930196Y-48123773D01*
X14924235Y-48147572D01*
X14915970Y-48170671D01*
X14905480Y-48192850D01*
X14892868Y-48213893D01*
X14878253Y-48233599D01*
X14861777Y-48251777D01*
X14843599Y-48268253D01*
X14823893Y-48282868D01*
X14802850Y-48295480D01*
X14780671Y-48305970D01*
X14757572Y-48314235D01*
X14733773Y-48320196D01*
X14709505Y-48323796D01*
X14685001Y-48325000D01*
X14034999Y-48325000D01*
X14010495Y-48323796D01*
X13986227Y-48320196D01*
X13962428Y-48314235D01*
X13939329Y-48305970D01*
X13917150Y-48295480D01*
X13896107Y-48282868D01*
X13876401Y-48268253D01*
X13858223Y-48251777D01*
X13841747Y-48233599D01*
X13827132Y-48213893D01*
X13814520Y-48192850D01*
X13804030Y-48170671D01*
X13795765Y-48147572D01*
X13789804Y-48123773D01*
X13786204Y-48099505D01*
X13785000Y-48075001D01*
X13785000Y-47174999D01*
X13786204Y-47150495D01*
X13789804Y-47126227D01*
X13795765Y-47102428D01*
X13804030Y-47079329D01*
X13814520Y-47057150D01*
X13827132Y-47036107D01*
X13841747Y-47016401D01*
X13858223Y-46998223D01*
X13876401Y-46981747D01*
X13896107Y-46967132D01*
X13917150Y-46954520D01*
X13939329Y-46944030D01*
X13962428Y-46935765D01*
X13986227Y-46929804D01*
X14010495Y-46926204D01*
X14034999Y-46925000D01*
X14685001Y-46925000D01*
X14709505Y-46926204D01*
X14709505Y-46926204D01*
G37*
D11*
X14360000Y-47625000D03*
D10*
G36*
X12659505Y-46926204D02*
X12683773Y-46929804D01*
X12707572Y-46935765D01*
X12730671Y-46944030D01*
X12752850Y-46954520D01*
X12773893Y-46967132D01*
X12793599Y-46981747D01*
X12811777Y-46998223D01*
X12828253Y-47016401D01*
X12842868Y-47036107D01*
X12855480Y-47057150D01*
X12865970Y-47079329D01*
X12874235Y-47102428D01*
X12880196Y-47126227D01*
X12883796Y-47150495D01*
X12885000Y-47174999D01*
X12885000Y-48075001D01*
X12883796Y-48099505D01*
X12880196Y-48123773D01*
X12874235Y-48147572D01*
X12865970Y-48170671D01*
X12855480Y-48192850D01*
X12842868Y-48213893D01*
X12828253Y-48233599D01*
X12811777Y-48251777D01*
X12793599Y-48268253D01*
X12773893Y-48282868D01*
X12752850Y-48295480D01*
X12730671Y-48305970D01*
X12707572Y-48314235D01*
X12683773Y-48320196D01*
X12659505Y-48323796D01*
X12635001Y-48325000D01*
X11984999Y-48325000D01*
X11960495Y-48323796D01*
X11936227Y-48320196D01*
X11912428Y-48314235D01*
X11889329Y-48305970D01*
X11867150Y-48295480D01*
X11846107Y-48282868D01*
X11826401Y-48268253D01*
X11808223Y-48251777D01*
X11791747Y-48233599D01*
X11777132Y-48213893D01*
X11764520Y-48192850D01*
X11754030Y-48170671D01*
X11745765Y-48147572D01*
X11739804Y-48123773D01*
X11736204Y-48099505D01*
X11735000Y-48075001D01*
X11735000Y-47174999D01*
X11736204Y-47150495D01*
X11739804Y-47126227D01*
X11745765Y-47102428D01*
X11754030Y-47079329D01*
X11764520Y-47057150D01*
X11777132Y-47036107D01*
X11791747Y-47016401D01*
X11808223Y-46998223D01*
X11826401Y-46981747D01*
X11846107Y-46967132D01*
X11867150Y-46954520D01*
X11889329Y-46944030D01*
X11912428Y-46935765D01*
X11936227Y-46929804D01*
X11960495Y-46926204D01*
X11984999Y-46925000D01*
X12635001Y-46925000D01*
X12659505Y-46926204D01*
X12659505Y-46926204D01*
G37*
D11*
X12310000Y-47625000D03*
G04 #@! TD*
D10*
G04 #@! TO.C,C11*
G36*
X78699505Y-65976204D02*
X78723773Y-65979804D01*
X78747572Y-65985765D01*
X78770671Y-65994030D01*
X78792850Y-66004520D01*
X78813893Y-66017132D01*
X78833599Y-66031747D01*
X78851777Y-66048223D01*
X78868253Y-66066401D01*
X78882868Y-66086107D01*
X78895480Y-66107150D01*
X78905970Y-66129329D01*
X78914235Y-66152428D01*
X78920196Y-66176227D01*
X78923796Y-66200495D01*
X78925000Y-66224999D01*
X78925000Y-67125001D01*
X78923796Y-67149505D01*
X78920196Y-67173773D01*
X78914235Y-67197572D01*
X78905970Y-67220671D01*
X78895480Y-67242850D01*
X78882868Y-67263893D01*
X78868253Y-67283599D01*
X78851777Y-67301777D01*
X78833599Y-67318253D01*
X78813893Y-67332868D01*
X78792850Y-67345480D01*
X78770671Y-67355970D01*
X78747572Y-67364235D01*
X78723773Y-67370196D01*
X78699505Y-67373796D01*
X78675001Y-67375000D01*
X78024999Y-67375000D01*
X78000495Y-67373796D01*
X77976227Y-67370196D01*
X77952428Y-67364235D01*
X77929329Y-67355970D01*
X77907150Y-67345480D01*
X77886107Y-67332868D01*
X77866401Y-67318253D01*
X77848223Y-67301777D01*
X77831747Y-67283599D01*
X77817132Y-67263893D01*
X77804520Y-67242850D01*
X77794030Y-67220671D01*
X77785765Y-67197572D01*
X77779804Y-67173773D01*
X77776204Y-67149505D01*
X77775000Y-67125001D01*
X77775000Y-66224999D01*
X77776204Y-66200495D01*
X77779804Y-66176227D01*
X77785765Y-66152428D01*
X77794030Y-66129329D01*
X77804520Y-66107150D01*
X77817132Y-66086107D01*
X77831747Y-66066401D01*
X77848223Y-66048223D01*
X77866401Y-66031747D01*
X77886107Y-66017132D01*
X77907150Y-66004520D01*
X77929329Y-65994030D01*
X77952428Y-65985765D01*
X77976227Y-65979804D01*
X78000495Y-65976204D01*
X78024999Y-65975000D01*
X78675001Y-65975000D01*
X78699505Y-65976204D01*
X78699505Y-65976204D01*
G37*
D11*
X78350000Y-66675000D03*
D10*
G36*
X80749505Y-65976204D02*
X80773773Y-65979804D01*
X80797572Y-65985765D01*
X80820671Y-65994030D01*
X80842850Y-66004520D01*
X80863893Y-66017132D01*
X80883599Y-66031747D01*
X80901777Y-66048223D01*
X80918253Y-66066401D01*
X80932868Y-66086107D01*
X80945480Y-66107150D01*
X80955970Y-66129329D01*
X80964235Y-66152428D01*
X80970196Y-66176227D01*
X80973796Y-66200495D01*
X80975000Y-66224999D01*
X80975000Y-67125001D01*
X80973796Y-67149505D01*
X80970196Y-67173773D01*
X80964235Y-67197572D01*
X80955970Y-67220671D01*
X80945480Y-67242850D01*
X80932868Y-67263893D01*
X80918253Y-67283599D01*
X80901777Y-67301777D01*
X80883599Y-67318253D01*
X80863893Y-67332868D01*
X80842850Y-67345480D01*
X80820671Y-67355970D01*
X80797572Y-67364235D01*
X80773773Y-67370196D01*
X80749505Y-67373796D01*
X80725001Y-67375000D01*
X80074999Y-67375000D01*
X80050495Y-67373796D01*
X80026227Y-67370196D01*
X80002428Y-67364235D01*
X79979329Y-67355970D01*
X79957150Y-67345480D01*
X79936107Y-67332868D01*
X79916401Y-67318253D01*
X79898223Y-67301777D01*
X79881747Y-67283599D01*
X79867132Y-67263893D01*
X79854520Y-67242850D01*
X79844030Y-67220671D01*
X79835765Y-67197572D01*
X79829804Y-67173773D01*
X79826204Y-67149505D01*
X79825000Y-67125001D01*
X79825000Y-66224999D01*
X79826204Y-66200495D01*
X79829804Y-66176227D01*
X79835765Y-66152428D01*
X79844030Y-66129329D01*
X79854520Y-66107150D01*
X79867132Y-66086107D01*
X79881747Y-66066401D01*
X79898223Y-66048223D01*
X79916401Y-66031747D01*
X79936107Y-66017132D01*
X79957150Y-66004520D01*
X79979329Y-65994030D01*
X80002428Y-65985765D01*
X80026227Y-65979804D01*
X80050495Y-65976204D01*
X80074999Y-65975000D01*
X80725001Y-65975000D01*
X80749505Y-65976204D01*
X80749505Y-65976204D01*
G37*
D11*
X80400000Y-66675000D03*
G04 #@! TD*
D10*
G04 #@! TO.C,C12*
G36*
X66779505Y-42481204D02*
X66803773Y-42484804D01*
X66827572Y-42490765D01*
X66850671Y-42499030D01*
X66872850Y-42509520D01*
X66893893Y-42522132D01*
X66913599Y-42536747D01*
X66931777Y-42553223D01*
X66948253Y-42571401D01*
X66962868Y-42591107D01*
X66975480Y-42612150D01*
X66985970Y-42634329D01*
X66994235Y-42657428D01*
X67000196Y-42681227D01*
X67003796Y-42705495D01*
X67005000Y-42729999D01*
X67005000Y-43630001D01*
X67003796Y-43654505D01*
X67000196Y-43678773D01*
X66994235Y-43702572D01*
X66985970Y-43725671D01*
X66975480Y-43747850D01*
X66962868Y-43768893D01*
X66948253Y-43788599D01*
X66931777Y-43806777D01*
X66913599Y-43823253D01*
X66893893Y-43837868D01*
X66872850Y-43850480D01*
X66850671Y-43860970D01*
X66827572Y-43869235D01*
X66803773Y-43875196D01*
X66779505Y-43878796D01*
X66755001Y-43880000D01*
X66104999Y-43880000D01*
X66080495Y-43878796D01*
X66056227Y-43875196D01*
X66032428Y-43869235D01*
X66009329Y-43860970D01*
X65987150Y-43850480D01*
X65966107Y-43837868D01*
X65946401Y-43823253D01*
X65928223Y-43806777D01*
X65911747Y-43788599D01*
X65897132Y-43768893D01*
X65884520Y-43747850D01*
X65874030Y-43725671D01*
X65865765Y-43702572D01*
X65859804Y-43678773D01*
X65856204Y-43654505D01*
X65855000Y-43630001D01*
X65855000Y-42729999D01*
X65856204Y-42705495D01*
X65859804Y-42681227D01*
X65865765Y-42657428D01*
X65874030Y-42634329D01*
X65884520Y-42612150D01*
X65897132Y-42591107D01*
X65911747Y-42571401D01*
X65928223Y-42553223D01*
X65946401Y-42536747D01*
X65966107Y-42522132D01*
X65987150Y-42509520D01*
X66009329Y-42499030D01*
X66032428Y-42490765D01*
X66056227Y-42484804D01*
X66080495Y-42481204D01*
X66104999Y-42480000D01*
X66755001Y-42480000D01*
X66779505Y-42481204D01*
X66779505Y-42481204D01*
G37*
D11*
X66430000Y-43180000D03*
D10*
G36*
X64729505Y-42481204D02*
X64753773Y-42484804D01*
X64777572Y-42490765D01*
X64800671Y-42499030D01*
X64822850Y-42509520D01*
X64843893Y-42522132D01*
X64863599Y-42536747D01*
X64881777Y-42553223D01*
X64898253Y-42571401D01*
X64912868Y-42591107D01*
X64925480Y-42612150D01*
X64935970Y-42634329D01*
X64944235Y-42657428D01*
X64950196Y-42681227D01*
X64953796Y-42705495D01*
X64955000Y-42729999D01*
X64955000Y-43630001D01*
X64953796Y-43654505D01*
X64950196Y-43678773D01*
X64944235Y-43702572D01*
X64935970Y-43725671D01*
X64925480Y-43747850D01*
X64912868Y-43768893D01*
X64898253Y-43788599D01*
X64881777Y-43806777D01*
X64863599Y-43823253D01*
X64843893Y-43837868D01*
X64822850Y-43850480D01*
X64800671Y-43860970D01*
X64777572Y-43869235D01*
X64753773Y-43875196D01*
X64729505Y-43878796D01*
X64705001Y-43880000D01*
X64054999Y-43880000D01*
X64030495Y-43878796D01*
X64006227Y-43875196D01*
X63982428Y-43869235D01*
X63959329Y-43860970D01*
X63937150Y-43850480D01*
X63916107Y-43837868D01*
X63896401Y-43823253D01*
X63878223Y-43806777D01*
X63861747Y-43788599D01*
X63847132Y-43768893D01*
X63834520Y-43747850D01*
X63824030Y-43725671D01*
X63815765Y-43702572D01*
X63809804Y-43678773D01*
X63806204Y-43654505D01*
X63805000Y-43630001D01*
X63805000Y-42729999D01*
X63806204Y-42705495D01*
X63809804Y-42681227D01*
X63815765Y-42657428D01*
X63824030Y-42634329D01*
X63834520Y-42612150D01*
X63847132Y-42591107D01*
X63861747Y-42571401D01*
X63878223Y-42553223D01*
X63896401Y-42536747D01*
X63916107Y-42522132D01*
X63937150Y-42509520D01*
X63959329Y-42499030D01*
X63982428Y-42490765D01*
X64006227Y-42484804D01*
X64030495Y-42481204D01*
X64054999Y-42480000D01*
X64705001Y-42480000D01*
X64729505Y-42481204D01*
X64729505Y-42481204D01*
G37*
D11*
X64380000Y-43180000D03*
G04 #@! TD*
D10*
G04 #@! TO.C,C13*
G36*
X43919505Y-18986204D02*
X43943773Y-18989804D01*
X43967572Y-18995765D01*
X43990671Y-19004030D01*
X44012850Y-19014520D01*
X44033893Y-19027132D01*
X44053599Y-19041747D01*
X44071777Y-19058223D01*
X44088253Y-19076401D01*
X44102868Y-19096107D01*
X44115480Y-19117150D01*
X44125970Y-19139329D01*
X44134235Y-19162428D01*
X44140196Y-19186227D01*
X44143796Y-19210495D01*
X44145000Y-19234999D01*
X44145000Y-20135001D01*
X44143796Y-20159505D01*
X44140196Y-20183773D01*
X44134235Y-20207572D01*
X44125970Y-20230671D01*
X44115480Y-20252850D01*
X44102868Y-20273893D01*
X44088253Y-20293599D01*
X44071777Y-20311777D01*
X44053599Y-20328253D01*
X44033893Y-20342868D01*
X44012850Y-20355480D01*
X43990671Y-20365970D01*
X43967572Y-20374235D01*
X43943773Y-20380196D01*
X43919505Y-20383796D01*
X43895001Y-20385000D01*
X43244999Y-20385000D01*
X43220495Y-20383796D01*
X43196227Y-20380196D01*
X43172428Y-20374235D01*
X43149329Y-20365970D01*
X43127150Y-20355480D01*
X43106107Y-20342868D01*
X43086401Y-20328253D01*
X43068223Y-20311777D01*
X43051747Y-20293599D01*
X43037132Y-20273893D01*
X43024520Y-20252850D01*
X43014030Y-20230671D01*
X43005765Y-20207572D01*
X42999804Y-20183773D01*
X42996204Y-20159505D01*
X42995000Y-20135001D01*
X42995000Y-19234999D01*
X42996204Y-19210495D01*
X42999804Y-19186227D01*
X43005765Y-19162428D01*
X43014030Y-19139329D01*
X43024520Y-19117150D01*
X43037132Y-19096107D01*
X43051747Y-19076401D01*
X43068223Y-19058223D01*
X43086401Y-19041747D01*
X43106107Y-19027132D01*
X43127150Y-19014520D01*
X43149329Y-19004030D01*
X43172428Y-18995765D01*
X43196227Y-18989804D01*
X43220495Y-18986204D01*
X43244999Y-18985000D01*
X43895001Y-18985000D01*
X43919505Y-18986204D01*
X43919505Y-18986204D01*
G37*
D11*
X43570000Y-19685000D03*
D10*
G36*
X41869505Y-18986204D02*
X41893773Y-18989804D01*
X41917572Y-18995765D01*
X41940671Y-19004030D01*
X41962850Y-19014520D01*
X41983893Y-19027132D01*
X42003599Y-19041747D01*
X42021777Y-19058223D01*
X42038253Y-19076401D01*
X42052868Y-19096107D01*
X42065480Y-19117150D01*
X42075970Y-19139329D01*
X42084235Y-19162428D01*
X42090196Y-19186227D01*
X42093796Y-19210495D01*
X42095000Y-19234999D01*
X42095000Y-20135001D01*
X42093796Y-20159505D01*
X42090196Y-20183773D01*
X42084235Y-20207572D01*
X42075970Y-20230671D01*
X42065480Y-20252850D01*
X42052868Y-20273893D01*
X42038253Y-20293599D01*
X42021777Y-20311777D01*
X42003599Y-20328253D01*
X41983893Y-20342868D01*
X41962850Y-20355480D01*
X41940671Y-20365970D01*
X41917572Y-20374235D01*
X41893773Y-20380196D01*
X41869505Y-20383796D01*
X41845001Y-20385000D01*
X41194999Y-20385000D01*
X41170495Y-20383796D01*
X41146227Y-20380196D01*
X41122428Y-20374235D01*
X41099329Y-20365970D01*
X41077150Y-20355480D01*
X41056107Y-20342868D01*
X41036401Y-20328253D01*
X41018223Y-20311777D01*
X41001747Y-20293599D01*
X40987132Y-20273893D01*
X40974520Y-20252850D01*
X40964030Y-20230671D01*
X40955765Y-20207572D01*
X40949804Y-20183773D01*
X40946204Y-20159505D01*
X40945000Y-20135001D01*
X40945000Y-19234999D01*
X40946204Y-19210495D01*
X40949804Y-19186227D01*
X40955765Y-19162428D01*
X40964030Y-19139329D01*
X40974520Y-19117150D01*
X40987132Y-19096107D01*
X41001747Y-19076401D01*
X41018223Y-19058223D01*
X41036401Y-19041747D01*
X41056107Y-19027132D01*
X41077150Y-19014520D01*
X41099329Y-19004030D01*
X41122428Y-18995765D01*
X41146227Y-18989804D01*
X41170495Y-18986204D01*
X41194999Y-18985000D01*
X41845001Y-18985000D01*
X41869505Y-18986204D01*
X41869505Y-18986204D01*
G37*
D11*
X41520000Y-19685000D03*
G04 #@! TD*
D10*
G04 #@! TO.C,C14*
G36*
X81375505Y-30543204D02*
X81399773Y-30546804D01*
X81423572Y-30552765D01*
X81446671Y-30561030D01*
X81468850Y-30571520D01*
X81489893Y-30584132D01*
X81509599Y-30598747D01*
X81527777Y-30615223D01*
X81544253Y-30633401D01*
X81558868Y-30653107D01*
X81571480Y-30674150D01*
X81581970Y-30696329D01*
X81590235Y-30719428D01*
X81596196Y-30743227D01*
X81599796Y-30767495D01*
X81601000Y-30791999D01*
X81601000Y-31692001D01*
X81599796Y-31716505D01*
X81596196Y-31740773D01*
X81590235Y-31764572D01*
X81581970Y-31787671D01*
X81571480Y-31809850D01*
X81558868Y-31830893D01*
X81544253Y-31850599D01*
X81527777Y-31868777D01*
X81509599Y-31885253D01*
X81489893Y-31899868D01*
X81468850Y-31912480D01*
X81446671Y-31922970D01*
X81423572Y-31931235D01*
X81399773Y-31937196D01*
X81375505Y-31940796D01*
X81351001Y-31942000D01*
X80700999Y-31942000D01*
X80676495Y-31940796D01*
X80652227Y-31937196D01*
X80628428Y-31931235D01*
X80605329Y-31922970D01*
X80583150Y-31912480D01*
X80562107Y-31899868D01*
X80542401Y-31885253D01*
X80524223Y-31868777D01*
X80507747Y-31850599D01*
X80493132Y-31830893D01*
X80480520Y-31809850D01*
X80470030Y-31787671D01*
X80461765Y-31764572D01*
X80455804Y-31740773D01*
X80452204Y-31716505D01*
X80451000Y-31692001D01*
X80451000Y-30791999D01*
X80452204Y-30767495D01*
X80455804Y-30743227D01*
X80461765Y-30719428D01*
X80470030Y-30696329D01*
X80480520Y-30674150D01*
X80493132Y-30653107D01*
X80507747Y-30633401D01*
X80524223Y-30615223D01*
X80542401Y-30598747D01*
X80562107Y-30584132D01*
X80583150Y-30571520D01*
X80605329Y-30561030D01*
X80628428Y-30552765D01*
X80652227Y-30546804D01*
X80676495Y-30543204D01*
X80700999Y-30542000D01*
X81351001Y-30542000D01*
X81375505Y-30543204D01*
X81375505Y-30543204D01*
G37*
D11*
X81026000Y-31242000D03*
D10*
G36*
X83425505Y-30543204D02*
X83449773Y-30546804D01*
X83473572Y-30552765D01*
X83496671Y-30561030D01*
X83518850Y-30571520D01*
X83539893Y-30584132D01*
X83559599Y-30598747D01*
X83577777Y-30615223D01*
X83594253Y-30633401D01*
X83608868Y-30653107D01*
X83621480Y-30674150D01*
X83631970Y-30696329D01*
X83640235Y-30719428D01*
X83646196Y-30743227D01*
X83649796Y-30767495D01*
X83651000Y-30791999D01*
X83651000Y-31692001D01*
X83649796Y-31716505D01*
X83646196Y-31740773D01*
X83640235Y-31764572D01*
X83631970Y-31787671D01*
X83621480Y-31809850D01*
X83608868Y-31830893D01*
X83594253Y-31850599D01*
X83577777Y-31868777D01*
X83559599Y-31885253D01*
X83539893Y-31899868D01*
X83518850Y-31912480D01*
X83496671Y-31922970D01*
X83473572Y-31931235D01*
X83449773Y-31937196D01*
X83425505Y-31940796D01*
X83401001Y-31942000D01*
X82750999Y-31942000D01*
X82726495Y-31940796D01*
X82702227Y-31937196D01*
X82678428Y-31931235D01*
X82655329Y-31922970D01*
X82633150Y-31912480D01*
X82612107Y-31899868D01*
X82592401Y-31885253D01*
X82574223Y-31868777D01*
X82557747Y-31850599D01*
X82543132Y-31830893D01*
X82530520Y-31809850D01*
X82520030Y-31787671D01*
X82511765Y-31764572D01*
X82505804Y-31740773D01*
X82502204Y-31716505D01*
X82501000Y-31692001D01*
X82501000Y-30791999D01*
X82502204Y-30767495D01*
X82505804Y-30743227D01*
X82511765Y-30719428D01*
X82520030Y-30696329D01*
X82530520Y-30674150D01*
X82543132Y-30653107D01*
X82557747Y-30633401D01*
X82574223Y-30615223D01*
X82592401Y-30598747D01*
X82612107Y-30584132D01*
X82633150Y-30571520D01*
X82655329Y-30561030D01*
X82678428Y-30552765D01*
X82702227Y-30546804D01*
X82726495Y-30543204D01*
X82750999Y-30542000D01*
X83401001Y-30542000D01*
X83425505Y-30543204D01*
X83425505Y-30543204D01*
G37*
D11*
X83076000Y-31242000D03*
G04 #@! TD*
D10*
G04 #@! TO.C,C15*
G36*
X57624505Y-41091204D02*
X57648773Y-41094804D01*
X57672572Y-41100765D01*
X57695671Y-41109030D01*
X57717850Y-41119520D01*
X57738893Y-41132132D01*
X57758599Y-41146747D01*
X57776777Y-41163223D01*
X57793253Y-41181401D01*
X57807868Y-41201107D01*
X57820480Y-41222150D01*
X57830970Y-41244329D01*
X57839235Y-41267428D01*
X57845196Y-41291227D01*
X57848796Y-41315495D01*
X57850000Y-41339999D01*
X57850000Y-41990001D01*
X57848796Y-42014505D01*
X57845196Y-42038773D01*
X57839235Y-42062572D01*
X57830970Y-42085671D01*
X57820480Y-42107850D01*
X57807868Y-42128893D01*
X57793253Y-42148599D01*
X57776777Y-42166777D01*
X57758599Y-42183253D01*
X57738893Y-42197868D01*
X57717850Y-42210480D01*
X57695671Y-42220970D01*
X57672572Y-42229235D01*
X57648773Y-42235196D01*
X57624505Y-42238796D01*
X57600001Y-42240000D01*
X56699999Y-42240000D01*
X56675495Y-42238796D01*
X56651227Y-42235196D01*
X56627428Y-42229235D01*
X56604329Y-42220970D01*
X56582150Y-42210480D01*
X56561107Y-42197868D01*
X56541401Y-42183253D01*
X56523223Y-42166777D01*
X56506747Y-42148599D01*
X56492132Y-42128893D01*
X56479520Y-42107850D01*
X56469030Y-42085671D01*
X56460765Y-42062572D01*
X56454804Y-42038773D01*
X56451204Y-42014505D01*
X56450000Y-41990001D01*
X56450000Y-41339999D01*
X56451204Y-41315495D01*
X56454804Y-41291227D01*
X56460765Y-41267428D01*
X56469030Y-41244329D01*
X56479520Y-41222150D01*
X56492132Y-41201107D01*
X56506747Y-41181401D01*
X56523223Y-41163223D01*
X56541401Y-41146747D01*
X56561107Y-41132132D01*
X56582150Y-41119520D01*
X56604329Y-41109030D01*
X56627428Y-41100765D01*
X56651227Y-41094804D01*
X56675495Y-41091204D01*
X56699999Y-41090000D01*
X57600001Y-41090000D01*
X57624505Y-41091204D01*
X57624505Y-41091204D01*
G37*
D11*
X57150000Y-41665000D03*
D10*
G36*
X57624505Y-39041204D02*
X57648773Y-39044804D01*
X57672572Y-39050765D01*
X57695671Y-39059030D01*
X57717850Y-39069520D01*
X57738893Y-39082132D01*
X57758599Y-39096747D01*
X57776777Y-39113223D01*
X57793253Y-39131401D01*
X57807868Y-39151107D01*
X57820480Y-39172150D01*
X57830970Y-39194329D01*
X57839235Y-39217428D01*
X57845196Y-39241227D01*
X57848796Y-39265495D01*
X57850000Y-39289999D01*
X57850000Y-39940001D01*
X57848796Y-39964505D01*
X57845196Y-39988773D01*
X57839235Y-40012572D01*
X57830970Y-40035671D01*
X57820480Y-40057850D01*
X57807868Y-40078893D01*
X57793253Y-40098599D01*
X57776777Y-40116777D01*
X57758599Y-40133253D01*
X57738893Y-40147868D01*
X57717850Y-40160480D01*
X57695671Y-40170970D01*
X57672572Y-40179235D01*
X57648773Y-40185196D01*
X57624505Y-40188796D01*
X57600001Y-40190000D01*
X56699999Y-40190000D01*
X56675495Y-40188796D01*
X56651227Y-40185196D01*
X56627428Y-40179235D01*
X56604329Y-40170970D01*
X56582150Y-40160480D01*
X56561107Y-40147868D01*
X56541401Y-40133253D01*
X56523223Y-40116777D01*
X56506747Y-40098599D01*
X56492132Y-40078893D01*
X56479520Y-40057850D01*
X56469030Y-40035671D01*
X56460765Y-40012572D01*
X56454804Y-39988773D01*
X56451204Y-39964505D01*
X56450000Y-39940001D01*
X56450000Y-39289999D01*
X56451204Y-39265495D01*
X56454804Y-39241227D01*
X56460765Y-39217428D01*
X56469030Y-39194329D01*
X56479520Y-39172150D01*
X56492132Y-39151107D01*
X56506747Y-39131401D01*
X56523223Y-39113223D01*
X56541401Y-39096747D01*
X56561107Y-39082132D01*
X56582150Y-39069520D01*
X56604329Y-39059030D01*
X56627428Y-39050765D01*
X56651227Y-39044804D01*
X56675495Y-39041204D01*
X56699999Y-39040000D01*
X57600001Y-39040000D01*
X57624505Y-39041204D01*
X57624505Y-39041204D01*
G37*
D11*
X57150000Y-39615000D03*
G04 #@! TD*
D10*
G04 #@! TO.C,C17*
G36*
X70589505Y-42481204D02*
X70613773Y-42484804D01*
X70637572Y-42490765D01*
X70660671Y-42499030D01*
X70682850Y-42509520D01*
X70703893Y-42522132D01*
X70723599Y-42536747D01*
X70741777Y-42553223D01*
X70758253Y-42571401D01*
X70772868Y-42591107D01*
X70785480Y-42612150D01*
X70795970Y-42634329D01*
X70804235Y-42657428D01*
X70810196Y-42681227D01*
X70813796Y-42705495D01*
X70815000Y-42729999D01*
X70815000Y-43630001D01*
X70813796Y-43654505D01*
X70810196Y-43678773D01*
X70804235Y-43702572D01*
X70795970Y-43725671D01*
X70785480Y-43747850D01*
X70772868Y-43768893D01*
X70758253Y-43788599D01*
X70741777Y-43806777D01*
X70723599Y-43823253D01*
X70703893Y-43837868D01*
X70682850Y-43850480D01*
X70660671Y-43860970D01*
X70637572Y-43869235D01*
X70613773Y-43875196D01*
X70589505Y-43878796D01*
X70565001Y-43880000D01*
X69914999Y-43880000D01*
X69890495Y-43878796D01*
X69866227Y-43875196D01*
X69842428Y-43869235D01*
X69819329Y-43860970D01*
X69797150Y-43850480D01*
X69776107Y-43837868D01*
X69756401Y-43823253D01*
X69738223Y-43806777D01*
X69721747Y-43788599D01*
X69707132Y-43768893D01*
X69694520Y-43747850D01*
X69684030Y-43725671D01*
X69675765Y-43702572D01*
X69669804Y-43678773D01*
X69666204Y-43654505D01*
X69665000Y-43630001D01*
X69665000Y-42729999D01*
X69666204Y-42705495D01*
X69669804Y-42681227D01*
X69675765Y-42657428D01*
X69684030Y-42634329D01*
X69694520Y-42612150D01*
X69707132Y-42591107D01*
X69721747Y-42571401D01*
X69738223Y-42553223D01*
X69756401Y-42536747D01*
X69776107Y-42522132D01*
X69797150Y-42509520D01*
X69819329Y-42499030D01*
X69842428Y-42490765D01*
X69866227Y-42484804D01*
X69890495Y-42481204D01*
X69914999Y-42480000D01*
X70565001Y-42480000D01*
X70589505Y-42481204D01*
X70589505Y-42481204D01*
G37*
D11*
X70240000Y-43180000D03*
D10*
G36*
X68539505Y-42481204D02*
X68563773Y-42484804D01*
X68587572Y-42490765D01*
X68610671Y-42499030D01*
X68632850Y-42509520D01*
X68653893Y-42522132D01*
X68673599Y-42536747D01*
X68691777Y-42553223D01*
X68708253Y-42571401D01*
X68722868Y-42591107D01*
X68735480Y-42612150D01*
X68745970Y-42634329D01*
X68754235Y-42657428D01*
X68760196Y-42681227D01*
X68763796Y-42705495D01*
X68765000Y-42729999D01*
X68765000Y-43630001D01*
X68763796Y-43654505D01*
X68760196Y-43678773D01*
X68754235Y-43702572D01*
X68745970Y-43725671D01*
X68735480Y-43747850D01*
X68722868Y-43768893D01*
X68708253Y-43788599D01*
X68691777Y-43806777D01*
X68673599Y-43823253D01*
X68653893Y-43837868D01*
X68632850Y-43850480D01*
X68610671Y-43860970D01*
X68587572Y-43869235D01*
X68563773Y-43875196D01*
X68539505Y-43878796D01*
X68515001Y-43880000D01*
X67864999Y-43880000D01*
X67840495Y-43878796D01*
X67816227Y-43875196D01*
X67792428Y-43869235D01*
X67769329Y-43860970D01*
X67747150Y-43850480D01*
X67726107Y-43837868D01*
X67706401Y-43823253D01*
X67688223Y-43806777D01*
X67671747Y-43788599D01*
X67657132Y-43768893D01*
X67644520Y-43747850D01*
X67634030Y-43725671D01*
X67625765Y-43702572D01*
X67619804Y-43678773D01*
X67616204Y-43654505D01*
X67615000Y-43630001D01*
X67615000Y-42729999D01*
X67616204Y-42705495D01*
X67619804Y-42681227D01*
X67625765Y-42657428D01*
X67634030Y-42634329D01*
X67644520Y-42612150D01*
X67657132Y-42591107D01*
X67671747Y-42571401D01*
X67688223Y-42553223D01*
X67706401Y-42536747D01*
X67726107Y-42522132D01*
X67747150Y-42509520D01*
X67769329Y-42499030D01*
X67792428Y-42490765D01*
X67816227Y-42484804D01*
X67840495Y-42481204D01*
X67864999Y-42480000D01*
X68515001Y-42480000D01*
X68539505Y-42481204D01*
X68539505Y-42481204D01*
G37*
D11*
X68190000Y-43180000D03*
G04 #@! TD*
D10*
G04 #@! TO.C,C18*
G36*
X67904505Y-57721204D02*
X67928773Y-57724804D01*
X67952572Y-57730765D01*
X67975671Y-57739030D01*
X67997850Y-57749520D01*
X68018893Y-57762132D01*
X68038599Y-57776747D01*
X68056777Y-57793223D01*
X68073253Y-57811401D01*
X68087868Y-57831107D01*
X68100480Y-57852150D01*
X68110970Y-57874329D01*
X68119235Y-57897428D01*
X68125196Y-57921227D01*
X68128796Y-57945495D01*
X68130000Y-57969999D01*
X68130000Y-58870001D01*
X68128796Y-58894505D01*
X68125196Y-58918773D01*
X68119235Y-58942572D01*
X68110970Y-58965671D01*
X68100480Y-58987850D01*
X68087868Y-59008893D01*
X68073253Y-59028599D01*
X68056777Y-59046777D01*
X68038599Y-59063253D01*
X68018893Y-59077868D01*
X67997850Y-59090480D01*
X67975671Y-59100970D01*
X67952572Y-59109235D01*
X67928773Y-59115196D01*
X67904505Y-59118796D01*
X67880001Y-59120000D01*
X67229999Y-59120000D01*
X67205495Y-59118796D01*
X67181227Y-59115196D01*
X67157428Y-59109235D01*
X67134329Y-59100970D01*
X67112150Y-59090480D01*
X67091107Y-59077868D01*
X67071401Y-59063253D01*
X67053223Y-59046777D01*
X67036747Y-59028599D01*
X67022132Y-59008893D01*
X67009520Y-58987850D01*
X66999030Y-58965671D01*
X66990765Y-58942572D01*
X66984804Y-58918773D01*
X66981204Y-58894505D01*
X66980000Y-58870001D01*
X66980000Y-57969999D01*
X66981204Y-57945495D01*
X66984804Y-57921227D01*
X66990765Y-57897428D01*
X66999030Y-57874329D01*
X67009520Y-57852150D01*
X67022132Y-57831107D01*
X67036747Y-57811401D01*
X67053223Y-57793223D01*
X67071401Y-57776747D01*
X67091107Y-57762132D01*
X67112150Y-57749520D01*
X67134329Y-57739030D01*
X67157428Y-57730765D01*
X67181227Y-57724804D01*
X67205495Y-57721204D01*
X67229999Y-57720000D01*
X67880001Y-57720000D01*
X67904505Y-57721204D01*
X67904505Y-57721204D01*
G37*
D11*
X67555000Y-58420000D03*
D10*
G36*
X69954505Y-57721204D02*
X69978773Y-57724804D01*
X70002572Y-57730765D01*
X70025671Y-57739030D01*
X70047850Y-57749520D01*
X70068893Y-57762132D01*
X70088599Y-57776747D01*
X70106777Y-57793223D01*
X70123253Y-57811401D01*
X70137868Y-57831107D01*
X70150480Y-57852150D01*
X70160970Y-57874329D01*
X70169235Y-57897428D01*
X70175196Y-57921227D01*
X70178796Y-57945495D01*
X70180000Y-57969999D01*
X70180000Y-58870001D01*
X70178796Y-58894505D01*
X70175196Y-58918773D01*
X70169235Y-58942572D01*
X70160970Y-58965671D01*
X70150480Y-58987850D01*
X70137868Y-59008893D01*
X70123253Y-59028599D01*
X70106777Y-59046777D01*
X70088599Y-59063253D01*
X70068893Y-59077868D01*
X70047850Y-59090480D01*
X70025671Y-59100970D01*
X70002572Y-59109235D01*
X69978773Y-59115196D01*
X69954505Y-59118796D01*
X69930001Y-59120000D01*
X69279999Y-59120000D01*
X69255495Y-59118796D01*
X69231227Y-59115196D01*
X69207428Y-59109235D01*
X69184329Y-59100970D01*
X69162150Y-59090480D01*
X69141107Y-59077868D01*
X69121401Y-59063253D01*
X69103223Y-59046777D01*
X69086747Y-59028599D01*
X69072132Y-59008893D01*
X69059520Y-58987850D01*
X69049030Y-58965671D01*
X69040765Y-58942572D01*
X69034804Y-58918773D01*
X69031204Y-58894505D01*
X69030000Y-58870001D01*
X69030000Y-57969999D01*
X69031204Y-57945495D01*
X69034804Y-57921227D01*
X69040765Y-57897428D01*
X69049030Y-57874329D01*
X69059520Y-57852150D01*
X69072132Y-57831107D01*
X69086747Y-57811401D01*
X69103223Y-57793223D01*
X69121401Y-57776747D01*
X69141107Y-57762132D01*
X69162150Y-57749520D01*
X69184329Y-57739030D01*
X69207428Y-57730765D01*
X69231227Y-57724804D01*
X69255495Y-57721204D01*
X69279999Y-57720000D01*
X69930001Y-57720000D01*
X69954505Y-57721204D01*
X69954505Y-57721204D01*
G37*
D11*
X69605000Y-58420000D03*
G04 #@! TD*
D10*
G04 #@! TO.C,L1*
G36*
X82178650Y-45305933D02*
X82202918Y-45309533D01*
X82226717Y-45315494D01*
X82249816Y-45323759D01*
X82271995Y-45334249D01*
X82293038Y-45346861D01*
X82312744Y-45361476D01*
X82330922Y-45377952D01*
X82347398Y-45396130D01*
X82362013Y-45415836D01*
X82374625Y-45436879D01*
X82385115Y-45459058D01*
X82393380Y-45482157D01*
X82399341Y-45505956D01*
X82402941Y-45530224D01*
X82404145Y-45554728D01*
X82404145Y-46454730D01*
X82402941Y-46479234D01*
X82399341Y-46503502D01*
X82393380Y-46527301D01*
X82385115Y-46550400D01*
X82374625Y-46572579D01*
X82362013Y-46593622D01*
X82347398Y-46613328D01*
X82330922Y-46631506D01*
X82312744Y-46647982D01*
X82293038Y-46662597D01*
X82271995Y-46675209D01*
X82249816Y-46685699D01*
X82226717Y-46693964D01*
X82202918Y-46699925D01*
X82178650Y-46703525D01*
X82154146Y-46704729D01*
X81504144Y-46704729D01*
X81479640Y-46703525D01*
X81455372Y-46699925D01*
X81431573Y-46693964D01*
X81408474Y-46685699D01*
X81386295Y-46675209D01*
X81365252Y-46662597D01*
X81345546Y-46647982D01*
X81327368Y-46631506D01*
X81310892Y-46613328D01*
X81296277Y-46593622D01*
X81283665Y-46572579D01*
X81273175Y-46550400D01*
X81264910Y-46527301D01*
X81258949Y-46503502D01*
X81255349Y-46479234D01*
X81254145Y-46454730D01*
X81254145Y-45554728D01*
X81255349Y-45530224D01*
X81258949Y-45505956D01*
X81264910Y-45482157D01*
X81273175Y-45459058D01*
X81283665Y-45436879D01*
X81296277Y-45415836D01*
X81310892Y-45396130D01*
X81327368Y-45377952D01*
X81345546Y-45361476D01*
X81365252Y-45346861D01*
X81386295Y-45334249D01*
X81408474Y-45323759D01*
X81431573Y-45315494D01*
X81455372Y-45309533D01*
X81479640Y-45305933D01*
X81504144Y-45304729D01*
X82154146Y-45304729D01*
X82178650Y-45305933D01*
X82178650Y-45305933D01*
G37*
D11*
X81829145Y-46004729D03*
D10*
G36*
X84228650Y-45305933D02*
X84252918Y-45309533D01*
X84276717Y-45315494D01*
X84299816Y-45323759D01*
X84321995Y-45334249D01*
X84343038Y-45346861D01*
X84362744Y-45361476D01*
X84380922Y-45377952D01*
X84397398Y-45396130D01*
X84412013Y-45415836D01*
X84424625Y-45436879D01*
X84435115Y-45459058D01*
X84443380Y-45482157D01*
X84449341Y-45505956D01*
X84452941Y-45530224D01*
X84454145Y-45554728D01*
X84454145Y-46454730D01*
X84452941Y-46479234D01*
X84449341Y-46503502D01*
X84443380Y-46527301D01*
X84435115Y-46550400D01*
X84424625Y-46572579D01*
X84412013Y-46593622D01*
X84397398Y-46613328D01*
X84380922Y-46631506D01*
X84362744Y-46647982D01*
X84343038Y-46662597D01*
X84321995Y-46675209D01*
X84299816Y-46685699D01*
X84276717Y-46693964D01*
X84252918Y-46699925D01*
X84228650Y-46703525D01*
X84204146Y-46704729D01*
X83554144Y-46704729D01*
X83529640Y-46703525D01*
X83505372Y-46699925D01*
X83481573Y-46693964D01*
X83458474Y-46685699D01*
X83436295Y-46675209D01*
X83415252Y-46662597D01*
X83395546Y-46647982D01*
X83377368Y-46631506D01*
X83360892Y-46613328D01*
X83346277Y-46593622D01*
X83333665Y-46572579D01*
X83323175Y-46550400D01*
X83314910Y-46527301D01*
X83308949Y-46503502D01*
X83305349Y-46479234D01*
X83304145Y-46454730D01*
X83304145Y-45554728D01*
X83305349Y-45530224D01*
X83308949Y-45505956D01*
X83314910Y-45482157D01*
X83323175Y-45459058D01*
X83333665Y-45436879D01*
X83346277Y-45415836D01*
X83360892Y-45396130D01*
X83377368Y-45377952D01*
X83395546Y-45361476D01*
X83415252Y-45346861D01*
X83436295Y-45334249D01*
X83458474Y-45323759D01*
X83481573Y-45315494D01*
X83505372Y-45309533D01*
X83529640Y-45305933D01*
X83554144Y-45304729D01*
X84204146Y-45304729D01*
X84228650Y-45305933D01*
X84228650Y-45305933D01*
G37*
D11*
X83879145Y-46004729D03*
G04 #@! TD*
D10*
G04 #@! TO.C,R4*
G36*
X57744505Y-59626204D02*
X57768773Y-59629804D01*
X57792572Y-59635765D01*
X57815671Y-59644030D01*
X57837850Y-59654520D01*
X57858893Y-59667132D01*
X57878599Y-59681747D01*
X57896777Y-59698223D01*
X57913253Y-59716401D01*
X57927868Y-59736107D01*
X57940480Y-59757150D01*
X57950970Y-59779329D01*
X57959235Y-59802428D01*
X57965196Y-59826227D01*
X57968796Y-59850495D01*
X57970000Y-59874999D01*
X57970000Y-60775001D01*
X57968796Y-60799505D01*
X57965196Y-60823773D01*
X57959235Y-60847572D01*
X57950970Y-60870671D01*
X57940480Y-60892850D01*
X57927868Y-60913893D01*
X57913253Y-60933599D01*
X57896777Y-60951777D01*
X57878599Y-60968253D01*
X57858893Y-60982868D01*
X57837850Y-60995480D01*
X57815671Y-61005970D01*
X57792572Y-61014235D01*
X57768773Y-61020196D01*
X57744505Y-61023796D01*
X57720001Y-61025000D01*
X57069999Y-61025000D01*
X57045495Y-61023796D01*
X57021227Y-61020196D01*
X56997428Y-61014235D01*
X56974329Y-61005970D01*
X56952150Y-60995480D01*
X56931107Y-60982868D01*
X56911401Y-60968253D01*
X56893223Y-60951777D01*
X56876747Y-60933599D01*
X56862132Y-60913893D01*
X56849520Y-60892850D01*
X56839030Y-60870671D01*
X56830765Y-60847572D01*
X56824804Y-60823773D01*
X56821204Y-60799505D01*
X56820000Y-60775001D01*
X56820000Y-59874999D01*
X56821204Y-59850495D01*
X56824804Y-59826227D01*
X56830765Y-59802428D01*
X56839030Y-59779329D01*
X56849520Y-59757150D01*
X56862132Y-59736107D01*
X56876747Y-59716401D01*
X56893223Y-59698223D01*
X56911401Y-59681747D01*
X56931107Y-59667132D01*
X56952150Y-59654520D01*
X56974329Y-59644030D01*
X56997428Y-59635765D01*
X57021227Y-59629804D01*
X57045495Y-59626204D01*
X57069999Y-59625000D01*
X57720001Y-59625000D01*
X57744505Y-59626204D01*
X57744505Y-59626204D01*
G37*
D11*
X57395000Y-60325000D03*
D10*
G36*
X59794505Y-59626204D02*
X59818773Y-59629804D01*
X59842572Y-59635765D01*
X59865671Y-59644030D01*
X59887850Y-59654520D01*
X59908893Y-59667132D01*
X59928599Y-59681747D01*
X59946777Y-59698223D01*
X59963253Y-59716401D01*
X59977868Y-59736107D01*
X59990480Y-59757150D01*
X60000970Y-59779329D01*
X60009235Y-59802428D01*
X60015196Y-59826227D01*
X60018796Y-59850495D01*
X60020000Y-59874999D01*
X60020000Y-60775001D01*
X60018796Y-60799505D01*
X60015196Y-60823773D01*
X60009235Y-60847572D01*
X60000970Y-60870671D01*
X59990480Y-60892850D01*
X59977868Y-60913893D01*
X59963253Y-60933599D01*
X59946777Y-60951777D01*
X59928599Y-60968253D01*
X59908893Y-60982868D01*
X59887850Y-60995480D01*
X59865671Y-61005970D01*
X59842572Y-61014235D01*
X59818773Y-61020196D01*
X59794505Y-61023796D01*
X59770001Y-61025000D01*
X59119999Y-61025000D01*
X59095495Y-61023796D01*
X59071227Y-61020196D01*
X59047428Y-61014235D01*
X59024329Y-61005970D01*
X59002150Y-60995480D01*
X58981107Y-60982868D01*
X58961401Y-60968253D01*
X58943223Y-60951777D01*
X58926747Y-60933599D01*
X58912132Y-60913893D01*
X58899520Y-60892850D01*
X58889030Y-60870671D01*
X58880765Y-60847572D01*
X58874804Y-60823773D01*
X58871204Y-60799505D01*
X58870000Y-60775001D01*
X58870000Y-59874999D01*
X58871204Y-59850495D01*
X58874804Y-59826227D01*
X58880765Y-59802428D01*
X58889030Y-59779329D01*
X58899520Y-59757150D01*
X58912132Y-59736107D01*
X58926747Y-59716401D01*
X58943223Y-59698223D01*
X58961401Y-59681747D01*
X58981107Y-59667132D01*
X59002150Y-59654520D01*
X59024329Y-59644030D01*
X59047428Y-59635765D01*
X59071227Y-59629804D01*
X59095495Y-59626204D01*
X59119999Y-59625000D01*
X59770001Y-59625000D01*
X59794505Y-59626204D01*
X59794505Y-59626204D01*
G37*
D11*
X59445000Y-60325000D03*
G04 #@! TD*
D10*
G04 #@! TO.C,R7*
G36*
X85049505Y-81216204D02*
X85073773Y-81219804D01*
X85097572Y-81225765D01*
X85120671Y-81234030D01*
X85142850Y-81244520D01*
X85163893Y-81257132D01*
X85183599Y-81271747D01*
X85201777Y-81288223D01*
X85218253Y-81306401D01*
X85232868Y-81326107D01*
X85245480Y-81347150D01*
X85255970Y-81369329D01*
X85264235Y-81392428D01*
X85270196Y-81416227D01*
X85273796Y-81440495D01*
X85275000Y-81464999D01*
X85275000Y-82365001D01*
X85273796Y-82389505D01*
X85270196Y-82413773D01*
X85264235Y-82437572D01*
X85255970Y-82460671D01*
X85245480Y-82482850D01*
X85232868Y-82503893D01*
X85218253Y-82523599D01*
X85201777Y-82541777D01*
X85183599Y-82558253D01*
X85163893Y-82572868D01*
X85142850Y-82585480D01*
X85120671Y-82595970D01*
X85097572Y-82604235D01*
X85073773Y-82610196D01*
X85049505Y-82613796D01*
X85025001Y-82615000D01*
X84374999Y-82615000D01*
X84350495Y-82613796D01*
X84326227Y-82610196D01*
X84302428Y-82604235D01*
X84279329Y-82595970D01*
X84257150Y-82585480D01*
X84236107Y-82572868D01*
X84216401Y-82558253D01*
X84198223Y-82541777D01*
X84181747Y-82523599D01*
X84167132Y-82503893D01*
X84154520Y-82482850D01*
X84144030Y-82460671D01*
X84135765Y-82437572D01*
X84129804Y-82413773D01*
X84126204Y-82389505D01*
X84125000Y-82365001D01*
X84125000Y-81464999D01*
X84126204Y-81440495D01*
X84129804Y-81416227D01*
X84135765Y-81392428D01*
X84144030Y-81369329D01*
X84154520Y-81347150D01*
X84167132Y-81326107D01*
X84181747Y-81306401D01*
X84198223Y-81288223D01*
X84216401Y-81271747D01*
X84236107Y-81257132D01*
X84257150Y-81244520D01*
X84279329Y-81234030D01*
X84302428Y-81225765D01*
X84326227Y-81219804D01*
X84350495Y-81216204D01*
X84374999Y-81215000D01*
X85025001Y-81215000D01*
X85049505Y-81216204D01*
X85049505Y-81216204D01*
G37*
D11*
X84700000Y-81915000D03*
D10*
G36*
X87099505Y-81216204D02*
X87123773Y-81219804D01*
X87147572Y-81225765D01*
X87170671Y-81234030D01*
X87192850Y-81244520D01*
X87213893Y-81257132D01*
X87233599Y-81271747D01*
X87251777Y-81288223D01*
X87268253Y-81306401D01*
X87282868Y-81326107D01*
X87295480Y-81347150D01*
X87305970Y-81369329D01*
X87314235Y-81392428D01*
X87320196Y-81416227D01*
X87323796Y-81440495D01*
X87325000Y-81464999D01*
X87325000Y-82365001D01*
X87323796Y-82389505D01*
X87320196Y-82413773D01*
X87314235Y-82437572D01*
X87305970Y-82460671D01*
X87295480Y-82482850D01*
X87282868Y-82503893D01*
X87268253Y-82523599D01*
X87251777Y-82541777D01*
X87233599Y-82558253D01*
X87213893Y-82572868D01*
X87192850Y-82585480D01*
X87170671Y-82595970D01*
X87147572Y-82604235D01*
X87123773Y-82610196D01*
X87099505Y-82613796D01*
X87075001Y-82615000D01*
X86424999Y-82615000D01*
X86400495Y-82613796D01*
X86376227Y-82610196D01*
X86352428Y-82604235D01*
X86329329Y-82595970D01*
X86307150Y-82585480D01*
X86286107Y-82572868D01*
X86266401Y-82558253D01*
X86248223Y-82541777D01*
X86231747Y-82523599D01*
X86217132Y-82503893D01*
X86204520Y-82482850D01*
X86194030Y-82460671D01*
X86185765Y-82437572D01*
X86179804Y-82413773D01*
X86176204Y-82389505D01*
X86175000Y-82365001D01*
X86175000Y-81464999D01*
X86176204Y-81440495D01*
X86179804Y-81416227D01*
X86185765Y-81392428D01*
X86194030Y-81369329D01*
X86204520Y-81347150D01*
X86217132Y-81326107D01*
X86231747Y-81306401D01*
X86248223Y-81288223D01*
X86266401Y-81271747D01*
X86286107Y-81257132D01*
X86307150Y-81244520D01*
X86329329Y-81234030D01*
X86352428Y-81225765D01*
X86376227Y-81219804D01*
X86400495Y-81216204D01*
X86424999Y-81215000D01*
X87075001Y-81215000D01*
X87099505Y-81216204D01*
X87099505Y-81216204D01*
G37*
D11*
X86750000Y-81915000D03*
G04 #@! TD*
M02*
