M48
;DRILL file {KiCad (5.0.2)-1} date 9/25/2019 7:06:22 AM
;FORMAT={-:-/ absolute / inch / decimal}
FMAT,2
INCH,TZ
T1C0.0157
T2C0.0197
T3C0.0315
T4C0.0354
T5C0.0362
T6C0.0394
T7C0.0591
T8C0.0917
T9C0.1510
%
G90
G05
T1
X0.425Y-1.925
X0.425Y-2.175
X0.553Y-2.7435
X0.7Y-1.58
X0.7Y-2.2307
X0.775Y-1.975
X0.775Y-2.125
X0.82Y-0.31
X0.83Y-2.27
X1.0275Y-2.176
X1.05Y-2.5285
X1.1165Y-1.12
X1.1177Y-1.02
X1.1245Y-1.517
X1.125Y-2.125
X1.16Y-2.08
X1.16Y-2.32
X1.355Y-1.624
X1.3607Y-1.9013
X1.361Y-1.775
X1.3775Y-1.275
X1.378Y-1.1298
X1.3905Y-1.3165
X1.391Y-1.801
X1.397Y-1.875
X1.397Y-2.02
X1.4145Y-0.825
X1.4167Y-1.675
X1.4365Y-1.7402
X1.437Y-2.0745
X1.4675Y-0.925
X1.4682Y-1.3755
X1.4725Y-1.83
X1.4735Y-1.975
X1.4865Y-1.624
X1.4875Y-1.701
X1.75Y-0.93
X1.782Y-1.084
X1.785Y-1.183
X1.941Y-1.819
X1.948Y-1.5935
X1.953Y-2.0058
X1.967Y-1.739
X1.9674Y-1.9123
X1.978Y-0.983
X1.989Y-2.075
X1.9917Y-1.802
X2.003Y-2.18
X2.004Y-2.4205
X2.024Y-1.043
X2.024Y-1.885
X2.04Y-0.96
X2.11Y-0.9572
X2.11Y-1.18
X2.15Y-0.8
X2.205Y-2.1843
X2.219Y-1.758
X2.219Y-1.8423
X2.249Y-1.687
X2.25Y-0.75
X2.2585Y-2.0415
X2.287Y-1.9123
X2.2875Y-1.774
X2.2929Y-1.1176
X2.2943Y-1.3007
X2.295Y-2.1585
X2.295Y-2.324
X2.295Y-2.4255
X2.3185Y-1.017
X2.3219Y-1.887
X2.3457Y-1.7575
X2.3475Y-0.9315
X2.386Y-1.9066
X2.388Y-2.1343
X2.39Y-1.22
X2.39Y-2.28
X2.4016Y-2.3654
X2.41Y-1.418
X2.41Y-1.98
X2.431Y-1.5065
X2.44Y-1.95
X2.446Y-1.596
X2.464Y-2.4515
X2.4665Y-1.7205
X2.5197Y-2.3654
X2.52Y-0.879
X2.534Y-1.641
X2.5454Y-1.5714
X2.549Y-1.7875
X2.5515Y-1.7495
X2.5535Y-1.8455
X2.57Y-0.99
X2.5701Y-1.5417
X2.5775Y-1.8166
X2.5865Y-1.9915
X2.5959Y-1.923
X2.6Y-0.75
X2.6Y-2.41
X2.605Y-1.5261
X2.6085Y-1.9611
X2.6229Y-1.8969
X2.6245Y-0.958
X2.6297Y-1.1825
X2.63Y-3.23
X2.6429Y-1.561
X2.655Y-1.436
X2.665Y-1.644
X2.6703Y-2.1133
X2.6918Y-2.0825
X2.7Y-0.8
X2.7006Y-1.5519
X2.7178Y-1.592
X2.72Y-2.054
X2.73Y-0.9
X2.73Y-2.38
X2.738Y-1.4325
X2.74Y-3.
X2.7435Y-1.6385
X2.7559Y-2.2472
X2.766Y-1.755
X2.7695Y-1.277
X2.77Y-2.38
X2.77Y-2.91
X2.7735Y-1.6125
X2.8Y-2.25
X2.8115Y-2.3545
X2.826Y-1.639
X2.8315Y-1.7595
X2.84Y-2.4843
X2.842Y-1.318
X2.853Y-1.6025
X2.8698Y-1.569
X2.87Y-2.6643
X2.876Y-1.2565
X2.88Y-2.22
X2.88Y-2.38
X2.9017Y-1.3575
X2.9018Y-1.5494
X2.91Y-2.69
X2.9112Y-2.4008
X2.9223Y-1.8931
X2.9246Y-1.6264
X2.9275Y-1.4655
X2.93Y-2.82
X2.9443Y-2.58
X2.9567Y-1.6069
X2.9592Y-1.4856
X2.9785Y-1.764
X2.98Y-2.71
X2.9921Y-2.252
X2.998Y-1.4445
X3.0045Y-1.615
X3.0143Y-2.7365
X3.02Y-2.39
X3.023Y-1.7898
X3.0335Y-1.141
X3.035Y-2.198
X3.04Y-2.77
X3.0602Y-1.4545
X3.0602Y-1.5945
X3.102Y-1.5895
X3.1102Y-2.6803
X3.1143Y-2.2734
X3.1405Y-1.6625
X3.15Y-1.925
X3.16Y-2.22
X3.175Y-1.975
X3.1849Y-1.9388
X3.23Y-3.23
X3.29Y-1.97
X3.3071Y-2.2866
X3.3133Y-1.5738
X3.3517Y-1.8191
X3.4305Y-1.6615
T2
X3.2Y-2.1002
X3.2Y-2.175
T3
X1.25Y-0.775
X1.25Y-0.875
X1.25Y-0.975
X1.25Y-1.075
X1.25Y-1.175
X1.25Y-1.275
X1.25Y-1.375
X1.25Y-1.475
X1.25Y-1.575
X1.25Y-1.675
X1.25Y-1.775
X1.25Y-1.875
X1.25Y-1.975
X1.25Y-2.075
X1.25Y-2.175
X1.25Y-2.275
X1.85Y-0.775
X1.85Y-0.875
X1.85Y-0.975
X1.85Y-1.075
X1.85Y-1.175
X1.85Y-1.275
X1.85Y-1.375
X1.85Y-1.475
X1.85Y-1.575
X1.85Y-1.675
X1.85Y-1.775
X1.85Y-1.875
X1.85Y-1.975
X1.85Y-2.075
X1.85Y-2.175
X1.85Y-2.275
X1.52Y-0.18
X1.52Y-0.48
X1.62Y-0.18
X1.62Y-0.48
X1.72Y-0.18
X1.72Y-0.48
X1.82Y-0.18
X1.82Y-0.48
X1.92Y-0.18
X1.92Y-0.48
X2.02Y-0.18
X2.02Y-0.48
X2.12Y-0.18
X2.12Y-0.48
X2.22Y-0.18
X2.22Y-0.48
X2.32Y-0.18
X2.32Y-0.48
X2.42Y-0.18
X2.42Y-0.48
X2.52Y-0.18
X2.52Y-0.48
X2.62Y-0.18
X2.62Y-0.48
X2.72Y-0.18
X2.72Y-0.48
X2.82Y-0.18
X2.82Y-0.48
X2.68Y-1.08
X2.68Y-1.38
X3.28Y-1.08
X3.28Y-1.38
X0.35Y-0.875
X0.35Y-0.975
X0.35Y-1.075
X0.35Y-1.175
X0.35Y-1.275
X0.35Y-1.375
X0.35Y-1.475
X0.35Y-1.575
X0.35Y-1.675
X0.35Y-1.775
X0.35Y-1.875
X0.35Y-1.975
X0.35Y-2.075
X0.35Y-2.175
X0.35Y-2.275
X0.35Y-2.375
X0.35Y-2.475
X0.35Y-2.575
X0.35Y-2.675
X0.35Y-2.775
X0.95Y-0.875
X0.95Y-0.975
X0.95Y-1.075
X0.95Y-1.175
X0.95Y-1.275
X0.95Y-1.375
X0.95Y-1.475
X0.95Y-1.575
X0.95Y-1.675
X0.95Y-1.775
X0.95Y-1.875
X0.95Y-1.975
X0.95Y-2.075
X0.95Y-2.175
X0.95Y-2.275
X0.95Y-2.375
X0.95Y-2.475
X0.95Y-2.575
X0.95Y-2.675
X0.95Y-2.775
T4
X3.575Y-3.125
X3.575Y-3.225
T5
X3.1496Y-2.775
X3.1496Y-2.8734
X3.2283Y-2.775
X3.2283Y-2.8734
T6
X3.6095Y-1.1635
X3.6095Y-1.2635
X3.6095Y-1.3635
X3.6095Y-1.4635
X3.6095Y-1.5635
X3.6095Y-1.6635
X2.125Y-2.075
X2.125Y-2.175
X2.125Y-2.275
X2.125Y-2.375
X1.42Y-0.07
X1.52Y-0.07
X1.62Y-0.07
X1.72Y-0.07
X1.82Y-0.07
X1.92Y-0.07
X2.02Y-0.07
X2.12Y-0.07
X2.22Y-0.07
X2.32Y-0.07
X2.125Y-1.55
X2.125Y-1.65
X2.125Y-1.75
X2.125Y-1.85
X1.423Y-0.589
X1.523Y-0.589
X1.623Y-0.589
X1.723Y-0.589
X1.823Y-0.589
X1.923Y-0.589
X2.023Y-0.589
X2.123Y-0.589
X2.223Y-0.589
X2.323Y-0.589
T7
X1.3533Y-2.98
X2.16Y-2.98
T8
X3.335Y-2.5872
X3.335Y-3.0612
T9
X0.2362Y-3.5039
X3.5039Y-3.5039
X0.2362Y-0.2362
X3.5039Y-0.2362
T0
M30
