G04 #@! TF.GenerationSoftware,KiCad,Pcbnew,(5.0.2)-1*
G04 #@! TF.CreationDate,2019-09-24T20:54:29-04:00*
G04 #@! TF.ProjectId,Z80_CPU,5a38305f-4350-4552-9e6b-696361645f70,rev?*
G04 #@! TF.SameCoordinates,Original*
G04 #@! TF.FileFunction,Legend,Top*
G04 #@! TF.FilePolarity,Positive*
%FSLAX46Y46*%
G04 Gerber Fmt 4.6, Leading zero omitted, Abs format (unit mm)*
G04 Created by KiCad (PCBNEW (5.0.2)-1) date 9/24/2019 8:54:29 PM*
%MOMM*%
%LPD*%
G01*
G04 APERTURE LIST*
%ADD10C,0.793750*%
%ADD11C,0.317500*%
%ADD12C,0.381000*%
%ADD13C,0.635000*%
%ADD14C,0.120000*%
%ADD15C,0.254000*%
%ADD16C,0.150000*%
G04 APERTURE END LIST*
D10*
X42817142Y-9818309D02*
X42817142Y-6643309D01*
X43875476Y-8911166D01*
X44933809Y-6643309D01*
X44933809Y-9818309D01*
X48260000Y-9515928D02*
X48108809Y-9667119D01*
X47655238Y-9818309D01*
X47352857Y-9818309D01*
X46899285Y-9667119D01*
X46596904Y-9364738D01*
X46445714Y-9062357D01*
X46294523Y-8457595D01*
X46294523Y-8004023D01*
X46445714Y-7399261D01*
X46596904Y-7096880D01*
X46899285Y-6794500D01*
X47352857Y-6643309D01*
X47655238Y-6643309D01*
X48108809Y-6794500D01*
X48260000Y-6945690D01*
X49620714Y-9818309D02*
X49620714Y-6643309D01*
X50830238Y-6643309D01*
X51132619Y-6794500D01*
X51283809Y-6945690D01*
X51435000Y-7248071D01*
X51435000Y-7701642D01*
X51283809Y-8004023D01*
X51132619Y-8155214D01*
X50830238Y-8306404D01*
X49620714Y-8306404D01*
X52644523Y-6945690D02*
X52795714Y-6794500D01*
X53098095Y-6643309D01*
X53854047Y-6643309D01*
X54156428Y-6794500D01*
X54307619Y-6945690D01*
X54458809Y-7248071D01*
X54458809Y-7550452D01*
X54307619Y-8004023D01*
X52493333Y-9818309D01*
X54458809Y-9818309D01*
X55517142Y-6643309D02*
X57482619Y-6643309D01*
X56424285Y-7852833D01*
X56877857Y-7852833D01*
X57180238Y-8004023D01*
X57331428Y-8155214D01*
X57482619Y-8457595D01*
X57482619Y-9213547D01*
X57331428Y-9515928D01*
X57180238Y-9667119D01*
X56877857Y-9818309D01*
X55970714Y-9818309D01*
X55668333Y-9667119D01*
X55517142Y-9515928D01*
X59448095Y-6643309D02*
X59750476Y-6643309D01*
X60052857Y-6794500D01*
X60204047Y-6945690D01*
X60355238Y-7248071D01*
X60506428Y-7852833D01*
X60506428Y-8608785D01*
X60355238Y-9213547D01*
X60204047Y-9515928D01*
X60052857Y-9667119D01*
X59750476Y-9818309D01*
X59448095Y-9818309D01*
X59145714Y-9667119D01*
X58994523Y-9515928D01*
X58843333Y-9213547D01*
X58692142Y-8608785D01*
X58692142Y-7852833D01*
X58843333Y-7248071D01*
X58994523Y-6945690D01*
X59145714Y-6794500D01*
X59448095Y-6643309D01*
X63530238Y-9818309D02*
X61715952Y-9818309D01*
X62623095Y-9818309D02*
X62623095Y-6643309D01*
X62320714Y-7096880D01*
X62018333Y-7399261D01*
X61715952Y-7550452D01*
X64588571Y-6643309D02*
X66705238Y-6643309D01*
X65344523Y-9818309D01*
D11*
X87187767Y-28733750D02*
X87066815Y-28661178D01*
X86885386Y-28661178D01*
X86703958Y-28733750D01*
X86583005Y-28878892D01*
X86522529Y-29024035D01*
X86462053Y-29314321D01*
X86462053Y-29532035D01*
X86522529Y-29822321D01*
X86583005Y-29967464D01*
X86703958Y-30112607D01*
X86885386Y-30185178D01*
X87006339Y-30185178D01*
X87187767Y-30112607D01*
X87248244Y-30040035D01*
X87248244Y-29532035D01*
X87006339Y-29532035D01*
X87792529Y-30185178D02*
X87792529Y-28661178D01*
X88518244Y-30185178D01*
X88518244Y-28661178D01*
X89123005Y-30185178D02*
X89123005Y-28661178D01*
X89425386Y-28661178D01*
X89606815Y-28733750D01*
X89727767Y-28878892D01*
X89788244Y-29024035D01*
X89848720Y-29314321D01*
X89848720Y-29532035D01*
X89788244Y-29822321D01*
X89727767Y-29967464D01*
X89606815Y-30112607D01*
X89425386Y-30185178D01*
X89123005Y-30185178D01*
X87732053Y-32208107D02*
X88699672Y-32208107D01*
X88215863Y-32788678D02*
X88215863Y-31627535D01*
X89123005Y-31264678D02*
X89546339Y-32788678D01*
X89969672Y-31264678D01*
X86703958Y-35392178D02*
X86703958Y-33868178D01*
X87187767Y-33868178D01*
X87308720Y-33940750D01*
X87369196Y-34013321D01*
X87429672Y-34158464D01*
X87429672Y-34376178D01*
X87369196Y-34521321D01*
X87308720Y-34593892D01*
X87187767Y-34666464D01*
X86703958Y-34666464D01*
X87853005Y-33868178D02*
X88699672Y-33868178D01*
X88155386Y-35392178D01*
X89243958Y-35392178D02*
X89485863Y-35392178D01*
X89606815Y-35319607D01*
X89667291Y-35247035D01*
X89788244Y-35029321D01*
X89848720Y-34739035D01*
X89848720Y-34158464D01*
X89788244Y-34013321D01*
X89727767Y-33940750D01*
X89606815Y-33868178D01*
X89364910Y-33868178D01*
X89243958Y-33940750D01*
X89183482Y-34013321D01*
X89123005Y-34158464D01*
X89123005Y-34521321D01*
X89183482Y-34666464D01*
X89243958Y-34739035D01*
X89364910Y-34811607D01*
X89606815Y-34811607D01*
X89727767Y-34739035D01*
X89788244Y-34666464D01*
X89848720Y-34521321D01*
X86703958Y-37995678D02*
X86703958Y-36471678D01*
X87187767Y-36471678D01*
X87308720Y-36544250D01*
X87369196Y-36616821D01*
X87429672Y-36761964D01*
X87429672Y-36979678D01*
X87369196Y-37124821D01*
X87308720Y-37197392D01*
X87187767Y-37269964D01*
X86703958Y-37269964D01*
X87853005Y-36471678D02*
X88699672Y-36471678D01*
X88155386Y-37995678D01*
X89364910Y-37124821D02*
X89243958Y-37052250D01*
X89183482Y-36979678D01*
X89123005Y-36834535D01*
X89123005Y-36761964D01*
X89183482Y-36616821D01*
X89243958Y-36544250D01*
X89364910Y-36471678D01*
X89606815Y-36471678D01*
X89727767Y-36544250D01*
X89788244Y-36616821D01*
X89848720Y-36761964D01*
X89848720Y-36834535D01*
X89788244Y-36979678D01*
X89727767Y-37052250D01*
X89606815Y-37124821D01*
X89364910Y-37124821D01*
X89243958Y-37197392D01*
X89183482Y-37269964D01*
X89123005Y-37415107D01*
X89123005Y-37705392D01*
X89183482Y-37850535D01*
X89243958Y-37923107D01*
X89364910Y-37995678D01*
X89606815Y-37995678D01*
X89727767Y-37923107D01*
X89788244Y-37850535D01*
X89848720Y-37705392D01*
X89848720Y-37415107D01*
X89788244Y-37269964D01*
X89727767Y-37197392D01*
X89606815Y-37124821D01*
X86703958Y-40599178D02*
X86703958Y-39075178D01*
X87187767Y-39075178D01*
X87308720Y-39147750D01*
X87369196Y-39220321D01*
X87429672Y-39365464D01*
X87429672Y-39583178D01*
X87369196Y-39728321D01*
X87308720Y-39800892D01*
X87187767Y-39873464D01*
X86703958Y-39873464D01*
X87853005Y-39075178D02*
X88699672Y-39075178D01*
X88155386Y-40599178D01*
X89062529Y-39075178D02*
X89909196Y-39075178D01*
X89364910Y-40599178D01*
X86703958Y-43202678D02*
X86703958Y-41678678D01*
X87187767Y-41678678D01*
X87308720Y-41751250D01*
X87369196Y-41823821D01*
X87429672Y-41968964D01*
X87429672Y-42186678D01*
X87369196Y-42331821D01*
X87308720Y-42404392D01*
X87187767Y-42476964D01*
X86703958Y-42476964D01*
X87853005Y-41678678D02*
X88699672Y-41678678D01*
X88155386Y-43202678D01*
X89727767Y-41678678D02*
X89485863Y-41678678D01*
X89364910Y-41751250D01*
X89304434Y-41823821D01*
X89183482Y-42041535D01*
X89123005Y-42331821D01*
X89123005Y-42912392D01*
X89183482Y-43057535D01*
X89243958Y-43130107D01*
X89364910Y-43202678D01*
X89606815Y-43202678D01*
X89727767Y-43130107D01*
X89788244Y-43057535D01*
X89848720Y-42912392D01*
X89848720Y-42549535D01*
X89788244Y-42404392D01*
X89727767Y-42331821D01*
X89606815Y-42259250D01*
X89364910Y-42259250D01*
X89243958Y-42331821D01*
X89183482Y-42404392D01*
X89123005Y-42549535D01*
D12*
X50956935Y-63783028D02*
X50956935Y-62259028D01*
X51537507Y-62259028D01*
X51682650Y-62331600D01*
X51755221Y-62404171D01*
X51827792Y-62549314D01*
X51827792Y-62767028D01*
X51755221Y-62912171D01*
X51682650Y-62984742D01*
X51537507Y-63057314D01*
X50956935Y-63057314D01*
X53351792Y-63783028D02*
X52843792Y-63057314D01*
X52480935Y-63783028D02*
X52480935Y-62259028D01*
X53061507Y-62259028D01*
X53206650Y-62331600D01*
X53279221Y-62404171D01*
X53351792Y-62549314D01*
X53351792Y-62767028D01*
X53279221Y-62912171D01*
X53206650Y-62984742D01*
X53061507Y-63057314D01*
X52480935Y-63057314D01*
X54295221Y-62259028D02*
X54585507Y-62259028D01*
X54730650Y-62331600D01*
X54875792Y-62476742D01*
X54948364Y-62767028D01*
X54948364Y-63275028D01*
X54875792Y-63565314D01*
X54730650Y-63710457D01*
X54585507Y-63783028D01*
X54295221Y-63783028D01*
X54150078Y-63710457D01*
X54004935Y-63565314D01*
X53932364Y-63275028D01*
X53932364Y-62767028D01*
X54004935Y-62476742D01*
X54150078Y-62331600D01*
X54295221Y-62259028D01*
X56399792Y-62331600D02*
X56254650Y-62259028D01*
X56036935Y-62259028D01*
X55819221Y-62331600D01*
X55674078Y-62476742D01*
X55601507Y-62621885D01*
X55528935Y-62912171D01*
X55528935Y-63129885D01*
X55601507Y-63420171D01*
X55674078Y-63565314D01*
X55819221Y-63710457D01*
X56036935Y-63783028D01*
X56182078Y-63783028D01*
X56399792Y-63710457D01*
X56472364Y-63637885D01*
X56472364Y-63129885D01*
X56182078Y-63129885D01*
X49100921Y-51765200D02*
X48955778Y-51692628D01*
X48738064Y-51692628D01*
X48520350Y-51765200D01*
X48375207Y-51910342D01*
X48302635Y-52055485D01*
X48230064Y-52345771D01*
X48230064Y-52563485D01*
X48302635Y-52853771D01*
X48375207Y-52998914D01*
X48520350Y-53144057D01*
X48738064Y-53216628D01*
X48883207Y-53216628D01*
X49100921Y-53144057D01*
X49173492Y-53071485D01*
X49173492Y-52563485D01*
X48883207Y-52563485D01*
X49826635Y-53216628D02*
X49826635Y-51692628D01*
X50697492Y-53216628D01*
X50697492Y-51692628D01*
X51423207Y-53216628D02*
X51423207Y-51692628D01*
X51786064Y-51692628D01*
X52003778Y-51765200D01*
X52148921Y-51910342D01*
X52221492Y-52055485D01*
X52294064Y-52345771D01*
X52294064Y-52563485D01*
X52221492Y-52853771D01*
X52148921Y-52998914D01*
X52003778Y-53144057D01*
X51786064Y-53216628D01*
X51423207Y-53216628D01*
X49681492Y-55883628D02*
X49173492Y-55157914D01*
X48810635Y-55883628D02*
X48810635Y-54359628D01*
X49391207Y-54359628D01*
X49536350Y-54432200D01*
X49608921Y-54504771D01*
X49681492Y-54649914D01*
X49681492Y-54867628D01*
X49608921Y-55012771D01*
X49536350Y-55085342D01*
X49391207Y-55157914D01*
X48810635Y-55157914D01*
X50262064Y-55811057D02*
X50479778Y-55883628D01*
X50842635Y-55883628D01*
X50987778Y-55811057D01*
X51060350Y-55738485D01*
X51132921Y-55593342D01*
X51132921Y-55448200D01*
X51060350Y-55303057D01*
X50987778Y-55230485D01*
X50842635Y-55157914D01*
X50552350Y-55085342D01*
X50407207Y-55012771D01*
X50334635Y-54940200D01*
X50262064Y-54795057D01*
X50262064Y-54649914D01*
X50334635Y-54504771D01*
X50407207Y-54432200D01*
X50552350Y-54359628D01*
X50915207Y-54359628D01*
X51132921Y-54432200D01*
X51568350Y-54359628D02*
X52439207Y-54359628D01*
X52003778Y-55883628D02*
X52003778Y-54359628D01*
X48157492Y-58478057D02*
X48375207Y-58550628D01*
X48738064Y-58550628D01*
X48883207Y-58478057D01*
X48955778Y-58405485D01*
X49028350Y-58260342D01*
X49028350Y-58115200D01*
X48955778Y-57970057D01*
X48883207Y-57897485D01*
X48738064Y-57824914D01*
X48447778Y-57752342D01*
X48302635Y-57679771D01*
X48230064Y-57607200D01*
X48157492Y-57462057D01*
X48157492Y-57316914D01*
X48230064Y-57171771D01*
X48302635Y-57099200D01*
X48447778Y-57026628D01*
X48810635Y-57026628D01*
X49028350Y-57099200D01*
X49536350Y-57026628D02*
X49899207Y-58550628D01*
X50189492Y-57462057D01*
X50479778Y-58550628D01*
X50842635Y-57026628D01*
X52294064Y-58405485D02*
X52221492Y-58478057D01*
X52003778Y-58550628D01*
X51858635Y-58550628D01*
X51640921Y-58478057D01*
X51495778Y-58332914D01*
X51423207Y-58187771D01*
X51350635Y-57897485D01*
X51350635Y-57679771D01*
X51423207Y-57389485D01*
X51495778Y-57244342D01*
X51640921Y-57099200D01*
X51858635Y-57026628D01*
X52003778Y-57026628D01*
X52221492Y-57099200D01*
X52294064Y-57171771D01*
X48157492Y-61145057D02*
X48375207Y-61217628D01*
X48738064Y-61217628D01*
X48883207Y-61145057D01*
X48955778Y-61072485D01*
X49028350Y-60927342D01*
X49028350Y-60782200D01*
X48955778Y-60637057D01*
X48883207Y-60564485D01*
X48738064Y-60491914D01*
X48447778Y-60419342D01*
X48302635Y-60346771D01*
X48230064Y-60274200D01*
X48157492Y-60129057D01*
X48157492Y-59983914D01*
X48230064Y-59838771D01*
X48302635Y-59766200D01*
X48447778Y-59693628D01*
X48810635Y-59693628D01*
X49028350Y-59766200D01*
X49536350Y-59693628D02*
X49899207Y-61217628D01*
X50189492Y-60129057D01*
X50479778Y-61217628D01*
X50842635Y-59693628D01*
X51423207Y-61217628D02*
X51423207Y-59693628D01*
X51786064Y-59693628D01*
X52003778Y-59766200D01*
X52148921Y-59911342D01*
X52221492Y-60056485D01*
X52294064Y-60346771D01*
X52294064Y-60564485D01*
X52221492Y-60854771D01*
X52148921Y-60999914D01*
X52003778Y-61145057D01*
X51786064Y-61217628D01*
X51423207Y-61217628D01*
D10*
X71696942Y-27017284D02*
X72301704Y-27017284D01*
X72604085Y-27168475D01*
X72906466Y-27470855D01*
X73057657Y-28075617D01*
X73057657Y-29133951D01*
X72906466Y-29738713D01*
X72604085Y-30041094D01*
X72301704Y-30192284D01*
X71696942Y-30192284D01*
X71394561Y-30041094D01*
X71092180Y-29738713D01*
X70940990Y-29133951D01*
X70940990Y-28075617D01*
X71092180Y-27470855D01*
X71394561Y-27168475D01*
X71696942Y-27017284D01*
X74418371Y-30192284D02*
X74418371Y-27017284D01*
X75627895Y-27017284D01*
X75930276Y-27168475D01*
X76081466Y-27319665D01*
X76232657Y-27622046D01*
X76232657Y-28075617D01*
X76081466Y-28377998D01*
X75930276Y-28529189D01*
X75627895Y-28680379D01*
X74418371Y-28680379D01*
X77139800Y-27017284D02*
X78954085Y-27017284D01*
X78046942Y-30192284D02*
X78046942Y-27017284D01*
X80012419Y-29889903D02*
X80163609Y-30041094D01*
X80012419Y-30192284D01*
X79861228Y-30041094D01*
X80012419Y-29889903D01*
X80012419Y-30192284D01*
X72150514Y-32573534D02*
X72755276Y-32573534D01*
X73057657Y-32724725D01*
X73360038Y-33027105D01*
X73511228Y-33631867D01*
X73511228Y-34690201D01*
X73360038Y-35294963D01*
X73057657Y-35597344D01*
X72755276Y-35748534D01*
X72150514Y-35748534D01*
X71848133Y-35597344D01*
X71545752Y-35294963D01*
X71394561Y-34690201D01*
X71394561Y-33631867D01*
X71545752Y-33027105D01*
X71848133Y-32724725D01*
X72150514Y-32573534D01*
X74720752Y-35597344D02*
X75174323Y-35748534D01*
X75930276Y-35748534D01*
X76232657Y-35597344D01*
X76383847Y-35446153D01*
X76535038Y-35143772D01*
X76535038Y-34841391D01*
X76383847Y-34539010D01*
X76232657Y-34387820D01*
X75930276Y-34236629D01*
X75325514Y-34085439D01*
X75023133Y-33934248D01*
X74871942Y-33783058D01*
X74720752Y-33480677D01*
X74720752Y-33178296D01*
X74871942Y-32875915D01*
X75023133Y-32724725D01*
X75325514Y-32573534D01*
X76081466Y-32573534D01*
X76535038Y-32724725D01*
X79710038Y-35446153D02*
X79558847Y-35597344D01*
X79105276Y-35748534D01*
X78802895Y-35748534D01*
X78349323Y-35597344D01*
X78046942Y-35294963D01*
X77895752Y-34992582D01*
X77744561Y-34387820D01*
X77744561Y-33934248D01*
X77895752Y-33329486D01*
X78046942Y-33027105D01*
X78349323Y-32724725D01*
X78802895Y-32573534D01*
X79105276Y-32573534D01*
X79558847Y-32724725D01*
X79710038Y-32875915D01*
X14579599Y-91631709D02*
X14277219Y-91480519D01*
X14126028Y-91178138D01*
X14126028Y-88456709D01*
X17149838Y-91631709D02*
X17149838Y-89968614D01*
X16998647Y-89666233D01*
X16696266Y-89515042D01*
X16091504Y-89515042D01*
X15789123Y-89666233D01*
X17149838Y-91480519D02*
X16847457Y-91631709D01*
X16091504Y-91631709D01*
X15789123Y-91480519D01*
X15637933Y-91178138D01*
X15637933Y-90875757D01*
X15789123Y-90573376D01*
X16091504Y-90422185D01*
X16847457Y-90422185D01*
X17149838Y-90270995D01*
X18661742Y-89515042D02*
X18661742Y-91631709D01*
X18661742Y-89817423D02*
X18812933Y-89666233D01*
X19115314Y-89515042D01*
X19568885Y-89515042D01*
X19871266Y-89666233D01*
X20022457Y-89968614D01*
X20022457Y-91631709D01*
X22895076Y-91631709D02*
X22895076Y-88456709D01*
X22895076Y-91480519D02*
X22592695Y-91631709D01*
X21987933Y-91631709D01*
X21685552Y-91480519D01*
X21534361Y-91329328D01*
X21383171Y-91026947D01*
X21383171Y-90119804D01*
X21534361Y-89817423D01*
X21685552Y-89666233D01*
X21987933Y-89515042D01*
X22592695Y-89515042D01*
X22895076Y-89666233D01*
X24406980Y-90422185D02*
X26826028Y-90422185D01*
X28337933Y-91631709D02*
X28337933Y-88456709D01*
X28337933Y-89666233D02*
X28640314Y-89515042D01*
X29245076Y-89515042D01*
X29547457Y-89666233D01*
X29698647Y-89817423D01*
X29849838Y-90119804D01*
X29849838Y-91026947D01*
X29698647Y-91329328D01*
X29547457Y-91480519D01*
X29245076Y-91631709D01*
X28640314Y-91631709D01*
X28337933Y-91480519D01*
X31664123Y-91631709D02*
X31361742Y-91480519D01*
X31210552Y-91329328D01*
X31059361Y-91026947D01*
X31059361Y-90119804D01*
X31210552Y-89817423D01*
X31361742Y-89666233D01*
X31664123Y-89515042D01*
X32117695Y-89515042D01*
X32420076Y-89666233D01*
X32571266Y-89817423D01*
X32722457Y-90119804D01*
X32722457Y-91026947D01*
X32571266Y-91329328D01*
X32420076Y-91480519D01*
X32117695Y-91631709D01*
X31664123Y-91631709D01*
X35443885Y-91631709D02*
X35443885Y-89968614D01*
X35292695Y-89666233D01*
X34990314Y-89515042D01*
X34385552Y-89515042D01*
X34083171Y-89666233D01*
X35443885Y-91480519D02*
X35141504Y-91631709D01*
X34385552Y-91631709D01*
X34083171Y-91480519D01*
X33931980Y-91178138D01*
X33931980Y-90875757D01*
X34083171Y-90573376D01*
X34385552Y-90422185D01*
X35141504Y-90422185D01*
X35443885Y-90270995D01*
X36955790Y-91631709D02*
X36955790Y-89515042D01*
X36955790Y-90119804D02*
X37106980Y-89817423D01*
X37258171Y-89666233D01*
X37560552Y-89515042D01*
X37862933Y-89515042D01*
X40281980Y-91631709D02*
X40281980Y-88456709D01*
X40281980Y-91480519D02*
X39979599Y-91631709D01*
X39374838Y-91631709D01*
X39072457Y-91480519D01*
X38921266Y-91329328D01*
X38770076Y-91026947D01*
X38770076Y-90119804D01*
X38921266Y-89817423D01*
X39072457Y-89666233D01*
X39374838Y-89515042D01*
X39979599Y-89515042D01*
X40281980Y-89666233D01*
X41642695Y-91480519D02*
X41945076Y-91631709D01*
X42549838Y-91631709D01*
X42852219Y-91480519D01*
X43003409Y-91178138D01*
X43003409Y-91026947D01*
X42852219Y-90724566D01*
X42549838Y-90573376D01*
X42096266Y-90573376D01*
X41793885Y-90422185D01*
X41642695Y-90119804D01*
X41642695Y-89968614D01*
X41793885Y-89666233D01*
X42096266Y-89515042D01*
X42549838Y-89515042D01*
X42852219Y-89666233D01*
X44364123Y-91329328D02*
X44515314Y-91480519D01*
X44364123Y-91631709D01*
X44212933Y-91480519D01*
X44364123Y-91329328D01*
X44364123Y-91631709D01*
X47236742Y-91480519D02*
X46934361Y-91631709D01*
X46329600Y-91631709D01*
X46027219Y-91480519D01*
X45876028Y-91329328D01*
X45724838Y-91026947D01*
X45724838Y-90119804D01*
X45876028Y-89817423D01*
X46027219Y-89666233D01*
X46329600Y-89515042D01*
X46934361Y-89515042D01*
X47236742Y-89666233D01*
X49051028Y-91631709D02*
X48748647Y-91480519D01*
X48597457Y-91329328D01*
X48446266Y-91026947D01*
X48446266Y-90119804D01*
X48597457Y-89817423D01*
X48748647Y-89666233D01*
X49051028Y-89515042D01*
X49504600Y-89515042D01*
X49806980Y-89666233D01*
X49958171Y-89817423D01*
X50109361Y-90119804D01*
X50109361Y-91026947D01*
X49958171Y-91329328D01*
X49806980Y-91480519D01*
X49504600Y-91631709D01*
X49051028Y-91631709D01*
X51470076Y-91631709D02*
X51470076Y-89515042D01*
X51470076Y-89817423D02*
X51621266Y-89666233D01*
X51923647Y-89515042D01*
X52377219Y-89515042D01*
X52679600Y-89666233D01*
X52830790Y-89968614D01*
X52830790Y-91631709D01*
X52830790Y-89968614D02*
X52981980Y-89666233D01*
X53284361Y-89515042D01*
X53737933Y-89515042D01*
X54040314Y-89666233D01*
X54191504Y-89968614D01*
X54191504Y-91631709D01*
X57971266Y-88305519D02*
X55249838Y-92387661D01*
X58727219Y-88456709D02*
X60843885Y-88456709D01*
X58727219Y-91631709D01*
X60843885Y-91631709D01*
X62506980Y-89817423D02*
X62204600Y-89666233D01*
X62053409Y-89515042D01*
X61902219Y-89212661D01*
X61902219Y-89061471D01*
X62053409Y-88759090D01*
X62204600Y-88607900D01*
X62506980Y-88456709D01*
X63111742Y-88456709D01*
X63414123Y-88607900D01*
X63565314Y-88759090D01*
X63716504Y-89061471D01*
X63716504Y-89212661D01*
X63565314Y-89515042D01*
X63414123Y-89666233D01*
X63111742Y-89817423D01*
X62506980Y-89817423D01*
X62204600Y-89968614D01*
X62053409Y-90119804D01*
X61902219Y-90422185D01*
X61902219Y-91026947D01*
X62053409Y-91329328D01*
X62204600Y-91480519D01*
X62506980Y-91631709D01*
X63111742Y-91631709D01*
X63414123Y-91480519D01*
X63565314Y-91329328D01*
X63716504Y-91026947D01*
X63716504Y-90422185D01*
X63565314Y-90119804D01*
X63414123Y-89968614D01*
X63111742Y-89817423D01*
X65681980Y-88456709D02*
X65984361Y-88456709D01*
X66286742Y-88607900D01*
X66437933Y-88759090D01*
X66589123Y-89061471D01*
X66740314Y-89666233D01*
X66740314Y-90422185D01*
X66589123Y-91026947D01*
X66437933Y-91329328D01*
X66286742Y-91480519D01*
X65984361Y-91631709D01*
X65681980Y-91631709D01*
X65379600Y-91480519D01*
X65228409Y-91329328D01*
X65077219Y-91026947D01*
X64926028Y-90422185D01*
X64926028Y-89666233D01*
X65077219Y-89061471D01*
X65228409Y-88759090D01*
X65379600Y-88607900D01*
X65681980Y-88456709D01*
X67345076Y-91934090D02*
X69764123Y-91934090D01*
X70520076Y-91631709D02*
X70520076Y-88456709D01*
X71729600Y-88456709D01*
X72031980Y-88607900D01*
X72183171Y-88759090D01*
X72334361Y-89061471D01*
X72334361Y-89515042D01*
X72183171Y-89817423D01*
X72031980Y-89968614D01*
X71729600Y-90119804D01*
X70520076Y-90119804D01*
X73543885Y-91480519D02*
X73997457Y-91631709D01*
X74753409Y-91631709D01*
X75055790Y-91480519D01*
X75206980Y-91329328D01*
X75358171Y-91026947D01*
X75358171Y-90724566D01*
X75206980Y-90422185D01*
X75055790Y-90270995D01*
X74753409Y-90119804D01*
X74148647Y-89968614D01*
X73846266Y-89817423D01*
X73695076Y-89666233D01*
X73543885Y-89363852D01*
X73543885Y-89061471D01*
X73695076Y-88759090D01*
X73846266Y-88607900D01*
X74148647Y-88456709D01*
X74904600Y-88456709D01*
X75358171Y-88607900D01*
X77323647Y-88456709D02*
X77928409Y-88456709D01*
X78230790Y-88607900D01*
X78533171Y-88910280D01*
X78684361Y-89515042D01*
X78684361Y-90573376D01*
X78533171Y-91178138D01*
X78230790Y-91480519D01*
X77928409Y-91631709D01*
X77323647Y-91631709D01*
X77021266Y-91480519D01*
X76718885Y-91178138D01*
X76567695Y-90573376D01*
X76567695Y-89515042D01*
X76718885Y-88910280D01*
X77021266Y-88607900D01*
X77323647Y-88456709D01*
X81859361Y-91329328D02*
X81708171Y-91480519D01*
X81254600Y-91631709D01*
X80952219Y-91631709D01*
X80498647Y-91480519D01*
X80196266Y-91178138D01*
X80045076Y-90875757D01*
X79893885Y-90270995D01*
X79893885Y-89817423D01*
X80045076Y-89212661D01*
X80196266Y-88910280D01*
X80498647Y-88607900D01*
X80952219Y-88456709D01*
X81254600Y-88456709D01*
X81708171Y-88607900D01*
X81859361Y-88759090D01*
D12*
X57344128Y-47070735D02*
X55820128Y-47070735D01*
X55965271Y-46417592D02*
X55892700Y-46345021D01*
X55820128Y-46199878D01*
X55820128Y-45837021D01*
X55892700Y-45691878D01*
X55965271Y-45619307D01*
X56110414Y-45546735D01*
X56255557Y-45546735D01*
X56473271Y-45619307D01*
X57344128Y-46490164D01*
X57344128Y-45546735D01*
X57198985Y-44022735D02*
X57271557Y-44095307D01*
X57344128Y-44313021D01*
X57344128Y-44458164D01*
X57271557Y-44675878D01*
X57126414Y-44821021D01*
X56981271Y-44893592D01*
X56690985Y-44966164D01*
X56473271Y-44966164D01*
X56182985Y-44893592D01*
X56037842Y-44821021D01*
X55892700Y-44675878D01*
X55820128Y-44458164D01*
X55820128Y-44313021D01*
X55892700Y-44095307D01*
X55965271Y-44022735D01*
X49227921Y-38354000D02*
X49082778Y-38281428D01*
X48865064Y-38281428D01*
X48647350Y-38354000D01*
X48502207Y-38499142D01*
X48429635Y-38644285D01*
X48357064Y-38934571D01*
X48357064Y-39152285D01*
X48429635Y-39442571D01*
X48502207Y-39587714D01*
X48647350Y-39732857D01*
X48865064Y-39805428D01*
X49010207Y-39805428D01*
X49227921Y-39732857D01*
X49300492Y-39660285D01*
X49300492Y-39152285D01*
X49010207Y-39152285D01*
X49953635Y-39805428D02*
X49953635Y-38281428D01*
X50824492Y-39805428D01*
X50824492Y-38281428D01*
X51550207Y-39805428D02*
X51550207Y-38281428D01*
X51913064Y-38281428D01*
X52130778Y-38354000D01*
X52275921Y-38499142D01*
X52348492Y-38644285D01*
X52421064Y-38934571D01*
X52421064Y-39152285D01*
X52348492Y-39442571D01*
X52275921Y-39587714D01*
X52130778Y-39732857D01*
X51913064Y-39805428D01*
X51550207Y-39805428D01*
X49881064Y-41891857D02*
X51042207Y-41891857D01*
X50461635Y-42472428D02*
X50461635Y-41311285D01*
X51550207Y-40948428D02*
X52058207Y-42472428D01*
X52566207Y-40948428D01*
X48719921Y-45066857D02*
X48937635Y-45139428D01*
X49300492Y-45139428D01*
X49445635Y-45066857D01*
X49518207Y-44994285D01*
X49590778Y-44849142D01*
X49590778Y-44704000D01*
X49518207Y-44558857D01*
X49445635Y-44486285D01*
X49300492Y-44413714D01*
X49010207Y-44341142D01*
X48865064Y-44268571D01*
X48792492Y-44196000D01*
X48719921Y-44050857D01*
X48719921Y-43905714D01*
X48792492Y-43760571D01*
X48865064Y-43688000D01*
X49010207Y-43615428D01*
X49373064Y-43615428D01*
X49590778Y-43688000D01*
X50243921Y-45139428D02*
X50243921Y-43615428D01*
X50606778Y-43615428D01*
X50824492Y-43688000D01*
X50969635Y-43833142D01*
X51042207Y-43978285D01*
X51114778Y-44268571D01*
X51114778Y-44486285D01*
X51042207Y-44776571D01*
X50969635Y-44921714D01*
X50824492Y-45066857D01*
X50606778Y-45139428D01*
X50243921Y-45139428D01*
X51695350Y-44704000D02*
X52421064Y-44704000D01*
X51550207Y-45139428D02*
X52058207Y-43615428D01*
X52566207Y-45139428D01*
X48792492Y-47733857D02*
X49010207Y-47806428D01*
X49373064Y-47806428D01*
X49518207Y-47733857D01*
X49590778Y-47661285D01*
X49663350Y-47516142D01*
X49663350Y-47371000D01*
X49590778Y-47225857D01*
X49518207Y-47153285D01*
X49373064Y-47080714D01*
X49082778Y-47008142D01*
X48937635Y-46935571D01*
X48865064Y-46863000D01*
X48792492Y-46717857D01*
X48792492Y-46572714D01*
X48865064Y-46427571D01*
X48937635Y-46355000D01*
X49082778Y-46282428D01*
X49445635Y-46282428D01*
X49663350Y-46355000D01*
X51187350Y-47661285D02*
X51114778Y-47733857D01*
X50897064Y-47806428D01*
X50751921Y-47806428D01*
X50534207Y-47733857D01*
X50389064Y-47588714D01*
X50316492Y-47443571D01*
X50243921Y-47153285D01*
X50243921Y-46935571D01*
X50316492Y-46645285D01*
X50389064Y-46500142D01*
X50534207Y-46355000D01*
X50751921Y-46282428D01*
X50897064Y-46282428D01*
X51114778Y-46355000D01*
X51187350Y-46427571D01*
X52566207Y-47806428D02*
X51840492Y-47806428D01*
X51840492Y-46282428D01*
D10*
X52444952Y-67349309D02*
X54410428Y-67349309D01*
X53352095Y-68558833D01*
X53805666Y-68558833D01*
X54108047Y-68710023D01*
X54259238Y-68861214D01*
X54410428Y-69163595D01*
X54410428Y-69919547D01*
X54259238Y-70221928D01*
X54108047Y-70373119D01*
X53805666Y-70524309D01*
X52898523Y-70524309D01*
X52596142Y-70373119D01*
X52444952Y-70221928D01*
X55317571Y-67349309D02*
X56375904Y-70524309D01*
X57434238Y-67349309D01*
D13*
X70034452Y-46150590D02*
X72574452Y-46150590D01*
X72574452Y-47118209D01*
X72453500Y-47360114D01*
X72332547Y-47481066D01*
X72090642Y-47602019D01*
X71727785Y-47602019D01*
X71485880Y-47481066D01*
X71364928Y-47360114D01*
X71243976Y-47118209D01*
X71243976Y-46150590D01*
X70155404Y-48569638D02*
X70034452Y-48932495D01*
X70034452Y-49537257D01*
X70155404Y-49779161D01*
X70276357Y-49900114D01*
X70518261Y-50021066D01*
X70760166Y-50021066D01*
X71002071Y-49900114D01*
X71123023Y-49779161D01*
X71243976Y-49537257D01*
X71364928Y-49053447D01*
X71485880Y-48811542D01*
X71606833Y-48690590D01*
X71848738Y-48569638D01*
X72090642Y-48569638D01*
X72332547Y-48690590D01*
X72453500Y-48811542D01*
X72574452Y-49053447D01*
X72574452Y-49658209D01*
X72453500Y-50021066D01*
X70034452Y-51472495D02*
X70155404Y-51230590D01*
X70276357Y-51109638D01*
X70518261Y-50988685D01*
X71243976Y-50988685D01*
X71485880Y-51109638D01*
X71606833Y-51230590D01*
X71727785Y-51472495D01*
X71727785Y-51835352D01*
X71606833Y-52077257D01*
X71485880Y-52198209D01*
X71243976Y-52319161D01*
X70518261Y-52319161D01*
X70276357Y-52198209D01*
X70155404Y-52077257D01*
X70034452Y-51835352D01*
X70034452Y-51472495D01*
X70276357Y-54859161D02*
X70155404Y-54738209D01*
X70034452Y-54375352D01*
X70034452Y-54133447D01*
X70155404Y-53770590D01*
X70397309Y-53528685D01*
X70639214Y-53407733D01*
X71123023Y-53286780D01*
X71485880Y-53286780D01*
X71969690Y-53407733D01*
X72211595Y-53528685D01*
X72453500Y-53770590D01*
X72574452Y-54133447D01*
X72574452Y-54375352D01*
X72453500Y-54738209D01*
X72332547Y-54859161D01*
D10*
X38757980Y-28823557D02*
X38606790Y-29277128D01*
X38606790Y-30033080D01*
X38757980Y-30335461D01*
X38909171Y-30486652D01*
X39211552Y-30637842D01*
X39513933Y-30637842D01*
X39816314Y-30486652D01*
X39967504Y-30335461D01*
X40118695Y-30033080D01*
X40269885Y-29428319D01*
X40421076Y-29125938D01*
X40572266Y-28974747D01*
X40874647Y-28823557D01*
X41177028Y-28823557D01*
X41479409Y-28974747D01*
X41630600Y-29125938D01*
X41781790Y-29428319D01*
X41781790Y-30184271D01*
X41630600Y-30637842D01*
X38606790Y-33812842D02*
X40118695Y-32754509D01*
X38606790Y-31998557D02*
X41781790Y-31998557D01*
X41781790Y-33208080D01*
X41630600Y-33510461D01*
X41479409Y-33661652D01*
X41177028Y-33812842D01*
X40723457Y-33812842D01*
X40421076Y-33661652D01*
X40269885Y-33510461D01*
X40118695Y-33208080D01*
X40118695Y-31998557D01*
X39513933Y-35022366D02*
X39513933Y-36534271D01*
X38606790Y-34719985D02*
X41781790Y-35778319D01*
X38606790Y-36836652D01*
X38606790Y-37894985D02*
X41781790Y-37894985D01*
X39513933Y-38953319D01*
X41781790Y-40011652D01*
X38606790Y-40011652D01*
X19074190Y-40532957D02*
X19074190Y-42649623D01*
X15899190Y-40532957D01*
X15899190Y-42649623D01*
X17713476Y-44312719D02*
X17864666Y-44010338D01*
X18015857Y-43859147D01*
X18318238Y-43707957D01*
X18469428Y-43707957D01*
X18771809Y-43859147D01*
X18923000Y-44010338D01*
X19074190Y-44312719D01*
X19074190Y-44917480D01*
X18923000Y-45219861D01*
X18771809Y-45371052D01*
X18469428Y-45522242D01*
X18318238Y-45522242D01*
X18015857Y-45371052D01*
X17864666Y-45219861D01*
X17713476Y-44917480D01*
X17713476Y-44312719D01*
X17562285Y-44010338D01*
X17411095Y-43859147D01*
X17108714Y-43707957D01*
X16503952Y-43707957D01*
X16201571Y-43859147D01*
X16050380Y-44010338D01*
X15899190Y-44312719D01*
X15899190Y-44917480D01*
X16050380Y-45219861D01*
X16201571Y-45371052D01*
X16503952Y-45522242D01*
X17108714Y-45522242D01*
X17411095Y-45371052D01*
X17562285Y-45219861D01*
X17713476Y-44917480D01*
X19074190Y-47487719D02*
X19074190Y-47790100D01*
X18923000Y-48092480D01*
X18771809Y-48243671D01*
X18469428Y-48394861D01*
X17864666Y-48546052D01*
X17108714Y-48546052D01*
X16503952Y-48394861D01*
X16201571Y-48243671D01*
X16050380Y-48092480D01*
X15899190Y-47790100D01*
X15899190Y-47487719D01*
X16050380Y-47185338D01*
X16201571Y-47034147D01*
X16503952Y-46882957D01*
X17108714Y-46731766D01*
X17864666Y-46731766D01*
X18469428Y-46882957D01*
X18771809Y-47034147D01*
X18923000Y-47185338D01*
X19074190Y-47487719D01*
X85414152Y-60110309D02*
X85414152Y-62680547D01*
X85565342Y-62982928D01*
X85716533Y-63134119D01*
X86018914Y-63285309D01*
X86623676Y-63285309D01*
X86926057Y-63134119D01*
X87077247Y-62982928D01*
X87228438Y-62680547D01*
X87228438Y-60110309D01*
X88589152Y-63134119D02*
X89042723Y-63285309D01*
X89798676Y-63285309D01*
X90101057Y-63134119D01*
X90252247Y-62982928D01*
X90403438Y-62680547D01*
X90403438Y-62378166D01*
X90252247Y-62075785D01*
X90101057Y-61924595D01*
X89798676Y-61773404D01*
X89193914Y-61622214D01*
X88891533Y-61471023D01*
X88740342Y-61319833D01*
X88589152Y-61017452D01*
X88589152Y-60715071D01*
X88740342Y-60412690D01*
X88891533Y-60261500D01*
X89193914Y-60110309D01*
X89949866Y-60110309D01*
X90403438Y-60261500D01*
X92822485Y-61622214D02*
X93276057Y-61773404D01*
X93427247Y-61924595D01*
X93578438Y-62226976D01*
X93578438Y-62680547D01*
X93427247Y-62982928D01*
X93276057Y-63134119D01*
X92973676Y-63285309D01*
X91764152Y-63285309D01*
X91764152Y-60110309D01*
X92822485Y-60110309D01*
X93124866Y-60261500D01*
X93276057Y-60412690D01*
X93427247Y-60715071D01*
X93427247Y-61017452D01*
X93276057Y-61319833D01*
X93124866Y-61471023D01*
X92822485Y-61622214D01*
X91764152Y-61622214D01*
D14*
G04 #@! TO.C,BT1*
X28168329Y-75737281D02*
G75*
G02X50614000Y-72192000I11495671J45281D01*
G01*
X50612246Y-72165616D02*
G75*
G03X51364000Y-72692000I751754J273616D01*
G01*
X28168329Y-75646719D02*
G75*
G03X50614000Y-79192000I11495671J-45281D01*
G01*
X50612246Y-79218384D02*
G75*
G02X51364000Y-78692000I751754J-273616D01*
G01*
X57064000Y-78692000D02*
X51364000Y-78692000D01*
X57064000Y-72692000D02*
X57064000Y-78692000D01*
X57064000Y-72692000D02*
X51364000Y-72692000D01*
G04 #@! TO.C,C7*
X82811252Y-50725000D02*
X82288748Y-50725000D01*
X82811252Y-52145000D02*
X82288748Y-52145000D01*
G04 #@! TO.C,C8*
X82811252Y-57860000D02*
X82288748Y-57860000D01*
X82811252Y-56440000D02*
X82288748Y-56440000D01*
G04 #@! TO.C,D1*
X95875000Y-79085000D02*
G75*
G02X95875000Y-82205000I0J-1560000D01*
G01*
X92015000Y-82205000D02*
X95875000Y-82205000D01*
X92015000Y-79085000D02*
X95875000Y-79085000D01*
X92015000Y-82205000D02*
X92015000Y-79085000D01*
X92015000Y-78685000D02*
X93135000Y-78685000D01*
X93135000Y-78685000D02*
X93135000Y-79085000D01*
X93135000Y-79085000D02*
X92015000Y-79085000D01*
X92015000Y-79085000D02*
X92015000Y-78685000D01*
X91885000Y-81915000D02*
X92015000Y-81915000D01*
X92015000Y-81915000D02*
X92015000Y-81915000D01*
X92015000Y-81915000D02*
X91885000Y-81915000D01*
X91885000Y-81915000D02*
X91885000Y-81915000D01*
X91885000Y-79375000D02*
X92015000Y-79375000D01*
X92015000Y-79375000D02*
X92015000Y-79375000D01*
X92015000Y-79375000D02*
X91885000Y-79375000D01*
X91885000Y-79375000D02*
X91885000Y-79375000D01*
G04 #@! TO.C,H2*
X52645000Y-61655000D02*
X55305000Y-61655000D01*
X52645000Y-53975000D02*
X52645000Y-61655000D01*
X55305000Y-53975000D02*
X55305000Y-61655000D01*
X52645000Y-53975000D02*
X55305000Y-53975000D01*
X52645000Y-52705000D02*
X52645000Y-51375000D01*
X52645000Y-51375000D02*
X53975000Y-51375000D01*
G04 #@! TO.C,J1*
X82660000Y-65575000D02*
X78400000Y-65575000D01*
X78400000Y-65575000D02*
X78400000Y-77895000D01*
X78400000Y-77895000D02*
X82660000Y-77895000D01*
X86760000Y-65575000D02*
X95120000Y-65575000D01*
X95120000Y-65575000D02*
X95120000Y-77895000D01*
X95120000Y-77895000D02*
X86760000Y-77895000D01*
X78180000Y-70485000D02*
X77680000Y-69985000D01*
X77680000Y-69985000D02*
X77680000Y-70985000D01*
X77680000Y-70985000D02*
X78180000Y-70485000D01*
G04 #@! TO.C,R5*
X75445252Y-73458000D02*
X74922748Y-73458000D01*
X75445252Y-74878000D02*
X74922748Y-74878000D01*
G04 #@! TO.C,R6*
X75445252Y-77164000D02*
X74922748Y-77164000D01*
X75445252Y-75744000D02*
X74922748Y-75744000D01*
G04 #@! TO.C,U1*
X17510000Y-20895000D02*
G75*
G02X15510000Y-20895000I-1000000J0D01*
G01*
X15510000Y-20895000D02*
X10050000Y-20895000D01*
X10050000Y-20895000D02*
X10050000Y-71815000D01*
X10050000Y-71815000D02*
X22970000Y-71815000D01*
X22970000Y-71815000D02*
X22970000Y-20895000D01*
X22970000Y-20895000D02*
X17510000Y-20895000D01*
G04 #@! TO.C,U4*
X64590000Y-43690000D02*
X63890000Y-43690000D01*
X63890000Y-43690000D02*
X63890000Y-44390000D01*
X77410000Y-43690000D02*
X78110000Y-43690000D01*
X78110000Y-43690000D02*
X78110000Y-44390000D01*
X64590000Y-57910000D02*
X63890000Y-57910000D01*
X63890000Y-57910000D02*
X63890000Y-57210000D01*
X77410000Y-57910000D02*
X78110000Y-57910000D01*
X78110000Y-57910000D02*
X78110000Y-57210000D01*
X63890000Y-44390000D02*
X62600000Y-44390000D01*
G04 #@! TO.C,U3*
X86142000Y-36942000D02*
X86142000Y-24792000D01*
X65992000Y-37692000D02*
X85392000Y-37692000D01*
X65242000Y-25542000D02*
X65242000Y-36942000D01*
X86142000Y-24792000D02*
X65992000Y-24792000D01*
X65992000Y-24792000D02*
G75*
G03X65242000Y-25542000I0J-750000D01*
G01*
X65242000Y-36942000D02*
G75*
G03X65992000Y-37692000I750000J0D01*
G01*
X85392000Y-37692000D02*
G75*
G03X86142000Y-36942000I0J750000D01*
G01*
G04 #@! TO.C,H1*
X52645000Y-48320000D02*
X55305000Y-48320000D01*
X52645000Y-40640000D02*
X52645000Y-48320000D01*
X55305000Y-40640000D02*
X55305000Y-48320000D01*
X52645000Y-40640000D02*
X55305000Y-40640000D01*
X52645000Y-39370000D02*
X52645000Y-38040000D01*
X52645000Y-38040000D02*
X53975000Y-38040000D01*
G04 #@! TO.C,Y1*
X83080000Y-55525000D02*
X89980000Y-55525000D01*
X89980000Y-55525000D02*
X89980000Y-53065000D01*
X89980000Y-53065000D02*
X83080000Y-53065000D01*
X83080000Y-53065000D02*
X83080000Y-55525000D01*
X83080000Y-54645000D02*
X82180000Y-55245000D01*
X82180000Y-55245000D02*
X81980000Y-55245000D01*
X83080000Y-53945000D02*
X82180000Y-53345000D01*
X82180000Y-53345000D02*
X81980000Y-53345000D01*
G04 #@! TO.C,H3*
X90351300Y-43582900D02*
X93011300Y-43582900D01*
X90351300Y-30822900D02*
X90351300Y-43582900D01*
X93011300Y-30822900D02*
X93011300Y-43582900D01*
X90351300Y-30822900D02*
X93011300Y-30822900D01*
X90351300Y-29552900D02*
X90351300Y-28222900D01*
X90351300Y-28222900D02*
X91681300Y-28222900D01*
G04 #@! TO.C,U2*
X40370000Y-18355000D02*
G75*
G02X38370000Y-18355000I-1000000J0D01*
G01*
X38370000Y-18355000D02*
X32910000Y-18355000D01*
X32910000Y-18355000D02*
X32910000Y-59115000D01*
X32910000Y-59115000D02*
X45830000Y-59115000D01*
X45830000Y-59115000D02*
X45830000Y-18355000D01*
X45830000Y-18355000D02*
X40370000Y-18355000D01*
G04 #@! TO.C,J2*
X60258000Y-16316000D02*
X60258000Y-13656000D01*
X37338000Y-16316000D02*
X60258000Y-16316000D01*
X37338000Y-13656000D02*
X60258000Y-13656000D01*
X37338000Y-16316000D02*
X37338000Y-13656000D01*
X36068000Y-16316000D02*
X34738000Y-16316000D01*
X34738000Y-16316000D02*
X34738000Y-14986000D01*
G04 #@! TO.C,J3*
X60258000Y-448000D02*
X60258000Y-1778000D01*
X58928000Y-448000D02*
X60258000Y-448000D01*
X57658000Y-448000D02*
X57658000Y-3108000D01*
X57658000Y-3108000D02*
X34738000Y-3108000D01*
X57658000Y-448000D02*
X34738000Y-448000D01*
X34738000Y-448000D02*
X34738000Y-3108000D01*
G04 #@! TO.C,U5*
X37278000Y-7382000D02*
G75*
G02X37278000Y-9382000I0J-1000000D01*
G01*
X37278000Y-9382000D02*
X37278000Y-11032000D01*
X37278000Y-11032000D02*
X72958000Y-11032000D01*
X72958000Y-11032000D02*
X72958000Y-5732000D01*
X72958000Y-5732000D02*
X37278000Y-5732000D01*
X37278000Y-5732000D02*
X37278000Y-7382000D01*
G04 #@! TO.C,BT1*
D15*
X53766357Y-79892214D02*
X53965928Y-79958738D01*
X54032452Y-80025261D01*
X54098976Y-80158309D01*
X54098976Y-80357880D01*
X54032452Y-80490928D01*
X53965928Y-80557452D01*
X53832880Y-80623976D01*
X53300690Y-80623976D01*
X53300690Y-79226976D01*
X53766357Y-79226976D01*
X53899404Y-79293500D01*
X53965928Y-79360023D01*
X54032452Y-79493071D01*
X54032452Y-79626119D01*
X53965928Y-79759166D01*
X53899404Y-79825690D01*
X53766357Y-79892214D01*
X53300690Y-79892214D01*
X54498119Y-79226976D02*
X55296404Y-79226976D01*
X54897261Y-80623976D02*
X54897261Y-79226976D01*
X56493833Y-80623976D02*
X55695547Y-80623976D01*
X56094690Y-80623976D02*
X56094690Y-79226976D01*
X55961642Y-79426547D01*
X55828595Y-79559595D01*
X55695547Y-79626119D01*
D16*
X51542571Y-75799142D02*
X52685428Y-75799142D01*
X52114000Y-76370571D02*
X52114000Y-75227714D01*
G04 #@! TO.C,C7*
D15*
X85492166Y-51933928D02*
X85425642Y-52000452D01*
X85226071Y-52066976D01*
X85093023Y-52066976D01*
X84893452Y-52000452D01*
X84760404Y-51867404D01*
X84693880Y-51734357D01*
X84627357Y-51468261D01*
X84627357Y-51268690D01*
X84693880Y-51002595D01*
X84760404Y-50869547D01*
X84893452Y-50736500D01*
X85093023Y-50669976D01*
X85226071Y-50669976D01*
X85425642Y-50736500D01*
X85492166Y-50803023D01*
X85957833Y-50669976D02*
X86889166Y-50669976D01*
X86290452Y-52066976D01*
G04 #@! TO.C,C8*
X85492166Y-57648928D02*
X85425642Y-57715452D01*
X85226071Y-57781976D01*
X85093023Y-57781976D01*
X84893452Y-57715452D01*
X84760404Y-57582404D01*
X84693880Y-57449357D01*
X84627357Y-57183261D01*
X84627357Y-56983690D01*
X84693880Y-56717595D01*
X84760404Y-56584547D01*
X84893452Y-56451500D01*
X85093023Y-56384976D01*
X85226071Y-56384976D01*
X85425642Y-56451500D01*
X85492166Y-56518023D01*
X86290452Y-56983690D02*
X86157404Y-56917166D01*
X86090880Y-56850642D01*
X86024357Y-56717595D01*
X86024357Y-56651071D01*
X86090880Y-56518023D01*
X86157404Y-56451500D01*
X86290452Y-56384976D01*
X86556547Y-56384976D01*
X86689595Y-56451500D01*
X86756119Y-56518023D01*
X86822642Y-56651071D01*
X86822642Y-56717595D01*
X86756119Y-56850642D01*
X86689595Y-56917166D01*
X86556547Y-56983690D01*
X86290452Y-56983690D01*
X86157404Y-57050214D01*
X86090880Y-57116738D01*
X86024357Y-57249785D01*
X86024357Y-57515880D01*
X86090880Y-57648928D01*
X86157404Y-57715452D01*
X86290452Y-57781976D01*
X86556547Y-57781976D01*
X86689595Y-57715452D01*
X86756119Y-57648928D01*
X86822642Y-57515880D01*
X86822642Y-57249785D01*
X86756119Y-57116738D01*
X86689595Y-57050214D01*
X86556547Y-56983690D01*
G04 #@! TO.C,D1*
X92313880Y-84451976D02*
X92313880Y-83054976D01*
X92646500Y-83054976D01*
X92846071Y-83121500D01*
X92979119Y-83254547D01*
X93045642Y-83387595D01*
X93112166Y-83653690D01*
X93112166Y-83853261D01*
X93045642Y-84119357D01*
X92979119Y-84252404D01*
X92846071Y-84385452D01*
X92646500Y-84451976D01*
X92313880Y-84451976D01*
X94442642Y-84451976D02*
X93644357Y-84451976D01*
X94043500Y-84451976D02*
X94043500Y-83054976D01*
X93910452Y-83254547D01*
X93777404Y-83387595D01*
X93644357Y-83454119D01*
G04 #@! TO.C,H2*
X52910619Y-50796976D02*
X52910619Y-49399976D01*
X52910619Y-50065214D02*
X53708904Y-50065214D01*
X53708904Y-50796976D02*
X53708904Y-49399976D01*
X54307619Y-49533023D02*
X54374142Y-49466500D01*
X54507190Y-49399976D01*
X54839809Y-49399976D01*
X54972857Y-49466500D01*
X55039380Y-49533023D01*
X55105904Y-49666071D01*
X55105904Y-49799119D01*
X55039380Y-49998690D01*
X54241095Y-50796976D01*
X55105904Y-50796976D01*
G04 #@! TO.C,J1*
X78274333Y-64004976D02*
X78274333Y-65002833D01*
X78207809Y-65202404D01*
X78074761Y-65335452D01*
X77875190Y-65401976D01*
X77742142Y-65401976D01*
X79671333Y-65401976D02*
X78873047Y-65401976D01*
X79272190Y-65401976D02*
X79272190Y-64004976D01*
X79139142Y-64204547D01*
X79006095Y-64337595D01*
X78873047Y-64404119D01*
G04 #@! TO.C,R5*
X75954466Y-73161676D02*
X75488800Y-72496438D01*
X75156180Y-73161676D02*
X75156180Y-71764676D01*
X75688371Y-71764676D01*
X75821419Y-71831200D01*
X75887942Y-71897723D01*
X75954466Y-72030771D01*
X75954466Y-72230342D01*
X75887942Y-72363390D01*
X75821419Y-72429914D01*
X75688371Y-72496438D01*
X75156180Y-72496438D01*
X77218419Y-71764676D02*
X76553180Y-71764676D01*
X76486657Y-72429914D01*
X76553180Y-72363390D01*
X76686228Y-72296866D01*
X77018847Y-72296866D01*
X77151895Y-72363390D01*
X77218419Y-72429914D01*
X77284942Y-72562961D01*
X77284942Y-72895580D01*
X77218419Y-73028628D01*
X77151895Y-73095152D01*
X77018847Y-73161676D01*
X76686228Y-73161676D01*
X76553180Y-73095152D01*
X76486657Y-73028628D01*
G04 #@! TO.C,R6*
X75929066Y-78978276D02*
X75463400Y-78313038D01*
X75130780Y-78978276D02*
X75130780Y-77581276D01*
X75662971Y-77581276D01*
X75796019Y-77647800D01*
X75862542Y-77714323D01*
X75929066Y-77847371D01*
X75929066Y-78046942D01*
X75862542Y-78179990D01*
X75796019Y-78246514D01*
X75662971Y-78313038D01*
X75130780Y-78313038D01*
X77126495Y-77581276D02*
X76860400Y-77581276D01*
X76727352Y-77647800D01*
X76660828Y-77714323D01*
X76527780Y-77913895D01*
X76461257Y-78179990D01*
X76461257Y-78712180D01*
X76527780Y-78845228D01*
X76594304Y-78911752D01*
X76727352Y-78978276D01*
X76993447Y-78978276D01*
X77126495Y-78911752D01*
X77193019Y-78845228D01*
X77259542Y-78712180D01*
X77259542Y-78379561D01*
X77193019Y-78246514D01*
X77126495Y-78179990D01*
X76993447Y-78113466D01*
X76727352Y-78113466D01*
X76594304Y-78179990D01*
X76527780Y-78246514D01*
X76461257Y-78379561D01*
G04 #@! TO.C,U1*
X7825619Y-18919976D02*
X7825619Y-20050880D01*
X7892142Y-20183928D01*
X7958666Y-20250452D01*
X8091714Y-20316976D01*
X8357809Y-20316976D01*
X8490857Y-20250452D01*
X8557380Y-20183928D01*
X8623904Y-20050880D01*
X8623904Y-18919976D01*
X10020904Y-20316976D02*
X9222619Y-20316976D01*
X9621761Y-20316976D02*
X9621761Y-18919976D01*
X9488714Y-19119547D01*
X9355666Y-19252595D01*
X9222619Y-19319119D01*
G04 #@! TO.C,U4*
X61165619Y-41144976D02*
X61165619Y-42275880D01*
X61232142Y-42408928D01*
X61298666Y-42475452D01*
X61431714Y-42541976D01*
X61697809Y-42541976D01*
X61830857Y-42475452D01*
X61897380Y-42408928D01*
X61963904Y-42275880D01*
X61963904Y-41144976D01*
X63227857Y-41610642D02*
X63227857Y-42541976D01*
X62895238Y-41078452D02*
X62562619Y-42076309D01*
X63427428Y-42076309D01*
G04 #@! TO.C,U3*
X82184119Y-22742676D02*
X82184119Y-23873580D01*
X82250642Y-24006628D01*
X82317166Y-24073152D01*
X82450214Y-24139676D01*
X82716309Y-24139676D01*
X82849357Y-24073152D01*
X82915880Y-24006628D01*
X82982404Y-23873580D01*
X82982404Y-22742676D01*
X83514595Y-22742676D02*
X84379404Y-22742676D01*
X83913738Y-23274866D01*
X84113309Y-23274866D01*
X84246357Y-23341390D01*
X84312880Y-23407914D01*
X84379404Y-23540961D01*
X84379404Y-23873580D01*
X84312880Y-24006628D01*
X84246357Y-24073152D01*
X84113309Y-24139676D01*
X83714166Y-24139676D01*
X83581119Y-24073152D01*
X83514595Y-24006628D01*
G04 #@! TO.C,H1*
X52910619Y-37671976D02*
X52910619Y-36274976D01*
X52910619Y-36940214D02*
X53708904Y-36940214D01*
X53708904Y-37671976D02*
X53708904Y-36274976D01*
X55105904Y-37671976D02*
X54307619Y-37671976D01*
X54706761Y-37671976D02*
X54706761Y-36274976D01*
X54573714Y-36474547D01*
X54440666Y-36607595D01*
X54307619Y-36674119D01*
G04 #@! TO.C,Y1*
X88869761Y-52036738D02*
X88869761Y-52701976D01*
X88404095Y-51304976D02*
X88869761Y-52036738D01*
X89335428Y-51304976D01*
X90532857Y-52701976D02*
X89734571Y-52701976D01*
X90133714Y-52701976D02*
X90133714Y-51304976D01*
X90000666Y-51504547D01*
X89867619Y-51637595D01*
X89734571Y-51704119D01*
G04 #@! TO.C,H3*
D16*
X90919395Y-27675280D02*
X90919395Y-26675280D01*
X90919395Y-27151471D02*
X91490823Y-27151471D01*
X91490823Y-27675280D02*
X91490823Y-26675280D01*
X91871776Y-26675280D02*
X92490823Y-26675280D01*
X92157490Y-27056233D01*
X92300347Y-27056233D01*
X92395585Y-27103852D01*
X92443204Y-27151471D01*
X92490823Y-27246709D01*
X92490823Y-27484804D01*
X92443204Y-27580042D01*
X92395585Y-27627661D01*
X92300347Y-27675280D01*
X92014633Y-27675280D01*
X91919395Y-27627661D01*
X91871776Y-27580042D01*
G04 #@! TO.C,U2*
X38608095Y-16807380D02*
X38608095Y-17616904D01*
X38655714Y-17712142D01*
X38703333Y-17759761D01*
X38798571Y-17807380D01*
X38989047Y-17807380D01*
X39084285Y-17759761D01*
X39131904Y-17712142D01*
X39179523Y-17616904D01*
X39179523Y-16807380D01*
X39608095Y-16902619D02*
X39655714Y-16855000D01*
X39750952Y-16807380D01*
X39989047Y-16807380D01*
X40084285Y-16855000D01*
X40131904Y-16902619D01*
X40179523Y-16997857D01*
X40179523Y-17093095D01*
X40131904Y-17235952D01*
X39560476Y-17807380D01*
X40179523Y-17807380D01*
G04 #@! TO.C,J2*
X33190380Y-15319333D02*
X33904666Y-15319333D01*
X34047523Y-15366952D01*
X34142761Y-15462190D01*
X34190380Y-15605047D01*
X34190380Y-15700285D01*
X33285619Y-14890761D02*
X33238000Y-14843142D01*
X33190380Y-14747904D01*
X33190380Y-14509809D01*
X33238000Y-14414571D01*
X33285619Y-14366952D01*
X33380857Y-14319333D01*
X33476095Y-14319333D01*
X33618952Y-14366952D01*
X34190380Y-14938380D01*
X34190380Y-14319333D01*
G04 #@! TO.C,J3*
X60710380Y-2111333D02*
X61424666Y-2111333D01*
X61567523Y-2158952D01*
X61662761Y-2254190D01*
X61710380Y-2397047D01*
X61710380Y-2492285D01*
X60710380Y-1730380D02*
X60710380Y-1111333D01*
X61091333Y-1444666D01*
X61091333Y-1301809D01*
X61138952Y-1206571D01*
X61186571Y-1158952D01*
X61281809Y-1111333D01*
X61519904Y-1111333D01*
X61615142Y-1158952D01*
X61662761Y-1206571D01*
X61710380Y-1301809D01*
X61710380Y-1587523D01*
X61662761Y-1682761D01*
X61615142Y-1730380D01*
G04 #@! TO.C,U5*
X35730380Y-9143904D02*
X36539904Y-9143904D01*
X36635142Y-9096285D01*
X36682761Y-9048666D01*
X36730380Y-8953428D01*
X36730380Y-8762952D01*
X36682761Y-8667714D01*
X36635142Y-8620095D01*
X36539904Y-8572476D01*
X35730380Y-8572476D01*
X35730380Y-7620095D02*
X35730380Y-8096285D01*
X36206571Y-8143904D01*
X36158952Y-8096285D01*
X36111333Y-8001047D01*
X36111333Y-7762952D01*
X36158952Y-7667714D01*
X36206571Y-7620095D01*
X36301809Y-7572476D01*
X36539904Y-7572476D01*
X36635142Y-7620095D01*
X36682761Y-7667714D01*
X36730380Y-7762952D01*
X36730380Y-8001047D01*
X36682761Y-8096285D01*
X36635142Y-8143904D01*
G04 #@! TD*
M02*
