M48
;DRILL file {KiCad (5.0.2)-1} date 9/21/2019 8:13:25 PM
;FORMAT={-:-/ absolute / inch / decimal}
FMAT,2
INCH,TZ
T1C0.0157
T2C0.0197
T3C0.0315
T4C0.0354
T5C0.0362
T6C0.0394
T7C0.0591
T8C0.0917
T9C0.1510
%
G90
G05
T1
X0.425Y-1.725
X0.425Y-1.975
X0.553Y-2.5435
X0.7Y-1.38
X0.7Y-2.0307
X0.775Y-1.775
X0.775Y-1.925
X1.0275Y-1.976
X1.05Y-2.3285
X1.1165Y-0.92
X1.1177Y-0.82
X1.1245Y-1.317
X1.125Y-0.725
X1.125Y-1.925
X1.16Y-1.88
X1.16Y-2.12
X1.3122Y-0.7525
X1.355Y-1.424
X1.3607Y-1.7013
X1.361Y-1.575
X1.3775Y-1.075
X1.378Y-0.9298
X1.3905Y-1.1165
X1.391Y-1.601
X1.397Y-1.675
X1.397Y-1.82
X1.4145Y-0.625
X1.4167Y-1.475
X1.4365Y-1.5402
X1.437Y-1.8745
X1.4415Y-0.7528
X1.4425Y-1.2745
X1.4675Y-0.725
X1.4682Y-1.1755
X1.4725Y-1.63
X1.4735Y-1.775
X1.4865Y-1.424
X1.4875Y-1.501
X1.779Y-1.0457
X1.7795Y-0.724
X1.913Y-0.7572
X1.9255Y-1.0457
X1.941Y-1.619
X1.948Y-1.3935
X1.953Y-1.8058
X1.978Y-0.783
X1.978Y-1.533
X1.989Y-1.875
X2.003Y-1.98
X2.004Y-2.2205
X2.0105Y-1.4385
X2.0525Y-1.502
X2.191Y-1.3575
X2.2045Y-1.5035
X2.205Y-1.9843
X2.22Y-1.6705
X2.249Y-1.487
X2.2585Y-1.8415
X2.282Y-1.6843
X2.2875Y-1.574
X2.2929Y-0.9176
X2.2943Y-1.1007
X2.295Y-1.9585
X2.295Y-2.124
X2.295Y-2.2255
X2.3185Y-0.817
X2.32Y-1.6743
X2.3457Y-1.5575
X2.3475Y-0.7315
X2.38Y-1.75
X2.388Y-1.9343
X2.39Y-2.08
X2.3905Y-1.2205
X2.4007Y-1.3065
X2.4016Y-2.1654
X2.41Y-1.78
X2.4125Y-1.6695
X2.4135Y-0.9205
X2.423Y-1.4785
X2.464Y-2.2515
X2.4665Y-1.5205
X2.5197Y-2.1654
X2.52Y-1.02
X2.534Y-1.441
X2.549Y-1.5875
X2.5515Y-1.5495
X2.5535Y-1.6455
X2.5775Y-1.6166
X2.581Y-0.679
X2.5865Y-1.7915
X2.593Y-1.4105
X2.5959Y-1.723
X2.5984Y-2.2047
X2.5984Y-3.1102
X2.6077Y-0.9825
X2.6085Y-1.7611
X2.6105Y-1.3645
X2.616Y-1.66
X2.6229Y-1.6969
X2.6245Y-0.758
X2.6445Y-1.4084
X2.6465Y-2.0335
X2.6761Y-2.0105
X2.6825Y-1.4085
X2.7036Y-1.985
X2.7057Y-1.272
X2.7057Y-1.3783
X2.73Y-2.18
X2.738Y-1.2325
X2.74Y-2.8
X2.7435Y-1.4385
X2.7559Y-2.0472
X2.766Y-1.555
X2.7695Y-1.077
X2.77Y-2.18
X2.77Y-2.71
X2.7735Y-1.4125
X2.8Y-2.05
X2.8115Y-2.1545
X2.826Y-1.439
X2.8315Y-1.5595
X2.84Y-2.2843
X2.842Y-1.118
X2.853Y-1.4025
X2.8698Y-1.369
X2.87Y-2.4643
X2.876Y-1.0565
X2.88Y-2.02
X2.88Y-2.18
X2.9017Y-1.1575
X2.9018Y-1.3494
X2.91Y-2.49
X2.9112Y-2.2008
X2.9223Y-1.748
X2.9246Y-1.4264
X2.9275Y-1.2655
X2.93Y-2.62
X2.9443Y-2.38
X2.9567Y-1.4069
X2.9592Y-1.2856
X2.9785Y-1.564
X2.98Y-2.51
X2.984Y-1.695
X2.9855Y-1.793
X2.9993Y-2.0388
X3.0143Y-2.5365
X3.02Y-2.19
X3.023Y-1.5898
X3.0335Y-0.941
X3.04Y-2.57
X3.1102Y-2.4803
X3.1143Y-2.0734
X3.15Y-1.725
X3.15Y-1.9832
X3.16Y-2.02
X3.175Y-1.775
X3.1849Y-1.7388
X3.2283Y-3.1102
X3.3071Y-1.7717
X3.3071Y-2.0866
X3.3517Y-1.6191
T2
X3.2Y-1.9002
X3.2Y-1.975
T3
X0.35Y-0.675
X0.35Y-0.775
X0.35Y-0.875
X0.35Y-0.975
X0.35Y-1.075
X0.35Y-1.175
X0.35Y-1.275
X0.35Y-1.375
X0.35Y-1.475
X0.35Y-1.575
X0.35Y-1.675
X0.35Y-1.775
X0.35Y-1.875
X0.35Y-1.975
X0.35Y-2.075
X0.35Y-2.175
X0.35Y-2.275
X0.35Y-2.375
X0.35Y-2.475
X0.35Y-2.575
X0.95Y-0.675
X0.95Y-0.775
X0.95Y-0.875
X0.95Y-0.975
X0.95Y-1.075
X0.95Y-1.175
X0.95Y-1.275
X0.95Y-1.375
X0.95Y-1.475
X0.95Y-1.575
X0.95Y-1.675
X0.95Y-1.775
X0.95Y-1.875
X0.95Y-1.975
X0.95Y-2.075
X0.95Y-2.175
X0.95Y-2.275
X0.95Y-2.375
X0.95Y-2.475
X0.95Y-2.575
X1.25Y-0.575
X1.25Y-0.675
X1.25Y-0.775
X1.25Y-0.875
X1.25Y-0.975
X1.25Y-1.075
X1.25Y-1.175
X1.25Y-1.275
X1.25Y-1.375
X1.25Y-1.475
X1.25Y-1.575
X1.25Y-1.675
X1.25Y-1.775
X1.25Y-1.875
X1.25Y-1.975
X1.25Y-2.075
X1.85Y-0.575
X1.85Y-0.675
X1.85Y-0.775
X1.85Y-0.875
X1.85Y-0.975
X1.85Y-1.075
X1.85Y-1.175
X1.85Y-1.275
X1.85Y-1.375
X1.85Y-1.475
X1.85Y-1.575
X1.85Y-1.675
X1.85Y-1.775
X1.85Y-1.875
X1.85Y-1.975
X1.85Y-2.075
X2.68Y-0.88
X2.68Y-1.18
X3.28Y-0.88
X3.28Y-1.18
T4
X3.575Y-3.025
X3.575Y-3.125
T5
X3.1496Y-2.575
X3.1496Y-2.6734
X3.2283Y-2.575
X3.2283Y-2.6734
T6
X2.125Y-1.35
X2.125Y-1.45
X2.125Y-1.55
X2.125Y-1.65
X2.125Y-1.875
X2.125Y-1.975
X2.125Y-2.075
X2.125Y-2.175
T7
X1.3433Y-2.9
X2.15Y-2.9
T8
X3.335Y-2.3872
X3.335Y-2.8612
T9
X3.5039Y-3.5039
X3.5039Y-0.2362
X0.2362Y-3.5039
X0.2362Y-0.2362
T0
M30
