M48
;DRILL file {KiCad (5.0.2)-1} date 9/20/2019 8:48:46 AM
;FORMAT={-:-/ absolute / inch / decimal}
FMAT,2
INCH,TZ
T1C0.0315
T2C0.0354
T3C0.0362
T4C0.0394
T5C0.0917
%
G90
G05
T1
X4.7Y-0.3
X4.7Y-0.4
X4.7Y-0.5
X4.7Y-0.6
X4.7Y-0.7
X4.7Y-0.8
X4.7Y-0.9
X4.7Y-1.
X4.7Y-1.1
X4.7Y-1.2
X4.7Y-1.3
X4.7Y-1.4
X4.7Y-1.5
X4.7Y-1.6
X4.7Y-1.7
X4.7Y-1.8
X4.7Y-1.9
X4.7Y-2.
X4.7Y-2.1
X4.7Y-2.2
X5.3Y-0.3
X5.3Y-0.4
X5.3Y-0.5
X5.3Y-0.6
X5.3Y-0.7
X5.3Y-0.8
X5.3Y-0.9
X5.3Y-1.
X5.3Y-1.1
X5.3Y-1.2
X5.3Y-1.3
X5.3Y-1.4
X5.3Y-1.5
X5.3Y-1.6
X5.3Y-1.7
X5.3Y-1.8
X5.3Y-1.9
X5.3Y-2.
X5.3Y-2.1
X5.3Y-2.2
X2.7Y-2.0071
X2.7Y-2.2
X1.2Y-2.1
X1.2Y-2.7
X1.5Y-2.1
X1.5Y-2.7
X1.8Y-0.3
X1.8Y-0.4
X1.8Y-0.5
X1.8Y-0.6
X1.8Y-0.7
X1.8Y-0.8
X1.8Y-0.9
X1.8Y-1.
X1.8Y-1.1
X1.8Y-1.2
X1.8Y-1.3
X1.8Y-1.4
X1.8Y-1.5
X1.8Y-1.6
X2.4Y-0.3
X2.4Y-0.4
X2.4Y-0.5
X2.4Y-0.6
X2.4Y-0.7
X2.4Y-0.8
X2.4Y-0.9
X2.4Y-1.
X2.4Y-1.1
X2.4Y-1.2
X2.4Y-1.3
X2.4Y-1.4
X2.4Y-1.5
X2.4Y-1.6
X5.7Y-0.3
X5.7Y-0.4
X5.7Y-0.5
X5.7Y-0.6
X5.7Y-0.7
X5.7Y-0.8
X5.7Y-0.9
X5.7Y-1.
X5.7Y-1.1
X5.7Y-1.2
X5.7Y-1.3
X5.7Y-1.4
X5.7Y-1.5
X5.7Y-1.6
X5.7Y-1.7
X5.7Y-1.8
X5.7Y-1.9
X5.7Y-2.
X5.7Y-2.1
X5.7Y-2.2
X6.3Y-0.3
X6.3Y-0.4
X6.3Y-0.5
X6.3Y-0.6
X6.3Y-0.7
X6.3Y-0.8
X6.3Y-0.9
X6.3Y-1.
X6.3Y-1.1
X6.3Y-1.2
X6.3Y-1.3
X6.3Y-1.4
X6.3Y-1.5
X6.3Y-1.6
X6.3Y-1.7
X6.3Y-1.8
X6.3Y-1.9
X6.3Y-2.
X6.3Y-2.1
X6.3Y-2.2
X3.6Y-0.3
X3.6Y-0.4
X3.6Y-0.5
X3.6Y-0.6
X3.6Y-0.7
X3.6Y-0.8
X3.6Y-0.9
X3.6Y-1.
X3.6Y-1.1
X3.6Y-1.2
X3.6Y-1.3
X3.6Y-1.4
X3.6Y-1.5
X3.6Y-1.6
X3.6Y-1.7
X3.6Y-1.8
X3.6Y-1.9
X3.6Y-2.
X3.6Y-2.1
X3.6Y-2.2
X4.2Y-0.3
X4.2Y-0.4
X4.2Y-0.5
X4.2Y-0.6
X4.2Y-0.7
X4.2Y-0.8
X4.2Y-0.9
X4.2Y-1.
X4.2Y-1.1
X4.2Y-1.2
X4.2Y-1.3
X4.2Y-1.4
X4.2Y-1.5
X4.2Y-1.6
X4.2Y-1.7
X4.2Y-1.8
X4.2Y-1.9
X4.2Y-2.
X4.2Y-2.1
X4.2Y-2.2
X2.6Y-0.3
X2.6Y-0.4
X2.6Y-0.5
X2.6Y-0.6
X2.6Y-0.7
X2.6Y-0.8
X2.6Y-0.9
X2.6Y-1.
X2.6Y-1.1
X2.6Y-1.2
X2.6Y-1.3
X2.6Y-1.4
X2.6Y-1.5
X2.6Y-1.6
X3.2Y-0.3
X3.2Y-0.4
X3.2Y-0.5
X3.2Y-0.6
X3.2Y-0.7
X3.2Y-0.8
X3.2Y-0.9
X3.2Y-1.
X3.2Y-1.1
X3.2Y-1.2
X3.2Y-1.3
X3.2Y-1.4
X3.2Y-1.5
X3.2Y-1.6
X1.Y-0.3
X1.Y-0.4
X1.Y-0.5
X1.Y-0.6
X1.Y-0.7
X1.Y-0.8
X1.Y-0.9
X1.Y-1.
X1.Y-1.1
X1.Y-1.2
X1.Y-1.3
X1.Y-1.4
X1.Y-1.5
X1.Y-1.6
X1.6Y-0.3
X1.6Y-0.4
X1.6Y-0.5
X1.6Y-0.6
X1.6Y-0.7
X1.6Y-0.8
X1.6Y-0.9
X1.6Y-1.
X1.6Y-1.1
X1.6Y-1.2
X1.6Y-1.3
X1.6Y-1.4
X1.6Y-1.5
X1.6Y-1.6
X6.5Y-0.3
X6.5Y-0.4
X6.5Y-0.5
X6.5Y-0.6
X6.5Y-0.7
X6.5Y-0.8
X6.5Y-0.9
X6.5Y-1.
X6.5Y-1.1
X6.5Y-1.2
X6.5Y-1.3
X6.5Y-1.4
X6.5Y-1.5
X6.5Y-1.6
X7.1Y-0.3
X7.1Y-0.4
X7.1Y-0.5
X7.1Y-0.6
X7.1Y-0.7
X7.1Y-0.8
X7.1Y-0.9
X7.1Y-1.
X7.1Y-1.1
X7.1Y-1.2
X7.1Y-1.3
X7.1Y-1.4
X7.1Y-1.5
X7.1Y-1.6
X0.2Y-0.3
X0.2Y-0.4
X0.2Y-0.5
X0.2Y-0.6
X0.2Y-0.7
X0.2Y-0.8
X0.2Y-0.9
X0.2Y-1.
X0.2Y-1.1
X0.2Y-1.2
X0.2Y-1.3
X0.2Y-1.4
X0.2Y-1.5
X0.2Y-1.6
X0.2Y-1.7
X0.2Y-1.8
X0.2Y-1.9
X0.2Y-2.
X0.2Y-2.1
X0.2Y-2.2
X0.8Y-0.3
X0.8Y-0.4
X0.8Y-0.5
X0.8Y-0.6
X0.8Y-0.7
X0.8Y-0.8
X0.8Y-0.9
X0.8Y-1.
X0.8Y-1.1
X0.8Y-1.2
X0.8Y-1.3
X0.8Y-1.4
X0.8Y-1.5
X0.8Y-1.6
X0.8Y-1.7
X0.8Y-1.8
X0.8Y-1.9
X0.8Y-2.
X0.8Y-2.1
X0.8Y-2.2
T2
X6.1372Y-2.5605
X6.2372Y-2.5605
T3
X0.5213Y-2.7016
X0.5213Y-2.8
X0.6Y-2.7016
X0.6Y-2.8
T4
X6.0152Y-2.5821
X6.0152Y-2.6821
X6.0152Y-2.7821
X6.0152Y-2.8821
X6.8518Y-2.0605
X6.8518Y-2.1605
X6.8518Y-2.2605
X6.8518Y-2.3605
X6.8518Y-2.4605
X6.8518Y-2.5605
X4.4Y-0.9
X4.4Y-1.
X4.4Y-1.1
X4.4Y-1.2
X4.4Y-1.3
X4.4Y-1.4
X4.4Y-1.5
X4.4Y-1.6
X4.5Y-0.9
X4.5Y-1.
X4.5Y-1.1
X4.5Y-1.2
X4.5Y-1.3
X4.5Y-1.4
X4.5Y-1.5
X4.5Y-1.6
X5.5Y-0.9
X5.5Y-1.
X5.5Y-1.1
X5.5Y-1.2
X5.5Y-1.3
X5.5Y-1.4
X5.5Y-1.5
X5.5Y-1.6
X3.4Y-0.9
X3.4Y-1.
X3.4Y-1.1
X3.4Y-1.2
X3.4Y-1.3
X3.4Y-1.4
X3.4Y-1.5
X3.4Y-1.6
T5
X0.4146Y-2.5138
X0.4146Y-2.9878
T0
M30
