G04 #@! TF.GenerationSoftware,KiCad,Pcbnew,(5.0.2)-1*
G04 #@! TF.CreationDate,2019-09-21T20:53:57-04:00*
G04 #@! TF.ProjectId,Z80_CPU,5a38305f-4350-4552-9e6b-696361645f70,rev?*
G04 #@! TF.SameCoordinates,Original*
G04 #@! TF.FileFunction,Soldermask,Top*
G04 #@! TF.FilePolarity,Negative*
%FSLAX46Y46*%
G04 Gerber Fmt 4.6, Leading zero omitted, Abs format (unit mm)*
G04 Created by KiCad (PCBNEW (5.0.2)-1) date 9/21/2019 8:53:57 PM*
%MOMM*%
%LPD*%
G01*
G04 APERTURE LIST*
%ADD10C,0.100000*%
G04 APERTURE END LIST*
D10*
G36*
X90404045Y-84371480D02*
X91280046Y-84734331D01*
X92068430Y-85261113D01*
X92738887Y-85931570D01*
X93265669Y-86719954D01*
X93628520Y-87595955D01*
X93813500Y-88525910D01*
X93813500Y-89474090D01*
X93628520Y-90404045D01*
X93265669Y-91280046D01*
X92738887Y-92068430D01*
X92068430Y-92738887D01*
X91280046Y-93265669D01*
X90404045Y-93628520D01*
X89474090Y-93813500D01*
X88525910Y-93813500D01*
X87595955Y-93628520D01*
X86719954Y-93265669D01*
X85931570Y-92738887D01*
X85261113Y-92068430D01*
X84734331Y-91280046D01*
X84371480Y-90404045D01*
X84186500Y-89474090D01*
X84186500Y-88525910D01*
X84371480Y-87595955D01*
X84734331Y-86719954D01*
X85261113Y-85931570D01*
X85931570Y-85261113D01*
X86719954Y-84734331D01*
X87595955Y-84371480D01*
X88525910Y-84186500D01*
X89474090Y-84186500D01*
X90404045Y-84371480D01*
X90404045Y-84371480D01*
G37*
G36*
X7404045Y-84371480D02*
X8280046Y-84734331D01*
X9068430Y-85261113D01*
X9738887Y-85931570D01*
X10265669Y-86719954D01*
X10628520Y-87595955D01*
X10813500Y-88525910D01*
X10813500Y-89474090D01*
X10628520Y-90404045D01*
X10265669Y-91280046D01*
X9738887Y-92068430D01*
X9068430Y-92738887D01*
X8280046Y-93265669D01*
X7404045Y-93628520D01*
X6474090Y-93813500D01*
X5525910Y-93813500D01*
X4595955Y-93628520D01*
X3719954Y-93265669D01*
X2931570Y-92738887D01*
X2261113Y-92068430D01*
X1734331Y-91280046D01*
X1371480Y-90404045D01*
X1186500Y-89474090D01*
X1186500Y-88525910D01*
X1371480Y-87595955D01*
X1734331Y-86719954D01*
X2261113Y-85931570D01*
X2931570Y-85261113D01*
X3719954Y-84734331D01*
X4595955Y-84371480D01*
X5525910Y-84186500D01*
X6474090Y-84186500D01*
X7404045Y-84371480D01*
X7404045Y-84371480D01*
G37*
G36*
X91756000Y-80326000D02*
X89854000Y-80326000D01*
X89854000Y-78424000D01*
X91756000Y-78424000D01*
X91756000Y-80326000D01*
X91756000Y-80326000D01*
G37*
G36*
X91082396Y-75920546D02*
X91255466Y-75992234D01*
X91411230Y-76096312D01*
X91543688Y-76228770D01*
X91647766Y-76384534D01*
X91719454Y-76557604D01*
X91756000Y-76741333D01*
X91756000Y-76928667D01*
X91719454Y-77112396D01*
X91647766Y-77285466D01*
X91543688Y-77441230D01*
X91411230Y-77573688D01*
X91255466Y-77677766D01*
X91082396Y-77749454D01*
X90898667Y-77786000D01*
X90711333Y-77786000D01*
X90527604Y-77749454D01*
X90354534Y-77677766D01*
X90198770Y-77573688D01*
X90066312Y-77441230D01*
X89962234Y-77285466D01*
X89890546Y-77112396D01*
X89854000Y-76928667D01*
X89854000Y-76741333D01*
X89890546Y-76557604D01*
X89962234Y-76384534D01*
X90066312Y-76228770D01*
X90198770Y-76096312D01*
X90354534Y-75992234D01*
X90527604Y-75920546D01*
X90711333Y-75884000D01*
X90898667Y-75884000D01*
X91082396Y-75920546D01*
X91082396Y-75920546D01*
G37*
G36*
X56161000Y-75211000D02*
X53059000Y-75211000D01*
X53059000Y-72109000D01*
X56161000Y-72109000D01*
X56161000Y-75211000D01*
X56161000Y-75211000D01*
G37*
G36*
X34472527Y-72148736D02*
X34572410Y-72168604D01*
X34854674Y-72285521D01*
X35108705Y-72455259D01*
X35324741Y-72671295D01*
X35494479Y-72925326D01*
X35611396Y-73207590D01*
X35611396Y-73207591D01*
X35671000Y-73507238D01*
X35671000Y-73812762D01*
X35668949Y-73823073D01*
X35611396Y-74112410D01*
X35494479Y-74394674D01*
X35324741Y-74648705D01*
X35108705Y-74864741D01*
X34854674Y-75034479D01*
X34572410Y-75151396D01*
X34472527Y-75171264D01*
X34272762Y-75211000D01*
X33967238Y-75211000D01*
X33767473Y-75171264D01*
X33667590Y-75151396D01*
X33385326Y-75034479D01*
X33131295Y-74864741D01*
X32915259Y-74648705D01*
X32745521Y-74394674D01*
X32628604Y-74112410D01*
X32571051Y-73823073D01*
X32569000Y-73812762D01*
X32569000Y-73507238D01*
X32628604Y-73207591D01*
X32628604Y-73207590D01*
X32745521Y-72925326D01*
X32915259Y-72671295D01*
X33131295Y-72455259D01*
X33385326Y-72285521D01*
X33667590Y-72168604D01*
X33767473Y-72148736D01*
X33967238Y-72109000D01*
X34272762Y-72109000D01*
X34472527Y-72148736D01*
X34472527Y-72148736D01*
G37*
G36*
X85235331Y-70943211D02*
X85563092Y-71078974D01*
X85858073Y-71276074D01*
X86108926Y-71526927D01*
X86306026Y-71821908D01*
X86441789Y-72149669D01*
X86511000Y-72497616D01*
X86511000Y-72852384D01*
X86441789Y-73200331D01*
X86306026Y-73528092D01*
X86108926Y-73823073D01*
X85858073Y-74073926D01*
X85563092Y-74271026D01*
X85235331Y-74406789D01*
X84887384Y-74476000D01*
X84532616Y-74476000D01*
X84184669Y-74406789D01*
X83856908Y-74271026D01*
X83561927Y-74073926D01*
X83311074Y-73823073D01*
X83113974Y-73528092D01*
X82978211Y-73200331D01*
X82909000Y-72852384D01*
X82909000Y-72497616D01*
X82978211Y-72149669D01*
X83113974Y-71821908D01*
X83311074Y-71526927D01*
X83561927Y-71276074D01*
X83856908Y-71078974D01*
X84184669Y-70943211D01*
X84532616Y-70874000D01*
X84887384Y-70874000D01*
X85235331Y-70943211D01*
X85235331Y-70943211D01*
G37*
G36*
X76672677Y-70627465D02*
X76710364Y-70638898D01*
X76745103Y-70657466D01*
X76775548Y-70682452D01*
X76800534Y-70712897D01*
X76819102Y-70747636D01*
X76830535Y-70785323D01*
X76835000Y-70830661D01*
X76835000Y-71917339D01*
X76830535Y-71962677D01*
X76819102Y-72000364D01*
X76800534Y-72035103D01*
X76775548Y-72065548D01*
X76745103Y-72090534D01*
X76710364Y-72109102D01*
X76672677Y-72120535D01*
X76627339Y-72125000D01*
X75790661Y-72125000D01*
X75745323Y-72120535D01*
X75707636Y-72109102D01*
X75672897Y-72090534D01*
X75642452Y-72065548D01*
X75617466Y-72035103D01*
X75598898Y-72000364D01*
X75587465Y-71962677D01*
X75583000Y-71917339D01*
X75583000Y-70830661D01*
X75587465Y-70785323D01*
X75598898Y-70747636D01*
X75617466Y-70712897D01*
X75642452Y-70682452D01*
X75672897Y-70657466D01*
X75707636Y-70638898D01*
X75745323Y-70627465D01*
X75790661Y-70623000D01*
X76627339Y-70623000D01*
X76672677Y-70627465D01*
X76672677Y-70627465D01*
G37*
G36*
X74622677Y-70627465D02*
X74660364Y-70638898D01*
X74695103Y-70657466D01*
X74725548Y-70682452D01*
X74750534Y-70712897D01*
X74769102Y-70747636D01*
X74780535Y-70785323D01*
X74785000Y-70830661D01*
X74785000Y-71917339D01*
X74780535Y-71962677D01*
X74769102Y-72000364D01*
X74750534Y-72035103D01*
X74725548Y-72065548D01*
X74695103Y-72090534D01*
X74660364Y-72109102D01*
X74622677Y-72120535D01*
X74577339Y-72125000D01*
X73740661Y-72125000D01*
X73695323Y-72120535D01*
X73657636Y-72109102D01*
X73622897Y-72090534D01*
X73592452Y-72065548D01*
X73567466Y-72035103D01*
X73548898Y-72000364D01*
X73537465Y-71962677D01*
X73533000Y-71917339D01*
X73533000Y-70830661D01*
X73537465Y-70785323D01*
X73548898Y-70747636D01*
X73567466Y-70712897D01*
X73592452Y-70682452D01*
X73622897Y-70657466D01*
X73657636Y-70638898D01*
X73695323Y-70627465D01*
X73740661Y-70623000D01*
X74577339Y-70623000D01*
X74622677Y-70627465D01*
X74622677Y-70627465D01*
G37*
G36*
X74622677Y-68341465D02*
X74660364Y-68352898D01*
X74695103Y-68371466D01*
X74725548Y-68396452D01*
X74750534Y-68426897D01*
X74769102Y-68461636D01*
X74780535Y-68499323D01*
X74785000Y-68544661D01*
X74785000Y-69631339D01*
X74780535Y-69676677D01*
X74769102Y-69714364D01*
X74750534Y-69749103D01*
X74725548Y-69779548D01*
X74695103Y-69804534D01*
X74660364Y-69823102D01*
X74622677Y-69834535D01*
X74577339Y-69839000D01*
X73740661Y-69839000D01*
X73695323Y-69834535D01*
X73657636Y-69823102D01*
X73622897Y-69804534D01*
X73592452Y-69779548D01*
X73567466Y-69749103D01*
X73548898Y-69714364D01*
X73537465Y-69676677D01*
X73533000Y-69631339D01*
X73533000Y-68544661D01*
X73537465Y-68499323D01*
X73548898Y-68461636D01*
X73567466Y-68426897D01*
X73592452Y-68396452D01*
X73622897Y-68371466D01*
X73657636Y-68352898D01*
X73695323Y-68341465D01*
X73740661Y-68337000D01*
X74577339Y-68337000D01*
X74622677Y-68341465D01*
X74622677Y-68341465D01*
G37*
G36*
X76672677Y-68341465D02*
X76710364Y-68352898D01*
X76745103Y-68371466D01*
X76775548Y-68396452D01*
X76800534Y-68426897D01*
X76819102Y-68461636D01*
X76830535Y-68499323D01*
X76835000Y-68544661D01*
X76835000Y-69631339D01*
X76830535Y-69676677D01*
X76819102Y-69714364D01*
X76800534Y-69749103D01*
X76775548Y-69779548D01*
X76745103Y-69804534D01*
X76710364Y-69823102D01*
X76672677Y-69834535D01*
X76627339Y-69839000D01*
X75790661Y-69839000D01*
X75745323Y-69834535D01*
X75707636Y-69823102D01*
X75672897Y-69804534D01*
X75642452Y-69779548D01*
X75617466Y-69749103D01*
X75598898Y-69714364D01*
X75587465Y-69676677D01*
X75583000Y-69631339D01*
X75583000Y-68544661D01*
X75587465Y-68499323D01*
X75598898Y-68461636D01*
X75617466Y-68426897D01*
X75642452Y-68396452D01*
X75672897Y-68371466D01*
X75707636Y-68352898D01*
X75745323Y-68341465D01*
X75790661Y-68337000D01*
X76627339Y-68337000D01*
X76672677Y-68341465D01*
X76672677Y-68341465D01*
G37*
G36*
X80262812Y-67038624D02*
X80426784Y-67106544D01*
X80574354Y-67205147D01*
X80699853Y-67330646D01*
X80798456Y-67478216D01*
X80866376Y-67642188D01*
X80877404Y-67697633D01*
X80884515Y-67721074D01*
X80896067Y-67742685D01*
X80911612Y-67761627D01*
X80930554Y-67777172D01*
X80952165Y-67788723D01*
X80975614Y-67795836D01*
X81000000Y-67798238D01*
X81024387Y-67795836D01*
X81047836Y-67788723D01*
X81069447Y-67777171D01*
X81088389Y-67761626D01*
X81103934Y-67742684D01*
X81115485Y-67721073D01*
X81122596Y-67697633D01*
X81133624Y-67642188D01*
X81201544Y-67478216D01*
X81300147Y-67330646D01*
X81425646Y-67205147D01*
X81573216Y-67106544D01*
X81737188Y-67038624D01*
X81911259Y-67004000D01*
X82088741Y-67004000D01*
X82262812Y-67038624D01*
X82426784Y-67106544D01*
X82574354Y-67205147D01*
X82699853Y-67330646D01*
X82798456Y-67478216D01*
X82866376Y-67642188D01*
X82901000Y-67816259D01*
X82901000Y-67993741D01*
X82866376Y-68167812D01*
X82798456Y-68331784D01*
X82699853Y-68479354D01*
X82574354Y-68604853D01*
X82426784Y-68703456D01*
X82262812Y-68771376D01*
X82088741Y-68806000D01*
X81911259Y-68806000D01*
X81737188Y-68771376D01*
X81573216Y-68703456D01*
X81425646Y-68604853D01*
X81300147Y-68479354D01*
X81201544Y-68331784D01*
X81133624Y-68167812D01*
X81122596Y-68112367D01*
X81115485Y-68088926D01*
X81103933Y-68067315D01*
X81088388Y-68048373D01*
X81069446Y-68032828D01*
X81047835Y-68021277D01*
X81024386Y-68014164D01*
X81000000Y-68011762D01*
X80975613Y-68014164D01*
X80952164Y-68021277D01*
X80930553Y-68032829D01*
X80911611Y-68048374D01*
X80896066Y-68067316D01*
X80884515Y-68088927D01*
X80877404Y-68112367D01*
X80866376Y-68167812D01*
X80798456Y-68331784D01*
X80699853Y-68479354D01*
X80574354Y-68604853D01*
X80426784Y-68703456D01*
X80262812Y-68771376D01*
X80088741Y-68806000D01*
X79911259Y-68806000D01*
X79737188Y-68771376D01*
X79573216Y-68703456D01*
X79425646Y-68604853D01*
X79300147Y-68479354D01*
X79201544Y-68331784D01*
X79133624Y-68167812D01*
X79099000Y-67993741D01*
X79099000Y-67816259D01*
X79133624Y-67642188D01*
X79201544Y-67478216D01*
X79300147Y-67330646D01*
X79425646Y-67205147D01*
X79573216Y-67106544D01*
X79737188Y-67038624D01*
X79911259Y-67004000D01*
X80088741Y-67004000D01*
X80262812Y-67038624D01*
X80262812Y-67038624D01*
G37*
G36*
X80901000Y-65075378D02*
X80903402Y-65099764D01*
X80910515Y-65123213D01*
X80922066Y-65144824D01*
X80937612Y-65163766D01*
X80956554Y-65179312D01*
X80978165Y-65190863D01*
X81001614Y-65197976D01*
X81026000Y-65200378D01*
X81050386Y-65197976D01*
X81073835Y-65190863D01*
X81095446Y-65179312D01*
X81114388Y-65163766D01*
X81129934Y-65144824D01*
X81141480Y-65123223D01*
X81201544Y-64978216D01*
X81300147Y-64830646D01*
X81425646Y-64705147D01*
X81573216Y-64606544D01*
X81737188Y-64538624D01*
X81911259Y-64504000D01*
X82088741Y-64504000D01*
X82262812Y-64538624D01*
X82426784Y-64606544D01*
X82574354Y-64705147D01*
X82699853Y-64830646D01*
X82798456Y-64978216D01*
X82866376Y-65142188D01*
X82901000Y-65316259D01*
X82901000Y-65493741D01*
X82866376Y-65667812D01*
X82798456Y-65831784D01*
X82699853Y-65979354D01*
X82574354Y-66104853D01*
X82426784Y-66203456D01*
X82262812Y-66271376D01*
X82088741Y-66306000D01*
X81911259Y-66306000D01*
X81737188Y-66271376D01*
X81573216Y-66203456D01*
X81425646Y-66104853D01*
X81300147Y-65979354D01*
X81201544Y-65831784D01*
X81141480Y-65686777D01*
X81129934Y-65665176D01*
X81114388Y-65646234D01*
X81095446Y-65630688D01*
X81073835Y-65619137D01*
X81050386Y-65612024D01*
X81026000Y-65609622D01*
X81001614Y-65612024D01*
X80978165Y-65619137D01*
X80956554Y-65630688D01*
X80937612Y-65646234D01*
X80922066Y-65665176D01*
X80910515Y-65686787D01*
X80903402Y-65710236D01*
X80901000Y-65734622D01*
X80901000Y-66306000D01*
X79099000Y-66306000D01*
X79099000Y-64504000D01*
X80901000Y-64504000D01*
X80901000Y-65075378D01*
X80901000Y-65075378D01*
G37*
G36*
X9056821Y-64566313D02*
X9056824Y-64566314D01*
X9056825Y-64566314D01*
X9217239Y-64614975D01*
X9217241Y-64614976D01*
X9217244Y-64614977D01*
X9365078Y-64693995D01*
X9494659Y-64800341D01*
X9601005Y-64929922D01*
X9680023Y-65077756D01*
X9680024Y-65077759D01*
X9680025Y-65077761D01*
X9717220Y-65200378D01*
X9728687Y-65238179D01*
X9745117Y-65405000D01*
X9728687Y-65571821D01*
X9728686Y-65571824D01*
X9728686Y-65571825D01*
X9686700Y-65710236D01*
X9680023Y-65732244D01*
X9601005Y-65880078D01*
X9494659Y-66009659D01*
X9365078Y-66116005D01*
X9217244Y-66195023D01*
X9217241Y-66195024D01*
X9217239Y-66195025D01*
X9056825Y-66243686D01*
X9056824Y-66243686D01*
X9056821Y-66243687D01*
X8931804Y-66256000D01*
X8848196Y-66256000D01*
X8723179Y-66243687D01*
X8723176Y-66243686D01*
X8723175Y-66243686D01*
X8562761Y-66195025D01*
X8562759Y-66195024D01*
X8562756Y-66195023D01*
X8414922Y-66116005D01*
X8285341Y-66009659D01*
X8178995Y-65880078D01*
X8099977Y-65732244D01*
X8093301Y-65710236D01*
X8051314Y-65571825D01*
X8051314Y-65571824D01*
X8051313Y-65571821D01*
X8034883Y-65405000D01*
X8051313Y-65238179D01*
X8062780Y-65200378D01*
X8099975Y-65077761D01*
X8099976Y-65077759D01*
X8099977Y-65077756D01*
X8178995Y-64929922D01*
X8285341Y-64800341D01*
X8414922Y-64693995D01*
X8562756Y-64614977D01*
X8562759Y-64614976D01*
X8562761Y-64614975D01*
X8723175Y-64566314D01*
X8723176Y-64566314D01*
X8723179Y-64566313D01*
X8848196Y-64554000D01*
X8931804Y-64554000D01*
X9056821Y-64566313D01*
X9056821Y-64566313D01*
G37*
G36*
X24296821Y-64566313D02*
X24296824Y-64566314D01*
X24296825Y-64566314D01*
X24457239Y-64614975D01*
X24457241Y-64614976D01*
X24457244Y-64614977D01*
X24605078Y-64693995D01*
X24734659Y-64800341D01*
X24841005Y-64929922D01*
X24920023Y-65077756D01*
X24920024Y-65077759D01*
X24920025Y-65077761D01*
X24957220Y-65200378D01*
X24968687Y-65238179D01*
X24985117Y-65405000D01*
X24968687Y-65571821D01*
X24968686Y-65571824D01*
X24968686Y-65571825D01*
X24926700Y-65710236D01*
X24920023Y-65732244D01*
X24841005Y-65880078D01*
X24734659Y-66009659D01*
X24605078Y-66116005D01*
X24457244Y-66195023D01*
X24457241Y-66195024D01*
X24457239Y-66195025D01*
X24296825Y-66243686D01*
X24296824Y-66243686D01*
X24296821Y-66243687D01*
X24171804Y-66256000D01*
X24088196Y-66256000D01*
X23963179Y-66243687D01*
X23963176Y-66243686D01*
X23963175Y-66243686D01*
X23802761Y-66195025D01*
X23802759Y-66195024D01*
X23802756Y-66195023D01*
X23654922Y-66116005D01*
X23525341Y-66009659D01*
X23418995Y-65880078D01*
X23339977Y-65732244D01*
X23333301Y-65710236D01*
X23291314Y-65571825D01*
X23291314Y-65571824D01*
X23291313Y-65571821D01*
X23274883Y-65405000D01*
X23291313Y-65238179D01*
X23302780Y-65200378D01*
X23339975Y-65077761D01*
X23339976Y-65077759D01*
X23339977Y-65077756D01*
X23418995Y-64929922D01*
X23525341Y-64800341D01*
X23654922Y-64693995D01*
X23802756Y-64614977D01*
X23802759Y-64614976D01*
X23802761Y-64614975D01*
X23963175Y-64566314D01*
X23963176Y-64566314D01*
X23963179Y-64566313D01*
X24088196Y-64554000D01*
X24171804Y-64554000D01*
X24296821Y-64566313D01*
X24296821Y-64566313D01*
G37*
G36*
X24296821Y-62026313D02*
X24296824Y-62026314D01*
X24296825Y-62026314D01*
X24457239Y-62074975D01*
X24457241Y-62074976D01*
X24457244Y-62074977D01*
X24605078Y-62153995D01*
X24734659Y-62260341D01*
X24841005Y-62389922D01*
X24920023Y-62537756D01*
X24968687Y-62698179D01*
X24985117Y-62865000D01*
X24968687Y-63031821D01*
X24920023Y-63192244D01*
X24841005Y-63340078D01*
X24734659Y-63469659D01*
X24605078Y-63576005D01*
X24457244Y-63655023D01*
X24457241Y-63655024D01*
X24457239Y-63655025D01*
X24296825Y-63703686D01*
X24296824Y-63703686D01*
X24296821Y-63703687D01*
X24171804Y-63716000D01*
X24088196Y-63716000D01*
X23963179Y-63703687D01*
X23963176Y-63703686D01*
X23963175Y-63703686D01*
X23802761Y-63655025D01*
X23802759Y-63655024D01*
X23802756Y-63655023D01*
X23654922Y-63576005D01*
X23525341Y-63469659D01*
X23418995Y-63340078D01*
X23339977Y-63192244D01*
X23291313Y-63031821D01*
X23274883Y-62865000D01*
X23291313Y-62698179D01*
X23339977Y-62537756D01*
X23418995Y-62389922D01*
X23525341Y-62260341D01*
X23654922Y-62153995D01*
X23802756Y-62074977D01*
X23802759Y-62074976D01*
X23802761Y-62074975D01*
X23963175Y-62026314D01*
X23963176Y-62026314D01*
X23963179Y-62026313D01*
X24088196Y-62014000D01*
X24171804Y-62014000D01*
X24296821Y-62026313D01*
X24296821Y-62026313D01*
G37*
G36*
X9056821Y-62026313D02*
X9056824Y-62026314D01*
X9056825Y-62026314D01*
X9217239Y-62074975D01*
X9217241Y-62074976D01*
X9217244Y-62074977D01*
X9365078Y-62153995D01*
X9494659Y-62260341D01*
X9601005Y-62389922D01*
X9680023Y-62537756D01*
X9728687Y-62698179D01*
X9745117Y-62865000D01*
X9728687Y-63031821D01*
X9680023Y-63192244D01*
X9601005Y-63340078D01*
X9494659Y-63469659D01*
X9365078Y-63576005D01*
X9217244Y-63655023D01*
X9217241Y-63655024D01*
X9217239Y-63655025D01*
X9056825Y-63703686D01*
X9056824Y-63703686D01*
X9056821Y-63703687D01*
X8931804Y-63716000D01*
X8848196Y-63716000D01*
X8723179Y-63703687D01*
X8723176Y-63703686D01*
X8723175Y-63703686D01*
X8562761Y-63655025D01*
X8562759Y-63655024D01*
X8562756Y-63655023D01*
X8414922Y-63576005D01*
X8285341Y-63469659D01*
X8178995Y-63340078D01*
X8099977Y-63192244D01*
X8051313Y-63031821D01*
X8034883Y-62865000D01*
X8051313Y-62698179D01*
X8099977Y-62537756D01*
X8178995Y-62389922D01*
X8285341Y-62260341D01*
X8414922Y-62153995D01*
X8562756Y-62074977D01*
X8562759Y-62074976D01*
X8562761Y-62074975D01*
X8723175Y-62026314D01*
X8723176Y-62026314D01*
X8723179Y-62026313D01*
X8848196Y-62014000D01*
X8931804Y-62014000D01*
X9056821Y-62026313D01*
X9056821Y-62026313D01*
G37*
G36*
X85235331Y-58903211D02*
X85563092Y-59038974D01*
X85858073Y-59236074D01*
X86108926Y-59486927D01*
X86306026Y-59781908D01*
X86441789Y-60109669D01*
X86511000Y-60457616D01*
X86511000Y-60812384D01*
X86441789Y-61160331D01*
X86306026Y-61488092D01*
X86108926Y-61783073D01*
X85858073Y-62033926D01*
X85563092Y-62231026D01*
X85235331Y-62366789D01*
X84887384Y-62436000D01*
X84532616Y-62436000D01*
X84184669Y-62366789D01*
X83856908Y-62231026D01*
X83561927Y-62033926D01*
X83311074Y-61783073D01*
X83113974Y-61488092D01*
X82978211Y-61160331D01*
X82909000Y-60812384D01*
X82909000Y-60457616D01*
X82978211Y-60109669D01*
X83113974Y-59781908D01*
X83311074Y-59486927D01*
X83561927Y-59236074D01*
X83856908Y-59038974D01*
X84184669Y-58903211D01*
X84532616Y-58834000D01*
X84887384Y-58834000D01*
X85235331Y-58903211D01*
X85235331Y-58903211D01*
G37*
G36*
X9056821Y-59486313D02*
X9056824Y-59486314D01*
X9056825Y-59486314D01*
X9217239Y-59534975D01*
X9217241Y-59534976D01*
X9217244Y-59534977D01*
X9365078Y-59613995D01*
X9494659Y-59720341D01*
X9601005Y-59849922D01*
X9680023Y-59997756D01*
X9680024Y-59997759D01*
X9680025Y-59997761D01*
X9713972Y-60109669D01*
X9728687Y-60158179D01*
X9745117Y-60325000D01*
X9728687Y-60491821D01*
X9680023Y-60652244D01*
X9601005Y-60800078D01*
X9494659Y-60929659D01*
X9365078Y-61036005D01*
X9217244Y-61115023D01*
X9217241Y-61115024D01*
X9217239Y-61115025D01*
X9056825Y-61163686D01*
X9056824Y-61163686D01*
X9056821Y-61163687D01*
X8931804Y-61176000D01*
X8848196Y-61176000D01*
X8723179Y-61163687D01*
X8723176Y-61163686D01*
X8723175Y-61163686D01*
X8562761Y-61115025D01*
X8562759Y-61115024D01*
X8562756Y-61115023D01*
X8414922Y-61036005D01*
X8285341Y-60929659D01*
X8178995Y-60800078D01*
X8099977Y-60652244D01*
X8051313Y-60491821D01*
X8034883Y-60325000D01*
X8051313Y-60158179D01*
X8066028Y-60109669D01*
X8099975Y-59997761D01*
X8099976Y-59997759D01*
X8099977Y-59997756D01*
X8178995Y-59849922D01*
X8285341Y-59720341D01*
X8414922Y-59613995D01*
X8562756Y-59534977D01*
X8562759Y-59534976D01*
X8562761Y-59534975D01*
X8723175Y-59486314D01*
X8723176Y-59486314D01*
X8723179Y-59486313D01*
X8848196Y-59474000D01*
X8931804Y-59474000D01*
X9056821Y-59486313D01*
X9056821Y-59486313D01*
G37*
G36*
X24296821Y-59486313D02*
X24296824Y-59486314D01*
X24296825Y-59486314D01*
X24457239Y-59534975D01*
X24457241Y-59534976D01*
X24457244Y-59534977D01*
X24605078Y-59613995D01*
X24734659Y-59720341D01*
X24841005Y-59849922D01*
X24920023Y-59997756D01*
X24920024Y-59997759D01*
X24920025Y-59997761D01*
X24953972Y-60109669D01*
X24968687Y-60158179D01*
X24985117Y-60325000D01*
X24968687Y-60491821D01*
X24920023Y-60652244D01*
X24841005Y-60800078D01*
X24734659Y-60929659D01*
X24605078Y-61036005D01*
X24457244Y-61115023D01*
X24457241Y-61115024D01*
X24457239Y-61115025D01*
X24296825Y-61163686D01*
X24296824Y-61163686D01*
X24296821Y-61163687D01*
X24171804Y-61176000D01*
X24088196Y-61176000D01*
X23963179Y-61163687D01*
X23963176Y-61163686D01*
X23963175Y-61163686D01*
X23802761Y-61115025D01*
X23802759Y-61115024D01*
X23802756Y-61115023D01*
X23654922Y-61036005D01*
X23525341Y-60929659D01*
X23418995Y-60800078D01*
X23339977Y-60652244D01*
X23291313Y-60491821D01*
X23274883Y-60325000D01*
X23291313Y-60158179D01*
X23306028Y-60109669D01*
X23339975Y-59997761D01*
X23339976Y-59997759D01*
X23339977Y-59997756D01*
X23418995Y-59849922D01*
X23525341Y-59720341D01*
X23654922Y-59613995D01*
X23802756Y-59534977D01*
X23802759Y-59534976D01*
X23802761Y-59534975D01*
X23963175Y-59486314D01*
X23963176Y-59486314D01*
X23963179Y-59486313D01*
X24088196Y-59474000D01*
X24171804Y-59474000D01*
X24296821Y-59486313D01*
X24296821Y-59486313D01*
G37*
G36*
X9056821Y-56946313D02*
X9056824Y-56946314D01*
X9056825Y-56946314D01*
X9217239Y-56994975D01*
X9217241Y-56994976D01*
X9217244Y-56994977D01*
X9365078Y-57073995D01*
X9494659Y-57180341D01*
X9601005Y-57309922D01*
X9680023Y-57457756D01*
X9728687Y-57618179D01*
X9745117Y-57785000D01*
X9728687Y-57951821D01*
X9680023Y-58112244D01*
X9601005Y-58260078D01*
X9494659Y-58389659D01*
X9365078Y-58496005D01*
X9217244Y-58575023D01*
X9217241Y-58575024D01*
X9217239Y-58575025D01*
X9056825Y-58623686D01*
X9056824Y-58623686D01*
X9056821Y-58623687D01*
X8931804Y-58636000D01*
X8848196Y-58636000D01*
X8723179Y-58623687D01*
X8723176Y-58623686D01*
X8723175Y-58623686D01*
X8562761Y-58575025D01*
X8562759Y-58575024D01*
X8562756Y-58575023D01*
X8414922Y-58496005D01*
X8285341Y-58389659D01*
X8178995Y-58260078D01*
X8099977Y-58112244D01*
X8051313Y-57951821D01*
X8034883Y-57785000D01*
X8051313Y-57618179D01*
X8099977Y-57457756D01*
X8178995Y-57309922D01*
X8285341Y-57180341D01*
X8414922Y-57073995D01*
X8562756Y-56994977D01*
X8562759Y-56994976D01*
X8562761Y-56994975D01*
X8723175Y-56946314D01*
X8723176Y-56946314D01*
X8723179Y-56946313D01*
X8848196Y-56934000D01*
X8931804Y-56934000D01*
X9056821Y-56946313D01*
X9056821Y-56946313D01*
G37*
G36*
X24296821Y-56946313D02*
X24296824Y-56946314D01*
X24296825Y-56946314D01*
X24457239Y-56994975D01*
X24457241Y-56994976D01*
X24457244Y-56994977D01*
X24605078Y-57073995D01*
X24734659Y-57180341D01*
X24841005Y-57309922D01*
X24920023Y-57457756D01*
X24968687Y-57618179D01*
X24985117Y-57785000D01*
X24968687Y-57951821D01*
X24920023Y-58112244D01*
X24841005Y-58260078D01*
X24734659Y-58389659D01*
X24605078Y-58496005D01*
X24457244Y-58575023D01*
X24457241Y-58575024D01*
X24457239Y-58575025D01*
X24296825Y-58623686D01*
X24296824Y-58623686D01*
X24296821Y-58623687D01*
X24171804Y-58636000D01*
X24088196Y-58636000D01*
X23963179Y-58623687D01*
X23963176Y-58623686D01*
X23963175Y-58623686D01*
X23802761Y-58575025D01*
X23802759Y-58575024D01*
X23802756Y-58575023D01*
X23654922Y-58496005D01*
X23525341Y-58389659D01*
X23418995Y-58260078D01*
X23339977Y-58112244D01*
X23291313Y-57951821D01*
X23274883Y-57785000D01*
X23291313Y-57618179D01*
X23339977Y-57457756D01*
X23418995Y-57309922D01*
X23525341Y-57180341D01*
X23654922Y-57073995D01*
X23802756Y-56994977D01*
X23802759Y-56994976D01*
X23802761Y-56994975D01*
X23963175Y-56946314D01*
X23963176Y-56946314D01*
X23963179Y-56946313D01*
X24088196Y-56934000D01*
X24171804Y-56934000D01*
X24296821Y-56946313D01*
X24296821Y-56946313D01*
G37*
G36*
X54085442Y-54350518D02*
X54151627Y-54357037D01*
X54264853Y-54391384D01*
X54321467Y-54408557D01*
X54408311Y-54454977D01*
X54477991Y-54492222D01*
X54513729Y-54521552D01*
X54615186Y-54604814D01*
X54698448Y-54706271D01*
X54727778Y-54742009D01*
X54727779Y-54742011D01*
X54811443Y-54898533D01*
X54828616Y-54955147D01*
X54862963Y-55068373D01*
X54880359Y-55245000D01*
X54862963Y-55421627D01*
X54828616Y-55534853D01*
X54811443Y-55591467D01*
X54742698Y-55720078D01*
X54727778Y-55747991D01*
X54698448Y-55783729D01*
X54615186Y-55885186D01*
X54513729Y-55968448D01*
X54477991Y-55997778D01*
X54477989Y-55997779D01*
X54321467Y-56081443D01*
X54314069Y-56083687D01*
X54151627Y-56132963D01*
X54085443Y-56139481D01*
X54019260Y-56146000D01*
X53930740Y-56146000D01*
X53864557Y-56139481D01*
X53798373Y-56132963D01*
X53635931Y-56083687D01*
X53628533Y-56081443D01*
X53472011Y-55997779D01*
X53472009Y-55997778D01*
X53436271Y-55968448D01*
X53334814Y-55885186D01*
X53251552Y-55783729D01*
X53222222Y-55747991D01*
X53207302Y-55720078D01*
X53138557Y-55591467D01*
X53121384Y-55534853D01*
X53087037Y-55421627D01*
X53069641Y-55245000D01*
X53087037Y-55068373D01*
X53121384Y-54955147D01*
X53138557Y-54898533D01*
X53222221Y-54742011D01*
X53222222Y-54742009D01*
X53251552Y-54706271D01*
X53334814Y-54604814D01*
X53436271Y-54521552D01*
X53472009Y-54492222D01*
X53541689Y-54454977D01*
X53628533Y-54408557D01*
X53685147Y-54391384D01*
X53798373Y-54357037D01*
X53864558Y-54350518D01*
X53930740Y-54344000D01*
X54019260Y-54344000D01*
X54085442Y-54350518D01*
X54085442Y-54350518D01*
G37*
G36*
X24296821Y-54406313D02*
X24296824Y-54406314D01*
X24296825Y-54406314D01*
X24457239Y-54454975D01*
X24457241Y-54454976D01*
X24457244Y-54454977D01*
X24605078Y-54533995D01*
X24734659Y-54640341D01*
X24841005Y-54769922D01*
X24920023Y-54917756D01*
X24920024Y-54917759D01*
X24920025Y-54917761D01*
X24965713Y-55068375D01*
X24968687Y-55078179D01*
X24985117Y-55245000D01*
X24968687Y-55411821D01*
X24968686Y-55411824D01*
X24968686Y-55411825D01*
X24965713Y-55421627D01*
X24920023Y-55572244D01*
X24841005Y-55720078D01*
X24734659Y-55849659D01*
X24605078Y-55956005D01*
X24457244Y-56035023D01*
X24457241Y-56035024D01*
X24457239Y-56035025D01*
X24296825Y-56083686D01*
X24296824Y-56083686D01*
X24296821Y-56083687D01*
X24171804Y-56096000D01*
X24088196Y-56096000D01*
X23963179Y-56083687D01*
X23963176Y-56083686D01*
X23963175Y-56083686D01*
X23802761Y-56035025D01*
X23802759Y-56035024D01*
X23802756Y-56035023D01*
X23654922Y-55956005D01*
X23525341Y-55849659D01*
X23418995Y-55720078D01*
X23339977Y-55572244D01*
X23294288Y-55421627D01*
X23291314Y-55411825D01*
X23291314Y-55411824D01*
X23291313Y-55411821D01*
X23274883Y-55245000D01*
X23291313Y-55078179D01*
X23294287Y-55068375D01*
X23339975Y-54917761D01*
X23339976Y-54917759D01*
X23339977Y-54917756D01*
X23418995Y-54769922D01*
X23525341Y-54640341D01*
X23654922Y-54533995D01*
X23802756Y-54454977D01*
X23802759Y-54454976D01*
X23802761Y-54454975D01*
X23963175Y-54406314D01*
X23963176Y-54406314D01*
X23963179Y-54406313D01*
X24088196Y-54394000D01*
X24171804Y-54394000D01*
X24296821Y-54406313D01*
X24296821Y-54406313D01*
G37*
G36*
X9056821Y-54406313D02*
X9056824Y-54406314D01*
X9056825Y-54406314D01*
X9217239Y-54454975D01*
X9217241Y-54454976D01*
X9217244Y-54454977D01*
X9365078Y-54533995D01*
X9494659Y-54640341D01*
X9601005Y-54769922D01*
X9680023Y-54917756D01*
X9680024Y-54917759D01*
X9680025Y-54917761D01*
X9725713Y-55068375D01*
X9728687Y-55078179D01*
X9745117Y-55245000D01*
X9728687Y-55411821D01*
X9728686Y-55411824D01*
X9728686Y-55411825D01*
X9725713Y-55421627D01*
X9680023Y-55572244D01*
X9601005Y-55720078D01*
X9494659Y-55849659D01*
X9365078Y-55956005D01*
X9217244Y-56035023D01*
X9217241Y-56035024D01*
X9217239Y-56035025D01*
X9056825Y-56083686D01*
X9056824Y-56083686D01*
X9056821Y-56083687D01*
X8931804Y-56096000D01*
X8848196Y-56096000D01*
X8723179Y-56083687D01*
X8723176Y-56083686D01*
X8723175Y-56083686D01*
X8562761Y-56035025D01*
X8562759Y-56035024D01*
X8562756Y-56035023D01*
X8414922Y-55956005D01*
X8285341Y-55849659D01*
X8178995Y-55720078D01*
X8099977Y-55572244D01*
X8054288Y-55421627D01*
X8051314Y-55411825D01*
X8051314Y-55411824D01*
X8051313Y-55411821D01*
X8034883Y-55245000D01*
X8051313Y-55078179D01*
X8054287Y-55068375D01*
X8099975Y-54917761D01*
X8099976Y-54917759D01*
X8099977Y-54917756D01*
X8178995Y-54769922D01*
X8285341Y-54640341D01*
X8414922Y-54533995D01*
X8562756Y-54454977D01*
X8562759Y-54454976D01*
X8562761Y-54454975D01*
X8723175Y-54406314D01*
X8723176Y-54406314D01*
X8723179Y-54406313D01*
X8848196Y-54394000D01*
X8931804Y-54394000D01*
X9056821Y-54406313D01*
X9056821Y-54406313D01*
G37*
G36*
X65170293Y-52595323D02*
X65177311Y-52597452D01*
X65191080Y-52604811D01*
X65213719Y-52614187D01*
X65237753Y-52618967D01*
X65262257Y-52618966D01*
X65286290Y-52614184D01*
X65308920Y-52604811D01*
X65322689Y-52597452D01*
X65329707Y-52595323D01*
X65343140Y-52594000D01*
X65656860Y-52594000D01*
X65670293Y-52595323D01*
X65677311Y-52597452D01*
X65691080Y-52604811D01*
X65713719Y-52614187D01*
X65737753Y-52618967D01*
X65762257Y-52618966D01*
X65786290Y-52614184D01*
X65808920Y-52604811D01*
X65822689Y-52597452D01*
X65829707Y-52595323D01*
X65843140Y-52594000D01*
X66156860Y-52594000D01*
X66170293Y-52595323D01*
X66177311Y-52597452D01*
X66191080Y-52604811D01*
X66213719Y-52614187D01*
X66237753Y-52618967D01*
X66262257Y-52618966D01*
X66286290Y-52614184D01*
X66308920Y-52604811D01*
X66322689Y-52597452D01*
X66329707Y-52595323D01*
X66343140Y-52594000D01*
X66656860Y-52594000D01*
X66670293Y-52595323D01*
X66677311Y-52597452D01*
X66691080Y-52604811D01*
X66713719Y-52614187D01*
X66737753Y-52618967D01*
X66762257Y-52618966D01*
X66786290Y-52614184D01*
X66808920Y-52604811D01*
X66822689Y-52597452D01*
X66829707Y-52595323D01*
X66843140Y-52594000D01*
X67156860Y-52594000D01*
X67170293Y-52595323D01*
X67177311Y-52597452D01*
X67191080Y-52604811D01*
X67213719Y-52614187D01*
X67237753Y-52618967D01*
X67262257Y-52618966D01*
X67286290Y-52614184D01*
X67308920Y-52604811D01*
X67322689Y-52597452D01*
X67329707Y-52595323D01*
X67343140Y-52594000D01*
X67656860Y-52594000D01*
X67670293Y-52595323D01*
X67677311Y-52597452D01*
X67691080Y-52604811D01*
X67713719Y-52614187D01*
X67737753Y-52618967D01*
X67762257Y-52618966D01*
X67786290Y-52614184D01*
X67808920Y-52604811D01*
X67822689Y-52597452D01*
X67829707Y-52595323D01*
X67843140Y-52594000D01*
X68156860Y-52594000D01*
X68170293Y-52595323D01*
X68177311Y-52597452D01*
X68191080Y-52604811D01*
X68213719Y-52614187D01*
X68237753Y-52618967D01*
X68262257Y-52618966D01*
X68286290Y-52614184D01*
X68308920Y-52604811D01*
X68322689Y-52597452D01*
X68329707Y-52595323D01*
X68343140Y-52594000D01*
X68656860Y-52594000D01*
X68670293Y-52595323D01*
X68677311Y-52597452D01*
X68691080Y-52604811D01*
X68713719Y-52614187D01*
X68737753Y-52618967D01*
X68762257Y-52618966D01*
X68786290Y-52614184D01*
X68808920Y-52604811D01*
X68822689Y-52597452D01*
X68829707Y-52595323D01*
X68843140Y-52594000D01*
X69156860Y-52594000D01*
X69170293Y-52595323D01*
X69177311Y-52597452D01*
X69191080Y-52604811D01*
X69213719Y-52614187D01*
X69237753Y-52618967D01*
X69262257Y-52618966D01*
X69286290Y-52614184D01*
X69308920Y-52604811D01*
X69322689Y-52597452D01*
X69329707Y-52595323D01*
X69343140Y-52594000D01*
X69656860Y-52594000D01*
X69670293Y-52595323D01*
X69677311Y-52597452D01*
X69691080Y-52604811D01*
X69713719Y-52614187D01*
X69737753Y-52618967D01*
X69762257Y-52618966D01*
X69786290Y-52614184D01*
X69808920Y-52604811D01*
X69822689Y-52597452D01*
X69829707Y-52595323D01*
X69843140Y-52594000D01*
X70156860Y-52594000D01*
X70170293Y-52595323D01*
X70177311Y-52597452D01*
X70191080Y-52604811D01*
X70213719Y-52614187D01*
X70237753Y-52618967D01*
X70262257Y-52618966D01*
X70286290Y-52614184D01*
X70308920Y-52604811D01*
X70322689Y-52597452D01*
X70329707Y-52595323D01*
X70343140Y-52594000D01*
X70656860Y-52594000D01*
X70670293Y-52595323D01*
X70677311Y-52597452D01*
X70691080Y-52604811D01*
X70713719Y-52614187D01*
X70737753Y-52618967D01*
X70762257Y-52618966D01*
X70786290Y-52614184D01*
X70808920Y-52604811D01*
X70822689Y-52597452D01*
X70829707Y-52595323D01*
X70843140Y-52594000D01*
X71156860Y-52594000D01*
X71170293Y-52595323D01*
X71177311Y-52597452D01*
X71191080Y-52604811D01*
X71213719Y-52614187D01*
X71237753Y-52618967D01*
X71262257Y-52618966D01*
X71286290Y-52614184D01*
X71308920Y-52604811D01*
X71322689Y-52597452D01*
X71329707Y-52595323D01*
X71343140Y-52594000D01*
X71656860Y-52594000D01*
X71670293Y-52595323D01*
X71677311Y-52597452D01*
X71691080Y-52604811D01*
X71713719Y-52614187D01*
X71737753Y-52618967D01*
X71762257Y-52618966D01*
X71786290Y-52614184D01*
X71808920Y-52604811D01*
X71822689Y-52597452D01*
X71829707Y-52595323D01*
X71843140Y-52594000D01*
X72156860Y-52594000D01*
X72170293Y-52595323D01*
X72177311Y-52597452D01*
X72191080Y-52604811D01*
X72213719Y-52614187D01*
X72237753Y-52618967D01*
X72262257Y-52618966D01*
X72286290Y-52614184D01*
X72308920Y-52604811D01*
X72322689Y-52597452D01*
X72329707Y-52595323D01*
X72343140Y-52594000D01*
X72656860Y-52594000D01*
X72670293Y-52595323D01*
X72677311Y-52597452D01*
X72691080Y-52604811D01*
X72713719Y-52614187D01*
X72737753Y-52618967D01*
X72762257Y-52618966D01*
X72786290Y-52614184D01*
X72808920Y-52604811D01*
X72822689Y-52597452D01*
X72829707Y-52595323D01*
X72843140Y-52594000D01*
X73156860Y-52594000D01*
X73170293Y-52595323D01*
X73177311Y-52597452D01*
X73191080Y-52604811D01*
X73213719Y-52614187D01*
X73237753Y-52618967D01*
X73262257Y-52618966D01*
X73286290Y-52614184D01*
X73308920Y-52604811D01*
X73322689Y-52597452D01*
X73329707Y-52595323D01*
X73343140Y-52594000D01*
X73656860Y-52594000D01*
X73670293Y-52595323D01*
X73677311Y-52597452D01*
X73691080Y-52604811D01*
X73713719Y-52614187D01*
X73737753Y-52618967D01*
X73762257Y-52618966D01*
X73786290Y-52614184D01*
X73808920Y-52604811D01*
X73822689Y-52597452D01*
X73829707Y-52595323D01*
X73843140Y-52594000D01*
X74156860Y-52594000D01*
X74170293Y-52595323D01*
X74177311Y-52597452D01*
X74191080Y-52604811D01*
X74213719Y-52614187D01*
X74237753Y-52618967D01*
X74262257Y-52618966D01*
X74286290Y-52614184D01*
X74308920Y-52604811D01*
X74322689Y-52597452D01*
X74329707Y-52595323D01*
X74343140Y-52594000D01*
X74656860Y-52594000D01*
X74670293Y-52595323D01*
X74677311Y-52597452D01*
X74691080Y-52604811D01*
X74713719Y-52614187D01*
X74737753Y-52618967D01*
X74762257Y-52618966D01*
X74786290Y-52614184D01*
X74808920Y-52604811D01*
X74822689Y-52597452D01*
X74829707Y-52595323D01*
X74843140Y-52594000D01*
X75156860Y-52594000D01*
X75170293Y-52595323D01*
X75177311Y-52597452D01*
X75191080Y-52604811D01*
X75213719Y-52614187D01*
X75237753Y-52618967D01*
X75262257Y-52618966D01*
X75286290Y-52614184D01*
X75308920Y-52604811D01*
X75322689Y-52597452D01*
X75329707Y-52595323D01*
X75343140Y-52594000D01*
X75656860Y-52594000D01*
X75670293Y-52595323D01*
X75677311Y-52597452D01*
X75691080Y-52604811D01*
X75713719Y-52614187D01*
X75737753Y-52618967D01*
X75762257Y-52618966D01*
X75786290Y-52614184D01*
X75808920Y-52604811D01*
X75822689Y-52597452D01*
X75829707Y-52595323D01*
X75843140Y-52594000D01*
X76156860Y-52594000D01*
X76170293Y-52595323D01*
X76177311Y-52597452D01*
X76191080Y-52604811D01*
X76213719Y-52614187D01*
X76237753Y-52618967D01*
X76262257Y-52618966D01*
X76286290Y-52614184D01*
X76308920Y-52604811D01*
X76322689Y-52597452D01*
X76329707Y-52595323D01*
X76343140Y-52594000D01*
X76656860Y-52594000D01*
X76670293Y-52595323D01*
X76677311Y-52597452D01*
X76691080Y-52604811D01*
X76713719Y-52614187D01*
X76737753Y-52618967D01*
X76762257Y-52618966D01*
X76786290Y-52614184D01*
X76808920Y-52604811D01*
X76822689Y-52597452D01*
X76829707Y-52595323D01*
X76843140Y-52594000D01*
X77156860Y-52594000D01*
X77170293Y-52595323D01*
X77177312Y-52597452D01*
X77183775Y-52600907D01*
X77189442Y-52605558D01*
X77194093Y-52611225D01*
X77197548Y-52617688D01*
X77199677Y-52624707D01*
X77201000Y-52638140D01*
X77201000Y-54126860D01*
X77199677Y-54140293D01*
X77197548Y-54147312D01*
X77194093Y-54153775D01*
X77189442Y-54159442D01*
X77183775Y-54164093D01*
X77177312Y-54167548D01*
X77170293Y-54169677D01*
X77156860Y-54171000D01*
X76843140Y-54171000D01*
X76829707Y-54169677D01*
X76822689Y-54167548D01*
X76808920Y-54160189D01*
X76786281Y-54150813D01*
X76762247Y-54146033D01*
X76737743Y-54146034D01*
X76713710Y-54150816D01*
X76691080Y-54160189D01*
X76677311Y-54167548D01*
X76670293Y-54169677D01*
X76656860Y-54171000D01*
X76343140Y-54171000D01*
X76329707Y-54169677D01*
X76322689Y-54167548D01*
X76308920Y-54160189D01*
X76286281Y-54150813D01*
X76262247Y-54146033D01*
X76237743Y-54146034D01*
X76213710Y-54150816D01*
X76191080Y-54160189D01*
X76177311Y-54167548D01*
X76170293Y-54169677D01*
X76156860Y-54171000D01*
X75843140Y-54171000D01*
X75829707Y-54169677D01*
X75822689Y-54167548D01*
X75808920Y-54160189D01*
X75786281Y-54150813D01*
X75762247Y-54146033D01*
X75737743Y-54146034D01*
X75713710Y-54150816D01*
X75691080Y-54160189D01*
X75677311Y-54167548D01*
X75670293Y-54169677D01*
X75656860Y-54171000D01*
X75343140Y-54171000D01*
X75329707Y-54169677D01*
X75322689Y-54167548D01*
X75308920Y-54160189D01*
X75286281Y-54150813D01*
X75262247Y-54146033D01*
X75237743Y-54146034D01*
X75213710Y-54150816D01*
X75191080Y-54160189D01*
X75177311Y-54167548D01*
X75170293Y-54169677D01*
X75156860Y-54171000D01*
X74843140Y-54171000D01*
X74829707Y-54169677D01*
X74822689Y-54167548D01*
X74808920Y-54160189D01*
X74786281Y-54150813D01*
X74762247Y-54146033D01*
X74737743Y-54146034D01*
X74713710Y-54150816D01*
X74691080Y-54160189D01*
X74677311Y-54167548D01*
X74670293Y-54169677D01*
X74656860Y-54171000D01*
X74343140Y-54171000D01*
X74329707Y-54169677D01*
X74322689Y-54167548D01*
X74308920Y-54160189D01*
X74286281Y-54150813D01*
X74262247Y-54146033D01*
X74237743Y-54146034D01*
X74213710Y-54150816D01*
X74191080Y-54160189D01*
X74177311Y-54167548D01*
X74170293Y-54169677D01*
X74156860Y-54171000D01*
X73843140Y-54171000D01*
X73829707Y-54169677D01*
X73822689Y-54167548D01*
X73808920Y-54160189D01*
X73786281Y-54150813D01*
X73762247Y-54146033D01*
X73737743Y-54146034D01*
X73713710Y-54150816D01*
X73691080Y-54160189D01*
X73677311Y-54167548D01*
X73670293Y-54169677D01*
X73656860Y-54171000D01*
X73343140Y-54171000D01*
X73329707Y-54169677D01*
X73322689Y-54167548D01*
X73308920Y-54160189D01*
X73286281Y-54150813D01*
X73262247Y-54146033D01*
X73237743Y-54146034D01*
X73213710Y-54150816D01*
X73191080Y-54160189D01*
X73177311Y-54167548D01*
X73170293Y-54169677D01*
X73156860Y-54171000D01*
X72843140Y-54171000D01*
X72829707Y-54169677D01*
X72822689Y-54167548D01*
X72808920Y-54160189D01*
X72786281Y-54150813D01*
X72762247Y-54146033D01*
X72737743Y-54146034D01*
X72713710Y-54150816D01*
X72691080Y-54160189D01*
X72677311Y-54167548D01*
X72670293Y-54169677D01*
X72656860Y-54171000D01*
X72343140Y-54171000D01*
X72329707Y-54169677D01*
X72322689Y-54167548D01*
X72308920Y-54160189D01*
X72286281Y-54150813D01*
X72262247Y-54146033D01*
X72237743Y-54146034D01*
X72213710Y-54150816D01*
X72191080Y-54160189D01*
X72177311Y-54167548D01*
X72170293Y-54169677D01*
X72156860Y-54171000D01*
X71843140Y-54171000D01*
X71829707Y-54169677D01*
X71822689Y-54167548D01*
X71808920Y-54160189D01*
X71786281Y-54150813D01*
X71762247Y-54146033D01*
X71737743Y-54146034D01*
X71713710Y-54150816D01*
X71691080Y-54160189D01*
X71677311Y-54167548D01*
X71670293Y-54169677D01*
X71656860Y-54171000D01*
X71343140Y-54171000D01*
X71329707Y-54169677D01*
X71322689Y-54167548D01*
X71308920Y-54160189D01*
X71286281Y-54150813D01*
X71262247Y-54146033D01*
X71237743Y-54146034D01*
X71213710Y-54150816D01*
X71191080Y-54160189D01*
X71177311Y-54167548D01*
X71170293Y-54169677D01*
X71156860Y-54171000D01*
X70843140Y-54171000D01*
X70829707Y-54169677D01*
X70822689Y-54167548D01*
X70808920Y-54160189D01*
X70786281Y-54150813D01*
X70762247Y-54146033D01*
X70737743Y-54146034D01*
X70713710Y-54150816D01*
X70691080Y-54160189D01*
X70677311Y-54167548D01*
X70670293Y-54169677D01*
X70656860Y-54171000D01*
X70343140Y-54171000D01*
X70329707Y-54169677D01*
X70322689Y-54167548D01*
X70308920Y-54160189D01*
X70286281Y-54150813D01*
X70262247Y-54146033D01*
X70237743Y-54146034D01*
X70213710Y-54150816D01*
X70191080Y-54160189D01*
X70177311Y-54167548D01*
X70170293Y-54169677D01*
X70156860Y-54171000D01*
X69843140Y-54171000D01*
X69829707Y-54169677D01*
X69822689Y-54167548D01*
X69808920Y-54160189D01*
X69786281Y-54150813D01*
X69762247Y-54146033D01*
X69737743Y-54146034D01*
X69713710Y-54150816D01*
X69691080Y-54160189D01*
X69677311Y-54167548D01*
X69670293Y-54169677D01*
X69656860Y-54171000D01*
X69343140Y-54171000D01*
X69329707Y-54169677D01*
X69322689Y-54167548D01*
X69308920Y-54160189D01*
X69286281Y-54150813D01*
X69262247Y-54146033D01*
X69237743Y-54146034D01*
X69213710Y-54150816D01*
X69191080Y-54160189D01*
X69177311Y-54167548D01*
X69170293Y-54169677D01*
X69156860Y-54171000D01*
X68843140Y-54171000D01*
X68829707Y-54169677D01*
X68822689Y-54167548D01*
X68808920Y-54160189D01*
X68786281Y-54150813D01*
X68762247Y-54146033D01*
X68737743Y-54146034D01*
X68713710Y-54150816D01*
X68691080Y-54160189D01*
X68677311Y-54167548D01*
X68670293Y-54169677D01*
X68656860Y-54171000D01*
X68343140Y-54171000D01*
X68329707Y-54169677D01*
X68322689Y-54167548D01*
X68308920Y-54160189D01*
X68286281Y-54150813D01*
X68262247Y-54146033D01*
X68237743Y-54146034D01*
X68213710Y-54150816D01*
X68191080Y-54160189D01*
X68177311Y-54167548D01*
X68170293Y-54169677D01*
X68156860Y-54171000D01*
X67843140Y-54171000D01*
X67829707Y-54169677D01*
X67822689Y-54167548D01*
X67808920Y-54160189D01*
X67786281Y-54150813D01*
X67762247Y-54146033D01*
X67737743Y-54146034D01*
X67713710Y-54150816D01*
X67691080Y-54160189D01*
X67677311Y-54167548D01*
X67670293Y-54169677D01*
X67656860Y-54171000D01*
X67343140Y-54171000D01*
X67329707Y-54169677D01*
X67322689Y-54167548D01*
X67308920Y-54160189D01*
X67286281Y-54150813D01*
X67262247Y-54146033D01*
X67237743Y-54146034D01*
X67213710Y-54150816D01*
X67191080Y-54160189D01*
X67177311Y-54167548D01*
X67170293Y-54169677D01*
X67156860Y-54171000D01*
X66843140Y-54171000D01*
X66829707Y-54169677D01*
X66822689Y-54167548D01*
X66808920Y-54160189D01*
X66786281Y-54150813D01*
X66762247Y-54146033D01*
X66737743Y-54146034D01*
X66713710Y-54150816D01*
X66691080Y-54160189D01*
X66677311Y-54167548D01*
X66670293Y-54169677D01*
X66656860Y-54171000D01*
X66343140Y-54171000D01*
X66329707Y-54169677D01*
X66322689Y-54167548D01*
X66308920Y-54160189D01*
X66286281Y-54150813D01*
X66262247Y-54146033D01*
X66237743Y-54146034D01*
X66213710Y-54150816D01*
X66191080Y-54160189D01*
X66177311Y-54167548D01*
X66170293Y-54169677D01*
X66156860Y-54171000D01*
X65843140Y-54171000D01*
X65829707Y-54169677D01*
X65822689Y-54167548D01*
X65808920Y-54160189D01*
X65786281Y-54150813D01*
X65762247Y-54146033D01*
X65737743Y-54146034D01*
X65713710Y-54150816D01*
X65691080Y-54160189D01*
X65677311Y-54167548D01*
X65670293Y-54169677D01*
X65656860Y-54171000D01*
X65343140Y-54171000D01*
X65329707Y-54169677D01*
X65322689Y-54167548D01*
X65308920Y-54160189D01*
X65286281Y-54150813D01*
X65262247Y-54146033D01*
X65237743Y-54146034D01*
X65213710Y-54150816D01*
X65191080Y-54160189D01*
X65177311Y-54167548D01*
X65170293Y-54169677D01*
X65156860Y-54171000D01*
X64843140Y-54171000D01*
X64829707Y-54169677D01*
X64822688Y-54167548D01*
X64816225Y-54164093D01*
X64810558Y-54159442D01*
X64805907Y-54153775D01*
X64802452Y-54147312D01*
X64800323Y-54140293D01*
X64799000Y-54126860D01*
X64799000Y-52638140D01*
X64800323Y-52624707D01*
X64802452Y-52617688D01*
X64805907Y-52611225D01*
X64810558Y-52605558D01*
X64816225Y-52600907D01*
X64822688Y-52597452D01*
X64829707Y-52595323D01*
X64843140Y-52594000D01*
X65156860Y-52594000D01*
X65170293Y-52595323D01*
X65170293Y-52595323D01*
G37*
G36*
X54085442Y-51810518D02*
X54151627Y-51817037D01*
X54264853Y-51851384D01*
X54321467Y-51868557D01*
X54408311Y-51914977D01*
X54477991Y-51952222D01*
X54513729Y-51981552D01*
X54615186Y-52064814D01*
X54698448Y-52166271D01*
X54727778Y-52202009D01*
X54727779Y-52202011D01*
X54811443Y-52358533D01*
X54828616Y-52415147D01*
X54862963Y-52528373D01*
X54880359Y-52705000D01*
X54862963Y-52881627D01*
X54828616Y-52994853D01*
X54811443Y-53051467D01*
X54742698Y-53180078D01*
X54727778Y-53207991D01*
X54698448Y-53243729D01*
X54615186Y-53345186D01*
X54513729Y-53428448D01*
X54477991Y-53457778D01*
X54477989Y-53457779D01*
X54321467Y-53541443D01*
X54314069Y-53543687D01*
X54151627Y-53592963D01*
X54085442Y-53599482D01*
X54019260Y-53606000D01*
X53930740Y-53606000D01*
X53864558Y-53599482D01*
X53798373Y-53592963D01*
X53635931Y-53543687D01*
X53628533Y-53541443D01*
X53472011Y-53457779D01*
X53472009Y-53457778D01*
X53436271Y-53428448D01*
X53334814Y-53345186D01*
X53251552Y-53243729D01*
X53222222Y-53207991D01*
X53207302Y-53180078D01*
X53138557Y-53051467D01*
X53121384Y-52994853D01*
X53087037Y-52881627D01*
X53069641Y-52705000D01*
X53087037Y-52528373D01*
X53121384Y-52415147D01*
X53138557Y-52358533D01*
X53222221Y-52202011D01*
X53222222Y-52202009D01*
X53251552Y-52166271D01*
X53334814Y-52064814D01*
X53436271Y-51981552D01*
X53472009Y-51952222D01*
X53541689Y-51914977D01*
X53628533Y-51868557D01*
X53685147Y-51851384D01*
X53798373Y-51817037D01*
X53864558Y-51810518D01*
X53930740Y-51804000D01*
X54019260Y-51804000D01*
X54085442Y-51810518D01*
X54085442Y-51810518D01*
G37*
G36*
X31916821Y-51866313D02*
X31916824Y-51866314D01*
X31916825Y-51866314D01*
X32077239Y-51914975D01*
X32077241Y-51914976D01*
X32077244Y-51914977D01*
X32225078Y-51993995D01*
X32354659Y-52100341D01*
X32461005Y-52229922D01*
X32540023Y-52377756D01*
X32540024Y-52377759D01*
X32540025Y-52377761D01*
X32585713Y-52528375D01*
X32588687Y-52538179D01*
X32605117Y-52705000D01*
X32588687Y-52871821D01*
X32588686Y-52871824D01*
X32588686Y-52871825D01*
X32585713Y-52881627D01*
X32540023Y-53032244D01*
X32461005Y-53180078D01*
X32354659Y-53309659D01*
X32225078Y-53416005D01*
X32077244Y-53495023D01*
X32077241Y-53495024D01*
X32077239Y-53495025D01*
X31916825Y-53543686D01*
X31916824Y-53543686D01*
X31916821Y-53543687D01*
X31791804Y-53556000D01*
X31708196Y-53556000D01*
X31583179Y-53543687D01*
X31583176Y-53543686D01*
X31583175Y-53543686D01*
X31422761Y-53495025D01*
X31422759Y-53495024D01*
X31422756Y-53495023D01*
X31274922Y-53416005D01*
X31145341Y-53309659D01*
X31038995Y-53180078D01*
X30959977Y-53032244D01*
X30914288Y-52881627D01*
X30911314Y-52871825D01*
X30911314Y-52871824D01*
X30911313Y-52871821D01*
X30894883Y-52705000D01*
X30911313Y-52538179D01*
X30914287Y-52528375D01*
X30959975Y-52377761D01*
X30959976Y-52377759D01*
X30959977Y-52377756D01*
X31038995Y-52229922D01*
X31145341Y-52100341D01*
X31274922Y-51993995D01*
X31422756Y-51914977D01*
X31422759Y-51914976D01*
X31422761Y-51914975D01*
X31583175Y-51866314D01*
X31583176Y-51866314D01*
X31583179Y-51866313D01*
X31708196Y-51854000D01*
X31791804Y-51854000D01*
X31916821Y-51866313D01*
X31916821Y-51866313D01*
G37*
G36*
X9056821Y-51866313D02*
X9056824Y-51866314D01*
X9056825Y-51866314D01*
X9217239Y-51914975D01*
X9217241Y-51914976D01*
X9217244Y-51914977D01*
X9365078Y-51993995D01*
X9494659Y-52100341D01*
X9601005Y-52229922D01*
X9680023Y-52377756D01*
X9680024Y-52377759D01*
X9680025Y-52377761D01*
X9725713Y-52528375D01*
X9728687Y-52538179D01*
X9745117Y-52705000D01*
X9728687Y-52871821D01*
X9728686Y-52871824D01*
X9728686Y-52871825D01*
X9725713Y-52881627D01*
X9680023Y-53032244D01*
X9601005Y-53180078D01*
X9494659Y-53309659D01*
X9365078Y-53416005D01*
X9217244Y-53495023D01*
X9217241Y-53495024D01*
X9217239Y-53495025D01*
X9056825Y-53543686D01*
X9056824Y-53543686D01*
X9056821Y-53543687D01*
X8931804Y-53556000D01*
X8848196Y-53556000D01*
X8723179Y-53543687D01*
X8723176Y-53543686D01*
X8723175Y-53543686D01*
X8562761Y-53495025D01*
X8562759Y-53495024D01*
X8562756Y-53495023D01*
X8414922Y-53416005D01*
X8285341Y-53309659D01*
X8178995Y-53180078D01*
X8099977Y-53032244D01*
X8054288Y-52881627D01*
X8051314Y-52871825D01*
X8051314Y-52871824D01*
X8051313Y-52871821D01*
X8034883Y-52705000D01*
X8051313Y-52538179D01*
X8054287Y-52528375D01*
X8099975Y-52377761D01*
X8099976Y-52377759D01*
X8099977Y-52377756D01*
X8178995Y-52229922D01*
X8285341Y-52100341D01*
X8414922Y-51993995D01*
X8562756Y-51914977D01*
X8562759Y-51914976D01*
X8562761Y-51914975D01*
X8723175Y-51866314D01*
X8723176Y-51866314D01*
X8723179Y-51866313D01*
X8848196Y-51854000D01*
X8931804Y-51854000D01*
X9056821Y-51866313D01*
X9056821Y-51866313D01*
G37*
G36*
X47156821Y-51866313D02*
X47156824Y-51866314D01*
X47156825Y-51866314D01*
X47317239Y-51914975D01*
X47317241Y-51914976D01*
X47317244Y-51914977D01*
X47465078Y-51993995D01*
X47594659Y-52100341D01*
X47701005Y-52229922D01*
X47780023Y-52377756D01*
X47780024Y-52377759D01*
X47780025Y-52377761D01*
X47825713Y-52528375D01*
X47828687Y-52538179D01*
X47845117Y-52705000D01*
X47828687Y-52871821D01*
X47828686Y-52871824D01*
X47828686Y-52871825D01*
X47825713Y-52881627D01*
X47780023Y-53032244D01*
X47701005Y-53180078D01*
X47594659Y-53309659D01*
X47465078Y-53416005D01*
X47317244Y-53495023D01*
X47317241Y-53495024D01*
X47317239Y-53495025D01*
X47156825Y-53543686D01*
X47156824Y-53543686D01*
X47156821Y-53543687D01*
X47031804Y-53556000D01*
X46948196Y-53556000D01*
X46823179Y-53543687D01*
X46823176Y-53543686D01*
X46823175Y-53543686D01*
X46662761Y-53495025D01*
X46662759Y-53495024D01*
X46662756Y-53495023D01*
X46514922Y-53416005D01*
X46385341Y-53309659D01*
X46278995Y-53180078D01*
X46199977Y-53032244D01*
X46154288Y-52881627D01*
X46151314Y-52871825D01*
X46151314Y-52871824D01*
X46151313Y-52871821D01*
X46134883Y-52705000D01*
X46151313Y-52538179D01*
X46154287Y-52528375D01*
X46199975Y-52377761D01*
X46199976Y-52377759D01*
X46199977Y-52377756D01*
X46278995Y-52229922D01*
X46385341Y-52100341D01*
X46514922Y-51993995D01*
X46662756Y-51914977D01*
X46662759Y-51914976D01*
X46662761Y-51914975D01*
X46823175Y-51866314D01*
X46823176Y-51866314D01*
X46823179Y-51866313D01*
X46948196Y-51854000D01*
X47031804Y-51854000D01*
X47156821Y-51866313D01*
X47156821Y-51866313D01*
G37*
G36*
X24296821Y-51866313D02*
X24296824Y-51866314D01*
X24296825Y-51866314D01*
X24457239Y-51914975D01*
X24457241Y-51914976D01*
X24457244Y-51914977D01*
X24605078Y-51993995D01*
X24734659Y-52100341D01*
X24841005Y-52229922D01*
X24920023Y-52377756D01*
X24920024Y-52377759D01*
X24920025Y-52377761D01*
X24965713Y-52528375D01*
X24968687Y-52538179D01*
X24985117Y-52705000D01*
X24968687Y-52871821D01*
X24968686Y-52871824D01*
X24968686Y-52871825D01*
X24965713Y-52881627D01*
X24920023Y-53032244D01*
X24841005Y-53180078D01*
X24734659Y-53309659D01*
X24605078Y-53416005D01*
X24457244Y-53495023D01*
X24457241Y-53495024D01*
X24457239Y-53495025D01*
X24296825Y-53543686D01*
X24296824Y-53543686D01*
X24296821Y-53543687D01*
X24171804Y-53556000D01*
X24088196Y-53556000D01*
X23963179Y-53543687D01*
X23963176Y-53543686D01*
X23963175Y-53543686D01*
X23802761Y-53495025D01*
X23802759Y-53495024D01*
X23802756Y-53495023D01*
X23654922Y-53416005D01*
X23525341Y-53309659D01*
X23418995Y-53180078D01*
X23339977Y-53032244D01*
X23294288Y-52881627D01*
X23291314Y-52871825D01*
X23291314Y-52871824D01*
X23291313Y-52871821D01*
X23274883Y-52705000D01*
X23291313Y-52538179D01*
X23294287Y-52528375D01*
X23339975Y-52377761D01*
X23339976Y-52377759D01*
X23339977Y-52377756D01*
X23418995Y-52229922D01*
X23525341Y-52100341D01*
X23654922Y-51993995D01*
X23802756Y-51914977D01*
X23802759Y-51914976D01*
X23802761Y-51914975D01*
X23963175Y-51866314D01*
X23963176Y-51866314D01*
X23963179Y-51866313D01*
X24088196Y-51854000D01*
X24171804Y-51854000D01*
X24296821Y-51866313D01*
X24296821Y-51866313D01*
G37*
G36*
X84038677Y-51323465D02*
X84076364Y-51334898D01*
X84111103Y-51353466D01*
X84141548Y-51378452D01*
X84166534Y-51408897D01*
X84185102Y-51443636D01*
X84196535Y-51481323D01*
X84201000Y-51526661D01*
X84201000Y-52613339D01*
X84196535Y-52658677D01*
X84185102Y-52696364D01*
X84166534Y-52731103D01*
X84141548Y-52761548D01*
X84111103Y-52786534D01*
X84076364Y-52805102D01*
X84038677Y-52816535D01*
X83993339Y-52821000D01*
X83156661Y-52821000D01*
X83111323Y-52816535D01*
X83073636Y-52805102D01*
X83038897Y-52786534D01*
X83008452Y-52761548D01*
X82983466Y-52731103D01*
X82964898Y-52696364D01*
X82953465Y-52658677D01*
X82949000Y-52613339D01*
X82949000Y-51526661D01*
X82953465Y-51481323D01*
X82964898Y-51443636D01*
X82983466Y-51408897D01*
X83008452Y-51378452D01*
X83038897Y-51353466D01*
X83073636Y-51334898D01*
X83111323Y-51323465D01*
X83156661Y-51319000D01*
X83993339Y-51319000D01*
X84038677Y-51323465D01*
X84038677Y-51323465D01*
G37*
G36*
X81988677Y-51323465D02*
X82026364Y-51334898D01*
X82061103Y-51353466D01*
X82091548Y-51378452D01*
X82116534Y-51408897D01*
X82135102Y-51443636D01*
X82146535Y-51481323D01*
X82151000Y-51526661D01*
X82151000Y-52613339D01*
X82146535Y-52658677D01*
X82135102Y-52696364D01*
X82116534Y-52731103D01*
X82091548Y-52761548D01*
X82061103Y-52786534D01*
X82026364Y-52805102D01*
X81988677Y-52816535D01*
X81943339Y-52821000D01*
X81106661Y-52821000D01*
X81061323Y-52816535D01*
X81023636Y-52805102D01*
X80988897Y-52786534D01*
X80958452Y-52761548D01*
X80933466Y-52731103D01*
X80914898Y-52696364D01*
X80903465Y-52658677D01*
X80899000Y-52613339D01*
X80899000Y-51526661D01*
X80903465Y-51481323D01*
X80914898Y-51443636D01*
X80933466Y-51408897D01*
X80958452Y-51378452D01*
X80988897Y-51353466D01*
X81023636Y-51334898D01*
X81061323Y-51323465D01*
X81106661Y-51319000D01*
X81943339Y-51319000D01*
X81988677Y-51323465D01*
X81988677Y-51323465D01*
G37*
G36*
X79420293Y-39520323D02*
X79427312Y-39522452D01*
X79433775Y-39525907D01*
X79439442Y-39530558D01*
X79444093Y-39536225D01*
X79447548Y-39542688D01*
X79449677Y-39549707D01*
X79451000Y-39563140D01*
X79451000Y-39876860D01*
X79449677Y-39890293D01*
X79447548Y-39897311D01*
X79440189Y-39911080D01*
X79430813Y-39933719D01*
X79426033Y-39957753D01*
X79426034Y-39982257D01*
X79430816Y-40006290D01*
X79440189Y-40028920D01*
X79447548Y-40042689D01*
X79449677Y-40049707D01*
X79451000Y-40063140D01*
X79451000Y-40376860D01*
X79449677Y-40390293D01*
X79447548Y-40397311D01*
X79440189Y-40411080D01*
X79430813Y-40433719D01*
X79426033Y-40457753D01*
X79426034Y-40482257D01*
X79430816Y-40506290D01*
X79440189Y-40528920D01*
X79447548Y-40542689D01*
X79449677Y-40549707D01*
X79451000Y-40563140D01*
X79451000Y-40876860D01*
X79449677Y-40890293D01*
X79447548Y-40897311D01*
X79440189Y-40911080D01*
X79430813Y-40933719D01*
X79426033Y-40957753D01*
X79426034Y-40982257D01*
X79430816Y-41006290D01*
X79440189Y-41028920D01*
X79447548Y-41042689D01*
X79449677Y-41049707D01*
X79451000Y-41063140D01*
X79451000Y-41376860D01*
X79449677Y-41390293D01*
X79447548Y-41397311D01*
X79440189Y-41411080D01*
X79430813Y-41433719D01*
X79426033Y-41457753D01*
X79426034Y-41482257D01*
X79430816Y-41506290D01*
X79440189Y-41528920D01*
X79447548Y-41542689D01*
X79449677Y-41549707D01*
X79451000Y-41563140D01*
X79451000Y-41876860D01*
X79449677Y-41890293D01*
X79447548Y-41897311D01*
X79440189Y-41911080D01*
X79430813Y-41933719D01*
X79426033Y-41957753D01*
X79426034Y-41982257D01*
X79430816Y-42006290D01*
X79440189Y-42028920D01*
X79447548Y-42042689D01*
X79449677Y-42049707D01*
X79451000Y-42063140D01*
X79451000Y-42376860D01*
X79449677Y-42390293D01*
X79447548Y-42397311D01*
X79440189Y-42411080D01*
X79430813Y-42433719D01*
X79426033Y-42457753D01*
X79426034Y-42482257D01*
X79430816Y-42506290D01*
X79440189Y-42528920D01*
X79447548Y-42542689D01*
X79449677Y-42549707D01*
X79451000Y-42563140D01*
X79451000Y-42876860D01*
X79449677Y-42890293D01*
X79447548Y-42897311D01*
X79440189Y-42911080D01*
X79430813Y-42933719D01*
X79426033Y-42957753D01*
X79426034Y-42982257D01*
X79430816Y-43006290D01*
X79440189Y-43028920D01*
X79447548Y-43042689D01*
X79449677Y-43049707D01*
X79451000Y-43063140D01*
X79451000Y-43376860D01*
X79449677Y-43390293D01*
X79447548Y-43397311D01*
X79440189Y-43411080D01*
X79430813Y-43433719D01*
X79426033Y-43457753D01*
X79426034Y-43482257D01*
X79430816Y-43506290D01*
X79440189Y-43528920D01*
X79447548Y-43542689D01*
X79449677Y-43549707D01*
X79451000Y-43563140D01*
X79451000Y-43876860D01*
X79449677Y-43890293D01*
X79447548Y-43897311D01*
X79440189Y-43911080D01*
X79430813Y-43933719D01*
X79426033Y-43957753D01*
X79426034Y-43982257D01*
X79430816Y-44006290D01*
X79440189Y-44028920D01*
X79447548Y-44042689D01*
X79449677Y-44049707D01*
X79451000Y-44063140D01*
X79451000Y-44376860D01*
X79449677Y-44390293D01*
X79447548Y-44397311D01*
X79440189Y-44411080D01*
X79430813Y-44433719D01*
X79426033Y-44457753D01*
X79426034Y-44482257D01*
X79430816Y-44506290D01*
X79440189Y-44528920D01*
X79447548Y-44542689D01*
X79449677Y-44549707D01*
X79451000Y-44563140D01*
X79451000Y-44876860D01*
X79449677Y-44890293D01*
X79447548Y-44897311D01*
X79440189Y-44911080D01*
X79430813Y-44933719D01*
X79426033Y-44957753D01*
X79426034Y-44982257D01*
X79430816Y-45006290D01*
X79440189Y-45028920D01*
X79447548Y-45042689D01*
X79449677Y-45049707D01*
X79451000Y-45063140D01*
X79451000Y-45376860D01*
X79449677Y-45390293D01*
X79447548Y-45397311D01*
X79440189Y-45411080D01*
X79430813Y-45433719D01*
X79426033Y-45457753D01*
X79426034Y-45482257D01*
X79430816Y-45506290D01*
X79440189Y-45528920D01*
X79447548Y-45542689D01*
X79449677Y-45549707D01*
X79451000Y-45563140D01*
X79451000Y-45876860D01*
X79449677Y-45890293D01*
X79447548Y-45897311D01*
X79440189Y-45911080D01*
X79430813Y-45933719D01*
X79426033Y-45957753D01*
X79426034Y-45982257D01*
X79430816Y-46006290D01*
X79440189Y-46028920D01*
X79447548Y-46042689D01*
X79449677Y-46049707D01*
X79451000Y-46063140D01*
X79451000Y-46376860D01*
X79449677Y-46390293D01*
X79447548Y-46397311D01*
X79440189Y-46411080D01*
X79430813Y-46433719D01*
X79426033Y-46457753D01*
X79426034Y-46482257D01*
X79430816Y-46506290D01*
X79440189Y-46528920D01*
X79447548Y-46542689D01*
X79449677Y-46549707D01*
X79451000Y-46563140D01*
X79451000Y-46876860D01*
X79449677Y-46890293D01*
X79447548Y-46897311D01*
X79440189Y-46911080D01*
X79430813Y-46933719D01*
X79426033Y-46957753D01*
X79426034Y-46982257D01*
X79430816Y-47006290D01*
X79440189Y-47028920D01*
X79447548Y-47042689D01*
X79449677Y-47049707D01*
X79451000Y-47063140D01*
X79451000Y-47376860D01*
X79449677Y-47390293D01*
X79447548Y-47397311D01*
X79440189Y-47411080D01*
X79430813Y-47433719D01*
X79426033Y-47457753D01*
X79426034Y-47482257D01*
X79430816Y-47506290D01*
X79440189Y-47528920D01*
X79447548Y-47542689D01*
X79449677Y-47549707D01*
X79451000Y-47563140D01*
X79451000Y-47876860D01*
X79449677Y-47890293D01*
X79447548Y-47897311D01*
X79440189Y-47911080D01*
X79430813Y-47933719D01*
X79426033Y-47957753D01*
X79426034Y-47982257D01*
X79430816Y-48006290D01*
X79440189Y-48028920D01*
X79447548Y-48042689D01*
X79449677Y-48049707D01*
X79451000Y-48063140D01*
X79451000Y-48376860D01*
X79449677Y-48390293D01*
X79447548Y-48397311D01*
X79440189Y-48411080D01*
X79430813Y-48433719D01*
X79426033Y-48457753D01*
X79426034Y-48482257D01*
X79430816Y-48506290D01*
X79440189Y-48528920D01*
X79447548Y-48542689D01*
X79449677Y-48549707D01*
X79451000Y-48563140D01*
X79451000Y-48876860D01*
X79449677Y-48890293D01*
X79447548Y-48897311D01*
X79440189Y-48911080D01*
X79430813Y-48933719D01*
X79426033Y-48957753D01*
X79426034Y-48982257D01*
X79430816Y-49006290D01*
X79440189Y-49028920D01*
X79447548Y-49042689D01*
X79449677Y-49049707D01*
X79451000Y-49063140D01*
X79451000Y-49376860D01*
X79449677Y-49390293D01*
X79447548Y-49397311D01*
X79440189Y-49411080D01*
X79430813Y-49433719D01*
X79426033Y-49457753D01*
X79426034Y-49482257D01*
X79430816Y-49506290D01*
X79440189Y-49528920D01*
X79447548Y-49542689D01*
X79449677Y-49549707D01*
X79451000Y-49563140D01*
X79451000Y-49876860D01*
X79449677Y-49890293D01*
X79447548Y-49897311D01*
X79440189Y-49911080D01*
X79430813Y-49933719D01*
X79426033Y-49957753D01*
X79426034Y-49982257D01*
X79430816Y-50006290D01*
X79440189Y-50028920D01*
X79447548Y-50042689D01*
X79449677Y-50049707D01*
X79451000Y-50063140D01*
X79451000Y-50376860D01*
X79449677Y-50390293D01*
X79447548Y-50397311D01*
X79440189Y-50411080D01*
X79430813Y-50433719D01*
X79426033Y-50457753D01*
X79426034Y-50482257D01*
X79430816Y-50506290D01*
X79440189Y-50528920D01*
X79447548Y-50542689D01*
X79449677Y-50549707D01*
X79451000Y-50563140D01*
X79451000Y-50876860D01*
X79449677Y-50890293D01*
X79447548Y-50897311D01*
X79440189Y-50911080D01*
X79430813Y-50933719D01*
X79426033Y-50957753D01*
X79426034Y-50982257D01*
X79430816Y-51006290D01*
X79440189Y-51028920D01*
X79447548Y-51042689D01*
X79449677Y-51049707D01*
X79451000Y-51063140D01*
X79451000Y-51376860D01*
X79449677Y-51390293D01*
X79447548Y-51397311D01*
X79440189Y-51411080D01*
X79430813Y-51433719D01*
X79426033Y-51457753D01*
X79426034Y-51482257D01*
X79430816Y-51506290D01*
X79440189Y-51528920D01*
X79447548Y-51542689D01*
X79449677Y-51549707D01*
X79451000Y-51563140D01*
X79451000Y-51876860D01*
X79449677Y-51890293D01*
X79447548Y-51897312D01*
X79444093Y-51903775D01*
X79439442Y-51909442D01*
X79433775Y-51914093D01*
X79427312Y-51917548D01*
X79420293Y-51919677D01*
X79406860Y-51921000D01*
X77918140Y-51921000D01*
X77904707Y-51919677D01*
X77897688Y-51917548D01*
X77891225Y-51914093D01*
X77885558Y-51909442D01*
X77880907Y-51903775D01*
X77877452Y-51897312D01*
X77875323Y-51890293D01*
X77874000Y-51876860D01*
X77874000Y-51563140D01*
X77875323Y-51549707D01*
X77877452Y-51542689D01*
X77884811Y-51528920D01*
X77894187Y-51506281D01*
X77898967Y-51482247D01*
X77898966Y-51457743D01*
X77894184Y-51433710D01*
X77884811Y-51411080D01*
X77877452Y-51397311D01*
X77875323Y-51390293D01*
X77874000Y-51376860D01*
X77874000Y-51063140D01*
X77875323Y-51049707D01*
X77877452Y-51042689D01*
X77884811Y-51028920D01*
X77894187Y-51006281D01*
X77898967Y-50982247D01*
X77898966Y-50957743D01*
X77894184Y-50933710D01*
X77884811Y-50911080D01*
X77877452Y-50897311D01*
X77875323Y-50890293D01*
X77874000Y-50876860D01*
X77874000Y-50563140D01*
X77875323Y-50549707D01*
X77877452Y-50542689D01*
X77884811Y-50528920D01*
X77894187Y-50506281D01*
X77898967Y-50482247D01*
X77898966Y-50457743D01*
X77894184Y-50433710D01*
X77884811Y-50411080D01*
X77877452Y-50397311D01*
X77875323Y-50390293D01*
X77874000Y-50376860D01*
X77874000Y-50063140D01*
X77875323Y-50049707D01*
X77877452Y-50042689D01*
X77884811Y-50028920D01*
X77894187Y-50006281D01*
X77898967Y-49982247D01*
X77898966Y-49957743D01*
X77894184Y-49933710D01*
X77884811Y-49911080D01*
X77877452Y-49897311D01*
X77875323Y-49890293D01*
X77874000Y-49876860D01*
X77874000Y-49563140D01*
X77875323Y-49549707D01*
X77877452Y-49542689D01*
X77884811Y-49528920D01*
X77894187Y-49506281D01*
X77898967Y-49482247D01*
X77898966Y-49457743D01*
X77894184Y-49433710D01*
X77884811Y-49411080D01*
X77877452Y-49397311D01*
X77875323Y-49390293D01*
X77874000Y-49376860D01*
X77874000Y-49063140D01*
X77875323Y-49049707D01*
X77877452Y-49042689D01*
X77884811Y-49028920D01*
X77894187Y-49006281D01*
X77898967Y-48982247D01*
X77898966Y-48957743D01*
X77894184Y-48933710D01*
X77884811Y-48911080D01*
X77877452Y-48897311D01*
X77875323Y-48890293D01*
X77874000Y-48876860D01*
X77874000Y-48563140D01*
X77875323Y-48549707D01*
X77877452Y-48542689D01*
X77884811Y-48528920D01*
X77894187Y-48506281D01*
X77898967Y-48482247D01*
X77898966Y-48457743D01*
X77894184Y-48433710D01*
X77884811Y-48411080D01*
X77877452Y-48397311D01*
X77875323Y-48390293D01*
X77874000Y-48376860D01*
X77874000Y-48063140D01*
X77875323Y-48049707D01*
X77877452Y-48042689D01*
X77884811Y-48028920D01*
X77894187Y-48006281D01*
X77898967Y-47982247D01*
X77898966Y-47957743D01*
X77894184Y-47933710D01*
X77884811Y-47911080D01*
X77877452Y-47897311D01*
X77875323Y-47890293D01*
X77874000Y-47876860D01*
X77874000Y-47563140D01*
X77875323Y-47549707D01*
X77877452Y-47542689D01*
X77884811Y-47528920D01*
X77894187Y-47506281D01*
X77898967Y-47482247D01*
X77898966Y-47457743D01*
X77894184Y-47433710D01*
X77884811Y-47411080D01*
X77877452Y-47397311D01*
X77875323Y-47390293D01*
X77874000Y-47376860D01*
X77874000Y-47063140D01*
X77875323Y-47049707D01*
X77877452Y-47042689D01*
X77884811Y-47028920D01*
X77894187Y-47006281D01*
X77898967Y-46982247D01*
X77898966Y-46957743D01*
X77894184Y-46933710D01*
X77884811Y-46911080D01*
X77877452Y-46897311D01*
X77875323Y-46890293D01*
X77874000Y-46876860D01*
X77874000Y-46563140D01*
X77875323Y-46549707D01*
X77877452Y-46542689D01*
X77884811Y-46528920D01*
X77894187Y-46506281D01*
X77898967Y-46482247D01*
X77898966Y-46457743D01*
X77894184Y-46433710D01*
X77884811Y-46411080D01*
X77877452Y-46397311D01*
X77875323Y-46390293D01*
X77874000Y-46376860D01*
X77874000Y-46063140D01*
X77875323Y-46049707D01*
X77877452Y-46042689D01*
X77884811Y-46028920D01*
X77894187Y-46006281D01*
X77898967Y-45982247D01*
X77898966Y-45957743D01*
X77894184Y-45933710D01*
X77884811Y-45911080D01*
X77877452Y-45897311D01*
X77875323Y-45890293D01*
X77874000Y-45876860D01*
X77874000Y-45563140D01*
X77875323Y-45549707D01*
X77877452Y-45542689D01*
X77884811Y-45528920D01*
X77894187Y-45506281D01*
X77898967Y-45482247D01*
X77898966Y-45457743D01*
X77894184Y-45433710D01*
X77884811Y-45411080D01*
X77877452Y-45397311D01*
X77875323Y-45390293D01*
X77874000Y-45376860D01*
X77874000Y-45063140D01*
X77875323Y-45049707D01*
X77877452Y-45042689D01*
X77884811Y-45028920D01*
X77894187Y-45006281D01*
X77898967Y-44982247D01*
X77898966Y-44957743D01*
X77894184Y-44933710D01*
X77884811Y-44911080D01*
X77877452Y-44897311D01*
X77875323Y-44890293D01*
X77874000Y-44876860D01*
X77874000Y-44563140D01*
X77875323Y-44549707D01*
X77877452Y-44542689D01*
X77884811Y-44528920D01*
X77894187Y-44506281D01*
X77898967Y-44482247D01*
X77898966Y-44457743D01*
X77894184Y-44433710D01*
X77884811Y-44411080D01*
X77877452Y-44397311D01*
X77875323Y-44390293D01*
X77874000Y-44376860D01*
X77874000Y-44063140D01*
X77875323Y-44049707D01*
X77877452Y-44042689D01*
X77884811Y-44028920D01*
X77894187Y-44006281D01*
X77898967Y-43982247D01*
X77898966Y-43957743D01*
X77894184Y-43933710D01*
X77884811Y-43911080D01*
X77877452Y-43897311D01*
X77875323Y-43890293D01*
X77874000Y-43876860D01*
X77874000Y-43563140D01*
X77875323Y-43549707D01*
X77877452Y-43542689D01*
X77884811Y-43528920D01*
X77894187Y-43506281D01*
X77898967Y-43482247D01*
X77898966Y-43457743D01*
X77894184Y-43433710D01*
X77884811Y-43411080D01*
X77877452Y-43397311D01*
X77875323Y-43390293D01*
X77874000Y-43376860D01*
X77874000Y-43063140D01*
X77875323Y-43049707D01*
X77877452Y-43042689D01*
X77884811Y-43028920D01*
X77894187Y-43006281D01*
X77898967Y-42982247D01*
X77898966Y-42957743D01*
X77894184Y-42933710D01*
X77884811Y-42911080D01*
X77877452Y-42897311D01*
X77875323Y-42890293D01*
X77874000Y-42876860D01*
X77874000Y-42563140D01*
X77875323Y-42549707D01*
X77877452Y-42542689D01*
X77884811Y-42528920D01*
X77894187Y-42506281D01*
X77898967Y-42482247D01*
X77898966Y-42457743D01*
X77894184Y-42433710D01*
X77884811Y-42411080D01*
X77877452Y-42397311D01*
X77875323Y-42390293D01*
X77874000Y-42376860D01*
X77874000Y-42063140D01*
X77875323Y-42049707D01*
X77877452Y-42042689D01*
X77884811Y-42028920D01*
X77894187Y-42006281D01*
X77898967Y-41982247D01*
X77898966Y-41957743D01*
X77894184Y-41933710D01*
X77884811Y-41911080D01*
X77877452Y-41897311D01*
X77875323Y-41890293D01*
X77874000Y-41876860D01*
X77874000Y-41563140D01*
X77875323Y-41549707D01*
X77877452Y-41542689D01*
X77884811Y-41528920D01*
X77894187Y-41506281D01*
X77898967Y-41482247D01*
X77898966Y-41457743D01*
X77894184Y-41433710D01*
X77884811Y-41411080D01*
X77877452Y-41397311D01*
X77875323Y-41390293D01*
X77874000Y-41376860D01*
X77874000Y-41063140D01*
X77875323Y-41049707D01*
X77877452Y-41042689D01*
X77884811Y-41028920D01*
X77894187Y-41006281D01*
X77898967Y-40982247D01*
X77898966Y-40957743D01*
X77894184Y-40933710D01*
X77884811Y-40911080D01*
X77877452Y-40897311D01*
X77875323Y-40890293D01*
X77874000Y-40876860D01*
X77874000Y-40563140D01*
X77875323Y-40549707D01*
X77877452Y-40542689D01*
X77884811Y-40528920D01*
X77894187Y-40506281D01*
X77898967Y-40482247D01*
X77898966Y-40457743D01*
X77894184Y-40433710D01*
X77884811Y-40411080D01*
X77877452Y-40397311D01*
X77875323Y-40390293D01*
X77874000Y-40376860D01*
X77874000Y-40063140D01*
X77875323Y-40049707D01*
X77877452Y-40042689D01*
X77884811Y-40028920D01*
X77894187Y-40006281D01*
X77898967Y-39982247D01*
X77898966Y-39957743D01*
X77894184Y-39933710D01*
X77884811Y-39911080D01*
X77877452Y-39897311D01*
X77875323Y-39890293D01*
X77874000Y-39876860D01*
X77874000Y-39563140D01*
X77875323Y-39549707D01*
X77877452Y-39542688D01*
X77880907Y-39536225D01*
X77885558Y-39530558D01*
X77891225Y-39525907D01*
X77897688Y-39522452D01*
X77904707Y-39520323D01*
X77918140Y-39519000D01*
X79406860Y-39519000D01*
X79420293Y-39520323D01*
X79420293Y-39520323D01*
G37*
G36*
X64095293Y-39520323D02*
X64102312Y-39522452D01*
X64108775Y-39525907D01*
X64114442Y-39530558D01*
X64119093Y-39536225D01*
X64122548Y-39542688D01*
X64124677Y-39549707D01*
X64126000Y-39563140D01*
X64126000Y-39876860D01*
X64124677Y-39890293D01*
X64122548Y-39897311D01*
X64115189Y-39911080D01*
X64105813Y-39933719D01*
X64101033Y-39957753D01*
X64101034Y-39982257D01*
X64105816Y-40006290D01*
X64115189Y-40028920D01*
X64122548Y-40042689D01*
X64124677Y-40049707D01*
X64126000Y-40063140D01*
X64126000Y-40376860D01*
X64124677Y-40390293D01*
X64122548Y-40397311D01*
X64115189Y-40411080D01*
X64105813Y-40433719D01*
X64101033Y-40457753D01*
X64101034Y-40482257D01*
X64105816Y-40506290D01*
X64115189Y-40528920D01*
X64122548Y-40542689D01*
X64124677Y-40549707D01*
X64126000Y-40563140D01*
X64126000Y-40876860D01*
X64124677Y-40890293D01*
X64122548Y-40897311D01*
X64115189Y-40911080D01*
X64105813Y-40933719D01*
X64101033Y-40957753D01*
X64101034Y-40982257D01*
X64105816Y-41006290D01*
X64115189Y-41028920D01*
X64122548Y-41042689D01*
X64124677Y-41049707D01*
X64126000Y-41063140D01*
X64126000Y-41376860D01*
X64124677Y-41390293D01*
X64122548Y-41397311D01*
X64115189Y-41411080D01*
X64105813Y-41433719D01*
X64101033Y-41457753D01*
X64101034Y-41482257D01*
X64105816Y-41506290D01*
X64115189Y-41528920D01*
X64122548Y-41542689D01*
X64124677Y-41549707D01*
X64126000Y-41563140D01*
X64126000Y-41876860D01*
X64124677Y-41890293D01*
X64122548Y-41897311D01*
X64115189Y-41911080D01*
X64105813Y-41933719D01*
X64101033Y-41957753D01*
X64101034Y-41982257D01*
X64105816Y-42006290D01*
X64115189Y-42028920D01*
X64122548Y-42042689D01*
X64124677Y-42049707D01*
X64126000Y-42063140D01*
X64126000Y-42376860D01*
X64124677Y-42390293D01*
X64122548Y-42397311D01*
X64115189Y-42411080D01*
X64105813Y-42433719D01*
X64101033Y-42457753D01*
X64101034Y-42482257D01*
X64105816Y-42506290D01*
X64115189Y-42528920D01*
X64122548Y-42542689D01*
X64124677Y-42549707D01*
X64126000Y-42563140D01*
X64126000Y-42876860D01*
X64124677Y-42890293D01*
X64122548Y-42897311D01*
X64115189Y-42911080D01*
X64105813Y-42933719D01*
X64101033Y-42957753D01*
X64101034Y-42982257D01*
X64105816Y-43006290D01*
X64115189Y-43028920D01*
X64122548Y-43042689D01*
X64124677Y-43049707D01*
X64126000Y-43063140D01*
X64126000Y-43376860D01*
X64124677Y-43390293D01*
X64122548Y-43397311D01*
X64115189Y-43411080D01*
X64105813Y-43433719D01*
X64101033Y-43457753D01*
X64101034Y-43482257D01*
X64105816Y-43506290D01*
X64115189Y-43528920D01*
X64122548Y-43542689D01*
X64124677Y-43549707D01*
X64126000Y-43563140D01*
X64126000Y-43876860D01*
X64124677Y-43890293D01*
X64122548Y-43897311D01*
X64115189Y-43911080D01*
X64105813Y-43933719D01*
X64101033Y-43957753D01*
X64101034Y-43982257D01*
X64105816Y-44006290D01*
X64115189Y-44028920D01*
X64122548Y-44042689D01*
X64124677Y-44049707D01*
X64126000Y-44063140D01*
X64126000Y-44376860D01*
X64124677Y-44390293D01*
X64122548Y-44397311D01*
X64115189Y-44411080D01*
X64105813Y-44433719D01*
X64101033Y-44457753D01*
X64101034Y-44482257D01*
X64105816Y-44506290D01*
X64115189Y-44528920D01*
X64122548Y-44542689D01*
X64124677Y-44549707D01*
X64126000Y-44563140D01*
X64126000Y-44876860D01*
X64124677Y-44890293D01*
X64122548Y-44897311D01*
X64115189Y-44911080D01*
X64105813Y-44933719D01*
X64101033Y-44957753D01*
X64101034Y-44982257D01*
X64105816Y-45006290D01*
X64115189Y-45028920D01*
X64122548Y-45042689D01*
X64124677Y-45049707D01*
X64126000Y-45063140D01*
X64126000Y-45376860D01*
X64124677Y-45390293D01*
X64122548Y-45397311D01*
X64115189Y-45411080D01*
X64105813Y-45433719D01*
X64101033Y-45457753D01*
X64101034Y-45482257D01*
X64105816Y-45506290D01*
X64115189Y-45528920D01*
X64122548Y-45542689D01*
X64124677Y-45549707D01*
X64126000Y-45563140D01*
X64126000Y-45876860D01*
X64124677Y-45890293D01*
X64122548Y-45897311D01*
X64115189Y-45911080D01*
X64105813Y-45933719D01*
X64101033Y-45957753D01*
X64101034Y-45982257D01*
X64105816Y-46006290D01*
X64115189Y-46028920D01*
X64122548Y-46042689D01*
X64124677Y-46049707D01*
X64126000Y-46063140D01*
X64126000Y-46376860D01*
X64124677Y-46390293D01*
X64122548Y-46397311D01*
X64115189Y-46411080D01*
X64105813Y-46433719D01*
X64101033Y-46457753D01*
X64101034Y-46482257D01*
X64105816Y-46506290D01*
X64115189Y-46528920D01*
X64122548Y-46542689D01*
X64124677Y-46549707D01*
X64126000Y-46563140D01*
X64126000Y-46876860D01*
X64124677Y-46890293D01*
X64122548Y-46897311D01*
X64115189Y-46911080D01*
X64105813Y-46933719D01*
X64101033Y-46957753D01*
X64101034Y-46982257D01*
X64105816Y-47006290D01*
X64115189Y-47028920D01*
X64122548Y-47042689D01*
X64124677Y-47049707D01*
X64126000Y-47063140D01*
X64126000Y-47376860D01*
X64124677Y-47390293D01*
X64122548Y-47397311D01*
X64115189Y-47411080D01*
X64105813Y-47433719D01*
X64101033Y-47457753D01*
X64101034Y-47482257D01*
X64105816Y-47506290D01*
X64115189Y-47528920D01*
X64122548Y-47542689D01*
X64124677Y-47549707D01*
X64126000Y-47563140D01*
X64126000Y-47876860D01*
X64124677Y-47890293D01*
X64122548Y-47897311D01*
X64115189Y-47911080D01*
X64105813Y-47933719D01*
X64101033Y-47957753D01*
X64101034Y-47982257D01*
X64105816Y-48006290D01*
X64115189Y-48028920D01*
X64122548Y-48042689D01*
X64124677Y-48049707D01*
X64126000Y-48063140D01*
X64126000Y-48376860D01*
X64124677Y-48390293D01*
X64122548Y-48397311D01*
X64115189Y-48411080D01*
X64105813Y-48433719D01*
X64101033Y-48457753D01*
X64101034Y-48482257D01*
X64105816Y-48506290D01*
X64115189Y-48528920D01*
X64122548Y-48542689D01*
X64124677Y-48549707D01*
X64126000Y-48563140D01*
X64126000Y-48876860D01*
X64124677Y-48890293D01*
X64122548Y-48897311D01*
X64115189Y-48911080D01*
X64105813Y-48933719D01*
X64101033Y-48957753D01*
X64101034Y-48982257D01*
X64105816Y-49006290D01*
X64115189Y-49028920D01*
X64122548Y-49042689D01*
X64124677Y-49049707D01*
X64126000Y-49063140D01*
X64126000Y-49376860D01*
X64124677Y-49390293D01*
X64122548Y-49397311D01*
X64115189Y-49411080D01*
X64105813Y-49433719D01*
X64101033Y-49457753D01*
X64101034Y-49482257D01*
X64105816Y-49506290D01*
X64115189Y-49528920D01*
X64122548Y-49542689D01*
X64124677Y-49549707D01*
X64126000Y-49563140D01*
X64126000Y-49876860D01*
X64124677Y-49890293D01*
X64122548Y-49897311D01*
X64115189Y-49911080D01*
X64105813Y-49933719D01*
X64101033Y-49957753D01*
X64101034Y-49982257D01*
X64105816Y-50006290D01*
X64115189Y-50028920D01*
X64122548Y-50042689D01*
X64124677Y-50049707D01*
X64126000Y-50063140D01*
X64126000Y-50376860D01*
X64124677Y-50390293D01*
X64122548Y-50397311D01*
X64115189Y-50411080D01*
X64105813Y-50433719D01*
X64101033Y-50457753D01*
X64101034Y-50482257D01*
X64105816Y-50506290D01*
X64115189Y-50528920D01*
X64122548Y-50542689D01*
X64124677Y-50549707D01*
X64126000Y-50563140D01*
X64126000Y-50876860D01*
X64124677Y-50890293D01*
X64122548Y-50897311D01*
X64115189Y-50911080D01*
X64105813Y-50933719D01*
X64101033Y-50957753D01*
X64101034Y-50982257D01*
X64105816Y-51006290D01*
X64115189Y-51028920D01*
X64122548Y-51042689D01*
X64124677Y-51049707D01*
X64126000Y-51063140D01*
X64126000Y-51376860D01*
X64124677Y-51390293D01*
X64122548Y-51397311D01*
X64115189Y-51411080D01*
X64105813Y-51433719D01*
X64101033Y-51457753D01*
X64101034Y-51482257D01*
X64105816Y-51506290D01*
X64115189Y-51528920D01*
X64122548Y-51542689D01*
X64124677Y-51549707D01*
X64126000Y-51563140D01*
X64126000Y-51876860D01*
X64124677Y-51890293D01*
X64122548Y-51897312D01*
X64119093Y-51903775D01*
X64114442Y-51909442D01*
X64108775Y-51914093D01*
X64102312Y-51917548D01*
X64095293Y-51919677D01*
X64081860Y-51921000D01*
X62593140Y-51921000D01*
X62579707Y-51919677D01*
X62572688Y-51917548D01*
X62566225Y-51914093D01*
X62560558Y-51909442D01*
X62555907Y-51903775D01*
X62552452Y-51897312D01*
X62550323Y-51890293D01*
X62549000Y-51876860D01*
X62549000Y-51563140D01*
X62550323Y-51549707D01*
X62552452Y-51542689D01*
X62559811Y-51528920D01*
X62569187Y-51506281D01*
X62573967Y-51482247D01*
X62573966Y-51457743D01*
X62569184Y-51433710D01*
X62559811Y-51411080D01*
X62552452Y-51397311D01*
X62550323Y-51390293D01*
X62549000Y-51376860D01*
X62549000Y-51063140D01*
X62550323Y-51049707D01*
X62552452Y-51042689D01*
X62559811Y-51028920D01*
X62569187Y-51006281D01*
X62573967Y-50982247D01*
X62573966Y-50957743D01*
X62569184Y-50933710D01*
X62559811Y-50911080D01*
X62552452Y-50897311D01*
X62550323Y-50890293D01*
X62549000Y-50876860D01*
X62549000Y-50563140D01*
X62550323Y-50549707D01*
X62552452Y-50542689D01*
X62559811Y-50528920D01*
X62569187Y-50506281D01*
X62573967Y-50482247D01*
X62573966Y-50457743D01*
X62569184Y-50433710D01*
X62559811Y-50411080D01*
X62552452Y-50397311D01*
X62550323Y-50390293D01*
X62549000Y-50376860D01*
X62549000Y-50063140D01*
X62550323Y-50049707D01*
X62552452Y-50042689D01*
X62559811Y-50028920D01*
X62569187Y-50006281D01*
X62573967Y-49982247D01*
X62573966Y-49957743D01*
X62569184Y-49933710D01*
X62559811Y-49911080D01*
X62552452Y-49897311D01*
X62550323Y-49890293D01*
X62549000Y-49876860D01*
X62549000Y-49563140D01*
X62550323Y-49549707D01*
X62552452Y-49542689D01*
X62559811Y-49528920D01*
X62569187Y-49506281D01*
X62573967Y-49482247D01*
X62573966Y-49457743D01*
X62569184Y-49433710D01*
X62559811Y-49411080D01*
X62552452Y-49397311D01*
X62550323Y-49390293D01*
X62549000Y-49376860D01*
X62549000Y-49063140D01*
X62550323Y-49049707D01*
X62552452Y-49042689D01*
X62559811Y-49028920D01*
X62569187Y-49006281D01*
X62573967Y-48982247D01*
X62573966Y-48957743D01*
X62569184Y-48933710D01*
X62559811Y-48911080D01*
X62552452Y-48897311D01*
X62550323Y-48890293D01*
X62549000Y-48876860D01*
X62549000Y-48563140D01*
X62550323Y-48549707D01*
X62552452Y-48542689D01*
X62559811Y-48528920D01*
X62569187Y-48506281D01*
X62573967Y-48482247D01*
X62573966Y-48457743D01*
X62569184Y-48433710D01*
X62559811Y-48411080D01*
X62552452Y-48397311D01*
X62550323Y-48390293D01*
X62549000Y-48376860D01*
X62549000Y-48063140D01*
X62550323Y-48049707D01*
X62552452Y-48042689D01*
X62559811Y-48028920D01*
X62569187Y-48006281D01*
X62573967Y-47982247D01*
X62573966Y-47957743D01*
X62569184Y-47933710D01*
X62559811Y-47911080D01*
X62552452Y-47897311D01*
X62550323Y-47890293D01*
X62549000Y-47876860D01*
X62549000Y-47563140D01*
X62550323Y-47549707D01*
X62552452Y-47542689D01*
X62559811Y-47528920D01*
X62569187Y-47506281D01*
X62573967Y-47482247D01*
X62573966Y-47457743D01*
X62569184Y-47433710D01*
X62559811Y-47411080D01*
X62552452Y-47397311D01*
X62550323Y-47390293D01*
X62549000Y-47376860D01*
X62549000Y-47063140D01*
X62550323Y-47049707D01*
X62552452Y-47042689D01*
X62559811Y-47028920D01*
X62569187Y-47006281D01*
X62573967Y-46982247D01*
X62573966Y-46957743D01*
X62569184Y-46933710D01*
X62559811Y-46911080D01*
X62552452Y-46897311D01*
X62550323Y-46890293D01*
X62549000Y-46876860D01*
X62549000Y-46563140D01*
X62550323Y-46549707D01*
X62552452Y-46542689D01*
X62559811Y-46528920D01*
X62569187Y-46506281D01*
X62573967Y-46482247D01*
X62573966Y-46457743D01*
X62569184Y-46433710D01*
X62559811Y-46411080D01*
X62552452Y-46397311D01*
X62550323Y-46390293D01*
X62549000Y-46376860D01*
X62549000Y-46063140D01*
X62550323Y-46049707D01*
X62552452Y-46042689D01*
X62559811Y-46028920D01*
X62569187Y-46006281D01*
X62573967Y-45982247D01*
X62573966Y-45957743D01*
X62569184Y-45933710D01*
X62559811Y-45911080D01*
X62552452Y-45897311D01*
X62550323Y-45890293D01*
X62549000Y-45876860D01*
X62549000Y-45563140D01*
X62550323Y-45549707D01*
X62552452Y-45542689D01*
X62559811Y-45528920D01*
X62569187Y-45506281D01*
X62573967Y-45482247D01*
X62573966Y-45457743D01*
X62569184Y-45433710D01*
X62559811Y-45411080D01*
X62552452Y-45397311D01*
X62550323Y-45390293D01*
X62549000Y-45376860D01*
X62549000Y-45063140D01*
X62550323Y-45049707D01*
X62552452Y-45042689D01*
X62559811Y-45028920D01*
X62569187Y-45006281D01*
X62573967Y-44982247D01*
X62573966Y-44957743D01*
X62569184Y-44933710D01*
X62559811Y-44911080D01*
X62552452Y-44897311D01*
X62550323Y-44890293D01*
X62549000Y-44876860D01*
X62549000Y-44563140D01*
X62550323Y-44549707D01*
X62552452Y-44542689D01*
X62559811Y-44528920D01*
X62569187Y-44506281D01*
X62573967Y-44482247D01*
X62573966Y-44457743D01*
X62569184Y-44433710D01*
X62559811Y-44411080D01*
X62552452Y-44397311D01*
X62550323Y-44390293D01*
X62549000Y-44376860D01*
X62549000Y-44063140D01*
X62550323Y-44049707D01*
X62552452Y-44042689D01*
X62559811Y-44028920D01*
X62569187Y-44006281D01*
X62573967Y-43982247D01*
X62573966Y-43957743D01*
X62569184Y-43933710D01*
X62559811Y-43911080D01*
X62552452Y-43897311D01*
X62550323Y-43890293D01*
X62549000Y-43876860D01*
X62549000Y-43563140D01*
X62550323Y-43549707D01*
X62552452Y-43542689D01*
X62559811Y-43528920D01*
X62569187Y-43506281D01*
X62573967Y-43482247D01*
X62573966Y-43457743D01*
X62569184Y-43433710D01*
X62559811Y-43411080D01*
X62552452Y-43397311D01*
X62550323Y-43390293D01*
X62549000Y-43376860D01*
X62549000Y-43063140D01*
X62550323Y-43049707D01*
X62552452Y-43042689D01*
X62559811Y-43028920D01*
X62569187Y-43006281D01*
X62573967Y-42982247D01*
X62573966Y-42957743D01*
X62569184Y-42933710D01*
X62559811Y-42911080D01*
X62552452Y-42897311D01*
X62550323Y-42890293D01*
X62549000Y-42876860D01*
X62549000Y-42563140D01*
X62550323Y-42549707D01*
X62552452Y-42542689D01*
X62559811Y-42528920D01*
X62569187Y-42506281D01*
X62573967Y-42482247D01*
X62573966Y-42457743D01*
X62569184Y-42433710D01*
X62559811Y-42411080D01*
X62552452Y-42397311D01*
X62550323Y-42390293D01*
X62549000Y-42376860D01*
X62549000Y-42063140D01*
X62550323Y-42049707D01*
X62552452Y-42042689D01*
X62559811Y-42028920D01*
X62569187Y-42006281D01*
X62573967Y-41982247D01*
X62573966Y-41957743D01*
X62569184Y-41933710D01*
X62559811Y-41911080D01*
X62552452Y-41897311D01*
X62550323Y-41890293D01*
X62549000Y-41876860D01*
X62549000Y-41563140D01*
X62550323Y-41549707D01*
X62552452Y-41542689D01*
X62559811Y-41528920D01*
X62569187Y-41506281D01*
X62573967Y-41482247D01*
X62573966Y-41457743D01*
X62569184Y-41433710D01*
X62559811Y-41411080D01*
X62552452Y-41397311D01*
X62550323Y-41390293D01*
X62549000Y-41376860D01*
X62549000Y-41063140D01*
X62550323Y-41049707D01*
X62552452Y-41042689D01*
X62559811Y-41028920D01*
X62569187Y-41006281D01*
X62573967Y-40982247D01*
X62573966Y-40957743D01*
X62569184Y-40933710D01*
X62559811Y-40911080D01*
X62552452Y-40897311D01*
X62550323Y-40890293D01*
X62549000Y-40876860D01*
X62549000Y-40563140D01*
X62550323Y-40549707D01*
X62552452Y-40542689D01*
X62559811Y-40528920D01*
X62569187Y-40506281D01*
X62573967Y-40482247D01*
X62573966Y-40457743D01*
X62569184Y-40433710D01*
X62559811Y-40411080D01*
X62552452Y-40397311D01*
X62550323Y-40390293D01*
X62549000Y-40376860D01*
X62549000Y-40063140D01*
X62550323Y-40049707D01*
X62552452Y-40042689D01*
X62559811Y-40028920D01*
X62569187Y-40006281D01*
X62573967Y-39982247D01*
X62573966Y-39957743D01*
X62569184Y-39933710D01*
X62559811Y-39911080D01*
X62552452Y-39897311D01*
X62550323Y-39890293D01*
X62549000Y-39876860D01*
X62549000Y-39563140D01*
X62550323Y-39549707D01*
X62552452Y-39542688D01*
X62555907Y-39536225D01*
X62560558Y-39530558D01*
X62566225Y-39525907D01*
X62572688Y-39522452D01*
X62579707Y-39520323D01*
X62593140Y-39519000D01*
X64081860Y-39519000D01*
X64095293Y-39520323D01*
X64095293Y-39520323D01*
G37*
G36*
X54085443Y-49270519D02*
X54151627Y-49277037D01*
X54264853Y-49311384D01*
X54321467Y-49328557D01*
X54408311Y-49374977D01*
X54477991Y-49412222D01*
X54504174Y-49433710D01*
X54615186Y-49524814D01*
X54688378Y-49614000D01*
X54727778Y-49662009D01*
X54727779Y-49662011D01*
X54811443Y-49818533D01*
X54817987Y-49840107D01*
X54862963Y-49988373D01*
X54880359Y-50165000D01*
X54862963Y-50341627D01*
X54837370Y-50425995D01*
X54811443Y-50511467D01*
X54753697Y-50619500D01*
X54727778Y-50667991D01*
X54705756Y-50694825D01*
X54615186Y-50805186D01*
X54513729Y-50888448D01*
X54477991Y-50917778D01*
X54477989Y-50917779D01*
X54321467Y-51001443D01*
X54305488Y-51006290D01*
X54151627Y-51052963D01*
X54085443Y-51059481D01*
X54019260Y-51066000D01*
X53930740Y-51066000D01*
X53864557Y-51059481D01*
X53798373Y-51052963D01*
X53644512Y-51006290D01*
X53628533Y-51001443D01*
X53472011Y-50917779D01*
X53472009Y-50917778D01*
X53436271Y-50888448D01*
X53334814Y-50805186D01*
X53244244Y-50694825D01*
X53222222Y-50667991D01*
X53196303Y-50619500D01*
X53138557Y-50511467D01*
X53112630Y-50425995D01*
X53087037Y-50341627D01*
X53069641Y-50165000D01*
X53087037Y-49988373D01*
X53132013Y-49840107D01*
X53138557Y-49818533D01*
X53222221Y-49662011D01*
X53222222Y-49662009D01*
X53261622Y-49614000D01*
X53334814Y-49524814D01*
X53445826Y-49433710D01*
X53472009Y-49412222D01*
X53541689Y-49374977D01*
X53628533Y-49328557D01*
X53685147Y-49311384D01*
X53798373Y-49277037D01*
X53864558Y-49270518D01*
X53930740Y-49264000D01*
X54019260Y-49264000D01*
X54085443Y-49270519D01*
X54085443Y-49270519D01*
G37*
G36*
X31916821Y-49326313D02*
X31916824Y-49326314D01*
X31916825Y-49326314D01*
X32077239Y-49374975D01*
X32077241Y-49374976D01*
X32077244Y-49374977D01*
X32225078Y-49453995D01*
X32354659Y-49560341D01*
X32461005Y-49689922D01*
X32540023Y-49837756D01*
X32540024Y-49837759D01*
X32540025Y-49837761D01*
X32585713Y-49988375D01*
X32588687Y-49998179D01*
X32605117Y-50165000D01*
X32588687Y-50331821D01*
X32588686Y-50331824D01*
X32588686Y-50331825D01*
X32557777Y-50433719D01*
X32540023Y-50492244D01*
X32461005Y-50640078D01*
X32354659Y-50769659D01*
X32225078Y-50876005D01*
X32077244Y-50955023D01*
X32077241Y-50955024D01*
X32077239Y-50955025D01*
X31916825Y-51003686D01*
X31916824Y-51003686D01*
X31916821Y-51003687D01*
X31791804Y-51016000D01*
X31708196Y-51016000D01*
X31583179Y-51003687D01*
X31583176Y-51003686D01*
X31583175Y-51003686D01*
X31422761Y-50955025D01*
X31422759Y-50955024D01*
X31422756Y-50955023D01*
X31274922Y-50876005D01*
X31145341Y-50769659D01*
X31038995Y-50640078D01*
X30959977Y-50492244D01*
X30942224Y-50433719D01*
X30911314Y-50331825D01*
X30911314Y-50331824D01*
X30911313Y-50331821D01*
X30894883Y-50165000D01*
X30911313Y-49998179D01*
X30914287Y-49988375D01*
X30959975Y-49837761D01*
X30959976Y-49837759D01*
X30959977Y-49837756D01*
X31038995Y-49689922D01*
X31145341Y-49560341D01*
X31274922Y-49453995D01*
X31422756Y-49374977D01*
X31422759Y-49374976D01*
X31422761Y-49374975D01*
X31583175Y-49326314D01*
X31583176Y-49326314D01*
X31583179Y-49326313D01*
X31708196Y-49314000D01*
X31791804Y-49314000D01*
X31916821Y-49326313D01*
X31916821Y-49326313D01*
G37*
G36*
X47156821Y-49326313D02*
X47156824Y-49326314D01*
X47156825Y-49326314D01*
X47317239Y-49374975D01*
X47317241Y-49374976D01*
X47317244Y-49374977D01*
X47465078Y-49453995D01*
X47594659Y-49560341D01*
X47701005Y-49689922D01*
X47780023Y-49837756D01*
X47780024Y-49837759D01*
X47780025Y-49837761D01*
X47825713Y-49988375D01*
X47828687Y-49998179D01*
X47845117Y-50165000D01*
X47828687Y-50331821D01*
X47828686Y-50331824D01*
X47828686Y-50331825D01*
X47797777Y-50433719D01*
X47780023Y-50492244D01*
X47701005Y-50640078D01*
X47594659Y-50769659D01*
X47465078Y-50876005D01*
X47317244Y-50955023D01*
X47317241Y-50955024D01*
X47317239Y-50955025D01*
X47156825Y-51003686D01*
X47156824Y-51003686D01*
X47156821Y-51003687D01*
X47031804Y-51016000D01*
X46948196Y-51016000D01*
X46823179Y-51003687D01*
X46823176Y-51003686D01*
X46823175Y-51003686D01*
X46662761Y-50955025D01*
X46662759Y-50955024D01*
X46662756Y-50955023D01*
X46514922Y-50876005D01*
X46385341Y-50769659D01*
X46278995Y-50640078D01*
X46199977Y-50492244D01*
X46182224Y-50433719D01*
X46151314Y-50331825D01*
X46151314Y-50331824D01*
X46151313Y-50331821D01*
X46134883Y-50165000D01*
X46151313Y-49998179D01*
X46154287Y-49988375D01*
X46199975Y-49837761D01*
X46199976Y-49837759D01*
X46199977Y-49837756D01*
X46278995Y-49689922D01*
X46385341Y-49560341D01*
X46514922Y-49453995D01*
X46662756Y-49374977D01*
X46662759Y-49374976D01*
X46662761Y-49374975D01*
X46823175Y-49326314D01*
X46823176Y-49326314D01*
X46823179Y-49326313D01*
X46948196Y-49314000D01*
X47031804Y-49314000D01*
X47156821Y-49326313D01*
X47156821Y-49326313D01*
G37*
G36*
X9056821Y-49326313D02*
X9056824Y-49326314D01*
X9056825Y-49326314D01*
X9217239Y-49374975D01*
X9217241Y-49374976D01*
X9217244Y-49374977D01*
X9365078Y-49453995D01*
X9494659Y-49560341D01*
X9601005Y-49689922D01*
X9680023Y-49837756D01*
X9680024Y-49837759D01*
X9680025Y-49837761D01*
X9725713Y-49988375D01*
X9728687Y-49998179D01*
X9745117Y-50165000D01*
X9728687Y-50331821D01*
X9728686Y-50331824D01*
X9728686Y-50331825D01*
X9697777Y-50433719D01*
X9680023Y-50492244D01*
X9601005Y-50640078D01*
X9494659Y-50769659D01*
X9365078Y-50876005D01*
X9217244Y-50955023D01*
X9217241Y-50955024D01*
X9217239Y-50955025D01*
X9056825Y-51003686D01*
X9056824Y-51003686D01*
X9056821Y-51003687D01*
X8931804Y-51016000D01*
X8848196Y-51016000D01*
X8723179Y-51003687D01*
X8723176Y-51003686D01*
X8723175Y-51003686D01*
X8562761Y-50955025D01*
X8562759Y-50955024D01*
X8562756Y-50955023D01*
X8414922Y-50876005D01*
X8285341Y-50769659D01*
X8178995Y-50640078D01*
X8099977Y-50492244D01*
X8082224Y-50433719D01*
X8051314Y-50331825D01*
X8051314Y-50331824D01*
X8051313Y-50331821D01*
X8034883Y-50165000D01*
X8051313Y-49998179D01*
X8054287Y-49988375D01*
X8099975Y-49837761D01*
X8099976Y-49837759D01*
X8099977Y-49837756D01*
X8178995Y-49689922D01*
X8285341Y-49560341D01*
X8414922Y-49453995D01*
X8562756Y-49374977D01*
X8562759Y-49374976D01*
X8562761Y-49374975D01*
X8723175Y-49326314D01*
X8723176Y-49326314D01*
X8723179Y-49326313D01*
X8848196Y-49314000D01*
X8931804Y-49314000D01*
X9056821Y-49326313D01*
X9056821Y-49326313D01*
G37*
G36*
X24296821Y-49326313D02*
X24296824Y-49326314D01*
X24296825Y-49326314D01*
X24457239Y-49374975D01*
X24457241Y-49374976D01*
X24457244Y-49374977D01*
X24605078Y-49453995D01*
X24734659Y-49560341D01*
X24841005Y-49689922D01*
X24920023Y-49837756D01*
X24920024Y-49837759D01*
X24920025Y-49837761D01*
X24965713Y-49988375D01*
X24968687Y-49998179D01*
X24985117Y-50165000D01*
X24968687Y-50331821D01*
X24968686Y-50331824D01*
X24968686Y-50331825D01*
X24937777Y-50433719D01*
X24920023Y-50492244D01*
X24841005Y-50640078D01*
X24734659Y-50769659D01*
X24605078Y-50876005D01*
X24457244Y-50955023D01*
X24457241Y-50955024D01*
X24457239Y-50955025D01*
X24296825Y-51003686D01*
X24296824Y-51003686D01*
X24296821Y-51003687D01*
X24171804Y-51016000D01*
X24088196Y-51016000D01*
X23963179Y-51003687D01*
X23963176Y-51003686D01*
X23963175Y-51003686D01*
X23802761Y-50955025D01*
X23802759Y-50955024D01*
X23802756Y-50955023D01*
X23654922Y-50876005D01*
X23525341Y-50769659D01*
X23418995Y-50640078D01*
X23339977Y-50492244D01*
X23322224Y-50433719D01*
X23291314Y-50331825D01*
X23291314Y-50331824D01*
X23291313Y-50331821D01*
X23274883Y-50165000D01*
X23291313Y-49998179D01*
X23294287Y-49988375D01*
X23339975Y-49837761D01*
X23339976Y-49837759D01*
X23339977Y-49837756D01*
X23418995Y-49689922D01*
X23525341Y-49560341D01*
X23654922Y-49453995D01*
X23802756Y-49374977D01*
X23802759Y-49374976D01*
X23802761Y-49374975D01*
X23963175Y-49326314D01*
X23963176Y-49326314D01*
X23963179Y-49326313D01*
X24088196Y-49314000D01*
X24171804Y-49314000D01*
X24296821Y-49326313D01*
X24296821Y-49326313D01*
G37*
G36*
X81440721Y-49635174D02*
X81540995Y-49676709D01*
X81631245Y-49737012D01*
X81707988Y-49813755D01*
X81768291Y-49904005D01*
X81809826Y-50004279D01*
X81831000Y-50110730D01*
X81831000Y-50219270D01*
X81809826Y-50325721D01*
X81768291Y-50425995D01*
X81707988Y-50516245D01*
X81631245Y-50592988D01*
X81540995Y-50653291D01*
X81440721Y-50694826D01*
X81334270Y-50716000D01*
X81225730Y-50716000D01*
X81119279Y-50694826D01*
X81019005Y-50653291D01*
X80928755Y-50592988D01*
X80852012Y-50516245D01*
X80791709Y-50425995D01*
X80750174Y-50325721D01*
X80729000Y-50219270D01*
X80729000Y-50110730D01*
X80750174Y-50004279D01*
X80791709Y-49904005D01*
X80852012Y-49813755D01*
X80928755Y-49737012D01*
X81019005Y-49676709D01*
X81119279Y-49635174D01*
X81225730Y-49614000D01*
X81334270Y-49614000D01*
X81440721Y-49635174D01*
X81440721Y-49635174D01*
G37*
G36*
X81440721Y-47735174D02*
X81540995Y-47776709D01*
X81631245Y-47837012D01*
X81707988Y-47913755D01*
X81768291Y-48004005D01*
X81809826Y-48104279D01*
X81831000Y-48210730D01*
X81831000Y-48319270D01*
X81809826Y-48425721D01*
X81768291Y-48525995D01*
X81707988Y-48616245D01*
X81631245Y-48692988D01*
X81540995Y-48753291D01*
X81440721Y-48794826D01*
X81334270Y-48816000D01*
X81225730Y-48816000D01*
X81119279Y-48794826D01*
X81019005Y-48753291D01*
X80928755Y-48692988D01*
X80852012Y-48616245D01*
X80791709Y-48525995D01*
X80750174Y-48425721D01*
X80729000Y-48319270D01*
X80729000Y-48210730D01*
X80750174Y-48104279D01*
X80791709Y-48004005D01*
X80852012Y-47913755D01*
X80928755Y-47837012D01*
X81019005Y-47776709D01*
X81119279Y-47735174D01*
X81225730Y-47714000D01*
X81334270Y-47714000D01*
X81440721Y-47735174D01*
X81440721Y-47735174D01*
G37*
G36*
X54876000Y-48526000D02*
X53074000Y-48526000D01*
X53074000Y-46724000D01*
X54876000Y-46724000D01*
X54876000Y-48526000D01*
X54876000Y-48526000D01*
G37*
G36*
X9056821Y-46786313D02*
X9056824Y-46786314D01*
X9056825Y-46786314D01*
X9217239Y-46834975D01*
X9217241Y-46834976D01*
X9217244Y-46834977D01*
X9365078Y-46913995D01*
X9494659Y-47020341D01*
X9601005Y-47149922D01*
X9680023Y-47297756D01*
X9680024Y-47297759D01*
X9680025Y-47297761D01*
X9721267Y-47433719D01*
X9728687Y-47458179D01*
X9745117Y-47625000D01*
X9728687Y-47791821D01*
X9728686Y-47791824D01*
X9728686Y-47791825D01*
X9685646Y-47933710D01*
X9680023Y-47952244D01*
X9601005Y-48100078D01*
X9494659Y-48229659D01*
X9365078Y-48336005D01*
X9217244Y-48415023D01*
X9217241Y-48415024D01*
X9217239Y-48415025D01*
X9056825Y-48463686D01*
X9056824Y-48463686D01*
X9056821Y-48463687D01*
X8931804Y-48476000D01*
X8848196Y-48476000D01*
X8723179Y-48463687D01*
X8723176Y-48463686D01*
X8723175Y-48463686D01*
X8562761Y-48415025D01*
X8562759Y-48415024D01*
X8562756Y-48415023D01*
X8414922Y-48336005D01*
X8285341Y-48229659D01*
X8178995Y-48100078D01*
X8099977Y-47952244D01*
X8094355Y-47933710D01*
X8051314Y-47791825D01*
X8051314Y-47791824D01*
X8051313Y-47791821D01*
X8034883Y-47625000D01*
X8051313Y-47458179D01*
X8058733Y-47433719D01*
X8099975Y-47297761D01*
X8099976Y-47297759D01*
X8099977Y-47297756D01*
X8178995Y-47149922D01*
X8285341Y-47020341D01*
X8414922Y-46913995D01*
X8562756Y-46834977D01*
X8562759Y-46834976D01*
X8562761Y-46834975D01*
X8723175Y-46786314D01*
X8723176Y-46786314D01*
X8723179Y-46786313D01*
X8848196Y-46774000D01*
X8931804Y-46774000D01*
X9056821Y-46786313D01*
X9056821Y-46786313D01*
G37*
G36*
X24296821Y-46786313D02*
X24296824Y-46786314D01*
X24296825Y-46786314D01*
X24457239Y-46834975D01*
X24457241Y-46834976D01*
X24457244Y-46834977D01*
X24605078Y-46913995D01*
X24734659Y-47020341D01*
X24841005Y-47149922D01*
X24920023Y-47297756D01*
X24920024Y-47297759D01*
X24920025Y-47297761D01*
X24961267Y-47433719D01*
X24968687Y-47458179D01*
X24985117Y-47625000D01*
X24968687Y-47791821D01*
X24968686Y-47791824D01*
X24968686Y-47791825D01*
X24925646Y-47933710D01*
X24920023Y-47952244D01*
X24841005Y-48100078D01*
X24734659Y-48229659D01*
X24605078Y-48336005D01*
X24457244Y-48415023D01*
X24457241Y-48415024D01*
X24457239Y-48415025D01*
X24296825Y-48463686D01*
X24296824Y-48463686D01*
X24296821Y-48463687D01*
X24171804Y-48476000D01*
X24088196Y-48476000D01*
X23963179Y-48463687D01*
X23963176Y-48463686D01*
X23963175Y-48463686D01*
X23802761Y-48415025D01*
X23802759Y-48415024D01*
X23802756Y-48415023D01*
X23654922Y-48336005D01*
X23525341Y-48229659D01*
X23418995Y-48100078D01*
X23339977Y-47952244D01*
X23334355Y-47933710D01*
X23291314Y-47791825D01*
X23291314Y-47791824D01*
X23291313Y-47791821D01*
X23274883Y-47625000D01*
X23291313Y-47458179D01*
X23298733Y-47433719D01*
X23339975Y-47297761D01*
X23339976Y-47297759D01*
X23339977Y-47297756D01*
X23418995Y-47149922D01*
X23525341Y-47020341D01*
X23654922Y-46913995D01*
X23802756Y-46834977D01*
X23802759Y-46834976D01*
X23802761Y-46834975D01*
X23963175Y-46786314D01*
X23963176Y-46786314D01*
X23963179Y-46786313D01*
X24088196Y-46774000D01*
X24171804Y-46774000D01*
X24296821Y-46786313D01*
X24296821Y-46786313D01*
G37*
G36*
X31916821Y-46786313D02*
X31916824Y-46786314D01*
X31916825Y-46786314D01*
X32077239Y-46834975D01*
X32077241Y-46834976D01*
X32077244Y-46834977D01*
X32225078Y-46913995D01*
X32354659Y-47020341D01*
X32461005Y-47149922D01*
X32540023Y-47297756D01*
X32540024Y-47297759D01*
X32540025Y-47297761D01*
X32581267Y-47433719D01*
X32588687Y-47458179D01*
X32605117Y-47625000D01*
X32588687Y-47791821D01*
X32588686Y-47791824D01*
X32588686Y-47791825D01*
X32545646Y-47933710D01*
X32540023Y-47952244D01*
X32461005Y-48100078D01*
X32354659Y-48229659D01*
X32225078Y-48336005D01*
X32077244Y-48415023D01*
X32077241Y-48415024D01*
X32077239Y-48415025D01*
X31916825Y-48463686D01*
X31916824Y-48463686D01*
X31916821Y-48463687D01*
X31791804Y-48476000D01*
X31708196Y-48476000D01*
X31583179Y-48463687D01*
X31583176Y-48463686D01*
X31583175Y-48463686D01*
X31422761Y-48415025D01*
X31422759Y-48415024D01*
X31422756Y-48415023D01*
X31274922Y-48336005D01*
X31145341Y-48229659D01*
X31038995Y-48100078D01*
X30959977Y-47952244D01*
X30954355Y-47933710D01*
X30911314Y-47791825D01*
X30911314Y-47791824D01*
X30911313Y-47791821D01*
X30894883Y-47625000D01*
X30911313Y-47458179D01*
X30918733Y-47433719D01*
X30959975Y-47297761D01*
X30959976Y-47297759D01*
X30959977Y-47297756D01*
X31038995Y-47149922D01*
X31145341Y-47020341D01*
X31274922Y-46913995D01*
X31422756Y-46834977D01*
X31422759Y-46834976D01*
X31422761Y-46834975D01*
X31583175Y-46786314D01*
X31583176Y-46786314D01*
X31583179Y-46786313D01*
X31708196Y-46774000D01*
X31791804Y-46774000D01*
X31916821Y-46786313D01*
X31916821Y-46786313D01*
G37*
G36*
X47156821Y-46786313D02*
X47156824Y-46786314D01*
X47156825Y-46786314D01*
X47317239Y-46834975D01*
X47317241Y-46834976D01*
X47317244Y-46834977D01*
X47465078Y-46913995D01*
X47594659Y-47020341D01*
X47701005Y-47149922D01*
X47780023Y-47297756D01*
X47780024Y-47297759D01*
X47780025Y-47297761D01*
X47821267Y-47433719D01*
X47828687Y-47458179D01*
X47845117Y-47625000D01*
X47828687Y-47791821D01*
X47828686Y-47791824D01*
X47828686Y-47791825D01*
X47785646Y-47933710D01*
X47780023Y-47952244D01*
X47701005Y-48100078D01*
X47594659Y-48229659D01*
X47465078Y-48336005D01*
X47317244Y-48415023D01*
X47317241Y-48415024D01*
X47317239Y-48415025D01*
X47156825Y-48463686D01*
X47156824Y-48463686D01*
X47156821Y-48463687D01*
X47031804Y-48476000D01*
X46948196Y-48476000D01*
X46823179Y-48463687D01*
X46823176Y-48463686D01*
X46823175Y-48463686D01*
X46662761Y-48415025D01*
X46662759Y-48415024D01*
X46662756Y-48415023D01*
X46514922Y-48336005D01*
X46385341Y-48229659D01*
X46278995Y-48100078D01*
X46199977Y-47952244D01*
X46194355Y-47933710D01*
X46151314Y-47791825D01*
X46151314Y-47791824D01*
X46151313Y-47791821D01*
X46134883Y-47625000D01*
X46151313Y-47458179D01*
X46158733Y-47433719D01*
X46199975Y-47297761D01*
X46199976Y-47297759D01*
X46199977Y-47297756D01*
X46278995Y-47149922D01*
X46385341Y-47020341D01*
X46514922Y-46913995D01*
X46662756Y-46834977D01*
X46662759Y-46834976D01*
X46662761Y-46834975D01*
X46823175Y-46786314D01*
X46823176Y-46786314D01*
X46823179Y-46786313D01*
X46948196Y-46774000D01*
X47031804Y-46774000D01*
X47156821Y-46786313D01*
X47156821Y-46786313D01*
G37*
G36*
X81988677Y-45608465D02*
X82026364Y-45619898D01*
X82061103Y-45638466D01*
X82091548Y-45663452D01*
X82116534Y-45693897D01*
X82135102Y-45728636D01*
X82146535Y-45766323D01*
X82151000Y-45811661D01*
X82151000Y-46898339D01*
X82146535Y-46943677D01*
X82135102Y-46981364D01*
X82116534Y-47016103D01*
X82091548Y-47046548D01*
X82061103Y-47071534D01*
X82026364Y-47090102D01*
X81988677Y-47101535D01*
X81943339Y-47106000D01*
X81106661Y-47106000D01*
X81061323Y-47101535D01*
X81023636Y-47090102D01*
X80988897Y-47071534D01*
X80958452Y-47046548D01*
X80933466Y-47016103D01*
X80914898Y-46981364D01*
X80903465Y-46943677D01*
X80899000Y-46898339D01*
X80899000Y-45811661D01*
X80903465Y-45766323D01*
X80914898Y-45728636D01*
X80933466Y-45693897D01*
X80958452Y-45663452D01*
X80988897Y-45638466D01*
X81023636Y-45619898D01*
X81061323Y-45608465D01*
X81106661Y-45604000D01*
X81943339Y-45604000D01*
X81988677Y-45608465D01*
X81988677Y-45608465D01*
G37*
G36*
X84038677Y-45608465D02*
X84076364Y-45619898D01*
X84111103Y-45638466D01*
X84141548Y-45663452D01*
X84166534Y-45693897D01*
X84185102Y-45728636D01*
X84196535Y-45766323D01*
X84201000Y-45811661D01*
X84201000Y-46898339D01*
X84196535Y-46943677D01*
X84185102Y-46981364D01*
X84166534Y-47016103D01*
X84141548Y-47046548D01*
X84111103Y-47071534D01*
X84076364Y-47090102D01*
X84038677Y-47101535D01*
X83993339Y-47106000D01*
X83156661Y-47106000D01*
X83111323Y-47101535D01*
X83073636Y-47090102D01*
X83038897Y-47071534D01*
X83008452Y-47046548D01*
X82983466Y-47016103D01*
X82964898Y-46981364D01*
X82953465Y-46943677D01*
X82949000Y-46898339D01*
X82949000Y-45811661D01*
X82953465Y-45766323D01*
X82964898Y-45728636D01*
X82983466Y-45693897D01*
X83008452Y-45663452D01*
X83038897Y-45638466D01*
X83073636Y-45619898D01*
X83111323Y-45608465D01*
X83156661Y-45604000D01*
X83993339Y-45604000D01*
X84038677Y-45608465D01*
X84038677Y-45608465D01*
G37*
G36*
X47156821Y-44246313D02*
X47156824Y-44246314D01*
X47156825Y-44246314D01*
X47317239Y-44294975D01*
X47317241Y-44294976D01*
X47317244Y-44294977D01*
X47465078Y-44373995D01*
X47594659Y-44480341D01*
X47701005Y-44609922D01*
X47780023Y-44757756D01*
X47780024Y-44757759D01*
X47780025Y-44757761D01*
X47822357Y-44897311D01*
X47828687Y-44918179D01*
X47845117Y-45085000D01*
X47828687Y-45251821D01*
X47828686Y-45251824D01*
X47828686Y-45251825D01*
X47780377Y-45411080D01*
X47780023Y-45412244D01*
X47701005Y-45560078D01*
X47594659Y-45689659D01*
X47465078Y-45796005D01*
X47317244Y-45875023D01*
X47317241Y-45875024D01*
X47317239Y-45875025D01*
X47156825Y-45923686D01*
X47156824Y-45923686D01*
X47156821Y-45923687D01*
X47031804Y-45936000D01*
X46948196Y-45936000D01*
X46823179Y-45923687D01*
X46823176Y-45923686D01*
X46823175Y-45923686D01*
X46662761Y-45875025D01*
X46662759Y-45875024D01*
X46662756Y-45875023D01*
X46514922Y-45796005D01*
X46385341Y-45689659D01*
X46278995Y-45560078D01*
X46199977Y-45412244D01*
X46199624Y-45411080D01*
X46151314Y-45251825D01*
X46151314Y-45251824D01*
X46151313Y-45251821D01*
X46134883Y-45085000D01*
X46151313Y-44918179D01*
X46157643Y-44897311D01*
X46199975Y-44757761D01*
X46199976Y-44757759D01*
X46199977Y-44757756D01*
X46278995Y-44609922D01*
X46385341Y-44480341D01*
X46514922Y-44373995D01*
X46662756Y-44294977D01*
X46662759Y-44294976D01*
X46662761Y-44294975D01*
X46823175Y-44246314D01*
X46823176Y-44246314D01*
X46823179Y-44246313D01*
X46948196Y-44234000D01*
X47031804Y-44234000D01*
X47156821Y-44246313D01*
X47156821Y-44246313D01*
G37*
G36*
X31916821Y-44246313D02*
X31916824Y-44246314D01*
X31916825Y-44246314D01*
X32077239Y-44294975D01*
X32077241Y-44294976D01*
X32077244Y-44294977D01*
X32225078Y-44373995D01*
X32354659Y-44480341D01*
X32461005Y-44609922D01*
X32540023Y-44757756D01*
X32540024Y-44757759D01*
X32540025Y-44757761D01*
X32582357Y-44897311D01*
X32588687Y-44918179D01*
X32605117Y-45085000D01*
X32588687Y-45251821D01*
X32588686Y-45251824D01*
X32588686Y-45251825D01*
X32540377Y-45411080D01*
X32540023Y-45412244D01*
X32461005Y-45560078D01*
X32354659Y-45689659D01*
X32225078Y-45796005D01*
X32077244Y-45875023D01*
X32077241Y-45875024D01*
X32077239Y-45875025D01*
X31916825Y-45923686D01*
X31916824Y-45923686D01*
X31916821Y-45923687D01*
X31791804Y-45936000D01*
X31708196Y-45936000D01*
X31583179Y-45923687D01*
X31583176Y-45923686D01*
X31583175Y-45923686D01*
X31422761Y-45875025D01*
X31422759Y-45875024D01*
X31422756Y-45875023D01*
X31274922Y-45796005D01*
X31145341Y-45689659D01*
X31038995Y-45560078D01*
X30959977Y-45412244D01*
X30959624Y-45411080D01*
X30911314Y-45251825D01*
X30911314Y-45251824D01*
X30911313Y-45251821D01*
X30894883Y-45085000D01*
X30911313Y-44918179D01*
X30917643Y-44897311D01*
X30959975Y-44757761D01*
X30959976Y-44757759D01*
X30959977Y-44757756D01*
X31038995Y-44609922D01*
X31145341Y-44480341D01*
X31274922Y-44373995D01*
X31422756Y-44294977D01*
X31422759Y-44294976D01*
X31422761Y-44294975D01*
X31583175Y-44246314D01*
X31583176Y-44246314D01*
X31583179Y-44246313D01*
X31708196Y-44234000D01*
X31791804Y-44234000D01*
X31916821Y-44246313D01*
X31916821Y-44246313D01*
G37*
G36*
X24296821Y-44246313D02*
X24296824Y-44246314D01*
X24296825Y-44246314D01*
X24457239Y-44294975D01*
X24457241Y-44294976D01*
X24457244Y-44294977D01*
X24605078Y-44373995D01*
X24734659Y-44480341D01*
X24841005Y-44609922D01*
X24920023Y-44757756D01*
X24920024Y-44757759D01*
X24920025Y-44757761D01*
X24962357Y-44897311D01*
X24968687Y-44918179D01*
X24985117Y-45085000D01*
X24968687Y-45251821D01*
X24968686Y-45251824D01*
X24968686Y-45251825D01*
X24920377Y-45411080D01*
X24920023Y-45412244D01*
X24841005Y-45560078D01*
X24734659Y-45689659D01*
X24605078Y-45796005D01*
X24457244Y-45875023D01*
X24457241Y-45875024D01*
X24457239Y-45875025D01*
X24296825Y-45923686D01*
X24296824Y-45923686D01*
X24296821Y-45923687D01*
X24171804Y-45936000D01*
X24088196Y-45936000D01*
X23963179Y-45923687D01*
X23963176Y-45923686D01*
X23963175Y-45923686D01*
X23802761Y-45875025D01*
X23802759Y-45875024D01*
X23802756Y-45875023D01*
X23654922Y-45796005D01*
X23525341Y-45689659D01*
X23418995Y-45560078D01*
X23339977Y-45412244D01*
X23339624Y-45411080D01*
X23291314Y-45251825D01*
X23291314Y-45251824D01*
X23291313Y-45251821D01*
X23274883Y-45085000D01*
X23291313Y-44918179D01*
X23297643Y-44897311D01*
X23339975Y-44757761D01*
X23339976Y-44757759D01*
X23339977Y-44757756D01*
X23418995Y-44609922D01*
X23525341Y-44480341D01*
X23654922Y-44373995D01*
X23802756Y-44294977D01*
X23802759Y-44294976D01*
X23802761Y-44294975D01*
X23963175Y-44246314D01*
X23963176Y-44246314D01*
X23963179Y-44246313D01*
X24088196Y-44234000D01*
X24171804Y-44234000D01*
X24296821Y-44246313D01*
X24296821Y-44246313D01*
G37*
G36*
X9056821Y-44246313D02*
X9056824Y-44246314D01*
X9056825Y-44246314D01*
X9217239Y-44294975D01*
X9217241Y-44294976D01*
X9217244Y-44294977D01*
X9365078Y-44373995D01*
X9494659Y-44480341D01*
X9601005Y-44609922D01*
X9680023Y-44757756D01*
X9680024Y-44757759D01*
X9680025Y-44757761D01*
X9722357Y-44897311D01*
X9728687Y-44918179D01*
X9745117Y-45085000D01*
X9728687Y-45251821D01*
X9728686Y-45251824D01*
X9728686Y-45251825D01*
X9680377Y-45411080D01*
X9680023Y-45412244D01*
X9601005Y-45560078D01*
X9494659Y-45689659D01*
X9365078Y-45796005D01*
X9217244Y-45875023D01*
X9217241Y-45875024D01*
X9217239Y-45875025D01*
X9056825Y-45923686D01*
X9056824Y-45923686D01*
X9056821Y-45923687D01*
X8931804Y-45936000D01*
X8848196Y-45936000D01*
X8723179Y-45923687D01*
X8723176Y-45923686D01*
X8723175Y-45923686D01*
X8562761Y-45875025D01*
X8562759Y-45875024D01*
X8562756Y-45875023D01*
X8414922Y-45796005D01*
X8285341Y-45689659D01*
X8178995Y-45560078D01*
X8099977Y-45412244D01*
X8099624Y-45411080D01*
X8051314Y-45251825D01*
X8051314Y-45251824D01*
X8051313Y-45251821D01*
X8034883Y-45085000D01*
X8051313Y-44918179D01*
X8057643Y-44897311D01*
X8099975Y-44757761D01*
X8099976Y-44757759D01*
X8099977Y-44757756D01*
X8178995Y-44609922D01*
X8285341Y-44480341D01*
X8414922Y-44373995D01*
X8562756Y-44294977D01*
X8562759Y-44294976D01*
X8562761Y-44294975D01*
X8723175Y-44246314D01*
X8723176Y-44246314D01*
X8723179Y-44246313D01*
X8848196Y-44234000D01*
X8931804Y-44234000D01*
X9056821Y-44246313D01*
X9056821Y-44246313D01*
G37*
G36*
X31916821Y-41706313D02*
X31916824Y-41706314D01*
X31916825Y-41706314D01*
X32077239Y-41754975D01*
X32077241Y-41754976D01*
X32077244Y-41754977D01*
X32225078Y-41833995D01*
X32354659Y-41940341D01*
X32461005Y-42069922D01*
X32540023Y-42217756D01*
X32588687Y-42378179D01*
X32605117Y-42545000D01*
X32588687Y-42711821D01*
X32588686Y-42711824D01*
X32588686Y-42711825D01*
X32555720Y-42820500D01*
X32540023Y-42872244D01*
X32461005Y-43020078D01*
X32354659Y-43149659D01*
X32225078Y-43256005D01*
X32077244Y-43335023D01*
X32077241Y-43335024D01*
X32077239Y-43335025D01*
X31916825Y-43383686D01*
X31916824Y-43383686D01*
X31916821Y-43383687D01*
X31791804Y-43396000D01*
X31708196Y-43396000D01*
X31583179Y-43383687D01*
X31583176Y-43383686D01*
X31583175Y-43383686D01*
X31422761Y-43335025D01*
X31422759Y-43335024D01*
X31422756Y-43335023D01*
X31274922Y-43256005D01*
X31145341Y-43149659D01*
X31038995Y-43020078D01*
X30959977Y-42872244D01*
X30944281Y-42820500D01*
X30911314Y-42711825D01*
X30911314Y-42711824D01*
X30911313Y-42711821D01*
X30894883Y-42545000D01*
X30911313Y-42378179D01*
X30959977Y-42217756D01*
X31038995Y-42069922D01*
X31145341Y-41940341D01*
X31274922Y-41833995D01*
X31422756Y-41754977D01*
X31422759Y-41754976D01*
X31422761Y-41754975D01*
X31583175Y-41706314D01*
X31583176Y-41706314D01*
X31583179Y-41706313D01*
X31708196Y-41694000D01*
X31791804Y-41694000D01*
X31916821Y-41706313D01*
X31916821Y-41706313D01*
G37*
G36*
X47156821Y-41706313D02*
X47156824Y-41706314D01*
X47156825Y-41706314D01*
X47317239Y-41754975D01*
X47317241Y-41754976D01*
X47317244Y-41754977D01*
X47465078Y-41833995D01*
X47594659Y-41940341D01*
X47701005Y-42069922D01*
X47780023Y-42217756D01*
X47828687Y-42378179D01*
X47845117Y-42545000D01*
X47828687Y-42711821D01*
X47828686Y-42711824D01*
X47828686Y-42711825D01*
X47795720Y-42820500D01*
X47780023Y-42872244D01*
X47701005Y-43020078D01*
X47594659Y-43149659D01*
X47465078Y-43256005D01*
X47317244Y-43335023D01*
X47317241Y-43335024D01*
X47317239Y-43335025D01*
X47156825Y-43383686D01*
X47156824Y-43383686D01*
X47156821Y-43383687D01*
X47031804Y-43396000D01*
X46948196Y-43396000D01*
X46823179Y-43383687D01*
X46823176Y-43383686D01*
X46823175Y-43383686D01*
X46662761Y-43335025D01*
X46662759Y-43335024D01*
X46662756Y-43335023D01*
X46514922Y-43256005D01*
X46385341Y-43149659D01*
X46278995Y-43020078D01*
X46199977Y-42872244D01*
X46184281Y-42820500D01*
X46151314Y-42711825D01*
X46151314Y-42711824D01*
X46151313Y-42711821D01*
X46134883Y-42545000D01*
X46151313Y-42378179D01*
X46199977Y-42217756D01*
X46278995Y-42069922D01*
X46385341Y-41940341D01*
X46514922Y-41833995D01*
X46662756Y-41754977D01*
X46662759Y-41754976D01*
X46662761Y-41754975D01*
X46823175Y-41706314D01*
X46823176Y-41706314D01*
X46823179Y-41706313D01*
X46948196Y-41694000D01*
X47031804Y-41694000D01*
X47156821Y-41706313D01*
X47156821Y-41706313D01*
G37*
G36*
X9056821Y-41706313D02*
X9056824Y-41706314D01*
X9056825Y-41706314D01*
X9217239Y-41754975D01*
X9217241Y-41754976D01*
X9217244Y-41754977D01*
X9365078Y-41833995D01*
X9494659Y-41940341D01*
X9601005Y-42069922D01*
X9680023Y-42217756D01*
X9728687Y-42378179D01*
X9745117Y-42545000D01*
X9728687Y-42711821D01*
X9728686Y-42711824D01*
X9728686Y-42711825D01*
X9695720Y-42820500D01*
X9680023Y-42872244D01*
X9601005Y-43020078D01*
X9494659Y-43149659D01*
X9365078Y-43256005D01*
X9217244Y-43335023D01*
X9217241Y-43335024D01*
X9217239Y-43335025D01*
X9056825Y-43383686D01*
X9056824Y-43383686D01*
X9056821Y-43383687D01*
X8931804Y-43396000D01*
X8848196Y-43396000D01*
X8723179Y-43383687D01*
X8723176Y-43383686D01*
X8723175Y-43383686D01*
X8562761Y-43335025D01*
X8562759Y-43335024D01*
X8562756Y-43335023D01*
X8414922Y-43256005D01*
X8285341Y-43149659D01*
X8178995Y-43020078D01*
X8099977Y-42872244D01*
X8084281Y-42820500D01*
X8051314Y-42711825D01*
X8051314Y-42711824D01*
X8051313Y-42711821D01*
X8034883Y-42545000D01*
X8051313Y-42378179D01*
X8099977Y-42217756D01*
X8178995Y-42069922D01*
X8285341Y-41940341D01*
X8414922Y-41833995D01*
X8562756Y-41754977D01*
X8562759Y-41754976D01*
X8562761Y-41754975D01*
X8723175Y-41706314D01*
X8723176Y-41706314D01*
X8723179Y-41706313D01*
X8848196Y-41694000D01*
X8931804Y-41694000D01*
X9056821Y-41706313D01*
X9056821Y-41706313D01*
G37*
G36*
X24296821Y-41706313D02*
X24296824Y-41706314D01*
X24296825Y-41706314D01*
X24457239Y-41754975D01*
X24457241Y-41754976D01*
X24457244Y-41754977D01*
X24605078Y-41833995D01*
X24734659Y-41940341D01*
X24841005Y-42069922D01*
X24920023Y-42217756D01*
X24968687Y-42378179D01*
X24985117Y-42545000D01*
X24968687Y-42711821D01*
X24968686Y-42711824D01*
X24968686Y-42711825D01*
X24935720Y-42820500D01*
X24920023Y-42872244D01*
X24841005Y-43020078D01*
X24734659Y-43149659D01*
X24605078Y-43256005D01*
X24457244Y-43335023D01*
X24457241Y-43335024D01*
X24457239Y-43335025D01*
X24296825Y-43383686D01*
X24296824Y-43383686D01*
X24296821Y-43383687D01*
X24171804Y-43396000D01*
X24088196Y-43396000D01*
X23963179Y-43383687D01*
X23963176Y-43383686D01*
X23963175Y-43383686D01*
X23802761Y-43335025D01*
X23802759Y-43335024D01*
X23802756Y-43335023D01*
X23654922Y-43256005D01*
X23525341Y-43149659D01*
X23418995Y-43020078D01*
X23339977Y-42872244D01*
X23324281Y-42820500D01*
X23291314Y-42711825D01*
X23291314Y-42711824D01*
X23291313Y-42711821D01*
X23274883Y-42545000D01*
X23291313Y-42378179D01*
X23339977Y-42217756D01*
X23418995Y-42069922D01*
X23525341Y-41940341D01*
X23654922Y-41833995D01*
X23802756Y-41754977D01*
X23802759Y-41754976D01*
X23802761Y-41754975D01*
X23963175Y-41706314D01*
X23963176Y-41706314D01*
X23963179Y-41706313D01*
X24088196Y-41694000D01*
X24171804Y-41694000D01*
X24296821Y-41706313D01*
X24296821Y-41706313D01*
G37*
G36*
X54085442Y-41015518D02*
X54151627Y-41022037D01*
X54238653Y-41048436D01*
X54321467Y-41073557D01*
X54335466Y-41081040D01*
X54477991Y-41157222D01*
X54513729Y-41186552D01*
X54615186Y-41269814D01*
X54672873Y-41340107D01*
X54727778Y-41407009D01*
X54727779Y-41407011D01*
X54811443Y-41563533D01*
X54822472Y-41599893D01*
X54862963Y-41733373D01*
X54880359Y-41910000D01*
X54862963Y-42086627D01*
X54852991Y-42119500D01*
X54811443Y-42256467D01*
X54747371Y-42376335D01*
X54727778Y-42412991D01*
X54721205Y-42421000D01*
X54615186Y-42550186D01*
X54530725Y-42619500D01*
X54477991Y-42662778D01*
X54477989Y-42662779D01*
X54321467Y-42746443D01*
X54264853Y-42763616D01*
X54151627Y-42797963D01*
X54085443Y-42804481D01*
X54019260Y-42811000D01*
X53930740Y-42811000D01*
X53864557Y-42804481D01*
X53798373Y-42797963D01*
X53685147Y-42763616D01*
X53628533Y-42746443D01*
X53472011Y-42662779D01*
X53472009Y-42662778D01*
X53419275Y-42619500D01*
X53334814Y-42550186D01*
X53228795Y-42421000D01*
X53222222Y-42412991D01*
X53202629Y-42376335D01*
X53138557Y-42256467D01*
X53097009Y-42119500D01*
X53087037Y-42086627D01*
X53069641Y-41910000D01*
X53087037Y-41733373D01*
X53127528Y-41599893D01*
X53138557Y-41563533D01*
X53222221Y-41407011D01*
X53222222Y-41407009D01*
X53277127Y-41340107D01*
X53334814Y-41269814D01*
X53436271Y-41186552D01*
X53472009Y-41157222D01*
X53614534Y-41081040D01*
X53628533Y-41073557D01*
X53711347Y-41048436D01*
X53798373Y-41022037D01*
X53864558Y-41015518D01*
X53930740Y-41009000D01*
X54019260Y-41009000D01*
X54085442Y-41015518D01*
X54085442Y-41015518D01*
G37*
G36*
X31916821Y-39166313D02*
X31916824Y-39166314D01*
X31916825Y-39166314D01*
X32077239Y-39214975D01*
X32077241Y-39214976D01*
X32077244Y-39214977D01*
X32225078Y-39293995D01*
X32354659Y-39400341D01*
X32461005Y-39529922D01*
X32540023Y-39677756D01*
X32588687Y-39838179D01*
X32605117Y-40005000D01*
X32588687Y-40171821D01*
X32588686Y-40171824D01*
X32588686Y-40171825D01*
X32558602Y-40271000D01*
X32540023Y-40332244D01*
X32461005Y-40480078D01*
X32354659Y-40609659D01*
X32225078Y-40716005D01*
X32077244Y-40795023D01*
X32077241Y-40795024D01*
X32077239Y-40795025D01*
X31916825Y-40843686D01*
X31916824Y-40843686D01*
X31916821Y-40843687D01*
X31791804Y-40856000D01*
X31708196Y-40856000D01*
X31583179Y-40843687D01*
X31583176Y-40843686D01*
X31583175Y-40843686D01*
X31422761Y-40795025D01*
X31422759Y-40795024D01*
X31422756Y-40795023D01*
X31274922Y-40716005D01*
X31145341Y-40609659D01*
X31038995Y-40480078D01*
X30959977Y-40332244D01*
X30941399Y-40271000D01*
X30911314Y-40171825D01*
X30911314Y-40171824D01*
X30911313Y-40171821D01*
X30894883Y-40005000D01*
X30911313Y-39838179D01*
X30959977Y-39677756D01*
X31038995Y-39529922D01*
X31145341Y-39400341D01*
X31274922Y-39293995D01*
X31422756Y-39214977D01*
X31422759Y-39214976D01*
X31422761Y-39214975D01*
X31583175Y-39166314D01*
X31583176Y-39166314D01*
X31583179Y-39166313D01*
X31708196Y-39154000D01*
X31791804Y-39154000D01*
X31916821Y-39166313D01*
X31916821Y-39166313D01*
G37*
G36*
X47156821Y-39166313D02*
X47156824Y-39166314D01*
X47156825Y-39166314D01*
X47317239Y-39214975D01*
X47317241Y-39214976D01*
X47317244Y-39214977D01*
X47465078Y-39293995D01*
X47594659Y-39400341D01*
X47701005Y-39529922D01*
X47780023Y-39677756D01*
X47828687Y-39838179D01*
X47845117Y-40005000D01*
X47828687Y-40171821D01*
X47828686Y-40171824D01*
X47828686Y-40171825D01*
X47798602Y-40271000D01*
X47780023Y-40332244D01*
X47701005Y-40480078D01*
X47594659Y-40609659D01*
X47465078Y-40716005D01*
X47317244Y-40795023D01*
X47317241Y-40795024D01*
X47317239Y-40795025D01*
X47156825Y-40843686D01*
X47156824Y-40843686D01*
X47156821Y-40843687D01*
X47031804Y-40856000D01*
X46948196Y-40856000D01*
X46823179Y-40843687D01*
X46823176Y-40843686D01*
X46823175Y-40843686D01*
X46662761Y-40795025D01*
X46662759Y-40795024D01*
X46662756Y-40795023D01*
X46514922Y-40716005D01*
X46385341Y-40609659D01*
X46278995Y-40480078D01*
X46199977Y-40332244D01*
X46181399Y-40271000D01*
X46151314Y-40171825D01*
X46151314Y-40171824D01*
X46151313Y-40171821D01*
X46134883Y-40005000D01*
X46151313Y-39838179D01*
X46199977Y-39677756D01*
X46278995Y-39529922D01*
X46385341Y-39400341D01*
X46514922Y-39293995D01*
X46662756Y-39214977D01*
X46662759Y-39214976D01*
X46662761Y-39214975D01*
X46823175Y-39166314D01*
X46823176Y-39166314D01*
X46823179Y-39166313D01*
X46948196Y-39154000D01*
X47031804Y-39154000D01*
X47156821Y-39166313D01*
X47156821Y-39166313D01*
G37*
G36*
X24296821Y-39166313D02*
X24296824Y-39166314D01*
X24296825Y-39166314D01*
X24457239Y-39214975D01*
X24457241Y-39214976D01*
X24457244Y-39214977D01*
X24605078Y-39293995D01*
X24734659Y-39400341D01*
X24841005Y-39529922D01*
X24920023Y-39677756D01*
X24968687Y-39838179D01*
X24985117Y-40005000D01*
X24968687Y-40171821D01*
X24968686Y-40171824D01*
X24968686Y-40171825D01*
X24938602Y-40271000D01*
X24920023Y-40332244D01*
X24841005Y-40480078D01*
X24734659Y-40609659D01*
X24605078Y-40716005D01*
X24457244Y-40795023D01*
X24457241Y-40795024D01*
X24457239Y-40795025D01*
X24296825Y-40843686D01*
X24296824Y-40843686D01*
X24296821Y-40843687D01*
X24171804Y-40856000D01*
X24088196Y-40856000D01*
X23963179Y-40843687D01*
X23963176Y-40843686D01*
X23963175Y-40843686D01*
X23802761Y-40795025D01*
X23802759Y-40795024D01*
X23802756Y-40795023D01*
X23654922Y-40716005D01*
X23525341Y-40609659D01*
X23418995Y-40480078D01*
X23339977Y-40332244D01*
X23321399Y-40271000D01*
X23291314Y-40171825D01*
X23291314Y-40171824D01*
X23291313Y-40171821D01*
X23274883Y-40005000D01*
X23291313Y-39838179D01*
X23339977Y-39677756D01*
X23418995Y-39529922D01*
X23525341Y-39400341D01*
X23654922Y-39293995D01*
X23802756Y-39214977D01*
X23802759Y-39214976D01*
X23802761Y-39214975D01*
X23963175Y-39166314D01*
X23963176Y-39166314D01*
X23963179Y-39166313D01*
X24088196Y-39154000D01*
X24171804Y-39154000D01*
X24296821Y-39166313D01*
X24296821Y-39166313D01*
G37*
G36*
X9056821Y-39166313D02*
X9056824Y-39166314D01*
X9056825Y-39166314D01*
X9217239Y-39214975D01*
X9217241Y-39214976D01*
X9217244Y-39214977D01*
X9365078Y-39293995D01*
X9494659Y-39400341D01*
X9601005Y-39529922D01*
X9680023Y-39677756D01*
X9728687Y-39838179D01*
X9745117Y-40005000D01*
X9728687Y-40171821D01*
X9728686Y-40171824D01*
X9728686Y-40171825D01*
X9698602Y-40271000D01*
X9680023Y-40332244D01*
X9601005Y-40480078D01*
X9494659Y-40609659D01*
X9365078Y-40716005D01*
X9217244Y-40795023D01*
X9217241Y-40795024D01*
X9217239Y-40795025D01*
X9056825Y-40843686D01*
X9056824Y-40843686D01*
X9056821Y-40843687D01*
X8931804Y-40856000D01*
X8848196Y-40856000D01*
X8723179Y-40843687D01*
X8723176Y-40843686D01*
X8723175Y-40843686D01*
X8562761Y-40795025D01*
X8562759Y-40795024D01*
X8562756Y-40795023D01*
X8414922Y-40716005D01*
X8285341Y-40609659D01*
X8178995Y-40480078D01*
X8099977Y-40332244D01*
X8081399Y-40271000D01*
X8051314Y-40171825D01*
X8051314Y-40171824D01*
X8051313Y-40171821D01*
X8034883Y-40005000D01*
X8051313Y-39838179D01*
X8099977Y-39677756D01*
X8178995Y-39529922D01*
X8285341Y-39400341D01*
X8414922Y-39293995D01*
X8562756Y-39214977D01*
X8562759Y-39214976D01*
X8562761Y-39214975D01*
X8723175Y-39166314D01*
X8723176Y-39166314D01*
X8723179Y-39166313D01*
X8848196Y-39154000D01*
X8931804Y-39154000D01*
X9056821Y-39166313D01*
X9056821Y-39166313D01*
G37*
G36*
X54085443Y-38475519D02*
X54151627Y-38482037D01*
X54264853Y-38516384D01*
X54321467Y-38533557D01*
X54460087Y-38607652D01*
X54477991Y-38617222D01*
X54513729Y-38646552D01*
X54615186Y-38729814D01*
X54686379Y-38816564D01*
X54727778Y-38867009D01*
X54727779Y-38867011D01*
X54811443Y-39023533D01*
X54811443Y-39023534D01*
X54862963Y-39193373D01*
X54880359Y-39370000D01*
X54862963Y-39546627D01*
X54852524Y-39581040D01*
X54811443Y-39716467D01*
X54755835Y-39820500D01*
X54727778Y-39872991D01*
X54712535Y-39891564D01*
X54615186Y-40010186D01*
X54528849Y-40081040D01*
X54477991Y-40122778D01*
X54477989Y-40122779D01*
X54321467Y-40206443D01*
X54264853Y-40223616D01*
X54151627Y-40257963D01*
X54085443Y-40264481D01*
X54019260Y-40271000D01*
X53930740Y-40271000D01*
X53864557Y-40264481D01*
X53798373Y-40257963D01*
X53685147Y-40223616D01*
X53628533Y-40206443D01*
X53472011Y-40122779D01*
X53472009Y-40122778D01*
X53421151Y-40081040D01*
X53334814Y-40010186D01*
X53237465Y-39891564D01*
X53222222Y-39872991D01*
X53194165Y-39820500D01*
X53138557Y-39716467D01*
X53097476Y-39581040D01*
X53087037Y-39546627D01*
X53069641Y-39370000D01*
X53087037Y-39193373D01*
X53138557Y-39023534D01*
X53138557Y-39023533D01*
X53222221Y-38867011D01*
X53222222Y-38867009D01*
X53263621Y-38816564D01*
X53334814Y-38729814D01*
X53436271Y-38646552D01*
X53472009Y-38617222D01*
X53489913Y-38607652D01*
X53628533Y-38533557D01*
X53685147Y-38516384D01*
X53798373Y-38482037D01*
X53864557Y-38475519D01*
X53930740Y-38469000D01*
X54019260Y-38469000D01*
X54085443Y-38475519D01*
X54085443Y-38475519D01*
G37*
G36*
X65170293Y-37270323D02*
X65177311Y-37272452D01*
X65191080Y-37279811D01*
X65213719Y-37289187D01*
X65237753Y-37293967D01*
X65262257Y-37293966D01*
X65286290Y-37289184D01*
X65308920Y-37279811D01*
X65322689Y-37272452D01*
X65329707Y-37270323D01*
X65343140Y-37269000D01*
X65656860Y-37269000D01*
X65670293Y-37270323D01*
X65677311Y-37272452D01*
X65691080Y-37279811D01*
X65713719Y-37289187D01*
X65737753Y-37293967D01*
X65762257Y-37293966D01*
X65786290Y-37289184D01*
X65808920Y-37279811D01*
X65822689Y-37272452D01*
X65829707Y-37270323D01*
X65843140Y-37269000D01*
X66156860Y-37269000D01*
X66170293Y-37270323D01*
X66177311Y-37272452D01*
X66191080Y-37279811D01*
X66213719Y-37289187D01*
X66237753Y-37293967D01*
X66262257Y-37293966D01*
X66286290Y-37289184D01*
X66308920Y-37279811D01*
X66322689Y-37272452D01*
X66329707Y-37270323D01*
X66343140Y-37269000D01*
X66656860Y-37269000D01*
X66670293Y-37270323D01*
X66677311Y-37272452D01*
X66691080Y-37279811D01*
X66713719Y-37289187D01*
X66737753Y-37293967D01*
X66762257Y-37293966D01*
X66786290Y-37289184D01*
X66808920Y-37279811D01*
X66822689Y-37272452D01*
X66829707Y-37270323D01*
X66843140Y-37269000D01*
X67156860Y-37269000D01*
X67170293Y-37270323D01*
X67177311Y-37272452D01*
X67191080Y-37279811D01*
X67213719Y-37289187D01*
X67237753Y-37293967D01*
X67262257Y-37293966D01*
X67286290Y-37289184D01*
X67308920Y-37279811D01*
X67322689Y-37272452D01*
X67329707Y-37270323D01*
X67343140Y-37269000D01*
X67656860Y-37269000D01*
X67670293Y-37270323D01*
X67677311Y-37272452D01*
X67691080Y-37279811D01*
X67713719Y-37289187D01*
X67737753Y-37293967D01*
X67762257Y-37293966D01*
X67786290Y-37289184D01*
X67808920Y-37279811D01*
X67822689Y-37272452D01*
X67829707Y-37270323D01*
X67843140Y-37269000D01*
X68156860Y-37269000D01*
X68170293Y-37270323D01*
X68177311Y-37272452D01*
X68191080Y-37279811D01*
X68213719Y-37289187D01*
X68237753Y-37293967D01*
X68262257Y-37293966D01*
X68286290Y-37289184D01*
X68308920Y-37279811D01*
X68322689Y-37272452D01*
X68329707Y-37270323D01*
X68343140Y-37269000D01*
X68656860Y-37269000D01*
X68670293Y-37270323D01*
X68677311Y-37272452D01*
X68691080Y-37279811D01*
X68713719Y-37289187D01*
X68737753Y-37293967D01*
X68762257Y-37293966D01*
X68786290Y-37289184D01*
X68808920Y-37279811D01*
X68822689Y-37272452D01*
X68829707Y-37270323D01*
X68843140Y-37269000D01*
X69156860Y-37269000D01*
X69170293Y-37270323D01*
X69177311Y-37272452D01*
X69191080Y-37279811D01*
X69213719Y-37289187D01*
X69237753Y-37293967D01*
X69262257Y-37293966D01*
X69286290Y-37289184D01*
X69308920Y-37279811D01*
X69322689Y-37272452D01*
X69329707Y-37270323D01*
X69343140Y-37269000D01*
X69656860Y-37269000D01*
X69670293Y-37270323D01*
X69677311Y-37272452D01*
X69691080Y-37279811D01*
X69713719Y-37289187D01*
X69737753Y-37293967D01*
X69762257Y-37293966D01*
X69786290Y-37289184D01*
X69808920Y-37279811D01*
X69822689Y-37272452D01*
X69829707Y-37270323D01*
X69843140Y-37269000D01*
X70156860Y-37269000D01*
X70170293Y-37270323D01*
X70177311Y-37272452D01*
X70191080Y-37279811D01*
X70213719Y-37289187D01*
X70237753Y-37293967D01*
X70262257Y-37293966D01*
X70286290Y-37289184D01*
X70308920Y-37279811D01*
X70322689Y-37272452D01*
X70329707Y-37270323D01*
X70343140Y-37269000D01*
X70656860Y-37269000D01*
X70670293Y-37270323D01*
X70677311Y-37272452D01*
X70691080Y-37279811D01*
X70713719Y-37289187D01*
X70737753Y-37293967D01*
X70762257Y-37293966D01*
X70786290Y-37289184D01*
X70808920Y-37279811D01*
X70822689Y-37272452D01*
X70829707Y-37270323D01*
X70843140Y-37269000D01*
X71156860Y-37269000D01*
X71170293Y-37270323D01*
X71177311Y-37272452D01*
X71191080Y-37279811D01*
X71213719Y-37289187D01*
X71237753Y-37293967D01*
X71262257Y-37293966D01*
X71286290Y-37289184D01*
X71308920Y-37279811D01*
X71322689Y-37272452D01*
X71329707Y-37270323D01*
X71343140Y-37269000D01*
X71656860Y-37269000D01*
X71670293Y-37270323D01*
X71677311Y-37272452D01*
X71691080Y-37279811D01*
X71713719Y-37289187D01*
X71737753Y-37293967D01*
X71762257Y-37293966D01*
X71786290Y-37289184D01*
X71808920Y-37279811D01*
X71822689Y-37272452D01*
X71829707Y-37270323D01*
X71843140Y-37269000D01*
X72156860Y-37269000D01*
X72170293Y-37270323D01*
X72177311Y-37272452D01*
X72191080Y-37279811D01*
X72213719Y-37289187D01*
X72237753Y-37293967D01*
X72262257Y-37293966D01*
X72286290Y-37289184D01*
X72308920Y-37279811D01*
X72322689Y-37272452D01*
X72329707Y-37270323D01*
X72343140Y-37269000D01*
X72656860Y-37269000D01*
X72670293Y-37270323D01*
X72677311Y-37272452D01*
X72691080Y-37279811D01*
X72713719Y-37289187D01*
X72737753Y-37293967D01*
X72762257Y-37293966D01*
X72786290Y-37289184D01*
X72808920Y-37279811D01*
X72822689Y-37272452D01*
X72829707Y-37270323D01*
X72843140Y-37269000D01*
X73156860Y-37269000D01*
X73170293Y-37270323D01*
X73177311Y-37272452D01*
X73191080Y-37279811D01*
X73213719Y-37289187D01*
X73237753Y-37293967D01*
X73262257Y-37293966D01*
X73286290Y-37289184D01*
X73308920Y-37279811D01*
X73322689Y-37272452D01*
X73329707Y-37270323D01*
X73343140Y-37269000D01*
X73656860Y-37269000D01*
X73670293Y-37270323D01*
X73677311Y-37272452D01*
X73691080Y-37279811D01*
X73713719Y-37289187D01*
X73737753Y-37293967D01*
X73762257Y-37293966D01*
X73786290Y-37289184D01*
X73808920Y-37279811D01*
X73822689Y-37272452D01*
X73829707Y-37270323D01*
X73843140Y-37269000D01*
X74156860Y-37269000D01*
X74170293Y-37270323D01*
X74177311Y-37272452D01*
X74191080Y-37279811D01*
X74213719Y-37289187D01*
X74237753Y-37293967D01*
X74262257Y-37293966D01*
X74286290Y-37289184D01*
X74308920Y-37279811D01*
X74322689Y-37272452D01*
X74329707Y-37270323D01*
X74343140Y-37269000D01*
X74656860Y-37269000D01*
X74670293Y-37270323D01*
X74677311Y-37272452D01*
X74691080Y-37279811D01*
X74713719Y-37289187D01*
X74737753Y-37293967D01*
X74762257Y-37293966D01*
X74786290Y-37289184D01*
X74808920Y-37279811D01*
X74822689Y-37272452D01*
X74829707Y-37270323D01*
X74843140Y-37269000D01*
X75156860Y-37269000D01*
X75170293Y-37270323D01*
X75177311Y-37272452D01*
X75191080Y-37279811D01*
X75213719Y-37289187D01*
X75237753Y-37293967D01*
X75262257Y-37293966D01*
X75286290Y-37289184D01*
X75308920Y-37279811D01*
X75322689Y-37272452D01*
X75329707Y-37270323D01*
X75343140Y-37269000D01*
X75656860Y-37269000D01*
X75670293Y-37270323D01*
X75677311Y-37272452D01*
X75691080Y-37279811D01*
X75713719Y-37289187D01*
X75737753Y-37293967D01*
X75762257Y-37293966D01*
X75786290Y-37289184D01*
X75808920Y-37279811D01*
X75822689Y-37272452D01*
X75829707Y-37270323D01*
X75843140Y-37269000D01*
X76156860Y-37269000D01*
X76170293Y-37270323D01*
X76177311Y-37272452D01*
X76191080Y-37279811D01*
X76213719Y-37289187D01*
X76237753Y-37293967D01*
X76262257Y-37293966D01*
X76286290Y-37289184D01*
X76308920Y-37279811D01*
X76322689Y-37272452D01*
X76329707Y-37270323D01*
X76343140Y-37269000D01*
X76656860Y-37269000D01*
X76670293Y-37270323D01*
X76677311Y-37272452D01*
X76691080Y-37279811D01*
X76713719Y-37289187D01*
X76737753Y-37293967D01*
X76762257Y-37293966D01*
X76786290Y-37289184D01*
X76808920Y-37279811D01*
X76822689Y-37272452D01*
X76829707Y-37270323D01*
X76843140Y-37269000D01*
X77156860Y-37269000D01*
X77170293Y-37270323D01*
X77177312Y-37272452D01*
X77183775Y-37275907D01*
X77189442Y-37280558D01*
X77194093Y-37286225D01*
X77197548Y-37292688D01*
X77199677Y-37299707D01*
X77201000Y-37313140D01*
X77201000Y-38801860D01*
X77199677Y-38815293D01*
X77197548Y-38822312D01*
X77194093Y-38828775D01*
X77189442Y-38834442D01*
X77183775Y-38839093D01*
X77177312Y-38842548D01*
X77170293Y-38844677D01*
X77156860Y-38846000D01*
X76843140Y-38846000D01*
X76829707Y-38844677D01*
X76822689Y-38842548D01*
X76808920Y-38835189D01*
X76786281Y-38825813D01*
X76762247Y-38821033D01*
X76737743Y-38821034D01*
X76713710Y-38825816D01*
X76691080Y-38835189D01*
X76677311Y-38842548D01*
X76670293Y-38844677D01*
X76656860Y-38846000D01*
X76343140Y-38846000D01*
X76329707Y-38844677D01*
X76322689Y-38842548D01*
X76308920Y-38835189D01*
X76286281Y-38825813D01*
X76262247Y-38821033D01*
X76237743Y-38821034D01*
X76213710Y-38825816D01*
X76191080Y-38835189D01*
X76177311Y-38842548D01*
X76170293Y-38844677D01*
X76156860Y-38846000D01*
X75843140Y-38846000D01*
X75829707Y-38844677D01*
X75822689Y-38842548D01*
X75808920Y-38835189D01*
X75786281Y-38825813D01*
X75762247Y-38821033D01*
X75737743Y-38821034D01*
X75713710Y-38825816D01*
X75691080Y-38835189D01*
X75677311Y-38842548D01*
X75670293Y-38844677D01*
X75656860Y-38846000D01*
X75343140Y-38846000D01*
X75329707Y-38844677D01*
X75322689Y-38842548D01*
X75308920Y-38835189D01*
X75286281Y-38825813D01*
X75262247Y-38821033D01*
X75237743Y-38821034D01*
X75213710Y-38825816D01*
X75191080Y-38835189D01*
X75177311Y-38842548D01*
X75170293Y-38844677D01*
X75156860Y-38846000D01*
X74843140Y-38846000D01*
X74829707Y-38844677D01*
X74822689Y-38842548D01*
X74808920Y-38835189D01*
X74786281Y-38825813D01*
X74762247Y-38821033D01*
X74737743Y-38821034D01*
X74713710Y-38825816D01*
X74691080Y-38835189D01*
X74677311Y-38842548D01*
X74670293Y-38844677D01*
X74656860Y-38846000D01*
X74343140Y-38846000D01*
X74329707Y-38844677D01*
X74322689Y-38842548D01*
X74308920Y-38835189D01*
X74286281Y-38825813D01*
X74262247Y-38821033D01*
X74237743Y-38821034D01*
X74213710Y-38825816D01*
X74191080Y-38835189D01*
X74177311Y-38842548D01*
X74170293Y-38844677D01*
X74156860Y-38846000D01*
X73843140Y-38846000D01*
X73829707Y-38844677D01*
X73822689Y-38842548D01*
X73808920Y-38835189D01*
X73786281Y-38825813D01*
X73762247Y-38821033D01*
X73737743Y-38821034D01*
X73713710Y-38825816D01*
X73691080Y-38835189D01*
X73677311Y-38842548D01*
X73670293Y-38844677D01*
X73656860Y-38846000D01*
X73343140Y-38846000D01*
X73329707Y-38844677D01*
X73322689Y-38842548D01*
X73308920Y-38835189D01*
X73286281Y-38825813D01*
X73262247Y-38821033D01*
X73237743Y-38821034D01*
X73213710Y-38825816D01*
X73191080Y-38835189D01*
X73177311Y-38842548D01*
X73170293Y-38844677D01*
X73156860Y-38846000D01*
X72843140Y-38846000D01*
X72829707Y-38844677D01*
X72822689Y-38842548D01*
X72808920Y-38835189D01*
X72786281Y-38825813D01*
X72762247Y-38821033D01*
X72737743Y-38821034D01*
X72713710Y-38825816D01*
X72691080Y-38835189D01*
X72677311Y-38842548D01*
X72670293Y-38844677D01*
X72656860Y-38846000D01*
X72343140Y-38846000D01*
X72329707Y-38844677D01*
X72322689Y-38842548D01*
X72308920Y-38835189D01*
X72286281Y-38825813D01*
X72262247Y-38821033D01*
X72237743Y-38821034D01*
X72213710Y-38825816D01*
X72191080Y-38835189D01*
X72177311Y-38842548D01*
X72170293Y-38844677D01*
X72156860Y-38846000D01*
X71843140Y-38846000D01*
X71829707Y-38844677D01*
X71822689Y-38842548D01*
X71808920Y-38835189D01*
X71786281Y-38825813D01*
X71762247Y-38821033D01*
X71737743Y-38821034D01*
X71713710Y-38825816D01*
X71691080Y-38835189D01*
X71677311Y-38842548D01*
X71670293Y-38844677D01*
X71656860Y-38846000D01*
X71343140Y-38846000D01*
X71329707Y-38844677D01*
X71322689Y-38842548D01*
X71308920Y-38835189D01*
X71286281Y-38825813D01*
X71262247Y-38821033D01*
X71237743Y-38821034D01*
X71213710Y-38825816D01*
X71191080Y-38835189D01*
X71177311Y-38842548D01*
X71170293Y-38844677D01*
X71156860Y-38846000D01*
X70843140Y-38846000D01*
X70829707Y-38844677D01*
X70822689Y-38842548D01*
X70808920Y-38835189D01*
X70786281Y-38825813D01*
X70762247Y-38821033D01*
X70737743Y-38821034D01*
X70713710Y-38825816D01*
X70691080Y-38835189D01*
X70677311Y-38842548D01*
X70670293Y-38844677D01*
X70656860Y-38846000D01*
X70343140Y-38846000D01*
X70329707Y-38844677D01*
X70322689Y-38842548D01*
X70308920Y-38835189D01*
X70286281Y-38825813D01*
X70262247Y-38821033D01*
X70237743Y-38821034D01*
X70213710Y-38825816D01*
X70191080Y-38835189D01*
X70177311Y-38842548D01*
X70170293Y-38844677D01*
X70156860Y-38846000D01*
X69843140Y-38846000D01*
X69829707Y-38844677D01*
X69822689Y-38842548D01*
X69808920Y-38835189D01*
X69786281Y-38825813D01*
X69762247Y-38821033D01*
X69737743Y-38821034D01*
X69713710Y-38825816D01*
X69691080Y-38835189D01*
X69677311Y-38842548D01*
X69670293Y-38844677D01*
X69656860Y-38846000D01*
X69343140Y-38846000D01*
X69329707Y-38844677D01*
X69322689Y-38842548D01*
X69308920Y-38835189D01*
X69286281Y-38825813D01*
X69262247Y-38821033D01*
X69237743Y-38821034D01*
X69213710Y-38825816D01*
X69191080Y-38835189D01*
X69177311Y-38842548D01*
X69170293Y-38844677D01*
X69156860Y-38846000D01*
X68843140Y-38846000D01*
X68829707Y-38844677D01*
X68822689Y-38842548D01*
X68808920Y-38835189D01*
X68786281Y-38825813D01*
X68762247Y-38821033D01*
X68737743Y-38821034D01*
X68713710Y-38825816D01*
X68691080Y-38835189D01*
X68677311Y-38842548D01*
X68670293Y-38844677D01*
X68656860Y-38846000D01*
X68343140Y-38846000D01*
X68329707Y-38844677D01*
X68322689Y-38842548D01*
X68308920Y-38835189D01*
X68286281Y-38825813D01*
X68262247Y-38821033D01*
X68237743Y-38821034D01*
X68213710Y-38825816D01*
X68191080Y-38835189D01*
X68177311Y-38842548D01*
X68170293Y-38844677D01*
X68156860Y-38846000D01*
X67843140Y-38846000D01*
X67829707Y-38844677D01*
X67822689Y-38842548D01*
X67808920Y-38835189D01*
X67786281Y-38825813D01*
X67762247Y-38821033D01*
X67737743Y-38821034D01*
X67713710Y-38825816D01*
X67691080Y-38835189D01*
X67677311Y-38842548D01*
X67670293Y-38844677D01*
X67656860Y-38846000D01*
X67343140Y-38846000D01*
X67329707Y-38844677D01*
X67322689Y-38842548D01*
X67308920Y-38835189D01*
X67286281Y-38825813D01*
X67262247Y-38821033D01*
X67237743Y-38821034D01*
X67213710Y-38825816D01*
X67191080Y-38835189D01*
X67177311Y-38842548D01*
X67170293Y-38844677D01*
X67156860Y-38846000D01*
X66843140Y-38846000D01*
X66829707Y-38844677D01*
X66822689Y-38842548D01*
X66808920Y-38835189D01*
X66786281Y-38825813D01*
X66762247Y-38821033D01*
X66737743Y-38821034D01*
X66713710Y-38825816D01*
X66691080Y-38835189D01*
X66677311Y-38842548D01*
X66670293Y-38844677D01*
X66656860Y-38846000D01*
X66343140Y-38846000D01*
X66329707Y-38844677D01*
X66322689Y-38842548D01*
X66308920Y-38835189D01*
X66286281Y-38825813D01*
X66262247Y-38821033D01*
X66237743Y-38821034D01*
X66213710Y-38825816D01*
X66191080Y-38835189D01*
X66177311Y-38842548D01*
X66170293Y-38844677D01*
X66156860Y-38846000D01*
X65843140Y-38846000D01*
X65829707Y-38844677D01*
X65822689Y-38842548D01*
X65808920Y-38835189D01*
X65786281Y-38825813D01*
X65762247Y-38821033D01*
X65737743Y-38821034D01*
X65713710Y-38825816D01*
X65691080Y-38835189D01*
X65677311Y-38842548D01*
X65670293Y-38844677D01*
X65656860Y-38846000D01*
X65343140Y-38846000D01*
X65329707Y-38844677D01*
X65322689Y-38842548D01*
X65308920Y-38835189D01*
X65286281Y-38825813D01*
X65262247Y-38821033D01*
X65237743Y-38821034D01*
X65213710Y-38825816D01*
X65191080Y-38835189D01*
X65177311Y-38842548D01*
X65170293Y-38844677D01*
X65156860Y-38846000D01*
X64843140Y-38846000D01*
X64829707Y-38844677D01*
X64822688Y-38842548D01*
X64816225Y-38839093D01*
X64810558Y-38834442D01*
X64805907Y-38828775D01*
X64802452Y-38822312D01*
X64800323Y-38815293D01*
X64799000Y-38801860D01*
X64799000Y-37313140D01*
X64800323Y-37299707D01*
X64802452Y-37292688D01*
X64805907Y-37286225D01*
X64810558Y-37280558D01*
X64816225Y-37275907D01*
X64822688Y-37272452D01*
X64829707Y-37270323D01*
X64843140Y-37269000D01*
X65156860Y-37269000D01*
X65170293Y-37270323D01*
X65170293Y-37270323D01*
G37*
G36*
X47156821Y-36626313D02*
X47156824Y-36626314D01*
X47156825Y-36626314D01*
X47317239Y-36674975D01*
X47317241Y-36674976D01*
X47317244Y-36674977D01*
X47465078Y-36753995D01*
X47594659Y-36860341D01*
X47701005Y-36989922D01*
X47780023Y-37137756D01*
X47780024Y-37137759D01*
X47780025Y-37137761D01*
X47828686Y-37298175D01*
X47828687Y-37298179D01*
X47845117Y-37465000D01*
X47828687Y-37631821D01*
X47828686Y-37631824D01*
X47828686Y-37631825D01*
X47798602Y-37731000D01*
X47780023Y-37792244D01*
X47701005Y-37940078D01*
X47594659Y-38069659D01*
X47465078Y-38176005D01*
X47317244Y-38255023D01*
X47317241Y-38255024D01*
X47317239Y-38255025D01*
X47156825Y-38303686D01*
X47156824Y-38303686D01*
X47156821Y-38303687D01*
X47031804Y-38316000D01*
X46948196Y-38316000D01*
X46823179Y-38303687D01*
X46823176Y-38303686D01*
X46823175Y-38303686D01*
X46662761Y-38255025D01*
X46662759Y-38255024D01*
X46662756Y-38255023D01*
X46514922Y-38176005D01*
X46385341Y-38069659D01*
X46278995Y-37940078D01*
X46199977Y-37792244D01*
X46181399Y-37731000D01*
X46151314Y-37631825D01*
X46151314Y-37631824D01*
X46151313Y-37631821D01*
X46134883Y-37465000D01*
X46151313Y-37298179D01*
X46151314Y-37298175D01*
X46199975Y-37137761D01*
X46199976Y-37137759D01*
X46199977Y-37137756D01*
X46278995Y-36989922D01*
X46385341Y-36860341D01*
X46514922Y-36753995D01*
X46662756Y-36674977D01*
X46662759Y-36674976D01*
X46662761Y-36674975D01*
X46823175Y-36626314D01*
X46823176Y-36626314D01*
X46823179Y-36626313D01*
X46948196Y-36614000D01*
X47031804Y-36614000D01*
X47156821Y-36626313D01*
X47156821Y-36626313D01*
G37*
G36*
X9056821Y-36626313D02*
X9056824Y-36626314D01*
X9056825Y-36626314D01*
X9217239Y-36674975D01*
X9217241Y-36674976D01*
X9217244Y-36674977D01*
X9365078Y-36753995D01*
X9494659Y-36860341D01*
X9601005Y-36989922D01*
X9680023Y-37137756D01*
X9680024Y-37137759D01*
X9680025Y-37137761D01*
X9728686Y-37298175D01*
X9728687Y-37298179D01*
X9745117Y-37465000D01*
X9728687Y-37631821D01*
X9728686Y-37631824D01*
X9728686Y-37631825D01*
X9698602Y-37731000D01*
X9680023Y-37792244D01*
X9601005Y-37940078D01*
X9494659Y-38069659D01*
X9365078Y-38176005D01*
X9217244Y-38255023D01*
X9217241Y-38255024D01*
X9217239Y-38255025D01*
X9056825Y-38303686D01*
X9056824Y-38303686D01*
X9056821Y-38303687D01*
X8931804Y-38316000D01*
X8848196Y-38316000D01*
X8723179Y-38303687D01*
X8723176Y-38303686D01*
X8723175Y-38303686D01*
X8562761Y-38255025D01*
X8562759Y-38255024D01*
X8562756Y-38255023D01*
X8414922Y-38176005D01*
X8285341Y-38069659D01*
X8178995Y-37940078D01*
X8099977Y-37792244D01*
X8081399Y-37731000D01*
X8051314Y-37631825D01*
X8051314Y-37631824D01*
X8051313Y-37631821D01*
X8034883Y-37465000D01*
X8051313Y-37298179D01*
X8051314Y-37298175D01*
X8099975Y-37137761D01*
X8099976Y-37137759D01*
X8099977Y-37137756D01*
X8178995Y-36989922D01*
X8285341Y-36860341D01*
X8414922Y-36753995D01*
X8562756Y-36674977D01*
X8562759Y-36674976D01*
X8562761Y-36674975D01*
X8723175Y-36626314D01*
X8723176Y-36626314D01*
X8723179Y-36626313D01*
X8848196Y-36614000D01*
X8931804Y-36614000D01*
X9056821Y-36626313D01*
X9056821Y-36626313D01*
G37*
G36*
X24296821Y-36626313D02*
X24296824Y-36626314D01*
X24296825Y-36626314D01*
X24457239Y-36674975D01*
X24457241Y-36674976D01*
X24457244Y-36674977D01*
X24605078Y-36753995D01*
X24734659Y-36860341D01*
X24841005Y-36989922D01*
X24920023Y-37137756D01*
X24920024Y-37137759D01*
X24920025Y-37137761D01*
X24968686Y-37298175D01*
X24968687Y-37298179D01*
X24985117Y-37465000D01*
X24968687Y-37631821D01*
X24968686Y-37631824D01*
X24968686Y-37631825D01*
X24938602Y-37731000D01*
X24920023Y-37792244D01*
X24841005Y-37940078D01*
X24734659Y-38069659D01*
X24605078Y-38176005D01*
X24457244Y-38255023D01*
X24457241Y-38255024D01*
X24457239Y-38255025D01*
X24296825Y-38303686D01*
X24296824Y-38303686D01*
X24296821Y-38303687D01*
X24171804Y-38316000D01*
X24088196Y-38316000D01*
X23963179Y-38303687D01*
X23963176Y-38303686D01*
X23963175Y-38303686D01*
X23802761Y-38255025D01*
X23802759Y-38255024D01*
X23802756Y-38255023D01*
X23654922Y-38176005D01*
X23525341Y-38069659D01*
X23418995Y-37940078D01*
X23339977Y-37792244D01*
X23321399Y-37731000D01*
X23291314Y-37631825D01*
X23291314Y-37631824D01*
X23291313Y-37631821D01*
X23274883Y-37465000D01*
X23291313Y-37298179D01*
X23291314Y-37298175D01*
X23339975Y-37137761D01*
X23339976Y-37137759D01*
X23339977Y-37137756D01*
X23418995Y-36989922D01*
X23525341Y-36860341D01*
X23654922Y-36753995D01*
X23802756Y-36674977D01*
X23802759Y-36674976D01*
X23802761Y-36674975D01*
X23963175Y-36626314D01*
X23963176Y-36626314D01*
X23963179Y-36626313D01*
X24088196Y-36614000D01*
X24171804Y-36614000D01*
X24296821Y-36626313D01*
X24296821Y-36626313D01*
G37*
G36*
X31916821Y-36626313D02*
X31916824Y-36626314D01*
X31916825Y-36626314D01*
X32077239Y-36674975D01*
X32077241Y-36674976D01*
X32077244Y-36674977D01*
X32225078Y-36753995D01*
X32354659Y-36860341D01*
X32461005Y-36989922D01*
X32540023Y-37137756D01*
X32540024Y-37137759D01*
X32540025Y-37137761D01*
X32588686Y-37298175D01*
X32588687Y-37298179D01*
X32605117Y-37465000D01*
X32588687Y-37631821D01*
X32588686Y-37631824D01*
X32588686Y-37631825D01*
X32558602Y-37731000D01*
X32540023Y-37792244D01*
X32461005Y-37940078D01*
X32354659Y-38069659D01*
X32225078Y-38176005D01*
X32077244Y-38255023D01*
X32077241Y-38255024D01*
X32077239Y-38255025D01*
X31916825Y-38303686D01*
X31916824Y-38303686D01*
X31916821Y-38303687D01*
X31791804Y-38316000D01*
X31708196Y-38316000D01*
X31583179Y-38303687D01*
X31583176Y-38303686D01*
X31583175Y-38303686D01*
X31422761Y-38255025D01*
X31422759Y-38255024D01*
X31422756Y-38255023D01*
X31274922Y-38176005D01*
X31145341Y-38069659D01*
X31038995Y-37940078D01*
X30959977Y-37792244D01*
X30941399Y-37731000D01*
X30911314Y-37631825D01*
X30911314Y-37631824D01*
X30911313Y-37631821D01*
X30894883Y-37465000D01*
X30911313Y-37298179D01*
X30911314Y-37298175D01*
X30959975Y-37137761D01*
X30959976Y-37137759D01*
X30959977Y-37137756D01*
X31038995Y-36989922D01*
X31145341Y-36860341D01*
X31274922Y-36753995D01*
X31422756Y-36674977D01*
X31422759Y-36674976D01*
X31422761Y-36674975D01*
X31583175Y-36626314D01*
X31583176Y-36626314D01*
X31583179Y-36626313D01*
X31708196Y-36614000D01*
X31791804Y-36614000D01*
X31916821Y-36626313D01*
X31916821Y-36626313D01*
G37*
G36*
X91791742Y-36278418D02*
X91857927Y-36284937D01*
X91971153Y-36319284D01*
X92027767Y-36336457D01*
X92166387Y-36410552D01*
X92184291Y-36420122D01*
X92220029Y-36449452D01*
X92321486Y-36532714D01*
X92398300Y-36626314D01*
X92434078Y-36669909D01*
X92434079Y-36669911D01*
X92517743Y-36826433D01*
X92517743Y-36826434D01*
X92569263Y-36996273D01*
X92586659Y-37172900D01*
X92569263Y-37349527D01*
X92563204Y-37369500D01*
X92517743Y-37519367D01*
X92483848Y-37582779D01*
X92434078Y-37675891D01*
X92404748Y-37711629D01*
X92321486Y-37813086D01*
X92220029Y-37896348D01*
X92184291Y-37925678D01*
X92184289Y-37925679D01*
X92027767Y-38009343D01*
X91971153Y-38026516D01*
X91857927Y-38060863D01*
X91791743Y-38067381D01*
X91725560Y-38073900D01*
X91637040Y-38073900D01*
X91570857Y-38067381D01*
X91504673Y-38060863D01*
X91391447Y-38026516D01*
X91334833Y-38009343D01*
X91178311Y-37925679D01*
X91178309Y-37925678D01*
X91142571Y-37896348D01*
X91041114Y-37813086D01*
X90957852Y-37711629D01*
X90928522Y-37675891D01*
X90878752Y-37582779D01*
X90844857Y-37519367D01*
X90799396Y-37369500D01*
X90793337Y-37349527D01*
X90775941Y-37172900D01*
X90793337Y-36996273D01*
X90844857Y-36826434D01*
X90844857Y-36826433D01*
X90928521Y-36669911D01*
X90928522Y-36669909D01*
X90964300Y-36626314D01*
X91041114Y-36532714D01*
X91142571Y-36449452D01*
X91178309Y-36420122D01*
X91196213Y-36410552D01*
X91334833Y-36336457D01*
X91391447Y-36319284D01*
X91504673Y-36284937D01*
X91570858Y-36278418D01*
X91637040Y-36271900D01*
X91725560Y-36271900D01*
X91791742Y-36278418D01*
X91791742Y-36278418D01*
G37*
G36*
X54085442Y-35935518D02*
X54151627Y-35942037D01*
X54264853Y-35976384D01*
X54321467Y-35993557D01*
X54460087Y-36067652D01*
X54477991Y-36077222D01*
X54513729Y-36106552D01*
X54615186Y-36189814D01*
X54682551Y-36271900D01*
X54727778Y-36327009D01*
X54727779Y-36327011D01*
X54811443Y-36483533D01*
X54811443Y-36483534D01*
X54862963Y-36653373D01*
X54880359Y-36830000D01*
X54862963Y-37006627D01*
X54828616Y-37119853D01*
X54811443Y-37176467D01*
X54748637Y-37293967D01*
X54727778Y-37332991D01*
X54698448Y-37368729D01*
X54615186Y-37470186D01*
X54513729Y-37553448D01*
X54477991Y-37582778D01*
X54477989Y-37582779D01*
X54321467Y-37666443D01*
X54264853Y-37683616D01*
X54151627Y-37717963D01*
X54085443Y-37724481D01*
X54019260Y-37731000D01*
X53930740Y-37731000D01*
X53864557Y-37724481D01*
X53798373Y-37717963D01*
X53685147Y-37683616D01*
X53628533Y-37666443D01*
X53472011Y-37582779D01*
X53472009Y-37582778D01*
X53436271Y-37553448D01*
X53334814Y-37470186D01*
X53251552Y-37368729D01*
X53222222Y-37332991D01*
X53201363Y-37293967D01*
X53138557Y-37176467D01*
X53121384Y-37119853D01*
X53087037Y-37006627D01*
X53069641Y-36830000D01*
X53087037Y-36653373D01*
X53138557Y-36483534D01*
X53138557Y-36483533D01*
X53222221Y-36327011D01*
X53222222Y-36327009D01*
X53267449Y-36271900D01*
X53334814Y-36189814D01*
X53436271Y-36106552D01*
X53472009Y-36077222D01*
X53489913Y-36067652D01*
X53628533Y-35993557D01*
X53685147Y-35976384D01*
X53798373Y-35942037D01*
X53864558Y-35935518D01*
X53930740Y-35929000D01*
X54019260Y-35929000D01*
X54085442Y-35935518D01*
X54085442Y-35935518D01*
G37*
G36*
X9056821Y-34086313D02*
X9056824Y-34086314D01*
X9056825Y-34086314D01*
X9217239Y-34134975D01*
X9217241Y-34134976D01*
X9217244Y-34134977D01*
X9365078Y-34213995D01*
X9494659Y-34320341D01*
X9601005Y-34449922D01*
X9680023Y-34597756D01*
X9728687Y-34758179D01*
X9745117Y-34925000D01*
X9728687Y-35091821D01*
X9728686Y-35091824D01*
X9728686Y-35091825D01*
X9698602Y-35191000D01*
X9680023Y-35252244D01*
X9601005Y-35400078D01*
X9494659Y-35529659D01*
X9365078Y-35636005D01*
X9217244Y-35715023D01*
X9217241Y-35715024D01*
X9217239Y-35715025D01*
X9056825Y-35763686D01*
X9056824Y-35763686D01*
X9056821Y-35763687D01*
X8931804Y-35776000D01*
X8848196Y-35776000D01*
X8723179Y-35763687D01*
X8723176Y-35763686D01*
X8723175Y-35763686D01*
X8562761Y-35715025D01*
X8562759Y-35715024D01*
X8562756Y-35715023D01*
X8414922Y-35636005D01*
X8285341Y-35529659D01*
X8178995Y-35400078D01*
X8099977Y-35252244D01*
X8081399Y-35191000D01*
X8051314Y-35091825D01*
X8051314Y-35091824D01*
X8051313Y-35091821D01*
X8034883Y-34925000D01*
X8051313Y-34758179D01*
X8099977Y-34597756D01*
X8178995Y-34449922D01*
X8285341Y-34320341D01*
X8414922Y-34213995D01*
X8562756Y-34134977D01*
X8562759Y-34134976D01*
X8562761Y-34134975D01*
X8723175Y-34086314D01*
X8723176Y-34086314D01*
X8723179Y-34086313D01*
X8848196Y-34074000D01*
X8931804Y-34074000D01*
X9056821Y-34086313D01*
X9056821Y-34086313D01*
G37*
G36*
X24296821Y-34086313D02*
X24296824Y-34086314D01*
X24296825Y-34086314D01*
X24457239Y-34134975D01*
X24457241Y-34134976D01*
X24457244Y-34134977D01*
X24605078Y-34213995D01*
X24734659Y-34320341D01*
X24841005Y-34449922D01*
X24920023Y-34597756D01*
X24968687Y-34758179D01*
X24985117Y-34925000D01*
X24968687Y-35091821D01*
X24968686Y-35091824D01*
X24968686Y-35091825D01*
X24938602Y-35191000D01*
X24920023Y-35252244D01*
X24841005Y-35400078D01*
X24734659Y-35529659D01*
X24605078Y-35636005D01*
X24457244Y-35715023D01*
X24457241Y-35715024D01*
X24457239Y-35715025D01*
X24296825Y-35763686D01*
X24296824Y-35763686D01*
X24296821Y-35763687D01*
X24171804Y-35776000D01*
X24088196Y-35776000D01*
X23963179Y-35763687D01*
X23963176Y-35763686D01*
X23963175Y-35763686D01*
X23802761Y-35715025D01*
X23802759Y-35715024D01*
X23802756Y-35715023D01*
X23654922Y-35636005D01*
X23525341Y-35529659D01*
X23418995Y-35400078D01*
X23339977Y-35252244D01*
X23321399Y-35191000D01*
X23291314Y-35091825D01*
X23291314Y-35091824D01*
X23291313Y-35091821D01*
X23274883Y-34925000D01*
X23291313Y-34758179D01*
X23339977Y-34597756D01*
X23418995Y-34449922D01*
X23525341Y-34320341D01*
X23654922Y-34213995D01*
X23802756Y-34134977D01*
X23802759Y-34134976D01*
X23802761Y-34134975D01*
X23963175Y-34086314D01*
X23963176Y-34086314D01*
X23963179Y-34086313D01*
X24088196Y-34074000D01*
X24171804Y-34074000D01*
X24296821Y-34086313D01*
X24296821Y-34086313D01*
G37*
G36*
X47156821Y-34086313D02*
X47156824Y-34086314D01*
X47156825Y-34086314D01*
X47317239Y-34134975D01*
X47317241Y-34134976D01*
X47317244Y-34134977D01*
X47465078Y-34213995D01*
X47594659Y-34320341D01*
X47701005Y-34449922D01*
X47780023Y-34597756D01*
X47828687Y-34758179D01*
X47845117Y-34925000D01*
X47828687Y-35091821D01*
X47828686Y-35091824D01*
X47828686Y-35091825D01*
X47798602Y-35191000D01*
X47780023Y-35252244D01*
X47701005Y-35400078D01*
X47594659Y-35529659D01*
X47465078Y-35636005D01*
X47317244Y-35715023D01*
X47317241Y-35715024D01*
X47317239Y-35715025D01*
X47156825Y-35763686D01*
X47156824Y-35763686D01*
X47156821Y-35763687D01*
X47031804Y-35776000D01*
X46948196Y-35776000D01*
X46823179Y-35763687D01*
X46823176Y-35763686D01*
X46823175Y-35763686D01*
X46662761Y-35715025D01*
X46662759Y-35715024D01*
X46662756Y-35715023D01*
X46514922Y-35636005D01*
X46385341Y-35529659D01*
X46278995Y-35400078D01*
X46199977Y-35252244D01*
X46181399Y-35191000D01*
X46151314Y-35091825D01*
X46151314Y-35091824D01*
X46151313Y-35091821D01*
X46134883Y-34925000D01*
X46151313Y-34758179D01*
X46199977Y-34597756D01*
X46278995Y-34449922D01*
X46385341Y-34320341D01*
X46514922Y-34213995D01*
X46662756Y-34134977D01*
X46662759Y-34134976D01*
X46662761Y-34134975D01*
X46823175Y-34086314D01*
X46823176Y-34086314D01*
X46823179Y-34086313D01*
X46948196Y-34074000D01*
X47031804Y-34074000D01*
X47156821Y-34086313D01*
X47156821Y-34086313D01*
G37*
G36*
X31916821Y-34086313D02*
X31916824Y-34086314D01*
X31916825Y-34086314D01*
X32077239Y-34134975D01*
X32077241Y-34134976D01*
X32077244Y-34134977D01*
X32225078Y-34213995D01*
X32354659Y-34320341D01*
X32461005Y-34449922D01*
X32540023Y-34597756D01*
X32588687Y-34758179D01*
X32605117Y-34925000D01*
X32588687Y-35091821D01*
X32588686Y-35091824D01*
X32588686Y-35091825D01*
X32558602Y-35191000D01*
X32540023Y-35252244D01*
X32461005Y-35400078D01*
X32354659Y-35529659D01*
X32225078Y-35636005D01*
X32077244Y-35715023D01*
X32077241Y-35715024D01*
X32077239Y-35715025D01*
X31916825Y-35763686D01*
X31916824Y-35763686D01*
X31916821Y-35763687D01*
X31791804Y-35776000D01*
X31708196Y-35776000D01*
X31583179Y-35763687D01*
X31583176Y-35763686D01*
X31583175Y-35763686D01*
X31422761Y-35715025D01*
X31422759Y-35715024D01*
X31422756Y-35715023D01*
X31274922Y-35636005D01*
X31145341Y-35529659D01*
X31038995Y-35400078D01*
X30959977Y-35252244D01*
X30941399Y-35191000D01*
X30911314Y-35091825D01*
X30911314Y-35091824D01*
X30911313Y-35091821D01*
X30894883Y-34925000D01*
X30911313Y-34758179D01*
X30959977Y-34597756D01*
X31038995Y-34449922D01*
X31145341Y-34320341D01*
X31274922Y-34213995D01*
X31422756Y-34134977D01*
X31422759Y-34134976D01*
X31422761Y-34134975D01*
X31583175Y-34086314D01*
X31583176Y-34086314D01*
X31583179Y-34086313D01*
X31708196Y-34074000D01*
X31791804Y-34074000D01*
X31916821Y-34086313D01*
X31916821Y-34086313D01*
G37*
G36*
X91791743Y-33738419D02*
X91857927Y-33744937D01*
X91971153Y-33779284D01*
X92027767Y-33796457D01*
X92166387Y-33870552D01*
X92184291Y-33880122D01*
X92220029Y-33909452D01*
X92321486Y-33992714D01*
X92398300Y-34086314D01*
X92434078Y-34129909D01*
X92434079Y-34129911D01*
X92517743Y-34286433D01*
X92517743Y-34286434D01*
X92569263Y-34456273D01*
X92586659Y-34632900D01*
X92569263Y-34809527D01*
X92534916Y-34922753D01*
X92517743Y-34979367D01*
X92457634Y-35091821D01*
X92434078Y-35135891D01*
X92404748Y-35171629D01*
X92321486Y-35273086D01*
X92220029Y-35356348D01*
X92184291Y-35385678D01*
X92184289Y-35385679D01*
X92027767Y-35469343D01*
X91971153Y-35486516D01*
X91857927Y-35520863D01*
X91791742Y-35527382D01*
X91725560Y-35533900D01*
X91637040Y-35533900D01*
X91570858Y-35527382D01*
X91504673Y-35520863D01*
X91391447Y-35486516D01*
X91334833Y-35469343D01*
X91178311Y-35385679D01*
X91178309Y-35385678D01*
X91142571Y-35356348D01*
X91041114Y-35273086D01*
X90957852Y-35171629D01*
X90928522Y-35135891D01*
X90904966Y-35091821D01*
X90844857Y-34979367D01*
X90827684Y-34922753D01*
X90793337Y-34809527D01*
X90775941Y-34632900D01*
X90793337Y-34456273D01*
X90844857Y-34286434D01*
X90844857Y-34286433D01*
X90928521Y-34129911D01*
X90928522Y-34129909D01*
X90964300Y-34086314D01*
X91041114Y-33992714D01*
X91142571Y-33909452D01*
X91178309Y-33880122D01*
X91196213Y-33870552D01*
X91334833Y-33796457D01*
X91391447Y-33779284D01*
X91504673Y-33744937D01*
X91570857Y-33738419D01*
X91637040Y-33731900D01*
X91725560Y-33731900D01*
X91791743Y-33738419D01*
X91791743Y-33738419D01*
G37*
G36*
X54876000Y-35191000D02*
X53074000Y-35191000D01*
X53074000Y-33389000D01*
X54876000Y-33389000D01*
X54876000Y-35191000D01*
X54876000Y-35191000D01*
G37*
G36*
X24296821Y-31546313D02*
X24296824Y-31546314D01*
X24296825Y-31546314D01*
X24457239Y-31594975D01*
X24457241Y-31594976D01*
X24457244Y-31594977D01*
X24605078Y-31673995D01*
X24734659Y-31780341D01*
X24841005Y-31909922D01*
X24920023Y-32057756D01*
X24968687Y-32218179D01*
X24985117Y-32385000D01*
X24968687Y-32551821D01*
X24968686Y-32551824D01*
X24968686Y-32551825D01*
X24955319Y-32595891D01*
X24920023Y-32712244D01*
X24841005Y-32860078D01*
X24734659Y-32989659D01*
X24605078Y-33096005D01*
X24457244Y-33175023D01*
X24457241Y-33175024D01*
X24457239Y-33175025D01*
X24296825Y-33223686D01*
X24296824Y-33223686D01*
X24296821Y-33223687D01*
X24171804Y-33236000D01*
X24088196Y-33236000D01*
X23963179Y-33223687D01*
X23963176Y-33223686D01*
X23963175Y-33223686D01*
X23802761Y-33175025D01*
X23802759Y-33175024D01*
X23802756Y-33175023D01*
X23654922Y-33096005D01*
X23525341Y-32989659D01*
X23418995Y-32860078D01*
X23339977Y-32712244D01*
X23304682Y-32595891D01*
X23291314Y-32551825D01*
X23291314Y-32551824D01*
X23291313Y-32551821D01*
X23274883Y-32385000D01*
X23291313Y-32218179D01*
X23339977Y-32057756D01*
X23418995Y-31909922D01*
X23525341Y-31780341D01*
X23654922Y-31673995D01*
X23802756Y-31594977D01*
X23802759Y-31594976D01*
X23802761Y-31594975D01*
X23963175Y-31546314D01*
X23963176Y-31546314D01*
X23963179Y-31546313D01*
X24088196Y-31534000D01*
X24171804Y-31534000D01*
X24296821Y-31546313D01*
X24296821Y-31546313D01*
G37*
G36*
X47156821Y-31546313D02*
X47156824Y-31546314D01*
X47156825Y-31546314D01*
X47317239Y-31594975D01*
X47317241Y-31594976D01*
X47317244Y-31594977D01*
X47465078Y-31673995D01*
X47594659Y-31780341D01*
X47701005Y-31909922D01*
X47780023Y-32057756D01*
X47828687Y-32218179D01*
X47845117Y-32385000D01*
X47828687Y-32551821D01*
X47828686Y-32551824D01*
X47828686Y-32551825D01*
X47815319Y-32595891D01*
X47780023Y-32712244D01*
X47701005Y-32860078D01*
X47594659Y-32989659D01*
X47465078Y-33096005D01*
X47317244Y-33175023D01*
X47317241Y-33175024D01*
X47317239Y-33175025D01*
X47156825Y-33223686D01*
X47156824Y-33223686D01*
X47156821Y-33223687D01*
X47031804Y-33236000D01*
X46948196Y-33236000D01*
X46823179Y-33223687D01*
X46823176Y-33223686D01*
X46823175Y-33223686D01*
X46662761Y-33175025D01*
X46662759Y-33175024D01*
X46662756Y-33175023D01*
X46514922Y-33096005D01*
X46385341Y-32989659D01*
X46278995Y-32860078D01*
X46199977Y-32712244D01*
X46164682Y-32595891D01*
X46151314Y-32551825D01*
X46151314Y-32551824D01*
X46151313Y-32551821D01*
X46134883Y-32385000D01*
X46151313Y-32218179D01*
X46199977Y-32057756D01*
X46278995Y-31909922D01*
X46385341Y-31780341D01*
X46514922Y-31673995D01*
X46662756Y-31594977D01*
X46662759Y-31594976D01*
X46662761Y-31594975D01*
X46823175Y-31546314D01*
X46823176Y-31546314D01*
X46823179Y-31546313D01*
X46948196Y-31534000D01*
X47031804Y-31534000D01*
X47156821Y-31546313D01*
X47156821Y-31546313D01*
G37*
G36*
X31916821Y-31546313D02*
X31916824Y-31546314D01*
X31916825Y-31546314D01*
X32077239Y-31594975D01*
X32077241Y-31594976D01*
X32077244Y-31594977D01*
X32225078Y-31673995D01*
X32354659Y-31780341D01*
X32461005Y-31909922D01*
X32540023Y-32057756D01*
X32588687Y-32218179D01*
X32605117Y-32385000D01*
X32588687Y-32551821D01*
X32588686Y-32551824D01*
X32588686Y-32551825D01*
X32575319Y-32595891D01*
X32540023Y-32712244D01*
X32461005Y-32860078D01*
X32354659Y-32989659D01*
X32225078Y-33096005D01*
X32077244Y-33175023D01*
X32077241Y-33175024D01*
X32077239Y-33175025D01*
X31916825Y-33223686D01*
X31916824Y-33223686D01*
X31916821Y-33223687D01*
X31791804Y-33236000D01*
X31708196Y-33236000D01*
X31583179Y-33223687D01*
X31583176Y-33223686D01*
X31583175Y-33223686D01*
X31422761Y-33175025D01*
X31422759Y-33175024D01*
X31422756Y-33175023D01*
X31274922Y-33096005D01*
X31145341Y-32989659D01*
X31038995Y-32860078D01*
X30959977Y-32712244D01*
X30924682Y-32595891D01*
X30911314Y-32551825D01*
X30911314Y-32551824D01*
X30911313Y-32551821D01*
X30894883Y-32385000D01*
X30911313Y-32218179D01*
X30959977Y-32057756D01*
X31038995Y-31909922D01*
X31145341Y-31780341D01*
X31274922Y-31673995D01*
X31422756Y-31594977D01*
X31422759Y-31594976D01*
X31422761Y-31594975D01*
X31583175Y-31546314D01*
X31583176Y-31546314D01*
X31583179Y-31546313D01*
X31708196Y-31534000D01*
X31791804Y-31534000D01*
X31916821Y-31546313D01*
X31916821Y-31546313D01*
G37*
G36*
X9056821Y-31546313D02*
X9056824Y-31546314D01*
X9056825Y-31546314D01*
X9217239Y-31594975D01*
X9217241Y-31594976D01*
X9217244Y-31594977D01*
X9365078Y-31673995D01*
X9494659Y-31780341D01*
X9601005Y-31909922D01*
X9680023Y-32057756D01*
X9728687Y-32218179D01*
X9745117Y-32385000D01*
X9728687Y-32551821D01*
X9728686Y-32551824D01*
X9728686Y-32551825D01*
X9715319Y-32595891D01*
X9680023Y-32712244D01*
X9601005Y-32860078D01*
X9494659Y-32989659D01*
X9365078Y-33096005D01*
X9217244Y-33175023D01*
X9217241Y-33175024D01*
X9217239Y-33175025D01*
X9056825Y-33223686D01*
X9056824Y-33223686D01*
X9056821Y-33223687D01*
X8931804Y-33236000D01*
X8848196Y-33236000D01*
X8723179Y-33223687D01*
X8723176Y-33223686D01*
X8723175Y-33223686D01*
X8562761Y-33175025D01*
X8562759Y-33175024D01*
X8562756Y-33175023D01*
X8414922Y-33096005D01*
X8285341Y-32989659D01*
X8178995Y-32860078D01*
X8099977Y-32712244D01*
X8064682Y-32595891D01*
X8051314Y-32551825D01*
X8051314Y-32551824D01*
X8051313Y-32551821D01*
X8034883Y-32385000D01*
X8051313Y-32218179D01*
X8099977Y-32057756D01*
X8178995Y-31909922D01*
X8285341Y-31780341D01*
X8414922Y-31673995D01*
X8562756Y-31594977D01*
X8562759Y-31594976D01*
X8562761Y-31594975D01*
X8723175Y-31546314D01*
X8723176Y-31546314D01*
X8723179Y-31546313D01*
X8848196Y-31534000D01*
X8931804Y-31534000D01*
X9056821Y-31546313D01*
X9056821Y-31546313D01*
G37*
G36*
X91791742Y-31198418D02*
X91857927Y-31204937D01*
X91971153Y-31239284D01*
X92027767Y-31256457D01*
X92166387Y-31330552D01*
X92184291Y-31340122D01*
X92220029Y-31369452D01*
X92321486Y-31452714D01*
X92398300Y-31546314D01*
X92434078Y-31589909D01*
X92434079Y-31589911D01*
X92517743Y-31746433D01*
X92517743Y-31746434D01*
X92569263Y-31916273D01*
X92586659Y-32092900D01*
X92569263Y-32269527D01*
X92534916Y-32382753D01*
X92517743Y-32439367D01*
X92457634Y-32551821D01*
X92434078Y-32595891D01*
X92404748Y-32631629D01*
X92321486Y-32733086D01*
X92220029Y-32816348D01*
X92184291Y-32845678D01*
X92184289Y-32845679D01*
X92027767Y-32929343D01*
X91971153Y-32946516D01*
X91857927Y-32980863D01*
X91791742Y-32987382D01*
X91725560Y-32993900D01*
X91637040Y-32993900D01*
X91570858Y-32987382D01*
X91504673Y-32980863D01*
X91391447Y-32946516D01*
X91334833Y-32929343D01*
X91178311Y-32845679D01*
X91178309Y-32845678D01*
X91142571Y-32816348D01*
X91041114Y-32733086D01*
X90957852Y-32631629D01*
X90928522Y-32595891D01*
X90904966Y-32551821D01*
X90844857Y-32439367D01*
X90827684Y-32382753D01*
X90793337Y-32269527D01*
X90775941Y-32092900D01*
X90793337Y-31916273D01*
X90844857Y-31746434D01*
X90844857Y-31746433D01*
X90928521Y-31589911D01*
X90928522Y-31589909D01*
X90964300Y-31546314D01*
X91041114Y-31452714D01*
X91142571Y-31369452D01*
X91178309Y-31340122D01*
X91196213Y-31330552D01*
X91334833Y-31256457D01*
X91391447Y-31239284D01*
X91504673Y-31204937D01*
X91570858Y-31198418D01*
X91637040Y-31191900D01*
X91725560Y-31191900D01*
X91791742Y-31198418D01*
X91791742Y-31198418D01*
G37*
G36*
X83560228Y-29153703D02*
X83715100Y-29217853D01*
X83854481Y-29310985D01*
X83973015Y-29429519D01*
X84066147Y-29568900D01*
X84130297Y-29723772D01*
X84163000Y-29888184D01*
X84163000Y-30055816D01*
X84130297Y-30220228D01*
X84066147Y-30375100D01*
X83973015Y-30514481D01*
X83854481Y-30633015D01*
X83715100Y-30726147D01*
X83560228Y-30790297D01*
X83395816Y-30823000D01*
X83228184Y-30823000D01*
X83063772Y-30790297D01*
X82908900Y-30726147D01*
X82769519Y-30633015D01*
X82650985Y-30514481D01*
X82557853Y-30375100D01*
X82493703Y-30220228D01*
X82461000Y-30055816D01*
X82461000Y-29888184D01*
X82493703Y-29723772D01*
X82557853Y-29568900D01*
X82650985Y-29429519D01*
X82769519Y-29310985D01*
X82908900Y-29217853D01*
X83063772Y-29153703D01*
X83228184Y-29121000D01*
X83395816Y-29121000D01*
X83560228Y-29153703D01*
X83560228Y-29153703D01*
G37*
G36*
X68320228Y-29153703D02*
X68475100Y-29217853D01*
X68614481Y-29310985D01*
X68733015Y-29429519D01*
X68826147Y-29568900D01*
X68890297Y-29723772D01*
X68923000Y-29888184D01*
X68923000Y-30055816D01*
X68890297Y-30220228D01*
X68826147Y-30375100D01*
X68733015Y-30514481D01*
X68614481Y-30633015D01*
X68475100Y-30726147D01*
X68320228Y-30790297D01*
X68155816Y-30823000D01*
X67988184Y-30823000D01*
X67823772Y-30790297D01*
X67668900Y-30726147D01*
X67529519Y-30633015D01*
X67410985Y-30514481D01*
X67317853Y-30375100D01*
X67253703Y-30220228D01*
X67221000Y-30055816D01*
X67221000Y-29888184D01*
X67253703Y-29723772D01*
X67317853Y-29568900D01*
X67410985Y-29429519D01*
X67529519Y-29310985D01*
X67668900Y-29217853D01*
X67823772Y-29153703D01*
X67988184Y-29121000D01*
X68155816Y-29121000D01*
X68320228Y-29153703D01*
X68320228Y-29153703D01*
G37*
G36*
X47156821Y-29006313D02*
X47156824Y-29006314D01*
X47156825Y-29006314D01*
X47317239Y-29054975D01*
X47317241Y-29054976D01*
X47317244Y-29054977D01*
X47465078Y-29133995D01*
X47594659Y-29240341D01*
X47701005Y-29369922D01*
X47780023Y-29517756D01*
X47780024Y-29517759D01*
X47780025Y-29517761D01*
X47828686Y-29678175D01*
X47828687Y-29678179D01*
X47845117Y-29845000D01*
X47828687Y-30011821D01*
X47828686Y-30011824D01*
X47828686Y-30011825D01*
X47815319Y-30055891D01*
X47780023Y-30172244D01*
X47701005Y-30320078D01*
X47594659Y-30449659D01*
X47465078Y-30556005D01*
X47317244Y-30635023D01*
X47317241Y-30635024D01*
X47317239Y-30635025D01*
X47156825Y-30683686D01*
X47156824Y-30683686D01*
X47156821Y-30683687D01*
X47031804Y-30696000D01*
X46948196Y-30696000D01*
X46823179Y-30683687D01*
X46823176Y-30683686D01*
X46823175Y-30683686D01*
X46662761Y-30635025D01*
X46662759Y-30635024D01*
X46662756Y-30635023D01*
X46514922Y-30556005D01*
X46385341Y-30449659D01*
X46278995Y-30320078D01*
X46199977Y-30172244D01*
X46164682Y-30055891D01*
X46151314Y-30011825D01*
X46151314Y-30011824D01*
X46151313Y-30011821D01*
X46134883Y-29845000D01*
X46151313Y-29678179D01*
X46151314Y-29678175D01*
X46199975Y-29517761D01*
X46199976Y-29517759D01*
X46199977Y-29517756D01*
X46278995Y-29369922D01*
X46385341Y-29240341D01*
X46514922Y-29133995D01*
X46662756Y-29054977D01*
X46662759Y-29054976D01*
X46662761Y-29054975D01*
X46823175Y-29006314D01*
X46823176Y-29006314D01*
X46823179Y-29006313D01*
X46948196Y-28994000D01*
X47031804Y-28994000D01*
X47156821Y-29006313D01*
X47156821Y-29006313D01*
G37*
G36*
X9056821Y-29006313D02*
X9056824Y-29006314D01*
X9056825Y-29006314D01*
X9217239Y-29054975D01*
X9217241Y-29054976D01*
X9217244Y-29054977D01*
X9365078Y-29133995D01*
X9494659Y-29240341D01*
X9601005Y-29369922D01*
X9680023Y-29517756D01*
X9680024Y-29517759D01*
X9680025Y-29517761D01*
X9728686Y-29678175D01*
X9728687Y-29678179D01*
X9745117Y-29845000D01*
X9728687Y-30011821D01*
X9728686Y-30011824D01*
X9728686Y-30011825D01*
X9715319Y-30055891D01*
X9680023Y-30172244D01*
X9601005Y-30320078D01*
X9494659Y-30449659D01*
X9365078Y-30556005D01*
X9217244Y-30635023D01*
X9217241Y-30635024D01*
X9217239Y-30635025D01*
X9056825Y-30683686D01*
X9056824Y-30683686D01*
X9056821Y-30683687D01*
X8931804Y-30696000D01*
X8848196Y-30696000D01*
X8723179Y-30683687D01*
X8723176Y-30683686D01*
X8723175Y-30683686D01*
X8562761Y-30635025D01*
X8562759Y-30635024D01*
X8562756Y-30635023D01*
X8414922Y-30556005D01*
X8285341Y-30449659D01*
X8178995Y-30320078D01*
X8099977Y-30172244D01*
X8064682Y-30055891D01*
X8051314Y-30011825D01*
X8051314Y-30011824D01*
X8051313Y-30011821D01*
X8034883Y-29845000D01*
X8051313Y-29678179D01*
X8051314Y-29678175D01*
X8099975Y-29517761D01*
X8099976Y-29517759D01*
X8099977Y-29517756D01*
X8178995Y-29369922D01*
X8285341Y-29240341D01*
X8414922Y-29133995D01*
X8562756Y-29054977D01*
X8562759Y-29054976D01*
X8562761Y-29054975D01*
X8723175Y-29006314D01*
X8723176Y-29006314D01*
X8723179Y-29006313D01*
X8848196Y-28994000D01*
X8931804Y-28994000D01*
X9056821Y-29006313D01*
X9056821Y-29006313D01*
G37*
G36*
X24296821Y-29006313D02*
X24296824Y-29006314D01*
X24296825Y-29006314D01*
X24457239Y-29054975D01*
X24457241Y-29054976D01*
X24457244Y-29054977D01*
X24605078Y-29133995D01*
X24734659Y-29240341D01*
X24841005Y-29369922D01*
X24920023Y-29517756D01*
X24920024Y-29517759D01*
X24920025Y-29517761D01*
X24968686Y-29678175D01*
X24968687Y-29678179D01*
X24985117Y-29845000D01*
X24968687Y-30011821D01*
X24968686Y-30011824D01*
X24968686Y-30011825D01*
X24955319Y-30055891D01*
X24920023Y-30172244D01*
X24841005Y-30320078D01*
X24734659Y-30449659D01*
X24605078Y-30556005D01*
X24457244Y-30635023D01*
X24457241Y-30635024D01*
X24457239Y-30635025D01*
X24296825Y-30683686D01*
X24296824Y-30683686D01*
X24296821Y-30683687D01*
X24171804Y-30696000D01*
X24088196Y-30696000D01*
X23963179Y-30683687D01*
X23963176Y-30683686D01*
X23963175Y-30683686D01*
X23802761Y-30635025D01*
X23802759Y-30635024D01*
X23802756Y-30635023D01*
X23654922Y-30556005D01*
X23525341Y-30449659D01*
X23418995Y-30320078D01*
X23339977Y-30172244D01*
X23304682Y-30055891D01*
X23291314Y-30011825D01*
X23291314Y-30011824D01*
X23291313Y-30011821D01*
X23274883Y-29845000D01*
X23291313Y-29678179D01*
X23291314Y-29678175D01*
X23339975Y-29517761D01*
X23339976Y-29517759D01*
X23339977Y-29517756D01*
X23418995Y-29369922D01*
X23525341Y-29240341D01*
X23654922Y-29133995D01*
X23802756Y-29054977D01*
X23802759Y-29054976D01*
X23802761Y-29054975D01*
X23963175Y-29006314D01*
X23963176Y-29006314D01*
X23963179Y-29006313D01*
X24088196Y-28994000D01*
X24171804Y-28994000D01*
X24296821Y-29006313D01*
X24296821Y-29006313D01*
G37*
G36*
X31916821Y-29006313D02*
X31916824Y-29006314D01*
X31916825Y-29006314D01*
X32077239Y-29054975D01*
X32077241Y-29054976D01*
X32077244Y-29054977D01*
X32225078Y-29133995D01*
X32354659Y-29240341D01*
X32461005Y-29369922D01*
X32540023Y-29517756D01*
X32540024Y-29517759D01*
X32540025Y-29517761D01*
X32588686Y-29678175D01*
X32588687Y-29678179D01*
X32605117Y-29845000D01*
X32588687Y-30011821D01*
X32588686Y-30011824D01*
X32588686Y-30011825D01*
X32575319Y-30055891D01*
X32540023Y-30172244D01*
X32461005Y-30320078D01*
X32354659Y-30449659D01*
X32225078Y-30556005D01*
X32077244Y-30635023D01*
X32077241Y-30635024D01*
X32077239Y-30635025D01*
X31916825Y-30683686D01*
X31916824Y-30683686D01*
X31916821Y-30683687D01*
X31791804Y-30696000D01*
X31708196Y-30696000D01*
X31583179Y-30683687D01*
X31583176Y-30683686D01*
X31583175Y-30683686D01*
X31422761Y-30635025D01*
X31422759Y-30635024D01*
X31422756Y-30635023D01*
X31274922Y-30556005D01*
X31145341Y-30449659D01*
X31038995Y-30320078D01*
X30959977Y-30172244D01*
X30924682Y-30055891D01*
X30911314Y-30011825D01*
X30911314Y-30011824D01*
X30911313Y-30011821D01*
X30894883Y-29845000D01*
X30911313Y-29678179D01*
X30911314Y-29678175D01*
X30959975Y-29517761D01*
X30959976Y-29517759D01*
X30959977Y-29517756D01*
X31038995Y-29369922D01*
X31145341Y-29240341D01*
X31274922Y-29133995D01*
X31422756Y-29054977D01*
X31422759Y-29054976D01*
X31422761Y-29054975D01*
X31583175Y-29006314D01*
X31583176Y-29006314D01*
X31583179Y-29006313D01*
X31708196Y-28994000D01*
X31791804Y-28994000D01*
X31916821Y-29006313D01*
X31916821Y-29006313D01*
G37*
G36*
X91791742Y-28658418D02*
X91857927Y-28664937D01*
X91971153Y-28699284D01*
X92027767Y-28716457D01*
X92166387Y-28790552D01*
X92184291Y-28800122D01*
X92220029Y-28829452D01*
X92321486Y-28912714D01*
X92398300Y-29006314D01*
X92434078Y-29049909D01*
X92434079Y-29049911D01*
X92517743Y-29206433D01*
X92517743Y-29206434D01*
X92569263Y-29376273D01*
X92586659Y-29552900D01*
X92569263Y-29729527D01*
X92534916Y-29842753D01*
X92517743Y-29899367D01*
X92457634Y-30011821D01*
X92434078Y-30055891D01*
X92404748Y-30091629D01*
X92321486Y-30193086D01*
X92220029Y-30276348D01*
X92184291Y-30305678D01*
X92184289Y-30305679D01*
X92027767Y-30389343D01*
X91971153Y-30406516D01*
X91857927Y-30440863D01*
X91791742Y-30447382D01*
X91725560Y-30453900D01*
X91637040Y-30453900D01*
X91570858Y-30447382D01*
X91504673Y-30440863D01*
X91391447Y-30406516D01*
X91334833Y-30389343D01*
X91178311Y-30305679D01*
X91178309Y-30305678D01*
X91142571Y-30276348D01*
X91041114Y-30193086D01*
X90957852Y-30091629D01*
X90928522Y-30055891D01*
X90904966Y-30011821D01*
X90844857Y-29899367D01*
X90827684Y-29842753D01*
X90793337Y-29729527D01*
X90775941Y-29552900D01*
X90793337Y-29376273D01*
X90844857Y-29206434D01*
X90844857Y-29206433D01*
X90928521Y-29049911D01*
X90928522Y-29049909D01*
X90964300Y-29006314D01*
X91041114Y-28912714D01*
X91142571Y-28829452D01*
X91178309Y-28800122D01*
X91196213Y-28790552D01*
X91334833Y-28716457D01*
X91391447Y-28699284D01*
X91504673Y-28664937D01*
X91570858Y-28658418D01*
X91637040Y-28651900D01*
X91725560Y-28651900D01*
X91791742Y-28658418D01*
X91791742Y-28658418D01*
G37*
G36*
X24296821Y-26466313D02*
X24296824Y-26466314D01*
X24296825Y-26466314D01*
X24457239Y-26514975D01*
X24457241Y-26514976D01*
X24457244Y-26514977D01*
X24605078Y-26593995D01*
X24734659Y-26700341D01*
X24841005Y-26829922D01*
X24920023Y-26977756D01*
X24968687Y-27138179D01*
X24985117Y-27305000D01*
X24968687Y-27471821D01*
X24968686Y-27471824D01*
X24968686Y-27471825D01*
X24955319Y-27515891D01*
X24920023Y-27632244D01*
X24841005Y-27780078D01*
X24734659Y-27909659D01*
X24605078Y-28016005D01*
X24457244Y-28095023D01*
X24457241Y-28095024D01*
X24457239Y-28095025D01*
X24296825Y-28143686D01*
X24296824Y-28143686D01*
X24296821Y-28143687D01*
X24171804Y-28156000D01*
X24088196Y-28156000D01*
X23963179Y-28143687D01*
X23963176Y-28143686D01*
X23963175Y-28143686D01*
X23802761Y-28095025D01*
X23802759Y-28095024D01*
X23802756Y-28095023D01*
X23654922Y-28016005D01*
X23525341Y-27909659D01*
X23418995Y-27780078D01*
X23339977Y-27632244D01*
X23304682Y-27515891D01*
X23291314Y-27471825D01*
X23291314Y-27471824D01*
X23291313Y-27471821D01*
X23274883Y-27305000D01*
X23291313Y-27138179D01*
X23339977Y-26977756D01*
X23418995Y-26829922D01*
X23525341Y-26700341D01*
X23654922Y-26593995D01*
X23802756Y-26514977D01*
X23802759Y-26514976D01*
X23802761Y-26514975D01*
X23963175Y-26466314D01*
X23963176Y-26466314D01*
X23963179Y-26466313D01*
X24088196Y-26454000D01*
X24171804Y-26454000D01*
X24296821Y-26466313D01*
X24296821Y-26466313D01*
G37*
G36*
X31916821Y-26466313D02*
X31916824Y-26466314D01*
X31916825Y-26466314D01*
X32077239Y-26514975D01*
X32077241Y-26514976D01*
X32077244Y-26514977D01*
X32225078Y-26593995D01*
X32354659Y-26700341D01*
X32461005Y-26829922D01*
X32540023Y-26977756D01*
X32588687Y-27138179D01*
X32605117Y-27305000D01*
X32588687Y-27471821D01*
X32588686Y-27471824D01*
X32588686Y-27471825D01*
X32575319Y-27515891D01*
X32540023Y-27632244D01*
X32461005Y-27780078D01*
X32354659Y-27909659D01*
X32225078Y-28016005D01*
X32077244Y-28095023D01*
X32077241Y-28095024D01*
X32077239Y-28095025D01*
X31916825Y-28143686D01*
X31916824Y-28143686D01*
X31916821Y-28143687D01*
X31791804Y-28156000D01*
X31708196Y-28156000D01*
X31583179Y-28143687D01*
X31583176Y-28143686D01*
X31583175Y-28143686D01*
X31422761Y-28095025D01*
X31422759Y-28095024D01*
X31422756Y-28095023D01*
X31274922Y-28016005D01*
X31145341Y-27909659D01*
X31038995Y-27780078D01*
X30959977Y-27632244D01*
X30924682Y-27515891D01*
X30911314Y-27471825D01*
X30911314Y-27471824D01*
X30911313Y-27471821D01*
X30894883Y-27305000D01*
X30911313Y-27138179D01*
X30959977Y-26977756D01*
X31038995Y-26829922D01*
X31145341Y-26700341D01*
X31274922Y-26593995D01*
X31422756Y-26514977D01*
X31422759Y-26514976D01*
X31422761Y-26514975D01*
X31583175Y-26466314D01*
X31583176Y-26466314D01*
X31583179Y-26466313D01*
X31708196Y-26454000D01*
X31791804Y-26454000D01*
X31916821Y-26466313D01*
X31916821Y-26466313D01*
G37*
G36*
X47156821Y-26466313D02*
X47156824Y-26466314D01*
X47156825Y-26466314D01*
X47317239Y-26514975D01*
X47317241Y-26514976D01*
X47317244Y-26514977D01*
X47465078Y-26593995D01*
X47594659Y-26700341D01*
X47701005Y-26829922D01*
X47780023Y-26977756D01*
X47828687Y-27138179D01*
X47845117Y-27305000D01*
X47828687Y-27471821D01*
X47828686Y-27471824D01*
X47828686Y-27471825D01*
X47815319Y-27515891D01*
X47780023Y-27632244D01*
X47701005Y-27780078D01*
X47594659Y-27909659D01*
X47465078Y-28016005D01*
X47317244Y-28095023D01*
X47317241Y-28095024D01*
X47317239Y-28095025D01*
X47156825Y-28143686D01*
X47156824Y-28143686D01*
X47156821Y-28143687D01*
X47031804Y-28156000D01*
X46948196Y-28156000D01*
X46823179Y-28143687D01*
X46823176Y-28143686D01*
X46823175Y-28143686D01*
X46662761Y-28095025D01*
X46662759Y-28095024D01*
X46662756Y-28095023D01*
X46514922Y-28016005D01*
X46385341Y-27909659D01*
X46278995Y-27780078D01*
X46199977Y-27632244D01*
X46164682Y-27515891D01*
X46151314Y-27471825D01*
X46151314Y-27471824D01*
X46151313Y-27471821D01*
X46134883Y-27305000D01*
X46151313Y-27138179D01*
X46199977Y-26977756D01*
X46278995Y-26829922D01*
X46385341Y-26700341D01*
X46514922Y-26593995D01*
X46662756Y-26514977D01*
X46662759Y-26514976D01*
X46662761Y-26514975D01*
X46823175Y-26466314D01*
X46823176Y-26466314D01*
X46823179Y-26466313D01*
X46948196Y-26454000D01*
X47031804Y-26454000D01*
X47156821Y-26466313D01*
X47156821Y-26466313D01*
G37*
G36*
X9056821Y-26466313D02*
X9056824Y-26466314D01*
X9056825Y-26466314D01*
X9217239Y-26514975D01*
X9217241Y-26514976D01*
X9217244Y-26514977D01*
X9365078Y-26593995D01*
X9494659Y-26700341D01*
X9601005Y-26829922D01*
X9680023Y-26977756D01*
X9728687Y-27138179D01*
X9745117Y-27305000D01*
X9728687Y-27471821D01*
X9728686Y-27471824D01*
X9728686Y-27471825D01*
X9715319Y-27515891D01*
X9680023Y-27632244D01*
X9601005Y-27780078D01*
X9494659Y-27909659D01*
X9365078Y-28016005D01*
X9217244Y-28095023D01*
X9217241Y-28095024D01*
X9217239Y-28095025D01*
X9056825Y-28143686D01*
X9056824Y-28143686D01*
X9056821Y-28143687D01*
X8931804Y-28156000D01*
X8848196Y-28156000D01*
X8723179Y-28143687D01*
X8723176Y-28143686D01*
X8723175Y-28143686D01*
X8562761Y-28095025D01*
X8562759Y-28095024D01*
X8562756Y-28095023D01*
X8414922Y-28016005D01*
X8285341Y-27909659D01*
X8178995Y-27780078D01*
X8099977Y-27632244D01*
X8064682Y-27515891D01*
X8051314Y-27471825D01*
X8051314Y-27471824D01*
X8051313Y-27471821D01*
X8034883Y-27305000D01*
X8051313Y-27138179D01*
X8099977Y-26977756D01*
X8178995Y-26829922D01*
X8285341Y-26700341D01*
X8414922Y-26593995D01*
X8562756Y-26514977D01*
X8562759Y-26514976D01*
X8562761Y-26514975D01*
X8723175Y-26466314D01*
X8723176Y-26466314D01*
X8723179Y-26466313D01*
X8848196Y-26454000D01*
X8931804Y-26454000D01*
X9056821Y-26466313D01*
X9056821Y-26466313D01*
G37*
G36*
X91791742Y-26118418D02*
X91857927Y-26124937D01*
X91971153Y-26159284D01*
X92027767Y-26176457D01*
X92166387Y-26250552D01*
X92184291Y-26260122D01*
X92220029Y-26289452D01*
X92321486Y-26372714D01*
X92398300Y-26466314D01*
X92434078Y-26509909D01*
X92434079Y-26509911D01*
X92517743Y-26666433D01*
X92517743Y-26666434D01*
X92569263Y-26836273D01*
X92586659Y-27012900D01*
X92569263Y-27189527D01*
X92534916Y-27302753D01*
X92517743Y-27359367D01*
X92457634Y-27471821D01*
X92434078Y-27515891D01*
X92404748Y-27551629D01*
X92321486Y-27653086D01*
X92220029Y-27736348D01*
X92184291Y-27765678D01*
X92184289Y-27765679D01*
X92027767Y-27849343D01*
X91971153Y-27866516D01*
X91857927Y-27900863D01*
X91791742Y-27907382D01*
X91725560Y-27913900D01*
X91637040Y-27913900D01*
X91570858Y-27907382D01*
X91504673Y-27900863D01*
X91391447Y-27866516D01*
X91334833Y-27849343D01*
X91178311Y-27765679D01*
X91178309Y-27765678D01*
X91142571Y-27736348D01*
X91041114Y-27653086D01*
X90957852Y-27551629D01*
X90928522Y-27515891D01*
X90904966Y-27471821D01*
X90844857Y-27359367D01*
X90827684Y-27302753D01*
X90793337Y-27189527D01*
X90775941Y-27012900D01*
X90793337Y-26836273D01*
X90844857Y-26666434D01*
X90844857Y-26666433D01*
X90928521Y-26509911D01*
X90928522Y-26509909D01*
X90964300Y-26466314D01*
X91041114Y-26372714D01*
X91142571Y-26289452D01*
X91178309Y-26260122D01*
X91196213Y-26250552D01*
X91334833Y-26176457D01*
X91391447Y-26159284D01*
X91504673Y-26124937D01*
X91570858Y-26118418D01*
X91637040Y-26111900D01*
X91725560Y-26111900D01*
X91791742Y-26118418D01*
X91791742Y-26118418D01*
G37*
G36*
X24296821Y-23926313D02*
X24296824Y-23926314D01*
X24296825Y-23926314D01*
X24457239Y-23974975D01*
X24457241Y-23974976D01*
X24457244Y-23974977D01*
X24605078Y-24053995D01*
X24734659Y-24160341D01*
X24841005Y-24289922D01*
X24920023Y-24437756D01*
X24968687Y-24598179D01*
X24985117Y-24765000D01*
X24968687Y-24931821D01*
X24920023Y-25092244D01*
X24841005Y-25240078D01*
X24734659Y-25369659D01*
X24605078Y-25476005D01*
X24457244Y-25555023D01*
X24457241Y-25555024D01*
X24457239Y-25555025D01*
X24296825Y-25603686D01*
X24296824Y-25603686D01*
X24296821Y-25603687D01*
X24171804Y-25616000D01*
X24088196Y-25616000D01*
X23963179Y-25603687D01*
X23963176Y-25603686D01*
X23963175Y-25603686D01*
X23802761Y-25555025D01*
X23802759Y-25555024D01*
X23802756Y-25555023D01*
X23654922Y-25476005D01*
X23525341Y-25369659D01*
X23418995Y-25240078D01*
X23339977Y-25092244D01*
X23291313Y-24931821D01*
X23274883Y-24765000D01*
X23291313Y-24598179D01*
X23339977Y-24437756D01*
X23418995Y-24289922D01*
X23525341Y-24160341D01*
X23654922Y-24053995D01*
X23802756Y-23974977D01*
X23802759Y-23974976D01*
X23802761Y-23974975D01*
X23963175Y-23926314D01*
X23963176Y-23926314D01*
X23963179Y-23926313D01*
X24088196Y-23914000D01*
X24171804Y-23914000D01*
X24296821Y-23926313D01*
X24296821Y-23926313D01*
G37*
G36*
X9056821Y-23926313D02*
X9056824Y-23926314D01*
X9056825Y-23926314D01*
X9217239Y-23974975D01*
X9217241Y-23974976D01*
X9217244Y-23974977D01*
X9365078Y-24053995D01*
X9494659Y-24160341D01*
X9601005Y-24289922D01*
X9680023Y-24437756D01*
X9728687Y-24598179D01*
X9745117Y-24765000D01*
X9728687Y-24931821D01*
X9680023Y-25092244D01*
X9601005Y-25240078D01*
X9494659Y-25369659D01*
X9365078Y-25476005D01*
X9217244Y-25555023D01*
X9217241Y-25555024D01*
X9217239Y-25555025D01*
X9056825Y-25603686D01*
X9056824Y-25603686D01*
X9056821Y-25603687D01*
X8931804Y-25616000D01*
X8848196Y-25616000D01*
X8723179Y-25603687D01*
X8723176Y-25603686D01*
X8723175Y-25603686D01*
X8562761Y-25555025D01*
X8562759Y-25555024D01*
X8562756Y-25555023D01*
X8414922Y-25476005D01*
X8285341Y-25369659D01*
X8178995Y-25240078D01*
X8099977Y-25092244D01*
X8051313Y-24931821D01*
X8034883Y-24765000D01*
X8051313Y-24598179D01*
X8099977Y-24437756D01*
X8178995Y-24289922D01*
X8285341Y-24160341D01*
X8414922Y-24053995D01*
X8562756Y-23974977D01*
X8562759Y-23974976D01*
X8562761Y-23974975D01*
X8723175Y-23926314D01*
X8723176Y-23926314D01*
X8723179Y-23926313D01*
X8848196Y-23914000D01*
X8931804Y-23914000D01*
X9056821Y-23926313D01*
X9056821Y-23926313D01*
G37*
G36*
X47156821Y-23926313D02*
X47156824Y-23926314D01*
X47156825Y-23926314D01*
X47317239Y-23974975D01*
X47317241Y-23974976D01*
X47317244Y-23974977D01*
X47465078Y-24053995D01*
X47594659Y-24160341D01*
X47701005Y-24289922D01*
X47780023Y-24437756D01*
X47828687Y-24598179D01*
X47845117Y-24765000D01*
X47828687Y-24931821D01*
X47780023Y-25092244D01*
X47701005Y-25240078D01*
X47594659Y-25369659D01*
X47465078Y-25476005D01*
X47317244Y-25555023D01*
X47317241Y-25555024D01*
X47317239Y-25555025D01*
X47156825Y-25603686D01*
X47156824Y-25603686D01*
X47156821Y-25603687D01*
X47031804Y-25616000D01*
X46948196Y-25616000D01*
X46823179Y-25603687D01*
X46823176Y-25603686D01*
X46823175Y-25603686D01*
X46662761Y-25555025D01*
X46662759Y-25555024D01*
X46662756Y-25555023D01*
X46514922Y-25476005D01*
X46385341Y-25369659D01*
X46278995Y-25240078D01*
X46199977Y-25092244D01*
X46151313Y-24931821D01*
X46134883Y-24765000D01*
X46151313Y-24598179D01*
X46199977Y-24437756D01*
X46278995Y-24289922D01*
X46385341Y-24160341D01*
X46514922Y-24053995D01*
X46662756Y-23974977D01*
X46662759Y-23974976D01*
X46662761Y-23974975D01*
X46823175Y-23926314D01*
X46823176Y-23926314D01*
X46823179Y-23926313D01*
X46948196Y-23914000D01*
X47031804Y-23914000D01*
X47156821Y-23926313D01*
X47156821Y-23926313D01*
G37*
G36*
X31916821Y-23926313D02*
X31916824Y-23926314D01*
X31916825Y-23926314D01*
X32077239Y-23974975D01*
X32077241Y-23974976D01*
X32077244Y-23974977D01*
X32225078Y-24053995D01*
X32354659Y-24160341D01*
X32461005Y-24289922D01*
X32540023Y-24437756D01*
X32588687Y-24598179D01*
X32605117Y-24765000D01*
X32588687Y-24931821D01*
X32540023Y-25092244D01*
X32461005Y-25240078D01*
X32354659Y-25369659D01*
X32225078Y-25476005D01*
X32077244Y-25555023D01*
X32077241Y-25555024D01*
X32077239Y-25555025D01*
X31916825Y-25603686D01*
X31916824Y-25603686D01*
X31916821Y-25603687D01*
X31791804Y-25616000D01*
X31708196Y-25616000D01*
X31583179Y-25603687D01*
X31583176Y-25603686D01*
X31583175Y-25603686D01*
X31422761Y-25555025D01*
X31422759Y-25555024D01*
X31422756Y-25555023D01*
X31274922Y-25476005D01*
X31145341Y-25369659D01*
X31038995Y-25240078D01*
X30959977Y-25092244D01*
X30911313Y-24931821D01*
X30894883Y-24765000D01*
X30911313Y-24598179D01*
X30959977Y-24437756D01*
X31038995Y-24289922D01*
X31145341Y-24160341D01*
X31274922Y-24053995D01*
X31422756Y-23974977D01*
X31422759Y-23974976D01*
X31422761Y-23974975D01*
X31583175Y-23926314D01*
X31583176Y-23926314D01*
X31583179Y-23926313D01*
X31708196Y-23914000D01*
X31791804Y-23914000D01*
X31916821Y-23926313D01*
X31916821Y-23926313D01*
G37*
G36*
X92582300Y-25373900D02*
X90780300Y-25373900D01*
X90780300Y-23571900D01*
X92582300Y-23571900D01*
X92582300Y-25373900D01*
X92582300Y-25373900D01*
G37*
G36*
X84163000Y-23203000D02*
X82461000Y-23203000D01*
X82461000Y-21501000D01*
X84163000Y-21501000D01*
X84163000Y-23203000D01*
X84163000Y-23203000D01*
G37*
G36*
X68320228Y-21533703D02*
X68475100Y-21597853D01*
X68614481Y-21690985D01*
X68733015Y-21809519D01*
X68826147Y-21948900D01*
X68890297Y-22103772D01*
X68923000Y-22268184D01*
X68923000Y-22435816D01*
X68890297Y-22600228D01*
X68826147Y-22755100D01*
X68733015Y-22894481D01*
X68614481Y-23013015D01*
X68475100Y-23106147D01*
X68320228Y-23170297D01*
X68155816Y-23203000D01*
X67988184Y-23203000D01*
X67823772Y-23170297D01*
X67668900Y-23106147D01*
X67529519Y-23013015D01*
X67410985Y-22894481D01*
X67317853Y-22755100D01*
X67253703Y-22600228D01*
X67221000Y-22435816D01*
X67221000Y-22268184D01*
X67253703Y-22103772D01*
X67317853Y-21948900D01*
X67410985Y-21809519D01*
X67529519Y-21690985D01*
X67668900Y-21597853D01*
X67823772Y-21533703D01*
X67988184Y-21501000D01*
X68155816Y-21501000D01*
X68320228Y-21533703D01*
X68320228Y-21533703D01*
G37*
G36*
X9056821Y-21386313D02*
X9056824Y-21386314D01*
X9056825Y-21386314D01*
X9217239Y-21434975D01*
X9217241Y-21434976D01*
X9217244Y-21434977D01*
X9365078Y-21513995D01*
X9494659Y-21620341D01*
X9601005Y-21749922D01*
X9680023Y-21897756D01*
X9680024Y-21897759D01*
X9680025Y-21897761D01*
X9728686Y-22058175D01*
X9728687Y-22058179D01*
X9745117Y-22225000D01*
X9728687Y-22391821D01*
X9680023Y-22552244D01*
X9601005Y-22700078D01*
X9494659Y-22829659D01*
X9365078Y-22936005D01*
X9217244Y-23015023D01*
X9217241Y-23015024D01*
X9217239Y-23015025D01*
X9056825Y-23063686D01*
X9056824Y-23063686D01*
X9056821Y-23063687D01*
X8931804Y-23076000D01*
X8848196Y-23076000D01*
X8723179Y-23063687D01*
X8723176Y-23063686D01*
X8723175Y-23063686D01*
X8562761Y-23015025D01*
X8562759Y-23015024D01*
X8562756Y-23015023D01*
X8414922Y-22936005D01*
X8285341Y-22829659D01*
X8178995Y-22700078D01*
X8099977Y-22552244D01*
X8051313Y-22391821D01*
X8034883Y-22225000D01*
X8051313Y-22058179D01*
X8051314Y-22058175D01*
X8099975Y-21897761D01*
X8099976Y-21897759D01*
X8099977Y-21897756D01*
X8178995Y-21749922D01*
X8285341Y-21620341D01*
X8414922Y-21513995D01*
X8562756Y-21434977D01*
X8562759Y-21434976D01*
X8562761Y-21434975D01*
X8723175Y-21386314D01*
X8723176Y-21386314D01*
X8723179Y-21386313D01*
X8848196Y-21374000D01*
X8931804Y-21374000D01*
X9056821Y-21386313D01*
X9056821Y-21386313D01*
G37*
G36*
X24296821Y-21386313D02*
X24296824Y-21386314D01*
X24296825Y-21386314D01*
X24457239Y-21434975D01*
X24457241Y-21434976D01*
X24457244Y-21434977D01*
X24605078Y-21513995D01*
X24734659Y-21620341D01*
X24841005Y-21749922D01*
X24920023Y-21897756D01*
X24920024Y-21897759D01*
X24920025Y-21897761D01*
X24968686Y-22058175D01*
X24968687Y-22058179D01*
X24985117Y-22225000D01*
X24968687Y-22391821D01*
X24920023Y-22552244D01*
X24841005Y-22700078D01*
X24734659Y-22829659D01*
X24605078Y-22936005D01*
X24457244Y-23015023D01*
X24457241Y-23015024D01*
X24457239Y-23015025D01*
X24296825Y-23063686D01*
X24296824Y-23063686D01*
X24296821Y-23063687D01*
X24171804Y-23076000D01*
X24088196Y-23076000D01*
X23963179Y-23063687D01*
X23963176Y-23063686D01*
X23963175Y-23063686D01*
X23802761Y-23015025D01*
X23802759Y-23015024D01*
X23802756Y-23015023D01*
X23654922Y-22936005D01*
X23525341Y-22829659D01*
X23418995Y-22700078D01*
X23339977Y-22552244D01*
X23291313Y-22391821D01*
X23274883Y-22225000D01*
X23291313Y-22058179D01*
X23291314Y-22058175D01*
X23339975Y-21897761D01*
X23339976Y-21897759D01*
X23339977Y-21897756D01*
X23418995Y-21749922D01*
X23525341Y-21620341D01*
X23654922Y-21513995D01*
X23802756Y-21434977D01*
X23802759Y-21434976D01*
X23802761Y-21434975D01*
X23963175Y-21386314D01*
X23963176Y-21386314D01*
X23963179Y-21386313D01*
X24088196Y-21374000D01*
X24171804Y-21374000D01*
X24296821Y-21386313D01*
X24296821Y-21386313D01*
G37*
G36*
X47156821Y-21386313D02*
X47156824Y-21386314D01*
X47156825Y-21386314D01*
X47317239Y-21434975D01*
X47317241Y-21434976D01*
X47317244Y-21434977D01*
X47465078Y-21513995D01*
X47594659Y-21620341D01*
X47701005Y-21749922D01*
X47780023Y-21897756D01*
X47780024Y-21897759D01*
X47780025Y-21897761D01*
X47828686Y-22058175D01*
X47828687Y-22058179D01*
X47845117Y-22225000D01*
X47828687Y-22391821D01*
X47780023Y-22552244D01*
X47701005Y-22700078D01*
X47594659Y-22829659D01*
X47465078Y-22936005D01*
X47317244Y-23015023D01*
X47317241Y-23015024D01*
X47317239Y-23015025D01*
X47156825Y-23063686D01*
X47156824Y-23063686D01*
X47156821Y-23063687D01*
X47031804Y-23076000D01*
X46948196Y-23076000D01*
X46823179Y-23063687D01*
X46823176Y-23063686D01*
X46823175Y-23063686D01*
X46662761Y-23015025D01*
X46662759Y-23015024D01*
X46662756Y-23015023D01*
X46514922Y-22936005D01*
X46385341Y-22829659D01*
X46278995Y-22700078D01*
X46199977Y-22552244D01*
X46151313Y-22391821D01*
X46134883Y-22225000D01*
X46151313Y-22058179D01*
X46151314Y-22058175D01*
X46199975Y-21897761D01*
X46199976Y-21897759D01*
X46199977Y-21897756D01*
X46278995Y-21749922D01*
X46385341Y-21620341D01*
X46514922Y-21513995D01*
X46662756Y-21434977D01*
X46662759Y-21434976D01*
X46662761Y-21434975D01*
X46823175Y-21386314D01*
X46823176Y-21386314D01*
X46823179Y-21386313D01*
X46948196Y-21374000D01*
X47031804Y-21374000D01*
X47156821Y-21386313D01*
X47156821Y-21386313D01*
G37*
G36*
X31916821Y-21386313D02*
X31916824Y-21386314D01*
X31916825Y-21386314D01*
X32077239Y-21434975D01*
X32077241Y-21434976D01*
X32077244Y-21434977D01*
X32225078Y-21513995D01*
X32354659Y-21620341D01*
X32461005Y-21749922D01*
X32540023Y-21897756D01*
X32540024Y-21897759D01*
X32540025Y-21897761D01*
X32588686Y-22058175D01*
X32588687Y-22058179D01*
X32605117Y-22225000D01*
X32588687Y-22391821D01*
X32540023Y-22552244D01*
X32461005Y-22700078D01*
X32354659Y-22829659D01*
X32225078Y-22936005D01*
X32077244Y-23015023D01*
X32077241Y-23015024D01*
X32077239Y-23015025D01*
X31916825Y-23063686D01*
X31916824Y-23063686D01*
X31916821Y-23063687D01*
X31791804Y-23076000D01*
X31708196Y-23076000D01*
X31583179Y-23063687D01*
X31583176Y-23063686D01*
X31583175Y-23063686D01*
X31422761Y-23015025D01*
X31422759Y-23015024D01*
X31422756Y-23015023D01*
X31274922Y-22936005D01*
X31145341Y-22829659D01*
X31038995Y-22700078D01*
X30959977Y-22552244D01*
X30911313Y-22391821D01*
X30894883Y-22225000D01*
X30911313Y-22058179D01*
X30911314Y-22058175D01*
X30959975Y-21897761D01*
X30959976Y-21897759D01*
X30959977Y-21897756D01*
X31038995Y-21749922D01*
X31145341Y-21620341D01*
X31274922Y-21513995D01*
X31422756Y-21434977D01*
X31422759Y-21434976D01*
X31422761Y-21434975D01*
X31583175Y-21386314D01*
X31583176Y-21386314D01*
X31583179Y-21386313D01*
X31708196Y-21374000D01*
X31791804Y-21374000D01*
X31916821Y-21386313D01*
X31916821Y-21386313D01*
G37*
G36*
X47156821Y-18846313D02*
X47156824Y-18846314D01*
X47156825Y-18846314D01*
X47317239Y-18894975D01*
X47317241Y-18894976D01*
X47317244Y-18894977D01*
X47465078Y-18973995D01*
X47594659Y-19080341D01*
X47701005Y-19209922D01*
X47780023Y-19357756D01*
X47828687Y-19518179D01*
X47845117Y-19685000D01*
X47828687Y-19851821D01*
X47780023Y-20012244D01*
X47701005Y-20160078D01*
X47594659Y-20289659D01*
X47465078Y-20396005D01*
X47317244Y-20475023D01*
X47317241Y-20475024D01*
X47317239Y-20475025D01*
X47156825Y-20523686D01*
X47156824Y-20523686D01*
X47156821Y-20523687D01*
X47031804Y-20536000D01*
X46948196Y-20536000D01*
X46823179Y-20523687D01*
X46823176Y-20523686D01*
X46823175Y-20523686D01*
X46662761Y-20475025D01*
X46662759Y-20475024D01*
X46662756Y-20475023D01*
X46514922Y-20396005D01*
X46385341Y-20289659D01*
X46278995Y-20160078D01*
X46199977Y-20012244D01*
X46151313Y-19851821D01*
X46134883Y-19685000D01*
X46151313Y-19518179D01*
X46199977Y-19357756D01*
X46278995Y-19209922D01*
X46385341Y-19080341D01*
X46514922Y-18973995D01*
X46662756Y-18894977D01*
X46662759Y-18894976D01*
X46662761Y-18894975D01*
X46823175Y-18846314D01*
X46823176Y-18846314D01*
X46823179Y-18846313D01*
X46948196Y-18834000D01*
X47031804Y-18834000D01*
X47156821Y-18846313D01*
X47156821Y-18846313D01*
G37*
G36*
X9056821Y-18846313D02*
X9056824Y-18846314D01*
X9056825Y-18846314D01*
X9217239Y-18894975D01*
X9217241Y-18894976D01*
X9217244Y-18894977D01*
X9365078Y-18973995D01*
X9494659Y-19080341D01*
X9601005Y-19209922D01*
X9680023Y-19357756D01*
X9728687Y-19518179D01*
X9745117Y-19685000D01*
X9728687Y-19851821D01*
X9680023Y-20012244D01*
X9601005Y-20160078D01*
X9494659Y-20289659D01*
X9365078Y-20396005D01*
X9217244Y-20475023D01*
X9217241Y-20475024D01*
X9217239Y-20475025D01*
X9056825Y-20523686D01*
X9056824Y-20523686D01*
X9056821Y-20523687D01*
X8931804Y-20536000D01*
X8848196Y-20536000D01*
X8723179Y-20523687D01*
X8723176Y-20523686D01*
X8723175Y-20523686D01*
X8562761Y-20475025D01*
X8562759Y-20475024D01*
X8562756Y-20475023D01*
X8414922Y-20396005D01*
X8285341Y-20289659D01*
X8178995Y-20160078D01*
X8099977Y-20012244D01*
X8051313Y-19851821D01*
X8034883Y-19685000D01*
X8051313Y-19518179D01*
X8099977Y-19357756D01*
X8178995Y-19209922D01*
X8285341Y-19080341D01*
X8414922Y-18973995D01*
X8562756Y-18894977D01*
X8562759Y-18894976D01*
X8562761Y-18894975D01*
X8723175Y-18846314D01*
X8723176Y-18846314D01*
X8723179Y-18846313D01*
X8848196Y-18834000D01*
X8931804Y-18834000D01*
X9056821Y-18846313D01*
X9056821Y-18846313D01*
G37*
G36*
X24296821Y-18846313D02*
X24296824Y-18846314D01*
X24296825Y-18846314D01*
X24457239Y-18894975D01*
X24457241Y-18894976D01*
X24457244Y-18894977D01*
X24605078Y-18973995D01*
X24734659Y-19080341D01*
X24841005Y-19209922D01*
X24920023Y-19357756D01*
X24968687Y-19518179D01*
X24985117Y-19685000D01*
X24968687Y-19851821D01*
X24920023Y-20012244D01*
X24841005Y-20160078D01*
X24734659Y-20289659D01*
X24605078Y-20396005D01*
X24457244Y-20475023D01*
X24457241Y-20475024D01*
X24457239Y-20475025D01*
X24296825Y-20523686D01*
X24296824Y-20523686D01*
X24296821Y-20523687D01*
X24171804Y-20536000D01*
X24088196Y-20536000D01*
X23963179Y-20523687D01*
X23963176Y-20523686D01*
X23963175Y-20523686D01*
X23802761Y-20475025D01*
X23802759Y-20475024D01*
X23802756Y-20475023D01*
X23654922Y-20396005D01*
X23525341Y-20289659D01*
X23418995Y-20160078D01*
X23339977Y-20012244D01*
X23291313Y-19851821D01*
X23274883Y-19685000D01*
X23291313Y-19518179D01*
X23339977Y-19357756D01*
X23418995Y-19209922D01*
X23525341Y-19080341D01*
X23654922Y-18973995D01*
X23802756Y-18894977D01*
X23802759Y-18894976D01*
X23802761Y-18894975D01*
X23963175Y-18846314D01*
X23963176Y-18846314D01*
X23963179Y-18846313D01*
X24088196Y-18834000D01*
X24171804Y-18834000D01*
X24296821Y-18846313D01*
X24296821Y-18846313D01*
G37*
G36*
X31916821Y-18846313D02*
X31916824Y-18846314D01*
X31916825Y-18846314D01*
X32077239Y-18894975D01*
X32077241Y-18894976D01*
X32077244Y-18894977D01*
X32225078Y-18973995D01*
X32354659Y-19080341D01*
X32461005Y-19209922D01*
X32540023Y-19357756D01*
X32588687Y-19518179D01*
X32605117Y-19685000D01*
X32588687Y-19851821D01*
X32540023Y-20012244D01*
X32461005Y-20160078D01*
X32354659Y-20289659D01*
X32225078Y-20396005D01*
X32077244Y-20475023D01*
X32077241Y-20475024D01*
X32077239Y-20475025D01*
X31916825Y-20523686D01*
X31916824Y-20523686D01*
X31916821Y-20523687D01*
X31791804Y-20536000D01*
X31708196Y-20536000D01*
X31583179Y-20523687D01*
X31583176Y-20523686D01*
X31583175Y-20523686D01*
X31422761Y-20475025D01*
X31422759Y-20475024D01*
X31422756Y-20475023D01*
X31274922Y-20396005D01*
X31145341Y-20289659D01*
X31038995Y-20160078D01*
X30959977Y-20012244D01*
X30911313Y-19851821D01*
X30894883Y-19685000D01*
X30911313Y-19518179D01*
X30959977Y-19357756D01*
X31038995Y-19209922D01*
X31145341Y-19080341D01*
X31274922Y-18973995D01*
X31422756Y-18894977D01*
X31422759Y-18894976D01*
X31422761Y-18894975D01*
X31583175Y-18846314D01*
X31583176Y-18846314D01*
X31583179Y-18846313D01*
X31708196Y-18834000D01*
X31791804Y-18834000D01*
X31916821Y-18846313D01*
X31916821Y-18846313D01*
G37*
G36*
X9741000Y-17996000D02*
X8039000Y-17996000D01*
X8039000Y-16294000D01*
X9741000Y-16294000D01*
X9741000Y-17996000D01*
X9741000Y-17996000D01*
G37*
G36*
X24296821Y-16306313D02*
X24296824Y-16306314D01*
X24296825Y-16306314D01*
X24457239Y-16354975D01*
X24457241Y-16354976D01*
X24457244Y-16354977D01*
X24605078Y-16433995D01*
X24734659Y-16540341D01*
X24841005Y-16669922D01*
X24920023Y-16817756D01*
X24968687Y-16978179D01*
X24985117Y-17145000D01*
X24968687Y-17311821D01*
X24920023Y-17472244D01*
X24841005Y-17620078D01*
X24734659Y-17749659D01*
X24605078Y-17856005D01*
X24457244Y-17935023D01*
X24457241Y-17935024D01*
X24457239Y-17935025D01*
X24296825Y-17983686D01*
X24296824Y-17983686D01*
X24296821Y-17983687D01*
X24171804Y-17996000D01*
X24088196Y-17996000D01*
X23963179Y-17983687D01*
X23963176Y-17983686D01*
X23963175Y-17983686D01*
X23802761Y-17935025D01*
X23802759Y-17935024D01*
X23802756Y-17935023D01*
X23654922Y-17856005D01*
X23525341Y-17749659D01*
X23418995Y-17620078D01*
X23339977Y-17472244D01*
X23291313Y-17311821D01*
X23274883Y-17145000D01*
X23291313Y-16978179D01*
X23339977Y-16817756D01*
X23418995Y-16669922D01*
X23525341Y-16540341D01*
X23654922Y-16433995D01*
X23802756Y-16354977D01*
X23802759Y-16354976D01*
X23802761Y-16354975D01*
X23963175Y-16306314D01*
X23963176Y-16306314D01*
X23963179Y-16306313D01*
X24088196Y-16294000D01*
X24171804Y-16294000D01*
X24296821Y-16306313D01*
X24296821Y-16306313D01*
G37*
G36*
X47156821Y-16306313D02*
X47156824Y-16306314D01*
X47156825Y-16306314D01*
X47317239Y-16354975D01*
X47317241Y-16354976D01*
X47317244Y-16354977D01*
X47465078Y-16433995D01*
X47594659Y-16540341D01*
X47701005Y-16669922D01*
X47780023Y-16817756D01*
X47828687Y-16978179D01*
X47845117Y-17145000D01*
X47828687Y-17311821D01*
X47780023Y-17472244D01*
X47701005Y-17620078D01*
X47594659Y-17749659D01*
X47465078Y-17856005D01*
X47317244Y-17935023D01*
X47317241Y-17935024D01*
X47317239Y-17935025D01*
X47156825Y-17983686D01*
X47156824Y-17983686D01*
X47156821Y-17983687D01*
X47031804Y-17996000D01*
X46948196Y-17996000D01*
X46823179Y-17983687D01*
X46823176Y-17983686D01*
X46823175Y-17983686D01*
X46662761Y-17935025D01*
X46662759Y-17935024D01*
X46662756Y-17935023D01*
X46514922Y-17856005D01*
X46385341Y-17749659D01*
X46278995Y-17620078D01*
X46199977Y-17472244D01*
X46151313Y-17311821D01*
X46134883Y-17145000D01*
X46151313Y-16978179D01*
X46199977Y-16817756D01*
X46278995Y-16669922D01*
X46385341Y-16540341D01*
X46514922Y-16433995D01*
X46662756Y-16354977D01*
X46662759Y-16354976D01*
X46662761Y-16354975D01*
X46823175Y-16306314D01*
X46823176Y-16306314D01*
X46823179Y-16306313D01*
X46948196Y-16294000D01*
X47031804Y-16294000D01*
X47156821Y-16306313D01*
X47156821Y-16306313D01*
G37*
G36*
X31916821Y-16306313D02*
X31916824Y-16306314D01*
X31916825Y-16306314D01*
X32077239Y-16354975D01*
X32077241Y-16354976D01*
X32077244Y-16354977D01*
X32225078Y-16433995D01*
X32354659Y-16540341D01*
X32461005Y-16669922D01*
X32540023Y-16817756D01*
X32588687Y-16978179D01*
X32605117Y-17145000D01*
X32588687Y-17311821D01*
X32540023Y-17472244D01*
X32461005Y-17620078D01*
X32354659Y-17749659D01*
X32225078Y-17856005D01*
X32077244Y-17935023D01*
X32077241Y-17935024D01*
X32077239Y-17935025D01*
X31916825Y-17983686D01*
X31916824Y-17983686D01*
X31916821Y-17983687D01*
X31791804Y-17996000D01*
X31708196Y-17996000D01*
X31583179Y-17983687D01*
X31583176Y-17983686D01*
X31583175Y-17983686D01*
X31422761Y-17935025D01*
X31422759Y-17935024D01*
X31422756Y-17935023D01*
X31274922Y-17856005D01*
X31145341Y-17749659D01*
X31038995Y-17620078D01*
X30959977Y-17472244D01*
X30911313Y-17311821D01*
X30894883Y-17145000D01*
X30911313Y-16978179D01*
X30959977Y-16817756D01*
X31038995Y-16669922D01*
X31145341Y-16540341D01*
X31274922Y-16433995D01*
X31422756Y-16354977D01*
X31422759Y-16354976D01*
X31422761Y-16354975D01*
X31583175Y-16306314D01*
X31583176Y-16306314D01*
X31583179Y-16306313D01*
X31708196Y-16294000D01*
X31791804Y-16294000D01*
X31916821Y-16306313D01*
X31916821Y-16306313D01*
G37*
G36*
X47156821Y-13766313D02*
X47156824Y-13766314D01*
X47156825Y-13766314D01*
X47317239Y-13814975D01*
X47317241Y-13814976D01*
X47317244Y-13814977D01*
X47465078Y-13893995D01*
X47594659Y-14000341D01*
X47701005Y-14129922D01*
X47780023Y-14277756D01*
X47828687Y-14438179D01*
X47845117Y-14605000D01*
X47828687Y-14771821D01*
X47780023Y-14932244D01*
X47701005Y-15080078D01*
X47594659Y-15209659D01*
X47465078Y-15316005D01*
X47317244Y-15395023D01*
X47317241Y-15395024D01*
X47317239Y-15395025D01*
X47156825Y-15443686D01*
X47156824Y-15443686D01*
X47156821Y-15443687D01*
X47031804Y-15456000D01*
X46948196Y-15456000D01*
X46823179Y-15443687D01*
X46823176Y-15443686D01*
X46823175Y-15443686D01*
X46662761Y-15395025D01*
X46662759Y-15395024D01*
X46662756Y-15395023D01*
X46514922Y-15316005D01*
X46385341Y-15209659D01*
X46278995Y-15080078D01*
X46199977Y-14932244D01*
X46151313Y-14771821D01*
X46134883Y-14605000D01*
X46151313Y-14438179D01*
X46199977Y-14277756D01*
X46278995Y-14129922D01*
X46385341Y-14000341D01*
X46514922Y-13893995D01*
X46662756Y-13814977D01*
X46662759Y-13814976D01*
X46662761Y-13814975D01*
X46823175Y-13766314D01*
X46823176Y-13766314D01*
X46823179Y-13766313D01*
X46948196Y-13754000D01*
X47031804Y-13754000D01*
X47156821Y-13766313D01*
X47156821Y-13766313D01*
G37*
G36*
X32601000Y-15456000D02*
X30899000Y-15456000D01*
X30899000Y-13754000D01*
X32601000Y-13754000D01*
X32601000Y-15456000D01*
X32601000Y-15456000D01*
G37*
G36*
X90404045Y-1371480D02*
X91280046Y-1734331D01*
X92068430Y-2261113D01*
X92738887Y-2931570D01*
X93265669Y-3719954D01*
X93628520Y-4595955D01*
X93813500Y-5525910D01*
X93813500Y-6474090D01*
X93628520Y-7404045D01*
X93265669Y-8280046D01*
X92738887Y-9068430D01*
X92068430Y-9738887D01*
X91280046Y-10265669D01*
X90404045Y-10628520D01*
X89474090Y-10813500D01*
X88525910Y-10813500D01*
X87595955Y-10628520D01*
X86719954Y-10265669D01*
X85931570Y-9738887D01*
X85261113Y-9068430D01*
X84734331Y-8280046D01*
X84371480Y-7404045D01*
X84186500Y-6474090D01*
X84186500Y-5525910D01*
X84371480Y-4595955D01*
X84734331Y-3719954D01*
X85261113Y-2931570D01*
X85931570Y-2261113D01*
X86719954Y-1734331D01*
X87595955Y-1371480D01*
X88525910Y-1186500D01*
X89474090Y-1186500D01*
X90404045Y-1371480D01*
X90404045Y-1371480D01*
G37*
G36*
X7404045Y-1371480D02*
X8280046Y-1734331D01*
X9068430Y-2261113D01*
X9738887Y-2931570D01*
X10265669Y-3719954D01*
X10628520Y-4595955D01*
X10813500Y-5525910D01*
X10813500Y-6474090D01*
X10628520Y-7404045D01*
X10265669Y-8280046D01*
X9738887Y-9068430D01*
X9068430Y-9738887D01*
X8280046Y-10265669D01*
X7404045Y-10628520D01*
X6474090Y-10813500D01*
X5525910Y-10813500D01*
X4595955Y-10628520D01*
X3719954Y-10265669D01*
X2931570Y-9738887D01*
X2261113Y-9068430D01*
X1734331Y-8280046D01*
X1371480Y-7404045D01*
X1186500Y-6474090D01*
X1186500Y-5525910D01*
X1371480Y-4595955D01*
X1734331Y-3719954D01*
X2261113Y-2931570D01*
X2931570Y-2261113D01*
X3719954Y-1734331D01*
X4595955Y-1371480D01*
X5525910Y-1186500D01*
X6474090Y-1186500D01*
X7404045Y-1371480D01*
X7404045Y-1371480D01*
G37*
M02*
