%TF.GenerationSoftware,KiCad,Pcbnew,(5.1.10-1-10_14)*%
%TF.CreationDate,2021-10-31T18:51:05+01:00*%
%TF.ProjectId,lcd_board,6c63645f-626f-4617-9264-2e6b69636164,rev?*%
%TF.SameCoordinates,Original*%
%TF.FileFunction,Soldermask,Top*%
%TF.FilePolarity,Negative*%
%FSLAX46Y46*%
G04 Gerber Fmt 4.6, Leading zero omitted, Abs format (unit mm)*
G04 Created by KiCad (PCBNEW (5.1.10-1-10_14)) date 2021-10-31 18:51:05*
%MOMM*%
%LPD*%
G01*
G04 APERTURE LIST*
%ADD10O,1.600000X1.600000*%
%ADD11C,1.600000*%
%ADD12C,1.620000*%
%ADD13R,1.600000X1.600000*%
%ADD14O,1.700000X1.700000*%
%ADD15R,1.700000X1.700000*%
G04 APERTURE END LIST*
D10*
%TO.C,R1*%
X39116000Y46228000D03*
D11*
X49276000Y46228000D03*
%TD*%
%TO.C,C5*%
X7540000Y46863000D03*
X2540000Y46863000D03*
%TD*%
%TO.C,C4*%
X54864000Y30560000D03*
X54864000Y35560000D03*
%TD*%
%TO.C,C3*%
X75612000Y27686000D03*
X70612000Y27686000D03*
%TD*%
%TO.C,C2*%
X28956000Y30814000D03*
X28956000Y35814000D03*
%TD*%
%TO.C,C1*%
X29638000Y11430000D03*
X24638000Y11430000D03*
%TD*%
D12*
%TO.C,RV1*%
X76962000Y52451000D03*
X74462000Y57451000D03*
X71962000Y52451000D03*
%TD*%
D10*
%TO.C,U4*%
X25908000Y31242000D03*
X8128000Y38862000D03*
X23368000Y31242000D03*
X10668000Y38862000D03*
X20828000Y31242000D03*
X13208000Y38862000D03*
X18288000Y31242000D03*
X15748000Y38862000D03*
X15748000Y31242000D03*
X18288000Y38862000D03*
X13208000Y31242000D03*
X20828000Y38862000D03*
X10668000Y31242000D03*
X23368000Y38862000D03*
X8128000Y31242000D03*
D13*
X25908000Y38862000D03*
%TD*%
D10*
%TO.C,U3*%
X51816000Y30861000D03*
X34036000Y38481000D03*
X49276000Y30861000D03*
X36576000Y38481000D03*
X46736000Y30861000D03*
X39116000Y38481000D03*
X44196000Y30861000D03*
X41656000Y38481000D03*
X41656000Y30861000D03*
X44196000Y38481000D03*
X39116000Y30861000D03*
X46736000Y38481000D03*
X36576000Y30861000D03*
X49276000Y38481000D03*
X34036000Y30861000D03*
D13*
X51816000Y38481000D03*
%TD*%
D10*
%TO.C,U2*%
X75755500Y30734000D03*
X57975500Y38354000D03*
X73215500Y30734000D03*
X60515500Y38354000D03*
X70675500Y30734000D03*
X63055500Y38354000D03*
X68135500Y30734000D03*
X65595500Y38354000D03*
X65595500Y30734000D03*
X68135500Y38354000D03*
X63055500Y30734000D03*
X70675500Y38354000D03*
X60515500Y30734000D03*
X73215500Y38354000D03*
X57975500Y30734000D03*
D13*
X75755500Y38354000D03*
%TD*%
D10*
%TO.C,U1*%
X29591000Y14414500D03*
X14351000Y22034500D03*
X27051000Y14414500D03*
X16891000Y22034500D03*
X24511000Y14414500D03*
X19431000Y22034500D03*
X21971000Y14414500D03*
X21971000Y22034500D03*
X19431000Y14414500D03*
X24511000Y22034500D03*
X16891000Y14414500D03*
X27051000Y22034500D03*
X14351000Y14414500D03*
D13*
X29591000Y22034500D03*
%TD*%
D14*
%TO.C,J2*%
X3302000Y49911000D03*
X5842000Y49911000D03*
X8382000Y49911000D03*
X10922000Y49911000D03*
X13462000Y49911000D03*
X16002000Y49911000D03*
X18542000Y49911000D03*
X21082000Y49911000D03*
X23622000Y49911000D03*
X26162000Y49911000D03*
X28702000Y49911000D03*
X31242000Y49911000D03*
X33782000Y49911000D03*
X36322000Y49911000D03*
X38862000Y49911000D03*
D15*
X41402000Y49911000D03*
%TD*%
D14*
%TO.C,J1*%
X17272000Y4064000D03*
X17272000Y6604000D03*
X19812000Y4064000D03*
X19812000Y6604000D03*
X22352000Y4064000D03*
X22352000Y6604000D03*
X24892000Y4064000D03*
X24892000Y6604000D03*
X27432000Y4064000D03*
X27432000Y6604000D03*
X29972000Y4064000D03*
X29972000Y6604000D03*
X32512000Y4064000D03*
X32512000Y6604000D03*
X35052000Y4064000D03*
X35052000Y6604000D03*
X37592000Y4064000D03*
X37592000Y6604000D03*
X40132000Y4064000D03*
X40132000Y6604000D03*
X42672000Y4064000D03*
X42672000Y6604000D03*
X45212000Y4064000D03*
X45212000Y6604000D03*
X47752000Y4064000D03*
X47752000Y6604000D03*
X50292000Y4064000D03*
X50292000Y6604000D03*
X52832000Y4064000D03*
X52832000Y6604000D03*
X55372000Y4064000D03*
X55372000Y6604000D03*
X57912000Y4064000D03*
X57912000Y6604000D03*
X60452000Y4064000D03*
X60452000Y6604000D03*
X62992000Y4064000D03*
X62992000Y6604000D03*
X65532000Y4064000D03*
X65532000Y6604000D03*
X68072000Y4064000D03*
X68072000Y6604000D03*
X70612000Y4064000D03*
X70612000Y6604000D03*
X73152000Y4064000D03*
X73152000Y6604000D03*
X75692000Y4064000D03*
X75692000Y6604000D03*
X78232000Y4064000D03*
D15*
X78232000Y6604000D03*
%TD*%
M02*
