%TF.GenerationSoftware,KiCad,Pcbnew,(5.1.10-1-10_14)*%
%TF.CreationDate,2021-10-31T18:51:05+01:00*%
%TF.ProjectId,lcd_board,6c63645f-626f-4617-9264-2e6b69636164,rev?*%
%TF.SameCoordinates,Original*%
%TF.FileFunction,Copper,L1,Top*%
%TF.FilePolarity,Positive*%
%FSLAX46Y46*%
G04 Gerber Fmt 4.6, Leading zero omitted, Abs format (unit mm)*
G04 Created by KiCad (PCBNEW (5.1.10-1-10_14)) date 2021-10-31 18:51:05*
%MOMM*%
%LPD*%
G01*
G04 APERTURE LIST*
%TA.AperFunction,ComponentPad*%
%ADD10O,1.600000X1.600000*%
%TD*%
%TA.AperFunction,ComponentPad*%
%ADD11C,1.600000*%
%TD*%
%TA.AperFunction,ComponentPad*%
%ADD12C,1.620000*%
%TD*%
%TA.AperFunction,ComponentPad*%
%ADD13R,1.600000X1.600000*%
%TD*%
%TA.AperFunction,ComponentPad*%
%ADD14O,1.700000X1.700000*%
%TD*%
%TA.AperFunction,ComponentPad*%
%ADD15R,1.700000X1.700000*%
%TD*%
%TA.AperFunction,ViaPad*%
%ADD16C,0.800000*%
%TD*%
%TA.AperFunction,ViaPad*%
%ADD17C,0.600000*%
%TD*%
%TA.AperFunction,Conductor*%
%ADD18C,1.000000*%
%TD*%
%TA.AperFunction,Conductor*%
%ADD19C,0.250000*%
%TD*%
%TA.AperFunction,Conductor*%
%ADD20C,0.500000*%
%TD*%
%TA.AperFunction,Conductor*%
%ADD21C,0.254000*%
%TD*%
%TA.AperFunction,Conductor*%
%ADD22C,0.100000*%
%TD*%
G04 APERTURE END LIST*
D10*
%TO.P,R1,2*%
%TO.N,/A*%
X39116000Y46228000D03*
D11*
%TO.P,R1,1*%
%TO.N,+5V*%
X49276000Y46228000D03*
%TD*%
%TO.P,C5,2*%
%TO.N,+5V*%
X7540000Y46863000D03*
%TO.P,C5,1*%
%TO.N,GND*%
X2540000Y46863000D03*
%TD*%
%TO.P,C4,2*%
%TO.N,+5V*%
X54864000Y30560000D03*
%TO.P,C4,1*%
%TO.N,GND*%
X54864000Y35560000D03*
%TD*%
%TO.P,C3,2*%
%TO.N,+5V*%
X75612000Y27686000D03*
%TO.P,C3,1*%
%TO.N,GND*%
X70612000Y27686000D03*
%TD*%
%TO.P,C2,2*%
%TO.N,+5V*%
X28956000Y30814000D03*
%TO.P,C2,1*%
%TO.N,GND*%
X28956000Y35814000D03*
%TD*%
%TO.P,C1,2*%
%TO.N,+5V*%
X29638000Y11430000D03*
%TO.P,C1,1*%
%TO.N,GND*%
X24638000Y11430000D03*
%TD*%
D12*
%TO.P,RV1,1*%
%TO.N,+5V*%
X76962000Y52451000D03*
%TO.P,RV1,2*%
%TO.N,Net-(J2-Pad14)*%
X74462000Y57451000D03*
%TO.P,RV1,3*%
%TO.N,GND*%
X71962000Y52451000D03*
%TD*%
D10*
%TO.P,U4,16*%
%TO.N,+5V*%
X25908000Y31242000D03*
%TO.P,U4,8*%
%TO.N,GND*%
X8128000Y38862000D03*
%TO.P,U4,15*%
X23368000Y31242000D03*
%TO.P,U4,7*%
%TO.N,CLK_INV*%
X10668000Y38862000D03*
%TO.P,U4,14*%
%TO.N,D4*%
X20828000Y31242000D03*
%TO.P,U4,6*%
%TO.N,/D_7*%
X13208000Y38862000D03*
%TO.P,U4,13*%
%TO.N,D5*%
X18288000Y31242000D03*
%TO.P,U4,5*%
%TO.N,/D_6*%
X15748000Y38862000D03*
%TO.P,U4,12*%
%TO.N,D6*%
X15748000Y31242000D03*
%TO.P,U4,4*%
%TO.N,/D_5*%
X18288000Y38862000D03*
%TO.P,U4,11*%
%TO.N,D7*%
X13208000Y31242000D03*
%TO.P,U4,3*%
%TO.N,/D_4*%
X20828000Y38862000D03*
%TO.P,U4,10*%
%TO.N,~SLOT_SEL~*%
X10668000Y31242000D03*
%TO.P,U4,2*%
%TO.N,GND*%
X23368000Y38862000D03*
%TO.P,U4,9*%
%TO.N,~SLOT_SEL~*%
X8128000Y31242000D03*
D13*
%TO.P,U4,1*%
%TO.N,GND*%
X25908000Y38862000D03*
%TD*%
D10*
%TO.P,U3,16*%
%TO.N,+5V*%
X51816000Y30861000D03*
%TO.P,U3,8*%
%TO.N,GND*%
X34036000Y38481000D03*
%TO.P,U3,15*%
X49276000Y30861000D03*
%TO.P,U3,7*%
%TO.N,CLK_INV*%
X36576000Y38481000D03*
%TO.P,U3,14*%
%TO.N,D0*%
X46736000Y30861000D03*
%TO.P,U3,6*%
%TO.N,/D_3*%
X39116000Y38481000D03*
%TO.P,U3,13*%
%TO.N,D1*%
X44196000Y30861000D03*
%TO.P,U3,5*%
%TO.N,/D_2*%
X41656000Y38481000D03*
%TO.P,U3,12*%
%TO.N,D2*%
X41656000Y30861000D03*
%TO.P,U3,4*%
%TO.N,/D_1*%
X44196000Y38481000D03*
%TO.P,U3,11*%
%TO.N,D3*%
X39116000Y30861000D03*
%TO.P,U3,3*%
%TO.N,/D_0*%
X46736000Y38481000D03*
%TO.P,U3,10*%
%TO.N,~SLOT_SEL~*%
X36576000Y30861000D03*
%TO.P,U3,2*%
%TO.N,GND*%
X49276000Y38481000D03*
%TO.P,U3,9*%
%TO.N,~SLOT_SEL~*%
X34036000Y30861000D03*
D13*
%TO.P,U3,1*%
%TO.N,GND*%
X51816000Y38481000D03*
%TD*%
D10*
%TO.P,U2,16*%
%TO.N,+5V*%
X75755500Y30734000D03*
%TO.P,U2,8*%
%TO.N,GND*%
X57975500Y38354000D03*
%TO.P,U2,15*%
X73215500Y30734000D03*
%TO.P,U2,7*%
%TO.N,CLK_INV*%
X60515500Y38354000D03*
%TO.P,U2,14*%
%TO.N,A1*%
X70675500Y30734000D03*
%TO.P,U2,6*%
%TO.N,Net-(U2-Pad6)*%
X63055500Y38354000D03*
%TO.P,U2,13*%
%TO.N,A0*%
X68135500Y30734000D03*
%TO.P,U2,5*%
%TO.N,Net-(U2-Pad5)*%
X65595500Y38354000D03*
%TO.P,U2,12*%
%TO.N,Net-(U2-Pad12)*%
X65595500Y30734000D03*
%TO.P,U2,4*%
%TO.N,/E*%
X68135500Y38354000D03*
%TO.P,U2,11*%
%TO.N,Net-(U2-Pad11)*%
X63055500Y30734000D03*
%TO.P,U2,3*%
%TO.N,/RS*%
X70675500Y38354000D03*
%TO.P,U2,10*%
%TO.N,~SLOT_SEL~*%
X60515500Y30734000D03*
%TO.P,U2,2*%
%TO.N,GND*%
X73215500Y38354000D03*
%TO.P,U2,9*%
%TO.N,~SLOT_SEL~*%
X57975500Y30734000D03*
D13*
%TO.P,U2,1*%
%TO.N,GND*%
X75755500Y38354000D03*
%TD*%
D10*
%TO.P,U1,14*%
%TO.N,+5V*%
X29591000Y14414500D03*
%TO.P,U1,7*%
%TO.N,GND*%
X14351000Y22034500D03*
%TO.P,U1,13*%
X27051000Y14414500D03*
%TO.P,U1,6*%
%TO.N,Net-(U1-Pad6)*%
X16891000Y22034500D03*
%TO.P,U1,12*%
%TO.N,Net-(U1-Pad12)*%
X24511000Y14414500D03*
%TO.P,U1,5*%
%TO.N,GND*%
X19431000Y22034500D03*
%TO.P,U1,11*%
X21971000Y14414500D03*
%TO.P,U1,4*%
%TO.N,Net-(U1-Pad4)*%
X21971000Y22034500D03*
%TO.P,U1,10*%
%TO.N,Net-(U1-Pad10)*%
X19431000Y14414500D03*
%TO.P,U1,3*%
%TO.N,GND*%
X24511000Y22034500D03*
%TO.P,U1,9*%
X16891000Y14414500D03*
%TO.P,U1,2*%
%TO.N,CLK_INV*%
X27051000Y22034500D03*
%TO.P,U1,8*%
%TO.N,Net-(U1-Pad8)*%
X14351000Y14414500D03*
D13*
%TO.P,U1,1*%
%TO.N,CLK*%
X29591000Y22034500D03*
%TD*%
D14*
%TO.P,J2,16*%
%TO.N,GND*%
X3302000Y49911000D03*
%TO.P,J2,15*%
%TO.N,+5V*%
X5842000Y49911000D03*
%TO.P,J2,14*%
%TO.N,Net-(J2-Pad14)*%
X8382000Y49911000D03*
%TO.P,J2,13*%
%TO.N,/RS*%
X10922000Y49911000D03*
%TO.P,J2,12*%
%TO.N,GND*%
X13462000Y49911000D03*
%TO.P,J2,11*%
%TO.N,/E*%
X16002000Y49911000D03*
%TO.P,J2,10*%
%TO.N,/D_0*%
X18542000Y49911000D03*
%TO.P,J2,9*%
%TO.N,/D_1*%
X21082000Y49911000D03*
%TO.P,J2,8*%
%TO.N,/D_2*%
X23622000Y49911000D03*
%TO.P,J2,7*%
%TO.N,/D_3*%
X26162000Y49911000D03*
%TO.P,J2,6*%
%TO.N,/D_4*%
X28702000Y49911000D03*
%TO.P,J2,5*%
%TO.N,/D_5*%
X31242000Y49911000D03*
%TO.P,J2,4*%
%TO.N,/D_6*%
X33782000Y49911000D03*
%TO.P,J2,3*%
%TO.N,/D_7*%
X36322000Y49911000D03*
%TO.P,J2,2*%
%TO.N,/A*%
X38862000Y49911000D03*
D15*
%TO.P,J2,1*%
%TO.N,GND*%
X41402000Y49911000D03*
%TD*%
D14*
%TO.P,J1,50*%
%TO.N,~NMI~*%
X17272000Y4064000D03*
%TO.P,J1,49*%
%TO.N,~RESET~*%
X17272000Y6604000D03*
%TO.P,J1,48*%
%TO.N,~SLOT_IRQ~*%
X19812000Y4064000D03*
%TO.P,J1,47*%
%TO.N,SYNC*%
X19812000Y6604000D03*
%TO.P,J1,46*%
%TO.N,EX3*%
X22352000Y4064000D03*
%TO.P,J1,45*%
%TO.N,~IRQ~*%
X22352000Y6604000D03*
%TO.P,J1,44*%
%TO.N,EX2*%
X24892000Y4064000D03*
%TO.P,J1,43*%
%TO.N,R~W~*%
X24892000Y6604000D03*
%TO.P,J1,42*%
%TO.N,CLK_12M*%
X27432000Y4064000D03*
%TO.P,J1,41*%
%TO.N,CLK*%
X27432000Y6604000D03*
%TO.P,J1,40*%
%TO.N,LED4*%
X29972000Y4064000D03*
%TO.P,J1,39*%
%TO.N,BE*%
X29972000Y6604000D03*
%TO.P,J1,38*%
%TO.N,LED3*%
X32512000Y4064000D03*
%TO.P,J1,37*%
%TO.N,RDY*%
X32512000Y6604000D03*
%TO.P,J1,36*%
%TO.N,LED2*%
X35052000Y4064000D03*
%TO.P,J1,35*%
%TO.N,A15*%
X35052000Y6604000D03*
%TO.P,J1,34*%
%TO.N,LED1*%
X37592000Y4064000D03*
%TO.P,J1,33*%
%TO.N,A14*%
X37592000Y6604000D03*
%TO.P,J1,32*%
%TO.N,~SLOT_SEL~*%
X40132000Y4064000D03*
%TO.P,J1,31*%
%TO.N,A13*%
X40132000Y6604000D03*
%TO.P,J1,30*%
%TO.N,~INH~*%
X42672000Y4064000D03*
%TO.P,J1,29*%
%TO.N,A12*%
X42672000Y6604000D03*
%TO.P,J1,28*%
%TO.N,~SSEL~*%
X45212000Y4064000D03*
%TO.P,J1,27*%
%TO.N,A11*%
X45212000Y6604000D03*
%TO.P,J1,26*%
%TO.N,GND*%
X47752000Y4064000D03*
%TO.P,J1,25*%
%TO.N,+5V*%
X47752000Y6604000D03*
%TO.P,J1,24*%
X50292000Y4064000D03*
%TO.P,J1,23*%
%TO.N,GND*%
X50292000Y6604000D03*
%TO.P,J1,22*%
%TO.N,~SLOW~*%
X52832000Y4064000D03*
%TO.P,J1,21*%
%TO.N,A10*%
X52832000Y6604000D03*
%TO.P,J1,20*%
%TO.N,EX1*%
X55372000Y4064000D03*
%TO.P,J1,19*%
%TO.N,A9*%
X55372000Y6604000D03*
%TO.P,J1,18*%
%TO.N,EX0*%
X57912000Y4064000D03*
%TO.P,J1,17*%
%TO.N,A8*%
X57912000Y6604000D03*
%TO.P,J1,16*%
%TO.N,D7*%
X60452000Y4064000D03*
%TO.P,J1,15*%
%TO.N,A7*%
X60452000Y6604000D03*
%TO.P,J1,14*%
%TO.N,D6*%
X62992000Y4064000D03*
%TO.P,J1,13*%
%TO.N,A6*%
X62992000Y6604000D03*
%TO.P,J1,12*%
%TO.N,D5*%
X65532000Y4064000D03*
%TO.P,J1,11*%
%TO.N,A5*%
X65532000Y6604000D03*
%TO.P,J1,10*%
%TO.N,D4*%
X68072000Y4064000D03*
%TO.P,J1,9*%
%TO.N,A4*%
X68072000Y6604000D03*
%TO.P,J1,8*%
%TO.N,D3*%
X70612000Y4064000D03*
%TO.P,J1,7*%
%TO.N,A3*%
X70612000Y6604000D03*
%TO.P,J1,6*%
%TO.N,D2*%
X73152000Y4064000D03*
%TO.P,J1,5*%
%TO.N,A2*%
X73152000Y6604000D03*
%TO.P,J1,4*%
%TO.N,D1*%
X75692000Y4064000D03*
%TO.P,J1,3*%
%TO.N,A1*%
X75692000Y6604000D03*
%TO.P,J1,2*%
%TO.N,D0*%
X78232000Y4064000D03*
D15*
%TO.P,J1,1*%
%TO.N,A0*%
X78232000Y6604000D03*
%TD*%
D16*
%TO.N,+5V*%
X25908000Y33782000D03*
D17*
%TO.N,A1*%
X75692000Y12319000D03*
X72390000Y27686000D03*
%TO.N,A0*%
X76708000Y12319000D03*
D16*
%TO.N,CLK*%
X28339999Y18433999D03*
D17*
%TO.N,~SLOT_SEL~*%
X38862000Y11556998D03*
%TO.N,/E*%
X22666945Y45532047D03*
%TO.N,/RS*%
X21716996Y45974000D03*
%TO.N,/D_6*%
X33655000Y48006000D03*
%TO.N,/D_5*%
X31178500Y47561500D03*
%TO.N,/D_4*%
X28562925Y47198065D03*
%TO.N,/D_3*%
X26479500Y44132500D03*
%TO.N,/D_2*%
X25336500Y44513500D03*
%TO.N,/D_1*%
X24510965Y45021531D03*
%TO.N,/D_0*%
X23746762Y45404738D03*
%TD*%
D18*
%TO.N,GND*%
X26770000Y14133500D02*
X27051000Y14414500D01*
X48995000Y30580000D02*
X49276000Y30861000D01*
X3148000Y49757000D02*
X3302000Y49911000D01*
%TO.N,+5V*%
X29745000Y14260500D02*
X29591000Y14414500D01*
X29745000Y11620500D02*
X29745000Y14260500D01*
X50292000Y4064000D02*
X47752000Y6604000D01*
X75755500Y27829500D02*
X75755500Y30734000D01*
X75612000Y27686000D02*
X75755500Y27829500D01*
X52117000Y30560000D02*
X51816000Y30861000D01*
X54864000Y30560000D02*
X52117000Y30560000D01*
X28528000Y31242000D02*
X25908000Y31242000D01*
X28956000Y30814000D02*
X28528000Y31242000D01*
X7540000Y48213000D02*
X5842000Y49911000D01*
X7540000Y46863000D02*
X7540000Y48213000D01*
D19*
%TO.N,D7*%
X59276999Y5239001D02*
X57117999Y5239001D01*
X60452000Y4064000D02*
X59276999Y5239001D01*
X57117999Y5239001D02*
X56547001Y5809999D01*
X56547001Y7168001D02*
X35838502Y27876500D01*
X56547001Y5809999D02*
X56547001Y7168001D01*
X16573500Y27876500D02*
X13208000Y31242000D01*
X35838502Y27876500D02*
X16573500Y27876500D01*
%TO.N,D6*%
X62992000Y4064000D02*
X61627001Y5428999D01*
X59887999Y5428999D02*
X59087001Y6229997D01*
X37928491Y28326511D02*
X18663489Y28326511D01*
X59087001Y7168001D02*
X37928491Y28326511D01*
X59087001Y6229997D02*
X59087001Y7168001D01*
X61627001Y5428999D02*
X59887999Y5428999D01*
X18663489Y28326511D02*
X15748000Y31242000D01*
%TO.N,D5*%
X62427999Y5428999D02*
X61627001Y6229997D01*
X64167001Y5428999D02*
X62427999Y5428999D01*
X20753478Y28776522D02*
X18288000Y31242000D01*
X61627001Y7168001D02*
X40018480Y28776522D01*
X65532000Y4064000D02*
X64167001Y5428999D01*
X40018480Y28776522D02*
X20753478Y28776522D01*
X61627001Y6229997D02*
X61627001Y7168001D01*
%TO.N,D4*%
X68072000Y4064000D02*
X66707001Y5428999D01*
X46437491Y24897511D02*
X44533902Y24897511D01*
X66707001Y5428999D02*
X64967999Y5428999D01*
X64967999Y5428999D02*
X64167001Y6229997D01*
X64167001Y7168001D02*
X46437491Y24897511D01*
X64167001Y6229997D02*
X64167001Y7168001D01*
X40204880Y29226533D02*
X22843467Y29226533D01*
X44533902Y24897511D02*
X40204880Y29226533D01*
X22843467Y29226533D02*
X20828000Y31242000D01*
%TO.N,D3*%
X70612000Y4064000D02*
X69247001Y5428999D01*
X69247001Y5428999D02*
X67507999Y5428999D01*
X39206824Y30861000D02*
X39116000Y30861000D01*
X66707001Y6229997D02*
X66707001Y7168001D01*
X66707001Y7168001D02*
X48527480Y25347522D01*
X44720302Y25347522D02*
X39206824Y30861000D01*
X48527480Y25347522D02*
X44720302Y25347522D01*
X67507999Y5428999D02*
X66707001Y6229997D01*
%TO.N,D2*%
X69436999Y6978003D02*
X50570502Y25844500D01*
X69436999Y6039999D02*
X69436999Y6978003D01*
X73152000Y4064000D02*
X72351002Y4064000D01*
X72351002Y4064000D02*
X70986003Y5428999D01*
X70986003Y5428999D02*
X70047999Y5428999D01*
X70047999Y5428999D02*
X69436999Y6039999D01*
X46672500Y25844500D02*
X41656000Y30861000D01*
X50570502Y25844500D02*
X46672500Y25844500D01*
%TO.N,D1*%
X44196000Y30734000D02*
X44196000Y30861000D01*
X74516999Y5239001D02*
X72548499Y5239001D01*
X71787001Y7168001D02*
X52660491Y26294511D01*
X71787001Y6000499D02*
X71787001Y7168001D01*
X72548499Y5239001D02*
X71787001Y6000499D01*
X75692000Y4064000D02*
X74516999Y5239001D01*
X52660491Y26294511D02*
X48635489Y26294511D01*
X48635489Y26294511D02*
X44196000Y30734000D01*
%TO.N,A1*%
X75692000Y12319000D02*
X72390000Y15621000D01*
X72390000Y15621000D02*
X72390000Y27686000D01*
%TO.N,D0*%
X76867001Y5428999D02*
X75127999Y5428999D01*
X54691512Y26803490D02*
X50793510Y26803490D01*
X75127999Y5428999D02*
X74516999Y6039999D01*
X74516999Y6039999D02*
X74516999Y6978003D01*
X78232000Y4064000D02*
X76867001Y5428999D01*
X74516999Y6978003D02*
X54691512Y26803490D01*
X50793510Y26803490D02*
X46736000Y30861000D01*
%TO.N,A0*%
X73152000Y27849004D02*
X73152000Y15875000D01*
X71537004Y29464000D02*
X73152000Y27849004D01*
X73152000Y15875000D02*
X76708000Y12319000D01*
X69405500Y29464000D02*
X71537004Y29464000D01*
X68135500Y30734000D02*
X69405500Y29464000D01*
D20*
%TO.N,CLK*%
X28339999Y7511999D02*
X27432000Y6604000D01*
X28339999Y18433999D02*
X28339999Y7511999D01*
%TO.N,~SLOT_SEL~*%
X8128000Y31242000D02*
X10668000Y31242000D01*
X34036000Y30861000D02*
X36576000Y30861000D01*
X37826001Y32111001D02*
X56598499Y32111001D01*
X56598499Y32111001D02*
X57975500Y30734000D01*
X36576000Y30861000D02*
X37826001Y32111001D01*
X57975500Y30734000D02*
X60515500Y30734000D01*
X32321500Y32575500D02*
X34036000Y30861000D01*
X12001500Y32575500D02*
X32321500Y32575500D01*
X10668000Y31242000D02*
X12001500Y32575500D01*
X38862000Y16065500D02*
X38862000Y11556998D01*
X27749500Y27178000D02*
X38862000Y16065500D01*
X14732000Y27178000D02*
X27749500Y27178000D01*
X10668000Y31242000D02*
X14732000Y27178000D01*
%TO.N,CLK_INV*%
X37953001Y37103999D02*
X59265499Y37103999D01*
X59265499Y37103999D02*
X60515500Y38354000D01*
X36576000Y38481000D02*
X37953001Y37103999D01*
X36576000Y38481000D02*
X35179000Y37084000D01*
X12446000Y37084000D02*
X10668000Y38862000D01*
X35179000Y37084000D02*
X12446000Y37084000D01*
X14235497Y23284501D02*
X25800999Y23284501D01*
X25800999Y23284501D02*
X27051000Y22034500D01*
X6877999Y30641999D02*
X14235497Y23284501D01*
X6877999Y35071999D02*
X6877999Y30641999D01*
X10668000Y38862000D02*
X6877999Y35071999D01*
%TO.N,/A*%
X38862000Y46482000D02*
X38862000Y49911000D01*
X39116000Y46228000D02*
X38862000Y46482000D01*
D19*
%TO.N,/E*%
X68135500Y38354000D02*
X65283511Y41205989D01*
X23257942Y46123044D02*
X22966944Y45832046D01*
X65283511Y41205989D02*
X38936655Y41205989D01*
X38936655Y41205989D02*
X34019600Y46123044D01*
X22966944Y45832046D02*
X22666945Y45532047D01*
X34019600Y46123044D02*
X23257942Y46123044D01*
%TO.N,/RS*%
X22321302Y46578306D02*
X21716996Y45974000D01*
X25215518Y46578306D02*
X22321302Y46578306D01*
X25220769Y46573055D02*
X25215518Y46578306D01*
X34206000Y46573055D02*
X25220769Y46573055D01*
X39123055Y41656000D02*
X34206000Y46573055D01*
X67373500Y41656000D02*
X39123055Y41656000D01*
X70675500Y38354000D02*
X67373500Y41656000D01*
%TO.N,/D_7*%
X13208000Y38862000D02*
X13208000Y43058644D01*
X13208000Y43058644D02*
X18872445Y48723089D01*
X35134089Y48723089D02*
X36322000Y49911000D01*
X18872445Y48723089D02*
X35134089Y48723089D01*
%TO.N,/D_6*%
X15748000Y44962233D02*
X19058845Y48273078D01*
X33387922Y48273078D02*
X33655000Y48006000D01*
X15748000Y38862000D02*
X15748000Y44962233D01*
X19058845Y48273078D02*
X33387922Y48273078D01*
%TO.N,/D_5*%
X30916933Y47823067D02*
X31178500Y47561500D01*
X19245246Y47823067D02*
X30916933Y47823067D01*
X18288000Y46865821D02*
X19245246Y47823067D01*
X18288000Y38862000D02*
X18288000Y46865821D01*
%TO.N,/D_4*%
X20828000Y46165911D02*
X21860154Y47198065D01*
X20828000Y38862000D02*
X20828000Y46165911D01*
X21860154Y47198065D02*
X28562925Y47198065D01*
%TO.N,/D_3*%
X39116000Y38481000D02*
X33464500Y44132500D01*
X33464500Y44132500D02*
X26479500Y44132500D01*
%TO.N,/D_2*%
X33460400Y44773011D02*
X25596011Y44773011D01*
X25596011Y44773011D02*
X25336500Y44513500D01*
X38377455Y39855956D02*
X33460400Y44773011D01*
X40281044Y39855956D02*
X38377455Y39855956D01*
X41656000Y38481000D02*
X40281044Y39855956D01*
%TO.N,/D_1*%
X38563855Y40305967D02*
X33646800Y45223022D01*
X24712456Y45223022D02*
X24510965Y45021531D01*
X44196000Y38481000D02*
X42371033Y40305967D01*
X42371033Y40305967D02*
X38563855Y40305967D01*
X33646800Y45223022D02*
X24712456Y45223022D01*
%TO.N,/D_0*%
X46736000Y38481000D02*
X44461022Y40755978D01*
X38750255Y40755978D02*
X33833200Y45673033D01*
X24015057Y45673033D02*
X23746762Y45404738D01*
X44461022Y40755978D02*
X38750255Y40755978D01*
X33833200Y45673033D02*
X24015057Y45673033D01*
%TO.N,Net-(J2-Pad14)*%
X15922000Y57451000D02*
X8382000Y49911000D01*
X74462000Y57451000D02*
X15922000Y57451000D01*
%TD*%
D21*
%TO.N,+5V*%
X2125353Y59386000D02*
X78646647Y59386000D01*
X78740956Y59395289D01*
X78903542Y59379347D01*
X79183018Y59294969D01*
X79440780Y59157915D01*
X79667015Y58973401D01*
X79853103Y58748460D01*
X79991956Y58491658D01*
X80078282Y58212781D01*
X80096365Y58040731D01*
X80087000Y57945646D01*
X80087001Y685000D01*
X14218381Y685000D01*
X3332046Y11571335D01*
X23203000Y11571335D01*
X23203000Y11288665D01*
X23258147Y11011426D01*
X23366320Y10750273D01*
X23523363Y10515241D01*
X23723241Y10315363D01*
X23958273Y10158320D01*
X24219426Y10050147D01*
X24496665Y9995000D01*
X24779335Y9995000D01*
X25056574Y10050147D01*
X25317727Y10158320D01*
X25552759Y10315363D01*
X25752637Y10515241D01*
X25909680Y10750273D01*
X26017853Y11011426D01*
X26073000Y11288665D01*
X26073000Y11571335D01*
X26017853Y11848574D01*
X25909680Y12109727D01*
X25752637Y12344759D01*
X25552759Y12544637D01*
X25317727Y12701680D01*
X25056574Y12809853D01*
X24779335Y12865000D01*
X24496665Y12865000D01*
X24219426Y12809853D01*
X23958273Y12701680D01*
X23723241Y12544637D01*
X23523363Y12344759D01*
X23366320Y12109727D01*
X23258147Y11848574D01*
X23203000Y11571335D01*
X3332046Y11571335D01*
X685000Y14218380D01*
X685000Y47004335D01*
X1105000Y47004335D01*
X1105000Y46721665D01*
X1160147Y46444426D01*
X1268320Y46183273D01*
X1425363Y45948241D01*
X1625241Y45748363D01*
X1860273Y45591320D01*
X2121426Y45483147D01*
X2398665Y45428000D01*
X2681335Y45428000D01*
X2958574Y45483147D01*
X3219727Y45591320D01*
X3454759Y45748363D01*
X3576694Y45870298D01*
X6726903Y45870298D01*
X6798486Y45626329D01*
X7053996Y45505429D01*
X7328184Y45436700D01*
X7610512Y45422783D01*
X7890130Y45464213D01*
X8156292Y45559397D01*
X8281514Y45626329D01*
X8353097Y45870298D01*
X7540000Y46683395D01*
X6726903Y45870298D01*
X3576694Y45870298D01*
X3654637Y45948241D01*
X3811680Y46183273D01*
X3919853Y46444426D01*
X3975000Y46721665D01*
X3975000Y46792488D01*
X6099783Y46792488D01*
X6141213Y46512870D01*
X6236397Y46246708D01*
X6303329Y46121486D01*
X6547298Y46049903D01*
X7360395Y46863000D01*
X7719605Y46863000D01*
X8532702Y46049903D01*
X8776671Y46121486D01*
X8897571Y46376996D01*
X8966300Y46651184D01*
X8980217Y46933512D01*
X8938787Y47213130D01*
X8843603Y47479292D01*
X8776671Y47604514D01*
X8532702Y47676097D01*
X7719605Y46863000D01*
X7360395Y46863000D01*
X6547298Y47676097D01*
X6303329Y47604514D01*
X6182429Y47349004D01*
X6113700Y47074816D01*
X6099783Y46792488D01*
X3975000Y46792488D01*
X3975000Y47004335D01*
X3919853Y47281574D01*
X3811680Y47542727D01*
X3654637Y47777759D01*
X3576694Y47855702D01*
X6726903Y47855702D01*
X7540000Y47042605D01*
X8353097Y47855702D01*
X8281514Y48099671D01*
X8026004Y48220571D01*
X7751816Y48289300D01*
X7469488Y48303217D01*
X7189870Y48261787D01*
X6923708Y48166603D01*
X6798486Y48099671D01*
X6726903Y47855702D01*
X3576694Y47855702D01*
X3454759Y47977637D01*
X3219727Y48134680D01*
X2958574Y48242853D01*
X2681335Y48298000D01*
X2398665Y48298000D01*
X2121426Y48242853D01*
X1860273Y48134680D01*
X1625241Y47977637D01*
X1425363Y47777759D01*
X1268320Y47542727D01*
X1160147Y47281574D01*
X1105000Y47004335D01*
X685000Y47004335D01*
X685000Y50057260D01*
X1817000Y50057260D01*
X1817000Y49764740D01*
X1874068Y49477842D01*
X1986010Y49207589D01*
X2148525Y48964368D01*
X2355368Y48757525D01*
X2598589Y48595010D01*
X2868842Y48483068D01*
X3155740Y48426000D01*
X3448260Y48426000D01*
X3735158Y48483068D01*
X4005411Y48595010D01*
X4248632Y48757525D01*
X4455475Y48964368D01*
X4577195Y49146534D01*
X4646822Y49029645D01*
X4841731Y48813412D01*
X5075080Y48639359D01*
X5337901Y48514175D01*
X5485110Y48469524D01*
X5715000Y48590845D01*
X5715000Y49784000D01*
X5695000Y49784000D01*
X5695000Y50038000D01*
X5715000Y50038000D01*
X5715000Y51231155D01*
X5969000Y51231155D01*
X5969000Y50038000D01*
X5989000Y50038000D01*
X5989000Y49784000D01*
X5969000Y49784000D01*
X5969000Y48590845D01*
X6198890Y48469524D01*
X6346099Y48514175D01*
X6608920Y48639359D01*
X6842269Y48813412D01*
X7037178Y49029645D01*
X7106805Y49146534D01*
X7228525Y48964368D01*
X7435368Y48757525D01*
X7678589Y48595010D01*
X7948842Y48483068D01*
X8235740Y48426000D01*
X8528260Y48426000D01*
X8815158Y48483068D01*
X9085411Y48595010D01*
X9328632Y48757525D01*
X9535475Y48964368D01*
X9652000Y49138760D01*
X9768525Y48964368D01*
X9975368Y48757525D01*
X10218589Y48595010D01*
X10488842Y48483068D01*
X10775740Y48426000D01*
X11068260Y48426000D01*
X11355158Y48483068D01*
X11625411Y48595010D01*
X11868632Y48757525D01*
X12075475Y48964368D01*
X12192000Y49138760D01*
X12308525Y48964368D01*
X12515368Y48757525D01*
X12758589Y48595010D01*
X13028842Y48483068D01*
X13315740Y48426000D01*
X13608260Y48426000D01*
X13895158Y48483068D01*
X14165411Y48595010D01*
X14408632Y48757525D01*
X14615475Y48964368D01*
X14732000Y49138760D01*
X14848525Y48964368D01*
X15055368Y48757525D01*
X15298589Y48595010D01*
X15568842Y48483068D01*
X15855740Y48426000D01*
X16148260Y48426000D01*
X16435158Y48483068D01*
X16705411Y48595010D01*
X16948632Y48757525D01*
X17155475Y48964368D01*
X17272000Y49138760D01*
X17388525Y48964368D01*
X17595368Y48757525D01*
X17737266Y48662712D01*
X12696998Y43622443D01*
X12668000Y43598645D01*
X12644202Y43569647D01*
X12644201Y43569646D01*
X12573026Y43482920D01*
X12502454Y43350890D01*
X12458998Y43207629D01*
X12444324Y43058644D01*
X12448001Y43021312D01*
X12448000Y40080044D01*
X12293241Y39976637D01*
X12093363Y39776759D01*
X11938000Y39544241D01*
X11782637Y39776759D01*
X11582759Y39976637D01*
X11347727Y40133680D01*
X11086574Y40241853D01*
X10809335Y40297000D01*
X10526665Y40297000D01*
X10249426Y40241853D01*
X9988273Y40133680D01*
X9753241Y39976637D01*
X9553363Y39776759D01*
X9398000Y39544241D01*
X9242637Y39776759D01*
X9042759Y39976637D01*
X8807727Y40133680D01*
X8546574Y40241853D01*
X8269335Y40297000D01*
X7986665Y40297000D01*
X7709426Y40241853D01*
X7448273Y40133680D01*
X7213241Y39976637D01*
X7013363Y39776759D01*
X6856320Y39541727D01*
X6748147Y39280574D01*
X6693000Y39003335D01*
X6693000Y38720665D01*
X6748147Y38443426D01*
X6856320Y38182273D01*
X7013363Y37947241D01*
X7213241Y37747363D01*
X7448273Y37590320D01*
X7709426Y37482147D01*
X7982291Y37427870D01*
X6282955Y35728533D01*
X6249182Y35700816D01*
X6138588Y35566057D01*
X6056410Y35412311D01*
X6005804Y35245488D01*
X5992999Y35115475D01*
X5992999Y35115468D01*
X5988718Y35071999D01*
X5992999Y35028530D01*
X5993000Y30685478D01*
X5988718Y30641999D01*
X6005804Y30468509D01*
X6056411Y30301686D01*
X6138589Y30147940D01*
X6221467Y30046953D01*
X6221470Y30046950D01*
X6249183Y30013182D01*
X6282951Y29985469D01*
X13277762Y22990658D01*
X13236363Y22949259D01*
X13079320Y22714227D01*
X12971147Y22453074D01*
X12916000Y22175835D01*
X12916000Y21893165D01*
X12971147Y21615926D01*
X13079320Y21354773D01*
X13236363Y21119741D01*
X13436241Y20919863D01*
X13671273Y20762820D01*
X13932426Y20654647D01*
X14209665Y20599500D01*
X14492335Y20599500D01*
X14769574Y20654647D01*
X15030727Y20762820D01*
X15265759Y20919863D01*
X15465637Y21119741D01*
X15621000Y21352259D01*
X15776363Y21119741D01*
X15976241Y20919863D01*
X16211273Y20762820D01*
X16472426Y20654647D01*
X16749665Y20599500D01*
X17032335Y20599500D01*
X17309574Y20654647D01*
X17570727Y20762820D01*
X17805759Y20919863D01*
X18005637Y21119741D01*
X18161000Y21352259D01*
X18316363Y21119741D01*
X18516241Y20919863D01*
X18751273Y20762820D01*
X19012426Y20654647D01*
X19289665Y20599500D01*
X19572335Y20599500D01*
X19849574Y20654647D01*
X20110727Y20762820D01*
X20345759Y20919863D01*
X20545637Y21119741D01*
X20701000Y21352259D01*
X20856363Y21119741D01*
X21056241Y20919863D01*
X21291273Y20762820D01*
X21552426Y20654647D01*
X21829665Y20599500D01*
X22112335Y20599500D01*
X22389574Y20654647D01*
X22650727Y20762820D01*
X22885759Y20919863D01*
X23085637Y21119741D01*
X23241000Y21352259D01*
X23396363Y21119741D01*
X23596241Y20919863D01*
X23831273Y20762820D01*
X24092426Y20654647D01*
X24369665Y20599500D01*
X24652335Y20599500D01*
X24929574Y20654647D01*
X25190727Y20762820D01*
X25425759Y20919863D01*
X25625637Y21119741D01*
X25781000Y21352259D01*
X25936363Y21119741D01*
X26136241Y20919863D01*
X26371273Y20762820D01*
X26632426Y20654647D01*
X26909665Y20599500D01*
X27192335Y20599500D01*
X27469574Y20654647D01*
X27730727Y20762820D01*
X27965759Y20919863D01*
X28164357Y21118461D01*
X28165188Y21110018D01*
X28201498Y20990320D01*
X28260463Y20880006D01*
X28339815Y20783315D01*
X28436506Y20703963D01*
X28546820Y20644998D01*
X28666518Y20608688D01*
X28791000Y20596428D01*
X30391000Y20596428D01*
X30515482Y20608688D01*
X30635180Y20644998D01*
X30745494Y20703963D01*
X30842185Y20783315D01*
X30921537Y20880006D01*
X30980502Y20990320D01*
X31016812Y21110018D01*
X31029072Y21234500D01*
X31029072Y22646850D01*
X37977000Y15698921D01*
X37977001Y11863693D01*
X37962932Y11829727D01*
X37927000Y11649087D01*
X37927000Y11464909D01*
X37962932Y11284269D01*
X38033414Y11114109D01*
X38135738Y10960970D01*
X38265972Y10830736D01*
X38419111Y10728412D01*
X38589271Y10657930D01*
X38769911Y10621998D01*
X38954089Y10621998D01*
X39134729Y10657930D01*
X39304889Y10728412D01*
X39458028Y10830736D01*
X39588262Y10960970D01*
X39690586Y11114109D01*
X39761068Y11284269D01*
X39797000Y11464909D01*
X39797000Y11649087D01*
X39761068Y11829727D01*
X39747000Y11863690D01*
X39747000Y16022035D01*
X39751281Y16065501D01*
X39747000Y16108967D01*
X39747000Y16108977D01*
X39734195Y16238990D01*
X39683589Y16405813D01*
X39601411Y16559559D01*
X39490817Y16694317D01*
X39457051Y16722028D01*
X29062578Y27116500D01*
X35523701Y27116500D01*
X54705091Y7935109D01*
X54668589Y7919990D01*
X54425368Y7757475D01*
X54218525Y7550632D01*
X54102000Y7376240D01*
X53985475Y7550632D01*
X53778632Y7757475D01*
X53535411Y7919990D01*
X53265158Y8031932D01*
X52978260Y8089000D01*
X52685740Y8089000D01*
X52398842Y8031932D01*
X52128589Y7919990D01*
X51885368Y7757475D01*
X51678525Y7550632D01*
X51562000Y7376240D01*
X51445475Y7550632D01*
X51238632Y7757475D01*
X50995411Y7919990D01*
X50725158Y8031932D01*
X50438260Y8089000D01*
X50145740Y8089000D01*
X49858842Y8031932D01*
X49588589Y7919990D01*
X49345368Y7757475D01*
X49138525Y7550632D01*
X49016805Y7368466D01*
X48947178Y7485355D01*
X48752269Y7701588D01*
X48518920Y7875641D01*
X48256099Y8000825D01*
X48108890Y8045476D01*
X47879000Y7924155D01*
X47879000Y6731000D01*
X47899000Y6731000D01*
X47899000Y6477000D01*
X47879000Y6477000D01*
X47879000Y6457000D01*
X47625000Y6457000D01*
X47625000Y6477000D01*
X47605000Y6477000D01*
X47605000Y6731000D01*
X47625000Y6731000D01*
X47625000Y7924155D01*
X47395110Y8045476D01*
X47247901Y8000825D01*
X46985080Y7875641D01*
X46751731Y7701588D01*
X46556822Y7485355D01*
X46487195Y7368466D01*
X46365475Y7550632D01*
X46158632Y7757475D01*
X45915411Y7919990D01*
X45645158Y8031932D01*
X45358260Y8089000D01*
X45065740Y8089000D01*
X44778842Y8031932D01*
X44508589Y7919990D01*
X44265368Y7757475D01*
X44058525Y7550632D01*
X43942000Y7376240D01*
X43825475Y7550632D01*
X43618632Y7757475D01*
X43375411Y7919990D01*
X43105158Y8031932D01*
X42818260Y8089000D01*
X42525740Y8089000D01*
X42238842Y8031932D01*
X41968589Y7919990D01*
X41725368Y7757475D01*
X41518525Y7550632D01*
X41402000Y7376240D01*
X41285475Y7550632D01*
X41078632Y7757475D01*
X40835411Y7919990D01*
X40565158Y8031932D01*
X40278260Y8089000D01*
X39985740Y8089000D01*
X39698842Y8031932D01*
X39428589Y7919990D01*
X39185368Y7757475D01*
X38978525Y7550632D01*
X38862000Y7376240D01*
X38745475Y7550632D01*
X38538632Y7757475D01*
X38295411Y7919990D01*
X38025158Y8031932D01*
X37738260Y8089000D01*
X37445740Y8089000D01*
X37158842Y8031932D01*
X36888589Y7919990D01*
X36645368Y7757475D01*
X36438525Y7550632D01*
X36322000Y7376240D01*
X36205475Y7550632D01*
X35998632Y7757475D01*
X35755411Y7919990D01*
X35485158Y8031932D01*
X35198260Y8089000D01*
X34905740Y8089000D01*
X34618842Y8031932D01*
X34348589Y7919990D01*
X34105368Y7757475D01*
X33898525Y7550632D01*
X33782000Y7376240D01*
X33665475Y7550632D01*
X33458632Y7757475D01*
X33215411Y7919990D01*
X32945158Y8031932D01*
X32658260Y8089000D01*
X32365740Y8089000D01*
X32078842Y8031932D01*
X31808589Y7919990D01*
X31565368Y7757475D01*
X31358525Y7550632D01*
X31242000Y7376240D01*
X31125475Y7550632D01*
X30918632Y7757475D01*
X30675411Y7919990D01*
X30405158Y8031932D01*
X30118260Y8089000D01*
X29825740Y8089000D01*
X29538842Y8031932D01*
X29268589Y7919990D01*
X29224999Y7890864D01*
X29224999Y10054130D01*
X29426184Y10003700D01*
X29708512Y9989783D01*
X29988130Y10031213D01*
X30254292Y10126397D01*
X30379514Y10193329D01*
X30451097Y10437298D01*
X29638000Y11250395D01*
X29623858Y11236253D01*
X29444253Y11415858D01*
X29458395Y11430000D01*
X29817605Y11430000D01*
X30630702Y10616903D01*
X30874671Y10688486D01*
X30995571Y10943996D01*
X31064300Y11218184D01*
X31078217Y11500512D01*
X31036787Y11780130D01*
X30941603Y12046292D01*
X30874671Y12171514D01*
X30630702Y12243097D01*
X29817605Y11430000D01*
X29458395Y11430000D01*
X29444253Y11444143D01*
X29623858Y11623748D01*
X29638000Y11609605D01*
X30451097Y12422702D01*
X30379514Y12666671D01*
X30124004Y12787571D01*
X29849816Y12856300D01*
X29567488Y12870217D01*
X29287870Y12828787D01*
X29224999Y12806303D01*
X29224999Y13027741D01*
X29241961Y13022596D01*
X29464000Y13144585D01*
X29464000Y14287500D01*
X29718000Y14287500D01*
X29718000Y13144585D01*
X29940039Y13022596D01*
X30074087Y13063254D01*
X30328420Y13183463D01*
X30554414Y13350981D01*
X30743385Y13559369D01*
X30888070Y13800619D01*
X30982909Y14065460D01*
X30861624Y14287500D01*
X29718000Y14287500D01*
X29464000Y14287500D01*
X29444000Y14287500D01*
X29444000Y14541500D01*
X29464000Y14541500D01*
X29464000Y15684415D01*
X29718000Y15684415D01*
X29718000Y14541500D01*
X30861624Y14541500D01*
X30982909Y14763540D01*
X30888070Y15028381D01*
X30743385Y15269631D01*
X30554414Y15478019D01*
X30328420Y15645537D01*
X30074087Y15765746D01*
X29940039Y15806404D01*
X29718000Y15684415D01*
X29464000Y15684415D01*
X29241961Y15806404D01*
X29224999Y15801259D01*
X29224999Y17895545D01*
X29257204Y17943743D01*
X29335225Y18132101D01*
X29374999Y18332060D01*
X29374999Y18535938D01*
X29335225Y18735897D01*
X29257204Y18924255D01*
X29143936Y19093773D01*
X28999773Y19237936D01*
X28830255Y19351204D01*
X28641897Y19429225D01*
X28441938Y19468999D01*
X28238060Y19468999D01*
X28038101Y19429225D01*
X27849743Y19351204D01*
X27680225Y19237936D01*
X27536062Y19093773D01*
X27422794Y18924255D01*
X27344773Y18735897D01*
X27304999Y18535938D01*
X27304999Y18332060D01*
X27344773Y18132101D01*
X27422794Y17943743D01*
X27454999Y17895545D01*
X27454999Y15797252D01*
X27192335Y15849500D01*
X26909665Y15849500D01*
X26632426Y15794353D01*
X26371273Y15686180D01*
X26136241Y15529137D01*
X25936363Y15329259D01*
X25781000Y15096741D01*
X25625637Y15329259D01*
X25425759Y15529137D01*
X25190727Y15686180D01*
X24929574Y15794353D01*
X24652335Y15849500D01*
X24369665Y15849500D01*
X24092426Y15794353D01*
X23831273Y15686180D01*
X23596241Y15529137D01*
X23396363Y15329259D01*
X23241000Y15096741D01*
X23085637Y15329259D01*
X22885759Y15529137D01*
X22650727Y15686180D01*
X22389574Y15794353D01*
X22112335Y15849500D01*
X21829665Y15849500D01*
X21552426Y15794353D01*
X21291273Y15686180D01*
X21056241Y15529137D01*
X20856363Y15329259D01*
X20701000Y15096741D01*
X20545637Y15329259D01*
X20345759Y15529137D01*
X20110727Y15686180D01*
X19849574Y15794353D01*
X19572335Y15849500D01*
X19289665Y15849500D01*
X19012426Y15794353D01*
X18751273Y15686180D01*
X18516241Y15529137D01*
X18316363Y15329259D01*
X18161000Y15096741D01*
X18005637Y15329259D01*
X17805759Y15529137D01*
X17570727Y15686180D01*
X17309574Y15794353D01*
X17032335Y15849500D01*
X16749665Y15849500D01*
X16472426Y15794353D01*
X16211273Y15686180D01*
X15976241Y15529137D01*
X15776363Y15329259D01*
X15621000Y15096741D01*
X15465637Y15329259D01*
X15265759Y15529137D01*
X15030727Y15686180D01*
X14769574Y15794353D01*
X14492335Y15849500D01*
X14209665Y15849500D01*
X13932426Y15794353D01*
X13671273Y15686180D01*
X13436241Y15529137D01*
X13236363Y15329259D01*
X13079320Y15094227D01*
X12971147Y14833074D01*
X12916000Y14555835D01*
X12916000Y14273165D01*
X12971147Y13995926D01*
X13079320Y13734773D01*
X13236363Y13499741D01*
X13436241Y13299863D01*
X13671273Y13142820D01*
X13932426Y13034647D01*
X14209665Y12979500D01*
X14492335Y12979500D01*
X14769574Y13034647D01*
X15030727Y13142820D01*
X15265759Y13299863D01*
X15465637Y13499741D01*
X15621000Y13732259D01*
X15776363Y13499741D01*
X15976241Y13299863D01*
X16211273Y13142820D01*
X16472426Y13034647D01*
X16749665Y12979500D01*
X17032335Y12979500D01*
X17309574Y13034647D01*
X17570727Y13142820D01*
X17805759Y13299863D01*
X18005637Y13499741D01*
X18161000Y13732259D01*
X18316363Y13499741D01*
X18516241Y13299863D01*
X18751273Y13142820D01*
X19012426Y13034647D01*
X19289665Y12979500D01*
X19572335Y12979500D01*
X19849574Y13034647D01*
X20110727Y13142820D01*
X20345759Y13299863D01*
X20545637Y13499741D01*
X20701000Y13732259D01*
X20856363Y13499741D01*
X21056241Y13299863D01*
X21291273Y13142820D01*
X21552426Y13034647D01*
X21829665Y12979500D01*
X22112335Y12979500D01*
X22389574Y13034647D01*
X22650727Y13142820D01*
X22885759Y13299863D01*
X23085637Y13499741D01*
X23241000Y13732259D01*
X23396363Y13499741D01*
X23596241Y13299863D01*
X23831273Y13142820D01*
X24092426Y13034647D01*
X24369665Y12979500D01*
X24652335Y12979500D01*
X24929574Y13034647D01*
X25190727Y13142820D01*
X25425759Y13299863D01*
X25625637Y13499741D01*
X25734614Y13662836D01*
X25821717Y13499878D01*
X25963552Y13327052D01*
X26136378Y13185217D01*
X26333554Y13079824D01*
X26547502Y13014923D01*
X26770000Y12993009D01*
X26817990Y12997736D01*
X26909665Y12979500D01*
X27192335Y12979500D01*
X27454999Y13031748D01*
X27455000Y8089000D01*
X27285740Y8089000D01*
X26998842Y8031932D01*
X26728589Y7919990D01*
X26485368Y7757475D01*
X26278525Y7550632D01*
X26162000Y7376240D01*
X26045475Y7550632D01*
X25838632Y7757475D01*
X25595411Y7919990D01*
X25325158Y8031932D01*
X25038260Y8089000D01*
X24745740Y8089000D01*
X24458842Y8031932D01*
X24188589Y7919990D01*
X23945368Y7757475D01*
X23738525Y7550632D01*
X23622000Y7376240D01*
X23505475Y7550632D01*
X23298632Y7757475D01*
X23055411Y7919990D01*
X22785158Y8031932D01*
X22498260Y8089000D01*
X22205740Y8089000D01*
X21918842Y8031932D01*
X21648589Y7919990D01*
X21405368Y7757475D01*
X21198525Y7550632D01*
X21082000Y7376240D01*
X20965475Y7550632D01*
X20758632Y7757475D01*
X20515411Y7919990D01*
X20245158Y8031932D01*
X19958260Y8089000D01*
X19665740Y8089000D01*
X19378842Y8031932D01*
X19108589Y7919990D01*
X18865368Y7757475D01*
X18658525Y7550632D01*
X18542000Y7376240D01*
X18425475Y7550632D01*
X18218632Y7757475D01*
X17975411Y7919990D01*
X17705158Y8031932D01*
X17418260Y8089000D01*
X17125740Y8089000D01*
X16838842Y8031932D01*
X16568589Y7919990D01*
X16325368Y7757475D01*
X16118525Y7550632D01*
X15956010Y7307411D01*
X15844068Y7037158D01*
X15787000Y6750260D01*
X15787000Y6457740D01*
X15844068Y6170842D01*
X15956010Y5900589D01*
X16118525Y5657368D01*
X16325368Y5450525D01*
X16499760Y5334000D01*
X16325368Y5217475D01*
X16118525Y5010632D01*
X15956010Y4767411D01*
X15844068Y4497158D01*
X15787000Y4210260D01*
X15787000Y3917740D01*
X15844068Y3630842D01*
X15956010Y3360589D01*
X16118525Y3117368D01*
X16325368Y2910525D01*
X16568589Y2748010D01*
X16838842Y2636068D01*
X17125740Y2579000D01*
X17418260Y2579000D01*
X17705158Y2636068D01*
X17975411Y2748010D01*
X18218632Y2910525D01*
X18425475Y3117368D01*
X18542000Y3291760D01*
X18658525Y3117368D01*
X18865368Y2910525D01*
X19108589Y2748010D01*
X19378842Y2636068D01*
X19665740Y2579000D01*
X19958260Y2579000D01*
X20245158Y2636068D01*
X20515411Y2748010D01*
X20758632Y2910525D01*
X20965475Y3117368D01*
X21082000Y3291760D01*
X21198525Y3117368D01*
X21405368Y2910525D01*
X21648589Y2748010D01*
X21918842Y2636068D01*
X22205740Y2579000D01*
X22498260Y2579000D01*
X22785158Y2636068D01*
X23055411Y2748010D01*
X23298632Y2910525D01*
X23505475Y3117368D01*
X23622000Y3291760D01*
X23738525Y3117368D01*
X23945368Y2910525D01*
X24188589Y2748010D01*
X24458842Y2636068D01*
X24745740Y2579000D01*
X25038260Y2579000D01*
X25325158Y2636068D01*
X25595411Y2748010D01*
X25838632Y2910525D01*
X26045475Y3117368D01*
X26162000Y3291760D01*
X26278525Y3117368D01*
X26485368Y2910525D01*
X26728589Y2748010D01*
X26998842Y2636068D01*
X27285740Y2579000D01*
X27578260Y2579000D01*
X27865158Y2636068D01*
X28135411Y2748010D01*
X28378632Y2910525D01*
X28585475Y3117368D01*
X28702000Y3291760D01*
X28818525Y3117368D01*
X29025368Y2910525D01*
X29268589Y2748010D01*
X29538842Y2636068D01*
X29825740Y2579000D01*
X30118260Y2579000D01*
X30405158Y2636068D01*
X30675411Y2748010D01*
X30918632Y2910525D01*
X31125475Y3117368D01*
X31242000Y3291760D01*
X31358525Y3117368D01*
X31565368Y2910525D01*
X31808589Y2748010D01*
X32078842Y2636068D01*
X32365740Y2579000D01*
X32658260Y2579000D01*
X32945158Y2636068D01*
X33215411Y2748010D01*
X33458632Y2910525D01*
X33665475Y3117368D01*
X33782000Y3291760D01*
X33898525Y3117368D01*
X34105368Y2910525D01*
X34348589Y2748010D01*
X34618842Y2636068D01*
X34905740Y2579000D01*
X35198260Y2579000D01*
X35485158Y2636068D01*
X35755411Y2748010D01*
X35998632Y2910525D01*
X36205475Y3117368D01*
X36322000Y3291760D01*
X36438525Y3117368D01*
X36645368Y2910525D01*
X36888589Y2748010D01*
X37158842Y2636068D01*
X37445740Y2579000D01*
X37738260Y2579000D01*
X38025158Y2636068D01*
X38295411Y2748010D01*
X38538632Y2910525D01*
X38745475Y3117368D01*
X38862000Y3291760D01*
X38978525Y3117368D01*
X39185368Y2910525D01*
X39428589Y2748010D01*
X39698842Y2636068D01*
X39985740Y2579000D01*
X40278260Y2579000D01*
X40565158Y2636068D01*
X40835411Y2748010D01*
X41078632Y2910525D01*
X41285475Y3117368D01*
X41402000Y3291760D01*
X41518525Y3117368D01*
X41725368Y2910525D01*
X41968589Y2748010D01*
X42238842Y2636068D01*
X42525740Y2579000D01*
X42818260Y2579000D01*
X43105158Y2636068D01*
X43375411Y2748010D01*
X43618632Y2910525D01*
X43825475Y3117368D01*
X43942000Y3291760D01*
X44058525Y3117368D01*
X44265368Y2910525D01*
X44508589Y2748010D01*
X44778842Y2636068D01*
X45065740Y2579000D01*
X45358260Y2579000D01*
X45645158Y2636068D01*
X45915411Y2748010D01*
X46158632Y2910525D01*
X46365475Y3117368D01*
X46482000Y3291760D01*
X46598525Y3117368D01*
X46805368Y2910525D01*
X47048589Y2748010D01*
X47318842Y2636068D01*
X47605740Y2579000D01*
X47898260Y2579000D01*
X48185158Y2636068D01*
X48455411Y2748010D01*
X48698632Y2910525D01*
X48905475Y3117368D01*
X49027195Y3299534D01*
X49096822Y3182645D01*
X49291731Y2966412D01*
X49525080Y2792359D01*
X49787901Y2667175D01*
X49935110Y2622524D01*
X50165000Y2743845D01*
X50165000Y3937000D01*
X50145000Y3937000D01*
X50145000Y4191000D01*
X50165000Y4191000D01*
X50165000Y4211000D01*
X50419000Y4211000D01*
X50419000Y4191000D01*
X50439000Y4191000D01*
X50439000Y3937000D01*
X50419000Y3937000D01*
X50419000Y2743845D01*
X50648890Y2622524D01*
X50796099Y2667175D01*
X51058920Y2792359D01*
X51292269Y2966412D01*
X51487178Y3182645D01*
X51556805Y3299534D01*
X51678525Y3117368D01*
X51885368Y2910525D01*
X52128589Y2748010D01*
X52398842Y2636068D01*
X52685740Y2579000D01*
X52978260Y2579000D01*
X53265158Y2636068D01*
X53535411Y2748010D01*
X53778632Y2910525D01*
X53985475Y3117368D01*
X54102000Y3291760D01*
X54218525Y3117368D01*
X54425368Y2910525D01*
X54668589Y2748010D01*
X54938842Y2636068D01*
X55225740Y2579000D01*
X55518260Y2579000D01*
X55805158Y2636068D01*
X56075411Y2748010D01*
X56318632Y2910525D01*
X56525475Y3117368D01*
X56642000Y3291760D01*
X56758525Y3117368D01*
X56965368Y2910525D01*
X57208589Y2748010D01*
X57478842Y2636068D01*
X57765740Y2579000D01*
X58058260Y2579000D01*
X58345158Y2636068D01*
X58615411Y2748010D01*
X58858632Y2910525D01*
X59065475Y3117368D01*
X59182000Y3291760D01*
X59298525Y3117368D01*
X59505368Y2910525D01*
X59748589Y2748010D01*
X60018842Y2636068D01*
X60305740Y2579000D01*
X60598260Y2579000D01*
X60885158Y2636068D01*
X61155411Y2748010D01*
X61398632Y2910525D01*
X61605475Y3117368D01*
X61722000Y3291760D01*
X61838525Y3117368D01*
X62045368Y2910525D01*
X62288589Y2748010D01*
X62558842Y2636068D01*
X62845740Y2579000D01*
X63138260Y2579000D01*
X63425158Y2636068D01*
X63695411Y2748010D01*
X63938632Y2910525D01*
X64145475Y3117368D01*
X64262000Y3291760D01*
X64378525Y3117368D01*
X64585368Y2910525D01*
X64828589Y2748010D01*
X65098842Y2636068D01*
X65385740Y2579000D01*
X65678260Y2579000D01*
X65965158Y2636068D01*
X66235411Y2748010D01*
X66478632Y2910525D01*
X66685475Y3117368D01*
X66802000Y3291760D01*
X66918525Y3117368D01*
X67125368Y2910525D01*
X67368589Y2748010D01*
X67638842Y2636068D01*
X67925740Y2579000D01*
X68218260Y2579000D01*
X68505158Y2636068D01*
X68775411Y2748010D01*
X69018632Y2910525D01*
X69225475Y3117368D01*
X69342000Y3291760D01*
X69458525Y3117368D01*
X69665368Y2910525D01*
X69908589Y2748010D01*
X70178842Y2636068D01*
X70465740Y2579000D01*
X70758260Y2579000D01*
X71045158Y2636068D01*
X71315411Y2748010D01*
X71558632Y2910525D01*
X71765475Y3117368D01*
X71882000Y3291760D01*
X71998525Y3117368D01*
X72205368Y2910525D01*
X72448589Y2748010D01*
X72718842Y2636068D01*
X73005740Y2579000D01*
X73298260Y2579000D01*
X73585158Y2636068D01*
X73855411Y2748010D01*
X74098632Y2910525D01*
X74305475Y3117368D01*
X74422000Y3291760D01*
X74538525Y3117368D01*
X74745368Y2910525D01*
X74988589Y2748010D01*
X75258842Y2636068D01*
X75545740Y2579000D01*
X75838260Y2579000D01*
X76125158Y2636068D01*
X76395411Y2748010D01*
X76638632Y2910525D01*
X76845475Y3117368D01*
X76962000Y3291760D01*
X77078525Y3117368D01*
X77285368Y2910525D01*
X77528589Y2748010D01*
X77798842Y2636068D01*
X78085740Y2579000D01*
X78378260Y2579000D01*
X78665158Y2636068D01*
X78935411Y2748010D01*
X79178632Y2910525D01*
X79385475Y3117368D01*
X79547990Y3360589D01*
X79659932Y3630842D01*
X79717000Y3917740D01*
X79717000Y4210260D01*
X79659932Y4497158D01*
X79547990Y4767411D01*
X79385475Y5010632D01*
X79253620Y5142487D01*
X79326180Y5164498D01*
X79436494Y5223463D01*
X79533185Y5302815D01*
X79612537Y5399506D01*
X79671502Y5509820D01*
X79707812Y5629518D01*
X79720072Y5754000D01*
X79720072Y7454000D01*
X79707812Y7578482D01*
X79671502Y7698180D01*
X79612537Y7808494D01*
X79533185Y7905185D01*
X79436494Y7984537D01*
X79326180Y8043502D01*
X79206482Y8079812D01*
X79082000Y8092072D01*
X77382000Y8092072D01*
X77257518Y8079812D01*
X77137820Y8043502D01*
X77027506Y7984537D01*
X76930815Y7905185D01*
X76851463Y7808494D01*
X76792498Y7698180D01*
X76770487Y7625620D01*
X76638632Y7757475D01*
X76395411Y7919990D01*
X76125158Y8031932D01*
X75838260Y8089000D01*
X75545740Y8089000D01*
X75258842Y8031932D01*
X74988589Y7919990D01*
X74785508Y7784296D01*
X55255316Y27314487D01*
X55231513Y27343491D01*
X55115788Y27438464D01*
X54983759Y27509036D01*
X54840498Y27552493D01*
X54728845Y27563490D01*
X54728834Y27563490D01*
X54691512Y27567166D01*
X54654190Y27563490D01*
X51108312Y27563490D01*
X49245801Y29426000D01*
X49417335Y29426000D01*
X49694574Y29481147D01*
X49955727Y29589320D01*
X50190759Y29746363D01*
X50390637Y29946241D01*
X50547680Y30181273D01*
X50552067Y30191865D01*
X50663615Y30005869D01*
X50852586Y29797481D01*
X51078580Y29629963D01*
X51332913Y29509754D01*
X51466961Y29469096D01*
X51689000Y29591085D01*
X51689000Y30734000D01*
X51943000Y30734000D01*
X51943000Y29591085D01*
X52165039Y29469096D01*
X52299087Y29509754D01*
X52420836Y29567298D01*
X54050903Y29567298D01*
X54122486Y29323329D01*
X54377996Y29202429D01*
X54652184Y29133700D01*
X54934512Y29119783D01*
X55214130Y29161213D01*
X55480292Y29256397D01*
X55605514Y29323329D01*
X55677097Y29567298D01*
X54864000Y30380395D01*
X54050903Y29567298D01*
X52420836Y29567298D01*
X52553420Y29629963D01*
X52779414Y29797481D01*
X52968385Y30005869D01*
X53113070Y30247119D01*
X53207909Y30511960D01*
X53086624Y30734000D01*
X51943000Y30734000D01*
X51689000Y30734000D01*
X51669000Y30734000D01*
X51669000Y30988000D01*
X51689000Y30988000D01*
X51689000Y31008000D01*
X51943000Y31008000D01*
X51943000Y30988000D01*
X53086624Y30988000D01*
X53207909Y31210040D01*
X53202193Y31226001D01*
X53591598Y31226001D01*
X53506429Y31046004D01*
X53437700Y30771816D01*
X53423783Y30489488D01*
X53465213Y30209870D01*
X53560397Y29943708D01*
X53627329Y29818486D01*
X53871298Y29746903D01*
X54684395Y30560000D01*
X54670253Y30574143D01*
X54849858Y30753748D01*
X54864000Y30739605D01*
X54878143Y30753748D01*
X55057748Y30574143D01*
X55043605Y30560000D01*
X55856702Y29746903D01*
X56100671Y29818486D01*
X56221571Y30073996D01*
X56290300Y30348184D01*
X56304217Y30630512D01*
X56262787Y30910130D01*
X56167603Y31176292D01*
X56141033Y31226001D01*
X56231921Y31226001D01*
X56547483Y30910439D01*
X56540500Y30875335D01*
X56540500Y30592665D01*
X56595647Y30315426D01*
X56703820Y30054273D01*
X56860863Y29819241D01*
X57060741Y29619363D01*
X57295773Y29462320D01*
X57556926Y29354147D01*
X57834165Y29299000D01*
X58116835Y29299000D01*
X58394074Y29354147D01*
X58655227Y29462320D01*
X58890259Y29619363D01*
X59090137Y29819241D01*
X59110021Y29849000D01*
X59380979Y29849000D01*
X59400863Y29819241D01*
X59600741Y29619363D01*
X59835773Y29462320D01*
X60096926Y29354147D01*
X60374165Y29299000D01*
X60656835Y29299000D01*
X60934074Y29354147D01*
X61195227Y29462320D01*
X61430259Y29619363D01*
X61630137Y29819241D01*
X61785500Y30051759D01*
X61940863Y29819241D01*
X62140741Y29619363D01*
X62375773Y29462320D01*
X62636926Y29354147D01*
X62914165Y29299000D01*
X63196835Y29299000D01*
X63474074Y29354147D01*
X63735227Y29462320D01*
X63970259Y29619363D01*
X64170137Y29819241D01*
X64325500Y30051759D01*
X64480863Y29819241D01*
X64680741Y29619363D01*
X64915773Y29462320D01*
X65176926Y29354147D01*
X65454165Y29299000D01*
X65736835Y29299000D01*
X66014074Y29354147D01*
X66275227Y29462320D01*
X66510259Y29619363D01*
X66710137Y29819241D01*
X66865500Y30051759D01*
X67020863Y29819241D01*
X67220741Y29619363D01*
X67455773Y29462320D01*
X67716926Y29354147D01*
X67994165Y29299000D01*
X68276835Y29299000D01*
X68459386Y29335312D01*
X68841700Y28952998D01*
X68865499Y28923999D01*
X68981224Y28829026D01*
X69113253Y28758454D01*
X69256514Y28714997D01*
X69368167Y28704000D01*
X69368176Y28704000D01*
X69405499Y28700324D01*
X69442822Y28704000D01*
X69600604Y28704000D01*
X69497363Y28600759D01*
X69340320Y28365727D01*
X69232147Y28104574D01*
X69177000Y27827335D01*
X69177000Y27544665D01*
X69232147Y27267426D01*
X69340320Y27006273D01*
X69497363Y26771241D01*
X69697241Y26571363D01*
X69932273Y26414320D01*
X70193426Y26306147D01*
X70470665Y26251000D01*
X70753335Y26251000D01*
X71030574Y26306147D01*
X71291727Y26414320D01*
X71526759Y26571363D01*
X71630001Y26674605D01*
X71630000Y15658322D01*
X71626324Y15621000D01*
X71630000Y15583678D01*
X71630000Y15583668D01*
X71640997Y15472015D01*
X71651715Y15436683D01*
X71684454Y15328754D01*
X71755026Y15196724D01*
X71794871Y15148174D01*
X71849999Y15080999D01*
X71879003Y15057196D01*
X74768847Y12167351D01*
X74792932Y12046271D01*
X74863414Y11876111D01*
X74965738Y11722972D01*
X75095972Y11592738D01*
X75249111Y11490414D01*
X75419271Y11419932D01*
X75599911Y11384000D01*
X75784089Y11384000D01*
X75964729Y11419932D01*
X76134889Y11490414D01*
X76200000Y11533920D01*
X76265111Y11490414D01*
X76435271Y11419932D01*
X76615911Y11384000D01*
X76800089Y11384000D01*
X76980729Y11419932D01*
X77150889Y11490414D01*
X77304028Y11592738D01*
X77434262Y11722972D01*
X77536586Y11876111D01*
X77607068Y12046271D01*
X77643000Y12226911D01*
X77643000Y12411089D01*
X77607068Y12591729D01*
X77536586Y12761889D01*
X77434262Y12915028D01*
X77304028Y13045262D01*
X77150889Y13147586D01*
X76980729Y13218068D01*
X76859650Y13242152D01*
X73912000Y16189801D01*
X73912000Y26693298D01*
X74798903Y26693298D01*
X74870486Y26449329D01*
X75125996Y26328429D01*
X75400184Y26259700D01*
X75682512Y26245783D01*
X75962130Y26287213D01*
X76228292Y26382397D01*
X76353514Y26449329D01*
X76425097Y26693298D01*
X75612000Y27506395D01*
X74798903Y26693298D01*
X73912000Y26693298D01*
X73912000Y27615488D01*
X74171783Y27615488D01*
X74213213Y27335870D01*
X74308397Y27069708D01*
X74375329Y26944486D01*
X74619298Y26872903D01*
X75432395Y27686000D01*
X75791605Y27686000D01*
X76604702Y26872903D01*
X76848671Y26944486D01*
X76969571Y27199996D01*
X77038300Y27474184D01*
X77052217Y27756512D01*
X77010787Y28036130D01*
X76915603Y28302292D01*
X76848671Y28427514D01*
X76604702Y28499097D01*
X75791605Y27686000D01*
X75432395Y27686000D01*
X74619298Y28499097D01*
X74375329Y28427514D01*
X74254429Y28172004D01*
X74185700Y27897816D01*
X74171783Y27615488D01*
X73912000Y27615488D01*
X73912000Y27811682D01*
X73915676Y27849005D01*
X73912000Y27886328D01*
X73912000Y27886337D01*
X73901003Y27997990D01*
X73857546Y28141251D01*
X73786974Y28273280D01*
X73692001Y28389005D01*
X73663004Y28412802D01*
X73397104Y28678702D01*
X74798903Y28678702D01*
X75612000Y27865605D01*
X76425097Y28678702D01*
X76353514Y28922671D01*
X76098004Y29043571D01*
X75823816Y29112300D01*
X75541488Y29126217D01*
X75261870Y29084787D01*
X74995708Y28989603D01*
X74870486Y28922671D01*
X74798903Y28678702D01*
X73397104Y28678702D01*
X72668436Y29407369D01*
X72796926Y29354147D01*
X73074165Y29299000D01*
X73356835Y29299000D01*
X73634074Y29354147D01*
X73895227Y29462320D01*
X74130259Y29619363D01*
X74330137Y29819241D01*
X74487180Y30054273D01*
X74491567Y30064865D01*
X74603115Y29878869D01*
X74792086Y29670481D01*
X75018080Y29502963D01*
X75272413Y29382754D01*
X75406461Y29342096D01*
X75628500Y29464085D01*
X75628500Y30607000D01*
X75882500Y30607000D01*
X75882500Y29464085D01*
X76104539Y29342096D01*
X76238587Y29382754D01*
X76492920Y29502963D01*
X76718914Y29670481D01*
X76907885Y29878869D01*
X77052570Y30120119D01*
X77147409Y30384960D01*
X77026124Y30607000D01*
X75882500Y30607000D01*
X75628500Y30607000D01*
X75608500Y30607000D01*
X75608500Y30861000D01*
X75628500Y30861000D01*
X75628500Y32003915D01*
X75882500Y32003915D01*
X75882500Y30861000D01*
X77026124Y30861000D01*
X77147409Y31083040D01*
X77052570Y31347881D01*
X76907885Y31589131D01*
X76718914Y31797519D01*
X76492920Y31965037D01*
X76238587Y32085246D01*
X76104539Y32125904D01*
X75882500Y32003915D01*
X75628500Y32003915D01*
X75406461Y32125904D01*
X75272413Y32085246D01*
X75018080Y31965037D01*
X74792086Y31797519D01*
X74603115Y31589131D01*
X74491567Y31403135D01*
X74487180Y31413727D01*
X74330137Y31648759D01*
X74130259Y31848637D01*
X73895227Y32005680D01*
X73634074Y32113853D01*
X73356835Y32169000D01*
X73074165Y32169000D01*
X72796926Y32113853D01*
X72535773Y32005680D01*
X72300741Y31848637D01*
X72100863Y31648759D01*
X71945500Y31416241D01*
X71790137Y31648759D01*
X71590259Y31848637D01*
X71355227Y32005680D01*
X71094074Y32113853D01*
X70816835Y32169000D01*
X70534165Y32169000D01*
X70256926Y32113853D01*
X69995773Y32005680D01*
X69760741Y31848637D01*
X69560863Y31648759D01*
X69405500Y31416241D01*
X69250137Y31648759D01*
X69050259Y31848637D01*
X68815227Y32005680D01*
X68554074Y32113853D01*
X68276835Y32169000D01*
X67994165Y32169000D01*
X67716926Y32113853D01*
X67455773Y32005680D01*
X67220741Y31848637D01*
X67020863Y31648759D01*
X66865500Y31416241D01*
X66710137Y31648759D01*
X66510259Y31848637D01*
X66275227Y32005680D01*
X66014074Y32113853D01*
X65736835Y32169000D01*
X65454165Y32169000D01*
X65176926Y32113853D01*
X64915773Y32005680D01*
X64680741Y31848637D01*
X64480863Y31648759D01*
X64325500Y31416241D01*
X64170137Y31648759D01*
X63970259Y31848637D01*
X63735227Y32005680D01*
X63474074Y32113853D01*
X63196835Y32169000D01*
X62914165Y32169000D01*
X62636926Y32113853D01*
X62375773Y32005680D01*
X62140741Y31848637D01*
X61940863Y31648759D01*
X61785500Y31416241D01*
X61630137Y31648759D01*
X61430259Y31848637D01*
X61195227Y32005680D01*
X60934074Y32113853D01*
X60656835Y32169000D01*
X60374165Y32169000D01*
X60096926Y32113853D01*
X59835773Y32005680D01*
X59600741Y31848637D01*
X59400863Y31648759D01*
X59380979Y31619000D01*
X59110021Y31619000D01*
X59090137Y31648759D01*
X58890259Y31848637D01*
X58655227Y32005680D01*
X58394074Y32113853D01*
X58116835Y32169000D01*
X57834165Y32169000D01*
X57799061Y32162017D01*
X57255033Y32706045D01*
X57227316Y32739818D01*
X57092558Y32850412D01*
X56938812Y32932590D01*
X56771989Y32983196D01*
X56641976Y32996001D01*
X56641968Y32996001D01*
X56598499Y33000282D01*
X56555030Y32996001D01*
X37869466Y32996001D01*
X37826000Y33000282D01*
X37782534Y32996001D01*
X37782524Y32996001D01*
X37652511Y32983196D01*
X37485688Y32932590D01*
X37331942Y32850412D01*
X37331940Y32850411D01*
X37331941Y32850411D01*
X37230954Y32767533D01*
X37230952Y32767531D01*
X37197184Y32739818D01*
X37169471Y32706050D01*
X36752439Y32289017D01*
X36717335Y32296000D01*
X36434665Y32296000D01*
X36157426Y32240853D01*
X35896273Y32132680D01*
X35661241Y31975637D01*
X35461363Y31775759D01*
X35441479Y31746000D01*
X35170521Y31746000D01*
X35150637Y31775759D01*
X34950759Y31975637D01*
X34715727Y32132680D01*
X34454574Y32240853D01*
X34177335Y32296000D01*
X33894665Y32296000D01*
X33859561Y32289017D01*
X32978034Y33170544D01*
X32950317Y33204317D01*
X32815559Y33314911D01*
X32661813Y33397089D01*
X32494990Y33447695D01*
X32364977Y33460500D01*
X32364969Y33460500D01*
X32321500Y33464781D01*
X32278031Y33460500D01*
X12044969Y33460500D01*
X12001500Y33464781D01*
X11958031Y33460500D01*
X11958023Y33460500D01*
X11828010Y33447695D01*
X11661187Y33397089D01*
X11507441Y33314911D01*
X11406453Y33232032D01*
X11406451Y33232030D01*
X11372683Y33204317D01*
X11344970Y33170549D01*
X10844439Y32670017D01*
X10809335Y32677000D01*
X10526665Y32677000D01*
X10249426Y32621853D01*
X9988273Y32513680D01*
X9753241Y32356637D01*
X9553363Y32156759D01*
X9533479Y32127000D01*
X9262521Y32127000D01*
X9242637Y32156759D01*
X9042759Y32356637D01*
X8807727Y32513680D01*
X8546574Y32621853D01*
X8269335Y32677000D01*
X7986665Y32677000D01*
X7762999Y32632509D01*
X7762999Y34705421D01*
X10491561Y37433983D01*
X10526665Y37427000D01*
X10809335Y37427000D01*
X10844439Y37433983D01*
X11789470Y36488951D01*
X11817183Y36455183D01*
X11850951Y36427470D01*
X11850953Y36427468D01*
X11927571Y36364589D01*
X11951941Y36344589D01*
X12105687Y36262411D01*
X12272510Y36211805D01*
X12402523Y36199000D01*
X12402531Y36199000D01*
X12446000Y36194719D01*
X12489469Y36199000D01*
X27569469Y36199000D01*
X27521000Y35955335D01*
X27521000Y35672665D01*
X27576147Y35395426D01*
X27684320Y35134273D01*
X27841363Y34899241D01*
X28041241Y34699363D01*
X28276273Y34542320D01*
X28537426Y34434147D01*
X28814665Y34379000D01*
X29097335Y34379000D01*
X29374574Y34434147D01*
X29635727Y34542320D01*
X29870759Y34699363D01*
X30070637Y34899241D01*
X30227680Y35134273D01*
X30335853Y35395426D01*
X30391000Y35672665D01*
X30391000Y35955335D01*
X30342531Y36199000D01*
X35135531Y36199000D01*
X35179000Y36194719D01*
X35222469Y36199000D01*
X35222477Y36199000D01*
X35352490Y36211805D01*
X35519313Y36262411D01*
X35673059Y36344589D01*
X35807817Y36455183D01*
X35835534Y36488956D01*
X36399561Y37052983D01*
X36434665Y37046000D01*
X36717335Y37046000D01*
X36752439Y37052983D01*
X37296471Y36508950D01*
X37324184Y36475182D01*
X37357952Y36447469D01*
X37357954Y36447467D01*
X37382323Y36427468D01*
X37458942Y36364588D01*
X37612688Y36282410D01*
X37779511Y36231804D01*
X37909524Y36218999D01*
X37909534Y36218999D01*
X37953000Y36214718D01*
X37996466Y36218999D01*
X53583734Y36218999D01*
X53484147Y35978574D01*
X53429000Y35701335D01*
X53429000Y35418665D01*
X53484147Y35141426D01*
X53592320Y34880273D01*
X53749363Y34645241D01*
X53949241Y34445363D01*
X54184273Y34288320D01*
X54445426Y34180147D01*
X54722665Y34125000D01*
X55005335Y34125000D01*
X55282574Y34180147D01*
X55543727Y34288320D01*
X55778759Y34445363D01*
X55978637Y34645241D01*
X56135680Y34880273D01*
X56243853Y35141426D01*
X56299000Y35418665D01*
X56299000Y35701335D01*
X56243853Y35978574D01*
X56144266Y36218999D01*
X59222030Y36218999D01*
X59265499Y36214718D01*
X59308968Y36218999D01*
X59308976Y36218999D01*
X59438989Y36231804D01*
X59605812Y36282410D01*
X59759558Y36364588D01*
X59894316Y36475182D01*
X59922033Y36508955D01*
X60339061Y36925983D01*
X60374165Y36919000D01*
X60656835Y36919000D01*
X60934074Y36974147D01*
X61195227Y37082320D01*
X61430259Y37239363D01*
X61630137Y37439241D01*
X61785500Y37671759D01*
X61940863Y37439241D01*
X62140741Y37239363D01*
X62375773Y37082320D01*
X62636926Y36974147D01*
X62914165Y36919000D01*
X63196835Y36919000D01*
X63474074Y36974147D01*
X63735227Y37082320D01*
X63970259Y37239363D01*
X64170137Y37439241D01*
X64325500Y37671759D01*
X64480863Y37439241D01*
X64680741Y37239363D01*
X64915773Y37082320D01*
X65176926Y36974147D01*
X65454165Y36919000D01*
X65736835Y36919000D01*
X66014074Y36974147D01*
X66275227Y37082320D01*
X66510259Y37239363D01*
X66710137Y37439241D01*
X66865500Y37671759D01*
X67020863Y37439241D01*
X67220741Y37239363D01*
X67455773Y37082320D01*
X67716926Y36974147D01*
X67994165Y36919000D01*
X68276835Y36919000D01*
X68554074Y36974147D01*
X68815227Y37082320D01*
X69050259Y37239363D01*
X69250137Y37439241D01*
X69405500Y37671759D01*
X69560863Y37439241D01*
X69760741Y37239363D01*
X69995773Y37082320D01*
X70256926Y36974147D01*
X70534165Y36919000D01*
X70816835Y36919000D01*
X71094074Y36974147D01*
X71355227Y37082320D01*
X71590259Y37239363D01*
X71790137Y37439241D01*
X71945500Y37671759D01*
X72100863Y37439241D01*
X72300741Y37239363D01*
X72535773Y37082320D01*
X72796926Y36974147D01*
X73074165Y36919000D01*
X73356835Y36919000D01*
X73634074Y36974147D01*
X73895227Y37082320D01*
X74130259Y37239363D01*
X74328857Y37437961D01*
X74329688Y37429518D01*
X74365998Y37309820D01*
X74424963Y37199506D01*
X74504315Y37102815D01*
X74601006Y37023463D01*
X74711320Y36964498D01*
X74831018Y36928188D01*
X74955500Y36915928D01*
X76555500Y36915928D01*
X76679982Y36928188D01*
X76799680Y36964498D01*
X76909994Y37023463D01*
X77006685Y37102815D01*
X77086037Y37199506D01*
X77145002Y37309820D01*
X77181312Y37429518D01*
X77193572Y37554000D01*
X77193572Y39154000D01*
X77181312Y39278482D01*
X77145002Y39398180D01*
X77086037Y39508494D01*
X77006685Y39605185D01*
X76909994Y39684537D01*
X76799680Y39743502D01*
X76679982Y39779812D01*
X76555500Y39792072D01*
X74955500Y39792072D01*
X74831018Y39779812D01*
X74711320Y39743502D01*
X74601006Y39684537D01*
X74504315Y39605185D01*
X74424963Y39508494D01*
X74365998Y39398180D01*
X74329688Y39278482D01*
X74328857Y39270039D01*
X74130259Y39468637D01*
X73895227Y39625680D01*
X73634074Y39733853D01*
X73356835Y39789000D01*
X73074165Y39789000D01*
X72796926Y39733853D01*
X72535773Y39625680D01*
X72300741Y39468637D01*
X72100863Y39268759D01*
X71945500Y39036241D01*
X71790137Y39268759D01*
X71590259Y39468637D01*
X71355227Y39625680D01*
X71094074Y39733853D01*
X70816835Y39789000D01*
X70534165Y39789000D01*
X70351614Y39752688D01*
X67937304Y42166997D01*
X67913501Y42196001D01*
X67797776Y42290974D01*
X67665747Y42361546D01*
X67522486Y42405003D01*
X67410833Y42416000D01*
X67410822Y42416000D01*
X67373500Y42419676D01*
X67336178Y42416000D01*
X39437857Y42416000D01*
X34769804Y47084052D01*
X34746001Y47113056D01*
X34630276Y47208029D01*
X34498247Y47278601D01*
X34354986Y47322058D01*
X34298875Y47327585D01*
X34381262Y47409972D01*
X34483586Y47563111D01*
X34554068Y47733271D01*
X34590000Y47913911D01*
X34590000Y47963089D01*
X35096767Y47963089D01*
X35134089Y47959413D01*
X35171411Y47963089D01*
X35171422Y47963089D01*
X35283075Y47974086D01*
X35426336Y48017543D01*
X35558365Y48088115D01*
X35674090Y48183088D01*
X35697893Y48212092D01*
X35955592Y48469791D01*
X36175740Y48426000D01*
X36468260Y48426000D01*
X36755158Y48483068D01*
X37025411Y48595010D01*
X37268632Y48757525D01*
X37475475Y48964368D01*
X37592000Y49138760D01*
X37708525Y48964368D01*
X37915368Y48757525D01*
X37977001Y48716343D01*
X37977000Y47106297D01*
X37844320Y46907727D01*
X37736147Y46646574D01*
X37681000Y46369335D01*
X37681000Y46086665D01*
X37736147Y45809426D01*
X37844320Y45548273D01*
X38001363Y45313241D01*
X38201241Y45113363D01*
X38436273Y44956320D01*
X38697426Y44848147D01*
X38974665Y44793000D01*
X39257335Y44793000D01*
X39534574Y44848147D01*
X39795727Y44956320D01*
X40030759Y45113363D01*
X40152694Y45235298D01*
X48462903Y45235298D01*
X48534486Y44991329D01*
X48789996Y44870429D01*
X49064184Y44801700D01*
X49346512Y44787783D01*
X49626130Y44829213D01*
X49892292Y44924397D01*
X50017514Y44991329D01*
X50089097Y45235298D01*
X49276000Y46048395D01*
X48462903Y45235298D01*
X40152694Y45235298D01*
X40230637Y45313241D01*
X40387680Y45548273D01*
X40495853Y45809426D01*
X40551000Y46086665D01*
X40551000Y46157488D01*
X47835783Y46157488D01*
X47877213Y45877870D01*
X47972397Y45611708D01*
X48039329Y45486486D01*
X48283298Y45414903D01*
X49096395Y46228000D01*
X49455605Y46228000D01*
X50268702Y45414903D01*
X50512671Y45486486D01*
X50633571Y45741996D01*
X50702300Y46016184D01*
X50716217Y46298512D01*
X50674787Y46578130D01*
X50579603Y46844292D01*
X50512671Y46969514D01*
X50268702Y47041097D01*
X49455605Y46228000D01*
X49096395Y46228000D01*
X48283298Y47041097D01*
X48039329Y46969514D01*
X47918429Y46714004D01*
X47849700Y46439816D01*
X47835783Y46157488D01*
X40551000Y46157488D01*
X40551000Y46369335D01*
X40495853Y46646574D01*
X40387680Y46907727D01*
X40230637Y47142759D01*
X40152694Y47220702D01*
X48462903Y47220702D01*
X49276000Y46407605D01*
X50089097Y47220702D01*
X50017514Y47464671D01*
X49762004Y47585571D01*
X49487816Y47654300D01*
X49205488Y47668217D01*
X48925870Y47626787D01*
X48659708Y47531603D01*
X48534486Y47464671D01*
X48462903Y47220702D01*
X40152694Y47220702D01*
X40030759Y47342637D01*
X39795727Y47499680D01*
X39747000Y47519863D01*
X39747000Y48716344D01*
X39808632Y48757525D01*
X39940487Y48889380D01*
X39962498Y48816820D01*
X40021463Y48706506D01*
X40100815Y48609815D01*
X40197506Y48530463D01*
X40307820Y48471498D01*
X40427518Y48435188D01*
X40552000Y48422928D01*
X42252000Y48422928D01*
X42376482Y48435188D01*
X42496180Y48471498D01*
X42606494Y48530463D01*
X42703185Y48609815D01*
X42782537Y48706506D01*
X42841502Y48816820D01*
X42877812Y48936518D01*
X42890072Y49061000D01*
X42890072Y50761000D01*
X42877812Y50885482D01*
X42841502Y51005180D01*
X42782537Y51115494D01*
X42703185Y51212185D01*
X42606494Y51291537D01*
X42496180Y51350502D01*
X42376482Y51386812D01*
X42252000Y51399072D01*
X40552000Y51399072D01*
X40427518Y51386812D01*
X40307820Y51350502D01*
X40197506Y51291537D01*
X40100815Y51212185D01*
X40021463Y51115494D01*
X39962498Y51005180D01*
X39940487Y50932620D01*
X39808632Y51064475D01*
X39565411Y51226990D01*
X39295158Y51338932D01*
X39008260Y51396000D01*
X38715740Y51396000D01*
X38428842Y51338932D01*
X38158589Y51226990D01*
X37915368Y51064475D01*
X37708525Y50857632D01*
X37592000Y50683240D01*
X37475475Y50857632D01*
X37268632Y51064475D01*
X37025411Y51226990D01*
X36755158Y51338932D01*
X36468260Y51396000D01*
X36175740Y51396000D01*
X35888842Y51338932D01*
X35618589Y51226990D01*
X35375368Y51064475D01*
X35168525Y50857632D01*
X35052000Y50683240D01*
X34935475Y50857632D01*
X34728632Y51064475D01*
X34485411Y51226990D01*
X34215158Y51338932D01*
X33928260Y51396000D01*
X33635740Y51396000D01*
X33348842Y51338932D01*
X33078589Y51226990D01*
X32835368Y51064475D01*
X32628525Y50857632D01*
X32512000Y50683240D01*
X32395475Y50857632D01*
X32188632Y51064475D01*
X31945411Y51226990D01*
X31675158Y51338932D01*
X31388260Y51396000D01*
X31095740Y51396000D01*
X30808842Y51338932D01*
X30538589Y51226990D01*
X30295368Y51064475D01*
X30088525Y50857632D01*
X29972000Y50683240D01*
X29855475Y50857632D01*
X29648632Y51064475D01*
X29405411Y51226990D01*
X29135158Y51338932D01*
X28848260Y51396000D01*
X28555740Y51396000D01*
X28268842Y51338932D01*
X27998589Y51226990D01*
X27755368Y51064475D01*
X27548525Y50857632D01*
X27432000Y50683240D01*
X27315475Y50857632D01*
X27108632Y51064475D01*
X26865411Y51226990D01*
X26595158Y51338932D01*
X26308260Y51396000D01*
X26015740Y51396000D01*
X25728842Y51338932D01*
X25458589Y51226990D01*
X25215368Y51064475D01*
X25008525Y50857632D01*
X24892000Y50683240D01*
X24775475Y50857632D01*
X24568632Y51064475D01*
X24325411Y51226990D01*
X24055158Y51338932D01*
X23768260Y51396000D01*
X23475740Y51396000D01*
X23188842Y51338932D01*
X22918589Y51226990D01*
X22675368Y51064475D01*
X22468525Y50857632D01*
X22352000Y50683240D01*
X22235475Y50857632D01*
X22028632Y51064475D01*
X21785411Y51226990D01*
X21515158Y51338932D01*
X21228260Y51396000D01*
X20935740Y51396000D01*
X20648842Y51338932D01*
X20378589Y51226990D01*
X20135368Y51064475D01*
X19928525Y50857632D01*
X19812000Y50683240D01*
X19695475Y50857632D01*
X19488632Y51064475D01*
X19245411Y51226990D01*
X18975158Y51338932D01*
X18688260Y51396000D01*
X18395740Y51396000D01*
X18108842Y51338932D01*
X17838589Y51226990D01*
X17595368Y51064475D01*
X17388525Y50857632D01*
X17272000Y50683240D01*
X17155475Y50857632D01*
X16948632Y51064475D01*
X16705411Y51226990D01*
X16435158Y51338932D01*
X16148260Y51396000D01*
X15855740Y51396000D01*
X15568842Y51338932D01*
X15298589Y51226990D01*
X15055368Y51064475D01*
X14848525Y50857632D01*
X14732000Y50683240D01*
X14615475Y50857632D01*
X14408632Y51064475D01*
X14165411Y51226990D01*
X13895158Y51338932D01*
X13608260Y51396000D01*
X13315740Y51396000D01*
X13028842Y51338932D01*
X12758589Y51226990D01*
X12515368Y51064475D01*
X12308525Y50857632D01*
X12192000Y50683240D01*
X12075475Y50857632D01*
X11868632Y51064475D01*
X11625411Y51226990D01*
X11355158Y51338932D01*
X11068260Y51396000D01*
X10941801Y51396000D01*
X12139121Y52593320D01*
X70517000Y52593320D01*
X70517000Y52308680D01*
X70572530Y52029509D01*
X70681457Y51766536D01*
X70839595Y51529866D01*
X71040866Y51328595D01*
X71277536Y51170457D01*
X71540509Y51061530D01*
X71819680Y51006000D01*
X72104320Y51006000D01*
X72383491Y51061530D01*
X72646464Y51170457D01*
X72883134Y51328595D01*
X73005696Y51451157D01*
X76141762Y51451157D01*
X76214556Y51206168D01*
X76471773Y51084267D01*
X76747829Y51014890D01*
X77032115Y51000702D01*
X77313706Y51042248D01*
X77581783Y51137932D01*
X77709444Y51206168D01*
X77782238Y51451157D01*
X76962000Y52271395D01*
X76141762Y51451157D01*
X73005696Y51451157D01*
X73084405Y51529866D01*
X73242543Y51766536D01*
X73351470Y52029509D01*
X73407000Y52308680D01*
X73407000Y52380885D01*
X75511702Y52380885D01*
X75553248Y52099294D01*
X75648932Y51831217D01*
X75717168Y51703556D01*
X75962157Y51630762D01*
X76782395Y52451000D01*
X77141605Y52451000D01*
X77961843Y51630762D01*
X78206832Y51703556D01*
X78328733Y51960773D01*
X78398110Y52236829D01*
X78412298Y52521115D01*
X78370752Y52802706D01*
X78275068Y53070783D01*
X78206832Y53198444D01*
X77961843Y53271238D01*
X77141605Y52451000D01*
X76782395Y52451000D01*
X75962157Y53271238D01*
X75717168Y53198444D01*
X75595267Y52941227D01*
X75525890Y52665171D01*
X75511702Y52380885D01*
X73407000Y52380885D01*
X73407000Y52593320D01*
X73351470Y52872491D01*
X73242543Y53135464D01*
X73084405Y53372134D01*
X73005696Y53450843D01*
X76141762Y53450843D01*
X76962000Y52630605D01*
X77782238Y53450843D01*
X77709444Y53695832D01*
X77452227Y53817733D01*
X77176171Y53887110D01*
X76891885Y53901298D01*
X76610294Y53859752D01*
X76342217Y53764068D01*
X76214556Y53695832D01*
X76141762Y53450843D01*
X73005696Y53450843D01*
X72883134Y53573405D01*
X72646464Y53731543D01*
X72383491Y53840470D01*
X72104320Y53896000D01*
X71819680Y53896000D01*
X71540509Y53840470D01*
X71277536Y53731543D01*
X71040866Y53573405D01*
X70839595Y53372134D01*
X70681457Y53135464D01*
X70572530Y52872491D01*
X70517000Y52593320D01*
X12139121Y52593320D01*
X16236802Y56691000D01*
X73231929Y56691000D01*
X73339595Y56529866D01*
X73540866Y56328595D01*
X73777536Y56170457D01*
X74040509Y56061530D01*
X74319680Y56006000D01*
X74604320Y56006000D01*
X74883491Y56061530D01*
X75146464Y56170457D01*
X75383134Y56328595D01*
X75584405Y56529866D01*
X75742543Y56766536D01*
X75851470Y57029509D01*
X75907000Y57308680D01*
X75907000Y57593320D01*
X75851470Y57872491D01*
X75742543Y58135464D01*
X75584405Y58372134D01*
X75383134Y58573405D01*
X75146464Y58731543D01*
X74883491Y58840470D01*
X74604320Y58896000D01*
X74319680Y58896000D01*
X74040509Y58840470D01*
X73777536Y58731543D01*
X73540866Y58573405D01*
X73339595Y58372134D01*
X73231929Y58211000D01*
X15959322Y58211000D01*
X15921999Y58214676D01*
X15884676Y58211000D01*
X15884667Y58211000D01*
X15773014Y58200003D01*
X15629753Y58156546D01*
X15497724Y58085974D01*
X15381999Y57991001D01*
X15358201Y57962003D01*
X8748408Y51352209D01*
X8528260Y51396000D01*
X8235740Y51396000D01*
X7948842Y51338932D01*
X7678589Y51226990D01*
X7435368Y51064475D01*
X7228525Y50857632D01*
X7106805Y50675466D01*
X7037178Y50792355D01*
X6842269Y51008588D01*
X6608920Y51182641D01*
X6346099Y51307825D01*
X6198890Y51352476D01*
X5969000Y51231155D01*
X5715000Y51231155D01*
X5485110Y51352476D01*
X5337901Y51307825D01*
X5075080Y51182641D01*
X4841731Y51008588D01*
X4646822Y50792355D01*
X4577195Y50675466D01*
X4455475Y50857632D01*
X4248632Y51064475D01*
X4005411Y51226990D01*
X3735158Y51338932D01*
X3448260Y51396000D01*
X3155740Y51396000D01*
X2868842Y51338932D01*
X2598589Y51226990D01*
X2355368Y51064475D01*
X2148525Y50857632D01*
X1986010Y50614411D01*
X1874068Y50344158D01*
X1817000Y50057260D01*
X685000Y50057260D01*
X685000Y57945647D01*
X675711Y58039956D01*
X691653Y58202542D01*
X776031Y58482018D01*
X913085Y58739780D01*
X1097599Y58966015D01*
X1322540Y59152103D01*
X1579342Y59290956D01*
X1858219Y59377282D01*
X2030268Y59395365D01*
X2125353Y59386000D01*
%TA.AperFunction,Conductor*%
D22*
G36*
X2125353Y59386000D02*
G01*
X78646647Y59386000D01*
X78740956Y59395289D01*
X78903542Y59379347D01*
X79183018Y59294969D01*
X79440780Y59157915D01*
X79667015Y58973401D01*
X79853103Y58748460D01*
X79991956Y58491658D01*
X80078282Y58212781D01*
X80096365Y58040731D01*
X80087000Y57945646D01*
X80087001Y685000D01*
X14218381Y685000D01*
X3332046Y11571335D01*
X23203000Y11571335D01*
X23203000Y11288665D01*
X23258147Y11011426D01*
X23366320Y10750273D01*
X23523363Y10515241D01*
X23723241Y10315363D01*
X23958273Y10158320D01*
X24219426Y10050147D01*
X24496665Y9995000D01*
X24779335Y9995000D01*
X25056574Y10050147D01*
X25317727Y10158320D01*
X25552759Y10315363D01*
X25752637Y10515241D01*
X25909680Y10750273D01*
X26017853Y11011426D01*
X26073000Y11288665D01*
X26073000Y11571335D01*
X26017853Y11848574D01*
X25909680Y12109727D01*
X25752637Y12344759D01*
X25552759Y12544637D01*
X25317727Y12701680D01*
X25056574Y12809853D01*
X24779335Y12865000D01*
X24496665Y12865000D01*
X24219426Y12809853D01*
X23958273Y12701680D01*
X23723241Y12544637D01*
X23523363Y12344759D01*
X23366320Y12109727D01*
X23258147Y11848574D01*
X23203000Y11571335D01*
X3332046Y11571335D01*
X685000Y14218380D01*
X685000Y47004335D01*
X1105000Y47004335D01*
X1105000Y46721665D01*
X1160147Y46444426D01*
X1268320Y46183273D01*
X1425363Y45948241D01*
X1625241Y45748363D01*
X1860273Y45591320D01*
X2121426Y45483147D01*
X2398665Y45428000D01*
X2681335Y45428000D01*
X2958574Y45483147D01*
X3219727Y45591320D01*
X3454759Y45748363D01*
X3576694Y45870298D01*
X6726903Y45870298D01*
X6798486Y45626329D01*
X7053996Y45505429D01*
X7328184Y45436700D01*
X7610512Y45422783D01*
X7890130Y45464213D01*
X8156292Y45559397D01*
X8281514Y45626329D01*
X8353097Y45870298D01*
X7540000Y46683395D01*
X6726903Y45870298D01*
X3576694Y45870298D01*
X3654637Y45948241D01*
X3811680Y46183273D01*
X3919853Y46444426D01*
X3975000Y46721665D01*
X3975000Y46792488D01*
X6099783Y46792488D01*
X6141213Y46512870D01*
X6236397Y46246708D01*
X6303329Y46121486D01*
X6547298Y46049903D01*
X7360395Y46863000D01*
X7719605Y46863000D01*
X8532702Y46049903D01*
X8776671Y46121486D01*
X8897571Y46376996D01*
X8966300Y46651184D01*
X8980217Y46933512D01*
X8938787Y47213130D01*
X8843603Y47479292D01*
X8776671Y47604514D01*
X8532702Y47676097D01*
X7719605Y46863000D01*
X7360395Y46863000D01*
X6547298Y47676097D01*
X6303329Y47604514D01*
X6182429Y47349004D01*
X6113700Y47074816D01*
X6099783Y46792488D01*
X3975000Y46792488D01*
X3975000Y47004335D01*
X3919853Y47281574D01*
X3811680Y47542727D01*
X3654637Y47777759D01*
X3576694Y47855702D01*
X6726903Y47855702D01*
X7540000Y47042605D01*
X8353097Y47855702D01*
X8281514Y48099671D01*
X8026004Y48220571D01*
X7751816Y48289300D01*
X7469488Y48303217D01*
X7189870Y48261787D01*
X6923708Y48166603D01*
X6798486Y48099671D01*
X6726903Y47855702D01*
X3576694Y47855702D01*
X3454759Y47977637D01*
X3219727Y48134680D01*
X2958574Y48242853D01*
X2681335Y48298000D01*
X2398665Y48298000D01*
X2121426Y48242853D01*
X1860273Y48134680D01*
X1625241Y47977637D01*
X1425363Y47777759D01*
X1268320Y47542727D01*
X1160147Y47281574D01*
X1105000Y47004335D01*
X685000Y47004335D01*
X685000Y50057260D01*
X1817000Y50057260D01*
X1817000Y49764740D01*
X1874068Y49477842D01*
X1986010Y49207589D01*
X2148525Y48964368D01*
X2355368Y48757525D01*
X2598589Y48595010D01*
X2868842Y48483068D01*
X3155740Y48426000D01*
X3448260Y48426000D01*
X3735158Y48483068D01*
X4005411Y48595010D01*
X4248632Y48757525D01*
X4455475Y48964368D01*
X4577195Y49146534D01*
X4646822Y49029645D01*
X4841731Y48813412D01*
X5075080Y48639359D01*
X5337901Y48514175D01*
X5485110Y48469524D01*
X5715000Y48590845D01*
X5715000Y49784000D01*
X5695000Y49784000D01*
X5695000Y50038000D01*
X5715000Y50038000D01*
X5715000Y51231155D01*
X5969000Y51231155D01*
X5969000Y50038000D01*
X5989000Y50038000D01*
X5989000Y49784000D01*
X5969000Y49784000D01*
X5969000Y48590845D01*
X6198890Y48469524D01*
X6346099Y48514175D01*
X6608920Y48639359D01*
X6842269Y48813412D01*
X7037178Y49029645D01*
X7106805Y49146534D01*
X7228525Y48964368D01*
X7435368Y48757525D01*
X7678589Y48595010D01*
X7948842Y48483068D01*
X8235740Y48426000D01*
X8528260Y48426000D01*
X8815158Y48483068D01*
X9085411Y48595010D01*
X9328632Y48757525D01*
X9535475Y48964368D01*
X9652000Y49138760D01*
X9768525Y48964368D01*
X9975368Y48757525D01*
X10218589Y48595010D01*
X10488842Y48483068D01*
X10775740Y48426000D01*
X11068260Y48426000D01*
X11355158Y48483068D01*
X11625411Y48595010D01*
X11868632Y48757525D01*
X12075475Y48964368D01*
X12192000Y49138760D01*
X12308525Y48964368D01*
X12515368Y48757525D01*
X12758589Y48595010D01*
X13028842Y48483068D01*
X13315740Y48426000D01*
X13608260Y48426000D01*
X13895158Y48483068D01*
X14165411Y48595010D01*
X14408632Y48757525D01*
X14615475Y48964368D01*
X14732000Y49138760D01*
X14848525Y48964368D01*
X15055368Y48757525D01*
X15298589Y48595010D01*
X15568842Y48483068D01*
X15855740Y48426000D01*
X16148260Y48426000D01*
X16435158Y48483068D01*
X16705411Y48595010D01*
X16948632Y48757525D01*
X17155475Y48964368D01*
X17272000Y49138760D01*
X17388525Y48964368D01*
X17595368Y48757525D01*
X17737266Y48662712D01*
X12696998Y43622443D01*
X12668000Y43598645D01*
X12644202Y43569647D01*
X12644201Y43569646D01*
X12573026Y43482920D01*
X12502454Y43350890D01*
X12458998Y43207629D01*
X12444324Y43058644D01*
X12448001Y43021312D01*
X12448000Y40080044D01*
X12293241Y39976637D01*
X12093363Y39776759D01*
X11938000Y39544241D01*
X11782637Y39776759D01*
X11582759Y39976637D01*
X11347727Y40133680D01*
X11086574Y40241853D01*
X10809335Y40297000D01*
X10526665Y40297000D01*
X10249426Y40241853D01*
X9988273Y40133680D01*
X9753241Y39976637D01*
X9553363Y39776759D01*
X9398000Y39544241D01*
X9242637Y39776759D01*
X9042759Y39976637D01*
X8807727Y40133680D01*
X8546574Y40241853D01*
X8269335Y40297000D01*
X7986665Y40297000D01*
X7709426Y40241853D01*
X7448273Y40133680D01*
X7213241Y39976637D01*
X7013363Y39776759D01*
X6856320Y39541727D01*
X6748147Y39280574D01*
X6693000Y39003335D01*
X6693000Y38720665D01*
X6748147Y38443426D01*
X6856320Y38182273D01*
X7013363Y37947241D01*
X7213241Y37747363D01*
X7448273Y37590320D01*
X7709426Y37482147D01*
X7982291Y37427870D01*
X6282955Y35728533D01*
X6249182Y35700816D01*
X6138588Y35566057D01*
X6056410Y35412311D01*
X6005804Y35245488D01*
X5992999Y35115475D01*
X5992999Y35115468D01*
X5988718Y35071999D01*
X5992999Y35028530D01*
X5993000Y30685478D01*
X5988718Y30641999D01*
X6005804Y30468509D01*
X6056411Y30301686D01*
X6138589Y30147940D01*
X6221467Y30046953D01*
X6221470Y30046950D01*
X6249183Y30013182D01*
X6282951Y29985469D01*
X13277762Y22990658D01*
X13236363Y22949259D01*
X13079320Y22714227D01*
X12971147Y22453074D01*
X12916000Y22175835D01*
X12916000Y21893165D01*
X12971147Y21615926D01*
X13079320Y21354773D01*
X13236363Y21119741D01*
X13436241Y20919863D01*
X13671273Y20762820D01*
X13932426Y20654647D01*
X14209665Y20599500D01*
X14492335Y20599500D01*
X14769574Y20654647D01*
X15030727Y20762820D01*
X15265759Y20919863D01*
X15465637Y21119741D01*
X15621000Y21352259D01*
X15776363Y21119741D01*
X15976241Y20919863D01*
X16211273Y20762820D01*
X16472426Y20654647D01*
X16749665Y20599500D01*
X17032335Y20599500D01*
X17309574Y20654647D01*
X17570727Y20762820D01*
X17805759Y20919863D01*
X18005637Y21119741D01*
X18161000Y21352259D01*
X18316363Y21119741D01*
X18516241Y20919863D01*
X18751273Y20762820D01*
X19012426Y20654647D01*
X19289665Y20599500D01*
X19572335Y20599500D01*
X19849574Y20654647D01*
X20110727Y20762820D01*
X20345759Y20919863D01*
X20545637Y21119741D01*
X20701000Y21352259D01*
X20856363Y21119741D01*
X21056241Y20919863D01*
X21291273Y20762820D01*
X21552426Y20654647D01*
X21829665Y20599500D01*
X22112335Y20599500D01*
X22389574Y20654647D01*
X22650727Y20762820D01*
X22885759Y20919863D01*
X23085637Y21119741D01*
X23241000Y21352259D01*
X23396363Y21119741D01*
X23596241Y20919863D01*
X23831273Y20762820D01*
X24092426Y20654647D01*
X24369665Y20599500D01*
X24652335Y20599500D01*
X24929574Y20654647D01*
X25190727Y20762820D01*
X25425759Y20919863D01*
X25625637Y21119741D01*
X25781000Y21352259D01*
X25936363Y21119741D01*
X26136241Y20919863D01*
X26371273Y20762820D01*
X26632426Y20654647D01*
X26909665Y20599500D01*
X27192335Y20599500D01*
X27469574Y20654647D01*
X27730727Y20762820D01*
X27965759Y20919863D01*
X28164357Y21118461D01*
X28165188Y21110018D01*
X28201498Y20990320D01*
X28260463Y20880006D01*
X28339815Y20783315D01*
X28436506Y20703963D01*
X28546820Y20644998D01*
X28666518Y20608688D01*
X28791000Y20596428D01*
X30391000Y20596428D01*
X30515482Y20608688D01*
X30635180Y20644998D01*
X30745494Y20703963D01*
X30842185Y20783315D01*
X30921537Y20880006D01*
X30980502Y20990320D01*
X31016812Y21110018D01*
X31029072Y21234500D01*
X31029072Y22646850D01*
X37977000Y15698921D01*
X37977001Y11863693D01*
X37962932Y11829727D01*
X37927000Y11649087D01*
X37927000Y11464909D01*
X37962932Y11284269D01*
X38033414Y11114109D01*
X38135738Y10960970D01*
X38265972Y10830736D01*
X38419111Y10728412D01*
X38589271Y10657930D01*
X38769911Y10621998D01*
X38954089Y10621998D01*
X39134729Y10657930D01*
X39304889Y10728412D01*
X39458028Y10830736D01*
X39588262Y10960970D01*
X39690586Y11114109D01*
X39761068Y11284269D01*
X39797000Y11464909D01*
X39797000Y11649087D01*
X39761068Y11829727D01*
X39747000Y11863690D01*
X39747000Y16022035D01*
X39751281Y16065501D01*
X39747000Y16108967D01*
X39747000Y16108977D01*
X39734195Y16238990D01*
X39683589Y16405813D01*
X39601411Y16559559D01*
X39490817Y16694317D01*
X39457051Y16722028D01*
X29062578Y27116500D01*
X35523701Y27116500D01*
X54705091Y7935109D01*
X54668589Y7919990D01*
X54425368Y7757475D01*
X54218525Y7550632D01*
X54102000Y7376240D01*
X53985475Y7550632D01*
X53778632Y7757475D01*
X53535411Y7919990D01*
X53265158Y8031932D01*
X52978260Y8089000D01*
X52685740Y8089000D01*
X52398842Y8031932D01*
X52128589Y7919990D01*
X51885368Y7757475D01*
X51678525Y7550632D01*
X51562000Y7376240D01*
X51445475Y7550632D01*
X51238632Y7757475D01*
X50995411Y7919990D01*
X50725158Y8031932D01*
X50438260Y8089000D01*
X50145740Y8089000D01*
X49858842Y8031932D01*
X49588589Y7919990D01*
X49345368Y7757475D01*
X49138525Y7550632D01*
X49016805Y7368466D01*
X48947178Y7485355D01*
X48752269Y7701588D01*
X48518920Y7875641D01*
X48256099Y8000825D01*
X48108890Y8045476D01*
X47879000Y7924155D01*
X47879000Y6731000D01*
X47899000Y6731000D01*
X47899000Y6477000D01*
X47879000Y6477000D01*
X47879000Y6457000D01*
X47625000Y6457000D01*
X47625000Y6477000D01*
X47605000Y6477000D01*
X47605000Y6731000D01*
X47625000Y6731000D01*
X47625000Y7924155D01*
X47395110Y8045476D01*
X47247901Y8000825D01*
X46985080Y7875641D01*
X46751731Y7701588D01*
X46556822Y7485355D01*
X46487195Y7368466D01*
X46365475Y7550632D01*
X46158632Y7757475D01*
X45915411Y7919990D01*
X45645158Y8031932D01*
X45358260Y8089000D01*
X45065740Y8089000D01*
X44778842Y8031932D01*
X44508589Y7919990D01*
X44265368Y7757475D01*
X44058525Y7550632D01*
X43942000Y7376240D01*
X43825475Y7550632D01*
X43618632Y7757475D01*
X43375411Y7919990D01*
X43105158Y8031932D01*
X42818260Y8089000D01*
X42525740Y8089000D01*
X42238842Y8031932D01*
X41968589Y7919990D01*
X41725368Y7757475D01*
X41518525Y7550632D01*
X41402000Y7376240D01*
X41285475Y7550632D01*
X41078632Y7757475D01*
X40835411Y7919990D01*
X40565158Y8031932D01*
X40278260Y8089000D01*
X39985740Y8089000D01*
X39698842Y8031932D01*
X39428589Y7919990D01*
X39185368Y7757475D01*
X38978525Y7550632D01*
X38862000Y7376240D01*
X38745475Y7550632D01*
X38538632Y7757475D01*
X38295411Y7919990D01*
X38025158Y8031932D01*
X37738260Y8089000D01*
X37445740Y8089000D01*
X37158842Y8031932D01*
X36888589Y7919990D01*
X36645368Y7757475D01*
X36438525Y7550632D01*
X36322000Y7376240D01*
X36205475Y7550632D01*
X35998632Y7757475D01*
X35755411Y7919990D01*
X35485158Y8031932D01*
X35198260Y8089000D01*
X34905740Y8089000D01*
X34618842Y8031932D01*
X34348589Y7919990D01*
X34105368Y7757475D01*
X33898525Y7550632D01*
X33782000Y7376240D01*
X33665475Y7550632D01*
X33458632Y7757475D01*
X33215411Y7919990D01*
X32945158Y8031932D01*
X32658260Y8089000D01*
X32365740Y8089000D01*
X32078842Y8031932D01*
X31808589Y7919990D01*
X31565368Y7757475D01*
X31358525Y7550632D01*
X31242000Y7376240D01*
X31125475Y7550632D01*
X30918632Y7757475D01*
X30675411Y7919990D01*
X30405158Y8031932D01*
X30118260Y8089000D01*
X29825740Y8089000D01*
X29538842Y8031932D01*
X29268589Y7919990D01*
X29224999Y7890864D01*
X29224999Y10054130D01*
X29426184Y10003700D01*
X29708512Y9989783D01*
X29988130Y10031213D01*
X30254292Y10126397D01*
X30379514Y10193329D01*
X30451097Y10437298D01*
X29638000Y11250395D01*
X29623858Y11236253D01*
X29444253Y11415858D01*
X29458395Y11430000D01*
X29817605Y11430000D01*
X30630702Y10616903D01*
X30874671Y10688486D01*
X30995571Y10943996D01*
X31064300Y11218184D01*
X31078217Y11500512D01*
X31036787Y11780130D01*
X30941603Y12046292D01*
X30874671Y12171514D01*
X30630702Y12243097D01*
X29817605Y11430000D01*
X29458395Y11430000D01*
X29444253Y11444143D01*
X29623858Y11623748D01*
X29638000Y11609605D01*
X30451097Y12422702D01*
X30379514Y12666671D01*
X30124004Y12787571D01*
X29849816Y12856300D01*
X29567488Y12870217D01*
X29287870Y12828787D01*
X29224999Y12806303D01*
X29224999Y13027741D01*
X29241961Y13022596D01*
X29464000Y13144585D01*
X29464000Y14287500D01*
X29718000Y14287500D01*
X29718000Y13144585D01*
X29940039Y13022596D01*
X30074087Y13063254D01*
X30328420Y13183463D01*
X30554414Y13350981D01*
X30743385Y13559369D01*
X30888070Y13800619D01*
X30982909Y14065460D01*
X30861624Y14287500D01*
X29718000Y14287500D01*
X29464000Y14287500D01*
X29444000Y14287500D01*
X29444000Y14541500D01*
X29464000Y14541500D01*
X29464000Y15684415D01*
X29718000Y15684415D01*
X29718000Y14541500D01*
X30861624Y14541500D01*
X30982909Y14763540D01*
X30888070Y15028381D01*
X30743385Y15269631D01*
X30554414Y15478019D01*
X30328420Y15645537D01*
X30074087Y15765746D01*
X29940039Y15806404D01*
X29718000Y15684415D01*
X29464000Y15684415D01*
X29241961Y15806404D01*
X29224999Y15801259D01*
X29224999Y17895545D01*
X29257204Y17943743D01*
X29335225Y18132101D01*
X29374999Y18332060D01*
X29374999Y18535938D01*
X29335225Y18735897D01*
X29257204Y18924255D01*
X29143936Y19093773D01*
X28999773Y19237936D01*
X28830255Y19351204D01*
X28641897Y19429225D01*
X28441938Y19468999D01*
X28238060Y19468999D01*
X28038101Y19429225D01*
X27849743Y19351204D01*
X27680225Y19237936D01*
X27536062Y19093773D01*
X27422794Y18924255D01*
X27344773Y18735897D01*
X27304999Y18535938D01*
X27304999Y18332060D01*
X27344773Y18132101D01*
X27422794Y17943743D01*
X27454999Y17895545D01*
X27454999Y15797252D01*
X27192335Y15849500D01*
X26909665Y15849500D01*
X26632426Y15794353D01*
X26371273Y15686180D01*
X26136241Y15529137D01*
X25936363Y15329259D01*
X25781000Y15096741D01*
X25625637Y15329259D01*
X25425759Y15529137D01*
X25190727Y15686180D01*
X24929574Y15794353D01*
X24652335Y15849500D01*
X24369665Y15849500D01*
X24092426Y15794353D01*
X23831273Y15686180D01*
X23596241Y15529137D01*
X23396363Y15329259D01*
X23241000Y15096741D01*
X23085637Y15329259D01*
X22885759Y15529137D01*
X22650727Y15686180D01*
X22389574Y15794353D01*
X22112335Y15849500D01*
X21829665Y15849500D01*
X21552426Y15794353D01*
X21291273Y15686180D01*
X21056241Y15529137D01*
X20856363Y15329259D01*
X20701000Y15096741D01*
X20545637Y15329259D01*
X20345759Y15529137D01*
X20110727Y15686180D01*
X19849574Y15794353D01*
X19572335Y15849500D01*
X19289665Y15849500D01*
X19012426Y15794353D01*
X18751273Y15686180D01*
X18516241Y15529137D01*
X18316363Y15329259D01*
X18161000Y15096741D01*
X18005637Y15329259D01*
X17805759Y15529137D01*
X17570727Y15686180D01*
X17309574Y15794353D01*
X17032335Y15849500D01*
X16749665Y15849500D01*
X16472426Y15794353D01*
X16211273Y15686180D01*
X15976241Y15529137D01*
X15776363Y15329259D01*
X15621000Y15096741D01*
X15465637Y15329259D01*
X15265759Y15529137D01*
X15030727Y15686180D01*
X14769574Y15794353D01*
X14492335Y15849500D01*
X14209665Y15849500D01*
X13932426Y15794353D01*
X13671273Y15686180D01*
X13436241Y15529137D01*
X13236363Y15329259D01*
X13079320Y15094227D01*
X12971147Y14833074D01*
X12916000Y14555835D01*
X12916000Y14273165D01*
X12971147Y13995926D01*
X13079320Y13734773D01*
X13236363Y13499741D01*
X13436241Y13299863D01*
X13671273Y13142820D01*
X13932426Y13034647D01*
X14209665Y12979500D01*
X14492335Y12979500D01*
X14769574Y13034647D01*
X15030727Y13142820D01*
X15265759Y13299863D01*
X15465637Y13499741D01*
X15621000Y13732259D01*
X15776363Y13499741D01*
X15976241Y13299863D01*
X16211273Y13142820D01*
X16472426Y13034647D01*
X16749665Y12979500D01*
X17032335Y12979500D01*
X17309574Y13034647D01*
X17570727Y13142820D01*
X17805759Y13299863D01*
X18005637Y13499741D01*
X18161000Y13732259D01*
X18316363Y13499741D01*
X18516241Y13299863D01*
X18751273Y13142820D01*
X19012426Y13034647D01*
X19289665Y12979500D01*
X19572335Y12979500D01*
X19849574Y13034647D01*
X20110727Y13142820D01*
X20345759Y13299863D01*
X20545637Y13499741D01*
X20701000Y13732259D01*
X20856363Y13499741D01*
X21056241Y13299863D01*
X21291273Y13142820D01*
X21552426Y13034647D01*
X21829665Y12979500D01*
X22112335Y12979500D01*
X22389574Y13034647D01*
X22650727Y13142820D01*
X22885759Y13299863D01*
X23085637Y13499741D01*
X23241000Y13732259D01*
X23396363Y13499741D01*
X23596241Y13299863D01*
X23831273Y13142820D01*
X24092426Y13034647D01*
X24369665Y12979500D01*
X24652335Y12979500D01*
X24929574Y13034647D01*
X25190727Y13142820D01*
X25425759Y13299863D01*
X25625637Y13499741D01*
X25734614Y13662836D01*
X25821717Y13499878D01*
X25963552Y13327052D01*
X26136378Y13185217D01*
X26333554Y13079824D01*
X26547502Y13014923D01*
X26770000Y12993009D01*
X26817990Y12997736D01*
X26909665Y12979500D01*
X27192335Y12979500D01*
X27454999Y13031748D01*
X27455000Y8089000D01*
X27285740Y8089000D01*
X26998842Y8031932D01*
X26728589Y7919990D01*
X26485368Y7757475D01*
X26278525Y7550632D01*
X26162000Y7376240D01*
X26045475Y7550632D01*
X25838632Y7757475D01*
X25595411Y7919990D01*
X25325158Y8031932D01*
X25038260Y8089000D01*
X24745740Y8089000D01*
X24458842Y8031932D01*
X24188589Y7919990D01*
X23945368Y7757475D01*
X23738525Y7550632D01*
X23622000Y7376240D01*
X23505475Y7550632D01*
X23298632Y7757475D01*
X23055411Y7919990D01*
X22785158Y8031932D01*
X22498260Y8089000D01*
X22205740Y8089000D01*
X21918842Y8031932D01*
X21648589Y7919990D01*
X21405368Y7757475D01*
X21198525Y7550632D01*
X21082000Y7376240D01*
X20965475Y7550632D01*
X20758632Y7757475D01*
X20515411Y7919990D01*
X20245158Y8031932D01*
X19958260Y8089000D01*
X19665740Y8089000D01*
X19378842Y8031932D01*
X19108589Y7919990D01*
X18865368Y7757475D01*
X18658525Y7550632D01*
X18542000Y7376240D01*
X18425475Y7550632D01*
X18218632Y7757475D01*
X17975411Y7919990D01*
X17705158Y8031932D01*
X17418260Y8089000D01*
X17125740Y8089000D01*
X16838842Y8031932D01*
X16568589Y7919990D01*
X16325368Y7757475D01*
X16118525Y7550632D01*
X15956010Y7307411D01*
X15844068Y7037158D01*
X15787000Y6750260D01*
X15787000Y6457740D01*
X15844068Y6170842D01*
X15956010Y5900589D01*
X16118525Y5657368D01*
X16325368Y5450525D01*
X16499760Y5334000D01*
X16325368Y5217475D01*
X16118525Y5010632D01*
X15956010Y4767411D01*
X15844068Y4497158D01*
X15787000Y4210260D01*
X15787000Y3917740D01*
X15844068Y3630842D01*
X15956010Y3360589D01*
X16118525Y3117368D01*
X16325368Y2910525D01*
X16568589Y2748010D01*
X16838842Y2636068D01*
X17125740Y2579000D01*
X17418260Y2579000D01*
X17705158Y2636068D01*
X17975411Y2748010D01*
X18218632Y2910525D01*
X18425475Y3117368D01*
X18542000Y3291760D01*
X18658525Y3117368D01*
X18865368Y2910525D01*
X19108589Y2748010D01*
X19378842Y2636068D01*
X19665740Y2579000D01*
X19958260Y2579000D01*
X20245158Y2636068D01*
X20515411Y2748010D01*
X20758632Y2910525D01*
X20965475Y3117368D01*
X21082000Y3291760D01*
X21198525Y3117368D01*
X21405368Y2910525D01*
X21648589Y2748010D01*
X21918842Y2636068D01*
X22205740Y2579000D01*
X22498260Y2579000D01*
X22785158Y2636068D01*
X23055411Y2748010D01*
X23298632Y2910525D01*
X23505475Y3117368D01*
X23622000Y3291760D01*
X23738525Y3117368D01*
X23945368Y2910525D01*
X24188589Y2748010D01*
X24458842Y2636068D01*
X24745740Y2579000D01*
X25038260Y2579000D01*
X25325158Y2636068D01*
X25595411Y2748010D01*
X25838632Y2910525D01*
X26045475Y3117368D01*
X26162000Y3291760D01*
X26278525Y3117368D01*
X26485368Y2910525D01*
X26728589Y2748010D01*
X26998842Y2636068D01*
X27285740Y2579000D01*
X27578260Y2579000D01*
X27865158Y2636068D01*
X28135411Y2748010D01*
X28378632Y2910525D01*
X28585475Y3117368D01*
X28702000Y3291760D01*
X28818525Y3117368D01*
X29025368Y2910525D01*
X29268589Y2748010D01*
X29538842Y2636068D01*
X29825740Y2579000D01*
X30118260Y2579000D01*
X30405158Y2636068D01*
X30675411Y2748010D01*
X30918632Y2910525D01*
X31125475Y3117368D01*
X31242000Y3291760D01*
X31358525Y3117368D01*
X31565368Y2910525D01*
X31808589Y2748010D01*
X32078842Y2636068D01*
X32365740Y2579000D01*
X32658260Y2579000D01*
X32945158Y2636068D01*
X33215411Y2748010D01*
X33458632Y2910525D01*
X33665475Y3117368D01*
X33782000Y3291760D01*
X33898525Y3117368D01*
X34105368Y2910525D01*
X34348589Y2748010D01*
X34618842Y2636068D01*
X34905740Y2579000D01*
X35198260Y2579000D01*
X35485158Y2636068D01*
X35755411Y2748010D01*
X35998632Y2910525D01*
X36205475Y3117368D01*
X36322000Y3291760D01*
X36438525Y3117368D01*
X36645368Y2910525D01*
X36888589Y2748010D01*
X37158842Y2636068D01*
X37445740Y2579000D01*
X37738260Y2579000D01*
X38025158Y2636068D01*
X38295411Y2748010D01*
X38538632Y2910525D01*
X38745475Y3117368D01*
X38862000Y3291760D01*
X38978525Y3117368D01*
X39185368Y2910525D01*
X39428589Y2748010D01*
X39698842Y2636068D01*
X39985740Y2579000D01*
X40278260Y2579000D01*
X40565158Y2636068D01*
X40835411Y2748010D01*
X41078632Y2910525D01*
X41285475Y3117368D01*
X41402000Y3291760D01*
X41518525Y3117368D01*
X41725368Y2910525D01*
X41968589Y2748010D01*
X42238842Y2636068D01*
X42525740Y2579000D01*
X42818260Y2579000D01*
X43105158Y2636068D01*
X43375411Y2748010D01*
X43618632Y2910525D01*
X43825475Y3117368D01*
X43942000Y3291760D01*
X44058525Y3117368D01*
X44265368Y2910525D01*
X44508589Y2748010D01*
X44778842Y2636068D01*
X45065740Y2579000D01*
X45358260Y2579000D01*
X45645158Y2636068D01*
X45915411Y2748010D01*
X46158632Y2910525D01*
X46365475Y3117368D01*
X46482000Y3291760D01*
X46598525Y3117368D01*
X46805368Y2910525D01*
X47048589Y2748010D01*
X47318842Y2636068D01*
X47605740Y2579000D01*
X47898260Y2579000D01*
X48185158Y2636068D01*
X48455411Y2748010D01*
X48698632Y2910525D01*
X48905475Y3117368D01*
X49027195Y3299534D01*
X49096822Y3182645D01*
X49291731Y2966412D01*
X49525080Y2792359D01*
X49787901Y2667175D01*
X49935110Y2622524D01*
X50165000Y2743845D01*
X50165000Y3937000D01*
X50145000Y3937000D01*
X50145000Y4191000D01*
X50165000Y4191000D01*
X50165000Y4211000D01*
X50419000Y4211000D01*
X50419000Y4191000D01*
X50439000Y4191000D01*
X50439000Y3937000D01*
X50419000Y3937000D01*
X50419000Y2743845D01*
X50648890Y2622524D01*
X50796099Y2667175D01*
X51058920Y2792359D01*
X51292269Y2966412D01*
X51487178Y3182645D01*
X51556805Y3299534D01*
X51678525Y3117368D01*
X51885368Y2910525D01*
X52128589Y2748010D01*
X52398842Y2636068D01*
X52685740Y2579000D01*
X52978260Y2579000D01*
X53265158Y2636068D01*
X53535411Y2748010D01*
X53778632Y2910525D01*
X53985475Y3117368D01*
X54102000Y3291760D01*
X54218525Y3117368D01*
X54425368Y2910525D01*
X54668589Y2748010D01*
X54938842Y2636068D01*
X55225740Y2579000D01*
X55518260Y2579000D01*
X55805158Y2636068D01*
X56075411Y2748010D01*
X56318632Y2910525D01*
X56525475Y3117368D01*
X56642000Y3291760D01*
X56758525Y3117368D01*
X56965368Y2910525D01*
X57208589Y2748010D01*
X57478842Y2636068D01*
X57765740Y2579000D01*
X58058260Y2579000D01*
X58345158Y2636068D01*
X58615411Y2748010D01*
X58858632Y2910525D01*
X59065475Y3117368D01*
X59182000Y3291760D01*
X59298525Y3117368D01*
X59505368Y2910525D01*
X59748589Y2748010D01*
X60018842Y2636068D01*
X60305740Y2579000D01*
X60598260Y2579000D01*
X60885158Y2636068D01*
X61155411Y2748010D01*
X61398632Y2910525D01*
X61605475Y3117368D01*
X61722000Y3291760D01*
X61838525Y3117368D01*
X62045368Y2910525D01*
X62288589Y2748010D01*
X62558842Y2636068D01*
X62845740Y2579000D01*
X63138260Y2579000D01*
X63425158Y2636068D01*
X63695411Y2748010D01*
X63938632Y2910525D01*
X64145475Y3117368D01*
X64262000Y3291760D01*
X64378525Y3117368D01*
X64585368Y2910525D01*
X64828589Y2748010D01*
X65098842Y2636068D01*
X65385740Y2579000D01*
X65678260Y2579000D01*
X65965158Y2636068D01*
X66235411Y2748010D01*
X66478632Y2910525D01*
X66685475Y3117368D01*
X66802000Y3291760D01*
X66918525Y3117368D01*
X67125368Y2910525D01*
X67368589Y2748010D01*
X67638842Y2636068D01*
X67925740Y2579000D01*
X68218260Y2579000D01*
X68505158Y2636068D01*
X68775411Y2748010D01*
X69018632Y2910525D01*
X69225475Y3117368D01*
X69342000Y3291760D01*
X69458525Y3117368D01*
X69665368Y2910525D01*
X69908589Y2748010D01*
X70178842Y2636068D01*
X70465740Y2579000D01*
X70758260Y2579000D01*
X71045158Y2636068D01*
X71315411Y2748010D01*
X71558632Y2910525D01*
X71765475Y3117368D01*
X71882000Y3291760D01*
X71998525Y3117368D01*
X72205368Y2910525D01*
X72448589Y2748010D01*
X72718842Y2636068D01*
X73005740Y2579000D01*
X73298260Y2579000D01*
X73585158Y2636068D01*
X73855411Y2748010D01*
X74098632Y2910525D01*
X74305475Y3117368D01*
X74422000Y3291760D01*
X74538525Y3117368D01*
X74745368Y2910525D01*
X74988589Y2748010D01*
X75258842Y2636068D01*
X75545740Y2579000D01*
X75838260Y2579000D01*
X76125158Y2636068D01*
X76395411Y2748010D01*
X76638632Y2910525D01*
X76845475Y3117368D01*
X76962000Y3291760D01*
X77078525Y3117368D01*
X77285368Y2910525D01*
X77528589Y2748010D01*
X77798842Y2636068D01*
X78085740Y2579000D01*
X78378260Y2579000D01*
X78665158Y2636068D01*
X78935411Y2748010D01*
X79178632Y2910525D01*
X79385475Y3117368D01*
X79547990Y3360589D01*
X79659932Y3630842D01*
X79717000Y3917740D01*
X79717000Y4210260D01*
X79659932Y4497158D01*
X79547990Y4767411D01*
X79385475Y5010632D01*
X79253620Y5142487D01*
X79326180Y5164498D01*
X79436494Y5223463D01*
X79533185Y5302815D01*
X79612537Y5399506D01*
X79671502Y5509820D01*
X79707812Y5629518D01*
X79720072Y5754000D01*
X79720072Y7454000D01*
X79707812Y7578482D01*
X79671502Y7698180D01*
X79612537Y7808494D01*
X79533185Y7905185D01*
X79436494Y7984537D01*
X79326180Y8043502D01*
X79206482Y8079812D01*
X79082000Y8092072D01*
X77382000Y8092072D01*
X77257518Y8079812D01*
X77137820Y8043502D01*
X77027506Y7984537D01*
X76930815Y7905185D01*
X76851463Y7808494D01*
X76792498Y7698180D01*
X76770487Y7625620D01*
X76638632Y7757475D01*
X76395411Y7919990D01*
X76125158Y8031932D01*
X75838260Y8089000D01*
X75545740Y8089000D01*
X75258842Y8031932D01*
X74988589Y7919990D01*
X74785508Y7784296D01*
X55255316Y27314487D01*
X55231513Y27343491D01*
X55115788Y27438464D01*
X54983759Y27509036D01*
X54840498Y27552493D01*
X54728845Y27563490D01*
X54728834Y27563490D01*
X54691512Y27567166D01*
X54654190Y27563490D01*
X51108312Y27563490D01*
X49245801Y29426000D01*
X49417335Y29426000D01*
X49694574Y29481147D01*
X49955727Y29589320D01*
X50190759Y29746363D01*
X50390637Y29946241D01*
X50547680Y30181273D01*
X50552067Y30191865D01*
X50663615Y30005869D01*
X50852586Y29797481D01*
X51078580Y29629963D01*
X51332913Y29509754D01*
X51466961Y29469096D01*
X51689000Y29591085D01*
X51689000Y30734000D01*
X51943000Y30734000D01*
X51943000Y29591085D01*
X52165039Y29469096D01*
X52299087Y29509754D01*
X52420836Y29567298D01*
X54050903Y29567298D01*
X54122486Y29323329D01*
X54377996Y29202429D01*
X54652184Y29133700D01*
X54934512Y29119783D01*
X55214130Y29161213D01*
X55480292Y29256397D01*
X55605514Y29323329D01*
X55677097Y29567298D01*
X54864000Y30380395D01*
X54050903Y29567298D01*
X52420836Y29567298D01*
X52553420Y29629963D01*
X52779414Y29797481D01*
X52968385Y30005869D01*
X53113070Y30247119D01*
X53207909Y30511960D01*
X53086624Y30734000D01*
X51943000Y30734000D01*
X51689000Y30734000D01*
X51669000Y30734000D01*
X51669000Y30988000D01*
X51689000Y30988000D01*
X51689000Y31008000D01*
X51943000Y31008000D01*
X51943000Y30988000D01*
X53086624Y30988000D01*
X53207909Y31210040D01*
X53202193Y31226001D01*
X53591598Y31226001D01*
X53506429Y31046004D01*
X53437700Y30771816D01*
X53423783Y30489488D01*
X53465213Y30209870D01*
X53560397Y29943708D01*
X53627329Y29818486D01*
X53871298Y29746903D01*
X54684395Y30560000D01*
X54670253Y30574143D01*
X54849858Y30753748D01*
X54864000Y30739605D01*
X54878143Y30753748D01*
X55057748Y30574143D01*
X55043605Y30560000D01*
X55856702Y29746903D01*
X56100671Y29818486D01*
X56221571Y30073996D01*
X56290300Y30348184D01*
X56304217Y30630512D01*
X56262787Y30910130D01*
X56167603Y31176292D01*
X56141033Y31226001D01*
X56231921Y31226001D01*
X56547483Y30910439D01*
X56540500Y30875335D01*
X56540500Y30592665D01*
X56595647Y30315426D01*
X56703820Y30054273D01*
X56860863Y29819241D01*
X57060741Y29619363D01*
X57295773Y29462320D01*
X57556926Y29354147D01*
X57834165Y29299000D01*
X58116835Y29299000D01*
X58394074Y29354147D01*
X58655227Y29462320D01*
X58890259Y29619363D01*
X59090137Y29819241D01*
X59110021Y29849000D01*
X59380979Y29849000D01*
X59400863Y29819241D01*
X59600741Y29619363D01*
X59835773Y29462320D01*
X60096926Y29354147D01*
X60374165Y29299000D01*
X60656835Y29299000D01*
X60934074Y29354147D01*
X61195227Y29462320D01*
X61430259Y29619363D01*
X61630137Y29819241D01*
X61785500Y30051759D01*
X61940863Y29819241D01*
X62140741Y29619363D01*
X62375773Y29462320D01*
X62636926Y29354147D01*
X62914165Y29299000D01*
X63196835Y29299000D01*
X63474074Y29354147D01*
X63735227Y29462320D01*
X63970259Y29619363D01*
X64170137Y29819241D01*
X64325500Y30051759D01*
X64480863Y29819241D01*
X64680741Y29619363D01*
X64915773Y29462320D01*
X65176926Y29354147D01*
X65454165Y29299000D01*
X65736835Y29299000D01*
X66014074Y29354147D01*
X66275227Y29462320D01*
X66510259Y29619363D01*
X66710137Y29819241D01*
X66865500Y30051759D01*
X67020863Y29819241D01*
X67220741Y29619363D01*
X67455773Y29462320D01*
X67716926Y29354147D01*
X67994165Y29299000D01*
X68276835Y29299000D01*
X68459386Y29335312D01*
X68841700Y28952998D01*
X68865499Y28923999D01*
X68981224Y28829026D01*
X69113253Y28758454D01*
X69256514Y28714997D01*
X69368167Y28704000D01*
X69368176Y28704000D01*
X69405499Y28700324D01*
X69442822Y28704000D01*
X69600604Y28704000D01*
X69497363Y28600759D01*
X69340320Y28365727D01*
X69232147Y28104574D01*
X69177000Y27827335D01*
X69177000Y27544665D01*
X69232147Y27267426D01*
X69340320Y27006273D01*
X69497363Y26771241D01*
X69697241Y26571363D01*
X69932273Y26414320D01*
X70193426Y26306147D01*
X70470665Y26251000D01*
X70753335Y26251000D01*
X71030574Y26306147D01*
X71291727Y26414320D01*
X71526759Y26571363D01*
X71630001Y26674605D01*
X71630000Y15658322D01*
X71626324Y15621000D01*
X71630000Y15583678D01*
X71630000Y15583668D01*
X71640997Y15472015D01*
X71651715Y15436683D01*
X71684454Y15328754D01*
X71755026Y15196724D01*
X71794871Y15148174D01*
X71849999Y15080999D01*
X71879003Y15057196D01*
X74768847Y12167351D01*
X74792932Y12046271D01*
X74863414Y11876111D01*
X74965738Y11722972D01*
X75095972Y11592738D01*
X75249111Y11490414D01*
X75419271Y11419932D01*
X75599911Y11384000D01*
X75784089Y11384000D01*
X75964729Y11419932D01*
X76134889Y11490414D01*
X76200000Y11533920D01*
X76265111Y11490414D01*
X76435271Y11419932D01*
X76615911Y11384000D01*
X76800089Y11384000D01*
X76980729Y11419932D01*
X77150889Y11490414D01*
X77304028Y11592738D01*
X77434262Y11722972D01*
X77536586Y11876111D01*
X77607068Y12046271D01*
X77643000Y12226911D01*
X77643000Y12411089D01*
X77607068Y12591729D01*
X77536586Y12761889D01*
X77434262Y12915028D01*
X77304028Y13045262D01*
X77150889Y13147586D01*
X76980729Y13218068D01*
X76859650Y13242152D01*
X73912000Y16189801D01*
X73912000Y26693298D01*
X74798903Y26693298D01*
X74870486Y26449329D01*
X75125996Y26328429D01*
X75400184Y26259700D01*
X75682512Y26245783D01*
X75962130Y26287213D01*
X76228292Y26382397D01*
X76353514Y26449329D01*
X76425097Y26693298D01*
X75612000Y27506395D01*
X74798903Y26693298D01*
X73912000Y26693298D01*
X73912000Y27615488D01*
X74171783Y27615488D01*
X74213213Y27335870D01*
X74308397Y27069708D01*
X74375329Y26944486D01*
X74619298Y26872903D01*
X75432395Y27686000D01*
X75791605Y27686000D01*
X76604702Y26872903D01*
X76848671Y26944486D01*
X76969571Y27199996D01*
X77038300Y27474184D01*
X77052217Y27756512D01*
X77010787Y28036130D01*
X76915603Y28302292D01*
X76848671Y28427514D01*
X76604702Y28499097D01*
X75791605Y27686000D01*
X75432395Y27686000D01*
X74619298Y28499097D01*
X74375329Y28427514D01*
X74254429Y28172004D01*
X74185700Y27897816D01*
X74171783Y27615488D01*
X73912000Y27615488D01*
X73912000Y27811682D01*
X73915676Y27849005D01*
X73912000Y27886328D01*
X73912000Y27886337D01*
X73901003Y27997990D01*
X73857546Y28141251D01*
X73786974Y28273280D01*
X73692001Y28389005D01*
X73663004Y28412802D01*
X73397104Y28678702D01*
X74798903Y28678702D01*
X75612000Y27865605D01*
X76425097Y28678702D01*
X76353514Y28922671D01*
X76098004Y29043571D01*
X75823816Y29112300D01*
X75541488Y29126217D01*
X75261870Y29084787D01*
X74995708Y28989603D01*
X74870486Y28922671D01*
X74798903Y28678702D01*
X73397104Y28678702D01*
X72668436Y29407369D01*
X72796926Y29354147D01*
X73074165Y29299000D01*
X73356835Y29299000D01*
X73634074Y29354147D01*
X73895227Y29462320D01*
X74130259Y29619363D01*
X74330137Y29819241D01*
X74487180Y30054273D01*
X74491567Y30064865D01*
X74603115Y29878869D01*
X74792086Y29670481D01*
X75018080Y29502963D01*
X75272413Y29382754D01*
X75406461Y29342096D01*
X75628500Y29464085D01*
X75628500Y30607000D01*
X75882500Y30607000D01*
X75882500Y29464085D01*
X76104539Y29342096D01*
X76238587Y29382754D01*
X76492920Y29502963D01*
X76718914Y29670481D01*
X76907885Y29878869D01*
X77052570Y30120119D01*
X77147409Y30384960D01*
X77026124Y30607000D01*
X75882500Y30607000D01*
X75628500Y30607000D01*
X75608500Y30607000D01*
X75608500Y30861000D01*
X75628500Y30861000D01*
X75628500Y32003915D01*
X75882500Y32003915D01*
X75882500Y30861000D01*
X77026124Y30861000D01*
X77147409Y31083040D01*
X77052570Y31347881D01*
X76907885Y31589131D01*
X76718914Y31797519D01*
X76492920Y31965037D01*
X76238587Y32085246D01*
X76104539Y32125904D01*
X75882500Y32003915D01*
X75628500Y32003915D01*
X75406461Y32125904D01*
X75272413Y32085246D01*
X75018080Y31965037D01*
X74792086Y31797519D01*
X74603115Y31589131D01*
X74491567Y31403135D01*
X74487180Y31413727D01*
X74330137Y31648759D01*
X74130259Y31848637D01*
X73895227Y32005680D01*
X73634074Y32113853D01*
X73356835Y32169000D01*
X73074165Y32169000D01*
X72796926Y32113853D01*
X72535773Y32005680D01*
X72300741Y31848637D01*
X72100863Y31648759D01*
X71945500Y31416241D01*
X71790137Y31648759D01*
X71590259Y31848637D01*
X71355227Y32005680D01*
X71094074Y32113853D01*
X70816835Y32169000D01*
X70534165Y32169000D01*
X70256926Y32113853D01*
X69995773Y32005680D01*
X69760741Y31848637D01*
X69560863Y31648759D01*
X69405500Y31416241D01*
X69250137Y31648759D01*
X69050259Y31848637D01*
X68815227Y32005680D01*
X68554074Y32113853D01*
X68276835Y32169000D01*
X67994165Y32169000D01*
X67716926Y32113853D01*
X67455773Y32005680D01*
X67220741Y31848637D01*
X67020863Y31648759D01*
X66865500Y31416241D01*
X66710137Y31648759D01*
X66510259Y31848637D01*
X66275227Y32005680D01*
X66014074Y32113853D01*
X65736835Y32169000D01*
X65454165Y32169000D01*
X65176926Y32113853D01*
X64915773Y32005680D01*
X64680741Y31848637D01*
X64480863Y31648759D01*
X64325500Y31416241D01*
X64170137Y31648759D01*
X63970259Y31848637D01*
X63735227Y32005680D01*
X63474074Y32113853D01*
X63196835Y32169000D01*
X62914165Y32169000D01*
X62636926Y32113853D01*
X62375773Y32005680D01*
X62140741Y31848637D01*
X61940863Y31648759D01*
X61785500Y31416241D01*
X61630137Y31648759D01*
X61430259Y31848637D01*
X61195227Y32005680D01*
X60934074Y32113853D01*
X60656835Y32169000D01*
X60374165Y32169000D01*
X60096926Y32113853D01*
X59835773Y32005680D01*
X59600741Y31848637D01*
X59400863Y31648759D01*
X59380979Y31619000D01*
X59110021Y31619000D01*
X59090137Y31648759D01*
X58890259Y31848637D01*
X58655227Y32005680D01*
X58394074Y32113853D01*
X58116835Y32169000D01*
X57834165Y32169000D01*
X57799061Y32162017D01*
X57255033Y32706045D01*
X57227316Y32739818D01*
X57092558Y32850412D01*
X56938812Y32932590D01*
X56771989Y32983196D01*
X56641976Y32996001D01*
X56641968Y32996001D01*
X56598499Y33000282D01*
X56555030Y32996001D01*
X37869466Y32996001D01*
X37826000Y33000282D01*
X37782534Y32996001D01*
X37782524Y32996001D01*
X37652511Y32983196D01*
X37485688Y32932590D01*
X37331942Y32850412D01*
X37331940Y32850411D01*
X37331941Y32850411D01*
X37230954Y32767533D01*
X37230952Y32767531D01*
X37197184Y32739818D01*
X37169471Y32706050D01*
X36752439Y32289017D01*
X36717335Y32296000D01*
X36434665Y32296000D01*
X36157426Y32240853D01*
X35896273Y32132680D01*
X35661241Y31975637D01*
X35461363Y31775759D01*
X35441479Y31746000D01*
X35170521Y31746000D01*
X35150637Y31775759D01*
X34950759Y31975637D01*
X34715727Y32132680D01*
X34454574Y32240853D01*
X34177335Y32296000D01*
X33894665Y32296000D01*
X33859561Y32289017D01*
X32978034Y33170544D01*
X32950317Y33204317D01*
X32815559Y33314911D01*
X32661813Y33397089D01*
X32494990Y33447695D01*
X32364977Y33460500D01*
X32364969Y33460500D01*
X32321500Y33464781D01*
X32278031Y33460500D01*
X12044969Y33460500D01*
X12001500Y33464781D01*
X11958031Y33460500D01*
X11958023Y33460500D01*
X11828010Y33447695D01*
X11661187Y33397089D01*
X11507441Y33314911D01*
X11406453Y33232032D01*
X11406451Y33232030D01*
X11372683Y33204317D01*
X11344970Y33170549D01*
X10844439Y32670017D01*
X10809335Y32677000D01*
X10526665Y32677000D01*
X10249426Y32621853D01*
X9988273Y32513680D01*
X9753241Y32356637D01*
X9553363Y32156759D01*
X9533479Y32127000D01*
X9262521Y32127000D01*
X9242637Y32156759D01*
X9042759Y32356637D01*
X8807727Y32513680D01*
X8546574Y32621853D01*
X8269335Y32677000D01*
X7986665Y32677000D01*
X7762999Y32632509D01*
X7762999Y34705421D01*
X10491561Y37433983D01*
X10526665Y37427000D01*
X10809335Y37427000D01*
X10844439Y37433983D01*
X11789470Y36488951D01*
X11817183Y36455183D01*
X11850951Y36427470D01*
X11850953Y36427468D01*
X11927571Y36364589D01*
X11951941Y36344589D01*
X12105687Y36262411D01*
X12272510Y36211805D01*
X12402523Y36199000D01*
X12402531Y36199000D01*
X12446000Y36194719D01*
X12489469Y36199000D01*
X27569469Y36199000D01*
X27521000Y35955335D01*
X27521000Y35672665D01*
X27576147Y35395426D01*
X27684320Y35134273D01*
X27841363Y34899241D01*
X28041241Y34699363D01*
X28276273Y34542320D01*
X28537426Y34434147D01*
X28814665Y34379000D01*
X29097335Y34379000D01*
X29374574Y34434147D01*
X29635727Y34542320D01*
X29870759Y34699363D01*
X30070637Y34899241D01*
X30227680Y35134273D01*
X30335853Y35395426D01*
X30391000Y35672665D01*
X30391000Y35955335D01*
X30342531Y36199000D01*
X35135531Y36199000D01*
X35179000Y36194719D01*
X35222469Y36199000D01*
X35222477Y36199000D01*
X35352490Y36211805D01*
X35519313Y36262411D01*
X35673059Y36344589D01*
X35807817Y36455183D01*
X35835534Y36488956D01*
X36399561Y37052983D01*
X36434665Y37046000D01*
X36717335Y37046000D01*
X36752439Y37052983D01*
X37296471Y36508950D01*
X37324184Y36475182D01*
X37357952Y36447469D01*
X37357954Y36447467D01*
X37382323Y36427468D01*
X37458942Y36364588D01*
X37612688Y36282410D01*
X37779511Y36231804D01*
X37909524Y36218999D01*
X37909534Y36218999D01*
X37953000Y36214718D01*
X37996466Y36218999D01*
X53583734Y36218999D01*
X53484147Y35978574D01*
X53429000Y35701335D01*
X53429000Y35418665D01*
X53484147Y35141426D01*
X53592320Y34880273D01*
X53749363Y34645241D01*
X53949241Y34445363D01*
X54184273Y34288320D01*
X54445426Y34180147D01*
X54722665Y34125000D01*
X55005335Y34125000D01*
X55282574Y34180147D01*
X55543727Y34288320D01*
X55778759Y34445363D01*
X55978637Y34645241D01*
X56135680Y34880273D01*
X56243853Y35141426D01*
X56299000Y35418665D01*
X56299000Y35701335D01*
X56243853Y35978574D01*
X56144266Y36218999D01*
X59222030Y36218999D01*
X59265499Y36214718D01*
X59308968Y36218999D01*
X59308976Y36218999D01*
X59438989Y36231804D01*
X59605812Y36282410D01*
X59759558Y36364588D01*
X59894316Y36475182D01*
X59922033Y36508955D01*
X60339061Y36925983D01*
X60374165Y36919000D01*
X60656835Y36919000D01*
X60934074Y36974147D01*
X61195227Y37082320D01*
X61430259Y37239363D01*
X61630137Y37439241D01*
X61785500Y37671759D01*
X61940863Y37439241D01*
X62140741Y37239363D01*
X62375773Y37082320D01*
X62636926Y36974147D01*
X62914165Y36919000D01*
X63196835Y36919000D01*
X63474074Y36974147D01*
X63735227Y37082320D01*
X63970259Y37239363D01*
X64170137Y37439241D01*
X64325500Y37671759D01*
X64480863Y37439241D01*
X64680741Y37239363D01*
X64915773Y37082320D01*
X65176926Y36974147D01*
X65454165Y36919000D01*
X65736835Y36919000D01*
X66014074Y36974147D01*
X66275227Y37082320D01*
X66510259Y37239363D01*
X66710137Y37439241D01*
X66865500Y37671759D01*
X67020863Y37439241D01*
X67220741Y37239363D01*
X67455773Y37082320D01*
X67716926Y36974147D01*
X67994165Y36919000D01*
X68276835Y36919000D01*
X68554074Y36974147D01*
X68815227Y37082320D01*
X69050259Y37239363D01*
X69250137Y37439241D01*
X69405500Y37671759D01*
X69560863Y37439241D01*
X69760741Y37239363D01*
X69995773Y37082320D01*
X70256926Y36974147D01*
X70534165Y36919000D01*
X70816835Y36919000D01*
X71094074Y36974147D01*
X71355227Y37082320D01*
X71590259Y37239363D01*
X71790137Y37439241D01*
X71945500Y37671759D01*
X72100863Y37439241D01*
X72300741Y37239363D01*
X72535773Y37082320D01*
X72796926Y36974147D01*
X73074165Y36919000D01*
X73356835Y36919000D01*
X73634074Y36974147D01*
X73895227Y37082320D01*
X74130259Y37239363D01*
X74328857Y37437961D01*
X74329688Y37429518D01*
X74365998Y37309820D01*
X74424963Y37199506D01*
X74504315Y37102815D01*
X74601006Y37023463D01*
X74711320Y36964498D01*
X74831018Y36928188D01*
X74955500Y36915928D01*
X76555500Y36915928D01*
X76679982Y36928188D01*
X76799680Y36964498D01*
X76909994Y37023463D01*
X77006685Y37102815D01*
X77086037Y37199506D01*
X77145002Y37309820D01*
X77181312Y37429518D01*
X77193572Y37554000D01*
X77193572Y39154000D01*
X77181312Y39278482D01*
X77145002Y39398180D01*
X77086037Y39508494D01*
X77006685Y39605185D01*
X76909994Y39684537D01*
X76799680Y39743502D01*
X76679982Y39779812D01*
X76555500Y39792072D01*
X74955500Y39792072D01*
X74831018Y39779812D01*
X74711320Y39743502D01*
X74601006Y39684537D01*
X74504315Y39605185D01*
X74424963Y39508494D01*
X74365998Y39398180D01*
X74329688Y39278482D01*
X74328857Y39270039D01*
X74130259Y39468637D01*
X73895227Y39625680D01*
X73634074Y39733853D01*
X73356835Y39789000D01*
X73074165Y39789000D01*
X72796926Y39733853D01*
X72535773Y39625680D01*
X72300741Y39468637D01*
X72100863Y39268759D01*
X71945500Y39036241D01*
X71790137Y39268759D01*
X71590259Y39468637D01*
X71355227Y39625680D01*
X71094074Y39733853D01*
X70816835Y39789000D01*
X70534165Y39789000D01*
X70351614Y39752688D01*
X67937304Y42166997D01*
X67913501Y42196001D01*
X67797776Y42290974D01*
X67665747Y42361546D01*
X67522486Y42405003D01*
X67410833Y42416000D01*
X67410822Y42416000D01*
X67373500Y42419676D01*
X67336178Y42416000D01*
X39437857Y42416000D01*
X34769804Y47084052D01*
X34746001Y47113056D01*
X34630276Y47208029D01*
X34498247Y47278601D01*
X34354986Y47322058D01*
X34298875Y47327585D01*
X34381262Y47409972D01*
X34483586Y47563111D01*
X34554068Y47733271D01*
X34590000Y47913911D01*
X34590000Y47963089D01*
X35096767Y47963089D01*
X35134089Y47959413D01*
X35171411Y47963089D01*
X35171422Y47963089D01*
X35283075Y47974086D01*
X35426336Y48017543D01*
X35558365Y48088115D01*
X35674090Y48183088D01*
X35697893Y48212092D01*
X35955592Y48469791D01*
X36175740Y48426000D01*
X36468260Y48426000D01*
X36755158Y48483068D01*
X37025411Y48595010D01*
X37268632Y48757525D01*
X37475475Y48964368D01*
X37592000Y49138760D01*
X37708525Y48964368D01*
X37915368Y48757525D01*
X37977001Y48716343D01*
X37977000Y47106297D01*
X37844320Y46907727D01*
X37736147Y46646574D01*
X37681000Y46369335D01*
X37681000Y46086665D01*
X37736147Y45809426D01*
X37844320Y45548273D01*
X38001363Y45313241D01*
X38201241Y45113363D01*
X38436273Y44956320D01*
X38697426Y44848147D01*
X38974665Y44793000D01*
X39257335Y44793000D01*
X39534574Y44848147D01*
X39795727Y44956320D01*
X40030759Y45113363D01*
X40152694Y45235298D01*
X48462903Y45235298D01*
X48534486Y44991329D01*
X48789996Y44870429D01*
X49064184Y44801700D01*
X49346512Y44787783D01*
X49626130Y44829213D01*
X49892292Y44924397D01*
X50017514Y44991329D01*
X50089097Y45235298D01*
X49276000Y46048395D01*
X48462903Y45235298D01*
X40152694Y45235298D01*
X40230637Y45313241D01*
X40387680Y45548273D01*
X40495853Y45809426D01*
X40551000Y46086665D01*
X40551000Y46157488D01*
X47835783Y46157488D01*
X47877213Y45877870D01*
X47972397Y45611708D01*
X48039329Y45486486D01*
X48283298Y45414903D01*
X49096395Y46228000D01*
X49455605Y46228000D01*
X50268702Y45414903D01*
X50512671Y45486486D01*
X50633571Y45741996D01*
X50702300Y46016184D01*
X50716217Y46298512D01*
X50674787Y46578130D01*
X50579603Y46844292D01*
X50512671Y46969514D01*
X50268702Y47041097D01*
X49455605Y46228000D01*
X49096395Y46228000D01*
X48283298Y47041097D01*
X48039329Y46969514D01*
X47918429Y46714004D01*
X47849700Y46439816D01*
X47835783Y46157488D01*
X40551000Y46157488D01*
X40551000Y46369335D01*
X40495853Y46646574D01*
X40387680Y46907727D01*
X40230637Y47142759D01*
X40152694Y47220702D01*
X48462903Y47220702D01*
X49276000Y46407605D01*
X50089097Y47220702D01*
X50017514Y47464671D01*
X49762004Y47585571D01*
X49487816Y47654300D01*
X49205488Y47668217D01*
X48925870Y47626787D01*
X48659708Y47531603D01*
X48534486Y47464671D01*
X48462903Y47220702D01*
X40152694Y47220702D01*
X40030759Y47342637D01*
X39795727Y47499680D01*
X39747000Y47519863D01*
X39747000Y48716344D01*
X39808632Y48757525D01*
X39940487Y48889380D01*
X39962498Y48816820D01*
X40021463Y48706506D01*
X40100815Y48609815D01*
X40197506Y48530463D01*
X40307820Y48471498D01*
X40427518Y48435188D01*
X40552000Y48422928D01*
X42252000Y48422928D01*
X42376482Y48435188D01*
X42496180Y48471498D01*
X42606494Y48530463D01*
X42703185Y48609815D01*
X42782537Y48706506D01*
X42841502Y48816820D01*
X42877812Y48936518D01*
X42890072Y49061000D01*
X42890072Y50761000D01*
X42877812Y50885482D01*
X42841502Y51005180D01*
X42782537Y51115494D01*
X42703185Y51212185D01*
X42606494Y51291537D01*
X42496180Y51350502D01*
X42376482Y51386812D01*
X42252000Y51399072D01*
X40552000Y51399072D01*
X40427518Y51386812D01*
X40307820Y51350502D01*
X40197506Y51291537D01*
X40100815Y51212185D01*
X40021463Y51115494D01*
X39962498Y51005180D01*
X39940487Y50932620D01*
X39808632Y51064475D01*
X39565411Y51226990D01*
X39295158Y51338932D01*
X39008260Y51396000D01*
X38715740Y51396000D01*
X38428842Y51338932D01*
X38158589Y51226990D01*
X37915368Y51064475D01*
X37708525Y50857632D01*
X37592000Y50683240D01*
X37475475Y50857632D01*
X37268632Y51064475D01*
X37025411Y51226990D01*
X36755158Y51338932D01*
X36468260Y51396000D01*
X36175740Y51396000D01*
X35888842Y51338932D01*
X35618589Y51226990D01*
X35375368Y51064475D01*
X35168525Y50857632D01*
X35052000Y50683240D01*
X34935475Y50857632D01*
X34728632Y51064475D01*
X34485411Y51226990D01*
X34215158Y51338932D01*
X33928260Y51396000D01*
X33635740Y51396000D01*
X33348842Y51338932D01*
X33078589Y51226990D01*
X32835368Y51064475D01*
X32628525Y50857632D01*
X32512000Y50683240D01*
X32395475Y50857632D01*
X32188632Y51064475D01*
X31945411Y51226990D01*
X31675158Y51338932D01*
X31388260Y51396000D01*
X31095740Y51396000D01*
X30808842Y51338932D01*
X30538589Y51226990D01*
X30295368Y51064475D01*
X30088525Y50857632D01*
X29972000Y50683240D01*
X29855475Y50857632D01*
X29648632Y51064475D01*
X29405411Y51226990D01*
X29135158Y51338932D01*
X28848260Y51396000D01*
X28555740Y51396000D01*
X28268842Y51338932D01*
X27998589Y51226990D01*
X27755368Y51064475D01*
X27548525Y50857632D01*
X27432000Y50683240D01*
X27315475Y50857632D01*
X27108632Y51064475D01*
X26865411Y51226990D01*
X26595158Y51338932D01*
X26308260Y51396000D01*
X26015740Y51396000D01*
X25728842Y51338932D01*
X25458589Y51226990D01*
X25215368Y51064475D01*
X25008525Y50857632D01*
X24892000Y50683240D01*
X24775475Y50857632D01*
X24568632Y51064475D01*
X24325411Y51226990D01*
X24055158Y51338932D01*
X23768260Y51396000D01*
X23475740Y51396000D01*
X23188842Y51338932D01*
X22918589Y51226990D01*
X22675368Y51064475D01*
X22468525Y50857632D01*
X22352000Y50683240D01*
X22235475Y50857632D01*
X22028632Y51064475D01*
X21785411Y51226990D01*
X21515158Y51338932D01*
X21228260Y51396000D01*
X20935740Y51396000D01*
X20648842Y51338932D01*
X20378589Y51226990D01*
X20135368Y51064475D01*
X19928525Y50857632D01*
X19812000Y50683240D01*
X19695475Y50857632D01*
X19488632Y51064475D01*
X19245411Y51226990D01*
X18975158Y51338932D01*
X18688260Y51396000D01*
X18395740Y51396000D01*
X18108842Y51338932D01*
X17838589Y51226990D01*
X17595368Y51064475D01*
X17388525Y50857632D01*
X17272000Y50683240D01*
X17155475Y50857632D01*
X16948632Y51064475D01*
X16705411Y51226990D01*
X16435158Y51338932D01*
X16148260Y51396000D01*
X15855740Y51396000D01*
X15568842Y51338932D01*
X15298589Y51226990D01*
X15055368Y51064475D01*
X14848525Y50857632D01*
X14732000Y50683240D01*
X14615475Y50857632D01*
X14408632Y51064475D01*
X14165411Y51226990D01*
X13895158Y51338932D01*
X13608260Y51396000D01*
X13315740Y51396000D01*
X13028842Y51338932D01*
X12758589Y51226990D01*
X12515368Y51064475D01*
X12308525Y50857632D01*
X12192000Y50683240D01*
X12075475Y50857632D01*
X11868632Y51064475D01*
X11625411Y51226990D01*
X11355158Y51338932D01*
X11068260Y51396000D01*
X10941801Y51396000D01*
X12139121Y52593320D01*
X70517000Y52593320D01*
X70517000Y52308680D01*
X70572530Y52029509D01*
X70681457Y51766536D01*
X70839595Y51529866D01*
X71040866Y51328595D01*
X71277536Y51170457D01*
X71540509Y51061530D01*
X71819680Y51006000D01*
X72104320Y51006000D01*
X72383491Y51061530D01*
X72646464Y51170457D01*
X72883134Y51328595D01*
X73005696Y51451157D01*
X76141762Y51451157D01*
X76214556Y51206168D01*
X76471773Y51084267D01*
X76747829Y51014890D01*
X77032115Y51000702D01*
X77313706Y51042248D01*
X77581783Y51137932D01*
X77709444Y51206168D01*
X77782238Y51451157D01*
X76962000Y52271395D01*
X76141762Y51451157D01*
X73005696Y51451157D01*
X73084405Y51529866D01*
X73242543Y51766536D01*
X73351470Y52029509D01*
X73407000Y52308680D01*
X73407000Y52380885D01*
X75511702Y52380885D01*
X75553248Y52099294D01*
X75648932Y51831217D01*
X75717168Y51703556D01*
X75962157Y51630762D01*
X76782395Y52451000D01*
X77141605Y52451000D01*
X77961843Y51630762D01*
X78206832Y51703556D01*
X78328733Y51960773D01*
X78398110Y52236829D01*
X78412298Y52521115D01*
X78370752Y52802706D01*
X78275068Y53070783D01*
X78206832Y53198444D01*
X77961843Y53271238D01*
X77141605Y52451000D01*
X76782395Y52451000D01*
X75962157Y53271238D01*
X75717168Y53198444D01*
X75595267Y52941227D01*
X75525890Y52665171D01*
X75511702Y52380885D01*
X73407000Y52380885D01*
X73407000Y52593320D01*
X73351470Y52872491D01*
X73242543Y53135464D01*
X73084405Y53372134D01*
X73005696Y53450843D01*
X76141762Y53450843D01*
X76962000Y52630605D01*
X77782238Y53450843D01*
X77709444Y53695832D01*
X77452227Y53817733D01*
X77176171Y53887110D01*
X76891885Y53901298D01*
X76610294Y53859752D01*
X76342217Y53764068D01*
X76214556Y53695832D01*
X76141762Y53450843D01*
X73005696Y53450843D01*
X72883134Y53573405D01*
X72646464Y53731543D01*
X72383491Y53840470D01*
X72104320Y53896000D01*
X71819680Y53896000D01*
X71540509Y53840470D01*
X71277536Y53731543D01*
X71040866Y53573405D01*
X70839595Y53372134D01*
X70681457Y53135464D01*
X70572530Y52872491D01*
X70517000Y52593320D01*
X12139121Y52593320D01*
X16236802Y56691000D01*
X73231929Y56691000D01*
X73339595Y56529866D01*
X73540866Y56328595D01*
X73777536Y56170457D01*
X74040509Y56061530D01*
X74319680Y56006000D01*
X74604320Y56006000D01*
X74883491Y56061530D01*
X75146464Y56170457D01*
X75383134Y56328595D01*
X75584405Y56529866D01*
X75742543Y56766536D01*
X75851470Y57029509D01*
X75907000Y57308680D01*
X75907000Y57593320D01*
X75851470Y57872491D01*
X75742543Y58135464D01*
X75584405Y58372134D01*
X75383134Y58573405D01*
X75146464Y58731543D01*
X74883491Y58840470D01*
X74604320Y58896000D01*
X74319680Y58896000D01*
X74040509Y58840470D01*
X73777536Y58731543D01*
X73540866Y58573405D01*
X73339595Y58372134D01*
X73231929Y58211000D01*
X15959322Y58211000D01*
X15921999Y58214676D01*
X15884676Y58211000D01*
X15884667Y58211000D01*
X15773014Y58200003D01*
X15629753Y58156546D01*
X15497724Y58085974D01*
X15381999Y57991001D01*
X15358201Y57962003D01*
X8748408Y51352209D01*
X8528260Y51396000D01*
X8235740Y51396000D01*
X7948842Y51338932D01*
X7678589Y51226990D01*
X7435368Y51064475D01*
X7228525Y50857632D01*
X7106805Y50675466D01*
X7037178Y50792355D01*
X6842269Y51008588D01*
X6608920Y51182641D01*
X6346099Y51307825D01*
X6198890Y51352476D01*
X5969000Y51231155D01*
X5715000Y51231155D01*
X5485110Y51352476D01*
X5337901Y51307825D01*
X5075080Y51182641D01*
X4841731Y51008588D01*
X4646822Y50792355D01*
X4577195Y50675466D01*
X4455475Y50857632D01*
X4248632Y51064475D01*
X4005411Y51226990D01*
X3735158Y51338932D01*
X3448260Y51396000D01*
X3155740Y51396000D01*
X2868842Y51338932D01*
X2598589Y51226990D01*
X2355368Y51064475D01*
X2148525Y50857632D01*
X1986010Y50614411D01*
X1874068Y50344158D01*
X1817000Y50057260D01*
X685000Y50057260D01*
X685000Y57945647D01*
X675711Y58039956D01*
X691653Y58202542D01*
X776031Y58482018D01*
X913085Y58739780D01*
X1097599Y58966015D01*
X1322540Y59152103D01*
X1579342Y59290956D01*
X1858219Y59377282D01*
X2030268Y59395365D01*
X2125353Y59386000D01*
G37*
%TD.AperFunction*%
D21*
X27963296Y31627097D02*
X27719329Y31555514D01*
X27598429Y31300004D01*
X27529700Y31025816D01*
X27515783Y30743488D01*
X27557213Y30463870D01*
X27652397Y30197708D01*
X27719329Y30072486D01*
X27963296Y30000903D01*
X27948926Y29986533D01*
X26593732Y29986533D01*
X26645420Y30010963D01*
X26871414Y30178481D01*
X27060385Y30386869D01*
X27205070Y30628119D01*
X27299909Y30892960D01*
X27178624Y31115000D01*
X26035000Y31115000D01*
X26035000Y31095000D01*
X25781000Y31095000D01*
X25781000Y31115000D01*
X25761000Y31115000D01*
X25761000Y31369000D01*
X25781000Y31369000D01*
X25781000Y31389000D01*
X26035000Y31389000D01*
X26035000Y31369000D01*
X27178624Y31369000D01*
X27299909Y31591040D01*
X27264293Y31690500D01*
X27899893Y31690500D01*
X27963296Y31627097D01*
%TA.AperFunction,Conductor*%
D22*
G36*
X27963296Y31627097D02*
G01*
X27719329Y31555514D01*
X27598429Y31300004D01*
X27529700Y31025816D01*
X27515783Y30743488D01*
X27557213Y30463870D01*
X27652397Y30197708D01*
X27719329Y30072486D01*
X27963296Y30000903D01*
X27948926Y29986533D01*
X26593732Y29986533D01*
X26645420Y30010963D01*
X26871414Y30178481D01*
X27060385Y30386869D01*
X27205070Y30628119D01*
X27299909Y30892960D01*
X27178624Y31115000D01*
X26035000Y31115000D01*
X26035000Y31095000D01*
X25781000Y31095000D01*
X25781000Y31115000D01*
X25761000Y31115000D01*
X25761000Y31369000D01*
X25781000Y31369000D01*
X25781000Y31389000D01*
X26035000Y31389000D01*
X26035000Y31369000D01*
X27178624Y31369000D01*
X27299909Y31591040D01*
X27264293Y31690500D01*
X27899893Y31690500D01*
X27963296Y31627097D01*
G37*
%TD.AperFunction*%
D21*
X29149748Y30828143D02*
X29135605Y30814000D01*
X29149748Y30799858D01*
X28970143Y30620253D01*
X28956000Y30634395D01*
X28941858Y30620253D01*
X28762253Y30799858D01*
X28776395Y30814000D01*
X28762253Y30828143D01*
X28941858Y31007748D01*
X28956000Y30993605D01*
X28970143Y31007748D01*
X29149748Y30828143D01*
%TA.AperFunction,Conductor*%
D22*
G36*
X29149748Y30828143D02*
G01*
X29135605Y30814000D01*
X29149748Y30799858D01*
X28970143Y30620253D01*
X28956000Y30634395D01*
X28941858Y30620253D01*
X28762253Y30799858D01*
X28776395Y30814000D01*
X28762253Y30828143D01*
X28941858Y31007748D01*
X28956000Y30993605D01*
X28970143Y31007748D01*
X29149748Y30828143D01*
G37*
%TD.AperFunction*%
%TD*%
M02*
