<?xml version="1.0" encoding="UTF-8" standalone="no"?>
<svg xmlns="http://www.w3.org/2000/svg" height="24px" width="186px" version="1.1" xmlns:xlink="http://www.w3.org/1999/xlink" viewBox="0 0 186 24"><!-- Generator: Sketch 52 (66869) - http://www.bohemiancoding.com/sketch -->
 <title>Lockup</title>
 <desc>Created with Sketch.</desc>
 <defs>
  <path id="path-1" d="m114.72 13.02c0.39-0.107 0.89-0.227 1.51-0.36s1.42-0.2 2.41-0.2c1.31 0 2.25 0.38 2.84 1.14 0.07-0.053 0.2-0.143 0.39-0.27s0.44-0.257 0.73-0.39 0.64-0.247 1.03-0.34 0.83-0.14 1.31-0.14c0.79 0 1.42 0.117 1.91 0.35s0.86 0.56 1.13 0.98 0.45 0.923 0.54 1.51 0.14 1.227 0.14 1.92v5.78h-1.3v-5.36c0-0.68-0.03-1.27-0.09-1.77s-0.18-0.913-0.36-1.24-0.44-0.573-0.77-0.74-0.77-0.25-1.3-0.25c-0.4 0-0.76 0.037-1.09 0.11s-0.61 0.163-0.85 0.27-0.44 0.213-0.59 0.32-0.26 0.187-0.33 0.24c0.12 0.347 0.21 0.737 0.27 1.17s0.09 0.89 0.09 1.37v5.88h-1.3v-5.36c0-0.68-0.03-1.27-0.09-1.77s-0.18-0.913-0.37-1.24-0.45-0.573-0.79-0.74-0.79-0.25-1.35-0.25c-0.63 0-1.16 0.033-1.59 0.1s-0.71 0.127-0.83 0.18v9.08h-1.3v-9.98zm20.52 9.04c0.51 0 0.95-0.017 1.33-0.05s0.7-0.077 0.97-0.13v-3.64c-0.15-0.067-0.38-0.137-0.7-0.21s-0.76-0.11-1.32-0.11c-0.32 0-0.65 0.023-1 0.07s-0.67 0.147-0.96 0.3-0.53 0.363-0.72 0.63-0.28 0.62-0.28 1.06c0 0.387 0.06 0.713 0.19 0.98s0.31 0.48 0.54 0.64 0.51 0.277 0.84 0.35 0.7 0.11 1.11 0.11zm-0.12-9.64c0.68 0 1.26 0.097 1.73 0.29s0.86 0.46 1.15 0.8 0.51 0.743 0.64 1.21 0.2 0.973 0.2 1.52v6.52c-0.13 0.04-0.33 0.083-0.58 0.13s-0.55 0.097-0.88 0.15-0.7 0.097-1.11 0.13-0.82 0.05-1.25 0.05c-0.55 0-1.05-0.06-1.51-0.18s-0.86-0.31-1.2-0.57-0.61-0.593-0.8-1-0.29-0.903-0.29-1.49c0-0.56 0.11-1.04 0.32-1.44s0.51-0.73 0.9-0.99 0.85-0.45 1.38-0.57 1.11-0.18 1.74-0.18c0.19 0 0.38 0.01 0.59 0.03s0.41 0.047 0.6 0.08 0.36 0.067 0.5 0.1 0.24 0.063 0.29 0.09v-0.64c0-0.36-0.03-0.71-0.08-1.05s-0.17-0.647-0.35-0.92-0.43-0.493-0.76-0.66-0.76-0.25-1.29-0.25c-0.76 0-1.33 0.053-1.7 0.16s-0.65 0.193-0.82 0.26l-0.18-1.14c0.23-0.107 0.58-0.207 1.05-0.3s1.04-0.14 1.71-0.14zm7.04 0.6c0.39-0.107 0.91-0.227 1.56-0.36s1.45-0.2 2.4-0.2c0.79 0 1.44 0.113 1.97 0.34s0.95 0.55 1.26 0.97 0.54 0.923 0.67 1.51 0.2 1.233 0.2 1.94v5.78h-1.3v-5.36c0-0.733-0.05-1.353-0.15-1.86s-0.27-0.92-0.5-1.24-0.54-0.55-0.92-0.69-0.86-0.21-1.43-0.21c-0.61 0-1.14 0.033-1.59 0.1s-0.74 0.127-0.87 0.18v9.08h-1.3v-9.98zm19.32 9.62c-0.39 0.107-0.91 0.227-1.56 0.36s-1.45 0.2-2.4 0.2c-0.77 0-1.42-0.113-1.94-0.34s-0.94-0.547-1.26-0.96-0.55-0.913-0.69-1.5-0.21-1.233-0.21-1.94v-5.8h1.3v5.38c0 0.733 0.05 1.353 0.16 1.86s0.28 0.917 0.52 1.23 0.55 0.54 0.93 0.68 0.84 0.21 1.39 0.21c0.61 0 1.15-0.033 1.6-0.1s0.74-0.127 0.86-0.18v-9.08h1.3v9.98zm6.7-0.58c0.51 0 0.95-0.017 1.33-0.05s0.7-0.077 0.97-0.13v-3.64c-0.15-0.067-0.38-0.137-0.7-0.21s-0.76-0.11-1.32-0.11c-0.32 0-0.65 0.023-1 0.07s-0.67 0.147-0.96 0.3-0.53 0.363-0.72 0.63-0.28 0.62-0.28 1.06c0 0.387 0.06 0.713 0.19 0.98s0.31 0.48 0.54 0.64 0.51 0.277 0.84 0.35 0.7 0.11 1.11 0.11zm-0.12-9.64c0.68 0 1.26 0.097 1.73 0.29s0.86 0.46 1.15 0.8 0.51 0.743 0.64 1.21 0.2 0.973 0.2 1.52v6.52c-0.13 0.04-0.33 0.083-0.58 0.13s-0.55 0.097-0.88 0.15-0.7 0.097-1.11 0.13-0.82 0.05-1.25 0.05c-0.55 0-1.05-0.06-1.51-0.18s-0.86-0.31-1.2-0.57-0.61-0.593-0.8-1-0.29-0.903-0.29-1.49c0-0.56 0.11-1.04 0.32-1.44s0.51-0.73 0.9-0.99 0.85-0.45 1.38-0.57 1.11-0.18 1.74-0.18c0.19 0 0.38 0.01 0.59 0.03s0.41 0.047 0.6 0.08 0.36 0.067 0.5 0.1 0.24 0.063 0.29 0.09v-0.64c0-0.36-0.03-0.71-0.08-1.05s-0.17-0.647-0.35-0.92-0.43-0.493-0.76-0.66-0.76-0.25-1.29-0.25c-0.76 0-1.33 0.053-1.7 0.16s-0.65 0.193-0.82 0.26l-0.18-1.14c0.23-0.107 0.58-0.207 1.05-0.3s1.04-0.14 1.71-0.14zm9.66 10.76c-0.44-0.013-0.82-0.07-1.15-0.17s-0.6-0.253-0.82-0.46-0.39-0.473-0.5-0.8-0.17-0.737-0.17-1.23v-12.8l1.3-0.24v13c0 0.32 0.03 0.577 0.09 0.77s0.15 0.347 0.27 0.46 0.28 0.197 0.47 0.25 0.42 0.1 0.69 0.14l-0.18 1.08zm4.6-1.1c0.75 0 1.36-0.123 1.85-0.37s0.73-0.663 0.73-1.25c0-0.28-0.04-0.52-0.13-0.72s-0.23-0.38-0.43-0.54-0.46-0.313-0.79-0.46-0.73-0.32-1.21-0.52c-0.39-0.16-0.75-0.323-1.1-0.49s-0.65-0.36-0.92-0.58-0.48-0.483-0.64-0.79-0.24-0.68-0.24-1.12c0-0.84 0.32-1.52 0.95-2.04s1.5-0.78 2.61-0.78c0.71 0 1.29 0.06 1.75 0.18s0.78 0.227 0.97 0.32l-0.3 1.16c-0.16-0.08-0.43-0.187-0.81-0.32s-0.94-0.2-1.67-0.2c-0.29 0-0.57 0.03-0.83 0.09s-0.49 0.153-0.69 0.28-0.36 0.287-0.48 0.48-0.18 0.43-0.18 0.71 0.05 0.52 0.16 0.72 0.26 0.377 0.47 0.53 0.46 0.297 0.76 0.43 0.64 0.28 1.03 0.44c0.4 0.16 0.78 0.323 1.15 0.49s0.69 0.367 0.97 0.6 0.51 0.513 0.68 0.84 0.26 0.737 0.26 1.23c0 0.933-0.35 1.64-1.05 2.12s-1.66 0.72-2.87 0.72c-0.91 0-1.6-0.077-2.08-0.23s-0.8-0.27-0.96-0.35l0.34-1.18c0.04 0.027 0.13 0.07 0.26 0.13s0.31 0.127 0.54 0.2 0.5 0.137 0.81 0.19 0.68 0.08 1.09 0.08z"/>
 </defs>
 <g id="Lockup" fill-rule="evenodd" fill="none">
  <g id="lockup">
   <g id="ubuntu_x5F_white-orange_x28_cof_x29__x5F_hex" fill-rule="nonzero">
    <g id="Group" fill="#333">
     <path id="Shape" d="m12.8 23.2c-0.6 0.2-1.5 0.3-2.6 0.5-1 0.2-2.2 0.3-3.6 0.3-1.2 0-2.2-0.2-3.1-0.5-0.8-0.4-1.5-0.9-2-1.5s-0.9-1.4-1.1-2.3-0.3-1.9-0.3-2.9v-8.8h2.8v8.2c0 1.9 0.3 3.3 0.9 4.1s1.6 1.2 3.1 1.2h0.9c0.3 0 0.6 0 0.9-0.1 0.3 0 0.5-0.1 0.8-0.1 0.2 0 0.4-0.1 0.5-0.1v-13.3h2.8v15.3z"/>
     <path id="Shape_1_" d="m19.7 8.6c0.3-0.2 0.9-0.5 1.6-0.7s1.5-0.4 2.4-0.4c1.1 0 2.1 0.2 3 0.6s1.6 1 2.2 1.7 1.1 1.6 1.4 2.6 0.5 2.1 0.5 3.3c0 1.3-0.2 2.4-0.6 3.4s-0.9 1.9-1.6 2.6-1.5 1.3-2.5 1.6-2.1 0.7-3.3 0.7c-1.3 0-2.5-0.1-3.5-0.3s-1.8-0.4-2.5-0.5v-22.6l2.8-0.5c0.1 0 0.1 8.5 0.1 8.5zm0 12.6c0.3 0.1 0.7 0.2 1.2 0.2 0.5 0.1 1.2 0.1 1.9 0.1 1.5 0 2.7-0.5 3.6-1.5s1.4-2.4 1.4-4.3c0-0.8-0.1-1.6-0.2-2.3-0.2-0.7-0.4-1.3-0.8-1.8s-0.8-0.9-1.4-1.2-1.3-0.4-2.1-0.4-1.5 0.1-2.1 0.4-1.1 0.5-1.5 0.8v10z"/>
     <path id="Shape_2_" d="m46.5 23.2c-0.6 0.2-1.5 0.3-2.6 0.5s-2.3 0.3-3.7 0.3c-1.2 0-2.2-0.2-3.1-0.5-0.8-0.4-1.5-0.9-2-1.5s-0.9-1.4-1.1-2.3-0.3-1.9-0.3-2.9v-8.9h2.8v8.2c0 1.9 0.3 3.3 0.9 4.1s1.6 1.2 3.1 1.2h0.9c0.3 0 0.6 0 0.9-0.1 0.3 0 0.5-0.1 0.8-0.1 0.2 0 0.4-0.1 0.5-0.1v-13.2h2.8v15.3h0.1z"/>
     <path id="Shape_3_" d="m50.5 8.3c0.7-0.1 1.5-0.3 2.6-0.5s2.3-0.3 3.7-0.3c1.3 0 2.3 0.2 3.1 0.5 0.8 0.4 1.5 0.8 2 1.5 0.5 0.6 0.8 1.4 1 2.3s0.3 1.9 0.3 2.9v8.8h-2.8v-8.2c0-1-0.1-1.8-0.2-2.5s-0.3-1.2-0.7-1.7-0.7-0.7-1.2-0.9-1.1-0.2-1.8-0.2h-0.9s-0.6 0-0.9 0.1c-0.3 0-0.6 0.1-0.8 0.1s-0.4 0.1-0.5 0.1v13.3h-2.8v-15.3h-0.1z"/>
     <path id="Shape_4_" d="m69.8 7.9h6v2.4h-6v7.3c0 0.8 0.1 1.4 0.2 2 0.1 0.5 0.3 0.9 0.5 1.2s0.5 0.5 0.9 0.6 0.8 0.2 1.3 0.2c0.9 0 1.6-0.1 2.1-0.3s0.8-0.3 1-0.4l0.6 2.3c-0.3 0.1-0.8 0.3-1.5 0.5s-1.5 0.3-2.4 0.3c-1.1 0-2-0.1-2.7-0.4s-1.3-0.7-1.7-1.2-0.7-1.2-0.9-2-0.3-1.7-0.3-2.8v-14.1l2.9-0.5v4.9z"/>
     <path id="Shape_5_" d="m91.1 23.2c-0.6 0.2-1.5 0.3-2.6 0.5s-2.3 0.3-3.7 0.3c-1.2 0-2.2-0.2-3.1-0.5-0.8-0.4-1.5-0.9-2-1.5s-0.9-1.4-1.1-2.3-0.3-1.9-0.3-2.9v-8.9h2.8v8.2c0 1.9 0.3 3.3 0.9 4.1s1.6 1.2 3.1 1.2h0.9c0.3 0 0.6 0 0.9-0.1 0.3 0 0.5-0.1 0.8-0.1 0.2 0 0.4-0.1 0.5-0.1v-13.2h2.8l0.1 15.3z"/>
    </g>
    <g id="Group_1_" transform="translate(93.614)">
     <circle id="Oval" cy="6.5" cx="6.4" r="6.4" fill="#E95420"/>
     <path id="Shape_6_" fill="#fff" d="m3.1 6.5c0 0.5-0.4 0.8-0.8 0.8-0.5 0-0.8-0.4-0.8-0.8 0-0.5 0.4-0.8 0.8-0.8s0.8 0.3 0.8 0.8zm4.7 4c0.2 0.3 0.7 0.5 1.1 0.3s0.5-0.7 0.3-1.1c-0.3-0.5-0.8-0.6-1.1-0.4-0.4 0.3-0.6 0.8-0.3 1.2zm1.4-7.2c0.2-0.4 0.1-0.9-0.3-1.1s-0.9-0.1-1.1 0.3c-0.3 0.4-0.1 0.9 0.3 1.1 0.3 0.2 0.8 0.1 1.1-0.3zm-2.8 0.8c1.2 0 2.2 0.9 2.3 2.1h1.2c0-0.8-0.4-1.6-1-2.2-0.3 0.1-0.7 0.1-1-0.1s-0.5-0.5-0.6-0.8c-0.3-0.1-0.6-0.1-0.9-0.1-0.6 0-1.1 0.1-1.6 0.3l0.6 1c0.3-0.1 0.7-0.2 1-0.2zm-2.3 2.4c0-0.8 0.4-1.5 1-1.9l-0.6-1c-0.8 0.4-1.3 1.1-1.5 2 0.3 0.2 0.4 0.5 0.4 0.9s-0.2 0.7-0.4 0.9c0.2 0.8 0.7 1.6 1.4 2l0.6-1c-0.5-0.4-0.9-1.1-0.9-1.9zm2.3 2.3c-0.4 0-0.7-0.1-1-0.2l-0.6 1c0.5 0.2 1 0.4 1.6 0.4 0.3 0 0.6 0 0.9-0.1 0.1-0.4 0.3-0.7 0.6-0.9s0.7-0.2 1-0.1c0.6-0.6 1-1.4 1-2.3h-1.2c-0.1 1.3-1.1 2.2-2.3 2.2z"/>
    </g>
   </g>
   <g id="manuals">
    <use xlink:href="#path-1" fill="#000000"/>
    <use xlink:href="#path-1" fill="#333333"/>
   </g>
  </g>
 </g>
</svg>
